<svg width="17" height="17" viewBox="0 0 17 17" fill="none" xmlns="http://www.w3.org/2000/svg">
<path d="M11.9498 9.26529V12.8354C11.9498 15.8104 10.7548 17.0005 7.76735 17.0005H4.18242C1.19498 17.0005 0 15.8104 0 12.8354V9.26529C0 6.29023 1.19498 5.1002 4.18242 5.1002H7.76735C10.7548 5.1002 11.9498 6.29023 11.9498 9.26529Z" fill="#B7BABC"/>
<path d="M12.8108 0H9.2259C6.70799 0 5.46936 0.851389 5.14183 2.89424C5.0419 3.51752 5.56983 4.03759 6.20363 4.03759H7.6895C11.2744 4.03759 12.9389 5.69512 12.9389 9.2652V10.7449C12.9389 11.3761 13.4611 11.9018 14.087 11.8023C16.1383 11.4762 16.9933 10.2426 16.9933 7.73517V4.16509C16.9933 1.19003 15.7983 0 12.8108 0Z" fill="#B7BABC"/>
</svg>
