<svg width="136" height="136" viewBox="0 0 136 136" fill="none" xmlns="http://www.w3.org/2000/svg">
<path opacity="0.54" d="M68.0856 111.275C68.1393 109.915 76.854 108.555 78.6435 108.699C82.6161 109.039 88.7182 110.864 89.3982 112.349C90.3287 114.335 67.9425 114.514 68.0856 111.275Z" fill="#B1E0E9"/>
<path d="M77.1934 110.828L78.5176 83.7711L81.1839 83.789L80.325 110.703" fill="#D2EDF3"/>
<path opacity="0.75" d="M68.9616 63.891C67.4227 60.491 72.8447 59.3636 74.9026 58.9521C78.6605 58.1826 92.5826 57.6636 93.9605 62.9605C94.6047 65.4479 73.8111 74.5384 68.9616 63.891Z" fill="#B1E0E9"/>
<path opacity="0.68" d="M90.5254 65.8414C85.3717 68.3645 75.7981 70.5477 71.0202 66.5393C71.0023 66.6466 71.0023 66.7182 71.0023 66.7182C71.0023 66.7182 69.3381 71.7824 70.716 74.8245C72.0938 77.8667 73.096 79.8351 75.4223 80.7656C77.7486 81.6961 79.6454 82.0719 79.6454 82.0719C79.6454 82.0719 82.1507 81.8035 83.797 81.034C85.4433 80.2645 88.2528 78.7077 89.398 76.8824C90.5433 75.0393 91.2591 72.8382 91.3485 71.4424C91.438 70.0466 91.098 66.8614 91.098 66.8614C91.098 66.8614 90.9906 66.414 90.5254 65.8414Z" fill="#FF3008"/>
<path opacity="0.54" d="M68.7663 61.9751C68.7663 61.9751 67.0663 69.8488 68.7305 74.1077C70.3947 78.3488 71.6115 81.1225 74.4389 82.393C77.2842 83.6635 79.6105 84.1825 79.6105 84.1825C79.6105 84.1825 82.7062 83.7709 84.7284 82.6793C86.7505 81.5877 90.2399 79.3688 91.6715 76.774C93.1031 74.1793 93.9978 71.0656 94.141 69.133C94.2662 67.1825 94.302 62.5656 94.302 62.5656C94.302 62.5656 93.121 58.3604 81.561 58.3246C69.9831 58.3246 68.7663 61.9751 68.7663 61.9751Z" fill="#B1E0E9"/>
<path opacity="0.68" d="M71.0391 66.6105C75.6023 70.8694 85.3728 68.4178 90.5265 65.8947C89.5423 64.66 87.5917 64.4989 81.1854 64.4452C72.9181 64.3558 71.1823 65.8231 71.0391 66.6105Z" fill="#FF3008"/>
<path opacity="0.47" d="M53.8079 26.329C54.6311 27.3847 46.1311 27.9395 46.1848 26.3826C46.2027 25.7563 47.9206 25.2374 50.05 25.2374C52.1974 25.2374 53.3785 25.7921 53.8079 26.329Z" fill="#3B5748"/>
<path opacity="0.37" d="M36.3428 68.3804L55.5438 68.2014L55.508 89.6751L38.3112 90.6593L36.3428 68.3804Z" fill="white"/>
<path d="M40.4405 109.807C40.4226 107.141 40.0468 102.131 39.6531 96.959C39.2774 91.9306 36.9689 74.4474 36.4679 69.9558C35.9847 65.4464 35.5195 57.519 37.0226 54.2621C39.1163 49.6632 43.0531 47.3905 45.0573 46.3705C47.0616 45.3505 46.471 45.6011 46.471 45.6011C46.471 45.6011 46.2742 30.1579 46.2563 28.6547C46.2384 27.1516 46.2205 23.3221 46.2205 23.3221C46.2205 23.3221 48.9584 23 50.7658 23C52.5731 23 53.5394 23.5189 53.5394 23.5189C53.5394 23.5189 54.2015 29.5316 54.2194 31.6968C54.2373 33.8621 54.5237 45.7263 54.5237 46.2274C54.5237 46.7284 61.5026 49.1263 62.8805 51.2916C65.6184 55.5327 64.7594 61.2948 65.0279 66.4664C65.2963 71.6379 64.3478 89.3179 64.3836 93.9885C64.4194 98.659 63.8289 110.004 63.8289 110.004L40.4405 109.807Z" fill="#3B5748"/>
<path opacity="0.47" d="M53.9147 26.1677C54.7557 27.2414 46.1663 27.7962 46.22 26.2214C46.2378 25.5772 47.9736 25.0582 50.121 25.0582C52.2862 25.0761 53.4852 25.6309 53.9147 26.1677Z" fill="#3B5748"/>
<path opacity="0.37" d="M36.2705 68.6132L55.6504 68.4343L55.6147 90.1227L38.2389 91.1069L36.2705 68.6132Z" fill="white"/>
<path opacity="0.47" d="M63.8295 109.843C60.6622 112.85 50.7664 116.554 40.6379 109.825C39.0632 108.788 46.1316 106.497 52.4306 106.497C58.7295 106.497 65.1895 108.537 63.8295 109.843Z" fill="#3B5748"/>
</svg>
