<svg width="28" height="28" viewBox="0 0 28 28" fill="none" xmlns="http://www.w3.org/2000/svg">
<path d="M22.4614 3.85156H5.3178C4.6484 3.8523 4.00662 4.11854 3.53329 4.59188C3.05995 5.06522 2.7937 5.70699 2.79297 6.37639V18.1589C2.7937 18.8283 3.05995 19.4701 3.53329 19.9434C4.00662 20.4168 4.6484 20.683 5.3178 20.6837C5.54096 20.6839 5.75495 20.7726 5.91276 20.9304C6.07056 21.0882 6.15927 21.3022 6.1594 21.5254V23.3195C6.1594 23.6242 6.24209 23.9231 6.39865 24.1845C6.55521 24.4458 6.77977 24.6598 7.04838 24.8035C7.317 24.9473 7.61959 25.0155 7.9239 25.0007C8.2282 24.986 8.52281 24.889 8.7763 24.72L14.6182 20.8251C14.7563 20.7326 14.9189 20.6834 15.0851 20.6837H19.1879C19.7392 20.6827 20.2752 20.502 20.7146 20.1691C21.154 19.8362 21.473 19.3691 21.6231 18.8386L24.8975 7.05279C25.0008 6.6775 25.0162 6.28343 24.9423 5.90124C24.8684 5.51906 24.7074 5.15908 24.4716 4.84931C24.2359 4.53955 23.9319 4.28837 23.5832 4.11531C23.2345 3.94226 22.8506 3.852 22.4614 3.85156ZM23.2742 6.60573L20.0015 18.3874C19.9509 18.5641 19.8441 18.7195 19.6973 18.8301C19.5506 18.9408 19.3717 19.0006 19.1879 19.0005H15.0851C14.5865 18.9999 14.099 19.1475 13.6846 19.4246L7.84262 23.3195V21.5254C7.84189 20.856 7.57564 20.2142 7.10231 19.7408C6.62897 19.2675 5.9872 19.0013 5.3178 19.0005C5.09463 19.0004 4.88064 18.9117 4.72284 18.7539C4.56503 18.5961 4.47632 18.3821 4.47619 18.1589V6.37639C4.47632 6.15322 4.56503 5.93923 4.72284 5.78143C4.88064 5.62363 5.09463 5.53491 5.3178 5.53478H22.4614C22.5915 5.53511 22.7197 5.56545 22.8362 5.62345C22.9526 5.68144 23.0541 5.76552 23.1328 5.86914C23.2114 5.97277 23.2651 6.09314 23.2896 6.2209C23.3141 6.34865 23.3089 6.48034 23.2742 6.60573Z" fill="#111425"/>
<path d="M7.84356 11.4254H12.0516C12.2748 11.4254 12.4889 11.3367 12.6467 11.1789C12.8045 11.0211 12.8932 10.807 12.8932 10.5838C12.8932 10.3606 12.8045 10.1465 12.6467 9.98869C12.4889 9.83086 12.2748 9.74219 12.0516 9.74219H7.84356C7.62035 9.74219 7.40629 9.83086 7.24845 9.98869C7.09062 10.1465 7.00195 10.3606 7.00195 10.5838C7.00195 10.807 7.09062 11.0211 7.24845 11.1789C7.40629 11.3367 7.62035 11.4254 7.84356 11.4254Z" fill="#111425"/>
<path d="M15.418 13.1094H7.84356C7.62035 13.1094 7.40629 13.198 7.24845 13.3559C7.09062 13.5137 7.00195 13.7278 7.00195 13.951C7.00195 14.1742 7.09062 14.3883 7.24845 14.5461C7.40629 14.7039 7.62035 14.7926 7.84356 14.7926H15.418C15.6413 14.7926 15.8553 14.7039 16.0132 14.5461C16.171 14.3883 16.2597 14.1742 16.2597 13.951C16.2597 13.7278 16.171 13.5137 16.0132 13.3559C15.8553 13.198 15.6413 13.1094 15.418 13.1094Z" fill="#111425"/>
</svg>
