<svg width="93" height="32" viewBox="0 0 93 32" fill="none" xmlns="http://www.w3.org/2000/svg">
<g clip-path="url(#clip0_47_81179)">
<path fill-rule="evenodd" clip-rule="evenodd" d="M11.7518 2.08694H3.5218C3.27532 2.08694 3.03892 2.18478 2.86454 2.35897C2.69016 2.53317 2.59206 2.76946 2.5918 3.01594V28.9819C2.5918 29.2286 2.68978 29.4651 2.86419 29.6395C3.0386 29.814 3.27515 29.9119 3.5218 29.9119H30.4728V20.7689C30.4728 10.4669 22.0748 2.08594 11.7518 2.08594V2.08694Z" fill="#0063FB"/>
<path fill-rule="evenodd" clip-rule="evenodd" d="M89.4784 2.08694H33.4984C33.3762 2.08667 33.2551 2.1105 33.1421 2.15706C33.0291 2.20362 32.9264 2.27199 32.8399 2.35827C32.7533 2.44455 32.6846 2.54704 32.6377 2.65989C32.5908 2.77273 32.5665 2.89372 32.5664 3.01594V29.9109H89.4784C89.7247 29.9109 89.961 29.8132 90.1353 29.6393C90.3097 29.4653 90.4079 29.2292 90.4084 28.9829V3.01594C90.4084 2.76929 90.3104 2.53274 90.136 2.35833C89.9616 2.18392 89.7251 2.08594 89.4784 2.08594V2.08694Z" fill="#06BEFB"/>
<path fill-rule="evenodd" clip-rule="evenodd" d="M2.592 28.983V3.017C2.592 2.77035 2.68998 2.5338 2.86439 2.35939C3.0388 2.18498 3.27535 2.087 3.522 2.087H11.752C22.075 2.087 30.474 10.469 30.474 20.771V29.912H3.523C3.27669 29.912 3.04045 29.8143 2.8661 29.6403C2.69175 29.4663 2.59353 29.2303 2.593 28.984L2.592 28.983ZM90.408 28.983C90.408 29.2297 90.31 29.4662 90.1356 29.6406C89.9612 29.815 89.7246 29.913 89.478 29.913H32.565V3.016C32.565 2.76935 32.663 2.5328 32.8374 2.35839C33.0118 2.18398 33.2483 2.086 33.495 2.086H89.476C89.5981 2.086 89.7191 2.11005 89.8319 2.15679C89.9447 2.20353 90.0472 2.27203 90.1336 2.35839C90.22 2.44475 90.2885 2.54727 90.3352 2.6601C90.3819 2.77294 90.406 2.89387 90.406 3.016V28.982L90.408 28.983ZM89.478 0H33.496C32.6953 -1.57714e-06 31.9273 0.317668 31.3605 0.883294C30.7938 1.44892 30.4746 2.21629 30.473 3.017V11.7C27.094 4.78 19.972 0 11.752 0H3.522C2.72146 0.000263239 1.95371 0.31805 1.38718 0.883647C0.820647 1.44924 0.501589 2.21646 0.5 3.017V28.983C0.501589 29.7837 0.820784 30.5511 1.38753 31.1167C1.95429 31.6823 2.72229 32 3.523 32H89.477C90.2777 32 91.0457 31.6823 91.6125 31.1167C92.1792 30.5511 92.4984 29.7837 92.5 28.983V3.017C92.4984 2.21629 92.1792 1.44892 91.6125 0.883294C91.0457 0.317668 90.2787 -1.57714e-06 89.478 0Z" fill="white"/>
<path fill-rule="evenodd" clip-rule="evenodd" d="M42.0071 10.5742H49.5451C49.8731 10.5742 50.1381 10.8392 50.1381 11.1662V13.0222C50.1381 13.1 50.1227 13.1771 50.0929 13.249C50.0631 13.3209 50.0194 13.3862 49.9643 13.4412C49.9092 13.4962 49.8439 13.5398 49.7719 13.5694C49.7 13.5991 49.6229 13.6144 49.5451 13.6142H44.7111V16.0632H48.5611C48.8881 16.0632 49.1531 16.3282 49.1531 16.6552V18.2352C49.1531 18.313 49.1377 18.3901 49.1079 18.462C49.0781 18.5339 49.0344 18.5992 48.9793 18.6542C48.9242 18.7092 48.8589 18.7528 48.7869 18.7824C48.715 18.8121 48.6379 18.8274 48.5601 18.8272H44.7111V20.8322C44.7111 20.91 44.6957 20.9871 44.6659 21.059C44.6361 21.1309 44.5924 21.1962 44.5373 21.2512C44.4822 21.3062 44.4169 21.3498 44.3449 21.3794C44.273 21.4091 44.1959 21.4244 44.1181 21.4242H42.0081C41.9301 21.4245 41.853 21.4094 41.7809 21.3797C41.7088 21.3501 41.6433 21.3065 41.5882 21.2515C41.533 21.1965 41.4892 21.1312 41.4593 21.0592C41.4294 20.9873 41.4141 20.9101 41.4141 20.8322V11.1662C41.4141 10.8392 41.6801 10.5742 42.0071 10.5742ZM53.4221 10.5742H55.5331C55.8611 10.5742 56.1261 10.8392 56.1261 11.1662V20.8322C56.1261 20.91 56.1107 20.9871 56.0809 21.059C56.0511 21.1309 56.0074 21.1962 55.9523 21.2512C55.8972 21.3062 55.8319 21.3498 55.7599 21.3794C55.688 21.4091 55.6109 21.4244 55.5331 21.4242H53.4221C53.3442 21.4244 53.2671 21.4091 53.1952 21.3794C53.1233 21.3498 53.0579 21.3062 53.0028 21.2512C52.9477 21.1962 52.904 21.1309 52.8742 21.059C52.8444 20.9871 52.8291 20.91 52.8291 20.8322V11.1662C52.8291 10.8392 53.0941 10.5742 53.4221 10.5742ZM80.9661 10.5742H78.8551C78.7772 10.5741 78.7001 10.5893 78.6282 10.619C78.5563 10.6487 78.4909 10.6923 78.4358 10.7473C78.3807 10.8022 78.337 10.8676 78.3072 10.9394C78.2774 11.0113 78.2621 11.0884 78.2621 11.1662V15.9062L74.9611 10.9272C74.8887 10.8185 74.7906 10.7293 74.6755 10.6677C74.5603 10.6061 74.4317 10.574 74.3011 10.5742H72.6801C72.6022 10.5741 72.5251 10.5893 72.4532 10.619C72.3813 10.6487 72.3159 10.6923 72.2608 10.7473C72.2057 10.8022 72.162 10.8676 72.1322 10.9394C72.1024 11.0113 72.0871 11.0884 72.0871 11.1662V20.8322C72.0871 21.1592 72.3531 21.4242 72.6801 21.4242H74.7921C74.8699 21.4244 74.947 21.4091 75.0189 21.3794C75.0909 21.3498 75.1562 21.3062 75.2113 21.2512C75.2664 21.1962 75.3101 21.1309 75.3399 21.059C75.3697 20.9871 75.3851 20.91 75.3851 20.8322V16.1472L78.6141 21.0672C78.686 21.1769 78.7841 21.2669 78.8995 21.3292C79.0149 21.3915 79.1439 21.4242 79.2751 21.4242H80.9671C81.045 21.4245 81.1222 21.4094 81.1942 21.3797C81.2663 21.3501 81.3318 21.3065 81.387 21.2515C81.4421 21.1965 81.4859 21.1312 81.5158 21.0592C81.5457 20.9873 81.5611 20.9101 81.5611 20.8322V11.1662C81.5611 11.0883 81.5457 11.0112 81.5158 10.9392C81.4859 10.8673 81.4421 10.8019 81.387 10.7469C81.3318 10.6919 81.2663 10.6483 81.1942 10.6187C81.1222 10.5891 81.044 10.574 80.9661 10.5742ZM66.1381 10.5742H68.2501C68.5781 10.5742 68.8431 10.8392 68.8431 11.1662V20.8322C68.8431 20.91 68.8277 20.9871 68.7979 21.059C68.7681 21.1309 68.7244 21.1962 68.6693 21.2512C68.6142 21.3062 68.5489 21.3498 68.4769 21.3794C68.405 21.4091 68.3279 21.4244 68.2501 21.4242H66.5581C66.4267 21.4244 66.2974 21.3919 66.1818 21.3296C66.0663 21.2672 65.968 21.1771 65.8961 21.0672L62.6671 16.1472V20.8322C62.6671 20.91 62.6517 20.9871 62.6219 21.059C62.5921 21.1309 62.5484 21.1962 62.4933 21.2512C62.4382 21.3062 62.3729 21.3498 62.3009 21.3794C62.229 21.4091 62.1519 21.4244 62.0741 21.4242H59.9631C59.8852 21.4244 59.8081 21.4091 59.7362 21.3794C59.6643 21.3498 59.5989 21.3062 59.5438 21.2512C59.4887 21.1962 59.445 21.1309 59.4152 21.059C59.3854 20.9871 59.3701 20.91 59.3701 20.8322V11.1662C59.3701 10.8392 59.6351 10.5742 59.9631 10.5742H61.5851C61.8501 10.5742 62.0981 10.7072 62.2451 10.9282L65.5451 15.9062V11.1662C65.5451 10.8392 65.8111 10.5742 66.1381 10.5742Z" fill="white"/>
</g>
<defs>
<clipPath id="clip0_47_81179">
<rect width="93" height="32" fill="white"/>
</clipPath>
</defs>
</svg>
