<svg width="136" height="136" viewBox="0 0 136 136" fill="none" xmlns="http://www.w3.org/2000/svg">
<path d="M31.9998 108.6C32.3998 109.2 65.1998 108.6 65.1998 108.6C65.1998 108.6 67.1998 105.6 67.3998 100.4C67.5998 88.2 66.3998 66 69.3998 59.4C63.5998 59.2 35.7998 58.6 35.7998 58.6C35.7998 58.6 31.3998 64.8 29.1998 73.4C26.7998 83 29.3998 104.4 31.9998 108.6Z" fill="#26969C"/>
<path d="M74.3998 97C71.3998 104.6 65.3998 108.8 65.3998 108.8C65.3998 108.8 68.1998 102.4 66.9998 95.4C65.3998 85.6 64.5998 77.8 65.3998 72.8C65.7998 70.2 69.5998 59.4 69.5998 59.4C69.5998 59.4 74.7998 71.8 75.3998 76.6C75.9998 83.2 76.9998 90.4 74.3998 97Z" fill="white"/>
<path d="M35.7996 52.6L35.5996 60H69.3996C69.3996 60 69.7996 53.8 68.7996 53.4C67.7996 53 35.7996 52.6 35.7996 52.6Z" fill="#26969C"/>
<path d="M36.5297 57.1483L36.5039 59.3481L37.5038 59.3598L37.5296 57.16L36.5297 57.1483Z" fill="white"/>
<path d="M38.8362 57.2066L38.8105 59.4063L39.8104 59.4181L39.8361 57.2183L38.8362 57.2066Z" fill="white"/>
<path d="M41.2826 57.3065L41.2568 59.5063L42.2567 59.518L42.2825 57.3182L41.2826 57.3065Z" fill="white"/>
<path d="M43.5951 57.4675L43.5693 59.6673L44.5692 59.679L44.595 57.4792L43.5951 57.4675Z" fill="white"/>
<path d="M45.9975 57.5197L45.9717 59.7195L46.9716 59.7312L46.9974 57.5314L45.9975 57.5197Z" fill="white"/>
<path d="M48.1977 57.5722L48.1719 59.772L49.1719 59.7837L49.1976 57.5839L48.1977 57.5722Z" fill="white"/>
<path d="M50.6 57.43L50.5742 59.6298L51.5741 59.6415L51.5999 57.4417L50.6 57.43Z" fill="white"/>
<path d="M52.9086 57.4863L52.8828 59.6861L53.8827 59.6978L53.9085 57.498L52.9086 57.4863Z" fill="white"/>
<path d="M55.2504 57.5779L55.2246 59.7776L56.2245 59.7894L56.2503 57.5896L55.2504 57.5779Z" fill="white"/>
<path d="M57.4936 57.5705L57.4678 59.7702L58.4677 59.782L58.4935 57.5822L57.4936 57.5705Z" fill="white"/>
<path d="M62.1576 57.6367L62.1318 59.8365L63.1317 59.8482L63.1575 57.6485L62.1576 57.6367Z" fill="white"/>
<path d="M64.56 57.6888L64.5342 59.8885L65.5341 59.9003L65.5599 57.7005L64.56 57.6888Z" fill="white"/>
<path d="M67.1293 57.8174L67.1035 60.0172L68.1034 60.0289L68.1292 57.8291L67.1293 57.8174Z" fill="white"/>
<path d="M59.8548 57.6843L59.8291 59.884L60.829 59.8958L60.8548 57.696L59.8548 57.6843Z" fill="white"/>
<path d="M77.1997 105C73.1997 105.4 67.9997 105.6 64.7997 105.2C61.7997 104.8 56.1997 102.4 54.5997 101C53.1997 99.6 54.7997 99.6 55.1997 99.8C56.5997 100 58.9997 101 64.3997 100.4C73.5997 99.4 77.5997 98 79.1997 94.6" fill="#C7C6B7"/>
<path d="M104.6 75.6C105.2 76.4 111 81.4 111.4 89.2C111.8 99 103.6 107.4 103.6 107.4H78.6003C78.6003 107.4 67.8003 101.6 69.0003 92.2C69.8003 85.8 72.0003 81 75.6003 76C78.0003 72.2 104.6 75.6 104.6 75.6Z" fill="#B5B4A3"/>
<path d="M106.6 64.8001C107.4 67.4001 108.8 74.8 106.2 83.2C103.6 91.6 100.6 101.2 100.8 102C101 103 103.6 105.2 104 106.2C104.4 107.4 104.4 108.4 103.6 109C102.8 109.6 94.5999 110 93.7999 109.2C93.1999 108.4 94.1999 84.6 94.1999 84.6C94.1999 84.6 93.7999 80.8001 90.7999 80.8001C87.7999 80.8001 87.3999 85.2 87.3999 85.2C87.3999 85.2 87.9999 108.6 86.9999 109.4C85.9999 110 78.3999 110 77.5999 109.6C76.9999 109.2 76.5999 106.4 77.9999 105.2C79.1999 104.2 80.3999 102 80.3999 100.6C80.5999 97.8 74.9999 86.6 74.3999 82.6C73.9999 78.6 72.3999 73 73.7999 65.6C74.7999 60.4 81.7999 48.8 81.7999 48.8L99.1999 49.2001C99.3999 49.2001 105.4 61.4001 106.6 64.8001Z" fill="#C7C6B7"/>
<path d="M92.0001 20.2C83.4001 19.8 80.0001 24 79.2001 29.8C78.4001 35.6 79.6001 38.2 79.6001 38.2C79.6001 38.2 75.8001 45.2 79.2001 49C82.6001 52.8 86.8001 53.2 90.4001 51C94.2001 53 99.8001 52.8 102.4 49.2C105 45.8 102 37.6 102 37.6C102 37.6 107.6 21 92.0001 20.2Z" fill="#C7C6B7"/>
<path d="M95.4 21C95.2 22.2 98.6 24.2 101 28C103 31.2 103.2 37.6 104.4 37.8C106.8 38.2 112.4 29 110.2 26.2C107.4 22.4 95.6 19.6 95.4 21Z" fill="#C7C6B7"/>
<path d="M86.5999 21C86.7999 22.2 83.3999 24.2 80.9999 28C78.9999 31.2 78.7999 37.6 77.5999 37.8C75.1999 38.2 69.5999 29 71.7999 26.2C74.3999 22.4 86.1999 19.6 86.5999 21Z" fill="#C7C6B7"/>
<path d="M96.9999 36.2C98.1999 36.4 98.2 39.2 96.8 39C95.8 38.8 95.7999 36 96.9999 36.2Z" fill="#1D2820"/>
<path d="M84.6 36.2C85.8 36.4 85.6 39.2 84.4 39C83.2 38.8 83.4 36 84.6 36.2Z" fill="#1D2820"/>
<path d="M90.6002 51.4C90.4002 51.4 90.2002 51.2 90.2002 51V49C90.2002 48.8 90.4002 48.6 90.6002 48.6C90.8002 48.6 91.0002 48.8 91.0002 49V51C90.8002 51.2 90.8002 51.4 90.6002 51.4Z" fill="#84816A"/>
<path d="M90.6003 43.4C94.6003 43.6 95.2003 45 95.2003 45.4C95.2003 46.6 93.0003 49.4 90.4003 49.2C87.8003 49 85.6003 46.2 86.0003 45.2C86.6003 44.2 89.0003 43.4 90.6003 43.4Z" fill="#1D2820"/>
<path d="M103 33.4001C102.6 31.6001 102 29.4001 101.2 28.0001C98.8002 24.2001 95.4002 22.2 95.6002 21C95.6002 21 95.6002 20.8 95.8002 20.8C102.8 22.6 103.4 29.0001 103 33.4001Z" fill="#AFAD9C"/>
<path d="M86.1998 20.8C86.3998 20.8 86.3998 21 86.3998 21C86.5998 22.2 83.1998 24.2001 80.7998 28.0001C79.7998 29.6001 79.1998 32.0001 78.7998 34.0001C78.7998 32.8001 78.7998 31.6001 78.9998 30.0001C79.7998 25.6001 81.7998 22 86.1998 20.8Z" fill="#AFAD9C"/>
<path d="M90.3999 57.6C84.1999 57.6 79.7999 53.8 79.5999 53.8C79.1999 53.4 79.1999 52.8 79.3999 52.4C79.7999 52 80.3999 52 80.7999 52.2C80.7999 52.2 84.9999 55.8 90.5999 55.6C96.3999 55.4 100.4 52.2 100.4 52.2C100.8 51.8 101.4 51.8 101.8 52.4C102.2 52.8 102.2 53.4 101.6 53.8C101.4 54 97.1999 57.6 90.3999 57.6Z" fill="#DA260D"/>
<path d="M90.7996 61.4001C90.3996 61.4001 89.9996 61.4001 89.7996 61.2001C88.9996 61.0001 88.5996 60 88.5996 59C88.5996 58 89.1996 57 90.5996 56.8C91.3996 56.8 91.9996 57.0001 92.5996 57.4001C93.1996 58.0001 93.3996 58.6001 93.1996 59.4001C93.1996 60.0001 92.7996 60.6 92.3996 61C91.7996 61.4 91.1996 61.4001 90.7996 61.4001ZM90.5996 57.4001C89.5996 57.6001 89.1996 58.4 89.1996 59C89.1996 59.6 89.3996 60.4 89.7996 60.6C90.3996 60.8 91.1996 60.8001 91.7996 60.4001C92.1996 60.2001 92.3996 59.8001 92.3996 59.4001C92.3996 58.6001 92.1996 58.2 91.9996 58C91.5996 57.6 90.9996 57.4001 90.5996 57.4001Z" fill="#84816A"/>
<path d="M53.0002 96.4C53.0002 96.4 49.8002 109 50.0002 109.2C51.2002 110 89.8002 109.2 89.8002 109.2L86.6002 96.6L53.0002 96.4Z" fill="#FF3008"/>
<path d="M57.9996 93.4001C59.7996 92.4001 61.3996 94.6001 61.3996 94.6001C61.3996 94.6001 62.3996 90.6001 63.7996 89.8001C65.7996 89.4001 67.5996 91.4001 67.5996 91.4001C67.5996 91.4001 68.5996 89.8001 70.3996 89.8001C72.1996 89.8001 72.7996 90.8001 72.9996 91.6001C72.9996 91.8001 73.1996 90.8001 73.9996 90.6001C74.9996 90.2001 75.3996 91.0001 75.5996 91.0001C76.7996 90.6001 77.9996 90.2001 78.5996 90.4001C80.1996 90.8001 80.7996 92.8001 80.9996 93.4001C81.1996 94.0001 83.5996 93.2001 83.9996 93.4001C85.9996 94.0001 85.7996 96.8001 85.7996 96.8001C85.7996 96.8001 78.1996 100.2 68.5996 100C60.3996 99.8001 57.7996 99.2001 55.5996 98.2001C54.9996 97.2001 54.7996 95.4001 55.7996 94.8001C56.3996 94.6001 57.1996 94.6001 57.1996 94.6001L57.9996 93.4001Z" fill="#725347"/>
<path d="M90.0002 109.2C90.0002 109.2 79.6002 107 69.6002 107.2C59.6002 107.4 50.2002 109.2 50.2002 109.2C50.2002 109.2 58.8002 110.6 69.4002 110.6C81.4002 110.8 90.0002 109.2 90.0002 109.2Z" fill="#DA260D"/>
<path d="M37.6003 81.2001C36.8003 82.2001 37.8003 83.2001 38.8003 84.0001C39.8003 84.8001 41.0003 85.0001 41.4003 84.4001C41.8003 83.8001 41.6003 82.4001 40.8003 81.8001C40.0003 81.0001 38.2003 80.6001 37.6003 81.2001Z" fill="white"/>
<path d="M44.2002 80.2001C45.4002 80.2001 46.4002 78.6001 45.6002 77.0001C44.8002 75.4001 44.0002 74.2001 42.8002 74.8001C41.6002 75.4001 41.2002 77.8001 42.0002 79.2001C43.0002 80.2001 43.8002 80.2001 44.2002 80.2001Z" fill="white"/>
<path d="M49.9997 79.4001C50.9997 80.0001 52.3997 79.8001 53.1997 78.2001C53.9997 76.8001 53.5997 74.8001 52.9997 74.6001C52.3997 74.4001 50.7997 75.2001 49.9997 76.4001C48.9997 77.6001 49.3997 79.0001 49.9997 79.4001Z" fill="white"/>
<path d="M53.2004 83.0001C53.4004 83.6001 55.0004 84.4001 56.2004 83.4001C57.4004 82.4001 57.6004 81.0001 57.0004 80.6001C56.4004 80.2001 55.0004 80.0001 54.4004 80.6001C53.4004 81.4001 53.0004 82.4001 53.2004 83.0001Z" fill="white"/>
<path d="M42.4004 89.0001C42.4004 90.4001 43.6004 90.6001 44.4004 90.4001C45.2004 90.2001 46.4004 88.6001 47.8004 88.8001C49.0004 89.0001 49.0004 89.6001 50.6004 90.0001C52.0004 90.4001 52.6004 90.2001 53.4004 89.2001C54.2004 88.2001 53.6004 86.0001 52.8004 84.8001C52.0004 83.6001 51.0004 81.4001 49.2004 80.8001C47.6004 80.2001 47.2004 79.8001 45.2004 81.6001C43.2004 83.4001 42.8004 84.8001 42.4004 85.6001C42.2004 86.6001 42.4004 88.4001 42.4004 89.0001Z" fill="white"/>
</svg>
