<svg width="102" height="172" viewBox="0 0 102 172" fill="none" xmlns="http://www.w3.org/2000/svg">
<rect width="33.0571" height="33.0571" rx="2" fill="#F4F5FB"/>
<path d="M94.3519 151.034C92.588 151.034 91.0094 151.917 90.0251 153.271C89.0409 151.917 87.4622 151.034 85.6984 151.034C82.7067 151.034 80.2802 153.542 80.2802 156.642C80.2802 157.836 80.4653 158.939 80.7869 159.962C82.3266 164.978 87.0724 167.978 89.4209 168.8C89.7523 168.921 90.298 168.921 90.6293 168.8C92.9778 167.978 97.7236 164.978 99.2633 159.962C99.5849 158.939 99.7701 157.836 99.7701 156.642C99.7701 153.542 97.3436 151.034 94.3519 151.034Z" fill="#F62525"/>
</svg>
