<svg width="30" height="30" viewBox="0 0 30 30" fill="none" xmlns="http://www.w3.org/2000/svg">
<g clip-path="url(#clip0_47_45125)">
<path d="M19.2188 19.2188C19.2188 19.2188 22.2188 18.4688 23.1563 16.875L20.0625 15.9375L19.2188 19.2188Z" fill="#858585"/>
<path d="M14.3436 2.62572C14.3436 2.62572 10.9686 0.844466 8.62484 1.59447C6.28109 2.34447 1.78109 9.37572 6.56234 13.3132L6.65609 13.407C11.6248 17.3445 13.4998 7.03197 13.4998 7.03197L14.3436 2.62572Z" fill="#8E8686"/>
<path d="M14.1561 3.65453C14.1561 3.65453 11.6248 1.49828 9.28106 2.24828C6.93731 2.90453 2.90606 9.37328 7.59356 12.9358L7.68731 13.0295C12.6561 16.592 14.5311 7.21703 14.5311 7.21703L14.1561 3.65453Z" fill="#B8B8B8"/>
<path d="M6.75013 10.3125C6.75013 10.3125 4.31263 11.1562 4.59388 12.8437C4.87513 14.5312 5.81263 17.625 9.65638 17.625L10.0314 15.2812L6.75013 10.3125Z" fill="#8E8686"/>
<path d="M7.49984 9.5625C7.49984 9.5625 4.96859 10.5938 5.24984 12.2813C5.53109 13.9688 6.84359 17.3438 10.6873 17.3438L11.0623 15L7.49984 9.5625Z" fill="#B8B8B8"/>
<path d="M7.87517 27.19C6.18767 26.2525 5.43767 24.0962 6.28142 21.94C6.56267 21.19 8.15642 19.315 8.62517 18.94C10.1252 17.815 16.2189 17.065 21.0939 20.6275C21.9377 21.2837 22.5939 22.315 22.8752 23.6275V23.7212C23.5314 27.0025 22.4064 29.6275 19.5002 29.6275C16.1252 29.6275 10.7814 28.7837 7.87517 27.19Z" fill="#7B7F79"/>
<path d="M7.31267 26.8136C5.62517 25.7824 4.87517 23.4386 5.71892 21.0949C6.00017 20.2511 7.59392 18.1886 8.06267 17.8136C9.56267 16.5949 15.6564 15.7511 20.5314 19.5949C21.3752 20.3449 22.0314 21.4699 22.3127 22.8761V22.9699C22.9689 26.6261 21.8439 29.4386 18.9377 29.4386C15.5627 29.4386 10.2189 28.5949 7.31267 26.8136Z" fill="#7B7F79"/>
<path d="M8.06267 26.2486C6.37517 25.3111 5.62517 23.1548 6.46892 20.9986C6.75017 20.2486 8.34391 18.3736 8.81266 17.9986C10.3127 16.8736 16.4064 16.1236 21.2814 19.6861C22.1252 20.3423 22.7814 21.3736 23.0627 22.6861V22.7798C23.7189 26.0611 22.5939 28.6861 19.6877 28.6861C16.3127 28.5923 10.8752 27.7486 8.06267 26.2486Z" fill="#C8CEC6"/>
<path d="M8.15644 24.2807C6.65644 23.5307 7.12519 21.8432 7.96894 19.9682C8.25019 19.312 8.90644 18.7495 9.37519 18.4682C10.7814 17.5307 16.2189 16.687 20.7189 19.687C21.5627 20.2495 22.1252 21.0932 22.4064 22.1245V22.2182C22.9689 24.937 21.0002 27.3745 18.5627 26.9995C15.4689 26.5307 10.7814 25.4995 8.15644 24.2807Z" fill="#D1D1D1"/>
<path d="M8.06235 24.2821C6.74985 23.5321 8.1561 22.6883 8.81235 20.9071C9.0936 20.2508 10.4061 18.9383 10.7811 18.6571C11.9998 17.7196 14.9061 16.7821 18.8436 19.7821C19.5936 20.3446 20.0623 21.1883 20.2498 22.2196V22.3133C20.7186 25.0321 19.4061 27.0946 17.3436 26.7196C14.5311 26.2508 10.3123 25.5008 8.06235 24.2821Z" fill="#EBEBEB"/>
<path d="M17.8125 19.5937C17.8125 19.5937 18.6562 22.2187 16.6875 23.25C16.6875 23.25 21.5625 23.8125 22.875 23.0625C22.875 23.0625 23.3438 20.25 19.4063 18.9375L17.8125 19.5937ZM9.5625 18C9.5625 18 8.53125 18.75 7.5 20.4375L8.625 21.0937L8.90625 21.375C8.90625 21.375 9.65625 19.6875 10.875 19.0312L9.5625 18Z" fill="#EBEBEB"/>
<path d="M7.68749 19.9688C7.68749 19.9688 8.99999 23.1563 22.7812 22.9688L21.4687 26.3438C21.4687 26.3438 17.9062 27 13.125 25.875C8.53124 24.75 6.18749 24.2812 7.68749 19.9688Z" fill="#C8CEC6"/>
<path d="M7.12504 21.2825C7.21879 21.0013 7.59378 20.8138 7.87503 21.0013C8.90628 21.6575 11.625 23.0638 17.3438 23.72C18.6563 23.8138 20.4375 23.8138 22.6875 23.2513C22.6875 23.2513 22.7813 23.72 22.6875 24.3763C22.4063 25.97 20.9063 27.1888 19.4063 27.1888C17.5313 27.1888 15.6563 27.095 13.0313 26.4388C8.62503 25.5013 6.18754 25.0325 7.12504 21.2825Z" fill="#F4F4F4"/>
<path d="M23.4601 12.1067C23.4766 7.55031 19.7963 3.84328 15.24 3.82677C10.6836 3.81026 6.97658 7.49052 6.96007 12.0469C6.94356 16.6032 10.6238 20.3103 15.1802 20.3268C19.7365 20.3433 23.4436 16.663 23.4601 12.1067Z" fill="#595959"/>
<path d="M23.1 11.4881C23.1161 7.03532 19.5195 3.41254 15.0667 3.3964C10.6139 3.38027 6.99115 6.97689 6.97502 11.4297C6.95888 15.8825 10.5555 19.5053 15.0083 19.5214C19.4611 19.5375 23.0839 15.9409 23.1 11.4881Z" fill="#D1D1D1"/>
<path d="M23.0122 11.3278C23.0276 7.0821 19.6822 3.62812 15.5401 3.61311C11.398 3.5981 8.02761 7.02775 8.01223 11.2734C7.99685 15.5191 11.3422 18.9731 15.4844 18.9881C19.6265 19.0031 22.9968 15.5735 23.0122 11.3278Z" fill="#DBDBDB"/>
<path d="M18.8573 12.3792C18.8686 9.27265 16.4432 6.74543 13.4402 6.73455C10.4371 6.72367 7.99355 9.23324 7.9823 12.3398C7.97104 15.4464 10.3964 17.9737 13.3994 17.9845C16.4025 17.9954 18.846 15.4859 18.8573 12.3792Z" fill="#EBEBEB"/>
<path d="M16.0514 12.9429C16.0531 12.4769 15.7187 12.098 15.3045 12.0965C14.8902 12.095 14.5531 12.4715 14.5514 12.9375C14.5497 13.4035 14.8841 13.7825 15.2983 13.784C15.7126 13.7855 16.0497 13.4089 16.0514 12.9429Z" fill="#595959"/>
<path d="M15.6325 12.6537C15.6329 12.5502 15.5492 12.4659 15.4457 12.4655C15.3421 12.4651 15.2579 12.5488 15.2575 12.6523C15.2571 12.7559 15.3408 12.8401 15.4443 12.8405C15.5479 12.8409 15.6321 12.7573 15.6325 12.6537Z" fill="white"/>
<path d="M9.99232 11.9195C9.994 11.4535 9.65959 11.0745 9.24537 11.073C8.83116 11.0715 8.494 11.4481 8.49232 11.9141C8.49063 12.3801 8.82504 12.759 9.23926 12.7605C9.65347 12.762 9.99063 12.3855 9.99232 11.9195Z" fill="#595959"/>
<path d="M9.57343 11.6303C9.57381 11.5267 9.49017 11.4425 9.38661 11.4421C9.28306 11.4417 9.19881 11.5254 9.19843 11.6289C9.19806 11.7325 9.2817 11.8167 9.38525 11.8171C9.48881 11.8175 9.57306 11.7338 9.57343 11.6303Z" fill="white"/>
<path d="M10.2187 26.1567C10.2187 26.1567 11.25 25.9692 11.9062 25.1254C11.9062 25.1254 12.1875 26.5317 13.125 26.8129L10.2187 26.1567ZM18.9375 25.7817C18.9375 25.7817 19.2188 26.6254 18.9375 27.5629H20.1562C20.1562 27.5629 19.875 25.7817 18.75 24.3754L18.9375 25.7817ZM7.78125 23.3442C7.78125 23.3442 7.59375 24.0942 7.875 24.8442L6.84375 24.9379C6.84375 24.9379 6.9375 24.0942 7.3125 23.2504C7.40625 22.8754 7.78125 22.9692 7.78125 23.3442Z" fill="#C8CEC6"/>
<path d="M12.8439 24.75C12.8439 24.75 16.4064 24.0937 18.0939 25.125C18.0939 25.125 18.5626 25.875 18.0939 26.0625C17.6251 26.25 14.4376 24.75 12.8439 25.2187C12.8439 25.2187 12.4689 24.8437 12.8439 24.75ZM7.96886 22.9688C7.96886 22.9688 10.5939 23.0625 11.6251 24.0938C11.6251 24.0938 11.8126 24.75 11.5314 24.75C11.2501 24.8437 9.18761 23.25 7.96886 23.3437C7.87511 23.3437 7.68761 23.0625 7.96886 22.9688Z" fill="white"/>
<path d="M20.1562 12.9365C20.1562 12.9365 21.0937 12.374 21.4687 12.8428C22.2187 13.5928 21.5625 14.7178 20.1562 14.9053V12.9365Z" fill="#DBDBDB"/>
<path d="M13.6875 16.3125C13.6875 16.3125 12.9375 16.2187 12.375 15.75C11.8125 15.375 11.3438 15.375 11.25 15.375C11.1563 15.375 10.9688 15.1875 10.7813 15.0938C10.5938 15 10.3125 15 10.3125 15.0938C10.3125 15.1875 10.5 15.5625 10.5 15.5625V16.125C10.5 16.3125 10.5 16.875 11.0625 16.9688C11.625 17.0625 12 17.0625 12.2813 16.875C12.6563 16.9687 13.6875 16.3125 13.6875 16.3125Z" fill="#6E6E6E"/>
<path d="M12.375 21.5625C12.375 21.5625 12.1875 23.0625 9.18747 22.875C6.18748 22.6875 7.03122 20.625 7.03122 20.625L12.375 21.5625Z" fill="#C8CEC6"/>
<path d="M18.0002 23.0625C18.0002 23.0625 17.7189 24.5625 14.0627 24.375C10.4064 24.1875 11.5314 22.2188 11.5314 22.2188L18.0002 23.0625ZM20.5314 19.7813C20.5314 19.7813 22.1252 20.4375 22.3127 23.1563H23.0627C23.0627 23.1563 22.9689 20.5312 20.8127 19.5L20.5314 19.7813Z" fill="#C8CEC6"/>
<path d="M17.6251 22.4062C17.6251 22.4062 17.4376 23.9062 14.5313 23.7187C11.6251 23.4375 12.4688 21.5625 12.4688 21.5625L17.6251 22.4062Z" fill="#EBEBEB"/>
<path d="M12.1875 21C12.1875 21 12.5625 22.4062 9.6562 22.125C6.74995 21.8437 7.7812 19.875 7.7812 19.875L12.1875 21Z" fill="#EBEBEB"/>
<path d="M11.625 22.2188C11.625 22.2188 12 21.375 12.75 20.7188C12.75 20.7188 12.2813 21.6562 12.2813 22.3125L11.625 22.2188Z" fill="#C8CEC6"/>
<path d="M10.3124 19.9687L10.8749 20.25C11.0624 20.3438 11.1562 20.625 11.1562 20.8125C11.1562 21 10.9687 21.1875 10.7812 21.375C10.5937 21.4687 10.4062 21.5625 10.1249 21.5625C9.74991 21.5625 9.46866 21.4688 9.09366 21.2813C8.81241 21.0938 8.34366 20.5313 8.71866 20.1563C9.09366 19.6875 9.84366 19.875 10.3124 19.9687Z" fill="white"/>
<path d="M15.5624 21.375L16.1249 21.6563C16.3124 21.75 16.4062 22.0313 16.4062 22.2188C16.4062 22.4063 16.2187 22.5937 16.0312 22.7812C15.8437 22.875 15.6562 22.9688 15.3749 22.9688C14.9999 22.9688 14.7187 22.875 14.3437 22.6875C14.0624 22.5 13.5937 21.9375 13.9687 21.5625C14.3437 21.0938 15.0937 21.2812 15.5624 21.375Z" fill="white"/>
<path d="M17.4375 7.033L15.6563 6.658C15.6563 6.658 15.2812 2.81425 10.3125 3.37675C10.3125 3.37675 12 1.12675 14.3438 1.5955C16.6875 2.06425 18.2812 4.12675 17.8125 5.158C17.3438 6.18925 17.4375 7.033 17.4375 7.033Z" fill="#858585"/>
<path d="M16.0312 6.56399C16.0312 6.56399 17.9062 4.87649 17.3438 3.84524C16.7812 2.81399 14.4375 1.22024 11.8125 2.25149L10.125 3.09524C10.125 3.09524 12 0.563993 13.5937 0.188993C15.1875 -0.186007 20.4375 0.00149296 22.0312 2.15774C23.625 4.22024 23.1562 7.40774 21.5625 8.72024C19.9688 10.0327 16.4062 6.93899 16.0312 6.56399Z" fill="#858585"/>
<path d="M15.8438 6.74914C15.8438 6.74914 17.5313 5.15539 17.0625 4.21789C16.5938 3.28039 14.3438 1.78039 12 2.81164L10.3125 3.46789C10.3125 3.46789 12.0937 1.12414 13.5 0.749139C14.9062 0.374139 19.7813 0.655389 21.2813 2.53039C22.7813 4.40539 22.3125 7.40539 20.9062 8.62414C19.5 9.84289 16.125 7.12414 15.8438 6.74914Z" fill="#D4D4D4"/>
<path d="M19.5002 8.71934C19.5002 8.71934 20.7189 5.25059 22.9689 5.71934C25.2189 6.18809 27.4689 10.6881 24.8439 13.6881C24.8439 13.6881 22.8752 15.3756 23.3439 16.5943C23.3439 16.5943 23.7189 16.9693 24.6564 16.6881C24.6564 16.6881 23.5314 17.2506 22.3127 17.2506C21.0939 17.2506 18.0939 15.2818 18.6564 12.6568L19.5002 8.71934Z" fill="#858585"/>
<path d="M18.0937 8.25059C18.0937 8.25059 19.3125 4.78184 21.5625 5.25059C23.8125 5.71934 26.0625 10.2193 23.4375 13.2193C23.4375 13.2193 21.4687 14.9068 21.9375 16.1256C21.9375 16.1256 21.8437 17.0631 22.6875 16.8756C22.6875 16.8756 21.8437 17.1568 20.625 17.1568C19.4062 17.1568 16.6875 15.0006 17.25 12.3756L18.0937 8.25059Z" fill="#D4D4D4"/>
<path d="M17.7188 15.0938C17.7188 15.0938 18.1875 18.2812 20.9062 18.1875C23.625 18.0937 24.6562 16.6875 24.6562 16.6875C24.6562 16.6875 23.5313 17.25 21.1875 16.7812C18.75 16.4062 17.7188 15.0938 17.7188 15.0938Z" fill="#858585"/>
<path d="M17.9062 6.65561C17.9062 6.65561 19.125 2.81186 14.625 1.96811L13.2188 2.06186C13.2188 2.06186 15.75 0.374362 19.2187 2.53061C22.4062 4.49936 20.8125 6.56186 20.8125 6.56186C20.8125 6.56186 18.75 7.03061 17.9062 6.65561ZM19.125 8.81186C19.125 8.81186 21 7.31186 22.125 7.78061C23.25 8.24936 24.1875 9.74936 22.875 11.2494C21.5625 12.7494 20.625 14.3431 21.0937 15.5619C21.0937 15.5619 18.8437 13.4056 19.0312 11.9994C19.2187 10.5931 19.7812 9.46811 19.125 8.81186Z" fill="#F0F0F0"/>
<path d="M21.1873 19.875C21.1873 19.875 20.2498 21.4687 20.2498 23.4375H18.5623C18.5623 23.4375 19.0311 21.4687 20.8123 19.5937L21.1873 19.875ZM9.56234 22.4062C9.56234 22.4062 6.74984 21.0937 9.46859 18H9.09359C9.09359 18 6.93734 19.7812 7.12484 21.1875C7.21859 22.7812 9.56234 22.4062 9.56234 22.4062Z" fill="#C8CEC6"/>
<path d="M16.5938 27.4688L16.2188 27.9375L17.8125 29.0625L27 19.9688L25.5 18.0938L16.5938 27.4688Z" fill="#9A4C18"/>
<path d="M27.1876 22.5918C26.9064 26.1543 23.5314 29.2481 19.7814 29.2481C16.1251 29.2481 13.7814 26.1543 14.4376 22.6856C15.0939 19.4043 18.2814 16.7793 21.5626 16.7793C24.9376 16.5918 27.4689 19.1231 27.1876 22.5918Z" fill="#9A4C18"/>
<path d="M28.1253 23.7175C27.844 27.1862 24.5628 30.0925 20.9065 29.9987C17.344 29.9987 15.0003 27.0925 15.6565 23.7175C16.3128 20.53 19.4065 18.0925 22.594 18.0925C25.8753 17.9987 28.4065 20.4362 28.1253 23.7175Z" fill="#9A4C18"/>
<path d="M17.625 27.75L19.125 28.5938L26.625 20.7188L25.4063 19.125L17.625 27.75Z" fill="#F49937"/>
<path d="M27.3752 23.7178C27.094 26.624 24.3752 29.1553 21.3752 29.0615C18.3752 29.0615 16.4065 26.5303 16.969 23.7178C17.5315 20.999 20.0627 18.8428 22.7815 18.8428C25.594 18.749 27.6565 20.9053 27.3752 23.7178Z" fill="#F49937"/>
<path d="M26.3438 22.4989C26.0626 25.5927 23.1563 28.3114 19.8751 28.3114C16.6876 28.3114 14.6251 25.6864 15.1876 22.5927C15.7501 19.6864 18.5626 17.4364 21.4688 17.3427C24.4688 17.2489 26.6251 19.4989 26.3438 22.4989Z" fill="#FFEDC0"/>
<path d="M25.969 22.7803C25.6877 25.6865 22.969 28.2178 19.969 28.124C16.969 28.124 15.0002 25.5928 15.5627 22.7803C16.1252 20.0615 18.6565 17.9053 21.3752 17.9053C24.1877 17.8115 26.2502 19.9678 25.969 22.7803Z" fill="#FFD766"/>
<path d="M24.8439 22.7812C24.5627 25.0312 22.5002 26.9062 20.1564 26.9062C17.8127 26.9062 16.3127 25.0312 16.6877 22.7812C17.0627 20.625 19.1252 18.9375 21.2814 18.9375C23.4377 18.9375 25.0314 20.5312 24.8439 22.7812Z" fill="#FFEDC0"/>
<path d="M24.8438 22.2186C24.5626 24.4686 22.5001 26.3436 20.1563 26.3436C17.9063 26.3436 16.3126 24.4686 16.7813 22.3123C17.1563 20.1561 19.2188 18.5623 21.2813 18.4686C23.5313 18.3748 25.1251 20.0623 24.8438 22.2186Z" fill="#F49937"/>
<path d="M24.1877 22.7813C24.0002 24.6563 22.2189 26.25 20.2502 26.25C18.2814 26.25 17.0627 24.6563 17.3439 22.7813C17.6252 21 19.4064 19.5 21.1877 19.5C23.0627 19.5 24.3752 20.9063 24.1877 22.7813Z" fill="#FFD766"/>
<path d="M21.75 19.125L22.2188 21.1875L24.4688 21.75L22.4062 23.1563L22.2188 25.5937L20.4375 24.1875L18 25.0313L19.0312 22.7812L17.8125 21H20.1562L21.75 19.125Z" fill="#F49937"/>
</g>
<defs>
<clipPath id="clip0_47_45125">
<rect width="30" height="30" fill="white"/>
</clipPath>
</defs>
</svg>
