<svg width="120" height="120" viewBox="0 0 120 120" fill="none" xmlns="http://www.w3.org/2000/svg">
<path d="M23.1029 89.799C23.1029 89.799 8.70794 64.7027 15.9695 31.8013C23.2311 -1.10008 73.6201 17.9507 73.6201 17.9507C73.6201 17.9507 127.767 32.1621 100.302 71.7583C72.8379 111.354 46.1292 137.233 23.1029 89.799Z" fill="#556BDC"/>
<path d="M8.04695 74.1923C8.04695 74.1923 2.06119 45.8469 19.0683 16.8144C36.0754 -12.218 78.1495 21.5735 78.1495 21.5735C78.1495 21.5735 125.283 51.9312 87.0065 81.0468C48.7301 110.163 15.3838 126.467 8.04695 74.1923Z" fill="#B51994"/>
<path d="M82.832 34.4617C82.832 34.4617 97.8737 56.0844 93.9475 86.4723C90.0213 116.86 42.8974 103.527 42.8974 103.527C42.8974 103.527 -7.23756 94.8736 14.4305 56.8405C36.0985 18.8074 58.1852 -6.73326 82.832 34.4617Z" fill="#FF195A"/>
<path d="M65.7989 14.8663C65.7989 14.8663 92.4925 25.7219 106.894 56.1485C121.296 86.5752 69.937 102.789 69.937 102.789C69.937 102.789 18.5765 125.145 15.9997 76.9228C13.4228 28.701 18.6409 -8.24289 65.7989 14.8663Z" fill="#6E19B7"/>
<path d="M93.9805 42C95.6265 42 96.9609 40.6569 96.9609 39C96.9609 37.3431 95.6265 36 93.9805 36C92.3344 36 91 37.3431 91 39C91 40.6569 92.3344 42 93.9805 42Z" fill="#B51994"/>
<path d="M32.9805 98C34.6265 98 35.9609 96.6569 35.9609 95C35.9609 93.3431 34.6265 92 32.9805 92C31.3344 92 30 93.3431 30 95C30 96.6569 31.3344 98 32.9805 98Z" fill="#556BDC"/>
<path d="M32.9805 49C34.6265 49 35.9609 47.6569 35.9609 46C35.9609 44.3431 34.6265 43 32.9805 43C31.3344 43 30 44.3431 30 46C30 47.6569 31.3344 49 32.9805 49Z" fill="#FF195A"/>
<path d="M57 19C58.1046 19 59 18.1046 59 17C59 15.8954 58.1046 15 57 15C55.8954 15 55 15.8954 55 17C55 18.1046 55.8954 19 57 19Z" fill="#B51994"/>
<path d="M86.987 74C88.0844 74 88.974 73.1046 88.974 72C88.974 70.8954 88.0844 70 86.987 70C85.8896 70 85 70.8954 85 72C85 73.1046 85.8896 74 86.987 74Z" fill="#FF195A"/>
<path d="M55.1155 84.5802C55.1155 84.5802 36.2275 84.6518 36.2275 69.1446C36.2275 53.6375 53.023 49.4079 53.023 37.3699C53.023 34.063 52.1034 32.6119 50.1232 30.7148C59.0529 30.9736 66.1514 39.5674 66.1514 51.7676C66.1514 54.1933 65.2317 59.2104 64.1281 60.2678C63.0244 61.3251 71.3016 55.4685 71.3016 50.3578C71.3016 50.3578 76.9605 55.5095 76.9605 66.6611C76.9605 77.8126 64.4815 85.7148 58.5522 85.7148C62.274 82.1491 64.806 78.7568 64.806 74.7475C64.806 66.6554 57.7273 67.3603 55.977 63.2381V63.2354C55.8563 62.96 55.7701 62.6709 55.7184 62.3763C55.5517 61.2776 55.842 60.1625 56.5289 59.2676L58.4573 56.6023C58.4545 56.6023 47.4646 59.6338 47.4646 70.9121C47.4646 82.1904 53.3195 82.8532 55.1155 84.5802Z" fill="white"/>
</svg>
