<svg width="16" height="18" viewBox="0 0 16 18" fill="none" xmlns="http://www.w3.org/2000/svg">
<path d="M6.37109 2.34961C6.03906 2.68164 6.07227 3.17969 6.37109 3.51172L10.3887 7.29688H0.859375C0.394531 7.29688 0.0625 7.66211 0.0625 8.09375V9.15625C0.0625 9.62109 0.394531 9.95312 0.859375 9.95312H10.3887L6.37109 13.7715C6.07227 14.1035 6.07227 14.6016 6.37109 14.9336L7.10156 15.6641C7.43359 15.9629 7.93164 15.9629 8.23047 15.6641L14.7051 9.18945C15.0039 8.89062 15.0039 8.39258 14.7051 8.06055L8.23047 1.61914C7.93164 1.32031 7.43359 1.32031 7.10156 1.61914L6.37109 2.34961Z" fill="#035DD9"/>
</svg>
