<svg width="23" height="22" viewBox="0 0 23 22" fill="none" xmlns="http://www.w3.org/2000/svg">
<path d="M0 0L4.98135 -2.58525e-08C6.46272 -3.35406e-08 7.66361 1.20089 7.66361 2.68226L7.66361 21.0749L2.68226 21.0749C1.20089 21.0749 1.03144e-07 19.874 9.54554e-08 18.3927L0 0Z" fill="white"/>
<path d="M15.3363 0L20.3176 -2.58525e-08C21.799 -3.35406e-08 22.9999 1.20089 22.9999 2.68226L22.9999 21.0749L18.0185 21.0749C16.5372 21.0749 15.3363 19.874 15.3363 18.3927L15.3363 0Z" fill="white"/>
<path d="M2.269 6.87936C1.5208 6.13115 1.5208 4.91807 2.269 4.16986L3.93154 2.50733C4.67975 1.75912 5.89283 1.75912 6.64104 2.50733L21.2965 17.1628L19.634 18.8253C18.1375 20.3217 15.7114 20.3217 14.215 18.8253L2.269 6.87936Z" fill="white"/>
</svg>
