<svg width="64" height="64" viewBox="0 0 64 64" fill="none" xmlns="http://www.w3.org/2000/svg">
<path d="M45.5653 27.8257C45.5653 27.5489 45.4554 27.2835 45.2597 27.0879C45.064 26.8921 44.7986 26.7822 44.5218 26.7822C44.2451 26.7822 43.9797 26.8921 43.784 27.0879C43.5883 27.2835 43.4784 27.5489 43.4784 27.8257C43.4784 30.8699 42.269 33.7894 40.1165 35.9421C37.9638 38.0946 35.0443 39.304 32.0001 39.304C28.9559 39.304 26.0363 38.0946 23.8837 35.9421C21.7312 33.7894 20.5218 30.8699 20.5218 27.8257C20.5218 27.5489 20.4119 27.2835 20.2162 27.0879C20.0205 26.8921 19.7551 26.7822 19.4784 26.7822C19.2016 26.7822 18.9362 26.8921 18.7405 27.0879C18.5448 27.2835 18.4349 27.5489 18.4349 27.8257C18.4247 31.2497 19.7098 34.5509 22.0323 37.0669C24.3547 39.5829 27.5427 41.1276 30.9566 41.3909V44.5214H23.6523C23.3755 44.5214 23.1101 44.6313 22.9144 44.827C22.7187 45.0227 22.6088 45.2881 22.6088 45.5648C22.6088 45.8416 22.7187 46.107 22.9144 46.3027C23.1101 46.4984 23.3755 46.6083 23.6523 46.6083H40.3479C40.6247 46.6083 40.8901 46.4984 41.0858 46.3027C41.2815 46.107 41.3914 45.8416 41.3914 45.5648C41.3914 45.2881 41.2815 45.0227 41.0858 44.827C40.8901 44.6313 40.6247 44.5214 40.3479 44.5214H33.0436V41.3909C36.4574 41.1276 39.6455 39.5829 41.9679 37.0669C44.2904 34.5509 45.5754 31.2497 45.5653 27.8257Z" fill="#213A52"/>
<path d="M20.3758 24.6965C20.9292 24.7776 21.4653 24.9504 21.9618 25.2078C21.8997 25.304 21.8539 25.4098 21.8262 25.5208C21.651 26.277 21.5635 27.0508 21.5653 27.827C21.5497 30.1397 22.2975 32.3931 23.6928 34.2375C25.0882 36.0821 27.053 37.4147 29.2828 38.0288C31.5126 38.6429 33.8828 38.5042 36.0257 37.6342C38.1686 36.7641 39.9647 35.2114 41.1353 33.2167C42.3059 31.222 42.7858 28.8968 42.5004 26.6017C42.2151 24.3065 41.1805 22.1696 39.5571 20.5223C37.9336 18.875 35.812 17.8094 33.5213 17.4906C31.2305 17.1718 28.8986 17.6177 26.8871 18.7591C26.8871 18.6026 26.7932 18.4565 26.7723 18.2896C26.7723 18.0128 26.6623 17.7474 26.4667 17.5517C26.2709 17.356 26.0055 17.2461 25.7288 17.2461C25.4521 17.2461 25.1867 17.356 24.9909 17.5517C24.7953 17.7474 24.6853 18.0128 24.6853 18.2896C24.5289 19.3786 24.0322 20.3902 23.2662 21.18C22.4778 21.9498 21.466 22.4502 20.3758 22.6096C20.099 22.6096 19.8336 22.7195 19.6379 22.9152C19.4422 23.1109 19.3323 23.3763 19.3323 23.6531C19.3323 23.9298 19.4422 24.1952 19.6379 24.3909C19.8336 24.5866 20.099 24.6965 20.3758 24.6965ZM32.0001 19.4791C33.6511 19.4791 35.2651 19.9687 36.6379 20.886C38.0107 21.8033 39.0807 23.107 39.7125 24.6324C40.3443 26.1577 40.5097 27.8362 40.1875 29.4555C39.8654 31.0749 39.0704 32.5623 37.9029 33.7298C36.7354 34.8972 35.248 35.6923 33.6287 36.0144C32.0093 36.3365 30.3309 36.1712 28.8056 35.5394C27.2802 34.9075 25.9764 33.8376 25.0592 32.4647C24.1418 31.092 23.6523 29.478 23.6523 27.827C23.6537 27.4498 23.6816 27.0732 23.7358 26.7C24.2462 27.3787 24.5765 28.1757 24.6958 29.0165C24.6958 29.2933 24.8057 29.5587 25.0014 29.7544C25.1971 29.95 25.4625 30.06 25.7392 30.06C26.016 30.06 26.2814 29.95 26.4771 29.7544C26.6728 29.5587 26.7827 29.2933 26.7827 29.0165C26.937 27.9254 27.4419 26.914 28.221 26.1349C29.0002 25.3557 30.0116 24.8509 31.1027 24.6965C31.3795 24.6965 31.6449 24.5866 31.8405 24.3909C32.0363 24.1952 32.1462 23.9298 32.1462 23.6531C32.1462 23.3763 32.0363 23.1109 31.8405 22.9152C31.6449 22.7195 31.3795 22.6096 31.1027 22.6096C30.0112 22.4473 28.9992 21.9431 28.2123 21.1696C28.0574 21.0032 27.9111 20.8291 27.774 20.6478C29.0508 19.8824 30.5115 19.4785 32.0001 19.4791ZM24.6958 22.6096C25.0931 22.2322 25.4434 21.8082 25.7392 21.3469C26.0386 21.8056 26.3886 22.2291 26.7827 22.6096C27.1601 23.0069 27.584 23.3573 28.0453 23.6531C27.5867 23.9524 27.1631 24.3025 26.7827 24.6965C26.3854 25.0739 26.035 25.4978 25.7392 25.9591C25.4398 25.5005 25.0898 25.0769 24.6958 24.6965C24.3313 24.3018 23.9216 23.9515 23.4749 23.6531C23.919 23.3511 24.3284 23.0012 24.6958 22.6096Z" fill="#213A52"/>
</svg>
