<svg width="16" height="16" viewBox="0 0 16 16" fill="none" xmlns="http://www.w3.org/2000/svg">
<path d="M10 12H6M3 12H1.5M11.5 14C11.303 14 11.108 13.9612 10.926 13.8858C10.744 13.8104 10.5786 13.6999 10.4393 13.5607C10.3001 13.4214 10.1896 13.256 10.1142 13.074C10.0388 12.892 10 12.697 10 12.5C10 12.303 10.0388 12.108 10.1142 11.926C10.1896 11.744 10.3001 11.5786 10.4393 11.4393C10.5786 11.3001 10.744 11.1896 10.926 11.1142C11.108 11.0388 11.303 11 11.5 11C11.8978 11 12.2794 11.158 12.5607 11.4393C12.842 11.7206 13 12.1022 13 12.5C13 12.8978 12.842 13.2794 12.5607 13.5607C12.2794 13.842 11.8978 14 11.5 14ZM4.5 14C4.30302 14 4.10796 13.9612 3.92597 13.8858C3.74399 13.8104 3.57863 13.6999 3.43934 13.5607C3.30005 13.4214 3.18956 13.256 3.11418 13.074C3.0388 12.892 3 12.697 3 12.5C3 12.303 3.0388 12.108 3.11418 11.926C3.18956 11.744 3.30005 11.5786 3.43934 11.4393C3.57863 11.3001 3.74399 11.1896 3.92597 11.1142C4.10796 11.0388 4.30302 11 4.5 11C4.89782 11 5.27936 11.158 5.56066 11.4393C5.84196 11.7206 6 12.1022 6 12.5C6 12.8978 5.84196 13.2794 5.56066 13.5607C5.27936 13.842 4.89782 14 4.5 14Z" stroke="#885407" stroke-width="1.5" stroke-linecap="round" stroke-linejoin="round"/>
<path d="M10.75 12C10.75 12.1989 10.671 12.3897 10.5303 12.5303C10.3897 12.671 10.1989 12.75 10 12.75C9.80109 12.75 9.61032 12.671 9.46967 12.5303C9.32902 12.3897 9.25 12.1989 9.25 12H10.75ZM1.5 2.75C1.30109 2.75 1.11032 2.67098 0.96967 2.53033C0.829018 2.38968 0.75 2.19891 0.75 2C0.75 1.80109 0.829018 1.61032 0.96967 1.46967C1.11032 1.32902 1.30109 1.25 1.5 1.25V2.75ZM9.25 12V4H10.75V12H9.25ZM8 2.75H1.5V1.25H8V2.75ZM9.25 4C9.25 3.31 8.69 2.75 8 2.75V1.25C8.72935 1.25 9.42882 1.53973 9.94454 2.05546C10.4603 2.57118 10.75 3.27065 10.75 4H9.25ZM7 4.25C7.19891 4.25 7.38968 4.32902 7.53033 4.46967C7.67098 4.61032 7.75 4.80109 7.75 5C7.75 5.19891 7.67098 5.38968 7.53033 5.53033C7.38968 5.67098 7.19891 5.75 7 5.75V4.25ZM1 5.75C0.801088 5.75 0.610322 5.67098 0.46967 5.53033C0.329018 5.38968 0.25 5.19891 0.25 5C0.25 4.80109 0.329018 4.61032 0.46967 4.46967C0.610322 4.32902 0.801088 4.25 1 4.25V5.75ZM7 5.75H1V4.25H7V5.75ZM7 7.25C7.19891 7.25 7.38968 7.32902 7.53033 7.46967C7.67098 7.61032 7.75 7.80109 7.75 8C7.75 8.19891 7.67098 8.38968 7.53033 8.53033C7.38968 8.67098 7.19891 8.75 7 8.75V7.25ZM4 8.75C3.80109 8.75 3.61032 8.67098 3.46967 8.53033C3.32902 8.38968 3.25 8.19891 3.25 8C3.25 7.80109 3.32902 7.61032 3.46967 7.46967C3.61032 7.32902 3.80109 7.25 4 7.25V8.75ZM7 8.75H4V7.25H7V8.75Z" fill="#885407"/>
<path d="M13.125 11.792H14.5C14.6326 11.792 14.7598 11.7393 14.8536 11.6456C14.9473 11.5518 15 11.4246 15 11.292V8.992C15 8.89526 14.972 8.80059 14.9192 8.71947C14.8665 8.63836 14.7914 8.57428 14.703 8.535L13.5 8L12.614 5.342C12.5809 5.24248 12.5172 5.1559 12.4322 5.09452C12.3471 5.03315 12.2449 5.00008 12.14 5H10" stroke="#885407" stroke-width="1.5" stroke-linecap="round" stroke-linejoin="round"/>
</svg>
