<svg width="28" height="28" viewBox="0 0 28 28" fill="none" xmlns="http://www.w3.org/2000/svg">
<path d="M7.0002 7.69531H2.8002C1.6452 7.69531 0.700195 8.62178 0.700195 9.75414V23.1365C0.700195 24.2688 1.6452 25.1953 2.8002 25.1953H7.0002C8.11109 25.1953 9.10019 24.2246 9.10019 23.1365C9.10019 23.1365 9.10019 9.75825 9.10019 9.75414C9.10019 8.6609 8.12159 7.69531 7.0002 7.69531Z" fill="#A949D7"/>
<path d="M27.3002 12.0866V14.8168C27.3002 15.1995 27.2298 15.5614 27.0989 15.9131L24.7141 22.4802C24.2513 23.7109 23.1444 24.4969 21.8765 24.4969H11.2002V7.92909C11.8643 6.76046 13.3536 4.09224 13.3536 4.09224C14.1787 2.63402 16.1912 2.34445 17.3584 3.54411C17.9119 4.11292 18.2439 4.90925 18.2439 5.73661V8.98397H24.2814C25.9418 8.98397 27.3002 10.3801 27.3002 12.0866Z" fill="#A949D7"/>
</svg>
