<svg width="16" height="16" viewBox="0 0 16 16" fill="none" xmlns="http://www.w3.org/2000/svg">
<path d="M0 5.70947V10.4295H3.58L7.13 13.1145V2.98947L3.54 5.69947L0 5.70947ZM10.85 4.30947C10.51 3.97447 9.96 3.97447 9.62 4.30947C9.285 4.64447 9.285 5.19947 9.62 5.53947C10.2707 6.19183 10.636 7.0756 10.636 7.99697C10.636 8.91834 10.2707 9.80211 9.62 10.4545C9.285 10.7895 9.285 11.3445 9.62 11.6795C9.79 11.8495 10.01 11.9295 10.235 11.9295C10.46 11.9295 10.685 11.8495 10.85 11.6795C12.88 9.64947 12.88 6.33947 10.85 4.30447V4.30947ZM12.5 1.55947C12.075 1.32947 11.535 1.48447 11.3 1.90947C11.07 2.33447 11.225 2.87447 11.65 3.10947C13.25 3.97947 14.225 5.85947 14.21 8.00947C14.2 10.1745 13.22 12.0345 11.66 12.8595C11.23 13.0845 11.06 13.6245 11.295 14.0595C11.445 14.3595 11.76 14.5295 12.075 14.5295C12.215 14.5295 12.355 14.4995 12.485 14.4295C14.62 13.2995 15.96 10.8445 15.985 8.01947C16 5.21947 14.67 2.74947 12.5 1.55947Z" fill="white"/>
</svg>
