<svg width="18" height="17" viewBox="0 0 18 17" fill="none" xmlns="http://www.w3.org/2000/svg">
<path d="M17.3727 15.671H16.5355V6.23534C16.5355 5.71625 16.3011 5.23065 15.8908 4.9125L14.861 4.10875L14.8443 2.05752C14.8443 1.59703 14.4675 1.22865 14.007 1.22865H11.152L10.0301 0.35792C9.42732 -0.119307 8.57334 -0.119307 7.97052 0.35792L2.10984 4.9125C1.6996 5.23065 1.46517 5.71625 1.46517 6.22697L1.42331 15.671H0.62793C0.284662 15.671 0 15.9557 0 16.299C0 16.6422 0.284662 16.9269 0.62793 16.9269H17.3727C17.716 16.9269 18.0007 16.6422 18.0007 16.299C18.0007 15.9557 17.716 15.671 17.3727 15.671ZM4.39551 8.5545V7.29864C4.39551 6.83816 4.77227 6.4614 5.23275 6.4614H6.90723C7.36771 6.4614 7.74447 6.83816 7.74447 7.29864V8.5545C7.74447 9.01498 7.36771 9.39174 6.90723 9.39174H5.23275C4.77227 9.39174 4.39551 9.01498 4.39551 8.5545ZM11.0934 15.671H6.90723V13.3686C6.90723 12.6737 7.46818 12.1128 8.16309 12.1128H9.83757C10.5325 12.1128 11.0934 12.6737 11.0934 13.3686V15.671ZM13.6051 8.5545C13.6051 9.01498 13.2284 9.39174 12.7679 9.39174H11.0934C10.6329 9.39174 10.2562 9.01498 10.2562 8.5545V7.29864C10.2562 6.83816 10.6329 6.4614 11.0934 6.4614H12.7679C13.2284 6.4614 13.6051 6.83816 13.6051 7.29864V8.5545Z" fill="#CAC3AA"/>
</svg>
