<svg width="24" height="25" viewBox="0 0 24 25" fill="none" xmlns="http://www.w3.org/2000/svg">
<path d="M18.113 7.27344H19.7714L21.4077 17.0915H2.58984L4.22618 7.27344H6.08997" stroke="#767676" stroke-width="1.15" stroke-linecap="round" stroke-linejoin="round"/>
<path d="M21.4077 17.0898V20.7716C21.4077 21.0971 21.2784 21.4092 21.0483 21.6394C20.8181 21.8695 20.506 21.9988 20.1805 21.9988H3.8171C3.49161 21.9988 3.17945 21.8695 2.9493 21.6394C2.71914 21.4092 2.58984 21.0971 2.58984 20.7716V17.0898" stroke="#767676" stroke-width="1.15" stroke-linecap="round" stroke-linejoin="round"/>
<path d="M3.67969 11.0391H20.3163" stroke="#767676" stroke-width="1.15" stroke-linecap="round" stroke-linejoin="round"/>
<path d="M10.8179 8.51066C10.8159 8.61773 10.7744 8.71969 10.7024 8.79465C10.6304 8.86961 10.5336 8.91158 10.4327 8.91156H6.59786C6.54247 8.91212 6.48763 8.89999 6.43706 8.876C6.38649 8.85201 6.34138 8.81671 6.30482 8.77253C6.26826 8.72834 6.24111 8.6763 6.2252 8.61995C6.2093 8.56361 6.20503 8.50428 6.21267 8.44602L6.42683 6.80968C6.43974 6.71124 6.48596 6.62115 6.55684 6.55626C6.62773 6.49136 6.71844 6.4561 6.81202 6.45705H10.4651C10.5163 6.45704 10.5671 6.46788 10.6143 6.48895C10.6615 6.51002 10.7043 6.54089 10.7402 6.57974C10.7761 6.6186 10.8043 6.66467 10.8232 6.71525C10.8421 6.76583 10.8513 6.81991 10.8503 6.87431L10.8179 8.51066Z" stroke="#767676" stroke-width="1.15" stroke-linecap="round" stroke-linejoin="round"/>
<path d="M13.3881 8.50675C13.3901 8.61382 13.431 8.71578 13.502 8.79074C13.573 8.8657 13.6685 8.90767 13.7679 8.90765H17.5484C17.603 8.90822 17.657 8.89609 17.7069 8.87209C17.7568 8.8481 17.8012 8.81281 17.8373 8.76862C17.8733 8.72443 17.9001 8.67239 17.9158 8.61605C17.9315 8.5597 17.9357 8.50037 17.9281 8.44211L17.717 6.80577C17.7043 6.70747 17.6588 6.6175 17.5891 6.55262C17.5193 6.48775 17.4301 6.45239 17.3379 6.45314H13.7353C13.6847 6.45313 13.6347 6.46398 13.5881 6.48504C13.5416 6.50611 13.4994 6.53698 13.464 6.57584C13.4286 6.61469 13.4008 6.66076 13.3822 6.71134C13.3635 6.76192 13.3545 6.816 13.3555 6.87041L13.3881 8.50675Z" stroke="#767676" stroke-width="1.15" stroke-linecap="round" stroke-linejoin="round"/>
<path d="M4.22852 7.27268V5.22726C4.22852 4.90177 4.35782 4.58961 4.58797 4.35946C4.81813 4.1293 5.13029 4 5.45578 4H18.5465C18.872 4 19.1842 4.1293 19.4143 4.35946C19.6445 4.58961 19.7738 4.90177 19.7738 5.22726V7.27268" stroke="#767676" stroke-width="1.15" stroke-linecap="round" stroke-linejoin="round"/>
<path d="M10.8574 7.36328H13.3463" stroke="#767676" stroke-width="1.15" stroke-linecap="round" stroke-linejoin="round"/>
</svg>
