<svg width="80" height="306" viewBox="0 0 80 306" fill="none" xmlns="http://www.w3.org/2000/svg">
<rect x="77" y="24.0312" width="3" height="16" fill="#26BD7A"/>
<rect y="3.03125" width="58" height="58" rx="29" fill="#171721"/>
<g opacity="0.2">
<path fill-rule="evenodd" clip-rule="evenodd" d="M32.3471 77.0851C32.3471 79.0912 30.4422 80.7171 28.0919 80.7171C25.7417 80.7171 23.8368 79.0912 23.8368 77.0851C23.8368 75.079 25.7417 73.4531 28.0919 73.4531C30.4422 73.4531 32.3471 75.079 32.3471 77.0851Z" stroke="white" stroke-width="1.73639" stroke-linecap="square"/>
<path fill-rule="evenodd" clip-rule="evenodd" d="M35.1838 89.3431H21C21 88.4829 21 87.6646 21 86.9235C21 84.9163 22.9051 83.2898 25.2552 83.2898H30.9287C33.2787 83.2898 35.1838 84.9163 35.1838 86.9235C35.1838 87.6646 35.1838 88.4829 35.1838 89.3431Z" stroke="white" stroke-width="1.73639" stroke-linecap="square"/>
</g>
<g opacity="0.9">
<path d="M26.0873 0H20.4175C19.6346 0 19 0.542033 19 1.21066V6.05332C19 6.72195 19.6346 7.26398 20.4175 7.26398H26.0873C26.8701 7.26398 27.5048 6.72195 27.5048 6.05332V1.21066C27.5048 0.542033 26.8701 0 26.0873 0Z" fill="#26CE83"/>
<path d="M37.427 0H31.7571C30.9743 0 30.3397 0.542033 30.3397 1.21066V6.05332C30.3397 6.72195 30.9743 7.26398 31.7571 7.26398H37.427C38.2098 7.26398 38.8444 6.72195 38.8444 6.05332V1.21066C38.8444 0.542033 38.2098 0 37.427 0Z" fill="#26CE83"/>
<path d="M37.427 9.68531H31.7571C30.9743 9.68531 30.3397 10.2273 30.3397 10.896V15.7386C30.3397 16.4073 30.9743 16.9493 31.7571 16.9493H37.427C38.2098 16.9493 38.8444 16.4073 38.8444 15.7386V10.896C38.8444 10.2273 38.2098 9.68531 37.427 9.68531Z" fill="#26CE83"/>
<path d="M26.0873 9.68531H20.4175C19.6346 9.68531 19 10.2273 19 10.896V15.7386C19 16.4073 19.6346 16.9493 20.4175 16.9493H26.0873C26.8701 16.9493 27.5048 16.4073 27.5048 15.7386V10.896C27.5048 10.2273 26.8701 9.68531 26.0873 9.68531Z" fill="#26CE83"/>
</g>
<path opacity="0.2" d="M24.0863 150.292V149.687C24.0863 147.681 25.9902 146.055 28.3387 146.055C30.6872 146.055 32.5911 147.681 32.5911 149.687V150.292M21.1113 153.185L20.0088 161.66C19.9155 162.377 20.5728 163.004 21.4176 163.004H35.2598C36.1046 163.004 36.7619 162.377 36.6686 161.66L35.5661 153.185C35.4864 152.572 34.8796 152.108 34.1573 152.108H22.5201C21.7978 152.108 21.1911 152.572 21.1113 153.185Z" stroke="white" stroke-width="1.73639"/>
<path opacity="0.2" d="M33.8833 229.193H36.0095V227.377M33.8833 221.929H36.0095V223.745M23.9611 221.929H21.8349V223.745M21.8349 227.377V229.193H23.9611M28.9222 227.982C27.3565 227.982 26.0873 226.898 26.0873 225.561C26.0873 224.224 27.3565 223.14 28.9222 223.14C30.4879 223.14 31.7571 224.224 31.7571 225.561C31.7571 226.898 30.4879 227.982 28.9222 227.982ZM20.4175 219.508H37.427C38.2098 219.508 38.8444 220.05 38.8444 220.718V230.404C38.8444 231.072 38.2098 231.614 37.427 231.614H20.4175C19.6346 231.614 19 231.072 19 230.404V220.718C19 220.05 19.6346 219.508 20.4175 219.508Z" stroke="white" stroke-width="1.73639"/>
<path opacity="0.2" d="M24.2524 296.305H32.7571M24.2524 299.935L32.7571 299.943M24.2524 292.675L29.9222 292.679M35.5921 304.785H21.4175C20.6346 304.785 20 304.243 20 303.575V289.047C20 288.378 20.6346 287.836 21.4175 287.836H32.7571L37.0095 291.468V303.575C37.0095 304.243 36.3749 304.785 35.5921 304.785Z" stroke="white" stroke-width="1.73639" stroke-linecap="square"/>
</svg>
