<svg width="17" height="23" viewBox="0 0 17 23" fill="none" xmlns="http://www.w3.org/2000/svg">
<path fill-rule="evenodd" clip-rule="evenodd" d="M4.75698 3.71132C4.00085 3.71132 4.00085 2.56181 4.75698 2.56181H6.45492V0.574891C6.45492 0.257518 6.71244 0 7.02981 0H9.56963C9.887 0 10.1442 0.257518 10.1442 0.574891V2.56181H11.8422C12.5983 2.56181 12.5983 3.71132 11.8422 3.71132H4.75698ZM7.60442 2.56181H8.99474V1.1495H7.60442V2.56181ZM4.32101 11.3447C3.56488 11.3447 3.56488 12.4942 4.32101 12.4942H12.2782C13.0343 12.4942 13.0343 11.3447 12.2782 11.3447H4.32101ZM4.32101 20.5087C3.56488 20.5087 3.56488 19.3592 4.32101 19.3592H12.2782C13.0343 19.3592 13.0343 20.5087 12.2782 20.5087H4.32101ZM4.32101 14.0162C3.56488 14.0162 3.56488 15.1657 4.32101 15.1657H12.2782C13.0343 15.1657 13.0343 14.0162 12.2782 14.0162H4.32101ZM4.32101 17.8372C3.56488 17.8372 3.56488 16.6877 4.32101 16.6877H12.2782C13.0343 16.6877 13.0343 17.8372 12.2782 17.8372H4.32101ZM11.0098 8.12837C11.0098 6.6317 9.79625 5.41817 8.29958 5.41817C6.80292 5.41817 5.58938 6.6317 5.58938 8.12837C5.58938 9.62503 6.80292 10.8386 8.29958 10.8386C9.79625 10.8386 11.0098 9.62503 11.0098 8.12837ZM8.29958 6.56767C7.43766 6.56767 6.73889 7.26645 6.73889 8.12837C6.73889 8.99029 7.43766 9.68906 8.29958 9.68906C9.1615 9.68906 9.86028 8.99029 9.86028 8.12837C9.86028 7.26645 9.1615 6.56767 8.29958 6.56767ZM13.958 2.56181C13.2019 2.56181 13.2019 3.71132 13.958 3.71132H15.4497V21.8495H1.1495V3.71132H2.64116C3.39728 3.71132 3.39728 2.56181 2.64116 2.56181H0.574612C0.257239 2.56181 0 2.81905 0 3.13642V22.4241C0 22.7417 0.257239 22.999 0.574612 22.999H16.0246C16.3419 22.999 16.5992 22.7417 16.5992 22.4241V3.13642C16.5992 2.81905 16.3419 2.56181 16.0246 2.56181H13.958Z" fill="white"/>
</svg>
