<svg width="45" height="45" viewBox="0 0 45 45" fill="none" xmlns="http://www.w3.org/2000/svg">
<path d="M10.6876 14.7656L5.90633 16.1719C5.90633 16.1719 3.37508 23.0625 10.1251 25.5938L11.5313 26.1563C11.5313 26.1563 19.1251 19.2656 22.922 27.4219C22.922 27.4219 23.3438 31.7812 18.0001 32.0625C18.0001 32.0625 15.4688 29.8125 14.9063 25.5938C14.9063 25.5938 10.8282 24.0469 5.62508 26.7188L8.29696 35.1562L20.2501 40.2188L29.9532 36.1406L29.8126 26.7188L28.2657 21.9375L10.6876 14.7656Z" fill="#5C2E0E"/>
<path d="M22.3592 21.5154L22.7811 14.2029L21.3748 6.46848C21.3748 6.46848 20.8123 2.24973 23.7655 1.68723C26.7186 1.12473 30.7967 1.82786 32.0623 5.06223C33.1873 8.29661 30.2342 17.2966 30.2342 17.2966L28.4061 27.1404L22.3592 21.5154Z" fill="#5C2E0E"/>
<path d="M24.1873 21.656L24.328 14.7654L22.7811 8.15598C22.7811 8.15598 22.2186 3.93723 25.1717 3.37473C28.1248 2.81223 29.8123 3.51536 30.9373 6.74973C32.0623 9.98411 31.4998 18.9841 31.4998 18.9841L29.6717 28.8279L24.1873 21.656Z" fill="url(#paint0_linear_47_36651)"/>
<path d="M26.7188 24.1858L28.4063 14.9046L27.8437 9.27956C27.8437 9.27956 27.2813 2.67018 31.6406 2.81081C36 2.95143 37.6875 3.65456 39.0937 7.59206C40.5 11.5296 38.6719 21.5139 38.6719 21.5139L33.3281 32.9046L26.7188 24.1858Z" fill="#5C2E0E"/>
<path d="M35.2969 27.8436L25.5938 26.4373C26.7188 34.1717 19.2656 34.5936 19.2656 34.5936L17.8594 35.0155C14.0625 34.0311 13.3594 26.9998 12.6562 26.2967C8.01563 25.1717 6.89063 26.7186 6.89063 26.7186L6.32812 28.5467C6.32812 33.8905 10.2656 38.1092 10.2656 38.1092L14.2031 41.6248C14.2031 41.6248 21.9375 44.578 27.8437 42.7498L26.1562 43.7342C26.1562 43.7342 29.6719 42.0467 32.3438 37.4061C35.0156 32.7655 35.2969 27.8436 35.2969 27.8436Z" fill="#5C2E0E"/>
<path d="M27.8438 24.3293L29.6719 15.8918L29.1094 8.86055C29.1094 8.86055 29.1094 4.50117 32.2031 4.36055C35.2969 4.21992 36.8438 5.2043 37.5469 8.5793C38.25 12.0949 36.2812 21.0949 36.2812 21.0949L32.3438 30.5168L27.8438 24.3293Z" fill="url(#paint1_linear_47_36651)"/>
<path d="M32.9061 29.25V23.7656C32.9061 23.7656 31.4999 16.7344 18.9843 11.9531C18.5624 11.6719 18.1405 11.5312 17.7186 11.3906C15.0468 12.5156 11.953 14.625 8.29675 15.6094C6.8905 18.7031 8.71863 21.9375 10.9686 23.2031C12.5155 21.2344 16.0311 19.6875 18.703 20.5312C22.078 21.6562 23.0624 24.75 23.0624 24.75L23.9061 26.4375C24.0468 26.7187 24.1874 27.1406 24.1874 27.4219C27.1405 27.9844 30.0936 28.9687 32.9061 29.9531C32.7655 29.8125 32.7655 29.5312 32.9061 29.25Z" fill="#5C2E0E"/>
<path d="M33.7498 29.3906C33.8905 23.0625 32.6248 23.625 32.6248 23.625C32.6248 23.625 24.0467 16.1719 18.8436 13.9219C18.4217 13.6406 17.9998 13.5 17.4373 13.3594C14.6248 14.4844 11.6717 16.0313 7.73422 17.0156C6.18735 20.1094 8.29672 23.3438 10.6873 24.6094C12.3748 22.6406 16.1717 21.0938 18.9842 21.9375C22.6405 23.0625 23.6248 26.1563 23.6248 26.1563L24.6092 27.8437C24.7498 28.125 24.8905 28.5469 24.8905 28.8281C28.1248 29.3906 30.3748 29.8125 33.4686 30.7969C33.6092 30.5156 33.7498 29.6719 33.7498 29.3906Z" fill="url(#paint2_linear_47_36651)"/>
<path d="M33.75 29.9541L24.8906 26.7197C25.875 33.3291 19.125 33.751 19.125 33.751L18 33.6104C14.7656 32.7666 13.7812 27.1416 13.2187 26.5791C9 25.7354 8.01562 27.001 8.01562 27.001L7.59375 28.5479C7.59375 33.1885 11.1094 36.7041 11.1094 36.7041L14.625 39.7979C14.625 39.7979 20.25 43.1729 25.5938 41.626C25.5938 41.626 28.5469 41.3447 30.9375 37.2666C33.3281 33.1885 33.75 29.9541 33.75 29.9541Z" fill="url(#paint3_linear_47_36651)"/>
<path d="M7.3125 18.4219C7.3125 18.4219 15.3281 17.7187 18 15.0469L32.3437 23.3438C32.3437 23.3438 23.3438 14.7656 17.4375 13.3594L7.73438 17.0156L7.3125 18.4219ZM12.2344 26.4375C12.2344 26.4375 14.4844 32.0625 17.7188 33.6094C17.7188 33.6094 25.7344 35.5781 25.5938 28.5469C25.5938 28.5469 24.0469 34.0312 18 33.6094C18 33.6094 14.9063 30.5156 14.4844 26.5781L12.2344 26.4375Z" fill="#FFD2A6"/>
<path d="M33.8906 4.50159L31.3593 5.90784L29.3906 11.9547C29.3906 11.9547 26.7187 3.65784 33.8906 4.50159ZM27.7031 2.95471L25.1718 4.36096L23.3437 8.86096C23.3437 8.86096 20.5312 2.25159 27.7031 2.95471Z" fill="#F1B37C"/>
<defs>
<linearGradient id="paint0_linear_47_36651" x1="25.0592" y1="6.53309" x2="33.1295" y2="29.5284" gradientUnits="userSpaceOnUse">
<stop stop-color="#E5895B"/>
<stop offset="1" stop-color="#FAD395"/>
</linearGradient>
<linearGradient id="paint1_linear_47_36651" x1="31.0382" y1="7.89447" x2="35.8312" y2="32.0706" gradientUnits="userSpaceOnUse">
<stop stop-color="#E5895B"/>
<stop offset="1" stop-color="#FAD395"/>
</linearGradient>
<linearGradient id="paint2_linear_47_36651" x1="18.6436" y1="9.76078" x2="21.7413" y2="32.082" gradientUnits="userSpaceOnUse">
<stop stop-color="#FAD395"/>
<stop offset="1" stop-color="#E5895B"/>
</linearGradient>
<linearGradient id="paint3_linear_47_36651" x1="-1.07944" y1="23.688" x2="31.7703" y2="38.1701" gradientUnits="userSpaceOnUse">
<stop stop-color="#FAD395"/>
<stop offset="1" stop-color="#E5895B"/>
</linearGradient>
</defs>
</svg>
