<svg width="1200" height="77" viewBox="0 0 1200 77" fill="none" xmlns="http://www.w3.org/2000/svg">
<g clip-path="url(#clip0_47_13604)">
<path d="M325.004 6.49805L337.803 16.7592V26.7505L325.004 16.4894V6.49805Z" fill="white"/>
<path d="M325.004 47.5293L337.803 57.7904V67.7818L325.004 57.5207V47.5293Z" fill="white"/>
<path d="M325.004 26.9824L337.803 37.2435V47.2349L325.004 36.9738V26.9824Z" fill="white"/>
<path d="M325.004 76.2648V68.002L335.302 76.2648H325.004Z" fill="white"/>
<path d="M337.802 0V6.24003L330.018 0H337.802Z" fill="white"/>
<path d="M474.998 76.266H346.74V61.9961H474.998V76.266ZM348.971 63.835V65.2939C349.305 65.2493 349.644 65.2786 349.964 65.3797C350.047 65.4239 350.109 65.4988 350.136 65.5881C350.203 65.8272 350.228 66.0761 350.21 66.3237C350.21 67.8316 350.21 69.3395 350.21 70.8474C350.172 71.6389 350.401 72.4201 350.859 73.0663C351.06 73.3219 351.29 73.5524 351.546 73.7528C351.844 73.9768 352.165 74.1699 352.502 74.329C353.052 74.509 353.627 74.6 354.206 74.5987C354.695 74.6017 355.182 74.5357 355.653 74.4026C355.838 74.3418 356.018 74.268 356.192 74.1819C356.357 74.1087 356.513 74.0183 356.658 73.9122C356.828 73.8148 356.985 73.6953 357.124 73.5567C357.259 73.4338 357.382 73.2983 357.492 73.1521C358.047 72.347 358.327 71.3835 358.289 70.406C358.289 68.9349 358.289 67.4515 358.289 65.9804C358.289 65.8088 358.289 65.6371 358.423 65.4655C358.499 65.3787 358.604 65.3221 358.718 65.3061C358.987 65.2878 359.257 65.2878 359.527 65.3061V63.835H355.31V65.2939C355.634 65.2657 355.96 65.2864 356.278 65.3552C356.351 65.4037 356.413 65.4662 356.462 65.5391C356.48 65.6651 356.48 65.7931 356.462 65.9191C356.462 67.4638 356.462 69.0085 356.462 70.5531C356.459 70.9685 356.397 71.3813 356.278 71.7791C356.151 72.0517 355.962 72.2909 355.726 72.4779C355.473 72.6658 355.179 72.7915 354.868 72.8447C354.557 72.8979 354.238 72.8773 353.936 72.7844C353.641 72.6977 353.377 72.5274 353.176 72.294C352.876 71.8835 352.705 71.3925 352.686 70.8841C352.686 70.6512 352.686 70.406 352.686 70.1731V66.0785C352.672 65.9529 352.687 65.8259 352.73 65.707C352.772 65.5881 352.841 65.4803 352.931 65.3919C353.084 65.3057 353.26 65.2713 353.434 65.2939H353.949V63.835H348.971ZM397.151 63.835V65.2939C397.46 65.2511 397.773 65.2511 398.083 65.2939C398.162 65.3391 398.229 65.403 398.278 65.4798C398.327 65.5567 398.357 65.6443 398.364 65.7352C398.364 65.8578 398.364 65.9804 398.364 66.103V72.2327C398.371 72.3237 398.36 72.4152 398.33 72.5016C398.301 72.588 398.254 72.6675 398.193 72.7353C398.028 72.8707 397.817 72.9366 397.604 72.9192H397.126V74.3781H404.936L406.26 70.4551L404.936 69.977C404.733 70.6112 404.412 71.2017 403.992 71.7178C403.641 72.0886 403.206 72.37 402.724 72.5384C402.242 72.7069 401.727 72.7576 401.221 72.6863C401.158 72.6864 401.095 72.6708 401.04 72.6409C400.984 72.6109 400.937 72.5675 400.902 72.5146C400.902 72.3675 400.902 72.2082 400.902 72.061C400.902 70.0015 400.902 67.9419 400.902 65.9314C400.89 65.8283 400.904 65.7239 400.943 65.6276C400.981 65.5313 401.043 65.4461 401.123 65.3797C401.199 65.3185 401.295 65.2879 401.393 65.2939H402.128V63.835H397.151ZM419.818 63.835V65.2939C420.156 65.2495 420.499 65.2788 420.824 65.3797C421.069 65.5391 421.02 65.772 421.044 65.9681C421.044 68.0645 421.044 70.1486 421.044 72.2449C421.044 72.4411 421.044 72.625 420.873 72.8211C420.642 72.9398 420.383 72.9908 420.125 72.9682H419.818V74.4271H428.645L430.006 70.5041L428.645 70.026C428.559 70.2953 428.453 70.5576 428.326 70.8106C428.19 71.0633 428.034 71.3051 427.861 71.5339C426.635 72.9682 425.323 72.674 424.036 72.7598C423.925 72.7598 423.803 72.7598 423.692 72.6985C423.655 72.6701 423.625 72.6328 423.606 72.5899C423.587 72.5471 423.579 72.5002 423.582 72.4533C423.582 71.5339 423.582 70.6144 423.582 69.695C423.993 69.6681 424.405 69.697 424.808 69.7808C424.898 69.8346 424.976 69.9074 425.035 69.9943C425.094 70.0811 425.134 70.1797 425.151 70.2834C425.182 70.5892 425.182 70.8972 425.151 71.2029H426.377V66.6547H425.151C425.186 67.0674 425.144 67.483 425.029 67.8806C424.977 67.961 424.906 68.0276 424.823 68.0746C424.74 68.1216 424.646 68.1476 424.551 68.1503C424.191 68.1689 423.831 68.1689 423.472 68.1503V65.5145C424.146 65.5145 424.82 65.5145 425.495 65.5145C425.895 65.528 426.289 65.6284 426.647 65.8088C426.895 65.9464 427.119 66.1246 427.309 66.3359C427.641 66.7248 427.902 67.1688 428.081 67.6477L429.418 67.1696L428.192 63.8227L419.818 63.835ZM443.675 63.835V65.2939C443.997 65.2512 444.322 65.2512 444.644 65.2939C444.926 65.5023 444.877 65.7352 444.901 65.9559C444.901 68.0727 444.901 70.1935 444.901 72.3185C444.906 72.4056 444.893 72.4929 444.864 72.575C444.834 72.6572 444.789 72.7325 444.729 72.7966C444.393 72.9222 444.031 72.9642 443.675 72.9192V74.3781H448.665V72.9682C448.383 72.9926 448.1 72.9926 447.819 72.9682C447.757 72.9585 447.698 72.936 447.645 72.9022C447.592 72.8685 447.547 72.8242 447.512 72.7721C447.451 72.6378 447.426 72.49 447.439 72.343C447.439 70.2589 447.439 68.1626 447.439 66.0785C447.416 65.8521 447.477 65.6254 447.61 65.441C447.793 65.3387 448.004 65.2998 448.211 65.3306H448.665V63.835H443.675ZM462.873 63.835V65.2939C463.198 65.2634 463.526 65.2883 463.842 65.3674C463.919 65.42 463.985 65.4865 464.038 65.5636C464.063 65.7753 464.063 65.9893 464.038 66.2011C464.038 68.3097 464.038 70.4183 464.038 72.5269C464.038 72.674 463.842 72.8947 463.67 72.9192C463.393 72.944 463.114 72.944 462.837 72.9192V74.3781H471.663L473 70.4551L471.663 69.977C471.534 70.3492 471.365 70.7067 471.161 71.0435C471.066 71.2063 470.959 71.362 470.842 71.5094C470.642 71.7433 470.416 71.9531 470.168 72.1346C469.91 72.3012 469.629 72.4293 469.334 72.5146C468.527 72.6712 467.702 72.7207 466.882 72.6618C466.784 72.6618 466.649 72.6618 466.563 72.4533C466.545 72.315 466.545 72.1749 466.563 72.0365V69.5847C466.974 69.5592 467.385 69.5839 467.789 69.6582C467.883 69.7126 467.963 69.787 468.025 69.876C468.086 69.965 468.127 70.0664 468.145 70.1731C468.163 70.4793 468.163 70.7864 468.145 71.0926H469.457V66.6547H468.145C468.175 67.02 468.15 67.3877 468.071 67.7457C468.019 67.8923 467.914 68.0144 467.777 68.089C467.347 68.1562 466.912 68.1809 466.478 68.1626V65.5145H468.047C468.46 65.5117 468.872 65.5612 469.273 65.6617C469.521 65.7544 469.753 65.8869 469.959 66.054C470.164 66.2253 470.346 66.4232 470.499 66.6424C470.712 66.9666 470.901 67.3068 471.063 67.6599L472.374 67.1818L471.21 63.835H462.873ZM374.214 63.455L372.988 67.1328L374.324 67.6354C374.52 67.2308 374.716 66.8263 374.949 66.4095C375.112 66.1836 375.297 65.9742 375.501 65.7842C375.672 65.6136 375.877 65.4815 376.104 65.397C376.33 65.3124 376.572 65.2772 376.812 65.2939C376.838 65.3041 376.86 65.3208 376.878 65.3423C376.895 65.3637 376.906 65.3893 376.911 65.4165C376.917 65.5062 376.917 65.5964 376.911 65.6862C376.911 67.8438 376.911 70.0137 376.911 72.1714C376.911 72.3798 376.911 72.5882 376.69 72.7966C376.375 72.9061 376.04 72.9438 375.709 72.9069V74.3658H380.613V72.9682C380.319 72.9866 380.024 72.9866 379.73 72.9682C379.644 72.9682 379.546 72.9682 379.473 72.7721C379.406 72.6007 379.38 72.4158 379.399 72.2327C379.399 70.0137 379.399 67.7948 379.399 65.5758C379.412 65.5259 379.44 65.4812 379.48 65.4482C379.519 65.4152 379.568 65.3955 379.62 65.3919C380.084 65.4145 380.521 65.6116 380.846 65.9436C381.343 66.4592 381.735 67.0673 381.998 67.7335L383.359 67.2309L382.133 63.553H381.165L381.042 63.9331H375.268L375.17 63.553L374.214 63.455Z" fill="white"/>
<path d="M474.986 0H346.74V7.26981H474.986V0Z" fill="white"/>
<path d="M346.74 13.9395H379.203L383.641 26.726L378.578 28.5894C378.296 27.9519 378.026 27.3022 377.695 26.677C377.364 26.0517 376.996 25.451 376.616 24.8748C376.102 24.0954 375.488 23.3866 374.79 22.7662C374.439 22.4631 374.07 22.1807 373.686 21.9203C372.908 21.4032 372.038 21.0372 371.124 20.8415C370.438 20.7066 369.751 20.584 369.052 20.5105C368.354 20.4369 367.667 20.4247 366.968 20.4124H361.022V30.4774C362.463 30.5323 363.905 30.4831 365.338 30.3302C365.908 30.2522 366.428 29.9635 366.797 29.5211C367.101 29.0758 367.271 28.5524 367.287 28.0132C367.377 26.9328 367.406 25.8482 367.373 24.7645H372.35V41.8296H367.373C367.373 40.9837 367.373 40.1255 367.373 39.2673C367.373 38.9976 367.373 38.7157 367.275 38.446C367.193 37.8511 366.932 37.2951 366.527 36.8522C366.04 36.4225 365.411 36.1868 364.762 36.1902C363.536 36.0799 362.31 36.1289 361.084 36.1167C361.084 39.3858 361.084 42.6959 361.084 46.0468C361.074 46.4212 361.107 46.7955 361.182 47.1624C361.276 47.3613 361.436 47.5215 361.635 47.616C362.026 47.7718 362.441 47.8549 362.861 47.8612H366.686C367.275 47.8612 367.912 47.8612 368.439 47.7876C368.966 47.7141 369.665 47.6528 370.192 47.5547C370.663 47.477 371.13 47.3747 371.59 47.2482C372.031 47.1133 372.473 46.9417 372.902 46.7701C373.376 46.5608 373.834 46.3192 374.275 46.0468C374.705 45.7751 375.115 45.4719 375.501 45.1396C375.903 44.8086 376.28 44.448 376.629 44.0608C377.214 43.401 377.762 42.7094 378.271 41.9889C378.749 41.2534 379.142 40.4565 379.497 39.6719C379.806 38.9722 380.077 38.256 380.306 37.5265L385.431 39.3409L380.368 54.3219H346.74V48.7316C347.856 48.7763 348.972 48.7106 350.075 48.5354C350.404 48.4618 350.703 48.2909 350.933 48.0451C351.158 47.8057 351.299 47.5006 351.338 47.1746C351.409 46.4537 351.437 45.7291 351.423 45.0047V22.9378C351.437 22.2437 351.384 21.5499 351.264 20.866C351.19 20.5346 351.014 20.2346 350.761 20.0078C350.587 19.8377 350.372 19.7153 350.136 19.6523C349.391 19.5727 348.64 19.5604 347.893 19.6155H346.74V13.9395ZM387.809 13.9395H408.184C409.717 13.95 411.248 14.0523 412.769 14.2459C413.517 14.3563 414.253 14.4789 414.988 14.6505C415.724 14.8221 416.435 15.0673 417.158 15.3002C417.876 15.5664 418.572 15.8861 419.242 16.2565C419.911 16.621 420.554 17.0306 421.167 17.4824C421.776 17.9504 422.35 18.4626 422.883 19.0148C423.423 19.6155 423.962 20.2408 424.452 20.8905C424.943 21.5403 425.335 22.2513 425.752 22.9501C426.128 23.725 426.463 24.5188 426.757 25.3284C427.051 26.1316 427.3 26.9501 427.505 27.7803C427.713 28.7277 427.873 29.6852 427.983 30.649C427.983 31.4091 428.118 32.1692 428.143 32.9292C428.167 33.6893 428.143 34.4494 428.143 35.2095C428.143 35.9696 428.008 36.9871 427.861 37.8575C427.713 38.7279 427.505 39.5983 427.284 40.4688C427.026 41.3481 426.706 42.2083 426.328 43.0432C425.957 43.8921 425.523 44.7117 425.029 45.4951C424.53 46.2618 423.981 46.9949 423.386 47.6895C422.789 48.3863 422.137 49.034 421.437 49.6265C420.907 50.0873 420.355 50.521 419.782 50.926C419.193 51.3183 418.556 51.6616 417.967 52.0048C417.172 52.3567 416.353 52.6516 415.515 52.8875C414.305 53.227 413.077 53.5012 411.838 53.7089C410.038 54.0308 408.22 54.2436 406.394 54.3464H405.659H387.809V48.7316C388.667 48.7316 389.525 48.7316 390.384 48.7316C390.636 48.7087 390.885 48.6677 391.131 48.609C391.404 48.5309 391.648 48.373 391.83 48.1554C392.03 47.9391 392.184 47.6848 392.284 47.4076C392.429 46.6403 392.479 45.8578 392.431 45.0783V23.0114C392.474 22.3951 392.474 21.7765 392.431 21.1602C392.39 20.7405 392.193 20.3514 391.879 20.0691C391.668 19.8716 391.404 19.7396 391.119 19.6891C390.465 19.6056 389.804 19.581 389.145 19.6155H387.809V13.9395ZM402.018 20.4369C402.018 29.0185 402.018 37.4775 402.018 45.9977C402.008 46.3742 402.054 46.75 402.153 47.1133C402.265 47.3426 402.451 47.528 402.68 47.6405C402.928 47.7466 403.194 47.8048 403.464 47.8121H403.906C404.592 47.8121 405.279 47.8121 405.965 47.8121C406.652 47.8121 407.326 47.7141 408.013 47.6405C408.491 47.5669 408.969 47.4811 409.435 47.3708C409.901 47.2605 410.366 47.1011 410.82 46.9417C411.242 46.7853 411.652 46.5968 412.046 46.3778C412.869 45.897 413.616 45.2981 414.265 44.6002C414.51 44.306 414.755 44.024 414.976 43.7298C415.197 43.4355 415.405 43.1045 415.601 42.7858C415.895 42.2586 416.19 41.7315 416.435 41.1921C416.68 40.6527 416.852 40.0642 417.048 39.488C417.283 38.6515 417.459 37.7994 417.575 36.9381C417.673 35.9573 417.771 34.9766 417.771 34.0081C417.771 33.0396 417.685 32.0466 417.587 31.0658C417.489 30.4528 417.403 29.8399 417.256 29.2146C417.109 28.5894 416.913 27.9887 416.717 27.4003C416.521 26.8118 416.288 26.3092 416.018 25.782C415.748 25.2549 415.43 24.7645 415.123 24.2619C414.927 23.9921 414.743 23.7347 414.535 23.4773C414.326 23.2198 414.106 22.9991 413.873 22.7662C413.615 22.5103 413.336 22.2765 413.039 22.0674C412.44 21.6476 411.784 21.3172 411.09 21.0867C410.21 20.8196 409.307 20.6349 408.393 20.535C407.694 20.4737 406.995 20.4369 406.296 20.4369H402.018ZM432.249 13.9395H451.276V19.6155C450.369 19.6155 449.474 19.6155 448.567 19.6155C448.214 19.6505 447.868 19.733 447.537 19.8607C447.313 19.993 447.12 20.173 446.973 20.3879C446.825 20.6043 446.729 20.8517 446.691 21.1112C446.595 21.7975 446.554 22.4903 446.568 23.183V30.2322H460.728V22.6314C460.738 22.0902 460.705 21.5491 460.63 21.0131C460.561 20.6431 460.392 20.2994 460.14 20.0201C460 19.8984 459.838 19.8066 459.661 19.7504C459.26 19.6478 458.849 19.5902 458.435 19.5788C457.602 19.5788 456.768 19.5788 455.984 19.5788V13.9395H475.047V19.6155C474.115 19.6155 473.184 19.6155 472.24 19.6155C471.992 19.6395 471.746 19.6804 471.504 19.7381C471.238 19.8296 471.003 19.9923 470.823 20.2085C470.644 20.4247 470.527 20.6861 470.486 20.9641C470.391 21.6832 470.35 22.4086 470.364 23.134V45.0538C470.35 45.8048 470.404 46.5556 470.523 47.2972C470.581 47.6283 470.734 47.9352 470.965 48.1799C471.244 48.4318 471.596 48.5903 471.97 48.6335C473 48.7438 474.017 48.7193 475.047 48.7316V54.3096H455.935V48.7316C456.784 48.7746 457.635 48.7746 458.485 48.7316L459.147 48.6458C459.504 48.5757 459.837 48.4153 460.115 48.1799C460.403 47.8825 460.573 47.4902 460.593 47.0766C460.669 46.4256 460.702 45.7703 460.691 45.1151V36.5335H446.532V45.1151C446.532 45.8506 446.532 46.5862 446.617 47.334C446.679 47.748 446.894 48.124 447.218 48.3883C447.509 48.5741 447.842 48.6837 448.187 48.7071H448.665C449.482 48.7071 450.34 48.7071 451.239 48.7071V54.2973H432.249V48.7316C433.116 48.7561 433.984 48.7315 434.848 48.658C435.094 48.658 435.339 48.5722 435.584 48.5232C435.939 48.4301 436.256 48.2287 436.491 47.947C436.703 47.6299 436.826 47.2615 436.847 46.8804C436.847 46.3778 436.847 45.8752 436.847 45.3848V23.4282C436.86 22.6825 436.819 21.9368 436.724 21.197C436.67 20.7211 436.438 20.2832 436.074 19.9711C435.972 19.8924 435.861 19.8265 435.743 19.7749C435.168 19.6259 434.571 19.5721 433.978 19.6155H432.249V13.9395Z" fill="white"/>
</g>
<g clip-path="url(#clip1_47_13604)">
<mask id="mask0_47_13604" style="mask-type:luminance" maskUnits="userSpaceOnUse" x="525" y="17" width="150" height="42">
<path d="M674.997 17.5938H525.002V58.6562H674.997V17.5938Z" fill="white"/>
</mask>
<g mask="url(#mask0_47_13604)">
<path d="M600.057 19.2703C599.621 20.2809 598.896 21.1394 597.972 21.7374L600.96 23.6745L599.275 24.5432C599.242 25.3448 598.997 26.1233 598.566 26.7994C598.134 27.4754 597.53 28.0248 596.817 28.3914C596.129 28.6809 595.375 28.7748 594.638 28.6629C593.901 28.551 593.209 28.2376 592.638 27.7573C591.552 26.6975 589.285 22.4844 589.285 22.4844L594.497 18.9055L597.26 21.2509C597.511 20.9928 597.696 20.6782 597.801 20.3336C597.905 19.989 597.925 19.6243 597.859 19.2703C598.641 18.6796 599.457 18.1584 600.248 17.5938C600.251 18.1564 600.199 18.718 600.092 19.2703" fill="white"/>
<path d="M605.728 47.4511C605.91 47.8193 605.999 48.2264 605.986 48.6369C605.974 49.0473 605.862 49.4485 605.658 49.8053C605.423 50.1933 605.078 50.5028 604.667 50.6945C604.255 50.8863 603.796 50.9517 603.348 50.8824C602.945 50.8197 602.565 50.6529 602.246 50.3987C601.928 50.1444 601.68 49.8114 601.53 49.4325C601.379 49.0536 601.329 48.642 601.386 48.2381C601.443 47.8343 601.604 47.4523 601.854 47.1297C602.127 46.7626 602.503 46.4844 602.934 46.3299C603.366 46.1754 603.833 46.1514 604.277 46.2611C604.583 46.3485 604.869 46.4956 605.118 46.6939C605.367 46.8922 605.574 47.1377 605.728 47.4164" fill="white"/>
<path d="M537.815 33.2301C537.815 28.3308 535.661 26.1504 530.866 26.1504H525.002V49.7351H529.467V40.2751C530.075 40.2751 530.674 40.2751 531.1 40.1969L533.923 49.7524H538.475L535.07 39.1632C536.364 38.4943 537.815 36.9133 537.815 33.1954M529.467 29.877H530.64C532.473 29.877 533.341 30.3722 533.341 33.1954C533.341 36.0186 532.473 36.5137 530.64 36.5137H529.467V29.877Z" fill="white"/>
</g>
<path d="M543.574 26.1148L539.213 49.7342H543.556L544.26 44.6003H548.195L548.916 49.7342H553.259L548.916 26.0801L543.574 26.1148ZM547.587 40.6826H544.981L546.241 32.3606L547.587 40.6826Z" fill="white"/>
<mask id="mask1_47_13604" style="mask-type:luminance" maskUnits="userSpaceOnUse" x="525" y="17" width="150" height="42">
<path d="M674.997 17.5938H525.002V58.6562H674.997V17.5938Z" fill="white"/>
</mask>
<g mask="url(#mask1_47_13604)">
<path d="M560.887 25.7936C557.196 25.7936 554.807 28.2173 554.807 31.97V43.9056C554.807 47.667 556.987 50.0906 560.375 50.0906H561.487C564.875 50.0906 567.064 47.667 567.064 43.9056V37.5729H561.052V41.204H562.79V43.2107C562.79 45.6864 562.077 46.1729 560.853 46.1729C559.628 46.1729 559.237 45.4953 559.237 43.9751V32.0394C559.272 29.7548 560.418 29.7548 560.792 29.7548C562.112 29.7548 562.825 30.415 562.825 33.8724V34.0982H567.098V32.3609C567.098 28.3562 564.657 25.7676 560.887 25.7676" fill="white"/>
<path d="M578.512 38.4071L574.021 26.1152H569.912V49.7694H573.995V36.3049L578.712 49.7694H582.595V26.1152H578.512V38.4071Z" fill="white"/>
<path d="M621.616 36.1824C619.879 34.6969 618.358 33.4113 618.358 31.7782C618.358 30.8574 618.662 29.7455 620.096 29.7455C620.608 29.7455 621.833 29.9713 621.972 32.0909V32.3428L626.255 31.865V31.6305C625.864 28.0255 623.649 25.793 620.495 25.793C616.421 25.793 614.084 27.9907 614.084 31.8129C614.084 35.6351 616.578 37.6331 618.775 39.4573C620.6 40.9775 622.172 42.2892 622.172 44.2611C622.172 45.4512 621.416 46.1375 620.104 46.1375C618.793 46.1375 618.115 44.9474 617.976 42.8625V42.6019L613.711 43.2187V43.4359C613.928 48.0312 616.986 50.0899 619.922 50.0899C623.953 50.0899 626.454 47.7184 626.454 43.9136C626.454 40.2825 623.848 38.1022 621.625 36.1824" fill="white"/>
<path d="M632.701 39.5016H637.835V35.5491H632.701V30.0677H639.373V26.1152H628.236V49.7694H639.825V45.8169H632.701V39.5016Z" fill="white"/>
<path d="M646.018 26.1152H641.553V49.7694H651.299V45.8169H646.018V26.1152Z" fill="white"/>
<path d="M656.781 26.1152H652.316V49.7694H662.063V45.8169H656.781V26.1152Z" fill="white"/>
<path d="M670.168 36.1824C668.43 34.6969 666.91 33.4113 666.91 31.7782C666.91 30.8574 667.214 29.7455 668.648 29.7455C669.151 29.7455 670.385 29.9713 670.524 32.0909V32.3428L674.798 31.865V31.6305C674.416 28.0255 672.192 25.793 669.038 25.793C664.973 25.793 662.636 27.9907 662.636 31.8129C662.636 35.6351 665.129 37.6331 667.327 39.4573C669.151 40.9775 670.724 42.2892 670.724 44.2611C670.724 45.4512 669.968 46.1375 668.656 46.1375C667.345 46.1375 666.667 44.9474 666.528 42.8625V42.6019L662.271 43.2187V43.4359C662.48 48.0312 665.538 50.0899 668.483 50.0899C672.513 50.0899 675.015 47.7184 675.015 43.9136C675.015 40.2825 672.452 38.1022 670.185 36.1824" fill="white"/>
<path d="M597.337 32.7079C597.39 34.9633 597.177 37.2171 596.702 39.4228C597.391 39.4039 598.075 39.5303 598.711 39.7937C599.347 40.0571 599.921 40.4517 600.394 40.9516C601.433 42.0471 602.278 43.31 602.896 44.687L599.943 47.8229C599.161 46.294 597.71 44.3916 595.695 44.4611C595.402 44.462 595.11 44.4999 594.826 44.574C594.261 46.3114 593.037 48.457 590.943 48.6829C589.995 48.8737 589.012 48.7763 588.12 48.4032C587.229 48.03 586.469 47.3983 585.94 46.5894L585.531 45.9205C585.94 44.6088 586.209 43.4882 586.582 42.1852C586.912 43.0538 587.451 44.3134 588.598 44.4611C588.972 44.5045 589.35 44.4253 589.675 44.2352C589.305 43.8745 589.035 43.4238 588.892 42.9273C588.749 42.4308 588.737 41.9057 588.858 41.4034C589.336 39.5009 592.333 29.1289 592.333 29.1289H599.569C600.438 29.1289 601.828 29.3808 602.592 32.2735L606.788 45.4601C606.8 45.4944 606.825 45.5227 606.857 45.5389C606.889 45.5551 606.927 45.558 606.962 45.547L611.696 44.0441L612.095 45.2864L607.361 46.7979C607.217 46.8394 607.068 46.8598 606.918 46.8587C606.613 46.8574 606.317 46.7602 606.071 46.5809C605.824 46.4016 605.641 46.1492 605.546 45.8597L601.341 32.6731L597.337 32.7079Z" fill="white"/>
<path d="M613.295 53.6953H586.627V58.6555H613.295V53.6953Z" fill="white"/>
</g>
</g>
<g clip-path="url(#clip2_47_13604)">
<path d="M725.008 54.4824H731.671V57.3076H728.149V59.6123H731.337V62.2145H728.149V66.8518H725.008V54.4824Z" fill="white"/>
<path d="M739.487 63.4046L738.316 59.6873L737.136 63.4046H739.487ZM738.214 54.1113H738.586L744.292 66.8525H740.807L740.323 65.5793H736.337L735.844 66.8525H732.508L738.214 54.1113Z" fill="white"/>
<path d="M748.817 57.0102V59.6123H750.044C750.231 59.6378 750.421 59.6193 750.599 59.5583C750.777 59.4972 750.938 59.3954 751.07 59.2608C751.202 59.1263 751.301 58.9628 751.358 58.7834C751.415 58.604 751.43 58.4137 751.401 58.2276C751.407 58.054 751.374 57.8811 751.306 57.7213C751.238 57.5615 751.136 57.4185 751.006 57.3024C750.877 57.1864 750.724 57.1001 750.558 57.0496C750.391 56.9991 750.216 56.9857 750.044 57.0102H748.817ZM745.797 54.4824H750.276C752.813 54.4824 754.31 55.8392 754.31 57.8373C754.371 58.612 754.144 59.3821 753.673 59.9997C753.201 60.6172 752.518 61.0386 751.754 61.1829L755.146 66.8425H751.633L748.845 61.3966V66.8518H745.797V54.4824Z" fill="white"/>
<path d="M762.173 60.9132L766.912 54.3242H767.358L767.693 66.8516H764.793L764.691 61.4615L762.173 65.597L759.663 61.4615L759.561 66.8516H756.652L756.987 54.3242H757.442L762.173 60.9132Z" fill="white"/>
<path d="M776.018 63.4046L774.847 59.6873L773.667 63.4046H776.018ZM774.745 54.1113H775.108L780.814 66.8525H777.31L776.827 65.5793H772.868L772.403 66.8525H769.039L774.745 54.1113Z" fill="white"/>
<path d="M782.328 54.3242H782.951L788.871 60.6344V54.4822H791.844V67.0189H791.222L785.302 60.8202V66.8516H782.328V54.3242Z" fill="white"/>
<path d="M797.997 57.3355V63.9709H799.057C800.385 63.9709 801.343 62.7163 801.343 60.6439C801.343 58.5715 800.413 57.3262 799.057 57.3262L797.997 57.3355ZM794.865 54.4824H799.057C802.244 54.4824 804.633 57.0567 804.633 60.5695C804.633 64.0824 802.281 66.8518 799.057 66.8518H794.865V54.4824Z" fill="white"/>
<path d="M810.431 67.0937C809.47 67.182 808.509 66.9259 807.719 66.3709C806.929 65.816 806.362 64.9984 806.119 64.0641L808.517 62.7909C808.954 63.8875 809.446 64.5287 810.375 64.5287C811.128 64.5287 811.556 64.1756 811.556 63.5529C811.556 62.9303 811.165 62.5121 809.92 61.9173C807.625 60.8207 806.686 59.6776 806.686 57.8468C806.682 57.349 806.781 56.8556 806.978 56.3983C807.175 55.941 807.465 55.5296 807.83 55.1904C808.194 54.8513 808.625 54.5917 809.096 54.4282C809.566 54.2648 810.065 54.201 810.561 54.241C811.396 54.1596 812.232 54.3828 812.916 54.8696C813.599 55.3564 814.083 56.0739 814.279 56.8896L812.002 58.1164C811.667 57.3078 811.184 56.9454 810.645 56.9454C810.528 56.9352 810.41 56.9491 810.299 56.9863C810.188 57.0235 810.086 57.0832 809.999 57.1616C809.911 57.2401 809.841 57.3356 809.793 57.4423C809.744 57.549 809.718 57.6645 809.716 57.7818C809.716 58.3487 810.171 58.7111 811.091 59.2037C813.758 60.5512 814.623 61.6292 814.623 63.4043C814.623 65.6161 813.154 67.1216 810.459 67.1216" fill="white"/>
<path d="M815.607 54.4824H823.479V57.3076H821.035V66.8518H817.894V57.3076H815.607V54.4824Z" fill="white"/>
<path d="M828.516 57.0102V59.6123H829.743C829.929 59.6358 830.119 59.6159 830.296 59.5542C830.473 59.4925 830.634 59.3906 830.765 59.2565C830.896 59.1225 830.995 58.9598 831.053 58.7813C831.111 58.6028 831.127 58.4133 831.1 58.2276C831.106 58.054 831.073 57.8811 831.005 57.7213C830.937 57.5615 830.835 57.4185 830.706 57.3024C830.576 57.1864 830.423 57.1001 830.257 57.0496C830.09 56.9991 829.915 56.9857 829.743 57.0102H828.516ZM825.496 54.4824H830.022C832.559 54.4824 834.046 55.8392 834.046 57.8373C834.108 58.6178 833.877 59.3935 833.398 60.0124C832.918 60.6313 832.225 61.0487 831.453 61.1829L834.845 66.8425H831.332L828.544 61.3966V66.8518H825.524L825.496 54.4824Z" fill="white"/>
<path d="M836.518 54.4824H843.515V57.1403H839.575V59.2034H843.348V61.5546H839.575V64.2776H843.515V66.8518H836.518V54.4824Z" fill="white"/>
<path d="M849.538 57.3355V63.9709H850.588C851.917 63.9709 852.874 62.7163 852.874 60.6439C852.874 58.5715 851.945 57.3262 850.588 57.3262L849.538 57.3355ZM846.396 54.4824H850.588C853.785 54.4824 856.164 57.0567 856.164 60.5695C856.164 64.0824 853.822 66.8518 850.588 66.8518H846.396V54.4824Z" fill="white"/>
<path d="M858.283 54.4824H865.281V57.1403H861.341V59.2034H865.114V61.5546H861.341V64.2776H865.281V66.8518H858.283V54.4824Z" fill="white"/>
<path d="M867.131 54.4824H874.993V57.3076H872.549V66.8518H869.408V57.3076H867.131V54.4824Z" fill="white"/>
<path d="M801.501 26.361C800.881 26.372 800.277 26.5661 799.766 26.9188C799.256 27.2716 798.861 27.7674 798.631 28.344C798.401 28.9205 798.346 29.5521 798.474 30.1595C798.602 30.7669 798.906 31.3231 799.349 31.7581C799.792 32.1931 800.353 32.4877 800.963 32.6048C801.572 32.7219 802.203 32.6564 802.775 32.4164C803.348 32.1764 803.836 31.7726 804.18 31.2558C804.524 30.739 804.707 30.1321 804.707 29.5114C804.704 29.0941 804.618 28.6815 804.455 28.2973C804.292 27.913 804.055 27.5647 803.757 27.2722C803.459 26.9796 803.107 26.7486 802.72 26.5922C802.333 26.4359 801.919 26.3573 801.501 26.361ZM801.501 35.1897C800.382 35.1713 799.294 34.8228 798.372 34.1879C797.451 33.5529 796.738 32.6598 796.322 31.6208C795.906 30.5817 795.807 29.4431 796.037 28.3478C796.266 27.2525 796.814 26.2495 797.612 25.4646C798.41 24.6798 799.421 24.1482 800.52 23.9365C801.619 23.7248 802.756 23.8426 803.788 24.2749C804.82 24.7073 805.702 25.435 806.322 26.3667C806.941 27.2983 807.272 28.3924 807.272 29.5114C807.25 31.0241 806.631 32.4668 805.551 33.5251C804.47 34.5835 803.014 35.1717 801.501 35.1618" fill="white"/>
<path d="M783.323 44.4552H790.934V19.1402H816.677V11.7056H783.323V44.4552ZM793.546 46.9737H780.768V9.14062H819.242V21.6587H793.499L793.546 46.9737Z" fill="white"/>
</g>
<defs>
<clipPath id="clip0_47_13604">
<rect width="149.994" height="76.2656" fill="white" transform="translate(325.004)"/>
</clipPath>
<clipPath id="clip1_47_13604">
<rect width="149.995" height="41.0625" fill="white" transform="translate(525.002 17.5938)"/>
</clipPath>
<clipPath id="clip2_47_13604">
<rect width="149.985" height="57.9531" fill="white" transform="translate(725.008 9.14062)"/>
</clipPath>
</defs>
</svg>
