<svg width="95" height="117" viewBox="0 0 95 117" fill="none" xmlns="http://www.w3.org/2000/svg">
<path d="M23.9255 9.04597e-10L4.25598 1.60914e-10C1.91519 0 0 1.45627 2.12023e-10 3.22647L1.19191e-09 18.138C1.30853e-09 19.9125 1.92094 21.3645 4.25598 21.3645L23.9255 21.3645C26.2663 21.3645 28.1815 19.9082 28.1815 18.138L28.1815 3.22647C28.1815 1.45627 26.2606 9.92882e-10 23.9255 9.04597e-10Z" fill="#6255FC"/>
<path d="M83.967 113.695L83.967 116.895L81.7462 116.895L81.7462 107.321L85.1234 107.321C85.798 107.321 86.3762 107.403 86.8581 107.565C87.3443 107.722 87.7429 107.941 88.0539 108.222C88.3693 108.502 88.6014 108.833 88.7504 109.214C88.8993 109.595 88.9738 110.007 88.9738 110.449C88.9738 110.927 88.8971 111.365 88.7438 111.763C88.5905 112.162 88.3561 112.503 88.0408 112.788C87.7254 113.073 87.3246 113.296 86.8383 113.458C86.3565 113.616 85.7849 113.695 85.1234 113.695L83.967 113.695ZM83.967 112.019L85.1234 112.019C85.7016 112.019 86.1178 111.881 86.3718 111.605C86.6259 111.33 86.7529 110.944 86.7529 110.449C86.7529 110.23 86.7201 110.031 86.6544 109.851C86.5887 109.672 86.4879 109.518 86.3521 109.391C86.2207 109.26 86.0521 109.159 85.8462 109.089C85.6447 109.019 85.4038 108.984 85.1234 108.984L83.967 108.984L83.967 112.019Z" fill="#282C38"/>
<path d="M94.2919 111.573C94.2394 111.656 94.1824 111.715 94.1211 111.75C94.0641 111.785 93.9897 111.803 93.8977 111.803C93.8013 111.803 93.7049 111.783 93.6086 111.743C93.5122 111.7 93.4071 111.654 93.2932 111.605C93.1837 111.557 93.0588 111.513 92.9187 111.474C92.7785 111.43 92.6186 111.408 92.439 111.408C92.1806 111.408 91.9813 111.459 91.8411 111.559C91.7053 111.656 91.6374 111.792 91.6374 111.967C91.6374 112.094 91.6812 112.199 91.7688 112.282C91.8608 112.365 91.9813 112.44 92.1302 112.506C92.2791 112.567 92.4478 112.626 92.6361 112.683C92.8245 112.74 93.0172 112.804 93.2143 112.874C93.4115 112.944 93.6042 113.027 93.7926 113.123C93.9809 113.215 94.1496 113.331 94.2985 113.472C94.4474 113.607 94.5657 113.774 94.6533 113.971C94.7453 114.168 94.7913 114.405 94.7913 114.68C94.7913 115.018 94.73 115.329 94.6073 115.614C94.4847 115.898 94.3007 116.144 94.0554 116.349C93.8145 116.555 93.5144 116.715 93.1552 116.829C92.8004 116.943 92.3908 117 91.9265 117C91.6944 117 91.4622 116.978 91.23 116.934C90.9979 116.89 90.7723 116.831 90.5533 116.757C90.3386 116.682 90.1393 116.595 89.9554 116.494C89.7714 116.389 89.6137 116.277 89.4823 116.159L89.9554 115.41C90.0123 115.322 90.0802 115.254 90.159 115.206C90.2379 115.154 90.3408 115.127 90.4679 115.127C90.5861 115.127 90.6913 115.154 90.7832 115.206C90.8796 115.259 90.9825 115.316 91.0921 115.377C91.2016 115.438 91.3286 115.495 91.4731 115.548C91.6221 115.6 91.8082 115.627 92.0316 115.627C92.1893 115.627 92.3229 115.611 92.4325 115.581C92.542 115.546 92.6296 115.5 92.6953 115.443C92.761 115.386 92.8092 115.322 92.8398 115.252C92.8705 115.182 92.8858 115.11 92.8858 115.035C92.8858 114.9 92.8398 114.788 92.7478 114.7C92.6558 114.613 92.5354 114.538 92.3865 114.477C92.2375 114.411 92.0667 114.352 91.874 114.299C91.6856 114.242 91.4929 114.179 91.2957 114.109C91.0986 114.039 90.9037 113.956 90.711 113.859C90.5226 113.758 90.354 113.634 90.205 113.485C90.0561 113.331 89.9356 113.145 89.8437 112.926C89.7517 112.707 89.7057 112.442 89.7057 112.131C89.7057 111.842 89.7604 111.568 89.8699 111.31C89.9838 111.047 90.1525 110.817 90.3759 110.62C90.5993 110.423 90.8796 110.267 91.2169 110.153C91.5542 110.035 91.9484 109.976 92.3996 109.976C92.6449 109.976 92.8814 109.998 93.1092 110.042C93.3414 110.085 93.5582 110.147 93.7597 110.226C93.9612 110.305 94.1452 110.399 94.3116 110.508C94.4781 110.613 94.6248 110.729 94.7519 110.856L94.2919 111.573Z" fill="#282C38"/>
</svg>
