<svg width="30" height="30" viewBox="0 0 30 30" fill="none" xmlns="http://www.w3.org/2000/svg">
<g clip-path="url(#clip0_47_45812)">
<path d="M23.9062 3L26.4375 5.0625L28.5938 10.0312L3.9375 24.4688L1.21875 19.125L14.9062 6.9375L23.9062 3Z" fill="#14425B"/>
<path d="M29.3436 16.0309C27.9374 24.1871 18.9374 30.0934 10.9686 28.8746C4.49987 27.9371 1.49987 22.4059 3.09362 16.7809C4.59362 11.3434 10.2186 6.2809 16.5936 5.1559C24.1874 3.8434 30.6561 8.3434 29.3436 16.0309Z" fill="#14425B"/>
<path d="M24.5625 3.28125L27 6.09375L28.9688 10.9687L4.3125 24.5625L1.5 19.6875L24.5625 3.28125Z" fill="#14425B"/>
<path d="M29.1561 15.5626C27.7499 23.7189 18.7499 29.6251 10.7811 28.4064C4.31237 27.4689 1.31237 21.9376 2.90612 16.3126C4.40612 10.8751 9.93737 5.81263 16.3124 4.68763C23.9999 3.28138 30.4686 7.87513 29.1561 15.5626Z" fill="#14425B"/>
<path d="M27.5625 11.9063C26.1563 20.25 17.0625 26.1563 9 24.9375C2.4375 23.9063 -0.656246 18.375 0.937504 12.5625C2.4375 6.9375 8.15625 1.875 14.5313 0.750002C22.3125 -0.656248 28.875 4.03125 27.5625 11.9063Z" fill="#14425B"/>
<path d="M27.9376 15.2813C26.7188 22.7813 18.4688 28.2188 11.2501 27.0938C5.43758 26.2501 2.71883 21.1876 4.12508 16.0313C5.53133 11.0626 10.5938 6.46882 16.3126 5.43757C23.2501 4.12507 29.1563 8.25007 27.9376 15.2813Z" fill="#0B6D84"/>
<path d="M26.9063 13.7809C25.6875 21.4684 17.3438 26.9059 10.125 25.7809C4.21877 24.8434 1.40627 19.6871 2.81252 14.4371C4.12502 9.3746 9.28127 4.6871 15.0938 3.65585C22.125 2.4371 28.0313 6.65585 26.9063 13.7809Z" fill="#0B6D84"/>
<path d="M26.4375 12.0934C25.2188 19.7809 16.875 25.2184 9.65627 24.0934C3.75002 23.1559 0.937519 17.9996 2.34377 12.7496C3.65627 7.6871 8.81252 2.9996 14.625 1.96835C21.6563 0.749602 27.5625 4.96835 26.4375 12.0934Z" fill="#00ADF2"/>
<path d="M24.4689 11.6245C23.4376 17.9995 16.5001 22.5933 10.4064 21.6558C5.43765 20.9058 3.18765 16.5933 4.4064 12.0933C5.5314 7.87454 9.8439 4.03079 14.6251 3.18704C20.4376 2.06204 25.4064 5.62453 24.4689 11.6245Z" fill="#43BBEF"/>
<path d="M26.5312 5.4375L27 10.0312L28.125 11.7188L28.5938 10.125L26.5312 5.4375Z" fill="#14425B"/>
<path d="M19.2188 11.8128L19.4063 10.7815C19.7813 8.62525 18.1876 7.12525 15.7501 7.219H15.3751C13.0313 7.4065 10.6876 9.094 10.1251 11.2503L9.84383 12.1878C9.56258 12.469 8.90633 12.9378 8.81258 13.4065L8.43758 14.5315C8.06258 15.844 8.25008 17.2503 9.09383 18.094C9.65633 18.6565 10.5938 19.1253 12.0001 19.1253H13.5938C15.0938 19.1253 16.2188 18.5628 17.1563 17.9065C18.4688 16.8753 19.3126 15.469 19.5938 14.1565L19.7813 13.0315C19.8751 12.5628 19.5001 12.0003 19.2188 11.8128ZM15.0938 8.719H15.3751C16.9688 8.62525 18.0001 9.6565 17.7188 11.1565L17.5313 11.9065L11.3438 12.1878L11.5313 11.4378C12.0001 10.0315 13.5001 8.81275 15.0938 8.719ZM14.0626 16.1253L13.7813 17.344C13.6876 17.6253 13.4063 17.9065 13.1251 17.9065C12.8438 17.9065 12.6563 17.719 12.6563 17.344L12.9376 16.1253C12.3751 15.9378 12.1876 15.469 12.2813 14.8128C12.4688 14.0628 13.3126 13.4065 14.1563 13.3128C15.0001 13.3128 15.5626 13.8753 15.3751 14.6253C15.2813 15.2815 14.7188 15.844 14.0626 16.1253Z" fill="#0B6D84"/>
<path d="M19.8751 11.5306L20.0626 10.4994C20.3438 8.43687 18.7501 6.84312 16.4063 7.03062H16.0313C13.6876 7.21812 11.3438 8.90562 10.7813 11.0619L10.5001 11.9994C10.2188 12.2806 9.56258 12.7494 9.46883 13.2181L9.09383 14.3431C8.71883 15.6556 8.90633 17.0619 9.75008 17.9056C10.3126 18.4681 11.2501 18.9369 12.6563 18.9369H14.2501C15.7501 18.9369 16.8751 18.3744 17.8126 17.7181C19.1251 16.6869 19.9688 15.2806 20.2501 13.9681L20.4376 12.8431C20.4376 12.2806 20.0626 11.8119 19.8751 11.5306ZM15.6563 8.53063H15.9376C17.5313 8.43688 18.5626 9.46812 18.2813 10.9681L18.0938 11.7181L11.9063 11.9994L12.1876 11.2494C12.5626 9.74937 14.0626 8.62438 15.6563 8.53063ZM14.7188 15.8431L14.4376 17.0619C14.3438 17.3431 14.0626 17.6244 13.7813 17.6244C13.5001 17.6244 13.3126 17.4369 13.3126 17.0619L13.5938 15.8431C13.0313 15.6556 12.8438 15.1869 12.9376 14.5306C13.1251 13.7806 13.9688 13.1244 14.8126 13.0306C15.6563 13.0306 16.2188 13.5931 16.0313 14.3431C15.8438 15.0931 15.2813 15.6556 14.7188 15.8431Z" fill="#0B6D84"/>
<path d="M18.8438 11.1564L19.0312 10.2189C19.4062 8.15645 17.8125 6.65645 15.5625 6.84395H15.1875C12.9375 6.9377 10.6875 8.6252 10.125 10.6877L9.84375 11.6252C9.5625 11.9064 9 12.3752 8.90625 12.7502L8.4375 13.7814C8.0625 15.0939 8.25 16.4064 9 17.2502C9.5625 17.8127 10.4063 18.2814 11.8125 18.1877H13.4063C14.8125 18.1877 15.9375 17.6252 16.7812 16.9689C18.0938 16.0314 18.9375 14.6252 19.125 13.3127L19.3125 12.1877C19.4063 11.8127 19.0313 11.3439 18.8438 11.1564ZM14.8125 8.2502H15.0938C16.5938 8.15645 17.625 9.1877 17.3438 10.5002L17.1562 11.2502L11.25 11.5314L11.4375 10.7814C11.8125 9.46895 13.3125 8.34395 14.8125 8.2502ZM13.875 15.2814L13.5938 16.4064C13.5 16.6877 13.2188 16.9689 12.9375 16.9689C12.6563 16.9689 12.4687 16.7814 12.5625 16.5002L12.8438 15.3752C12.375 15.1877 12.0938 14.7189 12.2813 14.1564C12.4688 13.4064 13.2188 12.7502 14.0625 12.7502C14.8125 12.7502 15.375 13.3127 15.1875 14.0627C15 14.5314 14.4375 15.0939 13.875 15.2814Z" fill="#F6F6F6"/>
<path d="M24.2813 11.2497C24.7501 6.4684 21.0001 3.2809 15.9376 3.56215C11.0626 3.93715 6.00005 7.5934 4.4063 12.2809C2.5313 17.5309 5.5313 22.3122 11.6251 22.2184C17.9063 22.0309 23.7188 16.7809 24.2813 11.2497Z" stroke="#F6F6F6" stroke-width="0.899156" stroke-miterlimit="10"/>
<path d="M26.7187 11.1562L26.3438 8.0625C26.3438 8.0625 27.6562 10.2187 27.9375 11.5312L26.5312 15L26.7187 11.1562Z" fill="#0B6D84"/>
</g>
<defs>
<clipPath id="clip0_47_45812">
<rect width="30" height="30" fill="white"/>
</clipPath>
</defs>
</svg>
