<svg width="34" height="34" viewBox="0 0 34 34" fill="none" xmlns="http://www.w3.org/2000/svg">
<path fill-rule="evenodd" clip-rule="evenodd" d="M14.2965 16.9997L23.2897 8.00648C23.6127 7.70047 23.7997 7.27546 23.7997 6.79945C23.7993 6.46287 23.6992 6.13396 23.5121 5.85416C23.325 5.57436 23.0593 5.35619 22.7485 5.22712C22.4376 5.09805 22.0955 5.06387 21.7653 5.12888C21.435 5.19388 21.1314 5.35517 20.8927 5.59242L10.6924 15.7927C10.3864 16.0987 10.1994 16.5237 10.1994 16.9997C10.1994 17.4757 10.3864 17.9007 10.6924 18.2067L20.8927 28.407C21.2128 28.7271 21.647 28.907 22.0997 28.907C22.5524 28.907 22.9866 28.7271 23.3067 28.407C23.6269 28.0869 23.8067 27.6527 23.8067 27.2C23.8067 26.7472 23.6269 26.3131 23.3067 25.9929L14.2965 16.9997Z" fill="#2D3340"/>
</svg>
