<svg width="53" height="48" viewBox="0 0 53 48" fill="none" xmlns="http://www.w3.org/2000/svg">
<ellipse cx="21.6367" cy="23.9814" rx="21.6367" ry="23.9814" fill="#7AA3B8"/>
<rect x="32.9683" y="25.1243" width="20.0317" height="20.0317" rx="10" fill="#26DC43"/>
<path d="M41.8572 38.145C41.7577 38.1436 41.6622 38.1051 41.5896 38.037L38.9604 35.4078C38.9005 35.3348 38.8699 35.2422 38.8746 35.1479C38.8792 35.0536 38.9187 34.9644 38.9855 34.8976C39.0522 34.8309 39.1414 34.7914 39.2357 34.7867C39.33 34.7821 39.4227 34.8127 39.4957 34.8726L41.8572 37.2388L46.8479 32.2434C46.9209 32.1835 47.0135 32.1529 47.1078 32.1576C47.2021 32.1622 47.2913 32.2017 47.3581 32.2685C47.4249 32.3352 47.4644 32.4244 47.469 32.5187C47.4737 32.613 47.443 32.7057 47.3832 32.7786L42.1248 38.037C42.0522 38.1051 41.9568 38.1436 41.8572 38.145Z" fill="#E2E7E9"/>
</svg>
