<svg width="143" height="143" viewBox="0 0 143 143" fill="none" xmlns="http://www.w3.org/2000/svg">
<g clip-path="url(#clip0_47_91102)">
<mask id="mask0_47_91102" style="mask-type:luminance" maskUnits="userSpaceOnUse" x="0" y="0" width="143" height="143">
<path d="M0 0H142.296V142.296H0V0Z" fill="#138667"/>
</mask>
<g mask="url(#mask0_47_91102)">
<path fill-rule="evenodd" clip-rule="evenodd" d="M142.288 70.0959C142.869 109.386 111.489 141.707 72.1999 142.288C32.9099 142.869 0.587913 111.489 0.0079128 72.1999C-0.572087 32.9099 30.8059 0.587913 70.0959 0.0079128C109.386 -0.572087 141.707 30.8059 142.288 70.0959Z" fill="#138667"/>
</g>
<path fill-rule="evenodd" clip-rule="evenodd" d="M82.8236 22.0208L78.3216 18.9188C78.1547 18.8038 77.9568 18.7422 77.7541 18.7422C77.5514 18.7422 77.3535 18.8038 77.1866 18.9188L72.6866 22.0208L68.1846 18.9198C68.0179 18.8046 67.8202 18.7429 67.6176 18.7429C67.415 18.7429 67.2172 18.8046 67.0506 18.9198L62.5516 22.0198L58.0546 18.9198C57.8874 18.805 57.6894 18.7435 57.4866 18.7435C57.2838 18.7435 57.0857 18.805 56.9186 18.9198L52.4206 22.0198L47.9246 18.9198C47.7573 18.8047 47.5591 18.7431 47.3561 18.7431C47.153 18.7431 46.9548 18.8047 46.7876 18.9198L42.2926 22.0198L38.7946 19.6088C38.6445 19.5052 38.4689 19.4447 38.2869 19.4337C38.1049 19.4227 37.9233 19.4616 37.7618 19.5464C37.6003 19.6311 37.4651 19.7584 37.3708 19.9145C37.2764 20.0706 37.2266 20.2495 37.2266 20.4318V105.627C37.2269 105.809 37.2769 105.988 37.3713 106.143C37.4656 106.299 37.6008 106.426 37.762 106.511C37.9233 106.595 38.1046 106.634 38.2864 106.623C38.4682 106.612 38.6435 106.552 38.7936 106.449L42.2966 104.038L46.7996 107.138C46.9662 107.253 47.164 107.315 47.3666 107.315C47.5691 107.315 47.7669 107.253 47.9336 107.138L52.4336 104.038L56.9336 107.138C57.1006 107.253 57.2987 107.315 57.5016 107.315C57.7045 107.315 57.9026 107.253 58.0696 107.138L62.5696 104.038L67.0656 107.138C67.4086 107.374 67.8606 107.374 68.2016 107.138L72.6976 104.038L77.1966 107.138C77.5386 107.374 77.9906 107.374 78.3326 107.138L82.8276 104.038L86.3256 106.448C86.4756 106.551 86.6511 106.611 86.833 106.622C87.0149 106.633 87.1962 106.594 87.3575 106.509C87.5188 106.425 87.6539 106.298 87.7482 106.142C87.8425 105.986 87.8924 105.807 87.8926 105.625V20.4308C87.8924 20.2486 87.8425 20.0699 87.7482 19.914C87.6539 19.7581 87.5188 19.6309 87.3575 19.5462C87.1962 19.4615 87.0149 19.4225 86.833 19.4333C86.6511 19.4442 86.4756 19.5045 86.3256 19.6078L82.8236 22.0208Z" fill="white"/>
<mask id="mask1_47_91102" style="mask-type:luminance" maskUnits="userSpaceOnUse" x="0" y="0" width="143" height="143">
<path d="M0 142.296H142.296V0H0V142.296Z" fill="white"/>
</mask>
<g mask="url(#mask1_47_91102)">
<path fill-rule="evenodd" clip-rule="evenodd" d="M60.1171 107.854H103.474V46.577H60.1171V107.854ZM65.8401 127.519C59.1481 127.519 53.7031 122.574 53.7031 116.497V40.316C53.7031 34.238 59.1481 29.293 65.8401 29.293H97.7511C104.444 29.293 109.889 34.238 109.889 40.316V116.497C109.889 122.574 104.444 127.519 97.7511 127.519H65.8401Z" fill="white"/>
</g>
<mask id="mask2_47_91102" style="mask-type:luminance" maskUnits="userSpaceOnUse" x="0" y="0" width="143" height="143">
<path d="M0 142.296H142.296V0H0V142.296Z" fill="#138667"/>
</mask>
<g mask="url(#mask2_47_91102)">
<path fill-rule="evenodd" clip-rule="evenodd" d="M61.6171 106.354H101.974V48.077H61.6171V106.354ZM97.7511 27.793H65.8401C58.3211 27.793 52.2031 33.411 52.2031 40.316V116.497C52.2031 123.401 58.3211 129.019 65.8401 129.019H97.7511C105.271 129.019 111.389 123.401 111.389 116.497V40.316C111.389 33.411 105.271 27.793 97.7511 27.793ZM58.6171 109.354H104.974V45.077H58.6171V109.354ZM97.7511 30.793C103.626 30.793 108.389 35.057 108.389 40.316V116.497C108.389 121.755 103.626 126.019 97.7511 126.019H65.8401C59.9661 126.019 55.2031 121.755 55.2031 116.497V40.316C55.2031 35.057 59.9661 30.793 65.8401 30.793H97.7511Z" fill="#138667"/>
</g>
<mask id="mask3_47_91102" style="mask-type:luminance" maskUnits="userSpaceOnUse" x="0" y="0" width="143" height="143">
<path d="M0 142.296H142.296V0H0V142.296Z" fill="#138667"/>
</mask>
<g mask="url(#mask3_47_91102)">
<path fill-rule="evenodd" clip-rule="evenodd" d="M57.6523 110.398H105.902V42.6484H57.6523V110.398Z" fill="#138667"/>
</g>
<mask id="mask4_47_91102" style="mask-type:luminance" maskUnits="userSpaceOnUse" x="0" y="0" width="143" height="143">
<path d="M0 142.296H142.296V0H0V142.296Z" fill="white"/>
</mask>
<g mask="url(#mask4_47_91102)">
<path fill-rule="evenodd" clip-rule="evenodd" d="M58.6171 109.354H104.974V45.077H58.6171V109.354ZM97.7511 30.793H65.8401C59.9661 30.793 55.2031 35.057 55.2031 40.316V116.497C55.2031 121.755 59.9661 126.019 65.8401 126.019H97.7511C103.626 126.019 108.389 121.755 108.389 116.497V40.316C108.389 35.057 103.626 30.793 97.7511 30.793Z" fill="white"/>
</g>
<mask id="mask5_47_91102" style="mask-type:luminance" maskUnits="userSpaceOnUse" x="0" y="0" width="143" height="143">
<path d="M0 142.296H142.296V0H0V142.296Z" fill="#138667"/>
</mask>
<g mask="url(#mask5_47_91102)">
<path fill-rule="evenodd" clip-rule="evenodd" d="M86.1504 117.147C86.1504 118.302 85.6916 119.41 84.875 120.227C84.0584 121.043 82.9508 121.502 81.7959 121.502C80.641 121.502 79.5334 121.043 78.7168 120.227C77.9002 119.41 77.4414 118.302 77.4414 117.147C77.4414 115.993 77.9002 114.885 78.7168 114.068C79.5334 113.252 80.641 112.793 81.7959 112.793C82.9508 112.793 84.0584 113.252 84.875 114.068C85.6916 114.885 86.1504 115.993 86.1504 117.147Z" fill="#138667"/>
</g>
<mask id="mask6_47_91102" style="mask-type:luminance" maskUnits="userSpaceOnUse" x="0" y="0" width="143" height="143">
<path d="M0 142.296H142.296V0H0V142.296Z" fill="white"/>
</mask>
<g mask="url(#mask6_47_91102)">
<path fill-rule="evenodd" clip-rule="evenodd" d="M83.0989 83.3143C84.0969 83.1143 84.8589 82.7843 85.3809 82.3263C85.9049 81.8683 86.1659 81.3043 86.1659 80.6333C86.1659 79.9873 85.9599 79.4772 85.5489 79.0992C85.1389 78.7252 84.3209 78.3242 83.0989 77.9012V83.3143ZM78.1089 69.4732C78.1089 70.1082 78.2849 70.6333 78.6389 71.0522C78.9899 71.4692 79.4599 71.7492 80.0489 71.8892L80.7189 72.0832V67.0233C78.9789 67.3873 78.1089 68.2032 78.1089 69.4732ZM83.0989 59.4062V61.9282C84.6609 61.9282 86.1219 62.1332 87.4789 62.5442C88.8369 62.9562 89.9509 63.5083 90.8199 64.2023L87.3479 68.4342C86.2889 67.5042 84.8729 66.9992 83.0979 66.9172V72.6642L86.4839 73.6343C88.1999 74.1403 89.5139 74.9572 90.4239 76.0842C91.3339 77.2142 91.7899 78.5892 91.7899 80.2102C91.7899 82.4442 91.0259 84.2902 89.4979 85.7472C87.9709 87.2043 85.8379 88.0802 83.0979 88.3742V90.8942H80.7189V88.3742C76.9329 88.3742 73.9589 87.3982 71.7969 85.4462L75.6219 81.1453C76.2579 81.9203 77.0179 82.4712 77.9059 82.7932C78.7929 83.1172 79.7309 83.3133 80.7189 83.3833V77.2853L78.2149 76.5252C76.2629 75.9252 74.8209 75.0892 73.8859 74.0132C72.9519 72.9372 72.4839 71.5132 72.4839 69.7382C72.4839 67.7172 73.2439 65.9823 74.7589 64.5373C76.2749 63.0903 78.2609 62.2212 80.7189 61.9272V59.4062H83.0989Z" fill="white"/>
</g>
<mask id="mask7_47_91102" style="mask-type:luminance" maskUnits="userSpaceOnUse" x="-2" y="-2" width="146" height="146">
<path d="M0 142.296H142.296V0H0V142.296Z" stroke="#138667" stroke-width="3" stroke-linecap="round" stroke-linejoin="round"/>
</mask>
<g mask="url(#mask7_47_91102)">
<path d="M76.7383 38.5234H86.8483" stroke="#138667" stroke-width="3" stroke-linecap="round" stroke-linejoin="round"/>
</g>
</g>
<defs>
<clipPath id="clip0_47_91102">
<rect width="143" height="143" fill="white"/>
</clipPath>
</defs>
</svg>
