<svg width="24" height="24" viewBox="0 0 24 24" fill="none" xmlns="http://www.w3.org/2000/svg">
<path d="M18.3899 9.99156C18.3899 14.1416 14.3399 19.1316 12.6899 20.9916C12.3199 21.4016 11.6799 21.4016 11.3099 20.9916C9.65986 19.1316 5.60986 14.1416 5.60986 9.99156C5.60986 6.46156 8.46986 3.60156 11.9999 3.60156C15.5299 3.60156 18.3899 6.46156 18.3899 9.99156Z" stroke="#636977" stroke-width="1.2" stroke-miterlimit="10" stroke-linecap="round" stroke-linejoin="round"/>
<path d="M11.9897 12.5497C13.4035 12.5497 14.5497 11.4035 14.5497 9.98969C14.5497 8.57584 13.4035 7.42969 11.9897 7.42969C10.5758 7.42969 9.42969 8.57584 9.42969 9.98969C9.42969 11.4035 10.5758 12.5497 11.9897 12.5497Z" stroke="#636977" stroke-width="1.2" stroke-miterlimit="10" stroke-linecap="round" stroke-linejoin="round"/>
</svg>
