<svg width="21" height="16" viewBox="0 0 21 16" fill="none" xmlns="http://www.w3.org/2000/svg">
<path fill-rule="evenodd" clip-rule="evenodd" d="M9.98144 16C9.42888 16 8.98095 15.5521 8.98095 14.9995C8.98095 14.447 9.42888 13.999 9.98144 13.999C10.534 13.999 10.9819 14.447 10.9819 14.9995C10.9819 15.5521 10.534 16 9.98144 16Z" fill="#BABBC3"/>
<path fill-rule="evenodd" clip-rule="evenodd" d="M3.50874 7.74603C4.34789 6.87655 5.35347 6.18486 6.46557 5.71218C7.57766 5.23949 8.77352 4.99549 9.9819 4.99469C11.197 4.9901 12.4005 5.23149 13.5198 5.70434C14.6392 6.17718 15.6513 6.87169 16.4951 7.74603C16.63 7.88755 16.7205 8.06549 16.7554 8.25788C16.7902 8.45026 16.768 8.64864 16.6914 8.82852C16.6147 9.00839 16.4871 9.16187 16.3242 9.26999C16.1613 9.3781 15.9702 9.43612 15.7747 9.43686C15.6424 9.43631 15.5114 9.4095 15.3895 9.35798C15.2675 9.30645 15.157 9.23125 15.0644 9.13671C14.4111 8.45891 13.6278 7.91977 12.7614 7.55153C11.8951 7.18328 10.9633 6.99348 10.0219 6.99348C9.08052 6.99348 8.14879 7.18328 7.2824 7.55153C6.41602 7.91977 5.63276 8.45891 4.97946 9.13671C4.88815 9.23328 4.77871 9.31092 4.65739 9.36519C4.53607 9.41947 4.40525 9.44931 4.2724 9.45303C4.00409 9.46054 3.74379 9.36115 3.54876 9.17673C3.45219 9.08542 3.37455 8.97598 3.32028 8.85466C3.26601 8.73334 3.23616 8.60252 3.23244 8.46967C3.22873 8.33682 3.25121 8.20454 3.29862 8.08037C3.34603 7.95621 3.41743 7.8426 3.50874 7.74603ZM6.2045 12.1005C6.20919 11.835 6.31916 11.5822 6.51021 11.3978C7.44253 10.4992 8.687 9.9971 9.9819 9.99713C11.2768 9.9971 12.5213 10.4992 13.4536 11.3978C13.6446 11.5822 13.7546 11.835 13.7593 12.1005C13.764 12.366 13.663 12.6225 13.4786 12.8135C13.2942 13.0046 13.0414 13.1145 12.7759 13.1192C12.5104 13.1239 12.254 13.0229 12.0629 12.8385C11.4947 12.3183 10.7523 12.0297 9.9819 12.0297C9.21151 12.0297 8.46906 12.3183 7.90088 12.8385C7.70984 13.0229 7.45335 13.1239 7.18786 13.1192C6.92237 13.1145 6.66961 13.0046 6.48519 12.8135C6.30078 12.6225 6.19981 12.366 6.2045 12.1005Z" fill="#BABBC3"/>
<path d="M9.98133 0C6.35363 0 2.86743 1.40747 0.256581 3.92612C0.0877367 4.11387 -0.00387422 4.35852 0.000125671 4.61099C0.00412556 4.86346 0.10344 5.10508 0.278148 5.28738C0.452855 5.46968 0.690033 5.57919 0.942105 5.59392C1.19418 5.60866 1.4425 5.52753 1.63726 5.36683C3.87595 3.20289 6.86775 1.9933 9.98133 1.9933C13.0949 1.9933 16.0867 3.20289 18.3254 5.36683C18.5109 5.5456 18.7581 5.64594 19.0157 5.64696C19.1505 5.64645 19.2838 5.61871 19.4076 5.56542C19.5314 5.51212 19.6431 5.43436 19.7361 5.33681C19.9185 5.14542 20.0177 4.88961 20.0121 4.62528C20.0065 4.36094 19.8965 4.10958 19.7061 3.92612C17.0952 1.40747 13.609 0 9.98133 0Z" fill="#BABBC3"/>
</svg>
