<svg width="10" height="16" viewBox="0 0 10 16" fill="none" xmlns="http://www.w3.org/2000/svg">
<path d="M3.8353 1.25583L1.01792 4.76626C0.377602 5.56477 0.603595 6.58927 1.5151 7.04126L4.32495 8.44995C4.69407 8.63074 5.29672 8.63074 5.66584 8.44995L8.47569 7.04126C9.3872 6.58174 9.61319 5.55723 8.97287 4.76626L6.16303 1.25583C5.53025 0.449789 4.47561 0.449789 3.8353 1.25583Z" stroke="#3772FF" stroke-width="1.3" stroke-miterlimit="10" stroke-linecap="round" stroke-linejoin="round"/>
<path d="M5.00245 0.690535V4.65295" stroke="#3772FF" stroke-width="1.3" stroke-miterlimit="10" stroke-linecap="round" stroke-linejoin="round"/>
<path d="M1.83816 7.02619L5.00206 4.65326L8.16596 7.02619" stroke="#3772FF" stroke-width="1.3" stroke-miterlimit="10" stroke-linecap="round" stroke-linejoin="round"/>
<path d="M2.56885 9.82574L3.78168 10.3681C4.55759 10.7146 5.4465 10.7146 6.22994 10.3681L7.44277 9.82574C8.52754 9.34362 9.52944 10.6544 8.77613 11.5734L6.16968 14.7599C5.52936 15.5434 4.48226 15.5434 3.83441 14.7599L1.23549 11.5734C0.47465 10.6544 1.47655 9.34362 2.56885 9.82574Z" stroke="#3772FF" stroke-width="1.3" stroke-miterlimit="10" stroke-linecap="round" stroke-linejoin="round"/>
</svg>
