<svg width="24" height="24" viewBox="0 0 24 24" fill="none" xmlns="http://www.w3.org/2000/svg">
<path fill-rule="evenodd" clip-rule="evenodd" d="M14.2686 4.62288C13.0722 3.24029 10.9278 3.24029 9.73143 4.62288L9.19876 5.23845L8.38682 5.17983C6.56321 5.04817 5.04692 6.56446 5.17858 8.38808L5.2372 9.20001L4.62163 9.73268C3.23904 10.9291 3.23904 13.0734 4.62163 14.2698L5.2372 14.8025L5.17858 15.6144C5.04692 17.438 6.56321 18.9543 8.38683 18.8227L9.19876 18.764L9.73143 19.3796C10.9278 20.7622 13.0722 20.7622 14.2686 19.3796L14.8012 18.764L15.6132 18.8227C17.4368 18.9543 18.9531 17.438 18.8214 15.6144L18.7628 14.8025L19.3784 14.2698C20.761 13.0734 20.761 10.9291 19.3784 9.73268L18.7628 9.20001L18.8214 8.38808C18.9531 6.56446 17.4368 5.04817 15.6132 5.17983L14.8012 5.23845L14.2686 4.62288ZM15.6961 10.7192C16.0926 10.3347 16.1024 9.70159 15.7179 9.30511C15.3334 8.90862 14.7003 8.89888 14.3039 9.28335L10.875 12.6083L9.69615 11.4652C9.29966 11.0807 8.66657 11.0904 8.2821 11.4869C7.89763 11.8834 7.90737 12.5165 8.30385 12.901L10.1789 14.7192C10.5667 15.0953 11.1833 15.0953 11.5711 14.7192L15.6961 10.7192Z" fill="white"/>
</svg>
