<svg width="291" height="64" viewBox="0 0 291 64" fill="none" xmlns="http://www.w3.org/2000/svg">
<g clip-path="url(#clip0_47_92192)">
<path d="M285.228 50H159.76C157.153 50 155.031 47.872 155.031 45.267V14.726C155.031 12.12 157.153 10 159.76 10H285.228C287.834 10 290.031 12.12 290.031 14.726V45.267C290.031 47.872 287.834 50 285.228 50Z" fill="#A6A6A6"/>
<path d="M289.064 45.2686C289.064 47.3846 287.35 49.0986 285.23 49.0986H159.761C157.642 49.0986 155.922 47.3846 155.922 45.2686V14.7256C155.922 12.6106 157.642 10.8906 159.761 10.8906H285.229C287.35 10.8906 289.063 12.6106 289.063 14.7256L289.064 45.2686Z" fill="black"/>
<path d="M185.16 29.7842C185.131 26.5612 187.799 24.9932 187.921 24.9202C186.41 22.7172 184.068 22.4162 183.245 22.3922C181.278 22.1852 179.37 23.5692 178.368 23.5692C177.346 23.5692 175.803 22.4122 174.14 22.4462C172 22.4792 169.998 23.7182 168.9 25.6422C166.634 29.5652 168.324 35.3302 170.495 38.5012C171.581 40.0542 172.85 41.7882 174.511 41.7272C176.136 41.6602 176.743 40.6912 178.704 40.6912C180.647 40.6912 181.217 41.7272 182.911 41.6882C184.655 41.6602 185.753 40.1282 186.801 38.5612C188.056 36.7812 188.56 35.0282 188.58 34.9382C188.539 34.9242 185.193 33.6472 185.16 29.7842Z" fill="white"/>
<path d="M181.962 20.3077C182.836 19.2147 183.434 17.7277 183.268 16.2188C182.003 16.2748 180.421 17.0938 179.51 18.1628C178.704 19.1048 177.984 20.6487 178.17 22.1007C179.591 22.2067 181.05 21.3837 181.962 20.3077Z" fill="white"/>
<path d="M208.676 41.5033H206.405L205.161 37.5943H200.837L199.652 41.5033H197.441L201.725 28.1953H204.371L208.676 41.5033ZM204.786 35.9543L203.661 32.4793C203.542 32.1243 203.319 31.2883 202.99 29.9723H202.95C202.819 30.5383 202.608 31.3743 202.318 32.4793L201.213 35.9543H204.786Z" fill="white"/>
<path d="M219.694 36.5879C219.694 38.2199 219.253 39.5099 218.371 40.4569C217.581 41.2999 216.6 41.7209 215.429 41.7209C214.165 41.7209 213.257 41.2669 212.704 40.3589H212.664V45.4139H210.532V35.0669C210.532 34.0409 210.505 32.9879 210.453 31.9079H212.328L212.447 33.4289H212.487C213.198 32.2829 214.277 31.7109 215.725 31.7109C216.857 31.7109 217.802 32.1579 218.558 33.0529C219.316 33.9489 219.694 35.1269 219.694 36.5879ZM217.522 36.6659C217.522 35.7319 217.312 34.9619 216.89 34.3559C216.429 33.7239 215.81 33.4079 215.034 33.4079C214.508 33.4079 214.03 33.5839 213.603 33.9309C213.175 34.2809 212.895 34.7379 212.764 35.3039C212.698 35.5679 212.665 35.7839 212.665 35.9539V37.5539C212.665 38.2519 212.879 38.8409 213.307 39.3219C213.735 39.8029 214.291 40.0429 214.975 40.0429C215.778 40.0429 216.403 39.7329 216.85 39.1149C217.298 38.4959 217.522 37.6799 217.522 36.6659Z" fill="white"/>
<path d="M230.732 36.5879C230.732 38.2199 230.291 39.5099 229.408 40.4569C228.619 41.2999 227.638 41.7209 226.467 41.7209C225.203 41.7209 224.295 41.2669 223.743 40.3589H223.703V45.4139H221.571V35.0669C221.571 34.0409 221.544 32.9879 221.492 31.9079H223.367L223.486 33.4289H223.526C224.236 32.2829 225.315 31.7109 226.764 31.7109C227.895 31.7109 228.84 32.1579 229.598 33.0529C230.353 33.9489 230.732 35.1269 230.732 36.5879ZM228.56 36.6659C228.56 35.7319 228.349 34.9619 227.927 34.3559C227.466 33.7239 226.849 33.4079 226.072 33.4079C225.545 33.4079 225.068 33.5839 224.64 33.9309C224.212 34.2809 223.933 34.7379 223.802 35.3039C223.737 35.5679 223.703 35.7839 223.703 35.9539V37.5539C223.703 38.2519 223.917 38.8409 224.343 39.3219C224.771 39.8019 225.327 40.0429 226.013 40.0429C226.816 40.0429 227.441 39.7329 227.888 39.1149C228.336 38.4959 228.56 37.6799 228.56 36.6659Z" fill="white"/>
<path d="M243.069 37.771C243.069 38.903 242.676 39.824 241.887 40.535C241.02 41.312 239.813 41.7 238.262 41.7C236.83 41.7 235.682 41.424 234.812 40.871L235.307 39.094C236.243 39.66 237.27 39.944 238.389 39.944C239.192 39.944 239.817 39.762 240.266 39.4C240.713 39.038 240.936 38.552 240.936 37.946C240.936 37.406 240.751 36.951 240.382 36.582C240.015 36.213 239.403 35.87 238.547 35.553C236.217 34.684 235.053 33.411 235.053 31.737C235.053 30.643 235.461 29.746 236.278 29.048C237.092 28.349 238.177 28 239.535 28C240.746 28 241.753 28.211 242.556 28.632L242.022 30.37C241.272 29.962 240.425 29.758 239.476 29.758C238.726 29.758 238.14 29.943 237.72 30.311C237.365 30.64 237.187 31.041 237.187 31.516C237.187 32.042 237.39 32.477 237.798 32.819C238.153 33.135 238.798 33.477 239.734 33.846C240.879 34.307 241.72 34.846 242.261 35.464C242.8 36.08 243.069 36.851 243.069 37.771Z" fill="white"/>
<path d="M250.121 33.5066H247.771V38.1656C247.771 39.3506 248.185 39.9426 249.015 39.9426C249.396 39.9426 249.712 39.9096 249.962 39.8436L250.021 41.4626C249.601 41.6196 249.048 41.6986 248.363 41.6986C247.521 41.6986 246.863 41.4416 246.388 40.9286C245.915 40.4146 245.677 39.5526 245.677 38.3416V33.5046H244.277V31.9046H245.677V30.1476L247.771 29.5156V31.9046H250.121V33.5066Z" fill="white"/>
<path d="M260.723 36.6259C260.723 38.1009 260.301 39.3119 259.459 40.2589C258.576 41.2339 257.404 41.7199 255.943 41.7199C254.535 41.7199 253.414 41.2529 252.578 40.3189C251.742 39.3849 251.324 38.2059 251.324 36.7849C251.324 35.2979 251.754 34.0799 252.617 33.1329C253.478 32.1849 254.64 31.7109 256.101 31.7109C257.509 31.7109 258.642 32.1779 259.497 33.1129C260.315 34.0199 260.723 35.1909 260.723 36.6259ZM258.511 36.6949C258.511 35.8099 258.322 35.0509 257.939 34.4179C257.492 33.6519 256.853 33.2699 256.025 33.2699C255.168 33.2699 254.517 33.6529 254.07 34.4179C253.687 35.0519 253.498 35.8229 253.498 36.7349C253.498 37.6199 253.687 38.3789 254.07 39.0109C254.531 39.7769 255.175 40.1589 256.006 40.1589C256.82 40.1589 257.459 39.7689 257.92 38.9909C258.313 38.3459 258.511 37.5789 258.511 36.6949Z" fill="white"/>
<path d="M267.654 33.7829C267.443 33.7439 267.218 33.7239 266.982 33.7239C266.232 33.7239 265.652 34.0069 265.244 34.5739C264.889 35.0739 264.711 35.7059 264.711 36.4689V41.5039H262.58L262.6 34.9299C262.6 33.8239 262.573 32.8169 262.52 31.9089H264.377L264.455 33.7449H264.514C264.739 33.1139 265.094 32.6059 265.58 32.2249C266.055 31.8819 266.568 31.7109 267.121 31.7109C267.318 31.7109 267.496 31.7249 267.654 31.7499V33.7829Z" fill="white"/>
<path d="M277.188 36.2504C277.188 36.6324 277.163 36.9544 277.11 37.2174H270.714C270.739 38.1654 271.048 38.8904 271.642 39.3904C272.181 39.8374 272.878 40.0614 273.734 40.0614C274.681 40.0614 275.545 39.9104 276.322 39.6074L276.656 41.0874C275.748 41.4834 274.676 41.6804 273.439 41.6804C271.951 41.6804 270.783 41.2424 269.933 40.3674C269.085 39.4924 268.66 38.3174 268.66 36.8434C268.66 35.3964 269.055 34.1914 269.846 33.2304C270.674 32.2044 271.793 31.6914 273.201 31.6914C274.584 31.6914 275.631 32.2044 276.342 33.2304C276.905 34.0454 277.188 35.0534 277.188 36.2504ZM275.155 35.6974C275.169 35.0654 275.03 34.5194 274.741 34.0584C274.372 33.4654 273.805 33.1694 273.042 33.1694C272.345 33.1694 271.778 33.4584 271.345 34.0384C270.99 34.4994 270.779 35.0524 270.714 35.6964L275.155 35.6974Z" fill="white"/>
<path d="M204.081 20.0067C204.081 21.1837 203.728 22.0697 203.023 22.6647C202.37 23.2137 201.442 23.4887 200.24 23.4887C199.644 23.4887 199.134 23.4627 198.707 23.4107V16.9797C199.264 16.8897 199.864 16.8438 200.512 16.8438C201.657 16.8438 202.52 17.0927 203.102 17.5907C203.754 18.1537 204.081 18.9587 204.081 20.0067ZM202.976 20.0357C202.976 19.2727 202.774 18.6877 202.37 18.2797C201.966 17.8727 201.376 17.6687 200.599 17.6687C200.269 17.6687 199.988 17.6907 199.755 17.7367V22.6258C199.884 22.6458 200.12 22.6547 200.463 22.6547C201.265 22.6547 201.884 22.4317 202.32 21.9857C202.756 21.5397 202.976 20.8898 202.976 20.0357Z" fill="white"/>
<path d="M209.941 21.0351C209.941 21.7601 209.734 22.3541 209.32 22.8201C208.886 23.2991 208.311 23.5381 207.593 23.5381C206.901 23.5381 206.35 23.3091 205.939 22.8491C205.529 22.3901 205.324 21.8111 205.324 21.1131C205.324 20.3831 205.535 19.7841 205.959 19.3191C206.383 18.8541 206.953 18.6211 207.671 18.6211C208.363 18.6211 208.919 18.8501 209.34 19.3091C209.74 19.7551 209.941 20.3311 209.941 21.0351ZM208.854 21.0691C208.854 20.6341 208.76 20.2611 208.573 19.9501C208.353 19.5741 208.04 19.3861 207.633 19.3861C207.212 19.3861 206.892 19.5741 206.672 19.9501C206.484 20.2611 206.391 20.6401 206.391 21.0881C206.391 21.5231 206.485 21.8961 206.672 22.2071C206.899 22.5831 207.215 22.7711 207.623 22.7711C208.023 22.7711 208.337 22.5801 208.563 22.1971C208.757 21.8801 208.854 21.5041 208.854 21.0691Z" fill="white"/>
<path d="M217.795 18.7188L216.32 23.4327H215.36L214.749 21.3857C214.594 20.8747 214.468 20.3668 214.37 19.8628H214.351C214.26 20.3808 214.134 20.8877 213.972 21.3857L213.323 23.4327H212.352L210.965 18.7188H212.042L212.575 20.9598C212.704 21.4898 212.81 21.9947 212.895 22.4727H212.914C212.992 22.0787 213.121 21.5768 213.303 20.9698L213.972 18.7198H214.826L215.467 20.9218C215.622 21.4588 215.748 21.9758 215.845 22.4738H215.874C215.945 21.9887 216.052 21.4718 216.194 20.9218L216.766 18.7198H217.795V18.7188Z" fill="white"/>
<path d="M223.23 23.4302H222.182V20.7302C222.182 19.8982 221.866 19.4822 221.232 19.4822C220.921 19.4822 220.67 19.5962 220.475 19.8252C220.282 20.0542 220.184 20.3242 220.184 20.6332V23.4292H219.136V20.0632C219.136 19.6492 219.123 19.2002 219.098 18.7142H220.019L220.068 19.4512H220.097C220.219 19.2222 220.401 19.0332 220.64 18.8822C220.924 18.7062 221.242 18.6172 221.59 18.6172C222.03 18.6172 222.396 18.7592 222.687 19.0442C223.049 19.3932 223.23 19.9142 223.23 20.6062V23.4302Z" fill="white"/>
<path d="M226.117 23.4317H225.07V16.5547H226.117V23.4317Z" fill="white"/>
<path d="M232.289 21.0351C232.289 21.7601 232.082 22.3541 231.668 22.8201C231.234 23.2991 230.658 23.5381 229.941 23.5381C229.248 23.5381 228.697 23.3091 228.287 22.8491C227.877 22.3901 227.672 21.8111 227.672 21.1131C227.672 20.3831 227.883 19.7841 228.307 19.3191C228.731 18.8541 229.301 18.6211 230.018 18.6211C230.711 18.6211 231.266 18.8501 231.688 19.3091C232.088 19.7551 232.289 20.3311 232.289 21.0351ZM231.201 21.0691C231.201 20.6341 231.107 20.2611 230.92 19.9501C230.701 19.5741 230.387 19.3861 229.981 19.3861C229.559 19.3861 229.239 19.5741 229.02 19.9501C228.832 20.2611 228.739 20.6401 228.739 21.0881C228.739 21.5231 228.833 21.8961 229.02 22.2071C229.247 22.5831 229.563 22.7711 229.971 22.7711C230.371 22.7711 230.684 22.5801 230.91 22.1971C231.105 21.8801 231.201 21.5041 231.201 21.0691Z" fill="white"/>
<path d="M237.362 23.4311H236.421L236.343 22.8881H236.314C235.992 23.3211 235.533 23.5381 234.937 23.5381C234.492 23.5381 234.132 23.3951 233.861 23.1111C233.615 22.8531 233.492 22.5321 233.492 22.1511C233.492 21.5751 233.732 21.1361 234.215 20.8321C234.697 20.5281 235.375 20.3791 236.248 20.3861V20.2981C236.248 19.6771 235.922 19.3671 235.269 19.3671C234.804 19.3671 234.394 19.4841 234.04 19.7161L233.827 19.0281C234.265 18.7571 234.806 18.6211 235.444 18.6211C236.676 18.6211 237.294 19.2711 237.294 20.5711V22.3071C237.294 22.7781 237.317 23.1531 237.362 23.4311ZM236.274 21.8111V21.0841C235.118 21.0641 234.54 21.3811 234.54 22.0341C234.54 22.2801 234.606 22.4641 234.741 22.5871C234.876 22.7101 235.048 22.7711 235.253 22.7711C235.483 22.7711 235.698 22.6981 235.894 22.5531C236.091 22.4071 236.212 22.2221 236.257 21.9951C236.268 21.9441 236.274 21.8821 236.274 21.8111Z" fill="white"/>
<path d="M243.316 23.4317H242.386L242.337 22.6747H242.308C242.011 23.2507 241.505 23.5387 240.794 23.5387C240.226 23.5387 239.753 23.3157 239.378 22.8697C239.003 22.4237 238.816 21.8447 238.816 21.1337C238.816 20.3707 239.019 19.7527 239.427 19.2807C239.822 18.8407 240.306 18.6207 240.882 18.6207C241.515 18.6207 241.958 18.8337 242.21 19.2607H242.23V16.5547H243.279V22.1617C243.279 22.6207 243.291 23.0437 243.316 23.4317ZM242.23 21.4437V20.6577C242.23 20.5217 242.22 20.4117 242.201 20.3277C242.142 20.0757 242.015 19.8637 241.822 19.6927C241.627 19.5217 241.392 19.4357 241.121 19.4357C240.73 19.4357 240.424 19.5907 240.199 19.9017C239.976 20.2127 239.863 20.6097 239.863 21.0947C239.863 21.5607 239.97 21.9387 240.185 22.2297C240.412 22.5397 240.718 22.6947 241.101 22.6947C241.445 22.6947 241.72 22.5657 241.929 22.3067C242.131 22.0677 242.23 21.7797 242.23 21.4437Z" fill="white"/>
<path d="M252.277 21.0351C252.277 21.7601 252.07 22.3541 251.656 22.8201C251.222 23.2991 250.648 23.5381 249.929 23.5381C249.238 23.5381 248.687 23.3091 248.275 22.8491C247.865 22.3901 247.66 21.8111 247.66 21.1131C247.66 20.3831 247.871 19.7841 248.295 19.3191C248.719 18.8541 249.289 18.6211 250.008 18.6211C250.699 18.6211 251.256 18.8501 251.676 19.3091C252.076 19.7551 252.277 20.3311 252.277 21.0351ZM251.191 21.0691C251.191 20.6341 251.097 20.2611 250.91 19.9501C250.689 19.5741 250.377 19.3861 249.969 19.3861C249.549 19.3861 249.229 19.5741 249.008 19.9501C248.82 20.2611 248.727 20.6401 248.727 21.0881C248.727 21.5231 248.821 21.8961 249.008 22.2071C249.235 22.5831 249.551 22.7711 249.959 22.7711C250.359 22.7711 250.674 22.5801 250.9 22.1971C251.093 21.8801 251.191 21.5041 251.191 21.0691Z" fill="white"/>
<path d="M257.912 23.4302H256.865V20.7302C256.865 19.8982 256.549 19.4822 255.914 19.4822C255.603 19.4822 255.352 19.5962 255.158 19.8252C254.964 20.0542 254.867 20.3242 254.867 20.6332V23.4292H253.818V20.0632C253.818 19.6492 253.806 19.2002 253.781 18.7142H254.701L254.75 19.4512H254.779C254.902 19.2222 255.084 19.0332 255.322 18.8822C255.607 18.7062 255.924 18.6172 256.273 18.6172C256.712 18.6172 257.078 18.7592 257.369 19.0442C257.732 19.3932 257.912 19.9142 257.912 20.6062V23.4302Z" fill="white"/>
<path d="M264.969 19.502H263.815V21.792C263.815 22.374 264.02 22.665 264.426 22.665C264.614 22.665 264.77 22.649 264.893 22.616L264.92 23.411C264.713 23.489 264.441 23.528 264.106 23.528C263.692 23.528 263.37 23.402 263.137 23.15C262.903 22.898 262.787 22.474 262.787 21.879V19.502H262.098V18.717H262.787V17.853L263.814 17.543V18.716H264.968L264.969 19.502Z" fill="white"/>
<path d="M270.516 23.4317H269.467V20.7517C269.467 19.9067 269.151 19.4837 268.518 19.4837C268.032 19.4837 267.7 19.7287 267.518 20.2187C267.487 20.3217 267.469 20.4477 267.469 20.5957V23.4307H266.422V16.5547H267.469V19.3957H267.489C267.819 18.8787 268.292 18.6207 268.905 18.6207C269.339 18.6207 269.698 18.7627 269.983 19.0477C270.338 19.4027 270.516 19.9307 270.516 20.6287V23.4317Z" fill="white"/>
<path d="M276.238 20.8523C276.238 21.0403 276.224 21.1983 276.199 21.3273H273.056C273.07 21.7933 273.22 22.1483 273.511 22.3943C273.777 22.6143 274.12 22.7243 274.54 22.7243C275.005 22.7243 275.429 22.6503 275.811 22.5013L275.975 23.2293C275.528 23.4233 275.002 23.5203 274.393 23.5203C273.663 23.5203 273.088 23.3053 272.672 22.8753C272.254 22.4453 272.047 21.8683 272.047 21.1443C272.047 20.4333 272.24 19.8413 272.629 19.3693C273.035 18.8653 273.584 18.6133 274.277 18.6133C274.955 18.6133 275.47 18.8653 275.818 19.3693C276.099 19.7693 276.238 20.2643 276.238 20.8523ZM275.238 20.5813C275.246 20.2703 275.177 20.0023 275.035 19.7763C274.853 19.4853 274.576 19.3393 274.201 19.3393C273.859 19.3393 273.58 19.4813 273.367 19.7663C273.193 19.9933 273.09 20.2643 273.056 20.5813H275.238Z" fill="white"/>
</g>
<defs>
<clipPath id="clip0_47_92192">
<rect width="135" height="40" fill="white" transform="translate(155.031 10)"/>
</clipPath>
</defs>
</svg>
