<svg width="18" height="18" viewBox="0 0 18 18" fill="none" xmlns="http://www.w3.org/2000/svg">
<path fill-rule="evenodd" clip-rule="evenodd" d="M13.5002 5.62472C13.1852 5.62472 12.904 5.74847 12.7015 5.95097L9.00021 9.66347L5.29896 5.95097C5.19407 5.84608 5.06954 5.76287 4.93249 5.7061C4.79544 5.64934 4.64855 5.62012 4.50021 5.62012C4.20062 5.62012 3.9133 5.73913 3.70146 5.95097C3.59657 6.05586 3.51336 6.18039 3.45659 6.31744C3.39982 6.45449 3.37061 6.60138 3.37061 6.74972C3.37061 7.04931 3.48962 7.33663 3.70146 7.54847L8.20146 12.0485C8.40396 12.251 8.68521 12.3747 9.00021 12.3747C9.31521 12.3747 9.59646 12.251 9.79896 12.0485L14.299 7.54847C14.456 7.39048 14.5627 7.18956 14.6057 6.97103C14.6487 6.75249 14.6261 6.52611 14.5407 6.3204C14.4553 6.1147 14.3109 5.93887 14.1258 5.81507C13.9406 5.69127 13.7229 5.62504 13.5002 5.62472Z" fill="#2D3340"/>
</svg>
