<svg width="24" height="24" viewBox="0 0 24 24" fill="none" xmlns="http://www.w3.org/2000/svg">
<path fill-rule="evenodd" clip-rule="evenodd" d="M9.50023 10.9978C8.94795 10.9978 8.50023 10.5501 8.50023 9.99781C8.50023 9.44553 8.94795 8.99781 9.50023 8.99781C10.0525 8.99781 10.5002 9.44553 10.5002 9.99781C10.5002 10.5501 10.0525 10.9978 9.50023 10.9978ZM11.5002 17.2078V19.9878C9.23023 19.8578 7.21023 18.7778 5.84023 17.1278C6.52023 16.5878 8.12023 16.0178 9.50023 16.0178C9.58023 16.0178 9.65023 16.0278 9.73023 16.0278C9.97023 15.3878 10.4002 14.7378 11.0302 14.1678C10.4702 14.0578 9.94023 14.0078 9.50023 14.0078C8.20023 14.0078 6.11023 14.4578 4.77023 15.4378C4.28023 14.3978 3.99023 13.2378 3.99023 12.0078C3.99023 7.59781 7.58023 4.00781 11.9902 4.00781C16.4002 4.00781 19.9902 7.59781 19.9902 12.0078C19.9902 13.2178 19.7202 14.3578 19.2402 15.3778C18.2402 14.7778 16.8802 14.5078 16.0002 14.5078C14.4802 14.5078 11.5002 15.3278 11.5002 17.2078ZM16.0002 8.99781C14.8902 8.99781 13.9902 9.88781 14.0002 10.9978C14.0002 12.1078 14.8902 12.9978 16.0002 12.9978C17.1102 12.9978 18.0002 12.1078 18.0002 10.9978C18.0002 9.88781 17.1102 8.99781 16.0002 8.99781ZM9.50023 12.9978C11.1502 12.9978 12.5002 11.6478 12.5002 9.99781C12.5002 8.34781 11.1502 6.99781 9.50023 6.99781C7.85023 6.99781 6.50023 8.34781 6.50023 9.99781C6.50023 11.6478 7.85023 12.9978 9.50023 12.9978Z" fill="white"/>
<path fill-rule="evenodd" clip-rule="evenodd" d="M12.5002 9.99781C12.5002 8.34781 11.1502 6.99781 9.50023 6.99781C7.85023 6.99781 6.50023 8.34781 6.50023 9.99781C6.50023 11.6478 7.85023 12.9978 9.50023 12.9978C11.1502 12.9978 12.5002 11.6478 12.5002 9.99781ZM9.50023 10.9978C8.95023 10.9978 8.50023 10.5478 8.50023 9.99781C8.50023 9.44781 8.95023 8.99781 9.50023 8.99781C10.0502 8.99781 10.5002 9.44781 10.5002 9.99781C10.5002 10.5478 10.0502 10.9978 9.50023 10.9978ZM16.0002 12.9978C17.1102 12.9978 18.0002 12.1078 18.0002 10.9978C18.0002 9.88781 17.1102 8.99781 16.0002 8.99781C14.8902 8.99781 13.9902 9.88781 14.0002 10.9978C14.0002 12.1078 14.8902 12.9978 16.0002 12.9978ZM11.9902 2.00781C6.47023 2.00781 1.99023 6.48781 1.99023 12.0078C1.99023 17.5278 6.47023 22.0078 11.9902 22.0078C17.5102 22.0078 21.9902 17.5278 21.9902 12.0078C21.9902 6.48781 17.5102 2.00781 11.9902 2.00781ZM5.84023 17.1178C6.52023 16.5778 8.11023 16.0078 9.50023 16.0078C9.57023 16.0078 9.65023 16.0178 9.73023 16.0178C9.97023 15.3778 10.4002 14.7278 11.0302 14.1578C10.4702 14.0578 9.94023 13.9978 9.50023 13.9978C8.20023 13.9978 6.11023 14.4478 4.77023 15.4278C4.27023 14.3878 3.99023 13.2278 3.99023 11.9978C3.99023 7.58781 7.58023 3.99781 11.9902 3.99781C16.4002 3.99781 19.9902 7.58781 19.9902 11.9978C19.9902 13.1978 19.7202 14.3378 19.2402 15.3678C18.2402 14.7778 16.8802 14.4978 16.0002 14.4978C14.4802 14.4978 11.5002 15.3078 11.5002 17.1978V19.9778C9.23023 19.8478 7.21023 18.7678 5.84023 17.1178Z" fill="#9A9AB0"/>
</svg>
