<svg width="192" height="32" viewBox="0 0 192 32" fill="none" xmlns="http://www.w3.org/2000/svg">
<g clip-path="url(#clip0_47_71988)">
<path d="M11 5C4.95 5 0 9.95 0 16C0 22.05 4.95 27 11 27C17.05 27 22 22.05 22 16C22 9.95 17.05 5 11 5ZM16.5688 13.7312V14.075C16.5688 17.5125 13.8875 21.5 8.9375 21.5C7.425 21.5 5.98125 21.0875 4.8125 20.3312C5.01875 20.3312 5.225 20.4 5.43125 20.4C6.66875 20.4 7.8375 19.9875 8.73125 19.3C7.5625 19.3 6.6 18.5438 6.25625 17.5125C6.39375 17.5125 6.6 17.5812 6.7375 17.5812C7.0125 17.5812 7.21875 17.5813 7.425 17.5125C6.1875 17.3063 5.29375 16.2063 5.29375 14.9688C5.6375 15.175 6.05 15.3125 6.53125 15.3125C5.84375 14.8313 5.3625 14.075 5.3625 13.1812C5.3625 12.7 5.5 12.2875 5.70625 11.875C7.0125 13.4563 9.00625 14.4875 11.2062 14.625C11.1375 14.4187 11.1375 14.2125 11.1375 14.0063C11.1375 12.5625 12.3063 11.3938 13.8188 11.3938C14.575 11.3938 15.2625 11.7375 15.7437 12.2188C16.3625 12.0813 16.9125 11.875 17.4625 11.6C17.2563 12.2188 16.8438 12.7 16.2938 13.0437C16.8438 12.975 17.325 12.8375 17.8062 12.6313C17.5312 12.9063 17.05 13.3875 16.5688 13.7312Z" fill="#7C7C7D"/>
</g>
<g clip-path="url(#clip1_47_71988)">
<path d="M43 5C36.95 5 32 9.95 32 16C32 22.05 36.95 27 43 27C49.05 27 54 22.05 54 16C54 9.95 49.05 5 43 5ZM45.75 12.5625H44.3062C43.8938 12.5625 43.6875 12.9063 43.6875 13.3188V13.9375H45.6812L45.3375 16H43.6875V21.5H41.625V16H40.25V13.9375H41.625V12.9062C41.625 11.6687 42.0375 10.5687 44.1 10.5H45.75V12.5625Z" fill="#7C7C7D"/>
</g>
<g clip-path="url(#clip2_47_71988)">
<path d="M73.4188 17.857L77.475 15.8633L73.4188 13.8008V17.857Z" fill="#7C7C7D"/>
<path d="M75 5C68.95 5 64 9.95 64 16C64 22.05 68.95 27 75 27C81.05 27 86 22.05 86 16C86 9.95 81.05 5 75 5ZM82.4937 16.55C82.4937 17.7187 82.3563 18.8875 82.3563 18.8875C82.3563 18.8875 82.2188 19.85 81.7375 20.3312C81.1875 20.8812 80.5 20.8813 80.225 20.95C78.0938 21.0875 75 21.0875 75 21.0875C75 21.0875 71.0813 21.0875 69.9125 20.95C69.5688 20.8813 68.8125 20.8812 68.2625 20.3312C67.7812 19.9187 67.6438 18.8875 67.6438 18.8875C67.6438 18.8875 67.5062 17.7187 67.5062 16.55V15.45C67.5062 14.2812 67.6438 13.1125 67.6438 13.1125C67.6438 13.1125 67.7812 12.15 68.2625 11.6687C68.8125 11.1188 69.4312 11.1188 69.775 11.05C71.8375 10.9125 75 10.9125 75 10.9125C75 10.9125 78.1625 10.9125 80.225 11.05C80.5 11.05 81.1875 11.1188 81.7375 11.6687C82.2188 12.0812 82.3563 13.1125 82.3563 13.1125C82.3563 13.1125 82.4937 14.2812 82.4937 15.45V16.55Z" fill="#7C7C7D"/>
</g>
<g clip-path="url(#clip3_47_71988)">
<path d="M104.938 16C104.938 15.5188 105.281 13.9375 107 13.9375C108.719 13.9375 109.062 15.5188 109.062 16C109.062 17.1 108.169 18.0625 107 18.0625C105.831 18.0625 104.938 17.1687 104.938 16ZM109.75 13.25V11.1875H111.812V13.25H109.75ZM111.744 14.625V19.6437C111.744 20.2625 111.263 20.8125 110.575 20.8125H103.288C102.669 20.8125 102.119 20.3312 102.119 19.6437V14.625H103.906C103.7 15.0375 103.631 15.5188 103.631 16C103.631 17.8562 105.144 19.3687 107 19.3687C108.856 19.3687 110.369 17.8562 110.369 16C110.369 15.5875 110.231 15.0375 110.094 14.625H111.744ZM118 16C118 22.05 113.05 27 107 27C100.95 27 96 22.05 96 16C96 9.95 100.95 5 107 5C113.05 5 118 9.95 118 16ZM113.188 12.2188C113.188 10.9125 112.087 9.8125 110.781 9.8125H103.219C101.912 9.8125 100.812 10.9125 100.812 12.2188V19.7812C100.812 21.0875 101.912 22.1875 103.219 22.1875H110.781C112.087 22.1875 113.188 21.0875 113.188 19.7812V12.2188Z" fill="#7C7C7D"/>
</g>
<g clip-path="url(#clip4_47_71988)">
<path d="M139 5C132.95 5 128 9.95 128 16C128 22.05 132.95 27 139 27C145.05 27 150 22.05 150 16C150 9.95 145.05 5 139 5ZM140.1 19.7812C139.206 19.7812 138.381 19.3 138.106 18.8188C138.106 18.8188 137.625 20.6062 137.556 21.0187C137.212 22.2563 136.181 23.4937 136.113 23.6313C136.044 23.7 135.906 23.7 135.906 23.5625C135.906 23.425 135.631 21.8438 135.906 20.5375L136.938 16.2062C136.938 16.2062 136.663 15.725 136.663 14.9688C136.663 13.8 137.35 12.9062 138.244 12.9062C139 12.9062 139.344 13.4563 139.344 14.075C139.344 14.8313 138.863 15.8625 138.656 16.8937C138.45 17.7187 139.069 18.4062 139.962 18.4062C141.475 18.4062 142.575 16.4812 142.575 14.2125C142.575 12.4937 141.337 11.1875 139.206 11.1875C136.731 11.1875 135.219 12.975 135.219 14.9688C135.219 15.6562 135.425 16.1375 135.769 16.55C135.906 16.7562 135.906 16.825 135.906 16.9625L135.562 17.5812C135.494 17.7875 135.356 17.8562 135.15 17.7875C134.05 17.3063 133.5 16.1375 133.5 14.7625C133.5 12.4938 135.425 9.8125 139.344 9.8125C142.438 9.8125 144.5 12.0125 144.5 14.35C144.5 17.4438 142.713 19.7812 140.1 19.7812Z" fill="#7C7C7D"/>
</g>
<g clip-path="url(#clip5_47_71988)">
<path fill-rule="evenodd" clip-rule="evenodd" d="M171 27C177.075 27 182 22.075 182 16C182 9.925 177.075 5 171 5C164.925 5 160 9.925 160 16C160 22.075 164.925 27 171 27ZM177 13.862V12.562C176.997 12.4837 176.966 12.4091 176.913 12.3518C176.859 12.2945 176.787 12.2584 176.709 12.25C175.949 12.1837 175.238 11.8507 174.7 11.31C174.161 10.7682 173.83 10.0542 173.765 9.293C173.757 9.21247 173.719 9.1378 173.659 9.08361C173.599 9.02942 173.521 8.99961 173.44 9H172.146C172.103 8.99987 172.061 9.00819 172.022 9.02449C171.982 9.04079 171.946 9.06474 171.916 9.09495C171.886 9.12517 171.862 9.16106 171.846 9.20055C171.83 9.24003 171.822 9.28233 171.822 9.325V18.1C171.822 18.4849 171.708 18.8612 171.495 19.1818C171.282 19.5023 170.979 19.7528 170.624 19.902C170.269 20.0498 169.879 20.0885 169.502 20.0131C169.125 19.9378 168.78 19.7518 168.509 19.479C168.239 19.206 168.055 18.8593 167.98 18.4823C167.906 18.1052 167.944 17.7147 168.091 17.3594C168.237 17.0041 168.485 16.6999 168.803 16.4847C169.122 16.2696 169.497 16.1532 169.881 16.15C169.974 16.1391 170.067 16.1348 170.16 16.137C170.206 16.1438 170.253 16.1404 170.298 16.1269C170.342 16.1134 170.383 16.0902 170.418 16.059C170.453 16.0296 170.481 15.9928 170.5 15.9513C170.519 15.9098 170.528 15.8646 170.528 15.819V14.519C170.528 14.4392 170.499 14.3622 170.445 14.3031C170.391 14.244 170.317 14.2073 170.238 14.2C170.119 14.1935 170 14.1935 169.881 14.2C169.113 14.2 168.362 14.4288 167.724 14.857C167.085 15.2862 166.587 15.8952 166.294 16.607C166.001 17.3197 165.924 18.103 166.074 18.859C166.224 19.615 166.593 20.31 167.136 20.857C167.678 21.4014 168.37 21.7725 169.123 21.9232C169.876 22.0738 170.657 21.9972 171.367 21.703C172.077 21.4073 172.683 20.9075 173.109 20.267C173.536 19.625 173.764 18.8711 173.764 18.1V13.056C174.587 13.7241 175.598 14.1194 176.656 14.187C176.7 14.1896 176.743 14.1835 176.784 14.169C176.826 14.1546 176.864 14.1322 176.896 14.103C176.928 14.0717 176.954 14.0342 176.972 13.9929C176.989 13.9515 177 13.907 177 13.862Z" fill="#7C7C7D"/>
</g>
<defs>
<clipPath id="clip0_47_71988">
<rect width="22" height="22" fill="white" transform="translate(0 5)"/>
</clipPath>
<clipPath id="clip1_47_71988">
<rect width="22" height="22" fill="white" transform="translate(32 5)"/>
</clipPath>
<clipPath id="clip2_47_71988">
<rect width="22" height="22" fill="white" transform="translate(64 5)"/>
</clipPath>
<clipPath id="clip3_47_71988">
<rect width="22" height="22" fill="white" transform="translate(96 5)"/>
</clipPath>
<clipPath id="clip4_47_71988">
<rect width="22" height="22" fill="white" transform="translate(128 5)"/>
</clipPath>
<clipPath id="clip5_47_71988">
<rect width="22" height="22" fill="white" transform="translate(160 5)"/>
</clipPath>
</defs>
</svg>
