<svg width="28" height="28" viewBox="0 0 28 28" fill="none" xmlns="http://www.w3.org/2000/svg">
<path fill-rule="evenodd" clip-rule="evenodd" d="M1.45801 8.16634C1.45801 4.46143 4.46143 1.45801 8.16634 1.45801H19.833C23.5379 1.45801 26.5413 4.46143 26.5413 8.16634V19.833C26.5413 23.5379 23.5379 26.5413 19.833 26.5413H8.16634C4.46143 26.5413 1.45801 23.5379 1.45801 19.833V8.16634ZM8.16634 3.20801C5.42793 3.20801 3.20801 5.42793 3.20801 8.16634V19.833C3.20801 22.5714 5.42793 24.7913 8.16634 24.7913H19.833C22.5714 24.7913 24.7913 22.5714 24.7913 19.833V8.16634C24.7913 5.42793 22.5714 3.20801 19.833 3.20801H8.16634Z" fill="white"/>
<path fill-rule="evenodd" clip-rule="evenodd" d="M2.33301 8.16634C2.33301 4.94468 4.94468 2.33301 8.16634 2.33301H19.833C23.0547 2.33301 25.6663 4.94468 25.6663 8.16634V19.833C25.6663 20.6816 25.4852 21.4878 25.1594 22.2151L25.5874 19.2187C25.6365 18.8754 25.5041 18.5311 25.2377 18.3091L19.9291 13.8853C19.2139 13.2893 18.1623 13.337 17.504 13.9953L11.3482 20.1511C10.8796 20.6198 10.1198 20.6198 9.65115 20.1511L8.07789 18.5779C7.4557 17.9557 6.47488 17.8745 5.75887 18.386L3.3351 20.1172C3.07231 20.3049 2.91634 20.608 2.91634 20.931V22.269C2.91634 22.3115 2.91904 22.3535 2.92431 22.3951C2.54561 21.6217 2.33301 20.7522 2.33301 19.833V8.16634ZM22.4043 24.8926L24.6911 23.0632C23.6456 24.6324 21.86 25.6663 19.833 25.6663H8.16634C6.13932 25.6663 4.35377 24.6324 3.30828 23.0632L5.58618 24.8855C5.74681 25.0141 5.94318 25.0899 6.14849 25.1027L15.0936 25.6618C15.142 25.6648 15.1906 25.6643 15.239 25.6603L21.8627 25.1083C22.0606 25.0918 22.2492 25.0167 22.4043 24.8926ZM9.33301 11.6663C8.04434 11.6663 6.99967 10.6217 6.99967 9.33301C6.99967 8.04434 8.04434 6.99967 9.33301 6.99967C10.6217 6.99967 11.6663 8.04434 11.6663 9.33301C11.6663 10.6217 10.6217 11.6663 9.33301 11.6663Z" fill="white"/>
</svg>
