<svg width="24" height="25" viewBox="0 0 24 25" fill="none" xmlns="http://www.w3.org/2000/svg">
<path d="M19.576 19.1848V3.1413C19.576 2.90492 19.4821 2.67821 19.3149 2.51106C19.1478 2.34391 18.9211 2.25 18.6847 2.25H6.20644C5.73366 2.25 5.28025 2.43781 4.94594 2.77211C4.61164 3.10642 4.42383 3.55983 4.42383 4.03261V20.9674" stroke="#767676" stroke-width="1.15" stroke-linecap="round" stroke-linejoin="round"/>
<path d="M19.576 19.1836H6.20644C5.73366 19.1836 5.28025 19.3714 4.94594 19.7057C4.61164 20.04 4.42383 20.4934 4.42383 20.9662C4.42383 21.439 4.61164 21.8924 4.94594 22.2267C5.28025 22.561 5.73366 22.7488 6.20644 22.7488H19.576" stroke="#767676" stroke-width="1.15" stroke-linecap="round" stroke-linejoin="round"/>
<path d="M7.09766 20.9688H19.5759" stroke="#767676" stroke-width="1.15" stroke-linecap="round" stroke-linejoin="round"/>
<path d="M14.9955 7.59894C14.0631 6.72769 12.8311 6.24891 11.5551 6.26198C9.01484 6.26198 6.96484 8.04459 6.96484 10.1303C7.00748 10.9352 7.29994 11.7069 7.80154 12.3379C8.30315 12.9689 8.98895 13.4278 9.76354 13.6509C10.4231 13.8827 10.9579 13.6955 11.3322 12.8398C11.4045 12.6312 11.5304 12.4452 11.6974 12.3007C11.8643 12.1561 12.0664 12.0581 12.2833 12.0166C12.5002 11.975 12.7242 11.9913 12.9328 12.0639C13.1413 12.1364 13.3271 12.2626 13.4714 12.4298" stroke="#767676" stroke-width="1.15" stroke-linecap="round" stroke-linejoin="round"/>
<path d="M15.8605 10.832L13.4629 15.6183" stroke="#767676" stroke-width="1.15" stroke-linecap="round" stroke-linejoin="round"/>
<path d="M15.3521 9.29148C15.2698 9.42733 15.2165 9.57877 15.1956 9.73625C15.1747 9.89373 15.1866 10.0538 15.2307 10.2065C15.2748 10.3591 15.35 10.5009 15.4516 10.623C15.5532 10.7451 15.6791 10.8449 15.8212 10.9159C15.9632 10.9869 16.1185 11.0278 16.2772 11.0358C16.4358 11.0439 16.5944 11.0189 16.743 10.9626C16.8915 10.9063 17.0268 10.8198 17.1402 10.7086C17.2537 10.5974 17.3428 10.4639 17.4021 10.3165C17.706 9.84814 17.8416 9.29035 17.7865 8.73477C17.7314 8.17919 17.489 7.65887 17.0991 7.25931C17.0827 7.24638 17.0632 7.23812 17.0425 7.23538C17.0218 7.23264 17.0008 7.23553 16.9816 7.24375C16.9625 7.25196 16.9459 7.26519 16.9336 7.28205C16.9213 7.29891 16.9138 7.31876 16.9119 7.33952C16.9119 8.36452 15.9849 8.04365 15.3521 9.29148Z" stroke="#767676" stroke-width="1.15" stroke-linecap="round" stroke-linejoin="round"/>
<path d="M9.32617 10.7188C9.38527 10.7188 9.44195 10.7422 9.48373 10.7839C9.52552 10.8257 9.549 10.8824 9.549 10.9415" stroke="#767676" stroke-width="1.15" stroke-linecap="round" stroke-linejoin="round"/>
<path d="M9.10352 10.9415C9.10352 10.8824 9.127 10.8257 9.16878 10.7839C9.21057 10.7422 9.26725 10.7188 9.32635 10.7188" stroke="#767676" stroke-width="1.15" stroke-linecap="round" stroke-linejoin="round"/>
<path d="M9.32635 11.1643C9.26725 11.1643 9.21057 11.1408 9.16878 11.099C9.127 11.0572 9.10352 11.0005 9.10352 10.9414" stroke="#767676" stroke-width="1.15" stroke-linecap="round" stroke-linejoin="round"/>
<path d="M9.549 10.9414C9.549 11.0005 9.52552 11.0572 9.48373 11.099C9.44195 11.1408 9.38527 11.1643 9.32617 11.1643" stroke="#767676" stroke-width="1.15" stroke-linecap="round" stroke-linejoin="round"/>
<path d="M9.99609 8.48828C10.0552 8.48828 10.1119 8.51175 10.1537 8.55354C10.1955 8.59533 10.2189 8.65201 10.2189 8.7111" stroke="#767676" stroke-width="1.15" stroke-linecap="round" stroke-linejoin="round"/>
<path d="M9.77148 8.7111C9.77148 8.65201 9.79496 8.59533 9.83675 8.55354C9.87854 8.51175 9.93522 8.48828 9.99432 8.48828" stroke="#767676" stroke-width="1.15" stroke-linecap="round" stroke-linejoin="round"/>
<path d="M9.99432 8.93376C9.93522 8.93376 9.87854 8.91029 9.83675 8.8685C9.79496 8.82671 9.77148 8.77003 9.77148 8.71094" stroke="#767676" stroke-width="1.15" stroke-linecap="round" stroke-linejoin="round"/>
<path d="M10.2189 8.71094C10.2189 8.77003 10.1955 8.82671 10.1537 8.8685C10.1119 8.91029 10.0552 8.93376 9.99609 8.93376" stroke="#767676" stroke-width="1.15" stroke-linecap="round" stroke-linejoin="round"/>
<path d="M12.2227 8.04297C12.2818 8.04297 12.3385 8.06644 12.3802 8.10823C12.422 8.15002 12.4455 8.2067 12.4455 8.26579" stroke="#767676" stroke-width="1.15" stroke-linecap="round" stroke-linejoin="round"/>
<path d="M12.002 8.26579C12.002 8.2067 12.0255 8.15002 12.0672 8.10823C12.109 8.06644 12.1657 8.04297 12.2248 8.04297" stroke="#767676" stroke-width="1.15" stroke-linecap="round" stroke-linejoin="round"/>
<path d="M12.2248 8.48845C12.1657 8.48845 12.109 8.46497 12.0672 8.42319C12.0255 8.3814 12.002 8.32472 12.002 8.26562" stroke="#767676" stroke-width="1.15" stroke-linecap="round" stroke-linejoin="round"/>
<path d="M12.4455 8.26562C12.4455 8.32472 12.422 8.3814 12.3802 8.42319C12.3385 8.46497 12.2818 8.48845 12.2227 8.48845" stroke="#767676" stroke-width="1.15" stroke-linecap="round" stroke-linejoin="round"/>
</svg>
