<svg width="19" height="19" viewBox="0 0 19 19" fill="none" xmlns="http://www.w3.org/2000/svg">
<path fill-rule="evenodd" clip-rule="evenodd" d="M9.62254 3.55851C11.133 3.49951 12.6053 4.04211 13.7162 5.06726L16.2378 2.54564C14.4563 0.855713 12.0773 -0.0587058 9.62254 0.00292501C7.87979 -0.0120329 6.16597 0.448701 4.66564 1.33551C3.16532 2.22232 1.93533 3.50161 1.10813 5.0356L3.98847 7.31455C4.43193 6.18825 5.20947 5.22465 6.21663 4.55321C7.22379 3.88177 8.41232 3.53466 9.62254 3.55851Z" fill="#E94435"/>
<path fill-rule="evenodd" clip-rule="evenodd" d="M3.57704 9.49925C3.5769 8.75539 3.71648 8.01813 3.98851 7.32581L1.10817 5.03631C0.37883 6.41072 -0.00159853 7.94331 0.000351305 9.49925C-0.0129005 11.0603 0.348935 12.6017 1.05542 13.9938L3.96741 11.6938C3.69972 10.9935 3.56726 10.2489 3.57704 9.49925Z" fill="#F8BB15"/>
<path fill-rule="evenodd" clip-rule="evenodd" d="M13.1148 14.5433C12.0095 15.1563 10.7591 15.4589 9.49588 15.419C8.3045 15.4357 7.13669 15.0865 6.14997 14.4186C5.16326 13.7508 4.40513 12.7963 3.97787 11.6841L1.05533 13.9841C1.86016 15.5191 3.07546 16.8005 4.56578 17.6854C6.0561 18.5703 7.76288 19.0239 9.49588 18.9957C11.8396 19.0669 14.1286 18.2789 15.9318 16.78L13.1148 14.5433Z" fill="#34A751"/>
<path fill-rule="evenodd" clip-rule="evenodd" d="M18.9915 9.50073C18.9926 8.86639 18.929 8.23359 18.8016 7.61216H9.49588V11.4104H15.2566V11.6425C15.1336 12.2506 14.8816 12.8252 14.5176 13.3276C14.1536 13.8299 13.686 14.2483 13.1464 14.5545L15.974 16.7913C16.9775 15.8691 17.7675 14.7388 18.2887 13.4796C18.8099 12.2203 19.0497 10.8624 18.9915 9.50073Z" fill="#547DBE"/>
</svg>
