<svg width="760" height="46" viewBox="0 0 760 46" fill="none" xmlns="http://www.w3.org/2000/svg">
<g filter="url(#filter0_dd_47_104207)">
<rect width="760" height="46" rx="22" fill="white" shape-rendering="crispEdges"/>
<path d="M690 0H738C750.15 0 760 9.84974 760 22V24C760 36.1503 750.15 46 738 46H690V0Z" fill="#0078D4"/>
<path d="M723 13.75C724.37 13.7497 725.712 14.1377 726.871 14.8691C728.03 15.6004 728.958 16.6452 729.547 17.8823C730.136 19.1194 730.363 20.4982 730.201 21.8588C730.038 23.2195 729.494 24.5062 728.63 25.57L733.53 30.47C733.663 30.6043 733.741 30.784 733.747 30.9731C733.753 31.1621 733.688 31.3466 733.564 31.4895C733.44 31.6324 733.267 31.7232 733.079 31.7437C732.89 31.7642 732.702 31.7128 732.55 31.6L732.47 31.53L727.57 26.63C726.669 27.3611 725.605 27.8652 724.469 28.1C723.333 28.3348 722.157 28.2934 721.039 27.9793C719.922 27.6652 718.897 27.0876 718.05 26.295C717.202 25.5024 716.557 24.5179 716.169 23.4243C715.781 22.3307 715.661 21.16 715.82 20.0105C715.978 18.861 716.41 17.7663 717.079 16.8184C717.749 15.8705 718.636 15.0971 719.666 14.5631C720.696 14.0292 721.839 13.7503 723 13.75ZM723 15.25C722.245 15.25 721.497 15.3987 720.799 15.6877C720.102 15.9767 719.468 16.4002 718.934 16.9341C718.4 17.4681 717.976 18.1019 717.688 18.7996C717.399 19.4972 717.25 20.2449 717.25 21C717.25 21.7551 717.399 22.5028 717.688 23.2004C717.976 23.8981 718.4 24.5319 718.934 25.0659C719.468 25.5998 720.102 26.0233 720.799 26.3123C721.497 26.6013 722.245 26.75 723 26.75C724.525 26.75 725.987 26.1442 727.066 25.0659C728.144 23.9875 728.75 22.525 728.75 21C728.75 19.475 728.144 18.0125 727.066 16.9341C725.987 15.8558 724.525 15.25 723 15.25Z" fill="white"/>
<g clip-path="url(#clip0_47_104207)">
<path d="M668.25 20.333C668.63 20.333 668.95 20.6597 668.99 21.0913L669 21.208V21.7913C668.999 23.7786 668.355 25.6923 667.196 27.1485C666.037 28.6047 664.448 29.4958 662.75 29.643V32.2913C662.763 32.5234 662.697 32.7521 662.565 32.9271C662.434 33.1022 662.249 33.2092 662.05 33.2247C661.851 33.2401 661.655 33.1628 661.505 33.0096C661.355 32.8565 661.263 32.6401 661.25 32.408V29.643C659.59 29.5003 658.034 28.6472 656.88 27.2475C655.727 25.8478 655.057 24.0003 655 22.0597V21.208C654.986 20.9759 655.053 20.7472 655.184 20.5722C655.315 20.3972 655.501 20.2901 655.7 20.2747C655.899 20.2592 656.095 20.3366 656.245 20.4897C656.395 20.6429 656.486 20.8593 656.5 21.0913V21.7913C656.499 23.3723 657.021 24.8925 657.959 26.0341C658.896 27.1757 660.176 27.8501 661.53 27.9163H662.25C663.605 27.9177 664.908 27.3078 665.886 26.214C666.865 25.1203 667.443 23.6276 667.5 22.048V21.208C667.5 20.7297 667.84 20.333 668.25 20.333ZM662 9.83301C663.061 9.83301 664.078 10.3247 664.828 11.1998C665.578 12.075 666 13.262 666 14.4997V21.4997C666 22.7374 665.578 23.9243 664.828 24.7995C664.078 25.6747 663.061 26.1663 662 26.1663C660.939 26.1663 659.921 25.6747 659.171 24.7995C658.421 23.9243 658 22.7374 658 21.4997V14.4997C658 13.262 658.421 12.075 659.171 11.1998C659.921 10.3247 660.939 9.83301 662 9.83301ZM662 11.583C661.337 11.583 660.701 11.8903 660.232 12.4373C659.763 12.9843 659.5 13.7261 659.5 14.4997V21.4997C659.5 22.2732 659.763 23.0151 660.232 23.5621C660.701 24.109 661.337 24.4163 662 24.4163C662.663 24.4163 663.299 24.109 663.767 23.5621C664.236 23.0151 664.5 22.2732 664.5 21.4997V14.4997C664.5 13.7261 664.236 12.9843 663.767 12.4373C663.299 11.8903 662.663 11.583 662 11.583Z" fill="#0078D4"/>
</g>
</g>
<defs>
<filter id="filter0_dd_47_104207" x="-3.6" y="-2.9" width="767.2" height="54.1" filterUnits="userSpaceOnUse" color-interpolation-filters="sRGB">
<feFlood flood-opacity="0" result="BackgroundImageFix"/>
<feColorMatrix in="SourceAlpha" type="matrix" values="0 0 0 0 0 0 0 0 0 0 0 0 0 0 0 0 0 0 127 0" result="hardAlpha"/>
<feOffset dy="1.6"/>
<feGaussianBlur stdDeviation="1.8"/>
<feComposite in2="hardAlpha" operator="out"/>
<feColorMatrix type="matrix" values="0 0 0 0 0 0 0 0 0 0 0 0 0 0 0 0 0 0 0.13 0"/>
<feBlend mode="normal" in2="BackgroundImageFix" result="effect1_dropShadow_47_104207"/>
<feColorMatrix in="SourceAlpha" type="matrix" values="0 0 0 0 0 0 0 0 0 0 0 0 0 0 0 0 0 0 127 0" result="hardAlpha"/>
<feOffset/>
<feGaussianBlur stdDeviation="1.45"/>
<feComposite in2="hardAlpha" operator="out"/>
<feColorMatrix type="matrix" values="0 0 0 0 0 0 0 0 0 0 0 0 0 0 0 0 0 0 0.11 0"/>
<feBlend mode="normal" in2="effect1_dropShadow_47_104207" result="effect2_dropShadow_47_104207"/>
<feBlend mode="normal" in="SourceGraphic" in2="effect2_dropShadow_47_104207" result="shape"/>
</filter>
<clipPath id="clip0_47_104207">
<rect width="24" height="28" fill="white" transform="translate(650 7.5)"/>
</clipPath>
</defs>
</svg>
