<svg width="1024" height="64" viewBox="0 0 1024 64" fill="none" xmlns="http://www.w3.org/2000/svg">
<rect x="588" width="64" height="64" rx="4" fill="white"/>
<g clip-path="url(#clip0_47_69071)">
<path d="M620.92 32.0004L616.37 27.2504C616.133 26.9982 616 26.6648 616 26.3184C616 25.9721 616.133 25.6387 616.37 25.3864C616.485 25.2644 616.623 25.1672 616.777 25.1008C616.93 25.0343 617.096 25 617.263 25C617.43 25 617.596 25.0343 617.75 25.1008C617.903 25.1672 618.041 25.2644 618.156 25.3864L623.651 31.1214C623.875 31.3593 624 31.6737 624 32.0004C624 32.3272 623.875 32.6416 623.651 32.8794L618.156 38.6144C618.041 38.7364 617.903 38.8337 617.75 38.9001C617.596 38.9666 617.43 39.0009 617.263 39.0009C617.096 39.0009 616.93 38.9666 616.777 38.9001C616.623 38.8337 616.485 38.7364 616.37 38.6144C616.132 38.3621 616 38.0286 616 37.6819C616 37.3353 616.132 37.0018 616.37 36.7494L620.92 32.0004Z" fill="#1E1E1E"/>
</g>
<defs>
<clipPath id="clip0_47_69071">
<rect width="24" height="24" fill="white" transform="translate(608 20)"/>
</clipPath>
</defs>
</svg>
