<svg width="24" height="25" viewBox="0 0 24 25" fill="none" xmlns="http://www.w3.org/2000/svg">
<path d="M12.002 19.5C14.8211 19.5 14.752 21.5833 17.002 21.5833C17.5661 21.5833 19.502 21.4858 19.502 18.6667C19.502 15.8475 17.0178 16.9575 15.9478 14.8192C14.8211 12.5642 14.8211 10.75 12.002 10.75C9.18278 10.75 9.18278 12.5642 8.05611 14.8192C6.98611 16.9575 4.50195 15.8483 4.50195 18.6667C4.50195 21.485 6.43778 21.5833 7.00195 21.5833C9.25611 21.5833 9.18278 19.5 12.002 19.5Z" stroke="#767676" stroke-width="1.25" stroke-linecap="round" stroke-linejoin="round"/>
<path d="M5.7513 11.1653C5.7513 11.6074 5.57571 12.0313 5.26315 12.3439C4.95059 12.6564 4.52666 12.832 4.08464 12.832C3.64261 12.832 3.21868 12.6564 2.90612 12.3439C2.59356 12.0313 2.41797 11.6074 2.41797 11.1653V9.49869C2.41797 9.05667 2.59356 8.63274 2.90612 8.32018C3.21868 8.00762 3.64261 7.83203 4.08464 7.83203C4.52666 7.83203 4.95059 8.00762 5.26315 8.32018C5.57571 8.63274 5.7513 9.05667 5.7513 9.49869V11.1653Z" stroke="#767676" stroke-width="1.25" stroke-linecap="round" stroke-linejoin="round"/>
<path d="M10.7513 5.75131C10.7513 6.19334 10.5757 6.61726 10.2631 6.92982C9.95059 7.24238 9.52666 7.41797 9.08464 7.41797C8.64261 7.41797 8.21868 7.24238 7.90612 6.92982C7.59356 6.61726 7.41797 6.19334 7.41797 5.75131V4.08464C7.41797 3.64261 7.59356 3.21869 7.90612 2.90613C8.21868 2.59357 8.64261 2.41797 9.08464 2.41797C9.52666 2.41797 9.95059 2.59357 10.2631 2.90613C10.5757 3.21869 10.7513 3.64261 10.7513 4.08464V5.75131Z" stroke="#767676" stroke-width="1.25" stroke-linecap="round" stroke-linejoin="round"/>
<path d="M18.252 11.1653C18.252 11.6074 18.4276 12.0313 18.7401 12.3439C19.0527 12.6564 19.4766 12.832 19.9186 12.832C20.3607 12.832 20.7846 12.6564 21.0972 12.3439C21.4097 12.0313 21.5853 11.6074 21.5853 11.1653V9.49869C21.5853 9.05667 21.4097 8.63274 21.0972 8.32018C20.7846 8.00762 20.3607 7.83203 19.9186 7.83203C19.4766 7.83203 19.0527 8.00762 18.7401 8.32018C18.4276 8.63274 18.252 9.05667 18.252 9.49869V11.1653Z" stroke="#767676" stroke-width="1.25" stroke-linecap="round" stroke-linejoin="round"/>
<path d="M13.252 5.75131C13.252 6.19334 13.4276 6.61726 13.7401 6.92982C14.0527 7.24238 14.4766 7.41797 14.9186 7.41797C15.3607 7.41797 15.7846 7.24238 16.0972 6.92982C16.4097 6.61726 16.5853 6.19334 16.5853 5.75131V4.08464C16.5853 3.64261 16.4097 3.21869 16.0972 2.90613C15.7846 2.59357 15.3607 2.41797 14.9186 2.41797C14.4766 2.41797 14.0527 2.59357 13.7401 2.90613C13.4276 3.21869 13.252 3.64261 13.252 4.08464V5.75131Z" stroke="#767676" stroke-width="1.25" stroke-linecap="round" stroke-linejoin="round"/>
</svg>
