<svg width="40" height="40" viewBox="0 0 40 40" fill="none" xmlns="http://www.w3.org/2000/svg">
<path d="M35.7263 4.30591C34.8926 3.45027 33.6588 3.1315 32.5083 3.46704L5.68065 11.2685C4.46682 11.6057 3.60646 12.5738 3.3747 13.8035C3.13794 15.0551 3.96494 16.6439 5.04539 17.3083L13.4338 22.464C14.2942 22.9924 15.4046 22.8599 16.1166 22.1418L25.7222 12.4764C26.2057 11.9731 27.006 11.9731 27.4896 12.4764C27.9731 12.963 27.9731 13.7515 27.4896 14.2548L17.8673 23.9219C17.1537 24.6383 17.0203 25.754 17.5455 26.6197L22.6709 35.0922C23.2712 36.0988 24.3049 36.6693 25.4387 36.6693C25.5721 36.6693 25.7222 36.6693 25.8556 36.6525C27.1561 36.4847 28.1899 35.5955 28.5734 34.3372L36.5266 7.54392C36.8768 6.40307 36.56 5.16155 35.7263 4.30591Z" fill="white"/>
</svg>
