<svg width="23" height="22" viewBox="0 0 23 22" fill="none" xmlns="http://www.w3.org/2000/svg">
<path d="M22.7435 18.7606C22.5667 18.9294 22.3426 19.0081 22.1186 19.0081C21.8946 19.0081 21.6706 18.9294 21.4937 18.7606L15.6575 13.1907L16.2824 12.5943L16.9073 11.9979L22.7435 17.5678C23.0854 17.8941 23.0854 18.4343 22.7435 18.7606Z" fill="#15161E"/>
<path d="M6.15455 7.77846L12.9929 14.3048C13.4528 14.7437 13.4528 15.4526 12.9929 15.8914L11.9318 16.9154C10.9768 17.8156 9.46763 17.8156 8.52441 16.9154L3.4074 12.0318C2.47596 11.1429 2.47596 9.69136 3.4074 8.79117L4.48032 7.76721C4.94014 7.33962 5.69472 7.33962 6.15455 7.77846Z" fill="#15161E"/>
<path d="M20.4444 8.80215L15.9523 13.078C15.4807 13.5281 14.7261 13.5281 14.2545 13.078L7.43963 6.57418C6.96802 6.12409 6.96802 5.40394 7.43963 4.95384L11.9318 0.666701C12.8632 -0.222234 14.3841 -0.222234 15.3274 0.666701L20.4444 5.55022C21.3758 6.45041 21.3758 7.89071 20.4444 8.80215Z" fill="#15161E"/>
<path d="M7.95848 21.8099H0.884276C0.400872 21.8099 0 21.4273 0 20.9659C0 20.5046 0.400872 20.122 0.884276 20.122H7.95848C8.44189 20.122 8.84276 20.5046 8.84276 20.9659C8.84276 21.4273 8.44189 21.8099 7.95848 21.8099Z" fill="#15161E"/>
</svg>
