<svg width="120" height="120" viewBox="0 0 120 120" fill="none" xmlns="http://www.w3.org/2000/svg">
<path d="M119 74.429C119 99.2141 102.145 118.999 81.7022 118.999C61.259 118.999 44.4043 99.2141 44.4043 74.429C44.4043 49.6439 61.259 29.8594 81.7022 29.8594C102.145 29.8594 119 49.6439 119 74.429Z" stroke="#9F9F9F" stroke-width="2"/>
<path d="M32.2685 38.0116C33.3017 38.0116 34.343 37.7512 35.1939 37.0136C36.1744 36.1651 36.9604 34.9454 37.1792 33.4943C37.3332 32.4626 37.2845 31.4116 37.2845 30.3702C37.2845 27.9887 37.2967 25.6023 37.2845 23.2159C37.2805 22.0878 37.009 20.9066 36.4459 19.9906C35.7368 18.8336 34.7239 17.9031 33.5165 17.638C33.0505 17.5319 32.5724 17.4789 32.0984 17.5078C31.3853 17.5512 30.7654 17.7585 30.1252 18.1153C29.007 18.7372 28.2169 19.9424 27.7752 21.2779C27.4187 22.3529 27.4876 23.5485 27.4876 24.6815C27.4876 26.1085 27.4876 27.5404 27.4876 28.9674C27.4876 30.0376 27.4876 31.1078 27.4876 32.1781C27.4876 33.1375 27.6618 34.0053 28.0021 34.8683C28.5208 36.1989 29.5377 37.139 30.66 37.6645C31.1665 37.9055 31.7257 38.0067 32.2685 38.0116C33.1154 38.0212 33.9298 37.1197 33.8892 36.0831C33.8487 35.0322 33.1761 34.1644 32.2685 34.1548C32.1187 34.1548 31.9728 34.1403 31.8229 34.1162C31.9647 34.1403 32.1106 34.1644 32.2524 34.1836C31.9809 34.1355 31.7216 34.0487 31.4704 33.9234C31.6 33.986 31.7297 34.0535 31.8593 34.1162C31.6122 33.9908 31.3853 33.8318 31.1705 33.6389C31.2799 33.7402 31.3893 33.8414 31.4987 33.9427C31.2759 33.7353 31.0773 33.4991 30.9031 33.234C30.9882 33.3641 31.0733 33.4943 31.1584 33.6244C30.9963 33.3689 30.8626 33.0989 30.7573 32.8049C30.81 32.9591 30.8667 33.1134 30.9194 33.2677C30.814 32.9688 30.7411 32.6603 30.7006 32.3372C30.7208 32.506 30.7411 32.6795 30.7573 32.8482C30.7087 32.4192 30.7249 31.9805 30.7249 31.5466C30.7249 30.7993 30.7249 30.0569 30.7249 29.3097C30.7249 27.5934 30.7249 25.8819 30.7249 24.1656C30.7249 23.6642 30.7006 23.1532 30.7573 22.6567C30.737 22.8254 30.7168 22.9989 30.7006 23.1677C30.7411 22.8447 30.814 22.5361 30.9194 22.2372C30.8667 22.3915 30.81 22.5458 30.7573 22.7C30.8626 22.406 30.9963 22.136 31.1584 21.8805C31.0733 22.0106 30.9882 22.1408 30.9031 22.271C31.0773 22.0058 31.2759 21.7696 31.4987 21.5623C31.3893 21.6635 31.2799 21.7648 31.1705 21.866C31.3853 21.6732 31.6122 21.5141 31.8593 21.3887C31.7297 21.4514 31.6 21.5189 31.4704 21.5816C31.7216 21.4562 31.9809 21.3694 32.2524 21.3212C32.1106 21.3453 31.9647 21.3694 31.8229 21.3887C32.1916 21.3309 32.5805 21.3309 32.9493 21.3887C32.8074 21.3646 32.6616 21.3405 32.5198 21.3212C32.7912 21.3694 33.0505 21.4562 33.3017 21.5816C33.1721 21.5189 33.0425 21.4514 32.9128 21.3887C33.1599 21.5141 33.3868 21.6732 33.6016 21.866C33.4921 21.7648 33.3828 21.6635 33.2734 21.5623C33.4962 21.7696 33.6947 22.0058 33.869 22.271C33.7839 22.1408 33.6988 22.0106 33.6137 21.8805C33.7758 22.136 33.9095 22.406 34.0149 22.7C33.9622 22.5458 33.9054 22.3915 33.8528 22.2372C33.9581 22.5361 34.0311 22.8447 34.0716 23.1677C34.0513 22.9989 34.0311 22.8254 34.0149 22.6567C34.0635 23.0857 34.0473 23.5244 34.0473 23.9583C34.0473 24.7056 34.0473 25.448 34.0473 26.1953C34.0473 27.9115 34.0473 29.623 34.0473 31.3393C34.0473 31.8407 34.0716 32.3517 34.0149 32.8482C34.0351 32.6795 34.0554 32.506 34.0716 32.3372C34.0311 32.6603 33.9581 32.9688 33.8528 33.2677C33.9054 33.1134 33.9622 32.9591 34.0149 32.8049C33.9095 33.0989 33.7758 33.3689 33.6137 33.6244C33.6988 33.4943 33.7839 33.3641 33.869 33.234C33.6947 33.4991 33.4962 33.7353 33.2734 33.9427C33.3828 33.8414 33.4921 33.7402 33.6016 33.6389C33.3868 33.8318 33.1599 33.9908 32.9128 34.1162C33.0425 34.0535 33.1721 33.986 33.3017 33.9234C33.0505 34.0487 32.7912 34.1355 32.5198 34.1836C32.6616 34.1596 32.8074 34.1355 32.9493 34.1162C32.7224 34.1499 32.4954 34.1548 32.2685 34.1548C31.4218 34.1548 30.6074 35.0418 30.6479 36.0831C30.6884 37.1293 31.361 38.0116 32.2685 38.0116ZM8.98752 38.0116C10.0207 38.0116 11.062 37.7512 11.9128 37.0136C12.8934 36.1651 13.6794 34.9454 13.8982 33.4943C14.0522 32.4626 14.0035 31.4116 14.0035 30.3702C14.0035 27.9887 14.0157 25.6023 14.0035 23.2159C13.9995 22.0878 13.728 20.9066 13.1648 19.9906C12.4558 18.8336 11.4429 17.9031 10.2354 17.638C9.7695 17.5319 9.2914 17.4789 8.81735 17.5078C8.10425 17.5512 7.48434 17.7585 6.84417 18.1153C5.72591 18.7372 4.93583 19.9424 4.49419 21.2779C4.13764 22.3529 4.20652 23.5485 4.20652 24.6815C4.20652 26.1085 4.20652 27.5404 4.20652 28.9674C4.20652 30.0376 4.20652 31.1078 4.20652 32.1781C4.20652 33.1375 4.38074 34.0053 4.72109 34.8683C5.2397 36.1989 6.25668 37.139 7.379 37.6645C7.88546 37.9055 8.4446 38.0067 8.98752 38.0116C9.83433 38.0212 10.6487 37.1197 10.6082 36.0831C10.5677 35.0322 9.8951 34.1644 8.98752 34.1548C8.83761 34.1548 8.69175 34.1403 8.54183 34.1162C8.68364 34.1403 8.82951 34.1644 8.97131 34.1836C8.69985 34.1355 8.44054 34.0487 8.18934 33.9234C8.31899 33.986 8.44865 34.0535 8.5783 34.1162C8.33114 33.9908 8.10425 33.8318 7.88951 33.6389C7.99891 33.7402 8.1083 33.8414 8.2177 33.9427C7.99486 33.7353 7.79632 33.4991 7.6221 33.234C7.70719 33.3641 7.79227 33.4943 7.87736 33.6244C7.71529 33.3689 7.58158 33.0989 7.47624 32.8049C7.52891 32.9591 7.58564 33.1134 7.63831 33.2677C7.53297 32.9688 7.46003 32.6603 7.41951 32.3372C7.43977 32.506 7.46003 32.6795 7.47624 32.8482C7.42762 32.4192 7.44383 31.9805 7.44383 31.5466C7.44383 30.7993 7.44383 30.0569 7.44383 29.3097C7.44383 27.5934 7.44383 25.8819 7.44383 24.1656C7.44383 23.6642 7.41951 23.1532 7.47624 22.6567C7.45598 22.8254 7.43572 22.9989 7.41951 23.1677C7.46003 22.8447 7.53297 22.5361 7.63831 22.2372C7.58564 22.3915 7.52891 22.5458 7.47624 22.7C7.58158 22.406 7.71529 22.136 7.87736 21.8805C7.79227 22.0106 7.70719 22.1408 7.6221 22.271C7.79632 22.0058 7.99486 21.7696 8.2177 21.5623C8.1083 21.6635 7.99891 21.7648 7.88951 21.866C8.10425 21.6732 8.33114 21.5141 8.5783 21.3887C8.44865 21.4514 8.31899 21.5189 8.18934 21.5816C8.44054 21.4562 8.69985 21.3694 8.97131 21.3212C8.82951 21.3453 8.68364 21.3694 8.54183 21.3887C8.91054 21.3309 9.29951 21.3309 9.66821 21.3887C9.52639 21.3646 9.38054 21.3405 9.23873 21.3212C9.51019 21.3694 9.7695 21.4562 10.0207 21.5816C9.89105 21.5189 9.7614 21.4514 9.63174 21.3887C9.87889 21.5141 10.1058 21.6732 10.3205 21.866C10.2111 21.7648 10.1017 21.6635 9.99234 21.5623C10.2152 21.7696 10.4137 22.0058 10.5879 22.271C10.5029 22.1408 10.4178 22.0106 10.3327 21.8805C10.4948 22.136 10.6284 22.406 10.7338 22.7C10.6811 22.5458 10.6244 22.3915 10.5717 22.2372C10.6771 22.5361 10.75 22.8447 10.7905 23.1677C10.7703 22.9989 10.75 22.8254 10.7338 22.6567C10.7824 23.0857 10.7662 23.5244 10.7662 23.9583C10.7662 24.7056 10.7662 25.448 10.7662 26.1953C10.7662 27.9115 10.7662 29.623 10.7662 31.3393C10.7662 31.8407 10.7905 32.3517 10.7338 32.8482C10.7541 32.6795 10.7743 32.506 10.7905 32.3372C10.75 32.6603 10.6771 32.9688 10.5717 33.2677C10.6244 33.1134 10.6811 32.9591 10.7338 32.8049C10.6284 33.0989 10.4948 33.3689 10.3327 33.6244C10.4178 33.4943 10.5029 33.3641 10.5879 33.234C10.4137 33.4991 10.2152 33.7353 9.99234 33.9427C10.1017 33.8414 10.2111 33.7402 10.3205 33.6389C10.1058 33.8318 9.87889 33.9908 9.63174 34.1162C9.7614 34.0535 9.89105 33.986 10.0207 33.9234C9.7695 34.0487 9.51019 34.1355 9.23873 34.1836C9.38054 34.1596 9.52639 34.1355 9.66821 34.1162C9.44131 34.1499 9.21441 34.1548 8.98752 34.1548C8.14072 34.1548 7.32633 35.0418 7.36684 36.0831C7.40331 37.1293 8.07994 38.0116 8.98752 38.0116Z" fill="#393D46"/>
<path d="M7.44644 32.1881C7.44644 30.7032 7.44644 29.2183 7.44644 27.7334C7.44644 25.6749 7.44644 23.6163 7.44644 21.5578C7.44644 20.5647 7.46669 19.5763 7.57609 18.5929C7.55583 18.7616 7.53557 18.9352 7.51936 19.1038C7.69764 17.5515 8.04609 16.0329 8.5566 14.5866C8.50392 14.7409 8.44721 14.8951 8.39453 15.0494C8.901 13.6369 9.55332 12.3062 10.3434 11.0913C10.2583 11.2215 10.1732 11.3517 10.0881 11.4819C10.8741 10.2766 11.7858 9.19192 12.7987 8.25661C12.6893 8.35785 12.5799 8.45909 12.4705 8.56033C13.4915 7.62506 14.6098 6.84406 15.797 6.24143C15.6673 6.3041 15.5377 6.3716 15.408 6.43427C16.6235 5.82682 17.8998 5.41221 19.2044 5.2001C19.0627 5.22419 18.9168 5.2483 18.775 5.26758C20.0837 5.0651 21.4086 5.0651 22.7172 5.26758C22.5755 5.24349 22.4296 5.21938 22.2878 5.2001C23.5924 5.41221 24.8688 5.82682 26.0843 6.43427C25.9546 6.3716 25.8249 6.3041 25.6953 6.24143C26.8824 6.84406 28.0007 7.62024 29.0217 8.56033C28.9123 8.45909 28.8029 8.35785 28.6935 8.25661C29.7065 9.19192 30.6181 10.2766 31.4041 11.4819C31.319 11.3517 31.2339 11.2215 31.1488 11.0913C31.9349 12.3062 32.5913 13.6369 33.0977 15.0494C33.045 14.8951 32.9884 14.7409 32.9356 14.5866C33.4461 16.0329 33.7946 17.5515 33.9729 19.1038C33.9526 18.9352 33.9324 18.7616 33.9162 18.5929C34.0296 19.6149 34.0458 20.637 34.0458 21.6638C34.0458 22.7775 34.0458 23.8863 34.0458 24.9999C34.0458 27.772 34.0458 30.5441 34.0458 33.3162C34.0458 34.208 34.0782 35.1144 33.981 36.0015C34.0013 35.8328 34.0215 35.6592 34.0377 35.4904C33.9526 36.2233 33.7906 36.9368 33.5515 37.6165C33.6042 37.4622 33.6609 37.308 33.7136 37.1537C33.4705 37.8383 33.1544 38.4795 32.7695 39.0724C32.8546 38.9423 32.9397 38.8122 33.0248 38.682C32.652 39.2509 32.2266 39.7571 31.7485 40.2006C31.8579 40.0994 31.9673 39.9981 32.0767 39.8969C31.5824 40.3501 31.0394 40.7261 30.4641 41.0202C30.5938 40.9575 30.7234 40.89 30.8531 40.8273C30.2778 41.1118 29.6822 41.3046 29.0663 41.4058C29.2081 41.3818 29.354 41.3576 29.4958 41.3383C28.8678 41.4348 28.2357 41.4155 27.6036 41.4155C26.8176 41.4155 26.0315 41.4155 25.2455 41.4155C25.047 41.4155 24.8525 41.4155 24.654 41.4155C23.8072 41.4155 22.9928 42.3026 23.0333 43.3439C23.0738 44.39 23.7464 45.2723 24.654 45.2723C25.6507 45.2723 26.6434 45.2723 27.6401 45.2723C28.0169 45.2723 28.3937 45.2819 28.7705 45.2675C29.9414 45.224 31.0313 44.8962 32.101 44.3515C33.904 43.4306 35.4679 41.6613 36.335 39.569C36.8536 38.3155 37.1494 37.0332 37.2588 35.6399C37.2872 35.2832 37.2872 34.9264 37.2872 34.5649C37.2872 32.0723 37.2872 29.5799 37.2872 27.0875C37.2872 25.0385 37.2912 22.9896 37.2872 20.9407C37.2831 18.7085 36.9711 16.4379 36.3229 14.3408C35.626 12.0844 34.6293 10.05 33.3327 8.2084C30.9139 4.77584 27.4051 2.33642 23.6978 1.57952C21.6355 1.15527 19.5772 1.16973 17.523 1.63737C15.6552 2.06162 13.8238 2.92458 12.1991 4.1009C8.87263 6.51623 6.35248 10.2718 5.08024 14.6445C4.49275 16.6596 4.20913 18.8243 4.20508 20.9551C4.20508 21.7843 4.20508 22.6088 4.20508 23.438C4.20508 26.1618 4.20508 28.8905 4.20508 31.6144C4.20508 31.8072 4.20508 31.9953 4.20508 32.1881C4.20508 33.1956 4.95059 34.1647 5.82575 34.1165C6.70092 34.0683 7.44644 33.268 7.44644 32.1881Z" fill="#393D46"/>
<path d="M23.0332 43.3371C23.0332 43.4721 23.0251 43.6071 23.0089 43.7373C23.0292 43.5685 23.0495 43.395 23.0657 43.2262C23.0332 43.4625 22.9806 43.6939 22.9076 43.9156C22.9603 43.7614 23.017 43.6071 23.0697 43.4528C22.9846 43.6891 22.8752 43.906 22.7456 44.1133C22.8306 43.9831 22.9157 43.853 23.0008 43.7228C22.8793 43.906 22.7415 44.0699 22.5875 44.2145C22.6969 44.1133 22.8063 44.0121 22.9157 43.9108C22.7456 44.0651 22.5592 44.1953 22.3607 44.2965C22.4903 44.2338 22.6199 44.1663 22.7496 44.1037C22.5633 44.1953 22.3688 44.2579 22.1702 44.2917C22.312 44.2676 22.4579 44.2435 22.5997 44.2242C22.0689 44.3061 21.5138 44.2531 20.979 44.2531C20.4361 44.2531 19.8729 44.3062 19.334 44.229C19.4758 44.2531 19.6217 44.2772 19.7635 44.2965C19.5528 44.2579 19.3543 44.1953 19.1558 44.0988C19.2854 44.1615 19.4151 44.229 19.5447 44.2917C19.3543 44.1904 19.1801 44.0699 19.014 43.9205C19.1233 44.0217 19.2327 44.1229 19.3421 44.2242C19.1801 44.0699 19.0383 43.9012 18.9086 43.7083C18.9937 43.8385 19.0788 43.9687 19.1639 44.0988C19.0383 43.9012 18.937 43.6939 18.8519 43.4673C18.9046 43.6216 18.9613 43.7758 19.014 43.9301C18.9329 43.6987 18.8802 43.4577 18.8478 43.207C18.8681 43.3757 18.8883 43.5492 18.9046 43.718C18.8762 43.4528 18.8762 43.1925 18.9046 42.9322C18.8843 43.1009 18.864 43.2744 18.8478 43.4432C18.8802 43.207 18.9329 42.9755 19.0058 42.7538C18.9532 42.9081 18.8965 43.0623 18.8438 43.2166C18.9289 42.9804 19.0383 42.7634 19.1679 42.5561C19.0828 42.6863 18.9977 42.8165 18.9127 42.9466C19.0342 42.7634 19.172 42.5995 19.3259 42.4549C19.2165 42.5561 19.1071 42.6574 18.9977 42.7586C19.1679 42.6043 19.3543 42.4742 19.5528 42.3729C19.4232 42.4356 19.2935 42.5031 19.1639 42.5658C19.3502 42.4742 19.5447 42.4115 19.7433 42.3777C19.6014 42.4018 19.4556 42.426 19.3138 42.4452C19.8446 42.3633 20.3996 42.4163 20.9345 42.4163C21.4774 42.4163 22.0406 42.3633 22.5794 42.4404C22.4376 42.4163 22.2918 42.3922 22.15 42.3729C22.3607 42.4115 22.5592 42.4742 22.7577 42.5706C22.628 42.5079 22.4984 42.4404 22.3688 42.3777C22.5592 42.479 22.7334 42.5995 22.8995 42.749C22.7901 42.6477 22.6807 42.5465 22.5714 42.4452C22.7334 42.5995 22.8752 42.7682 23.0049 42.9611C22.9197 42.8309 22.8347 42.7007 22.7496 42.5706C22.8752 42.7682 22.9765 42.9755 23.0616 43.2021C23.0089 43.0479 22.9522 42.8936 22.8995 42.7393C22.9806 42.9707 23.0332 43.2118 23.0657 43.4625C23.0454 43.2937 23.0251 43.1202 23.0089 42.9514C23.0251 43.0816 23.0292 43.207 23.0332 43.3371C23.0373 43.8337 23.2115 44.3447 23.5073 44.7015C23.7868 45.0341 24.2487 45.2896 24.6539 45.2655C25.5209 45.2173 26.2867 44.417 26.2746 43.3371C26.2665 42.4597 26.068 41.5437 25.6587 40.8013C25.2738 40.107 24.7512 39.4755 24.1191 39.1043C23.5235 38.7572 22.9157 38.5643 22.2432 38.5547C22.0811 38.5547 21.9231 38.5547 21.761 38.5547C21.1816 38.5547 20.5982 38.5547 20.0188 38.5547C19.8972 38.5547 19.7716 38.5547 19.6501 38.5547C18.9694 38.5643 18.3211 38.7668 17.7174 39.1477C17.134 39.5141 16.6802 40.0781 16.2993 40.7097C15.9063 41.3653 15.7402 42.1415 15.6551 42.9322C15.566 43.8096 15.7523 44.6918 16.0684 45.4825C16.3722 46.2538 16.8868 46.8613 17.4703 47.3434C18.2077 47.9508 19.0909 48.1147 19.9661 48.1147C20.5455 48.1147 21.1208 48.1147 21.7002 48.1147C21.8825 48.1147 22.0689 48.1147 22.2513 48.1147C22.936 48.1051 23.5843 47.9026 24.188 47.5217C25.4724 46.7118 26.2584 45.0389 26.2746 43.3323C26.2827 42.3247 25.5209 41.3557 24.6539 41.4039C23.7666 41.4569 23.0413 42.2572 23.0332 43.3371Z" fill="#393D46"/>
</svg>
