<svg width="30" height="30" viewBox="0 0 30 30" fill="none" xmlns="http://www.w3.org/2000/svg">
<g clip-path="url(#clip0_47_23733)">
<path d="M4.96875 2.43729L4.03125 0.843539C4.03125 0.843539 9.09375 -1.96896 13.0312 3.09354C13.0312 3.09354 14.1562 4.49979 13.4062 5.71854L14.3438 7.40604C14.3438 7.40604 16.3125 6.28104 17.0625 8.24979C17.0625 8.24979 18.5625 6.84354 20.0625 8.81229L20.625 7.59354C20.625 7.59354 22.0313 5.71854 22.6875 8.71854C22.6875 8.71854 23.7188 7.03104 25.125 7.87479C26.5312 8.71854 25.5938 11.531 25.5938 11.531C25.5938 11.531 26.4375 10.6873 27 11.156C27.4688 11.6248 27.2812 13.406 26.7188 14.8123C26.1562 16.3123 25.9688 16.4998 25.9688 16.4998L19.6875 16.3123L11.1562 11.4373L4.96875 2.43729Z" fill="#472E1D"/>
<path d="M27.6565 18.7506C27.6565 18.4693 27.3752 18.1881 27.094 17.9068C26.9065 17.6256 26.6252 17.4381 26.2502 17.4381C26.344 17.2506 26.5315 17.0631 26.6252 16.8756C27.0002 16.1256 27.1877 15.3756 27.2815 14.7193C27.7502 13.2193 27.5627 11.9068 27.2815 11.7193H27.1877C27.094 11.4381 27.094 11.3443 27.0002 11.2506C26.719 11.0631 26.344 11.4381 25.969 11.8131C25.6877 11.9068 25.4065 12.2818 25.1252 12.4693L25.4065 11.7193C25.594 11.2506 25.594 10.8756 25.594 10.5943C25.594 10.5006 25.6877 10.5006 25.6877 10.4068C26.0627 9.28184 25.8752 8.81309 25.5002 8.53184C25.4065 7.78184 24.6565 7.68809 24.1877 7.78184C23.719 7.78184 23.0627 9.09434 22.6877 9.84434C22.5002 10.2193 22.3127 10.5006 22.219 10.7818C22.3127 10.5006 22.3127 10.2193 22.3127 9.93809C22.594 9.18809 22.7815 8.15684 22.1252 7.78184C22.0315 7.50059 21.9377 7.21934 21.6565 7.12559C21.094 6.84434 20.2502 8.06309 19.7815 8.90684C19.5002 8.53184 19.1252 8.43809 18.7502 8.43809C18.469 7.96934 17.9065 7.87559 17.5315 7.96934C17.4377 7.96934 17.344 7.96934 17.344 8.06309H17.2502C17.0627 8.06309 16.7815 8.34434 16.5002 8.71934C16.5002 8.25059 16.4065 7.87559 16.0315 7.78184C15.844 7.68809 15.6565 7.78184 15.469 7.87559C15.3752 7.59434 15.2815 7.40684 15.0002 7.31309C14.719 7.21934 14.4377 7.31309 14.1565 7.68809C13.969 7.78184 13.8752 7.87559 13.6877 8.06309L12.0002 5.53184C12.2815 4.87559 12.469 3.93809 12.2815 3.65684C12.0002 3.09434 8.43771 -0.56191 5.34396 0.37559L4.59396 0.656839C4.50021 0.656839 4.50021 0.75059 4.50021 0.75059L4.12521 1.12559H4.03146C3.84396 1.21934 3.65646 1.40684 3.56271 1.50059C3.37521 1.59434 3.28146 1.78184 3.28146 1.78184C3.09396 1.87559 3.00021 2.06309 3.00021 2.06309C2.25021 3.09434 2.25021 4.40684 2.53146 5.62559C2.62521 6.46934 2.90646 7.31309 3.09396 7.96934C3.09396 8.15684 3.18771 8.25059 3.28146 8.43809C3.46896 8.90684 3.65646 9.28184 3.75021 9.37559C4.03146 9.65684 4.40646 9.93809 4.78146 9.75059C4.96896 9.84434 5.15646 9.84434 5.25021 9.84434L6.75021 12.7506C6.37521 13.2193 5.90646 13.7818 5.81271 14.3443C5.53146 15.2818 3.75021 18.7506 3.28146 19.6881C2.90646 20.5318 2.90646 21.0006 2.90646 22.2193C2.81271 22.8756 2.81271 23.6256 3.09396 24.2818C3.09396 25.0318 3.56271 25.6881 4.12521 26.1568C4.40646 26.7193 4.87521 27.1881 5.53146 27.6568C6.00021 28.1256 6.56271 28.4068 7.12521 28.5943C8.15646 29.3443 9.56271 29.0631 10.8752 28.4068C10.969 28.3131 11.0627 28.3131 11.2502 28.2193C11.9065 28.0318 12.7502 27.6568 13.5002 27.1881C13.594 27.2818 13.6877 27.2818 13.6877 27.2818C14.1565 27.6568 14.719 27.8443 15.2815 27.8443C16.219 28.0318 17.2502 27.6568 18.2815 27.1881C21.844 26.2506 26.719 21.0006 26.6252 20.5318C26.6252 20.3443 27.3752 19.6881 27.2815 19.5006C27.469 19.1256 27.6565 18.8443 27.6565 18.7506Z" fill="#472E1D"/>
<path d="M6.28133 0.750143H6.18758C6.18758 0.750143 5.62508 1.40639 5.34383 1.40639C5.06258 1.40639 4.87508 1.68764 4.87508 1.68764C2.90633 3.84389 5.15633 8.34389 5.43758 8.71889C5.71883 9.09389 6.37508 9.46889 6.75008 9.09389C7.12508 8.62514 9.28133 6.75014 9.56258 6.56264C10.3126 6.28139 11.9063 6.28139 12.3751 6.18764C12.9376 6.09389 13.3126 4.50014 13.1251 4.12514C12.9376 3.65639 9.37508 -0.0936067 6.28133 0.750143Z" fill="#8E4332"/>
<path d="M5.34375 7.125L10.125 16.7812C10.125 16.7812 8.71875 19.5 9 21.4688C9.28125 23.3438 11.1562 27 13.3125 25.5938C15.4688 24.1875 16.6875 21.6563 16.6875 21.6563C16.6875 21.6563 20.9062 23.25 22.2188 20.3438C23.5312 17.4375 22.6875 15.375 22.125 14.8125C21.5625 14.25 19.125 12.9375 18.1875 12.8438C17.25 12.75 16.2187 12.2812 16.2187 12.2812L10.875 2.625C10.875 2.625 6.65625 3.46875 5.34375 7.125Z" fill="#9A4C18"/>
<path d="M6.1875 7.03125L12 17.25C12 17.25 9.65625 19.4062 9.9375 21.375C10.2188 23.3438 12.0938 26.9062 14.25 25.5C16.4063 24.0938 17.625 21.5625 17.625 21.5625C17.625 21.5625 21.8438 23.1562 23.1563 20.25C24.4688 17.3438 23.0625 15.4688 22.4062 14.9062C21.75 14.3438 20.0625 12.8438 19.125 12.75C18.1875 12.6562 17.0625 12.1875 17.0625 12.1875L11.25 3.28125C11.25 3.28125 7.40625 3.375 6.1875 7.03125Z" fill="#9A4C18"/>
<path d="M6 7.96875L11.1562 17.1562C11.1562 17.1562 9 19.125 9.28125 20.8125C9.5625 22.5 11.1562 25.6875 13.125 24.5625C15.0938 23.3438 16.125 21 16.125 21C16.125 21 19.875 22.4063 21.0938 19.7813C22.3125 17.1563 21.5625 15.375 21 14.8125C20.4375 14.25 18.375 13.125 17.5313 13.0312C16.6875 12.9375 15.75 12.5625 15.75 12.5625L10.9687 3.9375C10.9687 3.9375 7.125 4.78125 6 7.96875Z" fill="#F7BB8A"/>
<path d="M6.00019 0.844095H5.90644C5.90644 0.844095 5.25019 1.50035 5.06269 1.50035C4.87519 1.50035 4.68769 1.7816 4.68769 1.7816C2.71894 4.0316 4.68769 8.25035 4.96894 8.62535C5.25019 9.00035 5.90644 9.37535 6.18769 8.9066C6.46894 8.43785 8.62519 6.56285 8.90644 6.37535L12.1877 5.06285C12.7502 4.9691 12.6564 4.2191 12.4689 3.8441C12.1877 3.4691 8.90644 -0.0934047 6.00019 0.844095Z" fill="#C95D5D"/>
<path d="M5.43749 1.21845C5.34374 1.3122 5.43749 1.3122 5.43749 1.21845C5.34374 1.3122 4.87499 1.78095 4.68749 1.78095C4.49999 1.78095 4.31249 1.96845 4.31249 1.96845C2.71874 3.7497 4.49999 7.40595 4.78124 7.6872C5.06249 7.96845 5.53124 8.34345 5.90624 7.96845C6.18749 7.59345 7.96874 6.09345 8.15624 5.90595C8.71874 5.6247 10.5 4.96845 10.875 4.8747C11.3437 4.78095 11.25 4.21845 11.0625 3.84345C10.875 3.5622 7.96874 0.468449 5.43749 1.21845Z" fill="#EF9595"/>
<path opacity="0.28" d="M12.6563 17.1562C12.6563 17.1562 13.9687 14.9063 15.2812 14.25C16.5937 13.5938 16.7813 13.2188 16.5 13.0312C16.2188 12.75 15.5625 12.5625 15.375 12.5625C15.1875 12.5625 13.9687 13.5 13.0312 14.625L11.4375 16.5C11.4375 16.5 12.2813 17.5312 12.6563 17.1562Z" fill="#96745C"/>
<path d="M8.4375 7.03125L11.4375 11.9062C11.4375 11.9062 12.5625 13.9688 12.4687 14.25C12.375 14.5312 11.1562 15.4688 11.1562 15.4688C11.1562 15.4688 10.125 15 9.9375 14.3438C9.75 13.6875 6.84375 8.4375 6.84375 8.4375C6.84375 8.4375 7.6875 7.03125 8.4375 7.03125ZM10.2187 20.25C10.2187 20.25 10.6875 18.5625 11.4375 18.1875C12.1875 17.8125 13.125 17.7188 13.0312 18.2812C12.9375 18.8438 12.6562 19.5937 12.375 19.9687L11.25 21.9375C11.0625 22.3125 10.125 22.4062 9.9375 21.9375C9.75 21.5625 10.2187 20.25 10.2187 20.25Z" fill="#FCD5BB"/>
<path opacity="0.28" d="M11.25 24.8438C11.25 24.8438 13.875 23.625 14.5312 22.4062C15.1875 21.0938 15.8438 19.9688 16.7812 19.875C17.7188 19.7812 18.9375 20.1563 19.5938 19.3125C20.25 18.4688 21.2813 17.0625 20.8125 16.2187C20.3438 15.4687 17.5313 13.125 17.5313 13.125C17.5313 13.125 18.8438 13.4063 19.4063 13.6875C19.9688 13.9688 23.1562 16.125 22.4062 17.8125C21.6562 19.4062 21.375 22.9687 16.3125 21.375L15.8438 22.4062C15.75 22.5938 12.75 26.3438 11.25 24.8438ZM10.5 4.875L15 13.0312C15.5625 13.3125 17.5313 12.75 17.5313 12.75C17.5313 12.75 16.2188 12.8438 15.8438 12C15.4688 11.1563 11.8125 4.40625 11.8125 4.40625L10.5 4.875Z" fill="#96745C"/>
<path d="M5.53125 1.3125C5.53125 1.3125 6 3.46875 6.375 3.9375C6.75 4.40625 7.3125 5.34375 7.125 5.4375C6.84375 5.53125 6.1875 5.15625 5.90625 4.96875C5.625 4.78125 4.78125 1.6875 4.78125 1.6875C4.78125 1.6875 5.0625 1.3125 5.53125 1.3125Z" fill="#C95D5D"/>
<path opacity="0.23" d="M4.3125 7.21834C4.3125 7.21834 5.34375 7.87459 5.90625 7.21834C6.46875 6.56209 7.875 5.62459 8.4375 5.24959C9 4.78084 9.75 2.62459 9.1875 1.78084C8.625 0.937089 11.8125 4.12459 11.8125 4.12459L11.3438 5.06209L8.90625 6.37459L5.8125 8.81209C5.8125 8.81209 4.5 8.34334 4.3125 7.21834Z" fill="#AF644E"/>
<path d="M14.5312 13.6875L16.5 12.0938L17.7187 12.8438L14.5312 13.6875Z" fill="#875F43"/>
<path d="M26.3439 19.4067C26.2502 18.9379 25.7814 18.1879 24.7502 19.3129C24.4689 19.5942 24.0939 19.9692 23.6252 20.2504C24.5627 18.9379 25.4064 17.6254 25.7814 16.8754C26.5314 15.2817 26.3439 13.5942 26.0627 13.4067C25.7814 13.2192 25.1252 13.8754 24.8439 14.1567C24.5627 14.3442 23.9064 15.5629 23.7189 15.8442C23.6252 16.1254 22.5939 17.8129 22.4064 18.1879C22.2189 18.5629 21.5627 19.1254 21.3752 19.2192C21.1877 19.3129 21.0939 19.1254 21.0939 18.9379C21.0939 18.7504 22.7814 15.8442 22.7814 15.8442C22.7814 15.8442 23.9064 13.8754 24.4689 12.1879C25.0314 10.5942 24.0002 10.3129 23.5314 10.3129C23.0627 10.3129 22.1252 12.2817 22.0314 12.5629C21.8439 12.8442 20.7189 15.3754 20.2502 16.2192C19.7814 17.0629 19.2189 17.4379 19.1252 17.5317C18.9377 17.6254 18.9377 17.5317 18.9377 17.5317L19.5002 16.4067C19.5939 16.1254 21.4689 12.3754 21.6564 11.7192C21.8439 11.0629 22.1252 10.0317 21.4689 9.65669C20.8127 9.28169 19.6877 11.2504 19.5002 11.5317C19.3127 11.9067 18.0002 14.2504 17.6252 14.8129C17.3439 15.3754 16.1252 17.3442 15.9377 17.5317C15.7502 17.6254 15.5627 17.6254 15.5627 17.3442C15.5627 17.1567 15.6564 16.6879 15.9377 15.0004C16.2189 13.3129 15.4689 12.5629 14.9064 12.5629C14.3439 12.5629 14.0627 14.0629 13.8752 15.0004C13.6877 15.8442 12.0939 18.9379 11.7189 19.8754C11.3439 20.8129 11.4377 21.2817 11.4377 23.2504C11.5314 25.2192 14.2502 26.2504 14.2502 26.2504C15.2814 27.1879 16.7814 26.9067 18.0939 26.1567C21.7502 25.3129 26.4377 19.8754 26.3439 19.4067Z" fill="#7C563C"/>
<path d="M26.3439 19.4066C26.2502 18.9379 25.5002 17.9066 24.4689 19.0316C24.1877 19.4066 23.8127 19.6879 23.3439 19.9691L25.5939 16.5004C26.3439 14.8129 26.1564 13.1254 25.8752 12.9379C25.5939 12.7504 24.9377 13.5004 24.6564 13.6879C24.3752 13.8754 23.6252 15.0941 23.5314 15.4691C23.4377 15.7504 22.4064 17.5316 22.2189 17.9066C22.0314 18.2816 21.3752 18.8441 21.1877 18.9379C21.0002 19.0316 20.9064 18.8441 20.9064 18.6566C20.9064 18.4691 22.6877 15.4691 22.6877 15.4691C22.6877 15.4691 23.8127 13.4066 24.3752 11.7191C24.9377 10.0316 23.9064 9.84413 23.4377 9.84413C22.8752 9.84413 22.0314 11.9066 21.8439 12.1879C21.6564 12.4691 20.4377 15.0941 20.0627 15.9379C19.5939 16.7816 19.0314 17.2504 18.8439 17.3441C18.6564 17.4379 18.6564 17.3441 18.6564 17.3441L19.2189 16.1254C19.3127 15.8441 21.1877 12.0004 21.4689 11.3441C21.6564 10.6879 21.9377 9.56288 21.2814 9.18788C20.6252 8.81288 19.5002 10.7816 19.3127 11.1566L17.4377 14.5316L15.7502 17.3441C15.5627 17.4379 15.3752 17.4379 15.3752 17.1566C15.3752 16.9691 15.4689 16.5004 15.7502 14.7191C16.0314 13.0316 15.2814 12.1879 14.7189 12.1879C14.1564 12.1879 13.8752 13.7816 13.6877 14.6254C13.5002 15.5629 11.9064 18.6566 11.5314 19.5941C11.1564 20.5316 11.2502 21.0004 11.2502 23.0629C11.3439 25.0316 14.0627 26.1566 14.0627 26.1566C15.0939 27.1879 16.5939 26.8129 18.0002 26.0629C21.3752 25.1254 26.4377 19.8754 26.3439 19.4066Z" fill="#7C563C"/>
<path d="M26.8127 18.5629C26.7189 18.0942 25.9689 17.0629 24.9377 18.1879C24.6564 18.4692 24.2814 18.8442 23.8127 19.1254C24.7502 17.8129 25.5939 16.5004 25.9689 15.7504C26.7189 14.1567 26.5314 12.4692 26.2502 12.2817C25.9689 12.0942 25.3127 12.7504 25.0314 13.0317C24.7502 13.2192 24.0939 14.4379 23.9064 14.7192C23.8127 15.0004 22.7814 16.6879 22.5939 17.0629C22.4064 17.4379 21.7502 18.0004 21.5627 18.0942C21.6564 18.0942 21.5627 17.9067 21.5627 17.8129C21.5627 17.6254 23.2502 14.7192 23.2502 14.7192C23.2502 14.7192 24.3752 12.7504 24.9377 11.0629C25.5002 9.46919 24.4689 9.18794 24.0002 9.18794C23.5314 9.18794 22.5939 11.1567 22.5002 11.4379C22.3127 11.7192 21.1877 14.2504 20.7189 15.0942C20.2502 15.9379 19.6877 16.3129 19.5939 16.4067C19.4064 16.5004 19.4064 16.4067 19.4064 16.4067L19.9689 15.2817C20.0627 15.0004 21.9377 11.2504 22.1252 10.5942C22.3127 9.93794 22.5939 8.90669 21.9377 8.53169C21.2814 8.15669 20.1564 10.1254 19.9689 10.4067C19.7814 10.7817 18.4689 13.1254 18.0939 13.6879C17.8127 14.2504 16.5939 16.2192 16.4064 16.4067C16.2189 16.5004 16.0314 16.5004 16.0314 16.2192C16.0314 16.0317 16.1252 15.5629 16.4064 13.8754C16.6877 12.1879 15.9377 11.4379 15.3752 11.4379C14.8127 11.4379 14.5314 12.9379 14.3439 13.8754C14.1564 14.7192 12.5627 17.8129 12.1877 18.7504C11.8127 19.6879 11.9064 20.1567 11.9064 22.1254C12.0002 24.0942 14.7189 25.1254 14.7189 25.1254C15.7502 26.0629 17.2502 25.7817 18.5627 25.0317C21.9377 24.1879 26.9064 19.0317 26.8127 18.5629Z" fill="#7C563C" stroke="#7C563C" stroke-width="0.067838" stroke-miterlimit="10"/>
<path d="M15 11.9062C15 11.9062 17.3438 12.1875 16.875 15.5625L16.125 17.25H15.4688L15 11.9062Z" fill="#A3704D"/>
<path d="M25.6877 19.2195C25.5939 18.7507 24.9377 17.8132 24.0002 18.8445C23.7189 19.1257 23.3439 19.407 22.9689 19.6882C23.8127 18.4695 24.6564 17.2507 24.9377 16.5007C25.5939 15.0007 25.5002 13.407 25.2189 13.2195C25.0314 13.1257 24.3752 13.8757 24.1877 14.0632C23.9064 14.2507 23.2502 15.3757 23.1564 15.657C23.0627 15.9382 22.1252 17.532 21.9377 17.907C21.7502 18.282 21.1877 18.7507 21.0002 18.8445C20.8127 18.9382 20.7189 18.7507 20.7189 18.5632C20.7189 18.3757 22.3127 15.657 22.3127 15.657C22.3127 15.657 23.3439 13.782 23.9064 12.1882C24.3752 10.6882 23.5314 10.5007 22.9689 10.5007C22.5002 10.5007 21.6564 12.3757 21.5627 12.657C21.4689 12.9382 20.3439 15.282 19.8752 16.032C19.5002 16.782 18.9377 17.157 18.7502 17.2507C18.6564 17.3445 18.5627 17.2507 18.5627 17.2507L19.1252 16.1257C19.2189 15.8445 21.0002 12.3757 21.1877 11.7195C21.3752 11.157 21.6564 10.1257 21.0002 9.75071C20.3439 9.46946 19.4064 11.2507 19.2189 11.532C19.0314 11.8132 17.8127 14.0632 17.5314 14.6257C17.2502 15.1882 16.1252 17.0632 16.0314 17.157C15.8439 17.2507 15.7502 17.2507 15.7502 17.0632C15.7502 16.8757 15.8439 16.407 16.1252 14.907C16.4064 13.3132 15.6564 12.5632 15.1877 12.657C14.7189 12.7507 14.4377 14.0632 14.2502 14.907C14.0627 15.7507 12.6564 18.5632 12.2814 19.5007C11.9064 20.3445 12.0002 20.8132 12.0002 22.6882C12.0939 24.5632 14.6252 25.5007 14.6252 25.5007C15.5627 26.4382 16.9689 26.0632 18.1877 25.407C21.0939 24.5632 25.7814 19.6882 25.6877 19.2195Z" fill="#A3704D"/>
<path d="M24.8441 19.969C24.8441 19.594 24.1879 18.6565 23.2504 19.594C22.9691 19.8752 22.6879 20.1565 22.3129 20.4377L24.2816 17.5315C24.9379 16.1252 24.8441 14.6252 24.6566 14.4377C24.3754 14.2502 23.8129 14.9065 23.6254 15.094C23.3441 15.2815 22.7816 16.3127 22.5941 16.594C22.5004 16.8752 21.5629 18.2815 21.4691 18.6565C21.2816 19.0315 20.7191 19.5002 20.6254 19.5002C20.5316 19.594 20.3441 19.4065 20.4379 19.219C20.4379 19.0315 22.0316 16.5002 22.0316 16.5002C22.0316 16.5002 23.0629 14.719 23.6254 13.3127C24.0941 11.8127 23.2504 11.6252 22.8754 11.6252C22.4066 11.6252 21.6566 13.4065 21.4691 13.6877C21.3754 13.969 20.2504 16.219 19.8754 16.8752C19.5004 17.6252 18.9379 17.9065 18.8441 18.0002C18.7504 18.094 18.6566 18.0002 18.6566 18.0002L19.1254 16.969L21.0941 12.844C21.2816 12.2815 21.5629 11.2502 21.0004 10.969C20.4379 10.6877 19.4066 12.3752 19.2191 12.6565C19.0316 12.9377 17.8129 15.094 17.5316 15.6565L16.0316 18.0002C15.8441 18.094 15.7504 18.094 15.7504 17.9065C15.7504 17.719 15.8441 17.344 16.1254 15.844C16.4066 14.344 15.7504 13.594 15.2816 13.6877C14.8129 13.6877 14.5316 15.094 14.3441 15.844C14.1566 16.594 12.7504 19.3127 12.4691 20.1565C12.0941 21.0002 12.1879 21.3752 12.2816 23.0627C12.3754 24.7502 14.7191 25.594 14.7191 25.594C15.6566 26.4377 16.8754 26.1565 18.0004 25.5002C20.5316 24.7502 24.8441 20.344 24.8441 19.969Z" fill="#A3704D"/>
<path opacity="0.34" d="M20.9066 21.9375C20.9066 21.9375 19.0316 20.25 16.8753 20.25C14.7191 20.25 14.1566 21.375 14.8128 22.125C15.3753 22.875 16.5941 23.1563 17.4378 22.6875C18.2816 22.2188 18.6566 22.0312 19.5003 22.4062C20.3441 22.7812 21.0941 22.5 20.9066 21.9375Z" fill="#A3704D"/>
<path d="M24.5625 18.1875L24 18.9375L22.2188 21.1875C22.2188 21.1875 21.9375 21.1875 21.9375 21C21.8438 20.8125 24.6562 17.4375 24.6562 17.4375L24.5625 18.375M22.7812 15.8437L22.3125 16.5938L20.9062 19.0312C20.9062 19.0312 20.625 19.125 20.5312 18.9375C20.5312 18.75 22.875 15 22.875 15L22.9688 15.9375" fill="#A3704D"/>
<path d="M20.9062 14.1563L20.4374 14.9062L19.0312 17.3438C19.0312 17.3438 18.7499 17.4375 18.6562 17.25C18.5624 17.0625 20.8124 13.3125 20.8124 13.3125L20.9062 14.25" fill="#A3704D"/>
<path d="M14.0625 24.0938C14.0625 24.0938 15.0937 25.5 17.25 25.0312C19.4062 24.5625 24.9375 20.1562 24.9375 20.1562C24.9375 20.1562 21.8438 24.1875 18.2812 25.5C14.7187 26.8125 13.875 25.3125 13.875 25.3125L14.0625 24.0938ZM15.1875 10.875C15.1875 10.875 17.5313 11.1562 17.0625 14.5312L16.3125 16.2187H15.6563L15.1875 10.875Z" fill="#A3704D"/>
<path d="M26.5314 18.2816C26.4377 17.8129 25.6877 16.7816 24.6564 17.9066C24.3752 18.2816 24.0002 18.5629 23.5314 18.8441L25.7814 15.3754C26.5314 13.6879 26.3439 12.0004 26.0627 11.8129C25.7814 11.6254 25.1252 12.3754 24.8439 12.5629C24.5627 12.7504 23.8127 13.9691 23.7189 14.3441C23.6252 14.6254 22.5939 16.4066 22.4064 16.7816C22.2189 17.1566 21.5627 17.7191 21.3752 17.8129C21.1877 17.9066 21.0939 17.7191 21.0939 17.5316C21.0939 17.3441 22.8752 14.3441 22.8752 14.3441C22.8752 14.3441 24.0002 12.2816 24.5627 10.5941C25.1252 8.90663 24.0939 8.71913 23.6252 8.71913C23.0627 8.71913 22.2189 10.7816 22.0314 11.0629C21.8439 11.3441 20.6252 13.9691 20.2502 14.8129C19.7814 15.6566 19.2189 16.1254 19.0314 16.2191C18.8439 16.3129 18.8439 16.2191 18.8439 16.2191L19.4064 15.0004C19.5002 14.7191 21.3752 10.8754 21.6564 10.2191C21.8439 9.56288 22.1252 8.43788 21.4689 8.06288C20.8127 7.68788 19.6877 9.65663 19.5002 10.0316L17.6252 13.4066L15.9377 16.2191C15.7502 16.3129 15.5627 16.3129 15.5627 16.0316C15.5627 15.8441 15.6564 15.3754 15.9377 13.5941C16.2189 11.9066 15.4689 11.0629 14.9064 11.0629C14.3439 11.0629 14.0627 12.6566 13.8752 13.5004C13.6877 14.4379 12.0939 17.5316 11.7189 18.4691C11.3439 19.4066 11.4377 19.8754 11.4377 21.9379C11.5314 23.9066 14.2502 25.0316 14.2502 25.0316C15.2814 26.0629 16.7814 25.6879 18.1877 24.9379C21.5627 24.0941 26.6252 18.7504 26.5314 18.2816Z" fill="#A3704D" stroke="#A3704D" stroke-width="0.0693201" stroke-miterlimit="10"/>
<path d="M25.8752 18.1882C25.7814 17.7195 25.1252 16.782 24.1877 17.8132C23.9064 18.0945 23.5314 18.3757 23.1564 18.657C24.0002 17.4382 24.8439 16.2195 25.1252 15.4695C25.7814 13.9695 25.6877 12.3757 25.4064 12.1882C25.1252 12.0007 24.5627 12.657 24.2814 12.8445C24.0002 13.032 23.3439 14.157 23.2502 14.4382C23.1564 14.7195 22.2189 16.3132 22.0314 16.6882C21.8439 17.0632 21.2814 17.532 21.0939 17.6257C20.9064 17.7195 20.8127 17.532 20.8127 17.3445C20.8127 17.157 22.4064 14.4382 22.4064 14.4382C22.4064 14.4382 23.4377 12.5632 24.0002 10.9695C24.4689 9.46946 23.6252 9.28196 23.0627 9.28196C22.5939 9.28196 21.7502 11.157 21.6564 11.4382C21.5627 11.7195 20.4377 14.0632 19.9689 14.8132C19.5939 15.5632 19.0314 15.9382 18.8439 16.032C18.7502 16.1257 18.6564 16.032 18.6564 16.032L19.2189 14.907C19.3127 14.6257 21.0939 11.157 21.2814 10.5007C21.4689 9.93821 21.7502 8.90696 21.0939 8.53196C20.4377 8.25071 19.5002 10.032 19.3127 10.3132C19.1252 10.5945 17.9064 12.8445 17.6252 13.407C17.3439 13.9695 16.2189 15.8445 16.1252 15.9382C15.9377 16.032 15.8439 16.032 15.8439 15.8445C15.8439 15.657 15.9377 15.1882 16.2189 13.6882C16.5002 12.0945 15.7502 11.3445 15.2814 11.4382C14.8127 11.4382 14.5314 12.8445 14.3439 13.6882C14.1564 14.532 12.7502 17.3445 12.3752 18.282C12.0002 19.1257 12.0939 19.5945 12.0939 21.4695C12.1877 23.3445 14.7189 24.282 14.7189 24.282C15.6564 25.2195 17.0627 24.8445 18.2814 24.1882C21.3752 23.4382 25.9689 18.5632 25.8752 18.1882Z" fill="#F7BB8A"/>
<path opacity="0.34" d="M21.0936 20.8125C21.0936 20.8125 19.2186 19.125 17.0623 19.125C14.9061 19.125 14.3436 20.25 14.9998 21C15.5623 21.75 16.7811 22.0313 17.6248 21.5625C18.4686 21.0938 18.8436 20.9063 19.6873 21.2813C20.4373 21.75 21.3748 21.4688 21.0936 20.8125Z" fill="#E5895B"/>
<path d="M24.7499 17.0625L24.1873 17.8125L22.4999 19.9688C22.4999 19.9688 22.2186 19.9688 22.2186 19.7813C22.1249 19.5938 24.9374 16.2188 24.9374 16.2188L24.8436 17.1562" fill="#A3704D"/>
<path d="M23.0624 14.7188L22.5937 15.4687L21.1874 17.9063C21.1874 17.9063 20.9062 18 20.8124 17.8125C20.7187 17.625 22.9687 13.875 22.9687 13.875L23.0624 14.8125" fill="#A3704D"/>
<path d="M21.0936 13.0312L20.6248 13.7812L19.2186 16.2187C19.2186 16.2187 18.9373 16.3125 18.8436 16.125C18.7498 16.0313 21.0936 12.1875 21.0936 12.1875L21.1873 13.125" fill="#A3704D"/>
<path d="M14.3438 23.0625C14.3438 23.0625 15.375 24.4688 17.5313 24C18.5625 23.8125 20.3438 22.5938 22.0312 21.4688L25.3125 19.0312C25.3125 19.0312 22.2188 23.0625 18.6562 24.375C15.0937 25.6875 14.0625 24.2813 14.0625 24.2813L14.3438 23.0625Z" fill="#E8AB82"/>
<path d="M13.0315 9.84413C12.7502 10.2191 11.1565 12.6566 10.7815 13.2191L9.65645 14.9066L9.9377 13.9691C10.4065 12.2816 9.65645 11.4379 9.0002 11.5316H8.90645C8.71895 11.1566 8.90645 11.5316 8.6252 11.5316C8.0627 11.6254 7.03145 12.6566 6.7502 13.5004C6.46895 14.4379 4.78145 18.2816 4.21895 19.3129C3.7502 20.0629 3.7502 20.4379 3.7502 21.7504C3.65645 22.4066 3.3752 22.4066 3.65645 23.1566C3.65645 25.2191 6.65645 26.2504 6.65645 26.2504C7.78145 27.2816 9.46895 26.9066 10.969 26.1566C14.6252 25.3129 20.5315 19.9691 20.5315 19.5004V19.3129C20.8127 19.0316 21.0002 18.7504 21.0002 18.7504C21.0002 18.3754 20.6252 17.8129 19.969 17.8129C19.8752 17.6254 19.6877 17.4379 19.4065 17.3441L19.969 16.5004C19.969 16.5004 19.969 16.4066 20.0627 16.4066C20.2502 16.1254 20.344 15.9379 20.4377 15.7504C21.3752 14.0629 21.2815 12.3754 21.0002 12.1879C20.9065 12.0941 20.6252 12.1879 20.344 12.3754H20.2502C20.2502 12.0941 20.1565 11.8129 20.0627 11.7191C19.7815 11.5316 19.0315 12.2816 18.6565 12.4691C18.9377 12.0004 19.219 11.4379 19.4065 10.8754C20.0627 9.37538 19.219 9.00038 18.6565 9.00038C18.469 8.62538 17.9065 8.53163 17.6252 8.53163C17.344 8.53163 16.8752 9.09413 16.5002 9.65663C16.6877 9.09413 16.6877 8.53163 16.1252 8.34413C15.9377 8.25038 15.844 8.34413 15.6565 8.34413C15.5627 8.15663 15.469 7.96913 15.2815 7.87538C14.5315 7.50038 13.3127 9.46913 13.0315 9.84413Z" fill="#7C563C" stroke="#7C563C" stroke-width="0.073547" stroke-miterlimit="10"/>
<path d="M8.71875 11.2506C9.28125 11.2506 10.7812 12.3756 10.3125 14.2506L9.75 16.8756C9.75 17.1569 9.9375 17.1569 10.125 17.0631C10.3125 16.9694 11.7187 14.6256 12.0937 14.0631L14.25 10.3131C14.4375 9.93814 15.75 7.78189 16.5 8.15689C17.25 8.53189 16.875 9.75064 16.5938 10.5006C16.3125 11.2506 14.0625 15.4694 13.9688 15.7506C13.7812 16.0319 13.3125 17.0631 13.3125 17.0631C13.3125 17.0631 13.4062 17.2506 13.5 17.0631C13.6875 16.9694 14.3438 16.5006 14.8125 15.5631C15.375 14.6256 16.7813 11.8131 16.9688 11.4381C17.1563 11.1569 18.1875 8.90689 18.75 8.90689C19.3125 8.90689 20.3438 9.18814 19.6875 10.9694C19.0312 12.8444 17.625 15.0944 17.625 15.0944L15.5625 18.5631C15.5625 18.7506 15.6562 18.9381 15.8438 18.8444C16.0312 18.7506 16.7813 18.1881 16.9688 17.7194C17.1563 17.2506 18.375 15.3756 18.4688 15.0006C18.6563 14.6256 19.4063 13.3131 19.7813 13.0319C20.0625 12.8444 20.8125 12.0006 21.0938 12.2819C21.375 12.5631 21.5625 14.3444 20.625 16.2194C20.1562 17.0631 19.125 18.5631 18.0937 19.9694C18.5625 19.5944 19.0313 19.3131 19.3125 18.9381C20.4375 17.7194 21.2812 18.8444 21.375 19.4069C21.375 19.8756 15.6562 25.6881 12.0937 26.6256C10.5937 27.4694 9 27.8444 7.875 26.7194C7.875 26.7194 4.875 25.5006 4.96875 23.2506C4.96875 21.0006 4.875 20.5319 5.4375 19.4069C6 18.2819 7.78125 14.9069 8.0625 13.9694C8.34375 13.2194 8.15625 11.2506 8.71875 11.2506Z" fill="#7C563C"/>
<path d="M7.96842 13.6883C8.43717 13.6883 9.18717 14.4383 8.90592 16.0321L8.53092 18.1883C8.53092 18.3758 8.71842 18.4696 8.81217 18.3758C8.90592 18.2821 10.1247 16.4071 10.4059 15.9383L12.1872 12.9383C12.3747 12.6571 13.4059 10.8758 14.0622 11.2508C14.7184 11.6258 14.4372 12.5633 14.2497 13.2196C14.0622 13.7821 12.2809 17.2508 12.1872 17.5321L11.6247 18.5633C11.6247 18.5633 11.7184 18.6571 11.8122 18.5633C11.9059 18.4696 12.4684 18.0946 12.9372 17.3446C13.4059 16.5946 14.5309 14.2508 14.6247 14.0633C14.8122 13.7821 15.5622 12.0008 16.0309 12.0008C16.4997 12.0008 17.4372 12.2821 16.9684 13.7821C16.4997 15.2821 15.3747 17.1571 15.3747 17.1571L13.6872 19.9696C13.6872 20.1571 13.7809 20.2508 13.9684 20.2508C14.1559 20.1571 14.7184 19.7821 14.9059 19.4071C15.0934 19.0321 16.0309 17.5321 16.1247 17.2508C16.2184 16.9696 16.8747 15.8446 17.1559 15.6571C17.4372 15.4696 17.9997 14.8133 18.2809 15.0946C18.5622 15.2821 18.7497 16.8758 17.9997 18.3758C17.6247 19.0321 16.7809 20.2508 15.9372 21.4696L16.9684 20.6258C17.9059 19.6883 18.6559 20.6258 18.6559 21.0946C18.7497 21.4696 13.9684 26.1571 10.9684 26.8133C9.74967 27.4696 8.34342 27.6571 7.31217 26.7196C7.21842 26.3446 4.68717 25.3133 4.68717 23.4383C4.68717 21.5633 4.59342 21.1883 4.96842 20.3446C5.34342 19.5008 6.84342 16.6883 7.03092 15.8446C7.12467 15.0008 7.40592 13.6883 7.96842 13.6883Z" fill="#A3704D"/>
<path d="M14.0624 25.0313C14.0624 25.0313 9.46863 27.0938 8.06238 26.0625C6.65613 25.0312 4.31238 23.25 5.34363 19.125C5.34363 19.125 2.06238 23.3438 6.09363 26.5312C10.1249 29.7188 14.0624 25.0313 14.0624 25.0313Z" fill="#A3704D"/>
<path opacity="0.34" d="M13.9687 22.7822C13.9687 22.7822 12.1874 20.626 9.84365 20.3447C7.4999 20.0635 6.7499 21.1885 7.3124 22.126C7.8749 23.0635 9.09365 23.4385 10.1249 23.1572C11.1562 22.876 11.6249 22.5947 12.3749 23.1572C13.1249 23.626 14.1562 23.4385 13.9687 22.7822Z" fill="#A3704D"/>
<path d="M15.0937 22.0312C16.5937 20.7188 18.4687 18.2812 18.4687 18.2812L18.0936 18.8438L18.4687 18.75L18.1874 19.6875L15.4687 22.5938C15.2812 22.875 14.8124 22.9687 14.4374 22.875C14.1562 22.875 15.0937 22.0312 15.0937 22.0312Z" fill="#A3704D"/>
<path d="M14.9062 24.5629C14.9062 24.5629 16.2188 23.1566 16.5938 22.4066C16.875 21.6566 17.5313 20.2504 17.9063 19.9691C18.2813 19.7816 19.125 20.3441 19.125 20.6254C18.9375 21.0004 15.8438 23.8129 14.9062 24.5629Z" fill="#A3704D"/>
<path d="M8.53109 11.4381C9.18734 11.4381 10.0311 12.2819 9.56234 14.2506L8.99984 16.8756C8.99984 17.1569 9.18734 17.1569 9.37484 17.0631C9.56234 16.9694 10.9686 14.6256 11.3436 14.0631L13.4998 10.3131C13.6873 9.93814 14.9998 7.78189 15.7498 8.15689C16.4998 8.53189 16.2186 9.75064 15.9373 10.5006C15.6561 11.2506 13.4998 15.4694 13.3123 15.7506C13.1248 16.0319 12.6561 17.0631 12.6561 17.0631C12.6561 17.0631 12.7498 17.2506 12.8436 17.0631C13.0311 16.9694 13.6873 16.5006 14.2498 15.5631C14.8123 14.6256 16.2186 11.8131 16.4061 11.4381C16.5936 11.1569 17.6248 8.90689 18.1873 8.90689C18.7498 8.90689 19.8748 9.18814 19.2186 11.0631C18.5623 12.9381 17.2498 15.1881 17.2498 15.1881L15.1873 18.6569C15.1873 18.8444 15.2811 19.0319 15.4686 19.0319C15.6561 18.9381 16.4061 18.3756 16.5936 17.9069C16.7811 17.4381 17.9061 15.5631 18.0936 15.1881C18.2811 14.8131 19.0311 13.5006 19.4061 13.2194C19.6873 13.0319 20.4373 12.1881 20.8123 12.4694C21.0936 12.7506 21.2811 14.6256 20.4373 16.4069C19.9686 17.2506 18.9373 18.7506 17.9061 20.1569C18.3748 19.7819 18.8436 19.5006 19.1248 19.1256C20.2498 17.9069 21.0936 19.1256 21.1873 19.5944C21.2811 20.0631 15.4686 25.8756 11.7186 26.7194C10.2186 27.4694 8.53109 27.8444 7.40609 26.7194C7.40609 26.7194 4.31234 25.4069 4.31234 23.1569C4.31234 20.9069 4.21859 20.3444 4.68734 19.3131C5.15609 18.2819 7.03109 14.8131 7.31234 13.7819C7.49984 13.2194 7.87484 11.5319 8.53109 11.4381Z" fill="#7C563C"/>
<path d="M8.25 12.1881C8.8125 12.1881 9.84375 11.8131 9.375 13.6881L8.8125 16.3131C8.8125 16.5944 9 16.5944 9.1875 16.5006C9.375 16.4069 10.7812 14.0631 11.1562 13.5006L13.3125 9.75064C13.5 9.37564 14.8125 7.21939 15.5625 7.59439C16.3125 7.96939 15.9375 9.18814 15.6563 9.93814C15.375 10.6881 13.125 14.9069 13.0312 15.1881C12.8438 15.4694 12.375 16.5006 12.375 16.5006C12.375 16.5006 12.4688 16.6881 12.5625 16.5006C12.75 16.4069 13.4062 15.9381 13.875 15.0006C14.4375 14.0631 15.8438 11.2506 16.0313 10.8756C16.2188 10.5944 17.25 8.34439 17.8125 8.34439C18.375 8.34439 19.4062 8.62564 18.75 10.4069C18.0938 12.2819 16.6875 14.5319 16.6875 14.5319L14.625 18.0006C14.625 18.1881 14.7188 18.3756 14.9062 18.2819C15.0938 18.1881 15.8438 17.6256 16.0313 17.1569C16.2188 16.6881 17.4375 14.8131 17.5313 14.4381C17.7188 14.0631 18.4688 12.7506 18.8438 12.4694C19.125 12.2819 19.875 11.4381 20.1562 11.7194C20.4375 12.0006 20.625 13.7819 19.6875 15.6569C19.2187 16.5006 18.1875 18.0006 17.1562 19.4069C17.625 19.0319 18.0938 18.7506 18.375 18.3756C19.5 17.1569 20.3437 18.2819 20.4375 18.8444C20.4375 19.3131 14.7187 25.1256 11.1562 26.0631C9.65625 26.9069 8.0625 27.2819 6.9375 26.1569C6.9375 26.1569 3.9375 24.9381 4.03125 22.6881C4.03125 20.4381 3.9375 19.9694 4.5 18.8444C5.0625 17.7194 6.84375 14.3444 7.125 13.4069C7.5 12.6569 7.6875 12.2819 8.25 12.1881Z" fill="#A3704D" stroke="#A3704D" stroke-width="0.0722644" stroke-miterlimit="10"/>
<path d="M8.24984 11.9066C8.81234 11.9066 9.56234 12.7504 9.18734 14.5316L8.71859 16.9691C8.71859 17.1566 8.90609 17.2504 9.09359 17.1566C9.28109 17.0629 10.4998 14.9066 10.8748 14.3441C11.2498 13.7816 12.6561 11.2504 12.8436 10.8754C13.0311 10.5004 14.2498 8.53163 14.9061 8.90663C15.6561 9.28163 15.2811 10.4066 15.0936 11.0629C14.8123 11.7191 12.8436 15.6566 12.6561 15.9379C12.5623 16.2191 11.9998 17.1566 11.9998 17.1566C11.9998 17.1566 12.0936 17.3441 12.1873 17.1566C12.3748 17.0629 12.9373 16.5941 13.4061 15.7504L15.3748 12.0004C15.5623 11.7191 16.4998 9.65663 17.0623 9.65663C17.6248 9.65663 18.6561 9.93788 17.9998 11.6254C17.4373 13.3129 16.1248 15.4691 16.1248 15.4691L14.2498 18.6566C14.2498 18.8441 14.3436 19.0316 14.5311 18.9379C14.7186 18.8441 15.3748 18.3754 15.5623 17.9066C15.7498 17.4379 16.7811 15.7504 16.9686 15.4691C17.0623 15.0941 17.9061 13.8754 18.1873 13.6879C18.4686 13.5004 19.1248 12.7504 19.4998 12.9379C19.7811 13.2191 19.9686 14.9066 19.1248 16.5941C18.7498 17.3441 17.7186 18.7504 16.7811 20.0629C17.2498 19.7816 17.6248 19.4066 17.9061 19.1254C18.9373 18.0004 19.7811 19.1254 19.7811 19.5941C19.8748 20.0629 14.5311 25.4066 11.0623 26.1566C9.65609 26.9066 8.15609 27.1879 7.03109 26.1566C7.03109 26.1566 4.21859 24.9379 4.21859 22.8754C4.21859 20.8129 4.12484 20.3441 4.59359 19.3129C5.06234 18.3754 6.74984 15.1879 6.93734 14.2504C7.31234 13.5004 7.68734 11.9066 8.24984 11.9066Z" fill="#E8AB82"/>
<path d="M8.53141 12.5633C9.00016 12.5633 9.75016 13.3133 9.46891 14.9071L9.09391 17.0633C9.09391 17.2508 9.28141 17.3446 9.37516 17.2508C9.46891 17.1571 10.6877 15.2821 10.9689 14.8133L12.7502 11.8133C12.9377 11.5321 13.9689 9.75085 14.6252 10.1258C15.2814 10.5008 15.0002 11.4383 14.8127 12.0946C14.6252 12.6571 12.8439 16.1258 12.7502 16.4071L12.1877 17.4383C12.1877 17.4383 12.2814 17.5321 12.3752 17.4383C12.4689 17.3446 13.0314 16.9696 13.5002 16.2196C13.9689 15.4696 15.0939 13.1258 15.1877 12.9383C15.3752 12.6571 16.1252 10.8758 16.5939 10.8758C17.0627 10.8758 18.0002 11.1571 17.5314 12.6571C17.0627 14.1571 15.9377 16.0321 15.9377 16.0321L14.2502 18.8446C14.2502 19.0321 14.3439 19.1258 14.5314 19.1258C14.7189 19.0321 15.2814 18.6571 15.4689 18.2821C15.6564 17.9071 16.5939 16.4071 16.6877 16.1258C16.7814 15.8446 17.4377 14.7196 17.7189 14.5321C18.0002 14.3446 18.5627 13.6883 18.8439 13.9696C19.1252 14.1571 19.3127 15.7508 18.5627 17.2508C18.1877 17.9071 17.3439 19.1258 16.5002 20.3446L17.5314 19.5008C18.4689 18.5633 19.2189 19.5008 19.2189 19.9696C19.3127 20.3446 14.5314 25.0321 11.5314 25.6883C10.3127 26.3446 8.90641 26.5321 7.87516 25.5946C7.87516 25.5946 5.34391 24.4696 5.25016 22.6883C5.25016 20.8133 5.15641 20.4383 5.53141 19.5946C5.90641 18.7508 7.40641 15.9383 7.59391 15.0946C7.68766 13.8758 7.96891 12.5633 8.53141 12.5633Z" fill="#FCD6BE"/>
<path d="M14.6249 23.9063C14.6249 23.9063 10.0311 25.9688 8.62488 24.9375C7.21863 23.9062 4.87488 22.125 5.90613 18C5.90613 18 2.62488 22.2188 6.65613 25.4062C10.6874 28.5938 14.6249 23.9063 14.6249 23.9063Z" fill="#E8AB82"/>
<path d="M15.6562 20.9062C17.1562 19.5938 19.0312 17.1562 19.0312 17.1562L18.6561 17.7188L19.0312 17.625L18.7499 18.5625L16.0312 21.4688C15.8437 21.75 15.3749 21.8437 14.9999 21.75C14.7187 21.75 15.6562 20.9062 15.6562 20.9062Z" fill="#A3704D"/>
<path d="M15.4688 23.4379C15.4688 23.4379 16.7813 22.0316 17.1563 21.2816C17.4375 20.5316 18.0938 19.1254 18.4688 18.8441C18.8438 18.6566 19.6875 19.2191 19.6875 19.5004C19.5 19.8754 16.4062 22.6879 15.4688 23.4379Z" fill="#E8AB82"/>
<path d="M12.8438 11.2508C12.8438 11.2508 14.25 8.34458 14.5313 8.25083C14.8125 8.15708 15.4687 8.06333 15.75 8.25083C15.9375 8.43833 16.125 8.71958 16.0313 9.28208C15.9375 9.84458 14.0625 13.0321 14.0625 13.0321L12.8438 11.2508ZM16.6875 20.7196L19.0312 18.0008C19.2187 18.0008 19.9688 17.8133 20.25 18.0008C20.5313 18.1883 20.7188 18.4696 20.625 19.0321C20.5312 19.5946 17.5313 22.2196 17.5313 22.2196L16.6875 20.7196Z" fill="#FCD6BE"/>
<path d="M14.8125 10.8743L13.7812 9.9368C13.7812 9.9368 14.5313 8.34305 15 8.2493C15.4688 8.0618 15.8437 8.2493 15.8437 8.53055C15.8437 8.90555 15.4688 9.9368 14.8125 10.8743Z" fill="#E85B73"/>
<path d="M17.25 14.6258L18.8437 12.5633C19.0312 12.4696 19.7812 12.3758 20.0625 12.5633C20.3437 12.7508 20.5312 13.0321 20.4375 13.5946C20.3437 14.1571 18.1875 17.1571 18.1875 17.1571L17.25 14.6258ZM15.6562 11.5321L17.25 9.46958C17.5312 9.37583 18.1875 9.28208 18.4687 9.46958C18.75 9.65708 18.9375 9.93833 18.8437 10.5008C18.75 11.0633 16.5937 14.0633 16.5937 14.0633L15.6562 11.5321Z" fill="#FCD6BE"/>
<path d="M17.3438 12.2806L16.3125 11.3431C16.3125 11.3431 17.0625 9.7493 17.5313 9.65555C18 9.46805 18.375 9.65555 18.375 9.9368C18.375 10.2181 17.9063 11.3431 17.3438 12.2806ZM19.3125 15.1868L18.2813 14.2493C18.2813 14.2493 19.0312 12.6556 19.5 12.5618C19.9687 12.3743 20.3438 12.5618 20.3438 12.8431C20.25 13.2181 19.875 14.2493 19.3125 15.1868ZM18.8438 20.0618L18.4688 19.1243C18.4688 19.1243 19.5 17.7181 19.9687 17.7181C20.4375 17.7181 20.8125 17.9993 20.625 18.2806C20.5313 18.6556 19.7813 19.4993 18.8438 20.0618Z" fill="#E85B73"/>
<path d="M15.9375 27.0937L15.5625 27.5625L17.3437 28.7812L27.0937 19.0312L25.4062 17.0625L15.9375 27.0937Z" fill="#9A4C18"/>
<path d="M27.2814 21.8441C27.0002 25.6879 23.4377 28.9691 19.4064 28.8754C15.4689 28.8754 12.9377 25.5941 13.6877 21.8441C14.4377 18.2816 17.7189 15.5629 21.2814 15.5629C24.8439 15.4691 27.5627 18.1879 27.2814 21.8441Z" fill="#9A4C18"/>
<path d="M28.2189 22.9687C27.9377 26.625 24.4689 29.7188 20.5314 29.7188C16.6877 29.7188 14.2502 26.625 15.0002 22.9687C15.6564 19.5937 18.9377 16.9688 22.4064 16.9688C25.8752 16.9688 28.5002 19.5937 28.2189 22.9687Z" fill="#9A4C18"/>
<path d="M17.0625 27.2813L18.6562 28.2188L26.625 19.875L25.3125 18.0938L17.0625 27.2813Z" fill="#F49937"/>
<path d="M27.4688 23.0625C27.1876 26.1562 24.2813 28.875 21.0001 28.7813C17.8126 28.7813 15.7501 26.1562 16.3126 23.0625C16.8751 20.1563 19.5938 17.9062 22.5938 17.8125C25.5938 17.8125 27.7501 20.0625 27.4688 23.0625Z" fill="#F49937"/>
<path d="M26.4377 21.7508C26.1564 25.1258 23.0627 27.9383 19.5939 27.9383C16.1252 27.9383 13.9689 25.1258 14.6252 21.8445C15.1877 18.7508 18.1877 16.3133 21.2814 16.3133C24.3752 16.2195 26.7189 18.5633 26.4377 21.7508Z" fill="#FFEDC0"/>
<path d="M25.9688 22.0313C25.6876 25.125 22.7813 27.8438 19.5001 27.75C16.3126 27.75 14.2501 25.125 14.8126 22.0313C15.3751 19.125 18.0938 16.875 21.0938 16.7812C24.0938 16.7812 26.2501 19.0313 25.9688 22.0313Z" fill="#FFD766"/>
<path d="M24.7502 22.0312C24.469 24.4687 22.219 26.4375 19.7815 26.4375C17.344 26.4375 15.6565 24.375 16.1252 22.0312C16.5002 19.7812 18.6565 17.9062 21.0002 17.9062C23.2502 17.9062 24.9377 19.6875 24.7502 22.0312Z" fill="#FFEDC0"/>
<path d="M24.7499 21.3746C24.4686 23.7184 22.3124 25.7809 19.7811 25.7809C17.3436 25.7809 15.7499 23.8121 16.1249 21.4684C16.4999 19.2184 18.6561 17.4371 20.9999 17.4371C23.3436 17.3434 25.0311 19.1246 24.7499 21.3746Z" fill="#F49937"/>
<path d="M24 22.0315C23.8125 24.094 21.8438 25.7815 19.7813 25.7815C17.7188 25.7815 16.3125 24.094 16.6875 22.1253C17.0625 20.1565 18.8438 18.6565 20.8125 18.6565C22.7813 18.5628 24.2813 20.0628 24 22.0315Z" fill="#FFD766"/>
<path d="M21.4688 18.1875L22.0313 20.3438L24.375 21L22.2188 22.5L22.0313 25.0313L20.0625 23.5313L17.4375 24.4688L18.5625 22.0313L17.25 20.1563H19.7813L21.4688 18.1875Z" fill="#F49937"/>
</g>
<defs>
<clipPath id="clip0_47_23733">
<rect width="30" height="30" fill="white"/>
</clipPath>
</defs>
</svg>
