<svg width="79" height="17" viewBox="0 0 79 17" fill="none" xmlns="http://www.w3.org/2000/svg">
<g clip-path="url(#clip0_47_13023)">
<path d="M71.5689 12.8299C71.5689 14.5476 70.1143 16.2875 67.4874 16.2875C64.8265 16.2875 63.3852 14.9364 63.0304 12.8432L65.1798 12.3376C65.3602 13.5513 66.3432 14.2224 67.5628 14.2224C68.6242 14.2224 69.2332 13.6547 69.2332 12.9688C69.2332 12.4145 68.7483 11.9562 67.9723 11.804L66.3994 11.492C64.6048 11.1387 63.4429 9.98865 63.4429 8.29752C63.4429 6.31517 65.2375 4.83248 67.3721 4.83248C69.9369 4.83248 71.1919 6.36395 71.3856 7.789L69.2997 8.40543C69.1194 7.53917 68.4956 6.89317 67.3514 6.89317C66.4082 6.89317 65.7253 7.48448 65.7253 8.12013C65.7253 8.65378 66.0653 9.11796 66.8754 9.27169L68.4216 9.55552C70.4809 9.93839 71.5689 11.257 71.5689 12.8299ZM61.9143 10.5223C61.9143 11.2818 61.7643 12.0338 61.4728 12.7351C61.1813 13.4364 60.7542 14.0732 60.2158 14.6089C59.6775 15.1446 59.0386 15.5687 58.3359 15.8568C57.6332 16.1448 56.8805 16.2912 56.121 16.2875C52.9191 16.2875 50.3676 13.7863 50.3676 10.577C50.3703 9.81815 50.5228 9.0673 50.8164 8.36751C51.1099 7.66772 51.5387 7.03277 52.0782 6.49907C52.6176 5.96537 53.2572 5.54342 53.9601 5.25743C54.663 4.97144 55.4154 4.82702 56.1743 4.83248C59.3703 4.83248 61.9143 7.32778 61.9143 10.5223ZM59.5654 10.5563C59.5654 9.64908 59.205 8.77901 58.5635 8.13751C57.922 7.496 57.0519 7.13561 56.1447 7.13561C55.2375 7.13561 54.3674 7.496 53.7259 8.13751C53.0844 8.77901 52.724 9.64908 52.724 10.5563C52.724 12.478 54.2289 14.0627 56.1491 14.0627C58.0694 14.0627 59.5654 12.4692 59.5654 10.5563ZM49.1348 13.0516C49.1348 15.3119 47.1391 16.122 45.1775 16.122H40.5047V5.00395H45.1139C46.9011 5.00395 48.6617 5.95596 48.6617 7.94422C48.6617 9.05143 48.0704 9.82309 47.1022 10.3213V10.3479C48.4149 10.8416 49.1348 11.5822 49.1348 13.0516ZM42.7383 9.51709H44.6438C45.4613 9.51709 46.4177 9.30274 46.4177 8.30343C46.4177 7.38248 45.5781 7.12082 44.802 7.12082H42.7383V9.51709ZM46.8893 12.753C46.8893 11.7286 45.9255 11.5127 45.0725 11.5127H42.7383V13.9873H45.1494C45.9743 13.9873 46.8893 13.7479 46.8893 12.753ZM38.5933 10.5223C38.5933 11.2819 38.4432 12.034 38.1516 12.7354C37.8601 13.4368 37.4327 14.0737 36.8943 14.6094C36.3558 15.1452 35.7167 15.5692 35.0138 15.8572C34.311 16.1452 33.5581 16.2914 32.7985 16.2875C29.5966 16.2875 27.0466 13.7863 27.0466 10.577C27.0493 9.81865 27.2016 9.06828 27.4948 8.36888C27.7879 7.66949 28.2162 7.0348 28.755 6.50117C29.2939 5.96755 29.9327 5.54548 30.6349 5.25914C31.3371 4.97279 32.089 4.82781 32.8473 4.83248C36.0492 4.83248 38.5933 7.32778 38.5933 10.5223ZM36.2429 10.5563C36.2523 10.1012 36.1709 9.6488 36.0032 9.22558C35.8356 8.80237 35.5852 8.41687 35.2667 8.09167C34.9482 7.76647 34.568 7.50811 34.1484 7.33173C33.7287 7.15535 33.2781 7.0645 32.8229 7.0645C32.3677 7.0645 31.9171 7.15535 31.4974 7.33173C31.0778 7.50811 30.6976 7.76647 30.3791 8.09167C30.0606 8.41687 29.8102 8.80237 29.6426 9.22558C29.4749 9.6488 29.3935 10.1012 29.4029 10.5563C29.4029 12.478 30.9063 14.0627 32.8251 14.0627C34.7439 14.0627 36.2429 12.4692 36.2429 10.5563ZM22.9385 7.02769V14.116C22.9415 15.5218 21.9436 17 20.1047 17H7.62225C5.86016 17 4.90964 15.5218 4.90964 14.116V11.5527C4.90643 11.4514 4.86528 11.3551 4.79436 11.2828C4.72343 11.2105 4.62792 11.1675 4.52677 11.1624C3.1593 10.8873 1.94241 10.1148 1.11142 8.99452C0.280419 7.8742 -0.105658 6.48554 0.0278386 5.09707C0.161335 3.70859 0.804922 2.41894 1.83415 1.47746C2.86338 0.535994 4.20514 0.00959113 5.59999 4.25431e-05C6.43789 -0.0032421 7.2656 0.183712 8.02074 0.546815C8.77588 0.909917 9.43875 1.43969 9.95938 2.09622C10.1589 2.349 10.255 2.32978 10.4531 2.2263L12.5951 1.00378C13.1569 0.678564 14.0438 0.319347 15.1658 0.983086L17.2191 2.16569L21.849 4.86648C22.9415 5.511 22.9415 6.35656 22.9415 7.02769H22.9385ZM22.2556 7.02769C22.2556 6.35361 22.2304 5.88943 21.5016 5.45926C20.594 4.92413 15.1555 1.77396 14.8169 1.57439C14.0882 1.14569 13.5235 1.25804 12.9307 1.59952C12.8021 1.67491 11.8959 2.19082 10.7724 2.83091C10.3585 3.05709 9.87216 3.08961 9.42277 2.52491C8.96514 1.95036 8.38366 1.48657 7.72174 1.16815C7.05981 0.849731 6.33452 0.684899 5.59999 0.685956C4.37549 0.694759 3.19772 1.1572 2.29435 1.98388C1.39098 2.81056 0.82615 3.94279 0.709038 5.16171C0.591926 6.38063 0.930848 7.59969 1.66029 8.58325C2.38974 9.56682 3.45791 10.245 4.65834 10.4868C4.91764 10.5191 5.15606 10.6454 5.3283 10.8419C5.50054 11.0384 5.59459 11.2914 5.5926 11.5527V14.116C5.5926 15.0266 6.16321 16.3127 7.62225 16.3127H20.1047C21.4928 16.3127 22.2659 15.2291 22.2659 14.116L22.2556 7.02769ZM18.9502 7.53917C14.5996 7.84813 14.4873 7.83482 10.1516 7.53917C9.53364 7.47856 9.92982 8.63456 10.2536 8.69074C12.1975 9.07952 12.6883 9.16526 12.6883 9.70483C12.6276 10.6007 12.6069 11.4167 11.3889 14.9453C11.0932 15.6046 12.3453 15.405 12.4946 15.068C13.2751 13.5587 13.7674 12.3627 14.2818 11.7759C14.3154 11.7373 14.3569 11.7064 14.4034 11.6852C14.4499 11.664 14.5005 11.6531 14.5516 11.6531C14.6027 11.6531 14.6533 11.664 14.6998 11.6852C14.7463 11.7064 14.7878 11.7373 14.8214 11.7759C15.3358 12.3672 15.8281 13.5587 16.6086 15.068C16.7564 15.405 18.0026 15.6046 17.7143 14.9453C16.4977 11.4167 16.4756 10.6007 16.4149 9.70483C16.4149 9.16969 16.9057 9.07952 18.8482 8.69221C19.1734 8.63604 19.5681 7.48004 18.9502 7.53917ZM14.5464 7.02178C14.798 7.02354 15.0444 6.95052 15.2545 6.812C15.4645 6.67348 15.6286 6.47569 15.726 6.24373C15.8235 6.01178 15.8498 5.75611 15.8017 5.50916C15.7536 5.26222 15.6332 5.03513 15.4558 4.85671C15.2784 4.67829 15.0521 4.55659 14.8054 4.50703C14.5587 4.45748 14.3029 4.48232 14.0704 4.57839C13.8379 4.67446 13.6391 4.83744 13.4994 5.04664C13.3596 5.25584 13.2852 5.50185 13.2855 5.75343C13.2847 6.08878 13.417 6.41073 13.6535 6.64855C13.8899 6.88636 14.2111 7.02061 14.5464 7.02178ZM5.59999 2.41552C4.96269 2.41172 4.33861 2.59722 3.80686 2.94851C3.27511 3.29981 2.85964 3.80108 2.61312 4.38878C2.36659 4.97648 2.30011 5.62414 2.42211 6.24967C2.5441 6.87519 2.84908 7.45041 3.29837 7.9024C3.74767 8.3544 4.32105 8.66281 4.94583 8.78855C5.57062 8.91429 6.21867 8.85169 6.80783 8.60869C7.397 8.36569 7.90075 7.95323 8.25522 7.4236C8.6097 6.89396 8.79893 6.271 8.79895 5.63369C8.80031 5.21231 8.71863 4.79479 8.55859 4.40498C8.39854 4.01517 8.16326 3.66072 7.86619 3.36186C7.56912 3.06301 7.21608 2.82561 6.82724 2.66323C6.4384 2.50086 6.02137 2.41668 5.59999 2.41552Z" fill="white"/>
</g>
<defs>
<clipPath id="clip0_47_13023">
<rect width="71.6957" height="17" fill="white"/>
</clipPath>
</defs>
</svg>
