<svg width="42" height="28" viewBox="0 0 42 28" fill="none" xmlns="http://www.w3.org/2000/svg">
<path d="M32 24V27M10 24V27M21 18V2M33 13V18H9V13C9 12.4696 8.78929 11.9609 8.41421 11.5858C8.03914 11.2107 7.53043 11 7 11H5C4.46957 11 3.96086 11.2107 3.58579 11.5858C3.21071 11.9609 3 12.4696 3 13V18C3 19.5913 3.63214 21.1174 4.75736 22.2426C5.88258 23.3679 7.4087 24 9 24H33C34.5913 24 36.1174 23.3679 37.2426 22.2426C38.3679 21.1174 39 19.5913 39 18V13C39 12.4696 38.7893 11.9609 38.4142 11.5858C38.0391 11.2107 37.5304 11 37 11H35C34.4696 11 33.9609 11.2107 33.5858 11.5858C33.2107 11.9609 33 12.4696 33 13Z" stroke="#06BEFB" stroke-width="2" stroke-linecap="round" stroke-linejoin="round"/>
<path d="M6 11V9C6 7.14348 6.7375 5.36301 8.05025 4.05025C9.36301 2.7375 11.1435 2 13 2H29C30.8565 2 32.637 2.7375 33.9497 4.05025C35.2625 5.36301 36 7.14348 36 9V11" stroke="#06BEFB" stroke-width="2" stroke-linecap="round" stroke-linejoin="round"/>
</svg>
