<svg width="26" height="26" viewBox="0 0 26 26" fill="none" xmlns="http://www.w3.org/2000/svg">
<path fill-rule="evenodd" clip-rule="evenodd" d="M11.2257 3.44271C10.1973 3.44298 9.42868 3.94131 9.42868 4.38656C9.42868 4.83208 10.1973 5.33015 11.2257 5.33042C12.254 5.33042 13.0224 4.83208 13.0224 4.38656C13.0224 3.94104 12.254 3.44271 11.2257 3.44271ZM11.6232 7.18969C7.68587 7.18996 7.14312 7.80069 7.14312 8.46044C7.14312 9.48419 8.65031 10.0034 11.6232 10.0036C13.7661 10.0036 15.2771 9.914 16.3785 9.72171C17.7048 9.48988 18.1771 9.14375 18.1771 8.89675C18.1771 8.20044 15.624 7.18969 11.6232 7.18969ZM16.4893 11.7828C12.4945 11.7828 8.96258 12.5376 7.9001 13.6179C7.70185 13.8194 7.60733 14.0155 7.61058 14.217C7.63875 15.8734 14.3002 15.8734 16.4893 15.8734C21.0103 15.8731 22.6147 14.6742 22.6147 13.6474C22.6147 12.4452 20.4394 11.783 16.4893 11.7828ZM10.5597 17.6501C5.93331 17.6504 3.38558 18.4469 3.38558 19.8931C3.38558 21.8577 7.2501 22.5546 10.5597 22.5546C17.6276 22.5546 20.9204 21.3665 20.9204 20.5632C20.9204 19.4392 16.1789 17.6501 10.5597 17.6501ZM10.5597 23.6379C5.38893 23.6379 2.30225 22.238 2.30225 19.8931C2.30225 16.9072 7.31131 16.6017 9.81327 16.5705C7.86083 16.212 6.54918 15.5292 6.52725 14.2357C6.51885 13.7355 6.72089 13.2723 7.12741 12.8588C7.98785 11.9837 9.71902 11.4185 11.6576 11.087H11.6232C10.2471 11.087 6.05979 11.0864 6.05979 8.46044C6.05979 6.78127 7.77633 6.2916 9.79891 6.15592C8.92439 5.81142 8.34535 5.15519 8.34535 4.38656C8.34535 3.25015 9.61041 2.35965 11.2257 2.35938C12.8406 2.35938 14.1057 3.24987 14.1057 4.38656C14.1057 5.14056 13.5491 5.78596 12.7031 6.13533C15.4293 6.27644 19.2605 6.96381 19.2605 8.89675C19.2605 9.83275 18.451 10.3855 17.0399 10.7016C19.1871 10.7224 23.6981 10.9597 23.6981 13.6474C23.6981 14.6425 22.9955 16.9565 16.4893 16.9567C16.0113 16.9567 15.5346 16.9551 15.0628 16.9494C18.6915 17.5472 22.0037 18.8176 22.0037 20.5632C22.0037 21.6958 20.7322 22.5007 18.1157 23.0245C16.1386 23.4202 13.4549 23.6379 10.5597 23.6379Z" fill="white"/>
</svg>
