<svg width="120" height="120" viewBox="0 0 120 120" fill="none" xmlns="http://www.w3.org/2000/svg">
<path d="M119 74.429C119 99.2141 102.145 118.999 81.7022 118.999C61.259 118.999 44.4043 99.2141 44.4043 74.429C44.4043 49.6439 61.259 29.8594 81.7022 29.8594C102.145 29.8594 119 49.6439 119 74.429Z" stroke="#9F9F9F" stroke-width="2"/>
<path d="M36.6295 10.633C36.6295 11.5491 36.6295 12.47 36.6295 13.3862C36.6295 15.5792 36.6295 17.7723 36.6295 19.9605C36.6295 22.6046 36.6295 25.2485 36.6295 27.8925C36.6295 30.171 36.6295 32.4495 36.6295 34.7232C36.6295 35.796 36.6335 36.8688 36.6295 37.9415C36.6295 38.0413 36.6255 38.1362 36.6135 38.2358C36.6335 38.0697 36.6534 37.8989 36.6694 37.7327C36.6495 37.9036 36.6135 38.065 36.5617 38.2264C36.6135 38.0745 36.6694 37.9226 36.7213 37.7707C36.6574 37.9463 36.5816 38.1077 36.4859 38.2548C36.5697 38.1267 36.6534 37.9985 36.7372 37.8704C36.6495 37.9985 36.5537 38.1172 36.442 38.2216C36.5497 38.1219 36.6574 38.0223 36.7651 37.9226C36.6375 38.0365 36.5018 38.1314 36.3582 38.2027C36.4859 38.1409 36.6135 38.0745 36.7412 38.0128C36.6055 38.0745 36.4699 38.1172 36.3263 38.1409C36.4659 38.1172 36.6096 38.0934 36.7492 38.0745C36.4101 38.1219 36.055 38.0934 35.7119 38.0934C34.938 38.0934 34.1601 38.0934 33.3862 38.0934C32.2292 38.0934 31.0723 38.0934 29.9154 38.0934C28.4992 38.0934 27.083 38.0934 25.6667 38.0934C24.1149 38.0934 22.559 38.0934 21.0071 38.0934C19.4394 38.0934 17.8715 38.0934 16.2997 38.0934C14.8396 38.0934 13.3755 38.0934 11.9154 38.0934C10.6827 38.0934 9.45395 38.0934 8.22127 38.0934C7.33959 38.0934 6.46193 38.0934 5.58028 38.0934C5.17337 38.0934 4.77044 38.0934 4.36353 38.0934C4.27576 38.0934 4.188 38.0887 4.10023 38.0745C4.23986 38.0982 4.38348 38.1219 4.5231 38.1409C4.37949 38.1172 4.24385 38.0745 4.10821 38.0128C4.23587 38.0745 4.36353 38.1409 4.49119 38.2027C4.34358 38.1267 4.20794 38.0365 4.08427 37.9226C4.19199 38.0223 4.2997 38.1219 4.40741 38.2216C4.2997 38.1172 4.19997 38.0033 4.1122 37.8704C4.19598 37.9985 4.27975 38.1267 4.36353 38.2548C4.26778 38.1029 4.188 37.9415 4.12816 37.7707C4.18002 37.9226 4.23587 38.0745 4.28773 38.2264C4.23587 38.065 4.19997 37.9036 4.18002 37.7327C4.19997 37.8989 4.21991 38.0697 4.23587 38.2358C4.20794 37.9226 4.21991 37.6046 4.21991 37.2913C4.21991 36.6314 4.21991 35.9716 4.21991 35.3118C4.21991 33.1283 4.21991 30.9447 4.21991 28.7612C4.21991 26.1124 4.21991 23.459 4.21991 20.8103C4.21991 18.5128 4.21991 16.2153 4.21991 13.9178C4.21991 12.8355 4.21592 11.7533 4.21991 10.6662C4.21991 10.5666 4.2239 10.4716 4.23587 10.3719C4.21592 10.5381 4.19598 10.709 4.18002 10.8751C4.19997 10.7042 4.23587 10.5428 4.28773 10.3814C4.23587 10.5333 4.18002 10.6852 4.12816 10.8371C4.19199 10.6615 4.26778 10.5001 4.36353 10.3529C4.27975 10.4811 4.19598 10.6093 4.1122 10.7374C4.19997 10.6093 4.29571 10.4906 4.40741 10.3862C4.2997 10.4859 4.19199 10.5855 4.08427 10.6852C4.21193 10.5713 4.34757 10.4764 4.49119 10.4052C4.36353 10.4669 4.23587 10.5333 4.10821 10.595C4.24385 10.5333 4.37949 10.4906 4.5231 10.4669C4.38348 10.4906 4.23986 10.5143 4.10023 10.5333C4.43933 10.4859 4.79438 10.5143 5.13747 10.5143C5.9114 10.5143 6.68933 10.5143 7.46329 10.5143C8.6202 10.5143 9.77712 10.5143 10.934 10.5143C12.3502 10.5143 13.7665 10.5143 15.1827 10.5143C16.7346 10.5143 18.2904 10.5143 19.8422 10.5143C21.4101 10.5143 22.9779 10.5143 24.5497 10.5143C26.0098 10.5143 27.4739 10.5143 28.934 10.5143C30.1667 10.5143 31.3954 10.5143 32.6282 10.5143C33.5098 10.5143 34.3875 10.5143 35.2691 10.5143C35.6761 10.5143 36.0789 10.5143 36.4859 10.5143C36.5736 10.5143 36.6614 10.5191 36.7492 10.5333C36.6096 10.5096 36.4659 10.4859 36.3263 10.4669C36.4699 10.4906 36.6055 10.5333 36.7412 10.595C36.6135 10.5333 36.4859 10.4669 36.3582 10.4052C36.5058 10.4811 36.6415 10.5713 36.7651 10.6852C36.6574 10.5855 36.5497 10.4859 36.442 10.3862C36.5497 10.4906 36.6495 10.6045 36.7372 10.7374C36.6534 10.6093 36.5697 10.4811 36.4859 10.3529C36.5816 10.5048 36.6614 10.6662 36.7213 10.8371C36.6694 10.6852 36.6135 10.5333 36.5617 10.3814C36.6135 10.5428 36.6495 10.7042 36.6694 10.8751C36.6495 10.709 36.6295 10.5381 36.6135 10.3719C36.6255 10.4574 36.6295 10.5428 36.6295 10.633C36.6375 11.1267 36.8011 11.6251 37.0963 11.9764C37.3715 12.3039 37.8263 12.5555 38.2252 12.5317C39.0789 12.4843 39.8369 11.6963 39.821 10.633C39.809 9.60769 39.4819 8.65358 38.8915 7.90358C38.305 7.16307 37.5032 6.79757 36.6654 6.71687C36.5657 6.70738 36.4619 6.71212 36.3582 6.71212C35.9154 6.71212 35.4726 6.71212 35.0337 6.71212C34.2199 6.71212 33.4021 6.71212 32.5883 6.71212C31.4912 6.71212 30.3901 6.71212 29.2931 6.71212C28.0085 6.71212 26.7199 6.71212 25.4353 6.71212C24.0391 6.71212 22.6388 6.71212 21.2425 6.71212C19.8263 6.71212 18.4141 6.71212 16.9979 6.71212C15.6614 6.71212 14.325 6.71212 12.9885 6.71212C11.8037 6.71212 10.6229 6.71212 9.43799 6.71212C8.5085 6.71212 7.57499 6.71212 6.64544 6.71212C6.04704 6.71212 5.44864 6.71212 4.85023 6.71212C4.70661 6.71212 4.563 6.71212 4.41539 6.71212C3.85289 6.71212 3.33826 6.86402 2.82762 7.14409C2.21725 7.47636 1.65076 8.15991 1.3755 8.88617C1.15608 9.46529 1.02842 10.0017 1.02443 10.6472C1.02443 10.7897 1.02443 10.9321 1.02443 11.0792C1.02443 11.8719 1.02443 12.6694 1.02443 13.4621C1.02443 14.758 1.02443 16.0539 1.02443 17.3546C1.02443 18.94 1.02443 20.5254 1.02443 22.1109C1.02443 23.7913 1.02443 25.4764 1.02443 27.1567C1.02443 28.7232 1.02443 30.2849 1.02443 31.8514C1.02443 33.0856 1.02443 34.3245 1.02443 35.5586C1.02443 36.2707 1.02443 36.9827 1.02443 37.6995C1.02443 37.8371 1.02045 37.9748 1.02842 38.1124C1.08428 39.114 1.39545 40.0634 2.00981 40.7707C2.62417 41.478 3.438 41.8767 4.29172 41.8957C4.53507 41.9004 4.77443 41.8957 5.01778 41.8957C5.66406 41.8957 6.31034 41.8957 6.9606 41.8957C7.93403 41.8957 8.90744 41.8957 9.88084 41.8957C11.0856 41.8957 12.2904 41.8957 13.4952 41.8957C14.8516 41.8957 16.2119 41.8957 17.5683 41.8957C18.9805 41.8957 20.3888 41.8957 21.8011 41.8957C23.1894 41.8957 24.5777 41.8957 25.9699 41.8957C27.2425 41.8957 28.5112 41.8957 29.7837 41.8957C30.8449 41.8957 31.9061 41.8957 32.9672 41.8957C33.7372 41.8957 34.5112 41.8957 35.2811 41.8957C35.6681 41.8957 36.055 41.8957 36.446 41.8957C37.0364 41.8957 37.5949 41.7343 38.1175 41.4115C39.1827 40.7565 39.813 39.3514 39.825 37.9558C39.8289 37.4764 39.825 37.0017 39.825 36.5223C39.825 35.44 39.825 34.3624 39.825 33.2802C39.825 31.8134 39.825 30.3419 39.825 28.8751C39.825 27.209 39.825 25.5476 39.825 23.8814C39.825 22.2343 39.825 20.5871 39.825 18.94C39.825 17.5207 39.825 16.1061 39.825 14.6868C39.825 13.6947 39.825 12.6979 39.825 11.7058C39.825 11.3498 39.825 10.9938 39.825 10.633C39.825 9.64092 39.0909 8.68681 38.2292 8.73427C37.3635 8.78174 36.6295 9.56972 36.6295 10.633Z" fill="#393D46"/>
<path d="M36.6304 15.7993C36.6304 17.7028 36.6304 19.6062 36.6304 21.5097C36.6304 21.7755 36.6304 22.0413 36.6304 22.3072C37.161 21.6759 37.6956 21.0398 38.2262 20.4085C37.907 20.4085 37.5879 20.4085 37.2687 20.4085C36.4071 20.4085 35.5453 20.4085 34.6796 20.4085C33.403 20.4085 32.1305 20.4085 30.8539 20.4085C29.294 20.4085 27.7302 20.4085 26.1703 20.4085C24.4669 20.4085 22.7635 20.4085 21.06 20.4085C19.3326 20.4085 17.6052 20.4085 15.8818 20.4085C14.278 20.4085 12.6743 20.4085 11.0706 20.4085C9.71026 20.4085 8.34986 20.4085 6.98949 20.4085C6.01608 20.4085 5.04268 20.4085 4.06528 20.4085C3.60252 20.4085 3.13975 20.399 2.68098 20.4085C2.66103 20.4085 2.64108 20.4085 2.62114 20.4085C3.15172 21.0398 3.68629 21.6759 4.21688 22.3072C4.21688 20.4037 4.21688 18.5002 4.21688 16.5968C4.21688 16.3309 4.21688 16.0651 4.21688 15.7993C3.68629 16.4306 3.15172 17.0667 2.62114 17.698C2.94028 17.698 3.25943 17.698 3.57858 17.698C4.44028 17.698 5.30199 17.698 6.16768 17.698C7.4443 17.698 8.71688 17.698 9.99348 17.698C11.5533 17.698 13.1171 17.698 14.677 17.698C16.3804 17.698 18.0839 17.698 19.7873 17.698C21.5148 17.698 23.2421 17.698 24.9655 17.698C26.5692 17.698 28.173 17.698 29.7768 17.698C31.1371 17.698 32.4975 17.698 33.8578 17.698C34.8312 17.698 35.8046 17.698 36.782 17.698C37.2448 17.698 37.7076 17.7028 38.1663 17.698C38.1863 17.698 38.2062 17.698 38.2262 17.698C39.06 17.698 39.8619 16.8246 39.8219 15.7993C39.7821 14.7692 39.1198 13.9005 38.2262 13.9005C37.907 13.9005 37.5879 13.9005 37.2687 13.9005C36.4071 13.9005 35.5453 13.9005 34.6796 13.9005C33.403 13.9005 32.1305 13.9005 30.8539 13.9005C29.294 13.9005 27.7302 13.9005 26.1703 13.9005C24.4669 13.9005 22.7635 13.9005 21.06 13.9005C19.3326 13.9005 17.6052 13.9005 15.8818 13.9005C14.278 13.9005 12.6743 13.9005 11.0706 13.9005C9.71026 13.9005 8.34986 13.9005 6.98949 13.9005C6.01608 13.9005 5.04268 13.9005 4.06528 13.9005C3.60252 13.9005 3.13975 13.8958 2.68098 13.9005C2.66103 13.9005 2.64108 13.9005 2.62114 13.9005C1.75943 13.9005 1.02539 14.7692 1.02539 15.7993C1.02539 17.7028 1.02539 19.6062 1.02539 21.5097C1.02539 21.7755 1.02539 22.0413 1.02539 22.3072C1.02539 23.3325 1.75544 24.2059 2.62114 24.2059C2.94028 24.2059 3.25943 24.2059 3.57858 24.2059C4.44028 24.2059 5.30199 24.2059 6.16768 24.2059C7.4443 24.2059 8.71688 24.2059 9.99348 24.2059C11.5533 24.2059 13.1171 24.2059 14.677 24.2059C16.3804 24.2059 18.0839 24.2059 19.7873 24.2059C21.5148 24.2059 23.2421 24.2059 24.9655 24.2059C26.5692 24.2059 28.173 24.2059 29.7768 24.2059C31.1371 24.2059 32.4975 24.2059 33.8578 24.2059C34.8312 24.2059 35.8046 24.2059 36.782 24.2059C37.2448 24.2059 37.7076 24.2107 38.1663 24.2059C38.1863 24.2059 38.2062 24.2059 38.2262 24.2059C39.0879 24.2059 39.8219 23.3373 39.8219 22.3072C39.8219 20.4037 39.8219 18.5002 39.8219 16.5968C39.8219 16.3309 39.8219 16.0651 39.8219 15.7993C39.8219 14.8072 39.0879 13.8531 38.2262 13.9005C37.3645 13.9433 36.6304 14.7312 36.6304 15.7993ZM8.40175 32.8784C9.51475 32.8784 10.6278 32.8784 11.7408 32.8784C13.5081 32.8784 15.2754 32.8784 17.0427 32.8784C17.4496 32.8784 17.8565 32.8784 18.2594 32.8784C19.0932 32.8784 19.8951 32.005 19.8552 30.9797C19.8153 29.9496 19.153 29.0809 18.2594 29.0809C17.1464 29.0809 16.0334 29.0809 14.9203 29.0809C13.153 29.0809 11.3858 29.0809 9.61847 29.0809C9.21156 29.0809 8.80465 29.0809 8.40175 29.0809C7.56794 29.0809 6.76608 29.9544 6.80598 30.9797C6.84188 32.0097 7.50411 32.8784 8.40175 32.8784Z" fill="#393D46"/>
</svg>
