<svg width="36" height="36" viewBox="0 0 36 36" fill="none" xmlns="http://www.w3.org/2000/svg">
<path d="M27.2113 13.2819C27.2253 13.4839 27.2253 13.6859 27.2253 13.8899C27.2253 20.0999 22.4983 27.2599 13.8553 27.2599V27.2569C11.3019 27.2603 8.80139 26.5289 6.65234 25.1499C7.88277 25.2981 9.13034 25.2024 10.3237 24.8681C11.5171 24.5339 12.6329 23.9677 13.6073 23.2019C12.6265 23.1835 11.676 22.859 10.8886 22.2738C10.1013 21.6885 9.51662 20.8718 9.21634 19.9379C9.92049 20.0738 10.6464 20.0464 11.3383 19.8579C10.2748 19.643 9.31836 19.0668 8.63122 18.2271C7.94407 17.3874 7.56855 16.3359 7.56834 15.2509V15.1909C8.2218 15.5555 8.95339 15.7575 9.70134 15.7799C8.70644 15.1155 8.00215 14.0969 7.73184 12.9315C7.46152 11.766 7.64551 10.5414 8.24634 9.50688C9.42625 10.9585 10.8982 12.1458 12.5667 12.9917C14.2353 13.8376 16.063 14.3232 17.9313 14.4169C17.697 13.4094 17.8014 12.3527 18.2283 11.4105C18.6552 10.4683 19.3808 9.6931 20.2928 9.20498C21.2048 8.71686 22.2523 8.54304 23.2731 8.71043C24.2939 8.87781 25.231 9.37707 25.9393 10.1309C26.9917 9.92326 28.0009 9.53738 28.9233 8.98989C28.5728 10.0784 27.8385 11.0024 26.8573 11.5899C27.789 11.4796 28.6987 11.2301 29.5563 10.8499C28.9255 11.7932 28.1318 12.6168 27.2123 13.2819H27.2113Z" fill="white"/>
</svg>
