<svg width="24" height="20" viewBox="0 0 24 20" fill="none" xmlns="http://www.w3.org/2000/svg">
<path d="M21.5576 4.83757C22.497 4.13307 23.3424 3.28767 23.9999 2.30137C23.1545 2.6771 22.1682 2.9589 21.1819 3.05284C22.2152 2.44227 22.9666 1.50294 23.3424 0.328767C22.403 0.892368 21.3228 1.31507 20.2426 1.5499C19.3032 0.563601 18.0351 0 16.6261 0C13.9021 0 11.6946 2.20744 11.6946 4.93151C11.6946 5.30724 11.7416 5.68297 11.8355 6.05871C7.74941 5.82387 4.08601 3.85127 1.64374 0.892368C1.22104 1.59687 0.986204 2.44227 0.986204 3.3816C0.986204 5.07241 1.83161 6.57534 3.19364 7.46771C2.39521 7.42074 1.59677 7.23288 0.939237 6.85714V6.90411C0.939237 9.29941 2.63004 11.272 4.88444 11.7417C4.50871 11.8356 4.03904 11.9295 3.61634 11.9295C3.28757 11.9295 3.00577 11.8826 2.67701 11.8356C3.28757 13.8082 5.11928 15.2172 7.27975 15.2642C5.58894 16.5793 3.47544 17.3777 1.17407 17.3777C0.75137 17.3777 0.375636 17.3307 -9.74651e-05 17.2838C2.16037 18.6928 4.74354 19.4912 7.56155 19.4912C16.6261 19.4912 21.5576 12.0235 21.5576 5.49511C21.5576 5.26027 21.5576 5.07241 21.5576 4.83757Z" fill="#1DA1F2"/>
</svg>
