<svg width="18" height="17" viewBox="0 0 18 17" fill="none" xmlns="http://www.w3.org/2000/svg">
<path d="M9.00001 7.53474C11.1142 7.53474 12.8281 6.07189 12.8281 4.26737C12.8281 2.46285 11.1142 1 9.00001 1C6.88579 1 5.17188 2.46285 5.17188 4.26737C5.17188 6.07189 6.88579 7.53474 9.00001 7.53474Z" stroke="#7D8DB5" stroke-width="2" stroke-linecap="round" stroke-linejoin="round"/>
<path d="M15.569 15.7305C16.566 15.7305 17.2703 14.8688 16.8998 14.0778C16.2696 12.7291 15.1799 11.5726 13.7717 10.758C12.3634 9.94329 10.7013 9.50781 9.00002 9.50781C7.29877 9.50781 5.63662 9.94329 4.22836 10.758C2.82011 11.5726 1.73047 12.7291 1.10027 14.0778C0.729784 14.8688 1.43349 15.7305 2.43106 15.7305H15.569Z" stroke="#7D8DB5" stroke-width="2" stroke-linecap="round" stroke-linejoin="round"/>
</svg>
