<svg width="24" height="24" viewBox="0 0 24 24" fill="none" xmlns="http://www.w3.org/2000/svg">
<path d="M12 16.5C14.4853 16.5 16.5 14.4853 16.5 12C16.5 9.51472 14.4853 7.5 12 7.5C9.51472 7.5 7.5 9.51472 7.5 12C7.5 14.4853 9.51472 16.5 12 16.5Z" stroke="white" stroke-opacity="0.5" stroke-width="2" stroke-linecap="round" stroke-linejoin="round"/>
<path d="M17.2191 6.1008C17.4593 6.31345 17.6863 6.5405 17.899 6.78068L20.4605 7.14645C20.8758 7.86977 21.1961 8.6437 21.4133 9.44903L19.8613 11.5183C19.8613 11.5183 19.8808 12.1595 19.8614 12.4796L21.414 14.5495C21.1962 15.3547 20.8755 16.1284 20.4596 16.8514L17.899 17.2172C17.899 17.2172 17.4594 17.6844 17.2192 17.897L16.8535 20.4585C16.1301 20.8739 15.3562 21.1942 14.5509 21.4114L12.4818 19.8594C12.1616 19.8789 11.8405 19.8789 11.5203 19.8594L9.45041 21.412C8.64522 21.1943 7.87152 20.8735 7.14847 20.4576L6.78278 17.8972C6.54259 17.6845 6.31554 17.4575 6.10288 17.2173L3.54141 16.8515C3.12603 16.1282 2.80576 15.3543 2.58856 14.5489L4.14055 12.4797C4.14055 12.4797 4.12102 11.8385 4.14048 11.5183L2.58789 9.44846C2.80563 8.64327 3.12642 7.86956 3.5423 7.14652L6.10275 6.78082C6.31541 6.54064 6.54245 6.31359 6.78263 6.10093L7.1484 3.53946C7.87173 3.12407 8.64565 2.80381 9.45098 2.58661L11.5201 4.13854C11.8403 4.11907 12.1614 4.11907 12.4816 4.13853L14.5515 2.58594C15.3567 2.80368 16.1304 3.12447 16.8534 3.54034L17.2191 6.1008Z" stroke="white" stroke-opacity="0.5" stroke-width="2" stroke-linecap="round" stroke-linejoin="round"/>
</svg>
