<svg width="13" height="13" viewBox="0 0 13 13" fill="none" xmlns="http://www.w3.org/2000/svg">
<path d="M12.855 1.56454C13.0486 1.75809 13.0486 2.08067 12.855 2.27422L8.98399 6.14524C8.79044 6.33879 8.79044 6.66138 8.98399 6.85493L12.855 10.7259C13.0486 10.9195 13.0486 11.2421 12.855 11.4356L11.4356 12.855C11.2421 13.0486 10.9195 13.0486 10.7259 12.855L6.85493 8.98399C6.66138 8.79044 6.33879 8.79044 6.14524 8.98399L2.27422 12.855C2.08067 13.0486 1.75809 13.0486 1.56454 12.855L0.145163 11.4356C-0.0483877 11.2421 -0.0483877 10.9195 0.145163 10.7259L4.01618 6.85493C4.20973 6.66138 4.20973 6.33879 4.01618 6.14524L0.145163 2.27422C-0.0483877 2.08067 -0.0483877 1.75809 0.145163 1.56454L1.56454 0.145163C1.75809 -0.0483877 2.08067 -0.0483877 2.27422 0.145163L6.14524 4.01618C6.33879 4.20973 6.66138 4.20973 6.85493 4.01618L10.7259 0.145163C10.9195 -0.0483877 11.2421 -0.0483877 11.4356 0.145163L12.855 1.56454Z" fill="black"/>
</svg>
