<svg width="40" height="40" viewBox="0 0 40 40" fill="none" xmlns="http://www.w3.org/2000/svg">
<rect width="40" height="40" rx="20" fill="white" fill-opacity="0.06"/>
<g clip-path="url(#clip0_47_88941)">
<path d="M17.225 22.125C17.9 22.125 18.45 22.675 18.45 23.35V28.625C18.45 29.3 17.9 29.85 17.225 29.85C16.55 29.85 16 29.3 16 28.625V23.35C16 22.675 16.55 22.125 17.225 22.125Z" fill="#A4C639"/>
<path d="M14.4004 15.7734C14.4004 15.8234 14.4004 15.8734 14.4004 15.9234V23.9234C14.4004 24.7734 15.0754 25.4734 15.9254 25.4734H24.0754C24.9254 25.4734 25.6004 24.7734 25.6004 23.9234V15.9234C25.6004 15.8734 25.6004 15.8234 25.6004 15.7734H14.4004Z" fill="#A4C639"/>
<path d="M22.775 22.125C23.45 22.125 24 22.675 24 23.35V28.625C24 29.3 23.45 29.85 22.775 29.85C22.1 29.85 21.55 29.3 21.55 28.625V23.35C21.55 22.675 22.1 22.125 22.775 22.125ZM12.425 16.475C13.1 16.475 13.65 17.025 13.65 17.7V23C13.65 23.675 13.1 24.225 12.425 24.225C11.75 24.225 11.2 23.675 11.2 23V17.7C11.175 17.025 11.75 16.475 12.425 16.475ZM27.575 16.475C28.25 16.475 28.8 17.025 28.8 17.7V23C28.8 23.675 28.25 24.225 27.575 24.225C26.9 24.225 26.35 23.675 26.35 23V17.7C26.35 17.025 26.9 16.475 27.575 16.475ZM14.45 15.225C14.475 12.775 16.625 10.75 19.375 10.5H20.625C23.375 10.775 25.525 12.775 25.575 15.25H14.45V15.225Z" fill="#A4C639"/>
<path d="M14.875 10.25L16.175 12.5L14.875 10.25ZM25.125 10.25L23.825 12.5L25.125 10.25Z" fill="#A4C639"/>
<path d="M16.175 12.6231C16.125 12.6231 16.075 12.5981 16.05 12.5481L14.75 10.2981C14.725 10.2481 14.75 10.1731 14.8 10.1481C14.85 10.1231 14.95 10.1231 14.975 10.1981L16.275 12.4481C16.3 12.4981 16.3 12.5981 16.225 12.6231C16.225 12.6231 16.2 12.6231 16.175 12.6231ZM23.825 12.6231C23.8 12.6231 23.775 12.6231 23.75 12.5981C23.7 12.5731 23.675 12.4731 23.7 12.4231L25 10.1731C25.025 10.1231 25.125 10.0981 25.175 10.1231C25.25 10.1731 25.275 10.2481 25.25 10.3231L23.95 12.5731C23.925 12.6231 23.875 12.6231 23.825 12.6231Z" fill="#A4C639"/>
<path d="M18.3492 13.0234C18.3492 13.3734 18.0742 13.6484 17.7242 13.6484C17.3742 13.6484 17.0742 13.3734 17.0742 13.0234C17.0742 12.6734 17.3492 12.3984 17.6992 12.3984C18.0492 12.3984 18.3492 12.6734 18.3492 13.0234ZM23.0992 13.0234C23.0992 13.3734 22.8242 13.6484 22.4742 13.6484C22.1242 13.6484 21.8242 13.3734 21.8242 13.0234C21.8242 12.6734 22.0992 12.3984 22.4492 12.3984C22.8242 12.3984 23.0992 12.6734 23.0992 13.0234Z" fill="white"/>
</g>
<defs>
<clipPath id="clip0_47_88941">
<rect width="20" height="20" fill="white" transform="translate(10 10)"/>
</clipPath>
</defs>
</svg>
