<svg width="24" height="24" viewBox="0 0 24 24" fill="none" xmlns="http://www.w3.org/2000/svg">
<path d="M19.645 5.416C20.5153 6.32435 21.0009 7.53399 21 8.792C21.002 10.144 20.454 11.465 19.457 12.514L12 20.361L10.866 19.168L4.54301 12.514C3.54601 11.465 2.99801 10.144 3.00001 8.792C2.99905 7.53397 3.48457 6.32429 4.35501 5.416C5.22801 4.503 6.38501 4 7.61601 4C8.85601 4 10.021 4.51 10.896 5.435L12 6.603L13.105 5.434C13.979 4.51 15.143 4 16.384 4C17.614 4 18.772 4.503 19.645 5.416Z" stroke="white" stroke-width="2"/>
</svg>
