<svg width="13" height="15" viewBox="0 0 13 15" fill="none" xmlns="http://www.w3.org/2000/svg">
<path d="M6.15243 1.39937C3.93189 1.39937 2.12727 3.20398 2.12727 5.42453V7.36331C2.12727 7.77254 1.95285 8.39644 1.74488 8.74528L0.973395 10.0266C0.497085 10.8182 0.825806 11.6971 1.69792 11.9922C4.58933 12.9583 7.70882 12.9583 10.6002 11.9922C11.412 11.7239 11.7675 10.7646 11.3248 10.0266L10.5533 8.74528C10.352 8.39644 10.1776 7.77254 10.1776 7.36331V5.42453C10.1776 3.21069 8.36627 1.39937 6.15243 1.39937Z" stroke="white" stroke-width="1.5" stroke-miterlimit="10" stroke-linecap="round"/>
<path d="M7.39374 1.6C7.18577 1.53962 6.9711 1.49266 6.74971 1.46583C6.10569 1.38532 5.4885 1.43229 4.91156 1.6C5.10611 1.10356 5.58913 0.754717 6.15265 0.754717C6.71617 0.754717 7.19919 1.10356 7.39374 1.6Z" stroke="white" stroke-width="1.5" stroke-miterlimit="10" stroke-linecap="round" stroke-linejoin="round"/>
<path d="M8.16627 12.2327C8.16627 13.3396 7.26061 14.2453 6.15369 14.2453C5.60359 14.2453 5.09374 14.0172 4.73147 13.6549C4.36921 13.2927 4.14112 12.7828 4.14112 12.2327" stroke="white" stroke-width="1.5" stroke-miterlimit="10"/>
</svg>
