<svg width="50" height="84" viewBox="0 0 50 84" fill="none" xmlns="http://www.w3.org/2000/svg">
<g clip-path="url(#clip0_47_80359)">
<path d="M14.6387 24.2148H24.9305C27.4339 24.2148 30.7357 24.2148 32.4407 25.2502C34.3105 26.3628 35.7785 28.3871 35.7785 31.1738C35.7785 34.1923 34.192 36.4588 31.565 37.5303V37.6126C35.0625 38.3286 36.9684 40.9505 36.9684 44.4481C36.9684 48.6204 33.986 52.597 28.3456 52.597H14.6387V24.2148ZM18.4092 36.4125H25.9658C30.2566 36.4125 32.0079 34.862 32.0079 31.8795C32.0079 27.9441 29.2264 27.3878 25.9658 27.3878H18.4092V36.4125ZM18.4092 49.4085H27.8717C31.1271 49.4085 33.1978 47.4202 33.1978 44.3244C33.1978 40.626 30.2154 39.5958 27.0372 39.5958H18.4092V49.4085Z" fill="#A1A1A3"/>
<path d="M46.6265 38.4095C46.6265 50.329 36.9632 59.9923 25.0385 59.9923C13.1191 59.9923 3.45574 50.329 3.45574 38.4095C3.45574 26.49 13.1191 16.8267 25.0385 16.8267C36.9632 16.8318 46.6265 26.49 46.6265 38.4095ZM25.0385 13.5352C11.3111 13.5352 0.179688 24.6666 0.179688 38.394C0.179688 52.1216 11.3111 63.2529 25.0385 63.2529C38.7712 63.2529 49.9026 52.1216 49.9026 38.394C49.9026 24.6666 38.7712 13.5352 25.0385 13.5352Z" fill="#A1A1A3"/>
<path d="M49.8513 68.5039H0.231445V71.7645H49.8513V68.5039Z" fill="#A1A1A3"/>
<path d="M48.301 64.9118C48.3629 64.9118 48.4195 64.9065 48.4762 64.9065C48.5277 64.9014 48.5792 64.8911 48.6205 64.8757C48.6668 64.855 48.6977 64.8242 48.7235 64.7881C48.7492 64.7469 48.7596 64.6954 48.7596 64.6285C48.7596 64.5717 48.7492 64.5202 48.7286 64.4894C48.708 64.4533 48.6771 64.4275 48.6411 64.4121C48.605 64.3915 48.569 64.3811 48.5174 64.3709C48.4711 64.3658 48.4299 64.3658 48.3784 64.3658H48.023V64.9169H48.301V64.9118ZM48.4195 64.1442C48.6256 64.1442 48.7749 64.1854 48.878 64.2679C48.9759 64.3503 49.0274 64.4739 49.0274 64.6438C49.0274 64.8036 48.981 64.9118 48.8986 64.989C48.8111 65.0611 48.7028 65.1023 48.569 65.1177L49.0634 65.8801H48.7749L48.301 65.1332H48.0178V65.8801H47.7448V64.1494H48.4195V64.1442ZM47.1988 65.5041C47.2554 65.6586 47.343 65.7977 47.4563 65.9111C47.5645 66.0243 47.6933 66.1119 47.8426 66.1789C47.9869 66.2407 48.1517 66.2716 48.3217 66.2716C48.4969 66.2716 48.6565 66.2407 48.8007 66.1789C48.9501 66.1119 49.0789 66.0243 49.1871 65.9111C49.2952 65.7977 49.3828 65.6638 49.4394 65.5041C49.5013 65.3496 49.5373 65.1847 49.5373 65.0044C49.5373 64.8242 49.5064 64.6593 49.4394 64.5048C49.3777 64.3503 49.2901 64.2163 49.1871 64.103C49.0738 63.9897 48.9449 63.9021 48.8007 63.8403C48.6565 63.7785 48.4916 63.7424 48.3217 63.7424C48.1517 63.7424 47.9869 63.7785 47.8426 63.8403C47.6933 63.9072 47.5593 63.9948 47.4563 64.103C47.343 64.2163 47.2606 64.3503 47.1988 64.5048C47.1369 64.6593 47.106 64.819 47.106 65.0044C47.106 65.1847 47.1369 65.3547 47.1988 65.5041ZM46.9567 64.4172C47.0339 64.2369 47.1421 64.0876 47.276 63.9536C47.41 63.8197 47.5697 63.7219 47.7499 63.6445C47.9302 63.5673 48.1259 63.5312 48.3217 63.5312C48.5277 63.5312 48.7183 63.5673 48.9038 63.6445C49.0789 63.7219 49.2386 63.8197 49.3673 63.9536C49.5013 64.0876 49.6146 64.2421 49.6867 64.4172C49.7691 64.5975 49.8052 64.7933 49.8052 65.0044C49.8052 65.2156 49.7691 65.4114 49.6867 65.5916C49.6094 65.7771 49.5013 65.9316 49.3673 66.0655C49.2335 66.2046 49.0789 66.3025 48.9038 66.3797C48.7183 66.4518 48.5277 66.488 48.3217 66.488C48.1208 66.488 47.9302 66.4518 47.7499 66.3797C47.5697 66.3025 47.41 66.2046 47.276 66.0655C47.1421 65.9316 47.0339 65.7771 46.9567 65.5916C46.8742 65.4114 46.8433 65.2156 46.8433 65.0044C46.8382 64.7984 46.8691 64.5975 46.9567 64.4172Z" fill="#A1A1A3"/>
<path d="M6.24284 2.60642C6.12436 2.41583 5.98013 2.251 5.805 2.11192C5.62986 1.9677 5.42897 1.85952 5.20748 1.77711C4.98598 1.69984 4.75419 1.65863 4.51209 1.65863C4.0691 1.65863 3.69307 1.7462 3.37886 1.91618C3.0698 2.08617 2.8174 2.31796 2.62681 2.60642C2.43622 2.89488 2.292 3.22454 2.20443 3.59542C2.11686 3.96114 2.0705 4.34232 2.0705 4.73895C2.0705 5.11498 2.11171 5.4807 2.20443 5.83612C2.292 6.19154 2.43107 6.5109 2.62681 6.79936C2.8174 7.08266 3.0698 7.31446 3.37886 7.48447C3.68792 7.65441 4.06395 7.74198 4.51209 7.74198C5.11476 7.74198 5.58865 7.55658 5.92347 7.19084C6.26344 6.81996 6.46948 6.33577 6.54675 5.7331H8.45781C8.4063 6.29456 8.27747 6.79936 8.06628 7.25265C7.85509 7.70592 7.58213 8.09225 7.23698 8.40647C6.89187 8.72582 6.49009 8.96793 6.03164 9.13794C5.5732 9.30274 5.06325 9.39031 4.51209 9.39031C3.827 9.39031 3.20888 9.27189 2.65772 9.02978C2.10656 8.79279 1.64812 8.46311 1.26694 8.04073C0.890914 7.62356 0.602457 7.12903 0.401567 6.56241C0.200677 6.00095 0.0976562 5.39313 0.0976562 4.73895C0.0976562 4.06932 0.200677 3.44604 0.401567 2.86912C0.602457 2.29736 0.890914 1.79256 1.26694 1.37017C1.64297 0.942636 2.10656 0.607822 2.65772 0.365723C3.20372 0.123625 3.82185 0 4.51209 0C5.00659 0 5.47533 0.0721144 5.91317 0.211192C6.351 0.355421 6.74764 0.561462 7.09275 0.834469C7.43787 1.10747 7.72634 1.44229 7.95299 1.84407C8.17965 2.24585 8.32386 2.70944 8.3805 3.22454H6.46948C6.43857 3.00305 6.36131 2.79701 6.24284 2.60642Z" fill="#A1A1A3"/>
<path d="M11.028 7.62686C11.2958 7.88443 11.6822 8.01831 12.1818 8.01831C12.5424 8.01831 12.8514 7.93074 13.1141 7.75048C13.3717 7.57021 13.5313 7.37962 13.5932 7.17873H15.1642C14.9118 7.95654 14.5255 8.518 14.0052 8.85281C13.485 9.18762 12.8566 9.35763 12.12 9.35763C11.61 9.35763 11.1464 9.27519 10.7395 9.11039C10.3274 8.94551 9.9823 8.71373 9.69388 8.41497C9.41051 8.11621 9.18906 7.75561 9.03451 7.33326C8.87997 6.91602 8.80273 6.45243 8.80273 5.95278C8.80273 5.46859 8.87997 5.0153 9.03964 4.59806C9.19932 4.18083 9.42597 3.8151 9.7196 3.51119C10.0132 3.20728 10.3635 2.96518 10.7704 2.79005C11.1773 2.61491 11.6255 2.52734 12.12 2.52734C12.6711 2.52734 13.1553 2.63552 13.5674 2.84671C13.9795 3.06306 14.3143 3.34636 14.577 3.70693C14.8397 4.0675 15.0303 4.47959 15.1487 4.93802C15.2672 5.39647 15.3085 5.88067 15.2724 6.38546H10.5849C10.6159 6.94693 10.7601 7.36931 11.028 7.62686ZM13.0472 4.20659C12.8308 3.97478 12.5063 3.85631 12.0736 3.85631C11.7903 3.85631 11.5534 3.90267 11.3628 4.00054C11.1722 4.09841 11.0228 4.21688 10.9095 4.35596C10.7961 4.50019 10.7189 4.64957 10.6725 4.80925C10.6262 4.96893 10.6004 5.10801 10.5902 5.23679H13.4902C13.4077 4.78349 13.2584 4.44353 13.0472 4.20659Z" fill="#A1A1A3"/>
<path d="M17.7755 2.69076V3.8961H17.8012C17.8836 3.69522 17.997 3.50978 18.1412 3.33464C18.2854 3.16465 18.4451 3.01528 18.6305 2.8968C18.8159 2.77833 19.0117 2.68046 19.2229 2.6135C19.4341 2.54653 19.6504 2.51562 19.8771 2.51562C19.9956 2.51562 20.1243 2.53623 20.2685 2.57744V4.23607C20.1861 4.22062 20.0831 4.20516 19.9647 4.19486C19.8462 4.18456 19.7329 4.17426 19.6246 4.17426C19.3002 4.17426 19.022 4.23092 18.7953 4.33909C18.5687 4.44726 18.3884 4.59664 18.2493 4.78723C18.1103 4.97782 18.0124 5.19416 17.9557 5.44656C17.8991 5.69896 17.8682 5.97196 17.8682 6.26558V9.19653H16.0859V2.69076H17.7755Z" fill="#A1A1A3"/>
<path d="M25.0439 2.68928V3.88431H23.7355V7.10371C23.7355 7.40762 23.7871 7.60848 23.885 7.70638C23.9828 7.80428 24.1888 7.8558 24.4876 7.8558C24.5906 7.8558 24.6833 7.85059 24.7761 7.84546C24.8688 7.83513 24.9564 7.82487 25.0388 7.80941V9.18991C24.8894 9.21563 24.7194 9.23109 24.534 9.24135C24.3485 9.25168 24.1683 9.25681 23.9931 9.25681C23.715 9.25681 23.4522 9.23622 23.2101 9.20017C22.9629 9.16411 22.7466 9.09201 22.556 8.97872C22.3654 8.87049 22.2212 8.71602 22.1079 8.51508C21.9996 8.31423 21.943 8.05152 21.943 7.72184V3.88431H20.8613V2.68928H21.943V0.742188H23.7253V2.68928H25.0439Z" fill="#A1A1A3"/>
<path d="M26.0791 1.68413V0.210938H27.8613V1.68413H26.0791ZM27.8664 2.68858V9.18401H26.0842V2.68858H27.8664Z" fill="#A1A1A3"/>
<path d="M28.5723 3.88362V2.68858H29.6385V2.18378C29.6385 1.60687 29.8189 1.13298 30.1794 0.762096C30.54 0.391223 31.086 0.210938 31.8123 0.210938C31.972 0.210938 32.1316 0.216088 32.2913 0.231541C32.4511 0.241844 32.6055 0.257297 32.7549 0.262447V1.59657C32.5489 1.57081 32.3326 1.56051 32.1059 1.56051C31.8638 1.56051 31.6887 1.61717 31.5856 1.73049C31.4826 1.84382 31.4311 2.0344 31.4311 2.30226V2.69373H32.6622V3.88877H31.4311V9.19434H29.6437V3.88362H28.5723Z" fill="#A1A1A3"/>
<path d="M33.8682 1.68413V0.210938H35.6505V1.68413H33.8682ZM35.6505 2.68858V9.18401H33.8682V2.68858H35.6505Z" fill="#A1A1A3"/>
<path d="M38.4672 7.62686C38.735 7.88443 39.1214 8.01831 39.621 8.01831C39.9816 8.01831 40.2907 7.93074 40.5534 7.75048C40.8109 7.57021 40.9706 7.37962 41.0324 7.17873H42.6035C42.351 7.95654 41.9647 8.518 41.4496 8.85281C40.9294 9.18762 40.301 9.35763 39.5644 9.35763C39.0545 9.35763 38.5908 9.27519 38.1839 9.11039C37.7718 8.94551 37.4267 8.71373 37.1382 8.41497C36.8549 8.11621 36.6334 7.75561 36.4789 7.33326C36.3244 6.91602 36.2471 6.45243 36.2471 5.95278C36.2471 5.46859 36.3295 5.0153 36.4841 4.59806C36.6437 4.18083 36.8704 3.8151 37.164 3.51119C37.4576 3.20728 37.8078 2.96518 38.2148 2.79005C38.6217 2.61491 39.0698 2.52734 39.5644 2.52734C40.1155 2.52734 40.5998 2.63552 41.0118 2.84671C41.4239 3.06306 41.7587 3.34636 42.0214 3.70693C42.2841 4.0675 42.4747 4.47959 42.5932 4.93802C42.7116 5.39647 42.7528 5.88067 42.722 6.38546H38.0345C38.0499 6.94693 38.1994 7.36931 38.4672 7.62686ZM40.4813 4.20659C40.2701 3.97478 39.9404 3.85631 39.5077 3.85631C39.2244 3.85631 38.9875 3.90267 38.7969 4.00054C38.6063 4.09841 38.4569 4.21688 38.3436 4.35596C38.2303 4.50019 38.153 4.64957 38.1066 4.80925C38.0603 4.96893 38.0345 5.10801 38.0242 5.23679H40.9242C40.847 4.78349 40.6976 4.44353 40.4813 4.20659Z" fill="#A1A1A3"/>
<path d="M48.1305 8.35472C47.9193 8.70499 47.6463 8.96256 47.3063 9.11703C46.9664 9.27158 46.5852 9.34889 46.1577 9.34889C45.6734 9.34889 45.2459 9.25612 44.8751 9.06559C44.5042 8.875 44.2002 8.62255 43.9633 8.29807C43.7263 7.97352 43.5461 7.60266 43.4225 7.18544C43.2988 6.7682 43.2422 6.33036 43.2422 5.87707C43.2422 5.43923 43.304 5.022 43.4225 4.61506C43.5409 4.20814 43.7263 3.85272 43.9633 3.5385C44.2002 3.22944 44.5042 2.97704 44.8596 2.7916C45.2202 2.60101 45.6374 2.5083 46.1165 2.5083C46.5028 2.5083 46.8685 2.59072 47.2136 2.75554C47.5639 2.92038 47.8369 3.15733 48.0378 3.47669H48.0636V0.210938H49.8458V9.18401H48.1563V8.35472H48.1305ZM48.0532 5.14563C48.0017 4.89838 47.9193 4.68203 47.7957 4.49144C47.672 4.30085 47.5175 4.15147 47.3218 4.033C47.1312 3.91453 46.8839 3.85787 46.5955 3.85787C46.307 3.85787 46.0546 3.91453 45.8538 4.033C45.6528 4.15147 45.4932 4.306 45.3695 4.49659C45.2511 4.68719 45.1635 4.90868 45.1068 5.15593C45.0502 5.40318 45.0244 5.66073 45.0244 5.92858C45.0244 6.18098 45.0553 6.43338 45.112 6.68063C45.1687 6.93303 45.2665 7.15453 45.3953 7.35542C45.5241 7.55114 45.6889 7.71081 45.8846 7.83444C46.0804 7.95806 46.3173 8.01478 46.5955 8.01478C46.8891 8.01478 47.1312 7.95806 47.3321 7.83964C47.5278 7.72115 47.6875 7.5666 47.806 7.36572C47.9245 7.16998 48.0068 6.94334 48.0584 6.69609C48.1099 6.44369 48.1357 6.18613 48.1357 5.91828C48.1357 5.65043 48.1047 5.39288 48.0532 5.14563Z" fill="#A1A1A3"/>
<path d="M4.5842 78.1715C4.49664 77.5433 3.89397 77.0638 3.20373 77.0638C1.95718 77.0638 1.48844 78.1254 1.48844 79.2322C1.48844 80.2833 1.95718 81.3441 3.20373 81.3441C4.05365 81.3441 4.53269 80.7621 4.63572 79.928H5.98528C5.84106 81.5039 4.75418 82.5134 3.20373 82.5134C1.24634 82.5134 0.0976562 81.0505 0.0976562 79.2322C0.0976562 77.3575 1.24634 75.8945 3.20373 75.8945C4.5945 75.8945 5.75864 76.7085 5.92862 78.1715H4.5842Z" fill="#A1A1A3"/>
<path d="M8.8848 77.668C10.3271 77.668 11.2543 78.621 11.2543 80.0839C11.2543 81.5364 10.3271 82.4894 8.8848 82.4894C7.45284 82.4894 6.52051 81.5312 6.52051 80.0839C6.52051 78.621 7.44769 77.668 8.8848 77.668ZM8.8848 81.5416C9.74501 81.5416 9.99746 80.805 9.99746 80.0839C9.99746 79.3472 9.73989 78.6158 8.8848 78.6158C8.03491 78.6158 7.77733 79.3524 7.77733 80.0839C7.77733 80.8102 8.03491 81.5416 8.8848 81.5416Z" fill="#A1A1A3"/>
<path d="M12.0322 77.7796H13.2273V78.6301H13.2479C13.4745 78.0532 14.0978 77.6562 14.7108 77.6562C14.7984 77.6562 14.9065 77.6719 14.9837 77.6971V78.8664C14.8653 78.8412 14.6799 78.8256 14.5305 78.8256C13.6085 78.8256 13.2891 79.4901 13.2891 80.2937V82.3543H12.0322V77.7796Z" fill="#A1A1A3"/>
<path d="M15.468 77.7914H16.663V78.3734H16.6785C16.9773 77.8895 17.4718 77.668 18.0384 77.668C19.4755 77.668 20.1194 78.8269 20.1194 80.1248C20.1194 81.3461 19.4498 82.4894 18.1105 82.4894C17.5645 82.4894 17.0391 82.2523 16.7403 81.7988H16.7197V83.9776H15.4629V77.7914H15.468ZM18.8677 80.0943C18.8677 79.368 18.5741 78.6158 17.7705 78.6158C16.9463 78.6158 16.6836 79.3524 16.6836 80.0943C16.6836 80.8362 16.9669 81.5468 17.7808 81.5468C18.5999 81.5416 18.8677 80.8362 18.8677 80.0943Z" fill="#A1A1A3"/>
<path d="M22.8806 77.668C24.3229 77.668 25.2553 78.621 25.2553 80.0839C25.2553 81.5364 24.3229 82.4894 22.8806 82.4894C21.4487 82.4894 20.5215 81.5312 20.5215 80.0839C20.5215 78.621 21.4487 77.668 22.8806 77.668ZM22.8806 81.5416C23.7408 81.5416 23.9984 80.805 23.9984 80.0839C23.9984 79.3472 23.7408 78.6158 22.8806 78.6158C22.0307 78.6158 21.7732 79.3524 21.7732 80.0839C21.7732 80.8102 22.0307 81.5416 22.8806 81.5416Z" fill="#A1A1A3"/>
<path d="M26.0276 77.7796H27.2226V78.6301H27.2432C27.4699 78.0532 28.0932 77.6562 28.7009 77.6562C28.7885 77.6562 28.8967 77.6719 28.974 77.6971V78.8664C28.8607 78.8412 28.6752 78.8256 28.5207 78.8256C27.5987 78.8256 27.2793 79.4901 27.2793 80.2937V82.3543H26.0225V77.7796H26.0276Z" fill="#A1A1A3"/>
<path d="M29.3451 79.1978C29.4172 78.0181 30.4681 77.668 31.4983 77.668C32.41 77.668 33.5072 77.8687 33.5072 78.9659V81.3461C33.5072 81.7632 33.5484 82.175 33.6669 82.366H32.3894C32.3482 82.2218 32.307 82.0724 32.3019 81.923C31.9052 82.34 31.3232 82.4894 30.7617 82.4894C29.8963 82.4894 29.2061 82.0568 29.2061 81.1194C29.2061 80.0839 29.9839 79.8364 30.7617 79.7286C31.5343 79.6148 32.2504 79.6409 32.2504 79.1257C32.2504 78.5845 31.8743 78.5072 31.4365 78.5072C30.9574 78.5072 30.6484 78.7035 30.602 79.1978H29.3451ZM32.2504 80.1248C32.034 80.3106 31.5962 80.321 31.2047 80.3931C30.8132 80.4704 30.4629 80.6043 30.4629 81.0674C30.4629 81.5364 30.8235 81.6494 31.2356 81.6494C32.2143 81.6494 32.2555 80.8719 32.2555 80.599V80.1248H32.2504Z" fill="#A1A1A3"/>
<path d="M36.0465 77.7906H36.9685V78.6306H36.0465V80.8971C36.0465 81.3245 36.1547 81.4271 36.5771 81.4271C36.711 81.4271 36.8347 81.4167 36.9685 81.3914V82.3749C36.7573 82.4113 36.4792 82.4217 36.2319 82.4217C35.4645 82.4217 34.7897 82.2411 34.7897 81.335V78.6358H34.0273V77.7958H34.7897V76.4258H36.0465V77.7906Z" fill="#A1A1A3"/>
<path d="M39.168 77.0863H37.9111V76.0508H39.168V77.0863ZM37.9111 77.7917H39.168V82.3657H37.9111V77.7917Z" fill="#A1A1A3"/>
<path d="M42.3778 77.668C43.8201 77.668 44.7524 78.621 44.7524 80.0839C44.7524 81.5364 43.8201 82.4894 42.3778 82.4894C40.9458 82.4894 40.0186 81.5312 40.0186 80.0839C40.0134 78.621 40.9458 77.668 42.3778 77.668ZM42.3778 81.5416C43.238 81.5416 43.4956 80.805 43.4956 80.0839C43.4956 79.3472 43.238 78.6158 42.3778 78.6158C41.5278 78.6158 41.2703 79.3524 41.2703 80.0839C41.2703 80.8102 41.5278 81.5416 42.3778 81.5416Z" fill="#A1A1A3"/>
<path d="M45.5605 77.7914H46.7557V78.4307H46.7814C47.1007 77.9155 47.6467 77.668 48.1825 77.668C49.5166 77.668 49.8565 78.4202 49.8565 79.5531V82.366H48.5997V79.7799C48.5997 79.0276 48.3782 78.6566 47.7961 78.6566C47.1111 78.6566 46.8226 79.038 46.8226 79.9702V82.3705H45.5658V77.7914H45.5605Z" fill="#A1A1A3"/>
</g>
<defs>
<clipPath id="clip0_47_80359">
<rect width="49.8053" height="84" fill="white" transform="translate(0.0976562)"/>
</clipPath>
</defs>
</svg>
