<svg width="40" height="40" viewBox="0 0 40 40" fill="none" xmlns="http://www.w3.org/2000/svg">
<g clip-path="url(#clip0_47_88937)">
<path d="M36.1492 28.899C35.2992 28.649 34.5492 28.199 33.8992 27.549C32.2492 25.999 31.2492 24.099 30.9992 21.799C30.8992 20.949 30.9492 20.099 31.0992 19.249C31.3992 17.649 32.0992 16.299 33.1992 15.099C33.7992 14.449 34.4492 13.849 35.0992 13.299C35.1492 13.249 35.1492 13.199 35.0992 13.149C34.6492 12.649 34.1992 12.099 33.6992 11.649C31.6992 9.799 29.2992 9.149 26.5992 9.449C25.7492 9.549 24.8992 9.749 24.0992 10.049C23.1992 10.349 22.3492 10.649 21.3992 10.849C20.8992 10.949 20.3992 10.999 19.8492 10.949C19.0992 10.849 18.2992 10.649 17.5492 10.399C16.3492 10.049 15.1492 9.749 13.8492 9.599C12.8992 9.499 11.9992 9.549 11.0492 9.749C9.49922 10.099 8.24922 10.849 7.14922 11.949C5.64922 13.449 4.74922 15.249 4.19922 17.299C3.84922 18.699 3.69922 20.099 3.69922 21.699C3.69922 22.349 3.74922 23.199 3.84922 24.049C4.04922 25.399 4.34922 26.749 4.74922 28.049C5.34922 29.899 6.14922 31.599 7.09922 33.249C7.84922 34.549 8.64922 35.799 9.69922 36.899C10.3992 37.649 11.1492 38.299 12.0992 38.799C12.8492 39.149 13.5992 39.349 14.4492 39.299C15.0992 39.249 15.7492 39.049 16.3492 38.849C16.9992 38.649 17.5992 38.349 18.1992 38.149C18.9992 37.899 19.7992 37.699 20.6492 37.749C21.4492 37.749 22.2492 37.949 23.0492 38.149C23.7992 38.349 24.4992 38.649 25.2492 38.849C25.8992 39.049 26.4992 39.199 27.1492 39.199C27.9992 39.249 28.7992 38.949 29.5492 38.549C30.4992 37.999 31.2992 37.199 31.9992 36.349C32.8992 35.249 33.6992 34.049 34.3992 32.799C35.0992 31.549 35.6992 30.249 36.1492 28.899C36.2492 28.949 36.2492 28.899 36.1492 28.899Z" fill="white"/>
<path d="M19.8487 9.99884C20.2987 9.94884 20.6987 9.89884 21.1487 9.84884C21.8487 9.74884 22.4987 9.54883 23.1487 9.14884C24.8487 8.04884 26.0987 6.54884 26.8487 4.64884C27.2487 3.64884 27.4987 2.64884 27.4987 1.59884C27.4987 1.29884 27.4987 0.948836 27.3987 0.648836C27.3987 0.598836 27.3487 0.548836 27.2987 0.598836C26.3987 0.798836 25.5487 1.09884 24.6987 1.49884C23.1487 2.19884 21.9487 3.29884 21.0987 4.74884C20.1987 6.34884 19.7987 8.04884 19.7487 9.84884C19.6987 9.99884 19.6987 10.0488 19.8487 9.99884Z" fill="white"/>
</g>
<defs>
<clipPath id="clip0_47_88937">
<rect width="40" height="40" fill="white"/>
</clipPath>
</defs>
</svg>
