<svg width="40" height="40" viewBox="0 0 40 40" fill="none" xmlns="http://www.w3.org/2000/svg">
<rect width="40" height="40" rx="12" fill="black"/>
<path d="M20.75 23.9203H21.4C22.05 23.9203 22.59 23.3403 22.59 22.6403C22.59 21.7703 22.28 21.6003 21.77 21.4203L20.76 21.0703V23.9203H20.75Z" fill="white"/>
<path d="M19.9701 9.89845C14.4501 9.91845 9.98007 14.4085 10.0001 19.9285C10.0201 25.4485 14.5101 29.9185 20.0301 29.8985C25.5501 29.8785 30.0201 25.3885 30.0001 19.8685C29.9801 14.3485 25.4901 9.88845 19.9701 9.89845ZM22.2601 19.9985C23.0401 20.2685 24.0901 20.8485 24.0901 22.6385C24.0901 24.1785 22.8801 25.4185 21.4001 25.4185H20.7501V25.9985C20.7501 26.4085 20.4101 26.7485 20.0001 26.7485C19.5901 26.7485 19.2501 26.4085 19.2501 25.9985V25.4185H18.8901C17.2501 25.4185 15.9201 24.0385 15.9201 22.3385C15.9201 21.9285 16.2601 21.5885 16.6701 21.5885C17.0801 21.5885 17.4201 21.9285 17.4201 22.3385C17.4201 23.2085 18.0801 23.9185 18.8901 23.9185H19.2501V20.5385L17.7401 19.9985C16.9601 19.7285 15.9101 19.1485 15.9101 17.3585C15.9101 15.8185 17.1201 14.5785 18.6001 14.5785H19.2501V13.9985C19.2501 13.5885 19.5901 13.2485 20.0001 13.2485C20.4101 13.2485 20.7501 13.5885 20.7501 13.9985V14.5785H21.1101C22.7501 14.5785 24.0801 15.9585 24.0801 17.6585C24.0801 18.0685 23.7401 18.4085 23.3301 18.4085C22.9201 18.4085 22.5801 18.0685 22.5801 17.6585C22.5801 16.7885 21.9201 16.0785 21.1101 16.0785H20.7501V19.4585L22.2601 19.9985Z" fill="white"/>
<path d="M17.4199 17.3681C17.4199 18.2381 17.7299 18.4081 18.2399 18.5881L19.2499 18.9381V16.0781H18.5999C17.9499 16.0781 17.4199 16.6581 17.4199 17.3681Z" fill="white"/>
</svg>
