<svg width="35" height="20" viewBox="0 0 35 20" fill="none" xmlns="http://www.w3.org/2000/svg">
<path d="M32.113 0.0123005C31.479 -0.0423499 31.004 0.0848193 30.6615 0.399549C30.2154 0.809361 29.9997 1.5262 29.9841 2.65285C29.615 3.07363 29.2472 3.49217 28.8808 3.90851C28.0341 4.87095 27.1588 5.86603 26.3091 6.84778C25.4594 7.82954 24.6022 8.83566 23.7731 9.80855C23.4173 10.2259 23.0612 10.6437 22.7045 11.0618C22.6081 11.0597 22.5077 11.0527 22.4024 11.0454C22.091 11.0044 21.7749 11.0204 21.4693 11.0929C21.0627 11.2163 20.8211 11.101 20.4636 10.8138C18.4958 9.23465 16.667 8.00768 14.8725 7.06309C14.7316 6.99833 14.6075 6.90165 14.5098 6.78055C14.4122 6.65946 14.3437 6.51723 14.3096 6.36502C14.1673 5.8175 13.8174 5.34817 13.3352 5.05811C12.8531 4.76806 12.2771 4.68047 11.7315 4.81422C11.1768 4.9448 10.6913 5.28158 10.3722 5.75726C10.053 6.23296 9.92362 6.81254 10.0099 7.38019C10.0321 7.53019 10.0591 7.68019 10.085 7.823L10.1057 7.94038L2.89956 14.9256C2.86294 14.9221 2.82644 14.9181 2.79008 14.9143C2.66999 14.9012 2.54569 14.8882 2.4211 14.8849C1.22927 14.8504 0.496651 15.3759 0.114042 16.5393C-0.172949 17.4119 0.141211 18.1907 0.402583 18.7007C0.579665 19.0671 0.849353 19.3801 1.18455 19.6079C1.51976 19.8359 1.90861 19.9709 2.312 19.9992C2.35262 20.0015 2.39314 20.0025 2.43362 20.0026C2.82191 19.9968 3.20268 19.8935 3.54153 19.7022C3.88036 19.5109 4.1666 19.2376 4.37448 18.907C4.99555 17.9661 5.09209 17.0843 4.6677 16.2144L11.6602 9.50033L13.6081 8.89385L19.3867 12.8898C19.4322 13.7493 19.6446 14.3937 20.0712 14.9715C20.3195 15.3264 20.6801 15.586 21.0938 15.7078C21.5075 15.8295 21.9498 15.8062 22.3486 15.6417C23.5017 15.2001 24.142 14.2214 24.1118 12.9521L31.1247 4.17223C32.1195 4.36788 32.8917 4.27659 33.4207 3.89964C33.8297 3.60865 34.0786 3.1575 34.1604 2.55869C34.2073 2.25674 34.1923 1.94826 34.1162 1.65239C34.0401 1.35653 33.9046 1.07958 33.7179 0.838701C33.5207 0.597602 33.2766 0.399866 33.0005 0.257718C32.7245 0.11557 32.4224 0.0320419 32.113 0.0123005Z" fill="white"/>
</svg>
