<svg width="24" height="23" viewBox="0 0 24 23" fill="none" xmlns="http://www.w3.org/2000/svg">
<path d="M22.3762 9.74751L21.5762 9.55545L22.3762 9.74751ZM21.3025 14.4369L20.5025 14.2449L20.5021 14.2463L21.3025 14.4369ZM15.1452 19.7883L15.2238 18.9507L15.2107 18.9496L15.1452 19.7883ZM13.3703 19.4854L13.5631 18.6675L13.5606 18.6669L13.3703 19.4854ZM11.5297 19.0366L11.72 18.2181L11.7195 18.218L11.5297 19.0366ZM6.62134 10.9255L7.42135 11.1175L7.42145 11.1171L6.62134 10.9255ZM7.69504 6.2248L6.89517 6.03208L6.89492 6.03318L7.69504 6.2248ZM8.50579 3.75666L9.24317 4.12801L9.24557 4.1229L8.50579 3.75666ZM15.6273 1.19878L15.4381 2.0176L15.4404 2.01814L15.6273 1.19878ZM17.4569 1.63631L17.644 0.817013L17.6438 0.816948L17.4569 1.63631ZM21.5762 9.55545L20.5025 14.2449L22.1025 14.629L23.1762 9.93957L21.5762 9.55545ZM20.5021 14.2463C20.0586 16.1981 19.4294 17.4146 18.6263 18.1184C17.851 18.7978 16.7899 19.105 15.2238 18.9508L15.0665 20.6259C16.9187 20.8083 18.4762 20.4648 19.6949 19.3969C20.8857 18.3533 21.626 16.7258 22.1028 14.6276L20.5021 14.2463ZM15.2107 18.9496C14.7129 18.9089 14.1643 18.8161 13.5631 18.6675L13.1775 20.3033C13.8472 20.4688 14.4818 20.5781 15.0797 20.6271L15.2107 18.9496ZM13.5606 18.6669L11.72 18.2181L11.3393 19.8552L13.18 20.3039L13.5606 18.6669ZM11.7195 18.218C9.51354 17.6817 8.27738 16.9009 7.65763 15.8792C7.03848 14.8584 6.90327 13.3803 7.42135 11.1175L5.82133 10.7334C5.26572 13.1601 5.30032 15.1823 6.26158 16.7671C7.22226 18.3509 8.97711 19.281 11.3399 19.8554L11.7195 18.218ZM7.42145 11.1171L8.49515 6.41643L6.89492 6.03318L5.82123 10.7339L7.42145 11.1171ZM8.4949 6.41752C8.70602 5.49873 8.9516 4.73501 9.24315 4.12799L7.76843 3.38533C7.40261 4.14701 7.12229 5.04368 6.89517 6.03208L8.4949 6.41752ZM9.24557 4.1229C9.81344 2.92017 10.5306 2.24506 11.443 1.92264C12.3936 1.5867 13.6752 1.59062 15.4381 2.0176L15.8164 0.379961C13.92 -0.079354 12.2817 -0.153961 10.9069 0.331881C9.49386 0.83123 8.48 1.87821 7.766 3.39042L9.24557 4.1229ZM15.4404 2.01814L17.2701 2.45567L17.6438 0.816948L15.8141 0.379414L15.4404 2.01814ZM17.2698 2.45561C19.486 2.98638 20.7233 3.76748 21.3425 4.78925C21.9615 5.81102 22.0945 7.29165 21.5762 9.55545L23.1762 9.93957C23.7316 7.51391 23.7002 5.48866 22.7389 3.90206C21.7775 2.31545 20.0185 1.38569 17.644 0.817013L17.2698 2.45561Z" fill="#010101"/>
<path d="M15.1458 19.7888L15.6066 20.4854C15.8955 20.285 16.0293 19.9198 15.9403 19.5743C15.8513 19.2289 15.5591 18.9786 15.2113 18.9501L15.1458 19.7888ZM12.5711 21.0005L12.3161 20.2006L12.3142 20.2012L12.5711 21.0005ZM10.84 21.5839L11.0922 22.3846L11.0969 22.3831L10.84 21.5839ZM2.78729 17.3656L2.0056 17.625L2.0058 17.6256L2.78729 17.3656ZM1.38491 12.9341L0.602847 13.1924L0.603222 13.1935L1.38491 12.9341ZM5.49344 4.68833L5.7456 5.48916L5.75033 5.48756L5.49344 4.68833ZM7.22451 4.10495L6.97614 3.30284L6.96763 3.30571L7.22451 4.10495ZM8.50637 3.75716L9.24374 4.1285C9.38113 3.84243 9.34884 3.50143 9.16035 3.24772C8.97185 2.99401 8.65951 2.87116 8.35362 2.93042L8.50637 3.75716ZM7.69562 6.2253L6.89576 6.03259L6.89551 6.03367L7.69562 6.2253ZM6.62192 10.926L7.42194 11.118L7.42203 11.1176L6.62192 10.926ZM11.5303 19.0372L11.7206 18.2187L11.7201 18.2185L11.5303 19.0372ZM13.3709 19.4859L13.5637 18.668L13.5612 18.6674L13.3709 19.4859ZM14.6849 19.0923C14.0914 19.5039 13.3149 19.8668 12.3162 20.2006L12.826 21.8004C13.9089 21.4386 14.8415 21.0162 15.6066 20.4854L14.6849 19.0923ZM12.3142 20.2012L10.5831 20.7846L11.0969 22.3831L12.828 21.7997L12.3142 20.2012ZM10.5879 20.7831C8.48942 21.4758 7.09055 21.4602 6.08685 20.9344C5.08287 20.4083 4.25078 19.2547 3.56878 17.1055L2.0058 17.6256C2.73713 19.9302 3.75663 21.6038 5.33828 22.4324C6.92023 23.2613 8.84106 23.1279 11.0922 22.3846L10.5879 20.7831ZM3.56898 17.1062L2.1666 12.6748L0.603222 13.1935L2.0056 17.625L3.56898 17.1062ZM2.16698 12.6759C1.49016 10.5264 1.50283 9.09059 2.0145 8.06122C2.52551 7.03318 3.64832 6.18156 5.7456 5.48915L5.2413 3.88751C2.98901 4.6311 1.35635 5.67546 0.549894 7.29787C-0.255902 8.91894 -0.122715 10.888 0.602849 13.1924L2.16698 12.6759ZM5.75033 5.48756L7.48139 4.90419L6.96763 3.30571L5.23657 3.88909L5.75033 5.48756ZM7.47287 4.907C7.90965 4.76519 8.30101 4.65328 8.65912 4.58391L8.35362 2.93042C7.90098 3.01811 7.43777 3.15301 6.97615 3.30289L7.47287 4.907ZM7.76901 3.38583C7.40319 4.14751 7.12288 5.04419 6.89576 6.03259L8.49549 6.41802C8.70661 5.49923 8.9522 4.73551 9.24374 4.1285L7.76901 3.38583ZM6.89551 6.03367L5.82181 10.7344L7.42203 11.1176L8.49573 6.41693L6.89551 6.03367ZM5.82191 10.7339C5.2663 13.1606 5.3009 15.1827 6.26217 16.7676C7.22285 18.3514 8.97769 19.2814 11.3404 19.8558L11.7201 18.2185C9.51413 17.6823 8.27796 16.9015 7.65823 15.8796C7.03906 14.8589 6.90385 13.3808 7.42194 11.118L5.82191 10.7339ZM11.3399 19.8557L13.1806 20.3045L13.5612 18.6674L11.7206 18.2187L11.3399 19.8557ZM13.178 20.3039C13.8478 20.4694 14.4824 20.5786 15.0802 20.6276L15.2113 18.9501C14.7135 18.9093 14.1649 18.8166 13.5637 18.668L13.178 20.3039Z" fill="#010101"/>
<path d="M12.6966 6.78882C12.2567 6.67459 11.8097 6.94713 11.6981 7.39757C11.5866 7.84801 11.8527 8.30577 12.2926 8.42L12.6966 6.78882ZM17.6063 9.79992C18.0462 9.91415 18.4933 9.6416 18.6048 9.19117C18.7164 8.74073 18.4502 8.28297 18.0103 8.16874L17.6063 9.79992ZM12.2926 8.42L17.6063 9.79992L18.0103 8.16874L12.6966 6.78882L12.2926 8.42Z" fill="#010101"/>
<path d="M11.6241 11.1308C11.1844 11.0159 10.737 11.2878 10.6248 11.7381C10.5126 12.1883 10.7781 12.6465 11.2178 12.7614L11.6241 11.1308ZM14.3951 13.5916C14.8348 13.7065 15.2822 13.4346 15.3944 12.9843C15.5067 12.5341 15.2411 12.0759 14.8014 11.961L14.3951 13.5916ZM11.2178 12.7614L14.3951 13.5916L14.8014 11.961L11.6241 11.1308L11.2178 12.7614Z" fill="#010101"/>
</svg>
