<svg width="24" height="21" viewBox="0 0 24 21" fill="none" xmlns="http://www.w3.org/2000/svg">
<mask id="mask0_47_133015" style="mask-type:luminance" maskUnits="userSpaceOnUse" x="3" y="1" width="18" height="18">
<path fill-rule="evenodd" clip-rule="evenodd" d="M3 1.71875H20.0527V18.664H3V1.71875Z" fill="white"/>
</mask>
<g mask="url(#mask0_47_133015)">
<path fill-rule="evenodd" clip-rule="evenodd" d="M7.5731 2.99902C5.9161 2.99902 4.5401 4.14444 4.5011 5.55701V14.6854C4.4641 16.1474 5.8141 17.3517 7.5101 17.3842H15.5741C17.2431 17.3253 18.5651 16.1415 18.5531 14.6905V7.1198L13.9181 2.99902H7.5851H7.5731ZM7.5851 18.6644H7.4761C4.9541 18.6158 2.9461 16.8251 3.0011 14.6717V5.54165C3.0591 3.42407 5.1081 1.71875 7.5711 1.71875H7.5881H14.2381C14.4421 1.71875 14.6371 1.78959 14.7791 1.91506L19.8441 6.41906C19.9781 6.5377 20.0531 6.69731 20.0531 6.86203V14.6854C20.0711 16.8268 18.1171 18.5765 15.6041 18.6636L7.5851 18.6644Z" fill="white"/>
</g>
<path fill-rule="evenodd" clip-rule="evenodd" d="M19.2976 7.67189H16.5426C14.7126 7.66762 13.2246 6.39418 13.2246 4.83395V2.35107C13.2246 1.99772 13.5606 1.71094 13.9746 1.71094C14.3886 1.71094 14.7246 1.99772 14.7246 2.35107V4.83395C14.7246 5.69088 15.5416 6.38906 16.5446 6.39162H19.2976C19.7116 6.39162 20.0476 6.6784 20.0476 7.03175C20.0476 7.38511 19.7116 7.67189 19.2976 7.67189Z" fill="white"/>
<path fill-rule="evenodd" clip-rule="evenodd" d="M13.7887 13.749H8.38867C7.97467 13.749 7.63867 13.4622 7.63867 13.1089C7.63867 12.7555 7.97467 12.4688 8.38867 12.4688H13.7887C14.2027 12.4688 14.5387 12.7555 14.5387 13.1089C14.5387 13.4622 14.2027 13.749 13.7887 13.749Z" fill="white"/>
<path fill-rule="evenodd" clip-rule="evenodd" d="M11.7427 10.5537H8.38672C7.97272 10.5537 7.63672 10.2669 7.63672 9.91357C7.63672 9.56022 7.97272 9.27344 8.38672 9.27344H11.7427C12.1567 9.27344 12.4927 9.56022 12.4927 9.91357C12.4927 10.2669 12.1567 10.5537 11.7427 10.5537Z" fill="white"/>
</svg>
