<svg width="24" height="24" viewBox="0 0 24 24" fill="none" xmlns="http://www.w3.org/2000/svg">
<path fill-rule="evenodd" clip-rule="evenodd" d="M17.7771 2.84949C15.9596 2.26628 13.6306 2.50041 12.0259 3.98485C10.4138 2.56501 8.16544 2.25294 6.31483 2.84986C2.09359 4.20876 0.793082 9.07868 1.97046 12.7546C2.91788 15.7033 4.96125 17.8819 6.93772 19.3114C7.92986 20.0291 8.9241 20.5721 9.79128 20.9392C10.6256 21.2922 11.4411 21.5247 12.0515 21.5247C12.6653 21.5247 13.4862 21.2864 14.3226 20.9292C15.1933 20.5573 16.1916 20.0086 17.1862 19.2875C19.1652 17.8525 21.2108 15.6736 22.1307 12.7511C23.3062 9.07375 21.9951 4.20752 17.7771 2.84949ZM15.8913 6.57164C15.3419 6.5152 14.8507 6.91482 14.7943 7.46421C14.7379 8.0136 15.1375 8.50473 15.6869 8.56117C16.0384 8.59728 16.2763 8.74352 16.4327 8.9413C16.5955 9.14724 16.7226 9.47841 16.7066 9.95487C16.6881 10.5068 17.1206 10.9693 17.6725 10.9878C18.2245 11.0064 18.687 10.5739 18.7055 10.0219C18.7345 9.1574 18.5066 8.33957 18.0015 7.70076C17.4898 7.05379 16.7467 6.65953 15.8913 6.57164Z" fill="#787878"/>
</svg>
