<svg width="512" height="512" viewBox="0 0 512 512" fill="none" xmlns="http://www.w3.org/2000/svg">
<g clip-path="url(#clip0_47_78320)">
<path d="M0 512V0H512" fill="#6CA12B"/>
<path d="M139 268.001L219 188.001C224 183.001 226 178.001 226 172.001V104.001C226.026 102.153 225.687 100.318 225 98.6014C224.314 96.885 223.294 95.3217 222 94.0014C220.68 92.7075 219.116 91.6879 217.4 91.0013C215.684 90.3148 213.848 89.975 212 90.0014H144L136 92.0014L128 97.0014L48 177.001C46 179.001 44 183.001 44 187.001C44 190.001 46 194.001 48 197.001L119 267.001C120.234 268.477 121.759 269.683 123.479 270.543C125.2 271.403 127.079 271.9 129 272.001L134 271.001L139 268.001ZM185 119.001C187 119.001 190 119.001 192 121.001L196 126.001L197 134.001C196 136.001 195 139.001 193 140.001C192 142.001 189 143.001 187 144.001L180 143.001C177.631 142.014 175.607 140.348 174.183 138.213C172.76 136.077 172 133.568 172 131.001L175 122.001C178 120.001 181 119.001 185 119.001Z" fill="white"/>
</g>
<defs>
<clipPath id="clip0_47_78320">
<rect width="512" height="512" fill="white"/>
</clipPath>
</defs>
</svg>
