<svg width="17" height="16" viewBox="0 0 17 16" fill="none" xmlns="http://www.w3.org/2000/svg">
<path d="M8.95944 15.1189L8.71032 14.3541L8.70282 14.3569L8.95944 15.1189ZM8.00335 15.1189L8.25998 14.3568L8.25245 14.3541L8.00335 15.1189ZM8.4814 2.61813L7.86239 3.0999C8.00785 3.30517 8.23743 3.42619 8.4814 3.42619C8.72536 3.42619 8.95495 3.30517 9.1004 3.0999L8.4814 2.61813ZM8.70282 14.3569C8.67993 14.3653 8.59976 14.3835 8.4814 14.3835C8.36304 14.3835 8.28286 14.3653 8.25997 14.3569L7.74674 15.8808C7.986 15.9694 8.25279 15.9997 8.4814 15.9997C8.71 15.9997 8.97679 15.9694 9.21605 15.8808L8.70282 14.3569ZM8.25245 14.3541C7.24512 13.9937 5.54177 13.0264 4.10048 11.4788C2.66848 9.9411 1.54207 7.88457 1.54207 5.32514H0C0 8.42215 1.37174 10.8625 2.9969 12.6076C4.61277 14.3427 6.52559 15.444 7.75426 15.8836L8.25245 14.3541ZM1.54207 5.32514C1.54207 3.27072 3.12034 1.61613 5.058 1.61613V0C2.26149 0 0 2.38573 0 5.32514H1.54207ZM5.058 1.61613C6.20578 1.61613 7.22209 2.19632 7.86239 3.0999L9.1004 2.13635C8.18321 0.842006 6.71678 0 5.058 0V1.61613ZM9.1004 3.0999C9.74023 2.19697 10.764 1.61613 11.9048 1.61613V0C10.2545 0 8.78005 0.841342 7.86239 2.13635L9.1004 3.0999ZM11.9048 1.61613C13.8425 1.61613 15.4207 3.27072 15.4207 5.32514H16.9628C16.9628 2.38573 14.7013 0 11.9048 0V1.61613ZM15.4207 5.32514C15.4207 7.88457 14.2943 9.9411 12.8623 11.4788C11.421 13.0264 9.71767 13.9937 8.71034 14.3541L9.20853 15.8836C10.4372 15.444 12.35 14.3427 13.9659 12.6076C15.5911 10.8625 16.9628 8.42215 16.9628 5.32514H15.4207Z" fill="white"/>
</svg>
