<svg width="30" height="30" viewBox="0 0 30 30" fill="none" xmlns="http://www.w3.org/2000/svg">
<g clip-path="url(#clip0_47_20292)">
<path d="M13.5938 8.34375L9.5625 1.96875L0.1875 6.9375L3.84375 11.25L13.5938 8.34375Z" fill="#714113"/>
<path d="M11.9062 6.9375L9.46875 3.375L1.21875 6.75L3.84375 10.875L11.9062 6.9375Z" fill="#BB7C46"/>
<path d="M11.9062 6.9375L12.75 2.71875L29.1563 3.375L27.75 7.96875L11.9062 6.9375Z" fill="#714113"/>
<path d="M12.6562 7.59375L13.5 3.375L27.4687 4.03125L26.0625 8.625L12.6562 7.59375Z" fill="#BB7C46"/>
<path d="M21.0938 30.0937L4.03125 25.2188L3.9375 10.5L21.0938 13.3125V30.0937Z" fill="#714113"/>
<path d="M21.0938 30.0937L27.4687 22.5L27.375 7.96875L21.0938 13.3125V30.0937Z" fill="#714113"/>
<path d="M27.75 7.96875L11.9062 6.9375L3.84375 10.875L21.0938 13.3125L27.75 7.96875Z" fill="#714113"/>
<path d="M21.8435 11.157L14.8122 9.75072C13.6872 9.56322 12.9372 8.43822 13.2185 7.31322L14.2497 2.34447C14.4372 1.21947 15.5622 0.469467 16.6872 0.750717L23.7185 2.15697C24.8435 2.34447 25.5935 3.46947 25.3122 4.59447L24.3747 9.46947C24.0935 10.5945 22.9685 11.3445 21.8435 11.157Z" fill="#7A0F0F"/>
<path d="M22.9685 11.2507L15.9372 9.84447C14.8122 9.65697 14.0622 8.53197 14.3435 7.40697L15.3747 2.43822C15.5622 1.31322 16.6872 0.563217 17.8122 0.844467L24.8435 2.25072C25.9685 2.43822 26.7185 3.56322 26.4372 4.68822L25.406 9.65697C25.2185 10.782 24.0935 11.532 22.9685 11.2507Z" fill="#E22222"/>
<path d="M22.406 11.3445L15.3747 9.93822C14.2497 9.75072 13.4997 8.62572 13.781 7.50072L14.8122 2.53197C14.9997 1.40697 16.1247 0.656967 17.2497 0.938217L24.281 2.34447C25.406 2.53197 26.156 3.65697 25.8747 4.78197L24.8435 9.75072C24.656 10.8757 23.531 11.6257 22.406 11.3445Z" fill="#E26546"/>
<path d="M18.6562 2.34375L17.3438 8.90625L23.7187 7.03125L18.6562 2.34375Z" fill="#7A0F0F"/>
<path d="M17.9067 15.6558L12.0005 11.5308C11.063 10.8745 10.7817 9.562 11.5317 8.6245L14.438 4.40575C15.0942 3.46825 16.4067 3.187 17.3442 3.937L23.2505 8.062C24.188 8.71825 24.4692 10.0308 23.7192 10.9683L20.813 15.187C20.1567 16.0308 18.8442 16.312 17.9067 15.6558Z" fill="#0F1D7A"/>
<path d="M18.8442 16.2183L12.938 12.0933C12.0005 11.437 11.7192 10.1245 12.4692 9.187L15.3755 4.96825C16.0317 4.03075 17.3442 3.7495 18.2817 4.4995L24.188 8.6245C25.1255 9.28075 25.4067 10.5933 24.6567 11.5308L21.7505 15.7495C21.0942 16.5933 19.8755 16.8745 18.8442 16.2183Z" fill="#2F44E2"/>
<path d="M18.2817 16.0308L12.3755 11.9058C11.438 11.2495 11.1567 9.937 11.9067 8.9995L14.813 4.78075C15.4692 3.84325 16.7817 3.562 17.7192 4.312L23.6255 8.437C24.563 9.09325 24.8442 10.4058 24.0942 11.3433L21.188 15.562C20.5317 16.4995 19.2192 16.687 18.2817 16.0308Z" fill="#4658E2"/>
<path d="M18.4688 6.28125L14.7188 11.7188L21.2813 12.5625L18.4688 6.28125Z" fill="#0F1D7A"/>
<path d="M14.8125 9.6548L6.56252 11.8111C5.43752 12.0923 4.31252 11.4361 4.03127 10.3111L2.53127 4.7798C2.25002 3.6548 3.00002 2.43605 4.03127 2.1548L12.375 -0.00144666C13.5 -0.282697 14.625 0.373553 14.9063 1.49855L16.3125 7.0298C16.5938 8.24855 15.9375 9.37355 14.8125 9.6548Z" fill="#1E579B"/>
<path d="M13.2183 9.8423L6.28078 11.6236C5.15578 11.9048 4.03078 11.2486 3.74953 10.1236L2.43703 5.1548C2.15578 4.0298 2.81203 2.9048 3.93703 2.62355L10.8745 0.842303C11.9995 0.561053 13.1245 1.2173 13.4058 2.3423L14.7183 7.31105C14.9995 8.43605 14.2495 9.56105 13.2183 9.8423Z" fill="#1E579B"/>
<path d="M14.2495 9.4673L7.31203 11.2486C6.18703 11.5298 5.06203 10.8736 4.78078 9.74855L3.46828 4.7798C3.18703 3.6548 3.84328 2.5298 4.96828 2.24855L11.9058 0.467303C13.0308 0.186053 14.1558 0.842303 14.437 1.9673L15.7495 6.93605C16.0308 8.06105 15.3745 9.18605 14.2495 9.4673Z" fill="#A6CAFF"/>
<path d="M13.7808 9.8423L6.84328 11.6236C5.71828 11.9048 4.59328 11.2486 4.31203 10.1236L2.99953 5.1548C2.71828 4.0298 3.37453 2.9048 4.49953 2.62355L11.437 0.842303C12.562 0.561053 13.687 1.2173 13.9683 2.3423L15.2808 7.31105C15.562 8.3423 14.9058 9.56105 13.7808 9.8423Z" fill="url(#paint0_linear_47_20292)"/>
<path d="M6.46875 3.375L8.15625 9.75L13.125 5.34375L6.46875 3.375Z" fill="#1E579B"/>
<path d="M20.7188 12.375L19.0312 8.90625L0.09375 6.84375L4.125 12.0937L20.7188 12.375Z" fill="#714113"/>
<path d="M20.5312 28.875L5.0625 24.5625V11.625L20.5312 13.875V28.875Z" fill="url(#paint1_linear_47_20292)"/>
<path d="M20.5312 28.875L26.5312 22.4062V9L20.5312 13.875V28.875Z" fill="#BB7C46"/>
<path d="M26.5312 9L12.2813 8.15625L5.0625 11.625L20.5312 13.875L26.5312 9Z" fill="#714113"/>
<path d="M8.8125 14.9989V23.4364C8.8125 23.9052 9.28125 24.1864 9.65625 23.9989L17.25 20.0614C17.625 19.8739 17.7188 19.2177 17.25 19.0302L9.65625 14.5302C9.28125 14.2489 8.8125 14.5302 8.8125 14.9989Z" fill="#99633A"/>
<path d="M9.75 16.3114V22.2177C9.75 22.6864 10.2188 22.9677 10.5938 22.7802L15.8438 20.0614C16.2188 19.8739 16.3125 19.2177 15.8438 19.0302L10.5938 15.8427C10.2188 15.5614 9.75 15.8427 9.75 16.3114Z" fill="#BB7C46"/>
<path d="M19.875 13.2188L22.9687 6.375L29.9062 3.1875L27.5625 7.875L19.875 13.2188Z" fill="#714113"/>
<path d="M20.5312 13.875L18.8438 10.4063L2.34375 8.34375L5.0625 11.625L20.5312 13.875Z" fill="#99633A"/>
<path d="M20.5312 13.875L23.5313 7.03125L28.2188 4.78125L26.5312 9L20.5312 13.875Z" fill="#99633A"/>
<path d="M10.0312 22.875L9.375 23.9062L17.5313 19.9687L16.2187 19.7812L10.0312 22.875Z" fill="#714113"/>
</g>
<defs>
<linearGradient id="paint0_linear_47_20292" x1="2.95359" y1="6.20949" x2="15.3422" y2="6.20949" gradientUnits="userSpaceOnUse">
<stop stop-color="#4280E2"/>
<stop offset="1" stop-color="#4F96FF"/>
</linearGradient>
<linearGradient id="paint1_linear_47_20292" x1="7.10878" y1="26.732" x2="19.6765" y2="12.4392" gradientUnits="userSpaceOnUse">
<stop stop-color="#DDC8AC"/>
<stop offset="1" stop-color="#DDA866"/>
</linearGradient>
<clipPath id="clip0_47_20292">
<rect width="30" height="30" fill="white"/>
</clipPath>
</defs>
</svg>
