<svg width="30" height="30" viewBox="0 0 30 30" fill="none" xmlns="http://www.w3.org/2000/svg">
<g clip-path="url(#clip0_47_48023)">
<path d="M13.7812 2.34297C13.7812 2.34297 19.7812 1.12422 21.6562 5.15547C23.5312 9.18672 20.6249 10.6867 20.6249 10.6867L18.5624 8.81172C18.5624 8.81172 21.6562 6.18672 18.9374 4.49922C16.2187 2.81172 14.4374 3.37422 14.4374 3.37422L13.7812 2.43672M21.9374 18.7492C21.9374 18.7492 24.4687 26.0617 19.4999 26.343L16.6874 25.1242L16.4062 25.968C16.4062 25.968 18.0937 27.843 20.5312 27.5617C22.9687 27.2805 26.4374 22.593 23.2499 18.5617L21.9374 18.7492ZM3.18744 11.2492C3.18744 11.2492 -1.50006 15.1867 0.562441 19.218C2.62494 23.2492 5.53119 21.843 5.53119 21.843L5.34369 19.0305C5.34369 19.0305 1.40619 19.7805 1.78119 16.6867C2.15619 13.593 3.74994 12.468 3.74994 12.468L3.37494 11.343M11.6249 14.2492C11.6249 14.2492 12.9374 15.5617 13.0312 17.1555L15.3749 16.4055C15.3749 16.4055 13.3124 13.8742 13.4062 12.7492C13.4999 12.7492 12.3749 14.2492 11.6249 14.2492Z" fill="#962C2C"/>
<path d="M13.5937 16.9688C13.5937 16.9688 18.1875 9.75004 29.0625 11.25L29.625 11.5313C29.625 11.5313 30 14.9063 29.9062 16.6875C29.7187 18.375 29.0625 23.4375 24.75 23.9063C20.4375 24.375 17.1562 22.9688 13.4062 16.875" fill="#962C2C"/>
<path d="M15.2812 16.9681C15.2812 16.9681 19.0312 10.9681 28.125 12.1868L28.5938 12.4681C28.5938 12.4681 28.9688 15.2806 28.7813 16.6868C28.5938 18.0931 28.125 22.3118 24.4688 22.6868C20.8125 23.0618 18.1875 21.9368 15 16.8743" fill="#E52E2E"/>
<path d="M12.6562 16.2187C12.6562 16.2187 18.5625 11.1562 15.8437 1.40625L15.5625 0.9375C15.5625 0.9375 12.375 1.03125 10.875 1.3125C9.37498 1.59375 4.87498 2.90625 4.96873 6.9375C5.06248 10.9688 6.74998 13.6875 12.75 16.3125M19.4062 18.5625C19.4062 18.5625 19.5937 23.4375 24.9375 23.0625C24.9375 23.0625 22.5 23.7188 19.125 22.5L19.4062 18.5625Z" fill="#962C2C"/>
<path d="M17.3438 16.7813C17.3438 16.7813 20.0625 12.4688 26.5312 13.3126L26.9062 13.5001C26.9062 13.5001 27.1875 15.5626 27.0937 16.5938C27 17.6251 26.625 20.6251 24 20.9063C21.375 21.1876 19.5 20.3438 17.25 16.7813" fill="#EF5858"/>
<path d="M13.6877 2.34375C13.6877 2.34375 16.8752 6.28125 13.9689 12.0938L13.6877 12.375C13.6877 12.375 11.7189 12 10.7814 11.5313C9.84394 11.1563 7.12519 9.75 7.68769 7.21875C8.25019 4.6875 9.65644 3.1875 13.7814 2.15625" fill="#E52E2E"/>
<path d="M10.6875 18.375C10.6875 18.375 12.0937 21.0937 10.6875 23.9062L9.28125 22.5938L10.6875 18.375Z" fill="#A3704D"/>
<path d="M14.156 19.9686C14.156 19.9686 14.7185 25.9686 11.531 27.0936C8.34353 28.2186 2.81228 28.3123 3.37478 21.9373C3.93728 15.5623 11.3435 18.0936 11.3435 18.0936L14.156 19.9686Z" fill="#734F36"/>
<path d="M13.4998 20.2491C13.4998 20.2491 13.9686 25.4991 11.1561 26.4366C8.34359 27.3741 3.56234 27.5616 4.03109 21.9366C4.49984 16.3116 11.0623 18.5616 11.0623 18.5616L13.4998 20.2491Z" fill="#A3704D"/>
<path d="M9.56273 6.18821C9.56273 6.18821 11.2502 12.8445 16.594 16.782C18.3752 18.0945 18.7502 20.532 17.4377 22.2195C17.1565 22.5945 16.7815 22.9695 16.3127 23.157C14.0627 24.1882 11.344 23.2507 8.90648 21.0007C6.46898 18.7507 1.78148 15.4695 2.53148 6.65696C2.53148 6.65696 8.81273 4.96946 9.56273 6.18821Z" fill="#734F36"/>
<path d="M16.219 20.6256C17.4378 21.4693 18.1878 22.9693 18.0003 24.4693C17.8128 26.2506 17.1565 28.4068 15.3753 28.9693C12.1878 30.0006 6.65651 30.1881 7.21901 23.9068C7.78151 17.6256 15.1878 20.0631 15.1878 20.0631L16.219 20.6256Z" fill="#734F36"/>
<path d="M8.99984 7.0322C8.99984 7.0322 10.5936 13.5009 15.9373 17.0634C16.8748 17.7197 17.4373 18.8447 17.2498 20.0634C17.0623 21.0009 16.6873 21.9384 15.7498 22.4072C13.6873 23.3447 11.2498 22.5009 9.09359 20.4384C6.93734 18.3759 2.62484 15.3759 3.28109 7.4072C3.28109 7.4072 8.24984 6.00095 8.99984 7.0322Z" fill="#A3704D"/>
<path d="M4.78131 2.34375C4.78131 2.34375 2.62506 2.34375 1.68756 3.9375C0.750055 5.53125 0.750056 8.15625 2.53131 9.5625C2.53131 9.5625 3.75006 10.2187 4.12506 9.75C4.50006 9.28125 4.87506 7.78125 4.87506 7.78125L4.78131 2.34375Z" fill="#734F36"/>
<path d="M4.21899 2.8125C4.21899 2.8125 2.81274 2.90625 2.06274 4.3125C1.31274 5.71875 1.21899 7.78125 2.71899 8.90625C2.71899 8.90625 3.75024 9.46875 4.03149 9C4.31274 8.625 4.59399 7.40625 4.59399 7.40625L4.21899 2.8125Z" fill="#A3704D"/>
<path d="M3.37513 7.40585C3.37513 7.40585 3.00013 9.46835 6.46888 10.0308C9.93763 10.5933 12.0001 10.0308 12.2814 9.1871C12.5626 8.2496 12.3751 7.78085 10.7814 6.5621C9.18763 5.34335 9.00013 2.4371 6.28138 2.0621C3.56263 1.6871 2.71888 4.59335 3.37513 7.40585Z" fill="#A3704D"/>
<path d="M4.12529 7.21881C4.12529 7.21881 3.84404 8.90631 6.75029 9.46881C9.65654 10.0313 11.344 9.46881 11.6253 8.71881C11.8128 7.96881 11.6253 7.59381 10.4065 6.56256C9.18779 5.53131 8.81279 3.09381 6.56279 2.71881C4.31279 2.34381 3.56279 4.87506 4.12529 7.21881ZM15.7503 21.0938C16.8753 21.8438 17.4378 23.1563 17.344 24.4688C17.1565 26.0626 16.594 27.8438 15.094 28.4063C12.2815 29.3438 7.50029 29.5313 7.96904 23.9063C8.43779 18.2813 15.0003 20.5313 15.0003 20.5313L15.7503 21.0938Z" fill="#A3704D"/>
<path opacity="0.53" d="M3.844 5.0625C3.844 5.0625 3.6565 7.3125 7.21899 8.0625C10.7815 8.8125 12.094 8.71875 12.094 8.71875C12.094 8.71875 11.8127 9.75 10.3127 9.84375C8.81275 9.9375 3.00025 11.1562 3.844 5.0625Z" fill="#A3704D"/>
<path opacity="0.46" d="M1.78118 4.21875C1.78118 4.21875 1.40618 7.59375 3.74993 7.6875C3.74993 7.6875 4.40618 8.34375 4.31243 8.71875C4.21868 9.09375 4.12493 9.5625 3.65618 9.5625C3.09368 9.65625 0.187432 8.71875 1.78118 4.21875Z" fill="#734F36"/>
<path d="M5.53112 4.12467C5.53112 3.84342 5.71862 3.56217 5.90612 3.37467C6.18737 3.28092 6.46862 3.37467 6.74987 3.56217C7.49987 3.93717 7.96862 4.68717 8.43737 5.34342C8.53112 5.53092 8.62487 5.71842 8.62487 5.90592C8.53112 6.18717 8.15611 6.28092 7.87486 6.28092C6.74986 6.37467 5.43737 5.34342 5.53112 4.12467ZM15.7499 17.4372C14.8124 16.5934 13.6874 16.1247 12.6561 15.3747C11.6249 14.5309 10.6874 13.4059 10.2186 12.1872C10.1249 11.9059 10.0311 11.7184 9.93737 11.5309C9.84362 11.3434 9.56237 11.1559 9.37487 11.0622C8.90612 10.9684 8.43736 11.4372 8.34361 11.9059C8.24986 12.3747 8.53111 12.9372 8.81236 13.3122L10.7811 16.4997C11.7186 17.8122 12.9374 19.1247 14.4374 19.5934C14.8124 19.6872 15.1874 19.7809 15.5624 19.6872C15.9374 19.5934 16.2186 19.3122 16.4061 19.0309C16.4999 18.3747 16.1249 17.8122 15.7499 17.4372Z" fill="#A3704D"/>
<path d="M6 9.84357C6 10.0311 5.90625 10.2186 5.90625 10.3123C5.625 10.9686 5.625 11.6248 5.71875 12.2811C6.09375 14.8123 7.3125 17.2498 8.90625 19.1248C9.09375 19.4061 9.375 19.5936 9.375 19.9686C9.375 20.2498 9.1875 20.6248 8.8125 20.6248C8.71875 20.6248 8.53125 20.5311 8.4375 20.3436L6 17.8123C5.25 17.0623 4.5 16.3123 4.03125 15.3748C3.28125 13.9686 3.1875 12.2811 3.09375 10.6873C3.09375 10.4061 3.09375 10.1248 3.1875 9.84357C3.28125 9.56232 3.46875 9.37482 3.75 9.18732C4.125 8.90607 4.59375 8.90607 4.96875 9.09357C5.25 9.18732 6 9.46857 6 9.84357Z" fill="#734F36"/>
<path d="M7.78125 20.8125C7.5 21.1875 7.125 21.5625 6.75 21.9375C6.09375 22.7813 5.90625 24 6.28125 24.9375C6.65625 25.7813 7.3125 26.3438 8.0625 26.9063C7.21875 27.2813 6.1875 27.2813 5.4375 26.7188C4.78125 26.25 4.3125 25.4063 4.03125 24.6563C3.84375 24.0938 3.65625 23.4375 3.65625 22.7813C3.65625 21.375 4.21875 20.0625 5.15625 19.125C5.4375 18.8438 5.8125 18.5625 6.1875 18.5625C6.84375 18.5625 7.21875 19.125 7.59375 19.5C8.0625 19.7813 8.0625 20.3438 7.78125 20.8125Z" fill="#734F36"/>
<path opacity="0.38" d="M8.90609 24.0005C9.09359 25.0317 9.56234 25.9692 10.4061 26.6255C11.0623 27.0942 11.9061 27.2817 12.7498 27.2817C13.5936 27.2817 14.4373 27.188 15.1873 27.0005C15.5623 26.9067 16.0311 27.0005 16.1248 27.2817C16.2186 27.563 16.0311 27.8442 15.7498 28.0317C14.9998 28.688 13.9686 28.9692 12.9373 29.063C11.9061 29.1567 10.9686 28.9692 9.93734 28.8755C9.46859 28.7817 8.99984 28.688 8.62484 28.5005C8.15609 28.2192 7.96859 27.6567 7.78109 27.188C7.31234 25.688 7.40609 24.0942 7.96859 22.688C8.06234 22.4067 8.62484 20.9067 8.99984 21.563C9.09359 21.7505 8.81234 22.5005 8.81234 22.688C8.81234 23.063 8.81234 23.5317 8.90609 24.0005Z" fill="#734F36"/>
<path d="M8.53125 20.1562C8.53125 20.1562 6.75 21.9375 6.09375 24.6562C5.4375 27.375 4.21875 24.8438 4.21875 24.8438C4.21875 24.8438 4.40625 26.8125 7.96875 27.1875C7.96875 27.1875 7.40625 22.4062 8.4375 20.9062L9 20.7188L8.53125 20.1562Z" fill="#A3704D"/>
<path d="M15.469 18.6567C15.469 18.6567 16.219 24.6567 13.1252 25.8755C9.93774 27.0942 4.50024 27.4692 4.78149 21.0942C5.06274 14.7192 12.6565 16.9692 12.6565 16.9692L15.469 18.6567Z" fill="#A3704D"/>
<path d="M14.8124 19.0311C14.8124 19.0311 15.4687 24.2811 12.7499 25.3123C10.0312 26.3436 5.15619 26.7186 5.43744 21.0936C5.71869 15.4686 12.3749 17.4373 12.3749 17.4373L14.8124 19.0311Z" fill="#FCC097"/>
<path d="M10.4062 5.15589C10.4062 5.15589 12.2812 11.7184 17.9062 15.5621C19.6874 16.7809 20.2499 19.2184 19.0312 20.9996C18.7499 21.3746 18.3749 21.7496 17.9062 21.9371C15.6562 23.0621 12.9374 22.2184 10.4062 19.9684C7.87494 17.7184 2.99994 14.6246 3.37494 5.81214C3.37494 5.81214 9.56244 3.93714 10.4062 5.15589Z" fill="#A3704D"/>
<path d="M17.6248 19.313C18.9373 20.1567 19.5935 21.563 19.4998 23.063C19.406 24.8442 18.8435 27.0005 17.0623 27.6567C13.8748 28.8755 8.43725 29.2505 8.7185 22.8755C8.99975 16.5005 16.5935 18.7505 16.5935 18.7505L17.6248 19.313Z" fill="#A3704D"/>
<path d="M9.84379 5.99966C9.84379 5.99966 11.7188 12.4684 17.1563 15.7497C18.1875 16.3122 18.6563 17.5309 18.5625 18.6559C18.4688 19.5934 18.0938 20.5309 17.1563 20.9997C15.0938 22.0309 12.6563 21.1872 10.4063 19.3122C8.15629 17.4372 3.75004 14.5309 4.12504 6.56216C4.12504 6.56216 9.09379 4.96841 9.84379 5.99966Z" fill="#FCC097"/>
<path d="M5.43728 1.40625C5.43728 1.40625 3.28103 1.5 2.43728 3.1875C1.59353 4.875 1.68728 7.40625 3.46853 8.71875C3.46853 8.71875 4.78103 9.375 5.06228 8.8125C5.34353 8.34375 5.71853 6.84375 5.71853 6.84375L5.43728 1.40625Z" fill="#A3704D"/>
<path d="M4.87517 1.96875C4.87517 1.96875 3.46892 2.15625 2.71892 3.5625C1.96892 4.96875 2.06267 7.03125 3.56267 8.0625C3.56267 8.0625 4.59392 8.53125 4.87517 8.15625C5.15642 7.78125 5.43767 6.46875 5.43767 6.46875L4.87517 1.96875Z" fill="#E8AB82"/>
<path d="M4.21877 6.56314C4.21877 6.56314 3.93752 8.62564 7.40627 9.09439C10.875 9.56314 12.9375 8.90689 13.125 7.96939C13.3125 7.03189 13.125 6.56314 11.5313 5.43814C9.93752 4.31314 9.56252 1.50064 6.84377 1.12564C4.12502 0.750639 3.46877 3.75064 4.21877 6.56314Z" fill="#A3704D"/>
<path d="M4.96855 6.37541C4.96855 6.37541 4.6873 8.06291 7.6873 8.43791C10.6873 8.81291 12.2811 8.25041 12.5623 7.50041C12.7498 6.75041 12.5623 6.37541 11.2498 5.34416C9.9373 4.31291 9.65605 1.96916 7.3123 1.78166C4.96855 1.59416 4.3123 4.03166 4.96855 6.37541Z" fill="#E8AB82"/>
<path d="M17.1562 19.7811C18.2812 20.5311 18.9374 21.7498 18.8437 23.1561C18.7499 24.7498 18.2812 26.6248 16.6874 27.1873C13.9687 28.2186 9.09369 28.5936 9.37494 22.9686C9.65619 17.3436 16.3124 19.3123 16.3124 19.3123L17.1562 19.7811Z" fill="#FCC097"/>
<path opacity="0.53" d="M4.59372 4.125C4.59372 4.125 4.49997 6.375 8.06247 7.03125C11.625 7.6875 12.9375 7.5 12.9375 7.5C12.9375 7.5 12.6562 8.53125 11.1562 8.625C9.65622 8.8125 3.93747 10.3125 4.59372 4.125Z" fill="#A3704D"/>
<path opacity="0.53" d="M2.53107 3.46875C2.53107 3.46875 2.24982 6.84375 4.59357 6.84375C4.59357 6.84375 5.24982 7.40625 5.15607 7.875C5.06232 8.34375 5.06232 8.71875 4.59357 8.71875C4.03107 8.8125 1.12482 7.96875 2.53107 3.46875Z" fill="#A3704D"/>
<path d="M6.28111 3.18765C6.28111 2.9064 6.37486 2.62515 6.65611 2.43765C6.93736 2.25015 7.21861 2.43765 7.49986 2.5314C8.24986 2.9064 8.71861 3.6564 9.18736 4.31265C9.28111 4.50015 9.37486 4.68765 9.37486 4.87515C9.37486 5.1564 8.99986 5.25015 8.71861 5.3439C7.49986 5.43765 6.18736 4.50015 6.28111 3.18765ZM16.9686 16.1251C16.0311 15.2814 14.8124 14.8126 13.7811 14.1564C12.6561 13.4064 11.8124 12.2814 11.2499 11.0626C11.1561 10.8751 11.0624 10.5939 10.8749 10.4064C10.6874 10.2189 10.4999 10.0314 10.2186 9.93765C9.74986 9.8439 9.28111 10.3126 9.18736 10.8751C9.18736 11.3439 9.37486 11.8126 9.74986 12.2814C9.74986 12.2814 10.9686 14.3439 11.9061 15.3751C12.9374 16.6876 14.1561 17.9064 15.6561 18.2814C16.0311 18.3751 16.4061 18.3751 16.7811 18.2814C17.1561 18.1876 17.4374 17.9064 17.5311 17.5314C17.7186 17.0626 17.3436 16.5001 16.9686 16.1251Z" fill="#FFE8D9"/>
<path opacity="0.3" d="M6.93766 8.90568C6.93766 9.09318 6.84391 9.28068 6.84391 9.37443C6.65641 10.0307 6.75016 10.6869 6.84391 11.3432C7.31266 13.8744 8.53141 16.2182 10.3127 18.0932C10.5002 18.3744 10.7814 18.5619 10.8752 18.9369C10.9689 19.3119 10.5939 19.6869 10.3127 19.5932C10.2189 19.5932 10.0314 19.4994 9.93766 19.4057L7.40641 16.9682C6.65641 16.2182 5.90641 15.5619 5.34391 14.6244C4.50016 13.2182 4.40641 11.5307 4.21891 9.93693C4.21891 9.65568 4.12516 9.37443 4.21891 9.09318C4.21891 8.71818 4.40641 8.53068 4.68766 8.34318C5.06266 8.06193 5.53141 8.06193 5.90641 8.15568C6.18766 8.24943 6.84391 8.53068 6.93766 8.90568Z" fill="#A3704D"/>
<path opacity="0.38" d="M9.09413 19.7812C8.81288 20.25 8.43788 20.5312 8.15663 20.9062C7.50038 21.75 7.31288 22.9687 7.78163 23.9062C8.15663 24.75 8.90663 25.3125 9.56288 25.7812C8.71913 26.25 7.68788 26.1562 6.93788 25.6875C6.18788 25.2187 5.81288 24.4688 5.43788 23.625C5.25038 23.0625 5.06288 22.4062 4.96913 21.75C4.87538 20.3438 5.43788 19.0312 6.37538 18C6.75038 17.8125 7.12538 17.5312 7.50038 17.5312C8.15663 17.5312 8.53163 18.0937 9.00038 18.375C9.37538 18.75 9.37538 19.3125 9.09413 19.7812Z" fill="#A3704D"/>
<path opacity="0.38" d="M10.4062 22.8751C10.5938 23.9064 11.1562 24.8439 12 25.4064C12.6562 25.8751 13.5937 25.9689 14.3437 25.9689C15.1875 25.9689 16.0312 25.7814 16.7812 25.5939C17.1562 25.5001 17.625 25.5001 17.7187 25.8751C17.8125 26.1564 17.625 26.4376 17.4375 26.6251C16.6875 27.2814 15.6562 27.6564 14.7187 27.7501C13.6875 27.8439 12.75 27.7501 11.7187 27.6564C11.25 27.5626 10.7812 27.5626 10.4062 27.2814C9.9375 27.0001 9.65625 26.5314 9.46875 25.9689C8.90625 24.5626 8.90625 22.8751 9.46875 21.4689C9.5625 21.1876 10.125 19.6876 10.5 20.2501C10.5937 20.4376 10.4062 21.1876 10.4062 21.3751C10.3125 22.0314 10.3125 22.5001 10.4062 22.8751Z" fill="#A3704D"/>
<path d="M9.84375 19.125C9.84375 19.125 8.15625 21 7.59375 23.7187C7.03125 26.4375 5.71875 24 5.71875 24C5.71875 24 6 25.9688 9.5625 26.25C9.5625 26.25 8.8125 21.4687 9.75 19.9687L10.3125 19.6875L9.84375 19.125Z" fill="#734F36"/>
<path d="M18.8437 16.5C18.8437 16.5 20.5313 18.2813 19.4063 23.625L17.5312 21.9375L18.8437 16.5Z" fill="#A3704D"/>
<path d="M18.1875 16.7812C18.1875 16.7812 19.875 18.5625 18.75 23.9063L16.875 22.2188L18.1875 16.7812Z" fill="#FCC097"/>
<path d="M14.3435 20.8128C15.0935 20.9066 15.9373 21.2816 16.3123 22.0316C16.781 22.9691 16.2185 24.0941 15.3748 24.5628C14.531 25.0316 13.3123 24.8441 12.5623 24.1878C12.0935 23.8128 11.7185 23.2503 11.6248 22.6878C11.156 21.0003 13.031 20.7191 14.3435 20.8128Z" fill="#FFE8D9"/>
<path d="M4.40625 25.875C4.40625 25.875 7.5 28.2188 8.4375 22.4062C8.4375 22.4062 8.71875 22.875 8.71875 23.0625C8.71875 23.25 7.3125 26.7188 9.65625 28.7813L7.96875 26.9063L8.15625 27.375C8.15625 27.375 7.5 27.4688 7.3125 27.375C7.03125 27.375 4.875 27.0938 4.40625 25.875Z" fill="#734F36"/>
</g>
<defs>
<clipPath id="clip0_47_48023">
<rect width="30" height="30" fill="white"/>
</clipPath>
</defs>
</svg>
