<svg width="32" height="32" viewBox="0 0 32 32" fill="none" xmlns="http://www.w3.org/2000/svg">
<path fill-rule="evenodd" clip-rule="evenodd" d="M16.733 18.3041H19.0168C19.5581 18.3041 20.0069 17.8641 20.0069 17.3174C20.0069 16.7574 19.5581 16.3174 19.0168 16.3174H16.733V14.0107C16.733 13.4641 16.2974 13.0241 15.7561 13.0241C15.2148 13.0241 14.766 13.4641 14.766 14.0107V16.3174H12.4954C11.9541 16.3174 11.5053 16.7574 11.5053 17.3174C11.5053 17.8641 11.9541 18.3041 12.4954 18.3041H14.766V20.6107C14.766 21.1574 15.2148 21.5974 15.7561 21.5974C16.2974 21.5974 16.733 21.1574 16.733 20.6107V18.3041ZM25.7844 12.0315C26.0947 12.028 26.4326 12.0241 26.7396 12.0241C27.0696 12.0241 27.3337 12.2907 27.3337 12.6241V23.3441C27.3337 26.6507 24.6802 29.3307 21.3931 29.3307H10.898C7.46567 29.3307 4.66699 26.5174 4.66699 23.0507V8.6774C4.66699 5.37073 7.33366 2.66406 10.6208 2.66406H17.6703C18.0135 2.66406 18.2776 2.94406 18.2776 3.2774V7.57073C18.2776 10.0107 20.271 12.0107 22.6868 12.0241C23.2511 12.0241 23.7486 12.0283 24.1839 12.032C24.5226 12.0348 24.8237 12.0374 25.0894 12.0374C25.2774 12.0374 25.5209 12.0346 25.7844 12.0315ZM26.147 10.0857C25.0618 10.0897 23.7826 10.0857 22.8625 10.0763C21.4024 10.0763 20.1998 8.86166 20.1998 7.387V3.87233C20.1998 3.29766 20.8902 3.01233 21.2849 3.427C21.9993 4.17721 22.981 5.20842 23.9582 6.23495C24.9331 7.25907 25.9036 8.27852 26.5998 9.00966C26.9853 9.41366 26.7028 10.0843 26.147 10.0857Z" fill="white"/>
</svg>
