<svg width="24" height="24" viewBox="0 0 24 24" fill="none" xmlns="http://www.w3.org/2000/svg">
<path d="M17.5947 10.9353C19.1971 10.9353 20.4969 9.6364 20.4969 8.03406C20.4969 6.43173 19.1971 5.13281 17.5947 5.13281" stroke="#EA4961" stroke-width="2" stroke-linecap="round" stroke-linejoin="round"/>
<path d="M18.9287 14.0859C19.4072 14.1189 19.883 14.1868 20.3514 14.2922C21.0022 14.4196 21.785 14.6864 22.0637 15.2703C22.2415 15.6443 22.2415 16.0797 22.0637 16.4546C21.786 17.0385 21.0022 17.3044 20.3514 17.4382" stroke="white" stroke-width="2" stroke-linecap="round" stroke-linejoin="round"/>
<path d="M6.28986 10.9353C4.68753 10.9353 3.3877 9.6364 3.3877 8.03406C3.3877 6.43173 4.68753 5.13281 6.28986 5.13281" stroke="#EA4961" stroke-width="2" stroke-linecap="round" stroke-linejoin="round"/>
<path d="M4.95565 14.0859C4.47715 14.1189 4.0014 14.1868 3.53298 14.2922C2.88215 14.4196 2.09931 14.6864 1.82156 15.2703C1.64281 15.6443 1.64281 16.0797 1.82156 16.4546C2.0984 17.0385 2.88215 17.3044 3.53298 17.4382" stroke="white" stroke-width="2" stroke-linecap="round" stroke-linejoin="round"/>
<path fill-rule="evenodd" clip-rule="evenodd" d="M11.9377 14.7109C15.1845 14.7109 17.9583 15.2023 17.9583 17.1685C17.9583 19.1339 15.2028 19.6435 11.9377 19.6435C8.68991 19.6435 5.91699 19.1522 5.91699 17.1859C5.91699 15.2197 8.67249 14.7109 11.9377 14.7109Z" stroke="white" stroke-width="2" stroke-linecap="round" stroke-linejoin="round"/>
<path fill-rule="evenodd" clip-rule="evenodd" d="M11.9374 11.9049C9.79602 11.9049 8.0791 10.188 8.0791 8.04575C8.0791 5.90442 9.79602 4.1875 11.9374 4.1875C14.0787 4.1875 15.7956 5.90442 15.7956 8.04575C15.7956 10.188 14.0787 11.9049 11.9374 11.9049Z" stroke="#EA4961" stroke-width="2" stroke-linecap="round" stroke-linejoin="round"/>
</svg>
