<svg width="30" height="30" viewBox="0 0 30 30" fill="none" xmlns="http://www.w3.org/2000/svg">
<g clip-path="url(#clip0_47_53377)">
<path d="M25.9688 2.15625L9.65625 3.09375L14.0625 29.25L29.25 25.9688L25.9688 2.15625Z" fill="#602718"/>
<path d="M15 18.4688C15 18.4688 14.8125 20.625 15.2812 22.7812L15.75 24.75C15.75 24.75 12.6562 24.5625 11.5312 23.5312C10.4062 22.5 8.71875 18.4688 8.71875 18.4688L9.84375 16.9688L15 18.4688Z" fill="#8E4028"/>
<path d="M1.49998 17.53C2.62498 22.78 7.87498 26.155 13.125 25.03C18.375 23.905 20.9062 18.7487 19.4062 13.4987C18.0937 9.1862 13.2187 5.4362 7.87498 6.65495C2.53123 7.8737 0.281228 12.28 1.49998 17.53Z" fill="#8E4028"/>
<path d="M1.49996 17.2505C2.62496 22.313 8.71871 27.3755 13.5937 26.3442C18.4687 25.313 20.4375 18.4692 19.3125 13.4067C18.2812 8.34421 14.5312 4.78171 8.43746 6.09421C3.56246 7.12546 0.468708 12.188 1.49996 17.2505Z" fill="#8E4028"/>
<path d="M14.6862 22.7105C18.2771 21.9234 20.532 18.2924 19.7228 14.6004C18.9136 10.9084 15.3466 8.55346 11.7557 9.34052C8.16487 10.1276 5.90992 13.7586 6.71915 17.4506C7.52839 21.1426 11.0954 23.4975 14.6862 22.7105Z" fill="#8E4028"/>
<path d="M4.31266 16.125C4.31266 16.125 4.12516 18.9375 5.15641 19.9687C6.18766 21 2.53141 21.8437 2.53141 21.8437C2.53141 21.8437 0.750157 19.0312 0.843907 17.25C0.937657 15.4687 4.31266 16.125 4.31266 16.125ZM8.62516 22.9688C7.31266 23.1562 10.4064 26.7187 11.9064 27C13.4064 27.2812 15.8439 26.9062 16.8752 26.3438C17.9064 25.7812 19.6877 21.6562 19.8752 20.4375L20.2502 18.1875C20.2502 18.1875 19.9689 18.375 19.3127 18.9375C18.0939 19.6875 15.5627 21.8438 8.62516 22.9688ZM13.1252 19.2188C13.1252 19.2188 10.8752 18.75 9.75016 19.5C9.75016 19.5 9.18766 20.25 9.56266 20.3438C9.93766 20.5313 10.4064 20.8125 10.5939 20.4375C10.9689 20.25 12.2814 19.3125 13.1252 19.2188ZM17.9064 17.1562C17.9064 17.1562 18.2814 15.6562 19.2189 15.4688C19.2189 15.4688 19.9689 15.5625 19.9689 15.8437C19.9689 16.125 20.0627 16.5938 19.6877 16.5C19.3127 16.5 18.1877 16.7812 17.9064 17.1562Z" fill="#8E4028"/>
<path d="M9.09375 22.9679L5.90625 22.0304L5.53125 23.6242C5.53125 23.6242 7.5 25.8742 10.875 26.5304L9.09375 22.9679ZM15.4688 17.0617L13.7812 17.6242L13.4062 16.4054L15.375 15.7492L15.4688 17.0617ZM12.4688 14.9992C12.4688 14.9992 10.875 14.1554 9.28125 14.8117C7.59375 15.4679 6.46875 17.1554 7.3125 17.4367C8.15625 17.7179 8.4375 16.8742 8.71875 16.2179C9 15.5617 10.2188 14.9054 11.7188 15.8429C11.7188 15.8429 12.375 15.5617 12.4688 14.9992ZM5.15625 10.3117C8.90625 8.53043 14.625 6.84293 18.0938 10.1242C16.6875 11.0617 13.7812 12.0929 13.7812 12.0929L12.6562 11.8117C9 10.4992 5.34375 11.9054 3.1875 13.0304C3.5625 11.8117 4.125 10.7804 5.15625 10.3117Z" fill="#8E4028"/>
<path d="M1.21875 10.0314L2.4375 13.2189C2.4375 13.2189 7.21875 9.46891 12.0937 11.1564L13.0312 11.4377C13.0312 11.4377 17.625 10.1252 17.9063 9.18766C17.9063 9.18766 18.75 7.78141 18 6.18766C18 6.18766 17.625 7.21891 17.5313 8.06266C17.5313 8.06266 17.1562 5.15641 14.9062 4.40641C14.9062 4.40641 15.2812 4.68766 15.2812 6.00016C15.2812 6.00016 11.25 3.56266 8.53125 3.93766C8.53125 3.93766 9.84375 4.87516 9.9375 6.28141C9.9375 6.28141 6.75 5.34391 3.65625 6.18766C3.65625 6.18766 4.125 7.03141 4.96875 7.68766C4.96875 7.59391 3 8.62516 1.21875 10.0314Z" fill="#8E4028"/>
<path d="M4.875 12.1875L6.75 13.6875C6.75 13.6875 5.25 16.7813 5.90625 19.7813L1.125 18.0937L1.3125 12.75C1.3125 12.8438 3.1875 12.4688 4.875 12.1875Z" fill="#8E4028"/>
<path d="M6.46875 18.6562C6.375 18.6562 4.21875 18.5625 4.21875 18.5625V19.125L6.65625 20.1562L6.28125 18.9375L6.46875 18.6562ZM1.6875 13.6875L6 13.7812C6 13.7812 5.71875 13.5 5.53125 14.8125L2.8125 15.375C2.71875 15.375 1.40625 15.1875 1.40625 15.1875L1.6875 13.6875ZM4.03125 6C4.03125 6 6 7.125 8.15625 7.21875L4.59375 8.90625C4.59375 8.90625 7.21875 9.1875 8.25 9.09375C9.28125 9 10.5 9.1875 10.5 9.1875L5.34375 10.5C5.34375 10.5 9.375 10.125 11.25 10.9687C11.25 10.9687 6.1875 10.4062 2.34375 13.3125L1.6875 13.125L0 10.7812C0 10.7812 2.15625 9.09375 3.5625 8.625L4.6875 7.96875L3.65625 6.09375L4.03125 6Z" fill="#8E4028"/>
<path d="M0.09375 10.6875L4.40625 10.125L2.34375 11.3438L6.46875 11.0625C6.46875 11.0625 4.40625 11.5312 3.65625 13.0312L3 13.3125L1.40625 13.125L0.09375 10.6875ZM18.1875 8.15625C18.1875 8.15625 16.9688 9.375 15.75 9.5625L10.3125 10.5938L12.8438 11.4375C12.8438 11.4375 16.5938 10.5 17.25 9.9375C18 9.28125 18.1875 8.15625 18.1875 8.15625ZM14.25 4.59375C14.25 4.59375 15.0938 6.84375 14.7188 8.34375C14.7188 8.34375 15.6562 6.84375 15.375 5.25C15.375 5.25 15.0938 4.59375 14.25 4.59375Z" fill="#8E4028"/>
<path d="M10.4064 4.03125C10.4064 4.03125 12.9377 4.59375 13.9689 5.8125C15.0002 7.03125 14.9064 7.78125 14.9064 7.78125C14.9064 7.78125 14.2502 6.28125 13.2189 5.90625C12.1877 5.53125 10.4064 4.03125 10.4064 4.03125ZM5.90645 6.09375C5.8127 6.09375 8.71895 5.71875 10.5939 6.84375C12.4689 7.96875 13.6877 8.4375 13.6877 8.4375L10.1252 7.5C10.1252 7.59375 7.3127 6.09375 5.90645 6.09375ZM4.21895 20.25C4.21895 20.25 2.6252 19.4062 1.8752 19.5937C1.1252 19.7812 0.843946 23.4375 3.65645 23.4375C6.5627 23.4375 4.21895 20.25 4.21895 20.25Z" fill="#8E4028"/>
<path d="M4.40626 20.5327C4.40626 20.5327 2.34376 18.6577 1.50001 18.9389C0.656261 19.2202 0.468761 24.0014 3.84376 23.9077C7.21876 23.9077 4.40626 20.5327 4.40626 20.5327Z" fill="#8E4028"/>
<path d="M3.93756 20.0617C3.93756 20.0617 2.62506 19.4992 1.96881 19.6867C1.31256 19.8742 1.12506 23.1555 3.56256 23.0617C6.00006 22.968 3.93756 20.0617 3.93756 20.0617Z" fill="#8E4028"/>
<path d="M4.31256 20.2492C4.31256 20.2492 3.00006 19.6867 2.34381 19.8742C1.68756 20.0617 1.50006 23.343 3.93756 23.2492C6.37506 23.1555 4.31256 20.2492 4.31256 20.2492ZM13.6876 25.218C14.9063 26.2492 17.3438 25.3117 17.0626 24.2805L13.6876 25.218Z" fill="#8E4028"/>
<path d="M10.5937 23.1562C11.0625 23.25 11.7187 23.3437 12.1875 23.25C14.25 23.0625 16.125 22.5937 18.0937 21.75C17.8125 21.9375 17.625 22.125 17.3437 22.2187C17.1562 22.6875 16.9688 23.25 16.9688 23.625C17.1562 23.625 17.3437 23.7187 17.7187 23.625C16.4062 24.5625 14.3437 25.0312 13.5 24.8437C12.8437 24.75 11.625 24.1875 10.4062 23.4375C10.4062 23.3437 10.5 23.25 10.5937 23.1562Z" fill="#8E4028"/>
<path d="M10.125 23.0625C10.2188 23.0625 10.2187 22.9688 10.3125 22.875H10.2187C10.3125 22.875 10.3125 22.7812 10.4063 22.7812C10.875 22.9687 11.625 23.0625 12.0937 23.0625C14.1562 22.875 16.0313 22.4062 18 21.4688V21.8437C17.7188 22.125 17.4375 22.2187 17.1562 22.3125C16.9687 22.875 16.9688 23.3438 16.9688 23.9063C17.1562 23.9063 17.3437 23.8125 17.625 23.625C16.4062 24.75 13.125 25.5938 12.1875 25.3125C11.625 25.125 11.25 24.2813 10.125 23.0625Z" fill="#8E4028"/>
<path d="M16.9688 22.5C16.875 22.875 16.6875 23.3437 16.7812 23.7187V23.8125C16.5937 23.9062 16.5 24 16.3125 24L14.7187 24.5625C14.4375 24.6563 13.875 24.75 13.5937 24.6562C13.125 24.5625 12.5625 24.2813 12.0937 24.0938L11.0625 23.5313C11.5312 23.625 11.9063 23.625 12.2813 23.625C13.875 23.3438 15.375 23.0625 16.9688 22.5Z" fill="#8E4028"/>
<path d="M16.9688 22.5C16.9688 22.7812 16.875 22.9688 16.7812 23.1563C16.6875 23.25 16.4062 23.3438 16.3125 23.4375C16.5 23.4375 16.6875 23.5312 16.7812 23.8125C16.0312 24.1875 13.7812 24.8437 12.9375 24.6562C12.6562 24.5625 12.375 24.5625 12.0937 24.4688C12.1875 24.375 12.9375 24.1875 13.125 24.0938C12.6562 24.0938 12.0937 24 11.9062 23.9062C11.8125 23.8125 11.625 23.7188 11.5312 23.5313H12.1875C13.875 23.3438 15.375 22.9688 16.9688 22.5Z" fill="#8E4028"/>
<path d="M16.8749 22.8743C16.8749 22.9681 16.7812 23.0618 16.7812 23.1556C16.6874 23.2493 16.4062 23.3431 16.3124 23.4368C16.4999 23.4368 16.6874 23.5306 16.7812 23.8118C16.1249 24.1868 14.6249 24.7493 13.7812 24.6556C13.4999 24.4681 13.3124 24.0931 13.2187 23.7181C14.4374 23.5306 15.5624 23.2493 16.8749 22.8743ZM8.24994 21.0931C9.09369 20.9056 10.0312 20.9993 10.6874 21.2806C11.5312 21.1868 11.9999 21.0931 12.5624 20.9056C13.8749 19.6868 13.1249 18.2806 12.1874 17.3431C11.8124 16.9681 11.1562 16.7806 10.5937 16.9681C9.09369 17.3431 8.06244 17.9993 7.68744 18.2806C7.49994 18.9368 7.40619 20.9056 8.24994 21.0931Z" fill="#8E4028"/>
<path d="M8.24982 21.0939C9.09357 21.0002 9.74982 21.0939 10.4061 21.2814C11.2498 21.0939 11.7186 21.0002 12.2811 20.7189C12.9373 19.8752 12.5623 18.4689 11.7186 17.8127C10.8748 17.7189 8.24982 18.4689 7.78107 19.1252C7.49982 19.7814 7.68732 20.7189 8.24982 21.0939Z" fill="#8E4028"/>
<path d="M12.4688 18.8457C12.2812 18.4707 11.625 17.627 11.25 17.3457C10.4062 17.252 8.4375 17.5332 7.96875 18.1895C7.875 18.4707 7.59375 19.6895 7.59375 19.9707C8.71875 20.7207 12.1875 20.4395 12.375 19.0332C12.4688 18.9395 12.4688 18.9395 12.4688 18.8457Z" fill="#8E4028"/>
<path d="M8.15625 18.8438C7.875 19.2188 7.78125 19.6875 7.78125 20.0625C7.875 20.4375 8.0625 20.8125 8.4375 21.0938C9 21.0938 9.5625 21.0938 10.125 21.1875C10.7812 20.8125 10.9688 20.1562 10.875 19.5937C10.7813 18.9375 10.2187 18.2812 9.375 18.2812C8.90625 18.4688 8.4375 18.6563 8.15625 18.8438Z" fill="#8E4028"/>
<path d="M9.18731 18.9369C8.71856 19.0307 8.34356 19.4994 8.43731 19.9682C8.53106 20.4369 8.99981 20.8119 9.46856 20.7182C9.93731 20.6244 10.3123 20.1557 10.2186 19.6869C10.1248 19.2182 9.65606 18.8432 9.18731 18.9369ZM16.4061 15.2807C16.1248 16.4994 16.4998 17.9057 17.1561 19.1244C17.9998 19.4994 19.5936 19.0307 20.2498 18.2807C20.4373 16.9682 20.0623 15.1869 19.0311 14.4369C18.0936 13.6869 16.6873 14.0619 16.4061 15.2807Z" fill="#8E4028"/>
<path d="M16.4064 15.7496C16.1252 16.7808 16.4065 18.4683 17.0627 19.5933C17.9065 19.5933 19.5002 19.0308 19.9689 18.3746C20.1564 17.2496 19.6877 15.6558 18.7502 14.9996C17.9065 14.2496 16.6877 14.6246 16.4064 15.7496Z" fill="#8E4028"/>
<path d="M16.4062 16.0323C16.2188 16.5011 16.2188 16.8761 16.4062 17.5323C17.4375 18.4698 19.875 18.0948 19.6875 16.0323C19.5 15.5636 19.2188 15.0948 18.8438 14.8136C17.9063 14.2511 16.6875 15.0011 16.4062 16.0323Z" fill="#8E4028"/>
<path d="M17.25 15.6556C16.3125 15.8431 16.0312 16.7806 16.125 17.6244C16.2187 18.3744 16.875 19.2181 17.8125 19.1244C18.75 18.9369 19.0312 17.9994 18.9375 17.1556C18.8437 16.4056 18.1875 15.5619 17.25 15.6556Z" fill="#8E4028"/>
<path d="M17.3436 16.405C16.8749 16.4987 16.5936 16.9675 16.6874 17.53C16.7811 18.0925 17.2499 18.4675 17.6249 18.3737C18.0936 18.28 18.3749 17.8112 18.2811 17.2487C18.2811 16.6862 17.8124 16.3112 17.3436 16.405Z" fill="#8E4028"/>
<path d="M17.0624 15.5611C16.5936 15.6549 16.3124 16.0299 16.4061 16.4049C16.4999 16.7799 16.8749 17.0611 17.3436 16.9674C17.8124 16.8736 18.0936 16.4986 17.9999 16.1236C17.9061 15.7486 17.5311 15.4674 17.0624 15.5611ZM8.4374 18.1861C7.96865 18.2799 7.6874 18.6549 7.78115 19.0299C7.8749 19.4049 8.2499 19.6861 8.71865 19.5924C9.1874 19.4986 9.46865 19.1236 9.3749 18.7486C9.28115 18.3736 8.90615 18.0924 8.4374 18.1861Z" fill="#8E4028"/>
<path d="M5.90625 19.0312L6.9375 21.1875C10.4063 21.8438 14.4375 19.9687 14.4375 19.9687C14.5312 18.8437 13.875 16.4062 13.875 16.4062C10.0313 16.7813 5.90625 19.0312 5.90625 19.0312ZM6.5625 19.5C6.5625 19.5 10.125 17.0625 13.3125 16.7812C13.3125 16.7812 13.9688 19.2188 13.875 20.1563C13.875 20.1563 10.5 21.8437 7.5 21.375L6.5625 19.5Z" fill="#8E4028"/>
<path d="M5.625 18.8423L6.9375 21.3736C10.4062 22.0298 14.4375 20.0611 14.4375 20.0611C14.5312 18.9361 13.6875 16.2173 13.6875 16.2173C9.9375 16.4986 5.625 18.8423 5.625 18.8423ZM6.46875 19.0298C6.46875 19.0298 10.125 16.9673 13.4062 16.7798C13.4062 16.7798 13.9688 18.9361 13.9688 19.8736C13.9688 19.8736 10.5938 21.5611 7.59375 21.0923L6.46875 19.0298ZM12.0937 15.1861L12.4688 14.9048C12.4688 14.9048 10.5 12.9361 8.71875 14.3423C6.9375 15.7486 6.9375 16.7798 6.9375 16.7798C6.9375 16.7798 9.09375 13.4048 12.0937 15.1861ZM21.375 15.4673L20.0625 15.2798L19.9687 14.9986C19.9687 14.9986 20.8125 14.7173 21.2813 14.8111L21.375 15.4673Z" fill="#8E4028"/>
<path d="M19.0312 14.8125L21.0938 14.5312L21.1875 17.625L19.875 18.2812C19.875 18.2812 19.7812 15.4688 19.0312 14.8125Z" fill="#B79576"/>
<path d="M14.8125 18.2812C14.8125 18.2812 14.625 20.3437 15.0938 22.3125L15.5625 24.1875C15.5625 24.1875 12.6562 24 11.625 23.0625C10.5937 22.125 9 18.2812 9 18.2812L10.0312 16.875L14.8125 18.2812Z" fill="#FCC097"/>
<path d="M2.15629 17.8124C3.28129 22.7811 8.06254 25.5936 13.0313 24.4686C18 23.3436 20.25 18.4686 18.75 13.4999C17.5313 9.46861 13.0313 5.99986 8.06254 7.12486C3.09379 8.24986 1.03129 12.8436 2.15629 17.8124Z" fill="#E8BD89"/>
<path d="M2.06238 17.1542C3.09363 21.9355 8.81238 26.7167 13.4999 25.6855C18.1874 24.6542 19.9686 18.2792 18.9374 13.498C17.9061 8.81047 14.5311 6.09172 8.81238 7.40422C4.12488 8.34172 1.03113 12.373 2.06238 17.1542Z" fill="#E8BD89"/>
<path d="M14.4992 22.2496C17.8878 21.5068 20.0147 18.0758 19.2498 14.5861C18.4849 11.0964 15.1178 8.86949 11.7293 9.61222C8.34072 10.3549 6.21382 13.786 6.97871 17.2757C7.7436 20.7654 11.1106 22.9923 14.4992 22.2496Z" fill="#FFD097"/>
<path d="M4.68736 16.1252C4.68736 16.1252 4.49986 18.8439 5.53111 19.7814C6.56236 20.7189 2.99986 21.5627 2.99986 21.5627C2.99986 21.5627 1.31236 18.8439 1.40611 17.2502C1.59361 15.5627 4.68736 16.1252 4.68736 16.1252Z" fill="#63310F"/>
<path d="M8.71891 22.5C7.50016 22.6875 10.4064 26.0625 11.8127 26.25C13.2189 26.5312 15.5627 26.1562 16.5002 25.5937C17.4377 25.0312 19.1252 21.1875 19.4064 19.9687L19.6877 18.4688C19.6877 18.4688 19.5002 18.4688 18.8439 18.9375C17.7189 19.875 15.2814 21.4687 8.71891 22.5Z" fill="#D8B18B"/>
<path d="M13.0313 19.0312C13.0313 19.0312 10.9688 18.5625 9.84377 19.3125C9.84377 19.3125 9.37502 19.9688 9.65627 20.1562C10.0313 20.3438 10.4063 20.625 10.6875 20.25C10.9688 19.875 12.1875 19.125 13.0313 19.0312ZM17.5313 17.0625C17.5313 17.0625 17.8125 15.6562 18.75 15.4688C18.75 15.4688 19.4063 15.5625 19.5 15.8437C19.5938 16.125 19.5938 16.5 19.3125 16.5C18.8438 16.4063 17.8125 16.6875 17.5313 17.0625Z" fill="#343F3D"/>
<path d="M18.1875 11.25C18.1875 11.25 17.3438 10.0312 14.9062 11.4375L15.8438 8.625C15.8438 8.625 17.3438 9.375 18.1875 11.1562" fill="#E5895B"/>
<path d="M9.1875 22.5L6.1875 21.5625L5.8125 23.0625C5.8125 23.0625 7.59375 25.125 10.875 25.7812L9.1875 22.5Z" fill="#B79576"/>
<path d="M15.2812 16.9688L13.6875 17.5313L13.3125 16.3125L15.0938 15.75L15.2812 16.9688Z" fill="#343F3D"/>
<path d="M12.375 15.0002C12.375 15.0002 10.875 14.1564 9.375 14.8127C7.78125 15.4689 6.65625 17.0627 7.5 17.2502C8.34375 17.4377 8.625 16.7814 8.90625 16.2189C9.1875 15.6564 10.3125 15.0002 11.7188 15.8439C11.625 15.8439 12.375 15.5627 12.375 15.0002ZM19.6875 12.8439C19.6875 12.8439 18.0938 12.1877 16.5 12.8439C14.9063 13.5002 13.9687 14.8127 14.7187 15.0002C15.4687 15.1877 15.9375 14.7189 16.2188 14.0627C16.5 13.5002 18 12.1877 19.3125 13.0314C19.3125 13.1252 19.5938 13.4064 19.6875 12.8439ZM5.4375 10.5939C9 8.90642 14.625 7.03142 17.9063 10.0314C16.5938 10.9689 13.5938 12.2814 13.5938 12.2814L12.5625 12.0002C9.09375 10.7814 5.71875 12.0939 3.65625 13.2189C3.9375 12.0939 4.5 11.0627 5.4375 10.5939Z" fill="#63310F"/>
<path d="M1.78125 10.3127L3 13.3127C3 13.3127 7.5 9.75016 12.0938 11.3439L12.9375 11.6252C12.9375 11.6252 17.25 10.3127 17.5313 9.46891C17.5313 9.46891 18.2812 8.15641 17.625 6.65641C17.625 6.65641 17.25 7.59391 17.1563 8.43766C17.1563 8.43766 16.7813 5.62516 14.7188 5.06266C14.7188 5.06266 15.0938 5.34391 15 6.56266C15 6.56266 12 4.12516 9.46875 4.50016C9.46875 4.50016 10.6875 5.53141 10.7813 6.84391C10.7813 6.84391 6.9375 6.00016 4.03125 6.75016C4.03125 6.75016 4.5 7.50016 5.25 8.15641C5.34375 8.06266 3.46875 9.00016 1.78125 10.3127Z" fill="url(#paint0_linear_47_53377)"/>
<path d="M5.25 12.375L7.03125 13.7812C7.03125 13.7812 5.625 16.7812 6.28125 19.5L1.78125 17.9063L1.875 12.9375L5.25 12.375Z" fill="#63310F"/>
<path d="M6.75 18.4688C6.65625 18.4688 4.59375 18.375 4.59375 18.375V18.9375L6.9375 19.9687L6.5625 18.75L6.75 18.4688Z" fill="#343F3D"/>
<path d="M2.25 13.7812L6.28125 13.875C6.28125 13.875 6 13.5938 5.8125 14.8125L3.1875 15.2812C3.09375 15.2812 1.96875 15.0938 1.96875 15.0938L2.25 13.7812Z" fill="url(#paint1_linear_47_53377)"/>
<path d="M4.40625 6.5625C4.40625 6.5625 6.1875 7.59375 8.25 7.6875L4.96875 9.28125C4.96875 9.28125 7.40625 9.5625 8.4375 9.46875C9.375 9.375 10.5938 9.5625 10.5938 9.5625L5.8125 10.7812C5.8125 10.7812 9.5625 10.4062 11.4375 11.1562C11.4375 11.1562 6.65625 10.5937 3.09375 13.3125L2.34375 13.125L0.9375 10.875C0.9375 10.875 2.71875 9.375 4.125 8.90625L5.0625 8.34375L4.125 6.5625H4.40625Z" fill="#B85A1B"/>
<path d="M0.65625 10.9688L4.6875 10.5L2.8125 11.7188L6.75 11.5313C6.75 11.5313 4.78125 12 4.125 13.4063L3.46875 13.6875L1.96875 13.5L0.65625 10.9688Z" fill="#63310F"/>
<path d="M17.8125 8.625C17.8125 8.625 16.5938 9.75 15.5625 9.9375L10.4062 10.875L12.8437 11.625C12.8437 11.625 16.4062 10.7812 16.9688 10.125C17.5312 9.46875 17.8125 8.625 17.8125 8.625ZM14.7187 4.96875C14.7187 4.96875 15.5625 7.03125 15.0938 8.53125C15.0938 8.53125 15.9375 7.125 15.75 5.625C15.75 5.53125 15.5625 4.96875 14.7187 4.96875Z" fill="#B85A1B"/>
<path d="M10.4999 4.6875C10.4999 4.6875 12.9374 5.25 13.7812 6.375C14.6249 7.5 14.6249 8.25 14.6249 8.25C14.6249 8.25 13.9687 6.84375 13.1249 6.46875C12.1874 6.09375 10.4999 4.6875 10.4999 4.6875ZM6.18742 6.65625C6.09367 6.65625 8.81242 6.28125 10.5937 7.40625C12.3749 8.53125 13.4999 8.90625 13.4999 8.90625L10.1249 8.0625C10.1249 8.0625 7.49992 6.65625 6.18742 6.65625Z" fill="#FFBA7B"/>
<path d="M4.68753 19.9686C4.68753 19.9686 3.18753 19.1248 2.53128 19.3123C1.87503 19.4998 1.50003 22.9686 4.21878 22.9686C6.93753 22.9686 4.68753 19.9686 4.68753 19.9686Z" fill="#63310F"/>
<path d="M4.78112 20.2489C4.78112 20.2489 2.90612 18.4676 2.06237 18.7489C1.21862 19.0301 1.12487 23.5301 4.31237 23.4364C7.49987 23.3426 4.78112 20.2489 4.78112 20.2489Z" fill="#E8BD89"/>
<path d="M4.40601 19.7805C4.40601 19.7805 3.18726 19.218 2.62476 19.4055C2.06226 19.593 1.78101 22.593 4.12476 22.4992C6.37476 22.4055 4.40601 19.7805 4.40601 19.7805Z" fill="#C18053"/>
<path d="M4.68767 19.968C4.68767 19.968 3.46892 19.4055 2.90642 19.593C2.34392 19.7805 2.15642 22.8742 4.40642 22.6867C6.65642 22.593 4.68767 19.968 4.68767 19.968Z" fill="#CE9D67"/>
<path d="M13.5938 24.6562C14.7188 25.5938 17.0625 24.75 16.7812 23.7188L13.5938 24.6562Z" fill="#FFBC8F"/>
<path d="M10.5938 22.6875C11.0625 22.7813 11.625 22.875 12.0937 22.7812C14.0625 22.5938 15.75 22.125 17.7187 21.375C17.4375 21.5625 17.25 21.75 16.9688 21.8438C16.7813 22.3125 16.5938 22.7813 16.5938 23.1563C16.7813 23.1563 16.9687 23.25 17.25 23.1563C16.0312 24 14.0625 24.4688 13.2188 24.2813C12.6563 24.1875 11.4375 23.625 10.3125 22.9688C10.5 22.875 10.5938 22.7813 10.5938 22.6875Z" fill="#9A4C18"/>
<path d="M10.2188 22.5938C10.3125 22.5938 10.3125 22.5 10.4063 22.4062H10.3125C10.4063 22.4062 10.4063 22.3125 10.5 22.3125C10.9688 22.5 11.625 22.5938 12.0938 22.5938C14.0625 22.4063 15.75 21.9375 17.625 21.0938V21.4687C17.3437 21.75 17.0625 21.8437 16.7812 21.9375C16.5938 22.5 16.5938 22.9688 16.5938 23.4375C16.7813 23.4375 16.9688 23.3437 17.25 23.25C16.0312 24.375 12.9375 25.0312 12.1875 24.8438C11.625 24.5625 11.25 23.7188 10.2188 22.5938Z" fill="#63310F"/>
<path d="M16.5938 22.125C16.5 22.5 16.4062 22.875 16.4062 23.25V23.3437C16.3125 23.3437 16.125 23.4375 15.9375 23.4375C15.4688 23.625 14.9062 23.8125 14.4375 23.9062C14.1562 24 13.6875 24.0938 13.3125 24C12.8438 23.9062 12.2812 23.625 11.9062 23.4375C11.625 23.25 11.25 23.1562 10.9688 22.9687C11.3438 23.0625 11.8125 23.0625 12.0937 23.0625C13.6875 22.875 15.1875 22.5938 16.5938 22.125Z" fill="#792936"/>
<path d="M16.5938 22.125C16.5938 22.3125 16.5 22.5938 16.4062 22.6875C16.3125 22.7813 16.0312 22.875 15.9375 22.9687C16.125 22.9687 16.2187 23.0625 16.3125 23.25C15.5625 23.625 13.5 24.1875 12.75 24.0938C12.4688 24 12.2812 24 12 23.9062C12.0938 23.8125 12.8437 23.625 13.0312 23.625C12.5625 23.625 12.0937 23.5312 11.9062 23.4375C11.8125 23.3437 11.625 23.25 11.5312 23.0625H12.1875C13.6875 22.875 15.1875 22.5938 16.5938 22.125Z" fill="url(#paint2_linear_47_53377)"/>
<path d="M16.5938 22.4062C16.5938 22.5 16.5 22.5938 16.5 22.6875C16.4063 22.7813 16.125 22.875 16.0313 22.9688C16.2188 22.9688 16.3125 23.0625 16.4063 23.25C15.75 23.625 14.3437 24.0938 13.5 24.0938C13.3125 23.9063 13.125 23.625 13.0312 23.25C14.25 23.0625 15.2813 22.7812 16.5938 22.4062Z" fill="url(#paint3_linear_47_53377)"/>
<path d="M8.4376 20.8118C9.28135 20.6243 10.1251 20.8118 10.6876 20.9993C11.5313 20.9056 11.9063 20.8118 12.4688 20.6243C13.6876 19.4993 13.0313 18.1868 12.0938 17.2493C11.7188 16.8743 11.1563 16.6868 10.5938 16.8743C9.1876 17.2493 8.15635 17.8118 7.78135 18.0931C7.6876 18.7493 7.6876 20.6243 8.4376 20.8118Z" fill="#343F3D"/>
<path d="M8.43741 20.8137C9.18741 20.7199 9.84366 20.8137 10.4999 21.0012C11.3437 20.8137 11.7187 20.7199 12.1874 20.4387C12.7499 19.5949 12.4687 18.2824 11.6249 17.7199C10.7812 17.6262 8.53116 18.2824 8.06241 18.9387C7.78116 19.5949 8.06241 20.4387 8.53116 20.8137H8.43741Z" fill="url(#paint4_linear_47_53377)"/>
<path d="M12.3752 18.6545C12.2814 18.2795 11.5314 17.4357 11.2502 17.2482C10.4064 17.1545 8.62516 17.4357 8.15641 17.9982C8.06266 18.2795 7.87516 19.4982 7.96891 19.6857C9.00016 20.4357 12.0939 20.0607 12.3752 18.7482V18.6545Z" fill="white"/>
<path d="M8.34375 18.6563C8.0625 19.0313 7.96875 19.4063 8.0625 19.7813C8.15625 20.1563 8.34375 20.5313 8.625 20.7188C9.1875 20.7188 9.75 20.7188 10.2187 20.8125C10.7812 20.5313 11.0625 19.875 10.9687 19.3125C10.875 18.75 10.3125 18.0938 9.5625 18.0938C9 18.2812 8.625 18.4688 8.34375 18.6563Z" fill="#343F3D"/>
<path d="M9.28115 18.7487C8.8124 18.8424 8.53115 19.2174 8.6249 19.6862C8.71865 20.1549 9.09365 20.4362 9.5624 20.4362C10.0311 20.3424 10.3124 19.9674 10.2186 19.4987C10.1249 19.0299 9.7499 18.6549 9.28115 18.7487ZM16.1249 15.2799C15.8436 16.4049 16.2186 17.8112 16.8749 18.9362C17.6249 19.3112 19.3124 18.8424 19.9686 18.1862C20.1561 16.9674 19.5936 15.1862 18.6561 14.4362C17.7186 13.7799 16.4061 14.1549 16.1249 15.2799Z" fill="#343F3D"/>
<path d="M16.1252 15.6559C15.844 16.5934 16.1252 18.2809 16.7814 19.2184C17.5314 19.2184 19.1252 18.6559 19.5002 18.0934C19.6877 17.0622 19.2189 15.5622 18.3752 14.9059C17.5314 14.3434 16.4065 14.6247 16.1252 15.6559Z" fill="url(#paint5_linear_47_53377)"/>
<path d="M16.1249 16.0308C16.0311 16.4995 15.9374 16.7808 16.1249 17.437C17.0624 18.3745 19.4061 17.9995 19.2186 16.0308C19.0311 15.562 18.7499 15.187 18.3749 14.9058C17.5311 14.3433 16.4061 14.9995 16.1249 16.0308Z" fill="white"/>
<path d="M16.8751 15.6564C16.0314 15.7502 15.7501 16.7814 15.8439 17.4377C15.9376 18.1877 16.5939 18.9377 17.4376 18.8439C18.2814 18.7502 18.5626 17.7189 18.4689 17.0627C18.3751 16.3127 17.7189 15.5627 16.8751 15.6564Z" fill="#343F3D"/>
<path d="M17.0626 16.3112C16.6876 16.405 16.4064 16.8737 16.5001 17.3425C16.5939 17.905 16.9689 18.28 17.4376 18.1862C17.8126 18.0925 18.0939 17.6237 18.0001 17.155C17.8126 16.5925 17.4376 16.2175 17.0626 16.3112Z" fill="#343F3D"/>
<path d="M16.6874 15.4688C16.3124 15.5625 15.9374 15.9375 16.0312 16.3125C16.1249 16.6875 16.4999 16.9688 16.8749 16.875C17.2499 16.7812 17.6249 16.4063 17.5312 16.0313C17.5312 15.6563 17.1562 15.4688 16.6874 15.4688ZM8.62492 18C8.24992 18.0938 7.87492 18.4688 7.96867 18.8438C8.06242 19.2188 8.43742 19.5 8.81242 19.4063C9.18742 19.3125 9.56242 18.9375 9.46867 18.5625C9.46867 18.1875 9.09367 18 8.62492 18Z" fill="#FFFFFC"/>
<path d="M6.1875 18.8429L7.125 20.9054C10.4062 21.5617 14.1562 19.7804 14.1562 19.7804C14.25 18.6554 13.5938 16.4054 13.5938 16.4054C10.0313 16.6867 6.1875 18.8429 6.1875 18.8429ZM6.84375 19.3117C6.84375 19.3117 10.2188 16.9679 13.2188 16.7804C13.2188 16.7804 13.7812 19.0304 13.6875 19.9679C13.6875 19.9679 10.5 21.5617 7.6875 21.0929L6.84375 19.3117ZM15 16.2179L15.5625 19.1242C18.75 19.5929 21.1875 17.6242 21.1875 17.6242C21.375 16.6867 21.2812 14.9054 21.2812 14.9054C19.2188 14.3429 15 16.2179 15 16.2179ZM15.4688 16.8742C15.4688 16.8742 19.2188 14.4367 21.0938 14.7179C21.0938 14.7179 21.0937 16.9679 20.9062 17.8117C20.9062 17.8117 18.4688 19.5929 15.9375 19.2179L15.4688 16.8742Z" fill="white"/>
<path d="M6 18.6573L7.21875 21.0011C10.5 21.6573 14.3438 19.7823 14.3438 19.7823C14.4375 18.6573 13.6875 16.1261 13.6875 16.1261C10.0313 16.4073 6 18.6573 6 18.6573ZM6.75 18.8448C6.75 18.8448 10.2188 16.9698 13.2188 16.6886C13.2188 16.6886 13.7813 18.7511 13.6875 19.5948C13.6875 19.5948 10.5 21.1886 7.6875 20.7198L6.75 18.8448ZM14.9062 15.8448L15.5625 19.3136C18.75 19.7823 21.2813 17.6261 21.2813 17.6261C21.4688 16.6886 21.375 14.4386 21.375 14.4386C19.2188 14.0636 14.9062 15.8448 14.9062 15.8448ZM15.4688 16.2198C15.4688 16.2198 19.2188 14.6261 21.0938 14.9073C21.0938 14.9073 21.0938 16.7823 20.9062 17.5323C20.9062 17.5323 18.4688 19.3136 15.8438 18.9386L15.4688 16.2198Z" fill="#343F3D"/>
<path d="M12 15.1881L12.375 14.9069C12.375 14.9069 10.5 13.1256 8.90625 14.3444C7.3125 15.5631 7.21875 16.6881 7.21875 16.6881C7.21875 16.6881 9.1875 13.5006 12 15.1881Z" fill="url(#paint6_linear_47_53377)"/>
<path d="M19.3125 13.2194L19.6875 12.9381C19.6875 12.9381 17.8125 11.1569 16.2187 12.3756C14.5312 13.6881 14.5312 14.7194 14.5312 14.7194C14.5312 14.7194 16.5 11.5319 19.3125 13.2194Z" fill="url(#paint7_linear_47_53377)"/>
<path d="M20.8125 15.4687L19.5 15.2812L19.4062 15C19.4062 15 20.1562 14.8125 20.625 14.8125L20.8125 15.4687Z" fill="#E8BD89"/>
<path d="M6 21.2812C6 21.2812 6 22.875 4.96875 23.4375V23.625L5.625 23.7187C5.625 23.7187 6.46875 22.9688 6 21.2812Z" fill="#8E4028"/>
<path d="M25.9688 2.25L11.8125 3.84375L15.4687 28.0312L29.25 25.7812L25.9688 2.25Z" fill="#8F672F"/>
<path d="M20.0625 15.6562L15 16.2187L16.3125 24.9375L21.2813 24.1875L20.0625 15.6562Z" fill="#9E7544"/>
<path d="M18.75 14.9989L16.2187 15.2801C15.8437 15.2801 15.6562 15.6551 15.6562 15.9364L16.3125 20.5301C16.4062 20.8114 16.6875 21.0926 16.9687 20.9989L19.5 20.6239C19.7812 20.5301 20.0625 20.2489 19.9687 19.9676L19.4062 15.4676C19.3125 15.1864 19.0312 14.9051 18.75 14.9989Z" fill="#C9D1CD"/>
<path d="M26.25 14.8125L21.0937 15.375L22.4062 24.0938L27.375 23.25L26.25 14.8125ZM18.75 6L13.6875 6.5625L14.7187 14.25L19.6875 13.5L18.75 6ZM24.8438 5.0625L19.7812 5.71875L21.0937 14.4375L26.0625 13.5938L24.8438 5.0625Z" fill="#9E7544"/>
<path d="M13.8752 24.0949L16.6877 23.6262C17.1565 23.5324 17.5315 23.1574 17.5315 22.6887C17.5315 22.1262 17.1565 21.6574 16.594 21.5637L13.594 21.1887C12.844 21.0949 12.2815 21.7512 12.469 22.4074L12.7502 23.4387C12.9377 24.0012 13.4065 24.1887 13.8752 24.0949Z" fill="#8E4028"/>
<path d="M14.0627 25.7824L16.8752 25.3137C17.344 25.2199 17.719 24.8449 17.719 24.3762C17.719 23.8137 17.344 23.3449 16.7815 23.2512L13.7815 22.8762C13.0315 22.7824 12.469 23.4387 12.6565 24.0949L12.9377 25.1262C13.1252 25.6887 13.594 25.8762 14.0627 25.7824Z" fill="#8E4028"/>
<path d="M14.2502 27.6574L17.0627 27.1887C17.5315 27.0949 17.9065 26.7199 17.9065 26.2512C17.9065 25.6887 17.5315 25.2199 16.969 25.1262L14.0627 24.8449C13.3127 24.7512 12.7502 25.4074 12.9377 26.0637L13.219 27.0949C13.4065 27.4699 13.8752 27.7512 14.2502 27.6574Z" fill="#8E4028"/>
<path d="M14.0623 23.8111L16.2185 23.4361C16.5935 23.3424 16.8748 23.0611 16.8748 22.6861C16.8748 22.2174 16.5935 21.8424 16.1248 21.8424L13.781 21.5611C13.2185 21.4674 12.7498 22.0299 12.8435 22.4986C12.9373 22.7799 12.9373 23.0611 13.1248 23.3424C13.3123 23.7174 13.6873 23.9049 14.0623 23.8111Z" fill="#FFD097"/>
<path d="M14.2498 25.5924L16.406 25.2174C16.781 25.1236 17.0623 24.8424 17.0623 24.4674C17.0623 23.9986 16.781 23.6236 16.3123 23.6236L14.0623 23.3424C13.4998 23.2486 13.031 23.8111 13.1248 24.2799C13.2185 24.5611 13.2185 24.8424 13.406 25.1236C13.4998 25.4986 13.8748 25.6861 14.2498 25.5924Z" fill="#FFD097"/>
<path d="M14.531 27.3736L16.6873 26.9986C17.0623 26.9049 17.3435 26.6236 17.3435 26.2486C17.3435 25.7799 17.0623 25.4049 16.5935 25.4049L14.2498 25.1236C13.6873 25.0299 13.2185 25.5924 13.3123 26.0611C13.406 26.3424 13.406 26.6236 13.5935 26.9049C13.781 27.2799 14.156 27.4674 14.531 27.3736Z" fill="#FFD097"/>
<path d="M16.7814 23.1563L13.1252 23.0625C13.1252 23.0625 12.8439 23.3438 13.2189 23.625C13.5939 23.9063 16.3127 23.625 16.3127 23.625L16.7814 23.1563Z" fill="#D8B18B"/>
<path d="M17.1564 24.9375L13.5002 24.75C13.5002 24.75 13.2189 25.0313 13.5939 25.3125C13.9689 25.5938 16.6877 25.3125 16.6877 25.3125C16.6877 25.3125 17.0627 25.125 17.1564 24.9375Z" fill="#D8B18B"/>
<path d="M17.1564 26.8125L13.5002 26.625C13.5002 26.625 13.2189 26.9063 13.5939 27.1875C13.9689 27.4688 16.6877 27.1875 16.6877 27.1875C16.6877 27.1875 17.0627 27 17.1564 26.8125Z" fill="#D8B18B"/>
<path d="M13.3125 7.96992L16.5 7.59492C17.0625 7.50117 17.4375 7.12617 17.5312 6.65742C17.5312 6.09492 17.1562 5.62617 16.5 5.53242L13.0312 5.06367C12.1875 4.96992 11.5312 5.62617 11.7187 6.28242C11.8125 6.65742 11.9062 7.03242 12.0937 7.31367C12.1875 7.78242 12.75 8.06367 13.3125 7.96992Z" fill="#8E4028"/>
<path d="M13.6875 10.3137L16.875 9.93867C17.4375 9.84492 17.8125 9.46992 17.9062 9.00117C17.9062 8.43867 17.5312 7.96992 16.875 7.87617L13.4062 7.40742C12.5625 7.31367 11.9062 7.96992 12.0937 8.62617C12.1875 9.00117 12.2812 9.37617 12.4687 9.65742C12.6562 10.1262 13.125 10.3137 13.6875 10.3137Z" fill="#8E4028"/>
<path d="M14.0625 12.5637L17.25 12.1887C17.8125 12.0949 18.1875 11.7199 18.2812 11.2512C18.2812 10.6887 17.9062 10.2199 17.25 10.1262L13.7812 9.65742C12.9375 9.56367 12.2812 10.2199 12.4687 10.8762C12.5625 11.2512 12.6562 11.6262 12.8437 11.9074C13.0312 12.3762 13.5 12.6574 14.0625 12.5637Z" fill="#8E4028"/>
<path d="M13.5002 8.06108L15.8439 7.68608C16.2189 7.59233 16.5939 7.31108 16.5939 6.93608C16.5939 6.46733 16.3127 6.09233 15.8439 5.99858L13.3127 5.62358C12.7502 5.52983 12.1877 6.09233 12.3752 6.65483L12.6564 7.49858C12.7502 7.96733 13.1252 8.15483 13.5002 8.06108Z" fill="#FFD097"/>
<path d="M13.7814 9.93608L16.1252 9.56108C16.5002 9.46733 16.8752 9.18608 16.8752 8.81108C16.8752 8.34233 16.5939 7.96733 16.1252 7.87358L13.5939 7.49858C13.0314 7.40483 12.4689 7.96733 12.6564 8.52983L12.9377 9.37358C13.0314 9.84233 13.4064 10.0298 13.7814 9.93608Z" fill="#FFD097"/>
<path d="M14.0627 11.8111L16.4064 11.4361C16.7814 11.3423 17.1564 11.0611 17.1564 10.6861C17.1564 10.2173 16.8752 9.84233 16.4064 9.74858L13.8752 9.37358C13.3127 9.27983 12.7502 9.84233 12.9377 10.4048L13.2189 11.2486C13.2189 11.7173 13.6877 11.9048 14.0627 11.8111Z" fill="#FFD097"/>
<path d="M17.0627 11.1562L13.2189 10.9687C13.2189 10.9687 12.9377 11.25 13.3127 11.5312C13.6877 11.8125 16.5939 11.5312 16.5939 11.5312C16.5939 11.5312 16.9689 11.3437 17.0627 11.1562ZM16.7814 9.28125L12.9377 9.09375C12.9377 9.09375 12.6564 9.375 13.0314 9.65625C13.4064 9.9375 16.3127 9.65625 16.3127 9.65625C16.3127 9.65625 16.5939 9.5625 16.7814 9.28125ZM16.3127 7.5L12.4689 7.3125C12.4689 7.3125 12.1877 7.59375 12.5627 7.875C12.9377 8.15625 15.8439 7.875 15.8439 7.875C15.8439 7.875 16.2189 7.78125 16.3127 7.5Z" fill="#D8B18B"/>
<path d="M16.4065 17.344C16.3127 16.6877 16.7815 16.0315 17.4377 15.9377C18.094 15.844 18.7502 16.3127 18.844 16.969C18.9377 17.344 18.3752 17.8127 18.094 18.094L18.6565 19.5002L17.2502 19.6877L17.344 18.094C17.0627 18.094 16.5002 17.8127 16.4065 17.344Z" fill="#343F3D"/>
<path d="M12.2812 11.7188L14.1562 21.375H14.8125L13.4062 12.4688L12.2812 11.7188Z" fill="#602718"/>
<path d="M25.9688 2.25L26.1562 3.09375L11.9062 4.78125L11.8125 3.84375L25.9688 2.25Z" fill="#9E7544"/>
<path d="M19.125 26.625L18.75 27L20.1562 28.125L29.25 20.9062L28.0312 19.125L19.125 26.625Z" fill="#9A4C18"/>
<path d="M29.1563 23.2494C28.5001 26.4369 25.2188 28.8744 21.8438 28.4056C18.5626 28.0306 16.7813 25.0306 17.7188 21.9369C18.6563 19.0306 21.7501 17.0619 24.6563 17.3431C27.7501 17.7181 29.7188 20.2494 29.1563 23.2494Z" fill="#9A4C18"/>
<path d="M29.8126 24.3755C29.1564 27.3755 25.9689 29.7193 22.6876 29.3443C19.5001 28.9693 17.7189 26.1568 18.6564 23.1568C19.5939 20.438 22.5939 18.563 25.5001 18.8443C28.5001 19.0318 30.3751 21.4693 29.8126 24.3755Z" fill="#9A4C18"/>
<path d="M20.0625 26.9063L21.375 27.8438L28.7813 21.5625L27.8438 19.9688L20.0625 26.9063Z" fill="#F49937"/>
<path d="M29.1564 24.2821C28.5939 26.9071 25.8751 28.7821 23.2501 28.5008C20.5314 28.2196 19.1251 25.7821 19.8751 23.2508C20.6251 20.8133 23.1564 19.2196 25.5939 19.5008C28.1251 19.7821 29.7189 21.8446 29.1564 24.2821Z" fill="#F49937"/>
<path d="M28.4064 23.1581C27.8439 25.9706 24.9377 28.0331 22.0314 27.6581C19.1252 27.2831 17.5314 24.7519 18.3752 22.0331C19.2189 19.5019 21.8439 17.7206 24.4689 18.0019C27.1877 18.2831 28.9689 20.5331 28.4064 23.1581Z" fill="#FFEDC0"/>
<path d="M28.0314 23.3446C27.4689 25.9696 24.7501 27.8446 22.1251 27.5633C19.4064 27.2821 18.0001 24.8446 18.7501 22.3133C19.5001 19.8758 22.0314 18.2821 24.4689 18.5633C26.9064 18.7508 28.5939 20.8133 28.0314 23.3446Z" fill="#FFD766"/>
<path d="M26.9998 23.1545C26.531 25.1233 24.4685 26.6233 22.406 26.342C20.3435 26.0608 19.2185 24.2795 19.781 22.3108C20.3435 20.4358 22.3123 19.1233 24.281 19.3108C26.156 19.592 27.3748 21.2795 26.9998 23.1545Z" fill="#FFEDC0"/>
<path d="M27.0935 22.6858C26.6248 24.6545 24.5623 26.1545 22.4998 25.8733C20.4373 25.592 19.3123 23.8108 19.8748 21.842C20.4373 19.967 22.406 18.6545 24.3748 18.842C26.2498 19.1233 27.4685 20.8108 27.0935 22.6858Z" fill="#F49937"/>
<path d="M26.4373 23.1571C26.0623 24.8446 24.2811 26.0634 22.5936 25.8759C20.8123 25.6884 19.8748 24.0946 20.3436 22.5009C20.8123 20.9071 22.4998 19.7821 24.0936 19.9696C25.6873 20.0634 26.8123 21.4696 26.4373 23.1571Z" fill="#FFD766"/>
<path d="M24.5625 19.6875L24.8438 21.5625L26.8125 22.3125L24.8438 23.3437L24.375 25.5L22.875 24.0938L20.625 24.5625L21.75 22.6875L20.9062 21L23.0625 21.1875L24.5625 19.6875Z" fill="#F49937"/>
</g>
<defs>
<linearGradient id="paint0_linear_47_53377" x1="18.4699" y1="7.41686" x2="2.26943" y2="9.06638" gradientUnits="userSpaceOnUse">
<stop stop-color="#F38C05"/>
<stop offset="1" stop-color="#B85A1B"/>
</linearGradient>
<linearGradient id="paint1_linear_47_53377" x1="6.91712" y1="13.9311" x2="2.62064" y2="14.3685" gradientUnits="userSpaceOnUse">
<stop stop-color="#F38C05"/>
<stop offset="1" stop-color="#B85A1B"/>
</linearGradient>
<linearGradient id="paint2_linear_47_53377" x1="12.7304" y1="23.4248" x2="12.2192" y2="23.3916" gradientUnits="userSpaceOnUse">
<stop stop-color="#BDD6DE"/>
<stop offset="1" stop-color="white"/>
</linearGradient>
<linearGradient id="paint3_linear_47_53377" x1="14.0178" y1="23.5188" x2="13.2092" y2="24.037" gradientUnits="userSpaceOnUse">
<stop stop-color="white"/>
<stop offset="1" stop-color="#BDD6DE"/>
</linearGradient>
<linearGradient id="paint4_linear_47_53377" x1="10.6299" y1="18.7944" x2="10.8013" y2="19.6745" gradientUnits="userSpaceOnUse">
<stop stop-color="#BDD6DE"/>
<stop offset="1" stop-color="white"/>
</linearGradient>
<linearGradient id="paint5_linear_47_53377" x1="18.2318" y1="16.9034" x2="18.4739" y2="17.7031" gradientUnits="userSpaceOnUse">
<stop stop-color="#BDD6DE"/>
<stop offset="1" stop-color="white"/>
</linearGradient>
<linearGradient id="paint6_linear_47_53377" x1="12.9903" y1="14.6557" x2="7.70278" y2="15.194" gradientUnits="userSpaceOnUse">
<stop stop-color="#F38C05"/>
<stop offset="1" stop-color="#B85A1B"/>
</linearGradient>
<linearGradient id="paint7_linear_47_53377" x1="20.2451" y1="12.6402" x2="14.9566" y2="13.1787" gradientUnits="userSpaceOnUse">
<stop stop-color="#F38C05"/>
<stop offset="1" stop-color="#B85A1B"/>
</linearGradient>
<clipPath id="clip0_47_53377">
<rect width="30" height="30" fill="white"/>
</clipPath>
</defs>
</svg>
