<svg width="10" height="12" viewBox="0 0 10 12" fill="none" xmlns="http://www.w3.org/2000/svg">
<mask id="mask0_0_332" style="mask-type:luminance" maskUnits="userSpaceOnUse" x="-3" y="-2" width="16" height="16">
<rect x="-2.4002" y="-1.19759" width="14.4032" height="14.4032" fill="white"/>
</mask>
<g mask="url(#mask0_0_332)">
<path fill-rule="evenodd" clip-rule="evenodd" d="M4.80107 0C3.1465 0 1.8004 1.3461 1.8004 3.00067V4.80107H1.20027C0.53772 4.80107 0 5.33879 0 6.00134V10.8024C0 11.465 0.53772 12.0027 1.20027 12.0027H2.40054H4.20094H5.40121H6.60147H8.40187C9.06442 12.0027 9.60214 11.465 9.60214 10.8024V6.00134C9.60214 5.33879 9.06442 4.80107 8.40187 4.80107H7.80174V3.00067C7.80174 1.3461 6.45564 0 4.80107 0ZM3.00067 3.00069C3.00067 2.00807 3.80845 1.20029 4.80107 1.20029C5.79369 1.20029 6.60147 2.00807 6.60147 3.00069V4.80109H3.00067V3.00069ZM5.4012 9.43592V10.8024H4.20093V9.43592C3.76464 9.18266 3.49938 8.66895 3.63741 8.10122C3.74303 7.66912 4.10551 7.31985 4.54121 7.22923C5.31778 7.06599 6.00134 7.65352 6.00134 8.40189C6.00134 8.84539 5.75888 9.22827 5.4012 9.43592Z" fill="#8F9198"/>
</g>
</svg>
