<svg width="24" height="24" viewBox="0 0 24 24" fill="none" xmlns="http://www.w3.org/2000/svg">
<g clip-path="url(#clip0_47_121826)">
<path d="M5.26599 9.765C5.73387 8.34945 6.63685 7.11781 7.84611 6.2458C9.05536 5.37378 10.5091 4.90594 12 4.909C13.69 4.909 15.218 5.509 16.418 6.491L19.91 3C17.782 1.145 15.055 0 12 0C7.26999 0 3.19799 2.698 1.23999 6.65L5.26599 9.765Z" fill="#EA4335"/>
<path d="M16.04 18.0145C14.95 18.7175 13.566 19.0925 12 19.0925C10.5151 19.0956 9.0668 18.6315 7.86024 17.7659C6.65367 16.9003 5.74994 15.6771 5.277 14.2695L1.237 17.3365C2.22824 19.3428 3.76227 21.0309 5.66482 22.2091C7.56738 23.3872 9.76221 24.0082 12 24.0015C14.933 24.0015 17.735 22.9585 19.834 21.0015L16.041 18.0145H16.04Z" fill="#34A853"/>
<path d="M19.834 20.9984C22.029 18.9504 23.454 15.9024 23.454 11.9984C23.454 11.2884 23.345 10.5254 23.182 9.81641H12V14.4534H18.436C18.119 16.0124 17.266 17.2194 16.041 18.0114L19.834 20.9984Z" fill="#4A90E2"/>
<path d="M5.27699 14.2664C5.03235 13.5353 4.90806 12.7694 4.90899 11.9984C4.90899 11.2164 5.03399 10.4654 5.26599 9.76344L1.23999 6.64844C0.416372 8.31112 -0.00820201 10.143 -5.61577e-06 11.9984C-5.61577e-06 13.9184 0.444994 15.7284 1.23699 17.3334L5.27699 14.2664Z" fill="#FBBC05"/>
</g>
<defs>
<clipPath id="clip0_47_121826">
<rect width="24" height="24" fill="white"/>
</clipPath>
</defs>
</svg>
