<svg width="30" height="30" viewBox="0 0 30 30" fill="none" xmlns="http://www.w3.org/2000/svg">
<g clip-path="url(#clip0_47_24926)">
<path d="M29.9999 11.7184C29.9999 2.71843 22.5936 3.37468 22.5936 3.37468C22.5936 3.37468 18.2811 3.28093 15.1874 6.65593C12.4686 3.18718 8.43739 3.28093 8.43739 3.28093C8.43739 3.28093 1.12489 2.53093 0.28114 11.5309C-0.56261 20.7184 13.6874 27.6559 14.5311 28.2184C15.5624 27.8434 29.9999 20.9997 29.9999 11.7184Z" fill="#4F1919"/>
<path d="M29.8124 10.7809C29.9061 2.90593 22.3124 2.43718 22.3124 2.43718C22.3124 2.43718 17.9999 1.87468 14.9061 5.34343C12.1874 1.87468 8.15614 1.96843 8.15614 1.96843C8.15614 1.96843 0.84364 1.21843 -0.000109877 10.2184C-0.84386 19.4059 13.4061 26.3434 14.2499 26.9059C15.1874 26.4372 29.8124 19.9684 29.8124 10.7809Z" fill="#960F0F"/>
<path d="M28.0313 10.4999C28.0313 6.65612 26.3438 4.96862 24.7501 4.12487C23.1563 3.37487 21.3751 3.37487 19.7813 4.03112C18.4688 4.59362 16.5001 5.53112 14.9063 7.21862C13.5938 5.62487 12.0001 4.68737 10.6876 4.12487C8.71883 3.28112 6.46883 3.28112 4.68758 4.40612C3.18758 5.34362 1.68758 7.12487 1.40633 10.4061C0.656331 18.1874 13.4063 24.0936 14.1563 24.5624C15.0001 24.0936 28.0313 18.2811 28.0313 10.4999Z" fill="#DD4545"/>
<path d="M23.0624 10.5002C23.0624 7.68775 21.8437 6.37525 20.6249 5.81275C19.4999 5.25025 18.0937 5.25025 16.9687 5.719C15.9374 6.094 14.5312 6.844 13.3124 8.06275C12.3749 6.93775 11.1562 6.18775 10.2187 5.81275C8.81241 5.1565 7.12491 5.1565 5.71866 6.00025C4.59366 6.6565 3.56241 7.969 3.28116 10.5002C2.81241 16.219 12.1874 20.6252 12.8437 21.0002C13.4062 20.6252 23.0624 16.3127 23.0624 10.5002Z" fill="#F96464"/>
<path d="M20.9999 17.2497C19.5937 17.8122 18.2812 17.6247 17.4374 17.1559C16.5937 16.6872 15.7499 15.5622 15.5624 14.0622C15.0937 10.4997 18.2812 2.06216 24.1874 5.53091C30.0937 8.99966 24.3749 15.9372 20.9999 17.2497Z" fill="#FFB3B3"/>
<path d="M12.8438 26.1562C12.8438 26.1562 24.1875 22.6875 29.0625 13.3125C29.0625 13.3125 27.5625 20.7187 14.25 27L12.8438 26.1562Z" fill="#DD4545"/>
<path d="M22.875 9.46962C22.5 9.56337 22.2188 9.56337 21.9375 9.46962C21.75 9.37587 21.5625 9.09462 21.4688 8.71962C21.375 7.87587 22.125 5.71962 23.625 6.56337C25.2188 7.40712 23.7188 9.09462 22.875 9.46962Z" fill="white"/>
<path d="M9.28104 8.81196C9.18729 9.37446 8.81229 9.93696 8.43729 10.2182C8.06229 10.4995 7.40604 10.7807 6.84354 10.7807C5.34354 10.687 2.90604 8.81196 5.53104 6.65571C8.15604 4.49946 9.56229 7.31196 9.28104 8.81196Z" fill="#FFB3B3"/>
<path opacity="0.28" d="M1.78125 16.875C1.78125 16.875 15 29.3438 28.5 16.3125C28.5 16.3125 22.6875 23.4375 15.375 27.6562C15.375 27.6562 3.84375 23.5313 1.78125 16.875Z" fill="#4F1919"/>
</g>
<defs>
<clipPath id="clip0_47_24926">
<rect width="30" height="30" fill="white"/>
</clipPath>
</defs>
</svg>
