<svg width="21" height="17" viewBox="0 0 21 17" fill="none" xmlns="http://www.w3.org/2000/svg">
<path d="M10.1607 7.65434C12.577 7.65434 14.5357 6.16827 14.5357 4.33511C14.5357 2.50195 12.577 1.01587 10.1607 1.01587C7.74447 1.01587 5.78571 2.50195 5.78571 4.33511C5.78571 6.16827 7.74447 7.65434 10.1607 7.65434Z" stroke="#7D8DB5" stroke-width="2" stroke-linecap="round" stroke-linejoin="round"/>
<path d="M17.6681 15.9802C18.8076 15.9802 19.6124 15.1048 19.189 14.3013C18.4688 12.9311 17.2235 11.7563 15.6141 10.9287C14.0046 10.1011 12.105 9.65873 10.1607 9.65873C8.21646 9.65873 6.31685 10.1011 4.70742 10.9287C3.09798 11.7563 1.85268 12.9311 1.13245 14.3013C0.709039 15.1048 1.51327 15.9802 2.65335 15.9802H17.6681Z" stroke="#7D8DB5" stroke-width="2" stroke-linecap="round" stroke-linejoin="round"/>
</svg>
