<svg width="93" height="97" viewBox="0 0 93 97" fill="none" xmlns="http://www.w3.org/2000/svg">
<path d="M23.8023 -3.04278e-10L4.23407 0C1.90533 0 0 1.45098 0 3.21475L-4.00865e-10 18.0721C-4.40084e-10 19.8402 1.91105 21.2869 4.23407 21.2869L23.8023 21.2869C26.1311 21.2869 28.0364 19.8359 28.0364 18.0721L28.0364 3.21475C28.0364 1.45098 26.1253 -3.33975e-10 23.8023 -3.04278e-10Z" fill="#FF621F"/>
<path d="M89.8977 96.9995L88.185 96.9995C87.9933 96.9995 87.8342 96.9559 87.7079 96.8688C87.5858 96.7773 87.5009 96.6618 87.4529 96.5223L86.8908 94.862L83.2694 94.862L82.7073 96.5223C82.6637 96.6444 82.5787 96.7555 82.4523 96.8557C82.326 96.9516 82.1713 96.9995 81.9882 96.9995L80.2625 96.9995L83.9492 87.4755L86.211 87.4755L89.8977 96.9995ZM83.7793 93.3586L86.3809 93.3586L85.505 90.7504C85.4483 90.5848 85.3808 90.3909 85.3023 90.1687C85.2283 89.9421 85.1542 89.698 85.0801 89.4365C85.0104 89.7024 84.9385 89.9486 84.8644 90.1752C84.7903 90.4018 84.7206 90.5979 84.6552 90.7635L83.7793 93.3586Z" fill="#282C38"/>
<path d="M92.7647 90.2209L92.7647 96.9995L90.7383 96.9995L90.7383 90.2209L92.7647 90.2209ZM93 88.3645C93 88.5258 92.9674 88.6783 92.902 88.8221C92.8366 88.9615 92.7473 89.0857 92.634 89.1947C92.5207 89.2993 92.3878 89.3842 92.2353 89.4496C92.0871 89.5106 91.928 89.5411 91.7581 89.5411C91.5925 89.5411 91.4378 89.5106 91.294 89.4496C91.1502 89.3842 91.0216 89.2993 90.9083 89.1947C90.7994 89.0857 90.7122 88.9615 90.6468 88.8221C90.5858 88.6783 90.5553 88.5258 90.5553 88.3645C90.5553 88.1989 90.5858 88.0442 90.6468 87.9004C90.7122 87.7566 90.7994 87.6302 90.9083 87.5213C91.0216 87.4123 91.1502 87.3274 91.294 87.2664C91.4378 87.2053 91.5925 87.1748 91.7581 87.1748C91.928 87.1748 92.0871 87.2053 92.2353 87.2664C92.3878 87.3274 92.5207 87.4123 92.634 87.5213C92.7473 87.6302 92.8366 87.7566 92.902 87.9004C92.9674 88.0442 93 88.1989 93 88.3645Z" fill="#282C38"/>
</svg>
