<svg width="30" height="30" viewBox="0 0 30 30" fill="none" xmlns="http://www.w3.org/2000/svg">
<g clip-path="url(#clip0_47_45528)">
<path d="M13.5938 8.34375L9.5625 1.96875L0.1875 6.9375L3.84375 11.25L13.5938 8.34375Z" fill="#714113"/>
<path d="M11.9062 6.9375L9.46875 3.375L1.21875 6.75L3.84375 10.875L11.9062 6.9375Z" fill="#BB7C46"/>
<path d="M11.9062 6.9375L12.75 2.71875L29.1563 3.375L27.75 7.96875L11.9062 6.9375Z" fill="#714113"/>
<path d="M12.6562 7.59375L13.5 3.375L27.4687 4.03125L26.0625 8.625L12.6562 7.59375Z" fill="#BB7C46"/>
<path d="M21.0938 30.0937L4.03125 25.2188L3.9375 10.5L21.0938 13.3125V30.0937Z" fill="#714113"/>
<path d="M21.0938 30.0937L27.4687 22.5L27.375 7.96875L21.0938 13.3125V30.0937Z" fill="#714113"/>
<path d="M27.75 7.96875L11.9062 6.9375L3.84375 10.875L21.0938 13.3125L27.75 7.96875Z" fill="#714113"/>
<path d="M21.844 11.157L14.8127 9.75072C13.6877 9.56322 12.9377 8.43822 13.219 7.31322L14.2502 2.34447C14.4377 1.21947 15.5627 0.469467 16.6877 0.750717L23.719 2.15697C24.844 2.34447 25.594 3.46947 25.3127 4.59447L24.3752 9.46947C24.094 10.5945 22.969 11.3445 21.844 11.157Z" fill="#7A0F0F"/>
<path d="M22.969 11.2507L15.9377 9.84447C14.8127 9.65697 14.0627 8.53197 14.344 7.40697L15.3752 2.43822C15.5627 1.31322 16.6877 0.563217 17.8127 0.844467L24.844 2.25072C25.969 2.43822 26.719 3.56322 26.4377 4.68822L25.4065 9.65697C25.219 10.782 24.094 11.532 22.969 11.2507Z" fill="#E22222"/>
<path d="M22.4065 11.3445L15.3752 9.93822C14.2502 9.75072 13.5002 8.62572 13.7815 7.50072L14.8127 2.53197C15.0002 1.40697 16.1252 0.656967 17.2502 0.938217L24.2815 2.34447C25.4065 2.53197 26.1565 3.65697 25.8752 4.78197L24.844 9.75072C24.6565 10.8757 23.5315 11.6257 22.4065 11.3445Z" fill="#E26546"/>
<path d="M18.6562 2.34375L17.3438 8.90625L23.7187 7.03125L18.6562 2.34375Z" fill="#7A0F0F"/>
<path d="M17.9062 15.6558L12 11.5308C11.0625 10.8745 10.7812 9.562 11.5312 8.6245L14.4375 4.40575C15.0937 3.46825 16.4062 3.187 17.3437 3.937L23.25 8.062C24.1875 8.71825 24.4687 10.0308 23.7187 10.9683L20.8125 15.187C20.1562 16.0308 18.8437 16.312 17.9062 15.6558Z" fill="#0F1D7A"/>
<path d="M18.8437 16.2183L12.9375 12.0933C12 11.437 11.7187 10.1245 12.4687 9.187L15.375 4.96825C16.0312 4.03075 17.3437 3.7495 18.2812 4.4995L24.1875 8.6245C25.125 9.28075 25.4062 10.5933 24.6562 11.5308L21.75 15.7495C21.0937 16.5933 19.875 16.8745 18.8437 16.2183Z" fill="#2F44E2"/>
<path d="M18.2812 16.0308L12.375 11.9058C11.4375 11.2495 11.1562 9.937 11.9062 8.9995L14.8125 4.78075C15.4687 3.84325 16.7812 3.562 17.7187 4.312L23.625 8.437C24.5625 9.09325 24.8437 10.4058 24.0937 11.3433L21.1875 15.562C20.5312 16.4995 19.2187 16.687 18.2812 16.0308Z" fill="#4658E2"/>
<path d="M18.4688 6.28125L14.7188 11.7188L21.2813 12.5625L18.4688 6.28125Z" fill="#0F1D7A"/>
<path d="M14.8125 9.6548L6.56252 11.8111C5.43752 12.0923 4.31252 11.4361 4.03127 10.3111L2.53127 4.7798C2.25002 3.6548 3.00002 2.43605 4.03127 2.1548L12.375 -0.00144666C13.5 -0.282697 14.625 0.373553 14.9063 1.49855L16.3125 7.0298C16.5938 8.24855 15.9375 9.37355 14.8125 9.6548Z" fill="#1E579B"/>
<path d="M13.2188 9.8423L6.28127 11.6236C5.15627 11.9048 4.03127 11.2486 3.75002 10.1236L2.43752 5.1548C2.15627 4.0298 2.81252 2.9048 3.93752 2.62355L10.875 0.842303C12 0.561053 13.125 1.2173 13.4063 2.3423L14.7188 7.31105C15 8.43605 14.25 9.56105 13.2188 9.8423Z" fill="#1E579B"/>
<path d="M14.25 9.4673L7.31252 11.2486C6.18752 11.5298 5.06252 10.8736 4.78127 9.74855L3.46877 4.7798C3.18752 3.6548 3.84377 2.5298 4.96877 2.24855L11.9063 0.467303C13.0313 0.186053 14.1563 0.842303 14.4375 1.9673L15.75 6.93605C16.0313 8.06105 15.375 9.18605 14.25 9.4673Z" fill="#A6CAFF"/>
<path d="M13.7813 9.8423L6.84377 11.6236C5.71877 11.9048 4.59377 11.2486 4.31252 10.1236L3.00002 5.1548C2.71877 4.0298 3.37502 2.9048 4.50002 2.62355L11.4375 0.842303C12.5625 0.561053 13.6875 1.2173 13.9688 2.3423L15.2813 7.31105C15.5625 8.3423 14.9063 9.56105 13.7813 9.8423Z" fill="url(#paint0_linear_47_45528)"/>
<path d="M6.46875 3.375L8.15625 9.75L13.125 5.34375L6.46875 3.375Z" fill="#1E579B"/>
<path d="M20.7188 12.375L19.0312 8.90625L0.09375 6.84375L4.125 12.0937L20.7188 12.375Z" fill="#714113"/>
<path d="M20.5312 28.875L5.0625 24.5625V11.625L20.5312 13.875V28.875Z" fill="url(#paint1_linear_47_45528)"/>
<path d="M20.5312 28.875L26.5312 22.4062V9L20.5312 13.875V28.875Z" fill="#BB7C46"/>
<path d="M26.5312 9L12.2813 8.15625L5.0625 11.625L20.5312 13.875L26.5312 9Z" fill="#714113"/>
<path d="M8.8125 14.9989V23.4364C8.8125 23.9052 9.28125 24.1864 9.65625 23.9989L17.25 20.0614C17.625 19.8739 17.7188 19.2177 17.25 19.0302L9.65625 14.5302C9.28125 14.2489 8.8125 14.5302 8.8125 14.9989Z" fill="#99633A"/>
<path d="M9.75 16.3114V22.2177C9.75 22.6864 10.2188 22.9677 10.5938 22.7802L15.8438 20.0614C16.2188 19.8739 16.3125 19.2177 15.8438 19.0302L10.5938 15.8427C10.2188 15.5614 9.75 15.8427 9.75 16.3114Z" fill="#BB7C46"/>
<path d="M19.875 13.2188L22.9687 6.375L29.9062 3.1875L27.5625 7.875L19.875 13.2188Z" fill="#714113"/>
<path d="M20.5312 13.875L18.8438 10.4063L2.34375 8.34375L5.0625 11.625L20.5312 13.875Z" fill="#99633A"/>
<path d="M20.5312 13.875L23.5313 7.03125L28.2188 4.78125L26.5312 9L20.5312 13.875Z" fill="#99633A"/>
<path d="M10.0312 22.875L9.375 23.9062L17.5313 19.9687L16.2187 19.7812L10.0312 22.875Z" fill="#714113"/>
</g>
<defs>
<linearGradient id="paint0_linear_47_45528" x1="2.95408" y1="6.20949" x2="15.3427" y2="6.20949" gradientUnits="userSpaceOnUse">
<stop stop-color="#4280E2"/>
<stop offset="1" stop-color="#4F96FF"/>
</linearGradient>
<linearGradient id="paint1_linear_47_45528" x1="7.10878" y1="26.732" x2="19.6765" y2="12.4392" gradientUnits="userSpaceOnUse">
<stop stop-color="#DDC8AC"/>
<stop offset="1" stop-color="#DDA866"/>
</linearGradient>
<clipPath id="clip0_47_45528">
<rect width="30" height="30" fill="white"/>
</clipPath>
</defs>
</svg>
