<svg width="56" height="52" viewBox="0 0 56 52" fill="none" xmlns="http://www.w3.org/2000/svg">
<ellipse cx="23.4943" cy="26" rx="23.4943" ry="26" fill="#395A6A"/>
<rect x="35.8009" y="27.238" width="20.1462" height="20.1462" rx="10" fill="#26DC43"/>
<path d="M44.7406 40.3331C44.6405 40.3318 44.5445 40.2931 44.4715 40.2245L41.8273 37.5804C41.7671 37.507 41.7363 37.4138 41.7409 37.319C41.7456 37.2241 41.7854 37.1344 41.8525 37.0673C41.9196 37.0001 42.0093 36.9604 42.1042 36.9557C42.199 36.9511 42.2922 36.9818 42.3656 37.0421L44.7406 39.4218L49.7599 34.3979C49.8333 34.3376 49.9264 34.3069 50.0213 34.3115C50.1161 34.3162 50.2058 34.3559 50.273 34.4231C50.3401 34.4902 50.3799 34.5799 50.3845 34.6748C50.3892 34.7696 50.3584 34.8628 50.2982 34.9362L45.0098 40.2245C44.9367 40.2931 44.8407 40.3318 44.7406 40.3331Z" fill="#E2E7E9"/>
</svg>
