<svg width="96" height="96" viewBox="0 0 96 96" fill="none" xmlns="http://www.w3.org/2000/svg">
<path d="M74.9484 29.3784C74.6243 28.5685 74.1276 27.839 73.4927 27.2408C72.8578 26.6425 72.1001 26.1899 71.2724 25.9144L61.8204 22.7625L59.2964 17.7145C58.8005 16.7157 58.0348 15.8757 57.0861 15.2897C56.1374 14.7036 55.0435 14.3949 53.9284 14.3985H42.8724C41.7573 14.3949 40.6635 14.7036 39.7147 15.2897C38.766 15.8757 38.0004 16.7157 37.5044 17.7145L34.9804 22.7625L25.5284 25.9144C24.7007 26.1899 23.943 26.6425 23.3081 27.2408C22.6733 27.839 22.1765 28.5685 21.8524 29.3784L15.1164 46.2224C14.6412 47.4036 14.3981 48.6653 14.4004 49.9384V74.3984C14.4004 75.4593 14.8218 76.4767 15.572 77.2268C16.3221 77.977 17.3395 78.3984 18.4004 78.3984H22.4004C23.4613 78.3984 24.4787 77.977 25.2288 77.2268C25.979 76.4767 26.4004 75.4593 26.4004 74.3984V68.6944L28.4004 62.0224V66.5104C28.5184 68.7655 29.2065 70.9537 30.4004 72.8704V78.3984C30.4004 79.4593 30.8218 80.4767 31.572 81.2268C32.3221 81.977 33.3395 82.3984 34.4004 82.3984H62.4004C63.4613 82.3984 64.4787 81.977 65.2288 81.2268C65.979 80.4767 66.4004 79.4593 66.4004 78.3984V72.8704C67.5945 70.9538 68.2826 68.7655 68.4004 66.5104V62.0224L70.4004 68.6944V74.3984C70.4004 75.4593 70.8218 76.4767 71.572 77.2268C72.3221 77.977 73.3395 78.3984 74.4004 78.3984H78.4004C79.4613 78.3984 80.4787 77.977 81.2288 77.2268C81.979 76.4767 82.4004 75.4593 82.4004 74.3984V49.9384C82.4031 48.6665 82.16 47.4061 81.6844 46.2264L74.9484 29.3784ZM70.3564 29.9184C68.2231 33.1263 66.2695 36.4501 64.5044 39.8744C64.2924 40.6744 64.4724 39.7464 64.4004 62.3984C62.8091 62.3984 61.283 61.7663 60.1578 60.6411C59.0326 59.5158 58.4004 57.9897 58.4004 56.3984C58.4004 55.868 58.1897 55.3593 57.8146 54.9842C57.4396 54.6091 56.9308 54.3984 56.4004 54.3984C55.87 54.3984 55.3613 54.6091 54.9862 54.9842C54.6111 55.3593 54.4004 55.868 54.4004 56.3984C54.4004 59.0506 55.454 61.5941 57.3293 63.4695C59.2047 65.3448 61.7483 66.3984 64.4004 66.3984V66.5104C64.3173 67.8889 63.8925 69.225 63.1644 70.3984H50.4004V33.4704L60.6964 26.6064C72.1204 30.4904 69.5604 29.4544 70.3564 29.9184ZM40.0004 21.7025L42.4764 26.0344L38.9964 23.7145L40.0004 21.7025ZM56.8324 21.7025L57.8364 23.7025L54.3564 26.0224L56.8324 21.7025ZM54.0884 18.4385L48.4004 28.3664L42.7284 18.4385C43.5404 18.3985 53.2564 18.3985 54.0724 18.4385H54.0884ZM36.1044 26.6064L46.4004 33.4704V70.3984H33.6364C32.9022 69.2278 32.4769 67.8901 32.4004 66.5104V66.3984C35.0526 66.3984 37.5961 65.3448 39.4715 63.4695C41.3468 61.5941 42.4004 59.0506 42.4004 56.3984C42.4004 55.868 42.1897 55.3593 41.8146 54.9842C41.4396 54.6091 40.9308 54.3984 40.4004 54.3984C39.87 54.3984 39.3613 54.6091 38.9862 54.9842C38.6111 55.3593 38.4004 55.868 38.4004 56.3984C38.4004 57.9897 37.7683 59.5158 36.6431 60.6411C35.5178 61.7663 33.9917 62.3984 32.4004 62.3984C32.3284 39.7504 32.5084 40.6544 32.2964 39.8744C30.5326 36.4494 28.5789 33.1256 26.4444 29.9184C27.0564 29.5584 32.0244 27.9984 36.1044 26.6064ZM18.4004 74.3984V70.3984H22.4004V74.3984H18.4004ZM28.1484 48.9504L22.9124 66.3984H18.4004V49.9384C18.4001 49.1753 18.5454 48.4191 18.8284 47.7104L24.2804 34.0864L28.4004 40.9504V47.2264C28.4007 47.8103 28.3159 48.3911 28.1484 48.9504ZM34.4004 78.3984V74.3984H62.4004V78.3984H34.4004ZM68.4004 47.2264V40.9504L72.5204 34.0864L77.9724 47.7144C78.2563 48.4215 78.4016 49.1765 78.4004 49.9384V66.3984H73.8884L68.6524 48.9464C68.4846 48.3885 68.3997 47.809 68.4004 47.2264ZM74.4004 74.3984V70.3984H78.4004V74.3984H74.4004Z" fill="#393D46"/>
</svg>
