<svg width="192" height="179" viewBox="0 0 192 179" fill="none" xmlns="http://www.w3.org/2000/svg">
<circle cx="102.5" cy="89.4844" r="74.5" fill="white"/>
<mask id="path-2-inside-1_47_112224" fill="white">
<path d="M102.5 1.6175C102.5 0.715548 103.231 -0.0171822 104.133 -0.000729387C120.507 0.298 136.496 5.08435 150.353 13.8515C164.67 22.9099 176.122 35.8459 183.377 51.1557C190.633 66.4655 193.394 83.5202 191.34 100.337C189.285 117.154 182.5 133.043 171.772 146.156C161.044 159.269 146.815 169.067 130.739 174.413C114.662 179.758 97.3982 180.431 80.9544 176.352C64.5107 172.274 49.5622 163.612 37.8469 151.373C26.5083 139.528 18.6489 124.804 15.1122 108.814C14.9174 107.933 15.4907 107.071 16.3748 106.892C17.2589 106.714 18.1189 107.286 18.3143 108.167C21.7281 123.55 29.2953 137.716 40.2064 149.115C51.4942 160.907 65.8971 169.252 81.7407 173.182C97.5844 177.112 114.218 176.464 129.708 171.313C145.198 166.163 158.908 156.722 169.244 144.087C179.58 131.453 186.118 116.144 188.097 99.9412C190.077 83.7379 187.417 67.3056 180.426 52.5545C173.435 37.8034 162.401 25.3395 148.607 16.6117C135.273 8.17511 119.888 3.56442 104.133 3.26608C103.231 3.249 102.5 2.51944 102.5 1.6175Z"/>
</mask>
<path d="M102.5 1.6175C102.5 0.715548 103.231 -0.0171822 104.133 -0.000729387C120.507 0.298 136.496 5.08435 150.353 13.8515C164.67 22.9099 176.122 35.8459 183.377 51.1557C190.633 66.4655 193.394 83.5202 191.34 100.337C189.285 117.154 182.5 133.043 171.772 146.156C161.044 159.269 146.815 169.067 130.739 174.413C114.662 179.758 97.3982 180.431 80.9544 176.352C64.5107 172.274 49.5622 163.612 37.8469 151.373C26.5083 139.528 18.6489 124.804 15.1122 108.814C14.9174 107.933 15.4907 107.071 16.3748 106.892C17.2589 106.714 18.1189 107.286 18.3143 108.167C21.7281 123.55 29.2953 137.716 40.2064 149.115C51.4942 160.907 65.8971 169.252 81.7407 173.182C97.5844 177.112 114.218 176.464 129.708 171.313C145.198 166.163 158.908 156.722 169.244 144.087C179.58 131.453 186.118 116.144 188.097 99.9412C190.077 83.7379 187.417 67.3056 180.426 52.5545C173.435 37.8034 162.401 25.3395 148.607 16.6117C135.273 8.17511 119.888 3.56442 104.133 3.26608C103.231 3.249 102.5 2.51944 102.5 1.6175Z" stroke="#52B141" stroke-width="8" mask="url(#path-2-inside-1_47_112224)"/>
<circle cx="6.5" cy="106.484" r="6.5" fill="#52B141"/>
<rect x="32" y="18.9844" width="141" height="141" rx="70.5" fill="#C4C4C4"/>
</svg>
