<svg width="312" height="312" viewBox="0 0 312 312" fill="none" xmlns="http://www.w3.org/2000/svg">
<path d="M208.915 140.5C208.913 175.548 194.989 209.161 170.205 233.943C145.421 258.725 111.808 272.648 76.7598 272.648V140.5H208.915Z" fill="#DC6240"/>
<path d="M87.82 140.523H117.312C117.924 140.523 118.419 140.028 118.419 139.416V139.229C118.419 138.617 117.924 138.121 117.312 138.121H87.82C87.2083 138.121 86.7124 138.617 86.7124 139.229V139.416C86.7124 140.028 87.2083 140.523 87.82 140.523Z" fill="#394450"/>
<path d="M123.025 110.397L116.015 139.108C115.87 139.702 116.234 140.301 116.828 140.446L117.01 140.491C117.605 140.636 118.204 140.272 118.349 139.677L125.359 110.966C125.504 110.372 125.14 109.773 124.545 109.628L124.363 109.583C123.769 109.438 123.17 109.802 123.025 110.397Z" fill="#0D2135"/>
<path d="M48.9995 177.373L34.5071 177.552C25.7633 177.552 20.5139 168.254 19.0397 159.464L13.4549 126.033C11.1617 114.466 3.8999 112.469 3.8999 112.469C3.8999 112.469 7.1525 143.099 9.9137 169.159C11.9183 188.098 22.1129 188.41 50.0447 187.162C55.4579 186.92 57.3767 177.193 48.9995 177.373Z" fill="#B4C6D8"/>
<path d="M7.17578 273L14.8198 193.69C15.1248 192.018 16.0103 190.507 17.3203 189.424C18.6302 188.341 20.2805 187.755 21.9802 187.77H46.7998C48.4985 187.755 50.1478 188.341 51.4564 189.425C52.7651 190.508 53.6491 192.019 53.9524 193.69L61.6198 273" stroke="#0D2135" stroke-width="0.6162" stroke-miterlimit="10"/>
<path d="M39.6238 234.296L42.4396 231.309L48.7732 236.948C47.0338 238.633 46.8934 239.795 46.8934 239.795L44.0152 243.258L37.822 238.485L39.6238 234.296Z" fill="#DE9885"/>
<path d="M39.6238 234.297L33.7816 237.674C33.4355 237.875 33.1396 238.151 32.9162 238.483C32.6928 238.815 32.5478 239.193 32.4922 239.589C32.4366 239.985 32.4718 240.389 32.5952 240.769C32.7186 241.149 32.9269 241.497 33.2044 241.785L45.8326 254.826C46.9662 256.035 48.4138 256.905 50.0134 257.338C50.4584 257.451 50.9293 257.402 51.3411 257.199C51.753 256.996 52.0788 256.653 52.2598 256.23C52.3929 255.922 52.4434 255.585 52.4065 255.251C52.3696 254.917 52.2464 254.599 52.0492 254.327C47.6032 248.181 46.9012 239.796 46.9012 239.796C37.783 240.482 39.6238 234.297 39.6238 234.297Z" fill="#61372C"/>
<path d="M76.9157 189.094L42.4397 231.307L58.1489 246.182L90.2459 202.377L76.9157 189.094Z" fill="#1B4481"/>
<path d="M60.294 152.325C60.294 152.325 84.5364 168.783 92.001 175.155C96.8916 179.321 100.113 183.509 101.26 189.851L111.322 245.168L89.3178 247.68L82.134 200.739C81.666 197.619 78 193.431 75.5742 191.465C60.4578 179.235 50.8872 178.205 41.8314 178.416C31.7382 178.619 28.6338 173.159 26.7618 169.43C24.2892 164.532 26.6136 154.205 26.6136 154.205L60.7464 147.84L60.294 152.325Z" fill="#2A67B2"/>
<path d="M89.9806 252.369L89.3176 247.689L98.3266 246.387C98.5996 248.797 98.896 259.803 98.896 259.803L90.5188 258.11L89.9806 252.369Z" fill="#DE9885"/>
<path d="M90.2303 254.281L85.7297 259.328C85.4649 259.629 85.2723 259.986 85.1668 260.373C85.0612 260.759 85.0455 261.165 85.1207 261.559C85.196 261.952 85.3603 262.323 85.601 262.644C85.8418 262.964 86.1526 263.225 86.5097 263.407L102.586 271.8C104.045 272.582 105.69 272.949 107.344 272.861C107.801 272.827 108.232 272.631 108.558 272.308C108.884 271.985 109.084 271.556 109.122 271.098C109.153 270.767 109.097 270.433 108.96 270.129C108.823 269.826 108.61 269.563 108.342 269.366C102.188 264.936 98.8961 257.206 98.8961 257.206C90.4097 260.763 90.2303 254.281 90.2303 254.281Z" fill="#61372C"/>
<path d="M68.6399 71.7605C68.6009 72.0881 68.5541 72.4235 68.4917 72.7589C68.4605 72.9565 68.4215 73.1515 68.3747 73.3439C67.9365 75.3189 67.113 77.1881 65.9513 78.8445C64.7897 80.5008 63.3127 81.9117 61.6049 82.9963C59.8971 84.0809 57.9922 84.818 55.9992 85.1654C54.0061 85.5127 51.9641 85.4635 49.9901 85.0205C49.7093 84.9581 49.4207 84.8879 49.1477 84.8099C46.3066 84.0185 43.7515 82.4301 41.7845 80.2326C39.8174 78.035 38.5208 75.3202 38.0478 72.4091C37.5748 69.4979 37.9453 66.5122 39.1154 63.805C40.2855 61.0977 42.2063 58.7821 44.6508 57.132C47.0952 55.4818 49.9611 54.5661 52.9095 54.493C55.8579 54.42 58.7655 55.1927 61.2887 56.7198C63.8118 58.247 65.8449 60.4646 67.1477 63.1106C68.4504 65.7566 68.9682 68.7203 68.6399 71.6513V71.7605Z" fill="#EFB7A8"/>
<path d="M35.7941 95.0757L56.4407 99.2487C56.4407 99.2487 54.1475 89.1087 59.5061 88.4691C64.8647 87.8295 65.1455 87.7437 66.1205 82.8609C66.5495 80.0919 68.6165 80.9265 68.9675 79.3431C69.3185 77.7597 67.8989 75.5289 68.6711 71.6523L38.9999 75.3573C42.4085 84.5301 44.9279 87.5331 35.5601 94.8573L35.7941 95.0757Z" fill="#EFB7A8"/>
<path d="M61.0427 149.571C61.5107 130.921 62.6027 112.42 56.3627 98.2471C50.1726 97.7132 44.272 95.3876 39.3821 91.5547L36.0125 95.8447C32.3933 100.525 31.6913 110.392 30.3107 116.281C27.8303 124.736 33.7037 126.304 29.0471 142.598C27.885 146.515 26.968 150.501 26.3015 154.532C33.4619 152.878 61.0427 149.758 61.0427 149.571Z" fill="#DFEFFF"/>
<path d="M67.5712 71.8789L66.4402 76.2469" stroke="#0D2135" stroke-width="0.7644" stroke-miterlimit="10"/>
<path d="M66.8615 74.6713L58.2815 72.2221L58.3673 71.8477L67.1501 73.4467L66.8615 74.6713Z" fill="#0D2135"/>
<path d="M68.3124 66.2465C67.2672 67.8065 64.6542 71.1605 61.2924 71.7065C61.2924 71.7065 62.8524 70.8095 64.1862 66.9719C62.8677 69.2778 61.0888 71.2876 58.9602 72.8765C58.2845 73.3742 57.5637 73.8077 56.8074 74.1713L54.1554 73.4771L48.594 72.0341C48.513 72.7416 48.513 73.456 48.594 74.1635C48.867 76.8701 49.6704 80.9807 49.1634 84.8027C48.9412 87.516 47.6677 90.0351 45.6144 91.8227C44.1193 93.0651 43.0323 94.7283 42.4944 96.5963C40.5288 102.376 42.8532 107.516 35.6772 110.738C30.6618 112.992 30.0456 117.274 30.1236 121.314C30.186 124.668 31.4496 128.194 30.8412 130.815C8.91535 119.115 24.9756 100.793 23.8212 96.1283C18.408 83.9135 35.8254 76.4411 38.376 66.5897C39.1341 63.2094 41.0111 60.1839 43.7031 58.0034C46.3951 55.8229 49.7443 54.6149 53.2084 54.5752C56.6725 54.5355 60.0485 55.6664 62.7898 57.7846C65.531 59.9028 67.4769 62.8844 68.3124 66.2465Z" fill="#BE3626"/>
<path d="M57.0804 72.9227C57.3298 70.5579 55.6219 68.4394 53.2656 68.1909C50.9094 67.9424 48.7971 69.658 48.5477 72.0228C48.2984 74.3876 50.0063 76.5061 52.3625 76.7546C54.7188 77.0031 56.831 75.2875 57.0804 72.9227Z" fill="#EFB7A8"/>
<path d="M54.5688 131.375L70.3716 131.968L68.1096 146.156L54.093 147.934L54.5688 131.375Z" fill="#DFEFFF"/>
<path d="M102.96 128.785L102.882 129.074C102.679 129.784 102.468 129.932 101.486 130.158C99.652 130.404 97.8053 130.539 95.9555 130.564C95.9555 131.679 95.7605 136.991 90.5969 137.857L84.6065 138.691L68.9285 141.031L70.3793 131.944L83.7407 132.241L89.2475 132.334C90.0243 132.359 90.7801 132.079 91.3535 131.554L94.2785 128.848C94.4005 128.733 94.544 128.644 94.7006 128.585C94.8572 128.526 95.0239 128.499 95.1911 128.505L102.96 128.785Z" fill="#EFB7A8"/>
<path d="M95.1599 130.262L101.564 131.915C101.289 132.298 100.906 132.59 100.463 132.751C100.021 132.912 99.5398 132.936 99.0833 132.82L94.5359 132.368L95.1599 130.262Z" fill="#EFB7A8"/>
<path d="M143.918 56.0756C145.701 56.0756 147.147 54.6298 147.147 52.8464C147.147 51.0629 145.701 49.6172 143.918 49.6172C142.134 49.6172 140.688 51.0629 140.688 52.8464C140.688 54.6298 142.134 56.0756 143.918 56.0756Z" fill="#FBEBD3"/>
<path d="M157.802 39.4219L171.943 99.5365L153.512 140.182" stroke="#94C9FD" stroke-width="1.248" stroke-miterlimit="10"/>
<path d="M152.186 61.1988L135.587 44.6082C137.079 43.11 138.949 42.0439 140.998 41.5234C143.047 41.0029 145.199 41.0473 147.225 41.652C148.014 41.8695 148.846 41.8721 149.636 41.6595C150.426 41.4469 151.145 41.0269 151.718 40.443L153.153 39L157.833 43.6332L156.39 45.0762C155.805 45.6483 155.384 46.367 155.171 47.1573C154.958 47.9476 154.962 48.7805 155.181 49.569C155.779 51.5972 155.817 53.7497 155.289 55.7975C154.762 57.8453 153.689 59.7119 152.186 61.1988Z" fill="#94C9FD"/>
<path d="M156.195 41.5747C156.789 41.5747 157.271 41.0928 157.271 40.4983C157.271 39.9038 156.789 39.4219 156.195 39.4219C155.6 39.4219 155.118 39.9038 155.118 40.4983C155.118 41.0928 155.6 41.5747 156.195 41.5747Z" fill="#0D2135"/>
<path d="M171.748 101.215C172.468 101.215 173.051 100.631 173.051 99.912C173.051 99.1926 172.468 98.6094 171.748 98.6094C171.029 98.6094 170.446 99.1926 170.446 99.912C170.446 100.631 171.029 101.215 171.748 101.215Z" fill="#0D2135"/>
<path d="M162.185 137.422H146.476C146.048 137.422 145.624 137.506 145.229 137.67C144.833 137.834 144.474 138.074 144.171 138.377C143.868 138.68 143.628 139.039 143.464 139.435C143.3 139.83 143.216 140.254 143.216 140.682H165.446C165.446 140.254 165.361 139.83 165.198 139.435C165.034 139.039 164.794 138.68 164.491 138.377C164.188 138.074 163.829 137.834 163.433 137.67C163.038 137.506 162.614 137.422 162.185 137.422Z" fill="#94C9FD"/>
</svg>
