<svg width="149" height="30" viewBox="0 0 149 30" fill="none" xmlns="http://www.w3.org/2000/svg">
<g clip-path="url(#clip0_47_78215)">
<path d="M41.303 15.8207C41.303 15.9862 41.3065 16.1588 41.3142 16.3391C41.3216 16.5193 41.3329 16.6772 41.348 16.8122C41.3627 16.9778 41.3854 17.1355 41.4156 17.2856H41.3254C41.2653 17.1356 41.2051 16.9778 41.1451 16.8122C41.0849 16.6771 41.0213 16.5193 40.9537 16.3391C40.886 16.1587 40.8146 15.9862 40.7395 15.8207L36.7955 7.03125H33.415V22.8071H36.5703V14.0176C36.5703 13.8526 36.5625 13.6835 36.5477 13.5106C36.5326 13.338 36.5174 13.1764 36.5026 13.026C36.4874 12.8609 36.4723 12.703 36.4576 12.5527H36.5477C36.6077 12.703 36.6678 12.8608 36.728 13.026C36.7879 13.1764 36.852 13.338 36.9196 13.5106C36.9871 13.6835 37.0583 13.8524 37.1338 14.0176L41.0777 22.8071H44.4582V7.03125H41.303V15.8207Z" fill="#60A735"/>
<path d="M59.7674 6.69141C59.3166 6.69141 58.9223 6.86046 58.5842 7.19855C58.2461 7.53665 58.0771 7.93098 58.0771 8.38165C58.0771 8.83233 58.2462 9.2269 58.5842 9.56488C58.9223 9.90298 59.3166 10.0719 59.7674 10.0719C60.2181 10.0719 60.6125 9.90298 60.9506 9.56488C61.2887 9.22678 61.4576 8.83233 61.4576 8.38165C61.4576 7.93098 61.2886 7.53665 60.9506 7.19855C60.6125 6.86046 60.2182 6.69141 59.7674 6.69141Z" fill="#60A735"/>
<path d="M61.3447 11.5391H58.1895V22.8075H61.3447V11.5391Z" fill="#60A735"/>
<path d="M104.884 11.3125C103.246 11.3125 101.973 11.7936 101.064 12.7548C100.154 13.7165 99.7002 15.1889 99.7002 17.172C99.7002 19.1552 100.154 20.6279 101.064 21.5893C101.973 22.551 103.246 23.0317 104.884 23.0317C106.521 23.0317 107.795 22.551 108.704 21.5893C109.613 20.6279 110.067 19.1553 110.067 17.172C110.067 15.1887 109.613 13.7165 108.704 12.7548C107.795 11.7935 106.521 11.3125 104.884 11.3125ZM106.754 19.0089C106.649 19.4973 106.507 19.8878 106.326 20.1807C106.146 20.4737 105.932 20.6844 105.684 20.8118C105.436 20.9397 105.169 21.0033 104.884 21.0033C104.598 21.0033 104.332 20.9395 104.084 20.8118C103.836 20.6844 103.622 20.4737 103.441 20.1807C103.261 19.8878 103.118 19.4973 103.013 19.0089C102.908 18.5208 102.856 17.9084 102.856 17.1721C102.856 16.4361 102.908 15.824 103.013 15.3354C103.118 14.8474 103.261 14.4565 103.441 14.1636C103.622 13.8705 103.836 13.6604 104.084 13.5324C104.332 13.405 104.598 13.341 104.884 13.341C105.169 13.341 105.436 13.405 105.684 13.5324C105.932 13.6604 106.146 13.8705 106.326 14.1636C106.507 14.4565 106.649 14.8474 106.754 15.3354C106.859 15.824 106.912 16.4361 106.912 17.1721C106.912 17.9084 106.859 18.5208 106.754 19.0089Z" fill="#60A735"/>
<path d="M145.282 11.5392L143.367 18.8637C143.336 18.9842 143.31 19.1155 143.288 19.2581C143.265 19.401 143.246 19.5324 143.231 19.6524C143.216 19.8028 143.201 19.9531 143.186 20.1032H143.096C143.081 19.9533 143.066 19.8029 143.051 19.6524C143.036 19.5324 143.017 19.401 142.995 19.2581C142.972 19.1155 142.946 18.9842 142.916 18.8637L140.662 11.5392H137.507L141.811 23.9345C141.526 24.986 141.03 25.5121 140.324 25.5121C140.158 25.5121 140.001 25.4857 139.851 25.4332C139.7 25.3803 139.565 25.3165 139.445 25.2415C139.31 25.1662 139.189 25.0686 139.084 24.9486H138.859L138.07 26.8642C138.28 26.9995 138.521 27.1122 138.791 27.2023C139.017 27.2925 139.279 27.3713 139.58 27.439C139.881 27.5065 140.203 27.5404 140.549 27.5404C141.631 27.5404 142.51 27.221 143.186 26.5825C143.862 25.9437 144.373 25.0613 144.719 23.9344L148.437 11.5391L145.282 11.5392Z" fill="#60A735"/>
<path d="M26.4891 10.4087L21.1696 7.31355C20.6107 6.98821 19.8957 7.14785 19.528 7.67964L12.5052 17.8369C12.3629 18.0427 12.2862 18.2869 12.2855 18.5371L12.2589 26.5984L2.47692 20.8497V11.8057L8.54747 2.88619L16.4169 7.42972C17.0089 7.77166 17.7665 7.5688 18.1086 6.97644C18.4507 6.38409 18.2477 5.62665 17.6553 5.28471L8.78996 0.166164C8.22832 -0.158312 7.51174 0.00578366 7.14689 0.541912L0.214625 10.7272C0.0748029 10.9328 0 11.1757 0 11.4241V21.5583C0 21.9973 0.232459 22.4035 0.610931 22.626L12.8627 29.8262C13.0563 29.9401 13.2733 29.997 13.4903 29.997C13.7018 29.997 13.9135 29.9428 14.1036 29.8345C14.4888 29.615 14.7272 29.2061 14.7287 28.7628L14.7612 18.9297L20.914 10.0306L24.6277 12.1916V19.4279L19.4081 16.431C18.8149 16.0903 18.0581 16.295 17.7175 16.8882C17.3769 17.4814 17.5816 18.2382 18.1747 18.5788L25.2496 22.6411C25.6327 22.8612 26.1042 22.8604 26.4868 22.6389C26.8692 22.4174 27.1048 22.009 27.1048 21.5671V11.4792C27.1046 11.0382 26.8702 10.6305 26.4891 10.4087Z" fill="#60A735"/>
<path d="M133.843 7.03125H132.941V7.93272V9.48699V22.8071H136.097V7.03125H134.94H133.843Z" fill="#60A735"/>
<path d="M96.9819 12.7669C96.561 12.2788 96.0615 11.9144 95.4831 11.674C94.9046 11.4338 94.2622 11.3133 93.5563 11.3133C93.2104 11.3133 92.8989 11.351 92.621 11.426C92.3429 11.5013 92.1062 11.5764 91.9111 11.6514C91.6706 11.7568 91.4678 11.8695 91.3027 11.9895V7.03125H90.1458H89.0489H88.1475V7.93272V9.48699V22.8071H90.4012H91.3027V22.0617L91.5055 22.2437C91.7609 22.4543 92.0763 22.6382 92.4521 22.7958C92.8275 22.9536 93.2708 23.0325 93.7818 23.0325C94.4277 23.0325 95.0249 22.912 95.5735 22.6719C96.1218 22.4317 96.5989 22.0672 97.0045 21.5789C97.4103 21.0908 97.7258 20.4823 97.9511 19.7534C98.1765 19.0248 98.2892 18.1646 98.2892 17.173C98.2892 16.1813 98.1765 15.3214 97.9511 14.5925C97.7256 13.8638 97.4023 13.2554 96.9819 12.7669ZM94.9759 18.942C94.8707 19.4153 94.7316 19.7985 94.5591 20.0914C94.3862 20.3846 94.1833 20.5911 93.9506 20.7113C93.7174 20.8315 93.4734 20.8915 93.2182 20.8915C92.9026 20.8915 92.6283 20.8202 92.3956 20.6773C92.1625 20.5348 91.9635 20.3807 91.7984 20.2153C91.6181 20.0202 91.4527 19.7949 91.3027 19.5392V14.0176C91.4527 13.8976 91.6104 13.7849 91.7759 13.6795C91.9259 13.6045 92.1027 13.5296 92.3056 13.4541C92.5084 13.3791 92.7373 13.3414 92.9929 13.3414C93.3084 13.3414 93.5936 13.4055 93.8493 13.5329C94.1046 13.6608 94.33 13.871 94.5254 14.164C94.7204 14.4569 94.8709 14.8479 94.9761 15.3359C95.0811 15.8244 95.1338 16.4366 95.1338 17.1726C95.1338 17.8794 95.081 18.4689 94.9759 18.942Z" fill="#60A735"/>
<path d="M81.4702 11.3133C81.0793 11.3133 80.7299 11.3698 80.4222 11.4824C80.1141 11.5951 79.855 11.7116 79.6447 11.8318C79.3891 11.9821 79.1715 12.1472 78.9912 12.3275V7.03125H77.8343H76.7374H75.8359V7.93272V9.48699V22.8071H78.9912V14.8065C79.1411 14.5513 79.3066 14.3259 79.4869 14.1305C79.652 13.9654 79.851 13.8114 80.0841 13.6684C80.3168 13.5258 80.5911 13.4543 80.9068 13.4543C81.4174 13.4543 81.827 13.6272 82.1351 13.9727C82.4429 14.3183 82.5972 14.8592 82.5972 15.5953V22.8071H85.7524V15.5953C85.7524 14.2283 85.3805 13.1726 84.6368 12.4288C83.8928 11.6853 82.8372 11.3133 81.4702 11.3133Z" fill="#60A735"/>
<path d="M130.553 11.3463C130.35 11.3238 130.151 11.3125 129.956 11.3125C129.445 11.3125 129.001 11.3954 128.626 11.5604C128.25 11.7259 127.935 11.9063 127.679 12.1013C127.609 12.1575 127.542 12.2151 127.477 12.2738V11.5379H126.575H125.311H124.321V22.8064H127.477V16.5487V14.9184C127.626 14.6631 127.792 14.4377 127.972 14.2423C128.137 14.0772 128.336 13.9233 128.569 13.7803C128.802 13.6377 129.076 13.5661 129.392 13.5661C129.587 13.5661 129.779 13.5774 129.967 13.5999C130.155 13.6225 130.324 13.6489 130.474 13.6788C130.639 13.7239 130.804 13.7617 130.97 13.7915H131.195L131.646 11.5378C131.466 11.5079 131.285 11.4703 131.105 11.4251C130.939 11.3952 130.756 11.3689 130.553 11.3463Z" fill="#60A735"/>
<path d="M118.699 19.5397C118.548 19.7955 118.383 20.0209 118.203 20.2158C118.037 20.3813 117.835 20.5352 117.594 20.6779C117.354 20.8208 117.084 20.892 116.783 20.892C116.272 20.892 115.863 20.7194 115.555 20.3737C115.247 20.0282 115.093 19.4874 115.093 18.751V11.5391H111.938V18.7509C111.938 20.1181 112.309 21.1736 113.053 21.9173C113.797 22.661 114.852 23.0329 116.22 23.0329C116.73 23.0329 117.174 22.9541 117.549 22.7963C117.925 22.6386 118.24 22.4547 118.496 22.2442C118.565 22.1893 118.633 22.1321 118.699 22.0728V22.8075H121.854V11.5391H118.699L118.699 19.5397Z" fill="#60A735"/>
<path d="M70.2267 11.5379V12.281C70.1609 12.2198 70.0932 12.1597 70.0239 12.1013C69.7683 11.9062 69.4527 11.7259 69.0773 11.5604C68.7016 11.3954 68.2582 11.3125 67.7477 11.3125C67.1015 11.3125 66.5043 11.433 65.9561 11.6731C65.4074 11.9136 64.9306 12.278 64.5249 12.7661C64.1192 13.2545 63.8037 13.8631 63.5783 14.5916C63.3529 15.3204 63.2402 16.1804 63.2402 17.172C63.2402 18.1637 63.3529 19.0239 63.5783 19.7525C63.8037 20.4813 64.1266 21.0899 64.5474 21.578C64.9679 22.0664 65.4676 22.4308 66.0461 22.6709C66.6243 22.911 67.2666 23.0315 67.973 23.0315C68.3184 23.0315 68.6227 22.9977 68.8857 22.9301C69.1484 22.8624 69.3851 22.7836 69.5956 22.6934C69.821 22.6033 70.0312 22.4906 70.2266 22.3553V23.0314C70.2266 23.8277 70.0161 24.4399 69.5956 24.8682C69.1748 25.2963 68.5962 25.5104 67.8603 25.5104C67.4694 25.5104 67.1201 25.4652 66.8123 25.3752C66.5042 25.285 66.2451 25.1798 66.0348 25.0598C65.7792 24.9245 65.5616 24.7742 65.3813 24.609H65.1559L64.1417 26.4119C64.4571 26.6222 64.8178 26.8098 65.2235 26.9753C65.5689 27.1253 65.9821 27.2569 66.4631 27.3696C66.9437 27.4823 67.4847 27.5387 68.0857 27.5387C68.927 27.5387 69.6781 27.426 70.3394 27.2006C71.0004 26.9752 71.5564 26.6597 72.0072 26.2539C72.458 25.8483 72.7994 25.3711 73.0326 24.8228C73.2653 24.2742 73.382 23.6769 73.382 23.0312V16.9783V11.5379H71.1282H70.2267ZM70.2267 16.9789V20.3274C70.0764 20.4626 69.9186 20.5753 69.7534 20.6655C69.6031 20.7556 69.4266 20.8345 69.2238 20.9021C69.021 20.9696 68.7917 21.0036 68.5365 21.0036C68.2209 21.0036 67.9353 20.9398 67.6801 20.8121C67.4245 20.6847 67.1991 20.474 67.004 20.181C66.8086 19.8881 66.6583 19.4976 66.5532 19.0091C66.448 18.5211 66.3955 17.9087 66.3955 17.1724C66.3955 16.4663 66.4478 15.8766 66.5532 15.4033C66.6583 14.9299 66.7973 14.5467 66.9702 14.2538C67.1427 13.9609 67.3456 13.7545 67.5787 13.6341C67.8114 13.514 68.0555 13.4537 68.3111 13.4537C68.6116 13.4537 68.8819 13.5253 69.1224 13.6678C69.3625 13.8108 69.5654 13.9647 69.731 14.1299C69.9112 14.3253 70.0764 14.5507 70.2267 14.8059V16.9789Z" fill="#60A735"/>
<path d="M51.4102 11.3125C49.8925 11.3125 48.6868 11.7971 47.793 12.7661C46.899 13.7353 46.4521 15.204 46.4521 17.172C46.4521 21.0786 48.3301 23.0317 52.0864 23.0317C52.6572 23.0317 53.1716 22.9752 53.6301 22.8626C54.0882 22.75 54.49 22.6186 54.8359 22.4683C55.2264 22.3032 55.587 22.1154 55.9177 21.9049L54.9035 20.102H54.6781C54.4978 20.2674 54.2873 20.4174 54.0471 20.5528C53.8366 20.6733 53.585 20.7782 53.2922 20.8682C52.9993 20.9584 52.6724 21.0034 52.3118 21.0034C50.5088 21.0034 49.6074 20.0646 49.6074 18.1863H52.8295H53.2134H55.6924H56.3217C56.3422 17.9714 56.3536 17.747 56.3606 17.518L56.3685 17.5101V16.9467C56.3685 15.0839 55.9213 13.6789 55.0275 12.7324C54.1333 11.7857 52.9276 11.3125 51.4102 11.3125ZM52.8293 16.1578H49.6072C49.6072 15.1964 49.795 14.4867 50.1706 14.0281C50.546 13.57 50.9594 13.3407 51.4102 13.3407C51.861 13.3407 52.274 13.5701 52.6498 14.0281C52.7168 14.1099 52.7757 14.2028 52.8308 14.3008C52.9492 14.5111 53.0393 14.7591 53.1029 15.0426C53.1089 15.0696 53.1154 15.096 53.1209 15.1236C53.1308 15.1729 53.1392 15.224 53.1475 15.2756C53.1544 15.3187 53.1609 15.3623 53.1667 15.4068C53.1726 15.4519 53.1781 15.4976 53.1828 15.5442C53.1887 15.6031 53.1934 15.6639 53.1975 15.7254C53.2001 15.7631 53.2032 15.8003 53.2051 15.8391C53.21 15.9424 53.2131 16.048 53.2131 16.1578H52.8293Z" fill="#60A735"/>
</g>
<defs>
<clipPath id="clip0_47_78215">
<rect width="148.438" height="29.9971" fill="white"/>
</clipPath>
</defs>
</svg>
