<svg width="28" height="28" viewBox="0 0 28 28" fill="none" xmlns="http://www.w3.org/2000/svg">
<path fill-rule="evenodd" clip-rule="evenodd" d="M8.16634 6.99902C4.94468 6.99902 2.33301 9.6107 2.33301 12.8324V19.8324C2.33301 23.054 4.94468 25.6657 8.16634 25.6657H19.833C22.9989 25.6657 25.5758 23.1436 25.664 19.999H20.4163C18.3913 19.999 16.7497 18.3574 16.7497 16.3324C16.7497 14.3073 18.3913 12.6657 20.4163 12.6657H25.664C25.5758 9.5211 22.9989 6.99902 19.833 6.99902H8.16634ZM20.4163 14.1657H25.6663V18.499H20.4163C19.2197 18.499 18.2497 17.529 18.2497 16.3324C18.2497 15.1357 19.2197 14.1657 20.4163 14.1657ZM6.99967 19.6657C6.58546 19.6657 6.24967 20.0015 6.24967 20.4157C6.24967 20.8299 6.58546 21.1657 6.99967 21.1657H13.9997C14.4139 21.1657 14.7497 20.8299 14.7497 20.4157C14.7497 20.0015 14.4139 19.6657 13.9997 19.6657H6.99967ZM20.4163 15.5824C20.0021 15.5824 19.6663 15.9181 19.6663 16.3324C19.6663 16.7466 20.0021 17.0824 20.4163 17.0824H20.6497C21.0639 17.0824 21.3997 16.7466 21.3997 16.3324C21.3997 15.9181 21.0639 15.5824 20.6497 15.5824H20.4163Z" fill="white"/>
<path d="M22.7353 5.82462C21.8941 3.50135 19.4369 2.00143 16.8478 2.53448L6.81368 4.60034C4.7179 5.03182 3.01995 6.41342 2.13184 8.23965C3.51721 6.42228 5.70485 5.24943 8.16643 5.24943H19.8331C20.8611 5.24943 21.8414 5.45399 22.7353 5.82462Z" fill="white"/>
</svg>
