<svg width="16" height="16" viewBox="0 0 16 16" fill="none" xmlns="http://www.w3.org/2000/svg">
<path fill-rule="evenodd" clip-rule="evenodd" d="M7.33321 11.3335C7.85849 11.3335 8.37864 11.23 8.86394 11.029C9.34924 10.828 9.7902 10.5334 10.1616 10.1619C10.5331 9.79049 10.8277 9.34953 11.0287 8.86423C11.2297 8.37893 11.3332 7.85878 11.3332 7.3335C11.3332 6.80821 11.2297 6.28806 11.0287 5.80276C10.8277 5.31746 10.5331 4.8765 10.1616 4.50507C9.7902 4.13363 9.34924 3.839 8.86394 3.63798C8.37864 3.43696 7.85849 3.3335 7.33321 3.3335C6.27234 3.3335 5.25493 3.75492 4.50478 4.50507C3.75463 5.25521 3.33321 6.27263 3.33321 7.3335C3.33321 8.39436 3.75463 9.41178 4.50478 10.1619C5.25493 10.9121 6.27234 11.3335 7.33321 11.3335ZM2.95987 11.4415C3.98822 12.5387 5.39203 13.2085 6.89187 13.3175C8.28549 13.4218 9.67166 13.035 10.8099 12.2242L13.2925 14.7075L13.5285 14.4715L14.4712 13.5288L14.7072 13.2928L12.2239 10.8102C13.0347 9.67195 13.4216 8.28578 13.3172 6.89216C13.2058 5.38132 12.5269 3.96856 11.417 2.9375C10.307 1.90645 8.84815 1.33343 7.33321 1.3335C6.16247 1.33346 5.01729 1.67593 4.03879 2.31871C3.06029 2.96149 2.29121 3.87649 1.82633 4.95097C1.36144 6.02545 1.22106 7.21247 1.42247 8.36575C1.62389 9.51903 2.15831 10.5882 2.95987 11.4415Z" fill="white"/>
</svg>
