<svg width="64" height="64" viewBox="0 0 64 64" fill="none" xmlns="http://www.w3.org/2000/svg">
<path d="M54.9869 22.5307C52.1869 10.2107 41.4403 4.66406 32.0003 4.66406C32.0003 4.66406 32.0003 4.66406 31.9736 4.66406C22.5603 4.66406 11.7869 10.1841 8.98692 22.5041C5.86692 36.2641 14.2936 47.9174 21.9203 55.2507C24.7469 57.9707 28.3736 59.3307 32.0003 59.3307C35.6269 59.3307 39.2536 57.9707 42.0536 55.2507C49.6803 47.9174 58.1069 36.2907 54.9869 22.5307ZM32.0003 35.8907C27.3603 35.8907 23.6003 32.1307 23.6003 27.4907C23.6003 22.8507 27.3603 19.0907 32.0003 19.0907C36.6403 19.0907 40.4003 22.8507 40.4003 27.4907C40.4003 32.1307 36.6403 35.8907 32.0003 35.8907Z" fill="#35C1BE"/>
</svg>
