<svg width="25" height="20" viewBox="0 0 25 20" fill="none" xmlns="http://www.w3.org/2000/svg">
<g clip-path="url(#clip0_47_91461)">
<path d="M24.6233 2.36611C23.7022 2.77616 22.7248 3.04579 21.7237 3.16599C22.7774 2.5346 23.5661 1.54232 23.9434 0.373408C22.9507 0.960853 21.8654 1.37536 20.7339 1.59923C19.9724 0.789793 18.9654 0.253832 17.8687 0.0742551C16.772 -0.105322 15.6467 0.0814939 14.6669 0.605799C13.687 1.1301 12.9072 1.96268 12.4481 2.97474C11.989 3.98679 11.8762 5.12192 12.1272 6.20453C10.1185 6.10335 8.15364 5.58077 6.36012 4.67074C4.56659 3.76072 2.98455 2.48359 1.71674 0.922326C1.07153 2.03424 0.873983 3.35015 1.16427 4.6025C1.45456 5.85486 2.2109 6.94966 3.27951 7.66432C2.47743 7.63774 1.69322 7.42044 0.991851 7.03041V7.0934C0.992342 8.2596 1.39594 9.38977 2.13428 10.2925C2.87263 11.1952 3.90031 11.8149 5.04324 12.0467C4.60934 12.1638 4.16189 12.2234 3.71244 12.2236C3.39317 12.2237 3.07467 12.1922 2.76159 12.1296C3.08384 13.1332 3.71186 14.011 4.55774 14.6399C5.40361 15.2688 6.42499 15.6175 7.47888 15.6371C5.6893 17.0402 3.47982 17.8005 1.20582 17.7958C0.802903 17.7954 0.400326 17.7724 0 17.7268C2.30844 19.2129 4.9964 20.002 7.74184 19.9995C9.63275 20.0129 11.5075 19.6504 13.2571 18.933C15.0067 18.2156 16.5963 17.1577 17.9335 15.8207C19.2707 14.4837 20.3288 12.8942 21.0465 11.1447C21.7641 9.39522 22.1268 7.52054 22.1137 5.62962L22.0967 4.97572C23.0899 4.26591 23.946 3.38171 24.6233 2.36611Z" fill="white"/>
</g>
<defs>
<clipPath id="clip0_47_91461">
<rect width="24.6213" height="20" fill="white"/>
</clipPath>
</defs>
</svg>
