<svg width="26" height="26" viewBox="0 0 26 26" fill="none" xmlns="http://www.w3.org/2000/svg">
<path d="M21.6663 21.6693L17.333 17.3359M19.4997 11.9193C19.4997 12.9151 19.3035 13.9012 18.9224 14.8213C18.5413 15.7413 17.9827 16.5773 17.2786 17.2815C16.5744 17.9857 15.7384 18.5443 14.8184 18.9254C13.8983 19.3065 12.9122 19.5026 11.9163 19.5026C10.9205 19.5026 9.93438 19.3065 9.01432 18.9254C8.09427 18.5443 7.25829 17.9857 6.55411 17.2815C5.84994 16.5773 5.29135 15.7413 4.91025 14.8213C4.52916 13.9012 4.33301 12.9151 4.33301 11.9193C4.33301 9.90804 5.13196 7.97919 6.55411 6.55704C7.97626 5.13489 9.90512 4.33594 11.9163 4.33594C13.9276 4.33594 15.8564 5.13489 17.2786 6.55704C18.7007 7.97919 19.4997 9.90804 19.4997 11.9193Z" stroke="#32383F" stroke-width="2" stroke-linecap="round" stroke-linejoin="round"/>
</svg>
