<svg width="20" height="24" viewBox="0 0 20 24" fill="none" xmlns="http://www.w3.org/2000/svg">
<path d="M10.2626 12.8839L5.90043 8.52171C5.67078 8.30779 5.36705 8.19134 5.05324 8.1969C4.73943 8.20246 4.44004 8.32959 4.21811 8.55152C3.99618 8.77345 3.86903 9.07286 3.86347 9.38667C3.85791 9.70048 3.97436 10.0042 4.18829 10.2338L9.45544 15.501C9.56133 15.6072 9.68713 15.6914 9.82564 15.7489C9.96414 15.8063 10.1126 15.8359 10.2626 15.8359C10.4125 15.8359 10.561 15.8063 10.6995 15.7489C10.838 15.6914 10.9638 15.6072 11.0697 15.501L16.3369 10.2338C16.5508 10.0042 16.6672 9.70048 16.6617 9.38667C16.6561 9.07286 16.529 8.77345 16.307 8.55152C16.0851 8.32959 15.7857 8.20246 15.4719 8.1969C15.1581 8.19134 14.8544 8.30779 14.6247 8.52171L10.2626 12.8839Z" fill="#292B2F" stroke="#292B2F" stroke-width="0.714286"/>
</svg>
