<svg width="42" height="28" viewBox="0 0 42 28" fill="none" xmlns="http://www.w3.org/2000/svg">
<path d="M34.1065 24.553C34.0466 24.6706 34.0105 24.7989 34.0004 24.9305C33.9903 25.0621 34.0064 25.1944 34.0476 25.3197C34.0889 25.4451 34.1546 25.561 34.2409 25.6609C34.3272 25.7607 34.4324 25.8425 34.5505 25.9015C34.6685 25.9605 34.7971 25.9955 34.9288 26.0046C35.0604 26.0137 35.1926 25.9966 35.3176 25.9543C35.4427 25.9121 35.5581 25.8455 35.6573 25.7584C35.7564 25.6714 35.8374 25.5655 35.8955 25.447L34.1065 24.553ZM3.36247 17.723L4.25647 17.276L3.36247 17.724V17.723ZM6.10647 25.447C6.16455 25.5655 6.24551 25.6714 6.34468 25.7584C6.44386 25.8455 6.55929 25.9121 6.68432 25.9543C6.80935 25.9966 6.94151 26.0137 7.07318 26.0046C7.20484 25.9955 7.33341 25.9605 7.45147 25.9015C7.56953 25.8425 7.67474 25.7607 7.76104 25.6609C7.84734 25.561 7.91302 25.4451 7.9543 25.3197C7.99557 25.1944 8.01162 25.0621 8.00153 24.9305C7.99143 24.7989 7.95539 24.6706 7.89547 24.553L6.10647 25.447ZM3.80947 18H38.1915V16H3.81047L3.80947 18ZM37.7445 17.276L34.1065 24.553L35.8955 25.447L39.5335 18.171L37.7445 17.276ZM2.46847 18.171L6.10647 25.447L7.89547 24.553L4.25647 17.276L2.46847 18.171ZM38.1905 18C38.1052 18 38.0214 17.9782 37.9469 17.9367C37.8724 17.8951 37.8098 17.8352 37.765 17.7627C37.7203 17.6901 37.6948 17.6073 37.691 17.5221C37.6872 17.437 37.7063 17.3522 37.7445 17.276L39.5335 18.171C39.6479 17.9423 39.7009 17.6881 39.6894 17.4326C39.6779 17.1771 39.6013 16.9288 39.4668 16.7113C39.3324 16.4938 39.1445 16.3142 38.9211 16.1897C38.6977 16.0652 38.4462 15.9999 38.1905 16V18ZM3.81047 16C3.55496 16.0002 3.30372 16.0656 3.08059 16.1901C2.85746 16.3147 2.66984 16.4941 2.53551 16.7115C2.40119 16.9288 2.32462 17.1769 2.31306 17.4322C2.3015 17.6874 2.35534 17.9414 2.46947 18.17L4.25647 17.276C4.29467 17.3522 4.31374 17.437 4.30997 17.5221C4.30619 17.6073 4.28069 17.6901 4.2359 17.7627C4.19111 17.8352 4.12851 17.8951 4.05405 17.9367C3.97958 17.9782 3.89474 18 3.80947 18L3.81047 16Z" fill="#06BEFB"/>
<path d="M1.13402 25.9281C0.871193 25.8925 0.60501 25.9629 0.394032 26.1236C0.183054 26.2843 0.0445615 26.5222 0.00902248 26.7851C-0.0265165 27.0479 0.0438087 27.3141 0.204527 27.5251C0.365246 27.736 0.603193 27.8745 0.866022 27.9101L1.13402 25.9281ZM9.00002 24.0001L9.77102 23.3641C9.68093 23.2548 9.56866 23.1659 9.44164 23.1033C9.31462 23.0407 9.17576 23.0058 9.03424 23.0009C8.89271 22.996 8.75176 23.0212 8.6207 23.0748C8.48965 23.1285 8.37148 23.2093 8.27402 23.3121L9.00002 24.0001ZM21 24.0001L21.771 23.3641C21.6772 23.2505 21.5594 23.159 21.4261 23.0962C21.2929 23.0335 21.1474 23.0009 21 23.0009C20.8527 23.0009 20.7072 23.0335 20.5739 23.0962C20.4406 23.159 20.3228 23.2505 20.229 23.3641L21 24.0001ZM33 24.0001L33.725 23.3121C33.6276 23.2095 33.5095 23.1288 33.3785 23.0752C33.2475 23.0217 33.1067 22.9965 32.9653 23.0015C32.8239 23.0064 32.6852 23.0412 32.5583 23.1037C32.4313 23.1663 32.3191 23.255 32.229 23.3641L33 24.0001ZM41.073 27.9181C41.3361 27.8841 41.575 27.747 41.737 27.537C41.899 27.327 41.971 27.0612 41.937 26.7981C41.9031 26.535 41.766 26.2961 41.556 26.1341C41.3459 25.9721 41.0801 25.9001 40.817 25.9341L41.073 27.9181ZM0.866022 27.9101C2.47602 28.1281 4.10902 27.9501 5.64402 27.3901L4.95902 25.5101C3.73703 25.9585 2.42404 26.102 1.13402 25.9281L0.866022 27.9101ZM5.64402 27.3901C7.19552 26.8176 8.59288 25.8926 9.72602 24.6881L8.27402 23.3121C7.35429 24.2913 6.21886 25.0437 4.95902 25.5101L5.64402 27.3901ZM8.22902 24.6361C9.06046 25.652 10.1006 26.4774 11.279 27.0561L12.155 25.2561C11.2339 24.8036 10.4209 24.1583 9.77102 23.3641L8.22902 24.6361ZM11.279 27.0561C12.4378 27.6225 13.7103 27.9176 15 27.9191V25.9191C14.0137 25.9173 13.0408 25.6899 12.155 25.2561L11.28 27.0551L11.279 27.0561ZM15 27.9191C16.2895 27.9171 17.5617 27.6217 18.72 27.0551L17.846 25.2571C16.946 25.6951 15.976 25.9191 15 25.9191V27.9191ZM18.72 27.0551C19.8987 26.4768 20.9392 25.6518 21.771 24.6361L20.229 23.3641C19.5795 24.1586 18.7668 24.8042 17.846 25.2571L18.72 27.0551ZM20.229 24.6361C21.0605 25.652 22.1006 26.4774 23.279 27.0561L24.154 25.2561C23.2333 24.8034 22.4206 24.1582 21.771 23.3641L20.229 24.6361ZM23.279 27.0561C24.4378 27.6225 25.7103 27.9176 27 27.9191V25.9191C26.0134 25.9175 25.0401 25.6901 24.154 25.2561L23.28 27.0551L23.279 27.0561ZM27 27.9191C28.2895 27.9171 29.5617 27.6217 30.72 27.0551L29.846 25.2571C28.946 25.6951 27.976 25.9191 27 25.9191V27.9191ZM30.72 27.0551C31.8987 26.4768 32.9392 25.6518 33.771 24.6361L32.229 23.3641C31.5795 24.1586 30.7668 24.8042 29.846 25.2571L30.72 27.0551ZM32.275 24.6881C33.4077 25.892 34.8043 26.8166 36.355 27.3891L37.041 25.5101C35.7805 25.0439 34.6454 24.2915 33.725 23.3121L32.275 24.6881ZM36.355 27.3891C37.8624 27.9416 39.4807 28.123 41.073 27.9181L40.817 25.9341C39.5426 26.0981 38.2474 25.9526 37.041 25.5101L36.356 27.3901L36.355 27.3891ZM11 4.00007L10.293 4.70707C10.4806 4.89454 10.7349 4.99985 11 4.99985C11.2652 4.99985 11.5195 4.89454 11.707 4.70707L11 4.00007ZM9.72902 1.31407C9.54125 1.12643 9.28663 1.02106 9.02117 1.02116C8.75571 1.02125 8.50116 1.12679 8.31352 1.31457C8.12588 1.50234 8.02052 1.75696 8.02061 2.02242C8.02071 2.28788 8.12625 2.54243 8.31402 2.73007L9.72902 1.31407ZM13.686 2.72907C13.8737 2.54143 13.9791 2.28693 13.9791 2.02157C13.9791 1.7562 13.8737 1.50171 13.686 1.31407C13.4984 1.12643 13.2439 1.02101 12.9785 1.02101C12.7132 1.02101 12.4587 1.12643 12.271 1.31407L13.686 2.72907ZM11.707 3.29307L9.72902 1.31407L8.31402 2.73007L10.293 4.70807L11.707 3.29307ZM12.271 1.31407L10.293 3.29307L11.707 4.70707L13.686 2.72907L12.271 1.31407ZM5.00002 10.0001L4.29302 10.7071C4.48055 10.8945 4.73486 10.9999 5.00002 10.9999C5.26519 10.9999 5.51949 10.8945 5.70702 10.7071L5.00002 10.0001ZM3.73202 7.31707C3.54451 7.12943 3.29015 7.02396 3.02488 7.02386C2.75961 7.02377 2.50516 7.12906 2.31752 7.31657C2.12988 7.50407 2.02441 7.75844 2.02432 8.02371C2.02423 8.28898 2.12951 8.54343 2.31702 8.73107L3.73202 7.31707ZM7.68302 8.73107C7.78077 8.63941 7.85909 8.52904 7.91335 8.40652C7.9676 8.284 7.99668 8.15183 7.99886 8.01785C8.00103 7.88388 7.97626 7.75083 7.92601 7.62661C7.87576 7.50239 7.80106 7.38954 7.70635 7.29476C7.61163 7.19998 7.49883 7.1252 7.37465 7.07486C7.25047 7.02452 7.11744 6.99966 6.98346 7.00174C6.84948 7.00382 6.71729 7.0328 6.59473 7.08697C6.47217 7.14114 6.36175 7.21939 6.27002 7.31707L7.68302 8.73107ZM5.70702 9.29307L3.73202 7.31707L2.31702 8.73107L4.29302 10.7071L5.70702 9.29307ZM6.27002 7.31707L4.29302 9.29307L5.70702 10.7071L7.68302 8.73107L6.27002 7.31707ZM21 13.0001H20C20 13.2653 20.1054 13.5196 20.2929 13.7072C20.4805 13.8947 20.7348 14.0001 21 14.0001V13.0001ZM35 13.0001V14.0001C35.2045 14.0001 35.404 13.9374 35.5717 13.8206C35.7395 13.7037 35.8673 13.5383 35.9382 13.3465C36.009 13.1547 36.0193 12.9459 35.9678 12.748C35.9163 12.5502 35.8054 12.3729 35.65 12.2401L35 13.0001ZM21 1.00007L21.65 0.240066C21.5047 0.115809 21.3269 0.0357957 21.1376 0.00950376C20.9482 -0.0167881 20.7553 0.0117437 20.5817 0.0917193C20.408 0.171695 20.261 0.299763 20.1579 0.460751C20.0548 0.621739 20 0.808902 20 1.00007H21ZM35.65 12.2401L21.65 0.240066L20.35 1.76007L34.35 13.7601L35.65 12.2401ZM22 13.0001V1.00007H20V13.0001H22ZM35 12.0001H21V14.0001H35V12.0001Z" fill="#06BEFB"/>
<path d="M20 17C20 17.2652 20.1054 17.5196 20.2929 17.7071C20.4804 17.8946 20.7348 18 21 18C21.2652 18 21.5196 17.8946 21.7071 17.7071C21.8946 17.5196 22 17.2652 22 17H20ZM22 13C22 12.7348 21.8946 12.4804 21.7071 12.2929C21.5196 12.1054 21.2652 12 21 12C20.7348 12 20.4804 12.1054 20.2929 12.2929C20.1054 12.4804 20 12.7348 20 13H22ZM22 17V13H20V17H22Z" fill="#06BEFB"/>
</svg>
