<svg width="24" height="25" viewBox="0 0 24 25" fill="none" xmlns="http://www.w3.org/2000/svg">
<path d="M4.66211 21.5531C4.66211 21.9164 4.8064 22.2647 5.06324 22.5216C5.32007 22.7784 5.66842 22.9227 6.03164 22.9227C6.39486 22.9227 6.74321 22.7784 7.00004 22.5216C7.25688 22.2647 7.40117 21.9164 7.40117 21.5531C7.40117 21.1899 7.25688 20.8416 7.00004 20.5847C6.74321 20.3279 6.39486 20.1836 6.03164 20.1836C5.66842 20.1836 5.32007 20.3279 5.06324 20.5847C4.8064 20.8416 4.66211 21.1899 4.66211 21.5531Z" stroke="#767676" stroke-width="1.25" stroke-linecap="round" stroke-linejoin="round"/>
<path d="M14.7031 21.5531C14.7031 21.9164 14.8474 22.2647 15.1042 22.5216C15.3611 22.7784 15.7094 22.9227 16.0726 22.9227C16.4359 22.9227 16.7842 22.7784 17.041 22.5216C17.2979 22.2647 17.4422 21.9164 17.4422 21.5531C17.4422 21.1899 17.2979 20.8416 17.041 20.5847C16.7842 20.3279 16.4359 20.1836 16.0726 20.1836C15.7094 20.1836 15.3611 20.3279 15.1042 20.5847C14.8474 20.8416 14.7031 21.1899 14.7031 21.5531Z" stroke="#767676" stroke-width="1.25" stroke-linecap="round" stroke-linejoin="round"/>
<path d="M22.9202 4.66016H21.1708C20.7592 4.66013 20.3596 4.79917 20.037 5.05473C19.7143 5.31028 19.4874 5.66736 19.3932 6.06804L16.0725 20.1815H6.0293" stroke="#767676" stroke-width="1.25" stroke-linecap="round" stroke-linejoin="round"/>
<path d="M16.5037 18.355H5.92638C5.55437 18.3549 5.19126 18.2412 4.88565 18.0291C4.58004 17.817 4.3465 17.5166 4.2163 17.1681L1.92188 11.0508H18.222" stroke="#767676" stroke-width="1.25" stroke-linecap="round" stroke-linejoin="round"/>
<path d="M10.1391 11.0525V2.37879C10.1391 2.31719 10.1267 2.25622 10.1026 2.19954C10.0784 2.14287 10.0431 2.09167 9.99864 2.04901C9.95419 2.00636 9.90159 1.97315 9.84397 1.95137C9.78635 1.92959 9.72491 1.91969 9.66337 1.92228C5.71912 2.17701 1.92188 5.54788 1.92188 9.66835V11.0525H10.1391Z" stroke="#767676" stroke-width="1.25" stroke-linecap="round" stroke-linejoin="round"/>
</svg>
