<svg width="25" height="22" viewBox="0 0 25 22" fill="none" xmlns="http://www.w3.org/2000/svg">
<path d="M22.2813 5.48363C22.297 5.72428 22.297 5.96498 22.297 6.20563C22.297 13.5458 17.1758 22.0033 7.81578 22.0033C4.93212 22.0033 2.25335 21.0922 0 19.5108C0.409713 19.5623 0.803613 19.5795 1.22909 19.5795C3.60845 19.5795 5.79879 18.7029 7.54789 17.2073C5.31031 17.1557 3.43515 15.5571 2.78907 13.3567C3.10425 13.4083 3.41938 13.4426 3.75032 13.4426C4.20728 13.4426 4.66428 13.3739 5.08971 13.2536C2.75759 12.7378 1.00845 10.5031 1.00845 7.8043V7.73557C1.686 8.14813 2.47394 8.40598 3.30904 8.44032C1.93812 7.44327 1.03997 5.74147 1.03997 3.81617C1.03997 2.78478 1.29205 1.83932 1.73329 1.01419C4.23876 4.38345 8.00485 6.58375 12.2278 6.82445C12.1491 6.41189 12.1018 5.98218 12.1018 5.55241C12.1018 2.49254 14.3709 0 17.1915 0C18.6569 0 19.9806 0.670413 20.9103 1.75339C22.0606 1.51274 23.1636 1.04858 24.1406 0.412566C23.7624 1.70185 22.9588 2.78483 21.903 3.47239C22.9273 3.35212 23.92 3.04263 24.8339 2.61292C24.1407 3.71304 23.274 4.69284 22.2813 5.48363Z" fill="white"/>
</svg>
