<svg width="20" height="20" viewBox="0 0 20 20" fill="none" xmlns="http://www.w3.org/2000/svg">
<path d="M7.50039 3.1249C7.66605 3.12715 7.82488 3.19124 7.9457 3.30459L14.1957 9.55459C14.3131 9.67309 14.3789 9.83312 14.3789 9.9999C14.3789 10.1667 14.3131 10.3267 14.1957 10.4452L7.9457 16.6952C7.82427 16.7949 7.6701 16.8458 7.5132 16.8381C7.35629 16.8304 7.20786 16.7646 7.09677 16.6535C6.98569 16.5424 6.91989 16.394 6.91219 16.2371C6.90448 16.0802 6.95541 15.926 7.05508 15.8046L12.8676 9.9999L7.05508 4.19521C6.93771 4.07672 6.87187 3.91668 6.87187 3.7499C6.87187 3.58312 6.93771 3.42309 7.05508 3.30459C7.1759 3.19124 7.33474 3.12715 7.50039 3.1249Z" fill="white"/>
</svg>
