<svg width="30" height="30" viewBox="0 0 30 30" fill="none" xmlns="http://www.w3.org/2000/svg">
<g clip-path="url(#clip0_47_48305)">
<path d="M14.0625 2.21239C14.0625 2.21239 20.1 0.95614 21.9469 5.02489C23.7937 9.09364 20.9344 10.5374 20.9344 10.5374L18.8812 8.66239C18.8812 8.66239 21.9375 6.00926 19.275 4.38739C16.6125 2.76551 14.7187 3.30926 14.7187 3.30926L14.1 2.37176" fill="#962C2C"/>
<path d="M22.1531 18.6559C22.1531 18.6559 24.7031 25.959 19.7531 26.2777L16.875 25.0777L16.6406 25.959C17.1726 26.5069 17.8191 26.9305 18.5338 27.1995C19.2485 27.4685 20.0138 27.5763 20.775 27.5152C23.2406 27.1871 26.7188 22.584 23.4375 18.5527L22.1531 18.6559Z" fill="#962C2C"/>
<path d="M3.48773 11.1465C3.48773 11.1465 -1.19977 15.1215 0.862734 19.1152C2.92523 23.109 5.82211 21.7121 5.82211 21.7121L5.58773 18.8996C5.58773 18.8996 1.61273 19.6871 1.97836 16.5934C2.34398 13.4996 3.91898 12.3746 3.91898 12.3746L3.52523 11.2496" fill="#962C2C"/>
<path d="M11.9155 14.1664C12.6667 14.9906 13.1675 16.0117 13.3593 17.1102L15.6937 16.3133C15.6937 16.3133 13.5843 13.7914 13.7437 12.6289C13.7437 12.6289 12.6187 14.157 11.9155 14.1664Z" fill="#962C2C"/>
<path d="M13.8281 16.8746C13.8281 16.8746 18.3844 9.69335 29.2969 11.1371L29.8687 11.4371C30.0831 13.1408 30.1739 14.8578 30.1406 16.5746C29.9906 18.2996 29.3344 23.3433 24.9563 23.7746C20.5781 24.2058 17.4 22.8371 13.5938 16.7808" fill="#962C2C"/>
<path d="M15.5812 16.8752C15.5812 16.8752 19.3312 10.9127 28.4155 12.1127L28.8937 12.3658C29.069 13.7774 29.141 15.1999 29.1093 16.6221C28.9874 18.0658 28.4437 22.2471 24.8155 22.6033C21.1874 22.9596 18.5437 21.8439 15.3843 16.8002" fill="#E52E2E"/>
<path d="M12.9093 16.0969C12.9093 16.0969 18.8437 11.0437 16.1343 1.32187L15.7874 0.84375C14.2169 0.865228 12.6501 1.00311 11.0999 1.25625C9.55307 1.6125 5.06244 2.85 5.23119 6.88125C5.39994 10.9125 7.02182 13.6219 13.0312 16.2563" fill="#962C2C"/>
<path d="M19.6876 18.4414C19.716 19.1163 19.8871 19.7776 20.1897 20.3815C20.4922 20.9855 20.9193 21.5186 21.4428 21.9455C21.9662 22.3724 22.5743 22.6836 23.2268 22.8585C23.8792 23.0334 24.5614 23.068 25.2282 22.9602C23.2881 23.3109 21.2891 23.1295 19.4438 22.4352L19.6876 18.4414Z" fill="#962C2C"/>
<path d="M17.6063 16.7253C17.6063 16.7253 20.3157 12.4409 26.7751 13.294L27.1126 13.4628C27.2394 14.4763 27.2895 15.4979 27.2626 16.519C27.1688 17.5503 26.7751 20.5503 24.1876 20.8128C21.6001 21.0753 19.7157 20.2784 17.4751 16.669" fill="#EF5858"/>
<path d="M13.978 2.24141C13.978 2.24141 17.1562 6.17891 14.278 12.0195L14.0062 12.282C13.006 12.0754 12.0222 11.7966 11.0624 11.4477C10.1249 11.0352 7.40615 9.69453 7.9874 7.15391C8.56865 4.61328 9.92803 3.09453 14.0624 2.12891" fill="#E52E2E"/>
<path d="M10.9031 18.2441C11.3205 19.1063 11.5374 20.0518 11.5374 21.0098C11.5374 21.9677 11.3205 22.9132 10.9031 23.7754L9.46875 22.5004L10.9031 18.2441Z" fill="#A3704D"/>
<path d="M14.4279 19.8384C14.4279 19.8384 14.9623 25.8571 11.7748 26.9259C8.58732 27.9946 3.09357 28.1728 3.6467 21.8259C4.19982 15.479 11.6623 17.9634 11.6623 17.9634L14.4279 19.8384Z" fill="#734F36"/>
<path d="M13.7624 20.1655C13.7624 20.1655 14.2311 25.453 11.428 26.3998C8.6249 27.3467 3.79678 27.4873 4.28428 21.9092C4.77178 16.3311 11.3249 18.5248 11.3249 18.5248L13.7624 20.1655Z" fill="#A3704D"/>
<path d="M9.84368 6.08436C9.84368 6.08436 11.4937 12.7594 16.8749 16.725C17.2983 17.0188 17.659 17.3939 17.9359 17.8286C18.2127 18.2632 18.4003 18.7487 18.4876 19.2566C18.5748 19.7645 18.5601 20.2847 18.4442 20.7868C18.3282 21.2889 18.1135 21.763 17.8124 22.1812C17.5294 22.5863 17.1446 22.9097 16.6968 23.1187C14.3999 24.1312 11.7468 23.175 9.29055 20.925C6.8343 18.675 2.08118 15.3469 2.81243 6.56249C2.81243 6.56249 9.02805 4.92186 9.84368 6.08436Z" fill="#734F36"/>
<path d="M16.5189 20.5028C17.1314 20.9167 17.6193 21.4899 17.9299 22.1607C18.2405 22.8315 18.362 23.5743 18.2814 24.3091C18.0752 26.081 17.4564 28.2185 15.6845 28.8185C12.497 29.8966 6.9939 30.0653 7.54703 23.7185C8.10015 17.3716 15.5627 19.856 15.5627 19.856L16.5189 20.5028Z" fill="#734F36"/>
<path d="M9.28103 6.97477C9.28103 6.97477 10.8935 13.481 16.2467 16.9779C16.7267 17.2972 17.1043 17.7485 17.3338 18.2775C17.5634 18.8064 17.6351 19.3904 17.5404 19.9591C17.5049 20.4352 17.3507 20.8948 17.092 21.296C16.8332 21.6972 16.4782 22.0273 16.0592 22.256C13.9873 23.1935 11.5873 22.3029 9.37479 20.2685C7.16229 18.2341 2.88729 15.2529 3.53416 7.3029C3.53416 7.3029 8.54041 5.9154 9.28103 6.97477Z" fill="#A3704D"/>
<path d="M5.05331 2.22266C4.45026 2.22876 3.85757 2.38023 3.32552 2.6642C2.79348 2.94818 2.33777 3.35628 1.99706 3.85391C1.05956 5.49453 1.05956 8.08203 2.82206 9.47891C2.82206 9.47891 4.08769 10.1352 4.39706 9.62891C4.69056 8.9953 4.9259 8.33634 5.10019 7.66016L5.05331 2.22266Z" fill="#734F36"/>
<path d="M4.43419 2.69922C3.98191 2.76525 3.55044 2.93281 3.17214 3.18934C2.79384 3.44587 2.47852 3.78472 2.24982 4.18047C1.80912 4.90874 1.63635 5.76796 1.76128 6.60998C1.88621 7.45199 2.30103 8.22403 2.93419 8.79297C2.93419 8.79297 3.97482 9.33672 4.22794 8.91484C4.47001 8.39277 4.66454 7.84995 4.80919 7.29297L4.43419 2.69922Z" fill="#A3704D"/>
<path d="M3.64698 7.27584C3.64698 7.27584 3.29073 9.31959 6.7501 9.90084C10.2095 10.4821 12.272 9.90084 12.5438 8.96334C12.8157 8.02584 12.5438 7.59459 11.072 6.35709C9.6001 5.11959 9.27198 2.37271 6.5626 1.95084C3.85323 1.52896 2.99073 4.46334 3.64698 7.27584Z" fill="#A3704D"/>
<path d="M4.35921 7.11636C4.35921 7.11636 4.05921 8.83198 6.97483 9.31948C9.89046 9.80698 11.6623 9.31948 11.8311 8.56948C11.9998 7.81948 11.878 7.42573 10.603 6.37573C9.32796 5.32573 9.09358 2.99136 6.79671 2.62573C4.49983 2.26011 3.81546 4.75386 4.35921 7.11636Z" fill="#A3704D"/>
<path d="M16.0404 20.9619C16.5902 21.332 17.0279 21.8459 17.3057 22.4477C17.5834 23.0495 17.6905 23.7159 17.6154 24.3744C17.4373 25.9307 16.8841 27.7869 15.3373 28.3119C12.5248 29.2494 7.70602 29.3994 8.19352 23.8213C8.68102 18.2432 15.2341 20.4369 15.2341 20.4369L16.0404 20.9619Z" fill="#A3704D"/>
<path opacity="0.53" d="M4.10638 4.92188C4.10638 4.92188 3.91888 7.2 7.44388 7.96875C9.03427 8.39114 10.6734 8.60233 12.3189 8.59687C12.1745 8.94996 11.921 9.24769 11.5956 9.44668C11.2701 9.64567 10.8896 9.73551 10.5095 9.70312C8.98138 9.76875 3.24388 11.0156 4.10638 4.92188Z" fill="#A3704D"/>
<path opacity="0.46" d="M2.01563 4.10547C2.01563 4.10547 1.65 7.49922 3.98438 7.59297C3.98438 7.59297 4.63125 8.22109 4.52813 8.66172C4.425 9.10234 4.37813 9.48672 3.88125 9.51484C3.38438 9.54297 0.440629 8.63359 2.01563 4.10547Z" fill="#734F36"/>
<path d="M5.79359 4.00218C5.79507 3.85666 5.83375 3.71394 5.90595 3.58759C5.97815 3.46124 6.08148 3.35546 6.20609 3.28031C6.35254 3.23161 6.50874 3.21983 6.66084 3.246C6.81293 3.27216 6.95621 3.33547 7.07797 3.43031C7.73558 3.93071 8.27359 4.57119 8.65297 5.30531C8.71384 5.37579 8.76011 5.45767 8.78908 5.54619C8.81805 5.6347 8.82914 5.72809 8.82172 5.82093C8.77484 6.09281 8.44672 6.22406 8.16547 6.23343C7.86021 6.2555 7.5537 6.21399 7.2653 6.11154C6.97691 6.00908 6.7129 5.84791 6.48999 5.63821C6.26707 5.4285 6.09008 5.17483 5.97021 4.89323C5.85034 4.61163 5.7902 4.30822 5.79359 4.00218Z" fill="#A3704D"/>
<path d="M15.9375 17.3255C15 16.4818 13.8563 15.9662 12.8719 15.2162C11.7947 14.385 10.9543 13.286 10.4344 12.0287C10.348 11.7872 10.2381 11.5548 10.1063 11.3349C10.0426 11.2226 9.95648 11.1247 9.85324 11.0473C9.74999 10.9699 9.63187 10.9146 9.50628 10.8849C9.38234 10.8734 9.25734 10.8866 9.13857 10.9239C9.01981 10.9611 8.90965 11.0217 8.81453 11.1019C8.7194 11.1822 8.64122 11.2806 8.58454 11.3915C8.52786 11.5023 8.49382 11.6233 8.4844 11.7474C8.48179 12.2561 8.66899 12.7475 9.0094 13.1255C9.0094 13.1255 10.1907 15.188 11.0063 16.3318C11.8516 17.7394 13.151 18.8173 14.6907 19.388C15.0406 19.5074 15.4164 19.5301 15.7782 19.4537C15.9593 19.4168 16.1282 19.3347 16.2692 19.2151C16.4102 19.0954 16.5186 18.9421 16.5844 18.7693C16.6196 18.4924 16.5779 18.2112 16.4638 17.9565C16.3497 17.7018 16.1676 17.4835 15.9375 17.3255Z" fill="#A3704D"/>
<path d="M6.21565 9.72169C6.19627 9.89089 6.14874 10.0557 6.07503 10.2092C5.89221 10.8536 5.87288 11.5335 6.01878 12.1873C6.44036 14.7359 7.55991 17.1177 9.25315 19.0686C9.49352 19.2932 9.66297 19.5832 9.74065 19.9029C9.74065 20.2217 9.50628 20.6061 9.18753 20.5311C9.05111 20.4844 8.93079 20.3998 8.84065 20.2873L6.35628 17.8123C5.59676 17.0949 4.93767 16.2781 4.3969 15.3842C3.74995 13.9076 3.43014 12.3085 3.4594 10.6967C3.42145 10.402 3.44055 10.1029 3.51565 9.81544C3.59912 9.54778 3.771 9.3164 4.00315 9.15919C4.18628 9.04536 4.39312 8.97517 4.6077 8.95404C4.82228 8.9329 5.03884 8.9614 5.24065 9.03731C5.5219 9.08419 6.21565 9.37481 6.21565 9.72169Z" fill="#734F36"/>
<path d="M8.01561 20.6914C7.70347 21.0708 7.36847 21.4309 7.01249 21.7695C6.66604 22.184 6.4407 22.686 6.3613 23.2203C6.2819 23.7546 6.35152 24.3004 6.56249 24.7977C6.98312 25.5829 7.57998 26.26 8.30624 26.7758C7.88155 26.9819 7.40996 27.0722 6.93916 27.0377C6.46835 27.0031 6.01502 26.8449 5.62499 26.5789C4.95699 26.0484 4.47447 25.3197 4.24686 24.4977C4.03273 23.8942 3.90951 23.2623 3.88124 22.6227C3.87276 21.9331 4.00658 21.2491 4.27435 20.6136C4.54212 19.978 4.93808 19.4045 5.43749 18.9289C5.7087 18.6262 6.08314 18.4356 6.48749 18.3945C7.12499 18.3945 7.48124 18.9758 7.92186 19.332C8.10776 19.504 8.22098 19.7405 8.23841 19.9931C8.25583 20.2458 8.17614 20.4955 8.01561 20.6914Z" fill="#734F36"/>
<path opacity="0.38" d="M9.17807 23.868C9.2378 24.3795 9.39969 24.8738 9.65415 25.3215C9.9086 25.7692 10.2504 26.1612 10.6593 26.4743C11.3576 26.9316 12.1779 27.167 13.0124 27.1493C13.8392 27.1367 14.6637 27.0583 15.4781 26.9149C15.8437 26.868 16.3124 26.9149 16.4156 27.2243C16.5187 27.5336 16.2937 27.7868 16.0687 27.9743C15.2606 28.5948 14.2749 28.9398 13.2562 28.9586C12.2698 28.988 11.283 28.9126 10.3124 28.7336C9.84397 28.7014 9.38886 28.5636 8.9812 28.3305C8.56314 27.9921 8.26422 27.529 8.12807 27.0086C7.6556 25.534 7.70526 23.9416 8.2687 22.4993C8.36245 22.2555 8.96245 20.6993 9.3187 21.3555C9.42182 21.5524 9.1687 22.293 9.14995 22.5086C9.10696 22.9613 9.1164 23.4175 9.17807 23.868Z" fill="#734F36"/>
<path d="M8.75645 20.0527C7.59174 21.3456 6.75282 22.8981 6.30957 24.5809C5.61582 27.309 4.43457 24.8059 4.43457 24.8059C4.43457 24.8059 4.6877 26.8027 8.24082 27.1871C8.24082 27.1871 7.69707 22.3965 8.70019 20.9246L9.29082 20.6996L8.75645 20.0527Z" fill="#A3704D"/>
<path d="M15.731 18.5912C15.731 18.5912 16.4904 24.5818 13.3498 25.7725C10.2092 26.9631 4.68728 27.3381 5.03415 20.9725C5.38103 14.6068 12.8998 16.8193 12.8998 16.8193L15.731 18.5912Z" fill="#A3704D"/>
<path d="M15.075 18.9468C15.075 18.9468 15.75 24.2061 12.9843 25.2561C10.2187 26.3061 5.39997 26.6249 5.68122 21.0374C5.96247 15.4499 12.5906 17.3905 12.5906 17.3905L15.075 18.9468Z" fill="#FCC097"/>
<path d="M10.6499 5.01496C10.6499 5.01496 12.525 11.6243 18.15 15.3931C18.58 15.6751 18.9496 16.0397 19.2375 16.4658C19.5254 16.8918 19.7258 17.3709 19.827 17.875C19.9282 18.3792 19.9281 18.8984 19.8269 19.4026C19.7257 19.9067 19.5254 20.3858 19.2375 20.8118C18.9622 21.2132 18.5875 21.5362 18.15 21.7493C15.9 22.8462 13.2093 21.9931 10.6499 19.8743C8.09057 17.7556 3.23432 14.5587 3.6187 5.72746C3.6187 5.72746 9.78745 3.88058 10.6499 5.01496Z" fill="#A3704D"/>
<path d="M17.8125 19.1805C18.4367 19.5757 18.9412 20.1338 19.2716 20.7947C19.602 21.4555 19.7458 22.194 19.6875 22.9305C19.5469 24.7023 19.0125 26.868 17.2594 27.5336C14.175 28.7055 8.69065 29.0617 9.0094 22.7148C9.32815 16.368 16.875 18.5711 16.875 18.5711L17.8125 19.1805Z" fill="#A3704D"/>
<path d="M10.1157 5.92437C10.1157 5.92437 11.9907 12.365 17.4564 15.665C17.9456 15.9662 18.3371 16.4028 18.5834 16.922C18.8296 17.4411 18.9201 18.0205 18.8439 18.59C18.8316 19.0678 18.6978 19.5346 18.455 19.9463C18.2122 20.358 17.8685 20.7011 17.4564 20.9431C15.422 21.9369 12.9939 21.1587 10.7064 19.2087C8.41886 17.2587 4.04074 14.4369 4.38761 6.46812C4.38761 6.46812 9.37511 4.89312 10.1157 5.92437Z" fill="#FCC097"/>
<path d="M5.7187 1.33203C5.11679 1.36101 4.53072 1.53462 4.01013 1.83815C3.48955 2.14169 3.04978 2.56622 2.72808 3.07578C1.87495 4.75391 1.87495 7.33203 3.74995 8.63516C3.74995 8.63516 5.03433 9.24453 5.32495 8.72891C5.59493 8.08388 5.80519 7.41546 5.95308 6.73203L5.7187 1.33203Z" fill="#A3704D"/>
<path d="M5.1189 1.875C4.67256 1.95114 4.24925 2.12733 3.88069 2.39035C3.51213 2.65337 3.20789 2.99641 2.99078 3.39375C2.57525 4.13725 2.43308 5.00274 2.5889 5.8401C2.74473 6.67747 3.18874 7.43387 3.8439 7.97813C3.8439 7.97813 4.90328 8.475 5.13765 8.05313C5.351 7.52266 5.51422 6.97339 5.62515 6.4125L5.1189 1.875Z" fill="#E8AB82"/>
<path d="M4.49983 6.43028C4.49983 6.43028 4.20921 8.4834 7.69671 8.94278C11.1842 9.40215 13.2186 8.75528 13.453 7.83653C13.6873 6.91778 13.453 6.46778 11.8873 5.28653C10.3217 4.10528 9.93733 1.3209 7.19983 1.00215C4.46233 0.683401 3.74983 3.6459 4.49983 6.43028Z" fill="#A3704D"/>
<path d="M5.21273 6.24336C5.21273 6.24336 4.96898 7.96836 7.89398 8.35274C10.819 8.73711 12.5346 8.19336 12.7315 7.41524C12.9284 6.63711 12.7315 6.26211 11.4096 5.26836C10.0877 4.27461 9.77836 1.94961 7.50023 1.68711C5.22211 1.42461 4.57523 3.90899 5.21273 6.24336Z" fill="#E8AB82"/>
<path d="M17.3908 19.6878C17.9518 20.0335 18.4068 20.5268 18.7061 21.1138C19.0054 21.7009 19.1374 22.3589 19.0876 23.016C18.9658 24.5722 18.4876 26.4472 16.9501 27.0285C14.1939 28.0785 9.36577 28.4066 9.64702 22.8097C9.92827 17.2128 16.5564 19.1628 16.5564 19.1628L17.3908 19.6878Z" fill="#FCC097"/>
<path opacity="0.53" d="M4.86566 4.06836C4.86566 4.06836 4.76254 6.34648 8.31566 6.98398C9.92029 7.34686 11.5655 7.49814 13.2094 7.43398C13.0791 7.79371 12.8364 8.10191 12.5173 8.31297C12.1982 8.52403 11.8196 8.62672 11.4375 8.60586C9.91879 8.72773 4.23754 10.1902 4.86566 4.06836Z" fill="#A3704D"/>
<path opacity="0.53" d="M2.75603 3.32812C2.75603 3.32812 2.5029 6.68438 4.84665 6.74063C4.84665 6.74063 5.51228 7.35 5.43728 7.79063C5.36228 8.23125 5.30603 8.625 4.81853 8.6625C4.33103 8.7 1.3404 7.9125 2.75603 3.32812Z" fill="#A3704D"/>
<path d="M6.56246 3.08453C6.55774 2.9385 6.59061 2.7937 6.65792 2.66402C6.72522 2.53433 6.8247 2.42411 6.94683 2.3439C7.09103 2.29129 7.24594 2.27489 7.39796 2.29614C7.54998 2.31739 7.69446 2.37564 7.81871 2.46578C8.49303 2.93094 9.05642 3.53914 9.46871 4.24703C9.59174 4.39044 9.65838 4.57371 9.65621 4.76265C9.65621 5.03453 9.29058 5.17515 9.00933 5.1939C8.70795 5.22766 8.40285 5.19883 8.11313 5.10922C7.82341 5.01961 7.55531 4.87115 7.32562 4.67314C7.09592 4.47512 6.90958 4.23182 6.77827 3.95847C6.64695 3.68511 6.57348 3.38759 6.56246 3.08453Z" fill="#FFE8D9"/>
<path d="M17.1843 16.0224C16.2468 15.2068 15.0562 14.738 14.0437 14.0255C12.9315 13.2392 12.0483 12.1715 11.4843 10.9318C11.3914 10.6928 11.2752 10.4636 11.1374 10.2474C10.993 10.0307 10.772 9.87661 10.5187 9.81614C10.3909 9.80846 10.2629 9.82703 10.1426 9.87069C10.0223 9.91435 9.91217 9.98219 9.81907 10.07C9.72597 10.1579 9.65184 10.2638 9.60125 10.3814C9.55065 10.499 9.52467 10.6256 9.5249 10.7536C9.52861 11.2636 9.72639 11.753 10.078 12.1224C10.078 12.1224 11.3249 14.1474 12.1874 15.263C13.0873 16.6359 14.4256 17.6636 15.9843 18.1786C16.3407 18.2724 16.7153 18.2724 17.0718 18.1786C17.252 18.134 17.4179 18.0443 17.554 17.9181C17.6901 17.7918 17.7919 17.6331 17.8499 17.4568C17.8814 17.1796 17.8359 16.8991 17.7185 16.6461C17.6011 16.3931 17.4162 16.1773 17.1843 16.0224Z" fill="#FFE8D9"/>
<path opacity="0.3" d="M7.15334 8.78483C7.13862 8.95481 7.10077 9.12197 7.04084 9.28171C6.87216 9.93665 6.87216 10.6236 7.04084 11.2786C7.56038 13.8093 8.76702 16.148 10.5283 18.038C10.7739 18.2556 10.9527 18.5384 11.044 18.8536C11.0908 19.1817 10.8377 19.5661 10.519 19.5005C10.3822 19.4588 10.2591 19.3811 10.1627 19.2755L7.59397 16.8755C6.80336 16.1932 6.11506 15.4007 5.55022 14.5223C4.83398 13.0615 4.44677 11.4615 4.41584 9.83483C4.35943 9.54379 4.35943 9.24463 4.41584 8.95358C4.48556 8.67935 4.64783 8.4376 4.87522 8.26921C5.05644 8.15179 5.26169 8.07652 5.47586 8.04894C5.69003 8.02135 5.90766 8.04216 6.11272 8.10983C6.44084 8.16608 7.13459 8.43796 7.15334 8.78483Z" fill="#A3704D"/>
<path opacity="0.38" d="M9.37481 19.6871C9.08772 20.0796 8.77451 20.4523 8.43731 20.8027C8.1091 21.232 7.90496 21.743 7.8471 22.2803C7.78924 22.8175 7.8799 23.3603 8.10919 23.8496C8.5608 24.6049 9.17983 25.2464 9.91856 25.7246C9.50591 25.9451 9.04228 26.0526 8.57469 26.0362C8.1071 26.0197 7.65218 25.8799 7.25606 25.6309C6.55312 25.1389 6.02459 24.4364 5.74669 23.6246C5.51267 23.0244 5.37045 22.3923 5.32481 21.7496C5.28488 21.0626 5.38754 20.3748 5.62632 19.7295C5.86511 19.0841 6.23486 18.4951 6.71231 17.9996C6.97257 17.6821 7.34535 17.4772 7.75294 17.4277C8.38106 17.4277 8.76544 17.9715 9.21544 18.309C9.41646 18.4726 9.54563 18.7082 9.5754 18.9656C9.60517 19.2231 9.53319 19.482 9.37481 19.6871Z" fill="#A3704D"/>
<path opacity="0.38" d="M10.6405 22.8084C10.7154 23.3151 10.8908 23.8017 11.1565 24.2396C11.4221 24.6775 11.7726 25.0579 12.1873 25.3584C12.9015 25.7871 13.7274 25.9928 14.5592 25.949C15.3889 25.9102 16.2138 25.8004 17.0248 25.6209C17.3811 25.5647 17.8498 25.5647 17.9623 25.9022C18.0748 26.2397 17.8592 26.4647 17.6342 26.6522C16.887 27.2754 15.9686 27.6578 14.9998 27.749C13.9986 27.8148 12.9933 27.7771 11.9998 27.6365C11.5276 27.6207 11.0655 27.4955 10.6498 27.2709C10.2051 26.9571 9.87568 26.5058 9.71233 25.9865C9.19224 24.5316 9.19224 22.9415 9.71233 21.4865C9.7967 21.2428 10.3311 19.6115 10.7155 20.3053C10.828 20.4928 10.603 21.2428 10.5842 21.4678C10.5513 21.9153 10.5702 22.3652 10.6405 22.8084Z" fill="#A3704D"/>
<path d="M10.0779 19.0117C8.96213 20.3459 8.18109 21.9273 7.7998 23.6242C7.20918 26.3805 5.9248 23.9242 5.9248 23.9242C5.9248 23.9242 6.23418 25.9117 9.80605 26.1461C9.80605 26.1461 9.08418 21.3742 10.0311 19.8648L10.6123 19.6211L10.0779 19.0117Z" fill="#734F36"/>
<path d="M19.1249 16.3789C19.1249 16.3789 20.8312 18.1883 19.6968 23.5227L17.8218 21.8727L19.1249 16.3789Z" fill="#A3704D"/>
<path d="M18.4407 16.668C18.4407 16.668 20.147 18.4773 19.022 23.8117L17.147 22.1617L18.4407 16.668Z" fill="#FCC097"/>
<path d="M14.6249 20.7471C15.0233 20.7714 15.4092 20.8958 15.7468 21.1088C16.0844 21.3218 16.3628 21.6166 16.5561 21.9659C16.7389 22.4306 16.7444 22.9464 16.5715 23.4149C16.3986 23.8834 16.0595 24.2719 15.6186 24.5065C15.1635 24.7139 14.6598 24.7913 14.1634 24.7301C13.667 24.6689 13.1972 24.4714 12.8061 24.1596C12.3284 23.7882 11.9965 23.2605 11.8686 22.669C11.4092 20.869 13.2374 20.6253 14.6249 20.7471Z" fill="#FFE8D9"/>
<path d="M4.6875 25.7715C4.6875 25.7715 7.75313 28.1246 8.68125 22.3027C8.79799 22.5119 8.88627 22.7358 8.94375 22.9684C8.94375 23.1465 7.58437 26.5965 9.88125 28.7152L8.22188 26.8402L8.40938 27.2996C8.11912 27.3203 7.82776 27.3203 7.5375 27.2996C7.28437 27.3184 5.16562 26.9809 4.6875 25.7715Z" fill="#734F36"/>
<path d="M23.7375 24.4597C24.6005 24.511 25.4375 24.7739 26.1749 25.2251C26.9122 25.6764 27.5272 26.3021 27.9656 27.0472C28.0692 27.212 28.1381 27.3961 28.1682 27.5884C28.1983 27.7807 28.1889 27.9771 28.1407 28.1657C28.0925 28.3543 28.0064 28.5311 27.8876 28.6853C27.7689 28.8395 27.62 28.9679 27.45 29.0628C26.2403 29.7209 24.885 30.0656 23.5078 30.0656C22.1307 30.0656 20.7754 29.7209 19.5656 29.0628C19.2125 28.842 18.9599 28.4917 18.8618 28.087C18.7636 27.6822 18.8279 27.2552 19.0406 26.8972C19.541 26.1168 20.237 25.4812 21.0595 25.0535C21.8819 24.6259 22.802 24.4211 23.7281 24.4597H23.7375Z" fill="#425763"/>
<path d="M23.6998 25.031C24.4231 25.0651 25.1283 25.2686 25.7585 25.6253C26.3887 25.9819 26.9263 26.4816 27.3279 27.0841C27.4228 27.2153 27.4872 27.3661 27.5163 27.5254C27.5455 27.6847 27.5387 27.8484 27.4965 28.0048C27.4542 28.1611 27.3776 28.306 27.2722 28.429C27.1669 28.5519 27.0353 28.6497 26.8873 28.7154C25.8156 29.2165 24.6436 29.466 23.4607 29.4449C22.2778 29.4238 21.1154 29.1326 20.0623 28.5935C19.922 28.5192 19.7993 28.4156 19.7025 28.2896C19.6058 28.1637 19.5373 28.0184 19.5018 27.8636C19.4662 27.7089 19.4643 27.5483 19.4964 27.3927C19.5284 27.2372 19.5935 27.0904 19.6873 26.9622C20.1362 26.332 20.7363 25.8248 21.4326 25.4873C22.1289 25.1498 22.8989 24.9929 23.6717 25.031H23.6998Z" fill="#A2B6BA"/>
<path d="M23.6812 25.1152C24.2716 25.1403 24.8476 25.3046 25.3625 25.5946C25.8773 25.8845 26.3163 26.2921 26.6437 26.784C26.7132 26.896 26.7583 27.0215 26.776 27.1522C26.7937 27.2829 26.7837 27.4158 26.7465 27.5423C26.7094 27.6688 26.6459 27.7861 26.5604 27.8864C26.4748 27.9868 26.369 28.0679 26.25 28.1246C25.3768 28.5325 24.4219 28.7353 23.4583 28.7174C22.4947 28.6995 21.548 28.4615 20.6906 28.0215C20.5811 27.9572 20.4859 27.8713 20.4106 27.7691C20.3354 27.6669 20.2816 27.5504 20.2527 27.4268C20.2238 27.3032 20.2202 27.175 20.2423 27.05C20.2644 26.925 20.3117 26.8058 20.3812 26.6996C20.746 26.1856 21.2344 25.7719 21.8014 25.4966C22.3683 25.2214 22.9955 25.0934 23.625 25.1246L23.6812 25.1152Z" fill="#87999B"/>
<path d="M23.3157 27.7594C26.6709 27.7594 29.3907 25.0395 29.3907 21.6844C29.3907 18.3292 26.6709 15.6094 23.3157 15.6094C19.9606 15.6094 17.2407 18.3292 17.2407 21.6844C17.2407 25.0395 19.9606 27.7594 23.3157 27.7594Z" fill="#425763"/>
<path d="M23.3155 26.8879C26.2979 26.8879 28.7155 24.4702 28.7155 21.4879C28.7155 18.5056 26.2979 16.0879 23.3155 16.0879C20.3332 16.0879 17.9155 18.5056 17.9155 21.4879C17.9155 24.4702 20.3332 26.8879 23.3155 26.8879Z" fill="#A2B6BA"/>
<path d="M23.5314 26.0258C26.286 26.0258 28.5189 23.7928 28.5189 21.0383C28.5189 18.2838 26.286 16.0508 23.5314 16.0508C20.7769 16.0508 18.5439 18.2838 18.5439 21.0383C18.5439 23.7928 20.7769 26.0258 23.5314 26.0258Z" fill="#CBDEE4"/>
<path d="M26.2688 20.6148C26.8798 20.6148 27.3751 20.1196 27.3751 19.5086C27.3751 18.8976 26.8798 18.4023 26.2688 18.4023C25.6579 18.4023 25.1626 18.8976 25.1626 19.5086C25.1626 20.1196 25.6579 20.6148 26.2688 20.6148Z" fill="#425763"/>
<path d="M26.3155 20.1086C26.6831 20.1086 26.9812 19.8106 26.9812 19.443C26.9812 19.0754 26.6831 18.7773 26.3155 18.7773C25.9479 18.7773 25.6499 19.0754 25.6499 19.443C25.6499 19.8106 25.9479 20.1086 26.3155 20.1086Z" fill="#4ED154"/>
<path d="M22.3124 19.0781C22.3996 18.5277 22.5984 18.0009 22.8967 17.5302C23.195 17.0594 23.5863 16.6546 24.0468 16.3406C24.2437 16.2281 24.2062 16.1062 23.9905 16.0781H23.6999C23.4655 16.0781 21.8249 16.1531 21.2437 19.1625L22.3124 19.0781Z" fill="#A2B6BA"/>
<path d="M25.1584 22.2368C25.1654 20.3418 23.7355 18.8003 21.9648 18.7938C20.194 18.7873 18.7529 20.3183 18.746 22.2133C18.739 24.1083 20.1689 25.6498 21.9396 25.6563C23.7104 25.6628 25.1515 24.1318 25.1584 22.2368Z" fill="#425763"/>
<path d="M24.4839 22.084C24.4892 20.6394 23.398 19.4643 22.0466 19.4594C20.6952 19.4544 19.5954 20.6215 19.5902 22.066C19.5849 23.5106 20.6761 24.6857 22.0274 24.6906C23.3788 24.6956 24.4786 23.5285 24.4839 22.084Z" fill="#3587C4"/>
<path d="M24.0713 21.9884C24.0757 20.7872 23.1685 19.81 22.0449 19.8059C20.9214 19.8018 20.007 20.7722 20.0026 21.9735C19.9982 23.1747 20.9054 24.1518 22.029 24.1559C23.1525 24.16 24.0669 23.1896 24.0713 21.9884Z" fill="#4DA3EC"/>
<path d="M23.1826 20.9853C23.1837 20.6694 22.916 20.4124 22.5847 20.4112C22.2533 20.41 21.9837 20.665 21.9826 20.9809C21.9814 21.2967 22.2491 21.5537 22.5805 21.5549C22.9118 21.5561 23.1814 21.3011 23.1826 20.9853Z" fill="white"/>
<path d="M23.4374 17.5119C23.6822 17.2469 23.9454 16.9994 24.2249 16.7713C24.2767 16.7294 24.3379 16.7008 24.4032 16.6877C24.4685 16.6746 24.536 16.6776 24.5999 16.6963C25.1364 16.854 25.6501 17.0809 26.1281 17.3713C26.2067 17.421 26.2667 17.4952 26.2987 17.5825C26.3308 17.6698 26.3331 17.7653 26.3053 17.854C26.2775 17.9428 26.2211 18.0199 26.145 18.0733C26.0689 18.1267 25.9772 18.1535 25.8843 18.1494C25.1872 18.1052 24.4874 18.124 23.7937 18.2057C23.7104 18.2126 23.627 18.1946 23.554 18.1541C23.481 18.1135 23.4217 18.0522 23.3835 17.9779C23.3454 17.9036 23.3301 17.8197 23.3397 17.7367C23.3493 17.6538 23.3833 17.5755 23.4374 17.5119Z" fill="#E1F0F4"/>
</g>
<defs>
<clipPath id="clip0_47_48305">
<rect width="30" height="30" fill="white"/>
</clipPath>
</defs>
</svg>
