<svg width="60" height="60" viewBox="0 0 60 60" fill="none" xmlns="http://www.w3.org/2000/svg">
<g clip-path="url(#clip0_47_91943)">
<g filter="url(#filter0_d_47_91943)">
<path d="M29.9994 55.7137C44.201 55.7137 55.7137 44.201 55.7137 29.9994C55.7137 15.7978 44.201 4.28516 29.9994 4.28516C15.7978 4.28516 4.28516 15.7978 4.28516 29.9994C4.28516 44.201 15.7978 55.7137 29.9994 55.7137Z" fill="white"/>
</g>
<path d="M21.0647 38.5714C20.0722 38.5714 19.0947 38.3258 18.2174 37.8561C17.34 37.3864 16.5896 36.7067 16.0313 35.8764C15.4729 35.046 15.1236 34.0901 15.0139 33.0919C14.9041 32.0936 15.0372 31.0835 15.4016 30.1492C15.7659 29.215 16.3505 28.385 17.1043 27.7317C17.8581 27.0783 18.7584 26.6214 19.7267 26.4007C20.6949 26.1799 21.7019 26.2021 22.6597 26.4651C23.6176 26.7283 24.4973 27.2244 25.2224 27.9102L24.4992 28.6928C23.9002 28.1263 23.1734 27.7165 22.3821 27.4991C21.5908 27.2818 20.759 27.2635 19.9591 27.4459C19.1592 27.6283 18.4156 28.0058 17.7929 28.5455C17.1701 29.0852 16.6872 29.7709 16.3863 30.5426C16.0854 31.3144 15.9754 32.1489 16.0661 32.9735C16.1568 33.7982 16.4453 34.5878 16.9066 35.2737C17.3678 35.9597 17.9878 36.5211 18.7126 36.9092C19.4373 37.2972 20.2448 37.5 21.0647 37.5V38.5714Z" fill="#BDC1C6"/>
<path d="M29.0029 19.2852C27.3353 19.2803 25.7058 19.7915 24.3334 20.7502C22.9609 21.7089 21.9109 23.0694 21.3242 24.6491C21.691 24.6616 22.0565 24.7008 22.4178 24.7662C22.8693 23.6894 23.5721 22.7395 24.4659 21.9977C25.3596 21.2559 26.4179 20.7445 27.5497 20.507C28.6817 20.2697 29.8536 20.3136 30.9651 20.6348C32.0766 20.9561 33.0945 21.5452 33.9318 22.3517L34.4904 22.1214L34.6621 21.5761C33.1385 20.1023 31.1108 19.2815 29.0029 19.2852Z" fill="#4285F4"/>
<path d="M43.2575 29.095C42.8465 27.8 42.0392 26.6709 40.9521 25.8709C39.8652 25.0708 38.5549 24.6414 37.2108 24.6446C36.8133 24.6452 36.4167 24.6831 36.0262 24.758L35.6269 24.8342L35.4509 24.4635C35.0758 23.673 34.5616 22.9581 33.9336 22.3539L34.6641 21.5781C35.2881 22.1785 35.8146 22.8745 36.2245 23.6406C37.9459 23.4052 39.6943 23.7896 41.164 24.7263C42.6339 25.6631 43.7315 27.0928 44.2653 28.7655L43.8849 29.1638L43.2575 29.095Z" fill="#EA4335"/>
<path d="M41.773 36.9849L41.2087 36.7076L41.1211 36.1408C42.1472 35.329 42.9023 34.218 43.2846 32.958C43.6668 31.698 43.6577 30.3496 43.2585 29.095L44.266 28.7656C44.7319 30.2291 44.7427 31.8021 44.2969 33.2721C43.8511 34.742 42.9701 36.0378 41.773 36.9849Z" fill="#FBBC04"/>
<path d="M37.2122 38.5728L36.9258 38.0371L37.2122 37.5013C38.6296 37.5065 40.0071 37.027 41.1214 36.1406L41.7737 36.9847C40.4735 38.0191 38.8662 38.5787 37.2122 38.5728Z" fill="#34A853"/>
<path d="M21.0647 37.5C20.2447 37.5 19.4372 37.2972 18.7125 36.9092C17.9878 36.5212 17.3677 35.9597 16.9065 35.2738C16.4453 34.5878 16.1567 33.7982 16.0661 32.9735C15.9754 32.149 16.0853 31.3144 16.3862 30.5427C16.6872 29.7709 17.1701 29.0853 17.7928 28.5455C18.4155 28.0058 19.1592 27.6283 19.959 27.4459C20.7589 27.2635 21.5908 27.2818 22.382 27.4991C23.1733 27.7165 23.9001 28.1263 24.4991 28.6929L25.2224 27.9102C24.4973 27.2243 23.6175 26.7282 22.6596 26.4652C21.7018 26.202 20.6949 26.1799 19.7266 26.4007C18.7584 26.6214 17.8581 27.0784 17.1042 27.7318C16.3505 28.3851 15.7659 29.215 15.4016 30.1492C15.0372 31.0835 14.9041 32.0937 15.0139 33.0919C15.1236 34.0901 15.4728 35.046 16.0312 35.8763C16.5895 36.7067 17.34 37.3864 18.2173 37.8562C19.0946 38.3259 20.0721 38.5714 21.0647 38.5714H37.2117V37.5H21.0647Z" fill="#BDC1C6"/>
</g>
<defs>
<filter id="filter0_d_47_91943" x="-0.000557899" y="-0.000557899" width="60.0011" height="60.0011" filterUnits="userSpaceOnUse" color-interpolation-filters="sRGB">
<feFlood flood-opacity="0" result="BackgroundImageFix"/>
<feColorMatrix in="SourceAlpha" type="matrix" values="0 0 0 0 0 0 0 0 0 0 0 0 0 0 0 0 0 0 127 0" result="hardAlpha"/>
<feOffset/>
<feGaussianBlur stdDeviation="2.14286"/>
<feComposite in2="hardAlpha" operator="out"/>
<feColorMatrix type="matrix" values="0 0 0 0 0 0 0 0 0 0 0 0 0 0 0 0 0 0 0.1 0"/>
<feBlend mode="normal" in2="BackgroundImageFix" result="effect1_dropShadow_47_91943"/>
<feBlend mode="normal" in="SourceGraphic" in2="effect1_dropShadow_47_91943" result="shape"/>
</filter>
<clipPath id="clip0_47_91943">
<rect width="60" height="60" fill="white"/>
</clipPath>
</defs>
</svg>
