<svg width="59" height="18" viewBox="0 0 59 18" fill="none" xmlns="http://www.w3.org/2000/svg">
<path d="M3.21139 12.2312L0 0.6335H2.80174L3.92716 5.89084C4.21437 7.18576 4.4239 8.28997 4.56045 9.20347H4.64284C4.73704 8.54895 4.94897 7.45181 5.27623 5.90969L6.44159 0.6335H9.24333L5.9919 12.2312V17.7947H3.20908V12.2312H3.21139Z" fill="white"/>
<path d="M10.0866 17.4279C9.52155 17.0465 9.11891 16.4532 8.87875 15.648C8.64099 14.8428 8.52096 13.774 8.52096 12.4366V10.6167C8.52096 9.26759 8.65751 8.18226 8.93061 7.36528C9.2037 6.54832 9.62987 5.9503 10.209 5.57595C10.7882 5.20161 11.5486 5.01325 12.4905 5.01325C13.4181 5.01325 14.1597 5.20396 14.72 5.58537C15.278 5.96678 15.6876 6.5648 15.9466 7.3747C16.2056 8.18697 16.3351 9.26759 16.3351 10.6167V12.4366C16.3351 13.774 16.208 14.8475 15.9561 15.6574C15.7042 16.4697 15.2945 17.063 14.7294 17.4374C14.1644 17.8118 13.3969 18.0001 12.4292 18.0001C11.4309 18.0024 10.6517 17.8094 10.0866 17.4279ZM13.2556 15.4644C13.411 15.0548 13.4911 14.3884 13.4911 13.4608V9.5549C13.4911 8.65549 13.4134 7.99626 13.2556 7.58189C13.0978 7.16517 12.8224 6.95798 12.4268 6.95798C12.0455 6.95798 11.7747 7.16517 11.6193 7.58189C11.4616 7.99862 11.3839 8.65549 11.3839 9.5549V13.4608C11.3839 14.3884 11.4592 15.0571 11.6099 15.4644C11.7606 15.8741 12.0313 16.0789 12.4268 16.0789C12.8224 16.0789 13.0978 15.8741 13.2556 15.4644Z" fill="white"/>
<path d="M25.448 17.7976H23.2396L22.9947 16.2625H22.9336C22.3331 17.4208 21.4338 18 20.233 18C19.4019 18 18.7875 17.7269 18.392 17.1831C17.9964 16.6368 17.7986 15.7846 17.7986 14.6262V5.25806H20.6216V14.4613C20.6216 15.0217 20.6827 15.4196 20.8052 15.6574C20.9276 15.8952 21.1324 16.0152 21.4196 16.0152C21.6645 16.0152 21.9 15.9399 22.126 15.7893C22.3521 15.6385 22.5168 15.4478 22.6274 15.2172V5.2557H25.448V17.7976Z" fill="white"/>
<path d="M33.1166 2.90313H30.3149V17.7946H27.5532V2.90313H24.7515V0.6335H33.1166V2.90313Z" fill="white"/>
<path d="M39.9247 17.7976H37.7163L37.4714 16.2625H37.4102C36.8099 17.4208 35.9105 18 34.7097 18C33.8786 18 33.2641 17.7269 32.8686 17.1831C32.4731 16.6368 32.2753 15.7846 32.2753 14.6262V5.25806H35.0982V14.4613C35.0982 15.0217 35.1594 15.4196 35.2818 15.6574C35.4043 15.8952 35.6091 16.0152 35.8964 16.0152C36.1411 16.0152 36.3766 15.9399 36.6026 15.7893C36.8287 15.6385 36.9935 15.4478 37.1041 15.2172V5.2557H39.9247V17.7976Z" fill="white"/>
<path d="M49.2672 7.26093C49.0953 6.46987 48.8198 5.89774 48.4385 5.54223C48.0571 5.18672 47.532 5.01014 46.8634 5.01014C46.3454 5.01014 45.8604 5.15611 45.4107 5.45041C44.961 5.74471 44.6125 6.12848 44.3677 6.60641H44.3466V0H41.6272V17.7945H43.958L44.2452 16.6079H44.3065C44.5254 17.0316 44.8527 17.3636 45.2883 17.6109C45.7238 17.8557 46.2089 17.9782 46.7409 17.9782C47.6945 17.9782 48.3984 17.5379 48.8481 16.6596C49.2978 15.7791 49.5238 14.4065 49.5238 12.5372V10.5524C49.5238 9.1515 49.4367 8.05201 49.2672 7.26093ZM46.6797 12.377C46.6797 13.2905 46.642 14.0063 46.5667 14.5242C46.4914 15.0422 46.3665 15.4119 46.1876 15.6284C46.0111 15.8474 45.7709 15.9557 45.4719 15.9557C45.2388 15.9557 45.0246 15.9015 44.8268 15.7909C44.6291 15.6826 44.469 15.5178 44.3466 15.3012V8.18385C44.4407 7.84246 44.6055 7.56465 44.8386 7.3457C45.0693 7.12674 45.3236 7.01843 45.5943 7.01843C45.8816 7.01843 46.1029 7.13144 46.2583 7.35512C46.416 7.58113 46.5243 7.95784 46.5856 8.48993C46.6467 9.02201 46.6774 9.77776 46.6774 10.7595V12.377H46.6797Z" fill="white"/>
<path d="M53.5292 13.0998C53.5292 13.9049 53.5528 14.5077 53.5999 14.9103C53.647 15.3129 53.7459 15.6049 53.8965 15.7909C54.0472 15.9745 54.2779 16.0663 54.5911 16.0663C55.0125 16.0663 55.3045 15.9015 55.4598 15.5743C55.6176 15.247 55.7024 14.7008 55.7165 13.938L58.1509 14.0815C58.1651 14.1899 58.1721 14.3405 58.1721 14.5312C58.1721 15.6896 57.8542 16.556 57.2209 17.1281C56.5876 17.7003 55.6906 17.9875 54.5322 17.9875C53.1408 17.9875 52.1661 17.5519 51.608 16.6785C51.0477 15.805 50.7699 14.4559 50.7699 12.6289V10.4393C50.7699 8.55817 51.0596 7.1832 51.6387 6.31679C52.2179 5.45037 53.2091 5.01716 54.6146 5.01716C55.5823 5.01716 56.3263 5.19374 56.8442 5.54926C57.3622 5.90477 57.7271 6.45569 57.939 7.20675C58.1509 7.95779 58.2569 8.99373 58.2569 10.3169V12.4641H53.5292V13.0998ZM53.8871 7.19027C53.7435 7.36684 53.6494 7.65644 53.5999 8.05903C53.5528 8.46164 53.5292 9.07142 53.5292 9.89079V10.7902H55.5941V9.89079C55.5941 9.08555 55.5658 8.47577 55.5117 8.05903C55.4575 7.64231 55.3586 7.35036 55.215 7.1785C55.0714 7.00898 54.8501 6.92187 54.551 6.92187C54.2497 6.92422 54.0284 7.01369 53.8871 7.19027Z" fill="white"/>
</svg>
