<svg width="60" height="60" viewBox="0 0 60 60" fill="none" xmlns="http://www.w3.org/2000/svg">
<g clip-path="url(#clip0_47_92026)">
<g filter="url(#filter0_d_47_92026)">
<path d="M29.9994 55.7137C44.201 55.7137 55.7137 44.201 55.7137 29.9994C55.7137 15.7978 44.201 4.28516 29.9994 4.28516C15.7978 4.28516 4.28516 15.7978 4.28516 29.9994C4.28516 44.201 15.7978 55.7137 29.9994 55.7137Z" fill="white"/>
</g>
<path d="M40.8517 33.2557L40.2489 33.2142L39.9648 32.6706C41.1654 30.9165 41.8988 28.8788 42.0941 26.7543L42.6474 26.5742L43.1511 26.8168C42.9455 29.1276 42.1535 31.3456 40.8517 33.2557Z" fill="#EA4335"/>
<path d="M38.4916 20.0249C37.1335 19.2431 35.5678 18.9103 34.0137 19.073L33.7578 18.553L33.9298 18.005C35.7005 17.8233 37.4832 18.2065 39.028 19.101L38.9433 19.6576L38.4916 20.0249Z" fill="#34A853"/>
<path d="M43.149 26.8188L42.092 26.7562C42.1638 25.786 42.0259 24.8117 41.6879 23.9009C41.072 22.2879 39.9473 20.9256 38.4883 20.0255L39.0244 19.1016C40.6856 20.1222 41.9673 21.6692 42.6707 23.5025C43.0666 24.5595 43.2298 25.6913 43.149 26.8188Z" fill="#FBBC04"/>
<path d="M39.962 32.6719C39.3087 33.6747 38.5701 34.618 37.7547 35.4909C35.8125 37.6488 33.6505 39.593 31.3047 41.2911L32.2328 41.9427C34.5114 40.2501 36.6197 38.3345 38.5272 36.2236C39.3849 35.3049 40.1618 34.3124 40.849 33.257L39.962 32.6719Z" fill="#4285F4"/>
<path d="M32.5901 22.4078C32.1354 21.511 31.5047 20.7176 30.7363 20.0762C31.7513 19.5235 32.8651 19.1818 34.0124 19.0708L33.9287 18.0028C32.4618 18.1462 31.0458 18.6237 29.7873 19.3998C28.8547 18.851 27.8492 18.4405 26.8014 18.181C22.4154 17.0238 18.5472 20.4008 17.542 22.3788C16.5686 24.2938 15.5312 27.3207 17.7507 31.4808C18.3471 32.5274 19.008 33.535 19.7294 34.4975L19.9012 34.7385C21.526 37.0181 24.7624 39.8966 29.52 43.2942L29.7918 43.4885L30.0827 43.3248C30.3216 43.1902 30.5654 43.0452 30.8086 42.8951L30.1356 42.4227C30.0417 42.3556 29.9495 42.2891 29.8566 42.2225L29.7941 42.1772C29.7144 42.1201 29.6354 42.063 29.5569 42.0058C29.4926 41.9594 29.4286 41.913 29.3647 41.8665C29.2928 41.8142 29.2213 41.7621 29.1504 41.7102C29.0818 41.6599 29.0135 41.6099 28.9456 41.5602C28.8805 41.5123 28.816 41.4647 28.7519 41.4171C28.6791 41.3635 28.6068 41.31 28.5348 41.2564C28.4753 41.2122 28.4161 41.168 28.3573 41.124C28.2829 41.0684 28.2089 41.0129 28.1353 40.9575C28.0805 40.9161 28.0258 40.8748 27.9713 40.8336C27.8948 40.7759 27.8189 40.7183 27.7436 40.6608C27.6928 40.622 27.6422 40.5834 27.592 40.545C27.5152 40.4861 27.4389 40.4275 27.3632 40.3691C27.315 40.3319 27.267 40.2948 27.2192 40.2577C27.1431 40.1988 27.0676 40.14 26.9926 40.0814C26.9465 40.0452 26.9004 40.0092 26.8547 39.9732C26.7791 39.9138 26.7041 39.8547 26.6297 39.7958C26.586 39.7612 26.5425 39.7266 26.4991 39.6922C26.4245 39.6328 26.3505 39.5736 26.2771 39.5147C26.2348 39.4808 26.1927 39.4469 26.151 39.4128C26.0783 39.3542 26.0063 39.2958 25.9349 39.2376C25.8933 39.2038 25.852 39.17 25.8108 39.1364C25.7402 39.0786 25.6704 39.0211 25.6013 38.9639C25.5607 38.9305 25.5204 38.897 25.4802 38.8637C25.4112 38.8065 25.343 38.7495 25.2755 38.6925C25.2365 38.6598 25.1975 38.6271 25.159 38.5945C25.092 38.5379 25.0255 38.4815 24.9598 38.4254C24.9216 38.3928 24.8834 38.3603 24.8456 38.3278C24.7807 38.2721 24.7168 38.2168 24.653 38.1617C24.616 38.1295 24.5786 38.0974 24.5418 38.0652C24.479 38.0104 24.4169 37.9558 24.3553 37.9014C24.319 37.8692 24.2825 37.8371 24.2465 37.8049C24.1861 37.7514 24.1267 37.6978 24.0675 37.6448C24.0316 37.6127 23.9954 37.5803 23.96 37.5481C23.9017 37.4955 23.8446 37.4431 23.7875 37.3909C23.7527 37.3588 23.7176 37.327 23.6832 37.2953C23.6273 37.2437 23.5724 37.1924 23.5176 37.1413C23.4832 37.1091 23.4486 37.077 23.4146 37.0448C23.3614 36.9947 23.3091 36.9448 23.2569 36.8951C23.223 36.8629 23.1888 36.8303 23.1554 36.7981C23.1044 36.7493 23.0548 36.7007 23.0049 36.6521C22.9717 36.6199 22.9383 36.5874 22.9056 36.5552C22.8569 36.5074 22.8095 36.46 22.7619 36.4126C22.7293 36.3801 22.6964 36.3475 22.6644 36.3153C22.6186 36.2692 22.574 36.2234 22.5291 36.1776C22.4969 36.1447 22.4642 36.1116 22.4324 36.0788C22.3887 36.0337 22.3463 35.9892 22.3036 35.9444C22.2725 35.9118 22.2408 35.8788 22.2102 35.8464C22.1684 35.8023 22.128 35.7587 22.0874 35.7149C22.0571 35.6823 22.0263 35.6495 21.9966 35.6172C21.9573 35.5743 21.9192 35.532 21.8809 35.4895C21.8514 35.4568 21.8212 35.4238 21.7922 35.3913C21.7552 35.3501 21.72 35.3093 21.6841 35.2684C21.6551 35.2352 21.6254 35.2018 21.597 35.1689C21.5634 35.13 21.531 35.0916 21.4983 35.053C21.4691 35.0185 21.4392 34.9839 21.4106 34.9496C21.3804 34.9136 21.3516 34.878 21.3223 34.8425C21.2929 34.8069 21.2626 34.7703 21.2339 34.7346C21.2074 34.7018 21.1824 34.6695 21.1565 34.6371C21.1262 34.5989 21.0954 34.5605 21.066 34.5227C21.0467 34.4977 21.0283 34.4731 21.0094 34.4483C20.9226 34.3348 20.8387 34.2224 20.76 34.1121L20.6921 34.0167L20.5875 33.8701C19.8938 32.9448 19.2575 31.9769 18.6822 30.9719C16.7225 27.2985 17.5464 24.7121 18.4833 22.8691C19.4124 21.0414 22.8967 18.258 26.5344 19.2178C27.3301 19.4187 28.1007 19.7109 28.8309 20.0889C27.8384 20.9053 27.0752 21.9713 26.6179 23.1799C25.8035 25.3373 25.8854 27.3868 26.8426 28.8032C27.172 29.298 27.618 29.7018 28.1405 29.9783C28.6628 30.2548 29.2451 30.3952 29.8345 30.3869H29.8631C30.3546 30.4062 30.8442 30.3131 31.2953 30.1146C31.7465 29.9163 32.1476 29.6176 32.4691 29.2408C33.3434 28.187 33.6391 26.4413 33.2801 24.4511C33.1482 23.74 32.9159 23.0519 32.5901 22.4078ZM31.6584 28.5517C31.4361 28.8085 31.159 29.0107 30.848 29.143C30.537 29.2753 30.2004 29.3342 29.8636 29.3153H29.8412C29.4228 29.3253 29.0086 29.2282 28.6372 29.0329C28.2658 28.8376 27.9491 28.5505 27.7166 28.1983C26.9695 27.0927 26.9286 25.3596 27.607 23.5621C28.0449 22.413 28.8005 21.4157 29.7834 20.6894C30.5672 21.2707 31.2066 22.0286 31.6512 22.9031C31.9285 23.4517 32.1264 24.0378 32.2388 24.6435C32.5406 26.3185 32.3293 27.7434 31.6584 28.5517Z" fill="#BDC1C6"/>
</g>
<defs>
<filter id="filter0_d_47_92026" x="-0.000557899" y="-0.000557899" width="60.0011" height="60.0011" filterUnits="userSpaceOnUse" color-interpolation-filters="sRGB">
<feFlood flood-opacity="0" result="BackgroundImageFix"/>
<feColorMatrix in="SourceAlpha" type="matrix" values="0 0 0 0 0 0 0 0 0 0 0 0 0 0 0 0 0 0 127 0" result="hardAlpha"/>
<feOffset/>
<feGaussianBlur stdDeviation="2.14286"/>
<feComposite in2="hardAlpha" operator="out"/>
<feColorMatrix type="matrix" values="0 0 0 0 0 0 0 0 0 0 0 0 0 0 0 0 0 0 0.1 0"/>
<feBlend mode="normal" in2="BackgroundImageFix" result="effect1_dropShadow_47_92026"/>
<feBlend mode="normal" in="SourceGraphic" in2="effect1_dropShadow_47_92026" result="shape"/>
</filter>
<clipPath id="clip0_47_92026">
<rect width="60" height="60" fill="white"/>
</clipPath>
</defs>
</svg>
