<svg width="148" height="99" viewBox="0 0 148 99" fill="none" xmlns="http://www.w3.org/2000/svg">
<rect x="113" y="62" width="26" height="24" rx="3" fill="#343A40" fill-opacity="0.698039"/>
<mask id="mask0_47_123616" style="mask-type:luminance" maskUnits="userSpaceOnUse" x="117" y="66" width="18" height="18">
<rect x="117" y="66" width="18" height="18" fill="white"/>
</mask>
<g mask="url(#mask0_47_123616)">
<path fill-rule="evenodd" clip-rule="evenodd" d="M126 73.5C125.175 73.5 124.5 74.175 124.5 75C124.5 75.825 125.175 76.5 126 76.5C126.825 76.5 127.5 75.825 127.5 75C127.5 74.175 126.825 73.5 126 73.5ZM130.5 73.5C129.675 73.5 129 74.175 129 75C129 75.825 129.675 76.5 130.5 76.5C131.325 76.5 132 75.825 132 75C132 74.175 131.325 73.5 130.5 73.5ZM121.5 73.5C120.675 73.5 120 74.175 120 75C120 75.825 120.675 76.5 121.5 76.5C122.325 76.5 123 75.825 123 75C123 74.175 122.325 73.5 121.5 73.5Z" fill="white"/>
</g>
</svg>
