<svg width="22" height="22" viewBox="0 0 22 22" fill="none" xmlns="http://www.w3.org/2000/svg">
<path d="M3.83728 9.72111H5.88383V8.1862H3.83728V9.72111ZM5.88383 9.72111C7.02541 9.72111 8.02255 9.4352 8.72887 8.72887C9.4352 8.02255 9.72111 7.02541 9.72111 5.88383H8.1862C8.1862 6.78881 7.96048 7.32658 7.64353 7.64353C7.32658 7.96048 6.78881 8.1862 5.88383 8.1862V9.72111ZM9.72111 5.88383V3.83728H8.1862V5.88383H9.72111ZM9.72111 3.83728C9.72111 2.69571 9.4352 1.69857 8.72887 0.992239C8.02255 0.285913 7.02541 0 5.88383 0V1.53491C6.78881 1.53491 7.32658 1.76064 7.64353 2.07759C7.96048 2.39454 8.1862 2.93231 8.1862 3.83728H9.72111ZM5.88383 0H3.83728V1.53491H5.88383V0ZM3.83728 0C2.69571 0 1.69857 0.285913 0.992239 0.992239C0.285913 1.69857 0 2.69571 0 3.83728H1.53491C1.53491 2.93231 1.76064 2.39454 2.07759 2.07759C2.39454 1.76064 2.93231 1.53491 3.83728 1.53491V0ZM0 3.83728V5.88383H1.53491V3.83728H0ZM0 5.88383C0 7.02541 0.285913 8.02255 0.992239 8.72887C1.69857 9.4352 2.69571 9.72111 3.83728 9.72111V8.1862C2.93231 8.1862 2.39454 7.96048 2.07759 7.64353C1.76064 7.32658 1.53491 6.78881 1.53491 5.88383H0Z" fill="white"/>
<path d="M16.1161 9.72111H18.1627V8.1862H16.1161V9.72111ZM18.1627 9.72111C19.3043 9.72111 20.3014 9.4352 21.0077 8.72887C21.7141 8.02255 22 7.02541 22 5.88383H20.4651C20.4651 6.78881 20.2393 7.32658 19.9224 7.64353C19.6054 7.96048 19.0677 8.1862 18.1627 8.1862V9.72111ZM22 5.88383V3.83728H20.4651V5.88383H22ZM22 3.83728C22 2.69571 21.7141 1.69857 21.0077 0.992239C20.3014 0.285913 19.3043 0 18.1627 0V1.53491C19.0677 1.53491 19.6054 1.76064 19.9224 2.07759C20.2393 2.39454 20.4651 2.93231 20.4651 3.83728H22ZM18.1627 0H16.1161V1.53491H18.1627V0ZM16.1161 0C14.9746 0 13.9774 0.285913 13.2711 0.992239C12.5648 1.69857 12.2789 2.69571 12.2789 3.83728H13.8138C13.8138 2.93231 14.0395 2.39454 14.3565 2.07759C14.6734 1.76064 15.2112 1.53491 16.1161 1.53491V0ZM12.2789 3.83728V5.88383H13.8138V3.83728H12.2789ZM12.2789 5.88383C12.2789 7.02541 12.5648 8.02255 13.2711 8.72887C13.9774 9.4352 14.9746 9.72111 16.1161 9.72111V8.1862C15.2112 8.1862 14.6734 7.96048 14.3565 7.64353C14.0395 7.32658 13.8138 6.78881 13.8138 5.88383H12.2789Z" fill="white"/>
<path d="M16.1161 22H18.1627V20.4651H16.1161V22ZM18.1627 22C19.3043 22 20.3014 21.7141 21.0077 21.0077C21.7141 20.3014 22 19.3043 22 18.1627H20.4651C20.4651 19.0677 20.2393 19.6054 19.9224 19.9224C19.6054 20.2393 19.0677 20.4651 18.1627 20.4651V22ZM22 18.1627V16.1161H20.4651V18.1627H22ZM22 16.1161C22 14.9746 21.7141 13.9774 21.0077 13.2711C20.3014 12.5648 19.3043 12.2789 18.1627 12.2789V13.8138C19.0677 13.8138 19.6054 14.0395 19.9224 14.3565C20.2393 14.6734 20.4651 15.2112 20.4651 16.1161H22ZM18.1627 12.2789H16.1161V13.8138H18.1627V12.2789ZM16.1161 12.2789C14.9746 12.2789 13.9774 12.5648 13.2711 13.2711C12.5648 13.9774 12.2789 14.9746 12.2789 16.1161H13.8138C13.8138 15.2112 14.0395 14.6734 14.3565 14.3565C14.6734 14.0395 15.2112 13.8138 16.1161 13.8138V12.2789ZM12.2789 16.1161V18.1627H13.8138V16.1161H12.2789ZM12.2789 18.1627C12.2789 19.3043 12.5648 20.3014 13.2711 21.0077C13.9774 21.7141 14.9746 22 16.1161 22V20.4651C15.2112 20.4651 14.6734 20.2393 14.3565 19.9224C14.0395 19.6054 13.8138 19.0677 13.8138 18.1627H12.2789Z" fill="white"/>
<path d="M3.83728 22H5.88383V20.4651H3.83728V22ZM5.88383 22C7.02541 22 8.02255 21.7141 8.72887 21.0077C9.4352 20.3014 9.72111 19.3043 9.72111 18.1627H8.1862C8.1862 19.0677 7.96048 19.6054 7.64353 19.9224C7.32658 20.2393 6.78881 20.4651 5.88383 20.4651V22ZM9.72111 18.1627V16.1161H8.1862V18.1627H9.72111ZM9.72111 16.1161C9.72111 14.9746 9.4352 13.9774 8.72887 13.2711C8.02255 12.5648 7.02541 12.2789 5.88383 12.2789V13.8138C6.78881 13.8138 7.32658 14.0395 7.64353 14.3565C7.96048 14.6734 8.1862 15.2112 8.1862 16.1161H9.72111ZM5.88383 12.2789H3.83728V13.8138H5.88383V12.2789ZM3.83728 12.2789C2.69571 12.2789 1.69857 12.5648 0.992239 13.2711C0.285913 13.9774 0 14.9746 0 16.1161H1.53491C1.53491 15.2112 1.76064 14.6734 2.07759 14.3565C2.39454 14.0395 2.93231 13.8138 3.83728 13.8138V12.2789ZM0 16.1161V18.1627H1.53491V16.1161H0ZM0 18.1627C0 19.3043 0.285913 20.3014 0.992239 21.0077C1.69857 21.7141 2.69571 22 3.83728 22V20.4651C2.93231 20.4651 2.39454 20.2393 2.07759 19.9224C1.76064 19.6054 1.53491 19.0677 1.53491 18.1627H0Z" fill="white"/>
</svg>
