<svg width="700" height="560" viewBox="0 0 700 560" fill="none" xmlns="http://www.w3.org/2000/svg">
<g clip-path="url(#clip0_47_70331)">
<path d="M349.65 7.00781C539.272 7.00781 692.992 160.728 692.992 350.35H349.65V7.00781Z" fill="#FBF1E2"/>
<path d="M104.71 262.763C139.306 244.007 183.098 256.817 211.535 245.941C246.685 230.099 303.164 227.173 328.027 241.155C328.027 241.155 327.992 251.511 327.698 262.763H349.647V7.00781C190.294 7.00781 56.3055 115.568 17.5823 262.763H104.71Z" fill="#EDF3F4"/>
<path d="M7.51616 321.394C6.71898 330.941 6.31573 340.592 6.3064 350.348H37.4836C51.0142 346.447 67.9542 342.627 89.1782 339.188C167.564 326.486 103.929 317.454 7.51616 321.394Z" fill="#8EBCBB"/>
<path d="M46.9467 286.589C45.3417 275.339 90.4373 267.85 104.71 262.766H17.5855C13.3928 278.704 10.3578 294.925 8.50439 311.302C42.2567 309.373 73.2758 308.234 97.5189 307.601C68.4804 300.358 47.8617 293.003 46.9467 286.589Z" fill="#8EBCBB"/>
<path d="M325.491 290.596L297.097 343.342C297.097 343.342 264.146 338.779 222.164 331.888C223.357 339.245 214.966 346.077 197.172 348.877C194.096 349.361 191.152 349.852 188.31 350.349H349.65V262.762H327.701C327.379 275.235 326.742 288.811 325.491 290.596Z" fill="#8EBCBB"/>
<path d="M46.9468 286.588C47.8617 293.003 68.4805 300.358 97.5189 307.599C121.625 306.97 139.033 306.841 145.746 306.935C195.062 307.63 220.301 320.401 222.164 331.888C264.146 338.78 297.097 343.343 297.097 343.343L325.491 290.596C327.574 289.373 328.119 243.738 328.027 241.154C303.007 227.072 246.265 230.236 211.535 245.941C183.103 256.815 139.299 244.008 104.71 262.763C90.4374 267.846 45.3417 275.336 46.9468 286.588Z" fill="#D6CEC2"/>
<path d="M222.164 331.891C220.301 320.402 195.062 307.631 145.746 306.938C139.033 306.844 121.625 306.972 97.5188 307.601C73.2758 308.235 42.26 309.374 8.50435 311.302C8.12552 314.651 7.79611 318.017 7.51611 321.399C103.928 317.459 167.564 326.491 89.1781 339.193C67.9558 342.632 51.0141 346.452 37.4835 350.353H188.31C191.152 349.859 194.096 349.365 197.172 348.882C214.966 346.079 223.357 339.247 222.164 331.891Z" fill="#F3DFC1"/>
<path d="M636.937 350.352V477.252C654.617 461.181 668.739 441.589 678.393 419.733C688.047 397.878 693.02 374.244 692.993 350.352H636.937Z" fill="#FCE2BA"/>
<path d="M580.88 350.352V511.404C601.589 503.732 620.622 492.136 636.936 477.252V350.352H580.88Z" fill="#FBF1E2"/>
<path d="M524.824 521.979C543.97 521.615 562.918 518.04 580.88 511.404V350.352H524.824V521.979Z" fill="#FCE2BA"/>
<path d="M468.769 350.352V513.822C486.872 519.631 505.816 522.389 524.825 521.982V350.352H468.769Z" fill="#FBF1E2"/>
<path d="M412.712 350.351V483.288C429.32 496.887 448.335 507.244 468.768 513.818V350.348L412.712 350.351Z" fill="#FCE2BA"/>
<path d="M356.656 350.352V433.919C369.51 440.958 380.966 450.291 390.459 461.456C397.204 469.389 404.652 476.697 412.712 483.289V350.352H356.656Z" fill="#FBF1E2"/>
<path d="M300.601 350.352V419.05C320.215 419.388 339.453 424.492 356.657 433.919V350.352H300.601Z" fill="#FBF1E2"/>
<path d="M244.544 350.352V419.021H298.477C299.186 419.021 299.893 419.037 300.6 419.05V350.352H244.544Z" fill="#FCE2BA"/>
<path d="M244.545 350.352H188.489V419.02H244.545V350.352Z" fill="#FBF1E2"/>
<path d="M188.488 350.352H132.432V419.02H188.488V350.352Z" fill="#FCE2BA"/>
<path d="M132.432 350.352H76.3765V419.02H132.432V350.352Z" fill="#FCE2BA"/>
<path d="M20.3206 350.352V391.919C26.8705 400.531 35.3617 407.474 45.1027 412.183C54.8437 416.892 65.5592 419.234 76.3766 419.017V350.352H20.3206Z" fill="#FBF1E2"/>
<path d="M6.30647 350.352C6.28452 365.371 11.2095 379.979 20.3205 391.919V350.352H6.30647Z" fill="#FCE2BA"/>
<path d="M700 0H622.922V86.8873H700V0Z" fill="#E9E5DF"/>
<path d="M681.081 13.5117V65.1651H657.259V56.7569H648.687C644.864 46.3178 640.475 34.9918 636.652 24.5618C636.652 24.5618 651.537 13.5117 681.081 13.5117Z" fill="#B4C6D8"/>
<path d="M681.081 56.7578H656.556V65.166H681.081V56.7578Z" fill="#74899F"/>
<path d="M681.064 46.9453V50.4486H646.075L644.762 46.9453H681.064Z" fill="#3B444F"/>
<path d="M681.064 37.9258V41.3393H642.708L641.387 37.9258H681.064Z" fill="#3B444F"/>
<path d="M681.064 28.7305V32.2338H639.334L638.013 28.7305H681.064Z" fill="#3B444F"/>
<path d="M681.081 60.9609H656.556V65.1651H681.081V60.9609Z" fill="#3B444F"/>
<path d="M681.081 65.1641H639.74V73.5723H681.081V65.1641Z" fill="white"/>
<path d="M700 343.344H346.146V350.351H700V343.344Z" fill="white"/>
<path d="M700 231.23H346.146V238.238H700V231.23Z" fill="white"/>
<path d="M587.888 115.617H346.146V122.625H587.888V115.617Z" fill="white"/>
<path d="M587.888 0H346.146V7.00741H587.888V0Z" fill="white"/>
<path d="M353.153 350.35V0L346.146 0V350.35H353.153Z" fill="white"/>
<path d="M468.769 350.35V0L461.762 0V350.35H468.769Z" fill="white"/>
<path d="M587.888 350.35V0L580.881 0V350.35H587.888Z" fill="white"/>
<path d="M700 350.35V231.23H692.993V350.35H700Z" fill="white"/>
<path d="M452.652 115.617H463.163V35.0365H452.652V115.617Z" fill="#C66F53"/>
<path d="M430.932 115.617H447.748V59.5612H430.932V115.617Z" fill="white"/>
<path d="M444.245 115.617H452.653V49.7513H444.245V115.617Z" fill="#F5CEA9"/>
<path d="M480.68 165.367H468.769V231.233H480.68V165.367Z" fill="#5998C5"/>
<path d="M503.102 175.176H486.286V231.232H503.102V175.176Z" fill="#DBE7E9"/>
<path d="M488.388 165.367H479.279V231.233H488.388V165.367Z" fill="#7CB8DD"/>
<path d="M510.11 174.041L503.155 174.895L509.987 230.533L516.942 229.679L510.11 174.041Z" fill="#D3B291"/>
<path d="M514.942 186.372L510.811 186.879L516.168 230.515L520.3 230.008L514.942 186.372Z" fill="#F5987E"/>
<path d="M381.881 115.613H430.931V108.606H381.881V115.613Z" fill="#3B444F"/>
<path d="M381.881 108.605H430.931V102.299H381.881V108.605Z" fill="#7B9370"/>
<path d="M529.729 209.434H567.567V194.719H529.729V209.434Z" fill="#0D2135"/>
<path d="M538.138 209.512H559.159V202.504H538.138V209.512Z" fill="#697171"/>
<path d="M556.317 142.945H541.525L534.129 168.832L541.525 194.719H556.317L563.714 168.832L556.317 142.945Z" fill="#EDB665"/>
<path d="M541.525 142.945L534.129 168.832L541.525 194.719H541.538L556.277 142.945H541.525Z" fill="#F8C77E"/>
<path d="M680.056 313.379C680.056 321.31 676.905 328.917 671.297 334.525C665.688 340.134 658.082 343.285 650.15 343.285H626.903C621.05 343.286 615.325 341.568 610.438 338.346C605.552 335.124 601.719 330.539 599.414 325.159C597.109 319.778 596.433 313.84 597.472 308.08C598.51 302.319 601.216 296.991 605.255 292.754C607.985 289.61 609.766 285.755 610.391 281.638C611.017 277.522 610.461 273.312 608.788 269.499C602.389 254.628 613.609 237.584 629.877 237.698H647.176C663.299 237.434 674.741 254.821 668.265 269.499C666.574 273.346 666.022 277.599 666.675 281.75C667.328 285.902 669.159 289.779 671.95 292.922C677.166 298.455 680.066 305.775 680.056 313.379Z" fill="#DB8A73"/>
<path d="M667.564 269.406C667.548 269.438 667.532 269.479 667.517 269.511C667.532 269.479 667.541 269.438 667.556 269.406H667.564Z" fill="#B57865"/>
<path d="M608.04 269.576C608.024 269.544 608.008 269.505 607.992 269.473H608C608.016 269.505 608.024 269.544 608.04 269.576Z" fill="#B57865"/>
<path d="M645.346 266.263H631.332L634.134 163.961H642.542L645.346 266.263Z" fill="#3B444F"/>
<path d="M648.148 271.168C648.148 273.862 647.078 276.447 645.173 278.352C643.267 280.258 640.683 281.328 637.988 281.328C624.511 280.793 624.515 261.541 637.988 261.008C640.683 261.008 643.267 262.079 645.172 263.984C647.078 265.889 648.148 268.473 648.148 271.168Z" fill="#0D2135"/>
<path d="M657.257 306.906H619.419V313.211H657.257V306.906Z" fill="#303A45"/>
<path d="M648.148 117.016L648.107 153.534C646.326 154.609 644.868 156.146 643.888 157.982C642.909 159.818 642.444 161.885 642.543 163.963H634.134C634.221 161.879 633.746 159.81 632.76 157.972C631.774 156.134 630.313 154.595 628.529 153.514L628.568 117.016L648.148 117.016Z" fill="#DB8A73"/>
<path d="M642.982 124.724C642.658 124.702 642.332 124.747 642.026 124.855C641.719 124.964 641.438 125.134 641.2 125.356C640.961 125.577 640.771 125.845 640.641 126.143C640.51 126.441 640.442 126.763 640.441 127.088V148.988C640.464 149.623 640.733 150.224 641.19 150.665C641.648 151.106 642.258 151.352 642.893 151.352C643.529 151.352 644.139 151.106 644.597 150.665C645.054 150.224 645.323 149.623 645.346 148.988V127.088C645.346 126.461 645.097 125.86 644.654 125.417C644.21 124.973 643.609 124.724 642.982 124.724Z" fill="white"/>
<path d="M649.112 147.148H649.987C650.519 147.148 650.951 146.717 650.951 146.185V143.908C650.951 143.376 650.519 142.944 649.987 142.944H649.112C648.58 142.944 648.148 143.376 648.148 143.908V146.185C648.148 146.717 648.58 147.148 649.112 147.148Z" fill="#0D2135"/>
<path d="M640.435 145.77H645.34V143.668H640.435V145.77Z" fill="#3B444F"/>
<path d="M649.112 140.141H649.987C650.519 140.141 650.951 139.709 650.951 139.177V136.9C650.951 136.368 650.519 135.937 649.987 135.937H649.112C648.58 135.937 648.148 136.368 648.148 136.9V139.177C648.148 139.709 648.58 140.141 649.112 140.141Z" fill="#0D2135"/>
<path d="M640.435 138.762H645.34V136.66H640.435V138.762Z" fill="#3B444F"/>
<path d="M649.112 133.133H649.987C650.519 133.133 650.951 132.701 650.951 132.169V129.892C650.951 129.36 650.519 128.929 649.987 128.929H649.112C648.58 128.929 648.148 129.36 648.148 129.892V132.169C648.148 132.701 648.58 133.133 649.112 133.133Z" fill="#0D2135"/>
<path d="M640.435 131.754H645.34V129.652H640.435V131.754Z" fill="#3B444F"/>
<path d="M633.694 124.724C634.019 124.702 634.345 124.747 634.651 124.855C634.958 124.964 635.239 125.134 635.477 125.356C635.715 125.577 635.906 125.845 636.036 126.143C636.167 126.441 636.235 126.763 636.237 127.088V148.988C636.216 149.625 635.949 150.229 635.492 150.672C635.034 151.115 634.422 151.363 633.785 151.363C633.147 151.363 632.535 151.115 632.078 150.672C631.62 150.229 631.353 149.625 631.333 148.988V127.088C631.333 126.461 631.581 125.86 632.024 125.417C632.467 124.974 633.068 124.725 633.694 124.724Z" fill="white"/>
<path d="M627.565 142.941H626.69C626.157 142.941 625.726 143.373 625.726 143.905V146.182C625.726 146.714 626.157 147.146 626.69 147.146H627.565C628.097 147.146 628.529 146.714 628.529 146.182V143.905C628.529 143.373 628.097 142.941 627.565 142.941Z" fill="#0D2135"/>
<path d="M636.237 143.645H631.332V145.746H636.237V143.645Z" fill="#3B444F"/>
<path d="M627.565 135.938H626.69C626.157 135.938 625.726 136.369 625.726 136.901V139.178C625.726 139.71 626.157 140.142 626.69 140.142H627.565C628.097 140.142 628.529 139.71 628.529 139.178V136.901C628.529 136.369 628.097 135.938 627.565 135.938Z" fill="#0D2135"/>
<path d="M636.237 136.637H631.332V138.738H636.237V136.637Z" fill="#3B444F"/>
<path d="M627.565 128.93H626.69C626.157 128.93 625.726 129.361 625.726 129.893V132.17C625.726 132.702 626.157 133.134 626.69 133.134H627.565C628.097 133.134 628.529 132.702 628.529 132.17V129.893C628.529 129.361 628.097 128.93 627.565 128.93Z" fill="#0D2135"/>
<path d="M636.237 129.629H631.332V131.731H636.237V129.629Z" fill="#3B444F"/>
<path d="M635.536 163.961H634.835V306.904H635.536V163.961Z" fill="white"/>
<path d="M637.637 163.961H636.937V306.904H637.637V163.961Z" fill="white"/>
<path d="M639.74 163.961H639.039V306.904H639.74V163.961Z" fill="white"/>
<path d="M641.842 163.961H641.142V306.904H641.842V163.961Z" fill="white"/>
<path d="M412.713 158.359H388.188V231.232H412.713V158.359Z" fill="#A8BAAC"/>
<path d="M405.706 210.56C405.706 211.251 405.57 211.934 405.306 212.572C405.042 213.209 404.655 213.789 404.167 214.277C403.679 214.765 403.099 215.152 402.462 215.416C401.824 215.68 401.14 215.816 400.45 215.815C393.494 215.575 393.496 205.544 400.45 205.305C401.844 205.305 403.181 205.858 404.167 206.844C405.152 207.83 405.706 209.167 405.706 210.56Z" fill="#6E6558"/>
<path d="M400.45 207.056C401.37 207.07 402.248 207.446 402.893 208.101C403.539 208.757 403.901 209.64 403.901 210.56C403.901 211.48 403.539 212.363 402.893 213.019C402.248 213.674 401.37 214.05 400.45 214.064C399.53 214.05 398.653 213.674 398.007 213.019C397.362 212.363 397 211.48 397 210.56C397 209.64 397.362 208.757 398.007 208.101C398.653 207.446 399.53 207.07 400.45 207.056ZM400.45 205.305C399.76 205.305 399.077 205.441 398.439 205.705C397.801 205.969 397.222 206.356 396.734 206.844C396.246 207.332 395.859 207.912 395.595 208.549C395.331 209.187 395.195 209.87 395.195 210.56C395.436 217.517 405.466 217.515 405.706 210.56C405.706 209.167 405.152 207.83 404.167 206.844C403.181 205.858 401.844 205.305 400.45 205.305Z" fill="white"/>
<path d="M437.237 158.359H412.713V231.232H437.237V158.359Z" fill="#7B9370"/>
<path d="M430.23 210.56C430.23 211.954 429.676 213.291 428.691 214.276C427.705 215.262 426.369 215.815 424.975 215.815C418.019 215.575 418.02 205.544 424.975 205.305C425.665 205.305 426.349 205.441 426.986 205.705C427.624 205.969 428.203 206.356 428.691 206.844C429.179 207.332 429.566 207.912 429.83 208.549C430.094 209.187 430.23 209.87 430.23 210.56Z" fill="#6E6558"/>
<path d="M424.975 207.056C425.895 207.07 426.772 207.446 427.418 208.101C428.063 208.757 428.425 209.64 428.425 210.56C428.425 211.48 428.063 212.363 427.418 213.019C426.772 213.674 425.895 214.05 424.975 214.064C424.055 214.05 423.177 213.674 422.532 213.019C421.886 212.363 421.525 211.48 421.525 210.56C421.525 209.64 421.886 208.757 422.532 208.101C423.177 207.446 424.055 207.07 424.975 207.056ZM424.975 205.305C424.285 205.305 423.601 205.441 422.964 205.705C422.326 205.969 421.747 206.356 421.259 206.844C420.771 207.332 420.384 207.912 420.12 208.549C419.856 209.187 419.72 209.87 419.72 210.56C419.96 217.517 429.991 217.515 430.23 210.56C430.23 209.87 430.094 209.187 429.83 208.549C429.566 207.912 429.179 207.332 428.691 206.844C428.203 206.356 427.624 205.969 426.986 205.705C426.348 205.441 425.665 205.305 424.975 205.305Z" fill="white"/>
<path d="M461.762 158.359H437.237V231.232H461.762V158.359Z" fill="#124A53"/>
<path d="M454.753 210.56C454.753 211.954 454.199 213.291 453.214 214.276C452.228 215.262 450.892 215.815 449.498 215.815C442.541 215.575 442.543 205.544 449.498 205.305C450.188 205.305 450.872 205.441 451.509 205.705C452.147 205.969 452.726 206.356 453.214 206.844C453.702 207.332 454.089 207.912 454.353 208.549C454.617 209.187 454.753 209.87 454.753 210.56Z" fill="#6E6558"/>
<path d="M449.5 207.056C450.42 207.07 451.297 207.446 451.943 208.101C452.588 208.757 452.95 209.64 452.95 210.56C452.95 211.48 452.588 212.363 451.943 213.019C451.297 213.674 450.42 214.05 449.5 214.064C448.58 214.05 447.702 213.674 447.057 213.019C446.411 212.363 446.049 211.48 446.049 210.56C446.049 209.64 446.411 208.757 447.057 208.101C447.702 207.446 448.58 207.07 449.5 207.056ZM449.5 205.305C448.106 205.305 446.769 205.858 445.783 206.844C444.798 207.83 444.244 209.167 444.244 210.56C444.484 217.517 454.516 217.515 454.755 210.56C454.755 209.87 454.619 209.187 454.355 208.549C454.091 207.912 453.704 207.332 453.216 206.844C452.728 206.356 452.148 205.969 451.511 205.705C450.873 205.441 450.19 205.305 449.5 205.305Z" fill="white"/>
<path d="M599.799 165.367H587.888V231.233H599.799V165.367Z" fill="#7B9370"/>
<path d="M573.874 291.492H566.867V343.344H573.874V291.492Z" fill="#F8C77E"/>
<path d="M566.865 291.666L559.881 291.098L555.677 342.779L562.661 343.347L566.865 291.666Z" fill="#D6CEC2"/>
<path d="M555.656 305.508H548.648V343.346H555.656V305.508Z" fill="#F5987E"/>
<path d="M580.881 291.492H573.874V343.344H580.881V291.492Z" fill="#5998C5"/>
<path d="M611.01 165.367H599.099V231.233H611.01V165.367Z" fill="#424435"/>
<path d="M450.55 245.945H353.153V343.342H450.55V245.945Z" fill="#A59384"/>
<path fill-rule="evenodd" clip-rule="evenodd" d="M382.641 295.984V299.558C382.641 300.743 382.17 301.88 381.332 302.718C380.494 303.555 379.358 304.026 378.173 304.026C376.988 304.026 375.852 303.555 375.014 302.718C374.176 301.88 373.705 300.743 373.705 299.558V295.984H355.835V340.662H400.512V295.984H382.641Z" fill="#F5CEA9"/>
<path fill-rule="evenodd" clip-rule="evenodd" d="M430.446 295.984V299.558C430.446 300.743 429.975 301.88 429.137 302.718C428.299 303.555 427.163 304.026 425.978 304.026C424.793 304.026 423.657 303.555 422.819 302.718C421.981 301.88 421.51 300.743 421.51 299.558V295.984H403.64V340.662H448.318V295.984H430.446Z" fill="#F5CEA9"/>
<path fill-rule="evenodd" clip-rule="evenodd" d="M406.32 248.621V252.195C406.32 253.38 405.849 254.516 405.011 255.354C404.173 256.192 403.037 256.663 401.852 256.663C400.667 256.663 399.531 256.192 398.693 255.354C397.855 254.516 397.384 253.38 397.384 252.195V248.621H355.834V293.298H448.316V248.621H406.32Z" fill="#F5CEA9"/>
<path d="M531.942 282.518L474.438 282.299L485.598 240.852L521.097 240.987L531.942 282.518Z" fill="#FCE2BA"/>
<path d="M517.988 320.218L488.106 320.104C477.718 296.949 498.993 293.645 500.568 282.395L505.807 282.414C507.303 293.677 528.553 297.144 517.988 320.218Z" fill="#E16745"/>
<path fill-rule="evenodd" clip-rule="evenodd" d="M533.997 320.219H468.769V343.342H533.997V320.219Z" fill="#A59384"/>
<path fill-rule="evenodd" clip-rule="evenodd" d="M481.399 323.02C483.723 323.019 485.952 323.942 487.596 325.585C489.239 327.227 490.163 329.456 490.165 331.779C489.69 343.402 473.118 343.402 472.643 331.779C472.644 329.457 473.567 327.23 475.209 325.588C476.85 323.945 479.077 323.022 481.399 323.02Z" fill="#EDF3F4"/>
<path fill-rule="evenodd" clip-rule="evenodd" d="M477.967 331.78C477.965 331.573 477.882 331.374 477.736 331.227C477.589 331.08 477.39 330.997 477.183 330.996H474.57C474.372 331.009 474.185 331.097 474.049 331.242C473.913 331.388 473.837 331.579 473.837 331.778C473.837 331.978 473.913 332.169 474.049 332.315C474.185 332.46 474.372 332.548 474.57 332.561H477.183C477.39 332.56 477.589 332.477 477.736 332.33C477.883 332.184 477.966 331.985 477.967 331.777V331.78Z" fill="#0D2135"/>
<path fill-rule="evenodd" clip-rule="evenodd" d="M517.354 339.435C515.325 338.305 513.827 336.415 513.19 334.181C512.553 331.947 512.83 329.551 513.958 327.52C520.023 317.594 534.504 325.656 529.268 336.04C528.138 338.069 526.248 339.566 524.014 340.203C521.78 340.839 519.385 340.563 517.354 339.435Z" fill="#EDF3F4"/>
<path fill-rule="evenodd" clip-rule="evenodd" d="M524.612 333.444C524.512 333.626 524.488 333.84 524.545 334.039C524.602 334.239 524.735 334.408 524.915 334.51L527.199 335.781C527.289 335.831 527.388 335.863 527.49 335.874C527.592 335.886 527.696 335.878 527.794 335.85C527.893 335.821 527.986 335.774 528.066 335.71C528.147 335.646 528.214 335.567 528.264 335.477C528.314 335.387 528.346 335.288 528.358 335.186C528.37 335.084 528.361 334.98 528.333 334.881C528.305 334.782 528.257 334.69 528.194 334.609C528.13 334.529 528.05 334.461 527.96 334.411C527.309 334.047 526.331 333.505 525.678 333.14C525.496 333.04 525.282 333.016 525.083 333.073C524.883 333.13 524.714 333.264 524.612 333.444Z" fill="#0D2135"/>
<path fill-rule="evenodd" clip-rule="evenodd" d="M509.689 328.999C510.426 331.202 510.259 333.608 509.223 335.687C508.188 337.767 506.369 339.35 504.166 340.089C492.996 343.333 487.732 327.617 498.599 323.477C500.802 322.739 503.208 322.907 505.287 323.942C507.367 324.978 508.95 326.797 509.689 328.999Z" fill="#EDF3F4"/>
<path fill-rule="evenodd" clip-rule="evenodd" d="M500.294 328.528C500.491 328.461 500.652 328.319 500.745 328.133C500.837 327.947 500.853 327.732 500.788 327.535C500.551 326.827 500.194 325.767 499.958 325.058C499.925 324.96 499.874 324.87 499.806 324.792C499.738 324.715 499.656 324.651 499.564 324.605C499.472 324.56 499.372 324.532 499.269 324.525C499.166 324.518 499.063 324.531 498.965 324.564C498.868 324.597 498.778 324.649 498.7 324.716C498.622 324.784 498.559 324.866 498.513 324.958C498.467 325.051 498.44 325.151 498.433 325.254C498.426 325.356 498.439 325.459 498.472 325.557L499.301 328.033C499.369 328.229 499.511 328.391 499.697 328.484C499.882 328.576 500.097 328.592 500.294 328.527V328.528Z" fill="#0D2135"/>
<path d="M383.834 92.4922H411.461C411.978 92.4926 412.475 92.6985 412.84 93.0647C413.206 93.4308 413.412 93.9272 413.412 94.4448V102.302H381.882V94.4448C381.882 93.9271 382.088 93.4305 382.454 93.0644C382.82 92.6982 383.316 92.4924 383.834 92.4922Z" fill="#9DB3C8"/>
<path d="M420.317 77.8369C420.22 77.7392 420.104 77.6617 419.976 77.6088C419.849 77.5559 419.712 77.5286 419.574 77.5286C419.436 77.5286 419.299 77.5559 419.171 77.6088C419.044 77.6617 418.928 77.7392 418.831 77.8369C390.275 104.116 351.235 65.0401 377.506 36.5106C377.687 36.3105 377.785 36.0483 377.778 35.7783C377.771 35.5083 377.661 35.2514 377.469 35.0607C377.278 34.87 377.021 34.7602 376.751 34.7542C376.481 34.7481 376.219 34.8463 376.019 35.0282C356.638 54.2939 370.132 87.8049 397.164 88.4629V92.7963H399.611V88.4465C407.412 88.1027 414.801 84.8462 420.318 79.3201C420.514 79.1233 420.625 78.8565 420.624 78.5784C420.624 78.3002 420.514 78.0336 420.317 77.8369Z" fill="#9DB3C8"/>
<path d="M426.026 57.1533C426.025 49.8232 423.113 42.7934 417.93 37.6104C412.746 32.4274 405.717 29.5156 398.386 29.5156C361.723 30.9716 361.734 83.3448 398.386 84.795C402.016 84.7949 405.611 84.0799 408.964 82.6907C412.317 81.3015 415.364 79.2654 417.931 76.6986C420.498 74.1318 422.533 71.0846 423.922 67.731C425.311 64.3774 426.026 60.7831 426.026 57.1533Z" fill="#7B9370"/>
<path d="M377.802 43.6852C379.416 42.0061 381.025 40.121 383.257 39.4605C385.49 38.8001 388.471 40.1408 388.465 42.4697C388.344 43.5786 387.9 44.6276 387.189 45.4871C383.54 50.9233 380.358 56.6582 377.676 62.6305C376.917 64.3188 376.309 66.5835 377.711 67.7908C380.472 69.941 383.727 65.5895 386.639 66.5826C387.217 66.8342 387.728 67.2183 388.13 67.7038C388.533 68.1894 388.815 68.7628 388.955 69.3777C389.312 70.5834 389.355 71.8598 389.627 73.0877C390.801 78.4011 396.834 82.0905 402.099 80.7144C403.224 80.3139 404.381 80.0087 405.558 79.8019C407.314 79.5549 409.346 80.9203 408.72 82.7922C411.355 81.7311 413.81 80.27 415.999 78.4604C414.751 76.4535 414.352 73.8297 415.835 72.0665C417.431 70.1617 419.72 70.0168 421.129 67.9695C423.917 63.9177 423.119 61.0576 421.129 60.2612C417.626 58.8612 401.646 65.7303 401.51 58.8612C401.484 57.5576 404.24 55.7738 404.056 54.4817C403.86 53.0908 400.445 51.4462 398.045 51.1588C397.07 51.0665 396.159 50.6358 395.469 49.9415C394.779 49.2472 394.354 48.3332 394.268 47.3582C393.958 42.1749 404.042 43.5148 408.021 39.6854C410.981 36.8384 415.12 36.7808 418.671 38.3801C404.557 22.845 378.222 28.8246 372.062 48.7236C374.113 47.2078 376.033 45.5224 377.802 43.6852Z" fill="#E8F3FF"/>
<path d="M567.567 209.508H529.729V231.229H567.567V209.508Z" fill="#F5CEA9"/>
<path d="M481.382 103.074C481.565 107.686 482.766 110.98 485.505 115.642H541.807C544.887 115.56 544.881 111.342 541.793 111.42H536.867C536.867 111.42 537.169 107.598 533.468 104.024L539.034 101.765C540.913 100.668 540.505 98.0991 540.505 98.0991C540.505 98.0991 538.429 97.8948 538.38 95.1648C538.38 95.1648 539.154 91.6969 536.959 90.0845L536.142 89.508C533.843 87.8609 533.774 85.821 533.085 82.9848C529.214 84.6558 530.094 87.2071 525.713 89.0789C521.946 90.6906 519.873 97.1009 515.502 97.6716C511.13 98.2423 505.629 94.73 502.117 94.73C499.482 94.73 496.559 94.3709 489.682 97.9879C490.817 96.0492 492.222 94.2818 493.854 92.7387C496.217 90.4163 499.172 88.1195 500.005 84.5899C501.86 77.6343 495.086 71.0683 488.253 73.3166C487.038 73.7068 485.919 74.3508 484.97 75.2059C484.022 76.061 483.266 77.1077 482.753 78.2767C482.576 78.7233 482.575 79.2205 482.751 79.6677C482.927 80.1148 483.266 80.4785 483.7 80.685C484.133 80.8915 484.629 80.9255 485.087 80.78C485.545 80.6346 485.931 80.3205 486.166 79.9015C486.492 79.2644 486.952 78.7052 487.514 78.262C488.077 77.8189 488.728 77.5023 489.424 77.3338C492.869 76.4089 496.214 79.8645 495.032 83.2096C494.171 85.5221 491.768 86.8233 489.938 88.5222C485.775 91.8987 481.5 97.8355 481.382 103.074Z" fill="#B5776D"/>
<path d="M547.948 109.661C547.948 111.055 548.501 112.392 549.487 113.378C550.473 114.363 551.81 114.917 553.204 114.917C560.16 114.676 560.158 104.645 553.204 104.406C552.513 104.406 551.83 104.542 551.192 104.806C550.555 105.07 549.975 105.457 549.487 105.945C548.999 106.433 548.612 107.012 548.348 107.65C548.084 108.288 547.948 108.971 547.948 109.661Z" fill="#F5987E"/>
<path d="M155.537 151.346C156.092 138.375 143.519 128.243 130.996 131.312C129.539 131.659 128.013 131.583 126.598 131.092C125.183 130.602 123.937 129.717 123.008 128.542C120.3 125.064 116.833 122.25 112.871 120.316C108.91 118.383 104.558 117.38 100.15 117.384C95.1101 117.602 89.301 119.361 85.7087 114.675C82.1565 110.436 77.5852 107.17 72.424 105.183C67.2629 103.196 61.6813 102.553 56.2037 103.315C50.726 104.078 45.5321 106.22 41.1096 109.541C36.6872 112.862 33.1815 117.252 30.9218 122.3C29.9999 124.38 28.4882 126.144 26.5739 127.373C24.6596 128.603 22.4267 129.244 20.1517 129.217C17.3338 129.198 14.5437 129.775 11.9642 130.909C9.38474 132.044 7.07419 133.711 5.18404 135.801C3.29389 137.891 1.86682 140.356 0.996396 143.037C0.125972 145.717 -0.168151 148.551 0.13331 151.352H155.533L155.537 151.346Z" fill="white"/>
<path d="M166.077 119.114C166.029 117.255 166.408 115.409 167.183 113.719C167.959 112.028 169.11 110.538 170.55 109.361C171.991 108.184 173.681 107.352 175.492 106.929C177.303 106.506 179.187 106.502 180.999 106.919C181.886 107.131 182.814 107.085 183.675 106.786C184.536 106.488 185.293 105.949 185.858 105.234C187.504 103.117 189.612 101.404 192.021 100.227C194.43 99.0502 197.076 98.4395 199.758 98.442C202.823 98.5746 206.355 99.646 208.54 96.7949C210.699 94.2151 213.479 92.2269 216.618 91.0174C219.757 89.808 223.152 89.4169 226.484 89.8811C229.816 90.3453 232.975 91.6495 235.664 93.6709C238.353 95.6923 240.484 98.3646 241.856 101.436C242.416 102.702 243.335 103.775 244.499 104.523C245.663 105.271 247.021 105.662 248.405 105.645C250.12 105.634 251.818 105.986 253.387 106.677C254.957 107.368 256.362 108.383 257.512 109.655C258.661 110.928 259.529 112.429 260.058 114.06C260.587 115.691 260.765 117.416 260.58 119.121H166.08L166.077 119.114Z" fill="white"/>
<path d="M170.277 185.685C170.062 182.677 174.933 180.332 179.783 181.04C180.859 181.221 181.963 180.992 182.878 180.397C185.48 178.617 188.581 177.71 191.732 177.81C193.685 177.86 195.932 178.269 197.327 177.182C200.209 175.323 203.586 174.38 207.015 174.475C212.158 174.475 216.583 176.314 218.551 178.95C219.292 179.938 220.911 180.561 222.723 180.553C227.321 180.512 231.013 182.959 230.479 185.686H170.279L170.277 185.685Z" fill="white"/>
<path d="M152.743 477.316H178.034V514.365H148.899L152.743 477.316Z" fill="#61382D"/>
<path d="M112.068 539.659H172.762C175.445 539.659 178.019 538.593 179.916 536.696C181.813 534.799 182.879 532.226 182.879 529.543H101.953C101.953 532.226 103.019 534.799 104.916 536.696C106.813 538.593 109.385 539.659 112.068 539.659Z" fill="#D7A38F"/>
<path d="M182.881 529.539H101.953C101.953 529.539 101.647 523.496 113.164 520.758C126.594 517.584 145.229 512.296 150.531 497.82C156.808 498.419 161.601 503.228 162.86 509.306H178.035L182.881 529.539Z" fill="#F5CEA9"/>
<path d="M158.996 515.072C157.224 507.006 145.237 505.985 144.209 505.822C143.526 505.536 136.199 502.081 130.558 503.563C122.235 506.082 123.757 514.444 131.944 514.824C137.161 514.824 142.13 509.965 143.746 508.22C144.216 510.486 145.761 516.629 149.205 519.579C153.61 523.543 160.353 521.983 158.996 515.072ZM129.871 511.88C126.178 510.46 127.043 507.3 131.246 505.998C134.332 505.124 138.76 506.43 141.134 507.296C138.54 509.86 133.697 513.5 129.871 511.88ZM155.676 518.932C154.688 519.509 152.711 519.251 150.852 517.659C148.408 515.566 147.049 511.164 146.452 508.708C150.025 509.445 155.739 511.459 156.511 515.543C156.695 516.521 156.833 518.262 155.675 518.932H155.676Z" fill="#D7A38F"/>
<path d="M107.955 425.465L132.293 432.34L122.22 467.994L94.1821 460.073L107.955 425.465Z" fill="#61382D"/>
<path d="M51.8626 474.396L110.271 490.898C112.852 491.627 115.618 491.301 117.96 489.991C120.301 488.681 122.027 486.495 122.756 483.913L44.8823 461.91C44.1525 464.491 44.4779 467.257 45.7869 469.598C47.0959 471.94 49.2814 473.665 51.8626 474.396Z" fill="#D7A38F"/>
<path d="M122.759 483.913L44.8823 461.91C44.8823 461.91 46.2304 456.012 58.0588 456.509C71.8455 457.106 91.2166 457.086 100.256 444.594C106.132 446.877 109.437 452.808 108.997 458.999L123.6 463.125L122.759 483.913Z" fill="#F5CEA9"/>
<path d="M96.2468 450.643C96.8331 448.356 87.2843 444.262 84.5708 443.864C78.433 442.433 71.0352 449.863 78.4025 453.891C79.3901 454.418 80.4497 454.798 81.5476 455.018C77.8747 459.283 78.9074 467.601 86.0597 465.197C92.2897 462.971 96.2451 455.028 96.2468 450.643ZM78.0138 449.008C78.7064 447.342 81.5394 445.778 84.0182 446.333C86.8457 447.029 89.5521 448.148 92.0459 449.651C89.4017 450.399 86.8534 451.452 84.4522 452.789C82.5699 452.831 80.7141 452.339 79.0992 451.371C77.4654 450.325 77.878 449.334 78.0138 449.008ZM84.6968 462.952C80.3881 464.088 81.8243 457.352 84.3567 455.874C84.6507 455.669 84.9562 455.474 85.2625 455.283C88.0247 455.13 90.734 454.462 93.2508 453.314C92.1876 456.457 89.3596 461.726 84.6968 462.952Z" fill="#D7A38F"/>
<path fill-rule="evenodd" clip-rule="evenodd" d="M322.059 346.326C312.059 391.609 291.375 398.463 270.494 399.163L202.141 398.762C199.146 398.744 196.262 399.898 194.105 401.978C191.949 404.057 190.691 406.897 190.599 409.891L182.883 488.262H139.79L144.072 374.324C142.646 352.936 146.072 316.328 146.072 316.328L322.059 346.326Z" fill="#424435"/>
<path fill-rule="evenodd" clip-rule="evenodd" d="M134.472 324.185L106.071 428.323L142.068 442.323L148.589 362.453C148.743 360.565 149.381 358.748 150.442 357.178C151.503 355.608 152.951 354.338 154.646 353.491C156.341 352.644 158.226 352.248 160.119 352.342C162.011 352.436 163.847 353.016 165.45 354.027L242.062 402.325L287.014 402.961C312.066 403.769 335.61 391.71 343.343 367.868L346.847 330.38L298.148 336.474L169.944 303.846C162.544 301.851 154.654 302.871 148.005 306.684C141.355 310.496 136.489 316.79 134.472 324.185Z" fill="#666850"/>
<path d="M324.088 212.449L269.432 260.798L269.945 297.844L338.802 273.41L324.088 212.449Z" fill="#102325"/>
<path d="M242.529 308.684C242.309 304.897 242.802 301.102 243.983 297.497L265.223 231.804C267.355 224.606 264.966 218.369 265.934 210.725L267.544 197.105C267.987 194.014 271.721 192.666 272.848 195.353C272.334 190.364 276.757 188.418 278.624 191.185C279.412 186.807 284.8 186.913 285.465 190.801C286.274 186.893 291.552 186.976 291.799 190.561L292.221 196.557C292.59 195.996 293.092 195.536 293.683 195.217C294.274 194.899 294.935 194.732 295.606 194.732C295.92 194.755 296.224 194.854 296.491 195.022C296.758 195.189 296.98 195.42 297.137 195.693C297.293 195.966 297.381 196.274 297.391 196.589C297.401 196.904 297.333 197.217 297.194 197.499C296.076 199.722 295.162 202.041 294.464 204.428L292.977 213.597L287.24 222.333C285.884 224.398 285.062 226.767 284.846 229.228L277.846 309.149L242.529 308.684Z" fill="#553129"/>
<path d="M352.452 174.473C352.205 171.056 354.281 163.663 354.333 163.552H354.328C354.328 163.552 357.018 155.135 357.018 150.497C357.017 142.478 354.095 134.734 348.798 128.714C343.501 122.693 336.193 118.808 328.239 117.785C320.286 116.762 312.232 118.672 305.584 123.156C298.937 127.641 294.15 134.393 292.12 142.151L288.629 143.118L291.215 153.787C291.292 154.575 291.406 155.352 291.538 156.122H291.532C292.428 164.401 291.133 169.126 290.575 170.716C290.017 172.305 289.402 174.52 291.962 175.834C292.478 176.069 292.937 176.413 293.307 176.843C293.677 177.273 293.949 177.779 294.103 178.325L297.012 186.764C298.944 192.711 302.2 195.478 308.285 194.097C313.809 192.834 317.9 191.987 319.7 191.605C320.266 196.202 319.723 200.868 318.116 205.212L355.01 192.348C353.793 190.014 353.153 183.051 352.452 174.473Z" fill="#61382D"/>
<path d="M288.63 143.115C292.23 142.111 297.217 140.709 300.862 139.851L303.016 145.675C305.724 145.374 308.361 144.973 310.875 146.27C311.922 146.814 312.849 147.562 313.601 148.471C314.353 149.379 314.915 150.43 315.253 151.56L317.511 159.195C319.899 165.557 314.935 176.906 308.308 177.275H293.594L297.014 186.762C298.947 192.708 301.52 196.174 307.608 194.794L323.023 191.289C327.116 190.369 328.325 185.531 327.223 181.48C325.422 175.531 323.517 169.781 321.927 163.758C321.363 161.717 320.527 159.471 320.457 157.342C320.396 155.39 321.098 153.492 322.414 152.05C323.73 150.607 325.557 149.734 327.505 149.616C329.454 149.499 331.372 150.145 332.853 151.418C334.333 152.691 335.259 154.491 335.433 156.436L335.464 156.43C335.891 158.551 336.762 162.983 337.182 165.071C338.724 172.456 347.515 174.32 353.149 174.301C353.165 174.168 355.182 166.047 357.058 164.33C358.714 162.816 359.022 160.542 359.166 158.421C359.098 156.067 359.631 153.735 360.716 151.645C361.075 150.823 361.256 149.934 361.246 149.036C361.236 148.139 361.036 147.254 360.659 146.44C359.575 144.316 359.177 141.907 359.521 139.547C359.65 138.592 359.56 137.619 359.258 136.704C358.955 135.788 358.448 134.954 357.774 134.264C356.309 132.716 355.304 130.79 354.873 128.702C354.583 127.644 354.028 126.677 353.26 125.893C352.492 125.109 351.537 124.533 350.485 124.221C348.969 123.655 347.727 122.531 347.013 121.079C346.585 120.209 345.964 119.45 345.197 118.858C344.43 118.266 343.537 117.858 342.588 117.665C340.459 117.233 338.83 116.701 337.258 115.128C336.549 114.479 335.701 114 334.778 113.727C333.856 113.454 332.884 113.395 331.936 113.553C330.597 113.87 329.223 114.009 327.848 113.965C326.476 113.713 325.147 113.266 323.901 112.637C323.081 112.301 322.199 112.141 321.313 112.167C320.426 112.193 319.555 112.405 318.756 112.788C317.279 113.497 315.777 114.486 314.124 114.692C310.825 115.038 307.228 113.492 304.554 116.251C303.275 117.421 301.476 119.507 299.707 119.907L296.041 121.005C295.14 121.275 294.311 121.741 293.613 122.371C292.915 123.001 292.366 123.779 292.005 124.647L290.568 128.106C289.489 130.678 286.105 132.247 285.627 135.194C285.256 137.775 288.011 140.434 288.63 143.115Z" fill="#102325"/>
<path d="M317.752 156.723C317.722 156.604 317.668 156.493 317.595 156.394C317.521 156.296 317.429 156.214 317.323 156.151C317.218 156.089 317.101 156.048 316.979 156.031C316.858 156.014 316.734 156.021 316.616 156.052L296.639 161.198L295.03 155.167C294.96 154.935 294.802 154.74 294.591 154.622C294.379 154.504 294.129 154.473 293.895 154.536C293.661 154.598 293.46 154.749 293.336 154.957C293.211 155.165 293.172 155.413 293.227 155.649L296.922 169.498C296.989 169.734 297.146 169.934 297.359 170.055C297.572 170.177 297.824 170.209 298.061 170.146C298.298 170.082 298.501 169.928 298.625 169.717C298.75 169.506 298.786 169.254 298.726 169.016L297.121 163.004L317.081 157.862C317.2 157.831 317.312 157.778 317.41 157.704C317.508 157.63 317.591 157.538 317.653 157.432C317.715 157.326 317.756 157.209 317.773 157.087C317.79 156.966 317.783 156.842 317.752 156.723Z" fill="white"/>
<path d="M305.169 219.458C288.257 258.919 261.712 320.359 261.712 320.359C299.9 335.635 328.279 380.477 328.279 380.477L339.489 382.228C358.486 363.875 366.282 330.593 368.919 305.502L375.576 254.351C378.376 218.614 355.014 192.344 355.014 192.344L319.884 203.342C315.388 204.909 309.373 209.649 305.169 219.458Z" fill="#124A53"/>
<path d="M301.368 310.47L246.24 292.517C238.581 290.028 233.743 283.593 233.743 283.593L226.265 275.872C225 274.566 223.411 273.621 221.659 273.133C219.908 272.645 218.058 272.633 216.301 273.097L192.864 279.291C188.157 280.316 190.752 283.882 193.416 283.797C190.863 284.785 193.91 288.238 198.977 286.509C196.841 288.439 200.692 290.006 204.831 288.65C203.147 290.477 205.572 292.255 210.246 290.812C212.409 290.369 213.73 292.497 213.73 292.497L217.376 298.13C220.234 302.68 224.568 301.946 228.14 303.435C231.711 304.925 237.144 310.653 241.223 313.167L288.015 342.276C294.661 346.411 302.62 347.895 310.309 346.432C317.999 344.97 324.857 340.669 329.521 334.383L301.368 310.47Z" fill="#61382D"/>
<path d="M401.35 274.04L368.927 449.31L332.511 412.892C337.822 363.424 354.882 311.104 384.904 269.341L387.539 268.169C388.825 267.598 390.215 267.297 391.623 267.285C393.03 267.274 394.425 267.552 395.72 268.103C397.016 268.653 398.184 269.465 399.153 270.486C400.121 271.507 400.869 272.717 401.35 274.04Z" fill="#DBE7E9"/>
<path d="M196.755 449.152H369.648L333.231 412.175L330.92 411.498C300.418 402.609 268.814 398.069 237.042 398.011C205.891 397.899 196.73 398.011 196.73 398.011C191.082 398.011 187.087 400.802 187.087 410.649V440.04C187.788 446.345 191.097 449.162 196.755 449.152Z" fill="#BFD3D6"/>
<path d="M228.597 361.013L302.299 374.81C304.276 375.18 306.179 373.878 306.549 371.901L307.889 364.742C308.259 362.765 306.957 360.863 304.98 360.493L231.277 346.695C229.3 346.325 227.397 347.628 227.027 349.605L225.687 356.764C225.317 358.741 226.62 360.643 228.597 361.013Z" fill="#DBE7E9"/>
<path d="M414.696 530.916C413.281 530.919 411.893 530.531 410.684 529.794C409.476 529.058 408.494 528.002 407.848 526.743L369.002 451.409C368.538 450.524 368.387 449.509 368.571 448.527L387.877 345.433C388.776 340.579 395.914 340.649 396.629 345.607L422.323 522.101C422.474 523.194 422.39 524.307 422.077 525.365C421.763 526.423 421.228 527.401 420.506 528.236C419.784 529.07 418.892 529.741 417.891 530.203C416.889 530.665 415.8 530.909 414.696 530.916ZM392.231 345.316C392.011 345.301 391.793 345.372 391.623 345.514C391.453 345.656 391.345 345.858 391.32 346.078C391.428 346.801 371.59 449.183 372.108 449.787L410.962 525.14C411.416 526.026 412.17 526.722 413.089 527.104C414.009 527.486 415.034 527.529 415.982 527.225C416.93 526.921 417.74 526.29 418.266 525.444C418.792 524.599 419 523.594 418.854 522.609L393.16 346.115C393.152 346.002 393.121 345.891 393.07 345.79C393.019 345.688 392.948 345.597 392.862 345.523C392.775 345.449 392.675 345.392 392.567 345.357C392.459 345.321 392.345 345.307 392.231 345.316Z" fill="#124A53"/>
<path d="M200.859 532.32C200.614 532.319 200.371 532.267 200.147 532.167C199.923 532.067 199.723 531.922 199.558 531.74C199.394 531.558 199.27 531.343 199.193 531.11C199.117 530.877 199.09 530.631 199.114 530.387L214.25 384.622C213.913 368.234 230.526 360.328 245.61 363.68L380.542 388.232C380.999 388.315 381.405 388.576 381.669 388.958C381.934 389.34 382.036 389.811 381.952 390.269C381.869 390.726 381.608 391.131 381.226 391.396C380.844 391.66 380.373 391.762 379.915 391.679L244.947 367.116C240.861 366.225 236.631 366.229 232.547 367.129C223.008 369.338 217.754 375.582 217.754 384.711C217.622 384.802 202.712 530.622 202.601 530.748C202.557 531.179 202.354 531.579 202.032 531.869C201.71 532.159 201.292 532.32 200.859 532.32Z" fill="#124A53"/>
<path d="M210.213 448.868L210.207 452.371L370.791 452.677L370.797 449.173L210.213 448.868Z" fill="#124A53"/>
<path fill-rule="evenodd" clip-rule="evenodd" d="M86.9278 213.82H83.0522C82.7737 213.82 82.4991 213.886 82.2512 214.013C82.0033 214.14 81.7892 214.324 81.6265 214.551C81.4638 214.777 81.3573 215.038 81.3156 215.314C81.274 215.589 81.2985 215.87 81.387 216.134L112.939 310.303H207.421C207.421 308.079 206.537 305.946 204.964 304.373C203.392 302.801 201.259 301.917 199.035 301.917H119.51L91.2381 216.922C90.9355 216.018 90.3566 215.232 89.5831 214.676C88.8096 214.119 87.8807 213.82 86.9278 213.82Z" fill="#0D2135"/>
<path fill-rule="evenodd" clip-rule="evenodd" d="M654.408 430.93C655.481 430.88 656.531 431.256 657.327 431.977C658.124 432.698 658.603 433.706 658.659 434.779V456.512C658.603 457.585 658.124 458.592 657.327 459.313C656.531 460.034 655.481 460.411 654.408 460.36H540.24V430.93H654.408Z" fill="#A0B4B7"/>
<path d="M651.659 456.855H540.24V434.433H651.659C652.586 434.433 653.476 434.802 654.131 435.457C654.787 436.113 655.156 437.003 655.156 437.93V453.359C655.156 454.286 654.787 455.176 654.131 455.831C653.476 456.487 652.586 456.855 651.659 456.855Z" fill="#FDFAF5"/>
<path fill-rule="evenodd" clip-rule="evenodd" d="M613.997 440.039C615.831 440.039 617.318 441.229 617.318 442.697V457.702C617.318 459.17 615.831 460.36 613.997 460.36H524.824V440.039H613.997Z" fill="#666850"/>
<path d="M612.569 458.258H524.824V442.141H612.569C613.271 442.141 613.944 442.42 614.44 442.916C614.936 443.413 615.215 444.086 615.215 444.787V455.612C615.215 455.959 615.147 456.303 615.014 456.624C614.881 456.945 614.686 457.237 614.44 457.483C614.194 457.729 613.903 457.923 613.582 458.056C613.261 458.189 612.917 458.258 612.569 458.258Z" fill="#FDFAF5"/>
<path d="M650.951 408.508H562.662C561.115 408.508 559.86 409.763 559.86 411.31V428.128C559.86 429.675 561.115 430.93 562.662 430.93H650.951C652.499 430.93 653.754 429.675 653.754 428.128V411.31C653.754 409.763 652.499 408.508 650.951 408.508Z" fill="#0D2135"/>
<path d="M625.725 411.309H608.908V428.125H625.725V411.309Z" fill="#B1C585"/>
<path d="M631.332 428.126L641.141 411.309L650.95 428.126H631.332Z" fill="#F4B7A8"/>
<path d="M601.902 419.718C601.902 421.948 601.016 424.086 599.439 425.663C597.862 427.24 595.724 428.126 593.494 428.126C582.34 427.683 582.343 411.75 593.494 411.309C595.724 411.309 597.862 412.195 599.439 413.772C601.016 415.349 601.902 417.488 601.902 419.718Z" fill="#F8C77E"/>
<path d="M573.053 419.721L579.065 413.704C579.327 413.442 579.475 413.085 579.475 412.714C579.475 412.342 579.327 411.986 579.065 411.723C578.802 411.46 578.445 411.313 578.074 411.313C577.702 411.313 577.346 411.46 577.083 411.723L571.066 417.739L565.055 411.723C564.925 411.593 564.77 411.49 564.6 411.419C564.43 411.349 564.248 411.313 564.064 411.313C563.88 411.312 563.698 411.349 563.528 411.419C563.358 411.49 563.203 411.593 563.073 411.723C562.943 411.853 562.84 412.007 562.77 412.177C562.699 412.347 562.663 412.53 562.663 412.714C562.663 412.898 562.699 413.08 562.77 413.25C562.84 413.42 562.943 413.574 563.073 413.704L569.089 419.721L563.073 425.737C562.81 426 562.663 426.356 562.663 426.728C562.663 427.099 562.81 427.455 563.073 427.718C563.336 427.981 563.692 428.129 564.064 428.129C564.435 428.129 564.792 427.981 565.055 427.718L571.066 421.706L577.083 427.718C577.346 427.981 577.702 428.129 578.074 428.129C578.445 428.129 578.802 427.981 579.065 427.718C579.327 427.455 579.475 427.099 579.475 426.728C579.475 426.356 579.327 426 579.065 425.737L573.053 419.721Z" fill="#697171"/>
<path d="M683.883 488.387C683.862 480.961 680.902 473.845 675.651 468.594C670.401 463.342 663.285 460.382 655.859 460.359H515.715C508.289 460.381 501.172 463.341 495.921 468.593C490.669 473.844 487.709 480.961 487.688 488.387V495.395H683.883V488.387Z" fill="#A8BAAC"/>
<path d="M487.688 495.395V502.401C487.709 509.828 490.669 516.944 495.921 522.196C501.172 527.447 508.289 530.407 515.715 530.429H655.859C663.285 530.407 670.401 527.446 675.651 522.195C680.902 516.943 683.862 509.827 683.883 502.401V495.395H487.688Z" fill="#FCE2BA"/>
</g>
<defs>
<clipPath id="clip0_47_70331">
<rect width="700" height="560" fill="white"/>
</clipPath>
</defs>
</svg>
