<svg width="1920" height="793" viewBox="0 0 1920 793" fill="none" xmlns="http://www.w3.org/2000/svg">
<g clip-path="url(#clip0_47_91143)">
<path d="M1380.86 245.466C1434.96 245.466 1478.82 201.887 1478.82 148.13C1478.82 94.372 1434.96 50.793 1380.86 50.793C1326.76 50.793 1282.9 94.372 1282.9 148.13C1282.9 201.887 1326.76 245.466 1380.86 245.466Z" fill="black"/>
<g filter="url(#filter0_d_47_91143)">
<path d="M1380.86 245.466C1434.96 245.466 1478.82 201.887 1478.82 148.13C1478.82 94.372 1434.96 50.793 1380.86 50.793C1326.76 50.793 1282.9 94.372 1282.9 148.13C1282.9 201.887 1326.76 245.466 1380.86 245.466Z" fill="black"/>
</g>
<path d="M1380.86 245.466C1434.96 245.466 1478.82 201.887 1478.82 148.13C1478.82 94.372 1434.96 50.793 1380.86 50.793C1326.76 50.793 1282.9 94.372 1282.9 148.13C1282.9 201.887 1326.76 245.466 1380.86 245.466Z" fill="white" stroke="#F4F4F4" stroke-width="0.725624"/>
<g filter="url(#filter1_d_47_91143)">
<path d="M1409.89 518.2C1461.58 518.2 1503.49 476.593 1503.49 425.268C1503.49 373.943 1461.58 332.336 1409.89 332.336C1358.19 332.336 1316.28 373.943 1316.28 425.268C1316.28 476.593 1358.19 518.2 1409.89 518.2Z" fill="black"/>
</g>
<path d="M1409.89 518.2C1461.58 518.2 1503.49 476.593 1503.49 425.268C1503.49 373.943 1461.58 332.336 1409.89 332.336C1358.19 332.336 1316.28 373.943 1316.28 425.268C1316.28 476.593 1358.19 518.2 1409.89 518.2Z" fill="black"/>
<path d="M1409.89 518.2C1461.58 518.2 1503.49 476.593 1503.49 425.268C1503.49 373.943 1461.58 332.336 1409.89 332.336C1358.19 332.336 1316.28 373.943 1316.28 425.268C1316.28 476.593 1358.19 518.2 1409.89 518.2Z" fill="white" stroke="#F4F4F4" stroke-width="0.725624"/>
<path d="M515.918 439.216C587.652 439.216 645.805 381.178 645.805 309.584C645.805 237.991 587.652 179.953 515.918 179.953C444.183 179.953 386.031 237.991 386.031 309.584C386.031 381.178 444.183 439.216 515.918 439.216Z" fill="black"/>
<g filter="url(#filter2_d_47_91143)">
<path d="M515.918 439.216C587.652 439.216 645.805 381.178 645.805 309.584C645.805 237.991 587.652 179.953 515.918 179.953C444.183 179.953 386.031 237.991 386.031 309.584C386.031 381.178 444.183 439.216 515.918 439.216Z" fill="black"/>
</g>
<path d="M515.918 439.216C587.652 439.216 645.805 381.178 645.805 309.584C645.805 237.991 587.652 179.953 515.918 179.953C444.183 179.953 386.031 237.991 386.031 309.584C386.031 381.178 444.183 439.216 515.918 439.216Z" fill="white" stroke="#F4F4F4" stroke-width="0.725624"/>
<path d="M1121.09 424.704C1192.82 424.704 1250.98 366.666 1250.98 295.073C1250.98 223.479 1192.82 165.441 1121.09 165.441C1049.36 165.441 991.203 223.479 991.203 295.073C991.203 366.666 1049.36 424.704 1121.09 424.704Z" fill="black"/>
<g filter="url(#filter3_d_47_91143)">
<path d="M1121.09 424.704C1192.82 424.704 1250.98 366.666 1250.98 295.073C1250.98 223.479 1192.82 165.441 1121.09 165.441C1049.36 165.441 991.203 223.479 991.203 295.073C991.203 366.666 1049.36 424.704 1121.09 424.704Z" fill="black"/>
</g>
<path d="M1121.09 424.704C1192.82 424.704 1250.98 366.666 1250.98 295.073C1250.98 223.479 1192.82 165.441 1121.09 165.441C1049.36 165.441 991.203 223.479 991.203 295.073C991.203 366.666 1049.36 424.704 1121.09 424.704Z" fill="white" stroke="#F4F4F4" stroke-width="0.725624"/>
<g filter="url(#filter4_d_47_91143)">
<path d="M122.631 310.771C176.732 310.771 220.59 267.192 220.59 213.434C220.59 159.677 176.732 116.098 122.631 116.098C68.5297 116.098 24.6719 159.677 24.6719 213.434C24.6719 267.192 68.5297 310.771 122.631 310.771Z" fill="black"/>
<path d="M122.631 310.771C176.732 310.771 220.59 267.192 220.59 213.434C220.59 159.677 176.732 116.098 122.631 116.098C68.5297 116.098 24.6719 159.677 24.6719 213.434C24.6719 267.192 68.5297 310.771 122.631 310.771Z" fill="white" stroke="#F4F4F4" stroke-width="0.725624"/>
</g>
<g filter="url(#filter5_d_47_91143)">
<path d="M1723.36 405.837C1795.09 405.837 1853.24 347.799 1853.24 276.205C1853.24 204.612 1795.09 146.574 1723.36 146.574C1651.62 146.574 1593.47 204.612 1593.47 276.205C1593.47 347.799 1651.62 405.837 1723.36 405.837Z" fill="black"/>
<path d="M1723.36 405.837C1795.09 405.837 1853.24 347.799 1853.24 276.205C1853.24 204.612 1795.09 146.574 1723.36 146.574C1651.62 146.574 1593.47 204.612 1593.47 276.205C1593.47 347.799 1651.62 405.837 1723.36 405.837Z" fill="white" stroke="#F4F4F4" stroke-width="0.725624"/>
</g>
<g filter="url(#filter6_d_47_91143)">
<path d="M260.5 560.286C312.197 560.286 354.105 518.679 354.105 467.354C354.105 416.029 312.197 374.422 260.5 374.422C208.803 374.422 166.895 416.029 166.895 467.354C166.895 518.679 208.803 560.286 260.5 560.286Z" fill="black"/>
<path d="M260.5 560.286C312.197 560.286 354.105 518.679 354.105 467.354C354.105 416.029 312.197 374.422 260.5 374.422C208.803 374.422 166.895 416.029 166.895 467.354C166.895 518.679 208.803 560.286 260.5 560.286Z" fill="white" stroke="#F4F4F4" stroke-width="0.725624"/>
</g>
<path d="M829.387 560.286C881.084 560.286 922.992 518.679 922.992 467.354C922.992 416.029 881.084 374.422 829.387 374.422C777.69 374.422 735.781 416.029 735.781 467.354C735.781 518.679 777.69 560.286 829.387 560.286Z" fill="black"/>
<g filter="url(#filter7_d_47_91143)">
<path d="M829.387 560.286C881.084 560.286 922.992 518.679 922.992 467.354C922.992 416.029 881.084 374.422 829.387 374.422C777.69 374.422 735.781 416.029 735.781 467.354C735.781 518.679 777.69 560.286 829.387 560.286Z" fill="black"/>
</g>
<path d="M829.387 560.286C881.084 560.286 922.992 518.679 922.992 467.354C922.992 416.029 881.084 374.422 829.387 374.422C777.69 374.422 735.781 416.029 735.781 467.354C735.781 518.679 777.69 560.286 829.387 560.286Z" fill="white" stroke="#F4F4F4" stroke-width="0.725624"/>
<path d="M825.033 245.466C879.135 245.466 922.993 201.887 922.993 148.13C922.993 94.372 879.135 50.793 825.033 50.793C770.932 50.793 727.074 94.372 727.074 148.13C727.074 201.887 770.932 245.466 825.033 245.466Z" fill="black"/>
<g filter="url(#filter8_d_47_91143)">
<path d="M825.033 245.466C879.135 245.466 922.993 201.887 922.993 148.13C922.993 94.372 879.135 50.793 825.033 50.793C770.932 50.793 727.074 94.372 727.074 148.13C727.074 201.887 770.932 245.466 825.033 245.466Z" fill="black"/>
</g>
<path d="M825.033 245.466C879.135 245.466 922.993 201.887 922.993 148.13C922.993 94.372 879.135 50.793 825.033 50.793C770.932 50.793 727.074 94.372 727.074 148.13C727.074 201.887 770.932 245.466 825.033 245.466Z" fill="white" stroke="#F4F4F4" stroke-width="0.725624"/>
</g>
<defs>
<filter id="filter0_d_47_91143" x="1277.1" y="50.793" width="207.528" height="207.733" filterUnits="userSpaceOnUse" color-interpolation-filters="sRGB">
<feFlood flood-opacity="0" result="BackgroundImageFix"/>
<feColorMatrix in="SourceAlpha" type="matrix" values="0 0 0 0 0 0 0 0 0 0 0 0 0 0 0 0 0 0 127 0" result="hardAlpha"/>
<feOffset dy="7.25624"/>
<feGaussianBlur stdDeviation="2.90249"/>
<feComposite in2="hardAlpha" operator="out"/>
<feColorMatrix type="matrix" values="0 0 0 0 0.532495 0 0 0 0 0.532495 0 0 0 0 0.532495 0 0 0 0.1309 0"/>
<feBlend mode="normal" in2="BackgroundImageFix" result="effect1_dropShadow_47_91143"/>
<feBlend mode="normal" in="SourceGraphic" in2="effect1_dropShadow_47_91143" result="shape"/>
</filter>
<filter id="filter1_d_47_91143" x="1310.48" y="332.336" width="198.821" height="198.925" filterUnits="userSpaceOnUse" color-interpolation-filters="sRGB">
<feFlood flood-opacity="0" result="BackgroundImageFix"/>
<feColorMatrix in="SourceAlpha" type="matrix" values="0 0 0 0 0 0 0 0 0 0 0 0 0 0 0 0 0 0 127 0" result="hardAlpha"/>
<feOffset dy="7.25624"/>
<feGaussianBlur stdDeviation="2.90249"/>
<feColorMatrix type="matrix" values="0 0 0 0 0.532495 0 0 0 0 0.532495 0 0 0 0 0.532495 0 0 0 0.1309 0"/>
<feBlend mode="normal" in2="BackgroundImageFix" result="effect1_dropShadow_47_91143"/>
<feBlend mode="normal" in="SourceGraphic" in2="effect1_dropShadow_47_91143" result="shape"/>
</filter>
<filter id="filter2_d_47_91143" x="380.226" y="179.953" width="271.383" height="272.323" filterUnits="userSpaceOnUse" color-interpolation-filters="sRGB">
<feFlood flood-opacity="0" result="BackgroundImageFix"/>
<feColorMatrix in="SourceAlpha" type="matrix" values="0 0 0 0 0 0 0 0 0 0 0 0 0 0 0 0 0 0 127 0" result="hardAlpha"/>
<feOffset dy="7.25624"/>
<feGaussianBlur stdDeviation="2.90249"/>
<feComposite in2="hardAlpha" operator="out"/>
<feColorMatrix type="matrix" values="0 0 0 0 0.532495 0 0 0 0 0.532495 0 0 0 0 0.532495 0 0 0 0.1309 0"/>
<feBlend mode="normal" in2="BackgroundImageFix" result="effect1_dropShadow_47_91143"/>
<feBlend mode="normal" in="SourceGraphic" in2="effect1_dropShadow_47_91143" result="shape"/>
</filter>
<filter id="filter3_d_47_91143" x="985.398" y="165.441" width="271.383" height="272.323" filterUnits="userSpaceOnUse" color-interpolation-filters="sRGB">
<feFlood flood-opacity="0" result="BackgroundImageFix"/>
<feColorMatrix in="SourceAlpha" type="matrix" values="0 0 0 0 0 0 0 0 0 0 0 0 0 0 0 0 0 0 127 0" result="hardAlpha"/>
<feOffset dy="7.25624"/>
<feGaussianBlur stdDeviation="2.90249"/>
<feComposite in2="hardAlpha" operator="out"/>
<feColorMatrix type="matrix" values="0 0 0 0 0.532495 0 0 0 0 0.532495 0 0 0 0 0.532495 0 0 0 0.1309 0"/>
<feBlend mode="normal" in2="BackgroundImageFix" result="effect1_dropShadow_47_91143"/>
<feBlend mode="normal" in="SourceGraphic" in2="effect1_dropShadow_47_91143" result="shape"/>
</filter>
<filter id="filter4_d_47_91143" x="18.5036" y="115.734" width="208.255" height="208.46" filterUnits="userSpaceOnUse" color-interpolation-filters="sRGB">
<feFlood flood-opacity="0" result="BackgroundImageFix"/>
<feColorMatrix in="SourceAlpha" type="matrix" values="0 0 0 0 0 0 0 0 0 0 0 0 0 0 0 0 0 0 127 0" result="hardAlpha"/>
<feOffset dy="7.25624"/>
<feGaussianBlur stdDeviation="2.90249"/>
<feColorMatrix type="matrix" values="0 0 0 0 0.532495 0 0 0 0 0.532495 0 0 0 0 0.532495 0 0 0 0.1309 0"/>
<feBlend mode="normal" in2="BackgroundImageFix" result="effect1_dropShadow_47_91143"/>
<feBlend mode="normal" in="SourceGraphic" in2="effect1_dropShadow_47_91143" result="shape"/>
</filter>
<filter id="filter5_d_47_91143" x="1587.3" y="146.211" width="272.11" height="273.05" filterUnits="userSpaceOnUse" color-interpolation-filters="sRGB">
<feFlood flood-opacity="0" result="BackgroundImageFix"/>
<feColorMatrix in="SourceAlpha" type="matrix" values="0 0 0 0 0 0 0 0 0 0 0 0 0 0 0 0 0 0 127 0" result="hardAlpha"/>
<feOffset dy="7.25624"/>
<feGaussianBlur stdDeviation="2.90249"/>
<feColorMatrix type="matrix" values="0 0 0 0 0.532495 0 0 0 0 0.532495 0 0 0 0 0.532495 0 0 0 0.1309 0"/>
<feBlend mode="normal" in2="BackgroundImageFix" result="effect1_dropShadow_47_91143"/>
<feBlend mode="normal" in="SourceGraphic" in2="effect1_dropShadow_47_91143" result="shape"/>
</filter>
<filter id="filter6_d_47_91143" x="160.726" y="374.059" width="199.547" height="199.651" filterUnits="userSpaceOnUse" color-interpolation-filters="sRGB">
<feFlood flood-opacity="0" result="BackgroundImageFix"/>
<feColorMatrix in="SourceAlpha" type="matrix" values="0 0 0 0 0 0 0 0 0 0 0 0 0 0 0 0 0 0 127 0" result="hardAlpha"/>
<feOffset dy="7.25624"/>
<feGaussianBlur stdDeviation="2.90249"/>
<feColorMatrix type="matrix" values="0 0 0 0 0.532495 0 0 0 0 0.532495 0 0 0 0 0.532495 0 0 0 0.1309 0"/>
<feBlend mode="normal" in2="BackgroundImageFix" result="effect1_dropShadow_47_91143"/>
<feBlend mode="normal" in="SourceGraphic" in2="effect1_dropShadow_47_91143" result="shape"/>
</filter>
<filter id="filter7_d_47_91143" x="729.976" y="374.422" width="198.821" height="198.925" filterUnits="userSpaceOnUse" color-interpolation-filters="sRGB">
<feFlood flood-opacity="0" result="BackgroundImageFix"/>
<feColorMatrix in="SourceAlpha" type="matrix" values="0 0 0 0 0 0 0 0 0 0 0 0 0 0 0 0 0 0 127 0" result="hardAlpha"/>
<feOffset dy="7.25624"/>
<feGaussianBlur stdDeviation="2.90249"/>
<feComposite in2="hardAlpha" operator="out"/>
<feColorMatrix type="matrix" values="0 0 0 0 0.532495 0 0 0 0 0.532495 0 0 0 0 0.532495 0 0 0 0.1309 0"/>
<feBlend mode="normal" in2="BackgroundImageFix" result="effect1_dropShadow_47_91143"/>
<feBlend mode="normal" in="SourceGraphic" in2="effect1_dropShadow_47_91143" result="shape"/>
</filter>
<filter id="filter8_d_47_91143" x="721.269" y="50.793" width="207.528" height="207.733" filterUnits="userSpaceOnUse" color-interpolation-filters="sRGB">
<feFlood flood-opacity="0" result="BackgroundImageFix"/>
<feColorMatrix in="SourceAlpha" type="matrix" values="0 0 0 0 0 0 0 0 0 0 0 0 0 0 0 0 0 0 127 0" result="hardAlpha"/>
<feOffset dy="7.25624"/>
<feGaussianBlur stdDeviation="2.90249"/>
<feComposite in2="hardAlpha" operator="out"/>
<feColorMatrix type="matrix" values="0 0 0 0 0.532495 0 0 0 0 0.532495 0 0 0 0 0.532495 0 0 0 0.1309 0"/>
<feBlend mode="normal" in2="BackgroundImageFix" result="effect1_dropShadow_47_91143"/>
<feBlend mode="normal" in="SourceGraphic" in2="effect1_dropShadow_47_91143" result="shape"/>
</filter>
<clipPath id="clip0_47_91143">
<rect width="1920" height="792.203" fill="white"/>
</clipPath>
</defs>
</svg>
