<svg width="105" height="597" viewBox="0 0 105 597" fill="none" xmlns="http://www.w3.org/2000/svg">
<rect y="492" width="105" height="105" rx="12" fill="#F6FBF5"/>
<g clip-path="url(#clip0_47_113436)">
<path d="M62.6224 557.656L61.7615 541.999C61.6864 540.662 61.1846 539.384 60.3297 538.352C59.4748 537.321 58.3118 536.591 57.0115 536.269L58.7927 529.459C58.8391 529.283 58.8445 529.099 58.8083 528.92C58.7721 528.742 58.6954 528.574 58.584 528.43C58.4727 528.286 58.3297 528.169 58.1662 528.089C58.0027 528.01 57.8229 527.968 57.6408 527.969H57.0471V526.188C57.0471 525.873 56.922 525.571 56.6993 525.348C56.4766 525.125 56.1745 525 55.8596 525H51.1096C50.2154 525.001 49.3453 525.29 48.6287 525.825C47.912 526.36 47.387 527.112 47.1315 527.969H46.3596C46.178 527.969 45.999 528.011 45.8362 528.091C45.6734 528.172 45.5312 528.288 45.4205 528.432C45.3098 528.576 45.2337 528.744 45.1978 528.922C45.1619 529.1 45.1674 529.284 45.2137 529.459L46.9949 536.269C45.6946 536.591 44.5316 537.321 43.6767 538.352C42.8218 539.384 42.32 540.662 42.2449 541.999L41.378 557.656C40.6694 557.688 40.0023 557.999 39.5235 558.523C39.0447 559.046 38.7934 559.738 38.8249 560.447C38.8564 561.156 39.1681 561.823 39.6914 562.301C40.2148 562.78 40.9069 563.031 41.6155 563H62.3968C63.1054 563.031 63.7975 562.78 64.3209 562.301C64.8442 561.823 65.1559 561.156 65.1874 560.447C65.2189 559.738 64.9676 559.046 64.4888 558.523C64.01 557.999 63.3429 557.688 62.6343 557.656H62.6224ZM51.1096 527.375H54.6721V527.969H54.0783C53.7634 527.969 53.4614 528.094 53.2387 528.317C53.016 528.539 52.8908 528.841 52.8908 529.156C52.8908 529.471 53.016 529.773 53.2387 529.996C53.4614 530.219 53.7634 530.344 54.0783 530.344H56.103L54.5949 536.085H49.4055L47.8974 530.344H49.9221C50.237 530.344 50.5391 530.219 50.7618 529.996C50.9845 529.773 51.1096 529.471 51.1096 529.156C51.1096 528.841 50.9845 528.539 50.7618 528.317C50.5391 528.094 50.237 527.969 49.9221 527.969H49.7915C49.9575 527.783 50.1605 527.634 50.3876 527.532C50.6146 527.43 50.8606 527.376 51.1096 527.375ZM62.3908 560.625H41.6096C41.5709 560.626 41.5324 560.619 41.4964 560.605C41.4604 560.59 41.4277 560.569 41.4 560.542C41.3724 560.515 41.3504 560.482 41.3354 560.447C41.3204 560.411 41.3127 560.373 41.3127 560.334C41.3127 560.255 41.344 560.18 41.3997 560.124C41.4553 560.068 41.5309 560.037 41.6096 560.037H42.5002C42.7975 560.038 43.0844 559.928 43.3043 559.728C43.5241 559.528 43.661 559.253 43.6877 558.957C43.6898 558.919 43.6898 558.881 43.6877 558.844L44.608 542.153C44.6612 541.163 45.0923 540.23 45.8124 539.547C46.5326 538.865 47.487 538.484 48.4793 538.484H55.5152C56.5075 538.484 57.4619 538.865 58.1821 539.547C58.9022 540.23 59.3333 541.163 59.3865 542.153L60.3127 558.844C60.3099 558.887 60.3099 558.931 60.3127 558.974C60.345 559.266 60.4842 559.536 60.7035 559.731C60.9228 559.926 61.2067 560.033 61.5002 560.031H62.3908C62.4696 560.031 62.5451 560.063 62.6008 560.118C62.6564 560.174 62.6877 560.249 62.6877 560.328C62.6886 560.368 62.6813 560.407 62.6663 560.444C62.6513 560.481 62.6289 560.514 62.6005 560.542C62.5722 560.57 62.5384 560.592 62.5013 560.606C62.4642 560.62 62.4246 560.627 62.3849 560.625H62.3908Z" fill="#52B141"/>
<path d="M52.825 548.4H52.6944L51.9997 548.459C51.7314 548.46 51.4667 548.397 51.2278 548.275C50.9603 548.14 50.7324 547.939 50.5664 547.689C50.4004 547.44 50.3019 547.152 50.2808 546.854C50.2596 546.555 50.3164 546.256 50.4457 545.986C50.5749 545.716 50.7721 545.484 51.018 545.313C51.2638 545.142 51.5499 545.038 51.8481 545.011C52.1463 544.984 52.4464 545.035 52.719 545.158C52.9916 545.282 53.2274 545.475 53.4031 545.717C53.5789 545.96 53.6886 546.244 53.7216 546.541C53.7562 546.856 53.9146 547.144 54.1618 547.343C54.409 547.541 54.7248 547.633 55.0397 547.598C55.3547 547.563 55.6429 547.405 55.8411 547.158C56.0393 546.911 56.1312 546.595 56.0966 546.28C56.0283 545.707 55.8396 545.154 55.5428 544.659C55.2461 544.164 54.848 543.737 54.3747 543.406C54.015 543.143 53.6136 542.942 53.1872 542.812C53.1872 542.498 53.0621 542.196 52.8394 541.973C52.6167 541.75 52.3147 541.625 51.9997 541.625C51.6848 541.625 51.3827 541.75 51.16 541.973C50.9373 542.196 50.8122 542.498 50.8122 542.812C49.864 543.091 49.0484 543.703 48.5158 544.536C47.9833 545.368 47.7696 546.365 47.9142 547.343C48.0589 548.32 48.552 549.213 49.3028 549.856C50.0536 550.498 51.0114 550.848 51.9997 550.84C52.0531 550.84 52.1303 550.84 52.8547 550.775C52.9919 550.772 53.1274 550.806 53.2473 550.873C53.3672 550.939 53.4674 551.037 53.5375 551.155C53.7138 551.501 53.7721 551.895 53.7038 552.277C53.6289 552.658 53.428 553.004 53.1333 553.257C52.8386 553.511 52.4672 553.658 52.0789 553.675C51.6905 553.692 51.3076 553.578 50.9918 553.352C50.6759 553.125 50.4454 552.799 50.3372 552.425C50.2382 552.138 50.0326 551.899 49.7629 551.759C49.4931 551.618 49.1798 551.587 48.8874 551.67C48.5951 551.754 48.346 551.947 48.1915 552.209C48.0371 552.471 47.989 552.782 48.0572 553.078C48.2401 553.741 48.5892 554.345 49.0713 554.835C49.5535 555.324 50.1528 555.682 50.8122 555.875C50.8122 556.19 50.9373 556.492 51.16 556.715C51.3827 556.937 51.6848 557.062 51.9997 557.062C52.3147 557.062 52.6167 556.937 52.8394 556.715C53.0621 556.492 53.1872 556.19 53.1872 555.875C53.7652 555.703 54.2983 555.406 54.7485 555.005C55.1986 554.604 55.5549 554.109 55.7919 553.554C56.0288 553 56.1407 552.4 56.1195 551.798C56.0982 551.195 55.9445 550.605 55.6691 550.068C55.3963 549.554 54.9858 549.125 54.4836 548.831C53.9814 548.536 53.4071 548.387 52.825 548.4Z" fill="#52B141"/>
</g>
<rect y="369" width="105" height="105" rx="12" fill="white"/>
<g clip-path="url(#clip1_47_113436)">
<path d="M37.75 417.438H40.7188C40.7883 418.814 41.0769 420.171 41.5737 421.457L43.4619 426.848C44.2689 429.154 44.6804 431.579 44.6791 434.021V438.812C44.6791 439.127 44.8042 439.429 45.0269 439.652C45.2496 439.875 45.5516 440 45.8666 440H58.745C59.0599 440 59.362 439.875 59.5847 439.652C59.8074 439.429 59.9325 439.127 59.9325 438.812V432.923H63.0616C64.0784 432.921 65.053 432.516 65.772 431.797C66.491 431.078 66.8956 430.104 66.8972 429.087V425.958H69.4622C69.672 425.961 69.8789 425.908 70.0618 425.805C70.2446 425.702 70.3969 425.552 70.5031 425.371C70.6093 425.19 70.6656 424.984 70.6663 424.774C70.6671 424.565 70.6121 424.358 70.5072 424.177L66.8972 417.503V417.307C66.894 414.281 65.6907 411.38 63.5513 409.241C61.4118 407.101 58.511 405.898 55.4853 405.895H53.7041C53.504 404.802 52.9268 403.813 52.073 403.101C51.2192 402.39 50.1428 402 49.0312 402H37.75C36.4902 402 35.282 402.5 34.3912 403.391C33.5004 404.282 33 405.49 33 406.75V412.688C33 413.947 33.5004 415.155 34.3912 416.046C35.282 416.937 36.4902 417.438 37.75 417.438ZM64.5222 417.307V417.8C64.5222 417.997 64.5712 418.19 64.6647 418.364L67.4731 423.583H65.6919C65.3769 423.583 65.0749 423.708 64.8522 423.931C64.6295 424.153 64.5044 424.455 64.5044 424.77V429.087C64.5044 429.474 64.3505 429.846 64.0766 430.12C63.8026 430.394 63.4311 430.548 63.0437 430.548H58.745C58.4301 430.548 58.128 430.673 57.9053 430.895C57.6826 431.118 57.5575 431.42 57.5575 431.735V437.625H47.0659V434.021C47.0688 431.312 46.6131 428.622 45.7181 426.065L43.8181 420.644C43.4111 419.619 43.1667 418.537 43.0938 417.438H43.7706L48.1762 421.837C48.2881 421.95 48.4214 422.039 48.5683 422.099C48.7151 422.159 48.8726 422.189 49.0312 422.188C49.1879 422.187 49.3431 422.157 49.4884 422.098C49.7051 422.008 49.8901 421.855 50.0201 421.66C50.1501 421.464 50.2192 421.235 50.2188 421V417.289C51.2388 417.026 52.1423 416.431 52.7872 415.598C53.4321 414.765 53.7818 413.741 53.7812 412.688V408.27H55.4853C57.8811 408.273 60.1778 409.226 61.8719 410.92C63.5659 412.614 64.519 414.911 64.5222 417.307ZM35.375 406.75C35.375 406.12 35.6252 405.516 36.0706 405.071C36.516 404.625 37.1201 404.375 37.75 404.375H49.0312C49.6611 404.375 50.2652 404.625 50.7106 405.071C51.156 405.516 51.4062 406.12 51.4062 406.75V412.688C51.4062 413.317 51.156 413.921 50.7106 414.367C50.2652 414.812 49.6611 415.062 49.0312 415.062C48.7163 415.062 48.4143 415.188 48.1916 415.41C47.9689 415.633 47.8438 415.935 47.8438 416.25V418.132L45.1184 415.413C44.8968 415.19 44.5957 415.064 44.2812 415.062H37.75C37.1201 415.062 36.516 414.812 36.0706 414.367C35.6252 413.921 35.375 413.317 35.375 412.688V406.75Z" fill="#ACACAC"/>
<path d="M38.0469 411.016C38.7027 411.016 39.2344 410.484 39.2344 409.828C39.2344 409.172 38.7027 408.641 38.0469 408.641C37.391 408.641 36.8594 409.172 36.8594 409.828C36.8594 410.484 37.391 411.016 38.0469 411.016Z" fill="#ACACAC"/>
<path d="M41.6094 411.016C42.2652 411.016 42.7969 410.484 42.7969 409.828C42.7969 409.172 42.2652 408.641 41.6094 408.641C40.9535 408.641 40.4219 409.172 40.4219 409.828C40.4219 410.484 40.9535 411.016 41.6094 411.016Z" fill="#ACACAC"/>
<path d="M45.1719 411.016C45.8277 411.016 46.3594 410.484 46.3594 409.828C46.3594 409.172 45.8277 408.641 45.1719 408.641C44.516 408.641 43.9844 409.172 43.9844 409.828C43.9844 410.484 44.516 411.016 45.1719 411.016Z" fill="#ACACAC"/>
<path d="M48.7344 411.016C49.3902 411.016 49.9219 410.484 49.9219 409.828C49.9219 409.172 49.3902 408.641 48.7344 408.641C48.0785 408.641 47.5469 409.172 47.5469 409.828C47.5469 410.484 48.0785 411.016 48.7344 411.016Z" fill="#ACACAC"/>
</g>
<rect y="246" width="105" height="105" rx="12" fill="white"/>
<g clip-path="url(#clip2_47_113436)">
<path d="M52 279C48.2422 279 44.5687 280.114 41.4442 282.202C38.3196 284.29 35.8844 287.257 34.4463 290.729C33.0082 294.201 32.632 298.021 33.3651 301.707C34.0982 305.392 35.9078 308.778 38.565 311.435C41.2222 314.092 44.6077 315.902 48.2933 316.635C51.9789 317.368 55.7992 316.992 59.271 315.554C62.7428 314.116 65.7102 311.68 67.7979 308.556C69.8857 305.431 71 301.758 71 298C71 292.961 68.9982 288.128 65.435 284.565C61.8718 281.002 57.0391 279 52 279V279ZM66.4222 289.747L53.1875 296.112V281.422C55.907 281.618 58.5365 282.48 60.8445 283.932C63.1524 285.383 65.0679 287.38 66.4222 289.747ZM35.375 298C35.3763 293.797 36.9693 289.751 39.8335 286.675C42.6977 283.599 46.6205 281.723 50.8125 281.422V297.573L40.5169 310.006C38.8915 308.457 37.5977 306.594 36.7138 304.531C35.83 302.467 35.3745 300.245 35.375 298ZM52 314.625C48.5357 314.629 45.158 313.543 42.3456 311.52L52.7481 298.956L67.4375 291.884C68.4343 294.404 68.8001 297.129 68.503 299.822C68.206 302.516 67.2551 305.096 65.7332 307.338C64.2113 309.579 62.1645 311.415 59.7709 312.686C57.3774 313.956 54.7097 314.621 52 314.625Z" fill="#ACACAC"/>
</g>
<rect y="123" width="105" height="105" rx="12" fill="white"/>
<g clip-path="url(#clip3_47_113436)">
<path d="M45.2729 193C45.3897 193.104 45.5259 193.184 45.6736 193.235C45.8214 193.286 45.9779 193.308 46.134 193.298C46.2901 193.289 46.4429 193.249 46.5835 193.18C46.724 193.112 46.8497 193.016 46.9532 192.899L52.0001 187.211L57.0469 192.899C57.1504 193.016 57.2761 193.112 57.4166 193.18C57.5572 193.249 57.71 193.289 57.8661 193.298C58.0222 193.308 58.1787 193.286 58.3265 193.235C58.4743 193.184 58.6105 193.104 58.7272 193C58.8445 192.896 58.9402 192.77 59.0088 192.63C59.0774 192.489 59.1175 192.337 59.1269 192.18C59.1363 192.024 59.1147 191.868 59.0634 191.72C59.0122 191.572 58.9322 191.436 58.8282 191.319L54.4463 186.391C54.7612 186.382 55.0595 186.248 55.2756 186.018C55.4916 185.789 55.6076 185.483 55.5982 185.168C55.5887 184.853 55.4546 184.555 55.2252 184.339C54.9958 184.123 54.69 184.007 54.3751 184.016H49.6251C49.3101 184.007 49.0043 184.123 48.7749 184.339C48.5455 184.555 48.4114 184.853 48.4019 185.168C48.3925 185.483 48.5085 185.789 48.7245 186.018C48.9406 186.248 49.2389 186.382 49.5538 186.391L45.1719 191.319C45.0679 191.436 44.9879 191.572 44.9367 191.72C44.8854 191.868 44.8639 192.024 44.8732 192.18C44.8826 192.337 44.9227 192.489 44.9913 192.63C45.0599 192.77 45.1556 192.896 45.2729 193Z" fill="#ACACAC"/>
<path d="M69.8125 156.703H34.1875C33.8726 156.703 33.5705 156.828 33.3478 157.051C33.1251 157.274 33 157.576 33 157.891C33 158.206 33.1251 158.508 33.3478 158.73C33.5705 158.953 33.8726 159.078 34.1875 159.078V179.859C34.1875 180.804 34.5628 181.71 35.2309 182.378C35.899 183.047 36.8052 183.422 37.75 183.422H66.25C67.1948 183.422 68.101 183.047 68.7691 182.378C69.4372 181.71 69.8125 180.804 69.8125 179.859V159.078C70.1274 159.078 70.4295 158.953 70.6522 158.73C70.8749 158.508 71 158.206 71 157.891C71 157.576 70.8749 157.274 70.6522 157.051C70.4295 156.828 70.1274 156.703 69.8125 156.703ZM67.4375 179.859C67.4375 180.174 67.3124 180.476 67.0897 180.699C66.867 180.922 66.5649 181.047 66.25 181.047H37.75C37.4351 181.047 37.133 180.922 36.9103 180.699C36.6876 180.476 36.5625 180.174 36.5625 179.859V159.078H67.4375V179.859Z" fill="#ACACAC"/>
<path d="M41.3539 177.968C41.9477 177.969 42.5321 177.82 43.0527 177.535C43.5732 177.249 44.0129 176.836 44.3306 176.334C44.6484 175.833 44.834 175.259 44.87 174.666C44.9059 174.073 44.7912 173.481 44.5364 172.945L46.9768 170.505C47.4468 170.726 47.9595 170.841 48.4789 170.843C49.2195 170.844 49.941 170.609 50.5393 170.172L52.9143 171.775C52.8353 172.066 52.7954 172.365 52.7955 172.666C52.7871 173.222 52.9107 173.773 53.1562 174.272C53.4017 174.772 53.762 175.206 54.2076 175.539C54.6533 175.872 55.1716 176.095 55.72 176.189C56.2684 176.283 56.8314 176.246 57.3627 176.081C57.894 175.915 58.3785 175.626 58.7766 175.238C59.1746 174.849 59.4748 174.371 59.6525 173.844C59.8303 173.316 59.8805 172.754 59.7991 172.204C59.7177 171.654 59.507 171.13 59.1843 170.677L61.7493 167.114C62.0676 167.207 62.3973 167.255 62.7289 167.257C63.5173 167.258 64.2832 166.995 64.9046 166.51C65.5259 166.025 65.9668 165.345 66.1568 164.58C66.3468 163.815 66.275 163.008 65.9529 162.289C65.6308 161.569 65.0769 160.979 64.3797 160.611C63.6825 160.243 62.8821 160.119 62.1064 160.259C61.3306 160.4 60.6242 160.796 60.1 161.385C59.5757 161.973 59.2638 162.721 59.2141 163.507C59.1643 164.294 59.3796 165.075 59.8255 165.725L57.2605 169.288C56.7482 169.136 56.2079 169.105 55.6816 169.196C55.1553 169.288 54.6573 169.5 54.2264 169.816L51.8811 168.213C51.9601 167.923 52 167.623 51.9999 167.322C51.9999 166.388 51.6289 165.493 50.9686 164.833C50.3083 164.172 49.4128 163.801 48.4789 163.801C47.5451 163.801 46.6496 164.172 45.9893 164.833C45.329 165.493 44.958 166.388 44.958 167.322C44.9578 167.843 45.0756 168.356 45.3024 168.824L42.8561 171.271C42.3878 171.044 41.8743 170.926 41.3539 170.926C40.4201 170.926 39.5246 171.297 38.8643 171.958C38.204 172.618 37.833 173.513 37.833 174.447C37.833 175.381 38.204 176.277 38.8643 176.937C39.5246 177.597 40.4201 177.968 41.3539 177.968ZM62.7289 162.614C62.9556 162.614 63.1771 162.681 63.3656 162.807C63.554 162.933 63.7009 163.112 63.7877 163.321C63.8744 163.531 63.8971 163.761 63.8529 163.983C63.8086 164.206 63.6995 164.41 63.5392 164.57C63.379 164.73 63.1748 164.839 62.9525 164.884C62.7302 164.928 62.4998 164.905 62.2904 164.818C62.081 164.732 61.9021 164.585 61.7761 164.396C61.6502 164.208 61.583 163.986 61.583 163.76C61.5846 163.456 61.7058 163.166 61.9204 162.951C62.1349 162.737 62.4255 162.615 62.7289 162.614ZM56.9458 171.74C57.1649 171.9 57.3197 172.133 57.3823 172.397C57.4449 172.661 57.4113 172.939 57.2874 173.18C57.1636 173.422 56.9577 173.611 56.7067 173.714C56.4558 173.818 56.1762 173.828 55.9183 173.743C55.6604 173.659 55.4411 173.485 55.2998 173.254C55.1585 173.022 55.1045 172.747 55.1474 172.479C55.1904 172.212 55.3275 171.968 55.5342 171.792C55.7409 171.616 56.0035 171.52 56.2749 171.52C56.5164 171.519 56.7518 171.596 56.9458 171.74ZM48.4789 166.176C48.7824 166.178 49.073 166.299 49.2875 166.514C49.5021 166.728 49.6233 167.019 49.6249 167.322C49.6257 167.551 49.5574 167.774 49.4289 167.963C49.3189 168.129 49.1679 168.262 48.9906 168.352C48.8134 168.441 48.616 168.483 48.4178 168.473C48.2196 168.463 48.0274 168.401 47.86 168.295C47.6926 168.188 47.5557 168.04 47.4627 167.865C47.3698 167.689 47.324 167.493 47.3298 167.295C47.3356 167.096 47.3929 166.903 47.4959 166.733C47.5989 166.564 47.7442 166.424 47.9176 166.327C48.091 166.23 48.2864 166.181 48.4849 166.182L48.4789 166.176ZM41.3539 173.301C41.5806 173.301 41.8021 173.368 41.9906 173.494C42.179 173.62 42.3259 173.799 42.4127 174.009C42.4994 174.218 42.5221 174.448 42.4779 174.671C42.4336 174.893 42.3245 175.097 42.1642 175.257C42.004 175.418 41.7998 175.527 41.5775 175.571C41.3552 175.615 41.1248 175.593 40.9154 175.506C40.706 175.419 40.5271 175.272 40.4011 175.084C40.2752 174.895 40.208 174.674 40.208 174.447C40.2096 174.144 40.3308 173.853 40.5454 173.639C40.7599 173.424 41.0505 173.303 41.3539 173.301Z" fill="#ACACAC"/>
</g>
<rect width="105" height="105" rx="12" fill="white"/>
<g clip-path="url(#clip4_47_113436)">
<path d="M68.4375 36.6719H37.5625C36.6177 36.6719 35.7115 37.0472 35.0434 37.7153C34.3753 38.3834 34 39.2895 34 40.2344V61.0156C34 61.9605 34.3753 62.8666 35.0434 63.5347C35.7115 64.2028 36.6177 64.5781 37.5625 64.5781H47.0625V66.9531H45.5781C45.2632 66.9531 44.9611 67.0782 44.7384 67.3009C44.5157 67.5236 44.3906 67.8257 44.3906 68.1406C44.3906 68.4556 44.5157 68.7576 44.7384 68.9803C44.9611 69.203 45.2632 69.3281 45.5781 69.3281H60.4219C60.7368 69.3281 61.0389 69.203 61.2616 68.9803C61.4843 68.7576 61.6094 68.4556 61.6094 68.1406C61.6094 67.8257 61.4843 67.5236 61.2616 67.3009C61.0389 67.0782 60.7368 66.9531 60.4219 66.9531H58.9375V64.5781H68.4375C69.3823 64.5781 70.2885 64.2028 70.9566 63.5347C71.6247 62.8666 72 61.9605 72 61.0156V40.2344C72 39.2895 71.6247 38.3834 70.9566 37.7153C70.2885 37.0472 69.3823 36.6719 68.4375 36.6719ZM56.5625 66.9531H49.4375V64.5781H56.5625V66.9531ZM69.625 61.0156C69.625 61.3306 69.4999 61.6326 69.2772 61.8553C69.0545 62.078 68.7524 62.2031 68.4375 62.2031H37.5625C37.2476 62.2031 36.9455 62.078 36.7228 61.8553C36.5001 61.6326 36.375 61.3306 36.375 61.0156V40.2344C36.375 39.9194 36.5001 39.6174 36.7228 39.3947C36.9455 39.172 37.2476 39.0469 37.5625 39.0469H68.4375C68.7524 39.0469 69.0545 39.172 69.2772 39.3947C69.4999 39.6174 69.625 39.9194 69.625 40.2344V61.0156Z" fill="#ACACAC"/>
<path d="M47.0625 41.125C45.1836 41.125 43.3469 41.6822 41.7846 42.726C40.2223 43.7699 39.0047 45.2536 38.2856 46.9895C37.5666 48.7254 37.3785 50.6355 37.745 52.4784C38.1116 54.3212 39.0164 56.0139 40.345 57.3425C41.6736 58.6711 43.3663 59.5759 45.2091 59.9425C47.052 60.309 48.9621 60.1209 50.698 59.4019C52.4339 58.6828 53.9176 57.4652 54.9615 55.9029C56.0053 54.3406 56.5625 52.5039 56.5625 50.625C56.5625 48.1054 55.5616 45.6891 53.78 43.9075C51.9984 42.1259 49.5821 41.125 47.0625 41.125ZM39.9375 50.625C39.9392 48.9425 40.5363 47.3148 41.623 46.0303C42.7098 44.7458 44.216 43.8873 45.875 43.6069V50.1381L41.2616 54.7516C40.3985 53.5489 39.9353 52.1053 39.9375 50.625ZM47.0625 57.75C45.5842 57.751 44.1429 57.2878 42.9419 56.4259L47.8997 51.4622C48.1227 51.2405 48.2487 50.9394 48.25 50.625V43.6069C50.0027 43.9137 51.5771 44.8653 52.6637 46.2744C53.7502 47.6835 54.2701 49.4481 54.1213 51.2213C53.9724 52.9944 53.1654 54.6476 51.8592 55.8558C50.5529 57.064 48.8418 57.7397 47.0625 57.75Z" fill="#ACACAC"/>
<path d="M63.735 49.1159C63.302 49.1064 62.8698 49.0727 62.4406 49.015C62.2253 48.8962 62.0511 48.715 61.9408 48.4952C61.8306 48.2755 61.7895 48.0275 61.8229 47.7839C61.8563 47.5403 61.9627 47.3126 62.1281 47.1306C62.2934 46.9487 62.51 46.8211 62.7493 46.7647C62.932 46.7218 63.122 46.7209 63.3051 46.762C63.4881 46.8031 63.6595 46.8853 63.8062 47.0022C63.9537 47.1128 64.0734 47.2562 64.1558 47.4211C64.2383 47.586 64.2812 47.7678 64.2812 47.9522C64.2812 48.2671 64.4063 48.5692 64.629 48.7919C64.8517 49.0146 65.1538 49.1397 65.4687 49.1397C65.7837 49.1397 66.0857 49.0146 66.3084 48.7919C66.5311 48.5692 66.6562 48.2671 66.6562 47.9522C66.6587 47.414 66.5393 46.8823 66.3069 46.3969C66.0745 45.9115 65.7352 45.4851 65.3143 45.1497C64.9811 44.8861 64.6029 44.685 64.1981 44.5559C64.1245 44.3116 63.9742 44.0975 63.7694 43.9453C63.5646 43.7931 63.3162 43.7109 63.0611 43.7109C62.8059 43.7109 62.5575 43.7931 62.3527 43.9453C62.1479 44.0975 61.9976 44.3116 61.924 44.5559C61.2391 44.7682 60.6341 45.1822 60.1883 45.7438C59.7424 46.3055 59.4765 46.9886 59.4252 47.7038C59.3738 48.4191 59.5396 49.1332 59.9006 49.7527C60.2617 50.3722 60.8014 50.8684 61.449 51.1762C61.6034 51.2534 62.0428 51.4612 63.735 51.5028C63.8149 51.4982 63.8946 51.5143 63.9664 51.5497C64.0382 51.5851 64.0996 51.6385 64.1446 51.7047C64.2653 51.9513 64.3048 52.2298 64.2575 52.5003C64.2134 52.7308 64.1037 52.9437 63.9415 53.1133C63.7792 53.2829 63.5714 53.402 63.3431 53.4562C63.1701 53.496 62.9907 53.4985 62.8167 53.4637C62.6427 53.4289 62.4781 53.3576 62.3337 53.2543C62.1943 53.156 62.077 53.0297 61.989 52.8836C61.9011 52.7374 61.8446 52.5745 61.8231 52.4053C61.7908 52.0903 61.6347 51.8011 61.3892 51.6013C61.1437 51.4014 60.8288 51.3072 60.5139 51.3395C60.1989 51.3718 59.9097 51.5279 59.7098 51.7734C59.5099 52.0189 59.4158 52.3338 59.4481 52.6487C59.5255 53.3342 59.7984 53.983 60.2343 54.5178C60.6701 55.0526 61.2504 55.4508 61.9062 55.665C61.9781 55.9116 62.1282 56.1283 62.3337 56.2825C62.5393 56.4366 62.7893 56.52 63.0462 56.52C63.3029 56.5183 63.5521 56.4335 63.7566 56.2783C63.961 56.1231 64.1097 55.9058 64.1803 55.659C64.7871 55.4555 65.328 55.0923 65.7459 54.6075C66.1638 54.1227 66.4434 53.5343 66.5553 52.904C66.6975 52.1294 66.585 51.3295 66.2346 50.624C65.9952 50.1685 65.6357 49.7872 65.1951 49.5214C64.7545 49.2555 64.2496 49.1153 63.735 49.1159Z" fill="#ACACAC"/>
</g>
<defs>
<clipPath id="clip0_47_113436">
<rect width="38" height="38" fill="white" transform="translate(33 525)"/>
</clipPath>
<clipPath id="clip1_47_113436">
<rect width="38" height="38" fill="white" transform="translate(33 402)"/>
</clipPath>
<clipPath id="clip2_47_113436">
<rect width="38" height="38" fill="white" transform="translate(33 279)"/>
</clipPath>
<clipPath id="clip3_47_113436">
<rect width="38" height="38" fill="white" transform="translate(33 156)"/>
</clipPath>
<clipPath id="clip4_47_113436">
<rect width="38" height="38" fill="white" transform="translate(34 34)"/>
</clipPath>
</defs>
</svg>
