<svg width="30" height="30" viewBox="0 0 30 30" fill="none" xmlns="http://www.w3.org/2000/svg">
<path d="M12.906 5.3962C13.4384 3.20127 16.5608 3.20127 17.0933 5.3962C17.1732 5.72593 17.3298 6.03215 17.5504 6.28992C17.771 6.54768 18.0494 6.74972 18.3628 6.87958C18.6763 7.00944 19.016 7.06346 19.3542 7.03723C19.6925 7.011 20.0198 6.90528 20.3095 6.72865C22.2381 5.55369 24.4468 7.76112 23.2719 9.69106C23.0955 9.98062 22.9899 10.3077 22.9638 10.6457C22.9376 10.9838 22.9916 11.3232 23.1213 11.6365C23.251 11.9497 23.4528 12.2279 23.7103 12.4485C23.9677 12.6691 24.2736 12.8258 24.6031 12.906C26.798 13.4384 26.798 16.5608 24.6031 17.0933C24.2733 17.1732 23.9671 17.3298 23.7094 17.5504C23.4516 17.771 23.2495 18.0494 23.1197 18.3628C22.9898 18.6763 22.9358 19.016 22.962 19.3542C22.9883 19.6925 23.094 20.0198 23.2706 20.3095C24.4456 22.2381 22.2381 24.4468 20.3082 23.2719C20.0187 23.0955 19.6916 22.9899 19.3535 22.9638C19.0155 22.9376 18.6761 22.9916 18.3628 23.1213C18.0495 23.251 17.7713 23.4528 17.5507 23.7103C17.3302 23.9677 17.1734 24.2736 17.0933 24.6031C16.5608 26.798 13.4384 26.798 12.906 24.6031C12.8261 24.2733 12.6694 23.9671 12.4488 23.7094C12.2282 23.4516 11.9499 23.2495 11.6364 23.1197C11.323 22.9898 10.9833 22.9358 10.645 22.962C10.3068 22.9883 9.97949 23.094 9.68981 23.2706C7.76112 24.4456 5.55244 22.2381 6.7274 20.3082C6.90377 20.0187 7.00933 19.6916 7.0355 19.3535C7.06166 19.0155 7.0077 18.6761 6.87799 18.3628C6.74828 18.0495 6.54648 17.7713 6.28901 17.5507C6.03153 17.3302 5.72564 17.1734 5.3962 17.0933C3.20127 16.5608 3.20127 13.4384 5.3962 12.906C5.72593 12.8261 6.03215 12.6694 6.28992 12.4488C6.54768 12.2282 6.74972 11.9499 6.87958 11.6364C7.00944 11.323 7.06346 10.9833 7.03723 10.645C7.011 10.3068 6.90528 9.97949 6.72865 9.68981C5.55369 7.76112 7.76112 5.55244 9.69106 6.7274C10.936 7.48738 12.561 6.8149 12.906 5.3962Z" stroke="white" stroke-width="2" stroke-linecap="round" stroke-linejoin="round"/>
<path d="M18.7498 14.9999C18.7498 15.9944 18.3547 16.9482 17.6514 17.6514C16.9482 18.3547 15.9944 18.7498 14.9999 18.7498C14.0053 18.7498 13.0516 18.3547 12.3483 17.6514C11.6451 16.9482 11.25 15.9944 11.25 14.9999C11.25 14.0053 11.6451 13.0516 12.3483 12.3483C13.0516 11.6451 14.0053 11.25 14.9999 11.25C15.9944 11.25 16.9482 11.6451 17.6514 12.3483C18.3547 13.0516 18.7498 14.0053 18.7498 14.9999V14.9999Z" stroke="white" stroke-width="2" stroke-linecap="round" stroke-linejoin="round"/>
</svg>
