<svg width="85" height="85" viewBox="0 0 85 85" fill="none" xmlns="http://www.w3.org/2000/svg">
<path d="M25.8696 59.1305H59.1305" stroke="#213A52" stroke-width="2.95652" stroke-linecap="round" stroke-linejoin="round"/>
<path d="M27.3476 33.2609C27.3476 32.4445 26.6858 31.7827 25.8694 31.7827C25.0529 31.7827 24.3911 32.4445 24.3911 33.2609H27.3476ZM38.4346 33.2609C38.4346 32.4445 37.7728 31.7827 36.9563 31.7827C36.1399 31.7827 35.4781 32.4445 35.4781 33.2609H38.4346ZM38.4346 35.1087C38.4346 34.2923 37.7728 33.6305 36.9563 33.6305C36.1399 33.6305 35.4781 34.2923 35.4781 35.1087H38.4346ZM49.5215 33.2609C49.5215 32.4445 48.8597 31.7827 48.0433 31.7827C47.2268 31.7827 46.565 32.4445 46.565 33.2609H49.5215ZM49.5215 35.1087C49.5215 34.2923 48.8597 33.6305 48.0433 33.6305C47.2268 33.6305 46.565 34.2923 46.565 35.1087H49.5215ZM59.1302 33.2609H60.6085C60.6085 32.4445 59.9467 31.7827 59.1302 31.7827V33.2609ZM25.8694 33.2609L24.5471 32.5998C24.3181 33.058 24.3426 33.6023 24.6119 34.0381C24.8812 34.4739 25.357 34.7392 25.8694 34.7392V33.2609ZM29.565 25.8696V24.3914C29.0051 24.3914 28.4932 24.7077 28.2428 25.2085L29.565 25.8696ZM55.4346 25.8696L56.7568 25.2085C56.5064 24.7077 55.9945 24.3914 55.4346 24.3914V25.8696ZM57.808 33.922C58.1731 34.6523 59.0611 34.9482 59.7913 34.5832C60.5216 34.218 60.8175 33.33 60.4525 32.5998L57.808 33.922ZM24.3911 33.2609V35.1087H27.3476V33.2609H24.3911ZM24.3911 35.1087C24.3911 38.9867 27.5349 42.1305 31.4129 42.1305V39.174C29.1677 39.174 27.3476 37.3539 27.3476 35.1087H24.3911ZM31.4129 42.1305C35.2908 42.1305 38.4346 38.9867 38.4346 35.1087H35.4781C35.4781 37.3539 33.658 39.174 31.4129 39.174V42.1305ZM38.4346 35.1087V33.2609H35.4781V35.1087H38.4346ZM35.4781 35.1087C35.4781 38.9867 38.6218 42.1305 42.4998 42.1305V39.174C40.2546 39.174 38.4346 37.3539 38.4346 35.1087H35.4781ZM42.4998 42.1305C46.3778 42.1305 49.5215 38.9867 49.5215 35.1087H46.565C46.565 37.3539 44.745 39.174 42.4998 39.174V42.1305ZM49.5215 35.1087V33.2609H46.565V35.1087H49.5215ZM46.565 35.1087C46.565 38.9867 49.7088 42.1305 53.5868 42.1305V39.174C51.3416 39.174 49.5215 37.3539 49.5215 35.1087H46.565ZM53.5868 42.1305C57.4648 42.1305 60.6085 38.9867 60.6085 35.1087H57.652C57.652 37.3539 55.832 39.174 53.5868 39.174V42.1305ZM60.6085 35.1087V33.2609H57.652V35.1087H60.6085ZM59.1302 31.7827H25.8694V34.7392H59.1302V31.7827ZM27.1916 33.922L30.8873 26.5307L28.2428 25.2085L24.5471 32.5998L27.1916 33.922ZM29.565 27.3479H55.4346V24.3914H29.565V27.3479ZM54.1124 26.5307L57.808 33.922L60.4525 32.5998L56.7568 25.2085L54.1124 26.5307Z" fill="#213A52"/>
<path d="M29.5654 59.1304V40.375" stroke="#213A52" stroke-width="2.95652" stroke-linecap="round" stroke-linejoin="round"/>
<path d="M55.4346 59.1304V40.375" stroke="#213A52" stroke-width="2.95652" stroke-linecap="round" stroke-linejoin="round"/>
<path d="M36.9565 59.1304V51.7391C36.9565 49.6981 38.6112 48.0435 40.6522 48.0435H44.3478C46.3889 48.0435 48.0435 49.6981 48.0435 51.7391V59.1304" stroke="#213A52" stroke-width="2.95652" stroke-linecap="round" stroke-linejoin="round"/>
</svg>
