<svg width="96" height="27" viewBox="0 0 96 27" fill="none" xmlns="http://www.w3.org/2000/svg">
<g clip-path="url(#clip0_47_91552)">
<path d="M83.3961 16.78H87.4247V4.69433H83.3961V16.78ZM74.9123 0.648702H86.3492C87.9425 0.648702 89.2825 0.753055 90.3692 0.960917C91.4558 1.16929 92.3551 1.44694 93.0663 1.79388C93.7775 2.14065 94.3236 2.54273 94.7051 2.99958C95.0863 3.45644 95.368 3.93656 95.5501 4.43977C95.7319 4.94249 95.8373 5.45161 95.8659 5.96628C95.8941 6.48097 95.9085 6.96968 95.9085 7.43227V14.0422C95.9085 14.505 95.8941 14.9937 95.8659 15.5084C95.8373 16.023 95.7319 16.5288 95.5501 17.0261C95.368 17.5236 95.0863 18.0039 94.7051 18.4662C94.3236 18.929 93.7775 19.3339 93.0663 19.6806C92.3551 20.0278 91.4558 20.305 90.3692 20.5137C89.2825 20.7215 87.9425 20.8256 86.3492 20.8256H83.3961V25.5732H74.9123V0.648702ZM62.3497 21.5446H58.3211V4.6773H62.3497V21.5446ZM70.7483 5.45397C70.6912 4.93607 70.5491 4.42123 70.3216 3.90907C70.0936 3.39693 69.7523 2.90484 69.2973 2.43247C68.8422 1.96044 68.2219 1.54488 67.4366 1.18648C66.6514 0.827905 65.6699 0.540642 64.4921 0.324351C63.3142 0.108398 61.8888 0 60.216 0C58.5542 0 57.1459 0.108398 55.9911 0.324351C54.836 0.540642 53.8744 0.827905 53.1062 1.18648C52.3381 1.54488 51.7347 1.96044 51.2968 2.43247C50.8587 2.90484 50.5312 3.39693 50.3153 3.90907C50.0991 4.42123 49.9653 4.93607 49.9141 5.45397C49.8628 5.97202 49.8373 6.45854 49.8373 6.91337V19.2231C49.8373 19.6782 49.8628 20.1677 49.9141 20.6911C49.9653 21.2145 50.0991 21.7352 50.3153 22.253C50.5312 22.7708 50.8587 23.2686 51.2968 23.7467C51.7347 24.2246 52.3381 24.6457 53.1062 25.0098C53.8744 25.374 54.8389 25.6672 55.9996 25.8889C57.1604 26.1108 58.5659 26.2217 60.216 26.2217C61.8888 26.2217 63.3142 26.1108 64.4921 25.8889C65.6699 25.6672 66.6514 25.374 67.4366 25.0098C68.2219 24.6457 68.8422 24.2246 69.2973 23.7467C69.7523 23.2686 70.0936 22.7708 70.3216 22.253C70.5491 21.7352 70.6912 21.2145 70.7483 20.6911C70.8053 20.1677 70.8336 19.6782 70.8336 19.2231V6.91337C70.8336 6.45854 70.8053 5.97202 70.7483 5.45397ZM37.3424 12.8368H33.3138V4.69433H37.3424V12.8368ZM44.5375 15.8007C44.1677 15.432 43.7694 15.1653 43.3426 15.0008C42.9159 14.8362 42.5204 14.7368 42.1562 14.7027C42.9416 14.5655 43.5757 14.3135 44.0595 13.9466C44.5432 13.5801 44.9156 13.1392 45.1776 12.6232C45.4394 12.1076 45.6128 11.5317 45.6984 10.8958C45.7836 10.2599 45.8263 9.60394 45.8263 8.92776C45.8263 8.21078 45.8093 7.50527 45.7751 6.81105C45.741 6.11716 45.6326 5.46256 45.4507 4.84791C45.2687 4.23343 44.9785 3.6702 44.5801 3.15804C44.1816 2.6459 43.6157 2.20488 42.8817 1.83501C42.1477 1.46548 41.2146 1.17535 40.0822 0.964456C38.9497 0.753897 37.5584 0.648702 35.9085 0.648702H24.8299V25.5732H33.3138V16.8825H37.3424V25.5732H45.8263V19.5872C45.8263 18.6568 45.7039 17.8859 45.4593 17.2727C45.2143 16.6601 44.9072 16.1693 44.5375 15.8007ZM12.5125 21.5276H8.48389V4.69433H12.5125V21.5276ZM20.9537 5.88065C20.9252 5.37456 20.8229 4.87353 20.6464 4.37858C20.4697 3.88345 20.1882 3.41143 19.8015 2.96165C19.4146 2.5122 18.8684 2.11671 18.1627 1.77533C17.457 1.43396 16.5608 1.16085 15.4741 0.956027C14.3873 0.751199 13.0474 0.648702 11.4542 0.648702H0V25.5732H11.4542C13.0474 25.5732 14.3873 25.4707 15.4741 25.2659C16.5608 25.0611 17.457 24.7851 18.1627 24.438C18.8684 24.0908 19.4146 23.6925 19.8015 23.2431C20.1882 22.7936 20.4697 22.3184 20.6464 21.8177C20.8229 21.317 20.9252 20.8135 20.9537 20.3071C20.9819 19.8006 20.9964 19.3198 20.9964 18.8645V7.3232C20.9964 6.86819 20.9819 6.38707 20.9537 5.88065Z" fill="#16204F"/>
</g>
<defs>
<clipPath id="clip0_47_91552">
<rect width="96" height="26.2905" fill="white"/>
</clipPath>
</defs>
</svg>
