<svg width="16" height="16" viewBox="0 0 16 16" fill="none" xmlns="http://www.w3.org/2000/svg">
<path d="M9.59378 1.59337C9.90977 1.27738 10.2849 1.02672 10.6978 0.855711C11.1106 0.684699 11.5531 0.59668 12 0.59668C12.4469 0.59668 12.8894 0.684699 13.3022 0.855711C13.7151 1.02672 14.0902 1.27738 14.4062 1.59337C14.7222 1.90936 14.9729 2.28449 15.1439 2.69735C15.3149 3.11021 15.4029 3.55272 15.4029 3.99959C15.4029 4.44647 15.3149 4.88897 15.1439 5.30183C14.9729 5.71469 14.7222 6.08982 14.4062 6.40581L5.07289 15.7391C4.90623 15.9059 4.68017 15.9995 4.44444 15.9996H0.888889C0.653141 15.9996 0.427049 15.9059 0.26035 15.7392C0.0936505 15.5725 0 15.3465 0 15.1107V11.5551C5.03444e-05 11.3194 0.0937339 11.0934 0.260444 10.9267L9.59378 1.59337ZM1.77778 14.2218H4.07644L13.1493 5.14893C13.4434 4.84192 13.6056 4.43193 13.601 4.00682C13.5964 3.58171 13.4255 3.1753 13.1249 2.87468C12.8243 2.57407 12.4179 2.40316 11.9928 2.3986C11.5677 2.39403 11.1577 2.55617 10.8507 2.85026L1.77778 11.9231V14.2218Z" fill="white"/>
<path d="M8.70483 2.48291C8.87153 2.31627 9.09758 2.22266 9.33328 2.22266C9.56898 2.22266 9.79503 2.31627 9.96172 2.48291L13.5173 6.03847C13.6792 6.20611 13.7688 6.43065 13.7668 6.66371C13.7647 6.89678 13.6713 7.11972 13.5065 7.28453C13.3416 7.44933 13.1187 7.54282 12.8856 7.54484C12.6526 7.54687 12.428 7.45727 12.2604 7.29536L8.70483 3.7398C8.53819 3.57311 8.44458 3.34706 8.44458 3.11136C8.44458 2.87565 8.53819 2.6496 8.70483 2.48291Z" fill="white"/>
</svg>
