<svg width="64" height="64" viewBox="0 0 64 64" fill="none" xmlns="http://www.w3.org/2000/svg">
<path d="M45.3357 41.3286L41.8191 40.0765L40.8382 36.1739L42.633 34.0034C43.2635 33.2395 43.61 32.2809 43.6139 31.2904C43.6138 30.8209 43.5326 30.3549 43.3739 29.913L40.6817 22.2121C40.4675 21.6108 40.036 21.1114 39.4721 20.8121C38.9083 20.5128 38.2529 20.4353 37.6348 20.5948L34.2748 21.44C33.6533 21.5917 33.1109 21.97 32.7538 22.5008C32.3967 23.0317 32.2507 23.6767 32.3443 24.3095L33.5861 32.3235C33.7026 33.0448 34.0015 33.7244 34.4544 34.2979C34.9073 34.8713 35.4991 35.3195 36.1739 35.6L38.793 36.6435L39.7843 40.5878L37.6974 43.5513C37.4838 43.8414 37.3561 44.1858 37.329 44.5451C37.3019 44.9044 37.3763 45.264 37.544 45.5829C37.7116 45.9018 37.9656 46.1672 38.2769 46.3485C38.5882 46.53 38.9442 46.6201 39.3043 46.6086C39.4878 46.6101 39.6704 46.5855 39.847 46.5356L45.2522 45.0017C45.6367 44.8772 45.9734 44.637 46.2162 44.3138C46.459 43.9907 46.5961 43.6005 46.6087 43.1965C46.6246 42.7898 46.5095 42.3888 46.2803 42.0526C46.0511 41.7163 45.72 41.4625 45.3357 41.3286ZM38.1357 22.6086H38.2609C38.3566 22.6057 38.4509 22.6335 38.5297 22.6879C38.6086 22.7424 38.668 22.8206 38.6991 22.9113L39.8782 26.2504C38.841 26.3124 37.8054 26.1058 36.8713 25.6506C35.9373 25.1955 35.1364 24.5072 34.5461 23.6521C34.6118 23.5882 34.6899 23.5385 34.7757 23.506L38.1357 22.6086ZM35.6522 31.9999L34.8487 26.8348C35.546 27.3402 36.3215 27.728 37.1443 27.9826C37.9319 28.2256 38.7515 28.3488 39.5757 28.3478C39.9249 28.342 40.2734 28.3142 40.6191 28.2643L41.433 30.5599C41.5121 30.7881 41.5509 31.0282 41.5478 31.2695C41.5473 31.7732 41.3701 32.2606 41.0469 32.6469L39.3982 34.64L37.0087 33.6695C36.6559 33.5349 36.3447 33.3097 36.1066 33.0167C35.8684 32.7235 35.7117 32.3729 35.6522 31.9999ZM39.6487 44.4069L41.2974 42.1008L44.1565 43.1443L39.6487 44.4069Z" fill="#213A52"/>
<path d="M29.7148 18.3092L26.3444 17.464C25.7262 17.302 25.0698 17.3785 24.5053 17.678C23.9409 17.9777 23.5097 18.4786 23.2975 19.0814L20.6053 26.7823C20.4422 27.2338 20.3609 27.7109 20.3653 28.1909C20.3708 29.1812 20.7172 30.1392 21.3461 30.904L23.1514 33.0431L22.16 36.9666L18.6436 38.1979C18.2613 38.3325 17.9328 38.5871 17.707 38.9237C17.4814 39.2604 17.3706 39.661 17.3914 40.0657C17.4034 40.4762 17.5467 40.872 17.8002 41.1951C18.0538 41.5181 18.4042 41.7513 18.8 41.8605L24.2053 43.4049C24.365 43.4499 24.5298 43.4744 24.6957 43.4779C25.0041 43.4787 25.308 43.404 25.5808 43.2603C25.8537 43.1166 26.0871 42.9083 26.2609 42.6536C26.4966 42.3329 26.6237 41.9454 26.6237 41.5475C26.6237 41.1496 26.4966 40.762 26.2609 40.4414L24.174 37.4779L25.2175 33.5336L27.8262 32.4901C28.5048 32.2125 29.101 31.7655 29.5577 31.1919C30.0144 30.6183 30.3164 29.9371 30.4349 29.2136L31.6766 21.1996C31.7773 20.5589 31.6307 19.9038 31.2664 19.3671C30.9022 18.8304 30.3475 18.4523 29.7148 18.3092ZM25.7392 19.4779H25.8644L29.2244 20.3231C29.3125 20.3452 29.3922 20.3924 29.454 20.4588C28.6732 21.5857 27.5441 22.4252 26.2401 22.8483C25.5639 23.0514 24.8585 23.1396 24.1531 23.1092L25.2696 19.7701C25.3069 19.6779 25.3725 19.6 25.4568 19.5475C25.5413 19.495 25.6401 19.4706 25.7392 19.4779ZM19.8227 39.9927L22.6818 38.9492L24.3305 41.2553L19.8227 39.9927ZM27.0018 30.5283L24.6018 31.4988L22.9531 29.5162C22.63 29.1299 22.4527 28.6424 22.4522 28.1388C22.4664 27.8921 22.5192 27.6491 22.6088 27.4188L23.4227 25.1336C23.7685 25.1829 24.1169 25.2108 24.4662 25.2171C25.2903 25.218 26.11 25.0949 26.8974 24.8518C27.7203 24.5973 28.4958 24.2095 29.1931 23.704L28.327 28.8692C28.2748 29.239 28.1243 29.5881 27.8912 29.8799C27.6581 30.1718 27.351 30.3957 27.0018 30.5283Z" fill="#213A52"/>
</svg>
