<svg width="60" height="62" viewBox="0 0 60 62" fill="none" xmlns="http://www.w3.org/2000/svg">
<path d="M33.3189 12.043L6.04485 26.319C5.6351 26.5335 5.32735 26.9021 5.18933 27.3436C5.0513 27.785 5.0943 28.2632 5.30885 28.673L21.3109 59.243C21.5254 59.6525 21.8938 59.96 22.335 60.098C22.7762 60.236 23.2542 60.1932 23.6639 59.979L50.9379 45.703C51.1408 45.5968 51.3209 45.4517 51.4678 45.276C51.6147 45.1002 51.7255 44.8972 51.794 44.6786C51.8624 44.46 51.8871 44.2301 51.8667 44.002C51.8462 43.7738 51.7811 43.5519 51.6749 43.349L35.6729 12.779C35.4583 12.3692 35.0897 12.0615 34.6483 11.9235C34.2068 11.7854 33.7286 11.8284 33.3189 12.043Z" stroke="#213A52" stroke-width="3.6" stroke-miterlimit="10"/>
<path d="M30.4672 19.9899L14.2192 28.4939C13.9864 28.6157 13.7798 28.7821 13.6113 28.9837C13.4429 29.1853 13.3158 29.4181 13.2373 29.6689C13.1588 29.9196 13.1305 30.1833 13.154 30.445C13.1775 30.7067 13.2523 30.9612 13.3742 31.1939L21.2322 46.2059C21.354 46.4387 21.5205 46.6451 21.7221 46.8135C21.9238 46.9818 22.1566 47.1089 22.4073 47.1872C22.6581 47.2656 22.9218 47.2938 23.1834 47.2703C23.445 47.2467 23.6995 47.1718 23.9322 47.0499L40.1802 38.5449C40.4129 38.4231 40.6194 38.2566 40.7877 38.055C40.9561 37.8533 41.0831 37.6205 41.1615 37.3698C41.2399 37.119 41.2681 36.8553 41.2445 36.5937C41.221 36.332 41.1461 36.0776 41.0242 35.8449L33.1662 20.8339C33.0444 20.6011 32.878 20.3946 32.6764 20.2261C32.4748 20.0576 32.242 19.9305 31.9912 19.852C31.7405 19.7736 31.4768 19.7453 31.2151 19.7688C30.9534 19.7922 30.6989 19.8671 30.4662 19.9889L30.4672 19.9899Z" stroke="#213A52" stroke-width="3.6" stroke-miterlimit="10"/>
<path d="M16.7201 20.843L15.4901 8.23803C15.4586 7.87923 15.5703 7.52254 15.8007 7.24569C16.0311 6.96884 16.3615 6.79427 16.7201 6.76003L48.1561 4.00503C48.5149 3.97416 48.8713 4.08632 49.1478 4.31708C49.4242 4.54784 49.5983 4.8785 49.6321 5.23703L52.7021 40.37C52.7329 40.729 52.6206 41.0856 52.3897 41.3621C52.1587 41.6385 51.8278 41.8125 51.4691 41.846L50.1551 41.963" stroke="#213A52" stroke-width="3.6" stroke-miterlimit="10"/>
</svg>
