<svg width="23" height="23" viewBox="0 0 23 23" fill="none" xmlns="http://www.w3.org/2000/svg">
<path d="M22.9525 7.64126L22.6324 4.62612C22.1687 1.33885 20.6561 0 17.4212 0H14.8156H13.1816H9.82536H8.19136H5.54163C2.29571 0 0.794188 1.33885 0.319444 4.65877L0.0213496 7.65215C-0.0890559 8.81684 0.231121 9.94888 0.926675 10.8306C1.76576 11.9082 3.0575 12.5177 4.49277 12.5177C5.88388 12.5177 7.21979 11.832 8.05887 10.7326C8.80963 11.832 10.0903 12.5177 11.5145 12.5177C12.9388 12.5177 14.1863 11.8646 14.9481 10.7761C15.7983 11.8537 17.1121 12.5177 18.4811 12.5177C19.9495 12.5177 21.2744 11.8755 22.1024 10.7435C22.7648 9.87268 23.0629 8.7733 22.9525 7.64126Z" fill="#15161E"/>
<path d="M10.7971 16.774C9.39495 16.9155 8.33506 18.0911 8.33506 19.4843V22.4668C8.33506 22.7607 8.57795 23.0002 8.87604 23.0002H14.1424C14.4405 23.0002 14.6834 22.7607 14.6834 22.4668V19.8653C14.6944 17.5903 13.3364 16.5127 10.7971 16.774Z" fill="#15161E"/>
<path d="M21.8593 14.3134V17.5571C21.8593 20.5613 19.3863 22.9996 16.3391 22.9996C16.041 22.9996 15.7981 22.7601 15.7981 22.4662V19.8647C15.7981 18.4714 15.3675 17.3829 14.5284 16.6428C13.7887 15.9788 12.784 15.6522 11.5364 15.6522C11.2604 15.6522 10.9844 15.6631 10.6863 15.6958C8.72108 15.8917 7.23061 17.5244 7.23061 19.4837V22.4662C7.23061 22.7601 6.98772 22.9996 6.68962 22.9996C3.64243 22.9996 1.16935 20.5613 1.16935 17.5571V14.3351C1.16935 13.5732 1.93114 13.0616 2.64878 13.3119C2.94688 13.4099 3.24497 13.4861 3.55411 13.5296C3.68659 13.5514 3.83012 13.5732 3.96261 13.5732C4.13925 13.595 4.3159 13.6058 4.49255 13.6058C5.77326 13.6058 7.03188 13.1378 8.02553 12.3323C8.97502 13.1378 10.2116 13.6058 11.5143 13.6058C12.8282 13.6058 14.0426 13.1596 14.9921 12.3541C15.9858 13.1487 17.2223 13.6058 18.4809 13.6058C18.6797 13.6058 18.8784 13.595 19.0661 13.5732C19.1986 13.5623 19.32 13.5514 19.4415 13.5296C19.7837 13.4861 20.0929 13.3881 20.402 13.2902C21.1196 13.0507 21.8593 13.5732 21.8593 14.3134Z" fill="#15161E"/>
</svg>
