<svg width="27" height="26" viewBox="0 0 27 26" fill="none" xmlns="http://www.w3.org/2000/svg">
<path fill-rule="evenodd" clip-rule="evenodd" d="M0.984142 25.9937H6.88047C7.42399 25.9937 7.86461 25.5531 7.86461 25.0096V17.0052C7.86461 16.4617 7.42399 16.0211 6.88047 16.0211H0.984142C0.440615 16.0211 0 16.4617 0 17.0052V25.0096C0 25.5531 0.440615 25.9937 0.984142 25.9937ZM5.89632 24.0254H1.96828V17.9894H5.89632V24.0254Z" fill="white"/>
<path fill-rule="evenodd" clip-rule="evenodd" d="M10.2391 25.9966H16.1354C16.679 25.9966 17.1196 25.556 17.1196 25.0125V13.538C17.1196 12.9945 16.679 12.5539 16.1354 12.5539H10.2391C9.69558 12.5539 9.25497 12.9945 9.25497 13.538V25.0125C9.25497 25.556 9.69558 25.9966 10.2391 25.9966ZM15.1513 24.0283H11.2233V14.5222H15.1513V24.0283Z" fill="white"/>
<path fill-rule="evenodd" clip-rule="evenodd" d="M19.496 25.9972H25.3917C25.9352 25.9972 26.3758 25.5566 26.3758 25.013V9.57776C26.3758 9.03423 25.9352 8.59362 25.3917 8.59362H19.496C18.9525 8.59362 18.5119 9.03423 18.5119 9.57776V25.013C18.5119 25.5566 18.9525 25.9972 19.496 25.9972ZM24.4076 24.0289H20.4802V10.5619H24.4076V24.0289Z" fill="white"/>
<path d="M19.614 6.57058C19.2716 6.57035 18.9539 6.39215 18.7752 6.10005C18.5965 5.80796 18.5824 5.44397 18.7381 5.13898L19.8443 2.96731L17.6733 1.86179C17.3594 1.70252 17.1544 1.38772 17.1358 1.03621C17.1172 0.684693 17.2877 0.35 17.583 0.158457C17.8784 -0.0330853 18.2535 -0.0523071 18.5669 0.108047L21.6151 1.66102C22.0991 1.9079 22.2914 2.50025 22.0448 2.98437L20.4919 6.03258C20.3239 6.36289 19.9846 6.57082 19.614 6.57058Z" fill="white"/>
<path d="M2.93551 9.44764C2.45115 9.44789 2.03863 9.09567 1.96296 8.61726C1.88728 8.13886 2.17095 7.67651 2.63174 7.52725L20.5523 1.70441C21.067 1.54332 21.6155 1.82656 21.7822 2.33952C21.9489 2.85248 21.6716 3.40402 21.1605 3.57625L3.23994 9.39844C3.14168 9.43073 3.03894 9.44734 2.93551 9.44764Z" fill="white"/>
</svg>
