<svg width="32" height="32" viewBox="0 0 32 32" fill="none" xmlns="http://www.w3.org/2000/svg">
<path d="M15.7324 25.5731C16.4982 25.5731 17.119 24.9523 17.119 24.1865C17.119 23.4206 16.4982 22.7998 15.7324 22.7998C14.9665 22.7998 14.3457 23.4206 14.3457 24.1865C14.3457 24.9523 14.9665 25.5731 15.7324 25.5731Z" fill="#FF9F24"/>
<path d="M20.0131 20.5602C18.9865 19.3335 17.4665 18.5469 15.7331 18.5469C13.9998 18.5469 12.4798 19.3335 11.4531 20.5602" stroke="#FF9F24" stroke-width="1.2" stroke-miterlimit="10" stroke-linecap="round" stroke-linejoin="round"/>
<path d="M23.2799 16.2664C21.4665 14.1331 18.7599 12.7598 15.7332 12.7598C12.7065 12.7598 9.99986 14.1198 8.18652 16.2664" stroke="#FF9F24" stroke-width="1.2" stroke-miterlimit="10" stroke-linecap="round" stroke-linejoin="round"/>
<path d="M26.6665 12.5468C24.0398 9.44013 20.1198 7.4668 15.7331 7.4668C11.3465 7.4668 7.42647 9.44013 4.7998 12.5468" stroke="#FF9F24" stroke-width="1.2" stroke-miterlimit="10" stroke-linecap="round" stroke-linejoin="round"/>
</svg>
