<svg width="67" height="113" viewBox="0 0 67 113" fill="none" xmlns="http://www.w3.org/2000/svg">
<g clip-path="url(#clip0_47_71973)">
<path d="M19.3832 32.5262H33.1024C36.4398 32.5262 40.8409 32.5262 43.1139 33.906C45.6061 35.3895 47.563 38.0878 47.563 41.8025C47.563 45.8263 45.4481 48.8476 41.9464 50.2755V50.3855C46.6086 51.3399 49.1496 54.8353 49.1496 59.4975C49.1496 65.0591 45.1738 70.3603 37.6546 70.3603H19.3832V32.5262ZM24.4095 48.7857H34.4829C40.2025 48.7857 42.5368 46.7188 42.5368 42.7431C42.5368 37.4975 38.829 36.7554 34.4829 36.7554H24.4095V48.7857ZM24.4095 66.1096H37.0232C41.363 66.1096 44.1233 63.4593 44.1233 59.3325C44.1233 54.4023 40.1475 53.0295 35.9107 53.0295H24.4095V66.1096ZM33.2465 22.6791C17.3581 22.6791 4.47636 35.5608 4.47636 51.4493C4.47636 67.3384 17.3581 80.2201 33.2465 80.2201C49.1426 80.2201 62.0243 67.3384 62.0243 51.4493C62.0243 35.5608 49.1426 22.686 33.2465 22.6791ZM66.3913 51.429C66.3913 69.7283 51.5527 84.5662 33.2465 84.5662C14.948 84.5662 0.109349 69.7283 0.109349 51.429C0.109349 33.1298 14.948 18.2912 33.2465 18.2912C51.5527 18.2912 66.3913 33.1298 66.3913 51.429ZM66.3237 95.9101H0.179509V91.5639H66.3237V95.9101ZM64.2568 86.7779C64.339 86.7779 64.4148 86.7709 64.49 86.7709C64.5589 86.764 64.6278 86.75 64.6822 86.7298C64.7441 86.702 64.7852 86.6609 64.82 86.6129C64.8541 86.5579 64.868 86.489 64.868 86.3999C64.868 86.3247 64.8541 86.2558 64.8269 86.2147C64.7991 86.1666 64.758 86.1325 64.71 86.1117C64.662 86.0845 64.6139 86.0706 64.545 86.0567C64.4831 86.0497 64.4287 86.0497 64.3598 86.0497H63.8858V86.7848H64.2568V86.7779ZM64.4148 85.7545C64.6891 85.7545 64.8882 85.8095 65.026 85.9195C65.1562 86.0295 65.2251 86.1938 65.2251 86.4207C65.2251 86.6337 65.1632 86.7779 65.0532 86.8809C64.9363 86.977 64.7922 87.032 64.6139 87.0522L65.2732 88.0686H64.8882L64.2568 87.073H63.8788V88.0686H63.5154V85.7615H64.4148V85.7545ZM62.7872 87.5673C62.8631 87.7734 62.9794 87.9586 63.1304 88.1096C63.2745 88.2607 63.4465 88.3776 63.6456 88.4668C63.8377 88.5489 64.0577 88.5907 64.284 88.5907C64.5178 88.5907 64.7309 88.5489 64.923 88.4668C65.1221 88.3776 65.2934 88.2607 65.4375 88.1096C65.5823 87.9586 65.6986 87.7803 65.7744 87.5673C65.8566 87.3613 65.9046 87.1413 65.9046 86.9011C65.9046 86.6609 65.8635 86.441 65.7744 86.2349C65.6916 86.0295 65.5753 85.8506 65.4375 85.6995C65.2864 85.5485 65.1152 85.4315 64.923 85.3494C64.7309 85.2672 64.5109 85.2192 64.284 85.2192C64.0577 85.2192 63.8377 85.2672 63.6456 85.3494C63.4465 85.4385 63.2682 85.5554 63.1304 85.6995C62.9794 85.8506 62.87 86.0295 62.7872 86.2349C62.705 86.441 62.664 86.654 62.664 86.9011C62.664 87.1413 62.705 87.3682 62.7872 87.5673ZM62.4649 86.1186C62.5679 85.8784 62.712 85.6793 62.8902 85.5004C63.0691 85.3222 63.2815 85.1913 63.5223 85.0883C63.7625 84.9853 64.0236 84.9373 64.284 84.9373C64.5589 84.9373 64.813 84.9853 65.0602 85.0883C65.2934 85.1913 65.5064 85.3222 65.6783 85.5004C65.8566 85.6793 66.0076 85.8847 66.1037 86.1186C66.2137 86.3588 66.2617 86.6198 66.2617 86.9011C66.2617 87.183 66.2137 87.4434 66.1037 87.6843C66.0007 87.9314 65.8566 88.1375 65.6783 88.3157C65.4995 88.5009 65.2934 88.6317 65.0602 88.7348C64.813 88.8308 64.5589 88.8789 64.284 88.8789C64.0166 88.8789 63.7625 88.8308 63.5223 88.7348C63.2815 88.6317 63.0691 88.5009 62.8902 88.3157C62.712 88.1375 62.5679 87.9314 62.4649 87.6843C62.3549 87.4434 62.3138 87.183 62.3138 86.9011C62.3068 86.6268 62.3479 86.3588 62.4649 86.1186ZM8.1917 3.72061C8.03368 3.46652 7.84153 3.24656 7.60829 3.06136C7.37442 2.86921 7.10706 2.72509 6.81188 2.61511C6.51607 2.51208 6.20698 2.45709 5.88462 2.45709C5.29426 2.45709 4.79303 2.57403 4.37396 2.80031C3.96185 3.02723 3.62559 3.33631 3.37149 3.72061C3.1174 4.10491 2.92525 4.54421 2.80831 5.03912C2.69138 5.52645 2.63007 6.03464 2.63007 6.56306C2.63007 7.06429 2.68506 7.55225 2.80831 8.02568C2.92525 8.49973 3.11044 8.92512 3.37149 9.31006C3.62559 9.68741 3.96185 9.99649 4.37396 10.2234C4.78608 10.4497 5.28731 10.5666 5.88462 10.5666C6.68799 10.5666 7.31943 10.3195 7.76631 9.83152C8.21888 9.33724 8.49383 8.69189 8.59686 7.88852H11.1441C11.0759 8.6369 10.9039 9.31006 10.6227 9.91432C10.3408 10.5186 9.97731 11.0331 9.51716 11.4522C9.05701 11.8782 8.52101 12.2005 7.91043 12.4275C7.29921 12.6468 6.61909 12.7637 5.88462 12.7637C4.97127 12.7637 4.14705 12.6057 3.41258 12.2833C2.6781 11.9673 2.06689 11.528 1.5587 10.9648C1.05746 10.4086 0.67316 9.74935 0.40516 8.99402C0.13716 8.24564 0 7.43532 0 6.56306C0 5.67057 0.13716 4.84002 0.40516 4.07078C0.67316 3.3085 1.05746 2.63534 1.5587 2.07279C2.05993 1.50266 2.6781 1.05641 3.41258 0.733424C4.14073 0.411065 4.96432 0.246094 5.88462 0.246094C6.54388 0.246094 7.16837 0.342169 7.75241 0.527367C8.33581 0.72015 8.86486 0.994471 9.32438 1.35855C9.78453 1.72262 10.1695 2.16887 10.4716 2.70424C10.7737 3.2396 10.9659 3.85777 11.0411 4.54421H8.49383C8.45275 4.24903 8.34972 3.97471 8.1917 3.72061ZM14.5719 10.4149C14.929 10.7581 15.4441 10.9364 16.1097 10.9364C16.5907 10.9364 17.0022 10.8201 17.353 10.5793C17.6962 10.3391 17.9086 10.085 17.9914 9.81761H20.0855C19.7492 10.8542 19.2341 11.6026 18.5407 12.0488C17.8473 12.4951 17.0092 12.722 16.0275 12.722C15.3474 12.722 14.7299 12.612 14.1876 12.3921C13.6377 12.1727 13.1775 11.8636 12.7932 11.4654C12.4159 11.0672 12.1207 10.5862 11.9146 10.023C11.7086 9.46744 11.6055 8.84927 11.6055 8.18307C11.6055 7.53772 11.7086 6.93345 11.9216 6.37723C12.134 5.821 12.4361 5.33367 12.828 4.92851C13.2192 4.52335 13.6857 4.20036 14.2287 3.96712C14.771 3.73389 15.3683 3.61695 16.0275 3.61695C16.762 3.61695 17.4074 3.76107 17.9566 4.04234C18.5059 4.3312 18.9528 4.70855 19.303 5.18956C19.6531 5.66993 19.9072 6.21921 20.0652 6.83042C20.2226 7.44164 20.2776 8.08699 20.2296 8.76015H13.9815C14.0226 9.50853 14.2147 10.0717 14.5719 10.4149ZM17.2632 5.85513C16.975 5.54668 16.5427 5.38866 15.9656 5.38866C15.5882 5.38866 15.2722 5.44997 15.0181 5.58081C14.764 5.71102 14.5649 5.86904 14.4138 6.05424C14.2628 6.24702 14.1598 6.44612 14.0978 6.6585C14.0359 6.87151 14.0017 7.05734 13.9878 7.22863H17.8536C17.7443 6.62437 17.5452 6.17117 17.2632 5.85513ZM23.5644 3.83059V5.43733H23.5985C23.7085 5.16933 23.8596 4.92219 24.0517 4.68895C24.2439 4.46267 24.4569 4.26293 24.704 4.10555C24.9512 3.94753 25.2122 3.81669 25.4935 3.72757C25.7748 3.63844 26.0636 3.59736 26.3658 3.59736C26.5238 3.59736 26.6951 3.62454 26.8872 3.67953V5.89053C26.7779 5.86967 26.6401 5.84944 26.4821 5.83554C26.3247 5.82163 26.1736 5.80836 26.0289 5.80836C25.5965 5.80836 25.2255 5.88358 24.9234 6.02769C24.6212 6.1718 24.381 6.37154 24.1958 6.62563C24.0107 6.87909 23.8798 7.16795 23.8046 7.50422C23.7287 7.84048 23.6877 8.20456 23.6877 8.59581V12.5033H21.3117V3.83059H23.5644ZM33.2554 3.82996V5.42342H31.5109V9.71458C31.5109 10.1197 31.5798 10.3877 31.71 10.518C31.8408 10.6488 32.1151 10.7171 32.5133 10.7171C32.6511 10.7171 32.7744 10.7101 32.8983 10.7032C33.0215 10.6899 33.1385 10.676 33.2484 10.6551V12.4957C33.0493 12.5298 32.8224 12.5507 32.5753 12.564C32.3281 12.5779 32.0879 12.5848 31.8541 12.5848C31.4837 12.5848 31.1335 12.5577 30.8105 12.5096C30.4812 12.461 30.193 12.3649 29.9389 12.2138C29.6848 12.0697 29.492 11.8636 29.3409 11.5963C29.1968 11.3283 29.1216 10.9781 29.1216 10.5388V5.42342H27.6798V3.82996H29.1216V1.23466H31.4976V3.82996H33.2554ZM34.6339 2.49123V0.527367H37.0099V2.49123H34.6339ZM37.0169 3.82996V12.4888H34.6409V3.82996H37.0169ZM37.9587 5.42279V3.82996H39.3796V3.1568C39.3796 2.3882 39.6204 1.75612 40.1008 1.26184C40.5818 0.767556 41.3093 0.527367 42.2776 0.527367C42.4906 0.527367 42.703 0.53432 42.916 0.554547C43.129 0.568452 43.3351 0.589311 43.5342 0.595631V2.37429C43.2592 2.34016 42.971 2.32625 42.6689 2.32625C42.3459 2.32625 42.1127 2.40147 41.9755 2.55254C41.8383 2.7036 41.7694 2.9577 41.7694 3.31482V3.83691H43.4103V5.42975H41.7694V12.5027H39.3865V5.42279H37.9587ZM45.0183 2.49123V0.527367H47.3937V2.49123H45.0183ZM47.3937 3.82996V12.4888H45.0183V3.82996H47.3937ZM51.1482 10.4149C51.5053 10.7581 52.0204 10.9364 52.686 10.9364C53.167 10.9364 53.5791 10.8201 53.9293 10.5793C54.2725 10.3391 54.4855 10.085 54.5677 9.81761H56.6618C56.3255 10.8542 55.8104 11.6026 55.1239 12.0488C54.4305 12.4951 53.5924 12.722 52.6108 12.722C51.9307 12.722 51.3132 12.612 50.7702 12.3921C50.2209 12.1727 49.7614 11.8636 49.3765 11.4654C48.9991 11.0672 48.7039 10.5862 48.4979 10.023C48.2918 9.46744 48.1888 8.84927 48.1888 8.18307C48.1888 7.53772 48.2988 6.93345 48.5048 6.37723C48.7172 5.821 49.0193 5.33367 49.4106 4.92851C49.8025 4.52335 50.269 4.20036 50.8119 3.96712C51.3542 3.73389 51.9515 3.61695 52.6108 3.61695C53.3453 3.61695 53.9906 3.76107 54.5399 4.04234C55.0892 4.3312 55.536 4.70855 55.8862 5.18956C56.2364 5.66993 56.4905 6.21921 56.6479 6.83042C56.8059 7.44164 56.8609 8.08699 56.8198 8.76015H50.5711C50.592 9.50853 50.7911 10.0717 51.1482 10.4149ZM53.8332 5.85513C53.5513 5.54668 53.112 5.38866 52.535 5.38866C52.1576 5.38866 51.8416 5.44997 51.5875 5.58081C51.3334 5.71102 51.1343 5.86904 50.9832 6.05424C50.8321 6.24702 50.7291 6.44612 50.6672 6.6585C50.6059 6.87151 50.5711 7.05734 50.5578 7.22863H54.4236C54.3206 6.62437 54.1215 6.17117 53.8332 5.85513ZM64.0305 11.3833C63.7492 11.8504 63.3852 12.1936 62.932 12.3996C62.4788 12.6051 61.9706 12.7081 61.4004 12.7081C60.7551 12.7081 60.1856 12.5848 59.6907 12.3307C59.1964 12.0767 58.7912 11.7404 58.4758 11.3074C58.1598 10.8751 57.9196 10.3808 57.7546 9.82457C57.5897 9.26834 57.5144 8.68493 57.5144 8.08067C57.5144 7.49663 57.5966 6.9404 57.7546 6.39808C57.9127 5.85576 58.1598 5.38171 58.4758 4.96327C58.7912 4.55116 59.1964 4.21426 59.6705 3.96712C60.1508 3.71303 60.7071 3.58977 61.3455 3.58977C61.8606 3.58977 62.3486 3.69975 62.8081 3.91908C63.2752 4.13905 63.6393 4.45508 63.9066 4.88047H63.9414V0.527367H66.3167V12.4888H64.0646V11.3833H64.0305ZM63.9275 7.10538C63.8586 6.77543 63.7492 6.48721 63.5843 6.23311C63.4193 5.97902 63.2132 5.77991 62.9522 5.6219C62.6987 5.46451 62.3688 5.38866 61.9845 5.38866C61.5996 5.38866 61.2633 5.46451 60.9953 5.6219C60.7279 5.77991 60.5149 5.98597 60.3499 6.24007C60.1919 6.49416 60.0756 6.78934 59.9998 7.11928C59.9245 7.44859 59.8898 7.79181 59.8898 8.14893C59.8898 8.4852 59.9315 8.82209 60.0067 9.15141C60.0826 9.4883 60.2128 9.78348 60.3847 10.0508C60.556 10.3119 60.776 10.5249 61.037 10.6899C61.2974 10.8542 61.6135 10.9301 61.9845 10.9301C62.3757 10.9301 62.6987 10.8542 62.9661 10.6962C63.2271 10.5388 63.4402 10.3328 63.5982 10.0648C63.7556 9.80371 63.8655 9.50157 63.9344 9.17226C64.0033 8.836 64.0375 8.49215 64.0375 8.13503C64.0375 7.77854 63.9964 7.43469 63.9275 7.10538ZM5.9807 104.451C5.86376 103.613 5.0604 102.975 4.14073 102.975C2.479 102.975 1.85388 104.389 1.85388 105.866C1.85388 107.267 2.479 108.681 4.14073 108.681C5.27341 108.681 5.9118 107.905 6.04959 106.793H7.84848C7.65633 108.894 6.20698 110.24 4.14073 110.24C1.53152 110.24 0 108.289 0 105.866C0 103.366 1.53152 101.416 4.14073 101.416C5.9946 101.416 7.54635 102.501 7.77263 104.451H5.9807ZM11.713 103.779C13.6351 103.779 14.8715 105.049 14.8715 106.999C14.8715 108.935 13.6351 110.206 11.713 110.206C9.80412 110.206 8.56083 108.929 8.56083 106.999C8.56083 105.049 9.79717 103.779 11.713 103.779ZM11.713 108.942C12.8596 108.942 13.1958 107.961 13.1958 106.999C13.1958 106.017 12.8526 105.042 11.713 105.042C10.5797 105.042 10.2365 106.024 10.2365 106.999C10.2365 107.968 10.5797 108.942 11.713 108.942ZM15.9087 103.93H17.5022V105.063H17.5294C17.8315 104.294 18.6627 103.765 19.4793 103.765C19.5962 103.765 19.7403 103.786 19.8434 103.82V105.379C19.6854 105.344 19.4382 105.324 19.2391 105.324C18.0104 105.324 17.5843 106.209 17.5843 107.28V110.027H15.9087V103.93ZM22.0822 103.944V104.719H22.103C22.5013 104.074 23.1605 103.779 23.9158 103.779C25.8317 103.779 26.69 105.324 26.69 107.054C26.69 108.681 25.7975 110.206 24.0119 110.206C23.2844 110.206 22.5841 109.89 22.1852 109.285H22.158V112.19H20.4824V103.944H22.0822ZM25.0213 107.013C25.0213 106.045 24.6301 105.042 23.5587 105.042C22.4602 105.042 22.11 106.024 22.11 107.013C22.11 108.002 22.4873 108.949 23.5726 108.949C24.6642 108.942 25.0213 108.002 25.0213 107.013ZM30.3693 103.779C32.2921 103.779 33.5348 105.049 33.5348 106.999C33.5348 108.935 32.2921 110.206 30.3693 110.206C28.4605 110.206 27.2241 108.929 27.2241 106.999C27.2241 105.049 28.4605 103.779 30.3693 103.779ZM30.3693 108.942C31.5159 108.942 31.8591 107.961 31.8591 106.999C31.8591 106.017 31.5159 105.042 30.3693 105.042C29.236 105.042 28.8928 106.024 28.8928 106.999C28.8928 107.968 29.236 108.942 30.3693 108.942ZM36.1572 103.93V105.063H36.1851C36.4872 104.294 37.3177 103.765 38.1281 103.765C38.245 103.765 38.3891 103.786 38.4921 103.82V105.379C38.3411 105.344 38.0939 105.324 37.8879 105.324C36.6585 105.324 36.2331 106.209 36.2331 107.28V110.027H34.5575V103.93H36.1572ZM38.9883 105.818C39.0844 104.246 40.4851 103.779 41.8586 103.779C43.074 103.779 44.5367 104.047 44.5367 105.509V108.681C44.5367 109.237 44.5917 109.787 44.749 110.041H43.0462C42.9912 109.849 42.9363 109.65 42.9293 109.45C42.4009 110.007 41.6247 110.206 40.8763 110.206C39.7228 110.206 38.8031 109.629 38.8031 108.379C38.8031 106.999 39.8397 106.669 40.8763 106.525C41.9066 106.374 42.861 106.409 42.861 105.722C42.861 105.001 42.3598 104.898 41.7758 104.898C41.1374 104.898 40.7253 105.159 40.6639 105.818H38.9883ZM42.861 107.054C42.5728 107.301 41.9888 107.315 41.4673 107.411C40.9452 107.514 40.4781 107.693 40.4781 108.311C40.4781 108.935 40.9591 109.086 41.5084 109.086C42.813 109.086 42.868 108.05 42.868 107.686V107.054H42.861ZM47.9202 103.943H49.1489V105.063H47.9202V108.084C47.9202 108.653 48.0643 108.791 48.6275 108.791C48.8057 108.791 48.9707 108.777 49.1489 108.743V110.055C48.8677 110.103 48.4966 110.116 48.1673 110.116C47.144 110.116 46.2445 109.876 46.2445 108.667V105.069H45.2282V103.95H46.2445V102.123H47.9202V103.943ZM52.0811 103.003H50.4055V101.623H52.0811V103.003ZM50.4055 103.944H52.0811V110.041H50.4055V103.944ZM56.359 103.779C58.2818 103.779 59.5244 105.049 59.5244 106.999C59.5244 108.935 58.2818 110.206 56.359 110.206C54.4501 110.206 53.2144 108.929 53.2144 106.999C53.2075 105.049 54.4501 103.779 56.359 103.779ZM56.359 108.942C57.5062 108.942 57.8494 107.961 57.8494 106.999C57.8494 106.017 57.5062 105.042 56.359 105.042C55.2263 105.042 54.8831 106.024 54.8831 106.999C54.8831 107.968 55.2263 108.942 56.359 108.942ZM62.1956 103.944V104.795H62.2304C62.6558 104.108 63.3839 103.779 64.0975 103.779C65.8762 103.779 66.3294 104.781 66.3294 106.292V110.041H64.6537V106.594C64.6537 105.592 64.3586 105.097 63.583 105.097C62.6697 105.097 62.2847 105.605 62.2847 106.848V110.048H60.6097V103.944H62.1956Z" fill="white"/>
</g>
<defs>
<clipPath id="clip0_47_71973">
<rect width="67" height="113" fill="white"/>
</clipPath>
</defs>
</svg>
