<svg width="1280" height="585" viewBox="0 0 1280 585" fill="none" xmlns="http://www.w3.org/2000/svg">
<rect x="24" width="295.988" height="166.488" rx="12" fill="white" fill-opacity="0.2"/>
<rect x="24" y="178.488" width="36" height="36" rx="18" fill="white" fill-opacity="0.2"/>
<rect x="72" y="178.488" width="223.188" height="16" rx="2" fill="white" fill-opacity="0.2"/>
<rect x="72" y="206.488" width="148.788" height="16" rx="2" fill="white" fill-opacity="0.2"/>
<rect x="335.988" width="295.988" height="166.488" rx="12" fill="white" fill-opacity="0.2"/>
<rect x="335.988" y="178.488" width="36" height="36" rx="18" fill="white" fill-opacity="0.2"/>
<rect x="383.988" y="178.488" width="223.188" height="16" rx="2" fill="white" fill-opacity="0.2"/>
<rect x="383.988" y="206.488" width="148.788" height="16" rx="2" fill="white" fill-opacity="0.2"/>
<rect x="647.975" width="295.988" height="166.488" rx="12" fill="white" fill-opacity="0.2"/>
<rect x="647.975" y="178.488" width="36" height="36" rx="18" fill="white" fill-opacity="0.2"/>
<rect x="695.975" y="178.488" width="223.188" height="16" rx="2" fill="white" fill-opacity="0.2"/>
<rect x="695.975" y="206.488" width="148.788" height="16" rx="2" fill="white" fill-opacity="0.2"/>
<rect x="959.963" width="295.988" height="166.488" rx="12" fill="white" fill-opacity="0.2"/>
<rect x="959.963" y="178.488" width="36" height="36" rx="18" fill="white" fill-opacity="0.2"/>
<rect x="1007.96" y="178.488" width="223.188" height="16" rx="2" fill="white" fill-opacity="0.2"/>
<rect x="1007.96" y="206.488" width="148.788" height="16" rx="2" fill="white" fill-opacity="0.2"/>
<rect x="24" y="262.488" width="295.988" height="166.488" rx="12" fill="white" fill-opacity="0.2"/>
<rect x="24" y="440.977" width="36" height="36" rx="18" fill="white" fill-opacity="0.2"/>
<rect x="72" y="440.977" width="223.188" height="16" rx="2" fill="white" fill-opacity="0.2"/>
<rect x="72" y="468.977" width="148.788" height="16" rx="2" fill="white" fill-opacity="0.2"/>
<rect x="335.988" y="262.488" width="295.988" height="166.488" rx="12" fill="white" fill-opacity="0.2"/>
<rect x="335.988" y="440.977" width="36" height="36" rx="18" fill="white" fill-opacity="0.2"/>
<rect x="383.988" y="440.977" width="223.188" height="16" rx="2" fill="white" fill-opacity="0.2"/>
<rect x="383.988" y="468.977" width="148.788" height="16" rx="2" fill="white" fill-opacity="0.2"/>
<rect x="647.975" y="262.488" width="295.988" height="166.488" rx="12" fill="white" fill-opacity="0.2"/>
<rect x="647.975" y="440.977" width="36" height="36" rx="18" fill="white" fill-opacity="0.2"/>
<rect x="695.975" y="440.977" width="223.188" height="16" rx="2" fill="white" fill-opacity="0.2"/>
<rect x="695.975" y="468.977" width="148.788" height="16" rx="2" fill="white" fill-opacity="0.2"/>
<rect x="959.963" y="262.488" width="295.988" height="166.488" rx="12" fill="white" fill-opacity="0.2"/>
<rect x="959.963" y="440.977" width="36" height="36" rx="18" fill="white" fill-opacity="0.2"/>
<rect x="1007.96" y="440.977" width="223.188" height="16" rx="2" fill="white" fill-opacity="0.2"/>
<rect x="1007.96" y="468.977" width="148.788" height="16" rx="2" fill="white" fill-opacity="0.2"/>
</svg>
