<svg width="111" height="40" viewBox="0 0 111 40" fill="none" xmlns="http://www.w3.org/2000/svg">
<g clip-path="url(#clip0_47_86681)">
<path d="M101.361 16.5614V15.2628C101.361 15.0398 101.177 14.8692 100.941 14.8692H96.39V12.3506C96.39 12.1276 96.2064 11.957 95.9701 11.957H94.2394C94.0031 11.957 93.8195 12.1407 93.8195 12.3506V14.8692H91.1309C90.8945 14.8692 90.7109 15.0529 90.7109 15.2628V16.5614C90.7109 16.7844 90.8945 16.9549 91.1309 16.9549H93.8195V20.8116C93.8195 23.7631 95.2093 25.1273 98.2006 25.1273H100.639C100.876 25.1273 101.059 24.9437 101.059 24.7338V23.4352C101.059 23.2122 100.876 23.0416 100.639 23.0416H98.5933C96.9672 23.0416 96.39 22.3988 96.39 20.7984V16.9681H100.941C101.177 16.9549 101.361 16.7713 101.361 16.5614Z" fill="#07080A"/>
<path d="M87.6814 10.9102H85.3201C85.084 10.9102 84.9004 11.0938 84.9004 11.3037V12.9696C84.9004 13.1926 85.084 13.3632 85.3201 13.3632H87.6814C87.9175 13.3632 88.1011 13.1795 88.1011 12.9696V11.3037C88.088 11.0807 87.9044 10.9102 87.6814 10.9102Z" fill="#07080A"/>
<path d="M87.9944 23.0435V15.2646C87.9944 15.0416 87.8107 14.8711 87.5746 14.8711H82.2889C82.0528 14.8711 81.8691 15.0547 81.8691 15.2646V16.5632C81.8691 16.7862 82.0528 16.9568 82.2889 16.9568H85.4236V23.0435H82.2889C82.0528 23.0435 81.8691 23.2271 81.8691 23.437V24.7356C81.8691 24.9586 82.0528 25.1292 82.2889 25.1292H91.2075C91.4438 25.1292 91.6274 24.9455 91.6274 24.7356V23.437C91.6274 23.214 91.4438 23.0435 91.2075 23.0435H87.9944Z" fill="#07080A"/>
<path d="M79.8899 23.0442H77.2142V11.3037C77.2142 11.0807 77.0306 10.9102 76.7945 10.9102H71.5481C71.312 10.9102 71.1284 11.0938 71.1284 11.3037V12.6024C71.1284 12.8254 71.312 12.9959 71.5481 12.9959H74.6435V23.0442H71.1678C70.9317 23.0442 70.748 23.2278 70.748 23.4377V24.7363C70.748 24.9593 70.9317 25.1298 71.1678 25.1298H79.8899C80.126 25.1298 80.3096 24.9462 80.3096 24.7363V23.4377C80.3096 23.2147 80.126 23.0442 79.8899 23.0442Z" fill="#07080A"/>
<path d="M65.6448 14.6758C64.753 14.6758 64.1103 14.8726 63.6119 15.3448L62.9955 15.9351H62.4315L62.2216 15.1743C62.1692 15.0038 62.0117 14.8726 61.815 14.8726H60.6346C60.3984 14.8726 60.2148 15.0562 60.2148 15.2661V28.6988C60.2148 28.9217 60.3984 29.0923 60.6346 29.0923H62.3658C62.602 29.0923 62.7856 28.9087 62.7856 28.6988V25.7866L62.5626 24.2256L63.1397 24.0944L63.7562 24.6847C64.2414 25.1307 64.8317 25.3537 65.7105 25.3537C68.255 25.3537 69.7895 23.5959 69.7895 20.0147C69.7764 16.4336 68.255 14.6758 65.6448 14.6758ZM64.7924 23.2024C63.4938 23.2024 62.7725 22.5334 62.7725 21.261V18.7423C62.7725 17.4699 63.4808 16.8009 64.7924 16.8009C66.3794 16.8009 67.1008 17.7979 67.1008 19.9885C67.0876 22.2054 66.3794 23.2024 64.7924 23.2024Z" fill="#07080A"/>
<path d="M52.8845 14.6758C49.5793 14.6758 47.8086 16.4336 47.8086 20.0016C47.8086 23.5828 49.5661 25.3406 52.8189 25.3406C55.3372 25.3406 56.9636 24.2911 57.3965 22.494C57.462 22.2448 57.2521 22.0087 56.9898 22.0087H55.4159C55.2454 22.0087 55.088 22.1136 55.0224 22.271C54.747 23.045 53.96 23.4123 52.8977 23.4123C51.245 23.4123 50.4581 22.5071 50.3531 20.3952H57.5276C57.9211 16.4467 56.2815 14.6758 52.8845 14.6758ZM50.4318 18.7948C50.681 17.2469 51.4549 16.5254 52.8714 16.5254C54.3798 16.5254 55.088 17.3256 55.1274 18.7948H50.4318Z" fill="#07080A"/>
<path d="M42.6925 15.331L42.1022 15.9213H41.512L41.3284 15.1736C41.2891 14.9899 41.1185 14.8719 40.9218 14.8719H37.1444C36.9083 14.8719 36.7246 15.0555 36.7246 15.2654V16.564C36.7246 16.787 36.9083 16.9575 37.1444 16.9575H39.3741V23.0443H36.7772C36.541 23.0443 36.3574 23.2279 36.3574 23.4378V24.7364C36.3574 24.9594 36.541 25.1299 36.7772 25.1299H44.9484C45.1845 25.1299 45.3681 24.9463 45.3681 24.7364V23.4378C45.3681 23.2148 45.1845 23.0443 44.9484 23.0443H41.9449V18.7416C41.9449 17.5348 42.6531 16.9051 44.0434 16.9051H46.2994C46.5355 16.9051 46.7191 16.7215 46.7191 16.5116V15.0817C46.7191 14.8587 46.5355 14.6881 46.2994 14.6881H44.9615C43.9778 14.6751 43.204 14.8587 42.6925 15.331Z" fill="#07080A"/>
<path d="M9.08984 10.4534C9.08984 9.70037 9.70029 9.08984 10.4533 9.08984H16.8158C17.5688 9.08984 18.1792 9.70037 18.1792 10.4534V16.3624H10.4533C9.70029 16.3624 9.08984 15.7518 9.08984 14.9988V10.4534Z" fill="#F26207"/>
<path d="M18.1797 16.3633H25.9057C26.6586 16.3633 27.2691 16.9738 27.2691 17.7269V22.2722C27.2691 23.0253 26.6586 23.6358 25.9057 23.6358H18.1797V16.3633Z" fill="#F26207"/>
<path d="M9.08984 25.0003C9.08984 24.2472 9.70029 23.6367 10.4533 23.6367H18.1792V29.5456C18.1792 30.2987 17.5688 30.9092 16.8158 30.9092H10.4533C9.70029 30.9092 9.08984 30.2987 9.08984 29.5456V25.0003Z" fill="#F26207"/>
</g>
<defs>
<clipPath id="clip0_47_86681">
<rect width="110.891" height="40" fill="white"/>
</clipPath>
</defs>
</svg>
