<svg width="28" height="28" viewBox="0 0 28 28" fill="none" xmlns="http://www.w3.org/2000/svg">
<g clip-path="url(#clip0_47_91762)">
<path fill-rule="evenodd" clip-rule="evenodd" d="M14 0C6.28 0 0 6.28 0 14C0 21.72 6.28 28 14 28C21.718 28 28 21.72 28 14C28 6.28 21.718 0 14 0Z" fill="#0A0A0A"/>
<path fill-rule="evenodd" clip-rule="evenodd" d="M14 8C13.7348 8 13.4804 8.10536 13.2929 8.29289C13.1054 8.48043 13 8.73478 13 9V13H9C8.73478 13 8.48043 13.1054 8.29289 13.2929C8.10536 13.4804 8 13.7348 8 14C8 14.2652 8.10536 14.5196 8.29289 14.7071C8.48043 14.8946 8.73478 15 9 15H13V19C13 19.2652 13.1054 19.5196 13.2929 19.7071C13.4804 19.8946 13.7348 20 14 20C14.2652 20 14.5196 19.8946 14.7071 19.7071C14.8946 19.5196 15 19.2652 15 19V15H19C19.2652 15 19.5196 14.8946 19.7071 14.7071C19.8946 14.5196 20 14.2652 20 14C20 13.7348 19.8946 13.4804 19.7071 13.2929C19.5196 13.1054 19.2652 13 19 13H15V9C15 8.73478 14.8946 8.48043 14.7071 8.29289C14.5196 8.10536 14.2652 8 14 8Z" fill="white"/>
</g>
<defs>
<clipPath id="clip0_47_91762">
<rect width="28" height="28" fill="white"/>
</clipPath>
</defs>
</svg>
