<svg width="24" height="24" viewBox="0 0 24 24" fill="none" xmlns="http://www.w3.org/2000/svg">
<g clip-path="url(#clip0_36_7985)">
<path d="M23.2722 0.214355H0.415039V23.0715H23.2722V0.214355Z" fill="white" fill-opacity="0.01"/>
<path fill-rule="evenodd" clip-rule="evenodd" d="M11.8435 22.4355C17.8046 22.4355 22.6371 17.603 22.6371 11.6418C22.6371 5.68063 17.8046 0.848145 11.8435 0.848145C5.88229 0.848145 1.0498 5.68063 1.0498 11.6418C1.0498 17.603 5.88229 22.4355 11.8435 22.4355Z" fill="#D9D9D9"/>
<path d="M16.5645 6.93645C16.8011 7.17314 16.812 7.55019 16.5968 7.79963L16.5645 7.83437L12.6999 11.6986L16.4675 15.4666C16.7155 15.7146 16.7155 16.1166 16.4675 16.3645C16.2309 16.6012 15.8538 16.6119 15.6045 16.3969L15.5697 16.3645L11.8019 12.5964L8.03433 16.3645C7.78637 16.6125 7.38437 16.6125 7.13642 16.3645C6.89973 16.1278 6.88898 15.7508 7.10414 15.5013L7.13642 15.4666L10.9041 11.6986L7.03948 7.83437C6.79153 7.58642 6.79153 7.18441 7.03948 6.93645C7.27617 6.69978 7.65322 6.68901 7.90266 6.90418L7.93739 6.93645L11.8019 10.8006L15.6666 6.93645C15.9145 6.6885 16.3166 6.6885 16.5645 6.93645Z" fill="white"/>
</g>
<defs>
<clipPath id="clip0_36_7985">
<rect width="24" height="24" fill="white"/>
</clipPath>
</defs>
</svg>
