<svg width="136" height="136" viewBox="0 0 136 136" fill="none" xmlns="http://www.w3.org/2000/svg">
<path d="M73.4004 51C71.2004 50.4 57.4004 42 58.4004 38.6C59.4004 35.2 63.4004 36.8 63.4004 36.8C63.4004 36.8 62.8004 30.2 65.0004 30.2C67.2004 30.2 71.0004 34 71.0004 34C71.0004 34 70.8004 24.2 73.6004 25.8C76.4004 27.4 75.8004 31.8 77.6004 31.8C79.2004 31.8 83.0004 26.8 84.6004 29C86.2004 31.2 86.4004 38.8 84.8004 42.2C83.2004 45.6 78.4004 53.2 78.4004 53.2L73.4004 51Z" fill="#FF3008"/>
<path d="M83.0002 86.4C82.4002 62.4 75.2002 46.2 75.2002 46L76.2002 45.6C76.2002 45.8 83.6002 62.2 84.2002 86.4H83.0002Z" fill="#28362C"/>
<path d="M88.7999 57.4C88.1999 56.8 93.3999 49.2 94.7999 47.6C95.9999 46 99.7999 42.6 101.8 42.6C103.8 42.6 112 42.4 112.8 43C113.4 43.6 110.8 48.8 108.8 50.4C106.8 52 102.4 55.8 98.7999 56.2C94.9999 56.6 89.3999 57.8 88.7999 57.4Z" fill="#004C52"/>
<path d="M78.6004 33.0001C78.0004 31.8001 77.4004 26.6001 81.4004 23.4001C82.6004 22.4001 86.2004 21.2001 90.2004 18.4001C93.6004 16.0001 100 20.4001 101.2 23.4001C102.4 26.4001 101.6 28.8001 100 31.8001C98.4004 34.6001 94.8004 38.6001 92.2004 40.0001C88.8004 41.4001 80.2004 35.8001 78.6004 33.0001Z" fill="#EDB9B5"/>
<path d="M88.9995 50.4C84.9995 50 78.7995 45.8 76.7995 40.4C74.7995 35 75.3995 26.4 79.1995 25.2C82.9995 24 89.9995 27.2 91.3995 27.8C92.9995 28.6 95.3995 26.2 96.7995 25.6C98.9995 24.6 104.2 24.8 104.8 26.2C106 29 101.4 42.2 99.7995 45C96.7995 48 91.9995 50.6 88.9995 50.4Z" fill="#F9D0CC"/>
<path d="M92.0003 39.8C94.6003 38.4 98.2003 34.4 99.8003 31.6C101.2 29.2 101.8 27.2 101.4 25C99.8003 24.8 97.8003 25 96.6003 25.6C95.4003 26.2 93.0003 28.4 91.2003 27.8C89.8003 27.2 83.6003 24.4 79.8003 25C77.4003 28.2 77.8003 32.2 78.4003 33C80.2003 35.8 88.8003 41.4 92.0003 39.8Z" fill="#F6DBD9"/>
<path d="M88.8246 45.09L87.124 93.461L88.1234 93.4961L89.8239 45.1252L88.8246 45.09Z" fill="#28362C"/>
<path d="M73 60.4C73.4 61.8 81.6 110.2 81.6 110.2L91.8 110L103.6 60L73 60.4Z" fill="#C3A289"/>
<path d="M32.5996 109.6C35.9996 110.4 76.1996 109.6 76.1996 109.6L75.3996 72.0001L32.7996 71.6001L32.5996 109.6Z" fill="#004C52"/>
<path d="M30.7998 64.2L30.9998 77.8001L77.5998 78V63.8L30.7998 64.2Z" fill="#1F6167"/>
<path d="M53.7996 64.4C53.7996 64.4 47.1996 63.2 44.1996 62.8C39.5996 62 34.9996 58.6 33.7996 55.2C33.3996 53.8 33.5996 52.4 34.3996 51.4C35.7996 50 37.3996 49.2 39.1996 49.4C44.7996 49.8 50.5996 58 50.9996 58.4L53.9996 63.6C53.9996 63.8 53.9996 64 53.9996 64.2C53.9996 64.4 53.7996 64.4 53.7996 64.4ZM38.9996 50.4C37.5996 50.4 36.3996 51 35.3996 52.2C34.5996 53 34.5996 54 34.9996 55C35.9996 58 40.3996 61.2 44.5996 61.8C46.7996 62.2 50.9996 63 52.9996 63.2L50.3996 59C50.1996 58.6 44.5996 50.8 39.3996 50.4C39.1996 50.4 38.9996 50.4 38.9996 50.4Z" fill="#DBA7A5"/>
<path d="M53.6 64.4001C53.4 64.4001 53.4 64.4001 53.2 64.2001C53 64.0001 53 63.8001 53 63.8001C53 63.6001 54 58.6001 54.8 56.6001C55.2 55.6001 57.2 51.2001 60 50.8001C61.2 50.6001 62.2 51.2001 63.2 52.4001C64 53.4001 64.2 54.4001 64.2 55.6001C63.8 57.6001 62.2 59.4001 59 61.6001C56.4 63.4001 54 64.4001 53.8 64.4001C53.8 64.2001 53.6 64.4001 53.6 64.4001ZM60.6 51.6001H60.4C58.6 51.8001 56.8 55.0001 56 56.8001C55.4 58.2001 54.8 61.2001 54.4 62.8001C55.4 62.4001 57 61.4001 58.6 60.4001C61.6 58.4001 63.2 56.6001 63.4 55.2001C63.6 54.4001 63.4 53.6001 62.6 52.8001C61.8 52.0001 61.2 51.6001 60.6 51.6001Z" fill="#DBA7A5"/>
<path d="M45.1998 73.0001C40.9998 73.0001 37.3998 70.2001 37.1998 70.2001C36.9998 70.0001 36.9998 69.8001 37.1998 69.6001C37.3998 69.4001 37.5998 69.4001 37.7998 69.6001C37.7998 69.6001 43.5998 74.0001 48.5998 71.4001C51.9998 69.8001 53.1998 64.6001 53.1998 64.6001C53.1998 64.4001 53.5998 64.2001 53.7998 64.2001C53.9998 64.2001 54.1998 64.6001 54.1998 64.8001C54.1998 65.0001 52.9998 70.6001 49.1998 72.4001C47.7998 72.8001 46.5998 73.0001 45.1998 73.0001Z" fill="#DBA7A5"/>
<path d="M54.2002 109.6C54.0002 109.6 53.8002 109.4 53.8002 109.2L53.2002 64.8001C53.2002 64.6001 53.4002 64.4001 53.6002 64.4001C53.8002 64.4001 54.0002 64.4001 54.2002 64.6001C55.0002 66.6001 57.6002 71.6001 60.0002 72.4001C66.0002 74.2001 68.8002 68.0001 69.0002 67.6001C69.2002 67.4001 69.4002 67.2001 69.6002 67.4001C69.8002 67.6001 70.0002 67.8001 69.8002 68.0001C69.8002 68.0001 66.6002 75.2001 59.6002 73.2001C57.4002 72.6001 55.4002 69.2001 54.2002 67.0001L54.8002 109C54.8002 109.4 54.6002 109.6 54.2002 109.6Z" fill="#DBA7A5"/>
</svg>
