<svg width="30" height="30" viewBox="0 0 30 30" fill="none" xmlns="http://www.w3.org/2000/svg">
<g clip-path="url(#clip0_4_2861)">
<path d="M14.9997 0.681873C7.09198 0.681873 0.681507 7.09234 0.681507 15.0001C0.681507 22.9078 7.09198 29.3182 14.9997 29.3182C22.9074 29.3182 29.3179 22.9078 29.3179 15.0001C29.3179 7.09234 22.9074 0.681873 14.9997 0.681873Z" fill="white" stroke="#0E0E0E" stroke-width="1.36364"/>
<path fill-rule="evenodd" clip-rule="evenodd" d="M18.0625 14.8377L13.2011 10.1257C13.1636 10.0867 13.1187 10.0555 13.069 10.0338C13.0194 10.0122 12.9659 10.0006 12.9118 9.99964C12.8576 9.99869 12.8038 10.0084 12.7535 10.0283C12.7031 10.0482 12.6571 10.0778 12.6182 10.1154C12.5799 10.1526 12.5497 10.1971 12.5293 10.2464C12.5089 10.2956 12.4987 10.3485 12.4996 10.4018C12.5008 10.4551 12.5129 10.5076 12.5352 10.556C12.5575 10.6044 12.5894 10.6478 12.6291 10.6834L17.1986 15.1425L12.5964 19.6289C12.5489 19.7056 12.5298 19.7965 12.5422 19.8859C12.5547 19.9753 12.5979 20.0575 12.6646 20.1184C12.8009 20.2459 13.0116 20.2636 13.1691 20.16L18.0571 15.3954C18.0956 15.3598 18.1265 15.3167 18.148 15.2688C18.1694 15.2209 18.1809 15.1691 18.1818 15.1166C18.1816 15.0644 18.171 15.0127 18.1505 14.9647C18.13 14.9167 18.1001 14.874 18.0625 14.8377Z" fill="#0E0E0E" stroke="#0E0E0E" stroke-width="0.681818"/>
</g>
<defs>
<clipPath id="clip0_4_2861">
<rect width="30" height="30" fill="white"/>
</clipPath>
</defs>
</svg>
