<svg width="16" height="16" viewBox="0 0 16 16" fill="none" xmlns="http://www.w3.org/2000/svg">
<path d="M3.5 2C3.89782 2 4.27936 2.15804 4.56066 2.43934C4.84196 2.72064 5 3.10218 5 3.5C5 3.89782 4.84196 4.27936 4.56066 4.56066C4.27936 4.84196 3.89782 5 3.5 5C3.10218 5 2.72064 4.84196 2.43934 4.56066C2.15804 4.27936 2 3.89782 2 3.5C2 3.10218 2.15804 2.72064 2.43934 2.43934C2.72064 2.15804 3.10218 2 3.5 2ZM8 2C8.39782 2 8.77936 2.15804 9.06066 2.43934C9.34196 2.72064 9.5 3.10218 9.5 3.5C9.5 3.89782 9.34196 4.27936 9.06066 4.56066C8.77936 4.84196 8.39782 5 8 5C7.60218 5 7.22064 4.84196 6.93934 4.56066C6.65804 4.27936 6.5 3.89782 6.5 3.5C6.5 3.10218 6.65804 2.72064 6.93934 2.43934C7.22064 2.15804 7.60218 2 8 2ZM12.5 2C12.8978 2 13.2794 2.15804 13.5607 2.43934C13.842 2.72064 14 3.10218 14 3.5C14 3.89782 13.842 4.27936 13.5607 4.56066C13.2794 4.84196 12.8978 5 12.5 5C12.1022 5 11.7206 4.84196 11.4393 4.56066C11.158 4.27936 11 3.89782 11 3.5C11 3.10218 11.158 2.72064 11.4393 2.43934C11.7206 2.15804 12.1022 2 12.5 2ZM3.5 6.5C3.89782 6.5 4.27936 6.65804 4.56066 6.93934C4.84196 7.22064 5 7.60218 5 8C5 8.39782 4.84196 8.77936 4.56066 9.06066C4.27936 9.34196 3.89782 9.5 3.5 9.5C3.10218 9.5 2.72064 9.34196 2.43934 9.06066C2.15804 8.77936 2 8.39782 2 8C2 7.60218 2.15804 7.22064 2.43934 6.93934C2.72064 6.65804 3.10218 6.5 3.5 6.5ZM8 6.5C8.39782 6.5 8.77936 6.65804 9.06066 6.93934C9.34196 7.22064 9.5 7.60218 9.5 8C9.5 8.39782 9.34196 8.77936 9.06066 9.06066C8.77936 9.34196 8.39782 9.5 8 9.5C7.60218 9.5 7.22064 9.34196 6.93934 9.06066C6.65804 8.77936 6.5 8.39782 6.5 8C6.5 7.60218 6.65804 7.22064 6.93934 6.93934C7.22064 6.65804 7.60218 6.5 8 6.5ZM12.5 6.5C12.8978 6.5 13.2794 6.65804 13.5607 6.93934C13.842 7.22064 14 7.60218 14 8C14 8.39782 13.842 8.77936 13.5607 9.06066C13.2794 9.34196 12.8978 9.5 12.5 9.5C12.1022 9.5 11.7206 9.34196 11.4393 9.06066C11.158 8.77936 11 8.39782 11 8C11 7.60218 11.158 7.22064 11.4393 6.93934C11.7206 6.65804 12.1022 6.5 12.5 6.5ZM3.5 11C3.89782 11 4.27936 11.158 4.56066 11.4393C4.84196 11.7206 5 12.1022 5 12.5C5 12.8978 4.84196 13.2794 4.56066 13.5607C4.27936 13.842 3.89782 14 3.5 14C3.10218 14 2.72064 13.842 2.43934 13.5607C2.15804 13.2794 2 12.8978 2 12.5C2 12.1022 2.15804 11.7206 2.43934 11.4393C2.72064 11.158 3.10218 11 3.5 11ZM8 11C8.39782 11 8.77936 11.158 9.06066 11.4393C9.34196 11.7206 9.5 12.1022 9.5 12.5C9.5 12.8978 9.34196 13.2794 9.06066 13.5607C8.77936 13.842 8.39782 14 8 14C7.60218 14 7.22064 13.842 6.93934 13.5607C6.65804 13.2794 6.5 12.8978 6.5 12.5C6.5 12.1022 6.65804 11.7206 6.93934 11.4393C7.22064 11.158 7.60218 11 8 11ZM12.5 11C12.8978 11 13.2794 11.158 13.5607 11.4393C13.842 11.7206 14 12.1022 14 12.5C14 12.8978 13.842 13.2794 13.5607 13.5607C13.2794 13.842 12.8978 14 12.5 14C12.1022 14 11.7206 13.842 11.4393 13.5607C11.158 13.2794 11 12.8978 11 12.5C11 12.1022 11.158 11.7206 11.4393 11.4393C11.7206 11.158 12.1022 11 12.5 11Z" fill="white"/>
</svg>
