<svg width="24" height="24" viewBox="0 0 24 24" fill="none" xmlns="http://www.w3.org/2000/svg">
<path d="M21.515 5.14652C20.1085 4.23191 18.4791 3.71848 16.8024 3.66156C15.1257 3.60464 13.4652 4.00639 12 4.82352C10.5346 4.00693 8.87421 3.60548 7.1976 3.6624C5.52099 3.71931 3.89166 4.23243 2.485 5.14652L2 5.43752V19.7695L3.515 18.8605C4.68087 18.0839 6.04819 17.6648 7.44899 17.6547C8.84978 17.6446 10.223 18.0439 11.4 18.8035L12 19.2455L12.6 18.8065C13.7773 18.0461 15.1511 17.6461 16.5526 17.6557C17.9541 17.6653 19.3222 18.084 20.489 18.8605L22 19.7695V5.43752L21.515 5.14652ZM7.559 15.6595C6.33675 15.664 5.12736 15.9093 4 16.3815V6.58852C5.06746 5.98772 6.27055 5.66919 7.49546 5.66307C8.72037 5.65694 9.92658 5.96343 11 6.55352V16.3455C9.90847 15.8955 8.73968 15.6624 7.559 15.6595ZM20 16.3815C18.8941 15.9111 17.7056 15.6654 16.5038 15.6589C15.302 15.6524 14.111 15.8851 13 16.3435V6.55352C14.0734 5.96343 15.2796 5.65694 16.5045 5.66307C17.7294 5.66919 18.9325 5.98772 20 6.58852V16.3815Z" fill="#9A9AB0"/>
</svg>
