<svg width="15" height="16" viewBox="0 0 15 16" fill="none" xmlns="http://www.w3.org/2000/svg">
<path fill-rule="evenodd" clip-rule="evenodd" d="M10.0583 4.75103L5.29849 9.51169C5.07972 9.72298 4.99199 10.0359 5.069 10.3301C5.14602 10.6243 5.3758 10.8541 5.67003 10.9311C5.96426 11.0081 6.27715 10.9204 6.48844 10.7016L11.2491 5.94183C12.2351 4.9558 12.2351 3.35715 11.2491 2.37113C10.2631 1.3851 8.66443 1.3851 7.67841 2.37111L2.91774 7.13178C1.83234 8.19015 1.40017 9.75057 1.78645 11.2165C2.17273 12.6825 3.31772 13.8273 4.78373 14.2134C6.24974 14.5995 7.8101 14.1671 8.86832 13.0816L13.629 8.32173L14.819 9.51169L10.0583 14.2723C8.57018 15.7614 6.40057 16.3432 4.36706 15.7986C2.33356 15.2539 0.745243 13.6655 0.20066 11.632C-0.343922 9.59842 0.238004 7.42883 1.72714 5.94078L6.48844 1.18117C8.13948 -0.413456 10.7639 -0.390649 12.387 1.23243C14.01 2.85551 14.0328 5.47991 12.4382 7.13095L7.6784 11.8933C6.69226 12.8792 5.09365 12.8791 4.10758 11.8932C3.12151 10.9072 3.12128 9.30859 4.10708 8.32235L8.86835 3.56108L10.0583 4.75103Z" fill="#4EAC6D"/>
</svg>
