<svg width="23" height="16" viewBox="0 0 23 16" fill="none" xmlns="http://www.w3.org/2000/svg">
<g clip-path="url(#clip0_47_87400)">
<path d="M22.3056 2.50686C22.1814 2.02771 21.9335 1.58963 21.5866 1.23654C21.2397 0.883453 20.806 0.62776 20.3292 0.4951C18.5645 0.000982243 11.4939 0.000982244 11.4939 0.000982244C8.54559 -0.0344487 5.59814 0.122749 2.67035 0.47157C2.1933 0.613927 1.76041 0.875508 1.41253 1.23162C1.06466 1.58773 0.813271 2.02662 0.682111 2.50686C0.365801 4.32091 0.212249 6.1596 0.223287 8.00098C0.211492 9.8424 0.36505 11.6812 0.682111 13.4951C0.810572 13.9741 1.06141 14.4114 1.41 14.7641C1.75858 15.1168 2.19292 15.3728 2.67035 15.5069C4.45858 16.001 11.4939 16.001 11.4939 16.001C14.4461 16.0365 17.3974 15.8793 20.3292 15.5304C20.806 15.3977 21.2397 15.142 21.5866 14.789C21.9335 14.4359 22.1814 13.9978 22.3056 13.5186C22.63 11.7055 22.7875 9.86641 22.7762 8.02451C22.8005 6.17432 22.6429 4.32622 22.3056 2.50686ZM9.24682 11.4245V4.57745L15.1292 8.00098L9.24682 11.4245Z" fill="#959DA5"/>
</g>
<defs>
<clipPath id="clip0_47_87400">
<rect width="22.5529" height="16" fill="white" transform="translate(0.222656)"/>
</clipPath>
</defs>
</svg>
