<svg width="512" height="512" viewBox="0 0 512 512" fill="none" xmlns="http://www.w3.org/2000/svg">
<path d="M504 256C504 392.997 392.957 504 256 504C119.043 504 8 392.997 8 256C8 119.083 119.043 8 256 8C392.957 8 504 119.083 504 256ZM262.655 90C208.158 90 173.4 112.957 146.106 153.758C142.57 159.044 143.753 166.173 148.821 170.016L183.52 196.326C188.725 200.273 196.141 199.334 200.185 194.204C218.049 171.546 230.298 158.407 257.488 158.407C277.917 158.407 303.186 171.555 303.186 191.365C303.186 206.341 290.823 214.032 270.652 225.341C247.128 238.528 216 254.941 216 296V300C216 306.627 221.373 312 228 312H284C290.627 312 296 306.627 296 300V298.667C296 270.205 379.186 269.02 379.186 192C379.186 133.998 319.021 90 262.655 90ZM256 338C230.635 338 210 358.635 210 384C210 409.364 230.635 430 256 430C281.365 430 302 409.364 302 384C302 358.635 281.365 338 256 338Z" fill="#0079F2"/>
</svg>
