<svg width="20" height="20" viewBox="0 0 20 20" fill="none" xmlns="http://www.w3.org/2000/svg">
<g clip-path="url(#clip0_47_72615)">
<g clip-path="url(#clip1_47_72615)">
<path d="M17.5 16.9056H2.49997C2.13162 16.9056 1.77835 17.0519 1.51788 17.3124C1.25741 17.5728 1.11108 17.9261 1.11108 18.2944C1.11108 18.6628 1.25741 19.0161 1.51788 19.2765C1.77835 19.537 2.13162 19.6833 2.49997 19.6833H17.5C17.8683 19.6833 18.2216 19.537 18.4821 19.2765C18.7425 19.0161 18.8889 18.6628 18.8889 18.2944C18.8889 17.9261 18.7425 17.5728 18.4821 17.3124C18.2216 17.0519 17.8683 16.9056 17.5 16.9056ZM4.0222 7.55556C4.00412 7.60264 3.98927 7.6509 3.97775 7.7V7.76667C3.97069 7.83872 3.97069 7.91128 3.97775 7.98333V8.03333C3.97385 8.08697 3.97385 8.14081 3.97775 8.19444V8.28333C3.98855 8.32291 4.00153 8.36186 4.01664 8.4C4.01664 8.43333 4.04997 8.46111 4.06664 8.49444C4.08173 8.52674 4.09841 8.55826 4.11664 8.58889C4.14386 8.62779 4.17356 8.6649 4.20553 8.7L4.24997 8.75556L9.48331 14.0667L9.57775 14.1444L9.64997 14.2L9.7722 14.2667L9.83886 14.3L9.98886 14.3444H10.05C10.1894 14.3714 10.3327 14.3714 10.4722 14.3444H10.5278L10.6778 14.3L10.7444 14.2667L10.8666 14.2L10.9389 14.1444L11.0389 14.0667L16.2722 8.75556L16.3166 8.7C16.3486 8.6649 16.3783 8.62779 16.4055 8.58889C16.4238 8.55826 16.4404 8.52674 16.4555 8.49444C16.4555 8.46111 16.4889 8.43333 16.5055 8.4C16.5206 8.36186 16.5336 8.32291 16.5444 8.28333V8.19444C16.5483 8.14081 16.5483 8.08697 16.5444 8.03333V7.98333C16.5515 7.91128 16.5515 7.83872 16.5444 7.76667V7.7C16.5329 7.6509 16.5181 7.60264 16.5 7.55556C16.5 7.52222 16.4666 7.48889 16.45 7.46111C16.4333 7.43333 16.4166 7.39444 16.4 7.36667C16.3592 7.30671 16.3127 7.25089 16.2611 7.2L16.2055 7.15556C16.1704 7.12358 16.1333 7.09389 16.0944 7.06667L16 7.01667L15.9055 6.96667L15.7889 6.93333H12.2222V1.94444C12.2222 1.42875 12.0173 0.934169 11.6527 0.569515C11.288 0.204861 10.7934 0 10.2778 0C9.76205 0 9.26748 0.204861 8.90282 0.569515C8.53817 0.934169 8.33331 1.42875 8.33331 1.94444V6.87222H4.74997L4.63331 6.90556L4.53886 6.95556L4.44442 7.06111C4.40552 7.08834 4.36841 7.11803 4.33331 7.15L4.27775 7.19444C4.22613 7.24534 4.17961 7.30116 4.13886 7.36111C4.13886 7.38889 4.10553 7.42222 4.08886 7.45556C4.0722 7.48889 4.03331 7.52222 4.0222 7.55556Z" fill="#F73859"/>
</g>
</g>
<defs>
<clipPath id="clip0_47_72615">
<rect width="20" height="20" fill="white"/>
</clipPath>
<clipPath id="clip1_47_72615">
<rect width="17.7778" height="20" fill="white" transform="translate(1.11108)"/>
</clipPath>
</defs>
</svg>
