<svg width="17" height="23" viewBox="0 0 17 23" fill="none" xmlns="http://www.w3.org/2000/svg">
<g clip-path="url(#clip0_47_72619)">
<path d="M15.9 0H0.6C0.3 0 0 0.3 0 0.6V22.4C0 22.6 0.1 22.8 0.3 22.9C0.5 23 0.7 23 0.9 22.9L8.2 18.4L15.5 22.9C15.6 23 15.7 23 15.8 23C15.9 23 16 23 16.1 22.9C16.3 22.8 16.4 22.6 16.4 22.4V0.6C16.5 0.3 16.2 0 15.9 0ZM15.2 21.3L8.5 17.2C8.3 17.1 8.1 17.1 7.9 17.2L1.2 21.3V1.2H15.2V21.3ZM8.9 12.9C8.9 13.2 8.6 13.5 8.3 13.5C8.1 13.5 8 13.4 7.9 13.3C7.8 13.2 7.7 13 7.7 12.9V9.9H4.7C4.2 9.9 4 9.6 4 9.2C4 8.9 4.3 8.6 4.6 8.6H7.6V5.6C7.6 5.2 7.9 5 8.2 5C8.5 5 8.8 5.3 8.8 5.6V8.6H11.8C12.1 8.6 12.4 8.9 12.4 9.2C12.4 9.5 12.1 9.8 11.8 9.8H8.8L8.9 12.9Z" fill="#F73859"/>
</g>
<defs>
<clipPath id="clip0_47_72619">
<rect width="16.5" height="23" fill="white"/>
</clipPath>
</defs>
</svg>
