<svg width="64" height="64" viewBox="0 0 64 64" fill="none" xmlns="http://www.w3.org/2000/svg">
<path d="M37.701 32.2783H20.8198C20.1539 32.2783 19.614 32.8004 19.614 33.4443V42.7728C19.614 43.4167 20.1539 43.9388 20.8198 43.9388H37.701C38.367 43.9388 38.9068 43.4167 38.9068 42.7728V33.4443C38.9068 32.8004 38.367 32.2783 37.701 32.2783Z" stroke="#213A52" stroke-width="1.94783" stroke-miterlimit="10"/>
<path d="M23.2319 35.7773H35.2899" stroke="#213A52" stroke-width="1.94783" stroke-miterlimit="10" stroke-linecap="round"/>
<path d="M23.2389 29.9465C25.9027 29.9465 28.0621 27.8583 28.0621 25.2824C28.0621 22.7064 25.9027 20.6182 23.2389 20.6182C20.5752 20.6182 18.4158 22.7064 18.4158 25.2824C18.4158 27.8583 20.5752 29.9465 23.2389 29.9465Z" stroke="#213A52" stroke-width="1.94783" stroke-miterlimit="10" stroke-linecap="round"/>
<path d="M33.4839 29.9455C35.1487 29.9455 36.4983 28.6403 36.4983 27.0303C36.4983 25.4204 35.1487 24.1152 33.4839 24.1152C31.819 24.1152 30.4694 25.4204 30.4694 27.0303C30.4694 28.6403 31.819 29.9455 33.4839 29.9455Z" stroke="#213A52" stroke-width="1.94783" stroke-miterlimit="10" stroke-linecap="round"/>
<path d="M38.9121 39.858L45.0316 42.3242C45.6465 42.5691 46.1469 42.2484 46.1469 41.6071V34.6109C46.1469 33.9695 45.6465 33.6489 45.0316 33.8937L38.9121 36.3599" stroke="#213A52" stroke-width="1.94783" stroke-linecap="round" stroke-linejoin="round"/>
</svg>
