<svg width="14" height="22" viewBox="0 0 14 22" fill="none" xmlns="http://www.w3.org/2000/svg">
<path d="M5.20706 1.62522L1.29187 6.50349C0.40206 7.61315 0.716112 9.03685 1.98279 9.66495L5.8875 11.6225C6.40045 11.8738 7.23793 11.8738 7.75088 11.6225L11.6556 9.66495C12.9223 9.02638 13.2363 7.60268 12.3465 6.50349L8.44179 1.62522C7.56245 0.5051 6.09687 0.5051 5.20706 1.62522Z" stroke="white" stroke-width="1.5" stroke-miterlimit="10" stroke-linecap="round" stroke-linejoin="round"/>
<path d="M6.829 0.842379V6.34876" stroke="white" stroke-width="1.5" stroke-miterlimit="10" stroke-linecap="round" stroke-linejoin="round"/>
<path d="M2.43309 9.64401L6.82981 6.34647L11.2265 9.64401" stroke="white" stroke-width="1.5" stroke-miterlimit="10" stroke-linecap="round" stroke-linejoin="round"/>
<path d="M3.44782 13.5399L5.13323 14.2936C6.21148 14.7751 7.44675 14.7751 8.53546 14.2936L10.2209 13.5399C11.7283 12.8699 13.1206 14.6914 12.0738 15.9685L8.45172 20.3967C7.5619 21.4854 6.10679 21.4854 5.20651 20.3967L1.59491 15.9685C0.537603 14.6914 1.9299 12.8699 3.44782 13.5399Z" stroke="white" stroke-width="1.5" stroke-miterlimit="10" stroke-linecap="round" stroke-linejoin="round"/>
</svg>
