<svg width="190" height="127" viewBox="0 0 190 127" fill="none" xmlns="http://www.w3.org/2000/svg">
<path opacity="0.3" d="M63.3359 110.376H29.3867" stroke="white" stroke-width="2.11094" stroke-miterlimit="10" stroke-linecap="round"/>
<path opacity="0.3" d="M171.521 110.376H146.169" stroke="white" stroke-width="2.11094" stroke-miterlimit="10" stroke-linecap="round"/>
<path opacity="0.3" d="M76.5553 116.328H57.293" stroke="white" stroke-width="2.11094" stroke-miterlimit="10" stroke-linecap="round"/>
<path opacity="0.4" d="M57.9268 35.8859V31.4266C57.9323 29.9922 58.5035 28.6179 59.5163 27.6021C60.529 26.5864 61.9017 26.0112 63.336 26.0015H120.331C121.77 26.0056 123.149 26.5791 124.167 27.5966C125.184 28.6141 125.758 29.9929 125.762 31.4319V35.8859" fill="#E4E6E7"/>
<path opacity="0.3" d="M80.6882 80.4425H63.9326" stroke="white" stroke-width="2.11094" stroke-miterlimit="10" stroke-linecap="round"/>
<path opacity="0.3" d="M97.1957 85.2871H63.9326" stroke="white" stroke-width="2.11094" stroke-miterlimit="10" stroke-linecap="round"/>
<path opacity="0.3" d="M117.249 85.6724H104.567" stroke="white" stroke-width="2.11094" stroke-miterlimit="10" stroke-linecap="round"/>
<path opacity="0.3" d="M108.278 90.1317H63.9326" stroke="white" stroke-width="2.11094" stroke-miterlimit="10" stroke-linecap="round"/>
<path opacity="0.3" d="M119.888 70.7587H63.9326" stroke="white" stroke-width="2.11094" stroke-miterlimit="10" stroke-linecap="round"/>
<path opacity="0.3" d="M106.067 75.5979H63.9326" stroke="white" stroke-width="2.11094" stroke-miterlimit="10" stroke-linecap="round"/>
<path opacity="0.3" d="M70.5768 94.9763H63.9326" stroke="white" stroke-width="2.11094" stroke-miterlimit="10" stroke-linecap="round"/>
<path opacity="0.3" d="M116.194 94.9763H109.55" stroke="white" stroke-width="2.11094" stroke-miterlimit="10" stroke-linecap="round"/>
<path opacity="0.3" d="M52.633 26.6664H51.0498V25.0832C51.0498 24.8733 50.9664 24.6719 50.818 24.5235C50.6695 24.375 50.4681 24.2916 50.2582 24.2916C50.0483 24.2916 49.8469 24.375 49.6985 24.5235C49.55 24.6719 49.4666 24.8733 49.4666 25.0832V26.6664H47.8834C47.6735 26.6664 47.4721 26.7498 47.3237 26.8983C47.1752 27.0467 47.0918 27.2481 47.0918 27.458C47.0918 27.668 47.1752 27.8693 47.3237 28.0178C47.4721 28.1662 47.6735 28.2496 47.8834 28.2496H49.4666V29.8328C49.4666 29.9368 49.4871 30.0397 49.5269 30.1358C49.5666 30.2318 49.6249 30.3191 49.6985 30.3926C49.772 30.4661 49.8592 30.5244 49.9553 30.5642C50.0513 30.604 50.1542 30.6244 50.2582 30.6244C50.3622 30.6244 50.4651 30.604 50.5611 30.5642C50.6572 30.5244 50.7444 30.4661 50.818 30.3926C50.8915 30.3191 50.9498 30.2318 50.9895 30.1358C51.0293 30.0397 51.0498 29.9368 51.0498 29.8328V28.2496H52.633C52.843 28.2496 53.0443 28.1662 53.1928 28.0178C53.3412 27.8693 53.4246 27.668 53.4246 27.458C53.4246 27.2481 53.3412 27.0467 53.1928 26.8983C53.0443 26.7498 52.843 26.6664 52.633 26.6664Z" fill="white"/>
<g opacity="0.3">
<path d="M138.2 38.0549L138.506 38.4824" stroke="white" stroke-width="2.11094" stroke-miterlimit="10" stroke-linecap="round"/>
<path d="M140.781 42.0077C145.052 49.2855 147.451 57.5088 147.764 65.9414C148.077 74.3739 146.295 82.7525 142.576 90.3271" stroke="white" stroke-width="2.11094" stroke-miterlimit="10" stroke-linecap="round" stroke-dasharray="1.05 4.2"/>
<path d="M141.61 92.1952L141.356 92.6543" stroke="white" stroke-width="2.11094" stroke-miterlimit="10" stroke-linecap="round"/>
</g>
<path opacity="0.7" d="M134.421 35.8912C135.587 35.8912 136.532 34.9461 136.532 33.7803C136.532 32.6144 135.587 31.6693 134.421 31.6693C133.256 31.6693 132.311 32.6144 132.311 33.7803C132.311 34.9461 133.256 35.8912 134.421 35.8912Z" stroke="white" stroke-width="1.05547" stroke-miterlimit="10"/>
<path opacity="0.3" d="M164.217 104.982C165.383 104.982 166.328 104.037 166.328 102.871C166.328 101.705 165.383 100.76 164.217 100.76C163.052 100.76 162.106 101.705 162.106 102.871C162.106 104.037 163.052 104.982 164.217 104.982Z" stroke="white" stroke-width="1.05547" stroke-miterlimit="10"/>
<path opacity="0.3" d="M23.0803 109.452H21.4971V107.869C21.4971 107.659 21.4137 107.458 21.2652 107.309C21.1168 107.161 20.9154 107.077 20.7055 107.077C20.4955 107.077 20.2942 107.161 20.1457 107.309C19.9973 107.458 19.9139 107.659 19.9139 107.869V109.452H18.3307C18.1207 109.452 17.9194 109.535 17.7709 109.684C17.6225 109.832 17.5391 110.034 17.5391 110.244C17.5391 110.454 17.6225 110.655 17.7709 110.803C17.9194 110.952 18.1207 111.035 18.3307 111.035H19.9139V112.618C19.9139 112.828 19.9973 113.03 20.1457 113.178C20.2942 113.327 20.4955 113.41 20.7055 113.41C20.9154 113.41 21.1168 113.327 21.2652 113.178C21.4137 113.03 21.4971 112.828 21.4971 112.618V111.035H23.0803C23.2902 111.035 23.4916 110.952 23.64 110.803C23.7885 110.655 23.8719 110.454 23.8719 110.244C23.8719 110.034 23.7885 109.832 23.64 109.684C23.4916 109.535 23.2902 109.452 23.0803 109.452Z" fill="white"/>
<path opacity="0.4" d="M126.479 100.412V104.871C126.474 106.309 125.9 107.687 124.882 108.703C123.865 109.72 122.487 110.292 121.049 110.296H64.1013C62.6623 110.292 61.2835 109.719 60.266 108.701C59.2485 107.684 58.6751 106.305 58.6709 104.866V100.407" fill="#E4E6E7"/>
<path d="M58.4121 43.8653V31.2894C58.4163 29.8468 58.9927 28.4648 60.0147 27.4467C61.0368 26.4286 62.421 25.8576 63.8636 25.859H120.79C122.229 25.8632 123.608 26.4367 124.626 27.4541C125.643 28.4716 126.217 29.8505 126.221 31.2894V104.761" stroke="white" stroke-width="2.11094" stroke-linecap="round" stroke-linejoin="round"/>
<path opacity="0.3" d="M93.3796 107.13C94.4813 107.13 95.3744 106.237 95.3744 105.135C95.3744 104.033 94.4813 103.14 93.3796 103.14C92.2779 103.14 91.3848 104.033 91.3848 105.135C91.3848 106.237 92.2779 107.13 93.3796 107.13Z" fill="white"/>
<path d="M95.3909 31.6641H88.752" stroke="white" stroke-width="1.5832" stroke-linecap="round" stroke-linejoin="round"/>
<path d="M58.4121 68.8376V104.813C58.4163 106.256 58.9927 107.638 60.0147 108.656C61.0368 109.674 62.421 110.245 63.8636 110.244H120.79C122.229 110.24 123.608 109.666 124.626 108.649C125.643 107.631 126.217 106.252 126.221 104.813" stroke="white" stroke-width="2.11094" stroke-linecap="round" stroke-linejoin="round"/>
<path d="M129.657 118.007C137.162 118.007 143.246 111.923 143.246 104.418C143.246 96.9124 137.162 90.8284 129.657 90.8284C122.151 90.8284 116.067 96.9124 116.067 104.418C116.067 111.923 122.151 118.007 129.657 118.007Z" fill="white"/>
<path d="M130.247 115.516C136.248 115.516 141.113 110.651 141.113 104.65C141.113 98.6486 136.248 93.7837 130.247 93.7837C124.246 93.7837 119.381 98.6486 119.381 104.65C119.381 110.651 124.246 115.516 130.247 115.516Z" stroke="#81B441" stroke-width="2.11094" stroke-miterlimit="10" stroke-linecap="round"/>
<path opacity="0.22" d="M131.746 117.796C138.004 117.796 143.077 112.723 143.077 106.465C143.077 100.207 138.004 95.1346 131.746 95.1346C125.489 95.1346 120.416 100.207 120.416 106.465C120.416 112.723 125.489 117.796 131.746 117.796Z" fill="#81B441"/>
<path opacity="0.3" d="M100.468 59.2487C100.06 57.8027 99.7428 56.3328 99.5178 54.8474C99.4861 54.0716 98.5678 53.5386 98.5678 53.5386C97.448 52.8865 96.249 52.381 95.0004 52.0346L95.0479 51.9871C95.0607 51.9704 95.0677 51.95 95.0677 51.929C95.0677 51.908 95.0607 51.8876 95.0479 51.871C94.9265 51.6704 94.4621 51.1849 93.2483 50.8999C93.6299 50.3681 93.9059 49.768 94.061 49.132C94.0642 49.1111 94.0715 49.091 94.0826 49.073C94.0937 49.055 94.1083 49.0393 94.1255 49.0271C94.1427 49.0148 94.1622 49.006 94.1829 49.0014C94.2035 48.9968 94.2249 48.9963 94.2457 49.0001C94.4832 49.0423 94.8895 48.9368 95.0267 47.7494C95.0267 47.6808 95.2431 46.868 94.4304 47.0422H94.2932C94.3695 46.9841 94.4325 46.9103 94.4779 46.8258C94.7381 46.3096 94.8633 45.7359 94.842 45.1582C94.8354 44.5271 94.6837 43.9059 94.3987 43.3428L94.3037 43.1581C94.266 43.0718 94.2181 42.9904 94.1613 42.9153C93.1058 41.6699 90.9949 41.5538 90.2824 41.8229C89.8008 41.8418 89.3275 41.9547 88.8892 42.1554C88.2899 42.6259 87.8586 43.2775 87.6596 44.013C87.4864 44.7852 87.4756 45.5849 87.6279 46.3614C87.6747 46.6142 87.7795 46.8526 87.934 47.058H87.8232C87.0105 46.8892 87.211 47.7019 87.2268 47.7652C87.3588 48.8998 87.7546 49.0476 87.9762 49.0212C88.0292 49.0151 88.0825 49.0299 88.1249 49.0624C88.1672 49.0949 88.1953 49.1426 88.2031 49.1954C88.3796 49.8488 88.6748 50.4641 89.0739 51.0108C88.0184 51.301 87.5804 51.7021 87.4643 51.8815C87.4539 51.8971 87.4483 51.9155 87.4483 51.9343C87.4483 51.9531 87.4539 51.9714 87.4643 51.9871C86.2928 52.3639 85.1684 52.8738 84.1132 53.5069C84.1132 53.5069 83.1897 54.0347 83.1633 54.8157C82.9383 56.3011 82.621 57.7711 82.2134 59.217C81.9954 60.0965 81.875 60.9973 81.8545 61.9032H100.805C100.816 61.007 100.702 60.1136 100.468 59.2487Z" fill="#81B441"/>
<path d="M101.522 60.3042C101.115 58.8583 100.797 57.3883 100.572 55.9029C100.541 55.1272 99.6225 54.5941 99.6225 54.5941C98.5027 53.942 97.3037 53.4366 96.055 53.0901L96.1025 53.0426C96.1154 53.026 96.1223 53.0056 96.1223 52.9846C96.1223 52.9636 96.1154 52.9431 96.1025 52.9265C95.9812 52.726 95.5168 52.2405 94.303 51.9555C94.6846 51.4237 94.9605 50.8235 95.1157 50.1876C95.1189 50.1666 95.1262 50.1466 95.1373 50.1285C95.1484 50.1105 95.163 50.0949 95.1802 50.0826C95.1974 50.0703 95.2169 50.0616 95.2375 50.0569C95.2582 50.0523 95.2796 50.0519 95.3004 50.0556C95.5379 50.0979 95.9442 49.9923 96.0814 48.8049C96.0814 48.7363 96.2978 47.9236 95.4851 48.0977H95.3479C95.4242 48.0397 95.4872 47.9659 95.5326 47.8814C95.7928 47.3651 95.918 46.7914 95.8967 46.2137C95.8901 45.5826 95.7384 44.9615 95.4534 44.3983L95.3584 44.2136C95.3206 44.1274 95.2728 44.0459 95.2159 43.9709C94.1605 42.7254 92.0495 42.6093 91.3371 42.8784C90.8554 42.8973 90.3821 43.0103 89.9439 43.2109C89.3446 43.6815 88.9133 44.333 88.7143 45.0685C88.5411 45.8407 88.5303 46.6404 88.6826 47.417C88.7294 47.6697 88.8342 47.9082 88.9887 48.1136H88.8779C88.0651 47.9447 88.2657 48.7574 88.2815 48.8207C88.4135 49.9554 88.8093 50.1031 89.0309 50.0767C89.0839 50.0707 89.1372 50.0855 89.1796 50.118C89.2219 50.1504 89.25 50.1981 89.2578 50.2509C89.4343 50.9043 89.7295 51.5197 90.1286 52.0663C89.0731 52.3566 88.6351 52.7576 88.519 52.9371C88.5086 52.9527 88.503 52.9711 88.503 52.9898C88.503 53.0086 88.5086 53.027 88.519 53.0426C87.3475 53.4194 86.2231 53.9294 85.1679 54.5625C85.1679 54.5625 84.2444 55.0902 84.218 55.8713C83.993 57.3567 83.6757 58.8266 83.268 60.2726C83.0501 61.1521 82.9297 62.0529 82.9092 62.9587H101.86C101.871 62.0625 101.757 61.1692 101.522 60.3042Z" stroke="#81B441" stroke-width="1.05547" stroke-linecap="round" stroke-linejoin="round"/>
<path d="M58.4121 48.7152V51.4858" stroke="white" stroke-width="2.11094" stroke-linecap="round" stroke-linejoin="round"/>
<path d="M125.799 106.053L128.153 108.407L134.696 101.863" stroke="#81B441" stroke-width="2.11094" stroke-linecap="round" stroke-linejoin="round"/>
</svg>
