<svg width="24" height="24" viewBox="0 0 24 24" fill="none" xmlns="http://www.w3.org/2000/svg">
<path fill-rule="evenodd" clip-rule="evenodd" d="M23 3H1C0.734784 3 0.48043 3.10536 0.292893 3.29289C0.105357 3.48043 0 3.73478 0 4L0 20C0 20.2652 0.105357 20.5196 0.292893 20.7071C0.48043 20.8946 0.734784 21 1 21H23C23.2652 21 23.5196 20.8946 23.7071 20.7071C23.8946 20.5196 24 20.2652 24 20V4C24 3.73478 23.8946 3.48043 23.7071 3.29289C23.5196 3.10536 23.2652 3 23 3ZM2 19H22V5H2V19Z" fill="black" fill-opacity="0.6"/>
<path fill-rule="evenodd" clip-rule="evenodd" d="M4 9H10V7H4V9ZM4 13H10V11H4V13ZM4 17H10V15H4V17ZM2 19H12V5H2V19Z" fill="black" fill-opacity="0.15"/>
<path fill-rule="evenodd" clip-rule="evenodd" d="M14 9H20V7H14V9ZM14 13H20V11H14V13ZM20 17H14V15H20V17Z" fill="black" fill-opacity="0.36"/>
<path fill-rule="evenodd" clip-rule="evenodd" d="M10 7.53443V16.4674C10.0001 16.5184 10.0141 16.5685 10.0406 16.6121C10.067 16.6557 10.1049 16.6913 10.1501 16.715C10.1952 16.7387 10.246 16.7495 10.297 16.7464C10.3479 16.7433 10.397 16.7264 10.439 16.6974L16.872 12.2614C16.9132 12.2319 16.9465 12.1926 16.9688 12.147C16.9912 12.1015 17.0019 12.0511 17 12.0004C17.0019 11.9499 16.9912 11.8996 16.9689 11.8543C16.9465 11.8089 16.9132 11.7698 16.872 11.7404L10.439 7.30343C10.397 7.27446 10.3479 7.25751 10.297 7.25442C10.246 7.25133 10.1952 7.26221 10.1501 7.28588C10.1049 7.30956 10.067 7.34513 10.0406 7.38876C10.0141 7.43239 10.0001 7.48341 10 7.53443Z" fill="black" fill-opacity="0.6"/>
</svg>
