<svg width="17" height="17" viewBox="0 0 17 17" fill="none" xmlns="http://www.w3.org/2000/svg">
<path fill-rule="evenodd" clip-rule="evenodd" d="M8.18031 2.14039C8.50323 1.55322 9.34695 1.55322 9.66986 2.14039L12.1625 6.67253H5.68764L8.18031 2.14039ZM3.74746 6.67253L6.69071 1.32112C7.65951 -0.440378 10.1907 -0.440369 11.1594 1.32112L14.1027 6.67253H16.1502C16.4048 6.67253 16.6461 6.78668 16.8075 6.98363C16.969 7.18058 17.0336 7.43949 16.9837 7.68922L15.5569 14.8227C15.3186 16.0146 14.272 16.8726 13.0565 16.8726H3.94372C2.72816 16.8726 1.6816 16.0146 1.4432 14.8227L0.0165156 7.68922C-0.0334309 7.43949 0.0312208 7.18058 0.192671 6.98363C0.354122 6.78668 0.595363 6.67253 0.850017 6.67253H3.74746ZM4.25004 8.37254H1.88686L3.11021 14.4893C3.18967 14.8866 3.53853 15.1726 3.94372 15.1726H13.0565C13.4617 15.1726 13.8105 14.8866 13.89 14.4893L15.1133 8.37254H13.6001H4.25004Z" fill="#0E0E0E"/>
</svg>
