<svg width="21" height="21" viewBox="0 0 21 21" fill="none" xmlns="http://www.w3.org/2000/svg">
<path d="M18.07 2.96096C17.143 2.02557 16.0404 1.28248 14.8255 0.774363C13.6106 0.266243 12.3072 0.00309557 10.9903 2.71478e-05C9.67344 -0.00304128 8.36891 0.25403 7.15163 0.756483C5.93435 1.25894 4.8283 1.99687 3.89697 2.92793C2.96565 3.85899 2.2274 4.96483 1.7246 6.18197C1.22181 7.39911 0.964366 8.70357 0.967062 10.0205C0.969758 11.3374 1.23254 12.6408 1.74031 13.8558C2.24809 15.0709 2.99086 16.1737 3.92599 17.101C5.80389 18.963 8.34294 20.0054 10.9875 20C13.6321 19.9946 16.1668 18.9418 18.0371 17.0721C19.9074 15.2023 20.9609 12.6679 20.967 10.0233C20.9732 7.37873 19.9315 4.83939 18.07 2.96096ZM5.33999 15.691C4.59018 14.9493 3.99441 14.0667 3.58696 13.0939C3.17951 12.1212 2.96842 11.0775 2.96584 10.0228C2.96326 8.96819 3.16924 7.92344 3.57192 6.9487C3.9746 5.97396 4.56604 5.08846 5.31222 4.34314C6.05839 3.59783 6.94457 3.0074 7.91977 2.60584C8.89498 2.20428 9.93995 1.99951 10.9946 2.0033C12.0492 2.00709 13.0927 2.21938 14.065 2.62794C15.0373 3.03651 15.9192 3.63329 16.66 4.38396C18.1444 5.88818 18.9734 7.91868 18.9658 10.032C18.9582 12.1454 18.1146 14.1698 16.6194 15.6634C15.1242 17.1569 13.0987 17.9981 10.9854 18.0032C8.87205 18.0084 6.84251 17.1771 5.33999 15.691ZM8.99999 8.03096L5.99999 15.031C4.68717 13.7181 3.94963 11.9376 3.94963 10.081C3.94963 8.22435 4.68717 6.44378 5.99999 5.13096C7.31281 3.81813 9.09338 3.0806 10.95 3.0806C12.8066 3.0806 14.5872 3.81813 15.9 5.13096L8.99999 8.03096ZM10.12 10.911C10.0031 10.7959 9.91026 10.6587 9.84676 10.5075C9.78327 10.3563 9.75041 10.1939 9.75008 10.0299C9.74976 9.86589 9.78198 9.70343 9.84488 9.55195C9.90779 9.40047 10.0001 9.26297 10.1165 9.14742C10.2329 9.03187 10.3711 8.94056 10.5231 8.87879C10.675 8.81701 10.8377 8.78599 11.0017 8.78753C11.1657 8.78907 11.3278 8.82313 11.4786 8.88775C11.6293 8.95236 11.7658 9.04624 11.88 9.16396C12.1073 9.39823 12.2331 9.71269 12.23 10.0391C12.227 10.3655 12.0953 10.6776 11.8636 10.9075C11.632 11.1375 11.3189 11.2668 10.9925 11.2675C10.6661 11.2681 10.3526 11.14 10.12 10.911ZM15.95 15.031C15.2991 15.6886 14.5242 16.2106 13.6703 16.5669C12.8164 16.9231 11.9003 17.1066 10.975 17.1066C10.0497 17.1066 9.13361 16.9231 8.27967 16.5669C7.42574 16.2106 6.6509 15.6886 5.99999 15.031L13 12.031L15.95 5.08096C16.6076 5.73187 17.1296 6.5067 17.4859 7.36064C17.8422 8.21458 18.0256 9.13068 18.0256 10.056C18.0256 10.9812 17.8422 11.8973 17.4859 12.7513C17.1296 13.6052 16.6076 14.38 15.95 15.031Z" fill="black" fill-opacity="0.6"/>
</svg>
