<svg width="32" height="32" viewBox="0 0 32 32" fill="none" xmlns="http://www.w3.org/2000/svg">
<path fill-rule="evenodd" clip-rule="evenodd" d="M10.5127 26.8106C11.2034 27.5799 12.09 28.0026 13.01 28.0026H13.0114C13.9354 28.0026 14.826 27.5799 15.518 26.8093C15.8887 26.3999 16.5207 26.3666 16.93 26.7359C17.3407 27.1053 17.374 27.7386 17.0047 28.1479C15.9274 29.3439 14.51 30.0026 13.0114 30.0026H13.0087C11.514 30.0013 10.0994 29.3426 9.02604 28.1466C8.6567 27.7373 8.69004 27.1039 9.1007 26.7359C9.51137 26.3653 10.1434 26.3986 10.5127 26.8106ZM13.0764 1.33594C19.0031 1.33594 22.9844 5.95194 22.9844 10.2626C22.9844 12.4799 23.5484 13.4199 24.1471 14.4173C24.7391 15.4013 25.4098 16.5186 25.4098 18.6306C24.9444 24.0266 19.3111 24.4666 13.0764 24.4666C6.84177 24.4666 1.20711 24.0266 0.747088 18.7159C0.743106 16.5186 1.41377 15.4013 2.00577 14.4173L2.21476 14.0655C2.72934 13.1811 3.16844 12.2191 3.16844 10.2626C3.16844 5.95194 7.14977 1.33594 13.0764 1.33594ZM13.0764 3.33594C8.41644 3.33594 5.16844 6.9866 5.16844 10.2626C5.16844 13.0346 4.39911 14.3159 3.71911 15.4466C3.17377 16.3546 2.74311 17.0719 2.74311 18.6306C2.96577 21.1453 4.62577 22.4666 13.0764 22.4666C21.4804 22.4666 23.1924 21.0866 23.4138 18.5439C23.4098 17.0719 22.9791 16.3546 22.4338 15.4466C21.7538 14.3159 20.9844 13.0346 20.9844 10.2626C20.9844 6.9866 17.7364 3.33594 13.0764 3.33594Z" fill="#232323"/>
<circle cx="21.4097" cy="5.33594" r="4.5" fill="#828282" stroke="#FEFEFE"/>
</svg>
