<svg width="97" height="110" viewBox="0 0 97 110" fill="none" xmlns="http://www.w3.org/2000/svg">
<g clip-path="url(#clip0_47_37084)">
<path d="M90.9691 35.0153C91.6637 33.9102 92.2952 32.7419 92.8005 31.542C93.0531 26.9004 92.3268 23.2692 90.527 19.1328C88.1589 23.7113 85.7275 27.6266 81.0228 30.4684L79.7598 31.2262L86.2012 41.0146C90.7165 39.3727 91.0006 38.8991 93.9056 35.1416L91.2533 35.0469C91.1585 35.0469 91.0322 35.0469 90.9375 35.0153H90.9691Z" fill="#7F3E13"/>
<path d="M81.7173 31.64C84.7485 29.8402 87.3693 27.3141 90.2743 22.6094C91.1268 25.4196 91.5057 28.3245 91.411 31.2611C90.6532 32.9977 89.6743 34.6396 88.4745 36.0921C89.3586 36.3447 90.3058 36.4395 91.2215 36.4395C89.8953 38.2077 88.506 38.7129 86.8009 39.3444L81.7173 31.64Z" fill="#B85A1B"/>
<path d="M81.7173 31.64C84.7485 29.8402 87.3693 27.3141 90.2743 22.6094C90.0532 25.4196 89.3901 28.3877 87.7798 30.819C88.4745 30.5664 89.1375 30.2506 89.8006 29.9033C88.6955 32.4294 87.022 34.7028 84.938 36.5342L81.7173 31.64Z" fill="#FF9626"/>
<path d="M21.661 81.5923C22.924 85.3182 24.7869 91.065 27.1235 93.9383C29.0181 96.2749 39.5011 101.516 45.5321 104.011C45.5321 104.011 57.9412 109.126 62.9933 109.821C67.8559 110.515 81.465 107.674 84.2436 103.664C86.0434 101.011 87.338 96.496 88.1274 93.4016C89.5799 87.9074 92.3901 84.1815 93.4321 76.7928C94.0321 72.0565 93.1479 67.2254 90.8745 62.9943C90.3693 58.6053 91.064 54.2795 91.727 49.9536V49.5747C90.3693 39.3443 85.854 27.093 76.5076 21.5672C68.2033 16.6415 57.0571 15.7258 47.6792 16.9572C37.4803 18.3465 27.9129 22.7355 20.2401 29.5874C13.7671 35.3973 8.8413 43.4175 9.06233 52.3534C9.25178 60.784 12.4093 68.7095 17.3351 75.4351L21.5978 81.5923H21.661Z" fill="#9A4C18"/>
<path d="M48.0577 18.629C26.9021 21.4392 10.1039 36.5323 10.4828 52.3201C10.6723 59.9929 13.3878 67.6658 18.503 74.644L22.8605 80.9591C24.2814 85.1902 26.0496 90.5265 28.1336 93.0525C30.3754 95.768 51.7205 106.851 63.1508 108.461C67.4451 109.093 80.6121 106.409 83.0434 102.872C84.4959 100.725 85.2221 97.6625 86.4535 93.0209C87.5903 88.7267 90.6215 83.3588 91.5688 76.5701C92.1371 72.0232 91.253 67.4132 89.0427 63.4031C88.4744 58.7931 89.169 54.5304 89.8637 49.7309C88.506 39.4688 84.4959 28.1648 75.781 23.018C68.7397 18.8185 58.5408 17.2397 48.0577 18.629Z" fill="#E5895B"/>
<path d="M48.0581 18.6314C52.8892 22.8941 56.6151 29.7144 56.6151 36.8505C42.3745 38.8081 38.9644 40.1659 32.5229 44.397C35.2069 47.4914 37.1961 51.5962 38.396 56.4273C42.5008 56.6799 46.3214 56.9641 49.3843 57.343L55.131 61.1952C46.7319 63.4055 44.1112 63.1529 40.7957 64.6685C39.9748 69.0891 39.9748 74.9305 42.2482 80.0458C36.6909 79.6353 34.5122 82.4139 35.5542 86.2661C40.3537 91.1288 43.9533 93.9706 49.7948 97.8544C47.5529 96.8755 46.2899 96.6229 43.8901 95.7388C49.7 101.075 55.5415 104.612 63.2459 108.464C67.5402 109.064 80.7072 106.411 83.1385 102.875C84.591 100.728 85.3172 97.6649 86.5487 93.0233C87.6854 88.729 90.7166 83.3612 91.6639 76.5725C92.2323 72.0256 91.3481 67.4156 89.1379 63.4055C88.5695 58.7954 89.2642 54.5327 89.9588 49.7333C88.6011 39.4712 84.591 28.1672 75.8761 23.0204C68.7716 18.8208 58.5728 17.2421 48.0581 18.5998V18.6314Z" fill="url(#paint0_linear_47_37084)"/>
<path d="M83.1069 102.872C84.5594 100.725 85.3172 97.6618 86.5171 93.0202C87.6538 88.7259 90.6851 83.3581 91.6323 76.5693C92.2007 72.0225 91.3166 67.4124 89.1063 63.4023C90.6535 68.8333 91.1587 74.4853 90.1483 78.527C89.0116 83.0107 87.0539 88.6312 86.075 91.8835C84.37 97.5671 84.1174 99.7142 83.1069 102.872Z" fill="#FBFAC4"/>
<path d="M13.8931 66.75L15.1561 69.2129L25.5129 70.8232L28.1336 73.4756L37.922 75.9069L35.3328 68.4867L13.8931 66.7816V66.75Z" fill="#B26036"/>
<path d="M87.6535 43.888C85.4432 37.0361 84.1802 32.1104 77.644 28.2266C82.7277 33.8786 83.1066 37.5729 84.6222 44.8037L87.6535 43.888Z" fill="#FBFAC4"/>
<path d="M79.507 81.4342C77.1704 82.4447 75.2759 82.6341 71.6447 82.0658C63.4035 84.8444 51.9416 85.0654 46.4474 83.7077C44.7108 83.3288 41.048 81.1185 39.2482 81.0238C37.9852 81.4342 36.7853 82.0658 35.7118 82.8551C36.4064 82.7288 37.1011 82.6341 37.7957 82.571C36.6274 83.3603 35.7118 84.1813 35.396 86.8337C34.0698 84.8444 33.2173 82.2868 32.6489 80.2028L25.1024 72.6562C29.2388 80.9922 29.0809 88.8229 23.3973 86.4232H23.3657C23.6815 87.2757 23.9972 88.0967 24.3761 88.9176C25.1971 90.8437 26.1128 92.6435 27.1864 93.9066C29.5861 96.8115 41.1427 100.569 45.4686 102.59C47.2368 103.411 50.8048 104.8 52.952 105.621C53.2362 105.811 54.1519 106.379 54.436 106.537C57.2778 108.21 60.3091 109.442 63.0562 109.821C67.9188 110.515 81.5278 107.673 84.3065 103.663C86.1063 101.011 87.4009 96.4958 88.1903 93.4014C89.6427 87.9072 92.453 84.1813 93.495 76.7926C90.4637 80.2975 87.5903 81.6868 79.507 81.4342ZM82.8224 93.7803C83.2329 92.012 83.2329 90.97 83.4224 89.6123C82.0015 93.2435 80.4858 97.8219 79.507 99.8743C77.9914 101.832 75.1812 102.558 72.6235 103C74.5181 100.569 73.855 100.727 74.7075 98.9271C72.8761 99.7165 70.0659 100.222 68.7397 100.443C66.7189 102.527 65.7401 103.379 61.0985 103.379C58.6672 103.348 51.2469 98.3271 46.6369 91.6016C45.7212 90.7806 48.7524 96.8747 47.8368 95.8643C45.0581 92.7699 42.8162 88.8229 40.827 83.8971L40.7954 83.8656H40.827V83.8971C51.089 91.2227 76.0337 87.0547 87.6851 82.7604C86.8325 84.4971 84.6538 89.9596 82.8224 93.7803Z" fill="#A86D54" fill-opacity="0.502"/>
<path d="M21.2819 48.0898C27.6917 44.806 31.5439 41.4274 39.0905 39.2487C49.6367 36.1859 60.1514 37.5752 70.6976 38.8698L41.6481 18.5352C30.5335 19.3245 24.3132 22.2926 15.2194 28.4183C8.62012 32.8389 7.29394 33.7861 0.315755 36.9121C2.05241 37.5436 4.10482 38.3962 5.84147 38.8066L0 41.4906C1.57878 41.9642 3.69434 42.722 5.27311 42.9746C7.42025 50.2054 8.43066 55.5101 10.0094 62.7093C18.377 67.9508 24.8815 73.9818 32.5859 80.2337C29.4915 72.8451 28.9232 67.0352 28.5127 59.1728C29.0495 56.6468 30.0283 55.668 32.0176 53.9629C27.6602 53.6156 25.0394 52.8893 20.9977 50.7422C21.5345 49.7949 22.4818 49.1003 23.8079 48.4688C22.9554 48.4372 22.1029 48.3424 21.2503 48.153L21.2819 48.0898Z" fill="#663010"/>
<path d="M64.856 36.4372C33.1857 32.5218 29.1756 44.4258 15.4087 49.0674C17.0506 49.2568 18.6925 49.3516 20.366 49.3831C19.8608 49.9515 19.4188 50.6146 19.103 51.3092C22.0395 52.4775 24.755 54.4984 29.0809 54.8141C27.881 56.0772 27.4705 57.0876 27.1232 58.9505C27.439 65.1393 28.1652 72.0228 30.1545 76.4118C24.1867 71.5492 18.2189 66.0866 11.2407 61.7607C9.63037 54.4984 8.99886 50.6146 6.6307 42.7207C7.07275 42.4365 7.51481 42.0892 7.86214 41.7103C6.37809 41.6787 4.73617 41.4893 3.85205 41.2051C6.12549 40.2262 8.33577 39.1211 10.4829 37.8581C8.24105 37.9212 6.03076 37.5423 3.94678 36.7845C16.6717 31.1009 22.229 21.5335 41.3638 20.1758L64.8244 36.4688L64.856 36.4372Z" fill="#7F3E13"/>
<path d="M64.8561 36.4368C37.2275 33.0583 28.9232 40.5732 18.3138 45.4674C16.5771 45.6253 14.8089 45.6569 13.0723 45.499C15.6615 44.6781 16.6719 43.9834 18.4401 42.8467C13.7038 43.3519 10.4515 43.3519 6.63086 42.7835C7.07292 42.4993 7.51497 42.152 7.89388 41.7731C6.40983 41.7415 4.7679 41.5521 3.88379 41.2679C6.15723 40.2891 8.36751 39.1523 10.5146 37.9209C8.27279 37.984 6.0625 37.6051 3.97852 36.8473C16.735 31.1637 22.2607 21.5648 41.3955 20.207L64.8561 36.5V36.4368ZM19.0716 51.3721C22.0081 52.5404 24.7236 54.5612 29.0495 54.877C23.9027 57.0241 21.0609 57.4977 17.8402 57.403C16.7982 56.7399 16.1667 56.2031 15.0299 55.4453C17.3034 55.8242 18.3454 55.9821 20.903 55.8558C16.5771 55.2559 11.6514 51.6878 9.81999 49.888C12.1566 50.7406 15.5667 51.2458 19.0716 51.3721Z" fill="#B85A1B"/>
<path d="M3.97852 36.7868C12.2197 33.0924 17.4613 27.7562 25.292 24.125C34.9541 25.1354 43.6689 29.1771 51.1208 33.6292C41.2376 32.8083 32.6175 34.1976 22.5765 38.6813C25.3236 35.8711 26.3971 35.208 30.8177 32.9346C23.6185 34.6712 19.4821 37.2604 13.2301 38.7445C15.0299 36.5973 16.1035 35.0817 18.4085 32.4609C12.9775 35.0817 9.44108 36.471 3.97852 36.7868Z" fill="url(#paint1_linear_47_37084)"/>
<path d="M27.5023 54.9111C25.4814 55.4795 23.3975 55.7321 21.2819 55.6689C18.6296 54.5322 17.2402 53.6481 13.8301 51.7852C19.2295 53.6165 22.8607 54.627 27.5023 54.9111Z" fill="#FF9701"/>
<path d="M79.665 21.5345C78.4652 16.3245 76.5075 11.304 73.5078 6.75716C70.1292 3.66276 66.1191 1.57878 62.2985 0C64.2246 2.36816 65.8034 5.43099 66.9401 7.83073C58.7936 3.18913 51.1839 2.21029 42.7848 2.46289C46.8265 5.8099 47.9632 7.3571 50.5208 10.7041C40.6377 10.041 30.8809 12.9144 22.0713 16.5771C27.7865 19.2926 33.3122 22.3555 38.6169 25.734L46.2266 30.6598L44.2373 33.3753L41.5218 33.5964L32.7438 36.9749C41.8691 34.9857 52.1312 35.5225 61.2881 38.0485C59.362 39.0273 57.3096 39.8483 55.2256 40.4798C61.9196 40.7956 66.5612 41.0166 74.1077 40.0693C79.0967 37.6696 83.2646 32.1439 85.9801 26.0498C85.3802 19.9557 83.0752 15.472 80.2334 11.6198C80.7386 15.472 80.6123 17.998 79.665 21.5977V21.5345Z" fill="#7F3E13"/>
<path d="M84.6857 25.4834C84.4015 22.0417 83.3595 18.6947 81.686 15.6634C81.8755 18.821 81.4019 21.347 80.3914 23.3363C80.423 26.2096 80.0441 28.6725 79.6652 31.1354C78.9074 20.2419 75.9077 12.8848 72.3713 7.48535C69.8452 5.33822 68.0454 4.0752 65.5825 2.84375C67.0981 5.30664 68.5822 7.5485 69.561 9.56934C70.8872 10.8639 72.0239 12.3164 72.9396 13.8952C65.5825 7.07487 56.0783 4.01204 46.3214 3.60156C53.1418 9.56934 56.6466 16.1055 57.9728 21.3154C55.6047 17.1159 54.2469 14.7793 51.784 12.2533C44.5848 11.7165 33.7544 13.6742 25.8921 16.6423C33.8491 20.4945 41.6798 25.7992 46.2267 30.5986C41.1115 31.6722 36.8172 34.0719 32.744 36.9137C41.7114 33.693 53.2681 34.0404 65.3615 37.6715C64.0669 38.2399 62.8986 38.8714 61.604 39.3451C64.7931 39.2819 68.9611 39.3135 73.7922 38.682C78.339 35.998 81.244 33.1562 84.6857 25.4834Z" fill="#B85A1B"/>
<path d="M25.8921 16.6419C33.8491 20.4941 41.6798 25.7988 46.2267 30.5983C41.1115 31.6719 36.8172 34.0716 32.744 36.9134C41.2378 33.7874 50.7736 31.9876 63.0565 34.7663C60.7515 28.3564 54.5942 20.1784 50.1421 17.6208C52.6366 20.9993 53.5207 22.736 54.0575 25.0094C50.4578 20.7152 47.174 18.3154 42.9744 16.0736C37.2909 15.6631 31.5757 15.8525 25.9237 16.6104L25.8921 16.6419ZM78.8127 24.2832C77.5181 17.0208 75.0868 11.6846 72.3397 7.5166C69.8136 5.36947 68.0138 4.10645 65.5509 2.875C70.0347 6.00098 71.6766 10.1058 72.9396 13.9264C65.5825 7.10612 56.0783 4.04329 46.3214 3.63281C55.8888 6.47461 61.1935 14.2422 63.9722 19.5784C61.9513 17.9681 59.741 16.6104 57.3729 15.5052C59.7726 22.957 63.2144 31.3245 65.5509 34.4189C64.6668 30.1247 64.1616 27.8512 63.688 24.0938C65.3299 28.7669 70.2873 35.9977 73.729 38.7132C74.6763 33.6611 75.8761 28.5459 75.2446 21.4098C76.6655 27.0934 77.3286 30.5352 77.3286 34.9557C78.1496 33.819 78.6548 27.5355 78.8127 24.2832ZM81.686 15.6631C81.8755 18.8206 81.4019 21.3467 80.3914 23.3359C80.3914 24.7253 80.3599 26.1462 80.202 27.5355C81.0545 26.3988 81.686 25.1042 82.1281 23.7464C82.507 24.2832 82.7912 24.8831 83.0122 25.4831C83.2964 22.8307 83.2332 20.21 81.7176 15.6631H81.686Z" fill="url(#paint2_linear_47_37084)"/>
<path d="M78.181 25.0062C76.9495 17.2386 75.1497 12.9443 71.2028 7.35547C73.8551 12.818 76.6022 18.6911 78.181 25.0062ZM54.8467 31.7633C53.0469 31.1318 51.2155 30.5951 49.0368 30.5635C45.7529 30.974 42.9111 31.9528 40.0693 32.9632C44.9004 32.0475 49.7946 31.3213 54.8467 31.7633ZM56.3939 31.1318C53.11 24.0273 47.9001 20.112 42.8796 17.0807C48.7526 22.3223 52.0049 25.543 56.3939 31.1318ZM62.3617 26.9323C61.7301 23.0801 60.2145 19.4489 57.9411 16.2598C59.2988 20.0804 60.5303 23.8063 62.3617 26.9323ZM66.8454 25.9534C66.9085 24.0589 66.8454 22.1644 66.6559 20.2699C65.1087 16.0387 62.5827 14.0179 59.4883 11.6813C63.2142 15.6598 65.7718 20.5856 66.8454 25.9534ZM74.8971 26.2376C74.9287 23.5221 74.7708 20.7751 74.3919 18.0911C72.1185 14.1442 67.8874 10.734 62.7406 7.89225C68.9609 13.3548 72.6553 16.8597 74.8971 26.2376Z" fill="#FDE049"/>
<path d="M21.6925 80.8662L23.5555 73.9511C23.4607 67.9833 14.2407 57.8476 7.23092 59.679C1.13685 61.2578 4.1681 72.5934 5.8416 76.4772C8.24134 82.0345 15.5669 87.9075 21.882 87.8444C24.5975 87.8128 26.7446 86.3919 26.7762 83.7711L21.6925 80.8662Z" fill="#9A4C18"/>
<path d="M26.7761 83.7374C26.0815 80.3588 24.9763 77.075 23.5239 73.949C21.7241 69.8442 14.0828 59.6137 7.64138 61.3188C3.47341 62.4239 5.14691 70.9493 7.26247 75.8751C10.9252 84.3689 23.8396 89.8946 26.7761 83.8005V83.7374Z" fill="url(#paint3_linear_47_37084)"/>
<path d="M20.7769 69.4341C17.5246 65.0451 12.2831 60.0877 7.64148 61.2876C4.42078 62.1402 4.67338 67.3501 5.90482 71.9601C9.94649 76.3491 16.0721 79.1594 20.1454 77.9595C24.0292 76.7912 22.7346 72.0233 20.7769 69.4341Z" fill="url(#paint4_linear_47_37084)"/>
<path d="M20.6503 80.1701C17.9032 79.2545 16.6402 74.8339 20.7766 75.2444C18.9452 70.4765 13.8299 64.4771 9.66197 65.4875C6.31497 66.3085 7.98847 77.8336 17.3032 79.6334L20.6503 80.1701Z" fill="#9A4C18"/>
<path d="M20.7453 80.17C15.9142 79.2228 16.7036 74.3601 19.3244 74.4233C17.5562 71.0131 13.4514 65.519 9.85175 66.4978C7.42043 67.1609 9.28339 73.7286 10.7359 76.1284C13.4829 80.77 18.7876 82.475 20.7453 80.17Z" fill="url(#paint5_linear_47_37084)"/>
<path d="M82.5068 76.5075C80.2334 75.1497 75.9391 72.6553 74.0762 66.3086C74.613 70.5081 77.96 76.6022 81.5596 78.1494C82.1279 77.8337 82.5068 77.2021 82.5068 76.5075Z" fill="#FBFAC4"/>
<path d="M82.5067 76.5078C81.812 77.8656 80.4227 78.055 79.0649 78.0866C77.7703 78.1182 76.4757 77.8024 75.1496 77.6445C74.076 78.2129 73.5076 79.1917 73.1919 80.4548C75.5916 80.8968 78.244 81.1178 80.549 80.6442C82.2541 79.918 83.2961 77.7393 82.5067 76.5078Z" fill="#E5895B"/>
<path d="M84.0224 75.3388C79.7913 73.7916 75.3707 69.2131 73.9814 64.3505C73.7288 63.4664 73.7288 64.6978 73.792 65.0136C74.5814 70.9498 78.9388 75.0546 82.4437 76.5071C82.9489 77.5175 81.7174 79.8857 80.5176 80.6435C82.7278 80.1383 84.1803 78.2753 83.9909 75.3388H84.0224ZM60.025 77.0439C60.025 77.0439 67.3821 69.971 59.3304 60.3088C59.3304 60.3088 48.3421 56.2988 38.2695 64.761C38.2695 64.761 36.3434 69.6552 40.3535 75.2441C40.3851 75.2441 47.5843 80.9908 60.025 77.0439Z" fill="#9A4C18"/>
<path d="M59.5513 75.9721C59.5513 75.9721 66.3085 70.0044 58.8566 61.7947C58.8566 61.7947 48.7525 58.353 39.5008 65.5206C39.5008 65.5206 37.7326 69.657 41.4585 74.3934C41.4585 74.3934 48.121 79.2876 59.5513 75.9721Z" fill="url(#paint6_linear_47_37084)"/>
<path d="M92.2952 69.7499C92.2952 69.7499 95.0107 54.72 86.359 53.2991C77.7073 51.8782 76.7916 56.1409 75.4339 60.0562C74.0761 63.9716 77.2337 73.3811 77.2337 73.3811C77.2337 73.3811 82.8857 74.0758 92.2952 69.7499Z" fill="#9A4C18"/>
<path d="M91.2846 69.2105C91.2846 69.2105 93.6843 56.1066 86.0431 54.8752C78.4018 53.6438 77.6124 57.3697 76.4125 60.7482C75.2127 64.1268 77.9913 72.368 77.9913 72.368C77.9913 72.368 83.0118 72.968 91.2846 69.2105ZM56.7094 50.1073L61.6036 62.7375L39.2166 62.4533C39.2166 62.4533 37.4483 66.8739 37.3536 61.6639C37.2589 56.454 40.448 49.16 45.9737 49.4126C51.4994 49.6652 56.7094 50.1073 56.7094 50.1073Z" fill="#E5895B"/>
<path d="M75.2126 59.9288C74.139 58.35 73.5706 56.5186 73.5391 54.6241C73.4443 50.2667 76.8229 46.6039 81.1488 46.0987C84.9062 45.6566 89.6426 46.1934 90.432 51.4665C91.7581 60.3708 90.874 59.0762 90.874 59.0762L75.2126 59.9288Z" fill="#E5895B"/>
<path d="M91.506 66.5612C91.506 66.5612 94.1899 52.0996 85.5382 50.7103C76.8865 49.321 75.9708 53.4258 74.6131 57.1833C73.2553 60.9407 76.4129 70.0029 76.4129 70.0029C76.4129 70.0029 82.0965 70.7292 91.506 66.5612Z" fill="#9A4C18"/>
<path d="M90.5272 65.3922C90.5272 65.3922 92.9585 51.3727 85.3173 50.0781C77.676 48.7835 76.8866 52.762 75.6551 56.3932C74.4237 60.0244 77.2023 68.8024 77.2023 68.8024C77.2023 68.8024 82.2229 69.4654 90.5272 65.3922Z" fill="url(#paint7_linear_47_37084)"/>
<path d="M59.7724 73.948C59.7724 73.948 67.0979 67.5697 59.0146 58.7602C59.0146 58.7602 48.0263 55.0658 37.9853 62.7387C37.9853 62.7387 36.0592 67.1592 40.1325 72.2429C40.1325 72.2429 47.3632 77.4844 59.7724 73.948Z" fill="#9A4C18"/>
<path d="M59.2989 72.7182C59.2989 72.7182 66.056 66.7505 58.6042 58.5408C58.6042 58.5408 48.5 55.0991 39.2484 62.2667C39.2484 62.2667 37.4802 66.4031 41.2061 71.1395C41.2061 71.1395 47.8685 76.0337 59.2989 72.7182Z" fill="url(#paint8_linear_47_37084)"/>
<path d="M57.7201 52.3222C57.7201 52.3222 55.7939 45.9124 49.6999 46.5123C43.6058 47.1122 37.9538 49.2278 34.8594 53.4905C31.765 57.7532 31.7334 68.2047 31.7334 68.2047L34.6068 65.647C34.6068 65.647 34.5436 58.7004 40.764 55.3534C46.9844 52.0064 50.6471 51.5328 53.3942 51.9749C54.8151 52.2275 56.2676 52.3538 57.7201 52.3222Z" fill="#7F3E13"/>
<path d="M54.8153 49.9206C53.8996 48.4049 52.2576 47.5208 50.4894 47.5208C47.395 47.4577 37.7645 49.6995 34.8911 57.0882C34.8911 57.0882 39.88 53.2991 44.7111 51.6888L43.4797 50.6784C43.4797 50.6468 49.5422 47.7734 54.8153 49.9206Z" fill="url(#paint9_linear_47_37084)"/>
<mask id="mask0_47_37084" style="mask-type:luminance" maskUnits="userSpaceOnUse" x="38" y="64" width="25" height="12">
<path d="M61.7617 64.2578C61.7617 64.2578 58.2253 71.1413 38.1748 66.7523L38.7432 72.7201C38.7432 72.7201 47.7738 77.9616 62.0143 73.2568C62.0143 73.2253 64.0983 66.5628 61.7617 64.2578Z" fill="white"/>
</mask>
<g mask="url(#mask0_47_37084)">
<path d="M42.7218 73.7943C45.9109 73.6048 49.0685 74.2995 51.9103 75.7835C55.352 75.973 56.9308 75.7204 59.3937 75.1204C63.1511 71.7103 62.4565 64.4795 58.6043 61.1641C50.8051 61.7008 42.1534 63.848 40.2905 64.9531C39.1538 67.5739 39.4695 72.6891 42.7218 73.7943Z" fill="#232323"/>
<path d="M42.7218 73.7945C45.9425 73.9208 48.6264 74.5208 51.0577 75.8154C54.5626 75.6259 56.2677 75.3102 58.478 74.426C61.2882 71.3632 60.6567 65.8375 57.7517 62.8378C54.4047 62.08 43.8901 63.6904 41.7114 65.9954C40.2589 68.4583 40.6378 71.9631 42.7218 73.7945Z" fill="url(#paint10_linear_47_37084)"/>
<path d="M60.0884 67.3531C59.7411 65.648 58.9517 64.1008 57.7518 62.8378C54.4048 62.08 43.8901 63.6904 41.7114 65.9954C41.1746 66.9426 40.8589 68.0162 40.8589 69.1214C44.6479 72.5947 58.1938 73.163 59.9621 67.8583C59.9937 67.7005 60.0252 67.511 60.0884 67.3531Z" fill="white"/>
<path d="M43.2268 65.0156C40.7639 67.3206 40.6376 71.1413 42.9426 73.6042C43.0058 73.6673 43.0689 73.7305 43.1321 73.8252C45.3108 73.9199 47.4579 74.3304 49.4788 75.1198C52.0048 74.1409 53.331 71.5518 53.2994 69.3415C53.2363 66.847 51.4365 63.9736 48.2158 63.5C46.4791 63.8158 44.8056 64.321 43.2268 65.0156Z" fill="#022740"/>
<path d="M42.9746 72.7537C43.2904 73.1957 43.6693 73.5747 44.0798 73.922C45.6901 74.0483 47.2689 74.364 48.7845 74.8692C50.0475 74.5219 51.1211 73.701 51.7842 72.5642C50.1107 70.1645 46.8268 69.5646 44.4271 71.2381C43.8587 71.617 43.3535 72.1537 42.9746 72.7537Z" fill="url(#paint11_radial_47_37084)"/>
<path d="M47.2057 65.8984C45.248 65.8984 43.6377 67.4772 43.6377 69.4349C43.6377 71.3926 45.2165 73.0029 47.1742 73.0029C49.1318 73.0029 50.7422 71.4242 50.7422 69.4665V69.3717C50.7106 67.4456 49.1318 65.8984 47.2057 65.8984Z" fill="#151720"/>
<path d="M51.247 63.817C49.6682 63.8486 48.4368 65.1432 48.4684 66.7219C48.4999 68.3007 49.7945 69.5322 51.3733 69.5006C52.9521 69.469 54.1835 68.1744 54.152 66.5956C54.1204 65.0169 52.8258 63.7854 51.247 63.817Z" fill="white"/>
</g>
<path d="M61.9511 63.5625C61.9511 63.5625 58.0673 68.2041 48.0579 67.4463C38.0485 66.6885 38.5221 66.3096 38.5221 66.3096L38.5537 67.1937C38.5537 67.1937 53.3942 72.3721 62.7721 64.8255L61.9511 63.5625Z" fill="#9A4C18"/>
<path d="M77.1703 57.2454C75.6547 60.8766 76.2546 65.6761 78.0229 69.8756C80.5489 71.3597 86.3272 70.7913 88.6638 68.7073C89.8005 64.6972 88.8217 58.5716 86.0115 55.6666C83.3276 52.8249 78.7491 53.4879 77.1703 57.2454Z" fill="#232323"/>
<path d="M77.1075 58.5092C75.7498 61.6984 76.034 67.2241 77.6443 70.8869C80.2335 71.2026 85.6329 70.129 87.3696 68.3924C88.4116 64.8875 87.5906 59.6775 85.0646 57.1199C82.6017 54.6255 78.4969 55.1938 77.1075 58.5092Z" fill="url(#paint12_linear_47_37084)"/>
<path d="M77.1075 58.5092C76.4129 60.0564 76.1603 62.2352 76.255 64.4454C79.0021 67.9503 87.0222 67.7609 87.3064 61.1932C86.9275 59.6775 86.1697 58.2566 85.0961 57.1199C82.6017 54.6255 78.4968 55.1938 77.1075 58.5092Z" fill="white"/>
<path d="M79.8545 58.794C76.9179 58.8571 75.4339 61.9199 75.4971 64.4144C75.5602 66.9089 77.2337 69.877 80.1387 69.8138C83.0436 69.7507 84.5592 66.6878 84.4961 64.1934C84.4329 61.6989 82.7278 58.7308 79.8545 58.794Z" fill="#022740"/>
<path d="M76.7285 67.3208C77.4863 68.6154 78.7178 69.4364 80.0755 69.4048C81.4333 69.3732 82.6016 68.4891 83.3278 67.163C82.57 65.8999 81.3385 65.0474 79.9808 65.079C78.623 65.1105 77.4548 65.9947 76.7285 67.3208Z" fill="url(#paint13_radial_47_37084)"/>
<path d="M79.8861 61.0684C78.4652 61.1 77.3284 62.584 77.36 64.3838C77.3916 66.1836 78.623 67.6045 80.0439 67.5729C81.4648 67.5414 82.6016 66.0573 82.57 64.2575C82.5384 62.4577 81.3385 61.0052 79.8861 61.0684Z" fill="#151720"/>
<path d="M82.7595 60.1844C81.528 60.2475 80.5808 61.3211 80.6755 62.5525C80.7386 63.784 81.8122 64.7312 83.0436 64.6365C84.2435 64.5734 85.1592 63.5629 85.1276 62.3631C85.0961 61.1 84.0225 60.1528 82.791 60.1844H82.7595Z" fill="white"/>
<path d="M33.4385 65.6149L7.38867 63.5625L10.4199 66.0254L23.9342 68.3304L26.2708 70.6354L35.7435 72.3089L33.4385 65.6149Z" fill="#232323"/>
<path d="M33.9438 66.9701L34.5754 69.7171L25.7026 68.4541L24.5975 67.5068L22.7345 67.2227C22.0083 67.0332 20.5243 66.8122 19.6401 65.707L33.9438 67.0016V66.9701Z" fill="#3C3C3C"/>
<path opacity="0.6" d="M67.7925 61.9177C67.5399 60.8126 66.7189 60.2758 65.6138 60.3389C56.4884 60.7179 44.8055 62.5492 36.1538 65.3595C35.4591 65.6121 34.9855 66.212 34.9224 66.9382C51.9416 67.3487 62.993 72.1166 68.0451 74.8637C68.1082 74.8005 68.1398 74.7374 68.1714 74.6742C69.6554 72.1798 68.4871 64.7911 67.7925 61.9177ZM95.5158 66.4962C95.5474 66.3699 95.5789 66.212 95.5789 66.0857C95.8 63.4333 95.0737 58.6023 94.5685 55.8868C94.4106 55.0974 93.6844 54.5606 92.895 54.6554C86.8641 55.1606 80.8963 56.3289 75.3075 58.6654C74.2339 59.1075 74.1707 59.9916 74.3286 60.9705L74.5181 62.3598C84.1802 62.2966 90.4637 64.4122 95.5158 66.4962Z" fill="url(#paint14_linear_47_37084)"/>
<path d="M82.1911 74.4235C86.138 73.8551 91.348 72.4974 94.4108 70.2555C95.7686 69.2767 96.6842 68.2031 96.8421 67.0664C97.3789 63.8141 96.4632 58.1621 95.9264 55.8255C95.8633 55.5729 96.3053 55.1624 96.5579 54.7835C96.9368 54.2783 96.6527 52.4469 96.2738 51.9102C88.001 52.0996 80.8018 53.3626 74.1709 56.236C73.3499 56.6465 72.5606 57.1833 71.8659 57.7832C70.887 58.4779 69.624 58.6357 68.5189 58.1937C66.9717 57.499 66.2139 57.6253 64.6667 57.6885C53.6784 58.0674 39.7852 60.6566 30.4072 64.0983C30.4388 65.0771 30.5967 66.4665 31.3545 67.2874C31.6702 67.6348 33.3753 67.6979 33.5016 68.2031C34.291 71.0765 35.112 73.6973 36.3118 75.655C38.4906 79.2546 42.4691 79.7282 46.416 79.7913C55.194 79.9492 68.0137 77.9284 69.4977 75.3708C70.9502 72.8763 70.445 67.0033 69.5609 62.4564C70.5713 61.3197 71.708 61.0355 72.971 61.6986C73.3184 63.8141 73.7288 66.3717 74.4867 68.6768C75.876 72.8447 77.6126 75.0234 82.2542 74.3604L82.1911 74.4235ZM67.3506 62.0143C68.2031 65.7087 68.9925 72.2764 67.7611 74.3919C66.4033 76.6969 48.0579 78.8441 41.3639 77.36C37.638 76.5391 36.4066 71.7712 35.3962 67.319C35.2699 66.6559 35.6488 65.9613 36.2803 65.7402C44.8057 62.9932 56.5202 61.1302 65.6455 60.7513C66.5296 60.7197 67.1296 61.0986 67.3506 61.9827V62.0143ZM75.4655 65.014C75.1813 63.5931 74.9603 62.1722 74.8024 60.9092C74.7077 59.9935 74.7393 59.3936 75.5286 59.0778C81.0228 56.7728 86.8958 55.6361 92.9899 55.0993C93.5583 55.0361 94.0635 55.415 94.1582 55.9518C94.6634 58.6042 95.3896 63.4984 95.1686 66.0244C95.1055 66.8138 94.5055 67.5716 93.6214 68.3294C90.4954 70.8239 83.6751 72.4974 79.9176 72.6553C78.7178 72.7184 77.8021 71.7712 77.139 70.4766C76.2233 68.7083 75.7181 66.3086 75.4655 65.014Z" fill="#232323"/>
<path d="M95.0423 55.7637C94.8213 54.7848 93.874 54.3112 92.8636 54.1849C89.3903 53.8376 81.0544 54.7217 74.5182 57.153C81.2754 54.248 88.4115 53.0166 95.6738 52.9219C96.2422 55.1006 95.1055 54.5007 95.0423 55.7637ZM69.3714 61.2578C68.4557 60.5947 67.5085 59.9632 65.7402 59.8369C57.4359 59.3633 44.1426 61.8577 38.1748 62.6787C46.7318 60.3105 56.6465 58.8265 64.6982 58.7002C65.8981 58.6686 66.6243 58.4476 67.5716 58.9212C68.582 59.3949 68.9925 60.279 69.3714 61.2578ZM95.958 66.2467C95.4844 70.9199 85.4434 72.9408 82.0332 73.1934C81.3385 73.2881 80.6439 73.2881 79.9808 73.2565C83.9909 73.0986 94.916 70.6673 95.958 66.2467ZM63.2142 76.9508C58.099 78.1823 45.2477 79.8242 40.6693 77.9297C45.2793 79.098 57.8148 78.056 63.2142 76.9508Z" fill="#3C3C3C"/>
<path d="M90.5268 47.5543C90.5268 47.5543 88.948 42.7548 81.9698 43.4811C74.9916 44.2073 73.0024 48.5647 73.1918 53.7115C73.1918 53.7115 76.0968 47.428 82.8223 47.9332C88.1902 48.3437 90.4005 50.7119 90.4005 50.7119C90.8741 49.7015 90.9373 48.5647 90.5268 47.5543Z" fill="#7F3E13"/>
<path d="M88.8535 47.3961C88.8535 47.3961 85.3486 42.723 79.5387 45.249C79.5387 45.249 76.7601 47.0172 75.0234 48.9118C75.0234 48.8802 81.97 44.0807 88.8535 47.3961Z" fill="url(#paint15_linear_47_37084)"/>
<path d="M48.1525 83.7685C45.7212 81.0846 40.3218 78.6533 37.1958 81.1793C40.606 80.9898 45.216 82.316 48.1525 83.7685Z" fill="#9A4C18"/>
<path d="M48.1525 83.77C44.3003 81.5282 40.827 80.2336 37.1958 81.1809L48.1525 83.77Z" fill="#FBFAC4"/>
<path d="M61.0356 98.8005C66.4351 104.926 79.7599 101.769 79.1284 96.1797L61.0356 98.8005Z" fill="#BD7447"/>
<path d="M50.647 90.7148C55.9832 96.0511 59.8039 99.335 62.2036 100.187C66.4032 101.703 85.159 98.5771 82.5382 92.4831L77.423 94.2197L50.647 90.7148Z" fill="url(#paint16_linear_47_37084)"/>
<path d="M85.8224 84.1819C75.592 86.7711 65.0457 87.9078 54.4679 87.592C50.6789 87.3394 45.4373 85.7607 43.4481 84.4661C43.7638 84.2766 44.1112 84.1187 44.4901 84.024C42.9744 83.0136 41.7746 82.9189 40.2905 83.3294C41.8062 83.3925 42.564 83.6767 42.6903 83.8346C42.8797 84.0556 41.964 84.2766 42.2798 84.624C48.8475 90.7812 56.2362 95.2649 59.8989 96.5595C64.0985 98.0751 75.3078 96.3385 82.507 92.4863C81.2755 92.802 80.0441 92.9915 78.7811 93.1178C79.1916 90.6233 80.1388 88.2551 81.5282 86.1711C83.0438 85.6975 84.4647 85.0344 85.8224 84.1819Z" fill="#9A4C18"/>
<path d="M79.4124 86.9922C78.402 88.8236 77.7389 90.8444 77.3916 92.9284L77.3285 93.2441C76.5075 93.5283 75.6549 93.8125 74.834 94.0335C72.0238 94.8545 69.182 95.3913 66.277 95.6439C64.5719 95.7702 61.9828 95.8649 60.3408 95.2965C57.8779 94.4124 55.1309 92.7074 52.9206 91.2865C51.3102 90.2129 49.763 89.1077 48.2158 87.9079C50.2051 88.4762 52.2575 88.8551 54.3415 89.013H54.4046C62.8353 89.234 71.2028 88.571 79.4124 86.9922Z" fill="#792936"/>
<path d="M79.4123 86.9922C79.1281 88.0658 78.6545 89.1077 78.0861 90.0866C77.423 90.5602 76.0653 90.876 75.4338 91.1917C76.602 91.5075 77.0757 91.8864 77.3914 93.2126C73.3182 94.665 64.4139 96.6859 60.4038 95.265C58.9513 94.6966 57.562 94.0335 56.2043 93.2441C57.0252 92.8652 57.9093 92.5811 58.7935 92.4232C56.4253 92.1706 53.7414 91.4443 52.6362 90.6549C52.1626 90.3076 51.1838 89.3919 50.9312 88.5394C52.0679 88.792 53.2362 88.9499 54.436 89.013C62.8035 89.2025 71.2026 88.5394 79.4123 86.9922Z" fill="url(#paint17_linear_47_37084)"/>
<path d="M78.8442 88.6328C78.6232 89.138 78.3706 89.6116 78.0864 90.0853C77.4233 90.5589 76.0656 90.8747 75.4341 91.1904C76.6024 91.5062 77.076 91.8851 77.3918 93.2113C73.6027 94.5374 65.6141 96.432 61.2882 95.4847C60.12 94.0954 59.3937 92.3587 59.2358 90.5273C65.6457 90.3379 71.7397 89.9906 78.8442 88.6328Z" fill="url(#paint18_linear_47_37084)"/>
</g>
<defs>
<linearGradient id="paint0_linear_47_37084" x1="51.4132" y1="64.3966" x2="28.7356" y2="67.5352" gradientUnits="userSpaceOnUse">
<stop stop-color="#FAD395"/>
<stop offset="1" stop-color="#E5895B"/>
</linearGradient>
<linearGradient id="paint1_linear_47_37084" x1="27.5543" y1="96.2148" x2="27.5543" y2="82.1538" gradientUnits="userSpaceOnUse">
<stop stop-color="#B85A1B"/>
<stop offset="1" stop-color="#FF9701"/>
</linearGradient>
<linearGradient id="paint2_linear_47_37084" x1="47.4312" y1="87.7947" x2="46.0492" y2="100.919" gradientUnits="userSpaceOnUse">
<stop stop-color="#FF9701"/>
<stop offset="1" stop-color="#B85A1B"/>
</linearGradient>
<linearGradient id="paint3_linear_47_37084" x1="11.775" y1="86.0341" x2="9.84185" y2="91.5691" gradientUnits="userSpaceOnUse">
<stop stop-color="#E5895B"/>
<stop offset="1" stop-color="#FAD395"/>
</linearGradient>
<linearGradient id="paint4_linear_47_37084" x1="14.0041" y1="68.8092" x2="12.9725" y2="79.271" gradientUnits="userSpaceOnUse">
<stop stop-color="#FAD395"/>
<stop offset="1" stop-color="#E5895B"/>
</linearGradient>
<linearGradient id="paint5_linear_47_37084" x1="16.4569" y1="68.9809" x2="11.451" y2="78.0277" gradientUnits="userSpaceOnUse">
<stop stop-color="#C76636"/>
<stop offset="1" stop-color="#E5895B"/>
</linearGradient>
<linearGradient id="paint6_linear_47_37084" x1="50.6627" y1="68.3018" x2="52.7664" y2="87.6402" gradientUnits="userSpaceOnUse">
<stop stop-color="#FAD395"/>
<stop offset="1" stop-color="#E5895B"/>
</linearGradient>
<linearGradient id="paint7_linear_47_37084" x1="85.7169" y1="57.2943" x2="59.8271" y2="77.1006" gradientUnits="userSpaceOnUse">
<stop stop-color="#FAD395"/>
<stop offset="1" stop-color="#E5895B"/>
</linearGradient>
<linearGradient id="paint8_linear_47_37084" x1="50.4158" y1="65.0455" x2="52.5192" y2="84.387" gradientUnits="userSpaceOnUse">
<stop stop-color="#FAD395"/>
<stop offset="1" stop-color="#E5895B"/>
</linearGradient>
<linearGradient id="paint9_linear_47_37084" x1="57.9053" y1="53.0347" x2="38.3285" y2="52.0558" gradientUnits="userSpaceOnUse">
<stop stop-color="#B85A1B"/>
<stop offset="1" stop-color="#7F3E13"/>
</linearGradient>
<linearGradient id="paint10_linear_47_37084" x1="51.1107" y1="79.351" x2="51.3143" y2="83.0522" gradientUnits="userSpaceOnUse">
<stop stop-color="#BDD6DE"/>
<stop offset="1" stop-color="white"/>
</linearGradient>
<radialGradient id="paint11_radial_47_37084" cx="0" cy="0" r="1" gradientUnits="userSpaceOnUse" gradientTransform="translate(45.9972 75.3214) rotate(-1.36807) scale(4.94626 4.26116)">
<stop stop-color="#33B4FF"/>
<stop offset="1" stop-color="#022740"/>
</radialGradient>
<linearGradient id="paint12_linear_47_37084" x1="83.7055" y1="75.2509" x2="84.1438" y2="78.0534" gradientUnits="userSpaceOnUse">
<stop stop-color="#BDD6DE"/>
<stop offset="1" stop-color="white"/>
</linearGradient>
<radialGradient id="paint13_radial_47_37084" cx="0" cy="0" r="1" gradientUnits="userSpaceOnUse" gradientTransform="translate(79.5509 68.1167) rotate(-1.39233) scale(4.74834 3.08585)">
<stop stop-color="#33B4FF"/>
<stop offset="1" stop-color="#022740"/>
</radialGradient>
<linearGradient id="paint14_linear_47_37084" x1="64.8278" y1="59.5466" x2="66.8974" y2="86.8953" gradientUnits="userSpaceOnUse">
<stop stop-color="white"/>
<stop offset="1" stop-color="white" stop-opacity="0"/>
</linearGradient>
<linearGradient id="paint15_linear_47_37084" x1="92.1613" y1="47.3461" x2="78.4259" y2="46.6593" gradientUnits="userSpaceOnUse">
<stop stop-color="#B85A1B"/>
<stop offset="1" stop-color="#7F3E13"/>
</linearGradient>
<linearGradient id="paint16_linear_47_37084" x1="71.0248" y1="111.269" x2="69.0613" y2="102.496" gradientUnits="userSpaceOnUse">
<stop stop-color="#FBFAC4"/>
<stop offset="1" stop-color="#FAD395"/>
</linearGradient>
<linearGradient id="paint17_linear_47_37084" x1="56.8703" y1="91.3543" x2="54.2256" y2="90.675" gradientUnits="userSpaceOnUse">
<stop stop-color="#BDD6DE"/>
<stop offset="1" stop-color="white"/>
</linearGradient>
<linearGradient id="paint18_linear_47_37084" x1="65.8825" y1="92.6251" x2="61.1721" y2="94.7753" gradientUnits="userSpaceOnUse">
<stop stop-color="white"/>
<stop offset="1" stop-color="#BDD6DE"/>
</linearGradient>
<clipPath id="clip0_47_37084">
<rect width="97" height="109.914" fill="white"/>
</clipPath>
</defs>
</svg>
