<svg width="28" height="28" viewBox="0 0 28 28" fill="none" xmlns="http://www.w3.org/2000/svg">
<path d="M14 9.625C13.1347 9.625 12.2888 9.88159 11.5694 10.3623C10.8499 10.843 10.2892 11.5263 9.95803 12.3258C9.6269 13.1252 9.54026 14.0048 9.70907 14.8535C9.87788 15.7022 10.2946 16.4817 10.9064 17.0936C11.5183 17.7054 12.2978 18.1221 13.1465 18.2909C13.9951 18.4597 14.8748 18.3731 15.6742 18.042C16.4737 17.7108 17.1569 17.1501 17.6377 16.4306C18.1184 15.7111 18.375 14.8653 18.375 14C18.3736 12.8401 17.9122 11.7281 17.0921 10.9079C16.2719 10.0877 15.1599 9.62637 14 9.625ZM14 16.625C13.4808 16.625 12.9733 16.471 12.5416 16.1826C12.1099 15.8942 11.7735 15.4842 11.5748 15.0045C11.3761 14.5249 11.3242 13.9971 11.4254 13.4879C11.5267 12.9787 11.7767 12.511 12.1438 12.1438C12.511 11.7767 12.9787 11.5267 13.4879 11.4254C13.9971 11.3241 14.5249 11.3761 15.0045 11.5748C15.4842 11.7735 15.8942 12.1099 16.1826 12.5416C16.471 12.9733 16.625 13.4808 16.625 14C16.6242 14.6959 16.3474 15.3632 15.8553 15.8553C15.3632 16.3474 14.696 16.6242 14 16.625Z" fill="#353751"/>
<path d="M5.48833 8.55702C5.05808 8.39537 4.58181 8.40743 4.16029 8.59065C3.73876 8.77387 3.40504 9.11388 3.22972 9.53875C3.0544 9.96361 3.05123 10.44 3.22088 10.8672C3.39052 11.2944 3.71969 11.6388 4.13873 11.8276C4.56504 12.0079 4.92876 12.3098 5.18449 12.6956C5.44021 13.0815 5.57659 13.5341 5.57659 13.9969C5.57659 14.4598 5.44021 14.9124 5.18449 15.2982C4.92876 15.684 4.56504 15.986 4.13873 16.1663C3.71959 16.3551 3.39034 16.6996 3.22067 17.1268C3.051 17.5541 3.05421 18.0306 3.22963 18.4555C3.40504 18.8805 3.7389 19.2205 4.16055 19.4036C4.5822 19.5868 5.05857 19.5987 5.48886 19.4369C5.91823 19.262 6.38966 19.2177 6.84409 19.3096C7.29851 19.4014 7.71573 19.6253 8.04348 19.9532C8.37123 20.2811 8.59493 20.6985 8.68657 21.1529C8.7782 21.6074 8.73369 22.0788 8.55862 22.5081C8.39174 22.9395 8.40209 23.4194 8.58744 23.8432C8.77279 24.267 9.1181 24.6004 9.54816 24.7708C9.76353 24.8599 9.99433 24.9058 10.2274 24.9058C10.5679 24.9082 10.9016 24.81 11.1865 24.6235C11.4715 24.4371 11.695 24.1707 11.8292 23.8577C12.0095 23.4314 12.3114 23.0677 12.6972 22.8119C13.0831 22.5562 13.5357 22.4198 13.9985 22.4198C14.4614 22.4198 14.914 22.5562 15.2998 22.8119C15.6856 23.0677 15.9876 23.4314 16.1679 23.8577C16.3567 24.2768 16.7012 24.6061 17.1284 24.7758C17.5557 24.9454 18.0322 24.9422 18.4571 24.7668C18.8821 24.5914 19.2221 24.2575 19.4052 23.8359C19.5884 23.4142 19.6003 22.9379 19.4385 22.5076C19.2636 22.0782 19.2193 21.6068 19.3112 21.1523C19.403 20.6979 19.6269 20.2807 19.9548 19.953C20.2827 19.6252 20.7001 19.4015 21.1545 19.3099C21.609 19.2182 22.0804 19.2627 22.5097 19.4378C22.9384 19.6043 23.4154 19.5953 23.8376 19.413C24.2598 19.2306 24.5933 18.8895 24.766 18.4632L23.9636 18.1146L23.1674 17.8164C22.4195 17.5109 21.598 17.4333 20.8062 17.5934C20.0144 17.7535 19.2876 18.1441 18.7172 18.7162C18.1472 19.2908 17.7556 20.0179 17.5896 20.81C17.4236 21.6021 17.4902 22.4254 17.7815 23.1805C17.4694 22.4352 16.9436 21.7991 16.2705 21.3522C15.5974 20.9054 14.807 20.6678 13.9991 20.6695C13.1894 20.672 12.3978 20.9091 11.72 21.3521C11.0423 21.7952 10.5075 22.4252 10.1803 23.1658C10.4857 22.418 10.5631 21.5965 10.4031 20.8048C10.243 20.013 9.85246 19.2862 9.28058 18.7157C8.70597 18.1458 7.9788 17.7542 7.18671 17.5882C6.39463 17.4222 5.57143 17.4888 4.81633 17.78C5.56152 17.4677 6.19759 16.9419 6.64436 16.2687C7.09113 15.5955 7.32858 14.8051 7.3268 13.9972C7.32429 13.1875 7.08716 12.3958 6.64411 11.7181C6.20107 11.0404 5.57109 10.5055 4.83042 10.1784C5.57826 10.4839 6.39973 10.5615 7.19155 10.4014C7.98336 10.2413 8.71017 9.85067 9.28058 9.27863C9.85055 8.70406 10.2422 7.97689 10.4082 7.18479C10.5742 6.39268 10.5076 5.56947 10.2163 4.81438C10.5285 5.55957 11.0544 6.19564 11.7276 6.64241C12.4008 7.08917 13.1912 7.32663 13.9991 7.32484C14.8088 7.32233 15.6004 7.08521 16.2782 6.64216C16.9559 6.19911 17.4907 5.56914 17.8179 4.82847C17.5125 5.57634 17.4351 6.39776 17.5951 7.18954C17.7552 7.98131 18.1458 8.70811 18.7176 9.27863C19.2924 9.84831 20.0195 10.2397 20.8116 10.4057C21.6036 10.5717 22.4267 10.5053 23.1819 10.2144C22.4403 10.5259 21.8068 11.0488 21.3604 11.718C20.914 12.3871 20.6744 13.1728 20.6714 13.9772C20.6685 14.7816 20.9024 15.569 21.344 16.2414C21.7856 16.9137 22.4153 17.4412 23.1546 17.7582C23.157 17.7654 23.157 17.7732 23.1546 17.7804L23.9633 18.1141L24.7674 18.4589L24.7721 18.4478C24.9507 18.024 24.9551 17.5469 24.7843 17.12C24.6134 16.693 24.2811 16.3507 23.8595 16.1672C23.4332 15.9868 23.0694 15.6849 22.8137 15.2991C22.558 14.9133 22.4216 14.4607 22.4216 13.9978C22.4216 13.5349 22.558 13.0823 22.8137 12.6965C23.0694 12.3107 23.4332 12.0088 23.8595 11.8285C24.2786 11.6396 24.6079 11.2952 24.7775 10.8679C24.9472 10.4407 24.944 9.96415 24.7686 9.53922C24.5932 9.11429 24.2593 8.77428 23.8377 8.59113C23.416 8.40797 22.9396 8.39606 22.5094 8.55789C22.08 8.73276 21.6086 8.77704 21.1541 8.68518C20.6997 8.59332 20.2825 8.36942 19.9547 8.04151C19.627 7.71361 19.4033 7.29628 19.3116 6.84181C19.22 6.38734 19.2645 5.91593 19.4396 5.48664C19.6014 5.05638 19.5894 4.58005 19.4062 4.15845C19.2231 3.73685 18.8831 3.40305 18.4581 3.22767C18.0332 3.0523 17.5568 3.04911 17.1296 3.21878C16.7024 3.38845 16.3579 3.71767 16.1691 4.13678C15.9888 4.56308 15.6869 4.92681 15.3011 5.18253C14.9152 5.43825 14.4626 5.57463 13.9998 5.57463C13.5369 5.57463 13.0843 5.43825 12.6985 5.18253C12.3127 4.92681 12.0107 4.56308 11.8304 4.13678C11.6416 3.71763 11.2971 3.38839 10.8699 3.21872C10.4426 3.04905 9.9661 3.05226 9.54117 3.22768C9.11624 3.40309 8.77623 3.73695 8.59308 4.1586C8.40993 4.58025 8.39801 5.05662 8.55984 5.4869C8.73471 5.91628 8.77899 6.38771 8.68713 6.84213C8.59528 7.29656 8.37137 7.71378 8.04347 8.04153C7.71556 8.36927 7.29823 8.59298 6.84376 8.68461C6.38929 8.77625 5.91789 8.73174 5.4886 8.55667L5.48833 8.55702Z" fill="#353751"/>
</svg>
