<svg width="20" height="20" viewBox="0 0 20 20" fill="none" xmlns="http://www.w3.org/2000/svg">
<path d="M2.49996 13.3333C2.03973 13.3333 1.66663 13.7064 1.66663 14.1667C1.66663 14.6269 2.03973 15 2.49996 15V13.3333ZM8.74113 12.656C9.00496 12.2789 8.91313 11.7593 8.53596 11.4955C8.15888 11.2317 7.6393 11.3235 7.37548 11.7007L8.74113 12.656ZM10.4246 7.34606C10.1615 7.72366 10.2543 8.24308 10.6319 8.50617C11.0095 8.76933 11.5289 8.6765 11.792 8.29894L10.4246 7.34606ZM11.2558 7.61083L10.573 7.133L10.5721 7.13439L11.2558 7.61083ZM17.5 6.66667C17.9602 6.66667 18.3333 6.29357 18.3333 5.83333C18.3333 5.3731 17.9602 5 17.5 5V6.66667ZM2.49996 15H4.49746V13.3333H2.49996V15ZM4.49746 15C6.12903 14.9999 7.65798 14.2037 8.59354 12.867L7.22806 11.9113C6.60437 12.8025 5.58518 13.3333 4.49746 13.3333V15ZM8.59354 12.867L8.74113 12.656L7.37548 11.7007L7.22806 11.9113L8.59354 12.867ZM11.792 8.29894L11.9395 8.08728L10.5721 7.13439L10.4246 7.34606L11.792 8.29894ZM11.9385 8.08867C12.5622 7.19753 13.5815 6.66675 14.6692 6.66667L14.6691 5C13.0375 5.00013 11.5086 5.79629 10.573 7.133L11.9385 8.08867ZM14.6692 6.66667H17.5V5H14.6691L14.6692 6.66667Z" fill="#0F5C82"/>
<path d="M15 3.33301L17.5 5.83301L15 8.33301" stroke="#0F5C82" stroke-width="1.66667" stroke-linecap="round" stroke-linejoin="round"/>
<path d="M2.5 5.83301H4.4975C5.85714 5.83311 7.13122 6.49658 7.91083 7.61051L11.2558 12.3888C12.0354 13.5028 13.3095 14.1663 14.6692 14.1663H17.5" stroke="#0F5C82" stroke-width="1.66667" stroke-linecap="round" stroke-linejoin="round"/>
<path d="M15 16.666L17.5 14.166L15 11.666" stroke="#0F5C82" stroke-width="1.66667" stroke-linecap="round" stroke-linejoin="round"/>
</svg>
