<svg width="24" height="23" viewBox="0 0 24 23" fill="none" xmlns="http://www.w3.org/2000/svg">
<path d="M13.1163 11.3858C13.5787 11.3858 13.9535 10.9961 13.9535 10.5154C13.9535 10.0347 13.5787 9.64497 13.1163 9.64497V11.3858ZM6.41864 9.64497C5.95626 9.64497 5.58143 10.0347 5.58143 10.5154C5.58143 10.9961 5.95626 11.3858 6.41864 11.3858V9.64497ZM13.1163 9.64497H6.41864V11.3858H13.1163V9.64497Z" fill="#93989A"/>
<path d="M0 10.5149C0 10.9956 0.37483 11.3853 0.837208 11.3853C1.29959 11.3853 1.67442 10.9956 1.67442 10.5149H0ZM14.5116 4.71196C14.5116 5.19269 14.8864 5.5824 15.3488 5.5824C15.8112 5.5824 16.186 5.19269 16.186 4.71196H14.5116ZM1.67442 10.5149V5.15298H0V10.5149H1.67442ZM1.67442 5.15298C1.67442 3.26613 3.14145 1.74087 4.95627 1.74087V0C2.21669 0 0 2.30467 0 5.15298H1.67442ZM4.95627 1.74087H11.2297V0H4.95627V1.74087ZM11.2297 1.74087C12.1992 1.74087 13.0267 2.0545 13.5982 2.56406C14.1577 3.06302 14.5116 3.782 14.5116 4.71196H16.186C16.186 3.27433 15.6189 2.07256 14.6883 1.24264C13.7695 0.423349 12.5374 0 11.2297 0V1.74087Z" fill="#93989A"/>
<path d="M18.1172 11.7331L18.697 12.3611C18.7038 12.3543 18.7104 12.3474 18.7169 12.3404L18.1172 11.7331ZM17.5144 14.0311L16.7047 14.2526L16.7059 14.257L17.5144 14.0311ZM20.9302 15.7952H21.7674C21.7674 15.3144 21.3926 14.9247 20.9302 14.9247V15.7952ZM20.9302 11.0367V11.9072C21.3926 11.9072 21.7674 11.5175 21.7674 11.0367H20.9302ZM19.7246 11.0367V11.9072V11.0367ZM17.5374 11.1052C16.7647 11.8764 16.4025 13.0585 16.7047 14.2526L18.324 13.8096C18.1798 13.2395 18.3533 12.7041 18.697 12.3611L17.5374 11.1052ZM16.7059 14.257C17.1006 15.7834 18.5127 16.6656 19.8921 16.6656V14.9247C19.1282 14.9247 18.4864 14.4374 18.3229 13.8051L16.7059 14.257ZM19.8921 16.6656H20.9302V14.9247H19.8921V16.6656ZM20.093 15.7952V17.478H21.7674V15.7952H20.093ZM20.093 17.478C20.093 19.5622 18.4697 21.2499 16.4651 21.2499V22.9908C19.3944 22.9908 21.7674 20.5236 21.7674 17.478H20.093ZM16.4651 21.2499H5.30232V22.9908H16.4651V21.2499ZM5.30232 21.2499C3.29772 21.2499 1.67442 19.5622 1.67442 17.478H0C0 20.5236 2.37297 22.9908 5.30232 22.9908V21.2499ZM1.67442 17.478V9.35396H0V17.478H1.67442ZM1.67442 9.35396C1.67442 7.2698 3.29772 5.58207 5.30232 5.58207V3.8412C2.37297 3.8412 0 6.30835 0 9.35396H1.67442ZM5.30232 5.58207H16.4651V3.8412H5.30232V5.58207ZM16.4651 5.58207C18.4585 5.58207 20.093 7.28141 20.093 9.35396H21.7674C21.7674 6.31996 19.3833 3.8412 16.4651 3.8412V5.58207ZM20.093 9.35396V11.0367H21.7674V9.35396H20.093ZM20.9302 10.1663H19.7246V11.9072H20.9302V10.1663ZM19.7246 10.1663C18.8751 10.1663 18.089 10.5155 17.5173 11.1259L18.7169 12.3404C18.9714 12.0688 19.3239 11.9072 19.7246 11.9072V10.1663Z" fill="#93989A"/>
<path d="M17.4473 13.6252L18.2817 13.5529L18.2808 13.5426L17.4473 13.6252ZM18.1171 11.7334L18.7019 12.3563C18.707 12.3511 18.712 12.3459 18.7169 12.3406L18.1171 11.7334ZM22.0129 11.037V10.1666V11.037ZM22.3255 12.2208V14.6116H23.9999V12.2208H22.3255ZM22.3255 14.6116C22.3255 14.7753 22.1921 14.925 22.0129 14.925V16.6659C23.1062 16.6659 23.9999 15.7478 23.9999 14.6116H22.3255ZM22.0129 14.925H19.8585V16.6659H22.0129V14.925ZM19.8585 14.925C19.0223 14.925 18.3407 14.2898 18.2816 13.5529L16.613 13.6975C16.7549 15.4673 18.2835 16.6659 19.8585 16.6659V14.925ZM18.2808 13.5426C18.239 13.0869 18.4049 12.6577 18.7019 12.3563L17.5322 11.1106C16.8916 11.7608 16.5217 12.7012 16.6139 13.7077L18.2808 13.5426ZM18.7169 12.3406C18.9713 12.0691 19.3238 11.9075 19.7245 11.9075V10.1666C18.875 10.1666 18.0889 10.5157 17.5172 11.1262L18.7169 12.3406ZM19.7245 11.9075H22.0129V10.1666H19.7245V11.9075ZM22.0129 11.9075C22.1921 11.9075 22.3255 12.0572 22.3255 12.2208H23.9999C23.9999 11.0847 23.1062 10.1666 22.0129 10.1666V11.9075Z" fill="#93989A"/>
</svg>
