<svg width="19" height="18" viewBox="0 0 19 18" fill="none" xmlns="http://www.w3.org/2000/svg">
<g clip-path="url(#clip0_47_87397)">
<path d="M3.93945 2.0009C3.93927 2.39898 3.82031 2.78795 3.59777 3.11802C3.37524 3.4481 3.05927 3.70425 2.69031 3.8537C2.32135 4.00315 1.91619 4.0391 1.52668 3.95694C1.13717 3.87478 0.781037 3.67825 0.503871 3.39252C0.226705 3.10678 0.0411131 2.74483 -0.0291475 2.353C-0.099408 1.96117 -0.0511408 1.55728 0.109476 1.19304C0.270092 0.828805 0.535751 0.520783 0.872446 0.308406C1.20914 0.0960283 1.60155 -0.0110419 1.99945 0.000900509C2.51942 0.0165064 3.01284 0.23409 3.37504 0.607484C3.73723 0.980879 3.93969 1.4807 3.93945 2.0009ZM3.99945 5.4809H-0.000545874V18.0009H3.99945V5.4809ZM10.3195 5.4809H6.33945V18.0009H10.2795V11.4309C10.2795 7.7709 15.0495 7.4309 15.0495 11.4309V18.0009H18.9995V10.0709C18.9995 3.9009 11.9395 4.1309 10.2795 7.1609L10.3195 5.4809Z" fill="#959DA5"/>
</g>
<defs>
<clipPath id="clip0_47_87397">
<rect width="19" height="18" fill="white"/>
</clipPath>
</defs>
</svg>
