<svg width="109" height="109" viewBox="0 0 109 109" fill="none" xmlns="http://www.w3.org/2000/svg">
<g clip-path="url(#clip0_47_69581)">
<path fill-rule="evenodd" clip-rule="evenodd" d="M31.2739 40.6291C28.8784 41.716 26.2231 42.3269 23.4265 42.3269C12.92 42.3269 4.37113 33.7786 4.37113 23.2709C4.37113 12.7638 12.92 4.21551 23.4265 4.21551C33.9336 4.21551 42.4818 12.7638 42.4818 23.2709C42.4818 26.0675 41.8716 28.7228 40.7847 31.117L43.7594 34.0929C45.4806 30.866 46.4591 27.1835 46.4591 23.2709C46.4591 10.5502 36.1472 0.238281 23.4265 0.238281C10.7064 0.238281 0.394531 10.5502 0.394531 23.2709C0.394531 35.9916 10.7064 46.3041 23.4265 46.3041C27.3391 46.3041 31.0223 45.325 34.2492 43.6038L31.2739 40.6291Z" fill="white"/>
<path fill-rule="evenodd" clip-rule="evenodd" d="M87.3597 42.0845H60.7193C56.147 42.0845 52.0215 43.4654 48.8219 45.5002L31.1506 27.8258C31.9395 26.4911 32.392 24.9347 32.392 23.2718C32.392 18.3193 28.3787 14.3047 23.4268 14.3047C18.4742 14.3047 14.459 18.3193 14.459 23.2718C14.459 28.2237 18.4742 32.2371 23.4268 32.2371C25.0884 32.2371 26.6467 31.7846 27.9788 30.9963L55.2503 58.2672C56.4531 56.5378 58.4576 55.4053 60.7238 55.4053H87.3654C91.0461 55.4053 94.0265 58.385 94.0265 62.0651V88.7073C94.0265 92.388 91.0435 95.3696 87.3654 95.3696H60.7238C57.0457 95.3696 54.0627 92.3867 54.0627 88.7073V63.4206L42.4631 51.821C41.3097 53.6119 39.4548 57.1911 39.4548 62.0651V88.7073C39.4548 100.088 48.9765 108.689 60.7193 108.689H87.3597C99.1026 108.689 108.622 100.088 108.622 88.7073V62.0651C108.622 50.6866 99.1026 42.0845 87.3597 42.0845Z" fill="#64E646"/>
</g>
<defs>
<clipPath id="clip0_47_69581">
<rect width="109" height="109" fill="white"/>
</clipPath>
</defs>
</svg>
