<svg width="24" height="24" viewBox="0 0 24 24" fill="none" xmlns="http://www.w3.org/2000/svg">
<g clip-path="url(#clip0_47_59403)">
<path d="M20.8416 11.5407L12.5916 1.04069C12.5214 0.951052 12.4318 0.878556 12.3295 0.828698C12.2271 0.77884 12.1148 0.75293 12.001 0.75293C11.8871 0.75293 11.7748 0.77884 11.6725 0.828698C11.5701 0.878556 11.4805 0.951052 11.4103 1.04069L3.16035 11.5407C3.05533 11.6708 2.99805 11.8329 2.99805 12.0001C2.99805 12.1672 3.05533 12.3294 3.16035 12.4594L11.4103 22.9594C11.4805 23.0491 11.5701 23.1216 11.6725 23.1714C11.7748 23.2213 11.8871 23.2472 12.001 23.2472C12.1148 23.2472 12.2271 23.2213 12.3295 23.1714C12.4318 23.1216 12.5214 23.0491 12.5916 22.9594L20.8416 12.4594C20.9466 12.3294 21.0039 12.1672 21.0039 12.0001C21.0039 11.8329 20.9466 11.6708 20.8416 11.5407ZM12.751 3.66569L19.0697 11.7094L12.751 14.5876V3.66569ZM11.251 14.5876L4.93222 11.7094L11.251 3.66569V14.5876ZM11.251 16.2376V20.3344L6.24472 13.9594L11.251 16.2376ZM12.751 16.2376L17.7572 13.9594L12.751 20.3344V16.2376Z" fill="#6E9CF7" fill-opacity="0.9"/>
</g>
<defs>
<clipPath id="clip0_47_59403">
<rect width="24" height="24" fill="white"/>
</clipPath>
</defs>
</svg>
