<svg width="34" height="34" viewBox="0 0 34 34" fill="none" xmlns="http://www.w3.org/2000/svg">
<path fill-rule="evenodd" clip-rule="evenodd" d="M23.3078 15.7931L13.1076 5.59282C12.9491 5.43431 12.7609 5.30858 12.5538 5.22279C12.3467 5.13701 12.1247 5.09286 11.9005 5.09286C11.6764 5.09286 11.4544 5.13701 11.2473 5.22279C11.0402 5.30858 10.852 5.43431 10.6935 5.59282C10.3734 5.91295 10.1935 6.34713 10.1935 6.79985C10.1935 7.02402 10.2377 7.24599 10.3235 7.45309C10.4093 7.6602 10.535 7.84837 10.6935 8.00688L19.7037 17.0001L10.7105 25.9933C10.3875 26.2993 10.2005 26.7243 10.2005 27.2004C10.201 27.5369 10.3011 27.8658 10.4881 28.1456C10.6752 28.4254 10.9409 28.6436 11.2518 28.7727C11.5626 28.9018 11.9047 28.9359 12.235 28.8709C12.5652 28.8059 12.8688 28.6446 13.1076 28.4074L23.3078 18.2071C23.6138 17.9011 23.8008 17.4761 23.8008 17.0001C23.8008 16.5241 23.6138 16.0991 23.3078 15.7931Z" fill="#2D3340"/>
</svg>
