<svg width="10" height="6" viewBox="0 0 10 6" fill="none" xmlns="http://www.w3.org/2000/svg">
<mask id="mask0_47_123377" style="mask-type:luminance" maskUnits="userSpaceOnUse" x="-2" y="-4" width="14" height="13">
<rect x="11.1537" y="8.84527" width="12.3065" height="12.3065" transform="rotate(-180 11.1537 8.84527)" fill="white"/>
</mask>
<g mask="url(#mask0_47_123377)">
<path fill-rule="evenodd" clip-rule="evenodd" d="M9.88702 5.27109C9.81487 5.34342 9.7169 5.38408 9.61474 5.38408C9.51257 5.38408 9.41461 5.34342 9.34246 5.27109L4.99981 0.92768L0.657172 5.27109C0.506814 5.42145 0.263042 5.42147 0.112658 5.27114C-0.0377265 5.12081 -0.0377901 4.87703 0.112516 4.72662L4.72753 0.111608C4.79968 0.0392757 4.89765 -0.00137511 4.99981 -0.00137511C5.10198 -0.00137511 5.19994 0.0392757 5.27209 0.111608L9.88702 4.72653C9.95935 4.79868 10 4.89665 10 4.99881C10 5.10098 9.95935 5.19894 9.88702 5.27109H9.88702Z" fill="white"/>
</g>
</svg>
