<svg width="384" height="512" viewBox="0 0 384 512" fill="none" xmlns="http://www.w3.org/2000/svg">
<g clip-path="url(#clip0_47_84068)">
<path d="M298.028 214.267L285.793 96H328C341.255 96 352 85.255 352 72V24C352 10.745 341.255 0 328 0H56C42.745 0 32 10.745 32 24V72C32 85.255 42.745 96 56 96H98.207L85.972 214.267C37.465 236.82 0 277.261 0 328C0 341.255 10.745 352 24 352H160V456.007C160 457.249 160.289 458.474 160.845 459.585L184.845 507.585C187.786 513.467 196.209 513.478 199.156 507.585L223.156 459.585C223.711 458.474 224.001 457.249 224.001 456.007V352H360.001C373.256 352 384.001 341.255 384.001 328C384 276.817 346.018 236.58 298.028 214.267Z" fill="#5978C0"/>
</g>
<defs>
<clipPath id="clip0_47_84068">
<rect width="384" height="512" fill="white"/>
</clipPath>
</defs>
</svg>
