<svg width="24" height="24" viewBox="0 0 24 24" fill="none" xmlns="http://www.w3.org/2000/svg">
<path d="M10 20.0009H14C14 21.1009 13.1 22.0009 12 22.0009C10.9 22.0009 10 21.1009 10 20.0009ZM20 17.3509V19.0009H4V17.3509L6 15.4709V10.3209C6 7.40089 7.56 5.10089 10 4.34089V3.96089C10 2.54089 11.49 1.46089 12.99 2.20089C13.64 2.52089 14 3.23089 14 3.96089V4.35089C16.44 5.10089 18 7.41089 18 10.3309V15.4809L20 17.3509ZM19 17.7709L17 15.8909V10.4209C17 7.95089 15.81 6.06089 13.87 5.32089C12.61 4.79089 11.23 4.82089 10.03 5.35089C8.15 6.11089 7 7.99089 7 10.4209V15.8909L5 17.7709V18.0009H19V17.7709Z" fill="white"/>
</svg>
