<svg width="30" height="30" viewBox="0 0 30 30" fill="none" xmlns="http://www.w3.org/2000/svg">
<g clip-path="url(#clip0_47_47124)">
<path d="M7.96882 4.49957C7.96882 4.49957 6.84382 4.21832 6.56257 3.46832C6.18757 2.71832 6.46882 -0.187933 3.84382 0.0933173C1.21882 0.374567 1.40632 2.90582 2.15632 4.12457C2.90632 5.34332 3.00007 6.93707 3.00007 6.93707L7.96882 4.49957ZM13.1251 18.1871V20.5308L12.9376 22.4058L10.7813 22.6871L10.8751 19.0308L13.1251 18.1871Z" fill="#BC7708"/>
<path d="M14.9065 3.09235L12.2815 8.4361C12.1878 8.6236 12.0003 8.8111 11.8128 8.8111L6.84402 10.3111C6.37527 10.4048 6.18777 11.1548 6.56277 11.5298L9.56277 14.9048C9.75027 15.0923 9.75027 15.3736 9.75027 15.5611L9.09402 21.3736C9.09402 21.9361 9.56277 22.4986 10.0315 22.3111C11.5315 21.7486 13.1253 20.9986 14.719 20.2486C15.0003 20.1548 15.2815 20.1548 15.469 20.3423L21.1878 24.1861C21.844 24.5611 22.594 24.2798 22.594 23.6236C22.594 20.9986 22.4065 18.3736 22.0315 15.9361C22.0315 15.6548 22.1253 15.3736 22.3128 15.1861L28.219 10.4048C28.969 9.84235 28.5003 8.8111 27.5628 8.71735L19.7815 8.15485C19.5003 8.15485 19.219 7.96735 19.1253 7.77985L16.4065 2.9986C16.0315 2.34235 15.1878 2.4361 14.9065 3.09235Z" fill="#BC7708"/>
<path d="M15.375 4.40722L13.2187 8.81347L12.9375 9.09472L8.71872 10.3135C8.43747 10.4072 8.24997 10.876 8.53122 11.1572L11.1562 13.9697C11.25 14.0635 11.3437 14.251 11.25 14.4385C10.9687 16.0322 10.7812 17.626 10.6875 19.2197C10.6875 19.5947 11.0625 19.876 11.3437 19.7822L15.1875 17.9072C15.375 17.8135 15.5625 17.8135 15.75 17.9072L20.25 20.7197C20.625 20.9072 21.0937 20.7197 21.0937 20.3447C21.0937 18.2822 21 16.3135 20.7187 14.4385C20.7187 14.251 20.7187 14.0635 20.9062 13.9697L25.4062 10.126C25.875 9.75097 25.5937 9.09472 25.0312 9.09472L18.9375 8.62597C18.75 8.62597 18.5625 8.53222 18.4687 8.34472L16.3125 4.40722C16.0312 3.93847 15.5625 4.03222 15.375 4.40722Z" fill="#FFBF4D"/>
<path opacity="0.54" d="M16.3125 12C16.3125 12 20.4375 10.125 24.9375 9.75C25.2188 9.75 25.4062 10.0312 25.2188 10.2187L20.8125 14.0625L16.3125 12ZM15.0938 11.7188C15.0938 11.7188 11.3438 10.2188 8.53125 10.875C8.4375 10.875 8.4375 11.0625 8.53125 11.0625L13.4062 14.25L15.0938 11.7188Z" fill="#EF941D"/>
<path opacity="0.54" d="M15.8437 12.2813C15.8437 12.2813 19.9687 17.25 21 21.1875L15.2812 18.1875L11.0625 19.875C11.0625 19.875 12.2812 15.9375 15.2812 12L15.8437 12.2813Z" fill="#EF941D"/>
<path d="M15 11.7188C15 11.7188 15.75 8.625 15.6563 4.125C15.6563 4.03125 15.75 4.03125 15.75 4.03125C15.8437 4.03125 15.8437 4.03125 15.8437 4.125C15.8437 4.6875 16.0313 7.5 15.6563 11.8125L15 11.7188Z" fill="white"/>
<path d="M15.5625 11.625C15.5625 11.625 20.25 9.84375 25.0312 9.28125C25.2188 9.28125 25.3125 9.375 25.4062 9.46875C25.5 9.65625 25.3125 9.84375 25.125 9.84375C23.5312 10.125 18.0938 11.0625 15.5625 12.375V11.625Z" fill="white"/>
<path d="M8.53141 10.5938C9.18766 10.5938 11.2502 10.5937 16.0314 11.7187L15.9377 12.4688C15.9377 12.4688 14.3439 10.9688 8.53141 11.0625C8.43766 11.0625 8.43766 11.0625 8.34391 10.9687C8.25016 10.7812 8.34391 10.5938 8.53141 10.5938Z" fill="white"/>
<path d="M14.9062 11.7188C14.0625 12.75 11.8125 15.9375 10.7812 19.4063C10.7812 19.5 10.7812 19.6875 10.9687 19.7812C11.0625 19.7812 11.1562 19.7812 11.25 19.6875C11.625 18.75 13.4062 14.1563 15.4688 12.2813C15.6562 12.0938 15.6562 11.9062 15.4688 11.7188C15.375 11.5313 15.0937 11.5313 14.9062 11.7188Z" fill="#FFDCA4"/>
<path opacity="0.46" d="M15.8438 11.625L18.5626 8.34375C18.5626 8.34375 16.3126 4.03125 15.7501 4.03125L15.6563 10.9687C15.5626 12 15.8438 11.625 15.8438 11.625Z" fill="white"/>
<path d="M14.7188 18.9375L15.4688 15.375L16.125 19.4063L14.7188 18.9375ZM21.1875 14.8125L18.9375 13.125L22.3125 13.875L21.1875 14.8125Z" fill="#BC7708"/>
<path d="M10.2187 21.0942L15.2812 18.8442L21.5625 22.313L21.6562 23.3442L15.1875 19.688L10.125 21.563L10.2187 21.0942ZM7.875 11.2505L10.7812 14.1567L10.0312 14.9067L7.125 11.5317L7.875 11.2505ZM21.375 14.063L25.7812 10.313C25.875 10.2192 25.9687 10.2192 26.0625 10.2192C26.5312 10.1255 26.8125 10.5942 26.4375 10.8755L21.8437 14.7192" fill="#84530B"/>
<path d="M16.3126 12.2809C17.2501 13.4059 19.9688 17.1559 21.0001 20.7184L20.7188 20.9059C20.7188 20.9059 18.2813 15.5622 15.4688 12.4684C15.3751 12.3747 15.3751 12.1872 15.5626 12.0934C15.8438 11.9997 16.1251 12.0934 16.3126 12.2809Z" fill="#FFDCA4"/>
<path d="M13.4681 29.144C16.1461 28.1754 18.0315 26.6009 17.6793 25.6271C17.3271 24.6532 14.8707 24.6489 12.1927 25.6175C9.51469 26.586 7.62925 28.1605 7.98144 29.1343C8.33362 30.1082 10.7901 30.1125 13.4681 29.144Z" fill="#4F2A12"/>
<path d="M7.39355 27.39L17.0914 23.8828L17.761 25.7342L8.06313 29.2414L7.39355 27.39Z" fill="#4F2A12"/>
<path d="M13.1072 27.9975C15.7852 27.029 17.6707 25.4544 17.3185 24.4806C16.9663 23.5068 14.5098 23.5025 11.8318 24.471C9.15385 25.4395 7.26841 27.014 7.6206 27.9879C7.97278 28.9617 10.4292 28.966 13.1072 27.9975Z" fill="#6F3B16"/>
<path d="M12.9261 27.7455C15.6041 26.777 17.4895 25.2024 17.1373 24.2286C16.7851 23.2548 14.3287 23.2505 11.6507 24.219C8.9727 25.1875 7.08726 26.7621 7.43945 27.7359C7.79163 28.7097 10.2481 28.714 12.9261 27.7455Z" fill="#4F2A12"/>
<path d="M12.8294 27.3568C15.5074 26.3883 17.3928 24.8138 17.0406 23.84C16.6885 22.8661 14.232 22.8618 11.554 23.8303C8.87602 24.7989 6.99058 26.3734 7.34277 27.3472C7.69495 28.3211 10.1514 28.3254 12.8294 27.3568Z" fill="#6F3B16"/>
<path d="M12.5257 26.6423C14.7168 25.8498 16.2646 24.5759 15.9829 23.7969C15.7011 23.0178 13.6965 23.0286 11.5054 23.8211C9.31431 24.6135 7.76649 25.8874 8.04824 26.6665C8.32998 27.4455 10.3346 27.4347 12.5257 26.6423Z" fill="#4F2A12"/>
<path d="M7.55908 25.0975L15.4055 22.2598L15.9476 23.7585L8.10112 26.5962L7.55908 25.0975Z" fill="#4F2A12"/>
<path d="M12.0486 25.1188C14.2397 24.3264 15.7876 23.0525 15.5058 22.2734C15.2241 21.4944 13.2194 21.5052 11.0283 22.2976C8.83726 23.09 7.28944 24.364 7.57118 25.143C7.85293 25.9221 9.85756 25.9112 12.0486 25.1188Z" fill="#6F3B16"/>
<path d="M4.96875 13.4063C5.15625 13.4063 5.0625 13.5 5.25 14.0625C5.53125 15 6.09375 16.6875 6.75 17.25C7.40625 17.8125 7.6875 19.6875 7.6875 19.7813C7.6875 19.875 8.34375 21.1875 9 21.75C9.65625 22.3125 10.125 22.7813 9.375 24.5625C9.375 24.5625 10.875 24.6562 11.625 23.7188L7.59375 12.4688L4.96875 13.4063Z" fill="#BC7708"/>
<path d="M10.125 11.5312L7.5 12.4688L11.5312 23.7187C12.75 24 13.7812 22.9688 13.7812 22.9688C12.0938 22.125 12.1875 21.4687 12.2813 20.5312C12.4688 19.6875 12.0937 18.375 12.0937 18.1875C12.0937 18.0937 11.0625 16.5 11.1562 15.6563C11.3437 14.8125 10.6875 13.2188 10.3125 12.2813C10.125 11.7188 10.0313 11.625 10.125 11.5312Z" fill="#BC7708"/>
<path d="M7.5 12.4688L10.5938 21.4688L11.0625 21.2813L8.34375 13.2188L10.3125 11.9063C10.3125 11.9063 10.2188 11.7188 10.3125 11.625L7.5 12.4688Z" fill="#F28E02"/>
<path d="M4.96875 13.4063C5.0625 13.5 5.15625 13.6875 5.15625 13.6875L7.5 13.5L10.6875 21.0938L11.0625 21.2813L7.6875 12.375L4.96875 13.4063Z" fill="#F28E02"/>
<path d="M5.34375 13.3125C5.53125 13.4062 5.4375 13.3125 5.71875 13.9687C6 14.9062 6.5625 16.5 7.125 17.0625C7.6875 17.625 7.96875 19.4062 8.0625 19.5C8.0625 19.5937 8.625 20.8125 9.28125 21.375C9.84375 21.9375 10.3125 22.4063 9.75 24C9.75 24 11.0625 24.0938 11.625 23.25L7.59375 12.4688L5.34375 13.3125Z" fill="#FFBF4D"/>
<path d="M9.84375 11.625L7.5 12.4688L11.4375 23.4375C12.4688 23.7188 13.4062 22.7812 13.4062 22.7812C11.9062 21.9375 11.9062 21.2812 12.0937 20.4375C12.1875 19.5937 11.8125 18.375 11.8125 18.1875C11.8125 18.0938 10.7812 16.5 10.9687 15.75C11.0625 14.9062 10.4063 13.4063 10.125 12.4688C9.75 11.8125 9.65625 11.8125 9.84375 11.625Z" fill="#FFBF4D"/>
<path d="M7.5 12.4688L10.5 21.1875L10.875 21L8.25 13.2188L9.84375 12C9.84375 12 9.75 11.8125 9.84375 11.625L7.5 12.4688Z" fill="#F28E02"/>
<path d="M5.34375 13.3125C5.4375 13.4062 5.53125 13.5937 5.53125 13.5937L7.5 13.5L10.5 20.9062L10.875 21.0938L7.59375 12.4688L5.34375 13.3125Z" fill="#F28E02"/>
<path d="M6.09368 8.15625L3.18743 0C3.18743 0 1.49993 0.75 1.87493 1.96875C2.24993 3.1875 2.99993 3.375 3.18743 4.125C3.37493 4.875 3.56243 5.34375 2.24993 6.46875C0.937427 7.5 0.562427 7.96875 1.31243 9.375C2.06243 10.7812 2.15618 10.5 2.71868 12C2.71868 12 3.28118 12.6562 4.21868 13.125C4.59368 13.3125 4.78118 13.4062 4.87493 13.4062L7.49993 12.4688L6.09368 8.15625Z" fill="#BC7708"/>
<path d="M10.5 10.8757C10.9688 9.84447 10.9688 9.00072 10.9688 9.00072C10.4062 7.50072 10.6875 7.59447 10.4063 6.09447C10.125 4.59447 9.46875 4.40697 7.78125 4.40697C6.09375 4.40697 5.8125 3.93822 5.53125 3.28197C5.25 2.62572 5.71875 1.96947 5.25 0.84447C4.6875 -0.37428 3 0.0944699 3 0.0944699L6 8.15697L7.5 12.4695L10.125 11.532C10.2188 11.4382 10.3125 11.3445 10.5 10.8757Z" fill="#BC7708"/>
<path d="M10.2187 11.3433C10.3125 11.062 6.28125 8.99955 6.28125 8.99955C6.28125 8.99955 6.375 9.56205 6.46875 9.6558L7.5 12.4683L10.2187 11.5308V11.3433ZM7.5 8.7183C7.5 8.7183 8.8125 8.62455 9.375 9.18705C9.375 9.18705 9.46875 9.0933 9.46875 8.9058C9.46875 8.7183 9.1875 7.49955 9.28125 7.31205C9.28125 7.31205 9.09375 7.49955 9.09375 7.5933V8.5308L7.5 8.7183ZM6.65625 8.1558C6.65625 8.1558 6.46875 8.24955 6.375 8.1558C6.28125 7.9683 6.65625 7.7808 6.84375 7.7808C7.03125 7.7808 8.25 7.2183 8.25 7.2183C8.25 7.2183 8.625 6.8433 8.625 6.6558C8.625 6.4683 8.90625 6.4683 8.90625 6.56205C9 6.74955 8.71875 7.31205 8.71875 7.31205C8.71875 7.4058 6.65625 8.1558 6.65625 8.1558ZM7.5 4.7808C7.5 4.7808 6.09375 5.24955 5.71875 5.7183C5.34375 6.18705 5.53125 6.18705 5.625 5.99955C5.71875 5.81205 6.1875 5.62455 6.46875 5.5308C6.75 5.43705 7.6875 5.1558 7.6875 5.06205C7.78125 4.87455 7.5 4.7808 7.5 4.7808ZM6.9375 4.4058C6.9375 4.4058 6.1875 4.5933 5.71875 4.87455L4.96875 5.3433L4.5 3.93705C4.5 3.93705 5.34375 3.4683 5.4375 2.99955L5.8125 3.8433C6 4.2183 6.9375 4.4058 6.9375 4.4058ZM3.84375 2.1558C3.84375 2.1558 4.125 2.06205 4.21875 1.9683C4.40625 1.9683 4.96875 1.7808 4.96875 1.7808C5.0625 1.7808 5.15625 1.5933 5.0625 1.49955C5.0625 1.31205 5.25 1.12455 4.875 1.2183C4.5 1.4058 3.65625 1.68705 3.65625 1.68705L3.84375 2.1558Z" fill="#F28E02"/>
<path d="M4.125 2.71745C4.125 2.71745 4.40625 2.6237 4.40625 2.71745C4.5 2.8112 4.5 2.90495 4.40625 2.90495C4.3125 2.9987 4.125 3.09245 4.125 3.09245V2.71745ZM4.21875 3.3737C4.21875 3.3737 4.3125 3.27995 4.5 3.27995C4.6875 3.27995 4.875 3.27995 4.6875 3.3737C4.59375 3.46745 4.40625 3.5612 4.40625 3.5612H4.3125L4.21875 3.3737ZM6.5625 9.65495C6.5625 9.46745 6.28125 8.9987 6.28125 8.9987L4.6875 13.3112C4.78125 13.3112 4.78125 13.4049 4.875 13.4987L7.59375 12.5612L6.5625 9.65495ZM5.15625 9.5612C5.15625 9.5612 4.125 10.3112 3.9375 11.1549C3.9375 11.1549 3.84375 11.1549 3.75 10.9674C3.65625 10.7799 3.09375 9.7487 2.90625 9.5612C2.90625 9.5612 3.1875 9.5612 3.28125 9.65495C3.375 9.7487 3.84375 10.3112 3.84375 10.3112C3.84375 10.3112 4.96875 9.5612 5.15625 9.5612Z" fill="#F28E02"/>
<path d="M5.53143 8.53125C5.53143 8.53125 5.71893 8.4375 5.71893 8.34375C5.71893 8.25 5.25018 8.34375 5.15643 8.4375C4.96893 8.53125 3.65643 8.90625 3.65643 8.90625C3.65643 8.90625 3.18768 8.90625 3.00018 8.71875C2.90643 8.625 2.62518 8.71875 2.71893 8.90625C2.81268 9.09375 3.37518 9.375 3.37518 9.375L5.53143 8.53125ZM2.62518 6.5625C2.62518 6.5625 4.03143 6 4.59393 6.09375C5.15643 6.1875 5.06268 6.28125 4.87518 6.28125C4.68768 6.28125 4.12518 6.28125 3.93768 6.375L2.62518 6.84375C2.53143 6.75 2.62518 6.5625 2.62518 6.5625ZM2.90643 5.90625C2.90643 5.90625 3.56268 5.53125 4.12518 5.4375C4.68768 5.34375 5.06268 5.34375 5.06268 5.34375L4.50018 3.9375C4.50018 3.9375 3.56268 4.125 3.18768 3.84375C3.18768 3.84375 3.28143 4.40625 3.46893 4.6875C3.56268 5.15625 2.90643 5.90625 2.90643 5.90625ZM3.93768 2.0625C3.93768 2.0625 3.46893 2.25 3.37518 2.25C3.18768 2.34375 2.71893 2.625 2.62518 2.625C2.53143 2.625 2.34393 2.625 2.34393 2.4375C2.34393 2.25 2.06268 2.34375 2.43768 2.15625C2.81268 1.96875 3.65643 1.6875 3.65643 1.6875L3.93768 2.0625ZM4.12518 2.71875C4.12518 2.71875 3.75018 2.8125 3.75018 2.90625C3.75018 3 3.75018 3.09375 3.93768 3.09375C4.03143 3.09375 4.21893 3 4.21893 3L4.12518 2.71875Z" fill="#F28E02"/>
<path d="M4.4064 3.28125C4.4064 3.28125 4.12515 3.28125 4.0314 3.46875C3.93765 3.5625 3.75015 3.65625 3.93765 3.65625C4.12515 3.65625 4.4064 3.5625 4.4064 3.5625H4.31265L4.4064 3.28125Z" fill="#F28E02"/>
<path d="M6.09378 8.34375L3.28128 0.46875C3.28128 0.46875 1.87503 1.125 2.25003 2.34375C2.71878 3.46875 3.37503 3.75 3.56253 4.40625C3.75003 5.0625 3.93753 5.625 2.81253 6.5625C1.68753 7.5 1.40628 7.96875 2.06253 9.375C2.71878 10.7812 2.81253 10.4062 3.37503 11.9062C3.37503 11.9062 3.84378 12.4688 4.78128 13.0312C5.06253 13.2188 5.15628 13.2188 5.25003 13.3125L7.59378 12.4688L6.09378 8.34375Z" fill="#FFBF4D"/>
<path d="M10.0312 11.1557C10.4062 10.2182 10.3125 9.37445 10.3125 9.37445C9.84375 7.87445 10.0312 8.06195 9.75 6.56195C9.46875 5.06195 8.90625 4.9682 7.40625 4.87445C5.90625 4.87445 5.71875 4.31195 5.4375 3.74945C5.25 3.0932 5.53125 2.43695 5.0625 1.31195C4.6875 0.186953 3.1875 0.561953 3.1875 0.561953L6 8.43695L7.5 12.4682L9.84375 11.6245C9.84375 11.5307 9.9375 11.437 10.0312 11.1557Z" fill="#FFBF4D"/>
<path d="M9.84375 11.5309C9.9375 11.3434 6.375 9.18717 6.375 9.18717C6.375 9.18717 6.46875 9.74967 6.5625 9.84342L7.5 12.5622L9.84375 11.7184V11.5309ZM7.40625 8.90592C7.40625 8.90592 8.53125 8.90592 9.09375 9.37467C9.09375 9.37467 9.1875 9.37467 9.1875 9.18717C9.1875 8.99967 8.8125 7.87467 8.90625 7.68717C8.90625 7.68717 8.71875 7.87467 8.71875 7.96842V8.81217C8.71875 8.81217 7.59375 8.81217 7.40625 8.90592ZM6.65625 8.34342C6.65625 8.34342 6.46875 8.43717 6.375 8.34342C6.28125 8.24967 6.65625 8.06217 6.75 8.06217L7.96875 7.49967C7.96875 7.49967 8.25 7.21842 8.25 7.03092C8.25 6.84342 8.4375 6.84342 8.53125 6.93717C8.625 7.12467 8.4375 7.68717 8.4375 7.68717L6.65625 8.34342ZM7.21875 5.15592C7.21875 5.15592 6 5.53092 5.71875 5.99967C5.4375 6.46842 5.53125 6.46842 5.71875 6.37467C5.8125 6.28092 6.1875 5.99967 6.375 5.90592C6.5625 5.81217 7.40625 5.53092 7.40625 5.43717C7.40625 5.34342 7.21875 5.15592 7.21875 5.15592ZM6.65625 4.78092C6.65625 4.78092 6.09375 4.87467 5.625 5.15592C5.34375 5.43717 5.0625 5.62467 5.0625 5.62467L4.59375 4.31217C4.59375 4.31217 5.25 3.84342 5.34375 3.46842C5.34375 3.46842 5.625 3.93717 5.71875 4.31217C5.90625 4.59342 6.65625 4.78092 6.65625 4.78092ZM4.03125 2.53092C4.03125 2.53092 4.21875 2.43717 4.40625 2.43717C4.59375 2.43717 4.96875 2.24967 5.0625 2.24967C5.15625 2.24967 5.25 2.06217 5.15625 1.96842C4.96875 1.78092 5.15625 1.68717 4.875 1.78092L3.84375 2.15592L4.03125 2.53092ZM4.21875 3.09342C4.21875 3.09342 4.40625 2.99967 4.5 3.09342C4.59375 3.18717 4.59375 3.28092 4.5 3.28092C4.40625 3.37467 4.21875 3.37467 4.21875 3.37467V3.09342Z" fill="#F28E02"/>
<path d="M4.40625 3.65625C4.40625 3.65625 4.5 3.5625 4.59375 3.5625C4.6875 3.65625 4.875 3.65625 4.78125 3.75C4.6875 3.84375 4.59375 3.9375 4.5 3.9375H4.40625V3.65625ZM6.65625 9.75C6.65625 9.5625 6.375 9.09375 6.375 9.09375C6.375 9.09375 4.96875 13.125 5.25 13.2188L5.34375 13.3125L7.6875 12.4688L6.65625 9.75ZM5.4375 9.65625C5.4375 9.65625 4.59375 10.3125 4.5 11.0625C4.5 11.0625 4.40625 11.0625 4.3125 10.875C4.21875 10.6875 3.65625 9.65625 3.46875 9.5625C3.46875 9.5625 3.75 9.5625 3.75 9.65625C3.84375 9.75 4.3125 10.3125 4.3125 10.3125C4.3125 10.3125 5.25 9.65625 5.4375 9.65625ZM5.625 8.71875C5.625 8.71875 5.8125 8.625 5.8125 8.53125C5.8125 8.4375 5.4375 8.53125 5.34375 8.53125C5.15625 8.625 4.03125 8.90625 4.03125 8.90625C4.03125 8.90625 3.65625 8.90625 3.5625 8.8125C3.46875 8.71875 3.28125 8.8125 3.28125 8.90625C3.28125 9 3.84375 9.375 3.84375 9.375L5.625 8.71875Z" fill="#F28E02"/>
<path d="M3.09393 6.65625C3.09393 6.65625 4.31268 6.1875 4.78143 6.28125C5.34393 6.46875 5.25018 6.5625 5.06268 6.5625H4.21893C4.03143 6.65625 3.28143 7.03125 3.18768 6.9375C3.09393 6.84375 3.09393 6.65625 3.09393 6.65625ZM3.37518 6.09375C3.37518 6.09375 3.93768 5.71875 4.40643 5.71875C4.87518 5.71875 5.06268 5.625 5.06268 5.625L4.59393 4.3125C4.59393 4.3125 3.84393 4.5 3.46893 4.21875C3.46893 4.21875 3.56268 4.6875 3.75018 5.0625C3.84393 5.34375 3.37518 6.09375 3.37518 6.09375ZM4.12518 2.4375C4.12518 2.4375 3.75018 2.53125 3.65643 2.625C3.46893 2.71875 3.00018 2.90625 3.00018 2.90625C3.00018 2.90625 2.81268 2.90625 2.71893 2.71875C2.71893 2.53125 2.43768 2.625 2.81268 2.4375C3.18768 2.25 3.84393 2.0625 3.84393 2.0625L4.12518 2.4375ZM4.21893 3.09375C4.21893 3.09375 3.93768 3.1875 3.93768 3.28125C3.93768 3.375 3.93768 3.46875 4.03143 3.46875C4.12518 3.46875 4.31268 3.375 4.31268 3.375L4.21893 3.09375Z" fill="#F28E02"/>
<path d="M4.50034 3.65625C4.50034 3.65625 4.31284 3.65625 4.21909 3.75C4.12534 3.84375 4.03159 4.03125 4.21909 4.03125C4.31284 4.03125 4.59409 3.9375 4.59409 3.9375H4.50034V3.65625Z" fill="#F28E02"/>
<path d="M6.46875 14.3438L7.5 14.0625C7.5 14.0625 7.6875 15.6562 7.96875 16.2187L9.75 19.9687L10.125 21.6562L8.90625 19.875C8.625 19.5 7.875 17.0625 7.875 17.0625C7.875 17.0625 6.375 15.0938 6.46875 14.3438ZM9.75 13.125L8.71875 13.5C8.71875 13.5 9.5625 14.9062 9.65625 15.4688L10.5 19.5L11.25 21.0938L11.1562 18.9375C11.1562 18.4688 10.2187 16.125 10.2187 16.125C10.2187 16.125 10.125 13.6875 9.75 13.125ZM2.71875 7.59375V8.25L4.21875 8.15625L6.09375 7.78125L7.96875 7.125L8.625 6L8.4375 5.625L6.9375 6.28125C6.84375 6.28125 5.34375 6.9375 5.25 7.03125C5.15625 7.125 2.71875 7.59375 2.71875 7.59375Z" fill="#FFDCA4"/>
<path d="M6.1875 6.5625V7.3125L7.875 7.125L8.8125 6.28125L8.53125 5.71875L6.1875 6.5625Z" fill="white"/>
</g>
<defs>
<clipPath id="clip0_47_47124">
<rect width="30" height="30" fill="white"/>
</clipPath>
</defs>
</svg>
