<svg width="16" height="16" viewBox="0 0 16 16" fill="none" xmlns="http://www.w3.org/2000/svg">
<path d="M2.66667 4.00391C2.66667 3.45161 3.11439 3.00391 3.66667 3.00391H12.3333C12.8856 3.00391 13.3333 3.45161 13.3333 4.00391V7.67057H2.66667V4.00391Z" stroke="#C5D0E6" stroke-linecap="round" stroke-linejoin="round"/>
<path d="M2 11.668V13.0013" stroke="#C5D0E6" stroke-linecap="round" stroke-linejoin="round"/>
<path d="M14 11.668V13.0013" stroke="#C5D0E6" stroke-linecap="round" stroke-linejoin="round"/>
<path d="M7.66667 7.66667V7C7.66667 6.4477 7.21897 6 6.66667 6H4.66667C4.11437 6 3.66667 6.4477 3.66667 7V7.66667" stroke="#C5D0E6" stroke-linecap="round" stroke-linejoin="round"/>
<path d="M12.3333 7.66667V7C12.3333 6.4477 11.8856 6 11.3333 6H9.33334C8.78104 6 8.33334 6.4477 8.33334 7V7.66667" stroke="#C5D0E6" stroke-linecap="round" stroke-linejoin="round"/>
<path d="M1.33333 8.66797C1.33333 8.11567 1.78104 7.66797 2.33333 7.66797H13.6667C14.219 7.66797 14.6667 8.11567 14.6667 8.66797V11.668H1.33333V8.66797Z" stroke="#C5D0E6" stroke-linecap="round" stroke-linejoin="round"/>
</svg>
