<svg width="35" height="35" viewBox="0 0 35 35" fill="none" xmlns="http://www.w3.org/2000/svg">
<g clip-path="url(#clip0_47_36806)">
<path d="M33.1402 10.6094L33.687 13.2344L31.937 13.3438L33.1402 10.6094ZM29.312 3.71875C28.437 2.84375 27.1245 1.53125 26.5777 1.3125C26.0308 1.09375 25.2652 1.09375 24.8277 1.09375H24.3902L5.90579 3.28125C4.81204 3.39062 3.71829 4.48437 3.39017 5.6875L0.218292 20.3438C0.218292 20.3438 0.108917 21.2188 0.874542 22.2031L2.29642 23.9531C2.40579 24.1719 2.62454 24.2812 2.84329 24.3906L1.20267 31.6094H3.28079L11.0464 24.8281H23.4058C24.8277 24.8281 26.2495 23.625 26.5777 22.2031L29.2027 8.75V8.85938L29.8589 5.46875C29.9683 4.8125 29.7495 4.15625 29.312 3.71875Z" fill="#5C2E0E"/>
<path d="M34.125 9.18937C33.3594 8.42375 32.1562 7.33 31.7188 7.11125C31.0625 6.78312 29.9688 6.8925 29.9688 6.8925L24.9375 7.33L30.1875 12.58L15.75 14.33C14.7656 14.4394 13.7812 15.4237 13.5625 16.5175L11.7031 25.0487L8.53125 22.8612L7.76562 23.1894L7.21875 25.8144C7.21875 25.8144 7.10938 26.58 7.76562 27.455C8.09375 27.8925 8.64063 28.5487 9.07813 28.9862C9.40625 29.4237 9.95312 29.6425 10.6094 29.6425H12.4687L20.6719 29.9706L24.1719 34.6737H27.3438L28.3281 29.6425H28.4375C29.75 29.6425 30.9531 28.5487 31.1719 27.3456L33.9062 14.2206V14.0019L34.5625 10.7206C34.7812 10.1737 34.5625 9.62687 34.125 9.18937Z" fill="#5C2E0E"/>
<path d="M20.6719 27.455L24.5 33.0331L26.7969 33.3612L26.3594 26.0331L20.6719 27.455ZM28.875 7.65813C28.875 7.65813 29.9688 7.54875 30.625 7.87687C31.0625 8.09562 32.2656 9.18938 32.9219 9.955C33.3594 10.3925 33.4688 10.9394 33.4688 11.4862L32.8125 14.4394L28.875 7.65813ZM8.96875 21.4394L8.09375 21.8769L7.65625 24.5019C7.65625 24.5019 7.54688 25.2675 8.20312 26.0331C8.53125 26.4706 9.07812 27.1269 9.51562 27.5644C9.84375 28.0019 10.3906 28.2206 10.9375 28.2206H12.7969L13.2344 24.3925L8.96875 21.4394Z" fill="#158427"/>
<path d="M11.9219 21L8.42188 24.2812L10.7188 27.6719L15.9688 26.6875L11.9219 21Z" fill="#158427"/>
<path d="M31.2813 11.1585L15.0938 13.1273C14.1094 13.2366 13.125 14.221 12.9063 15.2054L10.5 26.3616C10.2813 27.4554 10.8282 28.3304 11.8125 28.3304H23.1875L26.6875 33.3616L27.6719 28.4398H27.7813C29.0938 28.4398 30.2969 27.4554 30.5156 26.1429L33.1406 13.1273C33.3594 11.8148 32.4844 10.9398 31.2813 11.1585Z" fill="#158427"/>
<path d="M28.6563 7.65767L12.5782 9.62642C11.5938 9.73579 10.6094 10.7202 10.3907 11.7045L7.87503 22.8608C7.65628 23.9545 8.20315 24.8295 9.18753 24.8295H20.5625L24.0625 29.8608L25.0469 24.9389H25.1563C26.4688 24.9389 27.6719 23.9545 27.8907 22.642L30.4063 9.62642C30.7344 8.42329 29.8594 7.54829 28.6563 7.65767Z" fill="#158427"/>
<path d="M29.4219 8.53267L13.3438 10.5014C12.3594 10.6108 11.375 11.5952 11.1563 12.5795L8.75003 23.7358C8.53128 24.8295 9.07815 25.7045 10.0625 25.7045H21.4375L24.9375 30.7358L25.9219 25.8139H26.0313C27.3438 25.8139 28.5469 24.8295 28.7656 23.517L31.2813 10.5014C31.6094 9.29829 30.7344 8.42329 29.4219 8.53267Z" fill="#78ED74"/>
<path d="M16.0778 18.155C15.859 19.03 15.0934 19.6862 14.4372 19.6862C13.6715 19.6862 13.234 19.1394 13.4528 18.2644C13.6715 17.4987 14.3278 16.7331 15.0934 16.7331C15.7497 16.7331 16.1872 17.3894 16.0778 18.155ZM20.8903 17.9362C20.6715 18.8112 19.9059 19.5769 19.0309 19.5769C18.2653 19.5769 17.7184 18.9206 17.9372 18.155C18.1559 17.28 18.9215 16.6237 19.6872 16.5144C20.5622 16.405 20.9997 17.0612 20.8903 17.9362ZM26.1403 17.6081C25.9215 18.4831 25.0465 19.2487 24.1715 19.3581C23.2965 19.3581 22.7497 18.7019 22.9684 17.8269C23.1872 16.9519 23.9528 16.1862 24.8278 16.0769C25.7028 15.9675 26.2497 16.7331 26.1403 17.6081Z" fill="#73D7EF"/>
<path d="M15.6406 17.7188C15.4219 18.5938 14.6562 19.25 14 19.25C13.2344 19.25 12.7969 18.7031 13.0156 17.8281C13.2344 17.0625 13.8906 16.2969 14.6562 16.2969C15.3125 16.2969 15.8594 16.8438 15.6406 17.7188ZM20.4531 17.3906C20.2344 18.2656 19.4688 19.0312 18.5938 19.0312C17.8281 19.0312 17.2812 18.375 17.5 17.6094C17.7188 16.7344 18.4844 16.0781 19.25 15.9688C20.125 15.8594 20.6719 16.5156 20.4531 17.3906ZM25.7031 17.0625C25.4844 17.9375 24.6094 18.7031 23.7344 18.8125C22.8594 18.8125 22.3125 18.1563 22.5312 17.2813C22.75 16.4063 23.5156 15.6406 24.3906 15.5312C25.2656 15.5312 25.9219 16.1875 25.7031 17.0625ZM12.5781 22.6406L3.39062 29.9688H2.625L4.26562 26.9063L11.0469 21.3281L12.5781 22.6406Z" fill="#0F5B70"/>
<path d="M15.2027 23.2987L21.3277 21.8769L15.2027 23.2987ZM24.062 1.97062C24.062 1.97062 25.2652 1.86125 25.9214 2.18938C26.3589 2.40813 27.6714 3.61125 28.437 4.48625C28.8745 4.92375 29.0933 5.58 28.9839 6.23625L28.437 9.40813L24.062 1.97062ZM2.62454 16.955L1.74954 17.3925L1.20267 20.2362C1.20267 20.2362 1.09329 21.0019 1.85892 21.9862C2.18704 22.3144 2.73392 22.9706 3.17142 23.5175C3.60892 23.955 4.15579 24.2831 4.70267 24.2831H6.67142L7.10892 20.1269L2.62454 16.955Z" fill="#0F5B70"/>
<path d="M5.79688 16.4062L2.07812 19.9063L4.59375 23.625L10.1719 22.5313L5.79688 16.4062Z" fill="#0F5B70"/>
<path d="M26.6872 5.79996L9.29656 7.98746C8.20281 8.09684 7.21843 9.19059 6.99968 10.2843L4.37468 22.3156C4.15593 23.5187 4.70281 24.3937 5.79656 24.5031H22.9684C24.2809 24.5031 25.7028 23.4093 25.9216 21.9875L28.6559 7.98746C28.8747 6.56559 27.9997 5.58121 26.6872 5.79996Z" fill="#0F5B70"/>
<path d="M23.8434 2.0813L6.45281 4.2688C5.46843 4.2688 4.37468 5.36255 4.15593 6.4563L1.53093 18.4876C1.31218 19.6907 1.85906 20.5657 2.95281 20.6751H20.1247C21.4372 20.6751 22.8591 19.5813 23.0778 18.1594L25.8122 4.15943C26.1403 2.84693 25.1559 1.86255 23.8434 2.0813Z" fill="#0F5B70"/>
<path d="M24.7184 2.9545L7.32781 5.142C6.23406 5.25138 5.24968 6.34513 5.03093 7.43888L2.40593 19.4701C2.18718 20.6733 2.73406 21.5483 3.82781 21.6576H20.9997C22.3122 21.6576 23.7341 20.5639 23.9528 19.142L26.6872 5.142C27.0153 3.72013 26.1403 2.84513 24.7184 2.9545Z" fill="#73D7EF"/>
<path d="M23.7348 3.93609L7.98476 5.79546C7.00038 5.90484 6.12538 6.88921 5.90663 7.87359L3.50038 18.7017C3.28163 19.7955 3.82851 20.6705 4.70351 20.6705H20.3441C21.5473 20.6705 22.7504 19.6861 23.0785 18.3736L25.5941 5.68609C25.8129 4.59234 24.9379 3.71734 23.7348 3.93609Z" fill="#E9F9FF"/>
<path d="M10.281 13.3425C10.0623 14.2175 9.29665 14.9831 8.42165 14.9831C7.65603 14.9831 7.10915 14.3268 7.3279 13.4518C7.54665 12.5768 8.31228 11.8112 9.0779 11.8112C9.9529 11.8112 10.4998 12.4675 10.281 13.3425ZM15.4217 13.1237C15.2029 14.1081 14.3279 14.8737 13.4529 14.8737C12.5779 14.8737 12.031 14.2175 12.2498 13.3425C12.4685 12.4675 13.3435 11.7018 14.1092 11.5925C15.0935 11.4831 15.6404 12.1393 15.4217 13.1237ZM21.1092 12.7956C20.8904 13.78 20.0154 14.5456 19.031 14.655C18.0467 14.655 17.4998 13.9987 17.7185 13.0143C17.9373 12.03 18.8123 11.2643 19.7967 11.155C20.6717 11.0456 21.3279 11.8112 21.1092 12.7956Z" fill="#73D7EF"/>
<path d="M9.84353 12.905C9.62478 13.78 8.85915 14.5456 7.98415 14.5456C7.21853 14.5456 6.67165 13.8893 6.8904 13.0143C7.10915 12.1393 7.87478 11.3737 8.6404 11.3737C9.5154 11.2643 10.0623 11.9206 9.84353 12.905ZM14.9842 12.5768C14.7654 13.5612 13.8904 14.3268 13.0154 14.3268C12.1404 14.3268 11.5935 13.6706 11.8123 12.7956C12.031 11.9206 12.906 11.155 13.6717 11.0456C14.656 10.9362 15.2029 11.5925 14.9842 12.5768ZM20.6717 12.2487C20.4529 13.2331 19.5779 13.9987 18.5935 14.1081C17.6092 14.1081 17.0623 13.4518 17.281 12.4675C17.4998 11.4831 18.3748 10.7175 19.3592 10.6081C20.2342 10.4987 20.8904 11.2643 20.6717 12.2487Z" fill="#0F5B70"/>
<path d="M5.14062 20.6719L4.26562 26.9063L11.9219 20.6719H5.14062Z" fill="#73D7EF"/>
<path d="M6.01562 19.7969L4.8125 25.4844L11.7031 19.7969H6.01562Z" fill="#E9F9FF"/>
<path d="M4.15625 21.875L2.625 29.9687L4.15625 28.7656L5.03125 21.5469L4.15625 21.875Z" fill="#0F5B70"/>
</g>
<defs>
<clipPath id="clip0_47_36806">
<rect width="35" height="35" fill="white"/>
</clipPath>
</defs>
</svg>
