<svg width="12" height="12" viewBox="0 0 12 12" fill="none" xmlns="http://www.w3.org/2000/svg">
<mask id="mask0_0_108" style="mask-type:luminance" maskUnits="userSpaceOnUse" x="-2" y="-2" width="17" height="17">
<rect x="-1.28257" y="-1.28257" width="15.3908" height="15.3908" fill="white"/>
</mask>
<g mask="url(#mask0_0_108)">
<path fill-rule="evenodd" clip-rule="evenodd" d="M5.13026 10.2605C6.31407 10.2605 7.40233 9.85331 8.27062 9.17804L11.0897 11.9971L11.9965 11.0903L9.17739 8.27126C9.85331 7.40232 10.2605 6.31407 10.2605 5.13026C10.2605 2.30156 7.95896 0 5.13026 0C2.30156 0 0 2.30156 0 5.13026C0 7.95896 2.30156 10.2605 5.13026 10.2605ZM5.13026 1.28257C7.25226 1.28257 8.97796 3.00826 8.97796 5.13026C8.97796 7.25226 7.25226 8.97796 5.13026 8.97796C3.00826 8.97796 1.28257 7.25226 1.28257 5.13026C1.28257 3.00826 3.00826 1.28257 5.13026 1.28257Z" fill="#ADB5BD"/>
</g>
</svg>
