<svg width="44" height="35" viewBox="0 0 44 35" fill="none" xmlns="http://www.w3.org/2000/svg">
<path fill-rule="evenodd" clip-rule="evenodd" d="M38.4688 15.8303L43.2378 23.3805H0.0873234L4.85632 15.8302V1.94128L6.7976 0H36.5275L38.4688 1.94128V15.8303ZM34.5862 13.5736V3.88255H8.73887V13.5736C11.2407 12.9265 15.5626 12.1284 21.6626 12.1284C27.7625 12.1284 32.0844 12.9265 34.5862 13.5736Z" fill="#78797A"/>
<path d="M0 25.7692V29.6518H4.52351V34.9983H8.40606V29.6518H34.9183V34.9983H38.8009V29.6518H43.3245V25.7692H0Z" fill="#78797A"/>
<path d="M30.134 10.1089C30.134 10.1089 18.1385 5.41601 15.7351 5.41601C13.3317 5.41601 11.3834 6.50468 11.3834 7.84716V11.2421C11.3834 11.2421 13.9504 10.5958 15.7147 10.4287C17.3031 10.2782 30.134 10.1089 30.134 10.1089Z" fill="#78797A"/>
<path d="M31.9414 11.2421V7.84716C31.9414 6.50468 29.993 5.41601 27.5896 5.41601C25.1862 5.41601 13.1907 10.1089 13.1907 10.1089C13.1907 10.1089 26.0217 10.2781 27.6101 10.4287C29.3746 10.5958 31.9414 11.2421 31.9414 11.2421Z" fill="#78797A"/>
</svg>
