<svg width="100" height="18" viewBox="0 0 100 18" fill="none" xmlns="http://www.w3.org/2000/svg">
<g clip-path="url(#clip0_47_81260)">
<path fill-rule="evenodd" clip-rule="evenodd" d="M10.9031 9.64121C10.8389 9.50621 10.736 9.30692 10.5881 9.12049C10.5429 9.05847 10.484 9.00767 10.416 8.972C10.348 8.93633 10.2728 8.91676 10.196 8.91478C9.93886 8.91478 9.76529 9.10121 9.76529 9.35835C9.76529 9.44835 9.79101 9.52549 9.82958 9.60263L9.91315 9.76978C9.92601 9.79549 9.92601 9.82121 9.90029 9.83406C9.87458 9.84692 9.84886 9.83406 9.83601 9.81478L9.74601 9.66692C9.70488 9.59943 9.64737 9.54342 9.57882 9.50408C9.51026 9.46475 9.43289 9.44337 9.35386 9.44192C9.27372 9.44205 9.19494 9.4627 9.12504 9.5019C9.05514 9.54111 8.99644 9.59756 8.95454 9.66589C8.91265 9.73421 8.88895 9.81212 8.8857 9.8922C8.88246 9.97228 8.89978 10.0519 8.93601 10.1233L8.98101 10.2262C8.99386 10.2519 8.99386 10.2841 8.97458 10.2905C8.94886 10.3098 8.92315 10.2905 8.91029 10.2712C8.88517 10.2365 8.85945 10.2022 8.83315 10.1683C8.79396 10.1127 8.74197 10.0673 8.68155 10.036C8.62113 10.0046 8.55406 9.98831 8.48601 9.98835C8.25458 9.98835 8.06172 10.1619 8.06172 10.4383C8.06172 10.5155 8.10029 10.6183 8.13886 10.7083C8.32529 11.1262 8.41529 11.5376 8.41529 12.1676C8.43082 12.8656 8.16878 13.5413 7.68668 14.0463C7.20459 14.5513 6.54183 14.8444 5.84386 14.8612C5.25697 14.8754 4.6808 14.7023 4.19883 14.3672C3.71686 14.032 3.35411 13.5521 3.16315 12.9969C3.15958 12.9838 3.15329 12.9716 3.14469 12.9611C3.13609 12.9507 3.12537 12.9421 3.11324 12.936C3.1011 12.93 3.08782 12.9265 3.07427 12.9259C3.06071 12.9254 3.04719 12.9276 3.03458 12.9326L0.270291 13.7876C0.257202 13.7912 0.245012 13.7975 0.234519 13.8061C0.224026 13.8147 0.215466 13.8254 0.209399 13.8375C0.203332 13.8497 0.199893 13.863 0.199308 13.8765C0.198724 13.8901 0.201006 13.9036 0.206006 13.9162C0.584972 15.1019 1.33505 16.1344 2.34556 16.8613C3.35606 17.5882 4.57347 17.9711 5.81815 17.9533C6.7925 17.9442 7.74848 17.6872 8.59607 17.2065C9.44366 16.7259 10.155 16.0374 10.663 15.2059C11.171 14.3744 11.459 13.4273 11.4999 12.4538C11.5408 11.4803 11.3332 10.5124 10.8967 9.64121M5.76029 9.25549C5.68868 9.25549 5.62001 9.22705 5.56937 9.17641C5.51874 9.12578 5.49029 9.0571 5.49029 8.98549C5.49029 8.91388 5.51874 8.84521 5.56937 8.79457C5.62001 8.74394 5.68868 8.71549 5.76029 8.71549C5.8319 8.71549 5.90058 8.74394 5.95121 8.79457C6.00184 8.84521 6.03029 8.91388 6.03029 8.98549C6.03029 9.0571 6.00184 9.12578 5.95121 9.17641C5.90058 9.22705 5.8319 9.25549 5.76029 9.25549ZM5.76029 6.95406C5.68868 6.95406 5.62001 6.92562 5.56937 6.87498C5.51874 6.82435 5.49029 6.75567 5.49029 6.68406C5.49029 6.61245 5.51874 6.54378 5.56937 6.49314C5.62001 6.44251 5.68868 6.41406 5.76029 6.41406C5.8319 6.41406 5.90058 6.44251 5.95121 6.49314C6.00184 6.54378 6.03029 6.61245 6.03029 6.68406C6.03029 6.75567 6.00184 6.82435 5.95121 6.87498C5.90058 6.92562 5.8319 6.95406 5.76029 6.95406ZM5.76029 8.09835C5.72179 8.10434 5.68244 8.10193 5.64495 8.09128C5.60747 8.08063 5.57273 8.06199 5.54313 8.03664C5.51353 8.01129 5.48977 7.97984 5.47348 7.94444C5.45719 7.90904 5.44875 7.87053 5.44875 7.83156C5.44875 7.79259 5.45719 7.75409 5.47348 7.71869C5.48977 7.68328 5.51353 7.65183 5.54313 7.62648C5.57273 7.60114 5.60747 7.5825 5.64495 7.57184C5.68244 7.56119 5.72179 7.55878 5.76029 7.56478C5.8319 7.56478 5.90058 7.59322 5.95121 7.64386C6.00184 7.69449 6.03029 7.76317 6.03029 7.83478C6.03029 7.90639 6.00184 7.97506 5.95121 8.0257C5.90058 8.07633 5.8319 8.10478 5.76029 8.10478M7.87529 9.40335C7.66918 9.2237 7.44001 9.07236 7.19386 8.95335C7.08458 8.90192 7.03315 8.87621 6.89815 8.83763C6.79529 8.80549 6.69886 8.79263 6.60243 8.83763C6.53273 8.86758 6.47649 8.92215 6.44447 8.99093C6.41246 9.05971 6.4069 9.13787 6.42886 9.21049C6.46101 9.33906 6.56386 9.39049 6.67315 9.44192C6.94036 9.56245 7.19274 9.71345 7.42529 9.89192C7.56672 9.98835 7.74672 10.0076 7.87529 9.89192C8.01672 9.76335 8.01672 9.54478 7.87529 9.40335ZM8.83958 8.72835C8.65958 8.54835 8.45386 8.38763 8.26101 8.28478C8.19647 8.24938 8.12719 8.2234 8.05529 8.20763C7.99395 8.19247 7.9296 8.19465 7.86943 8.21395C7.80927 8.23325 7.75565 8.2689 7.71458 8.31692C7.66898 8.36948 7.64129 8.43519 7.63551 8.50453C7.62974 8.57387 7.64617 8.64325 7.68243 8.70263C7.74672 8.79906 7.82386 8.85049 7.91386 8.92121C8.05529 9.01763 8.15172 9.09478 8.28029 9.20406C8.37029 9.28121 8.44101 9.35835 8.55672 9.37121C8.70458 9.39049 8.85886 9.30692 8.92315 9.17835C9.00029 9.03049 8.95529 8.85049 8.83958 8.72835ZM7.15529 7.75121C7.07172 7.71906 7.00743 7.68692 6.89172 7.66121C6.80231 7.63345 6.70768 7.62685 6.61529 7.64192C6.56727 7.65247 6.52255 7.67459 6.48502 7.70634C6.44748 7.7381 6.41826 7.77853 6.39989 7.82413C6.38152 7.86974 6.37456 7.91914 6.37961 7.96804C6.38466 8.01695 6.40156 8.06389 6.42886 8.10478C6.48029 8.17549 6.53815 8.20763 6.62172 8.23335L6.82743 8.31049L7.00743 8.37478C7.05834 8.38362 7.11063 8.38005 7.15987 8.36438C7.20911 8.34872 7.25385 8.32141 7.29029 8.28478C7.45743 8.12406 7.39958 7.85406 7.15529 7.75121ZM6.87886 6.52335C6.82621 6.50976 6.77241 6.50115 6.71815 6.49763C6.65386 6.49121 6.57029 6.49763 6.51243 6.54263C6.38386 6.62621 6.34529 6.79978 6.41601 6.92835C6.44815 6.99263 6.50601 7.03763 6.57672 7.05692C6.64101 7.08263 6.71172 7.10835 6.77601 7.12121C6.92386 7.13406 7.06529 7.03763 7.09743 6.89621C7.14243 6.72906 7.03958 6.57478 6.87886 6.52335ZM8.31243 7.00549C8.15654 6.90681 7.98106 6.8432 7.79815 6.81906C7.74756 6.81737 7.69722 6.82697 7.65081 6.84716C7.60439 6.86736 7.56306 6.89764 7.52981 6.93581C7.49657 6.97398 7.47224 7.01908 7.45861 7.06783C7.44498 7.11658 7.44238 7.16775 7.45101 7.21763C7.47029 7.32049 7.54101 7.41049 7.63101 7.45549L7.84315 7.55835C7.92029 7.59692 7.99743 7.64835 8.08101 7.66763C8.18386 7.69978 8.29958 7.67406 8.38315 7.60978C8.57601 7.45549 8.53743 7.14692 8.31886 7.00549M9.83601 8.13049C9.69289 7.95153 9.52132 7.79733 9.32815 7.67406C9.23314 7.61238 9.11814 7.58938 9.00672 7.60978C8.95018 7.6201 8.89708 7.6443 8.8522 7.6802C8.80732 7.71611 8.77206 7.76259 8.74958 7.81549C8.72739 7.87669 8.72285 7.9429 8.73649 8.00656C8.75013 8.07022 8.7814 8.12876 8.82672 8.17549C8.89101 8.24621 8.95529 8.29121 9.01958 8.35549C9.116 8.43906 9.19958 8.51621 9.28315 8.60621C9.36029 8.68335 9.44386 8.74121 9.55958 8.74763C9.69458 8.74763 9.82958 8.67692 9.88743 8.55478C9.92251 8.48747 9.93695 8.41132 9.92894 8.33585C9.92094 8.26037 9.89085 8.18894 9.84243 8.13049" fill="#31312F"/>
<path fill-rule="evenodd" clip-rule="evenodd" d="M0.616733 8.32974C0.681018 8.47117 0.777447 8.67045 0.925304 8.85688C1.02173 8.97903 1.16316 9.0626 1.32388 9.0626C1.58102 9.0626 1.75459 8.86974 1.75459 8.6126C1.75278 8.52723 1.73074 8.44351 1.6903 8.36831L1.60673 8.2076C1.59388 8.18188 1.59388 8.14974 1.61316 8.14331C1.6453 8.12403 1.67102 8.14331 1.68388 8.1626L1.77388 8.31046C1.85745 8.43903 1.99888 8.53545 2.16602 8.53545C2.24706 8.5359 2.32683 8.51535 2.39757 8.47581C2.46831 8.43627 2.52761 8.37909 2.56968 8.30982C2.61176 8.24056 2.63518 8.16158 2.63767 8.08058C2.64015 7.99958 2.62162 7.91931 2.58388 7.8476L2.53245 7.74474C2.51959 7.71903 2.51959 7.69331 2.5453 7.68046C2.57102 7.66117 2.59673 7.68045 2.60959 7.69974L2.68673 7.80903C2.76388 7.91831 2.88602 7.9826 3.02745 7.9826C3.2653 7.9826 3.45816 7.80903 3.45816 7.53903C3.45816 7.45545 3.41959 7.3526 3.38102 7.26903C3.17528 6.80871 3.07849 6.30713 3.09816 5.80331C3.08436 5.10642 3.34716 4.43243 3.82908 3.92883C4.31099 3.42523 4.97276 3.13303 5.66959 3.11617C6.25678 3.10016 6.8338 3.27162 7.31697 3.60568C7.80014 3.93973 8.16434 4.41902 8.35673 4.97403C8.37602 5.02546 8.42745 5.05117 8.47888 5.03831L11.2432 4.18331C11.2561 4.18036 11.2682 4.17478 11.2789 4.16692C11.2895 4.15906 11.2985 4.14909 11.3051 4.13763C11.3117 4.12617 11.3159 4.11347 11.3174 4.10031C11.319 4.08716 11.3177 4.07383 11.3139 4.06117C10.9349 2.87546 10.1848 1.84296 9.17433 1.11605C8.16382 0.389131 6.94641 0.00629398 5.70173 0.0240269C4.72772 0.0326296 3.77191 0.288925 2.92427 0.76879C2.07662 1.24866 1.36502 1.93631 0.856424 2.76704C0.347829 3.59776 0.0589733 4.54424 0.0170414 5.51739C-0.0248905 6.49053 0.181481 7.45835 0.616733 8.32974ZM5.75959 11.0233C5.7981 11.0173 5.83744 11.0197 5.87493 11.0304C5.91241 11.041 5.94715 11.0597 5.97675 11.085C6.00635 11.1104 6.03011 11.1418 6.0464 11.1772C6.06269 11.2126 6.07113 11.2511 6.07113 11.2901C6.07113 11.3291 6.06269 11.3676 6.0464 11.403C6.03011 11.4384 6.00635 11.4698 5.97675 11.4952C5.94715 11.5205 5.91241 11.5392 5.87493 11.5498C5.83744 11.5605 5.7981 11.5629 5.75959 11.5569C5.69595 11.547 5.63794 11.5146 5.59605 11.4657C5.55415 11.4168 5.53113 11.3545 5.53113 11.2901C5.53113 11.2257 5.55415 11.1634 5.59605 11.1145C5.63794 11.0656 5.69595 11.0332 5.75959 11.0233ZM5.75959 9.8726C5.7981 9.8666 5.83744 9.86901 5.87493 9.87967C5.91241 9.89032 5.94715 9.90896 5.97675 9.9343C6.00635 9.95965 6.03011 9.99111 6.0464 10.0265C6.06269 10.0619 6.07113 10.1004 6.07113 10.1394C6.07113 10.1784 6.06269 10.2169 6.0464 10.2523C6.03011 10.2877 6.00635 10.3191 5.97675 10.3445C5.94715 10.3698 5.91241 10.3885 5.87493 10.3991C5.83744 10.4098 5.7981 10.4122 5.75959 10.4062C5.69595 10.3963 5.63794 10.3639 5.59605 10.315C5.55415 10.2661 5.53113 10.2038 5.53113 10.1394C5.53113 10.075 5.55415 10.0127 5.59605 9.96376C5.63794 9.91484 5.69595 9.88251 5.75959 9.8726ZM3.63816 8.5676C3.84423 8.74731 4.0734 8.89865 4.31959 9.0176C4.4353 9.06903 4.48673 9.10117 4.62173 9.13974C4.72459 9.16545 4.82102 9.17831 4.91102 9.13974C5.05888 9.07546 5.13602 8.9276 5.09102 8.76046C5.05888 8.63188 4.95602 8.58046 4.8403 8.52903C4.57538 8.40796 4.32518 8.25698 4.09459 8.07903C3.95316 7.9826 3.77316 7.96974 3.64459 8.07903C3.50316 8.2076 3.50316 8.42617 3.64459 8.5676M2.6803 9.2426C2.8603 9.42903 3.06602 9.58974 3.25888 9.6926C3.32316 9.72474 3.37459 9.74403 3.46459 9.76331C3.52858 9.78281 3.597 9.78228 3.66067 9.76177C3.72434 9.74127 3.78022 9.70178 3.8208 9.6486C3.86139 9.59542 3.88473 9.53111 3.88771 9.46428C3.89068 9.39745 3.87314 9.33131 3.83745 9.27474C3.77316 9.17188 3.69602 9.12045 3.59959 9.05617C3.47361 8.9647 3.35137 8.8682 3.23316 8.76688C3.14959 8.69617 3.07888 8.61903 2.96316 8.59974C2.88874 8.58982 2.81307 8.60299 2.74638 8.63749C2.67969 8.67198 2.62521 8.72613 2.5903 8.7926C2.55803 8.86791 2.54935 8.95123 2.56542 9.03158C2.58149 9.11192 2.62154 9.1855 2.6803 9.2426ZM4.36459 10.2197C4.44173 10.2583 4.51245 10.284 4.62173 10.3162C4.71173 10.3355 4.81459 10.3483 4.90459 10.329C4.95206 10.3176 4.99606 10.2949 5.03284 10.2628C5.06961 10.2307 5.09806 10.1902 5.11576 10.1447C5.13345 10.0992 5.13985 10.0501 5.13443 10.0016C5.129 9.9531 5.1119 9.90663 5.08459 9.86617C5.03959 9.80188 4.9753 9.76974 4.89173 9.7376L4.69888 9.66688L4.50602 9.6026C4.45662 9.594 4.40589 9.59708 4.35789 9.61159C4.30989 9.6261 4.26595 9.65164 4.22959 9.68617C4.06245 9.85331 4.11388 10.1169 4.35816 10.2262M4.64102 11.4476L4.7953 11.4797C4.86602 11.4797 4.94316 11.4797 5.00745 11.4283C5.13602 11.3512 5.17459 11.1776 5.10388 11.0426C5.06743 10.9819 5.0104 10.9363 4.94316 10.914C4.87888 10.8883 4.80816 10.869 4.74388 10.8562C4.67229 10.8493 4.60059 10.8682 4.54167 10.9094C4.48275 10.9506 4.44048 11.0115 4.42245 11.0812C4.37745 11.2483 4.4803 11.4026 4.64102 11.4476ZM3.20745 10.9655C3.3628 11.0664 3.53831 11.1322 3.72173 11.1583C3.92745 11.1647 4.10745 10.9655 4.06888 10.7597C4.05934 10.7089 4.03811 10.6609 4.00688 10.6196C3.97564 10.5783 3.93525 10.5449 3.88888 10.5219L3.67673 10.4126C3.59959 10.374 3.52245 10.329 3.43245 10.3033C3.3815 10.291 3.32843 10.2904 3.27722 10.3015C3.226 10.3127 3.17797 10.3353 3.13673 10.3676C2.93745 10.5219 2.97602 10.824 3.20102 10.9655M1.67745 9.84688C1.82302 10.0241 1.99677 10.1761 2.19173 10.2969C2.28173 10.3612 2.39745 10.3933 2.51316 10.3676C2.57038 10.3567 2.62393 10.3315 2.66886 10.2944C2.7138 10.2573 2.74869 10.2096 2.7703 10.1555C2.7925 10.0943 2.79703 10.028 2.78339 9.96439C2.76975 9.90073 2.73848 9.84219 2.69316 9.79545L2.5003 9.61546C2.40737 9.53733 2.31731 9.45585 2.2303 9.37117C2.15316 9.29403 2.06959 9.22974 1.9603 9.22974C1.89189 9.22604 1.82387 9.2423 1.76453 9.27654C1.70518 9.31078 1.65706 9.36152 1.62602 9.4226C1.59181 9.49051 1.57844 9.56702 1.58759 9.64252C1.59675 9.71801 1.62801 9.78911 1.67745 9.84688ZM31.821 6.17617C30.7603 6.17617 29.5389 6.53617 28.8189 7.3976V1.3226C28.8189 1.29702 28.8087 1.2725 28.7906 1.25441C28.7725 1.23633 28.748 1.22617 28.7224 1.22617H25.9067C25.8812 1.22617 25.8566 1.23633 25.8385 1.25441C25.8205 1.2725 25.8103 1.29702 25.8103 1.3226V17.4969C25.8103 17.5483 25.8553 17.5933 25.9067 17.5933H28.7224C28.7739 17.5933 28.8189 17.5483 28.8189 17.4969V11.0619C28.806 9.82117 29.526 8.84403 30.8953 8.84403C32.3417 8.84403 32.9524 9.85974 32.9524 11.1069V17.4969C32.9524 17.5483 32.9974 17.5933 33.0489 17.5933H35.8646C35.916 17.5933 35.961 17.5483 35.961 17.4969V10.5862C35.961 8.14331 34.6496 6.17617 31.821 6.17617ZM40.0496 0.95617C39.8037 0.956164 39.5602 1.00481 39.3332 1.0993C39.1061 1.19379 38.9001 1.33227 38.7268 1.50674C38.5535 1.68122 38.4164 1.88826 38.3235 2.11593C38.2306 2.3436 38.1836 2.58741 38.1853 2.83331C38.1853 3.82331 39.021 4.66546 40.0432 4.66546C40.3054 4.66754 40.565 4.61352 40.8046 4.507C41.0442 4.40049 41.2583 4.24395 41.4324 4.04789C41.6066 3.85184 41.7367 3.6208 41.8142 3.37029C41.8917 3.11978 41.9147 2.85559 41.8817 2.59546C41.8232 2.14871 41.6058 1.73793 41.2695 1.43815C40.9331 1.13837 40.5001 0.969575 40.0496 0.962598M41.4639 6.47188H38.6482C38.6226 6.47188 38.5981 6.48204 38.58 6.50013C38.5619 6.51821 38.5517 6.54274 38.5517 6.56831V17.4969C38.5517 17.5483 38.5903 17.5933 38.6482 17.5933H41.4574C41.5153 17.5933 41.5539 17.5483 41.5539 17.4969V6.56831C41.5539 6.54274 41.5437 6.51821 41.5256 6.50013C41.5075 6.48204 41.483 6.47188 41.4574 6.47188M49.8403 15.1955C48.3296 15.1955 47.0374 14.019 47.0374 12.0069C47.0374 9.97546 48.3232 8.84403 49.8403 8.84403C51.3832 8.84403 52.6046 9.97546 52.6046 12.0069C52.6046 14.0447 51.3832 15.1955 49.8403 15.1955ZM50.4767 6.17617C48.8246 6.17617 47.6032 6.9026 47.1082 7.69331V1.32903C47.109 1.31583 47.1072 1.3026 47.1027 1.29015C47.0983 1.2777 47.0913 1.26629 47.0823 1.25665C47.0732 1.247 47.0623 1.23932 47.0502 1.23407C47.038 1.22883 47.025 1.22614 47.0117 1.22617H44.2474C44.2343 1.22529 44.221 1.22713 44.2086 1.23158C44.1961 1.23603 44.1847 1.24299 44.1751 1.25204C44.1654 1.26108 44.1577 1.27201 44.1525 1.28415C44.1473 1.29629 44.1446 1.30938 44.1446 1.3226V17.4969C44.1446 17.5483 44.1896 17.5933 44.241 17.5933H46.9667C47.0182 17.5933 47.0632 17.5483 47.0632 17.4969V16.2369C47.6482 17.1883 48.8246 17.8633 50.361 17.8633C53.5239 17.8633 55.6067 15.3562 55.6067 11.9876C55.6067 8.68974 53.7296 6.17617 50.4767 6.17617ZM73.6067 15.0219C73.4139 15.054 73.0924 15.0862 72.7967 15.0862C71.9353 15.0862 71.4853 14.7647 71.4853 13.8005V9.13974H73.626C73.6839 9.13974 73.7224 9.09474 73.7224 9.04331V6.56831C73.7224 6.54274 73.7123 6.51821 73.6942 6.50013C73.6761 6.48204 73.6516 6.47188 73.626 6.47188H71.4853V3.24474C71.4853 3.21917 71.4751 3.19464 71.4571 3.17656C71.439 3.15847 71.4145 3.14831 71.3889 3.14831H68.6117C68.5862 3.14831 68.5616 3.15847 68.5435 3.17656C68.5255 3.19464 68.5153 3.21917 68.5153 3.24474L68.5089 6.47188H66.5867C66.5612 6.47188 66.5366 6.48204 66.5185 6.50013C66.5005 6.51821 66.4903 6.54274 66.4903 6.56831V9.04331C66.4903 9.09474 66.5353 9.13974 66.5867 9.13974H68.5024V14.3147C68.5024 16.4619 69.8589 17.754 72.0317 17.754C72.5845 17.7683 73.1353 17.6834 73.6582 17.5033C73.6967 17.4905 73.7224 17.4519 73.7224 17.4133V15.1119C73.7228 15.0983 73.72 15.0847 73.7143 15.0723C73.7086 15.0599 73.7002 15.049 73.6897 15.0403C73.6792 15.0316 73.6668 15.0255 73.6535 15.0223C73.6403 15.0191 73.6265 15.019 73.6132 15.0219M93.1432 15.1955C91.5553 15.1955 90.3789 13.9997 90.3789 12.0069C90.3789 10.0205 91.6003 8.86974 93.1432 8.86974C94.6796 8.86974 95.9075 9.99474 95.9075 11.9876C95.9075 13.9997 94.6796 15.2019 93.1432 15.2019M98.7232 1.22617H95.9267C95.9141 1.22617 95.9015 1.22866 95.8898 1.23351C95.8781 1.23836 95.8675 1.24546 95.8586 1.25441C95.8496 1.26337 95.8425 1.274 95.8376 1.2857C95.8328 1.2974 95.8303 1.30994 95.8303 1.3226V7.5776C95.5089 6.9926 94.6089 6.20188 92.6867 6.20188C89.5432 6.20188 87.351 8.75403 87.351 12.0069C87.351 15.3755 89.6139 17.8633 92.7767 17.8633C94.2682 17.8633 95.3996 17.1883 95.901 16.3076V17.4969C95.901 17.5483 95.946 17.5933 95.9975 17.5933H98.7232C98.781 17.5933 98.8196 17.5483 98.8196 17.4969V1.3226C98.8196 1.29702 98.8094 1.2725 98.7914 1.25441C98.7733 1.23633 98.7487 1.22617 98.7232 1.22617ZM78.0103 10.7662C78.0643 10.1513 78.3527 9.58069 78.8159 9.17261C79.279 8.76453 79.8813 8.5502 80.4982 8.57403C82.2146 8.57403 82.941 9.66045 82.986 10.7662H78.0103ZM80.4532 6.1376C77.6053 6.1376 74.9824 8.43903 74.9824 11.9876C74.9824 15.7419 77.6696 17.934 80.7232 17.934C82.9989 17.934 84.606 16.8219 85.4032 15.3369C85.4142 15.3139 85.4157 15.2874 85.4072 15.2633C85.3988 15.2392 85.3812 15.2194 85.3582 15.2083L83.1082 14.2247C83.0859 14.2132 83.0601 14.2108 83.0361 14.218C83.0121 14.2252 82.9918 14.2414 82.9796 14.2633C82.5553 14.9255 81.8417 15.3562 80.7489 15.3562C79.2574 15.3562 78.0103 14.2955 77.946 12.8233H85.8082C85.8596 12.8233 85.9046 12.7847 85.9046 12.7333C85.9174 12.5726 85.9496 12.2319 85.9496 11.8976C85.9496 8.32331 83.8924 6.13117 80.4532 6.13117V6.1376ZM62.4853 10.824L60.9039 10.4833C60.2932 10.374 59.8882 10.0655 59.8882 9.51903C59.8882 8.88903 60.5246 8.41331 61.3153 8.41331C62.3953 8.41331 62.9032 9.03046 63.0767 9.61546C63.096 9.67331 63.1539 9.69903 63.2053 9.67974L65.4425 8.81188C65.4555 8.80832 65.4677 8.80203 65.4782 8.79343C65.4887 8.78483 65.4973 8.77411 65.5033 8.76197C65.5094 8.74984 65.5128 8.73656 65.5134 8.72301C65.514 8.70945 65.5117 8.69592 65.5067 8.68331C65.1082 7.52617 63.9317 6.13117 61.2896 6.13117C58.8917 6.13117 57.1303 7.78331 57.1303 9.76974C57.1303 11.3319 58.101 12.6626 60.2482 13.1383L61.7203 13.479C62.5817 13.659 62.916 14.019 62.916 14.5205C62.916 15.1055 62.4467 15.6262 61.4503 15.6262C60.1903 15.6262 59.5346 14.874 59.4253 14.0319C59.423 14.0191 59.4182 14.0069 59.411 13.996C59.4039 13.9852 59.3947 13.9759 59.3839 13.9687C59.3731 13.9615 59.3609 13.9565 59.3482 13.9541C59.3354 13.9517 59.3223 13.9519 59.3096 13.9547L56.9246 14.4755C56.9001 14.4802 56.8784 14.4942 56.864 14.5145C56.8496 14.5349 56.8437 14.5601 56.8474 14.5847C57.0274 15.8576 58.1974 17.9276 61.476 17.9276C64.3882 17.9276 65.7832 16.0762 65.7832 14.2697C65.7832 12.6433 64.6839 11.274 62.4917 10.824M24.0424 14.1476L21.5739 13.3312C21.5616 13.3272 21.5487 13.3257 21.5359 13.3268C21.5231 13.3279 21.5106 13.3316 21.4993 13.3376C21.4879 13.3436 21.4778 13.3518 21.4696 13.3617C21.4615 13.3717 21.4554 13.3831 21.4517 13.3955C21.2852 13.9289 20.9474 14.3925 20.4907 14.7145C20.0339 15.0364 19.4837 15.1987 18.9253 15.1762C17.3889 15.1762 16.0774 14.0447 16.0774 12.0326C16.0774 10.0205 17.3632 8.91474 18.906 8.91474C20.1853 8.91474 20.8796 9.60903 21.2203 10.3933C21.246 10.4447 21.2974 10.464 21.3489 10.4512L23.8689 9.57688C23.8812 9.57322 23.8927 9.56713 23.9026 9.55897C23.9126 9.55081 23.9208 9.54074 23.9268 9.52936C23.9327 9.51798 23.9364 9.50551 23.9375 9.4927C23.9386 9.47988 23.9371 9.46698 23.9332 9.45474C23.316 7.73188 21.6317 6.13117 18.8353 6.13117C15.6017 6.13117 13.0753 8.59331 13.0753 12.0326C13.0753 15.4397 15.6467 17.934 18.9253 17.934C21.8439 17.934 23.5732 16.0955 24.1003 14.2697C24.1043 14.2575 24.1057 14.2446 24.1046 14.2318C24.1035 14.219 24.0999 14.2065 24.0939 14.1951C24.0879 14.1837 24.0797 14.1737 24.0698 14.1655C24.0598 14.1574 24.0483 14.1513 24.036 14.1476" fill="#31312F"/>
</g>
<defs>
<clipPath id="clip0_47_81260">
<rect width="99" height="18" fill="white"/>
</clipPath>
</defs>
</svg>
