<svg width="162" height="21" viewBox="0 0 162 21" fill="none" xmlns="http://www.w3.org/2000/svg">
<path fill-rule="evenodd" clip-rule="evenodd" d="M8.8 12.4746V6.86446H18.3333C19.3055 6.86558 20.2374 7.25797 20.9248 7.95553C21.6122 8.6531 21.9989 9.59888 22 10.5854V19.5156H20.5333V17.4498L1.46667 17.295V19.5156H0V3.51562H1.46667V6.49237H3.76883C4.83353 6.49359 5.85427 6.92334 6.60712 7.68735C7.35997 8.45136 7.78343 9.48722 7.78461 10.5677V12.4746H8.8ZM5.57048 8.73926C5.09259 8.25431 4.44466 7.98152 3.76883 7.98074H1.46667V12.4746H6.31794V10.5676C6.31718 9.88174 6.04837 9.22422 5.57048 8.73926ZM1.46667 15.8066V13.963H20.5333V15.9614L1.46667 15.8066ZM10.2667 8.35283V12.4746H20.5333V10.5854C20.5327 9.99349 20.3007 9.42602 19.8882 9.00748C19.4758 8.58894 18.9166 8.35351 18.3333 8.35283H10.2667Z" fill="#BABBC3"/>
<path fill-rule="evenodd" clip-rule="evenodd" d="M108.977 20.5078C108.424 20.5078 107.977 20.0601 107.977 19.5078C107.977 18.9555 108.424 18.5078 108.977 18.5078C109.529 18.5078 109.977 18.9555 109.977 19.5078C109.977 20.0601 109.529 20.5078 108.977 20.5078Z" fill="#BABBC3"/>
<path fill-rule="evenodd" clip-rule="evenodd" d="M102.507 12.2579C103.346 11.3888 104.351 10.6975 105.462 10.225C106.574 9.75256 107.769 9.50867 108.977 9.50788C110.192 9.50329 111.394 9.74456 112.513 10.2172C113.632 10.6898 114.644 11.384 115.487 12.2579C115.622 12.3993 115.712 12.5772 115.747 12.7695C115.782 12.9618 115.76 13.16 115.683 13.3398C115.607 13.5196 115.479 13.673 115.316 13.7811C115.153 13.8891 114.962 13.9471 114.767 13.9479C114.635 13.9473 114.504 13.9205 114.382 13.869C114.26 13.8175 114.15 13.7424 114.057 13.6479C113.404 12.9704 112.621 12.4315 111.755 12.0635C110.889 11.6954 109.958 11.5057 109.017 11.5057C108.076 11.5057 107.145 11.6954 106.279 12.0635C105.413 12.4315 104.63 12.9704 103.977 13.6479C103.886 13.7444 103.776 13.822 103.655 13.8762C103.534 13.9305 103.403 13.9603 103.27 13.964C103.002 13.9715 102.742 13.8722 102.547 13.6879C102.451 13.5966 102.373 13.4872 102.319 13.366C102.264 13.2447 102.235 13.1139 102.231 12.9812C102.227 12.8484 102.25 12.7162 102.297 12.5921C102.344 12.468 102.416 12.3544 102.507 12.2579ZM105.201 16.6102C105.206 16.3448 105.316 16.0922 105.507 15.9079C106.439 15.0097 107.683 14.5078 108.977 14.5079C110.271 14.5078 111.515 15.0097 112.447 15.9079C112.638 16.0922 112.748 16.3448 112.753 16.6102C112.757 16.8756 112.656 17.1319 112.472 17.3229C112.288 17.5138 112.035 17.6237 111.77 17.6284C111.504 17.6331 111.248 17.5322 111.057 17.3479C110.489 16.8279 109.747 16.5394 108.977 16.5394C108.207 16.5394 107.465 16.8279 106.897 17.3479C106.706 17.5322 106.45 17.6331 106.184 17.6284C105.919 17.6237 105.666 17.5138 105.482 17.3229C105.298 17.1319 105.197 16.8756 105.201 16.6102Z" fill="#BABBC3"/>
<path d="M108.976 4.51562C105.351 4.51563 101.866 5.9224 99.2565 8.43983C99.0877 8.62749 98.9961 8.87201 99.0001 9.12436C99.0041 9.37671 99.1034 9.61821 99.278 9.80042C99.4526 9.98264 99.6897 10.0921 99.9416 10.1068C100.194 10.1215 100.442 10.0405 100.636 9.87983C102.874 7.71695 105.864 6.50795 108.976 6.50795C112.089 6.50795 115.079 7.71695 117.316 9.87983C117.502 10.0585 117.749 10.1588 118.006 10.1598C118.141 10.1593 118.274 10.1316 118.398 10.0783C118.522 10.0251 118.634 9.94733 118.726 9.84983C118.909 9.65854 119.008 9.40285 119.002 9.13864C118.997 8.87444 118.887 8.6232 118.696 8.43983C116.087 5.9224 112.602 4.51563 108.976 4.51562Z" fill="#BABBC3"/>
<path fill-rule="evenodd" clip-rule="evenodd" d="M146.705 1.80851C146.514 1.99604 146.407 2.25038 146.407 2.51559V5.18217C146.407 5.44738 146.514 5.70173 146.705 5.88926C146.895 6.07679 147.154 6.18214 147.424 6.18214C147.693 6.18214 147.952 6.07679 148.143 5.88926C148.334 5.70173 148.441 5.44738 148.441 5.18217V2.51559C148.441 2.25038 148.334 1.99604 148.143 1.80851C147.952 1.62098 147.693 1.51562 147.424 1.51562C147.154 1.51562 146.895 1.62098 146.705 1.80851ZM151.492 5.18217C151.492 5.44738 151.384 5.70173 151.194 5.88926C151.003 6.07679 150.744 6.18214 150.475 6.18214C150.205 6.18214 149.946 6.07679 149.755 5.88926C149.565 5.70173 149.458 5.44738 149.458 5.18217V2.51559C149.458 2.25038 149.565 1.99604 149.755 1.80851C149.946 1.62098 150.205 1.51562 150.475 1.51562C150.744 1.51562 151.003 1.62098 151.194 1.80851C151.384 1.99604 151.492 2.25038 151.492 2.51559V5.18217ZM154.245 5.88926C154.435 5.70173 154.542 5.44738 154.542 5.18217V2.51559C154.542 2.25038 154.435 1.99604 154.245 1.80851C154.054 1.62098 153.795 1.51562 153.525 1.51562C153.256 1.51562 152.997 1.62098 152.806 1.80851C152.616 1.99604 152.508 2.25038 152.508 2.51559V5.18217C152.508 5.44738 152.616 5.70173 152.806 5.88926C152.997 6.07679 153.256 6.18214 153.525 6.18214C153.795 6.18214 154.054 6.07679 154.245 5.88926ZM160.944 13.7356C161.62 13.0517 161.999 12.1358 162 11.182V10.5153C161.999 9.54324 161.606 8.61128 160.907 7.92391C160.208 7.23654 159.26 6.84989 158.271 6.84879H143.017C142.747 6.84879 142.489 6.95414 142.298 7.14167C142.107 7.3292 142 7.58355 142 7.84875V11.8486C142.003 13.9504 142.812 15.9737 144.265 17.5151H143.017C142.747 17.5151 142.489 17.6205 142.298 17.808C142.107 17.9955 142 18.2499 142 18.5151C142 18.7803 142.107 19.0346 142.298 19.2222C142.489 19.4097 142.747 19.515 143.017 19.515H153.569L153.577 19.5153L153.586 19.5156L153.59 19.5154L153.591 19.5153L153.597 19.515H157.932C158.202 19.515 158.461 19.4097 158.651 19.2222C158.842 19.0346 158.949 18.7803 158.949 18.5151C158.949 18.2499 158.842 17.9955 158.651 17.808C158.461 17.6205 158.202 17.5151 157.932 17.5151H156.684C157.415 16.7383 157.989 15.8326 158.378 14.8459C159.347 14.8177 160.268 14.4195 160.944 13.7356ZM155.425 15.8959C155.994 15.2216 156.416 14.4389 156.663 13.5968L156.664 13.5908C156.669 13.5738 156.673 13.5569 156.679 13.5404C156.835 12.9897 156.915 12.4205 156.915 11.8486V8.84872H144.034V11.8486C144.036 13.0247 144.37 14.177 144.999 15.1774C145.628 16.1778 146.527 16.9871 147.595 17.5151H153.354C154.15 17.1214 154.855 16.5701 155.425 15.8959ZM158.949 8.98888C159.251 9.1187 159.508 9.33219 159.689 9.60327C159.869 9.87434 159.966 10.1913 159.966 10.5153V11.182C159.966 11.5147 159.864 11.8397 159.674 12.1152C159.484 12.3907 159.215 12.6041 158.901 12.7279C158.933 12.4359 158.949 12.1424 158.949 11.8486V8.98888Z" fill="#BABBC3"/>
<path fill-rule="evenodd" clip-rule="evenodd" d="M54.5 13.5156H55.5V19.5156C55.5 20.1156 55.9 20.5156 56.5 20.5156C57.1 20.5156 57.5 20.1156 57.5 19.5156V4.51562C55.8 4.51562 54.5 5.81562 54.5 7.51562V13.5156ZM52 7.51562V10.0156H51V7.51562C51 7.21563 50.8 7.01562 50.5 7.01562C50.2 7.01562 50 7.31562 50 7.51562V10.0156H49V7.51562C49 7.21563 48.8 7.01562 48.5 7.01562C48.2 7.01562 48 7.31562 48 7.51562V10.8156C48 11.7156 48.7 12.4156 49.5 12.5156V19.5156C49.5 20.1156 49.9 20.5156 50.5 20.5156C51.1 20.5156 51.5 20.1156 51.5 19.5156V12.5156C52.3 12.4156 53 11.7156 53 10.8156V7.51562C53 7.31562 52.8 7.01562 52.5 7.01562C52.2 7.01562 52 7.31562 52 7.51562ZM60.5 12.8156C59.5 12.1156 58.9 11.0156 59 9.81563C59 8.01563 60.1 6.51562 61.5 6.51562C62.9 6.51562 64 8.01563 64 9.81563C64.1 11.0156 63.5 12.1156 62.5 12.8156V19.5156C62.5 20.1156 62.1 20.5156 61.5 20.5156C60.9 20.5156 60.5 20.1156 60.5 19.5156V12.8156Z" fill="#BABBC3"/>
<path d="M31.7598 0.716797C31.5723 0.716797 31.3965 0.751953 31.2324 0.822266C31.0723 0.892578 30.9316 0.988281 30.8105 1.10938C30.6895 1.23047 30.5938 1.37305 30.5234 1.53711C30.4531 1.69727 30.418 1.87109 30.418 2.05859V2.39844L29.6621 2.27539V2.05859C29.6621 1.77344 29.7148 1.50586 29.8203 1.25586C29.9297 1.00586 30.0781 0.787109 30.2656 0.599609C30.4531 0.412109 30.6719 0.265625 30.9219 0.160156C31.1719 0.0507812 31.4395 -0.00390625 31.7246 -0.00390625H32.082C32.3672 -0.00390625 32.6348 0.046875 32.8848 0.148438C33.1387 0.25 33.3594 0.396484 33.5469 0.587891C33.7344 0.779297 33.8809 1.00977 33.9863 1.2793C34.0957 1.54492 34.1504 1.8457 34.1504 2.18164C34.1504 2.51367 34.0996 2.84766 33.998 3.18359C33.9004 3.51953 33.7695 3.84961 33.6055 4.17383C33.4453 4.49805 33.2598 4.8125 33.0488 5.11719C32.8418 5.42188 32.6289 5.70898 32.4102 5.97852C31.8984 6.60742 31.3184 7.21289 30.6699 7.79492H34.209V8.51562H29.4805V7.91797C30.2109 7.31641 30.8633 6.69336 31.4375 6.04883C31.6836 5.77148 31.9238 5.47656 32.1582 5.16406C32.3926 4.85156 32.6016 4.53125 32.7852 4.20312C32.9688 3.87109 33.1152 3.53516 33.2246 3.19531C33.3379 2.85156 33.3945 2.51367 33.3945 2.18164C33.3945 1.93555 33.3574 1.7207 33.2832 1.53711C33.209 1.35352 33.1094 1.20117 32.9844 1.08008C32.8594 0.958984 32.7148 0.869141 32.5508 0.810547C32.3906 0.748047 32.2227 0.716797 32.0469 0.716797H31.7598Z" fill="#BABBC3"/>
<path d="M77.7598 0.716797C77.5723 0.716797 77.3965 0.751953 77.2324 0.822266C77.0723 0.892578 76.9316 0.988281 76.8105 1.10938C76.6895 1.23047 76.5938 1.37305 76.5234 1.53711C76.4531 1.69727 76.418 1.87109 76.418 2.05859V2.39844L75.6621 2.27539V2.05859C75.6621 1.77344 75.7148 1.50586 75.8203 1.25586C75.9297 1.00586 76.0781 0.787109 76.2656 0.599609C76.4531 0.412109 76.6719 0.265625 76.9219 0.160156C77.1719 0.0507812 77.4395 -0.00390625 77.7246 -0.00390625H78.082C78.3672 -0.00390625 78.6348 0.046875 78.8848 0.148438C79.1387 0.25 79.3594 0.396484 79.5469 0.587891C79.7344 0.779297 79.8809 1.00977 79.9863 1.2793C80.0957 1.54492 80.1504 1.8457 80.1504 2.18164C80.1504 2.51367 80.0996 2.84766 79.998 3.18359C79.9004 3.51953 79.7695 3.84961 79.6055 4.17383C79.4453 4.49805 79.2598 4.8125 79.0488 5.11719C78.8418 5.42188 78.6289 5.70898 78.4102 5.97852C77.8984 6.60742 77.3184 7.21289 76.6699 7.79492H80.209V8.51562H75.4805V7.91797C76.2109 7.31641 76.8633 6.69336 77.4375 6.04883C77.6836 5.77148 77.9238 5.47656 78.1582 5.16406C78.3926 4.85156 78.6016 4.53125 78.7852 4.20312C78.9688 3.87109 79.1152 3.53516 79.2246 3.19531C79.3379 2.85156 79.3945 2.51367 79.3945 2.18164C79.3945 1.93555 79.3574 1.7207 79.2832 1.53711C79.209 1.35352 79.1094 1.20117 78.9844 1.08008C78.8594 0.958984 78.7148 0.869141 78.5508 0.810547C78.3906 0.748047 78.2227 0.716797 78.0469 0.716797H77.7598Z" fill="#BABBC3"/>
</svg>
