<svg width="16" height="16" viewBox="0 0 16 16" fill="none" xmlns="http://www.w3.org/2000/svg">
<path d="M5.00001 4.66667C5.73638 4.66667 6.33334 4.06971 6.33334 3.33333C6.33334 2.59695 5.73638 2 5.00001 2C4.26363 2 3.66667 2.59695 3.66667 3.33333C3.66667 4.06971 4.26363 4.66667 5.00001 4.66667Z" stroke="#C5D0E6" stroke-linecap="round" stroke-linejoin="round"/>
<path d="M11 4.66667C11.7364 4.66667 12.3333 4.06971 12.3333 3.33333C12.3333 2.59695 11.7364 2 11 2C10.2636 2 9.66667 2.59695 9.66667 3.33333C9.66667 4.06971 10.2636 4.66667 11 4.66667Z" stroke="#C5D0E6" stroke-linecap="round" stroke-linejoin="round"/>
<path d="M3.33333 6.66797H6.66666L5.99999 14.0013H3.99999L3.33333 6.66797Z" stroke="#C5D0E6" stroke-linecap="round" stroke-linejoin="round"/>
<path d="M9.33332 6.66797H12.6667L13.3333 10.3346H12.3333L12 14.0013H9.99999L9.66666 10.3346H8.66666L9.33332 6.66797Z" stroke="#C5D0E6" stroke-linecap="round" stroke-linejoin="round"/>
</svg>
