<svg width="30" height="30" viewBox="0 0 30 30" fill="none" xmlns="http://www.w3.org/2000/svg">
<g clip-path="url(#clip0_47_57825)">
<path d="M16.8749 4.96875L17.6249 7.3125L18.7499 7.96875C18.7499 7.96875 18.5624 5.25 17.0624 4.59375L16.8749 4.96875ZM7.59365 5.15625C7.59365 5.15625 5.6249 9.5625 7.8749 11.3438L8.34365 8.0625L7.59365 5.15625Z" fill="#663021"/>
<path d="M22.5938 4.5007C21.5625 2.43819 19.0313 0.375695 15.9375 0.188195C15 0.000694878 13.6875 0.0944449 12.0938 0.563195C6.37503 2.06319 7.31253 7.96945 7.31253 7.96945C8.34378 6.46945 10.4063 5.43819 13.875 5.53194C15.375 5.53194 16.5938 5.0632 17.3438 4.5007C18.2813 5.71944 19.5938 8.15695 19.4063 12.2819C19.4063 12.2819 19.5938 13.9694 22.125 14.0632C22.125 14.0632 21.9375 12.8444 22.3125 12.0007C22.7813 11.1569 23.7188 6.65694 22.5938 4.5007Z" fill="#663021"/>
<path d="M24.8439 9.75C24.8439 11.3437 23.5314 12.5625 21.9377 12.5625C20.3439 12.5625 19.1252 11.3438 19.2189 9.84375C19.2189 8.34375 20.4377 7.125 22.0314 7.03125C23.5314 7.03125 24.8439 8.25 24.8439 9.75Z" fill="#663021"/>
<path d="M26.625 15.3739C26.625 18.1864 24.4687 20.3427 21.9375 20.1552C19.5 19.9677 17.625 17.8114 17.625 15.1864C17.625 12.5614 19.5938 10.4989 22.0312 10.4989C24.4688 10.4052 26.625 12.6552 26.625 15.3739ZM11.625 13.8739C11.625 15.6552 10.2187 17.1552 8.625 17.0614C7.125 16.9677 5.90625 15.5614 5.90625 13.7802C6 12.0927 7.21875 10.6864 8.71875 10.5927C10.4062 10.5927 11.7187 12.0927 11.625 13.8739Z" fill="#663021"/>
<path d="M24.2813 9.1875C24.2813 10.7812 22.9688 12 21.375 12C19.875 12 18.6563 10.7812 18.6563 9.28125C18.6563 7.78125 19.875 6.5625 21.4688 6.46875C23.0625 6.46875 24.375 7.59375 24.2813 9.1875ZM11.8125 13.9687C11.8125 15.5625 10.5 16.875 9 16.7812C7.59375 16.6875 6.46875 15.375 6.46875 13.875C6.46875 12.375 7.6875 11.0625 9.09375 11.0625C10.5938 11.0625 11.8125 12.375 11.8125 13.9687Z" fill="#663021"/>
<path d="M22.1248 8.62684C22.1248 13.2206 18.3748 16.7831 14.0623 16.5956C10.031 16.4081 7.12476 13.0331 7.21851 9.00184C7.31226 4.97059 10.406 1.50184 14.3435 1.22059C18.5623 0.84559 22.2185 4.12684 22.1248 8.62684Z" fill="#663021"/>
<path d="M21.7498 8.06136C21.656 12.4676 18.0935 15.9364 13.9685 15.8426C10.1248 15.7489 7.21851 12.4676 7.31226 8.53011C7.40601 4.68636 10.406 1.31136 14.2498 0.936361C18.3748 0.467611 21.8435 3.65511 21.7498 8.06136Z" fill="#663021"/>
<path d="M21.6561 7.7808C21.6561 11.9996 18.2811 15.3746 14.3436 15.2808C10.6874 15.1871 7.96861 11.9996 8.15611 8.24955C8.24986 4.5933 10.3124 1.31205 14.7186 0.937052C18.4686 0.562052 21.7499 3.6558 21.6561 7.7808Z" fill="#663021"/>
<path d="M17.625 9.00032C17.5312 12.0003 15.2812 14.3441 12.5625 14.3441C9.9375 14.2503 8.0625 12.0003 8.0625 9.28156C8.15625 6.56281 10.2188 4.21906 12.75 4.03156C15.4688 3.75031 17.7187 6.00032 17.625 9.00032Z" fill="#663021"/>
<path d="M7.78109 7.875C7.78109 7.875 8.06234 6.84375 10.3123 6.65625C12.6561 6.5625 16.1248 6.65625 17.7186 4.875L17.1561 4.40625C17.1561 4.40625 15.6561 5.34375 13.2186 5.4375C10.8748 5.53125 7.96859 6.375 7.78109 6.5625C7.59359 6.9375 7.78109 7.875 7.78109 7.875ZM17.5311 10.3125C17.5311 10.7812 17.2498 11.1562 16.8748 11.1562C16.4998 11.1562 16.2186 10.7812 16.2186 10.3125C16.2186 9.84375 16.4998 9.46875 16.8748 9.46875C17.2498 9.46875 17.6248 9.84375 17.5311 10.3125Z" fill="#663021"/>
<path d="M17.1562 10.0301C17.1562 10.1238 17.0625 10.2176 16.9688 10.2176C16.875 10.2176 16.7812 10.1238 16.7812 10.0301C16.7812 9.93634 16.875 9.84259 16.9688 9.84259C17.0625 9.84259 17.1562 9.93634 17.1562 10.0301ZM12.0937 10.0301C12.0937 10.4988 11.8125 10.7801 11.4375 10.8738C11.0625 10.8738 10.875 10.4988 10.875 10.1238C10.875 9.65509 11.1562 9.37384 11.5312 9.28009C11.8125 9.18634 12.0937 9.56134 12.0937 10.0301Z" fill="#663021"/>
<path d="M11.7188 9.74913C11.7188 9.84288 11.625 9.93663 11.5312 9.93663C11.4375 9.93663 11.3438 9.84288 11.3438 9.74913C11.3438 9.65538 11.4375 9.56163 11.5312 9.56163C11.7188 9.56163 11.7188 9.65538 11.7188 9.74913ZM18.5625 3.09288C18.5625 3.09288 17.25 5.99913 13.7812 5.90538C10.5 5.81163 8.25 6.56163 7.3125 7.96788C7.3125 7.96788 7.5 2.34288 12.1875 1.12413C17.25 -0.282119 18.5625 2.24913 18.5625 3.09288Z" fill="#663021"/>
<path d="M16.3125 4.03125L16.4063 4.125C16.875 4.59375 19.3125 7.125 19.0312 12.4688C19.0312 12.4688 19.2188 14.1562 21.5625 14.1562C21.5625 14.1562 21.375 12.9375 21.75 12.1875C22.125 11.4375 23.0625 7.125 22.0313 4.96875C21 2.90625 18.4688 0.75 15.375 0.75" fill="#663021"/>
<path d="M18.8438 9.5625C18.8438 9.5625 19.7812 9 20.1562 9.375C20.8125 10.125 20.25 11.25 18.8438 11.4375V9.5625Z" fill="#663021"/>
<path d="M16.9688 5.34294C16.9688 5.34294 18.6563 7.21794 18.8438 9.56169C18.8438 9.56169 18.6562 6.09294 17.1562 4.96794L16.9688 5.34294ZM10.5 2.53044C10.5 2.53044 13.6875 0.561691 16.5 1.49919C16.5 1.49919 17.3438 2.53044 15.1875 2.90544C13.125 3.28044 13.2188 2.15544 10.5 2.53044ZM21.9375 7.31169C21.9375 7.31169 23.1562 8.71794 22.3125 10.1242C22.3125 10.1242 22.3125 10.6867 22.6875 10.7804C23.0625 10.7804 23.625 10.4992 23.5313 10.0304C23.4375 9.56169 23.625 7.59294 21.9375 7.31169Z" fill="#663021"/>
<path d="M6.46875 18.1871L14.0625 13.9684C14.0625 13.9684 20.3438 12.0934 21.75 13.5934C23.1563 15.0934 23.8125 21.1871 23.8125 21.1871C23.8125 21.1871 7.3125 20.9059 6.46875 18.1871Z" fill="#FFBC8F"/>
<path d="M6.9375 19.4065L12.0937 14.2503C12.0937 14.2503 18.1875 13.3128 19.4063 14.8128C20.625 16.3128 21.0938 22.4065 21.0938 22.4065C21.0938 22.4065 7.6875 22.1253 6.9375 19.4065Z" fill="#FFBC8F"/>
<path d="M12.2813 25.2188C12.2813 25.2188 15.2813 20.7188 17.4376 19.7813C19.5938 18.8438 21.2813 18.6562 21.2813 18.6562C21.2813 18.6562 23.8126 20.7188 24.2813 23.8125C24.7501 26.9062 23.4376 28.875 20.4376 29.4375C17.4376 30 12.7501 30.1875 12.2813 25.2188ZM11.9063 26.3438C11.9063 26.3438 8.34381 20.1562 4.59381 19.5C4.59381 19.5 0.375062 29.625 10.8751 28.4062C10.7813 28.3125 12.0001 28.0313 11.9063 26.3438Z" fill="#96172C"/>
<path d="M11.4375 24.8438H12.4688C12.4688 24.8438 12.75 28.0313 13.6875 28.6875C13.6875 28.6875 12.375 28.125 10.6875 28.4062C10.7812 28.3125 11.625 25.7812 11.4375 24.8438Z" fill="#96172C"/>
<path d="M10.5002 17.2497C10.5002 17.2497 6.09392 18.1872 5.25017 19.4997C4.40642 20.8122 1.59392 29.3435 12.1877 26.9997C22.7814 24.656 12.2814 16.9685 10.5002 17.2497Z" fill="#8E4028"/>
<path d="M15.0941 17.9062C15.0941 17.9062 12.0004 19.0312 11.4379 21.5625C10.9691 24.1875 11.4379 27.5625 15.0941 28.0312C18.7504 28.5 24.1879 28.875 23.7191 24.2812C23.2504 19.6875 20.5316 18.1875 20.5316 18.1875L15.0941 17.9062Z" fill="#8E4028"/>
<path d="M15.9378 17.9062C15.9378 17.9062 12.844 19.0312 12.2815 21.5625C11.719 24.0937 12.2815 27.5625 15.9378 28.0312C19.594 28.5 25.0315 28.875 24.5628 24.2812C24.094 19.6875 21.3753 18.1875 21.3753 18.1875L15.9378 17.9062Z" fill="#8E4028"/>
<path d="M12.5626 24.4688C12.5626 24.4688 15.5626 19.9687 17.7188 19.0312C19.8751 18.0937 21.5626 17.9062 21.5626 17.9062C21.5626 17.9062 24.0938 19.9688 24.5626 23.0625C24.9376 26.1562 23.7188 28.125 20.7188 28.6875C17.6251 29.25 13.0313 29.5312 12.5626 24.4688ZM12.1876 25.5937C12.1876 25.5937 8.62506 19.4062 4.87506 18.75C4.87506 18.75 0.656312 28.875 11.1563 27.6562C11.0626 27.6562 12.2813 27.2812 12.1876 25.5937Z" fill="#96172C"/>
<path d="M11.7188 24.0938H12.75C12.75 24.0938 13.0312 27.2812 13.9687 27.9375C13.9687 27.9375 12.6562 27.375 10.9688 27.6563C11.0625 27.6563 11.9063 25.0313 11.7188 24.0938ZM11.625 17.625C11.625 17.625 12.75 18.8438 12.5625 19.6875L13.4063 18.8438L11.625 17.625Z" fill="#8E4028"/>
<path d="M12.75 24.0938C12.75 24.0938 17.3438 20.1563 19.4063 19.875C21.4688 19.5938 24.1875 21.9375 24.1875 21.9375L21.5625 17.9062C21.5625 17.9062 16.3125 18.0938 12.75 24.0938Z" fill="#8E4028"/>
<path d="M11.625 24.75C11.625 24.75 10.0313 19.5938 4.59375 18.75L4.40625 20.5312C4.40625 20.5312 9.375 20.8125 11.625 24.75Z" fill="#96172C"/>
<path d="M16.7812 5.4375L17.4375 7.5L18.375 8.0625C18.375 8.0625 18.1875 5.625 16.9688 4.96875L16.7812 5.4375Z" fill="#D3674F"/>
<path d="M8.62512 5.53125C8.62512 5.53125 6.93762 9.5625 8.81262 11.1562L9.18762 8.15625L8.62512 5.53125Z" fill="#8E4028"/>
<path d="M21.375 9.56291C21.375 13.6879 18.0938 16.9692 14.3438 16.8754C10.875 16.7817 8.71876 13.5942 8.81251 9.93791C8.90626 6.28166 11.1563 3.18791 14.625 2.90666C18.2813 2.53166 21.4688 5.53166 21.375 9.56291Z" fill="#E07D69"/>
<path d="M21.8437 4.96875C20.9062 3.09375 18.6562 1.21875 16.0312 1.125C15.0938 0.9375 14.0625 1.03125 12.6562 1.40625C7.59375 2.8125 8.4375 8.15625 8.4375 8.15625C9.28125 6.84375 11.1563 5.8125 14.1563 5.90625C15.4688 5.90625 16.5 5.4375 17.25 4.96875C18.0937 6.09375 19.2187 8.34375 19.0312 12.0937C19.0312 12.0937 19.2187 13.6875 21.375 13.6875C21.375 13.6875 21.1875 12.5625 21.5625 11.8125C21.9375 10.9688 22.7812 6.9375 21.8437 4.96875Z" fill="#8E4028"/>
<path d="M23.7187 9.7481C23.7187 11.1544 22.5938 12.3731 21.1875 12.3731C19.7813 12.3731 18.75 11.2481 18.75 9.9356C18.75 8.6231 19.875 7.40435 21.1875 7.40435C22.5938 7.3106 23.7187 8.34185 23.7187 9.7481Z" fill="#8E4028"/>
<path d="M25.3125 14.9062C25.3125 17.4375 23.4375 19.4062 21.1875 19.2187C19.0313 19.125 17.4375 17.0625 17.4375 14.7187C17.4375 12.375 19.125 10.5 21.2813 10.4062C23.4375 10.4062 25.3125 12.375 25.3125 14.9062ZM12.1875 13.5C12.1875 15.1875 10.9688 16.4062 9.5625 16.4062C8.25 16.3125 7.21875 15 7.21875 13.5C7.21875 11.9062 8.34375 10.6875 9.75 10.5937C11.1562 10.5937 12.2813 11.9062 12.1875 13.5Z" fill="#8E4028"/>
<path d="M23.3438 9.2798C23.3438 10.6861 22.2188 11.8111 20.8126 11.9048C19.5001 11.9048 18.3751 10.7798 18.3751 9.4673C18.3751 8.1548 19.5001 6.93605 20.8126 6.93605C22.1251 6.74855 23.3438 7.7798 23.3438 9.2798ZM12.2813 13.5923C12.2813 15.0923 11.1563 16.2173 9.84382 16.2173C8.62507 16.1236 7.59382 14.9986 7.68757 13.5923C7.68757 12.1861 8.71882 11.0611 10.0313 11.0611C11.3438 10.9673 12.3751 12.0923 12.2813 13.5923Z" fill="#8E4028"/>
<path d="M21.375 8.71915C21.375 12.8441 18.0937 16.1254 14.3437 16.0316C10.875 15.9379 8.24999 12.7504 8.34374 9.09415C8.43749 5.4379 11.1562 2.34415 14.625 1.96915C18.2812 1.59415 21.4687 4.59415 21.375 8.71915Z" fill="#8E4028"/>
<path d="M21.0938 8.15461C21.0938 12.1859 17.9063 15.3734 14.2501 15.1859C10.8751 15.0921 8.34383 12.1859 8.43758 8.62336C8.53133 5.15461 11.1563 2.06086 14.5313 1.77961C18.0938 1.40461 21.0938 4.21711 21.0938 8.15461Z" fill="#FFBC8F"/>
<path d="M21.0003 7.9686C21.0003 11.8124 18.0003 14.8124 14.6253 14.7186C11.4378 14.6249 9.09402 11.7186 9.18777 8.3436C9.28152 5.06235 11.0628 2.06235 14.9065 1.68735C18.1878 1.4061 21.0003 4.2186 21.0003 7.9686Z" fill="#FFBC8F"/>
<path d="M17.4375 9.00012C17.4375 11.7189 15.375 13.8751 12.9375 13.8751C10.6875 13.8751 9 11.7189 9 9.28137C9.09375 6.84387 10.875 4.68763 13.125 4.50013C15.5625 4.31263 17.5312 6.37513 17.4375 9.00012Z" fill="#FFDEC7"/>
<path d="M8.81234 8.0625C8.81234 8.0625 8.99984 7.125 10.9686 7.03125C13.0311 6.9375 16.0311 7.03125 17.4373 5.4375L16.9686 4.96875C16.9686 4.96875 15.6561 5.8125 13.4998 5.90625C11.4373 6 8.90609 6.75 8.81234 6.9375C8.62484 7.21875 8.81234 8.0625 8.81234 8.0625Z" fill="#FFBC8F"/>
<path d="M17.625 10.2187C17.625 10.7812 17.25 11.1562 16.875 11.1562C16.5 11.1562 16.125 10.7812 16.125 10.2187C16.125 9.75 16.5 9.28125 16.875 9.28125C17.25 9.28125 17.625 9.65625 17.625 10.2187ZM11.5313 9.84375C11.5313 10.3125 11.25 10.7812 10.875 10.7812C10.5 10.7812 10.2188 10.4062 10.2188 9.9375C10.2188 9.46875 10.5 9 10.875 9C11.25 9 11.5313 9.375 11.5313 9.84375Z" fill="#663021"/>
<path d="M18.2812 3.65694C18.2812 3.65694 17.1562 6.28194 14.1563 6.18819C11.25 6.18819 9.28125 6.84444 8.4375 8.06319C8.4375 8.06319 8.625 2.90694 12.6562 1.78194C17.0625 0.656936 18.2812 2.90694 18.2812 3.65694Z" fill="#8E4028"/>
<path d="M16.3125 4.5C16.875 4.96875 18.9375 7.3125 18.6562 12.1875C18.6562 12.1875 18.8438 13.6875 20.8125 13.6875C20.8125 13.6875 20.625 12.5625 21 11.9062C21.375 11.1562 22.125 7.3125 21.2813 5.34375C20.4375 3.46875 18.0938 1.5 15.4688 1.5" fill="#8E4028"/>
<path d="M18.4688 9.5625C18.4688 9.5625 19.2187 9 19.5937 9.375C20.1562 10.0312 19.6875 11.0625 18.4688 11.25V9.5625ZM16.875 5.71875C16.875 5.71875 18.375 7.5 18.5625 9.46875C18.5625 9.46875 18.4688 6.375 17.0625 5.25L16.875 5.71875Z" fill="#FFBC8F"/>
<path d="M11.1562 3.28157C11.1562 3.28157 13.9688 1.50032 16.4063 2.34407C16.4063 2.34407 17.1562 3.28157 15.2812 3.65657C13.5 3.84407 13.5938 2.81282 11.1562 3.28157Z" fill="#A55038"/>
<path d="M21.1875 7.5C21.1875 7.5 22.2187 8.8125 21.4687 10.125C21.4687 10.125 21.4687 10.6875 21.8437 10.6875C22.2187 10.6875 22.6875 10.4062 22.5938 10.0312C22.5938 9.5625 22.6875 7.78125 21.1875 7.5Z" fill="#8E4028"/>
<path d="M12.375 25.125C12.375 25.125 15.1875 21 17.25 20.1563C19.3125 19.3125 20.9062 19.125 20.9062 19.125C20.9062 19.125 23.3437 21 23.7187 23.9062C24.0937 26.8125 22.9688 28.5938 20.0625 29.0625C17.1562 29.5312 12.8438 29.7187 12.375 25.125Z" fill="#96172C"/>
<path d="M12.0002 26.1562C12.0002 26.1562 8.62519 20.5312 5.06269 19.875C5.06269 19.875 1.03144 29.1562 10.9689 28.0312C10.9689 28.0312 12.0939 27.6562 12.0002 26.1562Z" fill="#96172C"/>
<path d="M11.625 24.75H12.6563C12.6563 24.75 12.9375 27.6563 13.7812 28.3125C13.7812 28.3125 12.5625 27.75 10.9688 28.0312C10.9688 28.0312 11.8125 25.5937 11.625 24.75Z" fill="#96172C"/>
<path d="M10.5002 16.4995C10.5002 16.4995 6.18769 17.812 5.43769 19.2183C4.68769 20.6245 2.25019 28.9683 12.2814 26.437C22.3127 23.9058 12.1877 16.312 10.5002 16.4995Z" fill="#FFDEC7"/>
<path d="M14.625 17.5312C14.625 17.5312 11.625 18.6562 11.1562 21.4687C10.6875 24.2812 11.1562 27.8438 14.625 28.3125C18.0937 28.7812 23.25 29.25 22.875 24.2812C22.4062 19.3125 19.7812 17.7187 19.7812 17.7187L14.625 17.5312Z" fill="#AF1E30"/>
<path d="M15.4689 16.875C15.4689 16.875 12.6564 18 12.1876 20.8125C11.7189 23.625 12.1876 27.1875 15.4689 27.6562C18.7501 28.125 23.7189 28.5938 23.2501 23.625C22.8751 18.6563 19.2189 17.0625 19.2189 17.0625L15.4689 16.875Z" fill="#FFBC8F"/>
<path d="M16.2189 16.875C16.2189 16.875 13.4064 18 12.9376 20.8125C12.4689 23.5313 12.9376 27.1875 16.2189 27.6562C19.5001 28.125 24.4689 28.5938 24.0001 23.625C23.6251 18.6563 19.4064 16.9688 19.4064 16.9688L16.2189 16.875Z" fill="#FFDEC7"/>
<path d="M12.6562 24.4687C12.6562 24.4687 15.4687 20.3438 17.5312 19.5C19.5938 18.6563 21.1875 18.4688 21.1875 18.4688C21.1875 18.4688 23.625 20.3438 24 23.25C24.375 26.1562 23.25 27.9375 20.3438 28.4062C17.4375 28.875 13.125 29.0625 12.6562 24.4687Z" fill="#DB2031"/>
<path d="M12.2814 25.5C12.2814 25.5 8.90644 19.875 5.34394 19.2188C5.34394 19.2188 1.31269 28.5 11.2502 27.375C11.2502 27.375 12.3752 27 12.2814 25.5Z" fill="#DB2031"/>
<path d="M11.8125 24.0938H12.8438C12.8438 24.0938 13.125 27 13.9688 27.6562C13.9688 27.6562 12.75 27.0938 11.1562 27.375C11.25 27.375 12 25.0312 11.8125 24.0938Z" fill="#AF1E30"/>
<path d="M11.7188 16.5938C11.7188 16.5938 12.75 17.9062 12.5625 18.75L13.4063 17.8125L11.7188 16.5938Z" fill="#FFBC8F"/>
<path d="M8.15645 17.5298C8.15645 17.5298 9.09395 16.8735 10.1252 17.061C11.1564 17.2485 12.1877 18.186 11.6252 18.4673C11.0627 18.8423 9.3752 19.4985 8.4377 19.0298C7.40645 18.6548 7.3127 17.9048 8.15645 17.5298Z" fill="#FFEDDE"/>
<path d="M6.37513 22.4057C6.37513 22.4057 7.87513 22.4057 8.90638 23.3432C9.93763 24.2807 10.3126 26.062 9.46888 26.062C8.62513 26.062 6.28138 25.4057 5.53138 24.2807C4.87513 23.062 5.34388 22.2182 6.37513 22.4057ZM16.3126 23.7182C16.3126 23.7182 17.1564 22.4057 18.4689 22.1245C19.7814 21.8432 21.4689 22.4057 21.0001 23.1557C20.5314 23.812 18.7501 25.4995 17.3439 25.4995C15.9376 25.4995 15.5626 24.562 16.3126 23.7182Z" fill="#F4374E"/>
<path d="M15.5623 17.718C15.5623 17.718 16.406 17.1555 17.2498 17.343C18.0935 17.4367 18.9373 18.2805 18.4685 18.5617C17.9998 18.843 16.5935 19.4055 15.8435 19.0305C14.906 18.6555 14.906 17.9992 15.5623 17.718Z" fill="#FFEDDE"/>
<path d="M12.8437 24.0929C12.8437 24.0929 17.1562 20.4367 19.2187 20.2492C21.2812 20.0617 23.8125 22.2179 23.8125 22.2179L21.1875 18.4679C21.1875 18.3742 16.125 18.5617 12.8437 24.0929ZM11.7187 24.7492C11.7187 24.7492 10.2188 20.0617 5.0625 19.2179L4.875 20.8117C4.875 20.8117 9.65625 21.0929 11.7187 24.7492Z" fill="#F4374E"/>
<path d="M26.0623 21.8451C26.0623 21.8451 21.9373 19.1264 21.7498 20.0639C21.5623 20.9076 23.4373 21.4701 23.4373 21.4701C23.4373 21.4701 22.7811 22.8764 21.2811 23.8139C21.2811 23.8139 20.4373 24.7514 20.6248 24.8451C20.9061 25.0326 22.9686 24.0951 22.9686 24.0951C22.9686 24.0951 20.6248 25.5951 21.0936 25.8764C21.5623 26.1576 23.6248 25.4076 23.6248 25.4076C23.6248 25.4076 22.2186 26.5326 22.5936 26.9076C22.9686 27.3764 27.7498 25.7826 26.0623 21.8451Z" fill="#AF1E30"/>
<path d="M26.6248 21.1889C26.6248 21.1889 22.4998 18.4701 22.3123 19.4076C22.1248 20.2514 23.9998 20.9076 23.9998 20.9076C23.9998 20.9076 23.3436 22.3139 21.8436 23.2513C21.8436 23.2513 20.9998 24.1889 21.1873 24.2826C21.4686 24.4701 23.5311 23.5326 23.5311 23.5326C23.5311 23.5326 21.1873 25.0326 21.6561 25.3139C22.1248 25.5951 24.1873 24.8451 24.1873 24.8451C24.1873 24.8451 22.7811 25.9701 23.1561 26.3451C23.5311 26.7201 28.2186 25.1264 26.6248 21.1889Z" fill="#FFBC8F"/>
<path d="M1.40623 20.2488C1.40623 20.2488 5.81248 17.3425 6.09373 18.28C6.37498 19.2175 4.21873 19.8738 4.21873 19.8738C4.21873 19.8738 4.96873 21.4675 6.56248 22.4988C6.56248 22.4988 7.49997 23.53 7.21872 23.6238C6.93748 23.8113 4.68748 22.78 4.68748 22.78C4.68748 22.78 7.21872 24.4675 6.74998 24.7488C6.28123 25.03 4.03123 24.28 4.03123 24.28C4.03123 24.28 5.53123 25.4988 5.15623 25.8738C4.78123 26.2488 -0.375024 24.4675 1.40623 20.2488Z" fill="#AF1E30"/>
<path d="M1.96882 19.8764C1.96882 19.8764 6.09382 17.1576 6.28132 18.0951C6.46882 18.9389 4.59382 19.5951 4.59382 19.5951C4.59382 19.5951 5.25007 21.0014 6.75007 21.9389C6.75007 21.9389 7.59382 22.8764 7.40632 22.9701C7.21882 23.0639 5.06257 22.2201 5.06257 22.2201C5.06257 22.2201 7.40632 23.7201 6.93757 24.0014C6.46882 24.2826 4.40632 23.5326 4.40632 23.5326C4.40632 23.5326 5.81257 24.6576 5.43757 25.0326C5.06257 25.5014 0.281324 23.8139 1.96882 19.8764Z" fill="#FFBC8F"/>
<path d="M3.56267 19.6875C3.56267 19.6875 3.56267 20.9063 4.21892 21.1875C4.87517 21.4688 4.21892 21.9375 4.21892 21.9375C4.21892 21.9375 4.50017 21.8437 4.40642 22.3125C4.31267 22.7812 3.75017 22.7812 3.56267 22.875C3.46892 22.875 3.00017 23.1563 2.71892 22.5938C2.43767 22.0313 1.78142 20.625 3.56267 19.6875ZM24.4689 21.5625C24.4689 21.5625 24.4689 22.7813 23.8127 23.0625C23.1564 23.3438 23.8127 23.8125 23.8127 23.8125C23.8127 23.8125 23.5314 23.7187 23.6252 24.1875C23.8127 24.6562 24.3752 24.75 24.4689 24.75C24.5627 24.75 25.0314 25.0313 25.3127 24.4688C25.5939 23.9063 26.2502 22.5 24.4689 21.5625Z" fill="#FFDEC7"/>
<path d="M16.9688 27.2812L16.6875 27.75L18.2813 28.875L27.4688 19.7813L25.9688 17.8125L16.9688 27.2812Z" fill="#9A4C18"/>
<path d="M27.6561 22.3125C27.3749 25.9688 23.9999 29.0625 20.2499 28.9688C16.4999 28.9688 14.1561 25.875 14.9061 22.3125C15.5624 18.9375 18.7499 16.4062 22.1249 16.3125C25.4061 16.4062 27.9374 18.9375 27.6561 22.3125Z" fill="#9A4C18"/>
<path d="M28.5939 23.5313C28.3126 27 25.0314 29.9062 21.2814 29.9062C17.6251 29.9062 15.3751 26.9062 16.0314 23.5313C16.6876 20.3438 19.7814 17.9062 23.0626 17.8125C26.4376 17.8125 28.8751 20.25 28.5939 23.5313Z" fill="#9A4C18"/>
<path d="M18 27.5625L19.5937 28.4062L27.0937 20.5312L25.875 18.8438L18 27.5625Z" fill="#F49937"/>
<path d="M27.844 23.5313C27.5627 26.5313 24.844 28.9688 21.7502 28.9688C18.7502 28.9688 16.7815 26.4375 17.344 23.5313C17.9065 20.8125 20.5315 18.6562 23.2502 18.5625C26.0627 18.5625 28.1252 20.7188 27.844 23.5313Z" fill="#F49937"/>
<path d="M26.9063 22.3125C26.625 25.5 23.7188 28.125 20.4375 28.125C17.1562 28.125 15.0938 25.4062 15.75 22.3125C16.3125 19.4062 19.125 17.0625 22.0313 17.0625C24.9375 17.0625 27.1875 19.3125 26.9063 22.3125Z" fill="#FFEDC0"/>
<path d="M26.4377 22.5938C26.1565 25.5938 23.4377 28.0312 20.344 28.0312C17.344 28.0312 15.3752 25.5 15.9377 22.5938C16.5002 19.875 19.1252 17.7187 21.844 17.625C24.6565 17.625 26.719 19.7813 26.4377 22.5938Z" fill="#FFD766"/>
<path d="M25.3127 22.5924C25.0314 24.8424 22.9689 26.8111 20.6252 26.8111C18.2814 26.8111 16.7814 24.9361 17.1564 22.6861C17.5314 20.5299 19.5939 18.8424 21.7502 18.8424C23.9064 18.6549 25.5002 20.3424 25.3127 22.5924Z" fill="#FFEDC0"/>
<path d="M25.3127 22.0313C25.0314 24.2813 22.9689 26.1562 20.6252 26.1562C18.2814 26.1562 16.7814 24.2813 17.1564 22.0313C17.5314 19.875 19.5939 18.1875 21.7502 18.1875C24.0002 18.1875 25.5939 19.7813 25.3127 22.0313Z" fill="#F49937"/>
<path d="M24.6563 22.594C24.4688 24.469 22.6875 26.1565 20.7188 26.0628C18.75 26.0628 17.4375 24.469 17.8125 22.594C18.0938 20.719 19.875 19.3128 21.75 19.3128C23.5313 19.219 24.8438 20.719 24.6563 22.594Z" fill="#FFD766"/>
<path d="M22.125 18.9375L22.6875 21L24.9375 21.5625L22.875 22.9687L22.6875 25.4062L20.8125 24L18.375 24.8437L19.4063 22.5937L18.1875 20.8125H20.625L22.125 18.9375Z" fill="#F49937"/>
</g>
<defs>
<clipPath id="clip0_47_57825">
<rect width="30" height="30" fill="white"/>
</clipPath>
</defs>
</svg>
