<svg width="17" height="16" viewBox="0 0 17 16" fill="none" xmlns="http://www.w3.org/2000/svg">
<path d="M9.54 0.12L10.14 0.253333L10.6267 0.426667L11.02 0.626667L11.32 0.84L11.5467 1.06667L11.7133 1.29333L11.82 1.51333L11.8867 1.71333L11.9133 1.88667L11.9267 2.02L11.92 2.10667V5.66667L11.8867 6.08667L11.8 6.45333L11.66 6.76L11.4867 7.01333L11.2867 7.22L11.0667 7.38667L10.8333 7.51333L10.6 7.60667L10.38 7.67333L10.18 7.72L10.0067 7.74667L9.86667 7.76H5.88667L5.42667 7.79333L5.03333 7.88667L4.7 8.03333L4.42667 8.21333L4.20667 8.42667L4.02667 8.66L3.89333 8.9L3.79333 9.14667L3.72667 9.38L3.68 9.59333L3.65333 9.77333L3.64 9.91333V11.9533H2.15333L2.01333 11.9333L1.82667 11.8867L1.61333 11.8067L1.38 11.6867L1.14 11.5133L0.9 11.2733L0.666667 10.9667L0.453333 10.5733L0.266667 10.0867L0.126667 9.5L0.0333333 8.8L0 7.98L0.04 7.16667L0.146667 6.47333L0.306667 5.89333L0.52 5.42L0.76 5.04L1.02667 4.74667L1.30667 4.52667L1.58667 4.36667L1.85333 4.26L2.09333 4.19333L2.30667 4.16L2.46667 4.15333H2.57333L2.61333 4.16H8.05333V3.60667H4.16L4.15333 1.77333L4.14 1.52667L4.17333 1.3L4.24667 1.09333L4.36 0.906667L4.52667 0.733333L4.73333 0.58L4.98667 0.446667L5.28 0.326667L5.62 0.226667L6.00667 0.146667L6.43333 0.08L6.90667 0.04L7.42 0.0133333L7.98 0L8.82667 0.0333333L9.54 0.12ZM5.34 1.44L5.18667 1.66L5.13333 1.93333L5.18667 2.20667L5.34 2.43333L5.56 2.58L5.83333 2.64L6.10667 2.58L6.32667 2.43333L6.48 2.20667L6.53333 1.93333L6.48 1.66L6.32667 1.44L6.10667 1.29333L5.83333 1.23333L5.56 1.29333L5.34 1.44ZM14.0667 4.07333L14.2533 4.11333L14.4667 4.19333L14.7 4.31333L14.94 4.49333L15.18 4.72667L15.4133 5.04L15.6267 5.43333L15.8133 5.92L15.9533 6.50667L16.0467 7.2L16.08 8.02L16.04 8.84L15.9333 9.53333L15.7733 10.1067L15.56 10.58L15.32 10.96L15.0533 11.26L14.7733 11.48L14.4933 11.64L14.2267 11.7467L13.9867 11.8067L13.7733 11.84L13.6133 11.8533L13.5067 11.8467H8.02667V12.3933H11.92L11.9267 14.2333L11.94 14.4733L11.9067 14.7L11.8333 14.9067L11.72 15.1L11.5533 15.2667L11.3467 15.4267L11.0933 15.56L10.8 15.6733L10.46 15.7733L10.0733 15.86L9.64667 15.92L9.17333 15.9667L8.66 15.9933L8.1 16L7.25333 15.9733L6.54 15.88L5.94 15.7467L5.45333 15.58L5.06 15.38L4.76 15.16L4.53333 14.9333L4.36667 14.7067L4.26 14.4867L4.19333 14.2867L4.16667 14.12L4.15333 13.9867L4.16 13.9V10.34L4.19333 9.91333L4.28 9.55333L4.42 9.24667L4.59333 8.99333L4.79333 8.78L5.01333 8.62L5.24667 8.48667L5.48 8.39333L5.7 8.32667L5.9 8.28667L6.07333 8.26L6.21333 8.24667L6.3 8.24H10.1933L10.6533 8.20667L11.0467 8.11333L11.38 7.97333L11.6533 7.78667L11.8733 7.57333L12.0533 7.34L12.1867 7.1L12.2867 6.86L12.3533 6.62667L12.4 6.41333L12.4267 6.22667L12.44 6.08667V4.04667H13.8333L13.9267 4.05333L14.0667 4.07333ZM9.75333 13.5733L9.6 13.7933L9.54667 14.0667L9.6 14.34L9.75333 14.56L9.97333 14.7133L10.2467 14.7667L10.52 14.7133L10.74 14.56L10.8933 14.34L10.9467 14.0667L10.8933 13.7933L10.74 13.5733L10.52 13.42L10.2467 13.3667L9.97333 13.42L9.75333 13.5733Z" fill="white"/>
</svg>
