<svg width="35" height="20" viewBox="0 0 35 20" fill="none" xmlns="http://www.w3.org/2000/svg">
<path d="M34.3592 19.4015C34.4473 18.6955 34.4926 17.9762 34.4926 17.2463C34.4926 7.72143 26.7712 0 17.2463 0C7.72143 0 0 7.72143 0 17.2463C0 18.183 0.0746765 19.1022 0.218407 19.9985C1.01056 18.914 2.24692 18.1399 3.58236 17.9044C5.02724 17.6496 6.34041 18.0001 7.45071 18.6551C7.38512 18.195 7.35118 17.7246 7.35118 17.2463C7.35118 11.7814 11.7814 7.35118 17.2463 7.35118C22.7112 7.35118 27.1414 11.7814 27.1414 17.2463C27.1414 17.6066 27.1221 17.9625 27.0846 18.3128C28.1715 17.6192 29.4719 17.2228 30.925 17.4272C32.2675 17.6158 33.5297 18.3459 34.3592 19.4015Z" fill="white"/>
</svg>
