<svg width="30" height="30" viewBox="0 0 30 30" fill="none" xmlns="http://www.w3.org/2000/svg">
<g clip-path="url(#clip0_47_44223)">
<path d="M19.2936 19.6876C20.1907 19.9829 21.0016 20.4937 21.6554 21.1753C22.3092 21.8569 22.7858 22.6884 23.0436 23.597C23.3106 24.5965 23.2886 25.6512 22.9799 26.6387C22.6712 27.6261 22.0886 28.5057 21.2998 29.1751C20.2764 29.849 19.0641 30.1775 17.8404 30.1126C14.9717 30.1126 12.1217 29.1751 9.25295 28.1813C8.27206 27.8982 7.33965 27.4683 6.48732 26.9063C6.03833 26.5966 5.65772 26.198 5.36906 25.7352C5.0804 25.2723 4.88984 24.7552 4.8092 24.2157C4.75429 23.4484 4.90836 22.6806 5.25502 21.9938C5.60168 21.3071 6.12798 20.7272 6.77795 20.3157C8.70247 19.0596 10.9582 18.4068 13.2561 18.4407C15.3181 18.5638 17.3515 18.9838 19.2936 19.6876Z" fill="#1D282C"/>
<path d="M19.2938 18.4119C20.1925 18.7043 21.0051 19.2142 21.6593 19.8962C22.3135 20.5782 22.7891 21.4112 23.0438 22.3213C23.3182 23.3277 23.2999 24.3914 22.991 25.3877C22.6821 26.384 22.0956 27.2716 21.3001 27.9463C20.28 28.6276 19.0652 28.9569 17.8407 28.8838C14.972 28.8838 12.122 27.9463 9.25321 26.9619C8.27233 26.6788 7.33991 26.2489 6.48759 25.6869C6.03937 25.3764 5.65932 24.9775 5.37075 24.5149C5.08218 24.0522 4.89118 23.5354 4.80947 22.9963C4.75384 22.2276 4.90752 21.4582 5.25417 20.7698C5.60082 20.0815 6.1275 19.4999 6.77822 19.0869C8.7044 17.8345 10.959 17.1819 13.2563 17.2119C15.316 17.32 17.3494 17.7241 19.2938 18.4119Z" fill="#3B3B3B"/>
<path d="M16.2189 19.3125C13.7746 20.4803 11.7225 22.3337 10.3127 24.6469C9.81793 22.7382 9.69382 20.7523 9.94704 18.7969C9.94704 18.7969 13.4439 20.3344 16.2189 19.3125Z" fill="#E5A98C"/>
<path d="M7.95002 17.6441C7.95002 17.6441 7.57502 18.6473 5.36252 18.6473C5.36252 18.6473 1.51877 11.841 8.2219 7.13477L7.95002 17.6441Z" fill="#8F8A78"/>
<path d="M16.9595 6.76833C16.9595 6.76833 20.1188 12.309 17.7563 20.6808C18.8695 20.6312 19.9609 20.3564 20.9648 19.873C21.9687 19.3896 22.8641 18.7076 23.597 17.8683C25.0595 16.1152 23.9438 11.3808 23.0345 8.28708C22.4813 6.41208 20.7095 5.69958 18.8251 6.25271L16.9595 6.76833Z" fill="#8F8A78"/>
<path d="M8.02515 16.9789C8.02515 16.9789 7.65953 17.9164 5.55953 17.9164C5.55953 17.9164 1.92203 11.5133 8.27828 7.09766L8.02515 16.9789Z" fill="#F4EACD"/>
<path d="M7.125 6.20564C7.36004 6.87105 7.7994 7.44514 8.38029 7.84587C8.96117 8.2466 9.65387 8.45346 10.3594 8.43689C13.0781 8.64314 22.5469 7.19001 22.5469 7.19001C21.7017 5.74197 20.5074 4.52864 19.0728 3.66072C17.6383 2.7928 16.0093 2.29793 14.3344 2.22126C12.885 2.17292 11.4495 2.51777 10.1802 3.21926C8.91096 3.92074 7.85522 4.95269 7.125 6.20564Z" fill="#8F8A78"/>
<path d="M18.6842 6.67552L19.6217 10.7818C19.6217 10.7818 14.4092 12.5911 6.34668 8.80365C6.39936 7.90958 6.65564 7.03938 7.09596 6.25948C7.53628 5.47958 8.14899 4.81061 8.8873 4.30365C11.4186 2.5599 18.6842 6.67552 18.6842 6.67552Z" fill="#6A8189"/>
<path d="M22.1096 12.5171C22.1266 7.89863 18.4047 4.14094 13.7966 4.12405C9.1885 4.10716 5.43918 7.83746 5.42225 12.4559C5.40532 17.0744 9.1272 20.8321 13.7353 20.8489C18.3434 20.8658 22.0927 17.1355 22.1096 12.5171Z" fill="#A67A65"/>
<path d="M21.7435 11.9047C21.7599 7.4312 18.151 3.79145 13.6827 3.77508C9.21436 3.7587 5.5788 7.37189 5.5624 11.8454C5.54601 16.3188 9.15499 19.9586 13.6233 19.975C18.0916 19.9913 21.7271 16.3782 21.7435 11.9047Z" fill="#E5A98C"/>
<path d="M21.6327 11.6764C21.6485 7.37896 18.2866 3.88283 14.1238 3.86757C9.96097 3.85232 6.57357 7.32371 6.55782 11.6211C6.54207 15.9186 9.90393 19.4147 14.0667 19.43C18.2296 19.4452 21.617 15.9738 21.6327 11.6764Z" fill="#E8CCAA"/>
<path d="M17.5097 12.7415C17.5212 9.60901 15.0708 7.06063 12.0368 7.04951C9.00266 7.03839 6.53373 9.56874 6.52225 12.7012C6.51077 15.8337 8.96108 18.3821 11.9952 18.3932C15.0293 18.4043 17.4982 15.874 17.5097 12.7415Z" fill="#FAEACF"/>
<path d="M7.2373 6.13104C7.46104 6.76257 7.87918 7.30693 8.43168 7.68593C8.98417 8.06492 9.64257 8.25905 10.3123 8.24041C12.8811 8.43729 21.8529 7.05916 21.8529 7.05916C21.0482 5.69222 19.9152 4.54765 18.5564 3.72914C17.1977 2.91063 15.6562 2.44405 14.0717 2.37166C12.6995 2.32464 11.3401 2.64913 10.1372 3.31085C8.93417 3.97257 7.93227 4.94695 7.2373 6.13104Z" fill="#F4EACD"/>
<path d="M14.6194 13.345C14.6212 12.8583 14.2869 12.4625 13.8727 12.461C13.4585 12.4594 13.1212 12.8528 13.1194 13.3395C13.1177 13.8262 13.452 14.2219 13.8662 14.2235C14.2804 14.225 14.6176 13.8317 14.6194 13.345Z" fill="#3C505B"/>
<path d="M14.1795 13.0322C14.18 12.908 14.0964 12.8069 13.9929 12.8066C13.8893 12.8062 13.805 12.9066 13.8045 13.0309C13.8041 13.1551 13.8877 13.2562 13.9912 13.2565C14.0948 13.2569 14.1791 13.1565 14.1795 13.0322Z" fill="white"/>
<path d="M8.61601 11.4739C8.6178 10.9872 8.28346 10.5914 7.86925 10.5899C7.45504 10.5884 7.11781 10.9817 7.11602 11.4684C7.11424 11.9551 7.44858 12.3508 7.86279 12.3524C8.277 12.3539 8.61423 11.9606 8.61601 11.4739Z" fill="#3C505B"/>
<path d="M8.17612 11.1611C8.17657 11.0369 8.09299 10.9358 7.98944 10.9355C7.88589 10.9351 7.80157 11.0355 7.80112 11.1598C7.80066 11.284 7.88424 11.3851 7.98779 11.3855C8.09134 11.3858 8.17566 11.2854 8.17612 11.1611Z" fill="white"/>
<path d="M19.1436 13.1246C19.1436 13.1246 19.8186 12.5996 20.3717 12.8058C20.9248 13.0121 20.8404 14.7558 19.4342 14.9527L19.1436 13.1246Z" fill="#FAEACF"/>
<path d="M16.5562 6.67496C16.5562 6.67496 19.5562 11.9156 17.3062 19.8562C18.3659 19.8058 19.4044 19.5404 20.3585 19.0763C21.3125 18.6121 22.1623 17.9589 22.8562 17.1562C24.2343 15.4968 23.1843 11.0156 22.3124 8.08121C21.7874 6.29996 20.1187 5.63434 18.328 6.14996L16.5562 6.67496Z" fill="#F4EACD"/>
<path d="M18.1968 6.56164L19.1343 10.4616C19.1343 10.4616 13.7437 12.421 6.10303 8.83039C6.42979 7.02561 7.43644 5.41496 8.91553 4.33039C11.3062 2.68039 18.1968 6.56164 18.1968 6.56164Z" fill="#F4EACD"/>
<path d="M6.7876 8.15625C6.96834 7.89695 7.20232 7.67919 7.47392 7.51752C7.74552 7.35586 8.04849 7.254 8.3626 7.21875C9.25322 7.21875 12.7688 9.64688 18.4032 8.82188C17.7475 9.48402 16.9023 9.92625 15.9845 10.0875C12.8134 10.1349 9.67171 9.47517 6.7876 8.15625Z" fill="white"/>
<path d="M18.4781 17.925C18.4781 17.925 21 17.3063 21.4125 16.1156C21.825 14.925 21.1687 7.875 21.1687 7.875C22.0766 10.5265 22.5267 13.3131 22.5 16.1156C21.537 17.4693 20.0963 18.4074 18.4688 18.7406L18.4781 17.925Z" fill="white"/>
<path d="M11.4561 9.51585C11.0035 9.80867 10.459 9.92464 9.92647 9.84164C9.39389 9.75865 8.91052 9.48249 8.56855 9.06585C8.38495 8.86424 8.26437 8.6133 8.22168 8.34397C8.22168 7.6596 12.1498 6.0846 13.3123 7.06897C14.0623 7.6596 12.6467 8.7471 11.4561 9.51585Z" fill="#BF6922"/>
<path d="M19.4907 11.9441C22.1572 11.9441 24.3188 10.92 24.3188 9.65664C24.3188 8.39329 22.1572 7.36914 19.4907 7.36914C16.8242 7.36914 14.6626 8.39329 14.6626 9.65664C14.6626 10.92 16.8242 11.9441 19.4907 11.9441Z" fill="#CCCDD1"/>
<path d="M19.3594 11.3523C22.0259 11.3523 24.1875 10.3282 24.1875 9.06484C24.1875 7.80149 22.0259 6.77734 19.3594 6.77734C16.6929 6.77734 14.5312 7.80149 14.5312 9.06484C14.5312 10.3282 16.6929 11.3523 19.3594 11.3523Z" fill="#1D282C"/>
<path d="M6.15923 8.35352C6.15923 8.35352 3.93735 10.0035 4.68735 11.2504C5.43735 12.4973 8.52173 15.5535 16.753 11.691L6.15923 8.35352Z" fill="#3B3B3B"/>
<path d="M6.74072 5.82227L5.99072 9.04727C5.99072 9.04727 8.5126 13.2848 19.7532 11.9254L20.2688 10.7066L6.74072 5.82227Z" fill="#CCCDD1"/>
<path d="M6.94687 5.0625L6.14062 8.2875C6.14062 8.2875 8.6625 12.4781 20.2875 11.325C20.4974 11.289 20.6963 11.2052 20.8686 11.08C21.0409 10.9548 21.1821 10.7917 21.2813 10.6031L21.5813 9.95625L6.94687 5.0625Z" fill="#1D282C"/>
<path d="M6.12178 0.994141L5.11865 1.05977C5.11865 1.05977 5.2874 5.74727 8.24053 7.20977C10.701 8.52079 13.3786 9.37522 16.1437 9.73164C18.5718 10.0035 21.9655 10.3785 24.0468 9.30039L6.12178 0.994141Z" fill="#3B3B3B"/>
<path d="M10.1436 3.75026C9.52866 2.92031 8.64895 2.32501 7.64985 2.06276C6.12173 1.76276 3.89986 1.12526 5.86861 0.403382C7.83735 -0.318493 12.1217 0.131507 15.7124 1.45338C18.6643 2.50334 21.3159 4.25709 23.4374 6.56276C25.2374 8.43776 24.1592 9.64713 23.4374 9.60963C22.7155 9.57213 20.7186 8.96276 17.1561 6.79713C14.9733 5.45714 12.6126 4.43143 10.1436 3.75026Z" fill="#3B3B3B"/>
<path d="M9.61165 9.43292C10.2507 9.30151 10.5937 8.34395 10.3778 7.29414C10.1619 6.24433 9.46891 5.49981 8.82989 5.63121C8.19088 5.76262 7.84785 6.72018 8.06373 7.76999C8.27961 8.8198 8.97264 9.56432 9.61165 9.43292Z" fill="#CCCDD1"/>
<path d="M11.2501 3.54343C10.5065 3.10917 9.70008 2.79291 8.85951 2.60593C7.59389 2.39968 5.62514 1.94968 7.25639 1.35906C8.88764 0.768431 12.5908 1.12468 15.5814 2.16531C17.9958 2.96388 20.1868 4.32283 21.9751 6.13093C23.4751 7.62156 23.3064 8.34343 22.7158 8.31531C20.6067 8.10466 18.5721 7.42218 16.7626 6.31843C14.9782 5.29156 13.1378 4.36512 11.2501 3.54343Z" fill="#898989"/>
<path d="M6.5251 9.86211L6.69385 8.82148L6.14072 8.28711L5.4751 9.44961L6.5251 9.86211Z" fill="#3B3B3B"/>
<path d="M22.9687 10.1156L22.6312 11.4281C22.6114 11.5144 22.6094 11.6039 22.6256 11.691C22.6417 11.7781 22.6755 11.8609 22.725 11.9344C22.781 12.0156 22.8559 12.082 22.9433 12.1278C23.0307 12.1737 23.1279 12.1977 23.2265 12.1977C23.3252 12.1977 23.4224 12.1737 23.5098 12.1278C23.5971 12.082 23.6721 12.0156 23.7281 11.9344C24.0653 11.4249 24.2964 10.8526 24.4076 10.2518C24.5187 9.65099 24.5076 9.03393 24.375 8.4375L23.3718 8.89687L22.9687 10.1156Z" fill="#3B3B3B"/>
<path d="M17.5032 18.75C17.5032 18.75 17.4001 19.6875 18.0376 19.6875V20.625C18.0376 20.625 16.6314 20.7562 16.8845 19.8844C16.9887 19.4589 17.202 19.068 17.5032 18.75Z" fill="#8F8A78"/>
<path d="M16.4248 20.4277L16.3592 22.8184L14.0623 23.2965L13.6311 26.2496L10.5186 26.7934C10.5186 26.7934 11.8123 21.5621 16.4248 20.4277Z" fill="#898989"/>
<path d="M9.2624 19.125L7.44365 20.8312L8.91553 21.5625L7.2749 22.9875L9.8249 24.7969C9.8249 24.7969 8.8124 20.4562 9.2624 19.125Z" fill="#898989"/>
<path opacity="0.28" d="M21.3937 24.8985C21.9655 23.1353 21.447 21.3874 20.2354 20.9944C19.0238 20.6015 17.578 21.7123 17.0062 23.4754C16.4343 25.2386 16.9529 26.9865 18.1644 27.3795C19.376 27.7725 20.8218 26.6617 21.3937 24.8985Z" fill="#898989"/>
<path d="M12.075 17.241C11.6058 17.1692 11.1598 16.9895 10.7719 16.716C10.6088 16.5847 10.4211 16.4872 10.2199 16.4292C10.0187 16.3713 9.80796 16.354 9.6 16.3785C9.49687 16.3785 9.3375 16.2191 9.16875 16.1347C9 16.0504 8.7375 16.0222 8.71875 16.1347C8.75988 16.3179 8.83286 16.4925 8.93437 16.6504C8.95965 16.8213 8.95965 16.9951 8.93437 17.166C8.89828 17.3584 8.93887 17.5574 9.04748 17.7203C9.15609 17.8832 9.3241 17.9972 9.51562 18.0379C9.92654 18.1591 10.3666 18.1359 10.7625 17.9722C11.025 17.8129 12.075 17.241 12.075 17.241Z" fill="#ED949A"/>
<path d="M23.9719 24.4597C24.8348 24.511 25.6719 24.7739 26.4093 25.2251C27.1466 25.6764 27.7616 26.3021 28.2 27.0472C28.3036 27.212 28.3725 27.3961 28.4026 27.5884C28.4327 27.7807 28.4233 27.9771 28.3751 28.1657C28.3268 28.3543 28.2407 28.5311 28.122 28.6853C28.0033 28.8395 27.8544 28.9679 27.6844 29.0628C26.4746 29.7209 25.1194 30.0656 23.7422 30.0656C22.365 30.0656 21.0098 29.7209 19.8 29.0628C19.4469 28.842 19.1943 28.4917 19.0961 28.087C18.998 27.6822 19.0622 27.2552 19.275 26.8972C19.7754 26.1168 20.4714 25.4812 21.2938 25.0535C22.1163 24.6259 23.0364 24.4211 23.9625 24.4597H23.9719Z" fill="#425763"/>
<path d="M23.9341 25.031C24.6574 25.0651 25.3626 25.2686 25.9928 25.6253C26.623 25.9819 27.1606 26.4816 27.5623 27.0841C27.6571 27.2153 27.7215 27.3661 27.7506 27.5254C27.7798 27.6847 27.773 27.8484 27.7308 28.0048C27.6885 28.1611 27.6119 28.306 27.5066 28.429C27.4012 28.5519 27.2697 28.6497 27.1216 28.7154C26.0499 29.2165 24.8779 29.466 23.695 29.4449C22.5121 29.4238 21.3497 29.1326 20.2966 28.5935C20.1555 28.52 20.0319 28.417 19.9343 28.2915C19.8366 28.1659 19.7671 28.0208 19.7307 27.8659C19.6942 27.7111 19.6915 27.5502 19.7229 27.3943C19.7542 27.2383 19.8188 27.091 19.9123 26.9622C20.3611 26.332 20.9613 25.8248 21.6576 25.4873C22.3538 25.1498 23.1238 24.9929 23.8966 25.031H23.9341Z" fill="#A2B6BA"/>
<path d="M23.9158 25.1159C24.5062 25.141 25.0822 25.3052 25.5971 25.5952C26.1119 25.8852 26.5509 26.2928 26.8783 26.7847C26.9488 26.895 26.9954 27.0188 27.0151 27.1483C27.0348 27.2777 27.0272 27.4098 26.9927 27.5361C26.9583 27.6623 26.8978 27.78 26.8151 27.8815C26.7324 27.983 26.6294 28.066 26.5127 28.1253C25.6395 28.5332 24.6846 28.736 23.7211 28.7181C22.7575 28.7002 21.8108 28.4622 20.9533 28.0222C20.841 27.9595 20.7428 27.8744 20.6648 27.7722C20.5868 27.6699 20.5307 27.5527 20.4999 27.4279C20.4691 27.303 20.4644 27.1732 20.4859 27.0464C20.5075 26.9196 20.5549 26.7986 20.6252 26.6909C20.99 26.177 21.4784 25.7632 22.0453 25.488C22.6123 25.2127 23.2395 25.0847 23.8689 25.1159H23.9158Z" fill="#87999B"/>
<path d="M23.5501 27.7594C26.9052 27.7594 29.6251 25.0395 29.6251 21.6844C29.6251 18.3292 26.9052 15.6094 23.5501 15.6094C20.195 15.6094 17.4751 18.3292 17.4751 21.6844C17.4751 25.0395 20.195 27.7594 23.5501 27.7594Z" fill="#425763"/>
<path d="M23.5499 26.8879C26.5322 26.8879 28.9499 24.4702 28.9499 21.4879C28.9499 18.5056 26.5322 16.0879 23.5499 16.0879C20.5676 16.0879 18.1499 18.5056 18.1499 21.4879C18.1499 24.4702 20.5676 26.8879 23.5499 26.8879Z" fill="#A2B6BA"/>
<path d="M23.7658 26.0258C26.5203 26.0258 28.7533 23.7928 28.7533 21.0383C28.7533 18.2838 26.5203 16.0508 23.7658 16.0508C21.0113 16.0508 18.7783 18.2838 18.7783 21.0383C18.7783 23.7928 21.0113 26.0258 23.7658 26.0258Z" fill="#CBDEE4"/>
<path d="M26.5032 20.6148C27.1142 20.6148 27.6095 20.1196 27.6095 19.5086C27.6095 18.8976 27.1142 18.4023 26.5032 18.4023C25.8923 18.4023 25.397 18.8976 25.397 19.5086C25.397 20.1196 25.8923 20.6148 26.5032 20.6148Z" fill="#425763"/>
<path d="M26.5499 20.1086C26.9175 20.1086 27.2155 19.8106 27.2155 19.443C27.2155 19.0754 26.9175 18.7773 26.5499 18.7773C26.1823 18.7773 25.8843 19.0754 25.8843 19.443C25.8843 19.8106 26.1823 20.1086 26.5499 20.1086Z" fill="#4ED154"/>
<path d="M22.5468 19.0781C22.634 18.5277 22.8328 18.0009 23.1311 17.5302C23.4293 17.0594 23.8207 16.6546 24.2812 16.3406C24.478 16.2281 24.4405 16.1062 24.2249 16.0781H23.9343C23.6999 16.0781 22.0593 16.1531 21.478 19.1625L22.5468 19.0781Z" fill="#A2B6BA"/>
<path d="M25.3938 22.2368C25.4007 20.3418 23.9709 18.8003 22.2001 18.7938C20.4294 18.7873 18.9883 20.3183 18.9813 22.2133C18.9744 24.1083 20.4042 25.6498 22.175 25.6563C23.9457 25.6628 25.3868 24.1318 25.3938 22.2368Z" fill="#425763"/>
<path d="M24.7095 22.084C24.7147 20.6394 23.6235 19.4643 22.2722 19.4594C20.9208 19.4544 19.821 20.6215 19.8157 22.066C19.8104 23.5106 20.9016 24.6857 22.253 24.6906C23.6044 24.6956 24.7042 23.5285 24.7095 22.084Z" fill="#3587C4"/>
<path d="M24.3067 21.9884C24.3111 20.7872 23.4038 19.81 22.2803 19.8059C21.1567 19.8018 20.2424 20.7722 20.238 21.9735C20.2335 23.1747 21.1408 24.1518 22.2643 24.1559C23.3879 24.16 24.3023 23.1896 24.3067 21.9884Z" fill="#4DA3EC"/>
<path d="M23.4179 20.9853C23.4191 20.6694 23.1514 20.4124 22.82 20.4112C22.4886 20.41 22.2191 20.665 22.2179 20.9809C22.2168 21.2967 22.4844 21.5537 22.8158 21.5549C23.1472 21.5561 23.4168 21.3011 23.4179 20.9853Z" fill="white"/>
<path d="M23.6908 17.5119C23.9356 17.2469 24.1988 16.9994 24.4783 16.7713C24.5302 16.7294 24.5913 16.7008 24.6566 16.6877C24.7219 16.6746 24.7894 16.6776 24.8533 16.6963C25.3899 16.854 25.9036 17.0809 26.3815 17.3713C26.4601 17.421 26.5201 17.4952 26.5522 17.5825C26.5842 17.6698 26.5865 17.7653 26.5587 17.854C26.5309 17.9428 26.4746 18.0199 26.3984 18.0733C26.3223 18.1267 26.2306 18.1535 26.1377 18.1494C25.4406 18.1052 24.7409 18.124 24.0471 18.2057C23.9639 18.2126 23.8805 18.1946 23.8074 18.1541C23.7344 18.1135 23.6751 18.0522 23.6369 17.9779C23.5988 17.9036 23.5835 17.8197 23.5931 17.7367C23.6027 17.6538 23.6367 17.5755 23.6908 17.5119Z" fill="#E1F0F4"/>
</g>
<defs>
<clipPath id="clip0_47_44223">
<rect width="30" height="30" fill="white"/>
</clipPath>
</defs>
</svg>
