<svg width="30" height="30" viewBox="0 0 30 30" fill="none" xmlns="http://www.w3.org/2000/svg">
<g clip-path="url(#clip0_47_20663)">
<path d="M20.3436 1.5L29.5311 8.53125C30.0936 8.90625 30.1873 9.65625 29.7186 10.2187L16.7811 28.4062C16.5936 28.6875 16.2186 28.875 15.9373 28.875L11.5311 29.25C11.2498 29.25 10.9686 29.1562 10.6873 29.0625L0.468587 20.4375C-0.0939126 20.0625 -0.187663 19.2188 0.281087 18.75L13.9686 1.6875C14.1561 1.40625 14.5311 1.21875 14.9061 1.21875H19.5936C19.8748 1.21875 20.1561 1.3125 20.3436 1.5Z" fill="#3A3259"/>
<path d="M14.9062 1.96875L19.4063 2.34375C19.6875 2.34375 19.9688 2.4375 20.25 2.625L29.25 9.46875L25.0313 10.5938L14.9062 1.96875Z" fill="#B4B2C1"/>
<path d="M11.9062 27.375L16.0313 27.0938L29.1563 9.5625H25.5L11.9062 27.375Z" fill="#93909E"/>
<path d="M4.6875 22.5L18.75 4.6875L14.9062 1.96875L0.84375 19.6875L4.6875 22.5Z" fill="#645F75"/>
<path d="M5.25 22.0312L18.75 4.6875L15.9375 2.8125L2.625 20.0625L5.25 22.0312Z" fill="#645F75"/>
<path d="M12.4688 27.0938L25.5 9.84375C25.7812 9.46875 25.6875 8.90625 25.2188 8.625L18 3.84375L3.9375 21.9375L11.0625 27.2812C11.5312 27.5625 12.0938 27.5625 12.4688 27.0938Z" fill="#645F75"/>
<path d="M14.625 8.53125L16.9687 5.53125C18 5.625 19.125 6 20.25 6.75C21.5625 7.59375 22.4062 8.71875 22.7812 9.75L20.625 12.5625L14.625 8.53125ZM5.25 20.5312L7.6875 17.4375L13.5937 21.6562L11.3438 24.5625C10.125 24.6563 8.71875 24.1875 7.5 23.1563C6.375 22.4063 5.625 21.4688 5.25 20.5312Z" fill="#9991B8"/>
<path d="M14.0625 9.37544L14.8125 8.34419C15.9375 6.93794 18.0938 6.65669 19.6875 7.68794C21.2812 8.71919 21.75 10.7817 20.625 12.1879L19.875 13.2192L14.0625 9.37544Z" fill="#292526"/>
<path d="M15.8438 9.65653C16.4063 8.90653 17.5313 8.81278 18.2813 9.37528C19.125 9.93778 19.3125 10.969 18.75 11.719L18.1875 12.469L15.2812 10.5003L15.8438 9.65653Z" fill="white"/>
<path d="M8.53104 17.3438L7.87479 18.1875C6.93729 19.4062 7.21854 21.1875 8.53104 22.2188C9.84354 23.1563 11.7185 22.9688 12.7498 21.75L13.406 20.8125L8.53104 17.3438Z" fill="#292526"/>
<path d="M8.99991 18.9375C8.43741 19.5938 8.62491 20.5312 9.37491 21.0938C10.1249 21.6562 11.0624 21.4688 11.6249 20.8125L12.0937 20.1562L9.46866 18.2812L8.99991 18.9375Z" fill="white"/>
<path d="M13.6875 22.2188L20.9062 12.6562L14.4375 8.25L7.125 17.5313L13.6875 22.2188Z" fill="#645F75"/>
<path d="M9.56255 17.6254C9.00005 17.1566 8.81255 16.4066 9.2813 15.8441L13.5938 10.3129C13.9688 9.75039 14.8125 9.65664 15.4688 10.0316L15.9375 10.3129L10.125 17.9066L9.56255 17.6254Z" fill="#F1493C"/>
<path d="M15.8438 10.4062L18.0938 12C18.6562 12.375 18.8438 13.2187 18.4688 13.7812L14.1563 19.4063C13.6875 19.9688 12.8438 20.0625 12.2813 19.5938L10.0312 18L15.8438 10.4062Z" fill="white"/>
<path d="M17.5313 27.375L17.25 27.8438L18.6562 28.7812L26.9063 20.625L25.5938 18.9375L17.5313 27.375Z" fill="#9A4C18"/>
<path d="M27.0936 22.9695C26.8123 26.2508 23.8123 28.9695 20.4373 28.9695C17.0623 28.9695 14.9998 26.157 15.6561 22.9695C16.2186 19.9695 19.1248 17.6258 22.1248 17.6258C25.0311 17.532 27.3748 19.8758 27.0936 22.9695Z" fill="#9A4C18"/>
<path d="M27.9375 24.001C27.6562 27.0947 24.75 29.7197 21.4688 29.7197C18.1875 29.7197 16.125 27.0947 16.7812 24.001C17.3438 21.1885 20.1563 18.9385 23.0625 18.9385C25.9688 18.8447 28.2187 21.001 27.9375 24.001Z" fill="#9A4C18"/>
<path d="M18.4688 27.6562L19.875 28.4062L26.625 21.2813L25.5 19.7812L18.4688 27.6562Z" fill="#F49937"/>
<path d="M27.2811 23.9993C26.9998 26.6243 24.5623 28.8743 21.8436 28.8743C19.1248 28.8743 17.3436 26.6243 17.9061 23.9993C18.3748 21.5618 20.7186 19.5931 23.1561 19.5931C25.6873 19.4993 27.4686 21.4681 27.2811 23.9993Z" fill="#F49937"/>
<path d="M26.3438 22.8742C26.0625 25.6867 23.4375 28.1242 20.5313 28.1242C17.625 28.1242 15.75 25.6867 16.3125 22.9679C16.7813 20.3429 19.3125 18.2804 21.9375 18.2804C24.6563 18.1867 26.625 20.2492 26.3438 22.8742Z" fill="#FFEDC0"/>
<path d="M25.9686 23.1556C25.6873 25.7806 23.2498 28.0306 20.5311 28.0306C17.8123 28.0306 16.0311 25.7806 16.5936 23.1556C17.0623 20.7181 19.4061 18.7493 21.8436 18.7493C24.3748 18.6556 26.2498 20.6243 25.9686 23.1556Z" fill="#FFD766"/>
<path d="M24.9375 23.1563C24.75 25.2188 22.7813 26.9063 20.7188 26.9063C18.6563 26.9063 17.25 25.2188 17.625 23.1563C18 21.1875 19.7813 19.6875 21.75 19.6875C23.7188 19.5938 25.125 21.1875 24.9375 23.1563Z" fill="#FFEDC0"/>
<path d="M25.0313 22.594C24.8438 24.6565 22.9688 26.344 20.8125 26.344C18.75 26.344 17.3438 24.6565 17.7188 22.6878C18.0938 20.8128 19.875 19.219 21.8438 19.219C23.8125 19.1253 25.2188 20.6253 25.0313 22.594Z" fill="#F49937"/>
<path d="M24.375 23.1571C24.1875 24.8446 22.5938 26.3446 20.8125 26.3446C19.0313 26.3446 17.9063 24.9383 18.1875 23.2508C18.4688 21.6571 20.0625 20.3446 21.6563 20.2508C23.3438 20.1571 24.5625 21.4696 24.375 23.1571Z" fill="#FFD766"/>
<path d="M22.125 19.875L22.5938 21.75L24.6562 22.2188L22.7812 23.5312L22.6875 25.6875L21 24.4687L18.75 25.2187L19.6875 23.1562L18.6562 21.5625H20.7188L22.125 19.875Z" fill="#F49937"/>
</g>
<defs>
<clipPath id="clip0_47_20663">
<rect width="30" height="30" fill="white"/>
</clipPath>
</defs>
</svg>
