<svg width="17" height="22" viewBox="0 0 17 22" fill="none" xmlns="http://www.w3.org/2000/svg">
<path d="M6.15762 21.9966C5.95305 21.9966 5.78938 21.9557 5.66664 21.9046C5.25748 21.7511 4.56192 21.2499 4.56192 19.6645V13.0669H2.16837C0.79771 13.0669 0.306725 12.4224 0.132835 12.044C-0.0410556 11.6553 -0.194488 10.8677 0.70565 9.83454L8.44888 1.03774C9.49222 -0.148806 10.3412 -0.0669754 10.7504 0.0864572C11.1595 0.23989 11.8551 0.741103 11.8551 2.32657V8.92418H14.2486C15.6193 8.92418 16.1103 9.56859 16.2842 9.94706C16.4581 10.3358 16.6115 11.1234 15.7114 12.1565L7.96813 20.9533C7.24188 21.7818 6.60769 21.9966 6.15762 21.9966ZM10.1878 1.52872C10.1571 1.56964 9.94229 1.67193 9.60474 2.06062L1.86151 10.8574C1.5751 11.1847 1.53419 11.3893 1.53419 11.4302C1.55464 11.4405 1.73876 11.5428 2.16837 11.5428H5.32909C5.74847 11.5428 6.09625 11.8905 6.09625 12.3099V19.6747C6.09625 20.1861 6.18831 20.4112 6.22922 20.4725C6.25991 20.4316 6.47472 20.3293 6.81227 19.9406L14.5555 11.1438C14.8419 10.8165 14.8828 10.6119 14.8828 10.571C14.8624 10.5608 14.6782 10.4585 14.2486 10.4585H11.0879C10.6685 10.4585 10.3208 10.1107 10.3208 9.69134V2.32657C10.331 1.81513 10.2287 1.60033 10.1878 1.52872Z" fill="#7A7976"/>
</svg>
