<svg width="19" height="19" viewBox="0 0 19 19" fill="none" xmlns="http://www.w3.org/2000/svg">
<path d="M9.50181 4.62849C6.80608 4.62849 4.6317 6.80336 4.6317 9.4997C4.6317 12.196 6.80608 14.3709 9.50181 14.3709C12.1975 14.3709 14.3719 12.196 14.3719 9.4997C14.3719 6.80336 12.1975 4.62849 9.50181 4.62849ZM9.50181 12.6666C7.75976 12.6666 6.3356 11.2464 6.3356 9.4997C6.3356 7.75302 7.75552 6.33278 9.50181 6.33278C11.2481 6.33278 12.668 7.75302 12.668 9.4997C12.668 11.2464 11.2439 12.6666 9.50181 12.6666ZM15.7071 4.42923C15.7071 5.06092 15.1985 5.56543 14.5711 5.56543C13.9396 5.56543 13.4352 5.05668 13.4352 4.42923C13.4352 3.80179 13.9438 3.29304 14.5711 3.29304C15.1985 3.29304 15.7071 3.80179 15.7071 4.42923ZM18.9326 5.58238C18.8606 4.0604 18.513 2.71223 17.3983 1.60148C16.2878 0.490724 14.9399 0.143084 13.4183 0.0667724C11.85 -0.0222575 7.14941 -0.0222575 5.58114 0.0667724C4.06373 0.138844 2.71586 0.486484 1.60112 1.59724C0.486376 2.70799 0.143052 4.05616 0.0667575 5.57814C-0.0222525 7.14676 -0.0222525 11.8484 0.0667575 13.417C0.138813 14.939 0.486376 16.2872 1.60112 17.3979C2.71586 18.5087 4.05949 18.8563 5.58114 18.9326C7.14941 19.0216 11.85 19.0216 13.4183 18.9326C14.9399 18.8605 16.2878 18.5129 17.3983 17.3979C18.5088 16.2872 18.8563 14.939 18.9326 13.417C19.0216 11.8484 19.0216 7.151 18.9326 5.58238ZM16.9066 15.1001C16.576 15.931 15.936 16.5712 15.101 16.9061C13.8506 17.4022 10.8836 17.2877 9.50181 17.2877C8.12004 17.2877 5.1488 17.3979 3.90266 16.9061C3.0719 16.5754 2.43188 15.9353 2.09703 15.1001C1.60112 13.8494 1.71556 10.8818 1.71556 9.4997C1.71556 8.11761 1.60536 5.14571 2.09703 3.8993C2.42764 3.06835 3.06767 2.42818 3.90266 2.09326C5.15304 1.59724 8.12004 1.7117 9.50181 1.7117C10.8836 1.7117 13.8548 1.60148 15.101 2.09326C15.9317 2.42394 16.5717 3.06411 16.9066 3.8993C17.4025 5.14995 17.2881 8.11761 17.2881 9.4997C17.2881 10.8818 17.4025 13.8537 16.9066 15.1001Z" fill="#FF285C"/>
</svg>
