<svg width="24" height="24" viewBox="0 0 24 24" fill="none" xmlns="http://www.w3.org/2000/svg">
<path d="M11.9984 14.0984C10.8734 14.0984 9.89844 13.1984 9.89844 11.9984C9.89844 10.8734 10.7984 9.89844 11.9984 9.89844C13.1234 9.89844 14.0984 10.7984 14.0984 11.9984C14.0984 13.1234 13.1234 14.0984 11.9984 14.0984Z" fill="white"/>
<path fill-rule="evenodd" clip-rule="evenodd" d="M14.5487 6.89877H9.44873C8.84873 6.97377 8.54873 7.04877 8.32373 7.12377C8.02373 7.19877 7.79873 7.34877 7.57373 7.57377C7.39573 7.75177 7.31173 7.92977 7.21073 8.14477C7.18258 8.20484 7.15357 8.26451 7.12373 8.32377C7.11273 8.35877 7.09873 8.39477 7.08473 8.43377C6.95675 8.75662 6.89355 9.10151 6.89873 9.44877V14.5488C6.97373 15.1488 7.04873 15.4488 7.12373 15.6738C7.19873 15.9738 7.34873 16.1988 7.57373 16.4238C7.75173 16.6018 7.92973 16.6858 8.14573 16.7878L8.32373 16.8738L8.43473 16.9138C8.64873 16.9918 8.94173 17.0988 9.44873 17.0988H14.5487C15.1487 17.0238 15.4487 16.9488 15.6737 16.8738C15.9737 16.7988 16.1987 16.6488 16.4237 16.4238C16.6017 16.2458 16.6857 16.0678 16.7877 15.8528L16.8737 15.6728L16.9137 15.5628C16.9917 15.3488 17.0987 15.0558 17.0987 14.5488V9.44877C17.0237 8.84877 16.9487 8.54877 16.8737 8.32377C16.7987 8.02377 16.6487 7.79877 16.4237 7.57377C16.2457 7.39577 16.0677 7.31177 15.8537 7.20977C15.7934 7.18179 15.7334 7.15313 15.6737 7.12377C15.6369 7.11096 15.6002 7.09763 15.5637 7.08377C15.2408 6.95615 14.8959 6.89329 14.5487 6.89877ZM11.9987 8.77377C11.5743 8.77057 11.1535 8.85181 10.7608 9.01275C10.3681 9.17369 10.0113 9.41112 9.71119 9.71123C9.41109 10.0113 9.17366 10.3681 9.01272 10.7608C8.85178 11.1536 8.77054 11.5744 8.77373 11.9988C8.77373 13.7988 10.1987 15.2238 11.9987 15.2238C13.7987 15.2238 15.2237 13.7988 15.2237 11.9988C15.2237 10.1988 13.7987 8.77377 11.9987 8.77377ZM16.0487 8.69877C16.0487 8.89768 15.9697 9.08845 15.8291 9.2291C15.6884 9.36975 15.4976 9.44877 15.2987 9.44877C15.0998 9.44877 14.9091 9.36975 14.7684 9.2291C14.6277 9.08845 14.5487 8.89768 14.5487 8.69877C14.5487 8.49985 14.6277 8.30909 14.7684 8.16844C14.9091 8.02778 15.0998 7.94877 15.2987 7.94877C15.4976 7.94877 15.6884 8.02778 15.8291 8.16844C15.9697 8.30909 16.0487 8.49985 16.0487 8.69877Z" fill="white"/>
<path fill-rule="evenodd" clip-rule="evenodd" d="M0 12C0 5.373 5.373 0 12 0C18.628 0 24 5.373 24 12C24 18.628 18.628 24 12 24C5.373 24 0 18.628 0 12ZM9.45 5.775H14.55C15.225 5.85 15.675 5.925 16.05 6.075C16.5 6.3 16.8 6.45 17.175 6.825C17.55 7.2 17.775 7.575 17.925 7.95C18.075 8.325 18.225 8.775 18.225 9.45V14.55C18.15 15.225 18.075 15.675 17.925 16.05C17.7 16.5 17.55 16.8 17.175 17.175C16.8 17.55 16.425 17.775 16.05 17.925C15.675 18.075 15.225 18.225 14.55 18.225H9.45C8.775 18.15 8.325 18.075 7.95 17.925C7.5 17.7 7.2 17.55 6.825 17.175C6.45 16.8 6.225 16.425 6.075 16.05C5.925 15.675 5.775 15.225 5.775 14.55V9.45C5.85 8.775 5.925 8.325 6.075 7.95C6.3 7.5 6.45 7.2 6.825 6.825C7.2 6.45 7.575 6.225 7.95 6.075C8.325 5.925 8.775 5.775 9.45 5.775Z" fill="white"/>
</svg>
