<svg width="132" height="132" viewBox="0 0 132 132" fill="none" xmlns="http://www.w3.org/2000/svg">
<path d="M123.769 79.1662C133.148 52.9245 126 6.10998 94.612 20.5205C63.2238 34.9305 59.6721 -2.89516 30.2598 17.7922C12.9178 34.8242 41.9064 47.8001 13.6785 63.2586C-11.0342 76.7924 19.5708 120.534 42.6961 120.319C67.1737 120.092 69.9371 120.547 91.2562 120.547C99.251 120.547 114.124 106.154 123.769 79.1662Z" fill="#E2F3F7"/>
<path d="M96.7049 44.4968L29.3389 73.1603L33.4147 80.858L101.203 52.3144L96.8912 44.7996L96.7049 44.4968Z" fill="#8EBBBC"/>
<path d="M91.4492 42.1342L109.545 42.0847L100.74 56.6509L91.4492 42.1342Z" fill="#8EBBBC"/>
<path d="M48.762 101.309C49.2724 101.347 49.8662 101.607 49.8662 102.202C49.8662 102.798 50.079 117.413 49.9085 117.822C49.7382 118.232 49.919 118.748 49.666 118.748C49.0685 118.748 39.2092 118.79 39.2092 118.79C39.2092 118.79 37.1282 118.752 36.6609 118.641C36.1943 118.529 36.0835 103.236 36.2115 102.714C36.3387 102.194 36.1564 101.451 36.7926 101.339C37.4302 101.228 48.2523 101.272 48.762 101.309Z" fill="#FF0000"/>
<path d="M59.7652 85.275L63.629 85.4195C63.629 85.4195 68.5107 85.275 68.9988 85.3484C69.4868 85.4195 70.0568 85.9248 70.0568 87.079C70.0568 88.2333 70.2599 116.332 70.0977 117.125C69.9347 117.919 70.245 118.623 69.9295 118.623C69.3507 118.623 63.6736 118.536 63.6736 118.536H59.818C59.818 118.536 56.7853 118.58 56.7853 118.448C56.7853 118.404 56.6335 117.775 56.7139 115.682C56.7957 113.59 56.853 89.0825 56.9743 88.072C57.0963 87.0622 56.9222 85.6226 57.5316 85.4063C58.1417 85.1892 59.7652 85.275 59.7652 85.275Z" fill="#FF0000"/>
<path d="M87.6468 118.333L83.9406 118.272C83.9406 118.272 78.4244 118.466 77.9368 118.39C77.4484 118.312 77.4337 118.054 77.4337 116.822C77.4337 115.59 77.2306 80.1791 77.3934 79.3328C77.5554 78.4858 76.8023 77.5222 78.1428 77.5222C80.4844 77.5222 83.9978 77.3315 83.9978 77.3315H87.6439C87.6439 77.3315 89.6378 77.4078 90.0844 77.6395C90.5318 77.8705 90.8566 78.6398 90.776 80.8728C90.6946 83.1043 90.6381 114.685 90.5156 115.763C90.3932 116.841 90.4489 118.076 90.1328 118.194C89.5205 118.422 87.6468 118.333 87.6468 118.333Z" fill="#FF0000"/>
<path d="M108.101 118.317L104.395 118.243C104.395 118.243 98.8798 118.48 98.3921 118.386C97.9037 118.292 97.8891 117.978 97.8891 116.475C97.8891 114.973 97.6859 67.5483 97.8487 66.5155C98.0108 65.4834 97.2569 64.3077 98.5982 64.3077C100.94 64.3077 104.453 64.0757 104.453 64.0757H108.099C108.099 64.0757 110.092 64.1698 110.539 64.4513C110.987 64.7322 111.312 69.9188 111.231 72.6409C111.15 75.3632 111.093 113.869 110.97 115.183C110.849 116.497 110.904 118.004 110.588 118.147C109.975 118.426 108.101 118.317 108.101 118.317Z" fill="#FF0000"/>
<path d="M30.6658 119.058L30.6523 118.705C35.8584 118.54 47.4529 118.455 58.6655 118.374C69.8478 118.293 81.4116 118.211 86.7591 118.046C97.366 117.72 114.457 118.043 114.629 118.046L114.621 118.399C114.449 118.396 97.369 118.074 86.7701 118.399C81.419 118.564 69.853 118.648 58.6685 118.728C47.4573 118.809 35.8651 118.893 30.6658 119.058Z" fill="#2D656F"/>
<path d="M48.0986 72.1443L85.2277 72.517L84.6659 60.5486L48.4712 60.3262L48.0986 72.1443Z" fill="#2D656F"/>
<path d="M84.6799 61.6623L48.4851 61.4268C48.4851 61.4268 48.3062 44.3401 48.6808 44.1631C49.0539 43.9854 84.0419 44.1051 84.0419 44.1051L84.6799 61.6623Z" fill="#3D8E90"/>
<path d="M65.8915 47.2722C64.2925 47.3175 62.8484 47.9187 61.8238 48.965C60.7546 50.0579 60.2055 51.5683 60.2792 53.2173C60.425 56.4954 63.0448 58.8029 66.4681 58.7067C69.6809 58.6155 71.861 56.0709 71.7724 52.5183C71.7337 50.933 71.1623 49.5995 70.1222 48.6615C69.0596 47.7044 67.5886 47.2149 65.8915 47.2722ZM66.2576 59.0633C62.7145 59.0633 60.059 56.6418 59.9072 53.2321C59.8298 51.4884 60.4139 49.8875 61.5515 48.7245C62.6445 47.6082 64.181 46.9666 65.8796 46.9185C67.6973 46.8718 69.2419 47.3819 70.3774 48.4054C71.4912 49.4093 72.1028 50.8283 72.1444 52.5098C72.2382 56.2697 69.9086 58.9628 66.4801 59.0604C66.4049 59.0625 66.3313 59.0633 66.2576 59.0633Z" fill="#072726"/>
<path d="M50.3603 56.895C50.8141 56.895 51.8365 56.9898 52.7122 57.7538C53.6266 58.551 53.7962 59.7055 53.8275 60.1505C54.9853 60.1314 61.3364 60.0338 63.8944 60.0698C66.9658 60.113 77.9038 60.0415 79.523 60.0302C79.4959 59.5654 79.501 58.37 80.1273 57.3492C80.7044 56.4083 81.9797 56.1728 82.449 56.1169V49.9815C82.0024 49.8478 80.6157 49.3597 80.0305 48.3262C79.3874 47.1915 79.0977 46.2061 79.006 45.8489L53.9778 45.7413C53.928 46.1877 53.7286 47.4059 53.0001 48.0991C52.1333 48.9232 50.8886 49.0909 50.4228 49.1248L50.3335 56.895H50.3603ZM53.4599 60.5098L53.4622 60.328C53.4622 60.3139 53.4651 58.8906 52.4607 58.0148C51.4496 57.132 50.1794 57.2551 50.1661 57.2565L49.957 57.2784L50.0552 48.781L50.2375 48.7797C50.2524 48.7797 51.7843 48.7549 52.7367 47.8494C53.521 47.1038 53.6207 45.5694 53.6214 45.5539L53.6311 45.3862L79.306 45.4966L79.336 45.6373C79.3382 45.6494 79.5934 46.8096 80.3568 48.1585C80.9699 49.2387 82.6661 49.6738 82.6822 49.6781L82.8216 49.7127V56.4444L82.6456 56.4536C82.6302 56.455 81.0469 56.5519 80.4478 57.5274C79.7313 58.6967 79.908 60.1696 79.9095 60.1845L79.9337 60.3811L79.7262 60.3825C79.6015 60.3833 67.1957 60.471 63.8892 60.4235C61.0909 60.3847 53.7256 60.5056 53.6512 60.5063L53.4599 60.5098Z" fill="#072726"/>
<path d="M48.2988 63.2239H84.4143V63.5776H48.2988V63.2239Z" fill="#072726"/>
<path d="M48.498 65.2012H84.6139V65.5549H48.498V65.2012Z" fill="#072726"/>
<path d="M48.2988 67.3586H84.4143V67.7123H48.2988V67.3586Z" fill="#072726"/>
<path d="M48.2988 69.3296H84.4143V69.6833H48.2988V69.3296Z" fill="#072726"/>
<path d="M48.498 71.3066H84.6139V71.6604H48.498V71.3066Z" fill="#072726"/>
<path d="M84.6799 61.6623L48.4851 61.4268C48.4851 61.4268 48.3062 44.3401 48.6808 44.1631C49.0539 43.9854 84.0419 44.1051 84.0419 44.1051L84.6799 61.6623Z" fill="#3D8E90"/>
<path d="M48.4785 60.5587C48.483 61.1218 48.4867 61.4571 48.4867 61.4571L84.6676 61.6637L84.6265 60.5056L48.4867 60.3267L48.4785 60.5587Z" fill="#66A4A6"/>
<path d="M65.8915 47.2722C64.2925 47.3175 62.8484 47.9187 61.8238 48.965C60.7546 50.0579 60.2055 51.5683 60.2792 53.2173C60.425 56.4954 63.0448 58.8029 66.4681 58.7067C69.6809 58.6155 71.861 56.0709 71.7724 52.5183C71.7337 50.933 71.1623 49.5995 70.1222 48.6615C69.0596 47.7044 67.5886 47.2149 65.8915 47.2722ZM66.2576 59.0633C62.7145 59.0633 60.059 56.6418 59.9072 53.2321C59.8298 51.4884 60.4139 49.8875 61.5515 48.7245C62.6445 47.6082 64.181 46.9666 65.8796 46.9185C67.6973 46.8718 69.2419 47.3819 70.3774 48.4054C71.4912 49.4093 72.1028 50.8283 72.1444 52.5098C72.2382 56.2697 69.9086 58.9628 66.4801 59.0604C66.4049 59.0625 66.3313 59.0633 66.2576 59.0633Z" fill="#072726"/>
<path d="M50.3603 56.895C50.8141 56.895 51.8365 56.9898 52.7122 57.7538C53.6266 58.551 53.7962 59.7055 53.8275 60.1505C54.9853 60.1314 61.3364 60.0338 63.8944 60.0698C66.9658 60.113 77.9038 60.0415 79.523 60.0302C79.4959 59.5654 79.501 58.37 80.1273 57.3492C80.7044 56.4083 81.9797 56.1728 82.449 56.1169V49.9815C82.0024 49.8478 80.6157 49.3597 80.0305 48.3262C79.3874 47.1915 79.0977 46.2061 79.006 45.8489L53.9778 45.7413C53.928 46.1877 53.7286 47.4059 53.0001 48.0991C52.1333 48.9232 50.8886 49.0909 50.4228 49.1248L50.3335 56.895H50.3603ZM53.4599 60.5098L53.4622 60.328C53.4622 60.3139 53.4651 58.8906 52.4607 58.0148C51.4496 57.132 50.1794 57.2551 50.1661 57.2565L49.957 57.2784L50.0552 48.781L50.2375 48.7797C50.2524 48.7797 51.7843 48.7549 52.7367 47.8494C53.521 47.1038 53.6207 45.5694 53.6214 45.5539L53.6311 45.3862L79.306 45.4966L79.336 45.6373C79.3382 45.6494 79.5934 46.8096 80.3568 48.1585C80.9699 49.2387 82.6661 49.6738 82.6822 49.6781L82.8216 49.7127V56.4444L82.6456 56.4536C82.6302 56.455 81.0469 56.5519 80.4478 57.5274C79.7313 58.6967 79.908 60.1696 79.9095 60.1845L79.9337 60.3811L79.7262 60.3825C79.6015 60.3833 67.1957 60.471 63.8892 60.4235C61.0909 60.3847 53.7256 60.5056 53.6512 60.5063L53.4599 60.5098Z" fill="#072726"/>
<path d="M98.6528 53.3883L101.203 52.3145L96.8921 44.7996L96.7058 44.4968L93.7637 45.7489L98.6528 53.3883Z" fill="#599B9A"/>
</svg>
