<svg width="18" height="21" viewBox="0 0 18 21" fill="none" xmlns="http://www.w3.org/2000/svg">
<mask id="mask0_47_132966" style="mask-type:luminance" maskUnits="userSpaceOnUse" x="0" y="0" width="18" height="21">
<path fill-rule="evenodd" clip-rule="evenodd" d="M0 0H17.1665V21.003H0V0Z" fill="white"/>
</mask>
<g mask="url(#mask0_47_132966)">
<path fill-rule="evenodd" clip-rule="evenodd" d="M5.38204 1.51124C2.81394 1.51124 1.51124 2.50061 1.51124 4.45414V19.2885C1.51124 19.3832 1.56565 19.4346 1.61099 19.4608C1.65632 19.489 1.72786 19.5092 1.81047 19.4628L8.24031 15.856C8.47002 15.728 8.75111 15.727 8.98183 15.857L15.3563 19.4578C15.4399 19.5061 15.5114 19.484 15.5567 19.4568C15.6021 19.4296 15.6555 19.3782 15.6555 19.2835V4.63851C15.6555 3.86576 15.6555 1.51124 11.7887 1.51124H5.38204ZM1.71174 21.0033C1.41452 21.0033 1.11731 20.9237 0.847304 20.7645C0.316354 20.4552 0 19.9021 0 19.2885V4.45414C0 1.62308 1.9616 0 5.38204 0H11.7887C15.2061 0 17.1667 1.69159 17.1667 4.63851V19.2835C17.1667 19.8981 16.8504 20.4512 16.3184 20.7605C15.7885 21.0708 15.1497 21.0768 14.6137 20.7746L8.60906 17.3823L2.54897 20.7816C2.28702 20.9287 1.99988 21.0033 1.71174 21.0033Z" fill="white"/>
</g>
<path fill-rule="evenodd" clip-rule="evenodd" d="M12.2313 8.28823H4.85841C4.44131 8.28823 4.10279 7.94971 4.10279 7.53261C4.10279 7.11551 4.44131 6.77699 4.85841 6.77699H12.2313C12.6484 6.77699 12.9869 7.11551 12.9869 7.53261C12.9869 7.94971 12.6484 8.28823 12.2313 8.28823Z" fill="white"/>
</svg>
