<svg width="18" height="18" viewBox="0 0 18 18" fill="none" xmlns="http://www.w3.org/2000/svg">
<path d="M16.3636 9C16.3636 13.0668 13.0668 16.3636 9 16.3636V18C13.9705 18 18 13.9705 18 9H16.3636ZM9 16.3636C4.93318 16.3636 1.63636 13.0668 1.63636 9H0C0 13.9705 4.02944 18 9 18V16.3636ZM1.63636 9C1.63636 4.93318 4.93318 1.63636 9 1.63636V0C4.02944 0 0 4.02944 0 9H1.63636ZM9 1.63636C13.0668 1.63636 16.3636 4.93318 16.3636 9H18C18 4.02944 13.9705 0 9 0V1.63636Z" fill="#010101"/>
<path d="M5.72784 0.818359C5.27597 0.818359 4.90966 1.18467 4.90966 1.63654C4.90966 2.08841 5.27597 2.45472 5.72784 2.45472V0.818359ZM6.54602 1.63654L7.32209 1.89567C7.4054 1.64614 7.36365 1.37177 7.20989 1.15831C7.05612 0.944857 6.8091 0.818359 6.54602 0.818359V1.63654ZM6.54602 16.3638V17.182C6.8091 17.182 7.05612 17.0555 7.20989 16.8421C7.36365 16.6286 7.4054 16.3542 7.32209 16.1047L6.54602 16.3638ZM5.72784 15.5456C5.27597 15.5456 4.90966 15.912 4.90966 16.3638C4.90966 16.8157 5.27597 17.182 5.72784 17.182V15.5456ZM5.72784 2.45472H6.54602V0.818359H5.72784V2.45472ZM5.76996 1.37741C4.11835 6.32378 4.11835 11.6766 5.76996 16.6229L7.32209 16.1047C5.78279 11.4947 5.78279 6.50566 7.32209 1.89567L5.76996 1.37741ZM6.54602 15.5456H5.72784V17.182H6.54602V15.5456Z" fill="#010101"/>
<path d="M12.2312 1.37763C12.0881 0.949026 11.6246 0.717587 11.196 0.8607C10.7674 1.00381 10.5359 1.46729 10.6791 1.89589L12.2312 1.37763ZM10.6791 16.1049C10.5359 16.5336 10.7674 16.997 11.196 17.1401C11.6246 17.2832 12.0881 17.0517 12.2312 16.6231L10.6791 16.1049ZM10.6791 1.89589C12.2184 6.50588 12.2184 11.4949 10.6791 16.1049L12.2312 16.6231C13.8828 11.6768 13.8828 6.32401 12.2312 1.37763L10.6791 1.89589Z" fill="#010101"/>
<path d="M0.818359 12.2731C0.818359 12.725 1.18467 13.0913 1.63654 13.0913C2.08841 13.0913 2.45472 12.725 2.45472 12.2731H0.818359ZM1.63654 11.4549L1.89567 10.6788C1.64614 10.5955 1.37177 10.6373 1.15831 10.791C0.944857 10.9448 0.818359 11.1918 0.818359 11.4549H1.63654ZM16.3638 11.4549H17.182C17.182 11.1918 17.0555 10.9448 16.8421 10.791C16.6286 10.6373 16.3542 10.5955 16.1047 10.6788L16.3638 11.4549ZM15.5456 12.2731C15.5456 12.725 15.912 13.0913 16.3638 13.0913C16.8157 13.0913 17.182 12.725 17.182 12.2731H15.5456ZM2.45472 12.2731V11.4549H0.818359V12.2731H2.45472ZM1.37741 12.231C6.32378 13.8826 11.6766 13.8826 16.6229 12.231L16.1047 10.6788C11.4947 12.2181 6.50566 12.2181 1.89567 10.6788L1.37741 12.231ZM15.5456 11.4549V12.2731H17.182V11.4549H15.5456Z" fill="#010101"/>
<path d="M1.37763 5.76996C0.949026 5.91307 0.717587 6.37654 0.8607 6.80515C1.00381 7.23375 1.46729 7.46519 1.89589 7.32209L1.37763 5.76996ZM16.1049 7.32209C16.5336 7.46519 16.997 7.23375 17.1401 6.80515C17.2832 6.37654 17.0517 5.91307 16.6231 5.76996L16.1049 7.32209ZM1.89589 7.32209C6.50588 5.78279 11.4949 5.78279 16.1049 7.32209L16.6231 5.76996C11.6768 4.11835 6.32401 4.11835 1.37763 5.76996L1.89589 7.32209Z" fill="#010101"/>
</svg>
