<svg width="74" height="24" viewBox="0 0 74 24" fill="none" xmlns="http://www.w3.org/2000/svg">
<path d="M9.23938 8.19V10.65H15.1194C14.9394 12.03 14.4794 13.04 13.7794 13.75C12.9194 14.61 11.5794 15.55 9.23938 15.55C5.61938 15.55 2.78938 12.63 2.78938 9.01C2.78938 5.39 5.61938 2.47 9.23938 2.47C11.1894 2.47 12.6194 3.24 13.6694 4.23L15.3994 2.5C13.9394 1.08 11.9794 0 9.23938 0C4.27938 0 0.109375 4.04 0.109375 9C0.109375 13.96 4.27938 18 9.23938 18C11.9194 18 13.9394 17.12 15.5194 15.48C17.1394 13.86 17.6494 11.57 17.6494 9.73C17.6494 9.16 17.6094 8.63 17.5194 8.19H9.23938Z" fill="#4285F4"/>
<path d="M25.0019 6.19141C21.7919 6.19141 19.1719 8.63141 19.1719 12.0014C19.1719 15.3414 21.7919 17.8114 25.0019 17.8114C28.2119 17.8114 30.8319 15.3514 30.8319 12.0014C30.8319 8.63141 28.2119 6.19141 25.0019 6.19141ZM25.0019 15.5214C23.2419 15.5214 21.7219 14.0714 21.7219 12.0014C21.7219 9.91141 23.2419 8.48141 25.0019 8.48141C26.7619 8.48141 28.2819 9.91141 28.2819 12.0014C28.2819 14.0714 26.7619 15.5214 25.0019 15.5214Z" fill="#EA4335"/>
<path d="M53.58 7.49141H53.49C52.92 6.81141 51.82 6.19141 50.43 6.19141C47.53 6.19141 45 8.72141 45 12.0014C45 15.2614 47.53 17.8114 50.43 17.8114C51.82 17.8114 52.92 17.1914 53.49 16.4914H53.58V17.3014C53.58 19.5214 52.39 20.7114 50.48 20.7114C48.92 20.7114 47.95 19.5914 47.55 18.6414L45.33 19.5614C45.97 21.1014 47.66 22.9914 50.48 22.9914C53.47 22.9914 56 21.2314 56 16.9414V6.49141H53.58V7.49141ZM50.65 15.5214C48.89 15.5214 47.55 14.0214 47.55 12.0014C47.55 9.95141 48.89 8.48141 50.65 8.48141C52.39 8.48141 53.75 9.98141 53.75 12.0214C53.76 14.0514 52.39 15.5214 50.65 15.5214Z" fill="#4285F4"/>
<path d="M38.0019 6.19141C34.7919 6.19141 32.1719 8.63141 32.1719 12.0014C32.1719 15.3414 34.7919 17.8114 38.0019 17.8114C41.2119 17.8114 43.8319 15.3514 43.8319 12.0014C43.8319 8.63141 41.2119 6.19141 38.0019 6.19141ZM38.0019 15.5214C36.2419 15.5214 34.7219 14.0714 34.7219 12.0014C34.7219 9.91141 36.2419 8.48141 38.0019 8.48141C39.7619 8.48141 41.2819 9.91141 41.2819 12.0014C41.2819 14.0714 39.7619 15.5214 38.0019 15.5214Z" fill="#FBBC05"/>
<path d="M58 0.238281H60.51V17.8083H58V0.238281Z" fill="#34A853"/>
<path d="M68.26 15.5214C66.96 15.5214 66.04 14.9314 65.44 13.7614L73.21 10.5514L72.95 9.89141C72.47 8.59141 70.99 6.19141 67.98 6.19141C64.99 6.19141 62.5 8.54141 62.5 12.0014C62.5 15.2614 64.96 17.8114 68.26 17.8114C70.92 17.8114 72.46 16.1814 73.1 15.2414L71.12 13.9214C70.46 14.8814 69.56 15.5214 68.26 15.5214ZM68.08 8.37141C69.11 8.37141 69.99 8.90141 70.28 9.65141L65.03 11.8214C65.03 9.38141 66.76 8.37141 68.08 8.37141Z" fill="#EA4335"/>
</svg>
