<svg width="14" height="14" viewBox="0 0 14 14" fill="none" xmlns="http://www.w3.org/2000/svg">
<path d="M4.73028 9.7693C4.75458 9.73284 4.74547 9.69334 4.70293 9.65081C4.64825 9.60828 4.60572 9.6022 4.57533 9.63258C4.55103 9.66904 4.56014 9.70853 4.60268 9.75107C4.65736 9.7936 4.6999 9.79968 4.73028 9.7693ZM4.47508 9.39561C4.4447 9.35308 4.40824 9.34093 4.36571 9.35916C4.32925 9.38346 4.32925 9.41992 4.36571 9.46853C4.40824 9.51714 4.4447 9.53233 4.47508 9.5141C4.51154 9.48979 4.51154 9.4503 4.47508 9.39561ZM4.1014 9.03105C4.11355 9.00674 4.09836 8.98244 4.05582 8.95813C4.01329 8.94598 3.98899 8.95206 3.98291 8.97636C3.96468 9.00674 3.97683 9.03105 4.01937 9.04927C4.06798 9.06143 4.09532 9.05535 4.1014 9.03105ZM4.29279 9.24067C4.30495 9.2346 4.30798 9.22244 4.30191 9.20422C4.30191 9.17991 4.29279 9.16168 4.27457 9.14953C4.23811 9.107 4.20773 9.09788 4.18342 9.12219C4.15912 9.14649 4.16216 9.17991 4.19254 9.22244C4.22899 9.2589 4.26241 9.26498 4.29279 9.24067ZM5.07662 9.92424C5.08877 9.88171 5.06143 9.84829 4.99459 9.82398C4.9399 9.80575 4.90041 9.81791 4.8761 9.86044C4.86395 9.90297 4.89129 9.93639 4.95813 9.96069C5.01282 9.97892 5.05231 9.96677 5.07662 9.92424ZM5.35916 10.0245C5.42599 10.0245 5.45941 10.0002 5.45941 9.95158C5.45941 9.90297 5.42296 9.87867 5.35004 9.87867C5.28928 9.87867 5.2589 9.90297 5.2589 9.95158C5.2589 10.0002 5.29232 10.0245 5.35916 10.0245ZM5.81487 9.88778C5.80272 9.84525 5.76322 9.83006 5.69638 9.84221C5.62955 9.85436 5.6022 9.88171 5.61436 9.92424C5.62651 9.97285 5.66296 9.99108 5.72373 9.97892C5.78449 9.96677 5.81487 9.93639 5.81487 9.88778ZM11.6662 6.99858C11.6662 5.71043 11.2105 4.61065 10.2991 3.69923C9.38764 2.78781 8.28786 2.3321 6.99972 2.3321C5.71157 2.3321 4.61179 2.78781 3.70037 3.69923C2.78895 4.61065 2.33324 5.71043 2.33324 6.99858C2.33324 8.01329 2.63097 8.92775 3.22643 9.74195C3.82189 10.5501 4.58749 11.1121 5.52321 11.4281C5.63258 11.4463 5.71157 11.4311 5.76018 11.3825C5.81487 11.3339 5.84221 11.2731 5.84221 11.2002C5.84221 10.8843 5.83917 10.5957 5.8331 10.3344C5.79664 10.3405 5.74803 10.3496 5.68727 10.3617C5.63258 10.3678 5.52625 10.3739 5.36827 10.3799C5.21029 10.3799 5.06446 10.3678 4.93079 10.3435C4.79711 10.3131 4.66344 10.2523 4.52976 10.1612C4.40216 10.064 4.31406 9.93639 4.26545 9.77841C4.1257 9.41992 3.95253 9.1951 3.74594 9.10396C3.73379 9.09788 3.7186 9.08877 3.70037 9.07662C3.68822 9.05839 3.66391 9.03408 3.62746 9.0037C3.59708 8.96725 3.57581 8.93686 3.56366 8.91256C3.55758 8.88826 3.56973 8.86699 3.60011 8.84876C3.63657 8.82446 3.69733 8.8123 3.7824 8.8123C3.81886 8.8123 3.86443 8.81838 3.91911 8.83053C3.9738 8.84268 4.06494 8.89129 4.19254 8.97636C4.32014 9.05535 4.42039 9.16168 4.49331 9.29536C4.59053 9.46549 4.70293 9.59309 4.83053 9.67815C4.96421 9.76322 5.09788 9.80575 5.23156 9.80575C5.36523 9.80575 5.48068 9.79664 5.5779 9.77841C5.67512 9.75411 5.76626 9.72373 5.85132 9.68727C5.89386 9.40169 5.99411 9.19206 6.15209 9.05839C5.85436 9.02193 5.59309 8.96725 5.36827 8.89433C5.14345 8.81534 4.92167 8.69686 4.70293 8.53888C4.48419 8.37482 4.31406 8.14393 4.19254 7.8462C4.07709 7.54239 4.01937 7.17782 4.01937 6.75249C4.01937 6.27248 4.18039 5.85626 4.50242 5.50384C4.35659 5.12712 4.37178 4.71395 4.54799 4.26431C4.66344 4.22785 4.82749 4.25216 5.04016 4.33723C5.2589 4.41622 5.44422 4.50432 5.59613 4.60154L5.8331 4.74736C6.18551 4.64407 6.57439 4.59242 6.99972 4.59242C7.42505 4.59242 7.81392 4.64407 8.16633 4.74736C8.23317 4.70483 8.31824 4.65015 8.42153 4.58331C8.5309 4.51647 8.70104 4.43748 8.93193 4.34634C9.16282 4.2552 9.33599 4.22785 9.45144 4.26431C9.62765 4.71395 9.64284 5.12712 9.49701 5.50384C9.81905 5.85626 9.98006 6.27248 9.98006 6.75249C9.98006 7.09883 9.93753 7.40568 9.85246 7.67303C9.7674 7.9343 9.65803 8.14697 9.52435 8.31102C9.39675 8.469 9.23574 8.60268 9.0413 8.71205C8.84686 8.82142 8.65546 8.90041 8.4671 8.94902C8.28482 8.99763 8.07823 9.03408 7.84734 9.05839C8.06 9.24675 8.16633 9.53536 8.16633 9.92424C8.16633 10.1673 8.1633 10.4377 8.15722 10.7354C8.15722 11.0331 8.15722 11.1881 8.15722 11.2002C8.15722 11.2731 8.18152 11.3339 8.23013 11.3825C8.28482 11.4311 8.36685 11.4463 8.47622 11.4281C9.41194 11.1121 10.1775 10.5501 10.773 9.74195C11.3685 8.92775 11.6662 8.01329 11.6662 6.99858ZM13.9994 2.62375V11.3734C13.9994 12.0965 13.7412 12.7132 13.2247 13.2236C12.7143 13.7401 12.0976 13.9983 11.3745 13.9983H2.62489C1.90183 13.9983 1.28207 13.7401 0.765594 13.2236C0.255198 12.7132 0 12.0965 0 11.3734V2.62375C0 1.90069 0.255198 1.28396 0.765594 0.773568C1.28207 0.257096 1.90183 -0.00113997 2.62489 -0.00113997H11.3745C12.0976 -0.00113997 12.7143 0.257096 13.2247 0.773568C13.7412 1.28396 13.9994 1.90069 13.9994 2.62375Z" fill="#3F42C7"/>
</svg>
