<svg width="79" height="31" viewBox="0 0 79 31" fill="none" xmlns="http://www.w3.org/2000/svg">
<g clip-path="url(#clip0_47_90368)">
<path d="M28.0487 6.50097C27.7487 5.90097 26.9487 5.80097 26.1487 5.90097C25.4487 6.00097 24.9487 6.20097 24.8487 6.30097C24.7487 6.40097 24.6487 6.50097 24.6487 6.70097C24.6487 7.00097 24.9487 7.30097 24.7487 8.40097C24.6487 9.10097 23.6487 14.601 23.6487 14.601C23.0487 14.901 22.4487 15.201 21.9487 15.201C21.1487 15.201 20.7487 14.901 20.9487 13.601C21.1487 12.401 21.8487 8.30097 21.8487 8.30097C21.9487 7.60097 21.9487 7.00097 21.7487 6.60097C21.4487 6.00097 20.6487 5.90097 19.8487 6.00097C19.1487 6.10097 18.6487 6.30097 18.5487 6.40097C18.4487 6.50097 18.3487 6.60097 18.3487 6.80097C18.3487 7.10097 18.6487 7.40097 18.4487 8.50097C18.0487 10.601 17.5487 13.801 17.3487 14.401C16.9487 16.801 17.7487 18.601 20.0487 18.601C20.5487 18.601 22.0487 18.201 23.2487 17.601C23.2487 17.801 23.3487 18.001 23.4487 18.101C24.0487 19.101 26.2487 18.701 26.7487 18.301C26.8487 18.201 26.9487 18.101 26.9487 17.901C26.9487 17.601 26.6487 17.301 26.8487 16.201C26.9487 15.501 28.2487 8.30097 28.2487 8.30097C28.3487 7.40097 28.3487 6.80097 28.0487 6.50097Z" fill="#E16120"/>
<path d="M63.9493 0.899409C63.6493 0.299408 62.8493 0.199409 62.0493 0.299409C61.3493 0.399409 60.8493 0.599409 60.7493 0.699409C60.5493 0.699409 60.5493 0.899409 60.5493 0.999409C60.5493 1.29941 60.8493 1.59941 60.6493 2.69941C60.5493 3.19941 58.2493 16.1994 58.2493 16.1994C58.1493 16.8994 58.1493 17.4994 58.3493 17.8994C58.6493 18.4994 59.4493 18.5994 60.2493 18.4994C60.9493 18.3994 61.4493 18.1994 61.5493 18.0994C61.6493 17.9994 61.7493 17.8994 61.7493 17.6994C61.7493 17.3994 61.4493 17.0994 61.6493 15.9994C61.7493 15.2994 64.0493 2.49941 64.0493 2.49941C64.2493 1.79941 64.2493 1.29941 63.9493 0.899409Z" fill="#E16120"/>
<path d="M77.6477 14.301C77.0477 13.901 76.5477 13.801 76.3477 13.801C76.1477 13.801 76.0477 13.901 75.9477 14.001C75.8477 14.201 75.3477 15.701 73.2477 17.301C73.3477 16.601 74.8477 8.20097 74.8477 8.20097C74.9477 7.50097 74.9477 6.90097 74.7477 6.50097C74.4477 5.90097 73.6477 5.80097 72.8477 5.90097C72.1477 6.00097 71.6477 6.20097 71.5477 6.30097C71.4477 6.40097 71.3477 6.50097 71.3477 6.70097C71.3477 7.00097 71.5477 7.20097 71.4477 8.10097L70.3477 14.601C69.7477 14.901 69.1477 15.201 68.6477 15.201C67.8477 15.201 67.4477 14.901 67.6477 13.601C67.8477 12.701 68.5477 8.30097 68.5477 8.30097C68.6477 7.60097 68.6477 7.00097 68.4477 6.60097C67.8477 5.60097 65.8477 5.90097 65.1477 6.40097C65.0477 6.50097 64.9477 6.60097 64.9477 6.80097C64.9477 7.10097 65.1477 7.30097 65.0477 8.30097C64.6477 10.401 64.0477 13.701 63.9477 14.501C63.5477 16.901 64.3477 18.701 66.6477 18.701C67.1477 18.701 68.5477 18.401 69.7477 17.801L69.5477 19.401C69.4477 19.501 66.0477 20.601 64.6477 21.301C62.1477 22.401 60.9477 25.601 62.8477 27.701C64.7477 29.701 67.7477 28.601 68.7477 27.901C71.0477 26.301 72.0477 23.701 72.6477 21.101C75.7477 19.501 77.7477 17.601 77.7477 17.601C78.3477 17.101 78.6477 16.601 78.7477 16.201C78.8477 15.401 78.3477 14.801 77.6477 14.301ZM67.5477 25.001C66.9477 25.401 66.2477 25.301 65.9477 25.001C65.6477 24.701 65.5477 23.801 66.9477 23.301C67.9477 22.901 68.9477 22.501 68.9477 22.501C68.7477 23.501 68.1477 24.601 67.5477 25.001Z" fill="#E16120"/>
<path d="M57.3477 9.50083C57.5477 8.20083 57.4477 7.40083 57.1477 6.80083C56.7477 5.90083 55.9477 5.70083 55.0477 5.60083C53.9477 5.50083 52.1477 6.30083 51.2477 6.90083C50.9477 6.20083 50.1477 5.60083 49.0477 5.60083C47.7477 5.60083 45.9477 6.50083 45.2477 6.90083C44.8477 6.00083 44.0477 5.70083 43.0477 5.60083C41.7477 5.50083 40.1477 6.30083 39.2477 6.90083C38.8477 6.00083 38.0477 5.70083 37.0477 5.60083C35.9477 5.50083 34.6477 6.10083 33.5477 6.70083C33.2477 5.90083 32.3477 5.80083 31.5477 5.90083C30.8477 6.00083 30.3477 6.20083 30.2477 6.30083C30.1477 6.40083 30.0477 6.50083 30.0477 6.70083C30.0477 7.00083 30.2477 7.20083 30.1477 8.00083L28.6477 16.3008C28.5477 17.0008 28.5477 17.6008 28.7477 18.0008C29.0477 18.6008 29.8477 18.7008 30.6477 18.6008C31.3477 18.5008 31.8477 18.3008 31.9477 18.2008C32.0477 18.1008 32.1477 18.0008 32.1477 17.8008C32.1477 17.5008 31.9477 17.1008 32.0477 16.5008L33.2477 9.70083C33.6477 9.40083 34.4477 9.00083 34.8477 9.00083C35.6477 9.00083 35.8477 9.50083 35.6477 10.5008L34.6477 16.2008C34.5477 16.9008 34.5477 17.5008 34.7477 17.9008C35.0477 18.5008 35.8477 18.6008 36.6477 18.5008C37.3477 18.4008 37.8477 18.2008 37.9477 18.1008C38.0477 18.0008 38.1477 17.9008 38.1477 17.7008C38.1477 17.4008 37.8477 17.1008 38.0477 16.4008C38.1477 15.7008 39.2477 9.50083 39.2477 9.50083C39.6477 9.20083 40.4477 8.80083 40.8477 8.80083C41.6477 8.80083 41.8477 9.30083 41.6477 10.3008C41.3477 12.1008 41.5477 10.7008 40.6477 16.1008C40.5477 16.8008 40.5477 17.4008 40.7477 17.8008C41.0477 18.4008 41.8477 18.5008 42.6477 18.4008C43.3477 18.3008 43.8477 18.1008 43.9477 18.0008C44.0477 17.9008 44.1477 17.8008 44.1477 17.6008C44.1477 17.3008 43.9477 17.1008 44.0477 16.2008L45.2477 9.40083C45.5477 9.20083 46.3477 8.70083 46.8477 8.70083C47.6477 8.70083 47.7477 9.20083 47.6477 10.3008C47.5477 10.9008 46.6477 15.9008 46.6477 15.9008C46.5477 16.6008 46.5477 17.2008 46.7477 17.6008C47.0477 18.1008 47.6477 18.2008 48.3477 18.2008C48.4477 18.2008 48.6477 18.2008 48.7477 18.2008C49.4477 18.1008 49.9477 17.9008 50.0477 17.8008C50.1477 17.7008 50.2477 17.6008 50.2477 17.4008C50.2477 17.1008 49.9477 16.8008 50.1477 15.7008C50.1477 15.6008 50.5477 13.3008 50.8477 11.5008L51.2477 9.30083C51.6477 9.00083 52.4477 8.70083 52.8477 8.70083C53.6477 8.70083 53.8477 9.20083 53.6477 10.2008L52.6477 15.9008C52.5477 16.6008 52.5477 17.2008 52.7477 17.6008C53.0477 18.2008 53.8477 18.3008 54.6477 18.2008C55.3477 18.1008 55.8477 17.9008 55.9477 17.8008C56.0477 17.7008 56.1477 17.6008 56.1477 17.4008C56.1477 17.1008 55.8477 16.8008 56.0477 15.7008C56.2477 16.0008 57.3477 9.50083 57.3477 9.50083Z" fill="#E16120"/>
<path d="M23.5482 21.9995C23.5482 21.7995 23.3482 21.6995 23.2482 21.6995C22.9482 21.5995 22.7482 21.6995 21.9482 21.2995C21.3482 20.9995 18.4482 19.5995 14.4482 19.1995L17.3482 2.79954C17.4482 2.09954 17.4482 1.49954 17.2482 1.09954C16.9482 0.499542 16.1482 0.399542 15.3482 0.499542C14.6482 0.599542 14.1482 0.799542 14.0482 0.899542C13.9482 0.999542 13.8482 1.09954 13.8482 1.29954C13.8482 1.59954 14.1482 1.89954 13.9482 2.99954C13.9482 3.29954 12.9482 8.49954 12.1482 12.9995C10.0482 14.2995 7.24817 14.8995 6.64817 14.0995C6.34817 13.6995 6.44817 12.9995 6.74817 11.8995C6.84817 11.6995 8.04817 6.99954 8.34817 5.59954C9.04817 2.99954 8.54817 0.699542 5.84817 0.399542C3.54817 0.199542 1.34817 1.49954 0.648167 2.29954C0.148167 2.79954 0.348167 3.39954 0.748167 4.19954C1.04817 4.79954 1.54817 5.19954 1.64817 5.19954C1.74817 5.29954 1.94817 5.29954 2.04817 5.19954C2.84817 4.29954 4.24817 3.69954 4.74817 4.09954C5.14817 4.49954 5.04817 5.09954 4.84817 5.79954C4.84817 5.79954 3.34817 11.3995 2.74817 13.7995C2.34817 15.4995 2.74817 17.0995 4.04817 17.8995C4.94817 18.4995 6.34817 18.3995 7.44817 18.2995C9.84817 17.9995 11.2482 16.9995 11.4482 16.7995C11.1482 18.2995 11.0482 19.2995 11.0482 19.2995C11.0482 19.2995 8.34817 19.4995 6.14817 20.8995C3.24817 22.5995 2.04817 26.5995 3.94817 28.6995C5.84817 30.7995 9.04817 29.9995 10.4482 29.0995C11.7482 28.1995 13.3482 26.3995 14.1482 22.2995C18.5482 22.4995 19.6482 24.7995 21.5482 24.8995C22.7482 24.6995 23.6482 23.3995 23.5482 21.9995ZM8.54817 25.9995C7.94817 26.3995 7.24817 26.3995 6.84817 25.9995C6.44817 25.4995 6.34817 22.8995 10.4482 22.1995C10.4482 22.0995 9.74817 25.1995 8.54817 25.9995Z" fill="#E16120"/>
</g>
<defs>
<clipPath id="clip0_47_90368">
<rect width="79" height="31" fill="white"/>
</clipPath>
</defs>
</svg>
