<svg width="18" height="21" viewBox="0 0 18 21" fill="none" xmlns="http://www.w3.org/2000/svg">
<path d="M14.3715 13.1384C14.1918 14.3364 13.6326 15.4451 12.776 16.3017C11.9194 17.1583 10.8107 17.7175 9.61266 17.8972H9.49868C9.30803 17.8958 9.12487 17.8228 8.98556 17.6926C8.84624 17.5624 8.76095 17.3847 8.7466 17.1945C8.73225 17.0044 8.78989 16.8158 8.90809 16.6662C9.02629 16.5166 9.19641 16.4169 9.3847 16.3869C10.258 16.245 11.0645 15.8319 11.6901 15.2063C12.3157 14.5807 12.7287 13.7742 12.8707 12.9009C12.8812 12.7986 12.9124 12.6994 12.9624 12.6095C13.0123 12.5195 13.0801 12.4407 13.1614 12.3777C13.2428 12.3147 13.3361 12.2689 13.4356 12.243C13.5352 12.2172 13.639 12.2118 13.7408 12.2272C13.8425 12.2427 13.94 12.2786 14.0274 12.3329C14.1148 12.3872 14.1903 12.4586 14.2493 12.5429C14.3083 12.6272 14.3495 12.7226 14.3705 12.8234C14.3915 12.9241 14.3919 13.028 14.3715 13.1289V13.1384ZM17.4776 12.2645C17.4776 14.5822 16.5569 16.8049 14.918 18.4438C13.2792 20.0826 11.0565 21.0033 8.73879 21.0033C6.42112 21.0033 4.19837 20.0826 2.55953 18.4438C0.920691 16.8049 0 14.5822 0 12.2645C0 10.0703 0.94037 7.54365 2.79261 4.75104C2.84817 4.66801 2.91955 4.59675 3.00267 4.54133C3.0858 4.48591 3.17903 4.44743 3.27704 4.42809C3.47461 4.39011 3.6792 4.43102 3.84697 4.54207L6.90554 6.58429L9.84063 0.429143C9.89311 0.319226 9.97156 0.223737 10.0692 0.150921C10.1668 0.0781047 10.2807 0.0301509 10.4011 0.0112006C10.5205 -0.00954047 10.6432 -0.00139385 10.7589 0.03496C10.8746 0.0713138 10.9798 0.134819 11.066 0.220172C12.4623 1.61648 14.0675 3.31674 15.3024 5.29247C16.7652 7.61964 17.4776 9.89933 17.4776 12.2645ZM15.9578 12.2645C15.9578 8.21806 13.5451 4.96951 10.743 2.06292L7.9029 8.02809C7.85738 8.12775 7.79032 8.21608 7.70655 8.28671C7.62278 8.35734 7.52439 8.40851 7.41847 8.43653C7.31457 8.46416 7.20608 8.46999 7.09982 8.45364C6.99356 8.4373 6.89184 8.39913 6.80106 8.34154L3.64749 6.23284C2.23219 8.51252 1.51979 10.5357 1.51979 12.2645C1.51979 14.1791 2.28036 16.0153 3.63418 17.3691C4.98801 18.7229 6.82419 19.4835 8.73879 19.4835C10.6534 19.4835 12.4896 18.7229 13.8434 17.3691C15.1972 16.0153 15.9578 14.1791 15.9578 12.2645Z" fill="#3E4B65"/>
</svg>
