<svg width="15" height="13" viewBox="0 0 15 13" fill="none" xmlns="http://www.w3.org/2000/svg">
<path d="M7.85799 12.1123H3.59695C1.46642 12.1123 0.758494 10.6964 0.758494 9.27385V3.59695C0.758494 1.46642 1.46642 0.758494 3.59695 0.758494H7.85799C9.98852 0.758494 10.6964 1.46642 10.6964 3.59695V9.27385C10.6964 11.4044 9.98178 12.1123 7.85799 12.1123Z" stroke="white" stroke-width="1.5" stroke-linecap="round" stroke-linejoin="round"/>
<path d="M12.5703 9.87789L10.6959 8.56316V4.30886L12.5703 2.99414C13.4872 2.35363 14.2423 2.74468 14.2423 3.87062V9.00815C14.2423 10.1341 13.4872 10.5251 12.5703 9.87789Z" stroke="white" stroke-width="1.5" stroke-linecap="round" stroke-linejoin="round"/>
<path d="M7.16223 5.76771C7.72077 5.76771 8.17356 5.31493 8.17356 4.75639C8.17356 4.19785 7.72077 3.74506 7.16223 3.74506C6.60369 3.74506 6.15091 4.19785 6.15091 4.75639C6.15091 5.31493 6.60369 5.76771 7.16223 5.76771Z" stroke="white" stroke-width="1.5" stroke-linecap="round" stroke-linejoin="round"/>
</svg>
