<svg width="16" height="14" viewBox="0 0 16 14" fill="none" xmlns="http://www.w3.org/2000/svg">
<path d="M7 11.0009C5.05011 10.7201 3.44011 9.3459 3.11111 7.68164L6.11959e-07 7.68164C0.366334 10.813 3.33122 13.3436 7 13.6562L7 11.0009Z" fill="white"/>
<path d="M3.20818 6.12611C3.59156 4.18676 5.59988 2.73823 7.97955 2.73823C10.6335 2.73823 12.7918 4.58038 12.7918 6.84558C12.7918 8.87666 11.0947 10.5908 8.8225 10.918L8.8225 13.6562C12.8696 13.3112 16 10.3889 16 6.84558C16 3.07093 12.402 -2.68469e-07 7.97955 -5.9846e-07C3.82816 -9.08223e-07 0.404232 2.67183 7.71287e-07 6.12611L3.20818 6.12611Z" fill="white"/>
</svg>
