<svg width="30" height="30" viewBox="0 0 30 30" fill="none" xmlns="http://www.w3.org/2000/svg">
<path fill-rule="evenodd" clip-rule="evenodd" d="M15.0013 9.6307C13.6337 9.6307 12.5085 10.7535 12.5085 12.1208C12.5085 12.6984 12.7186 13.2264 13.0535 13.6504C11.4292 14.3669 10.258 15.9389 10.1507 17.8104L10.1075 18.5415H19.895L19.8519 17.8104C19.7444 15.9377 18.5726 14.3692 16.9491 13.6531C17.2847 13.2288 17.494 12.6991 17.494 12.1208C17.494 10.7535 16.3688 9.6307 15.0013 9.6307ZM15.0013 11.0147C15.6231 11.0147 16.11 11.5008 16.11 12.1208C16.11 12.7398 15.6245 13.2308 15.0019 13.2315C14.3794 13.2322 13.8924 12.7407 13.8924 12.1208C13.8924 11.5008 14.3794 11.0147 15.0012 11.0147H15.0013ZM11.71 17.1602H18.2898C17.8749 15.6937 16.5911 14.6141 14.9925 14.6212C13.394 14.6284 12.1216 15.7039 11.71 17.1602Z" fill="white"/>
<path d="M12.5085 12.1208L12.1033 12.1208V12.1208L12.5085 12.1208ZM13.0535 13.6504L13.217 14.0211L13.6957 13.8099L13.3714 13.3993L13.0535 13.6504ZM10.1507 17.8104L10.5551 17.8342L10.5552 17.8336L10.1507 17.8104ZM10.1075 18.5415L9.70303 18.5176L9.67769 18.9466H10.1075V18.5415ZM19.895 18.5415V18.9466H20.3248L20.2995 18.5176L19.895 18.5415ZM19.8519 17.8104L19.4474 17.8336L19.4474 17.8342L19.8519 17.8104ZM16.9491 13.6531L16.6313 13.4017L16.3064 13.8125L16.7855 14.0238L16.9491 13.6531ZM15.0019 13.2315L15.0024 13.6367L15.0019 13.2315ZM18.2898 17.1602V17.5654H18.8256L18.6797 17.0499L18.2898 17.1602ZM11.71 17.1602L11.3201 17.05L11.1744 17.5654H11.71V17.1602ZM14.9925 14.6212L14.9944 15.0264H14.9944L14.9925 14.6212ZM12.9137 12.1208C12.9137 10.9778 13.857 10.0359 15.0013 10.0359V9.22553C13.4105 9.22553 12.1033 10.5292 12.1033 12.1208L12.9137 12.1208ZM13.3714 13.3993C13.0867 13.0387 12.9137 12.5975 12.9137 12.1208L12.1033 12.1208C12.1033 12.7993 12.3505 13.414 12.7355 13.9015L13.3714 13.3993ZM10.5552 17.8336C10.6534 16.1212 11.7252 14.6792 13.217 14.0211L12.8899 13.2797C11.1333 14.0546 9.86261 15.7565 9.74615 17.7872L10.5552 17.8336ZM10.512 18.5653L10.5551 17.8342L9.74619 17.7865L9.70303 18.5176L10.512 18.5653ZM19.895 18.1363H10.1075V18.9466H19.895V18.1363ZM19.4474 17.8342L19.4906 18.5653L20.2995 18.5176L20.2563 17.7865L19.4474 17.8342ZM16.7855 14.0238C18.277 14.6817 19.349 16.1204 19.4474 17.8336L20.2564 17.7872C20.1398 15.755 18.8683 14.0568 17.1126 13.2824L16.7855 14.0238ZM17.0888 12.1208C17.0888 12.5989 16.9161 13.0416 16.6313 13.4017L17.2668 13.9045C17.6532 13.416 17.8992 12.7994 17.8992 12.1208H17.0888ZM15.0013 10.0359C16.1455 10.0359 17.0888 10.9778 17.0888 12.1208H17.8992C17.8992 10.5292 16.592 9.22553 15.0013 9.22553V10.0359ZM16.5152 12.1208C16.5152 11.2762 15.846 10.6095 15.0013 10.6095V11.4198C15.4002 11.4198 15.7049 11.7254 15.7049 12.1208H16.5152ZM15.0024 13.6367C15.85 13.6357 16.5152 12.9619 16.5152 12.1208H15.7049C15.7049 12.5177 15.3989 12.8259 15.0014 12.8263L15.0024 13.6367ZM13.4872 12.1208C13.4872 12.9628 14.1541 13.6377 15.0024 13.6367L15.0014 12.8263C14.6047 12.8268 14.2976 12.5186 14.2976 12.1208H13.4872ZM15.0012 10.6095C14.1564 10.6095 13.4872 11.2762 13.4872 12.1208H14.2976C14.2976 11.7254 14.6023 11.4198 15.0012 11.4198V10.6095ZM15.0013 10.6095H15.0012V11.4198H15.0013V10.6095ZM18.2898 16.755H11.71V17.5654H18.2898V16.755ZM14.9944 15.0264C16.3955 15.0201 17.5302 15.9637 17.9 17.2705L18.6797 17.0499C18.2196 15.4237 16.7868 14.208 14.9907 14.2161L14.9944 15.0264ZM12.0999 17.2704C12.4662 15.9742 13.5903 15.0327 14.9944 15.0264L14.9907 14.2161C13.1976 14.2241 11.7769 15.4336 11.3201 17.05L12.0999 17.2704Z" fill="white"/>
<path fill-rule="evenodd" clip-rule="evenodd" d="M12.7452 2.65893C12.7452 1.42192 13.7635 0.403587 15.0005 0.403587C16.2376 0.403587 17.2559 1.42192 17.2559 2.65893C17.2559 3.65399 16.5928 4.49502 15.6912 4.79017V6.42233C17.4799 6.57084 19.1063 7.28743 20.3934 8.3944L22.7486 6.03924C22.4515 5.54713 22.271 4.97683 22.271 4.36392C22.271 2.5659 23.7454 1.09422 25.5435 1.09422C27.3415 1.09422 28.8132 2.5659 28.8132 4.36392C28.8132 6.16195 27.3415 7.63633 25.5435 7.63633C24.8555 7.63633 24.2188 7.41811 23.6901 7.05091L21.3673 9.3737C22.4931 10.7233 23.1868 12.4375 23.2692 14.3079H25.2089C25.5041 13.4063 26.3451 12.7432 27.3402 12.7432C28.5772 12.7432 29.5955 13.7615 29.5955 14.9986C29.5955 16.2356 28.5772 17.2539 27.3402 17.2539C26.3455 17.2539 25.5044 16.5903 25.2089 15.6892H23.218C23.0042 17.4293 22.2499 18.9991 21.1272 20.2349L23.6901 22.7978C24.2188 22.4306 24.8555 22.2124 25.5435 22.2124C27.3415 22.2124 28.8132 23.6868 28.8132 25.4848C28.8132 27.2828 27.3415 28.7545 25.5435 28.7545C23.7454 28.7545 22.271 27.2828 22.271 25.4848C22.271 24.8719 22.4515 24.3016 22.7486 23.8095L20.1182 21.1792C18.8772 22.1579 17.3553 22.7892 15.6912 22.9273V25.2069C16.5928 25.5021 17.2559 26.3431 17.2559 27.3382C17.2559 28.5752 16.2376 29.5935 15.0005 29.5935C13.7635 29.5935 12.7452 28.5752 12.7452 27.3382C12.7452 26.3431 13.4083 25.5021 14.3099 25.2069V22.9273C12.6369 22.7884 11.1058 22.1534 9.86127 21.1657L7.21745 23.8095C7.51451 24.3016 7.69496 24.8719 7.69496 25.4848C7.69496 27.2828 6.22058 28.7545 4.42256 28.7545C2.62453 28.7545 1.15285 27.2828 1.15285 25.4848C1.15285 23.6868 2.62453 22.2124 4.42256 22.2124C5.10982 22.2124 5.7475 22.4313 6.27593 22.7978L8.8577 20.2161C7.74418 18.983 6.99578 17.4206 6.78311 15.6892H4.79215C4.49668 16.5903 3.65558 17.2539 2.66091 17.2539C1.42389 17.2539 0.405566 16.2356 0.405566 14.9986C0.405566 13.7615 1.42389 12.7432 2.66091 12.7432C3.65597 12.7432 4.497 13.4063 4.79215 14.3079H6.73185C6.81269 12.4737 7.4837 10.7918 8.57174 9.45463L6.16802 7.05091C5.6396 7.41744 5.00188 7.63633 4.31464 7.63633C2.51662 7.63633 1.04494 6.16195 1.04494 4.36392C1.04494 2.5659 2.51662 1.09422 4.31464 1.09422C6.11267 1.09422 7.58705 2.5659 7.58705 4.36392C7.58705 4.97683 7.4066 5.54713 7.10954 6.03924L9.53215 8.46185C10.8309 7.31721 12.4856 6.57379 14.3099 6.42233V4.79017C13.4083 4.49502 12.7452 3.65399 12.7452 2.65893ZM15.8746 2.65893C15.8746 2.16841 15.4911 1.78485 15.0005 1.78485C14.51 1.78485 14.1265 2.16841 14.1265 2.65893C14.1265 3.14945 14.51 3.53031 15.0005 3.53031C15.4911 3.53031 15.8746 3.14945 15.8746 2.65893ZM4.31464 2.47548C5.36618 2.47548 6.20579 3.31239 6.20579 4.36392C6.20579 5.41546 5.36618 6.25507 4.31464 6.25507C3.26311 6.25507 2.4262 5.41546 2.4262 4.36392C2.4262 3.31239 3.26311 2.47548 4.31464 2.47548ZM27.4319 4.36392C27.4319 3.31239 26.595 2.47548 25.5434 2.47548C24.4919 2.47548 23.6523 3.31239 23.6523 4.36392C23.6523 5.41546 24.4919 6.25507 25.5434 6.25507C26.595 6.25507 27.4319 5.41546 27.4319 4.36392ZM15.0005 7.76852C16.7133 7.76852 18.2575 8.41109 19.4627 9.43844L20.2369 10.2127C21.2643 11.4179 21.9068 12.9621 21.9068 14.6748C21.9068 18.4973 18.823 21.5811 15.0005 21.5811C11.1781 21.5811 8.09423 18.4973 8.09423 14.6748C8.09423 10.8524 11.1781 7.76852 15.0005 7.76852ZM3.53229 14.9986C3.53229 14.508 3.15143 14.1245 2.66091 14.1245C2.17038 14.1245 1.78683 14.508 1.78683 14.9986C1.78683 15.4891 2.17038 15.8726 2.66091 15.8726C3.15143 15.8726 3.53229 15.4891 3.53229 14.9986ZM27.3402 14.1245C27.8307 14.1245 28.2143 14.508 28.2143 14.9986C28.2143 15.4891 27.8307 15.8726 27.3402 15.8726C26.8496 15.8726 26.4688 15.4891 26.4688 14.9986C26.4688 14.508 26.8496 14.1245 27.3402 14.1245ZM6.3137 25.4848C6.3137 24.4333 5.47409 23.5937 4.42256 23.5937C3.37102 23.5937 2.53411 24.4333 2.53411 25.4848C2.53411 26.5364 3.37102 27.3733 4.42256 27.3733C5.47409 27.3733 6.3137 26.5364 6.3137 25.4848ZM25.5434 23.5937C26.595 23.5937 27.4319 24.4333 27.4319 25.4848C27.4319 26.5364 26.595 27.3733 25.5434 27.3733C24.4919 27.3733 23.6523 26.5364 23.6523 25.4848C23.6523 24.4333 24.4919 23.5937 25.5434 23.5937ZM15.8746 27.3382C15.8746 26.8477 15.4911 26.4668 15.0005 26.4668C14.51 26.4668 14.1265 26.8477 14.1265 27.3382C14.1265 27.8287 14.51 28.2123 15.0005 28.2123C15.4911 28.2123 15.8746 27.8287 15.8746 27.3382Z" fill="white"/>
<path d="M12.7452 2.65893H13.1504V2.65893L12.7452 2.65893ZM17.2559 2.65893L16.8507 2.65893V2.65893L17.2559 2.65893ZM15.6912 4.79017L15.5651 4.40511L15.286 4.49648V4.79017H15.6912ZM15.6912 6.42233H15.286V6.79525L15.6576 6.82611L15.6912 6.42233ZM20.3934 8.3944L20.1292 8.70159L20.4141 8.94665L20.6799 8.6809L20.3934 8.3944ZM22.7486 6.03924L23.0351 6.32574L23.2594 6.10143L23.0954 5.82986L22.7486 6.03924ZM23.6901 7.05091L23.9212 6.71813L23.643 6.52495L23.4036 6.76441L23.6901 7.05091ZM21.3673 9.3737L21.0808 9.0872L20.819 9.34896L21.0562 9.63323L21.3673 9.3737ZM23.2692 14.3079L22.8644 14.3258L22.8815 14.7131H23.2692V14.3079ZM25.2089 14.3079V14.7131H25.5026L25.594 14.434L25.2089 14.3079ZM27.3402 12.7432V13.1484V12.7432ZM27.3402 17.2539V16.8487V17.2539ZM25.2089 15.6892L25.5939 15.5629L25.5025 15.284H25.2089V15.6892ZM23.218 15.6892V15.284H22.8595L22.8158 15.6398L23.218 15.6892ZM21.1272 20.2349L20.8273 19.9625L20.5676 20.2484L20.8407 20.5214L21.1272 20.2349ZM23.6901 22.7978L23.4036 23.0843L23.6431 23.3238L23.9212 23.1306L23.6901 22.7978ZM22.7486 23.8095L23.0954 24.0189L23.2594 23.7473L23.0351 23.523L22.7486 23.8095ZM20.1182 21.1792L20.4047 20.8927L20.1501 20.638L19.8673 20.861L20.1182 21.1792ZM15.6912 22.9273L15.6576 22.5235L15.286 22.5544V22.9273H15.6912ZM15.6912 25.2069H15.286V25.5006L15.5651 25.592L15.6912 25.2069ZM17.2559 27.3382H16.8507H17.2559ZM15.0005 29.5935L15.0005 29.1884H15.0005L15.0005 29.5935ZM12.7452 27.3382H13.1504H12.7452ZM14.3099 25.2069L14.436 25.592L14.7151 25.5006V25.2069H14.3099ZM14.3099 22.9273H14.7151V22.5544L14.3434 22.5235L14.3099 22.9273ZM9.86127 21.1657L10.1131 20.8483L9.8302 20.6238L9.57478 20.8792L9.86127 21.1657ZM7.21745 23.8095L6.93095 23.523L6.70664 23.7473L6.87058 24.0189L7.21745 23.8095ZM6.27593 22.7978L6.04499 23.1308L6.3231 23.3237L6.56243 23.0843L6.27593 22.7978ZM8.8577 20.2161L9.1442 20.5026L9.41648 20.2303L9.1584 19.9445L8.8577 20.2161ZM6.78311 15.6892L7.18526 15.6398L7.14156 15.284H6.78311V15.6892ZM4.79215 15.6892V15.284H4.49861L4.40715 15.5629L4.79215 15.6892ZM2.66091 17.2539V16.8487H2.66091L2.66091 17.2539ZM2.66091 12.7432L2.66091 13.1484H2.66091V12.7432ZM4.79215 14.3079L4.40709 14.434L4.49846 14.7131H4.79215V14.3079ZM6.73185 14.3079V14.7131H7.11956L7.13663 14.3258L6.73185 14.3079ZM8.57174 9.45463L8.88601 9.71035L9.11681 9.42671L8.85823 9.16813L8.57174 9.45463ZM6.16802 7.05091L6.45452 6.76441L6.21519 6.52509L5.93709 6.71799L6.16802 7.05091ZM7.10954 6.03924L6.76267 5.82986L6.59873 6.10143L6.82304 6.32574L7.10954 6.03924ZM9.53215 8.46185L9.24565 8.74835L9.51465 9.01734L9.80004 8.76581L9.53215 8.46185ZM14.3099 6.42233L14.3434 6.82611L14.7151 6.79525V6.42233H14.3099ZM14.3099 4.79017H14.7151V4.49648L14.436 4.40511L14.3099 4.79017ZM15.8746 2.65893L15.4694 2.65893V2.65893H15.8746ZM14.1265 2.65893L14.5316 2.65893V2.65893L14.1265 2.65893ZM6.20579 4.36392L5.80062 4.36392V4.36392H6.20579ZM19.4627 9.43844L19.7492 9.15194L19.7378 9.14055L19.7255 9.1301L19.4627 9.43844ZM20.2369 10.2127L20.5453 9.94986L20.5348 9.9376L20.5234 9.92621L20.2369 10.2127ZM2.66091 14.1245L2.66091 14.5297H2.66091V14.1245ZM2.66091 15.8726V15.4675H2.6609L2.66091 15.8726ZM27.3402 14.1245V14.5297V14.1245ZM27.3402 15.8726L27.3402 15.4675H27.3402V15.8726ZM4.42256 23.5937L4.42256 23.1885H4.42256V23.5937ZM6.3137 25.4848H6.71887H6.3137ZM25.5434 23.5937V23.1885V23.5937ZM15.8746 27.3382H15.4694V27.3382L15.8746 27.3382ZM14.1265 27.3382H14.5316H14.1265ZM15.0005 -0.0015827C13.5398 -0.0015827 12.34 1.19815 12.34 2.65893L13.1504 2.65893C13.1504 1.64569 13.9873 0.808758 15.0005 0.808758V-0.0015827ZM17.6611 2.65893C17.6611 1.19815 16.4613 -0.0015827 15.0005 -0.0015827V0.808758C16.0138 0.808758 16.8507 1.64569 16.8507 2.65893L17.6611 2.65893ZM15.8172 5.17524C16.8751 4.82893 17.6611 3.83973 17.6611 2.65893L16.8507 2.65893C16.8507 3.46825 16.3105 4.16111 15.5651 4.40511L15.8172 5.17524ZM16.0963 6.42233V4.79017H15.286V6.42233H16.0963ZM20.6576 8.08722C19.308 6.92645 17.6015 6.17437 15.7247 6.01855L15.6576 6.82611C17.3583 6.96731 18.9046 7.6484 20.1292 8.70159L20.6576 8.08722ZM22.4621 5.75274L20.1069 8.1079L20.6799 8.6809L23.0351 6.32574L22.4621 5.75274ZM21.8659 4.36392C21.8659 5.05801 22.0705 5.69996 22.4017 6.24863L23.0954 5.82986C22.8325 5.3943 22.6762 4.89566 22.6762 4.36392H21.8659ZM25.5435 0.689048C23.5221 0.689048 21.8659 2.3417 21.8659 4.36392H22.6762C22.6762 2.7901 23.9688 1.49939 25.5435 1.49939V0.689048ZM29.2183 4.36392C29.2183 2.34213 27.5652 0.689048 25.5435 0.689048V1.49939C27.1177 1.49939 28.408 2.78967 28.408 4.36392H29.2183ZM25.5435 8.0415C27.5657 8.0415 29.2183 6.38528 29.2183 4.36392H28.408C28.408 5.93861 27.1173 7.23116 25.5435 7.23116V8.0415ZM23.459 7.38369C24.0515 7.79519 24.7681 8.0415 25.5435 8.0415V7.23116C24.943 7.23116 24.3862 7.04104 23.9212 6.71813L23.459 7.38369ZM21.6538 9.6602L23.9766 7.33741L23.4036 6.76441L21.0808 9.0872L21.6538 9.6602ZM23.674 14.2901C23.5876 12.3296 22.8601 10.5308 21.6784 9.11416L21.0562 9.63323C22.1261 10.9158 22.786 12.5455 22.8644 14.3258L23.674 14.2901ZM25.2089 13.9028H23.2692V14.7131H25.2089V13.9028ZM27.3402 12.3381C26.1594 12.3381 25.1702 13.124 24.8239 14.1819L25.594 14.434C25.838 13.6886 26.5309 13.1484 27.3402 13.1484V12.3381ZM30.0007 14.9986C30.0007 13.5378 28.801 12.338 27.3402 12.3381V13.1484C28.3534 13.1484 29.1903 13.9853 29.1903 14.9986H30.0007ZM27.3402 17.6591C28.801 17.6591 30.0007 16.4593 30.0007 14.9986H29.1903C29.1903 16.0118 28.3534 16.8487 27.3402 16.8487V17.6591ZM24.8239 15.8154C25.1705 16.8725 26.1596 17.6591 27.3402 17.6591V16.8487C26.5314 16.8487 25.8383 16.3081 25.5939 15.5629L24.8239 15.8154ZM23.218 16.0944H25.2089V15.284H23.218V16.0944ZM21.4271 20.5074C22.604 19.2119 23.3958 17.5649 23.6201 15.7386L22.8158 15.6398C22.6127 17.2936 21.8959 18.7863 20.8273 19.9625L21.4271 20.5074ZM23.9766 22.5113L21.4137 19.9484L20.8407 20.5214L23.4036 23.0843L23.9766 22.5113ZM25.5435 21.8072C24.768 21.8072 24.0515 22.0535 23.4589 22.4651L23.9212 23.1306C24.3862 22.8077 24.9429 22.6176 25.5435 22.6176V21.8072ZM29.2183 25.4848C29.2183 23.4635 27.5657 21.8072 25.5435 21.8072V22.6176C27.1173 22.6176 28.408 23.9101 28.408 25.4848H29.2183ZM25.5435 29.1597C27.5652 29.1597 29.2183 27.5066 29.2183 25.4848H28.408C28.408 27.0591 27.1177 28.3494 25.5435 28.3494V29.1597ZM21.8659 25.4848C21.8659 27.507 23.5221 29.1597 25.5435 29.1597V28.3494C23.9688 28.3494 22.6762 27.0586 22.6762 25.4848H21.8659ZM22.4017 23.6001C22.0705 24.1488 21.8659 24.7907 21.8659 25.4848H22.6762C22.6762 24.9531 22.8325 24.4544 23.0954 24.0189L22.4017 23.6001ZM19.8317 21.4657L22.4621 24.096L23.0351 23.523L20.4047 20.8927L19.8317 21.4657ZM15.7247 23.3311C17.471 23.1861 19.068 22.5235 20.3691 21.4973L19.8673 20.861C18.6865 21.7923 17.2396 22.3922 15.6576 22.5235L15.7247 23.3311ZM16.0963 25.2069V22.9273H15.286V25.2069H16.0963ZM17.6611 27.3382C17.6611 26.1574 16.8751 25.1682 15.8172 24.8219L15.5651 25.592C16.3105 25.836 16.8507 26.5289 16.8507 27.3382H17.6611ZM15.0005 29.9987C16.4613 29.9987 17.6611 28.799 17.6611 27.3382H16.8507C16.8507 28.3514 16.0138 29.1884 15.0005 29.1884L15.0005 29.9987ZM12.34 27.3382C12.34 28.799 13.5398 29.9987 15.0005 29.9987L15.0005 29.1884C13.9873 29.1884 13.1504 28.3514 13.1504 27.3382H12.34ZM14.1839 24.8219C13.126 25.1682 12.34 26.1574 12.34 27.3382H13.1504C13.1504 26.5289 13.6906 25.836 14.436 25.592L14.1839 24.8219ZM13.9047 22.9273V25.2069H14.7151V22.9273H13.9047ZM9.6094 21.483C10.9147 22.5189 12.5212 23.1854 14.2764 23.3311L14.3434 22.5235C12.7526 22.3915 11.297 21.7878 10.1131 20.8483L9.6094 21.483ZM7.50395 24.096L10.1478 21.4522L9.57478 20.8792L6.93095 23.523L7.50395 24.096ZM8.10013 25.4848C8.10013 24.7907 7.89553 24.1488 7.56432 23.6001L6.87058 24.0189C7.1335 24.4544 7.28979 24.9531 7.28979 25.4848H8.10013ZM4.42256 29.1597C6.44392 29.1597 8.10013 27.507 8.10013 25.4848H7.28979C7.28979 27.0586 5.99725 28.3494 4.42256 28.3494V29.1597ZM0.747679 25.4848C0.747679 27.5066 2.40076 29.1597 4.42256 29.1597V28.3494C2.8483 28.3494 1.55802 27.0591 1.55802 25.4848H0.747679ZM4.42256 21.8072C2.40033 21.8072 0.747679 23.4635 0.747679 25.4848H1.55802C1.55802 23.9101 2.84873 22.6176 4.42256 22.6176V21.8072ZM6.50686 22.4649C5.91489 22.0543 5.19742 21.8072 4.42256 21.8072V22.6176C5.02222 22.6176 5.5801 22.8083 6.04499 23.1308L6.50686 22.4649ZM8.5712 19.9296L5.98943 22.5113L6.56243 23.0843L9.1442 20.5026L8.5712 19.9296ZM6.38096 15.7386C6.60419 17.5559 7.38982 19.1951 8.557 20.4876L9.1584 19.9445C8.09854 18.7709 7.38737 17.2853 7.18526 15.6398L6.38096 15.7386ZM4.79215 16.0944H6.78311V15.284H4.79215V16.0944ZM2.66091 17.6591C3.84148 17.6591 4.83055 16.8725 5.17715 15.8154L4.40715 15.5629C4.16281 16.3081 3.46968 16.8487 2.66091 16.8487V17.6591ZM0.000395668 14.9986C0.000395668 16.4593 1.20012 17.6591 2.66091 17.6591L2.66091 16.8487C1.64766 16.8487 0.810736 16.0118 0.810736 14.9986H0.000395668ZM2.66091 12.3381C1.20012 12.338 0.000395668 13.5378 0.000395668 14.9986H0.810736C0.810736 13.9853 1.64766 13.1484 2.66091 13.1484L2.66091 12.3381ZM5.17721 14.1819C4.83091 13.124 3.84171 12.3381 2.66091 12.3381V13.1484C3.47022 13.1484 4.16309 13.6886 4.40709 14.434L5.17721 14.1819ZM6.73185 13.9028H4.79215V14.7131H6.73185V13.9028ZM8.25746 9.1989C7.11568 10.6021 6.41183 12.367 6.32708 14.2901L7.13663 14.3258C7.21355 12.5803 7.85173 10.9814 8.88601 9.71035L8.25746 9.1989ZM5.88152 7.33741L8.28524 9.74113L8.85823 9.16813L6.45452 6.76441L5.88152 7.33741ZM4.31464 8.0415C5.08948 8.0415 5.80699 7.79442 6.39894 7.38383L5.93709 6.71799C5.47221 7.04045 4.91427 7.23116 4.31464 7.23116V8.0415ZM0.639768 4.36392C0.639768 6.38528 2.29242 8.0415 4.31464 8.0415V7.23116C2.74082 7.23116 1.45011 5.93861 1.45011 4.36392H0.639768ZM4.31464 0.689048C2.29285 0.689048 0.639768 2.34213 0.639768 4.36392H1.45011C1.45011 2.78967 2.74039 1.49939 4.31464 1.49939V0.689048ZM7.99222 4.36392C7.99222 2.3417 6.33601 0.689048 4.31464 0.689048V1.49939C5.88934 1.49939 7.18188 2.7901 7.18188 4.36392H7.99222ZM7.45641 6.24863C7.78762 5.69996 7.99222 5.05801 7.99222 4.36392H7.18188C7.18188 4.89566 7.02559 5.3943 6.76267 5.82986L7.45641 6.24863ZM9.81864 8.17535L7.39604 5.75274L6.82304 6.32574L9.24565 8.74835L9.81864 8.17535ZM14.2764 6.01855C12.3621 6.17748 10.6259 6.95781 9.26425 8.15788L9.80004 8.76581C11.0359 7.67662 12.6092 6.9701 14.3434 6.82611L14.2764 6.01855ZM13.9047 4.79017V6.42233H14.7151V4.79017H13.9047ZM12.34 2.65893C12.34 3.83973 13.126 4.82893 14.1839 5.17524L14.436 4.40511C13.6906 4.16111 13.1504 3.46825 13.1504 2.65893H12.34ZM15.0005 2.19002C15.2673 2.19002 15.4694 2.39218 15.4694 2.65893L16.2798 2.65893C16.2798 1.94463 15.7148 1.37968 15.0005 1.37968V2.19002ZM14.5316 2.65893C14.5316 2.39217 14.7338 2.19002 15.0005 2.19002V1.37968C14.2862 1.37968 13.7213 1.94464 13.7213 2.65893L14.5316 2.65893ZM15.0005 3.12514C14.7321 3.12514 14.5316 2.92404 14.5316 2.65893L13.7213 2.65893C13.7213 3.37486 14.2879 3.93548 15.0005 3.93548V3.12514ZM15.4694 2.65893C15.4694 2.92404 15.2689 3.12514 15.0005 3.12514V3.93548C15.7132 3.93548 16.2798 3.37486 16.2798 2.65893H15.4694ZM6.61096 4.36393C6.61096 3.08786 5.58919 2.07031 4.31464 2.07031V2.88065C5.14317 2.88065 5.80062 3.53691 5.80062 4.36392L6.61096 4.36393ZM4.31464 6.66024C5.58995 6.66024 6.61096 5.63923 6.61096 4.36392H5.80062C5.80062 5.19169 5.14241 5.8499 4.31464 5.8499V6.66024ZM2.02103 4.36392C2.02103 5.63847 3.03858 6.66024 4.31464 6.66024V5.8499C3.48763 5.8499 2.83137 5.19245 2.83137 4.36392H2.02103ZM4.31464 2.07031C3.03934 2.07031 2.02103 3.08862 2.02103 4.36392H2.83137C2.83137 3.53616 3.48688 2.88065 4.31464 2.88065V2.07031ZM25.5434 2.88065C26.3712 2.88065 27.0267 3.53616 27.0267 4.36392H27.8371C27.8371 3.08862 26.8188 2.07031 25.5434 2.07031V2.88065ZM24.0575 4.36392C24.0575 3.53691 24.7149 2.88065 25.5434 2.88065V2.07031C24.2689 2.07031 23.2471 3.08786 23.2471 4.36392H24.0575ZM25.5434 5.8499C24.7157 5.8499 24.0575 5.19169 24.0575 4.36392H23.2471C23.2471 5.63923 24.2681 6.66024 25.5434 6.66024V5.8499ZM27.0267 4.36392C27.0267 5.19245 26.3705 5.8499 25.5434 5.8499V6.66024C26.8195 6.66024 27.8371 5.63847 27.8371 4.36392H27.0267ZM19.7255 9.1301C18.4535 8.0458 16.8179 7.36335 15.0005 7.36335V8.17369C16.6087 8.17369 18.0614 8.77638 19.1998 9.74679L19.7255 9.1301ZM20.5234 9.92621L19.7492 9.15194L19.1762 9.72494L19.9504 10.4992L20.5234 9.92621ZM22.312 14.6748C22.312 12.8575 21.6296 11.2219 20.5453 9.94986L19.9286 10.4755C20.899 11.6139 21.5017 13.0666 21.5017 14.6748H22.312ZM15.0005 21.9863C19.0467 21.9863 22.312 18.721 22.312 14.6748H21.5017C21.5017 18.2735 18.5992 21.176 15.0005 21.176V21.9863ZM7.68906 14.6748C7.68906 18.721 10.9543 21.9863 15.0005 21.9863V21.176C11.4019 21.176 8.4994 18.2735 8.4994 14.6748H7.68906ZM15.0005 7.36335C10.9543 7.36335 7.68906 10.6286 7.68906 14.6748H8.4994C8.4994 11.0762 11.4019 8.17369 15.0005 8.17369V7.36335ZM2.66091 14.5297C2.92602 14.5297 3.12712 14.7302 3.12712 14.9986H3.93746C3.93746 14.2859 3.37684 13.7193 2.66091 13.7193V14.5297ZM2.192 14.9986C2.192 14.7318 2.39415 14.5297 2.66091 14.5297L2.66091 13.7193C1.94661 13.7193 1.38166 14.2843 1.38166 14.9986H2.192ZM2.6609 15.4675C2.39415 15.4675 2.192 15.2653 2.192 14.9986H1.38166C1.38166 15.7129 1.94661 16.2778 2.66091 16.2778L2.6609 15.4675ZM3.12712 14.9986C3.12712 15.267 2.92602 15.4675 2.66091 15.4675V16.2778C3.37684 16.2778 3.93746 15.7112 3.93746 14.9986H3.12712ZM28.6194 14.9986C28.6194 14.2843 28.0545 13.7193 27.3402 13.7193V14.5297C27.6069 14.5297 27.8091 14.7318 27.8091 14.9986H28.6194ZM27.3402 16.2778C28.0545 16.2778 28.6194 15.7129 28.6194 14.9986H27.8091C27.8091 15.2653 27.6069 15.4675 27.3402 15.4675L27.3402 16.2778ZM26.0636 14.9986C26.0636 15.7112 26.6242 16.2778 27.3402 16.2778V15.4675C27.0751 15.4675 26.874 15.267 26.874 14.9986H26.0636ZM27.3402 13.7193C26.6242 13.7193 26.0636 14.2859 26.0636 14.9986H26.874C26.874 14.7302 27.0751 14.5297 27.3402 14.5297V13.7193ZM4.42255 23.9988C5.25032 23.9988 5.90853 24.6571 5.90853 25.4848H6.71887C6.71887 24.2095 5.69786 23.1885 4.42256 23.1885L4.42255 23.9988ZM2.93928 25.4848C2.93928 24.6563 3.59554 23.9988 4.42256 23.9988V23.1885C3.14649 23.1885 2.12894 24.2103 2.12894 25.4848H2.93928ZM4.42256 26.9681C3.59479 26.9681 2.93928 26.3126 2.93928 25.4848H2.12894C2.12894 26.7601 3.14725 27.7784 4.42256 27.7784V26.9681ZM5.90853 25.4848C5.90853 26.3118 5.25108 26.9681 4.42256 26.9681V27.7784C5.69711 27.7784 6.71887 26.7609 6.71887 25.4848H5.90853ZM27.8371 25.4848C27.8371 24.2103 26.8195 23.1885 25.5434 23.1885V23.9988C26.3705 23.9988 27.0267 24.6563 27.0267 25.4848H27.8371ZM25.5434 27.7784C26.8188 27.7784 27.8371 26.7601 27.8371 25.4848H27.0267C27.0267 26.3126 26.3712 26.9681 25.5434 26.9681V27.7784ZM23.2471 25.4848C23.2471 26.7609 24.2689 27.7784 25.5434 27.7784V26.9681C24.7149 26.9681 24.0575 26.3118 24.0575 25.4848H23.2471ZM25.5434 23.1885C24.2681 23.1885 23.2471 24.2095 23.2471 25.4848H24.0575C24.0575 24.6571 24.7157 23.9988 25.5434 23.9988V23.1885ZM15.0005 26.872C15.2689 26.872 15.4694 27.0731 15.4694 27.3382H16.2798C16.2798 26.6223 15.7132 26.0616 15.0005 26.0616V26.872ZM14.5316 27.3382C14.5316 27.0731 14.7321 26.872 15.0005 26.872V26.0616C14.2879 26.0616 13.7213 26.6223 13.7213 27.3382H14.5316ZM15.0005 27.8071C14.7338 27.8071 14.5316 27.6049 14.5316 27.3382H13.7213C13.7213 28.0525 14.2862 28.6174 15.0005 28.6174V27.8071ZM15.4694 27.3382C15.4694 27.6049 15.2673 27.8071 15.0005 27.8071V28.6174C15.7148 28.6174 16.2798 28.0525 16.2798 27.3382L15.4694 27.3382Z" fill="white"/>
</svg>
