<svg width="22" height="21" viewBox="0 0 22 21" fill="none" xmlns="http://www.w3.org/2000/svg">
<path d="M20.142 17.9044H1.89975C1.56837 17.9072 1.24192 17.8335 0.952771 17.6905C0.663625 17.5476 0.421827 17.3405 0.251354 17.0897C0.0866156 16.834 0 16.5449 0 16.2507C0 15.9566 0.0866156 15.6675 0.251354 15.4118L2.17448 12.0753C2.18437 12.037 2.18437 11.9972 2.17448 11.9589V7.75922C2.17448 5.70135 3.10072 3.72776 4.74944 2.27262C6.39815 0.817487 8.63429 0 10.9659 0C13.2976 0 15.5337 0.817487 17.1824 2.27262C18.8311 3.72776 19.7574 5.70135 19.7574 7.75922V11.9783C19.7475 12.0166 19.7475 12.0564 19.7574 12.0947L21.7684 15.4311C21.927 15.689 22.0066 15.9788 21.9996 16.2721C21.9925 16.5654 21.8989 16.852 21.7281 17.1036C21.5572 17.3553 21.315 17.5633 21.0253 17.7071C20.7356 17.8509 20.4084 17.9256 20.0761 17.9238L20.142 17.9044ZM11.0209 1.41606C10.0806 1.41731 9.14981 1.58266 8.28218 1.9026C7.41455 2.22254 6.62717 2.69074 5.96534 3.28027C5.30351 3.86981 4.7803 4.56903 4.42581 5.3377C4.07132 6.10638 3.89256 6.92934 3.8998 7.75922V11.9783C3.90154 12.2565 3.82206 12.5304 3.66903 12.7736L1.65799 16.1004C1.63245 16.135 1.61885 16.1754 1.61885 16.2168C1.61885 16.2581 1.63245 16.2985 1.65799 16.3332C1.67936 16.3703 1.71261 16.4012 1.75362 16.4219C1.79464 16.4425 1.84162 16.4522 1.88876 16.4495H20.131C20.1782 16.4522 20.2251 16.4425 20.2661 16.4219C20.3072 16.4012 20.3404 16.3703 20.3618 16.3332C20.3873 16.2985 20.4009 16.2581 20.4009 16.2168C20.4009 16.1754 20.3873 16.135 20.3618 16.1004L18.3507 12.7542C18.1977 12.511 18.1182 12.2371 18.12 11.9589V7.75922C18.1229 6.09312 17.3773 4.49395 16.0466 3.31221C14.7159 2.13047 12.9086 1.46255 11.0209 1.45485V1.41606Z" fill="#25396F"/>
<path d="M10.9947 20.4844C9.93428 20.482 8.91823 20.1212 8.16938 19.4812C7.42053 18.8412 7 17.9742 7 17.0703H8.5852C8.56333 17.3521 8.60954 17.6347 8.721 17.9006C8.83245 18.1665 9.00676 18.4101 9.23314 18.6162C9.45952 18.8224 9.73314 18.9867 10.0371 19.0991C10.341 19.2114 10.6687 19.2694 11 19.2694C11.3313 19.2694 11.659 19.2114 11.9629 19.0991C12.2669 18.9867 12.5405 18.8224 12.7669 18.6162C12.9932 18.4101 13.1676 18.1665 13.279 17.9006C13.3905 17.6347 13.4367 17.3521 13.4148 17.0703H15C15 17.9758 14.578 18.8442 13.8269 19.4844C13.0757 20.1247 12.057 20.4844 10.9947 20.4844Z" fill="#25396F"/>
</svg>
