<svg width="50" height="80" viewBox="0 0 50 80" fill="none" xmlns="http://www.w3.org/2000/svg">
<g clip-path="url(#clip0_47_82896)">
<path d="M15.1328 23.0625H24.9345C27.3187 23.0625 30.4633 23.0625 32.0871 24.0486C33.8679 25.1082 35.266 27.0361 35.266 29.6901C35.266 32.5649 33.755 34.7235 31.2531 35.7438V35.8223C34.5841 36.5042 36.3992 39.0013 36.3992 42.3322C36.3992 46.3059 33.5588 50.0931 28.187 50.0931H15.1328V23.0625ZM18.7238 34.6793H25.9206C30.0071 34.6793 31.675 33.2026 31.675 30.3622C31.675 26.6142 29.0259 26.0844 25.9206 26.0844H18.7238V34.6793ZM18.7238 47.0565H27.7357C30.8361 47.0565 32.8082 45.1628 32.8082 42.2145C32.8082 38.6922 29.9678 37.711 26.941 37.711H18.7238V47.0565Z" fill="#A1A1A3"/>
<path d="M45.5964 36.5805C45.5964 47.9324 36.3932 57.1355 25.0364 57.1355C13.6846 57.1355 4.48138 47.9324 4.48138 36.5805C4.48138 25.2286 13.6846 16.0254 25.0364 16.0254C36.3932 16.0303 45.5964 25.2286 45.5964 36.5805ZM25.0364 12.8906C11.9626 12.8906 1.36133 23.492 1.36133 36.5657C1.36133 49.6396 11.9626 60.2409 25.0364 60.2409C38.1151 60.2409 48.7165 49.6396 48.7165 36.5657C48.7165 23.492 38.1151 12.8906 25.0364 12.8906Z" fill="#A1A1A3"/>
<path d="M48.6672 65.2422H1.41016V68.3475H48.6672V65.2422Z" fill="#A1A1A3"/>
<path d="M47.1916 61.8226C47.2505 61.8226 47.3044 61.8176 47.3584 61.8176C47.4074 61.8127 47.4565 61.8029 47.4958 61.7882C47.5399 61.7686 47.5693 61.7392 47.5939 61.7048C47.6184 61.6655 47.6282 61.6165 47.6282 61.5528C47.6282 61.4988 47.6184 61.4497 47.5988 61.4203C47.5792 61.386 47.5497 61.3614 47.5154 61.3467C47.4811 61.3271 47.4467 61.3172 47.3977 61.3075C47.3535 61.3026 47.3143 61.3026 47.2652 61.3026H46.9267V61.8275H47.1916V61.8226ZM47.3044 61.0916C47.5007 61.0916 47.6429 61.1308 47.741 61.2093C47.8343 61.2879 47.8833 61.4056 47.8833 61.5674C47.8833 61.7196 47.8391 61.8226 47.7606 61.8961C47.6773 61.9648 47.5742 62.0041 47.4467 62.0188L47.9177 62.7448H47.6429L47.1916 62.0335H46.9218V62.7448H46.6618V61.0965H47.3044V61.0916ZM46.1418 62.3867C46.1957 62.5339 46.2791 62.6663 46.387 62.7743C46.49 62.8822 46.6127 62.9656 46.755 63.0294C46.8924 63.0882 47.0493 63.1177 47.2113 63.1177C47.378 63.1177 47.5301 63.0882 47.6675 63.0294C47.8097 62.9656 47.9324 62.8822 48.0354 62.7743C48.1384 62.6663 48.2218 62.5388 48.2757 62.3867C48.3347 62.2396 48.369 62.0825 48.369 61.9109C48.369 61.7392 48.3395 61.5821 48.2757 61.435C48.2169 61.2878 48.1335 61.1603 48.0354 61.0524C47.9275 60.9444 47.8048 60.861 47.6675 60.8022C47.5301 60.7433 47.3731 60.7089 47.2113 60.7089C47.0493 60.7089 46.8924 60.7433 46.755 60.8022C46.6127 60.8659 46.4852 60.9493 46.387 61.0524C46.2791 61.1603 46.2006 61.2878 46.1418 61.435C46.0829 61.5821 46.0534 61.7342 46.0534 61.9109C46.0534 62.0825 46.0829 62.2444 46.1418 62.3867ZM45.9112 61.3516C45.9848 61.1799 46.0878 61.0377 46.2154 60.9101C46.3429 60.7825 46.495 60.6893 46.6667 60.6157C46.8384 60.5422 47.0248 60.5078 47.2113 60.5078C47.4074 60.5078 47.5889 60.5422 47.7656 60.6157C47.9324 60.6893 48.0845 60.7825 48.2071 60.9101C48.3347 61.0377 48.4425 61.1848 48.5112 61.3516C48.5897 61.5233 48.6241 61.7097 48.6241 61.9109C48.6241 62.112 48.5897 62.2984 48.5112 62.4701C48.4377 62.6467 48.3347 62.7939 48.2071 62.9214C48.0796 63.0539 47.9324 63.1471 47.7656 63.2207C47.5889 63.2893 47.4074 63.3237 47.2113 63.3237C47.0199 63.3237 46.8384 63.2893 46.6667 63.2207C46.495 63.1471 46.3429 63.0539 46.2154 62.9214C46.0878 62.7939 45.9848 62.6467 45.9112 62.4701C45.8327 62.2984 45.8032 62.112 45.8032 61.9109C45.7984 61.7146 45.8278 61.5233 45.9112 61.3516Z" fill="#A1A1A3"/>
<path d="M7.13576 2.48231C7.02292 2.30079 6.88556 2.14381 6.71876 2.01136C6.55197 1.874 6.36065 1.77097 6.1497 1.69248C5.93875 1.6189 5.71799 1.57965 5.48742 1.57965C5.06553 1.57965 4.70741 1.66304 4.40816 1.82493C4.11382 1.98682 3.87343 2.20758 3.69193 2.48231C3.51041 2.75703 3.37305 3.07099 3.28965 3.42421C3.20625 3.77252 3.16211 4.13554 3.16211 4.51328C3.16211 4.87141 3.20135 5.21971 3.28965 5.55821C3.37305 5.8967 3.5055 6.20086 3.69193 6.47558C3.87343 6.74539 4.11382 6.96615 4.40816 7.12807C4.7025 7.28991 5.06063 7.37331 5.48742 7.37331C6.0614 7.37331 6.51273 7.19674 6.8316 6.84842C7.15538 6.4952 7.35161 6.03407 7.42519 5.46009H9.24526C9.19619 5.99482 9.0735 6.47558 8.87237 6.90729C8.67124 7.33897 8.41127 7.7069 8.08256 8.00616C7.75388 8.3103 7.37123 8.54088 6.93462 8.7028C6.49801 8.85975 6.01234 8.94315 5.48742 8.94315C4.83496 8.94315 4.24627 8.83037 3.72136 8.59979C3.19644 8.37409 2.75983 8.06011 2.39681 7.65784C2.03869 7.26053 1.76397 6.78955 1.57264 6.24992C1.38132 5.71519 1.2832 5.13631 1.2832 4.51328C1.2832 3.87554 1.38132 3.28194 1.57264 2.7325C1.76397 2.18796 2.03869 1.7072 2.39681 1.30493C2.75493 0.897749 3.19644 0.578878 3.72136 0.348308C4.24136 0.117738 4.83006 0 5.48742 0C5.95837 0 6.4048 0.0686804 6.82179 0.201136C7.23877 0.338496 7.61652 0.534726 7.9452 0.794733C8.27389 1.05473 8.54862 1.37361 8.76448 1.75625C8.98034 2.1389 9.11768 2.58042 9.17163 3.07099H7.35161C7.32217 2.86005 7.24858 2.66382 7.13576 2.48231Z" fill="#A1A1A3"/>
<path d="M11.6935 7.26684C11.9486 7.51215 12.3165 7.63965 12.7923 7.63965C13.1358 7.63965 13.4301 7.55625 13.6803 7.38457C13.9256 7.21289 14.0777 7.03137 14.1366 6.84005H15.6328C15.3924 7.58082 15.0245 8.11554 14.529 8.43441C14.0335 8.75328 13.435 8.91519 12.7335 8.91519C12.2478 8.91519 11.8063 8.83668 11.4187 8.67972C11.0263 8.52269 10.6976 8.30195 10.4229 8.01742C10.1531 7.73289 9.94215 7.38946 9.79496 6.98722C9.64778 6.58985 9.57422 6.14834 9.57422 5.67248C9.57422 5.21134 9.64778 4.77964 9.79985 4.38227C9.95192 3.9849 10.1678 3.63659 10.4474 3.34715C10.7271 3.05772 11.0607 2.82715 11.4482 2.66035C11.8357 2.49355 12.2626 2.41016 12.7335 2.41016C13.2584 2.41016 13.7196 2.51318 14.112 2.71431C14.5045 2.92036 14.8234 3.19017 15.0735 3.53358C15.3237 3.87697 15.5053 4.26943 15.618 4.70604C15.7309 5.14266 15.7702 5.6038 15.7358 6.08456H11.2716C11.301 6.61928 11.4384 7.02155 11.6935 7.26684ZM13.6166 4.00943C13.4105 3.78867 13.1014 3.67584 12.6893 3.67584C12.4195 3.67584 12.1939 3.71999 12.0124 3.8132C11.8309 3.90641 11.6886 4.01924 11.5807 4.1517C11.4727 4.28906 11.3991 4.43132 11.355 4.5834C11.3109 4.73548 11.2863 4.86793 11.2765 4.99058H14.0384C13.9599 4.55887 13.8177 4.2351 13.6166 4.00943Z" fill="#A1A1A3"/>
<path d="M18.1188 2.56133V3.70927H18.1433C18.2218 3.51795 18.3298 3.34134 18.4671 3.17455C18.6045 3.01266 18.7566 2.87039 18.9332 2.75755C19.1098 2.64473 19.2962 2.55152 19.4973 2.48774C19.6985 2.42397 19.9045 2.39453 20.1204 2.39453C20.2332 2.39453 20.3559 2.41416 20.4932 2.4534V4.03305C20.4147 4.01833 20.3166 4.00361 20.2038 3.9938C20.0909 3.98399 19.983 3.97418 19.88 3.97418C19.5709 3.97418 19.306 4.02815 19.0902 4.13117C18.8743 4.23418 18.7026 4.37645 18.5702 4.55796C18.4377 4.73948 18.3445 4.94552 18.2905 5.1859C18.2366 5.42628 18.2071 5.68628 18.2071 5.96592V8.7573H16.5098V2.56133H18.1188Z" fill="#A1A1A3"/>
<path d="M25.042 2.5614V3.69953H23.7959V6.76562C23.7959 7.05506 23.845 7.24636 23.9382 7.3396C24.0314 7.43283 24.2277 7.4819 24.5122 7.4819C24.6103 7.4819 24.6986 7.47694 24.7869 7.47206C24.8752 7.46221 24.9586 7.45245 25.0371 7.43772V8.75248C24.8948 8.77698 24.7329 8.7917 24.5564 8.80147C24.3797 8.81131 24.208 8.8162 24.0412 8.8162C23.7763 8.8162 23.5261 8.79659 23.2955 8.76225C23.0601 8.72791 22.8541 8.65924 22.6725 8.55135C22.491 8.44827 22.3537 8.30115 22.2458 8.10979C22.1427 7.9185 22.0888 7.6683 22.0888 7.35432V3.69953H21.0586V2.5614H22.0888V0.707031H23.7862V2.5614H25.042Z" fill="#A1A1A3"/>
<path d="M26.0273 1.60617V0.203125H27.7247V1.60617H26.0273ZM27.7296 2.56279V8.74891H26.0322V2.56279H27.7296Z" fill="#A1A1A3"/>
<path d="M28.4023 3.70092V2.56279H29.4178V2.08202C29.4178 1.53258 29.5896 1.08126 29.933 0.728038C30.2764 0.374826 30.7964 0.203125 31.4881 0.203125C31.6401 0.203125 31.7922 0.208031 31.9443 0.222748C32.0964 0.232559 32.2435 0.247277 32.3858 0.252182V1.52277C32.1896 1.49824 31.9836 1.48843 31.7677 1.48843C31.5371 1.48843 31.3703 1.5424 31.2722 1.65032C31.1741 1.75825 31.125 1.93976 31.125 2.19486V2.56769H32.2976V3.70582H31.125V8.75875H29.4228V3.70092H28.4023Z" fill="#A1A1A3"/>
<path d="M33.4453 1.60617V0.203125H35.1427V1.60617H33.4453ZM35.1427 2.56279V8.74891H33.4453V2.56279H35.1427Z" fill="#A1A1A3"/>
<path d="M37.8253 7.26684C38.0804 7.51215 38.4484 7.63965 38.9242 7.63965C39.2676 7.63965 39.562 7.55625 39.8122 7.38457C40.0575 7.21289 40.2096 7.03137 40.2684 6.84005H41.7647C41.5242 7.58082 41.1563 8.11554 40.6658 8.43441C40.1703 8.75328 39.5718 8.91519 38.8703 8.91519C38.3846 8.91519 37.9431 8.83668 37.5555 8.67972C37.163 8.52269 36.8344 8.30195 36.5596 8.01742C36.2898 7.73289 36.0789 7.38946 35.9318 6.98722C35.7846 6.58985 35.7109 6.14834 35.7109 5.67248C35.7109 5.21134 35.7895 4.77964 35.9366 4.38227C36.0887 3.9849 36.3046 3.63659 36.5842 3.34715C36.8638 3.05772 37.1974 2.82715 37.585 2.66035C37.9725 2.49355 38.3993 2.41016 38.8703 2.41016C39.3952 2.41016 39.8564 2.51318 40.2488 2.71431C40.6413 2.92036 40.9601 3.19017 41.2103 3.53358C41.4605 3.87697 41.642 4.26943 41.7548 4.70604C41.8677 5.14266 41.9069 5.6038 41.8775 6.08456H37.4132C37.428 6.61928 37.5703 7.02155 37.8253 7.26684ZM39.7435 4.00943C39.5424 3.78867 39.2284 3.67584 38.8163 3.67584C38.5465 3.67584 38.3208 3.71999 38.1393 3.8132C37.9578 3.90641 37.8155 4.01924 37.7076 4.1517C37.5997 4.28906 37.5261 4.43132 37.4819 4.5834C37.4378 4.73548 37.4132 4.86793 37.4035 4.99058H40.1654C40.0918 4.55887 39.9495 4.2351 39.7435 4.00943Z" fill="#A1A1A3"/>
<path d="M47.0286 7.9591C46.8274 8.2927 46.5675 8.53801 46.2436 8.68512C45.9199 8.83231 45.5568 8.90594 45.1497 8.90594C44.6885 8.90594 44.2814 8.81758 43.9282 8.63613C43.575 8.45461 43.2855 8.21418 43.0598 7.90516C42.8341 7.59606 42.6625 7.24286 42.5447 6.8455C42.427 6.44814 42.373 6.03115 42.373 5.59944C42.373 5.18245 42.4319 4.78509 42.5447 4.39753C42.6576 4.00998 42.8341 3.67149 43.0598 3.37224C43.2855 3.07789 43.575 2.83751 43.9134 2.6609C44.2569 2.47939 44.6542 2.39109 45.1105 2.39109C45.4784 2.39109 45.8267 2.46958 46.1553 2.62656C46.4889 2.78354 46.749 3.00921 46.9403 3.31337H46.9648V0.203125H48.6622V8.74891H47.0531V7.9591H47.0286ZM46.955 4.90283C46.9059 4.66735 46.8274 4.46131 46.7097 4.2798C46.592 4.09828 46.4448 3.95602 46.2584 3.84319C46.0768 3.73035 45.8414 3.67639 45.5667 3.67639C45.2919 3.67639 45.0516 3.73035 44.8603 3.84319C44.6689 3.95602 44.5168 4.10319 44.3991 4.2847C44.2863 4.46622 44.2029 4.67716 44.1489 4.91264C44.095 5.14812 44.0704 5.3934 44.0704 5.6485C44.0704 5.88888 44.0998 6.12926 44.1538 6.36474C44.2078 6.60512 44.301 6.81607 44.4237 7.00739C44.5463 7.19379 44.7032 7.34587 44.8897 7.4636C45.0761 7.58133 45.3018 7.63535 45.5667 7.63535C45.8463 7.63535 46.0768 7.58133 46.2682 7.46856C46.4546 7.35571 46.6067 7.20852 46.7195 7.0172C46.8324 6.83079 46.9108 6.61493 46.9599 6.37946C47.0089 6.13908 47.0335 5.89379 47.0335 5.63869C47.0335 5.38359 47.0041 5.1383 46.955 4.90283Z" fill="#A1A1A3"/>
<path d="M5.5561 74.4497C5.47271 73.8515 4.89874 73.3949 4.24137 73.3949C3.05418 73.3949 2.60776 74.4059 2.60776 75.46C2.60776 76.4611 3.05418 77.4713 4.24137 77.4713C5.05081 77.4713 5.50705 76.917 5.60516 76.1227H6.89047C6.75311 77.6236 5.71799 78.585 4.24137 78.585C2.37719 78.585 1.2832 77.1917 1.2832 75.46C1.2832 73.6745 2.37719 72.2812 4.24137 72.2812C5.56591 72.2812 6.67462 73.0565 6.83651 74.4497H5.5561Z" fill="#A1A1A3"/>
<path d="M9.65209 73.9688C11.0258 73.9688 11.9088 74.8764 11.9088 76.2696C11.9088 77.653 11.0258 78.5606 9.65209 78.5606C8.28833 78.5606 7.40039 77.648 7.40039 76.2696C7.40039 74.8764 8.28342 73.9688 9.65209 73.9688ZM9.65209 77.658C10.4713 77.658 10.7118 76.9564 10.7118 76.2696C10.7118 75.568 10.4665 74.8714 9.65209 74.8714C8.84268 74.8714 8.59737 75.573 8.59737 76.2696C8.59737 76.9613 8.84268 77.658 9.65209 77.658Z" fill="#A1A1A3"/>
<path d="M12.6504 74.0746H13.7885V74.8845H13.8082C14.024 74.3351 14.6176 73.957 15.2014 73.957C15.2848 73.957 15.3878 73.9719 15.4614 73.996V75.1096C15.3486 75.0855 15.1719 75.0707 15.0297 75.0707C14.1516 75.0707 13.8474 75.7036 13.8474 76.4689V78.4314H12.6504V74.0746Z" fill="#A1A1A3"/>
<path d="M15.9209 74.0863H17.059V74.6406H17.0737C17.3583 74.1797 17.8292 73.9688 18.3689 73.9688C19.7375 73.9688 20.3508 75.0725 20.3508 76.3086C20.3508 77.4718 19.713 78.5606 18.4376 78.5606C17.9175 78.5606 17.4172 78.3348 17.1326 77.9029H17.113V79.978H15.916V74.0863H15.9209ZM19.1587 76.2795C19.1587 75.5879 18.8791 74.8714 18.1137 74.8714C17.3288 74.8714 17.0786 75.573 17.0786 76.2795C17.0786 76.9861 17.3484 77.6629 18.1236 77.6629C18.9036 77.6579 19.1587 76.9861 19.1587 76.2795Z" fill="#A1A1A3"/>
<path d="M22.9812 73.9688C24.3548 73.9688 25.2428 74.8764 25.2428 76.2696C25.2428 77.653 24.3548 78.5606 22.9812 78.5606C21.6174 78.5606 20.7344 77.648 20.7344 76.2696C20.7344 74.8764 21.6174 73.9688 22.9812 73.9688ZM22.9812 77.658C23.8004 77.658 24.0457 76.9564 24.0457 76.2696C24.0457 75.568 23.8004 74.8714 22.9812 74.8714C22.1718 74.8714 21.9264 75.573 21.9264 76.2696C21.9264 76.9613 22.1718 77.658 22.9812 77.658Z" fill="#A1A1A3"/>
<path d="M25.9795 74.0746H27.1176V74.8845H27.1372C27.3531 74.3351 27.9467 73.957 28.5255 73.957C28.6089 73.957 28.712 73.9719 28.7856 73.996V75.1096C28.6777 75.0855 28.5011 75.0707 28.3539 75.0707C27.4758 75.0707 27.1716 75.7036 27.1716 76.4689V78.4314H25.9746V74.0746H25.9795Z" fill="#A1A1A3"/>
<path d="M29.1383 75.4257C29.207 74.3022 30.2078 73.9688 31.1889 73.9688C32.0573 73.9688 33.1022 74.1599 33.1022 75.2049V77.4718C33.1022 77.8689 33.1414 78.2611 33.2543 78.4431H32.0376C31.9984 78.3057 31.9591 78.1634 31.9542 78.0211C31.5765 78.4183 31.0221 78.5606 30.4874 78.5606C29.6633 78.5606 29.0059 78.1486 29.0059 77.2558C29.0059 76.2696 29.7467 76.0339 30.4874 75.9312C31.2233 75.8229 31.9052 75.8477 31.9052 75.3571C31.9052 74.8417 31.547 74.768 31.1301 74.768C30.6738 74.768 30.3795 74.9549 30.3353 75.4257H29.1383ZM31.9052 76.3086C31.6992 76.4856 31.2822 76.4955 30.9093 76.5641C30.5365 76.6378 30.2029 76.7652 30.2029 77.2063C30.2029 77.653 30.5463 77.7606 30.9387 77.7606C31.8709 77.7606 31.9101 77.0201 31.9101 76.7603V76.3086H31.9052Z" fill="#A1A1A3"/>
<path d="M35.5207 74.085H36.3988V74.885H35.5207V77.0436C35.5207 77.4506 35.6237 77.5483 36.026 77.5483C36.1536 77.5483 36.2713 77.5384 36.3988 77.5144V78.451C36.1977 78.4857 35.9327 78.4956 35.6973 78.4956C34.9664 78.4956 34.3237 78.3236 34.3237 77.4606V74.8899H33.5977V74.0899H34.3237V72.7852H35.5207V74.085Z" fill="#A1A1A3"/>
<path d="M38.4939 73.4159H37.2969V72.4297H38.4939V73.4159ZM37.2969 74.0877H38.4939V78.4438H37.2969V74.0877Z" fill="#A1A1A3"/>
<path d="M41.5496 73.9688C42.9232 73.9688 43.8111 74.8764 43.8111 76.2696C43.8111 77.653 42.9232 78.5606 41.5496 78.5606C40.1858 78.5606 39.3028 77.648 39.3028 76.2696C39.2979 74.8764 40.1858 73.9688 41.5496 73.9688ZM41.5496 77.658C42.3689 77.658 42.6142 76.9564 42.6142 76.2696C42.6142 75.568 42.3689 74.8714 41.5496 74.8714C40.7401 74.8714 40.4949 75.573 40.4949 76.2696C40.4949 76.9613 40.7401 77.658 41.5496 77.658Z" fill="#A1A1A3"/>
<path d="M44.582 74.0863H45.7202V74.6951H45.7447C46.0489 74.2045 46.5689 73.9688 47.0791 73.9688C48.3497 73.9688 48.6734 74.6852 48.6734 75.7641V78.4431H47.4765V75.9801C47.4765 75.2636 47.2655 74.9103 46.7112 74.9103C46.0587 74.9103 45.7839 75.2735 45.7839 76.1613V78.4473H44.587V74.0863H44.582Z" fill="#A1A1A3"/>
</g>
<defs>
<clipPath id="clip0_47_82896">
<rect width="47.4336" height="80" fill="white" transform="translate(1.2832)"/>
</clipPath>
</defs>
</svg>
