<svg width="17" height="17" viewBox="0 0 17 17" fill="none" xmlns="http://www.w3.org/2000/svg">
<path fill-rule="evenodd" clip-rule="evenodd" d="M8.5 12.4651C5.44323 12.4651 2.86679 10.9032 1.24238 8.49845C2.86679 6.09369 5.44323 4.53177 8.5 4.53177C11.5567 4.53177 14.1332 6.09369 15.7576 8.49845C14.1332 10.9032 11.5567 12.4651 8.5 12.4651ZM8.5 3.39844C4.88224 3.39844 1.87724 5.33233 0.0861336 8.19812C-0.0287116 8.38187 -0.0287112 8.61503 0.0861349 8.79878C1.87724 11.6645 4.88224 13.5984 8.5 13.5984C12.1177 13.5984 15.1227 11.6645 16.9139 8.79878C17.0287 8.61503 17.0287 8.38187 16.9139 8.19812C15.1227 5.33233 12.1177 3.39844 8.5 3.39844ZM8.5 10.7651C9.75185 10.7651 10.7667 9.75028 10.7667 8.49844C10.7667 7.24659 9.75185 6.23177 8.5 6.23177C7.24815 6.23177 6.23333 7.24659 6.23333 8.49844C6.23333 9.75028 7.24815 10.7651 8.5 10.7651Z" fill="#868E96"/>
</svg>
