<svg width="68" height="24" viewBox="0 0 68 24" fill="none" xmlns="http://www.w3.org/2000/svg">
<path d="M61.2069 6.29599L51.4008 1.40428C44.8139 -1.88734 42.1104 0.809955 45.4096 7.38177L46.4062 9.37045C46.6926 9.95334 46.6926 10.6277 46.4062 11.2106L45.4096 13.1879C42.1104 19.7597 44.8024 22.457 51.4008 19.1653L61.2069 14.2736C65.6058 12.0792 65.6058 8.4904 61.2069 6.29599ZM57.5067 11.142H51.3207C50.851 11.142 50.4615 10.7534 50.4615 10.2848C50.4615 9.81619 50.851 9.4276 51.3207 9.4276H57.5067C57.9764 9.4276 58.3659 9.81619 58.3659 10.2848C58.3659 10.7534 57.9764 11.142 57.5067 11.142Z" fill="#15161E"/>
<path d="M9.95737 24.0004H16.085V22.4685H9.95737V24.0004ZM16.085 24.0004C18.7138 24.0004 20.7532 23.4794 22.116 22.1165C23.4789 20.7537 23.9999 18.7143 23.9999 16.0855H22.468C22.468 18.5631 21.9678 20.0982 21.0328 21.0333C20.0977 21.9683 18.5627 22.4685 16.085 22.4685V24.0004ZM23.9999 16.0855V9.95786H22.468V16.0855H23.9999ZM23.9999 9.95786C23.9999 7.32913 23.4789 5.28975 22.116 3.92689C20.7532 2.56403 18.7138 2.04297 16.085 2.04297V3.57488C18.5627 3.57488 20.0977 4.0751 21.0328 5.01011C21.9678 5.94512 22.468 7.48021 22.468 9.95786H23.9999ZM16.085 2.04297H9.95737V3.57488H16.085V2.04297ZM9.95737 2.04297C7.32864 2.04297 5.28926 2.56403 3.9264 3.92689C2.56354 5.28975 2.04248 7.32913 2.04248 9.95786H3.5744C3.5744 7.48021 4.07462 5.94512 5.00963 5.01011C5.94464 4.0751 7.47973 3.57488 9.95737 3.57488V2.04297ZM2.04248 9.95786V16.0855H3.5744V9.95786H2.04248ZM2.04248 16.0855C2.04248 18.7143 2.56354 20.7537 3.9264 22.1165C5.28926 23.4794 7.32864 24.0004 9.95737 24.0004V22.4685C7.47973 22.4685 5.94464 21.9683 5.00963 21.0333C4.07462 20.0982 3.5744 18.5631 3.5744 16.0855H2.04248Z" fill="#93989A"/>
<path d="M17.3617 9.19143C17.3617 9.61445 17.0187 9.95738 16.5957 9.95738V11.4893C17.8648 11.4893 18.8936 10.4605 18.8936 9.19143H17.3617ZM16.5957 9.95738C16.1727 9.95738 15.8298 9.61445 15.8298 9.19143H14.2979C14.2979 10.4605 15.3266 11.4893 16.5957 11.4893V9.95738ZM15.8298 9.19143C15.8298 8.7684 16.1727 8.42547 16.5957 8.42547V6.89355C15.3266 6.89355 14.2979 7.92235 14.2979 9.19143H15.8298ZM16.5957 8.42547C17.0187 8.42547 17.3617 8.7684 17.3617 9.19143H18.8936C18.8936 7.92235 17.8648 6.89355 16.5957 6.89355V8.42547Z" fill="#93989A"/>
<path d="M10.2128 9.19143C10.2128 9.61445 9.86982 9.95738 9.4468 9.95738V11.4893C10.7159 11.4893 11.7447 10.4605 11.7447 9.19143H10.2128ZM9.4468 9.95738C9.02378 9.95738 8.68084 9.61445 8.68084 9.19143H7.14893C7.14893 10.4605 8.17772 11.4893 9.4468 11.4893V9.95738ZM8.68084 9.19143C8.68084 8.7684 9.02378 8.42547 9.4468 8.42547V6.89355C8.17772 6.89355 7.14893 7.92235 7.14893 9.19143H8.68084ZM9.4468 8.42547C9.86982 8.42547 10.2128 8.7684 10.2128 9.19143H11.7447C11.7447 7.92235 10.7159 6.89355 9.4468 6.89355V8.42547Z" fill="#93989A"/>
<path d="M9.34477 15.1149H16.698V13.583H9.34477V15.1149ZM16.698 15.1149C16.7856 15.1149 16.8512 15.1805 16.8512 15.2681H18.3831C18.3831 14.3344 17.6316 13.583 16.698 13.583V15.1149ZM16.8512 15.2681C16.8512 17.3881 15.1413 19.0979 13.0214 19.0979V20.6298C15.9874 20.6298 18.3831 18.2341 18.3831 15.2681H16.8512ZM13.0214 19.0979C10.9014 19.0979 9.19158 17.3881 9.19158 15.2681H7.65967C7.65967 18.2341 10.0554 20.6298 13.0214 20.6298V19.0979ZM9.19158 15.2681C9.19158 15.1805 9.25716 15.1149 9.34477 15.1149V13.583C8.41111 13.583 7.65967 14.3344 7.65967 15.2681H9.19158Z" fill="#93989A"/>
</svg>
