<svg width="16" height="16" viewBox="0 0 16 16" fill="none" xmlns="http://www.w3.org/2000/svg">
<path fill-rule="evenodd" clip-rule="evenodd" d="M12.7808 6.21934C12.9213 6.35997 13.0002 6.55059 13.0002 6.74934C13.0002 6.94809 12.9213 7.13871 12.7808 7.27934L8.53082 11.5293C8.3902 11.6698 8.19957 11.7487 8.00082 11.7487C7.80207 11.7487 7.61145 11.6698 7.47082 11.5293L3.22082 7.27934C3.08834 7.13717 3.01622 6.94912 3.01965 6.75482C3.02308 6.56052 3.10179 6.37513 3.2392 6.23772C3.37661 6.10031 3.562 6.02159 3.7563 6.01817C3.9506 6.01474 4.13865 6.08686 4.28082 6.21934L8.00082 9.93934L11.7208 6.21934C11.8614 6.07889 12.0521 6 12.2508 6C12.4496 6 12.6402 6.07889 12.7808 6.21934Z" fill="white"/>
</svg>
