<svg width="24" height="24" viewBox="0 0 24 24" fill="none" xmlns="http://www.w3.org/2000/svg">
<path fill-rule="evenodd" clip-rule="evenodd" d="M17.1652 4.75367C15.6234 4.25919 13.7985 4.65831 12.8861 6.04211C12.7054 6.3162 12.4017 6.48413 12.0735 6.49142C11.7452 6.49871 11.4343 6.34443 11.2416 6.07863C10.2356 4.69102 8.42962 4.26889 6.92836 4.75335C4.11595 5.65856 2.90609 9.11938 3.8745 12.1433C4.65316 14.5663 6.36017 16.4256 8.10957 17.6909C8.98042 18.3208 9.84306 18.7894 10.5705 19.0973C11.3308 19.4191 11.8477 19.5247 12.0513 19.5247C12.252 19.5247 12.7703 19.4172 13.5368 19.0899C14.2691 18.7771 15.1373 18.3025 16.0119 17.6683C17.7705 16.3932 19.4728 14.535 20.2233 12.1487L20.2248 12.1439C21.192 9.12162 19.978 5.65954 17.1652 4.75367ZM12.0257 3.98485C13.6303 2.50041 15.9593 2.26628 17.7768 2.84949C21.9948 4.20752 23.3059 9.07375 22.1304 12.7511C21.2106 15.6736 19.1649 17.8525 17.1859 19.2875C16.1914 20.0086 15.193 20.5573 14.3223 20.9292C13.4859 21.2864 12.665 21.5247 12.0513 21.5247C11.4408 21.5247 10.6253 21.2922 9.791 20.9392C8.92382 20.5721 7.92958 20.0291 6.93744 19.3114C4.96097 17.8819 2.91761 15.7033 1.97019 12.7546C0.792807 9.07868 2.09331 4.20876 6.31455 2.84986M12.0257 3.98485C10.4135 2.56501 8.16517 2.25294 6.31455 2.84986L12.0257 3.98485Z" fill="#787878"/>
<path fill-rule="evenodd" clip-rule="evenodd" d="M14.7943 7.46422C14.8508 6.91483 15.3419 6.51521 15.8913 6.57165C16.7468 6.65954 17.4899 7.0538 18.0015 7.70077C18.5066 8.33959 18.7346 9.15741 18.7055 10.022C18.687 10.5739 18.2245 11.0064 17.6726 10.9879C17.1206 10.9693 16.6881 10.5069 16.7067 9.95488C16.7227 9.47843 16.5956 9.14725 16.4327 8.94131C16.2763 8.74354 16.0384 8.59729 15.6869 8.56118C15.1375 8.50474 14.7379 8.01362 14.7943 7.46422Z" fill="#787878"/>
</svg>
