<svg width="22" height="21" viewBox="0 0 22 21" fill="none" xmlns="http://www.w3.org/2000/svg">
<path d="M12.3809 19.5238C12.857 19.0476 12.8094 18.3333 12.3809 17.8571L6.61895 12.381H20.3332C20.9523 12.381 21.4761 11.9048 21.4761 11.2381V9.71429C21.4761 9.09524 20.9523 8.57143 20.3332 8.57143H6.61895L12.3809 3.14286C12.8094 2.66667 12.857 1.95238 12.3809 1.47619L11.3332 0.428571C10.9047 0 10.1428 0 9.71419 0.428571L0.476092 9.71429C-9.88188e-05 10.1429 -9.88188e-05 10.8571 0.476092 11.2857L9.71419 20.5714C10.1428 21 10.857 21 11.3332 20.5714L12.3809 19.5238Z" fill="white"/>
</svg>
