<svg width="42" height="28" viewBox="0 0 42 28" fill="none" xmlns="http://www.w3.org/2000/svg">
<path d="M37 7.5C37 7.23478 36.8946 6.98043 36.7071 6.79289C36.5196 6.60536 36.2652 6.5 36 6.5C35.7348 6.5 35.4804 6.60536 35.2929 6.79289C35.1054 6.98043 35 7.23478 35 7.5H37ZM35 10C35 10.2652 35.1054 10.5196 35.2929 10.7071C35.4804 10.8946 35.7348 11 36 11C36.2652 11 36.5196 10.8946 36.7071 10.7071C36.8946 10.5196 37 10.2652 37 10H35ZM35 7.5V10H37V7.5H35ZM40 21C40 22.3261 39.4732 23.5979 38.5355 24.5355C37.5979 25.4732 36.3261 26 35 26V28C36.8565 28 38.637 27.2625 39.9497 25.9497C41.2625 24.637 42 22.8565 42 21H40ZM35 26C33.6739 26 32.4021 25.4732 31.4645 24.5355C30.5268 23.5979 30 22.3261 30 21H28C28 22.8565 28.7375 24.637 30.0503 25.9497C31.363 27.2625 33.1435 28 35 28V26ZM30 21C30 19.6739 30.5268 18.4021 31.4645 17.4645C32.4021 16.5268 33.6739 16 35 16V14C33.1435 14 31.363 14.7375 30.0503 16.0503C28.7375 17.363 28 19.1435 28 21H30ZM35 16C36.3261 16 37.5979 16.5268 38.5355 17.4645C39.4732 18.4021 40 19.6739 40 21H42C42 19.1435 41.2625 17.363 39.9497 16.0503C38.637 14.7375 36.8565 14 35 14V16ZM12 21C12 21.6566 11.8707 22.3068 11.6194 22.9134C11.3681 23.52 10.9998 24.0712 10.5355 24.5355C10.0712 24.9998 9.52004 25.3681 8.91342 25.6194C8.30679 25.8707 7.65661 26 7 26V28C8.85652 28 10.637 27.2625 11.9497 25.9497C13.2625 24.637 14 22.8565 14 21H12ZM7 26C5.67392 26 4.40215 25.4732 3.46447 24.5355C2.52678 23.5979 2 22.3261 2 21H0C0 22.8565 0.737498 24.637 2.05025 25.9497C3.36301 27.2625 5.14348 28 7 28V26ZM2 21C2 19.6739 2.52678 18.4021 3.46447 17.4645C4.40215 16.5268 5.67392 16 7 16V14C5.14348 14 3.36301 14.7375 2.05025 16.0503C0.737498 17.363 0 19.1435 0 21H2ZM7 16C7.65661 16 8.30679 16.1293 8.91342 16.3806C9.52004 16.6319 10.0712 17.0002 10.5355 17.4645C10.9998 17.9288 11.3681 18.48 11.6194 19.0866C11.8707 19.6932 12 20.3434 12 21H14C14 19.1435 13.2625 17.363 11.9497 16.0503C10.637 14.7375 8.85652 14 7 14V16ZM13 10C12.7348 10 12.4804 10.1054 12.2929 10.2929C12.1054 10.4804 12 10.7348 12 11C12 11.2652 12.1054 11.5196 12.2929 11.7071C12.4804 11.8946 12.7348 12 13 12V10ZM33 8C33.2652 8 33.5196 7.89464 33.7071 7.70711C33.8946 7.51957 34 7.26522 34 7C34 6.73478 33.8946 6.48043 33.7071 6.29289C33.5196 6.10536 33.2652 6 33 6V8ZM20 11V12C20.1857 11.9999 20.3676 11.9481 20.5255 11.8504C20.6834 11.7528 20.811 11.6131 20.894 11.447L20 11ZM13 12H20V10H13V12ZM20.894 11.447L22.342 8.553L20.552 7.658L19.106 10.553L20.894 11.447ZM23.236 8H33V6H23.236V8ZM22.342 8.553C22.425 8.38692 22.5526 8.24722 22.7105 8.14955C22.8684 8.05188 23.0503 8.0001 23.236 8V6C22.6789 6.00002 22.1329 6.15513 21.659 6.44797C21.1852 6.7408 20.8012 7.15979 20.552 7.658L22.342 8.553Z" fill="#06BEFB"/>
<path d="M5 7C4.73478 7 4.48043 7.10536 4.29289 7.29289C4.10536 7.48043 4 7.73478 4 8C4 8.26522 4.10536 8.51957 4.29289 8.70711C4.48043 8.89464 4.73478 9 5 9V7ZM10.5 8L11.268 7.36C11.1742 7.24738 11.0568 7.15675 10.9241 7.09454C10.7913 7.03233 10.6466 7.00005 10.5 7V8ZM13 11L13.78 10.375L13.768 10.36L13 11ZM17 16H18C17.9998 15.7727 17.9222 15.5523 17.78 15.375L17 16ZM17 21H16C16 21.2652 16.1054 21.5196 16.2929 21.7071C16.4804 21.8946 16.7348 22 17 22V21ZM23 21V22C23.1857 21.9999 23.3676 21.9481 23.5255 21.8504C23.6834 21.7528 23.811 21.6131 23.894 21.447L23 21ZM27 13L26.615 12.077C26.3934 12.1693 26.2123 12.3383 26.105 12.553L27 13ZM33 10.5L33.385 11.423C33.5672 11.347 33.7227 11.2188 33.8322 11.0546C33.9416 10.8903 34 10.6974 34 10.5H33ZM34 7C34 6.73478 33.8946 6.48043 33.7071 6.29289C33.5196 6.10536 33.2652 6 33 6C32.7348 6 32.4804 6.10536 32.2929 6.29289C32.1054 6.48043 32 6.73478 32 7H34ZM5 9H10.5V7H5V9ZM16 16V21H18V16H16ZM17 22H23V20H17V22ZM23.894 21.447L27.894 13.447L26.106 12.553L22.106 20.553L23.894 21.447ZM9.732 8.64L12.232 11.64L13.768 10.36L11.268 7.36L9.732 8.64ZM12.219 11.625L16.219 16.625L17.78 15.375L13.781 10.375L12.219 11.625ZM34 10.5V7H32V10.5H34ZM27.385 13.923L33.385 11.423L32.615 9.577L26.615 12.077L27.385 13.923Z" fill="#06BEFB"/>
<path d="M17.4061 16.9141C17.5261 16.8608 17.6345 16.7843 17.725 16.6891C17.8155 16.5939 17.8863 16.4819 17.9335 16.3593C17.9807 16.2367 18.0032 16.1061 17.9999 15.9748C17.9966 15.8435 17.9674 15.7141 17.9141 15.5941C17.8608 15.4741 17.7844 15.3657 17.6892 15.2752C17.594 15.1847 17.4819 15.1139 17.3593 15.0667C17.2368 15.0195 17.1061 14.997 16.9748 15.0003C16.8435 15.0036 16.7141 15.0328 16.5941 15.0861L17.4061 16.9141ZM12.0941 17.0861C11.8517 17.1938 11.662 17.3933 11.5667 17.6409C11.4715 17.8884 11.4784 18.1637 11.5861 18.4061C11.6938 18.6485 11.8934 18.8382 12.1409 18.9335C12.3885 19.0287 12.6637 19.0218 12.9061 18.9141L12.0941 17.0861ZM12.9061 18.9141L17.4061 16.9141L16.5941 15.0861L12.0941 17.0861L12.9061 18.9141ZM32.4191 7.81408C32.526 7.89038 32.6469 7.94488 32.7748 7.97446C32.9028 8.00404 33.0353 8.00813 33.1649 7.9865C33.2944 7.96486 33.4184 7.91792 33.5298 7.84836C33.6412 7.7788 33.7378 7.68798 33.8141 7.58108C33.8904 7.47419 33.9449 7.35331 33.9745 7.22535C34.0041 7.0974 34.0082 6.96486 33.9865 6.83533C33.9649 6.70579 33.918 6.58178 33.8484 6.47038C33.7788 6.35899 33.688 6.26238 33.5811 6.18608L32.4191 7.81408ZM26.5801 1.18608C26.3642 1.03199 26.096 0.969973 25.8344 1.01367C25.5727 1.05736 25.3392 1.2032 25.1851 1.41908C25.031 1.63497 24.969 1.90323 25.0127 2.16484C25.0564 2.42645 25.2022 2.65999 25.4181 2.81408L26.5801 1.18608ZM33.5811 6.18608L26.5801 1.18608L25.4181 2.81408L32.4191 7.81408L33.5811 6.18608ZM31.1321 15.9961C31.1955 16.1134 31.2817 16.2168 31.3856 16.3003C31.4896 16.3838 31.6091 16.4456 31.7373 16.4822C31.8655 16.5188 31.9998 16.5294 32.1321 16.5134C32.2644 16.4973 32.3922 16.455 32.508 16.3889C32.6237 16.3227 32.7251 16.2341 32.8061 16.1282C32.8871 16.0223 32.9461 15.9013 32.9797 15.7723C33.0132 15.6433 33.0206 15.5089 33.0015 15.3769C32.9823 15.245 32.937 15.1182 32.8681 15.0041L31.1321 15.9961ZM30.8681 11.5041C30.8047 11.3868 30.7185 11.2834 30.6146 11.1999C30.5107 11.1164 30.3911 11.0546 30.2629 11.018C30.1347 10.9814 30.0005 10.9708 29.8681 10.9868C29.7358 11.0028 29.608 11.0452 29.4922 11.1113C29.3765 11.1774 29.2751 11.2661 29.1941 11.3719C29.1131 11.4778 29.0541 11.5988 29.0206 11.7279C28.987 11.8569 28.9796 11.9913 28.9988 12.1232C29.0179 12.2552 29.0633 12.3819 29.1321 12.4961L30.8681 11.5041ZM32.8681 15.0041L30.8681 11.5041L29.1321 12.4961L31.1321 15.9961L32.8681 15.0041Z" fill="#06BEFB"/>
</svg>
