<svg width="16" height="18" viewBox="0 0 16 18" fill="none" xmlns="http://www.w3.org/2000/svg">
<path d="M9.9976 8.50153H5.81095C5.46764 8.50153 5.18295 8.21683 5.18295 7.87353C5.18295 7.53022 5.46764 7.24553 5.81095 7.24553H9.9976C10.3409 7.24553 10.6256 7.53022 10.6256 7.87353C10.6256 8.21683 10.3409 8.50153 9.9976 8.50153Z" fill="#C0BDBD"/>
<path d="M1.98447 18.0026C1.6328 18.0026 1.30624 17.9189 1.01317 17.7514C0.368426 17.3746 0 16.6126 0 15.6665V3.8601C0 1.73328 1.73328 0 3.8601 0H11.9403C14.0672 0 15.8004 1.73328 15.8004 3.8601V15.6581C15.8004 16.6043 15.432 17.3662 14.7873 17.743C14.1425 18.1198 13.2968 18.078 12.4679 17.6174L8.38168 15.3483C8.13886 15.2143 7.66158 15.2143 7.41875 15.3483L3.33258 17.6174C2.88042 17.8686 2.41989 18.0026 1.98447 18.0026ZM3.86847 1.256C2.43663 1.256 1.26437 2.42826 1.26437 3.8601V15.6581C1.26437 16.1521 1.40672 16.5205 1.65792 16.6629C1.90911 16.8136 2.30266 16.7634 2.7297 16.5205L6.81587 14.2514C7.4355 13.9081 8.37331 13.9081 8.99293 14.2514L13.0791 16.5205C13.5061 16.7634 13.8997 16.8136 14.1509 16.6629C14.4021 16.5122 14.5444 16.1437 14.5444 15.6581V3.8601C14.5444 2.42826 13.3722 1.256 11.9403 1.256H3.86847Z" fill="#C0BDBD"/>
</svg>
