<svg width="245" height="100" viewBox="0 0 245 100" fill="none" xmlns="http://www.w3.org/2000/svg">
<g clip-path="url(#clip0_47_70087)">
<g clip-path="url(#clip1_47_70087)">
<path fill-rule="evenodd" clip-rule="evenodd" d="M91.753 54.7565C102.907 43.6035 102.907 25.5195 91.753 14.3655C80.599 3.2115 62.516 3.2115 51.363 14.3655C41.895 23.8325 40.468 38.2915 47.073 49.2695L45.47 60.6495L56.85 59.0455C67.827 65.6515 82.285 64.2255 91.753 54.7565Z" fill="#CEEAD6"/>
<path fill-rule="evenodd" clip-rule="evenodd" d="M33.8472 99.3286C28.1272 97.4886 24.0902 94.2846 20.4972 90.5066C9.2882 78.7156 2.4702 64.7716 0.317202 48.6196C-0.342798 43.6726 -0.0267981 38.7926 1.8252 34.0556C2.9512 31.1756 4.7182 28.9596 7.4622 27.5496C9.3052 26.6016 11.1422 25.6376 13.0292 24.7856C15.5722 23.6406 18.3452 24.3096 19.6842 26.7496C22.1386 31.2176 24.4285 35.7739 26.5492 40.4096C27.8222 43.1986 26.7712 45.5626 24.0492 47.0056C21.8697 48.1675 19.6617 49.2752 17.4272 50.3276C15.9472 51.0186 15.4722 51.9416 15.9772 53.5626C18.5652 61.8526 22.4342 69.4846 27.4762 76.5456C28.5322 78.0236 29.6292 78.1396 31.1392 77.3156C33.2362 76.1706 35.3872 75.1196 37.5452 74.0926C40.3382 72.7646 42.9072 73.2946 44.3612 75.9286C46.8212 80.3886 49.0982 84.9596 51.2262 89.5896C52.4082 92.1586 51.3522 94.7896 48.9222 96.1336C46.8322 97.2906 44.7072 98.4096 42.5092 99.3386C39.4172 100.643 36.2822 100.395 33.8472 99.3286Z" fill="#36A854"/>
</g>
</g>
<defs>
<clipPath id="clip0_47_70087">
<rect width="245" height="100" fill="white"/>
</clipPath>
<clipPath id="clip1_47_70087">
<rect width="100" height="100" fill="white"/>
</clipPath>
</defs>
</svg>
