<svg width="22" height="22" viewBox="0 0 22 22" fill="none" xmlns="http://www.w3.org/2000/svg">
<g clip-path="url(#clip0_47_80399)">
<path fill-rule="evenodd" clip-rule="evenodd" d="M11.0003 0.257812C5.2133 0.257812 0.478516 4.99259 0.478516 10.7795C0.478516 16.5665 5.2133 21.3013 11.0003 21.3013C16.7872 21.3013 21.522 16.5665 21.522 10.7795C21.522 4.99259 16.7872 0.257812 11.0003 0.257812ZM12.0524 14.3964C11.1976 14.3964 10.4085 13.936 10.1453 13.4758C10.1453 13.4758 9.68504 15.1855 9.61928 15.5801C9.29047 16.7638 8.30406 17.9475 8.2383 18.079C8.17254 18.1447 8.04102 18.1447 8.04102 18.0132C8.04102 17.8817 7.77797 16.3692 8.04102 15.1197L9.02743 10.9769C9.02743 10.9769 8.76439 10.5165 8.76439 9.79316C8.76439 8.6752 9.42199 7.82031 10.2768 7.82031C11.0003 7.82031 11.3291 8.3464 11.3291 8.93825C11.3291 9.66164 10.8687 10.648 10.6714 11.6345C10.4742 12.4236 11.0661 13.0812 11.9209 13.0812C13.3676 13.0812 14.4198 11.2399 14.4198 9.06977C14.4198 7.42575 13.2361 6.17629 11.1976 6.17629C8.83015 6.17629 7.38341 7.88607 7.38341 9.79316C7.38341 10.4508 7.58069 10.911 7.90949 11.3056C8.04102 11.5029 8.04102 11.5687 8.04102 11.7002L7.71221 12.2921C7.64645 12.4893 7.51493 12.5551 7.31765 12.4893C6.26547 12.029 5.73939 10.911 5.73939 9.59583C5.73939 7.42575 7.58069 4.86107 11.3291 4.86107C14.2883 4.86107 16.2611 6.96542 16.2611 9.20129C16.2611 12.1605 14.5513 14.3964 12.0524 14.3964Z" fill="#7C7C7D"/>
</g>
<defs>
<clipPath id="clip0_47_80399">
<rect width="21.0435" height="22" fill="white" transform="translate(0.478516)"/>
</clipPath>
</defs>
</svg>
