<svg width="16" height="16" viewBox="0 0 16 16" fill="none" xmlns="http://www.w3.org/2000/svg">
<path d="M1.20736 6.82133C1.17602 6.82133 1.16869 6.80599 1.18402 6.78199L1.34802 6.57199C1.36336 6.54866 1.40202 6.53333 1.43336 6.53333H4.21469C4.24536 6.53333 4.25336 6.55666 4.23802 6.57999L4.10536 6.78199C4.09002 6.80599 4.05069 6.82866 4.02736 6.82866L1.20736 6.82133ZM0.0313582 7.53799C2.48651e-05 7.53799 -0.00797514 7.52266 0.00802486 7.49933L0.171358 7.28866C0.186692 7.26533 0.226025 7.24999 0.257358 7.24999H3.80936C3.84069 7.24999 3.85602 7.27333 3.84802 7.29666L3.78602 7.48333C3.77802 7.51466 3.74736 7.52999 3.71602 7.52999L0.0313582 7.53799ZM1.91669 8.25466C1.88536 8.25466 1.87736 8.23133 1.89336 8.20799L2.00202 8.01333C2.01736 7.98999 2.04869 7.96666 2.08002 7.96666H3.63802C3.66936 7.96666 3.68469 7.98999 3.68469 8.02133L3.66936 8.20799C3.66936 8.23933 3.63802 8.26266 3.61469 8.26266L1.91669 8.25466ZM10.0027 6.68133C9.51202 6.80599 9.17669 6.89933 8.69403 7.02399C8.57669 7.05466 8.56936 7.06266 8.46736 6.94599C8.35136 6.81333 8.26536 6.72799 8.10203 6.64999C7.61069 6.40866 7.13536 6.47866 6.69203 6.76666C6.16202 7.10933 5.88936 7.61599 5.89736 8.24666C5.90469 8.86999 6.33336 9.38399 6.94869 9.46999C7.47869 9.53999 7.92202 9.35333 8.27336 8.95666C8.34336 8.86999 8.40536 8.77666 8.48336 8.66733H6.98003C6.81669 8.66733 6.77736 8.56599 6.83203 8.43399C6.93336 8.19266 7.12002 7.78733 7.22936 7.58466C7.24605 7.54712 7.27339 7.51529 7.30799 7.49313C7.3426 7.47097 7.38294 7.45945 7.42402 7.45999H10.2594C10.244 7.67066 10.244 7.88066 10.2127 8.09133C10.132 8.64594 9.91229 9.17113 9.57403 9.61799C9.01336 10.358 8.28069 10.818 7.35402 10.942C6.59069 11.0433 5.88136 10.8953 5.25869 10.4287C4.68202 9.99199 4.35469 9.41533 4.26936 8.69866C4.16803 7.84933 4.41736 7.08599 4.93136 6.41599C5.48469 5.69199 6.21669 5.23199 7.11269 5.06933C7.84469 4.93599 8.54603 5.02266 9.17669 5.44999C9.59002 5.72333 9.88536 6.09666 10.0807 6.54866C10.1274 6.61866 10.096 6.65799 10.0027 6.68199M12.5814 10.9893C11.872 10.9733 11.2254 10.7707 10.68 10.3033C10.2264 9.92098 9.92731 9.38663 9.83869 8.79999C9.69869 7.91999 9.94003 7.14066 10.47 6.44733C11.0387 5.69933 11.724 5.30999 12.6514 5.14733C13.446 5.00733 14.194 5.08399 14.8714 5.54399C15.4867 5.96399 15.8687 6.53333 15.97 7.28066C16.102 8.33266 15.7987 9.18933 15.074 9.92199C14.56 10.444 13.9287 10.7707 13.204 10.9187C12.994 10.9587 12.784 10.9653 12.5814 10.9893ZM14.4347 7.84266C14.4274 7.74066 14.4274 7.66266 14.412 7.58466C14.272 6.81333 13.5627 6.37799 12.8227 6.54866C12.098 6.71199 11.6307 7.17199 11.4594 7.90399C11.3194 8.51199 11.6154 9.12733 12.176 9.37733C12.6047 9.56399 13.0327 9.53999 13.446 9.33066C14.0614 9.01066 14.396 8.51199 14.4354 7.84199L14.4347 7.84266Z" fill="#8B949E"/>
</svg>
