<svg width="18" height="20" viewBox="0 0 18 20" fill="none" xmlns="http://www.w3.org/2000/svg">
<path d="M16.7891 12.0382L15.6565 10.1538C15.4059 9.74284 15.1854 8.95098 15.1854 8.46985V6.59546C15.1854 2.95693 12.2284 0 8.59993 0C4.9614 0.0100235 2.00447 2.95693 2.00447 6.59546V8.45983C2.00447 8.94095 1.78395 9.73281 1.54339 10.1438L0.410736 12.0282C-0.0202745 12.7599 -0.120509 13.5919 0.150125 14.3135C0.420759 15.0453 1.03219 15.6266 1.83407 15.8872C2.91661 16.2481 4.00917 16.5087 5.12178 16.6991C5.23204 16.7192 5.34229 16.7292 5.45255 16.7493C5.59288 16.7693 5.74323 16.7894 5.89359 16.8094C6.1542 16.8495 6.41481 16.8796 6.68544 16.8996C7.31692 16.9597 7.95843 16.9898 8.59993 16.9898C9.23141 16.9898 9.86289 16.9597 10.4843 16.8996C10.7149 16.8796 10.9454 16.8595 11.1659 16.8294C11.3464 16.8094 11.5268 16.7894 11.7072 16.7593C11.8175 16.7493 11.9277 16.7292 12.038 16.7092C13.1606 16.5287 14.2732 16.2481 15.3558 15.8872C16.1276 15.6266 16.719 15.0453 16.9996 14.3035C17.2803 13.5518 17.2001 12.7298 16.7891 12.0382ZM9.33164 7.96868C9.33164 8.38966 8.99085 8.73046 8.56986 8.73046C8.14887 8.73046 7.80807 8.38966 7.80807 7.96868V4.86139C7.80807 4.44041 8.14887 4.09961 8.56986 4.09961C8.99085 4.09961 9.33164 4.44041 9.33164 4.86139V7.96868Z" fill="#E0DED8"/>
<path d="M11.417 18.0053C10.996 19.1681 9.8834 20 8.58034 20C7.78849 20 7.00666 19.6792 6.45536 19.1079C6.13461 18.8072 5.89405 18.4063 5.75372 17.9953C5.88403 18.0153 6.01433 18.0254 6.15466 18.0454C6.3852 18.0755 6.62576 18.1056 6.86633 18.1256C7.43767 18.1757 8.01903 18.2058 8.60039 18.2058C9.17173 18.2058 9.74307 18.1757 10.3044 18.1256C10.5149 18.1056 10.7254 18.0955 10.9258 18.0655C11.0862 18.0454 11.2466 18.0254 11.417 18.0053Z" fill="#E0DED8"/>
</svg>
