<svg width="480" height="68" viewBox="0 0 480 68" fill="none" xmlns="http://www.w3.org/2000/svg">
<g clip-path="url(#clip0_6_7741)">
<path d="M211.362 16.0006H90.6445C90.2045 16.0006 89.7697 16.0006 89.3309 16.003C88.9635 16.0054 88.599 16.0124 88.2281 16.0183C87.4224 16.0278 86.6185 16.0987 85.8235 16.2303C85.0296 16.3649 84.2606 16.6185 83.5425 16.9827C82.8253 17.35 82.1699 17.8272 81.6002 18.3971C81.0275 18.9653 80.5501 19.6222 80.1863 20.3423C79.8216 21.0611 79.5687 21.8313 79.4363 22.6263C79.3027 23.4203 79.2308 24.2235 79.2213 25.0286C79.2102 25.3966 79.209 25.7657 79.2031 26.1336V53.8702C79.209 54.2428 79.2102 54.6037 79.2213 54.9765C79.2308 55.7816 79.3027 56.5847 79.4363 57.3787C79.5683 58.1742 79.8212 58.9448 80.1863 59.6638C80.5499 60.3816 81.0274 61.0358 81.6002 61.6009C82.1677 62.1733 82.8235 62.6509 83.5425 63.0153C84.2606 63.3805 85.0295 63.6357 85.8235 63.7723C86.6186 63.9029 87.4224 63.9738 88.2281 63.9844C88.599 63.9926 88.9635 63.9973 89.3309 63.9973C89.7697 63.9997 90.2045 63.9997 90.6445 63.9997H211.362C211.793 63.9997 212.232 63.9997 212.663 63.9973C213.029 63.9973 213.404 63.9926 213.769 63.9844C214.573 63.9744 215.376 63.9035 216.169 63.7723C216.966 63.6347 217.737 63.3796 218.459 63.0153C219.177 62.6507 219.832 62.1731 220.4 61.6009C220.971 61.0336 221.449 60.3799 221.817 59.6638C222.18 58.9443 222.43 58.1737 222.56 57.3787C222.694 56.5846 222.769 55.7816 222.783 54.9765C222.788 54.6037 222.788 54.2428 222.788 53.8702C222.797 53.4342 222.797 53.0007 222.797 52.5577V27.4438C222.797 27.0043 222.797 26.5684 222.788 26.1336C222.788 25.7657 222.788 25.3966 222.783 25.0286C222.769 24.2234 222.694 23.4204 222.56 22.6262C222.43 21.8317 222.179 21.0615 221.817 20.3423C221.077 18.8988 219.902 17.7238 218.459 16.9826C217.737 16.6193 216.966 16.3657 216.169 16.2302C215.376 16.098 214.573 16.0271 213.769 16.0181C213.404 16.0123 213.029 16.0052 212.663 16.0029C212.232 16.0005 211.793 16.0006 211.362 16.0006Z" fill="#A6A6A6"/>
<path d="M89.3365 62.9495C88.9709 62.9495 88.6141 62.9449 88.2514 62.9367C87.4999 62.9269 86.7502 62.8615 86.0084 62.741C85.3168 62.6219 84.6467 62.4003 84.0204 62.0835C83.3998 61.7694 82.8338 61.3575 82.344 60.8636C81.8472 60.3756 81.4335 59.8095 81.1194 59.1879C80.8019 58.5622 80.5822 57.8915 80.4679 57.1993C80.3444 56.4554 80.2776 55.7033 80.2681 54.9493C80.2604 54.6962 80.2505 53.8536 80.2505 53.8536V26.1335C80.2505 26.1335 80.2611 25.3038 80.2681 25.0601C80.2773 24.3073 80.3437 23.5563 80.4667 22.8136C80.5813 22.1195 80.8012 21.4469 81.1189 20.8191C81.4318 20.1979 81.8432 19.6314 82.337 19.1416C82.8303 18.6472 83.3982 18.2332 84.0198 17.9147C84.6447 17.599 85.3135 17.3789 86.0037 17.262C86.748 17.1403 87.5003 17.0745 88.2543 17.0651L89.3371 17.0505H212.657L213.753 17.0657C214.5 17.0746 215.245 17.1398 215.983 17.2608C216.68 17.3792 217.356 17.6008 217.988 17.9182C219.233 18.56 220.246 19.5754 220.886 20.8221C221.198 21.4455 221.415 22.1126 221.528 22.8007C221.652 23.5495 221.722 24.3064 221.736 25.0653C221.74 25.4052 221.74 25.7702 221.74 26.1335C221.749 26.5835 221.749 27.0118 221.749 27.4436V52.5575C221.749 52.9935 221.749 53.4188 221.74 53.8477C221.74 54.238 221.74 54.5954 221.735 54.9633C221.721 55.7087 221.653 56.4521 221.53 57.1875C221.418 57.8848 221.2 58.5606 220.882 59.1915C220.566 59.8063 220.155 60.3675 219.663 60.8543C219.173 61.3508 218.606 61.7651 217.984 62.0812C217.354 62.4004 216.679 62.6228 215.983 62.741C215.241 62.8621 214.491 62.9276 213.74 62.9367C213.388 62.9449 213.02 62.9495 212.663 62.9495L211.362 62.9519L89.3365 62.9495Z" fill="black"/>
<path d="M108.925 40.3608C108.938 39.3592 109.204 38.3772 109.699 37.5061C110.193 36.635 110.9 35.903 111.753 35.3784C111.211 34.6043 110.496 33.9672 109.665 33.5177C108.833 33.0682 107.909 32.8188 106.964 32.7893C104.949 32.5778 102.995 33.9951 101.969 33.9951C100.922 33.9951 99.3408 32.8103 97.6384 32.8453C96.5372 32.8809 95.464 33.2011 94.5234 33.7748C93.5827 34.3484 92.8067 35.156 92.271 36.1187C89.9502 40.1367 91.6813 46.0418 93.9044 49.2897C95.0167 50.8801 96.3166 52.6566 98.0175 52.5936C99.6819 52.5246 100.304 51.5323 102.313 51.5323C104.303 51.5323 104.886 52.5936 106.622 52.5536C108.408 52.5246 109.533 50.9561 110.606 49.3507C111.405 48.2174 112.02 46.965 112.428 45.6397C111.391 45.2008 110.505 44.4663 109.882 43.5275C109.259 42.5888 108.927 41.4874 108.925 40.3608Z" fill="white"/>
<path d="M105.647 30.6533C106.621 29.4842 107.101 27.9816 106.985 26.4646C105.497 26.6209 104.123 27.3319 103.136 28.4561C102.653 29.0053 102.283 29.6442 102.048 30.3363C101.813 31.0284 101.716 31.7601 101.763 32.4897C102.507 32.4973 103.244 32.336 103.916 32.0179C104.589 31.6999 105.181 31.2332 105.647 30.6533Z" fill="white"/>
<path d="M129.965 48.5674H124.285L122.921 52.5951H120.515L125.895 37.6938H128.395L133.775 52.5951H131.328L129.965 48.5674ZM124.873 46.7088H129.376L127.156 40.1722H127.094L124.873 46.7088Z" fill="white"/>
<path d="M145.393 47.1635C145.393 50.5396 143.586 52.7087 140.86 52.7087C140.169 52.7449 139.482 52.5857 138.877 52.2496C138.273 51.9134 137.775 51.4138 137.441 50.808H137.39V56.1891H135.16V41.7308H137.318V43.5378H137.359C137.708 42.9349 138.214 42.4379 138.824 42.0996C139.433 41.7614 140.122 41.5947 140.819 41.6171C143.576 41.6172 145.393 43.7968 145.393 47.1635ZM143.101 47.1635C143.101 44.964 141.965 43.5179 140.23 43.5179C138.526 43.5179 137.38 44.9944 137.38 47.1635C137.38 49.3525 138.526 50.8185 140.23 50.8185C141.965 50.8185 143.101 49.383 143.101 47.1635Z" fill="white"/>
<path d="M157.351 47.1635C157.351 50.5396 155.544 52.7087 152.817 52.7087C152.126 52.7449 151.439 52.5857 150.835 52.2496C150.23 51.9134 149.733 51.4138 149.399 50.808H149.347V56.1891H147.117V41.7308H149.276V43.5378H149.317C149.666 42.9349 150.172 42.4379 150.781 42.0997C151.39 41.7614 152.08 41.5947 152.776 41.6172C155.533 41.6172 157.351 43.7968 157.351 47.1635ZM155.059 47.1635C155.059 44.964 153.922 43.5179 152.188 43.5179C150.484 43.5179 149.338 44.9944 149.338 47.1635C149.338 49.3526 150.484 50.8185 152.188 50.8185C153.922 50.8185 155.059 49.383 155.059 47.1635Z" fill="white"/>
<path d="M165.254 48.4432C165.419 49.9209 166.855 50.8911 168.816 50.8911C170.696 50.8911 172.048 49.9208 172.048 48.5884C172.048 47.4318 171.233 46.7393 169.302 46.2647L167.37 45.7994C164.634 45.1385 163.364 43.8588 163.364 41.7823C163.364 39.2113 165.604 37.4453 168.786 37.4453C171.935 37.4453 174.093 39.2113 174.166 41.7823H171.915C171.78 40.2952 170.551 39.3976 168.754 39.3976C166.958 39.3976 165.729 40.3058 165.729 41.6276C165.729 42.6811 166.514 43.301 168.434 43.7756L170.076 44.1787C173.133 44.9018 174.404 46.1299 174.404 48.3095C174.404 51.0973 172.183 52.8434 168.651 52.8434C165.347 52.8434 163.115 51.1383 162.971 48.4431L165.254 48.4432Z" fill="white"/>
<path d="M179.217 39.1598V41.7308H181.283V43.4968H179.217V49.4861C179.217 50.4166 179.63 50.8502 180.539 50.8502C180.784 50.8459 181.029 50.8287 181.272 50.7986V52.554C180.864 52.6303 180.449 52.6648 180.033 52.6571C177.834 52.6571 176.976 51.831 176.976 49.724V43.4968H175.396V41.7308H176.976V39.1598H179.217Z" fill="white"/>
<path d="M182.479 47.1635C182.479 43.7452 184.492 41.5972 187.632 41.5972C190.782 41.5972 192.785 43.7452 192.785 47.1635C192.785 50.5912 190.792 52.7298 187.632 52.7298C184.472 52.7298 182.479 50.5912 182.479 47.1635ZM190.513 47.1635C190.513 44.8187 189.439 43.4347 187.632 43.4347C185.825 43.4347 184.751 44.8292 184.751 47.1635C184.751 49.5178 185.825 50.8912 187.632 50.8912C189.439 50.8912 190.513 49.5178 190.513 47.1635Z" fill="white"/>
<path d="M194.624 41.7308H196.751V43.58H196.803C196.946 43.0025 197.285 42.4921 197.761 42.1346C198.237 41.7772 198.821 41.5944 199.416 41.6171C199.673 41.6162 199.929 41.6442 200.18 41.7003V43.7862C199.855 43.6871 199.517 43.6416 199.178 43.6515C198.854 43.6383 198.531 43.6955 198.231 43.8189C197.931 43.9424 197.662 44.1293 197.441 44.3667C197.22 44.6042 197.053 44.8866 196.952 45.1946C196.851 45.5026 196.817 45.8289 196.854 46.151V52.595H194.624L194.624 41.7308Z" fill="white"/>
<path d="M210.462 49.4041C210.162 51.3763 208.241 52.7298 205.784 52.7298C202.623 52.7298 200.662 50.6123 200.662 47.2151C200.662 43.8073 202.634 41.5972 205.69 41.5972C208.696 41.5972 210.586 43.662 210.586 46.9561V47.7202H202.913V47.8549C202.877 48.2547 202.927 48.6575 203.06 49.0365C203.192 49.4155 203.403 49.7621 203.68 50.0531C203.956 50.3442 204.291 50.5731 204.663 50.7246C205.035 50.8762 205.434 50.947 205.835 50.9322C206.362 50.9816 206.891 50.8595 207.343 50.5842C207.795 50.3089 208.146 49.895 208.344 49.4041L210.462 49.4041ZM202.923 46.1616H208.355C208.375 45.8021 208.32 45.4423 208.195 45.1049C208.069 44.7674 207.875 44.4596 207.625 44.2007C207.375 43.9418 207.074 43.7374 206.741 43.6003C206.408 43.4632 206.05 43.3965 205.69 43.4042C205.327 43.4021 204.967 43.4718 204.631 43.6095C204.295 43.7472 203.989 43.9501 203.732 44.2064C203.475 44.4628 203.271 44.7675 203.132 45.1031C202.993 45.4387 202.922 45.7984 202.923 46.1616Z" fill="white"/>
<path d="M124.594 26.4775C125.061 26.4439 125.53 26.5146 125.967 26.6843C126.404 26.854 126.798 27.1186 127.12 27.4589C127.443 27.7992 127.685 28.2069 127.831 28.6524C127.977 29.0979 128.022 29.5702 127.963 30.0352C127.963 32.3227 126.726 33.6375 124.594 33.6375H122.007V26.4775H124.594ZM123.119 32.6249H124.469C124.803 32.6449 125.138 32.5901 125.448 32.4646C125.758 32.3391 126.037 32.1459 126.263 31.8993C126.489 31.6526 126.657 31.3586 126.756 31.0386C126.854 30.7187 126.879 30.3809 126.831 30.0498C126.876 29.72 126.848 29.3843 126.748 29.0667C126.648 28.7491 126.479 28.4575 126.254 28.2128C126.028 27.9681 125.751 27.7763 125.443 27.6512C125.134 27.5262 124.802 27.4709 124.469 27.4893H123.119V32.6249Z" fill="white"/>
<path d="M129.219 30.9334C129.185 30.5783 129.226 30.22 129.338 29.8815C129.451 29.5431 129.633 29.2319 129.873 28.9679C130.113 28.7039 130.405 28.493 130.732 28.3487C131.058 28.2043 131.411 28.1298 131.767 28.1298C132.124 28.1298 132.477 28.2043 132.803 28.3487C133.129 28.493 133.422 28.7039 133.662 28.9679C133.901 29.2319 134.084 29.5431 134.196 29.8815C134.309 30.22 134.349 30.5783 134.315 30.9334C134.35 31.2888 134.31 31.6476 134.198 31.9866C134.085 32.3257 133.903 32.6374 133.663 32.9019C133.423 33.1664 133.131 33.3778 132.804 33.5224C132.478 33.6671 132.124 33.7418 131.767 33.7418C131.41 33.7418 131.057 33.6671 130.73 33.5224C130.404 33.3778 130.111 33.1664 129.871 32.9019C129.631 32.6374 129.449 32.3257 129.337 31.9866C129.225 31.6476 129.184 31.2888 129.219 30.9334ZM133.219 30.9334C133.219 29.7621 132.692 29.0772 131.769 29.0772C130.842 29.0772 130.321 29.7621 130.321 30.9334C130.321 32.114 130.842 32.7937 131.769 32.7937C132.692 32.7937 133.219 32.1093 133.219 30.9334Z" fill="white"/>
<path d="M141.09 33.6374H139.983L138.867 29.6578H138.782L137.67 33.6374H136.574L135.085 28.234H136.167L137.135 32.3571H137.214L138.325 28.234H139.348L140.459 32.3571H140.543L141.507 28.234H142.573L141.09 33.6374Z" fill="white"/>
<path d="M143.826 28.234H144.853V29.0924H144.932C145.068 28.7841 145.296 28.5257 145.585 28.3531C145.874 28.1805 146.209 28.1024 146.545 28.1297C146.808 28.11 147.072 28.1496 147.317 28.2457C147.563 28.3418 147.784 28.4919 147.963 28.685C148.143 28.878 148.277 29.1089 148.355 29.3607C148.433 29.6125 148.454 29.8786 148.415 30.1394V33.6374H147.349V30.4072C147.349 29.5389 146.971 29.1071 146.183 29.1071C146.004 29.0987 145.826 29.1291 145.66 29.1961C145.495 29.2631 145.346 29.3651 145.223 29.4952C145.1 29.6253 145.007 29.7803 144.95 29.9496C144.893 30.119 144.874 30.2987 144.893 30.4764V33.6374H143.826L143.826 28.234Z" fill="white"/>
<path d="M150.114 26.1247H151.181V33.6374H150.114V26.1247Z" fill="white"/>
<path d="M152.663 30.9334C152.629 30.5783 152.67 30.22 152.782 29.8815C152.895 29.543 153.077 29.2318 153.317 28.9678C153.557 28.7038 153.849 28.4929 154.176 28.3486C154.502 28.2043 154.855 28.1297 155.211 28.1297C155.568 28.1297 155.921 28.2043 156.247 28.3486C156.573 28.4929 156.866 28.7038 157.106 28.9678C157.346 29.2318 157.528 29.543 157.641 29.8815C157.753 30.22 157.794 30.5783 157.76 30.9334C157.794 31.2889 157.754 31.6476 157.642 31.9867C157.53 32.3257 157.348 32.6375 157.108 32.9019C156.868 33.1664 156.575 33.3778 156.248 33.5224C155.922 33.667 155.569 33.7418 155.211 33.7418C154.854 33.7418 154.501 33.667 154.174 33.5224C153.848 33.3778 153.555 33.1664 153.315 32.9019C153.075 32.6375 152.893 32.3257 152.781 31.9867C152.669 31.6476 152.628 31.2889 152.663 30.9334ZM156.662 30.9334C156.662 29.7621 156.136 29.0772 155.213 29.0772C154.286 29.0772 153.764 29.7621 153.764 30.9334C153.764 32.1141 154.286 32.7937 155.213 32.7937C156.136 32.7937 156.662 32.1093 156.662 30.9334Z" fill="white"/>
<path d="M158.882 32.1093C158.882 31.1367 159.607 30.576 160.892 30.4963L162.356 30.4119V29.9455C162.356 29.3748 161.978 29.0526 161.249 29.0526C160.654 29.0526 160.242 29.2711 160.123 29.6532H159.091C159.2 28.725 160.073 28.1297 161.299 28.1297C162.653 28.1297 163.417 28.8041 163.417 29.9455V33.6374H162.391V32.8781H162.306C162.135 33.1505 161.895 33.3725 161.61 33.5216C161.324 33.6706 161.005 33.7413 160.683 33.7265C160.457 33.7501 160.227 33.7259 160.01 33.6554C159.794 33.585 159.594 33.4699 159.424 33.3175C159.254 33.1652 159.119 32.9789 159.025 32.7708C158.932 32.5627 158.883 32.3374 158.882 32.1093ZM162.356 31.6476V31.1959L161.036 31.2803C160.292 31.3301 159.955 31.5832 159.955 32.0595C159.955 32.5458 160.376 32.8289 160.957 32.8289C161.127 32.8461 161.298 32.8289 161.461 32.7784C161.625 32.7279 161.776 32.6451 161.907 32.5349C162.037 32.4246 162.144 32.2893 162.221 32.1369C162.298 31.9845 162.344 31.8181 162.356 31.6476Z" fill="white"/>
<path d="M164.819 30.9334C164.819 29.226 165.697 28.1444 167.062 28.1444C167.4 28.1288 167.735 28.2097 168.029 28.3776C168.322 28.5454 168.562 28.7934 168.719 29.0924H168.799V26.1247H169.865V33.6374H168.843V32.7837H168.759C168.589 33.0807 168.341 33.3255 168.042 33.4917C167.743 33.6579 167.404 33.7391 167.062 33.7265C165.688 33.7265 164.819 32.6449 164.819 30.9334ZM165.921 30.9334C165.921 32.0795 166.461 32.7691 167.365 32.7691C168.263 32.7691 168.819 32.0695 168.819 30.9381C168.819 29.8119 168.258 29.1024 167.365 29.1024C166.467 29.1024 165.921 29.7967 165.921 30.9334Z" fill="white"/>
<path d="M174.277 30.9334C174.243 30.5783 174.284 30.22 174.396 29.8815C174.509 29.5431 174.691 29.2319 174.931 28.9679C175.171 28.7039 175.463 28.493 175.79 28.3487C176.116 28.2043 176.469 28.1298 176.825 28.1298C177.182 28.1298 177.535 28.2043 177.861 28.3487C178.187 28.493 178.48 28.7039 178.72 28.9679C178.96 29.2319 179.142 29.5431 179.254 29.8815C179.367 30.22 179.408 30.5783 179.374 30.9334C179.408 31.2888 179.368 31.6476 179.256 31.9866C179.143 32.3257 178.961 32.6374 178.721 32.9019C178.481 33.1664 178.189 33.3778 177.862 33.5224C177.536 33.6671 177.183 33.7418 176.825 33.7418C176.468 33.7418 176.115 33.6671 175.789 33.5224C175.462 33.3778 175.169 33.1664 174.929 32.9019C174.689 32.6374 174.507 32.3257 174.395 31.9866C174.283 31.6476 174.243 31.2888 174.277 30.9334ZM178.277 30.9334C178.277 29.7621 177.751 29.0772 176.827 29.0772C175.9 29.0772 175.379 29.7621 175.379 30.9334C175.379 32.114 175.9 32.7937 176.827 32.7937C177.751 32.7937 178.277 32.1093 178.277 30.9334Z" fill="white"/>
<path d="M180.804 28.234H181.831V29.0924H181.91C182.046 28.7841 182.274 28.5257 182.563 28.3531C182.852 28.1805 183.187 28.1024 183.523 28.1297C183.786 28.11 184.05 28.1496 184.295 28.2457C184.541 28.3418 184.762 28.4919 184.941 28.685C185.121 28.878 185.255 29.1089 185.333 29.3607C185.411 29.6125 185.432 29.8786 185.393 30.1394V33.6374H184.327V30.4072C184.327 29.5389 183.949 29.1071 183.161 29.1071C182.982 29.0987 182.804 29.1291 182.638 29.1961C182.473 29.2631 182.324 29.3651 182.201 29.4952C182.078 29.6253 181.985 29.7803 181.928 29.9496C181.871 30.119 181.852 30.2987 181.871 30.4764V33.6374H180.804V28.234Z" fill="white"/>
<path d="M191.419 26.8887V28.2586H192.59V29.1569H191.419V31.9353C191.419 32.5013 191.652 32.7492 192.183 32.7492C192.319 32.7487 192.455 32.7405 192.59 32.7246V33.6128C192.398 33.6471 192.204 33.6653 192.01 33.6673C190.824 33.6673 190.351 33.2501 190.351 32.2083V29.1568H189.494V28.2586H190.351V26.8887H191.419Z" fill="white"/>
<path d="M194.046 26.1247H195.103V29.1024H195.188C195.33 28.7912 195.564 28.5313 195.859 28.3581C196.153 28.1849 196.495 28.1068 196.835 28.1344C197.097 28.1202 197.358 28.1638 197.601 28.2623C197.844 28.3607 198.062 28.5115 198.24 28.7039C198.417 28.8963 198.55 29.1256 198.629 29.3754C198.708 29.6251 198.731 29.8892 198.696 30.1488V33.6374H197.629V30.4119C197.629 29.5488 197.227 29.1117 196.473 29.1117C196.29 29.0967 196.106 29.1219 195.933 29.1855C195.761 29.2492 195.604 29.3498 195.475 29.4803C195.345 29.6108 195.245 29.768 195.183 29.9409C195.12 30.1139 195.097 30.2984 195.113 30.4816V33.6374H194.046L194.046 26.1247Z" fill="white"/>
<path d="M204.914 32.1785C204.769 32.6723 204.455 33.0995 204.027 33.3853C203.599 33.671 203.084 33.7972 202.573 33.7417C202.217 33.7511 201.863 33.6829 201.536 33.5419C201.209 33.4009 200.917 33.1904 200.679 32.925C200.442 32.6596 200.265 32.3458 200.161 32.0052C200.057 31.6646 200.028 31.3055 200.077 30.9527C200.029 30.5989 200.059 30.239 200.162 29.8974C200.266 29.5558 200.442 29.2404 200.678 28.9728C200.915 28.7051 201.206 28.4913 201.532 28.3458C201.858 28.2004 202.211 28.1267 202.568 28.1297C204.072 28.1297 204.979 29.1569 204.979 30.8537V31.2258H201.163V31.2855C201.146 31.4838 201.171 31.6834 201.236 31.8715C201.301 32.0596 201.405 32.2321 201.54 32.3778C201.676 32.5235 201.84 32.6394 202.023 32.7178C202.206 32.7963 202.403 32.8357 202.602 32.8335C202.857 32.8641 203.116 32.8182 203.345 32.7015C203.573 32.5849 203.762 32.4028 203.888 32.1784L204.914 32.1785ZM201.163 30.4371H203.892C203.906 30.2558 203.881 30.0736 203.82 29.9023C203.759 29.7311 203.662 29.5745 203.537 29.4427C203.412 29.3109 203.261 29.2067 203.093 29.1369C202.925 29.0671 202.744 29.0332 202.562 29.0373C202.378 29.035 202.195 29.0696 202.024 29.1392C201.853 29.2087 201.698 29.3117 201.567 29.4422C201.437 29.5726 201.334 29.7279 201.265 29.8988C201.195 30.0696 201.161 30.2527 201.163 30.4371Z" fill="white"/>
</g>
<g clip-path="url(#clip1_6_7741)">
<path d="M394.797 16H244.797C241.483 16 238.797 18.6863 238.797 22V58C238.797 61.3137 241.483 64 244.797 64H394.797C398.11 64 400.797 61.3137 400.797 58V22C400.797 18.6863 398.11 16 394.797 16Z" fill="black"/>
<path d="M394.797 16.96C397.581 16.96 399.837 19.216 399.837 22V58C399.837 60.784 397.581 63.04 394.797 63.04H244.797C242.013 63.04 239.757 60.784 239.757 58V22C239.757 19.216 242.013 16.96 244.797 16.96H394.797ZM394.797 16H244.797C241.497 16 238.797 18.7 238.797 22V58C238.797 61.3 241.497 64 244.797 64H394.797C398.097 64 400.797 61.3 400.797 58V22C400.797 18.7 398.097 16 394.797 16Z" fill="#A6A6A6"/>
<path d="M295.701 28.2881C295.701 29.2961 295.401 30.1001 294.801 30.6881C294.129 31.3961 293.253 31.7561 292.161 31.7561C291.069 31.7561 290.229 31.3961 289.509 30.6761C288.789 29.9561 288.429 29.0561 288.429 28.0001C288.429 26.9441 288.789 26.0441 289.509 25.3241C290.229 24.6041 291.117 24.2321 292.161 24.2321C292.689 24.2321 293.193 24.3281 293.661 24.5081C294.129 24.7001 294.513 24.9641 294.813 25.3001L294.153 25.9601C293.937 25.6961 293.649 25.4801 293.289 25.3361C292.941 25.1801 292.557 25.1081 292.161 25.1081C291.381 25.1081 290.709 25.3841 290.169 25.9241C289.629 26.4761 289.365 27.1601 289.365 27.9881C289.365 28.8161 289.629 29.5001 290.169 30.0521C290.709 30.5921 291.369 30.8681 292.161 30.8681C292.881 30.8681 293.469 30.6641 293.949 30.2681C294.429 29.8721 294.705 29.3081 294.777 28.6121H292.161V27.7481H295.653C295.689 27.9401 295.701 28.1201 295.701 28.2881Z" fill="white" stroke="white" stroke-width="0.24" stroke-miterlimit="10"/>
<path d="M301.233 24.4V25.288H297.957V27.568H300.909V28.432H297.957V30.712H301.233V31.6H297.033V24.4H301.233Z" fill="white" stroke="white" stroke-width="0.24" stroke-miterlimit="10"/>
<path d="M305.133 25.288V31.6H304.209V25.288H302.193V24.4H307.137V25.288H305.121H305.133Z" fill="white" stroke="white" stroke-width="0.24" stroke-miterlimit="10"/>
<path d="M311.649 31.6H310.725V24.4H311.649V31.6Z" fill="white" stroke="white" stroke-width="0.24" stroke-miterlimit="10"/>
<path d="M315.753 25.288V31.6H314.829V25.288H312.812V24.4H317.756V25.288H315.74H315.753Z" fill="white" stroke="white" stroke-width="0.24" stroke-miterlimit="10"/>
<path d="M328.185 28.0001C328.185 29.0681 327.825 29.9561 327.117 30.6761C326.397 31.3961 325.521 31.7561 324.477 31.7561C323.433 31.7561 322.557 31.3961 321.837 30.6761C321.129 29.9561 320.769 29.0681 320.769 28.0001C320.769 26.9321 321.129 26.0441 321.837 25.3241C322.545 24.6041 323.421 24.2321 324.477 24.2321C325.533 24.2321 326.397 24.5921 327.117 25.3241C327.825 26.0441 328.185 26.9321 328.185 27.9881V28.0001ZM321.729 28.0001C321.729 28.8281 321.993 29.5241 322.509 30.0641C323.037 30.6041 323.697 30.8801 324.477 30.8801C325.257 30.8801 325.917 30.6041 326.433 30.0641C326.961 29.5241 327.225 28.8401 327.225 28.0001C327.225 27.1601 326.961 26.4761 326.433 25.9361C325.905 25.3961 325.257 25.1201 324.477 25.1201C323.697 25.1201 323.037 25.3961 322.509 25.9361C321.981 26.4761 321.729 27.1721 321.729 28.0001Z" fill="white" stroke="white" stroke-width="0.24" stroke-miterlimit="10"/>
<path d="M330.404 31.6H329.48V24.4H330.608L334.112 30.004H334.148L334.112 28.612V24.4H335.036V31.6H334.076L330.416 25.732H330.38L330.416 27.124V31.612L330.404 31.6Z" fill="white" stroke="white" stroke-width="0.24" stroke-miterlimit="10"/>
<path d="M320.565 42.1C317.745 42.1 315.441 44.248 315.441 47.2C315.441 50.152 317.745 52.3 320.565 52.3C323.385 52.3 325.689 50.14 325.689 47.2C325.689 44.26 323.385 42.1 320.565 42.1ZM320.565 50.296C319.017 50.296 317.685 49.024 317.685 47.2C317.685 45.376 319.017 44.104 320.565 44.104C322.113 44.104 323.445 45.364 323.445 47.2C323.445 49.036 322.113 50.296 320.565 50.296ZM309.393 42.1C306.573 42.1 304.269 44.248 304.269 47.2C304.269 50.152 306.573 52.3 309.393 52.3C312.213 52.3 314.517 50.14 314.517 47.2C314.517 44.26 312.213 42.1 309.393 42.1ZM309.393 50.296C307.845 50.296 306.513 49.024 306.513 47.2C306.513 45.376 307.845 44.104 309.393 44.104C310.941 44.104 312.273 45.364 312.273 47.2C312.273 49.036 310.941 50.296 309.393 50.296ZM296.097 43.66V45.82H301.281C301.125 47.032 300.717 47.932 300.105 48.544C299.349 49.3 298.173 50.128 296.109 50.128C292.917 50.128 290.421 47.56 290.421 44.368C290.421 41.176 292.917 38.608 296.109 38.608C297.825 38.608 299.085 39.28 300.009 40.156L301.533 38.632C300.237 37.396 298.521 36.448 296.097 36.448C291.729 36.448 288.057 40 288.057 44.38C288.057 48.76 291.729 52.312 296.097 52.312C298.461 52.312 300.237 51.544 301.629 50.092C303.057 48.664 303.501 46.648 303.501 45.028C303.501 44.524 303.465 44.056 303.381 43.672H296.097V43.66ZM350.469 45.34C350.049 44.2 348.753 42.088 346.101 42.088C343.449 42.088 341.289 44.152 341.289 47.188C341.289 50.044 343.449 52.288 346.353 52.288C348.693 52.288 350.049 50.86 350.601 50.032L348.861 48.868C348.285 49.72 347.493 50.284 346.353 50.284C345.213 50.284 344.397 49.768 343.881 48.736L350.709 45.916L350.481 45.34H350.469ZM343.509 47.044C343.449 45.076 345.033 44.068 346.173 44.068C347.061 44.068 347.817 44.512 348.069 45.148L343.509 47.044ZM337.965 51.988H340.209V36.988H337.965V51.988ZM334.293 43.228H334.221C333.717 42.628 332.757 42.088 331.533 42.088C328.977 42.088 326.637 44.332 326.637 47.212C326.637 50.092 328.977 52.3 331.533 52.3C332.745 52.3 333.717 51.76 334.221 51.136H334.293V51.868C334.293 53.824 333.249 54.868 331.569 54.868C330.201 54.868 329.349 53.884 329.001 53.056L327.045 53.872C327.609 55.228 329.097 56.884 331.569 56.884C334.197 56.884 336.417 55.336 336.417 51.568V42.4H334.293V43.228ZM331.725 50.284C330.177 50.284 328.881 48.988 328.881 47.212C328.881 45.436 330.177 44.104 331.725 44.104C333.273 44.104 334.449 45.424 334.449 47.212C334.449 49 333.249 50.284 331.725 50.284ZM360.981 36.988H355.617V51.988H357.861V46.3H360.993C363.477 46.3 365.913 44.5 365.913 41.644C365.913 38.788 363.477 36.988 360.993 36.988H360.981ZM361.041 44.224H357.861V39.076H361.041C362.721 39.076 363.669 40.468 363.669 41.644C363.669 42.82 362.721 44.212 361.041 44.212V44.224ZM374.877 42.064C373.257 42.064 371.577 42.784 370.881 44.356L372.873 45.184C373.293 44.356 374.085 44.08 374.913 44.08C376.065 44.08 377.253 44.776 377.265 46.012V46.168C376.857 45.94 375.993 45.592 374.925 45.592C372.777 45.592 370.605 46.768 370.605 48.964C370.605 50.968 372.357 52.264 374.325 52.264C375.825 52.264 376.665 51.592 377.181 50.8H377.253V51.952H379.413V46.204C379.413 43.54 377.421 42.052 374.853 42.052L374.877 42.064ZM374.601 50.284C373.869 50.284 372.849 49.912 372.849 49.012C372.849 47.86 374.121 47.416 375.225 47.416C376.209 47.416 376.677 47.632 377.265 47.92C377.097 49.312 375.897 50.296 374.601 50.296V50.284ZM387.297 42.388L384.729 48.892H384.657L381.993 42.388H379.581L383.577 51.484L381.297 56.536H383.637L389.793 42.388H387.309H387.297ZM367.125 51.988H369.369V36.988H367.125V51.988Z" fill="white"/>
<path d="M263.661 39.3039L250.881 52.8639C251.277 54.3399 252.621 55.4319 254.217 55.4319C254.853 55.4319 255.453 55.2639 255.969 54.9519L256.005 54.9279L270.381 46.6359L263.649 39.3039H263.661Z" fill="#EA4335"/>
<path d="M276.585 37H276.573L270.369 33.388L263.373 39.616L270.393 46.636L276.573 43.072C277.653 42.484 278.385 41.344 278.385 40.036C278.385 38.728 277.665 37.588 276.585 37.012V37Z" fill="#FBBC04"/>
<path d="M250.881 27.1357C250.809 27.4237 250.761 27.7117 250.761 28.0238V51.9758C250.761 52.2878 250.797 52.5758 250.881 52.8638L264.093 39.6518L250.881 27.1357Z" fill="#4285F4"/>
<path d="M263.757 39.9999L270.369 33.3879L256.005 25.0599C255.489 24.7479 254.877 24.5679 254.217 24.5679C252.621 24.5679 251.277 25.6599 250.881 27.1239L263.757 39.9999Z" fill="#34A853"/>
</g>
<defs>
<clipPath id="clip0_6_7741">
<rect width="143.594" height="48" fill="white" transform="translate(79.2031 16)"/>
</clipPath>
<clipPath id="clip1_6_7741">
<rect width="162" height="48" fill="white" transform="translate(238.797 16)"/>
</clipPath>
</defs>
</svg>
