<svg width="568" height="270" viewBox="0 0 568 270" fill="none" xmlns="http://www.w3.org/2000/svg">
<path d="M0 191.629C0 187.205 3.58648 183.619 8.01063 183.619H24.0319C28.456 183.619 32.0425 187.205 32.0425 191.629V269.363H0V191.629Z" fill="#35A7F9"/>
<path d="M89.3256 144.856C89.3256 140.432 92.9121 136.846 97.3362 136.846H113.357C117.782 136.846 121.368 140.432 121.368 144.856V269.359H89.3256V144.856Z" fill="#35A7F9"/>
<path d="M178.651 60.8464C178.651 56.4222 182.238 52.8358 186.662 52.8358H202.683C207.107 52.8358 210.694 56.4222 210.694 60.8464V269.361H178.651V60.8464Z" fill="#35A7F9"/>
<path d="M267.981 107.612C267.981 103.187 271.567 99.601 275.991 99.601H292.013C296.437 99.601 300.023 103.187 300.023 107.612V269.357H267.981V107.612Z" fill="#35A7F9"/>
<path d="M357.302 8.01064C357.302 3.58649 360.889 0 365.313 0H381.334C385.758 0 389.345 3.58648 389.345 8.01063V269.358H357.302V8.01064Z" fill="#35A7F9"/>
<path d="M446.632 85.9578C446.632 81.5337 450.218 77.9472 454.643 77.9472H470.664C475.088 77.9472 478.674 81.5337 478.674 85.9578V269.356H446.632V85.9578Z" fill="#35A7F9"/>
<path d="M535.957 27.9277C535.957 23.5036 539.544 19.9171 543.968 19.9171H559.989C564.414 19.9171 568 23.5035 568 27.9277V269.354H535.957V27.9277Z" fill="#35A7F9"/>
</svg>
