<svg width="32" height="32" viewBox="0 0 32 32" fill="none" xmlns="http://www.w3.org/2000/svg">
<path d="M17.3333 21.3359V22.6693C17.3333 23.7301 16.9119 24.7476 16.1618 25.4977C15.4116 26.2478 14.3942 26.6693 13.3333 26.6693H8C6.93913 26.6693 5.92172 26.2478 5.17157 25.4977C4.42143 24.7476 4 23.7301 4 22.6693V9.33594C4 8.27507 4.42143 7.25766 5.17157 6.50751C5.92172 5.75736 6.93913 5.33594 8 5.33594H13.3333C14.3942 5.33594 15.4116 5.75736 16.1618 6.50751C16.9119 7.25766 17.3333 8.27507 17.3333 9.33594V10.6693M22.6667 21.3359L28 16.0026L22.6667 21.3359ZM28 16.0026L22.6667 10.6693L28 16.0026ZM28 16.0026H9.33333H28Z" stroke="#FFBCBC" stroke-width="2" stroke-linecap="round" stroke-linejoin="round"/>
</svg>
