<svg width="36" height="36" viewBox="0 0 36 36" fill="none" xmlns="http://www.w3.org/2000/svg">
<path d="M23.1235 6.22044C24.3913 6.27784 25.2563 6.47925 26.0132 6.77309C26.808 7.07212 27.5278 7.54097 28.1226 8.14692C28.7281 8.74156 29.1966 9.46109 29.4955 10.2554C29.7903 11.0133 29.9917 11.8783 30.0491 13.1451C30.1075 14.4158 30.1211 14.8205 30.1211 18.0547C30.1211 21.2879 30.1075 21.6936 30.0491 22.9634C29.9908 24.2302 29.7903 25.0961 29.4955 25.8531C29.1968 26.6477 28.7282 27.3676 28.1226 27.9625C27.5277 28.5681 26.8079 29.0366 26.0132 29.3354C25.2563 29.6302 24.3913 29.8316 23.1235 29.889C21.8538 29.9474 21.4481 29.961 18.2149 29.961C14.9807 29.961 14.5759 29.9464 13.3062 29.889C12.0384 29.8306 11.1735 29.6302 10.4165 29.3354C9.62187 29.0366 8.90199 28.5681 8.30708 27.9625C7.70116 27.3677 7.23231 26.6478 6.93324 25.8531C6.6394 25.0961 6.438 24.2302 6.38059 22.9634C6.32222 21.6936 6.30859 21.2879 6.30859 18.0547C6.30859 14.8205 6.32222 14.4158 6.38059 13.1461C6.438 11.8783 6.6394 11.0133 6.93324 10.2563C7.23228 9.46162 7.70113 8.74174 8.30708 8.14692C8.90162 7.54109 9.62115 7.07225 10.4155 6.77309C11.1735 6.47925 12.0384 6.27784 13.3052 6.22044C14.5759 6.16206 14.9807 6.14844 18.2149 6.14844C21.4481 6.14844 21.8538 6.16206 23.1235 6.22044ZM13.4035 8.36292C12.2428 8.41546 11.6123 8.61006 11.1929 8.77255C10.6757 8.96361 10.2079 9.26815 9.82395 9.66379C9.42831 10.0478 9.12376 10.5156 8.9327 11.0328C8.77022 11.4521 8.57659 12.0826 8.52405 13.2434C8.46568 14.4985 8.454 14.875 8.454 18.0547C8.454 21.2334 8.46567 21.61 8.52308 22.8651C8.57659 24.0258 8.77022 24.6563 8.9327 25.0767C9.1487 25.6312 9.40751 26.0282 9.82395 26.4456C10.2404 26.8621 10.6374 27.1199 11.1929 27.3359C11.6123 27.4994 12.2428 27.693 13.4035 27.7455C14.6586 27.8039 15.0352 27.8156 18.2149 27.8156C21.3936 27.8156 21.7701 27.8029 23.0252 27.7455C24.187 27.693 24.8165 27.4994 25.2368 27.3359C25.7539 27.1451 26.2217 26.8409 26.6058 26.4456C27.0222 26.0282 27.2801 25.6322 27.4961 25.0767C27.6595 24.6563 27.8531 24.0258 27.9057 22.8651C27.9641 21.61 27.9757 21.2334 27.9757 18.0547C27.9757 14.875 27.9631 14.4985 27.9057 13.2434C27.8531 12.0826 27.6595 11.4521 27.497 11.0328C27.306 10.5156 27.0014 10.0478 26.6058 9.66379C26.2218 9.26815 25.754 8.96361 25.2368 8.77255C24.8165 8.61006 24.186 8.41644 23.0252 8.3639C21.7701 8.30552 21.3936 8.29384 18.2149 8.29384L13.4035 8.36292Z" fill="white"/>
<path d="M18.2157 22.0243C17.1631 22.0243 16.1537 21.6062 15.4094 20.8619C14.6651 20.1176 14.247 19.1081 14.247 18.0556C14.247 17.003 14.6651 15.9935 15.4094 15.2492C16.1537 14.5049 17.1631 14.0868 18.2157 14.0868C19.2683 14.0868 20.2778 14.5049 21.0221 15.2492C21.7663 15.9935 22.1845 17.003 22.1845 18.0556C22.1845 19.1081 21.7663 20.1176 21.0221 20.8619C20.2778 21.6062 19.2683 22.0243 18.2157 22.0243ZM18.2157 11.9414C17.4128 11.9414 16.6177 12.0996 15.8759 12.4068C15.1341 12.7141 14.4601 13.1645 13.8924 13.7322C13.3246 14.3 12.8742 14.974 12.567 15.7158C12.2597 16.4576 12.1016 17.2526 12.1016 18.0556C12.1016 18.8585 12.2597 19.6536 12.567 20.3954C12.8742 21.1372 13.3246 21.8112 13.8924 22.3789C14.4601 22.9467 15.1341 23.3971 15.8759 23.7043C16.6177 24.0116 17.4128 24.1697 18.2157 24.1697C19.8373 24.1697 21.3925 23.5256 22.5391 22.3789C23.6857 21.2323 24.3299 19.6771 24.3299 18.0556C24.3299 16.434 23.6857 14.8788 22.5391 13.7322C21.3925 12.5856 19.8373 11.9414 18.2157 11.9414Z" fill="white"/>
<path d="M23.1406 11.6983C23.1406 11.5107 23.1776 11.3249 23.2494 11.1516C23.3212 10.9782 23.4264 10.8207 23.5591 10.688C23.6918 10.5553 23.8493 10.4501 24.0227 10.3783C24.196 10.3065 24.3818 10.2695 24.5694 10.2695C24.7571 10.2695 24.9429 10.3065 25.1162 10.3783C25.2896 10.4501 25.4471 10.5553 25.5798 10.688C25.7124 10.8207 25.8177 10.9782 25.8895 11.1516C25.9613 11.3249 25.9982 11.5107 25.9982 11.6983C25.9982 12.0773 25.8477 12.4407 25.5798 12.7087C25.3118 12.9766 24.9484 13.1272 24.5694 13.1272C24.1905 13.1272 23.8271 12.9766 23.5591 12.7087C23.2912 12.4407 23.1406 12.0773 23.1406 11.6983Z" fill="white"/>
</svg>
