<svg width="897" height="901" viewBox="0 0 897 901" fill="none" xmlns="http://www.w3.org/2000/svg">
<g opacity="0.53">
<g clip-path="url(#clip0_47_91497)">
<g opacity="0.2">
<g style="mix-blend-mode:multiply">
<path fill-rule="evenodd" clip-rule="evenodd" d="M741.096 297.778C774.7 356.112 807.645 425.273 808.846 503.535C810.138 581.669 779.466 668.938 718.05 688.841C656.542 708.872 564.199 661.664 493.65 631.655C423.101 601.646 374.254 588.965 302.016 572.544C229.778 556.123 134.241 535.836 94.1362 481.356C54.1236 426.748 69.5424 337.948 114.095 276.358C158.775 214.861 232.37 180.609 296.901 154.003C361.306 127.305 416.648 108.253 472.052 108.154C527.549 107.929 583.073 126.437 628.124 159.361C673.08 192.415 707.4 239.573 741.096 297.778Z" fill="#106756"/>
</g>
</g>
</g>
</g>
<defs>
<clipPath id="clip0_47_91497">
<rect width="672" height="663.6" fill="white" transform="translate(591.699) scale(1.00072) rotate(63)"/>
</clipPath>
</defs>
</svg>
