<svg width="16" height="16" viewBox="0 0 16 16" fill="none" xmlns="http://www.w3.org/2000/svg">
<path fill-rule="evenodd" clip-rule="evenodd" d="M8 2.49847C7.21801 2.49765 6.44488 2.66398 5.73242 2.98632C5.01996 3.30866 4.38462 3.77956 3.869 4.36747L5.073 5.57147C5.10805 5.60644 5.13194 5.65102 5.14162 5.69958C5.1513 5.74813 5.14635 5.79847 5.12739 5.8442C5.10843 5.88994 5.07632 5.92902 5.03513 5.95648C4.99393 5.98395 4.94551 5.99856 4.896 5.99847H1.25C1.1837 5.99847 1.12011 5.97213 1.07322 5.92525C1.02634 5.87837 1 5.81478 1 5.74847V2.10247C0.999912 2.05296 1.01453 2.00454 1.04199 1.96335C1.06945 1.92215 1.10853 1.89004 1.15427 1.87108C1.20001 1.85212 1.25034 1.84717 1.2989 1.85685C1.34745 1.86654 1.39204 1.89042 1.427 1.92547L2.807 3.30547C3.70756 2.30952 4.87553 1.59356 6.17167 1.24292C7.4678 0.892286 8.83743 0.921775 10.1173 1.32787C11.3971 1.73397 12.5332 2.49955 13.3901 3.53333C14.2469 4.56712 14.7884 5.8255 14.95 7.15847C14.9736 7.35606 14.9178 7.55493 14.7947 7.71133C14.6717 7.86774 14.4916 7.96887 14.294 7.99247C14.0964 8.01608 13.8975 7.96022 13.7411 7.8372C13.5847 7.71418 13.4836 7.53406 13.46 7.33647C13.298 6.00228 12.6532 4.77355 11.6473 3.88224C10.6414 2.99092 9.34399 2.49869 8 2.49847ZM1.705 8.00347C1.80284 7.99174 1.90203 7.99941 1.99691 8.02604C2.09179 8.05267 2.18049 8.09773 2.25794 8.15865C2.33539 8.21957 2.40008 8.29516 2.44831 8.38109C2.49653 8.46703 2.52735 8.56162 2.539 8.65947C2.66685 9.71323 3.09684 10.7075 3.77711 11.5223C4.45739 12.3372 5.35888 12.9378 6.37287 13.2518C7.38686 13.5657 8.47004 13.5796 9.49174 13.2918C10.5135 13.0039 11.4301 12.4266 12.131 11.6295L10.927 10.4255C10.8919 10.3905 10.8681 10.3459 10.8584 10.2974C10.8487 10.2488 10.8536 10.1985 10.8726 10.1527C10.8916 10.107 10.9237 10.0679 10.9649 10.0405C11.0061 10.013 11.0545 9.99838 11.104 9.99847H14.75C14.8163 9.99847 14.8799 10.0248 14.9268 10.0717C14.9737 10.1186 15 10.1822 15 10.2485V13.8945C15.0001 13.944 14.9855 13.9924 14.958 14.0336C14.9305 14.0748 14.8915 14.1069 14.8457 14.1259C14.8 14.1448 14.7497 14.1498 14.7011 14.1401C14.6525 14.1304 14.608 14.1065 14.573 14.0715L13.193 12.6915C12.2924 13.6874 11.1245 14.4034 9.82833 14.754C8.5322 15.1047 7.16257 15.0752 5.88272 14.6691C4.60288 14.263 3.46681 13.4974 2.60995 12.4636C1.75309 11.4298 1.21159 10.1714 1.05 8.83847C1.03827 8.74063 1.04594 8.64144 1.07257 8.54656C1.09919 8.45169 1.14425 8.36299 1.20518 8.28553C1.2661 8.20808 1.34169 8.14339 1.42762 8.09517C1.51355 8.04694 1.60815 8.01612 1.706 8.00447L1.705 8.00347Z" fill="white"/>
</svg>
