<svg width="92" height="32" viewBox="0 0 92 32" fill="none" xmlns="http://www.w3.org/2000/svg">
<g clip-path="url(#clip0_47_81227)">
<path d="M89.9008 29.0008V3.00078C89.9008 2.50078 89.5008 2.05078 88.9508 2.05078H33.0008C32.5008 2.05078 32.0508 2.45078 32.0508 3.00078V29.9008H89.0008C89.5008 29.9008 89.9008 29.5008 89.9008 29.0008Z" fill="#06BFFC"/>
<path d="M11.2496 2.10156H2.99961C2.49961 2.10156 2.09961 2.50156 2.09961 3.00156V29.0016C2.09961 29.5016 2.49961 29.9516 3.04961 29.9516H29.9996V20.7516C29.9496 10.4516 21.5996 2.10156 11.2496 2.10156Z" fill="#0063FC"/>
<path d="M89 0H33C31.35 0 30 1.35 30 3V11.7C26.6 4.8 19.45 0 11.25 0H3C1.35 0 0 1.35 0 3V29C0 30.65 1.35 32 3 32H89C90.65 32 92 30.65 92 29V3C92 1.35 90.65 0 89 0ZM89.9 29C89.9 29.5 89.5 29.95 88.95 29.95H32.05V3C32.05 2.5 32.45 2.05 33 2.05H89C89.5 2.05 89.95 2.45 89.95 3V29H89.9ZM2.1 29V3C2.1 2.5 2.5 2.1 3 2.1H11.25C21.55 2.1 29.95 10.5 29.95 20.8V29.95H3C2.5 29.9 2.1 29.5 2.1 29Z" fill="white"/>
<path d="M55.0504 10.5508H52.9504C52.6004 10.5508 52.3504 10.8008 52.3504 11.1508V20.8008C52.3504 21.1508 52.6004 21.4008 52.9504 21.4008H55.0504C55.4004 21.4008 55.6504 21.1508 55.6504 20.8008V11.1508C55.6504 10.8508 55.3504 10.5508 55.0504 10.5508ZM49.0504 10.5508H41.5004C41.1504 10.5508 40.9004 10.8008 40.9004 11.1508V20.8008C40.9004 21.1508 41.1504 21.4008 41.5004 21.4008H43.6004C43.9504 21.4008 44.2004 21.1508 44.2004 20.8008V18.8008H48.0504C48.4004 18.8008 48.6504 18.5508 48.6504 18.2008V16.6008C48.6504 16.2508 48.4004 16.0008 48.0504 16.0008H44.2004V13.5508H49.0504C49.4004 13.5508 49.6504 13.3008 49.6504 12.9508V11.1008C49.6504 10.8508 49.3504 10.5508 49.0504 10.5508ZM80.4504 10.5508H78.3504C78.0004 10.5508 77.7504 10.8008 77.7504 11.1508V15.9008L74.4504 10.9008C74.3004 10.7008 74.0504 10.5508 73.8004 10.5508H72.2004C71.8504 10.5508 71.6004 10.8008 71.6004 11.1508V20.8008C71.6004 21.1508 71.8504 21.4008 72.2004 21.4008H74.3004C74.6504 21.4008 74.9004 21.1508 74.9004 20.8008V16.1008L78.1504 21.0008C78.3004 21.2008 78.5504 21.3508 78.8004 21.3508H80.5004C80.8504 21.3508 81.1004 21.1008 81.1004 20.7508V11.1508C81.0504 10.8508 80.8004 10.5508 80.4504 10.5508ZM67.7504 10.5508H65.6504C65.3004 10.5508 65.0504 10.8008 65.0504 11.1508V15.9008L61.7504 10.9008C61.6004 10.7008 61.3504 10.5508 61.1004 10.5508H59.5004C59.1504 10.5508 58.9004 10.8008 58.9004 11.1508V20.8008C58.9004 21.1508 59.1504 21.4008 59.5004 21.4008H61.6004C61.9504 21.4008 62.2004 21.1508 62.2004 20.8008V16.1008L65.4504 21.0008C65.6004 21.2008 65.8504 21.3508 66.1004 21.3508H67.8004C68.1504 21.3508 68.4004 21.1008 68.4004 20.7508V11.1508C68.3504 10.8508 68.1004 10.5508 67.7504 10.5508Z" fill="white"/>
</g>
<defs>
<clipPath id="clip0_47_81227">
<rect width="92" height="32" fill="white"/>
</clipPath>
</defs>
</svg>
