<svg width="30" height="30" viewBox="0 0 30 30" fill="none" xmlns="http://www.w3.org/2000/svg">
<g clip-path="url(#clip0_47_43191)">
<path d="M6.09375 11.1562C6.09375 11.1562 7.3125 17.7188 6.1875 21L9.84375 18.6562L9.375 13.125L6.09375 11.1562ZM24.6562 22.7812C24.6562 22.7812 28.5938 13.4063 24.1875 6.09375L20.4375 12.5625L20.9062 20.5313L24.6562 22.7812Z" fill="#77315B"/>
<path d="M21.0001 18.4697C22.8751 19.126 24.5626 20.626 25.1251 22.7822C25.6876 25.0322 24.9376 27.6572 23.1564 28.9697C22.0314 29.8135 20.6251 30.001 19.3126 30.001C16.1251 30.001 13.0314 28.9697 9.84386 27.8447C8.81261 27.4697 7.68761 27.0947 6.75011 26.4385C5.81261 25.7822 5.06261 24.751 4.87511 23.4385C4.68761 21.751 5.71886 19.9697 7.03136 19.126C9.37511 17.626 11.7189 16.9697 14.1564 17.0635C16.4064 17.0635 19.0314 17.8135 21.0001 18.4697Z" fill="#77315B"/>
<path d="M23.3437 6.375C23.3437 6.375 28.125 14.3437 22.7812 19.5L18.9375 17.4375L23.3437 6.375Z" fill="#425763"/>
<path d="M21.1876 17.3447C23.0626 18.001 24.7501 19.501 25.3126 21.6572C25.8751 23.9072 25.1251 26.5322 23.3439 27.8447C22.2189 28.6885 20.8126 28.876 19.5001 28.876C16.3126 28.876 13.2189 27.8447 10.0314 26.7197C9.00011 26.3447 7.87511 25.9697 6.93761 25.3135C6.00011 24.6572 5.25011 23.626 5.06261 22.3135C4.87511 20.626 5.90636 18.8447 7.21886 18.001C9.56261 16.501 11.9064 15.8447 14.3439 15.9385C16.6876 15.9385 19.2189 16.6885 21.1876 17.3447Z" fill="#B74F88"/>
<path d="M20.906 15.9385C22.6873 16.5947 23.3435 18.751 23.906 20.9072C24.4685 23.1572 24.656 25.2197 23.0623 26.4385C22.031 27.2822 20.7185 27.4697 19.4998 27.4697C16.4998 27.4697 13.4998 26.4385 10.5935 25.3135C9.56227 24.9385 8.62477 24.5635 7.68727 23.9072C6.84352 23.251 6.09352 22.2197 5.90602 20.9072C5.62477 19.2197 6.56227 17.5322 7.87476 16.6885C10.031 15.1885 12.281 14.5322 14.6248 14.626C16.5935 14.5322 19.031 15.2822 20.906 15.9385Z" fill="#D19780"/>
<path opacity="0.28" d="M22.2223 23.6256C22.8612 21.6556 22.3012 19.709 20.9715 19.2777C19.6417 18.8465 18.0458 20.0939 17.4069 22.0639C16.768 24.0339 17.328 25.9805 18.6577 26.4117C19.9875 26.843 21.5834 25.5956 22.2223 23.6256Z" fill="white"/>
<path d="M10.8752 17.4375C10.8752 17.4375 11.3439 24.4687 15.1877 27C15.1877 27 9.75017 26.1562 8.71892 24.8437C7.68767 23.5312 6.00017 22.875 6.37517 19.7812C6.37517 19.7812 6.75017 16.875 9.37517 16.125L10.8752 17.4375Z" fill="#5077B5"/>
<path d="M9.37517 16.9688C9.37517 16.9688 8.43767 25.3125 14.5314 27.0938C14.5314 27.0938 9.09392 26.25 8.06267 24.9375C7.03142 23.625 5.34392 22.9688 5.71892 19.875C5.71892 19.875 6.09392 16.9687 8.71892 16.2188L9.37517 16.9688Z" fill="#B74F88"/>
<path d="M12 23.5313C12 23.5313 16.7812 25.7813 20.4375 25.0313C24.0937 24.2813 24.75 20.0625 24.75 20.0625C24.75 20.0625 25.875 25.125 22.875 26.9063C19.875 28.6875 14.3438 27 14.3438 27L12 23.5313Z" fill="#5077B5"/>
<path d="M7.3125 16.875C7.3125 16.875 8.0625 24.0938 10.7812 26.9063C10.7812 26.9063 7.78125 26.5312 7.125 25.3125L5.625 20.0625C5.625 20.0625 5.71875 18.5625 7.3125 16.875Z" fill="#CEB46B"/>
<path d="M18.6561 17.5312C18.6561 17.5312 19.4061 21.1875 16.8748 22.4062C14.3436 23.625 17.5311 29.5312 17.5311 29.5312C17.5311 29.5312 17.3436 25.7812 18.2811 25.0312C19.2186 24.375 26.2498 21 22.4061 15.1875C22.4061 15.2812 18.7498 16.7812 18.6561 17.5312Z" fill="#425763"/>
<path d="M24.351 10.0939C24.3696 4.96803 20.2713 0.797771 15.1971 0.779385C10.123 0.760999 5.99459 4.90145 5.97601 10.0273C5.95744 15.1532 10.0558 19.3235 15.1299 19.3419C20.204 19.3603 24.3324 15.2198 24.351 10.0939Z" fill="#A67A65"/>
<path d="M23.952 9.48447C23.9701 4.5139 19.9972 0.470017 15.0784 0.452194C10.1596 0.43437 6.15756 4.44936 6.13955 9.41992C6.12153 14.3905 10.0944 18.4344 15.0132 18.4522C19.932 18.47 23.934 14.455 23.952 9.48447Z" fill="#E5A98C"/>
<path d="M23.8467 9.25383C23.8639 4.49037 20.1423 0.615288 15.5342 0.598591C10.9261 0.581893 7.17644 4.4299 7.15918 9.19336C7.14192 13.9568 10.8636 17.8319 15.4717 17.8486C20.0798 17.8653 23.8294 14.0173 23.8467 9.25383Z" fill="#E5A98C"/>
<path d="M19.3338 10.3762C19.3464 6.90715 16.6283 4.08506 13.2628 4.07286C9.89732 4.06067 7.15887 6.86299 7.1463 10.332C7.13373 13.8011 9.8518 16.6232 13.2173 16.6354C16.5828 16.6476 19.3212 13.8452 19.3338 10.3762Z" fill="#E8CCAA"/>
<path d="M16.1054 11.0335C16.1073 10.5157 15.7311 10.0946 15.2651 10.0929C14.7991 10.0912 14.4198 10.5096 14.4179 11.0273C14.4161 11.5451 14.7923 11.9662 15.2583 11.9679C15.7243 11.9696 16.1036 11.5512 16.1054 11.0335Z" fill="#425763"/>
<path d="M15.5479 10.7201C15.5485 10.5648 15.465 10.4386 15.3614 10.4382C15.2579 10.4378 15.1735 10.5634 15.1729 10.7188C15.1723 10.8741 15.2558 11.0003 15.3594 11.0007C15.4629 11.0011 15.5473 10.8754 15.5479 10.7201Z" fill="white"/>
<path d="M9.44969 9.63111C9.45156 9.11335 9.07532 8.69225 8.60933 8.69056C8.14334 8.68887 7.76406 9.10723 7.76219 9.625C7.76031 10.1428 8.13655 10.5639 8.60254 10.5656C9.06853 10.5672 9.44781 10.1489 9.44969 9.63111Z" fill="#425763"/>
<path d="M12.9959 7.95788C12.9974 7.54367 12.7048 7.20682 12.3423 7.2055C11.9799 7.20419 11.6849 7.53891 11.6834 7.95312C11.6819 8.36734 11.9745 8.70419 12.3369 8.7055C12.6994 8.70682 12.9944 8.37209 12.9959 7.95788Z" fill="#B74F88"/>
<path d="M8.98637 9.22402C8.98693 9.06869 8.90344 8.94246 8.79989 8.94209C8.69634 8.94171 8.61193 9.06733 8.61137 9.22266C8.61081 9.37799 8.6943 9.50421 8.79785 9.50459C8.9014 9.50496 8.98581 9.37935 8.98637 9.22402Z" fill="white"/>
<path d="M13.4063 15.2812C13.4063 15.2812 12.5625 15.1875 12 14.7187C11.4375 14.25 10.7812 14.3438 10.6875 14.3438C10.5938 14.3438 10.4062 14.1562 10.2188 14.0625C10.0312 13.9688 9.75 13.9688 9.75 14.0625C9.75 14.1562 10.0313 14.625 10.0313 14.625C10.0313 14.625 10.125 15 10.0313 15.1875C9.9375 15.375 10.0312 16.0313 10.6875 16.125C11.3438 16.3125 11.8125 16.2188 12.0938 16.0313C12.375 15.8438 13.4063 15.2812 13.4063 15.2812Z" fill="#A67A65"/>
<path d="M13.9685 3.843C13.9685 3.843 12.7497 7.0305 14.6247 8.343C16.4997 9.6555 23.4372 12.7493 22.1247 16.218C22.1247 16.218 28.3122 8.99925 23.0622 3.74925C16.406 -3.00075 13.9685 3.468 13.9685 3.843Z" fill="#425763"/>
<path d="M6.09354 10.6877C6.09354 10.6877 6.46854 6.93768 7.68729 6.56268C8.90604 6.18768 12.0935 7.31268 13.781 6.18768C13.781 6.18768 17.8123 1.68768 16.9685 0.843928C16.1248 0.000177532 12.7498 0.187678 10.406 1.40643C8.06229 2.62518 5.43729 5.90643 6.09354 10.6877Z" fill="#425763"/>
<path d="M16.7812 3.46824C16.7812 3.46824 15.0937 5.53074 16.6875 7.12449C18.2812 8.71824 22.3125 9.93699 23.3438 11.9995C23.3438 11.9995 24 4.21824 16.7812 3.46824ZM14.8125 2.24949C14.8125 2.24949 14.25 4.87449 12.8438 5.15574C11.4375 5.43699 7.6875 5.71824 7.6875 5.71824C7.6875 5.71824 11.3438 1.49949 14.8125 2.24949Z" fill="#5E6D72"/>
<path d="M8.8125 2.43689C8.8125 2.43689 22.5938 0.749389 25.3125 9.18689C25.3125 9.18689 25.5938 1.96814 17.25 0.186888C12.1875 -0.844362 8.8125 2.43689 8.8125 2.43689Z" fill="#B74F88"/>
</g>
<defs>
<clipPath id="clip0_47_43191">
<rect width="30" height="30" fill="white"/>
</clipPath>
</defs>
</svg>
