<svg width="30" height="30" viewBox="0 0 30 30" fill="none" xmlns="http://www.w3.org/2000/svg">
<g clip-path="url(#clip0_47_42867)">
<path d="M28.9689 4.96857L28.4064 4.31232C28.1252 3.93732 27.8439 3.56232 27.4689 3.18732C26.6252 2.24982 25.6877 1.49982 24.8439 1.49982L9.37516 1.03107H8.90641L7.78141 0.937319C5.43766 0.843569 3.28141 2.53107 2.90641 4.68732L0.468913 19.1248C0.468913 19.4061 0.375163 19.5936 0.375163 19.8748L0.187663 20.7186C0.187663 20.9998 0.0939128 21.2811 0.187663 21.5623C0.187663 21.9373 0.281413 22.3123 0.375163 22.5936C0.937663 25.2186 3.09391 28.4998 5.15641 28.4998L23.7189 29.1561C26.0627 29.2498 27.4689 27.6561 27.9377 25.5936V25.6873L28.0314 25.0311C28.0314 24.9373 28.0314 24.7498 28.1252 24.6561L28.8752 17.1561L29.7189 9.09357L29.8127 8.62482V7.96857C29.9064 6.74982 29.3439 5.43732 28.9689 4.96857Z" fill="#2E2966"/>
<path d="M25.2185 3.65607L9.09352 3.09357C6.74977 2.99982 4.59352 4.68732 4.21852 6.84357L1.31227 20.2498C0.937273 22.5936 3.37477 27.4686 5.90602 27.5623L23.0623 28.2186C25.5935 28.3123 26.906 26.3436 27.1873 23.9998L28.6873 9.37482C28.8748 7.21857 27.5623 3.74982 25.2185 3.65607Z" fill="#16666E"/>
<path d="M24.3752 3.18753L9.1877 2.62503C6.9377 2.53128 4.8752 4.12503 4.59395 6.18753L2.0627 20.8125C1.6877 23.0625 3.1877 24 5.53145 24.0938L20.9064 25.125C23.2502 25.2188 26.5314 21.8438 26.7189 19.5938L27.9377 7.03128C28.2189 5.06253 26.5314 3.28128 24.3752 3.18753Z" fill="#44BAFF"/>
<path d="M24.1875 2.53128L9.84374 2.06253C7.68749 1.96878 5.62499 3.56253 5.24999 5.53128L2.90624 18.5625C2.53124 20.8125 4.12499 22.7813 6.46874 22.875L21.8437 23.625C24.1875 23.7188 26.3437 21.9375 26.5312 19.6875L28.6875 9.00003C28.9687 6.93753 26.4375 2.53128 24.1875 2.53128Z" fill="#1D9FBF"/>
<path d="M23.0627 3.28125L8.2502 2.71875C6.09395 2.71875 4.1252 4.21875 3.7502 6.1875L1.3127 20.3438C0.937697 22.5 2.4377 24.375 4.78145 24.4688L20.6252 25.2188C22.8752 25.3125 24.9377 23.625 25.1252 21.375L26.5314 7.03125C26.7189 5.0625 25.2189 3.375 23.0627 3.28125Z" fill="#23B4CC"/>
<path d="M23.1564 2.53128L8.34395 1.96878C6.1877 1.87503 4.21895 3.46878 3.84395 5.43753L1.59395 18.75C1.21895 20.9063 2.71895 22.7813 5.0627 22.875L20.9064 23.625C23.1564 23.7188 25.2189 22.0313 25.4064 19.7813L26.7189 6.28128C26.8127 4.31253 25.2189 2.62503 23.1564 2.53128Z" fill="#1D9FBF"/>
<path d="M27.0938 4.59375L28.125 5.625C28.4063 6 28.9688 7.21875 28.7813 8.34375L27.0938 24.9375L25.2188 21.1875L27.0938 4.59375Z" fill="#1A8496"/>
<path d="M12.8436 11.625L5.6249 11.25C5.15615 11.25 4.8749 10.7813 4.96865 10.4063L5.9999 5.25C6.09365 4.875 6.3749 4.6875 6.7499 4.6875L13.6874 4.96875C14.1561 4.96875 14.4374 5.34375 14.3436 5.8125L13.5936 11.0625C13.4999 11.3438 13.2186 11.625 12.8436 11.625Z" fill="white"/>
<path d="M7.78125 7.96875L8.25 5.25L12.1875 8.25L7.3125 10.875L7.78125 7.96875Z" fill="#16666E"/>
<path d="M11.5311 20.7188L3.9374 20.25C3.46865 20.25 3.1874 19.7813 3.28115 19.4063L4.40615 13.5938C4.4999 13.2188 4.78115 13.0312 5.15615 13.0312L12.4686 13.4063C12.9374 13.4063 13.2186 13.7813 13.1249 14.25L12.2811 20.1563C12.1874 20.4375 11.9061 20.7188 11.5311 20.7188Z" fill="#7BFFDC"/>
<path d="M6.28125 16.6875L6.75 13.5938L10.875 16.9688L8.34375 18.375L5.71875 19.7813L6.28125 16.6875Z" fill="#16666E"/>
<path d="M23.1562 12.1881L15.6562 11.8131C15.2812 11.8131 14.9062 11.4381 14.9999 10.9693L15.7499 5.62559C15.8437 5.25059 16.1249 4.96934 16.4999 5.06309L23.7187 5.34434C24.0937 5.34434 24.4687 5.71934 24.3749 6.09434L23.9062 11.4381C23.9062 11.9068 23.5312 12.1881 23.1562 12.1881Z" fill="#83FFBB"/>
<path d="M17.8125 8.53125L18.1875 5.71875L20.25 7.21875L22.4062 8.71875L19.9687 10.0312L17.4375 11.4375L17.8125 8.53125Z" fill="#16666E"/>
<path d="M22.4062 21.3756L14.5312 20.9068C14.1562 20.9068 13.7812 20.5318 13.8749 20.0631L14.7187 14.0631C14.8124 13.6881 15.0937 13.4068 15.4687 13.5006L23.0624 13.9693C23.4374 13.9693 23.7187 14.3443 23.7187 14.7193L23.2499 20.8131C23.0624 21.0943 22.7812 21.3756 22.4062 21.3756Z" fill="#FDFF97"/>
<path d="M16.7812 17.25L17.1562 14.1562L19.3125 15.8437L21.5625 17.5313L18.9375 19.0312L16.4062 20.4375L16.7812 17.25Z" fill="#16666E"/>
</g>
<defs>
<clipPath id="clip0_47_42867">
<rect width="30" height="30" fill="white"/>
</clipPath>
</defs>
</svg>
