<svg width="103" height="376" viewBox="0 0 103 376" fill="none" xmlns="http://www.w3.org/2000/svg">
<path d="M47.7093 39.6926V35.6036C47.7093 34.5636 48.5572 33.7185 49.6077 33.7115H53.4558C54.5113 33.7115 55.367 34.5586 55.367 35.6036V35.6036V39.7053C55.3668 40.5883 56.0787 41.31 56.9704 41.3307H59.5358C62.0932 41.3307 64.1663 39.2783 64.1663 36.7465V36.7465V25.1145C64.1527 24.1185 63.6803 23.1832 62.8836 22.5748L54.11 15.5778C52.5729 14.3595 50.3879 14.3595 48.8509 15.5778L40.1157 22.5875C39.316 23.1934 38.8429 24.1303 38.833 25.1272V36.7465C38.833 39.2783 40.9062 41.3307 43.4636 41.3307H46.029C46.9428 41.3307 47.6836 40.5973 47.6836 39.6926V39.6926" stroke="#384455" stroke-width="1.5" stroke-linecap="round" stroke-linejoin="round"/>
<path opacity="0.4" d="M45.1602 111.714L49.151 106.527L53.7033 110.103L57.6087 105.062" stroke="#384455" stroke-width="1.5" stroke-linecap="round" stroke-linejoin="round"/>
<circle cx="62.1606" cy="97.602" r="2.56293" stroke="#384455" stroke-width="1.5" stroke-linecap="round" stroke-linejoin="round"/>
<path d="M55.3994 96.1641H45.7091C41.6938 96.1641 39.2041 99.0077 39.2041 103.023V113.799C39.2041 117.815 41.645 120.646 45.7091 120.646H57.1812C61.1965 120.646 63.6862 117.815 63.6862 113.799V104.414" stroke="#384455" stroke-width="1.5" stroke-linecap="round" stroke-linejoin="round"/>
<rect x="23.5" y="160" width="56" height="56" rx="10" fill="#413FBD"/>
<path fill-rule="evenodd" clip-rule="evenodd" d="M57.3812 175.689L57.3825 176.688C61.0554 176.976 63.4815 179.479 63.4855 183.317L63.5 194.551C63.5052 198.736 60.8763 201.311 56.6624 201.317L46.3692 201.331C42.1816 201.336 39.5198 198.7 39.5145 194.503L39.5 183.401C39.4947 179.538 41.8354 177.042 45.5082 176.704L45.5069 175.705C45.5056 175.119 45.94 174.677 46.5193 174.677C47.0985 174.676 47.5329 175.116 47.5342 175.702L47.5355 176.635L55.3552 176.624L55.3539 175.692C55.3525 175.105 55.787 174.665 56.3662 174.664C56.9323 174.663 57.3799 175.103 57.3812 175.689ZM41.5286 183.813L61.4595 183.786V183.32C61.4029 180.454 59.9653 178.951 57.3851 178.727L57.3864 179.754C57.3864 180.327 56.9402 180.781 56.3741 180.781C55.7949 180.782 55.3591 180.329 55.3591 179.756L55.3578 178.677L47.5382 178.687L47.5395 179.766C47.5395 180.34 47.1064 180.793 46.5272 180.793C45.9479 180.794 45.5122 180.343 45.5122 179.768L45.5109 178.742C42.9438 178.999 41.5234 180.508 41.5273 183.398L41.5286 183.813ZM55.8199 189.87V189.884C55.833 190.497 56.3333 190.963 56.9402 190.949C57.5326 190.935 58.0052 190.427 57.992 189.814C57.9644 189.227 57.4891 188.749 56.898 188.75C56.2925 188.764 55.8186 189.257 55.8199 189.87ZM56.9073 195.853C56.3017 195.84 55.8133 195.335 55.812 194.722C55.7988 194.109 56.2846 193.601 56.8901 193.587H56.9033C57.522 193.587 58.0236 194.092 58.0236 194.718C58.0249 195.344 57.5247 195.852 56.9073 195.853ZM50.3962 189.891C50.4225 190.504 50.9241 190.983 51.5296 190.956C52.122 190.928 52.5946 190.422 52.5683 189.808C52.5538 189.209 52.0667 188.742 51.4743 188.744C50.8688 188.77 50.3948 189.278 50.3962 189.891ZM51.5349 195.793C50.9293 195.82 50.4291 195.342 50.4014 194.729C50.4014 194.116 50.874 193.609 51.4796 193.581C52.072 193.58 52.5604 194.046 52.5735 194.645C52.6012 195.259 52.1273 195.765 51.5349 195.793ZM44.9724 189.938C44.9988 190.551 45.5003 191.031 46.1059 191.003C46.6983 190.976 47.1709 190.468 47.1432 189.855C47.1301 189.255 46.643 188.789 46.0493 188.79C45.4437 188.817 44.9711 189.325 44.9724 189.938ZM46.1112 195.8C45.5056 195.828 45.0054 195.348 44.9777 194.735C44.9764 194.122 45.4503 193.615 46.0559 193.588C46.6483 193.587 47.1367 194.053 47.1498 194.653C47.1775 195.266 46.7049 195.773 46.1112 195.8Z" fill="white"/>
<path fill-rule="evenodd" clip-rule="evenodd" d="M55.1487 255.68H46.278C43.5327 255.68 41.166 257.905 41.166 260.652V274.936C41.166 277.837 43.378 280.15 46.278 280.15H56.93C59.6767 280.15 61.902 277.684 61.902 274.936V262.714L55.1487 255.68Z" stroke="#384455" stroke-width="1.5" stroke-linecap="round" stroke-linejoin="round"/>
<path d="M54.7988 255.664V259.543C54.7988 261.436 56.3308 262.972 58.2228 262.976C59.9788 262.98 61.7748 262.981 61.8962 262.973" stroke="#384455" stroke-width="1.5" stroke-linecap="round" stroke-linejoin="round"/>
<path opacity="0.4" d="M54.5446 272.737H47.3486" stroke="#384455" stroke-width="1.5" stroke-linecap="round" stroke-linejoin="round"/>
<path opacity="0.4" d="M51.8233 266.135H47.3486" stroke="#384455" stroke-width="1.5" stroke-linecap="round" stroke-linejoin="round"/>
<path opacity="0.4" d="M58.96 346.58C61.0964 346.58 62.8295 344.849 62.8295 342.712C62.8295 340.576 61.0964 338.844 58.96 338.844" stroke="#384455" stroke-width="1.5" stroke-linecap="round" stroke-linejoin="round"/>
<path d="M60.7383 350.781C61.3763 350.825 62.0106 350.916 62.6352 351.056C63.5029 351.226 64.5467 351.582 64.9183 352.36C65.1554 352.859 65.1554 353.44 64.9183 353.939C64.5479 354.718 63.5029 355.072 62.6352 355.251" stroke="#384455" stroke-width="1.5" stroke-linecap="round" stroke-linejoin="round"/>
<path opacity="0.4" d="M43.8862 346.58C41.7497 346.58 40.0166 344.849 40.0166 342.712C40.0166 340.576 41.7497 338.844 43.8862 338.844" stroke="#384455" stroke-width="1.5" stroke-linecap="round" stroke-linejoin="round"/>
<path d="M42.1075 350.781C41.4695 350.825 40.8352 350.916 40.2106 351.056C39.3429 351.226 38.2991 351.582 37.9288 352.36C37.6904 352.859 37.6904 353.44 37.9288 353.939C38.2979 354.718 39.3429 355.072 40.2106 355.251" stroke="#384455" stroke-width="1.5" stroke-linecap="round" stroke-linejoin="round"/>
<path fill-rule="evenodd" clip-rule="evenodd" d="M51.4172 351.617C55.7463 351.617 59.4448 352.272 59.4448 354.894C59.4448 357.514 55.7708 358.194 51.4172 358.194C47.0869 358.194 43.3896 357.539 43.3896 354.917C43.3896 352.296 47.0636 351.617 51.4172 351.617Z" stroke="#384455" stroke-width="1.5" stroke-linecap="round" stroke-linejoin="round"/>
<path opacity="0.4" fill-rule="evenodd" clip-rule="evenodd" d="M51.4168 347.876C48.5617 347.876 46.2725 345.587 46.2725 342.73C46.2725 339.875 48.5617 337.586 51.4168 337.586C54.2719 337.586 56.5611 339.875 56.5611 342.73C56.5611 345.587 54.2719 347.876 51.4168 347.876Z" stroke="#384455" stroke-width="1.5" stroke-linecap="round" stroke-linejoin="round"/>
</svg>
