<svg width="20" height="20" viewBox="0 0 20 20" fill="none" xmlns="http://www.w3.org/2000/svg">
<g opacity="0.3">
<path d="M13.9592 2.96406V1.66406C13.9592 1.3224 13.6758 1.03906 13.3342 1.03906C12.9925 1.03906 12.7092 1.3224 12.7092 1.66406V2.91406H7.29251V1.66406C7.29251 1.3224 7.00918 1.03906 6.66751 1.03906C6.32584 1.03906 6.04251 1.3224 6.04251 1.66406V2.96406C3.79251 3.1724 2.70084 4.51406 2.53418 6.50573C2.51751 6.7474 2.71751 6.9474 2.95084 6.9474H17.0508C17.2925 6.9474 17.4925 6.73906 17.4675 6.50573C17.3008 4.51406 16.2092 3.1724 13.9592 2.96406Z" fill="#292D32"/>
<path d="M16.6667 8.20312H3.33333C2.875 8.20312 2.5 8.57813 2.5 9.03646V14.1698C2.5 16.6698 3.75 18.3365 6.66667 18.3365H13.3333C16.25 18.3365 17.5 16.6698 17.5 14.1698V9.03646C17.5 8.57813 17.125 8.20312 16.6667 8.20312ZM7.675 15.1781C7.63333 15.2115 7.59167 15.2531 7.55 15.2781C7.5 15.3115 7.45 15.3365 7.4 15.3531C7.35 15.3781 7.3 15.3948 7.25 15.4031C7.19167 15.4115 7.14167 15.4198 7.08333 15.4198C6.975 15.4198 6.86667 15.3948 6.76667 15.3531C6.65833 15.3115 6.575 15.2531 6.49167 15.1781C6.34167 15.0198 6.25 14.8031 6.25 14.5865C6.25 14.3698 6.34167 14.1531 6.49167 13.9948C6.575 13.9198 6.65833 13.8615 6.76667 13.8198C6.91667 13.7531 7.08333 13.7365 7.25 13.7698C7.3 13.7781 7.35 13.7948 7.4 13.8198C7.45 13.8365 7.5 13.8615 7.55 13.8948C7.59167 13.9281 7.63333 13.9615 7.675 13.9948C7.825 14.1531 7.91667 14.3698 7.91667 14.5865C7.91667 14.8031 7.825 15.0198 7.675 15.1781ZM7.675 12.2615C7.51667 12.4115 7.3 12.5031 7.08333 12.5031C6.86667 12.5031 6.65 12.4115 6.49167 12.2615C6.34167 12.1031 6.25 11.8865 6.25 11.6698C6.25 11.4531 6.34167 11.2365 6.49167 11.0781C6.725 10.8448 7.09167 10.7698 7.4 10.9031C7.50833 10.9448 7.6 11.0031 7.675 11.0781C7.825 11.2365 7.91667 11.4531 7.91667 11.6698C7.91667 11.8865 7.825 12.1031 7.675 12.2615ZM10.5917 15.1781C10.4333 15.3281 10.2167 15.4198 10 15.4198C9.78333 15.4198 9.56667 15.3281 9.40833 15.1781C9.25833 15.0198 9.16667 14.8031 9.16667 14.5865C9.16667 14.3698 9.25833 14.1531 9.40833 13.9948C9.71667 13.6865 10.2833 13.6865 10.5917 13.9948C10.7417 14.1531 10.8333 14.3698 10.8333 14.5865C10.8333 14.8031 10.7417 15.0198 10.5917 15.1781ZM10.5917 12.2615C10.55 12.2948 10.5083 12.3281 10.4667 12.3615C10.4167 12.3948 10.3667 12.4198 10.3167 12.4365C10.2667 12.4615 10.2167 12.4781 10.1667 12.4865C10.1083 12.4948 10.0583 12.5031 10 12.5031C9.78333 12.5031 9.56667 12.4115 9.40833 12.2615C9.25833 12.1031 9.16667 11.8865 9.16667 11.6698C9.16667 11.4531 9.25833 11.2365 9.40833 11.0781C9.48333 11.0031 9.575 10.9448 9.68333 10.9031C9.99167 10.7698 10.3583 10.8448 10.5917 11.0781C10.7417 11.2365 10.8333 11.4531 10.8333 11.6698C10.8333 11.8865 10.7417 12.1031 10.5917 12.2615ZM13.5083 15.1781C13.35 15.3281 13.1333 15.4198 12.9167 15.4198C12.7 15.4198 12.4833 15.3281 12.325 15.1781C12.175 15.0198 12.0833 14.8031 12.0833 14.5865C12.0833 14.3698 12.175 14.1531 12.325 13.9948C12.6333 13.6865 13.2 13.6865 13.5083 13.9948C13.6583 14.1531 13.75 14.3698 13.75 14.5865C13.75 14.8031 13.6583 15.0198 13.5083 15.1781ZM13.5083 12.2615C13.4667 12.2948 13.425 12.3281 13.3833 12.3615C13.3333 12.3948 13.2833 12.4198 13.2333 12.4365C13.1833 12.4615 13.1333 12.4781 13.0833 12.4865C13.025 12.4948 12.9667 12.5031 12.9167 12.5031C12.7 12.5031 12.4833 12.4115 12.325 12.2615C12.175 12.1031 12.0833 11.8865 12.0833 11.6698C12.0833 11.4531 12.175 11.2365 12.325 11.0781C12.4083 11.0031 12.4917 10.9448 12.6 10.9031C12.75 10.8365 12.9167 10.8198 13.0833 10.8531C13.1333 10.8615 13.1833 10.8781 13.2333 10.9031C13.2833 10.9198 13.3333 10.9448 13.3833 10.9781C13.425 11.0115 13.4667 11.0448 13.5083 11.0781C13.6583 11.2365 13.75 11.4531 13.75 11.6698C13.75 11.8865 13.6583 12.1031 13.5083 12.2615Z" fill="#292D32"/>
</g>
</svg>
