<svg width="8" height="14" viewBox="0 0 8 14" fill="none" xmlns="http://www.w3.org/2000/svg">
<path d="M0.642421 2.43391e-05C0.81153 0.00232195 0.973674 0.0677483 1.09702 0.183459L7.47737 6.56381C7.59718 6.68477 7.66439 6.84815 7.66439 7.01841C7.66439 7.18866 7.59718 7.35204 7.47737 7.473L1.09702 13.8534C0.973052 13.9551 0.815673 14.0071 0.655493 13.9992C0.495313 13.9914 0.343785 13.9242 0.230384 13.8108C0.116983 13.6974 0.0498168 13.5459 0.0419499 13.3857C0.0340825 13.2255 0.0860781 13.0681 0.187821 12.9442L6.12154 7.01841L0.187821 1.09266C0.0680102 0.971691 0.000797349 0.808317 0.000797349 0.638059C0.000797349 0.467801 0.0680102 0.304427 0.187821 0.183459C0.311167 0.0677483 0.473311 0.00232195 0.642421 2.43391e-05Z" fill="#2D3139"/>
</svg>
