<svg width="23" height="215" viewBox="0 0 23 215" fill="none" xmlns="http://www.w3.org/2000/svg">
<g opacity="0.5">
<path d="M22.1861 136.161L11.7785 132.642C11.5265 132.557 11.2386 132.557 10.9853 132.642L0.578154 136.161C0.238444 136.276 0.0141063 136.528 0.00150806 136.81C-0.0106482 137.092 0.188198 137.355 0.51671 137.487L10.9237 141.695C11.0672 141.753 11.2245 141.782 11.3822 141.782C11.5408 141.782 11.6978 141.753 11.8416 141.695L22.2491 137.487C22.5773 137.355 22.7763 137.092 22.7644 136.81C22.7502 136.528 22.5264 136.276 22.1861 136.161Z" fill="white"/>
<path d="M21.3306 139.312L11.3813 143.335L1.43362 139.312C0.957394 139.119 0.367708 139.256 0.115301 139.616C-0.138874 139.976 0.0414061 140.423 0.516308 140.615L10.9233 144.824C11.0668 144.882 11.2241 144.911 11.3818 144.911C11.5404 144.911 11.6974 144.882 11.8412 144.824L22.2487 140.615C22.7225 140.423 22.9025 139.976 22.6498 139.616C22.3955 139.256 21.8054 139.119 21.3306 139.312Z" fill="white"/>
<path d="M21.3306 142.191L11.3813 146.214L1.43362 142.191C0.957394 141.999 0.367708 142.136 0.115301 142.495C-0.138874 142.856 0.0414061 143.303 0.516308 143.495L10.9233 147.702C11.0668 147.761 11.2241 147.789 11.3818 147.789C11.5404 147.789 11.6974 147.761 11.8412 147.702L22.2487 143.495C22.7225 143.303 22.9025 142.856 22.6498 142.495C22.3955 142.136 21.8062 141.999 21.3306 142.191Z" fill="white"/>
</g>
<g opacity="0.5">
<path d="M19.5225 206.68C19.5225 206.488 19.5115 206.305 19.4896 206.114L21.526 204.94C21.9639 204.69 22.0844 204.224 21.8107 203.858L19.7633 201.17C19.6321 200.994 19.4197 200.861 19.1671 200.796C18.9145 200.732 18.6395 200.74 18.3948 200.821L16.0409 201.578C15.6358 201.362 15.2089 201.17 14.76 201.012L14.4425 199.089C14.3768 198.673 13.906 198.357 13.3586 198.357L9.27492 198.357C8.71656 198.357 8.24578 198.673 8.18009 199.089L7.8626 201.012C7.41372 201.17 6.98674 201.362 6.58165 201.578L4.22778 200.821C3.72416 200.654 3.13295 200.804 2.85925 201.17L0.811928 203.867C0.538222 204.233 0.658652 204.69 1.09658 204.948L3.13295 206.122C3.08757 206.496 3.08757 206.872 3.13295 207.245L1.09658 208.419C0.658652 208.669 0.538222 209.135 0.811928 209.501L2.85925 212.189C3.13295 212.555 3.72416 212.705 4.22778 212.539L6.58165 211.781C6.98674 211.998 7.41372 212.189 7.8626 212.347L8.18009 214.27C8.24578 214.686 8.71656 215.002 9.26397 215.002L13.3477 215.002C13.8951 215.002 14.3659 214.686 14.4315 214.27L14.749 212.347C15.1979 212.189 15.6249 211.998 16.03 211.781L18.3839 212.539C18.8875 212.705 19.4787 212.555 19.7524 212.189L21.7997 209.501C22.0734 209.135 21.953 208.677 21.515 208.419L19.4787 207.245C19.5115 207.054 19.5225 206.871 19.5225 206.68ZM11.3551 209.592C9.24207 209.592 7.5232 208.286 7.5232 206.68C7.5232 205.073 9.24207 203.767 11.3551 203.767C13.4681 203.767 15.187 205.073 15.187 206.68C15.187 208.286 13.4681 209.592 11.3551 209.592Z" fill="white"/>
</g>
<path d="M7.98431 15.1317L3.54877 15.1317C2.329 15.1317 1.331 14.3751 1.331 13.4504L1.331 1.6813C1.331 0.756583 2.329 0 3.54877 0L7.98431 2.51554e-10C9.20409 2.97672e-10 10.2021 0.756583 10.2021 1.6813L10.2021 13.4504C10.2021 14.3751 9.20409 15.1317 7.98431 15.1317ZM14.6376 15.1317L19.0732 15.1317C20.2929 15.1317 21.2909 14.3751 21.2909 13.4504L21.2909 9.24713C21.2909 8.32242 20.2929 7.56583 19.0732 7.56583L14.6376 7.56583C13.4178 7.56583 12.4199 8.32242 12.4199 9.24713L12.4199 13.4504C12.4199 14.3751 13.4178 15.1317 14.6376 15.1317ZM21.2909 4.20324L21.2909 1.6813C21.2909 0.756583 20.2929 7.16929e-10 19.0732 6.70811e-10L14.6376 5.03108e-10C13.4178 4.5699e-10 12.4199 0.756583 12.4199 1.6813L12.4199 4.20324C12.4199 5.12795 13.4178 5.88454 14.6376 5.88454L19.0732 5.88454C20.2929 5.88454 21.2909 5.12795 21.2909 4.20324Z" fill="#5361FD"/>
<g opacity="0.5">
<path fill-rule="evenodd" clip-rule="evenodd" d="M16.9815 70.1077C16.9815 72.5062 14.4448 74.4293 11.2788 74.4293C8.11388 74.4293 5.57612 72.5062 5.57612 70.1077C5.57612 67.7092 8.11388 65.7869 11.2788 65.7869C14.4448 65.7869 16.9815 67.7092 16.9815 70.1077ZM11.2786 81.6391C6.60614 81.6391 2.66102 81.0633 2.66102 78.8421C2.66102 76.62 6.63092 76.0647 11.2786 76.0647C15.9522 76.0647 19.8963 76.6404 19.8963 78.8617C19.8963 81.0837 15.9264 81.6391 11.2786 81.6391Z" fill="white"/>
</g>
</svg>
