<svg width="23" height="215" viewBox="0 0 23 215" fill="none" xmlns="http://www.w3.org/2000/svg">
<path d="M22.1522 136.162L11.7605 132.643C11.5089 132.557 11.2214 132.557 10.9685 132.643L0.577269 136.162C0.238079 136.276 0.0140847 136.529 0.00150575 136.811C-0.0106319 137.093 0.18791 137.356 0.515919 137.488L10.907 141.696C11.0503 141.754 11.2073 141.782 11.3648 141.782C11.5231 141.782 11.6799 141.754 11.8235 141.696L22.215 137.488C22.5427 137.356 22.7415 137.093 22.7296 136.811C22.7154 136.529 22.4919 136.276 22.1522 136.162Z" fill="#5361FD"/>
<path d="M21.298 139.31L11.3639 143.334L1.43143 139.31C0.955929 139.117 0.367145 139.254 0.115125 139.615C-0.138662 139.975 0.0413427 140.422 0.515518 140.614L10.9066 144.822C11.0499 144.88 11.2069 144.909 11.3644 144.909C11.5227 144.909 11.6795 144.881 11.8231 144.822L22.2146 140.614C22.6877 140.422 22.8675 139.975 22.6151 139.615C22.3612 139.254 21.772 139.117 21.298 139.31Z" fill="#5361FD"/>
<path d="M21.298 142.193L11.3639 146.216L1.43143 142.193C0.955929 142.001 0.367145 142.137 0.115125 142.497C-0.138662 142.857 0.0413427 143.305 0.515518 143.497L10.9066 147.704C11.0499 147.762 11.2069 147.791 11.3644 147.791C11.5227 147.791 11.6795 147.763 11.8231 147.704L22.2146 143.497C22.6877 143.305 22.8675 142.858 22.6151 142.497C22.3612 142.137 21.7728 142.001 21.298 142.193Z" fill="#5361FD"/>
<g opacity="0.5">
<path d="M19.4926 206.681C19.4926 206.49 19.4817 206.307 19.4598 206.116L21.4931 204.942C21.9303 204.692 22.0506 204.226 21.7773 203.86L19.7331 201.172C19.602 200.996 19.39 200.863 19.1378 200.798C18.8856 200.734 18.6109 200.742 18.3666 200.823L16.0164 201.58C15.6119 201.363 15.1856 201.172 14.7374 201.014L14.4204 199.091C14.3548 198.675 13.8847 198.359 13.3382 198.359L9.26072 198.359C8.70322 198.359 8.23316 198.675 8.16757 199.091L7.85056 201.014C7.40237 201.172 6.97604 201.363 6.57158 201.58L4.22131 200.823C3.71846 200.656 3.12816 200.806 2.85487 201.172L0.810685 203.868C0.537398 204.235 0.657644 204.692 1.0949 204.95L3.12816 206.124C3.08284 206.498 3.08284 206.874 3.12816 207.247L1.0949 208.421C0.657644 208.67 0.537398 209.137 0.810685 209.503L2.85487 212.191C3.12816 212.557 3.71846 212.707 4.22131 212.54L6.57158 211.783C6.97604 211.999 7.40237 212.191 7.85056 212.349L8.16757 214.271C8.23316 214.688 8.70322 215.004 9.24979 215.004L13.3272 215.004C13.8738 215.004 14.3439 214.688 14.4095 214.271L14.7265 212.349C15.1747 212.191 15.601 211.999 16.0054 211.783L18.3557 212.54C18.8586 212.707 19.4489 212.557 19.7222 212.191L21.7663 209.503C22.0396 209.137 21.9194 208.679 21.4821 208.421L19.4489 207.247C19.4817 207.056 19.4926 206.873 19.4926 206.681ZM11.3377 209.594C9.22793 209.594 7.51168 208.288 7.51168 206.681C7.51168 205.075 9.22793 203.769 11.3377 203.769C13.4475 203.769 15.1637 205.075 15.1637 206.681C15.1637 208.288 13.4475 209.594 11.3377 209.594Z" fill="white"/>
</g>
<g opacity="0.5">
<path d="M7.97209 15.1316L3.54334 15.1316C2.32543 15.1316 1.32896 14.375 1.32896 13.4503L1.32896 1.68129C1.32896 0.756579 2.32543 0 3.54334 0L7.97209 0C9.19 -1.00492e-10 10.1865 0.756579 10.1865 1.68129L10.1865 13.4503C10.1865 14.375 9.19 15.1316 7.97209 15.1316ZM14.6152 15.1316L19.044 15.1316C20.2619 15.1316 21.2583 14.375 21.2583 13.4503L21.2583 9.24707C21.2583 8.32237 20.2619 7.56579 19.044 7.56579L14.6152 7.56579C13.3973 7.56579 12.4008 8.32237 12.4008 9.24707L12.4008 13.4503C12.4008 14.375 13.3973 15.1316 14.6152 15.1316ZM21.2583 4.20322L21.2583 1.68129C21.2583 0.756579 20.2619 -2.4203e-10 19.044 -2.26461e-10L14.6152 -1.69846e-10C13.3973 -1.54276e-10 12.4008 0.756579 12.4008 1.68129L12.4008 4.20322C12.4008 5.12792 13.3973 5.8845 14.6152 5.8845L19.044 5.8845C20.2619 5.8845 21.2583 5.12792 21.2583 4.20322Z" fill="white"/>
</g>
<g opacity="0.5">
<path fill-rule="evenodd" clip-rule="evenodd" d="M16.9555 70.101C16.9555 72.4994 14.4227 74.4226 11.2615 74.4226C8.10146 74.4226 5.56758 72.4994 5.56758 70.101C5.56758 67.7025 8.10146 65.7802 11.2615 65.7802C14.4227 65.7802 16.9555 67.7025 16.9555 70.101ZM11.2614 81.6323C6.59603 81.6323 2.65694 81.0566 2.65694 78.8353C2.65694 76.6133 6.62077 76.058 11.2614 76.058C15.9278 76.058 19.8658 76.6337 19.8658 78.8549C19.8658 81.077 15.902 81.6323 11.2614 81.6323Z" fill="white"/>
</g>
</svg>
