<svg width="64" height="32" viewBox="0 0 64 32" fill="none" xmlns="http://www.w3.org/2000/svg">
<g clip-path="url(#clip0_47_104108)">
<path d="M16.0302 9.92015C16.2402 9.40015 16.8302 8.84015 17.5802 9.05015C18.1802 9.22015 18.5502 9.57015 18.7802 10.0502C18.9802 10.4902 19.0302 11.0102 19.0402 11.5102C19.0286 12.0975 18.9481 12.6816 18.8002 13.2502C18.7402 13.5102 18.6802 13.7602 18.6102 13.9902H19.9902C20.3007 13.9902 20.6069 14.0624 20.8846 14.2013C21.1624 14.3402 21.4039 14.5418 21.5902 14.7902C21.7765 15.0385 21.9024 15.3269 21.958 15.6324C22.0135 15.9379 21.9972 16.2521 21.9102 16.5502L20.5502 21.2002C20.4566 21.5191 20.3002 21.8162 20.0903 22.074C19.8805 22.3318 19.6213 22.5452 19.328 22.7016C19.0347 22.858 18.7131 22.9544 18.3821 22.9851C18.0511 23.0157 17.7173 22.9801 17.4002 22.8802L12.0502 21.2002C11.7597 21.1106 11.4934 20.9559 11.2716 20.748C11.0498 20.5401 10.8783 20.2843 10.7702 20.0002L10.2502 18.6002C10.0867 18.16 10.0832 17.6763 10.2405 17.2339C10.3977 16.7914 10.7056 16.4184 11.1102 16.1802L12.9802 15.0802L13.0002 15.0702L13.1002 14.9802C13.2002 14.9102 13.3302 14.7802 13.5002 14.5802C13.8502 14.1902 14.3202 13.5502 14.8002 12.5402C15.0002 12.1002 15.1702 11.7602 15.3302 11.4402C15.5802 10.9402 15.7902 10.5202 16.0302 9.92015ZM13.5202 15.9202L13.5002 15.9302L11.6202 17.0402C11.4157 17.1596 11.2601 17.3478 11.1814 17.5713C11.1026 17.7947 11.1058 18.0388 11.1902 18.2602L11.7102 19.6402C11.7643 19.7822 11.85 19.9101 11.9609 20.0141C12.0718 20.118 12.205 20.1954 12.3502 20.2402L17.7002 21.9202C18.5002 22.1802 19.3502 21.7202 19.5902 20.9202L20.9502 16.2702C20.9935 16.1219 21.0018 15.9657 20.9746 15.8137C20.9473 15.6617 20.8853 15.5181 20.7932 15.3941C20.7012 15.2701 20.5817 15.1691 20.4441 15.0991C20.3066 15.029 20.1546 14.9917 20.0002 14.9902H17.9302C17.8491 14.9917 17.7688 14.9736 17.6963 14.9372C17.6238 14.9009 17.5612 14.8474 17.5139 14.7814C17.4667 14.7155 17.4362 14.639 17.4251 14.5587C17.414 14.4783 17.4226 14.3964 17.4502 14.3202C17.5502 14.0402 17.7102 13.5502 17.8302 13.0202C17.9602 12.4802 18.0502 11.9402 18.0302 11.5202C18.0302 11.0602 17.9802 10.7202 17.8702 10.4702C17.8198 10.3558 17.7426 10.2552 17.6451 10.1768C17.5477 10.0985 17.4328 10.0448 17.3102 10.0202C17.2702 10.0002 17.2102 10.0102 17.1502 10.0502C17.0635 10.1128 16.9974 10.1998 16.9602 10.3002C16.7102 10.9302 16.4602 11.4102 16.2002 11.9502C16.0402 12.2502 15.8802 12.5802 15.7002 12.9602C15.3277 13.7852 14.8395 14.553 14.2502 15.2402C14.0384 15.4819 13.804 15.7029 13.5502 15.9002L13.5302 15.9102L13.5202 15.9202Z" fill="#2B2B2B"/>
</g>
<g clip-path="url(#clip1_47_104108)">
<path d="M50.5794 18.0004L50.6294 18.4504C50.732 19.3412 50.7253 20.2412 50.6094 21.1304C50.5394 21.5704 50.4094 22.0104 50.1694 22.3604C49.9194 22.7404 49.5294 23.0004 48.9994 23.0004C48.4794 23.0004 48.1694 22.6304 47.9794 22.3004C47.7794 21.9904 47.6194 21.5504 47.4394 21.1004L47.4294 21.0704C46.8794 19.6704 46.1294 17.7604 44.1294 16.4204C43.8194 16.2204 43.5294 16.0604 43.2694 15.9604C42.5694 15.6604 41.9494 14.9004 42.1094 14.0204L42.3394 12.8204C42.4097 12.4545 42.5809 12.1155 42.8335 11.8416C43.0862 11.5678 43.4103 11.3699 43.7694 11.2704L48.7194 9.89041C49.1863 9.76175 49.6748 9.73139 50.1541 9.80125C50.6333 9.87111 51.0929 10.0397 51.5036 10.2963C51.9143 10.5529 52.2674 10.8919 52.5403 11.292C52.8133 11.692 53.0003 12.1444 53.0894 12.6204L53.5494 15.0404C53.617 15.4016 53.6042 15.7733 53.5118 16.129C53.4194 16.4847 53.2497 16.8157 53.0148 17.0983C52.7799 17.381 52.4856 17.6083 52.1528 17.7643C51.82 17.9202 51.4569 18.0008 51.0894 18.0004H50.5794ZM52.1094 12.8004C52.0447 12.4603 51.91 12.1374 51.714 11.8521C51.518 11.5668 51.2648 11.3253 50.9706 11.1429C50.6763 10.9605 50.3474 10.8412 50.0046 10.7926C49.6619 10.744 49.3128 10.7671 48.9794 10.8604L44.0294 12.2304C43.8501 12.2813 43.6887 12.3814 43.5632 12.5192C43.4378 12.657 43.3533 12.8272 43.3194 13.0104L43.0994 14.2104C43.0394 14.4904 43.2594 14.8704 43.6494 15.0304C43.9594 15.1604 44.3094 15.3404 44.6794 15.5804C46.9594 17.1104 47.8094 19.2804 48.3494 20.6904L48.3594 20.7104C48.5594 21.2104 48.6894 21.5604 48.8294 21.7904C48.8725 21.8704 48.9302 21.9416 48.9994 22.0004C49.1394 22.0004 49.2494 21.9504 49.3494 21.8004C49.4694 21.6204 49.5694 21.3404 49.6294 20.9704C49.7652 19.9326 49.7382 18.8799 49.5494 17.8504L49.5194 17.6504L49.5094 17.6004C49.4946 17.5278 49.4961 17.4527 49.5138 17.3807C49.5316 17.3087 49.5651 17.2416 49.612 17.1841C49.6589 17.1267 49.718 17.0804 49.785 17.0487C49.852 17.0169 49.9253 17.0004 49.9994 17.0004H51.0894C51.3098 16.9999 51.5274 16.9508 51.7267 16.8566C51.9259 16.7624 52.102 16.6255 52.2424 16.4556C52.3827 16.2856 52.4839 16.0868 52.5387 15.8734C52.5935 15.6599 52.6006 15.4369 52.5594 15.2204L52.1094 12.8004Z" fill="#2B2B2B"/>
</g>
<defs>
<clipPath id="clip0_47_104108">
<rect width="16" height="16" fill="white" transform="translate(8 8)"/>
</clipPath>
<clipPath id="clip1_47_104108">
<rect width="16" height="16" fill="white" transform="translate(40 8)"/>
</clipPath>
</defs>
</svg>
