<svg width="20" height="20" viewBox="0 0 20 20" fill="none" xmlns="http://www.w3.org/2000/svg">
<path fill-rule="evenodd" clip-rule="evenodd" d="M6.94987 2.24329C7.88929 1.87365 8.99031 2.91749 9.99984 2.91749C11.0094 2.91749 12.1104 1.87365 13.0498 2.24328C13.1437 2.28024 13.2368 2.31885 13.329 2.35908C14.2539 2.76259 14.295 4.27823 15.0085 4.99178C15.7221 5.70536 17.2378 5.74629 17.6414 6.67123C17.6817 6.76358 17.7204 6.8568 17.7574 6.95086C18.127 7.89028 17.0832 8.9913 17.0832 10.0008C17.0832 11.0103 18.127 12.1114 17.7574 13.0508C17.7205 13.1446 17.6819 13.2376 17.6417 13.3297C17.2382 14.2547 15.7222 14.2956 15.0085 15.0093C14.2949 15.7229 14.254 17.239 13.3289 17.6426C13.2368 17.6828 13.1437 17.7214 13.0498 17.7584C12.1104 18.128 11.0094 17.0842 9.99986 17.0842C8.99033 17.0842 7.88932 18.128 6.94989 17.7584C6.85599 17.7214 6.76292 17.6828 6.67071 17.6426C5.7457 17.239 5.70478 15.7231 4.99117 15.0095C4.27755 14.2959 2.76162 14.255 2.35808 13.3299C2.31786 13.2377 2.27925 13.1447 2.24231 13.0508C1.87267 12.1114 2.91651 11.0103 2.91651 10.0008C2.91651 8.99129 1.87268 7.89027 2.24231 6.95085C2.27929 6.85688 2.31792 6.76374 2.35818 6.67147C2.76174 5.74649 4.27757 5.70556 4.99117 4.99196C5.70475 4.27838 5.74573 2.7626 6.67069 2.35907C6.7629 2.31884 6.85597 2.28024 6.94987 2.24329Z" fill="#3749E9"/>
<path fill-rule="evenodd" clip-rule="evenodd" d="M14.01 7.6464C14.1105 7.74017 14.167 7.86733 14.167 7.99991C14.167 8.1325 14.1105 8.25966 14.01 8.35343L9.72046 12.3536C9.61991 12.4473 9.48355 12.5 9.34137 12.5C9.19919 12.5 9.06283 12.4473 8.96228 12.3536L6.81751 10.3535C6.71984 10.2592 6.66579 10.1329 6.66701 10.0018C6.66823 9.8707 6.72462 9.74528 6.82404 9.65258C6.92345 9.55987 7.05794 9.50728 7.19853 9.50614C7.33911 9.505 7.47456 9.5554 7.57568 9.64649L9.34137 11.2931L13.2518 7.6464C13.3524 7.55266 13.4887 7.5 13.6309 7.5C13.7731 7.5 13.9095 7.55266 14.01 7.6464Z" fill="white"/>
</svg>
