<svg width="320" height="80" viewBox="0 0 320 80" fill="none" xmlns="http://www.w3.org/2000/svg">
<g clip-path="url(#clip0_47_81208)">
<path fill-rule="evenodd" clip-rule="evenodd" d="M39 44.067C39 37.955 34.075 33 28 33C21.925 33 17 37.955 17 44.067C17 49.591 21.023 54.17 26.281 55V47.266H23.488V44.067H26.281V41.63C26.281 38.856 27.924 37.324 30.436 37.324C31.64 37.324 32.898 37.54 32.898 37.54V40.264H31.511C30.145 40.264 29.719 41.117 29.719 41.992V44.068H32.769L32.282 47.268H29.719V55C34.977 54.17 39 49.591 39 44.067Z" fill="#3F3F46"/>
</g>
<g clip-path="url(#clip1_47_81208)">
<path fill-rule="evenodd" clip-rule="evenodd" d="M84.783 53C92.329 53 96.459 46.458 96.459 40.794C96.459 40.61 96.459 40.426 96.451 40.242C97.2604 39.6272 97.9542 38.8735 98.5 38.016C97.7527 38.3615 96.9567 38.5902 96.14 38.694C97.0078 38.1442 97.6494 37.301 97.948 36.318C97.1464 36.8158 96.2626 37.167 95.338 37.355C94.587 36.52 93.523 36 92.347 36C90.08 36 88.24 37.924 88.24 40.292C88.24 40.626 88.28 40.952 88.344 41.271C84.934 41.095 81.909 39.38 79.884 36.786C79.5195 37.4471 79.3295 38.1901 79.332 38.945C79.332 40.435 80.061 41.748 81.157 42.517C80.5037 42.4925 79.8662 42.3089 79.3 41.982V42.04C79.3 44.115 80.717 45.855 82.59 46.249C82.245 46.349 81.885 46.399 81.51 46.399C81.245 46.399 80.989 46.374 80.74 46.324C81.261 48.031 82.782 49.269 84.574 49.302C83.7358 49.9962 82.7649 50.5122 81.7205 50.8186C80.6762 51.125 79.5804 51.2153 78.5 51.084C80.3586 52.3303 82.5452 52.9971 84.783 53Z" fill="#3F3F46"/>
</g>
<g clip-path="url(#clip2_47_81208)">
<path fill-rule="evenodd" clip-rule="evenodd" d="M143.465 33.066C144.638 33.013 145.013 33 148 33C150.987 33 151.362 33.013 152.535 33.066C153.706 33.12 154.505 33.306 155.205 33.578C155.939 33.8538 156.604 34.2866 157.154 34.846C157.713 35.3957 158.146 36.0608 158.422 36.795C158.694 37.495 158.88 38.294 158.934 39.465C158.987 40.638 159 41.013 159 44C159 46.987 158.987 47.362 158.934 48.535C158.88 49.706 158.694 50.505 158.422 51.205C158.146 51.9392 157.713 52.6043 157.154 53.154C156.604 53.7134 155.939 54.1462 155.205 54.422C154.505 54.694 153.706 54.88 152.535 54.934C151.362 54.987 150.987 55 148 55C145.013 55 144.638 54.987 143.465 54.934C142.294 54.88 141.495 54.694 140.795 54.422C140.061 54.1461 139.396 53.7134 138.846 53.154C138.286 52.6044 137.853 51.9392 137.577 51.205C137.306 50.505 137.12 49.706 137.067 48.535C137.012 47.362 137 46.987 137 44C137 41.013 137.013 40.638 137.066 39.465C137.12 38.294 137.306 37.495 137.577 36.795C137.853 36.0607 138.287 35.3955 138.847 34.846C139.396 34.2867 140.061 33.854 140.795 33.578C141.495 33.306 142.294 33.12 143.465 33.066ZM152.445 35.046C151.285 34.993 150.937 34.982 148 34.982C145.063 34.982 144.715 34.993 143.555 35.046C142.483 35.095 141.9 35.274 141.512 35.425C140.999 35.625 140.632 35.863 140.248 36.248C139.883 36.6029 139.601 37.0351 139.425 37.513C139.275 37.9 139.095 38.483 139.046 39.555C138.993 40.715 138.982 41.063 138.982 44C138.982 46.937 138.993 47.285 139.046 48.445C139.095 49.517 139.274 50.1 139.425 50.488C139.625 51.001 139.863 51.368 140.248 51.752C140.633 52.137 140.999 52.376 141.512 52.575C141.9 52.725 142.482 52.905 143.555 52.954C144.715 53.007 145.063 53.018 148 53.018C150.937 53.018 151.285 53.007 152.445 52.954C153.517 52.905 154.1 52.726 154.487 52.575C155.001 52.375 155.367 52.137 155.752 51.752C156.117 51.3974 156.398 50.9655 156.575 50.488C156.725 50.1 156.905 49.518 156.954 48.445C157.007 47.285 157.018 46.937 157.018 44C157.018 41.063 157.007 40.715 156.954 39.555C156.904 38.483 156.726 37.9 156.575 37.513C156.399 37.0352 156.117 36.6029 155.752 36.248C155.397 35.8826 154.965 35.6014 154.487 35.425C154.1 35.275 153.517 35.095 152.445 35.046ZM144.333 44C144.333 44.9725 144.719 45.9053 145.407 46.593C146.095 47.2807 147.027 47.667 148 47.667C148.973 47.667 149.905 47.2807 150.593 46.593C151.281 45.9053 151.667 44.9725 151.667 44C151.667 43.0275 151.281 42.0947 150.593 41.407C149.905 40.7193 148.973 40.333 148 40.333C147.027 40.333 146.095 40.7193 145.407 41.407C144.719 42.0947 144.333 43.0275 144.333 44ZM142.351 44C142.351 42.5018 142.946 41.0649 144.006 40.0056C145.065 38.9462 146.502 38.351 148 38.351C149.498 38.351 150.935 38.9462 151.994 40.0056C153.054 41.0649 153.649 42.5018 153.649 44C153.649 45.4983 153.054 46.9353 151.994 47.9948C150.935 49.0543 149.498 49.6495 148 49.6495C146.501 49.6495 145.064 49.0543 144.005 47.9948C142.945 46.9353 142.351 45.4983 142.351 44ZM153.871 39.448C154.221 39.448 154.557 39.3089 154.804 39.0614C155.052 38.8138 155.191 38.4781 155.191 38.128C155.191 37.7779 155.052 37.4422 154.804 37.1946C154.557 36.9471 154.221 36.808 153.871 36.808C153.521 36.808 153.185 36.9471 152.938 37.1946C152.69 37.4422 152.551 37.7779 152.551 38.128C152.551 38.4781 152.69 38.8138 152.938 39.0614C153.185 39.3089 153.521 39.448 153.871 39.448Z" fill="#3F3F46"/>
</g>
<g clip-path="url(#clip3_47_81208)">
<path fill-rule="evenodd" clip-rule="evenodd" d="M207.749 36C206.755 36.003 202.953 36.031 200.298 36.23C199.868 36.283 198.93 36.287 198.093 37.194C197.433 37.884 197.219 39.452 197.219 39.452C197.219 39.452 197.017 41.14 197 42.898V45.096C197.017 46.855 197.219 48.542 197.219 48.542C197.219 48.542 197.433 50.11 198.093 50.8C198.93 51.707 200.03 51.678 200.52 51.773C202.13 51.933 207.053 51.991 207.88 52H208.29C209.349 51.994 213.083 51.96 215.701 51.764C216.131 51.711 217.069 51.707 217.906 50.8C218.566 50.11 218.78 48.542 218.78 48.542C218.78 48.542 219 46.7 219 44.86V43.134C219 41.292 218.78 39.452 218.78 39.452C218.78 39.452 218.566 37.884 217.906 37.194C217.069 36.287 216.131 36.284 215.701 36.23C213.045 36.031 209.244 36.003 208.249 36H207.749ZM205.727 40.56L211.672 43.768L205.728 46.955L205.727 40.56Z" fill="#3F3F46"/>
</g>
<defs>
<clipPath id="clip0_47_81208">
<rect width="24" height="24" fill="white" transform="translate(16 32)"/>
</clipPath>
<clipPath id="clip1_47_81208">
<rect width="24" height="24" fill="white" transform="translate(76 32)"/>
</clipPath>
<clipPath id="clip2_47_81208">
<rect width="24" height="24" fill="white" transform="translate(136 32)"/>
</clipPath>
<clipPath id="clip3_47_81208">
<rect width="24" height="24" fill="white" transform="translate(196 32)"/>
</clipPath>
</defs>
</svg>
