<svg width="21" height="19" viewBox="0 0 21 19" fill="none" xmlns="http://www.w3.org/2000/svg">
<path d="M18.2199 6.703C16.3979 6.703 15.653 5.41452 16.5589 3.83413C17.0824 2.9181 16.7703 1.75042 15.8543 1.22697L14.1128 0.230417C13.3176 -0.242695 12.2909 0.039159 11.8177 0.834391L11.707 1.02565C10.8011 2.60605 9.31126 2.60605 8.39523 1.02565L8.2845 0.834391C7.83152 0.039159 6.80477 -0.242695 6.00954 0.230417L4.26808 1.22697C3.35205 1.75042 3.04 2.92817 3.56344 3.84419C4.47947 5.41452 3.73457 6.703 1.91258 6.703C0.865695 6.703 0 7.55863 0 8.61558V10.3872C0 11.4341 0.855629 12.2998 1.91258 12.2998C3.73457 12.2998 4.47947 13.5883 3.56344 15.1687C3.04 16.0847 3.35205 17.2524 4.26808 17.7758L6.00954 18.7724C6.80477 19.2455 7.83152 18.9637 8.30464 18.1684L8.41536 17.9772C9.32132 16.3968 10.8111 16.3968 11.7272 17.9772L11.8379 18.1684C12.311 18.9637 13.3377 19.2455 14.133 18.7724L15.8744 17.7758C16.7905 17.2524 17.1025 16.0747 16.5791 15.1687C15.663 13.5883 16.4079 12.2998 18.2299 12.2998C19.2768 12.2998 20.1425 11.4442 20.1425 10.3872V8.61558C20.1325 7.56869 19.2768 6.703 18.2199 6.703ZM10.0662 12.7729C8.26437 12.7729 6.7947 11.3033 6.7947 9.50141C6.7947 7.69956 8.26437 6.22989 10.0662 6.22989C11.8681 6.22989 13.3377 7.69956 13.3377 9.50141C13.3377 11.3033 11.8681 12.7729 10.0662 12.7729Z" fill="#B0B0B0"/>
</svg>
