<svg width="190" height="127" viewBox="0 0 190 127" fill="none" xmlns="http://www.w3.org/2000/svg">
<path d="M82.7093 35.4004H143.963C145.008 35.4032 146.009 35.8194 146.748 36.5581C147.487 37.2968 147.903 38.2979 147.906 39.3426V92.6754C147.903 93.7201 147.487 94.7212 146.748 95.4599C146.009 96.1986 145.008 96.6148 143.963 96.6176H48.4065C47.3619 96.6148 46.3608 96.1986 45.6221 95.4599C44.8834 94.7212 44.4671 93.7201 44.4644 92.6754V39.3426C44.4671 38.2979 44.8834 37.2968 45.6221 36.5581C46.3608 35.8194 47.3619 35.4032 48.4065 35.4004H58.1854" stroke="white" stroke-width="2.11094" stroke-linecap="round" stroke-linejoin="round"/>
<path opacity="0.3" d="M173.311 111.283H132.612" stroke="white" stroke-width="2.11094" stroke-miterlimit="10" stroke-linecap="round"/>
<path opacity="0.3" d="M107.512 111.283H101.18" stroke="white" stroke-width="2.11094" stroke-miterlimit="10" stroke-linecap="round"/>
<path opacity="0.3" d="M93.5751 111.283H62.3438" stroke="white" stroke-width="2.11094" stroke-miterlimit="10" stroke-linecap="round"/>
<path opacity="0.3" d="M39.7148 111.283H18.4365" stroke="white" stroke-width="2.11094" stroke-miterlimit="10" stroke-linecap="round"/>
<path opacity="0.3" d="M24.8164 92.7177L60.4015 67.9775L84.6773 79.6246L108.953 55.5177L139.857 66.009L165.774 45.1055" stroke="white" stroke-width="2.11094" stroke-miterlimit="10" stroke-linecap="round" stroke-dasharray="1.06 4.22"/>
<path d="M108.394 58.2303C110.07 58.2303 111.428 56.8717 111.428 55.1958C111.428 53.52 110.07 52.1614 108.394 52.1614C106.718 52.1614 105.359 53.52 105.359 55.1958C105.359 56.8717 106.718 58.2303 108.394 58.2303Z" fill="white" stroke="#81B441" stroke-width="1.5832" stroke-miterlimit="10" stroke-linecap="round"/>
<path d="M165.774 48.1451C167.45 48.1451 168.809 46.7865 168.809 45.1106C168.809 43.4348 167.45 42.0762 165.774 42.0762C164.098 42.0762 162.74 43.4348 162.74 45.1106C162.74 46.7865 164.098 48.1451 165.774 48.1451Z" fill="white" stroke="#81B441" stroke-width="1.5832" stroke-miterlimit="10" stroke-linecap="round"/>
<path d="M60.7234 70.6268C62.3993 70.6268 63.7579 69.2682 63.7579 67.5923C63.7579 65.9164 62.3993 64.5579 60.7234 64.5579C59.0475 64.5579 57.689 65.9164 57.689 67.5923C57.689 69.2682 59.0475 70.6268 60.7234 70.6268Z" fill="white" stroke="#81B441" stroke-width="1.5832" stroke-miterlimit="10" stroke-linecap="round"/>
<path d="M84.324 81.9203C85.9999 81.9203 87.3585 80.5617 87.3585 78.8858C87.3585 77.2099 85.9999 75.8513 84.324 75.8513C82.6481 75.8513 81.2896 77.2099 81.2896 78.8858C81.2896 80.5617 82.6481 81.9203 84.324 81.9203Z" fill="white" stroke="#81B441" stroke-width="1.5832" stroke-miterlimit="10" stroke-linecap="round"/>
<path d="M26.1362 95.4356L24.8116 94.074L26.1678 92.7547C26.3347 92.5787 26.4271 92.3449 26.4256 92.1024C26.424 91.8598 26.3288 91.6273 26.1596 91.4534C25.9905 91.2795 25.7607 91.1777 25.5183 91.1695C25.2759 91.1612 25.0396 91.247 24.8591 91.409L23.5028 92.7283L22.1729 91.372C21.9969 91.2051 21.7631 91.1127 21.5206 91.1143C21.278 91.1158 21.0455 91.2111 20.8716 91.3802C20.6977 91.5493 20.5959 91.7791 20.5877 92.0216C20.5794 92.264 20.6652 92.5002 20.8272 92.6808L22.1465 94.0371L20.7902 95.3564C20.696 95.4409 20.6198 95.5436 20.5663 95.6582C20.5127 95.7729 20.4829 95.8972 20.4786 96.0237C20.4743 96.1502 20.4955 96.2762 20.5411 96.3943C20.5868 96.5123 20.6557 96.6199 20.744 96.7107C20.8322 96.8014 20.9379 96.8734 21.0546 96.9222C21.1713 96.9711 21.2968 96.9959 21.4233 96.9951C21.5499 96.9943 21.6749 96.9679 21.7911 96.9176C21.9072 96.8672 22.0119 96.794 22.099 96.7021L23.4553 95.3828L24.7746 96.7391C24.9506 96.906 25.1844 96.9983 25.4269 96.9968C25.6695 96.9953 25.902 96.9 26.0759 96.7309C26.2498 96.5618 26.3515 96.3319 26.3598 96.0895C26.3681 95.8471 26.2823 95.6109 26.1203 95.4303L26.1362 95.4356Z" fill="#81B441"/>
<path opacity="0.3" d="M68.3229 52.8262H51.5674" stroke="white" stroke-width="2.11094" stroke-miterlimit="10" stroke-linecap="round"/>
<path opacity="0.3" d="M84.8252 57.6655H51.5674" stroke="white" stroke-width="2.11094" stroke-miterlimit="10" stroke-linecap="round"/>
<path opacity="0.3" d="M73.9486 43.137H51.5674" stroke="white" stroke-width="2.11094" stroke-miterlimit="10" stroke-linecap="round"/>
<path opacity="0.3" d="M81.8171 43.137H78.3921" stroke="white" stroke-width="2.11094" stroke-miterlimit="10" stroke-linecap="round"/>
<path opacity="0.3" d="M94.3507 43.137H88.4189" stroke="white" stroke-width="2.11094" stroke-miterlimit="10" stroke-linecap="round"/>
<path d="M146.201 104.676C153.706 104.676 159.79 98.592 159.79 91.087C159.79 83.5819 153.706 77.4978 146.201 77.4978C138.696 77.4978 132.612 83.5819 132.612 91.087C132.612 98.592 138.696 104.676 146.201 104.676Z" fill="white"/>
<path d="M146.792 102.185C152.793 102.185 157.658 97.3203 157.658 91.3192C157.658 85.318 152.793 80.4531 146.792 80.4531C140.791 80.4531 135.926 85.318 135.926 91.3192C135.926 97.3203 140.791 102.185 146.792 102.185Z" stroke="#81B441" stroke-width="2.11094" stroke-miterlimit="10" stroke-linecap="round"/>
<path opacity="0.22" d="M148.29 104.465C154.548 104.465 159.621 99.3923 159.621 93.1347C159.621 86.877 154.548 81.8042 148.29 81.8042C142.033 81.8042 136.96 86.877 136.96 93.1347C136.96 99.3923 142.033 104.465 148.29 104.465Z" fill="#81B441"/>
<path d="M142.343 92.2321L144.702 94.591L151.246 88.0471" stroke="#81B441" stroke-width="2.11094" stroke-linecap="round" stroke-linejoin="round"/>
<path opacity="0.3" d="M73.9488 29.7907C75.1147 29.7907 76.0598 28.8456 76.0598 27.6798C76.0598 26.5139 75.1147 25.5688 73.9488 25.5688C72.783 25.5688 71.8379 26.5139 71.8379 27.6798C71.8379 28.8456 72.783 29.7907 73.9488 29.7907Z" stroke="white" stroke-width="1.05547" stroke-miterlimit="10"/>
<path opacity="0.3" d="M148.592 19.5684H147.008V17.943C147.008 17.733 146.925 17.5317 146.776 17.3832C146.628 17.2348 146.427 17.1514 146.217 17.1514C146.007 17.1514 145.805 17.2348 145.657 17.3832C145.509 17.5317 145.425 17.733 145.425 17.943V19.5262H143.842C143.632 19.5262 143.431 19.6096 143.282 19.758C143.134 19.9065 143.05 20.1078 143.05 20.3178C143.05 20.5277 143.134 20.7291 143.282 20.8775C143.431 21.026 143.632 21.1094 143.842 21.1094H145.425V22.6926C145.425 22.9025 145.509 23.1039 145.657 23.2523C145.805 23.4008 146.007 23.4842 146.217 23.4842C146.427 23.4842 146.628 23.4008 146.776 23.2523C146.925 23.1039 147.008 22.9025 147.008 22.6926V21.1094H148.592C148.801 21.1094 149.003 21.026 149.151 20.8775C149.3 20.7291 149.383 20.5277 149.383 20.3178C149.383 20.1078 149.3 19.9065 149.151 19.758C149.003 19.6096 148.801 19.5262 148.592 19.5262V19.5684Z" fill="white"/>
<path opacity="0.3" d="M118.278 87.9944H95.897" stroke="white" stroke-width="2.11094" stroke-miterlimit="10" stroke-linecap="round"/>
<path opacity="0.3" d="M126.147 87.9944H122.722" stroke="white" stroke-width="2.11094" stroke-miterlimit="10" stroke-linecap="round"/>
</svg>
