<svg width="64" height="64" viewBox="0 0 64 64" fill="none" xmlns="http://www.w3.org/2000/svg">
<path d="M40.3478 37.4476C40.3388 37.2488 40.2731 37.0567 40.1584 36.894C40.0438 36.7313 39.885 36.6048 39.7008 36.5294C38.9115 36.1964 38.0636 36.0249 37.207 36.0249C36.3503 36.0249 35.5023 36.1964 34.713 36.5294C34.1 36.8003 33.5359 37.1705 33.0434 37.625V34.6094C34.7479 34.5681 36.3808 33.9164 37.6452 32.7728C38.8885 31.5775 39.7569 30.0459 40.1442 28.3652C40.5315 26.6845 40.4209 24.9274 39.8261 23.3085C39.7707 23.1358 39.6715 22.9805 39.5379 22.858C39.4043 22.7354 39.2411 22.6496 39.0643 22.6094C38.8034 22.6094 38.5321 22.5154 38.2608 22.4841V18.4354C38.2612 18.1675 38.1584 17.9097 37.9739 17.7154C37.7894 17.5212 37.5371 17.4053 37.2695 17.392C34.9697 17.2593 32.6776 17.7611 30.6434 18.8424C29.3825 18.5233 28.0823 18.3863 26.7826 18.4354C26.5058 18.4354 26.2404 18.5454 26.0447 18.7411C25.849 18.9368 25.7391 19.2022 25.7391 19.4789V22.5154C25.4783 22.6094 25.2069 22.6094 24.9461 22.6094C24.7716 22.6478 24.61 22.7303 24.4767 22.849C24.3433 22.9678 24.2426 23.1188 24.1843 23.2876C23.5771 24.9106 23.4651 26.6773 23.8626 28.364C24.2601 30.0506 25.1492 31.5814 26.4173 32.7624C27.674 33.8786 29.2772 34.5272 30.9565 34.5989V37.6354C30.4663 37.1753 29.9018 36.8014 29.2869 36.5294C28.4957 36.1967 27.6461 36.0254 26.7878 36.0254C25.9295 36.0254 25.0798 36.1967 24.2886 36.5294C24.1064 36.6063 23.9498 36.7335 23.8371 36.8961C23.7244 37.0587 23.6603 37.2499 23.6521 37.4476C23.6289 38.4382 23.8489 39.4194 24.2928 40.3054C24.7366 41.1912 25.3909 41.9549 26.1982 42.5293C27.1267 43.1445 28.2149 43.4746 29.3287 43.4789C29.8788 43.4824 30.4268 43.4087 30.9565 43.2598V45.5659C30.9565 45.8426 31.0664 46.108 31.2621 46.3037C31.4578 46.4994 31.7232 46.6094 32 46.6094C32.2767 46.6094 32.5421 46.4994 32.7378 46.3037C32.9335 46.108 33.0434 45.8426 33.0434 45.5659V43.2598C33.5597 43.4048 34.0933 43.4786 34.6295 43.4789C35.7436 43.4764 36.8323 43.1462 37.76 42.5293C38.5704 41.9551 39.2294 41.1926 39.6801 40.3074C40.1309 39.4222 40.36 38.4408 40.3478 37.4476ZM27.3565 40.7972C26.9381 40.5019 26.5838 40.125 26.3148 39.6892C26.0459 39.2535 25.8678 38.7679 25.7913 38.2615C26.6789 38.0488 27.6113 38.1256 28.4521 38.4806C29.0045 38.7394 29.4969 39.1107 29.8975 39.5707C30.2982 40.0307 30.5985 40.5693 30.7791 41.1519C30.2221 41.3724 29.6202 41.4552 29.0244 41.3934C28.4285 41.3316 27.8564 41.1271 27.3565 40.7972ZM36.247 31.2285C35.9084 31.5314 35.5333 31.7908 35.1304 32.0007C35.352 29.9802 34.8968 27.9434 33.8365 26.2093C33.753 26.0737 33.6382 25.9485 33.5443 25.8128C34.1761 25.3067 34.9045 24.9346 35.6849 24.7193C36.4654 24.504 37.2815 24.4501 38.0835 24.5606C38.3991 25.7349 38.3953 26.9722 38.0724 28.1445C37.7496 29.3167 37.1193 30.3815 36.247 31.2285ZM36.1739 19.4789V22.1294C36.1319 22.0375 36.0755 21.953 36.0069 21.8789C35.6034 21.4693 35.171 21.0892 34.713 20.7415C34.3021 20.4445 33.8734 20.1727 33.4296 19.9276C34.3208 19.6589 35.2434 19.508 36.1739 19.4789ZM33.4608 22.4215C33.7119 22.6094 33.949 22.8152 34.1704 23.0372C33.4141 23.3393 32.7099 23.7584 32.0834 24.2789C30.859 23.2995 29.3836 22.6848 27.8261 22.505V20.5224C29.8536 20.5686 31.819 21.231 33.4608 22.4215ZM25.9791 24.5711C26.9397 24.4445 27.9165 24.5427 28.8327 24.8578C29.7489 25.1728 30.5795 25.6962 31.2591 26.3867L31.3426 26.512H31.4261C31.645 26.7627 31.8472 27.0276 32.0313 27.305C32.9121 28.7858 33.241 30.5303 32.96 32.2302C32.0755 32.5315 31.1271 32.5937 30.2109 32.4105C29.2946 32.2273 28.4431 31.805 27.7426 31.1867C26.879 30.3458 26.259 29.2868 25.9485 28.1221C25.6381 26.9573 25.6486 25.7303 25.9791 24.5711ZM36.633 40.7972C36.1308 41.1228 35.5573 41.3223 34.9614 41.3787C34.3655 41.435 33.7648 41.3464 33.2104 41.1207C33.3933 40.5376 33.6956 39.9989 34.098 39.539C34.5004 39.0792 34.9942 38.708 35.5478 38.4494C36.3883 38.1041 37.3175 38.0383 38.1982 38.2615C38.1218 38.7679 37.9436 39.2535 37.6747 39.6892C37.4057 40.125 37.0513 40.5019 36.633 40.7972Z" fill="#213A52"/>
</svg>
