<svg width="8" height="10" viewBox="0 0 8 10" fill="none" xmlns="http://www.w3.org/2000/svg">
<path d="M0.176046 2.53648C-0.0666135 2.79314 -0.050614 3.27446 0.176046 3.53645L0.597366 4.02377L2.42398 6.13837L3.56861 7.463C3.8026 7.73432 4.19792 7.73432 4.43192 7.463L4.8539 6.97501L6.68051 4.86041L7.82515 3.53578C8.06714 3.25779 8.04914 2.81914 7.82515 2.53648C7.60315 2.25649 7.18717 2.27515 6.96117 2.53648L6.53985 3.02446L4.71324 5.13907C4.33192 5.57905 3.94926 6.02304 3.56861 6.46369H4.43192L4.0106 5.97571L2.18398 3.86111L1.03935 2.53648C0.79936 2.25849 0.420038 2.27715 0.176046 2.53648Z" fill="#2E3133"/>
</svg>
