<svg width="30" height="30" viewBox="0 0 30 30" fill="none" xmlns="http://www.w3.org/2000/svg">
<g clip-path="url(#clip0_47_50076)">
<path d="M16.5001 18.1878C16.9688 18.1878 21.7501 18.2815 25.2188 23.5315C26.1563 25.0315 25.6876 27.0003 24.1876 27.7503C20.8126 29.344 14.8126 31.5003 7.87507 27.6565C6.46882 26.8128 5.81257 24.5628 6.75007 23.1565C8.34382 21.0003 11.3438 18.094 16.5001 18.1878Z" fill="#4A6370"/>
<path d="M16.4061 19.4071C16.7811 19.4071 20.9061 19.5009 23.9061 23.6259C24.7499 24.7509 24.2811 26.4384 22.9686 27.0009C20.1561 28.3134 14.8124 29.7196 8.90615 26.7196C7.6874 26.0634 7.3124 24.4696 8.0624 23.3446C9.46865 21.5634 11.9999 19.3134 16.4061 19.4071Z" fill="#A2B6BA"/>
<path d="M16.4062 19.5932C16.7812 19.5932 20.0625 19.687 22.5 23.062C23.1562 23.9995 22.7812 25.312 21.75 25.7807C19.4062 26.812 15.0937 28.0307 10.3125 25.5932C9.28125 25.0307 9 23.812 9.65625 22.8745C10.6875 21.3745 12.75 19.4995 16.4062 19.5932Z" fill="#87999B"/>
<path d="M15.6563 25.0313C22.5943 25.0313 28.2188 19.4068 28.2188 12.4688C28.2188 5.53067 22.5943 -0.09375 15.6563 -0.09375C8.71817 -0.09375 3.09375 5.53067 3.09375 12.4688C3.09375 19.4068 8.71817 25.0313 15.6563 25.0313Z" fill="#4A6370"/>
<path d="M15.6563 23.25C21.8177 23.25 26.8125 18.2552 26.8125 12.0938C26.8125 5.93232 21.8177 0.9375 15.6563 0.9375C9.49482 0.9375 4.5 5.93232 4.5 12.0938C4.5 18.2552 9.49482 23.25 15.6563 23.25Z" fill="#A2B6BA"/>
<path d="M16.125 21.4688C21.8204 21.4688 26.4375 16.8517 26.4375 11.1562C26.4375 5.46081 21.8204 0.84375 16.125 0.84375C10.4296 0.84375 5.8125 5.46081 5.8125 11.1562C5.8125 16.8517 10.4296 21.4688 16.125 21.4688Z" fill="#CBDEE4"/>
<path d="M22.0911 10.7496C23.7462 10.7496 25.088 9.40784 25.088 7.75272C25.088 6.0976 23.7462 4.75586 22.0911 4.75586C20.436 4.75586 19.0942 6.0976 19.0942 7.75272C19.0942 9.40784 20.436 10.7496 22.0911 10.7496Z" fill="#4A6370"/>
<path d="M22.0908 9.81627C23.1775 9.81627 24.0585 8.9353 24.0585 7.84856C24.0585 6.76183 23.1775 5.88086 22.0908 5.88086C21.004 5.88086 20.123 6.76183 20.123 7.84856C20.123 8.9353 21.004 9.81627 22.0908 9.81627Z" fill="#51C86E"/>
<path d="M13.5938 7.125C13.5938 7.125 14.1562 3.09375 17.1562 1.5C17.5312 1.21875 17.4375 0.9375 17.0625 0.9375H16.5C16.0313 0.9375 12.6562 1.125 11.4375 7.3125L13.5938 7.125Z" fill="#A2B6BA"/>
<path d="M19.4682 13.6068C19.4825 9.6718 16.5139 6.47103 12.8378 6.45771C9.16162 6.44439 6.16995 9.62356 6.1557 13.5586C6.14144 17.4936 9.10999 20.6944 12.7861 20.7077C16.4623 20.721 19.4539 17.5419 19.4682 13.6068Z" fill="#4A6370"/>
<path d="M18.0593 13.2867C18.0701 10.2836 15.8124 7.84097 13.0165 7.83084C10.2205 7.82071 7.94513 10.247 7.93425 13.25C7.92337 16.253 10.1811 18.6957 12.9771 18.7058C15.773 18.716 18.0484 16.2897 18.0593 13.2867Z" fill="#3587C4"/>
<path d="M17.2326 13.0794C17.2416 10.5941 15.3601 8.57255 13.0302 8.56411C10.7002 8.55567 8.80412 10.5635 8.79511 13.0488C8.78611 15.5341 10.6676 17.5557 12.9976 17.5641C15.3275 17.5726 17.2236 15.5647 17.2326 13.0794Z" fill="#4DA3EC"/>
<path d="M15.3501 11.0108C15.3526 10.3377 14.8089 9.79006 14.1358 9.78762C13.4627 9.78518 12.9151 10.3289 12.9126 11.002C12.9102 11.6751 13.4539 12.2227 14.127 12.2251C14.8001 12.2276 15.3477 11.6839 15.3501 11.0108Z" fill="white"/>
<path d="M15.897 3.55981C16.2887 3.16816 16.6803 2.69818 17.2287 2.30653C17.3853 2.14987 17.6203 2.07154 17.8553 2.14987C18.4036 2.30653 19.3436 2.61985 20.5185 3.32482C21.1452 3.71647 20.8318 4.73476 20.1269 4.65643C19.1086 4.5781 17.9336 4.5781 16.5237 4.73476C15.8187 4.89142 15.4271 4.10812 15.897 3.55981Z" fill="#E1F0F4"/>
</g>
<defs>
<clipPath id="clip0_47_50076">
<rect width="30" height="30" fill="white"/>
</clipPath>
</defs>
</svg>
