<svg width="103" height="376" viewBox="0 0 103 376" fill="none" xmlns="http://www.w3.org/2000/svg">
<rect x="23.5" width="56" height="56" rx="10" fill="#413FBD"/>
<path d="M47.6794 39.6952V35.6182C47.6794 34.5775 48.5292 33.7338 49.5776 33.7338H53.4098C53.9133 33.7338 54.3961 33.9323 54.7521 34.2857C55.108 34.6391 55.308 35.1184 55.308 35.6182V39.6952C55.3048 40.1279 55.4758 40.5439 55.7828 40.851C56.0899 41.158 56.5077 41.3307 56.9436 41.3307H59.5581C60.7792 41.3339 61.9513 40.8545 62.8159 39.9985C63.6805 39.1424 64.1663 37.98 64.1663 36.7678V25.1532C64.1663 24.174 63.7291 23.2452 62.9725 22.617L54.0784 15.5652C52.5312 14.3288 50.3145 14.3687 48.8135 15.66L40.1224 22.617C39.33 23.2267 38.8564 24.1582 38.833 25.1532V36.756C38.833 39.2825 40.8962 41.3307 43.4412 41.3307H45.9961C46.9013 41.3307 47.637 40.6057 47.6436 39.707L47.6794 39.6952Z" fill="white"/>
<path opacity="0.4" d="M45.1602 111.714L49.151 106.527L53.7033 110.103L57.6087 105.062" stroke="#384455" stroke-width="1.5" stroke-linecap="round" stroke-linejoin="round"/>
<circle cx="62.1606" cy="97.602" r="2.56293" stroke="#384455" stroke-width="1.5" stroke-linecap="round" stroke-linejoin="round"/>
<path d="M55.3994 96.1641H45.7091C41.6938 96.1641 39.2041 99.0077 39.2041 103.023V113.799C39.2041 117.815 41.645 120.646 45.7091 120.646H57.1812C61.1965 120.646 63.6862 117.815 63.6862 113.799V104.414" stroke="#384455" stroke-width="1.5" stroke-linecap="round" stroke-linejoin="round"/>
<path opacity="0.4" d="M39.623 184.537H63.3883" stroke="#384455" stroke-width="1.5" stroke-linecap="round" stroke-linejoin="round"/>
<path opacity="0.4" fill-rule="evenodd" clip-rule="evenodd" d="M44.8271 189.742C44.8271 189.328 45.1629 188.992 45.5771 188.992H45.5895C46.0037 188.992 46.3395 189.328 46.3395 189.742C46.3395 190.156 46.0037 190.492 45.5895 190.492H45.5771C45.1629 190.492 44.8271 190.156 44.8271 189.742ZM51.5061 188.992C51.0919 188.992 50.7561 189.328 50.7561 189.742C50.7561 190.156 51.0919 190.492 51.5061 190.492H51.5185C51.9327 190.492 52.2685 190.156 52.2685 189.742C52.2685 189.328 51.9327 188.992 51.5185 188.992H51.5061ZM57.4227 188.992C57.0085 188.992 56.6727 189.328 56.6727 189.742C56.6727 190.156 57.0085 190.492 57.4227 190.492H57.4351C57.8493 190.492 58.1851 190.156 58.1851 189.742C58.1851 189.328 57.8493 188.992 57.4351 188.992H57.4227ZM57.4227 194.174C57.0085 194.174 56.6727 194.51 56.6727 194.924C56.6727 195.338 57.0085 195.674 57.4227 195.674H57.4351C57.8493 195.674 58.1851 195.338 58.1851 194.924C58.1851 194.51 57.8493 194.174 57.4351 194.174H57.4227ZM50.7561 194.924C50.7561 194.51 51.0919 194.174 51.5061 194.174H51.5185C51.9327 194.174 52.2685 194.51 52.2685 194.924C52.2685 195.338 51.9327 195.674 51.5185 195.674H51.5061C51.0919 195.674 50.7561 195.338 50.7561 194.924ZM45.5771 194.174C45.1629 194.174 44.8271 194.51 44.8271 194.924C44.8271 195.338 45.1629 195.674 45.5771 195.674H45.5895C46.0037 195.674 46.3395 195.338 46.3395 194.924C46.3395 194.51 46.0037 194.174 45.5895 194.174H45.5771Z" fill="#384455"/>
<path d="M56.892 174.664V179.052" stroke="#384455" stroke-width="1.5" stroke-linecap="round" stroke-linejoin="round"/>
<path d="M46.1205 174.664V179.052" stroke="#384455" stroke-width="1.5" stroke-linecap="round" stroke-linejoin="round"/>
<path fill-rule="evenodd" clip-rule="evenodd" d="M57.151 176.773H45.8613C41.9457 176.773 39.5 178.955 39.5 182.964V195.03C39.5 199.103 41.9457 201.335 45.8613 201.335H57.1387C61.0666 201.335 63.5 199.141 63.5 195.131V182.964C63.5123 178.955 61.079 176.773 57.151 176.773Z" stroke="#384455" stroke-width="1.5" stroke-linecap="round" stroke-linejoin="round"/>
<path fill-rule="evenodd" clip-rule="evenodd" d="M55.1487 255.68H46.278C43.5327 255.68 41.166 257.905 41.166 260.652V274.936C41.166 277.837 43.378 280.15 46.278 280.15H56.93C59.6767 280.15 61.902 277.684 61.902 274.936V262.714L55.1487 255.68Z" stroke="#384455" stroke-width="1.5" stroke-linecap="round" stroke-linejoin="round"/>
<path d="M54.7988 255.664V259.543C54.7988 261.436 56.3308 262.972 58.2228 262.976C59.9788 262.98 61.7748 262.981 61.8962 262.973" stroke="#384455" stroke-width="1.5" stroke-linecap="round" stroke-linejoin="round"/>
<path opacity="0.4" d="M54.5446 272.737H47.3486" stroke="#384455" stroke-width="1.5" stroke-linecap="round" stroke-linejoin="round"/>
<path opacity="0.4" d="M51.8233 266.135H47.3486" stroke="#384455" stroke-width="1.5" stroke-linecap="round" stroke-linejoin="round"/>
<path opacity="0.4" d="M58.96 346.58C61.0964 346.58 62.8295 344.849 62.8295 342.712C62.8295 340.576 61.0964 338.844 58.96 338.844" stroke="#384455" stroke-width="1.5" stroke-linecap="round" stroke-linejoin="round"/>
<path d="M60.7383 350.781C61.3763 350.825 62.0106 350.916 62.6352 351.056C63.5029 351.226 64.5467 351.582 64.9183 352.36C65.1554 352.859 65.1554 353.44 64.9183 353.939C64.5479 354.718 63.5029 355.072 62.6352 355.251" stroke="#384455" stroke-width="1.5" stroke-linecap="round" stroke-linejoin="round"/>
<path opacity="0.4" d="M43.8862 346.58C41.7497 346.58 40.0166 344.849 40.0166 342.712C40.0166 340.576 41.7497 338.844 43.8862 338.844" stroke="#384455" stroke-width="1.5" stroke-linecap="round" stroke-linejoin="round"/>
<path d="M42.1075 350.781C41.4695 350.825 40.8352 350.916 40.2106 351.056C39.3429 351.226 38.2991 351.582 37.9288 352.36C37.6904 352.859 37.6904 353.44 37.9288 353.939C38.2979 354.718 39.3429 355.072 40.2106 355.251" stroke="#384455" stroke-width="1.5" stroke-linecap="round" stroke-linejoin="round"/>
<path fill-rule="evenodd" clip-rule="evenodd" d="M51.4172 351.617C55.7463 351.617 59.4448 352.272 59.4448 354.894C59.4448 357.514 55.7708 358.194 51.4172 358.194C47.0869 358.194 43.3896 357.539 43.3896 354.917C43.3896 352.296 47.0636 351.617 51.4172 351.617Z" stroke="#384455" stroke-width="1.5" stroke-linecap="round" stroke-linejoin="round"/>
<path opacity="0.4" fill-rule="evenodd" clip-rule="evenodd" d="M51.4168 347.876C48.5617 347.876 46.2725 345.587 46.2725 342.73C46.2725 339.875 48.5617 337.586 51.4168 337.586C54.2719 337.586 56.5611 339.875 56.5611 342.73C56.5611 345.587 54.2719 347.876 51.4168 347.876Z" stroke="#384455" stroke-width="1.5" stroke-linecap="round" stroke-linejoin="round"/>
</svg>
