<svg width="22" height="22" viewBox="0 0 22 22" fill="none" xmlns="http://www.w3.org/2000/svg">
<path d="M3.83728 9.72111H5.88383V8.1862H3.83728V9.72111ZM5.88383 9.72111C7.02541 9.72111 8.02255 9.4352 8.72887 8.72887C9.4352 8.02255 9.72111 7.02541 9.72111 5.88383H8.1862C8.1862 6.78881 7.96048 7.32658 7.64353 7.64353C7.32658 7.96048 6.78881 8.1862 5.88383 8.1862V9.72111ZM9.72111 5.88383V3.83728H8.1862V5.88383H9.72111ZM9.72111 3.83728C9.72111 2.69571 9.4352 1.69857 8.72887 0.992239C8.02255 0.285913 7.02541 0 5.88383 0V1.53491C6.78881 1.53491 7.32658 1.76064 7.64353 2.07759C7.96048 2.39454 8.1862 2.93231 8.1862 3.83728H9.72111ZM5.88383 0H3.83728V1.53491H5.88383V0ZM3.83728 0C2.69571 0 1.69857 0.285913 0.992239 0.992239C0.285913 1.69857 0 2.69571 0 3.83728H1.53491C1.53491 2.93231 1.76064 2.39454 2.07759 2.07759C2.39454 1.76064 2.93231 1.53491 3.83728 1.53491V0ZM0 3.83728V5.88383H1.53491V3.83728H0ZM0 5.88383C0 7.02541 0.285913 8.02255 0.992239 8.72887C1.69857 9.4352 2.69571 9.72111 3.83728 9.72111V8.1862C2.93231 8.1862 2.39454 7.96048 2.07759 7.64353C1.76064 7.32658 1.53491 6.78881 1.53491 5.88383H0Z" fill="#010101"/>
<path d="M16.1171 9.72111H18.1637V8.1862H16.1171V9.72111ZM18.1637 9.72111C19.3053 9.72111 20.3024 9.4352 21.0087 8.72887C21.715 8.02255 22.001 7.02541 22.001 5.88383H20.466C20.466 6.78881 20.2403 7.32658 19.9234 7.64353C19.6064 7.96048 19.0686 8.1862 18.1637 8.1862V9.72111ZM22.001 5.88383V3.83728H20.466V5.88383H22.001ZM22.001 3.83728C22.001 2.69571 21.715 1.69857 21.0087 0.992239C20.3024 0.285913 19.3053 0 18.1637 0V1.53491C19.0686 1.53491 19.6064 1.76064 19.9234 2.07759C20.2403 2.39454 20.466 2.93231 20.466 3.83728H22.001ZM18.1637 0H16.1171V1.53491H18.1637V0ZM16.1171 0C14.9755 0 13.9784 0.285913 13.2721 0.992239C12.5658 1.69857 12.2798 2.69571 12.2798 3.83728H13.8148C13.8148 2.93231 14.0405 2.39454 14.3574 2.07759C14.6744 1.76064 15.2122 1.53491 16.1171 1.53491V0ZM12.2798 3.83728V5.88383H13.8148V3.83728H12.2798ZM12.2798 5.88383C12.2798 7.02541 12.5658 8.02255 13.2721 8.72887C13.9784 9.4352 14.9755 9.72111 16.1171 9.72111V8.1862C15.2122 8.1862 14.6744 7.96048 14.3574 7.64353C14.0405 7.32658 13.8148 6.78881 13.8148 5.88383H12.2798Z" fill="#010101"/>
<path d="M16.1171 22H18.1637V20.4651H16.1171V22ZM18.1637 22C19.3053 22 20.3024 21.7141 21.0087 21.0077C21.715 20.3014 22.001 19.3043 22.001 18.1627H20.466C20.466 19.0677 20.2403 19.6054 19.9234 19.9224C19.6064 20.2393 19.0686 20.4651 18.1637 20.4651V22ZM22.001 18.1627V16.1161H20.466V18.1627H22.001ZM22.001 16.1161C22.001 14.9746 21.715 13.9774 21.0087 13.2711C20.3024 12.5648 19.3053 12.2789 18.1637 12.2789V13.8138C19.0686 13.8138 19.6064 14.0395 19.9234 14.3565C20.2403 14.6734 20.466 15.2112 20.466 16.1161H22.001ZM18.1637 12.2789H16.1171V13.8138H18.1637V12.2789ZM16.1171 12.2789C14.9755 12.2789 13.9784 12.5648 13.2721 13.2711C12.5658 13.9774 12.2798 14.9746 12.2798 16.1161H13.8148C13.8148 15.2112 14.0405 14.6734 14.3574 14.3565C14.6744 14.0395 15.2122 13.8138 16.1171 13.8138V12.2789ZM12.2798 16.1161V18.1627H13.8148V16.1161H12.2798ZM12.2798 18.1627C12.2798 19.3043 12.5658 20.3014 13.2721 21.0077C13.9784 21.7141 14.9755 22 16.1171 22V20.4651C15.2122 20.4651 14.6744 20.2393 14.3574 19.9224C14.0405 19.6054 13.8148 19.0677 13.8148 18.1627H12.2798Z" fill="#010101"/>
<path d="M3.83728 22H5.88383V20.4651H3.83728V22ZM5.88383 22C7.02541 22 8.02255 21.7141 8.72887 21.0077C9.4352 20.3014 9.72111 19.3043 9.72111 18.1627H8.1862C8.1862 19.0677 7.96048 19.6054 7.64353 19.9224C7.32658 20.2393 6.78881 20.4651 5.88383 20.4651V22ZM9.72111 18.1627V16.1161H8.1862V18.1627H9.72111ZM9.72111 16.1161C9.72111 14.9746 9.4352 13.9774 8.72887 13.2711C8.02255 12.5648 7.02541 12.2789 5.88383 12.2789V13.8138C6.78881 13.8138 7.32658 14.0395 7.64353 14.3565C7.96048 14.6734 8.1862 15.2112 8.1862 16.1161H9.72111ZM5.88383 12.2789H3.83728V13.8138H5.88383V12.2789ZM3.83728 12.2789C2.69571 12.2789 1.69857 12.5648 0.992239 13.2711C0.285913 13.9774 0 14.9746 0 16.1161H1.53491C1.53491 15.2112 1.76064 14.6734 2.07759 14.3565C2.39454 14.0395 2.93231 13.8138 3.83728 13.8138V12.2789ZM0 16.1161V18.1627H1.53491V16.1161H0ZM0 18.1627C0 19.3043 0.285913 20.3014 0.992239 21.0077C1.69857 21.7141 2.69571 22 3.83728 22V20.4651C2.93231 20.4651 2.39454 20.2393 2.07759 19.9224C1.76064 19.6054 1.53491 19.0677 1.53491 18.1627H0Z" fill="#010101"/>
</svg>
