<svg width="20" height="20" viewBox="0 0 20 20" fill="none" xmlns="http://www.w3.org/2000/svg">
<path fill-rule="evenodd" clip-rule="evenodd" d="M1.04199 5.83268C1.04199 3.18632 3.18729 1.04102 5.83366 1.04102H14.167C16.8134 1.04102 18.9587 3.18632 18.9587 5.83268V14.166C18.9587 16.8124 16.8134 18.9577 14.167 18.9577H5.83366C3.18729 18.9577 1.04199 16.8124 1.04199 14.166V5.83268ZM7.38666 10.113L9.05333 11.7797C9.34622 12.0726 9.82109 12.0726 10.114 11.7797L13.4473 8.44635C13.7402 8.15345 13.7402 7.67858 13.4473 7.38569C13.1544 7.09279 12.6796 7.09279 12.3867 7.38569L9.58366 10.1887L8.44732 9.05235C8.15443 8.75946 7.67956 8.75946 7.38666 9.05235C7.09377 9.34525 7.09377 9.82012 7.38666 10.113Z" fill="#48BC65"/>
</svg>
