<svg width="1920" height="48" viewBox="0 0 1920 48" fill="none" xmlns="http://www.w3.org/2000/svg">
<mask id="mask0_47_91732" style="mask-type:alpha" maskUnits="userSpaceOnUse" x="581" y="0" width="48" height="48">
<g clip-path="url(#clip0_47_91732)">
<path fill-rule="evenodd" clip-rule="evenodd" d="M605 48C618.255 48 629 37.2547 629 24C629 10.7453 618.255 0 605 0C591.745 0 581 10.7453 581 24C581 37.2547 591.745 48 605 48ZM609.747 17.4327C610.117 17.0566 610.324 16.5495 610.322 16.0219C610.32 15.4943 610.109 14.9889 609.736 14.6158C609.363 14.2427 608.858 14.0321 608.33 14.0299C607.803 14.0277 607.295 14.234 606.919 14.604L598.919 22.604C598.734 22.7897 598.586 23.0102 598.486 23.2529C598.385 23.4956 598.333 23.7557 598.333 24.0183C598.333 24.281 598.385 24.5411 598.486 24.7838C598.586 25.0265 598.734 25.2469 598.919 25.4327L606.919 33.4327C607.105 33.6208 607.325 33.7705 607.568 33.873C607.812 33.9755 608.073 34.0288 608.337 34.0298C608.601 34.0309 608.863 33.9796 609.107 33.8791C609.351 33.7785 609.573 33.6306 609.759 33.4439C609.946 33.2572 610.094 33.0354 610.194 32.7912C610.295 32.5471 610.346 32.2855 610.345 32.0215C610.344 31.7575 610.29 31.4963 610.188 31.253C610.085 31.0097 609.936 30.7891 609.747 30.604L603.162 24.0187L609.747 17.4327Z" fill="black"/>
</g>
</mask>
<g mask="url(#mask0_47_91732)">
<rect x="581" width="48" height="48" rx="3" fill="#16204F"/>
</g>
<mask id="mask1_47_91732" style="mask-type:alpha" maskUnits="userSpaceOnUse" x="1291" y="0" width="48" height="48">
<g clip-path="url(#clip1_47_91732)">
<path fill-rule="evenodd" clip-rule="evenodd" d="M1315 0C1301.75 0 1291 10.7453 1291 24C1291 37.2547 1301.75 48 1315 48C1328.25 48 1339 37.2547 1339 24C1339 10.7453 1328.25 0 1315 0ZM1310.25 30.5673C1309.88 30.9434 1309.68 31.4505 1309.68 31.9781C1309.68 32.5057 1309.89 33.0111 1310.26 33.3842C1310.64 33.7573 1311.14 33.9679 1311.67 33.9701C1312.2 33.9723 1312.7 33.766 1313.08 33.396L1321.08 25.396C1321.27 25.2103 1321.41 24.9898 1321.51 24.7471C1321.61 24.5044 1321.67 24.2443 1321.67 23.9817C1321.67 23.719 1321.61 23.4589 1321.51 23.2162C1321.41 22.9735 1321.27 22.7531 1321.08 22.5673L1313.08 14.5673C1312.9 14.3792 1312.67 14.2295 1312.43 14.127C1312.19 14.0245 1311.93 13.9712 1311.66 13.9702C1311.4 13.9691 1311.14 14.0204 1310.89 14.1209C1310.65 14.2215 1310.43 14.3694 1310.24 14.5561C1310.05 14.7428 1309.91 14.9646 1309.81 15.2088C1309.71 15.4529 1309.65 15.7145 1309.66 15.9785C1309.66 16.2425 1309.71 16.5037 1309.81 16.747C1309.91 16.9903 1310.06 17.2109 1310.25 17.396L1316.84 23.9813L1310.25 30.5673Z" fill="black"/>
</g>
</mask>
<g mask="url(#mask1_47_91732)">
<rect x="1291" width="48" height="48" rx="3" fill="#16204F"/>
</g>
<defs>
<clipPath id="clip0_47_91732">
<rect width="48" height="48" fill="white" transform="translate(581)"/>
</clipPath>
<clipPath id="clip1_47_91732">
<rect width="48" height="48" fill="white" transform="translate(1291)"/>
</clipPath>
</defs>
</svg>
