<svg width="23" height="17" viewBox="0 0 23 17" fill="none" xmlns="http://www.w3.org/2000/svg">
<path d="M16.863 6.54542H13.7964C13.5931 6.54542 13.398 6.46464 13.2543 6.32087C13.1105 6.17709 13.0297 5.98208 13.0297 5.77875C13.0297 5.57542 13.1105 5.38041 13.2543 5.23664C13.398 5.09286 13.5931 5.01209 13.7964 5.01209H16.863C17.0664 5.01209 17.2614 5.09286 17.4052 5.23664C17.5489 5.38041 17.6297 5.57542 17.6297 5.77875C17.6297 5.98208 17.5489 6.17709 17.4052 6.32087C17.2614 6.46464 17.0664 6.54542 16.863 6.54542ZM9.19638 5.01209H8.42971V4.24542C8.42971 4.04209 8.34894 3.84708 8.20516 3.7033C8.06138 3.55952 7.86638 3.47875 7.66305 3.47875C7.45971 3.47875 7.26471 3.55952 7.12093 3.7033C6.97715 3.84708 6.89638 4.04209 6.89638 4.24542V5.01209H6.12971C5.92638 5.01209 5.73138 5.09286 5.5876 5.23664C5.44382 5.38041 5.36305 5.57542 5.36305 5.77875C5.36305 5.98208 5.44382 6.17709 5.5876 6.32087C5.73138 6.46464 5.92638 6.54542 6.12971 6.54542H6.89638V7.31209C6.89638 7.51542 6.97715 7.71042 7.12093 7.8542C7.26471 7.99798 7.45971 8.07875 7.66305 8.07875C7.86638 8.07875 8.06138 7.99798 8.20516 7.8542C8.34894 7.71042 8.42971 7.51542 8.42971 7.31209V6.54542H9.19638C9.39971 6.54542 9.59472 6.46464 9.7385 6.32087C9.88227 6.17709 9.96305 5.98208 9.96305 5.77875C9.96305 5.57542 9.88227 5.38041 9.7385 5.23664C9.59472 5.09286 9.39971 5.01209 9.19638 5.01209ZM20.1501 16.8379C19.9511 16.876 19.749 16.8953 19.5464 16.8954C18.6338 16.8951 17.7586 16.5333 17.1122 15.8892L17.0643 15.8413L13.1735 11.5096L9.82888 11.5288L5.92846 15.8413L5.89013 15.8892C5.23905 16.5321 4.36141 16.8935 3.44638 16.8954C3.24692 16.8957 3.04791 16.8765 2.85221 16.8379C2.40552 16.7604 1.97856 16.5954 1.59586 16.3523C1.21316 16.1092 0.882282 15.7929 0.622235 15.4216C0.362188 15.0502 0.178104 14.6311 0.0805661 14.1883C-0.0169723 13.7456 -0.0260417 13.2879 0.0538789 12.8417L1.61596 4.80125V4.78208C1.84858 3.44943 2.54438 2.24174 3.58061 1.37208C4.61684 0.502422 5.92691 0.0266678 7.27971 0.0287499L15.713 0C17.0596 0.000857506 18.3631 0.474243 19.3963 1.33763C20.4296 2.20103 21.1271 3.39966 21.3672 4.72458C21.3768 4.73417 21.3768 4.73417 21.3768 4.74375L22.9389 12.8321H22.9485C23.1074 13.7342 22.9021 14.6626 22.3775 15.4135C21.8529 16.1645 21.0519 16.6767 20.1501 16.8379ZM15.713 9.96667C16.8314 9.96667 17.9039 9.52241 18.6947 8.73164C19.4855 7.94086 19.9297 6.86833 19.9297 5.75C19.9297 4.63167 19.4855 3.55915 18.6947 2.76837C17.9039 1.97759 16.8314 1.53333 15.713 1.53333L7.27971 1.56208C6.29333 1.55946 5.33738 1.90351 4.5789 2.53412C3.82042 3.16473 3.30763 4.0418 3.13013 5.01209C3.13162 5.02865 3.12829 5.04529 3.12055 5.06L1.55846 13.1196C1.48934 13.519 1.54865 13.9301 1.72786 14.2937C1.90707 14.6573 2.19695 14.9548 2.55583 15.1433C2.91472 15.3317 3.32413 15.4016 3.72522 15.3428C4.1263 15.2839 4.49841 15.0995 4.78805 14.8158L8.91846 10.2446C8.99132 10.1674 9.07889 10.1057 9.17599 10.0629C9.27309 10.0201 9.37778 9.99714 9.48388 9.99542L15.713 9.96667ZM21.4343 13.1196L20.6006 8.78792C20.0838 9.61835 19.3638 10.3032 18.5085 10.7778C17.6533 11.2524 16.6911 11.5009 15.713 11.5H15.2243L18.2047 14.8158C18.4944 15.0995 18.8665 15.2839 19.2675 15.3428C19.6686 15.4016 20.078 15.3317 20.4369 15.1433C20.7958 14.9548 21.0857 14.6573 21.2649 14.2937C21.4441 13.9301 21.5034 13.519 21.4343 13.1196Z" fill="#3E4B65"/>
</svg>
