<svg width="100" height="20" viewBox="0 0 100 20" fill="none" xmlns="http://www.w3.org/2000/svg">
<g clip-path="url(#clip0_6_6386)">
<path d="M12.9947 2.34237C12.4947 2.0652 11.0545 2.23367 9.33163 2.77172C6.31532 4.8315 3.76641 7.87498 3.58706 12.7554C3.55445 12.8695 3.25554 12.7554 3.19576 12.7011C2.26116 10.9898 2.08765 8.96486 2.7175 7.11954C2.84793 6.91302 2.42945 6.65215 2.3588 6.7228C1.90613 7.18767 1.5069 7.70174 1.16858 8.25541C-0.828945 11.8498 0.465536 16.3829 4.05989 18.3804C7.65424 20.3779 12.1874 19.0835 14.1849 15.4891C16.4947 11.3478 14.3479 3.0978 12.9947 2.34237Z" fill="#91B34C"/>
<path fill-rule="evenodd" clip-rule="evenodd" d="M25.8316 4.34786C29.5381 4.34786 32.0653 6.55981 32.5761 10.2881C32.6219 10.5956 32.6419 10.9065 32.6359 11.2174C32.6359 12.2229 32.1305 12.712 31.087 12.712H21.4783C21.6345 15.0705 23.6151 16.8907 25.9783 16.8479C27.3213 16.8652 28.6132 16.3332 29.5544 15.375C29.8199 15.088 30.1907 14.9212 30.5816 14.9131C30.9133 14.898 31.2364 15.0209 31.4742 15.2525C31.712 15.4842 31.8434 15.804 31.837 16.1359C31.822 16.5331 31.6569 16.9099 31.3751 17.1902C29.9579 18.6309 27.9974 19.4049 25.9783 19.3207C21.5707 19.3207 18.4946 16.2229 18.4946 11.8642C18.4946 7.50546 21.5816 4.34786 25.8316 4.34786ZM25.8316 6.67938V6.66307C23.5995 6.62338 21.7095 8.30081 21.4838 10.5218H29.712C29.6359 8.14677 28.1359 6.67938 25.8316 6.67938ZM41.8098 4.34786C45.7338 4.34786 47.1305 7.32612 47.1305 10.125V17.5652C47.1782 18.1176 46.9104 18.6498 46.4384 18.9406C45.9664 19.2315 45.3707 19.2315 44.8987 18.9406C44.4267 18.6498 44.1589 18.1176 44.2066 17.5652V11.0435C44.2066 8.19568 43.2392 6.80981 41.0653 6.80981C38.8914 6.80981 37.3642 8.68481 37.3642 11.375V17.5435C37.4119 18.0959 37.1441 18.628 36.6721 18.9189C36.2001 19.2098 35.6044 19.2098 35.1324 18.9189C34.6604 18.628 34.3926 18.0959 34.4403 17.5435V6.03264C34.3856 5.63287 34.51 5.22934 34.7803 4.92974C35.0506 4.63014 35.4392 4.46496 35.8425 4.47829C36.0707 4.47829 37.2175 4.55438 37.2175 6.03264V7.00003C38.1522 5.34674 39.9107 4.33117 41.8098 4.34786ZM60.3696 4.47829C60.7437 4.46644 61.1064 4.60757 61.3741 4.86909C61.6417 5.13062 61.7913 5.48995 61.7881 5.86416C61.7771 6.13794 61.7144 6.40716 61.6033 6.65764L56.9729 17.5816C56.424 18.8913 55.5272 19.1685 54.8642 19.1685C54.2011 19.1685 53.2935 18.8913 52.7501 17.5816L48.1522 6.71199C48.0324 6.45103 47.9695 6.1676 47.9675 5.88047C47.9853 5.09013 48.639 4.46312 49.4294 4.47829C50.1337 4.48391 50.7456 4.96401 50.9185 5.64677L54.8914 15.7174L58.9131 5.64677C59.0779 4.97233 59.6755 4.49292 60.3696 4.47829ZM68.8751 4.34786C72.5979 4.34786 74.8207 6.41851 74.8261 9.91851V17.6794C74.8764 18.0577 74.7606 18.4393 74.5084 18.7258C74.2563 19.0123 73.8926 19.1757 73.5109 19.1739C73.1218 19.1841 72.7473 19.0256 72.4838 18.7391C72.2203 18.4527 72.0934 18.0663 72.1359 17.6794V16.9402C71.0705 18.4926 69.2775 19.383 67.3968 19.2935C64.8262 19.2935 62.2229 17.9294 62.2229 14.8913C62.2229 10.6685 67.1468 10.0761 72.0055 10.0761V9.75547C72.0055 7.82612 70.7718 6.73916 68.5979 6.73916C67.4251 6.75773 66.2864 7.13727 65.337 7.82612C65.0835 8.01103 64.781 8.11691 64.4675 8.13047C64.1614 8.13055 63.8683 8.00716 63.6545 7.78823C63.4407 7.5693 63.3243 7.27335 63.3316 6.96742C63.3305 6.49376 63.5781 6.05428 63.9838 5.80981C65.4218 4.82434 67.1321 4.31317 68.8751 4.34786ZM71.4022 12.2283V12.212C68.7392 12.212 65.2175 12.5 65.2066 14.8316C65.2066 16.8098 67.3588 16.962 68.0164 16.962C70.4457 16.962 72.0164 15.3696 72.0164 12.9022V12.2283H71.4022ZM82.4403 7.1359H79.7827V14.3805C79.7827 15.9294 80.3262 16.6576 81.4131 16.6576C81.6174 16.6542 81.8204 16.6231 82.0164 16.5652C82.1933 16.5141 82.3758 16.4849 82.5598 16.4783C82.8719 16.4676 83.1745 16.5866 83.3959 16.8069C83.6172 17.0272 83.7375 17.3292 83.7283 17.6413C83.7056 18.1528 83.3904 18.6055 82.9185 18.8044C82.3328 19.037 81.7063 19.1497 81.0761 19.1359C78.3533 19.1359 76.9131 17.5924 76.9131 14.6739V2.05438C76.8542 1.50023 77.1167 0.961065 77.5892 0.665582C78.0616 0.370099 78.6613 0.370099 79.1338 0.665582C79.6063 0.961065 79.8687 1.50023 79.8098 2.05438V4.71742H82.4403C82.9058 4.66327 83.3611 4.88119 83.6109 5.27774C83.8608 5.67428 83.8608 6.17904 83.6109 6.57559C83.3611 6.97213 82.9058 7.19005 82.4403 7.1359ZM92.1142 4.34786C96.5598 4.34786 99.7827 7.51633 99.7827 11.8044C99.7827 16.0924 96.462 19.3207 92.1142 19.3207C90.095 19.353 88.1436 18.592 86.6794 17.2011C85.2539 15.7708 84.4695 13.8234 84.5055 11.8044C84.5055 7.48373 87.6903 4.34786 92.1142 4.34786ZM92.1142 16.8479C94.3425 16.8479 96.7392 15.25 96.7392 11.8098C96.7392 8.3696 94.337 6.80438 92.1142 6.80438C89.8914 6.80438 87.4946 8.3696 87.4946 11.8098C87.4946 14.3152 89.0816 16.8479 92.1142 16.8479Z" fill="black"/>
</g>
<defs>
<clipPath id="clip0_6_6386">
<rect width="100" height="19.5652" fill="white"/>
</clipPath>
</defs>
</svg>
