<svg width="24" height="21" viewBox="0 0 24 21" fill="none" xmlns="http://www.w3.org/2000/svg">
<path d="M19.7795 20.0542H4.06455C3.2374 20.0542 2.44414 19.7737 1.85926 19.2745C1.27438 18.7753 0.945802 18.0983 0.945802 17.3923V9.1945C0.945769 8.89197 1.02302 8.59307 1.17217 8.31863C1.32133 8.04418 1.5388 7.8008 1.80943 7.60543L10.3463 1.43848C10.7867 1.12036 11.345 0.945802 11.922 0.945802C12.499 0.945802 13.0573 1.12036 13.4978 1.43848L22.0346 7.60543C22.3052 7.8008 22.5227 8.04418 22.6719 8.31863C22.821 8.59307 22.8983 8.89197 22.8982 9.1945V17.3923C22.8982 17.7418 22.8176 18.088 22.6608 18.4109C22.5041 18.7339 22.2744 19.0273 21.9848 19.2745C21.6952 19.5217 21.3514 19.7178 20.973 19.8515C20.5946 19.9853 20.189 20.0542 19.7795 20.0542V20.0542Z" stroke="#5D65FF" stroke-width="1.84423" stroke-linecap="round" stroke-linejoin="round"/>
<path d="M14.971 20.0549V13.6536C14.971 13.4252 14.8647 13.2061 14.6754 13.0446C14.4862 12.8831 14.2295 12.7924 13.9619 12.7924H9.88198C9.61435 12.7924 9.35769 12.8831 9.16845 13.0446C8.97921 13.2061 8.8729 13.4252 8.8729 13.6536V20.0549" stroke="#5D65FF" stroke-width="1.84423" stroke-linecap="round" stroke-linejoin="round"/>
</svg>
