<svg width="24" height="24" viewBox="0 0 24 24" fill="none" xmlns="http://www.w3.org/2000/svg">
<path d="M10.0004 14.6507V9.35072L15.0004 12.0007L10.0004 14.6507ZM17.7704 10.3207C17.0004 10.0007 16.5704 9.82072 16.5704 9.82072L18.0004 9.06072C19.8404 8.10072 20.5304 5.83072 19.5604 4.00072C18.5904 2.17072 16.3204 1.47072 14.4904 2.44072L6.00044 6.94072C4.71044 7.62072 3.93044 8.98072 4.00044 10.4307C4.07044 11.8507 4.93044 13.1007 6.22044 13.6807C6.25044 13.6907 7.42044 14.1807 7.42044 14.1807L6.00044 14.9307C4.17044 15.9007 3.47044 18.1707 4.44044 20.0007C5.41044 21.8307 7.68044 22.5307 9.51044 21.5607L18.0104 17.0607C19.3004 16.3807 20.0704 15.0207 20.0004 13.5707C19.9304 12.1507 19.0604 10.8907 17.7704 10.3207ZM17.5404 16.1807L9.04044 20.6807C7.70044 21.3907 6.03044 20.8807 5.32044 19.5407C4.61044 18.2007 5.12044 16.5307 6.46044 15.8207L8.50044 14.7407V13.5307L7.81044 13.2507L6.70044 12.7907C5.71044 12.3807 5.05044 11.4407 5.00044 10.3807C4.95044 9.32072 5.52044 8.32072 6.46044 7.82072L14.9604 3.32072C16.3004 2.61072 17.9704 3.12072 18.6804 4.46072C19.3904 5.80072 18.8804 7.47072 17.5404 8.18072L15.5004 9.26072V10.4707L17.3004 11.2107C18.2904 11.6207 18.9504 12.5607 19.0004 13.6207C19.0504 14.6807 18.4804 15.6807 17.5404 16.1807Z" fill="white"/>
</svg>
