<svg width="96" height="1240" viewBox="0 0 96 1240" fill="none" xmlns="http://www.w3.org/2000/svg">
<path d="M0 0H64C81.6731 0 96 14.3269 96 32V1208C96 1225.67 81.6731 1240 64 1240H0V0Z" fill="#222325"/>
<g clip-path="url(#clip0_47_133747)">
<path d="M48.063 73.9307C62.4162 73.9307 74.0518 62.2951 74.0518 47.9419C74.0518 33.5887 62.4162 21.9531 48.063 21.9531C33.7098 21.9531 22.0742 33.5887 22.0742 47.9419C22.0742 62.2951 33.7098 73.9307 48.063 73.9307Z" fill="#F6841B"/>
<path d="M47.9947 69.7472C59.9781 69.7472 69.6926 60.0328 69.6926 48.0494C69.6926 36.066 59.9781 26.3516 47.9947 26.3516C36.0113 26.3516 26.2969 36.066 26.2969 48.0494C26.2969 60.0328 36.0113 69.7472 47.9947 69.7472Z" fill="#222325"/>
<path d="M47.9958 64.4213C57.035 64.4213 64.3627 57.0936 64.3627 48.0544C64.3627 39.0152 57.035 31.6875 47.9958 31.6875C38.9566 31.6875 31.6289 39.0152 31.6289 48.0544C31.6289 57.0936 38.9566 64.4213 47.9958 64.4213Z" fill="#F6841B"/>
<path d="M45.7859 45.9781C47.5834 45.9781 49.0406 44.5209 49.0406 42.7234C49.0406 40.9259 47.5834 39.4688 45.7859 39.4688C43.9884 39.4688 42.5312 40.9259 42.5312 42.7234C42.5312 44.5209 43.9884 45.9781 45.7859 45.9781Z" fill="white"/>
<path d="M48.7414 44.0893C48.7414 44.0893 53.3353 42.505 56.0288 47.026C56.0288 47.026 58.3894 52.2129 54.1509 54.9738C54.1509 54.9738 51.3245 57.1679 47.6826 55.4227C47.6826 55.4227 46.4687 54.8241 45.4717 51.9641C45.4717 51.9641 44.9891 50.3349 43.5769 50.219C43.5769 50.219 40.8011 49.9029 41.1995 52.9293C41.1995 52.9293 41.7307 55.1571 44.2578 54.2424C44.2578 54.2424 45.3221 53.4774 45.7037 53.9431C45.7037 53.9431 46.3097 54.9046 45.2379 55.4227C45.2379 55.4227 43.691 56.5862 41.7625 55.722C41.7625 55.722 40.051 55.1365 39.5516 52.5552C39.5516 52.5552 39.3888 48.5523 43.7415 48.6889C43.7415 48.6889 45.8327 48.6477 46.7848 51.2085C46.7848 51.2085 47.4582 53.5522 48.3429 54.0011C48.3429 54.0011 50.6324 55.4283 53.1801 53.7523C53.1801 53.7523 56.6349 51.6443 54.4277 47.4188C54.4277 47.4188 52.2205 43.7657 47.9819 46.1226C47.9819 46.1226 47.3834 46.5715 47.0224 47.0952C47.0224 47.0952 46.7848 47.763 46.175 47.8472C46.175 47.8472 45.539 47.9688 45.352 47.3328C45.352 47.3328 45.1406 46.5977 45.9506 45.8495C45.9487 45.8457 47.2936 43.8911 48.7414 44.0893Z" fill="white"/>
<path d="M41.9332 49.5382C43.1108 49.5382 44.0655 48.5835 44.0655 47.4058C44.0655 46.2281 43.1108 45.2734 41.9332 45.2734C40.7555 45.2734 39.8008 46.2281 39.8008 47.4058C39.8008 48.5835 40.7555 49.5382 41.9332 49.5382Z" fill="white"/>
</g>
<rect x="24" y="160" width="48" height="48" rx="12" fill="#F6841B"/>
<path d="M56.8593 180.374L49.9293 174.834C48.8593 173.974 47.1293 173.974 46.0693 174.824L39.1393 180.374C38.3593 180.994 37.8593 182.304 38.0293 183.284L39.3593 191.244C39.5993 192.664 40.9593 193.814 42.3993 193.814H53.5993C55.0293 193.814 56.3993 192.654 56.6393 191.244L57.9693 183.284C58.1293 182.304 57.6293 180.994 56.8593 180.374ZM48.7093 189.204C48.5093 189.404 48.2593 189.504 47.9993 189.504C47.7393 189.504 47.4893 189.404 47.2893 189.214C46.8993 188.824 46.8993 188.194 47.2893 187.804C47.6793 187.414 48.3193 187.414 48.7093 187.804C49.0993 188.184 49.0993 188.814 48.7093 189.204ZM50.6593 186.904C50.5093 187.054 50.3193 187.134 50.1193 187.134C49.9293 187.134 49.7493 187.064 49.5993 186.924C48.6293 185.994 47.3693 185.994 46.3893 186.924C46.0893 187.214 45.6193 187.204 45.3293 186.904C45.0393 186.604 45.0493 186.134 45.3493 185.844C46.8993 184.354 49.0693 184.354 50.6293 185.844C50.9393 186.124 50.9493 186.604 50.6593 186.904ZM52.7793 184.784C52.6293 184.934 52.4393 185.014 52.2393 185.014C52.0493 185.014 51.8593 184.944 51.7193 184.804C51.2493 184.344 50.7193 183.974 50.1593 183.704C48.7593 183.034 47.2293 183.034 45.8393 183.704C45.2793 183.974 44.7593 184.344 44.2793 184.804C43.9893 185.094 43.5093 185.094 43.2193 184.794C42.9293 184.494 42.9393 184.024 43.2293 183.734C43.8193 183.154 44.4793 182.694 45.1893 182.354C46.9993 181.484 48.9993 181.484 50.7993 182.354C51.5093 182.694 52.1693 183.154 52.7593 183.734C53.0593 184.014 53.0693 184.494 52.7793 184.784Z" fill="white"/>
<path d="M52.19 246H43.81C40.17 246 38 248.17 38 251.81V260.18C38 263.83 40.17 266 43.81 266H52.18C55.82 266 57.99 263.83 57.99 260.19V251.81C58 248.17 55.83 246 52.19 246ZM45.11 260.9C45.11 261.18 44.89 261.4 44.61 261.4H41.82C41.54 261.4 41.32 261.18 41.32 260.9V256.28C41.32 255.65 41.83 255.14 42.46 255.14H44.61C44.89 255.14 45.11 255.36 45.11 255.64V260.9ZM49.89 260.9C49.89 261.18 49.67 261.4 49.39 261.4H46.6C46.32 261.4 46.1 261.18 46.1 260.9V251.74C46.1 251.11 46.61 250.6 47.24 250.6H48.76C49.39 250.6 49.9 251.11 49.9 251.74V260.9H49.89ZM54.68 260.9C54.68 261.18 54.46 261.4 54.18 261.4H51.39C51.11 261.4 50.89 261.18 50.89 260.9V257.35C50.89 257.07 51.11 256.85 51.39 256.85H53.54C54.17 256.85 54.68 257.36 54.68 257.99V260.9Z" fill="white" fill-opacity="0.4"/>
<path d="M54 332.008C54.55 332.008 55 332.458 55 333.008V333.998C55 336.198 53.5 337.998 51 337.998H45C42.5 337.998 41 336.198 41 333.998V333.008C41 332.458 41.45 332.008 42 332.008H54Z" fill="white" fill-opacity="0.4"/>
<path d="M55 322V329.5C55 330.05 54.55 330.5 54 330.5H42C41.45 330.5 41 330.05 41 329.5V322C41 319.8 42.5 318 45 318H51C53.5 318 55 319.8 55 322Z" fill="white" fill-opacity="0.4"/>
<path d="M39 336.75C38.59 336.75 38.25 336.41 38.25 336V320C38.25 319.59 38.59 319.25 39 319.25C39.41 319.25 39.75 319.59 39.75 320V336C39.75 336.41 39.41 336.75 39 336.75Z" fill="white" fill-opacity="0.4"/>
<path d="M57 336.75C56.59 336.75 56.25 336.41 56.25 336V320C56.25 319.59 56.59 319.25 57 319.25C57.41 319.25 57.75 319.59 57.75 320V336C57.75 336.41 57.41 336.75 57 336.75Z" fill="white" fill-opacity="0.4"/>
<path d="M55.0909 400.588C54.9309 400.588 54.7709 400.538 54.6309 400.428C50.6009 397.318 45.3909 397.318 41.3609 400.428C41.0309 400.678 40.5609 400.618 40.3109 400.298C40.0609 399.968 40.1209 399.498 40.4409 399.248C45.0309 395.698 50.9609 395.698 55.5409 399.248C55.8709 399.498 55.9309 399.968 55.6709 400.298C55.5409 400.488 55.3209 400.588 55.0909 400.588Z" fill="white" fill-opacity="0.4"/>
<path d="M57.9981 397.108C57.8381 397.108 57.6781 397.058 57.5381 396.948C51.7381 392.468 44.2481 392.468 38.4581 396.948C38.1281 397.198 37.6581 397.138 37.4081 396.818C37.1481 396.498 37.2081 396.018 37.5381 395.768C43.8881 390.858 52.0981 390.858 58.4581 395.768C58.7881 396.018 58.8481 396.488 58.5881 396.818C58.4481 397.008 58.2181 397.108 57.9981 397.108Z" fill="white" fill-opacity="0.4"/>
<path d="M53.2115 404.241C53.0515 404.241 52.8915 404.191 52.7515 404.081C49.8715 401.851 46.1415 401.851 43.2515 404.081C42.9215 404.331 42.4515 404.271 42.2015 403.951C41.9515 403.621 42.0115 403.151 42.3315 402.901C45.7715 400.241 50.2215 400.241 53.6615 402.901C53.9915 403.151 54.0515 403.621 53.7915 403.951C53.6515 404.141 53.4315 404.241 53.2115 404.241Z" fill="white" fill-opacity="0.4"/>
<path d="M50.5992 407.897C50.4392 407.897 50.2792 407.847 50.1392 407.737C48.8392 406.727 47.1492 406.727 45.8492 407.737C45.5192 407.987 45.0492 407.927 44.7992 407.607C44.5492 407.277 44.6092 406.807 44.9292 406.557C46.7892 405.117 49.1892 405.117 51.0492 406.557C51.3792 406.807 51.4392 407.277 51.1792 407.607C51.0492 407.787 50.8292 407.897 50.5992 407.897Z" fill="white" fill-opacity="0.4"/>
<path d="M48.9297 470.641L51.2597 468.511L48.9297 466.641V470.641Z" fill="white" fill-opacity="0.4"/>
<path d="M52.19 462H43.81C40.17 462 38 464.17 38 467.81V476.18C38 479.83 40.17 482 43.81 482H52.18C55.82 482 57.99 479.83 57.99 476.19V467.81C58 464.17 55.83 462 52.19 462ZM52.27 474.39C52.58 474.68 52.76 475.08 52.75 475.49C52.74 475.9 52.55 476.29 52.22 476.57L49.8 478.59C49.38 478.94 49 479.04 48.71 479.04C48.48 479.04 48.3 478.98 48.2 478.93C47.97 478.82 47.43 478.46 47.43 477.48V474.06L44.51 476.74C44.21 477.02 43.73 477 43.45 476.69C43.17 476.38 43.19 475.91 43.5 475.63L47.43 472.03V471.95L43.49 468.38C43.19 468.1 43.17 467.62 43.45 467.32C43.73 467.02 44.21 466.99 44.51 467.27L47.43 469.95V466.53C47.43 465.55 47.97 465.19 48.2 465.08C48.43 464.97 49.05 464.79 49.8 465.42L52.22 467.44C52.55 467.71 52.74 468.11 52.75 468.52C52.76 468.93 52.59 469.33 52.27 469.62L49.67 472L52.27 474.39Z" fill="white" fill-opacity="0.4"/>
<path d="M48.9297 477.357L51.2597 475.407L48.9297 473.297V477.357Z" fill="white" fill-opacity="0.4"/>
<path d="M48 534C45.38 534 43.25 536.13 43.25 538.75C43.25 541.32 45.26 543.4 47.88 543.49C47.96 543.48 48.04 543.48 48.1 543.49C48.12 543.49 48.13 543.49 48.15 543.49C48.16 543.49 48.16 543.49 48.17 543.49C50.73 543.4 52.74 541.32 52.75 538.75C52.75 536.13 50.62 534 48 534Z" fill="white" fill-opacity="0.4"/>
<path d="M53.0809 546.153C50.2909 544.293 45.7409 544.293 42.9309 546.153C41.6609 547.003 40.9609 548.153 40.9609 549.383C40.9609 550.613 41.6609 551.753 42.9209 552.593C44.3209 553.533 46.1609 554.003 48.0009 554.003C49.8409 554.003 51.6809 553.533 53.0809 552.593C54.3409 551.743 55.0409 550.603 55.0409 549.363C55.0309 548.133 54.3409 546.993 53.0809 546.153Z" fill="white" fill-opacity="0.4"/>
<path d="M56.1 613.221C54.29 613.221 53.55 611.941 54.45 610.371C54.97 609.461 54.66 608.301 53.75 607.781L52.02 606.791C51.23 606.321 50.21 606.601 49.74 607.391L49.63 607.581C48.73 609.151 47.25 609.151 46.34 607.581L46.23 607.391C45.78 606.601 44.76 606.321 43.97 606.791L42.24 607.781C41.33 608.301 41.02 609.471 41.54 610.381C42.45 611.941 41.71 613.221 39.9 613.221C38.86 613.221 38 614.071 38 615.121V616.881C38 617.921 38.85 618.781 39.9 618.781C41.71 618.781 42.45 620.061 41.54 621.631C41.02 622.541 41.33 623.701 42.24 624.221L43.97 625.211C44.76 625.681 45.78 625.401 46.25 624.611L46.36 624.421C47.26 622.851 48.74 622.851 49.65 624.421L49.76 624.611C50.23 625.401 51.25 625.681 52.04 625.211L53.77 624.221C54.68 623.701 54.99 622.531 54.47 621.631C53.56 620.061 54.3 618.781 56.11 618.781C57.15 618.781 58.01 617.931 58.01 616.881V615.121C58 614.081 57.15 613.221 56.1 613.221ZM48 619.251C46.21 619.251 44.75 617.791 44.75 616.001C44.75 614.211 46.21 612.751 48 612.751C49.79 612.751 51.25 614.211 51.25 616.001C51.25 617.791 49.79 619.251 48 619.251Z" fill="white" fill-opacity="0.4"/>
<rect x="20" y="1124" width="56" height="92" rx="12" fill="white" fill-opacity="0.1"/>
<rect x="32" y="1132" width="32" height="32" rx="8" fill="#F6841B"/>
<path d="M48 1155C51.866 1155 55 1151.87 55 1148C55 1144.13 51.866 1141 48 1141C44.134 1141 41 1144.13 41 1148C41 1151.87 44.134 1155 48 1155Z" fill="white"/>
<path d="M48 1158.96C47.45 1158.96 47 1158.55 47 1158V1157.92C47 1157.37 47.45 1156.92 48 1156.92C48.55 1156.92 49 1157.37 49 1157.92C49 1158.47 48.55 1158.96 48 1158.96ZM55.14 1156.14C54.88 1156.14 54.63 1156.04 54.43 1155.85L54.3 1155.72C53.91 1155.33 53.91 1154.7 54.3 1154.31C54.69 1153.92 55.32 1153.92 55.71 1154.31L55.84 1154.44C56.23 1154.83 56.23 1155.46 55.84 1155.85C55.65 1156.04 55.4 1156.14 55.14 1156.14ZM40.86 1156.14C40.6 1156.14 40.35 1156.04 40.15 1155.85C39.76 1155.46 39.76 1154.83 40.15 1154.44L40.28 1154.31C40.67 1153.92 41.3 1153.92 41.69 1154.31C42.08 1154.7 42.08 1155.33 41.69 1155.72L41.56 1155.85C41.37 1156.04 41.11 1156.14 40.86 1156.14ZM58 1149H57.92C57.37 1149 56.92 1148.55 56.92 1148C56.92 1147.45 57.37 1147 57.92 1147C58.47 1147 58.96 1147.45 58.96 1148C58.96 1148.55 58.55 1149 58 1149ZM38.08 1149H38C37.45 1149 37 1148.55 37 1148C37 1147.45 37.45 1147 38 1147C38.55 1147 39.04 1147.45 39.04 1148C39.04 1148.55 38.63 1149 38.08 1149ZM55.01 1141.99C54.75 1141.99 54.5 1141.89 54.3 1141.7C53.91 1141.31 53.91 1140.68 54.3 1140.29L54.43 1140.16C54.82 1139.77 55.45 1139.77 55.84 1140.16C56.23 1140.55 56.23 1141.18 55.84 1141.57L55.71 1141.7C55.52 1141.89 55.27 1141.99 55.01 1141.99ZM40.99 1141.99C40.73 1141.99 40.48 1141.89 40.28 1141.7L40.15 1141.56C39.76 1141.17 39.76 1140.54 40.15 1140.15C40.54 1139.76 41.17 1139.76 41.56 1140.15L41.69 1140.28C42.08 1140.67 42.08 1141.3 41.69 1141.69C41.5 1141.89 41.24 1141.99 40.99 1141.99ZM48 1139.04C47.45 1139.04 47 1138.63 47 1138.08V1138C47 1137.45 47.45 1137 48 1137C48.55 1137 49 1137.45 49 1138C49 1138.55 48.55 1139.04 48 1139.04Z" fill="white"/>
<path d="M57.5287 1195.93C57.3687 1195.66 56.9187 1195.24 55.7987 1195.44C55.1787 1195.55 54.5487 1195.6 53.9187 1195.57C51.5887 1195.47 49.4787 1194.4 48.0087 1192.75C46.7087 1191.3 45.9087 1189.41 45.8987 1187.37C45.8987 1186.23 46.1187 1185.13 46.5687 1184.09C47.0087 1183.08 46.6987 1182.55 46.4787 1182.33C46.2487 1182.1 45.7087 1181.78 44.6487 1182.22C40.5587 1183.94 38.0287 1188.04 38.3287 1192.43C38.6287 1196.56 41.5287 1200.09 45.3687 1201.42C46.2887 1201.74 47.2587 1201.93 48.2587 1201.97C48.4187 1201.98 48.5787 1201.99 48.7387 1201.99C52.0887 1201.99 55.2287 1200.41 57.2087 1197.72C57.8787 1196.79 57.6987 1196.2 57.5287 1195.93Z" fill="white" fill-opacity="0.4"/>
<defs>
<clipPath id="clip0_47_133747">
<rect width="52" height="52" fill="white" transform="translate(22 22)"/>
</clipPath>
</defs>
</svg>
