<svg width="42" height="28" viewBox="0 0 42 28" fill="none" xmlns="http://www.w3.org/2000/svg">
<path d="M24 0.999375L24.625 0.219375C24.4477 0.0773718 24.2273 0 24 0C23.7728 0 23.5524 0.0773718 23.375 0.219375L24 0.999375ZM8.37505 12.2194C8.17747 12.3881 8.05331 12.6271 8.02886 12.8857C8.0044 13.1444 8.08158 13.4024 8.24404 13.6052C8.4065 13.8079 8.64149 13.9395 8.89925 13.972C9.15702 14.0045 9.41733 13.9354 9.62505 13.7794L8.37505 12.2194ZM38.375 13.7794C38.4769 13.8664 38.5952 13.932 38.7229 13.9724C38.8507 14.0128 38.9852 14.0271 39.1185 14.0145C39.2519 14.0019 39.3814 13.9626 39.4992 13.899C39.6171 13.8354 39.721 13.7487 39.8048 13.6442C39.8886 13.5397 39.9505 13.4194 39.9868 13.2905C40.0232 13.1615 40.0333 13.0266 40.0166 12.8937C39.9998 12.7608 39.9565 12.6327 39.8892 12.5168C39.822 12.401 39.7321 12.2998 39.625 12.2194L38.375 13.7794ZM23.375 0.219375L8.37505 12.2194L9.62505 13.7794L24.625 1.77938L23.375 0.219375ZM39.625 12.2194L24.625 0.219375L23.375 1.77938L38.375 13.7794L39.625 12.2194Z" fill="#06BEFB"/>
<path d="M11 27.0016C11 27.2668 11.1054 27.5211 11.2929 27.7087C11.4804 27.8962 11.7348 28.0016 12 28.0016C12.2652 28.0016 12.5196 27.8962 12.7071 27.7087C12.8946 27.5211 13 27.2668 13 27.0016H11ZM13 10.6016C13 10.3363 12.8946 10.082 12.7071 9.89445C12.5196 9.70692 12.2652 9.60156 12 9.60156C11.7348 9.60156 11.4804 9.70692 11.2929 9.89445C11.1054 10.082 11 10.3363 11 10.6016H13ZM13 27.0016V10.6016H11V27.0016H13Z" fill="#06BEFB"/>
<path d="M9 23H8C8 23.2652 8.10536 23.5196 8.29289 23.7071C8.48043 23.8946 8.73478 24 9 24V23ZM11 25C11 25.2652 11.1054 25.5196 11.2929 25.7071C11.4804 25.8946 11.7348 26 12 26C12.2652 26 12.5196 25.8946 12.7071 25.7071C12.8946 25.5196 13 25.2652 13 25H11ZM41 28C41.2652 28 41.5196 27.8946 41.7071 27.7071C41.8946 27.5196 42 27.2652 42 27C42 26.7348 41.8946 26.4804 41.7071 26.2929C41.5196 26.1054 41.2652 26 41 26V28ZM5 26C4.20435 26 3.44129 25.6839 2.87868 25.1213C2.31607 24.5587 2 23.7956 2 23H0C0 24.3261 0.526784 25.5979 1.46447 26.5355C2.40215 27.4732 3.67392 28 5 28V26ZM2 23C2 22.2044 2.31607 21.4413 2.87868 20.8787C3.44129 20.3161 4.20435 20 5 20V18C3.67392 18 2.40215 18.5268 1.46447 19.4645C0.526784 20.4021 0 21.6739 0 23H2ZM5 20C5.79565 20 6.55871 20.3161 7.12132 20.8787C7.68393 21.4413 8 22.2044 8 23H10C10 21.6739 9.47322 20.4021 8.53553 19.4645C7.59785 18.5268 6.32608 18 5 18V20ZM9 24H10V22H9V24ZM10 24C10.2652 24 10.5196 24.1054 10.7071 24.2929C10.8946 24.4804 11 24.7348 11 25H13C13 24.2044 12.6839 23.4413 12.1213 22.8787C11.5587 22.3161 10.7956 22 10 22V24ZM41 26H5V28H41V26Z" fill="#06BEFB"/>
<path d="M35 27C35 27.2652 35.1054 27.5196 35.2929 27.7071C35.4804 27.8946 35.7348 28 36 28C36.2652 28 36.5196 27.8946 36.7071 27.7071C36.8946 27.5196 37 27.2652 37 27H35ZM36 5H37C37 4.73478 36.8946 4.48043 36.7071 4.29289C36.5196 4.10536 36.2652 4 36 4V5ZM32 5V4C31.7348 4 31.4804 4.10536 31.2929 4.29289C31.1054 4.48043 31 4.73478 31 5H32ZM31 7.4C31 7.66522 31.1054 7.91957 31.2929 8.10711C31.4804 8.29464 31.7348 8.4 32 8.4C32.2652 8.4 32.5196 8.29464 32.7071 8.10711C32.8946 7.91957 33 7.66522 33 7.4H31ZM36 4H32V6H36V4ZM31 5V7.4H33V5H31ZM37 27V5H35V27H37ZM26 26C26 26.2652 26.1054 26.5196 26.2929 26.7071C26.4804 26.8946 26.7348 27 27 27C27.2652 27 27.5196 26.8946 27.7071 26.7071C27.8946 26.5196 28 26.2652 28 26H26ZM20 26C20 26.2652 20.1054 26.5196 20.2929 26.7071C20.4804 26.8946 20.7348 27 21 27C21.2652 27 21.5196 26.8946 21.7071 26.7071C21.8946 26.5196 22 26.2652 22 26H20ZM28 26V20H26V26H28ZM26 18H22V20H26V18ZM20 20V26H22V20H20ZM22 18C21.4696 18 20.9609 18.2107 20.5858 18.5858C20.2107 18.9609 20 19.4696 20 20H22V18ZM28 20C28 19.4696 27.7893 18.9609 27.4142 18.5858C27.0391 18.2107 26.5304 18 26 18V20H28ZM20 10.25V12.75H22V10.25H20ZM22.286 15H25.714V13H22.286V15ZM28 12.75V10.25H26V12.75H28ZM25.714 8H22.286V10H25.714V8ZM28 10.25C28 8.981 26.95 8 25.714 8V10C25.899 10 26 10.138 26 10.25H28ZM25.714 15C26.95 15 28 14.019 28 12.75H26C26 12.862 25.899 13 25.714 13V15ZM20 12.75C20 14.019 21.05 15 22.286 15V13C22.101 13 22 12.862 22 12.75H20ZM22 10.25C22 10.138 22.101 10 22.286 10V8C21.05 8 20 8.981 20 10.25H22Z" fill="#06BEFB"/>
</svg>
