<svg width="50" height="50" viewBox="0 0 50 50" fill="none" xmlns="http://www.w3.org/2000/svg">
<path d="M40 17.7721C39.5117 17.6159 39.0234 17.4401 38.5156 17.3034C38.5938 16.9518 38.6719 16.6198 38.75 16.2878C39.8828 10.7995 39.1406 6.38542 36.6211 4.92058C34.1797 3.51433 30.2148 4.97917 26.2109 8.45573C25.8203 8.78777 25.4492 9.13933 25.0586 9.51042C24.8047 9.25652 24.5508 9.02214 24.2969 8.8073C20.0977 5.07683 15.8984 3.51433 13.3789 4.97917C10.957 6.38542 10.2539 10.526 11.2695 15.7409C11.3672 16.2487 11.4844 16.7565 11.6211 17.2839C11.0352 17.4596 10.4492 17.6354 9.90234 17.8307C4.98047 19.53 1.83594 22.2057 1.83594 24.9987C1.83594 27.8698 5.19531 30.7604 10.3125 32.4987C10.7227 32.6354 11.1328 32.7721 11.5625 32.8893C11.4258 33.4557 11.3086 34.0026 11.1914 34.5495C10.2148 39.6667 10.9766 43.7096 13.3984 45.1159C15.8984 46.5612 20.0781 45.0768 24.1406 41.5221C24.4531 41.2487 24.7852 40.9362 25.1172 40.6237C25.5273 41.0339 25.957 41.405 26.3672 41.776C30.3125 45.1745 34.1992 46.5417 36.6211 45.1354C39.1016 43.6901 39.9219 39.3346 38.8672 34.0221C38.7891 33.612 38.6914 33.2018 38.5938 32.7917C38.8867 32.7135 39.1797 32.6159 39.4531 32.5182C44.7656 30.7604 48.2422 27.9089 48.2422 24.9987C48.2422 22.2057 45 19.4909 40 17.7721ZM27.5195 9.94011C30.9375 6.95183 34.1406 5.77995 35.6055 6.6198C37.168 7.51823 37.7539 11.1315 36.7969 15.8581C36.7383 16.151 36.6602 16.4635 36.582 16.776C34.6484 16.3268 32.5586 15.9948 30.3711 15.7995C29.1016 13.9831 27.7734 12.3425 26.4453 10.8971C26.8164 10.5846 27.168 10.2526 27.5195 9.94011ZM16.6016 25.0378C17.207 23.7878 17.8516 22.5378 18.5742 21.2878C19.2969 20.0378 20.0391 18.8464 20.8203 17.7135C22.207 17.6159 23.6133 17.5573 25.0391 17.5573C26.4844 17.5573 27.8906 17.6159 29.2773 17.7135C30.0391 18.8464 30.8008 20.0378 31.5039 21.2878C32.2266 22.5378 32.8906 23.7878 33.4961 25.0182C32.8906 26.2682 32.2266 27.5182 31.5039 28.7682C30.7813 30.0182 30.0391 31.2292 29.2773 32.362C27.9102 32.4596 26.4844 32.5182 25.0195 32.5182C23.5742 32.5182 22.168 32.4792 20.8203 32.3815C20.0391 31.2292 19.2773 30.0378 18.5547 28.7878C17.8516 27.5378 17.1875 26.2878 16.6016 25.0378ZM15.5469 27.362C15.957 28.1628 16.4062 28.9635 16.8555 29.7643C17.3242 30.5846 17.8125 31.3659 18.3203 32.1471C16.7969 31.9714 15.3711 31.7565 14.043 31.4635C14.4531 30.1354 14.9609 28.7682 15.5469 27.362ZM15.5469 22.7135C14.9609 21.3464 14.4727 19.9987 14.082 18.6901C15.4102 18.3971 16.8164 18.1432 18.2812 17.9675C17.793 18.7292 17.3242 19.5104 16.8555 20.3112C16.3867 21.112 15.957 21.9128 15.5469 22.7135ZM33.2422 29.7643C33.7109 28.944 34.1602 28.1237 34.5898 27.3034C35.2148 28.7096 35.7422 30.0768 36.1523 31.3854C34.8047 31.6979 33.3594 31.9323 31.8164 32.1276C32.2852 31.3464 32.7734 30.5651 33.2422 29.7643ZM34.5703 22.7135C34.1406 21.9128 33.7109 21.112 33.2422 20.2917C32.7734 19.4909 32.3047 18.7292 31.8359 17.9675C33.3203 18.1628 34.7266 18.3971 36.0742 18.7096C35.6445 19.9987 35.1562 21.3268 34.5703 22.7135ZM25.0586 12.3425C25.9766 13.3385 26.8945 14.4323 27.793 15.6432C26.8945 15.6042 25.957 15.5846 25.0391 15.5846C24.1211 15.5846 23.2031 15.6042 22.3047 15.6432C23.2227 14.4518 24.1406 13.3385 25.0586 12.3425ZM14.375 6.69792C15.918 5.79948 19.3555 7.08855 22.9688 10.2917C23.2031 10.5065 23.4375 10.7214 23.6719 10.9362C22.3242 12.3815 20.9961 14.0221 19.7266 15.819C17.5391 16.0143 15.4492 16.3464 13.5352 16.776C13.418 16.2878 13.3008 15.819 13.2227 15.3503C12.3437 10.8971 12.9297 7.53777 14.375 6.69792ZM12.1094 30.9753C11.7188 30.8581 11.3281 30.7409 10.957 30.6237C8.69141 29.8425 6.83594 28.8464 5.54688 27.7526C4.39453 26.776 3.80859 25.78 3.80859 24.9987C3.80859 23.2995 6.32812 21.151 10.5273 19.6862C11.0352 19.5104 11.5625 19.3346 12.1289 19.1784C12.7148 21.0729 13.4766 23.0456 14.3945 25.0378C13.4766 27.069 12.6953 29.0612 12.1094 30.9753ZM22.8516 40.0182C21.0547 41.6003 19.2383 42.7135 17.6562 43.2604C16.2305 43.7682 15.0977 43.7878 14.3945 43.3776C12.9297 42.5378 12.3242 39.276 13.1445 34.901C13.2422 34.3932 13.3594 33.8854 13.4766 33.3581C15.3711 33.7878 17.4805 34.0807 19.7266 34.2565C21.0156 36.0534 22.3633 37.7331 23.7109 39.1784C23.4375 39.4909 23.1445 39.7643 22.8516 40.0182ZM25.1172 37.7721C24.1797 36.7565 23.2422 35.6432 22.3242 34.4323C23.2031 34.4714 24.1211 34.4909 25.0391 34.4909C25.9766 34.4909 26.9141 34.4714 27.832 34.4323C26.9336 35.6628 26.0352 36.776 25.1172 37.7721ZM37.1484 40.526C36.875 42.0104 36.3086 43.0065 35.625 43.3971C34.1602 44.237 31.0352 43.1432 27.6563 40.2331C27.2656 39.901 26.875 39.5495 26.4844 39.1784C27.793 37.7526 29.1016 36.0925 30.3711 34.237C32.6172 34.0417 34.7266 33.7096 36.6602 33.2604C36.7578 33.651 36.8359 34.0221 36.9141 34.3737C37.4023 36.7565 37.4609 38.8854 37.1484 40.526ZM38.8477 30.6432C38.5938 30.7214 38.3398 30.7995 38.0664 30.8776C37.4805 29.0221 36.6797 27.0495 35.7227 24.9987C36.6406 23.0065 37.4023 21.0534 37.9883 19.1979C38.457 19.3346 38.9258 19.4714 39.375 19.6276C43.6719 21.112 46.2891 23.2995 46.2891 24.9792C46.2695 26.776 43.4375 29.1198 38.8477 30.6432Z" fill="#53C1DE"/>
<path d="M27.973 27.9669C29.59 26.3499 29.59 23.7282 27.973 22.1112C26.356 20.4942 23.7343 20.4942 22.1173 22.1112C20.5003 23.7282 20.5003 26.3499 22.1173 27.9669C23.7343 29.5839 26.356 29.5839 27.973 27.9669Z" fill="#53C1DE"/>
</svg>
