<svg width="43" height="46" viewBox="0 0 43 46" fill="none" xmlns="http://www.w3.org/2000/svg">
<path fill-rule="evenodd" clip-rule="evenodd" d="M39.7793 20.7385C39.4096 10.4424 29.3526 2.31568 19.6637 3.21394L19.6213 3.21708L19.5788 3.21864C9.73264 3.60563 2.33579 12.4088 3.21831 20.512L3.22304 20.556L3.22619 20.6017C3.64307 28.8653 11.7777 35.1767 19.346 34.3461L19.3885 34.3413L19.4309 34.3382C27.1565 33.9134 32.653 26.9461 31.8523 20.888L31.846 20.8424L31.8429 20.7967C31.3867 14.5609 25.1713 10.0712 19.733 10.82L19.6905 10.8247L19.6465 10.8294C14.0414 11.2903 10.4437 16.3999 11.1437 20.4113L11.1516 20.4585L11.1579 20.5057C11.6298 24.7154 15.9197 27.3897 19.2186 26.751L19.261 26.7432L19.3051 26.7368C22.8037 26.2602 24.487 23.0463 23.9552 21.0956L23.9411 21.0469L23.9317 20.9981C23.713 19.9362 23.0523 19.1544 22.2468 18.6935C21.4021 18.2121 20.5604 18.168 20.0602 18.3521C19.2453 18.651 18.3408 18.2325 18.0419 17.4177C17.7414 16.6028 18.1599 15.6982 18.9747 15.3978C20.5337 14.8252 22.3491 15.1288 23.8074 15.9625C25.2924 16.8104 26.5713 18.2923 27.0024 20.3169C28.0595 24.3268 24.8456 29.1327 19.7739 29.8485C14.7477 30.7924 8.74471 26.9476 8.0368 20.9053C7.01899 14.8944 12.1474 8.31399 19.346 7.69733C26.4801 6.74244 34.3583 12.4356 34.9766 20.5214C36.0069 28.5475 28.9782 36.9386 19.6465 37.4781C10.3981 38.4661 0.62581 30.9308 0.0862287 20.8062C-0.978776 10.7508 7.95657 0.550633 19.4152 0.0771226C30.7716 -0.950127 42.4568 8.41152 42.9208 20.5796C44.033 32.6754 33.1612 44.713 19.5615 45.0952C18.6931 45.1204 17.9695 44.4361 17.9459 43.5677C17.9207 42.6993 18.6051 41.9742 19.4734 41.9506C31.437 41.6139 40.742 30.967 39.784 20.8298L39.7809 20.7841L39.7793 20.7385Z" fill="#F5F9FC"/>
</svg>
