<svg width="30" height="30" viewBox="0 0 30 30" fill="none" xmlns="http://www.w3.org/2000/svg">
<g clip-path="url(#clip0_4_2866)">
<path d="M14.9997 0.681873C7.09198 0.681873 0.681507 7.09234 0.681507 15.0001C0.681507 22.9078 7.09198 29.3182 14.9997 29.3182C22.9074 29.3182 29.3179 22.9078 29.3179 15.0001C29.3179 7.09234 22.9074 0.681873 14.9997 0.681873Z" fill="white" stroke="#D9D9D9" stroke-width="1.36364"/>
<path fill-rule="evenodd" clip-rule="evenodd" d="M11.2551 14.8377L16.1164 10.1257C16.154 10.0867 16.1989 10.0555 16.2485 10.0338C16.2982 10.0122 16.3516 10.0006 16.4058 9.99964C16.4599 9.99869 16.5137 10.0084 16.5641 10.0283C16.6145 10.0482 16.6605 10.0778 16.6994 10.1154C16.7376 10.1526 16.7679 10.1971 16.7883 10.2464C16.8087 10.2956 16.8188 10.3485 16.818 10.4018C16.8168 10.4551 16.8046 10.5076 16.7824 10.556C16.7601 10.6044 16.7281 10.6478 16.6885 10.6834L12.1189 15.1425L16.7212 19.6289C16.7687 19.7056 16.7878 19.7965 16.7754 19.8859C16.7629 19.9753 16.7196 20.0575 16.653 20.1184C16.5855 20.1804 16.4992 20.2182 16.4079 20.2257C16.3165 20.2332 16.2252 20.2101 16.1485 20.16L11.2605 15.3954C11.222 15.3598 11.191 15.3167 11.1696 15.2688C11.1481 15.2209 11.1366 15.1691 11.1357 15.1166C11.1357 15.0123 11.1787 14.9127 11.2551 14.8377Z" fill="#0075AE" stroke="#D9D9D9" stroke-width="0.681818"/>
</g>
<defs>
<clipPath id="clip0_4_2866">
<rect width="30" height="30" fill="white"/>
</clipPath>
</defs>
</svg>
