<svg width="20" height="20" viewBox="0 0 20 20" fill="none" xmlns="http://www.w3.org/2000/svg">
<path fill-rule="evenodd" clip-rule="evenodd" d="M10.0007 2.70703C10.3458 2.70703 10.6257 2.98686 10.6257 3.33203V9.3737H16.6673C17.0125 9.3737 17.2923 9.65353 17.2923 9.9987C17.2923 10.3439 17.0125 10.6237 16.6673 10.6237H10.6257V16.6654C10.6257 17.0105 10.3458 17.2904 10.0007 17.2904C9.65548 17.2904 9.37565 17.0105 9.37565 16.6654V10.6237H3.33398C2.98881 10.6237 2.70898 10.3439 2.70898 9.9987C2.70898 9.65353 2.98881 9.3737 3.33398 9.3737H9.37565V3.33203C9.37565 2.98686 9.65548 2.70703 10.0007 2.70703Z" fill="#07080A"/>
</svg>
