<svg width="45" height="24" viewBox="0 0 45 24" fill="none" xmlns="http://www.w3.org/2000/svg">
<path d="M24.872 16.4813C22.9314 15.2359 21.8187 13.4156 21.8187 11.4871L21.8187 8.77025C21.8187 5.34108 18.4637 2.50244 14.118 2.0269L14.118 0.974472C14.118 0.435589 13.543 -1.73163e-10 12.8345 -1.64105e-10C12.126 -1.55046e-10 11.5511 0.435589 11.5511 0.974472L11.5511 2.0269C7.20401 2.50244 3.85035 5.34108 3.85035 8.77025L3.85035 11.4871C3.85035 13.4156 2.7376 15.2359 0.785472 16.489C0.28621 16.8135 -3.83378e-10 17.2852 -3.94445e-10 17.7841C-4.15301e-10 18.7245 1.00751 19.4894 2.24604 19.4894L23.423 19.4894C24.6615 19.4894 25.669 18.7245 25.669 17.7841C25.669 17.2852 25.3828 16.8135 24.872 16.4813Z" fill="#828797"/>
<path d="M12.834 23.3873C15.1583 23.3873 17.1028 22.1293 17.5494 20.4639L8.11862 20.4639C8.56526 22.1293 10.5097 23.3873 12.834 23.3873Z" fill="#828797"/>
<circle cx="41.1972" cy="12.9533" r="3.80282" fill="#5361FD"/>
</svg>
