<svg width="24" height="24" viewBox="0 0 24 24" fill="none" xmlns="http://www.w3.org/2000/svg">
<path fill-rule="evenodd" clip-rule="evenodd" d="M20.8064 7.62679L20.184 6.5467C19.6574 5.63278 18.4905 5.31749 17.5753 5.84189V5.84189C17.1397 6.09852 16.6198 6.17133 16.1305 6.04426C15.6411 5.91719 15.2224 5.60069 14.9666 5.16455C14.8021 4.88732 14.7137 4.57157 14.7103 4.24921V4.24921C14.7251 3.7324 14.5302 3.23158 14.1698 2.86084C13.8094 2.49011 13.3143 2.28104 12.7973 2.28125H11.5433C11.0367 2.28124 10.5511 2.48309 10.1938 2.84212C9.83644 3.20115 9.63693 3.68777 9.63937 4.19429V4.19429C9.62435 5.2401 8.77224 6.07998 7.72632 6.07988C7.40397 6.07653 7.08821 5.98812 6.81099 5.82358V5.82358C5.89582 5.29919 4.72887 5.61447 4.20229 6.52839L3.5341 7.62679C3.00817 8.53957 3.31916 9.70578 4.22975 10.2355V10.2355C4.82166 10.5772 5.18629 11.2088 5.18629 11.8922C5.18629 12.5757 4.82166 13.2073 4.22975 13.549V13.549C3.32031 14.0751 3.00898 15.2385 3.5341 16.1485V16.1485L4.16568 17.2378C4.4124 17.683 4.82636 18.0115 5.31595 18.1506C5.80554 18.2898 6.3304 18.2281 6.77438 17.9792V17.9792C7.21084 17.7245 7.73094 17.6547 8.2191 17.7854C8.70725 17.916 9.12299 18.2362 9.37392 18.6748C9.53845 18.9521 9.62686 19.2678 9.63021 19.5902V19.5902C9.63021 20.6467 10.4867 21.5032 11.5433 21.5032H12.7973C13.8502 21.5032 14.7053 20.6523 14.7103 19.5993V19.5993C14.7079 19.0912 14.9086 18.6032 15.2679 18.2439C15.6272 17.8846 16.1152 17.6838 16.6233 17.6863C16.9449 17.6949 17.2594 17.7829 17.5387 17.9426V17.9426C18.4515 18.4685 19.6177 18.1575 20.1474 17.2469V17.2469L20.8064 16.1485C21.0615 15.7107 21.1315 15.1892 21.001 14.6995C20.8704 14.2099 20.55 13.7925 20.1108 13.5398V13.5398C19.6715 13.2871 19.3511 12.8698 19.2206 12.3801C19.09 11.8905 19.16 11.369 19.4151 10.9311C19.581 10.6415 19.8211 10.4014 20.1108 10.2355V10.2355C21.0159 9.70607 21.3262 8.54667 20.8064 7.63594V7.63594V7.62679Z" stroke="white" stroke-width="2" stroke-linecap="round" stroke-linejoin="round"/>
<ellipse cx="12.1752" cy="11.894" rx="2.63616" ry="2.63616" stroke="#EA4961" stroke-width="2" stroke-linecap="round" stroke-linejoin="round"/>
</svg>
