<svg width="32" height="32" viewBox="0 0 32 32" fill="none" xmlns="http://www.w3.org/2000/svg">
<path fill-rule="evenodd" clip-rule="evenodd" d="M4.66809 18.3802V18.0882C4.71093 17.2244 4.98779 16.3874 5.47013 15.6635C6.27299 14.794 6.8226 13.7285 7.06128 12.5787C7.06128 11.6901 7.06128 10.7887 7.13889 9.9001C7.53991 5.62195 11.77 2.66406 15.9484 2.66406H16.0519C20.2303 2.66406 24.4604 5.62195 24.8743 9.9001C24.9519 10.7887 24.8743 11.6901 24.939 12.5787C25.1809 13.7311 25.73 14.8 26.5302 15.6762C27.0161 16.3937 27.2934 17.2276 27.3322 18.0882V18.3675C27.3611 19.5281 26.9614 20.6598 26.2068 21.5539C25.2096 22.5994 23.8565 23.2498 22.4035 23.382C18.143 23.839 13.8444 23.839 9.58382 23.382C8.13252 23.2441 6.78134 22.5946 5.7806 21.5539C5.03766 20.6591 4.64331 19.5342 4.66809 18.3802Z" stroke="#200E32" stroke-width="1.5" stroke-linecap="round" stroke-linejoin="round"/>
<path d="M12.7402 27.7969C13.4059 28.6324 14.3835 29.1732 15.4566 29.2995C16.5297 29.4257 17.6099 29.1271 18.458 28.4697C18.7189 28.2753 18.9536 28.0492 19.1566 27.7969" stroke="#200E32" stroke-width="1.5" stroke-linecap="round" stroke-linejoin="round"/>
</svg>
