<svg width="22" height="22" viewBox="0 0 22 22" fill="none" xmlns="http://www.w3.org/2000/svg">
<path d="M18.1628 6.90698C19.8582 6.90698 21.2326 5.53259 21.2326 3.83721C21.2326 2.14182 19.8582 0.767442 18.1628 0.767442C16.4674 0.767442 15.093 2.14182 15.093 3.83721C15.093 5.53259 16.4674 6.90698 18.1628 6.90698Z" stroke="#AEAEAE" stroke-width="1.5" stroke-linecap="round" stroke-linejoin="round"/>
<path d="M13.0465 0.767442H7.93023C2.81395 0.767442 0.767442 2.81395 0.767442 7.93023V14.0698C0.767442 19.186 2.81395 21.2326 7.93023 21.2326H14.0698C19.186 21.2326 21.2326 19.186 21.2326 14.0698V8.95349" stroke="#AEAEAE" stroke-width="1.5" stroke-linecap="round" stroke-linejoin="round"/>
<path d="M5.68978 13.996C5.33164 12.8704 5.75117 11.4686 6.93815 11.09C7.56233 10.8853 8.32978 11.0593 8.76978 11.663C9.17908 11.0388 9.97722 10.8956 10.5912 11.09C11.7781 11.4686 12.1977 12.8704 11.8395 13.996C11.2768 15.7867 9.3121 16.7179 8.76978 16.7179C8.21722 16.7077 6.27303 15.797 5.68978 13.996Z" stroke="#AEAEAE" stroke-width="1.5" stroke-linecap="round" stroke-linejoin="round"/>
</svg>
