<svg width="16" height="16" viewBox="0 0 16 16" fill="none" xmlns="http://www.w3.org/2000/svg">
<path fill-rule="evenodd" clip-rule="evenodd" d="M15.0367 2.9957C15.2224 3.20002 15.2073 3.51625 15.003 3.702L11.3363 7.03536C11.1456 7.2087 10.8544 7.2087 10.6637 7.03536L8.997 5.52018C8.79267 5.33443 8.7776 5.01821 8.96333 4.81388C9.14913 4.60955 9.46533 4.59449 9.66967 4.78024L11 5.98964L14.3303 2.96206C14.5347 2.77631 14.8509 2.79137 15.0367 2.9957ZM1.5 5.33204C1.5 5.05589 1.72386 4.83204 2 4.83204H6C6.27614 4.83204 6.5 5.05589 6.5 5.33204C6.5 5.60818 6.27614 5.83204 6 5.83204H2C1.72386 5.83204 1.5 5.60818 1.5 5.33204ZM15.0367 8.32903C15.2224 8.53336 15.2073 8.84956 15.003 9.03536L11.3363 12.3687C11.1456 12.542 10.8544 12.542 10.6637 12.3687L8.997 10.8535C8.79267 10.6678 8.7776 10.3516 8.96333 10.1472C9.14913 9.9429 9.46533 9.92783 9.66967 10.1136L11 11.323L14.3303 8.29543C14.5347 8.10963 14.8509 8.1247 15.0367 8.32903ZM1.5 10.6654C1.5 10.3892 1.72386 10.1654 2 10.1654H6C6.27614 10.1654 6.5 10.3892 6.5 10.6654C6.5 10.9415 6.27614 11.1654 6 11.1654H2C1.72386 11.1654 1.5 10.9415 1.5 10.6654Z" fill="#07080A"/>
</svg>
