<svg width="170" height="40" viewBox="0 0 170 40" fill="none" xmlns="http://www.w3.org/2000/svg">
<g clip-path="url(#clip0_47_72021)">
<path d="M11.1559 14.4069C9.1786 12.0899 2.7795 16.5824 2.83141 22.3633C2.83031 22.4343 2.80162 22.5021 2.75141 22.5523C2.7012 22.6025 2.63342 22.6312 2.56242 22.6323C2.51581 22.6318 2.47011 22.6194 2.42964 22.5963C2.38918 22.5732 2.35529 22.5401 2.33118 22.5002C1.9571 21.6911 1.76385 20.8102 1.76489 19.9188C1.76448 19.2483 1.87285 18.5821 2.08579 17.9463C2.10434 17.8915 2.10334 17.832 2.08296 17.7779C2.06258 17.7238 2.02408 17.6784 1.97402 17.6495C1.92395 17.6205 1.86541 17.6099 1.80835 17.6192C1.7513 17.6286 1.69925 17.6574 1.66107 17.7009C-1.56113 21.2175 0.232124 26.9041 4.88893 27.9361C5.32734 28.0333 5.77518 28.0824 6.22444 28.0829C14.9359 27.9083 12.9208 16.4739 11.1559 14.4069Z" fill="#81B441"/>
<path d="M83.7404 21.7981C83.7852 25.3601 80.85 28.2396 77.2894 28.1264C75.5888 28.1543 73.9452 27.5138 72.7119 26.3426C72.1147 25.7479 71.6435 25.039 71.3265 24.2582C71.0095 23.4774 70.8531 22.6407 70.8667 21.7981C70.8667 18.1644 73.5708 15.5264 77.2894 15.5264C81.0269 15.5264 83.7404 18.1644 83.7404 21.7981ZM81.1685 21.7981C81.1685 18.9053 79.1582 17.5792 77.2894 17.5792C75.4206 17.5792 73.4056 18.8958 73.4056 21.7886C73.4056 23.9075 74.7364 26.0358 77.2894 26.0358C79.1629 26.0358 81.1685 24.6909 81.1685 21.7981ZM66.9404 17.8859V24.0208C66.9404 25.328 67.3604 25.9367 68.3042 25.9367C68.4768 25.9355 68.6484 25.9101 68.8139 25.8612C68.9564 25.8183 69.1041 25.7933 69.2528 25.7857C69.3831 25.7804 69.5131 25.8021 69.6346 25.8496C69.7561 25.897 69.8665 25.9691 69.9587 26.0614C70.0509 26.1536 70.123 26.2639 70.1705 26.3854C70.2179 26.5069 70.2397 26.637 70.2344 26.7673C70.2256 26.9779 70.157 27.1816 70.0367 27.3546C69.9163 27.5276 69.7492 27.6627 69.5548 27.7441C69.0612 27.9403 68.5332 28.035 68.0022 28.0226C65.7135 28.0226 64.5006 26.7012 64.5006 24.2473V13.6104C64.4727 13.3517 64.5278 13.0907 64.6579 12.8653C64.7881 12.6399 64.9865 12.4618 65.2246 12.3566C66.0886 11.9748 67.0419 12.6713 66.9404 13.6104V15.852H69.1537C69.3729 15.826 69.5947 15.8717 69.7859 15.9821C69.977 16.0924 70.1274 16.2617 70.2145 16.4645C70.526 17.1889 69.9366 17.9784 69.1537 17.8859H66.9404ZM62.764 20.2266V26.7437C62.7845 26.9024 62.7704 27.0636 62.7227 27.2163C62.675 27.369 62.5948 27.5096 62.4877 27.6284C62.3805 27.7472 62.249 27.8414 62.102 27.9045C61.955 27.9677 61.7961 27.9983 61.6361 27.9943C61.4736 27.9988 61.3121 27.9682 61.1624 27.9047C61.0128 27.8412 60.8785 27.7463 60.7688 27.6263C60.6592 27.5063 60.5766 27.3641 60.5267 27.2094C60.4769 27.0546 60.4609 26.891 60.48 26.7295V26.1066C60.0386 26.7516 59.4397 27.2731 58.7401 27.6216C58.0406 27.9701 57.2636 28.1341 56.4829 28.0981C54.3168 28.0981 52.1319 26.956 52.1319 24.3983C52.1319 20.8448 56.2847 20.3446 60.3667 20.3446V20.0803C60.3667 18.4805 59.3238 17.5367 57.5069 17.5367C56.513 17.5506 55.5474 17.8703 54.7415 18.4522C54.5287 18.6089 54.2743 18.6995 54.0101 18.7118C53.8829 18.7119 53.757 18.6863 53.64 18.6365C53.5229 18.5867 53.4171 18.5138 53.329 18.4221C53.2408 18.3305 53.1721 18.2219 53.127 18.103C53.0818 17.9841 53.0612 17.8573 53.0663 17.7302C53.0657 17.5348 53.1164 17.3426 53.2133 17.1729C53.3102 17.0031 53.4499 16.8617 53.6184 16.7628C54.8291 15.9275 56.2723 15.4949 57.7429 15.5264C60.8764 15.5264 62.764 17.2866 62.764 20.2266ZM54.6849 24.3464C54.6849 26.0075 56.4876 26.1396 57.0445 26.1396C59.0878 26.1396 60.4045 24.7994 60.4045 22.723V22.1567H59.8665C57.6296 22.1567 54.6566 22.3832 54.6849 24.3464ZM51.7921 16.8053C51.7854 17.0378 51.7341 17.2669 51.6411 17.4801L47.7431 26.6682C47.2806 27.7677 46.5256 27.999 45.9687 27.999C45.4119 27.999 44.6663 27.7677 44.1943 26.6682L40.3247 17.5273C40.2238 17.3098 40.1707 17.0733 40.169 16.8336C40.1764 16.514 40.3102 16.2104 40.5411 15.9892C40.7719 15.7681 41.081 15.6475 41.4006 15.6538C41.6882 15.6564 41.9668 15.7541 42.193 15.9317C42.4193 16.1092 42.5804 16.3567 42.6512 16.6354L45.9923 25.1298L49.3618 16.6354C49.4286 16.359 49.5854 16.1126 49.8075 15.9349C50.0296 15.7573 50.3044 15.6584 50.5887 15.6538C50.7443 15.6468 50.8996 15.6714 51.0453 15.7261C51.1911 15.7808 51.3242 15.8645 51.4367 15.9721C51.5492 16.0798 51.6387 16.2091 51.6998 16.3523C51.7608 16.4955 51.7923 16.6496 51.7921 16.8053ZM39.4611 20.4012V26.6446C39.4891 26.9052 39.4336 27.1679 39.3025 27.3949C39.1715 27.6219 38.9717 27.8014 38.732 27.9074C37.8618 28.2925 36.9005 27.5908 37.0024 26.6446V21.1752C37.0024 18.7778 36.1908 17.6122 34.3597 17.6122C32.5287 17.6122 31.2499 19.1931 31.2499 21.4536V26.6446C31.272 26.8974 31.2158 27.1509 31.0889 27.3706C30.962 27.5904 30.7706 27.7658 30.5406 27.873C29.6779 28.275 28.7034 27.5927 28.7865 26.6446V16.9563C28.7646 16.7913 28.7787 16.6235 28.8279 16.4645C28.8771 16.3055 28.9602 16.1591 29.0715 16.0353C29.1827 15.9115 29.3194 15.8133 29.4723 15.7474C29.6251 15.6816 29.7904 15.6496 29.9568 15.6538C30.1692 15.6538 31.113 15.7152 31.113 16.9563V17.7585C31.4987 17.0748 32.0608 16.5071 32.7405 16.1145C33.4203 15.7219 34.193 15.5188 34.9779 15.5264C38.2766 15.5264 39.4517 18.0464 39.4611 20.4012ZM27.2103 20.5428C27.2502 20.8019 27.2676 21.064 27.2622 21.3262C27.2622 22.1709 26.8328 22.5814 25.955 22.5814H17.8854C17.9482 23.5353 18.375 24.4285 19.0776 25.0767C19.7801 25.7248 20.7049 26.0783 21.6606 26.0641C22.221 26.0691 22.7765 25.96 23.2933 25.7433C23.8101 25.5267 24.2774 25.2072 24.6667 24.8041C24.7773 24.6846 24.9106 24.5883 25.0589 24.521C25.2072 24.4538 25.3675 24.4168 25.5303 24.4125C25.6688 24.4059 25.8073 24.428 25.9369 24.4773C26.0665 24.5267 26.1846 24.6021 26.2838 24.6991C26.383 24.7961 26.4611 24.9124 26.5133 25.0409C26.5656 25.1694 26.5908 25.3073 26.5874 25.4459C26.5736 25.7805 26.4337 26.0975 26.1957 26.3331C25.6066 26.9317 24.8988 27.4005 24.1178 27.7094C23.3368 28.0182 22.4998 28.1602 21.6606 28.1264C17.9325 28.1264 15.3654 25.512 15.3654 21.85C15.3654 18.188 17.9609 15.5264 21.5379 15.5264C24.6525 15.5264 26.7761 17.4046 27.2103 20.5428ZM17.8806 20.7221H24.7988C24.7233 18.7259 23.4775 17.4895 21.5379 17.4895C20.6341 17.4717 19.7565 17.7941 19.0791 18.3928C18.4017 18.9915 17.9739 19.8229 17.8806 20.7221Z" fill="#121112"/>
<path d="M167.67 23.0518C167.964 23.5632 168.111 24.1465 168.094 24.7365C168.104 25.2224 167.993 25.7031 167.773 26.1361C167.552 26.569 167.228 26.9409 166.83 27.2188C165.909 27.8508 164.807 28.1671 163.691 28.1201C162.507 28.1733 161.336 27.8423 160.355 27.1763C159.941 26.8927 159.602 26.5115 159.37 26.0662C159.138 25.6209 159.019 25.1254 159.024 24.6233C159.024 24.5277 159.062 24.436 159.129 24.368C159.196 24.3 159.287 24.2611 159.383 24.2599H159.959C160.051 24.2597 160.14 24.2947 160.208 24.3578C160.275 24.421 160.316 24.5074 160.322 24.5997C160.333 24.9221 160.421 25.2371 160.58 25.5181C160.738 25.7991 160.962 26.0376 161.233 26.2136C161.973 26.6576 162.829 26.8696 163.691 26.8224C164.503 26.8618 165.305 26.6348 165.975 26.1758C166.221 26.022 166.425 25.8095 166.568 25.5575C166.712 25.3054 166.79 25.0217 166.797 24.7318C166.797 23.519 165.702 22.7073 163.493 22.2354C161.983 21.9239 160.954 21.5039 160.341 20.9801C160.022 20.7019 159.769 20.3556 159.602 19.9669C159.435 19.5781 159.356 19.1568 159.373 18.7338C159.372 18.2722 159.482 17.817 159.693 17.4065C159.904 16.9959 160.21 16.642 160.586 16.3743C161.46 15.7523 162.516 15.4385 163.588 15.4824C164.735 15.4238 165.868 15.7566 166.801 16.4262C167.21 16.7405 167.537 17.1476 167.757 17.6137C167.977 18.0798 168.083 18.5915 168.066 19.1066C168.066 19.203 168.028 19.2954 167.96 19.3636C167.891 19.4317 167.799 19.47 167.703 19.47H167.117C167.07 19.4706 167.022 19.4617 166.978 19.4436C166.933 19.4256 166.893 19.3989 166.859 19.365C166.825 19.3311 166.799 19.2908 166.78 19.2464C166.762 19.2021 166.753 19.1545 166.754 19.1066C166.756 18.7842 166.681 18.4659 166.535 18.1785C166.389 17.8911 166.176 17.643 165.914 17.4549C165.241 16.9642 164.42 16.7178 163.588 16.7565C162.818 16.7135 162.055 16.9204 161.412 17.3464C161.187 17.4935 161.002 17.6943 160.873 17.9307C160.745 18.1671 160.677 18.4317 160.676 18.7008C160.652 19.0528 160.741 19.4035 160.931 19.7012C161.187 20.0013 161.511 20.2372 161.875 20.3902C162.546 20.6828 163.247 20.9042 163.965 21.0509C164.783 21.2175 165.576 21.4887 166.325 21.8579C166.87 22.1358 167.332 22.5525 167.665 23.066L167.67 23.0518ZM158.165 27.0347L158.26 27.5774C158.275 27.6615 158.26 27.7482 158.218 27.8224C158.176 27.8966 158.109 27.9536 158.028 27.9833C157.597 28.1031 157.15 28.1541 156.702 28.1343C156.313 28.168 155.921 28.1095 155.559 27.9636C155.197 27.8176 154.874 27.5883 154.617 27.2943C154.15 26.5786 153.93 25.7303 153.989 24.8781V16.9878H152.224C152.128 16.9878 152.037 16.9501 151.969 16.883C151.901 16.8159 151.862 16.7247 151.861 16.6291V16.0534C151.861 15.957 151.899 15.8646 151.967 15.7964C152.035 15.7283 152.128 15.69 152.224 15.69H153.989V12.9482C153.989 12.8518 154.027 12.7594 154.095 12.6913C154.164 12.6231 154.256 12.5848 154.352 12.5848H154.937C155.033 12.5861 155.125 12.6247 155.193 12.6926C155.261 12.7605 155.3 12.8522 155.301 12.9482V15.69H157.552C157.648 15.69 157.741 15.7283 157.809 15.7964C157.877 15.8646 157.915 15.957 157.915 16.0534V16.6291C157.914 16.7247 157.875 16.8159 157.807 16.883C157.739 16.9501 157.647 16.9878 157.552 16.9878H155.301V24.8026C155.26 25.3583 155.376 25.9143 155.636 26.4071C155.943 26.8601 156.599 26.9073 157.755 26.7421C157.848 26.7283 157.942 26.7511 158.019 26.8056C158.096 26.8602 158.148 26.9423 158.165 27.0347ZM146.571 15.5626C147.906 15.5626 148.935 15.9732 149.591 16.7376C150.247 17.5021 150.591 18.6442 150.591 20.1354V27.6435C150.59 27.7395 150.551 27.8312 150.483 27.8991C150.416 27.967 150.324 28.0056 150.228 28.0069H149.652C149.556 28.0069 149.463 27.9686 149.395 27.9004C149.327 27.8323 149.289 27.7399 149.289 27.6435V20.1307C149.284 18.9934 149.039 18.1298 148.619 17.6296C148.199 17.1293 147.481 16.8745 146.537 16.8745C146.106 16.867 145.678 16.9468 145.278 17.1089C144.878 17.2711 144.515 17.5124 144.211 17.8183C143.523 18.5035 143.049 19.3742 142.847 20.3242V27.6435C142.847 27.7399 142.809 27.8323 142.741 27.9004C142.673 27.9686 142.58 28.0069 142.484 28.0069H141.913C141.816 28.0069 141.724 27.9686 141.656 27.9004C141.588 27.8323 141.549 27.7399 141.549 27.6435V16.1383C141.549 16.0419 141.588 15.9495 141.656 15.8814C141.724 15.8132 141.816 15.7749 141.913 15.7749H142.484C142.58 15.7749 142.673 15.8132 142.741 15.8814C142.809 15.9495 142.847 16.0419 142.847 16.1383V17.4597C143.155 17.0569 143.52 16.7022 143.933 16.4073C144.699 15.8551 145.621 15.5594 146.566 15.5626H146.571ZM138.605 16.9689C139.51 18.0404 139.98 19.4132 139.921 20.8149V21.4143C139.92 21.5103 139.881 21.602 139.814 21.6699C139.746 21.7377 139.654 21.7764 139.558 21.7776H131.3V22.0372C131.292 22.8808 131.481 23.7145 131.852 24.4723C132.186 25.1745 132.705 25.7729 133.352 26.2042C133.959 26.6081 134.672 26.8233 135.4 26.8224C136.024 26.8409 136.645 26.7217 137.217 26.4731C137.733 26.219 138.183 25.8472 138.529 25.3878C138.587 25.3147 138.671 25.2666 138.763 25.2534C138.855 25.2403 138.949 25.263 139.025 25.317L139.426 25.6048C139.465 25.6317 139.498 25.666 139.523 25.7058C139.549 25.7455 139.566 25.7899 139.575 25.8363C139.583 25.8828 139.582 25.9305 139.572 25.9766C139.562 26.0227 139.543 26.0664 139.515 26.1051C139.057 26.766 138.438 27.2988 137.716 27.6532C136.994 28.0075 136.194 28.1715 135.391 28.1296C134.415 28.1343 133.459 27.8539 132.64 27.3226C131.802 26.7798 131.126 26.0197 130.686 25.1235C130.215 24.1701 129.976 23.1192 129.988 22.0561V21.5842C129.976 20.5191 130.207 19.4654 130.662 18.5026C131.078 17.6052 131.731 16.8383 132.55 16.2846C133.328 15.7554 134.247 15.4741 135.188 15.4776C135.832 15.4602 136.472 15.5847 137.063 15.8425C137.653 16.1002 138.18 16.4848 138.605 16.9689ZM138.642 20.4799C138.61 19.8575 138.45 19.2485 138.171 18.6914C137.895 18.1169 137.47 17.6277 136.939 17.2756C136.419 16.9405 135.811 16.7665 135.193 16.7754C134.705 16.7674 134.222 16.8649 133.775 17.0612C133.329 17.2575 132.93 17.548 132.607 17.9127C131.951 18.6288 131.524 19.5243 131.38 20.4846L138.642 20.4799ZM124.367 15.5862C125.707 15.5862 126.75 15.992 127.411 16.7612C128.072 17.5305 128.416 18.6678 128.416 20.1543V27.6624C128.417 27.7103 128.408 27.7578 128.39 27.8022C128.372 27.8465 128.345 27.8869 128.311 27.9207C128.277 27.9546 128.237 27.9813 128.193 27.9994C128.148 28.0174 128.101 28.0264 128.053 28.0257H127.482C127.434 28.0264 127.386 28.0174 127.342 27.9994C127.298 27.9813 127.257 27.9546 127.223 27.9207C127.19 27.8869 127.163 27.8465 127.145 27.8022C127.127 27.7578 127.118 27.7103 127.118 27.6624V20.2062C127.118 19.0547 126.882 18.1581 126.444 17.639C126.005 17.1199 125.325 16.8839 124.339 16.8839C123.747 16.8716 123.161 17.0041 122.633 17.2697C122.104 17.5354 121.648 17.9262 121.304 18.4082C120.924 18.8764 120.684 19.4423 120.611 20.041V27.6624C120.611 27.7099 120.603 27.757 120.585 27.8011C120.567 27.8451 120.541 27.8852 120.507 27.919C120.474 27.9528 120.434 27.9797 120.39 27.998C120.347 28.0163 120.3 28.0257 120.252 28.0257H119.676C119.628 28.0264 119.581 28.0174 119.537 27.9994C119.492 27.9813 119.452 27.9546 119.418 27.9207C119.384 27.8869 119.357 27.8465 119.339 27.8022C119.321 27.7578 119.312 27.7103 119.313 27.6624V19.9655C119.383 19.1237 119.145 18.2851 118.643 17.606C118.218 17.1246 117.506 16.8839 116.529 16.8839C115.972 16.8804 115.424 17.0174 114.935 17.2822C114.446 17.547 114.031 17.9311 113.73 18.3988C113.296 19.0099 112.997 19.7065 112.853 20.4421V27.6624C112.853 27.7587 112.814 27.8512 112.746 27.9193C112.678 27.9874 112.586 28.0257 112.489 28.0257H111.904C111.856 28.0264 111.809 28.0174 111.764 27.9994C111.72 27.9813 111.68 27.9546 111.646 27.9207C111.612 27.8869 111.585 27.8465 111.567 27.8022C111.549 27.7578 111.54 27.7103 111.541 27.6624V16.1572C111.541 16.1097 111.55 16.0627 111.568 16.0188C111.587 15.975 111.614 15.9353 111.647 15.9019C111.681 15.8685 111.721 15.8422 111.765 15.8245C111.809 15.8067 111.856 15.7979 111.904 15.7985H112.489C112.585 15.7985 112.676 15.8362 112.744 15.9033C112.812 15.9704 112.851 16.0616 112.853 16.1572V17.5116C113.156 17.0944 113.526 16.7294 113.947 16.4309C114.708 15.9116 115.603 15.6229 116.523 15.5995C117.444 15.576 118.352 15.8188 119.138 16.2988C119.636 16.6515 120.017 17.1444 120.233 17.7145C120.593 17.1799 121.058 16.7252 121.602 16.379C122.428 15.85 123.391 15.5744 124.372 15.5862H124.367ZM108.629 16.9689C109.535 18.0404 110.005 19.4132 109.946 20.8149V21.4143C109.946 21.5106 109.907 21.6031 109.839 21.6712C109.771 21.7394 109.679 21.7776 109.582 21.7776H101.324V22.0372C101.316 22.8808 101.505 23.7147 101.876 24.4723C102.211 25.1745 102.729 25.7729 103.377 26.2042C103.983 26.6081 104.696 26.8233 105.425 26.8224C106.049 26.8409 106.669 26.7217 107.242 26.4731C107.759 26.2203 108.208 25.8483 108.553 25.3878C108.611 25.3147 108.695 25.2666 108.787 25.2534C108.879 25.2403 108.973 25.263 109.049 25.317L109.455 25.6048C109.531 25.6607 109.583 25.7442 109.599 25.8377C109.615 25.9311 109.594 26.0271 109.54 26.1051C109.085 26.7611 108.471 27.2909 107.755 27.6449C107.04 27.999 106.246 28.1657 105.448 28.1296C104.472 28.1343 103.516 27.8539 102.697 27.3226C101.859 26.7798 101.184 26.0197 100.743 25.1235C100.273 24.1701 100.034 23.1192 100.045 22.0561V21.5842C100.031 20.5199 100.258 19.4662 100.71 18.5026C101.126 17.6052 101.779 16.8383 102.598 16.2846C103.376 15.7554 104.295 15.4741 105.236 15.4776C105.876 15.463 106.512 15.5889 107.098 15.8465C107.684 16.1042 108.207 16.4873 108.629 16.9689ZM108.686 20.4799C108.654 19.8575 108.493 19.2485 108.214 18.6914C107.94 18.116 107.514 17.6264 106.982 17.2756C106.462 16.9405 105.854 16.7665 105.236 16.7754C104.748 16.7674 104.265 16.8649 103.818 17.0612C103.372 17.2575 102.973 17.548 102.65 17.9127C101.996 18.6288 101.572 19.5248 101.432 20.4846L108.686 20.4799ZM98.5206 11.3673V27.7001C98.5206 27.7476 98.5112 27.7946 98.4929 27.8385C98.4746 27.8823 98.4477 27.922 98.4139 27.9554C98.3801 27.9888 98.34 28.0151 98.296 28.0328C98.2519 28.0506 98.2047 28.0594 98.1572 28.0588H97.5862C97.5387 28.0594 97.4916 28.0506 97.4475 28.0328C97.4035 28.0151 97.3634 27.9888 97.3296 27.9554C97.2958 27.922 97.2689 27.8823 97.2506 27.8385C97.2323 27.7946 97.2229 27.7476 97.2229 27.7001V11.3673C97.2222 11.3194 97.2312 11.2719 97.2492 11.2275C97.2673 11.1831 97.294 11.1428 97.3279 11.109C97.3618 11.0751 97.4021 11.0483 97.4464 11.0303C97.4908 11.0123 97.5383 11.0033 97.5862 11.0039H98.1572C98.2051 11.0033 98.2527 11.0123 98.2971 11.0303C98.3414 11.0483 98.3817 11.0751 98.4156 11.109C98.4495 11.1428 98.4762 11.1831 98.4943 11.2275C98.5123 11.2719 98.5213 11.3194 98.5206 11.3673ZM90.9663 15.4776C91.6102 15.4604 92.2499 15.5851 92.8402 15.8428C93.4305 16.1005 93.9569 16.485 94.382 16.9689C95.2844 18.0417 95.7509 19.4144 95.6892 20.8149V21.4143C95.6879 21.5103 95.6493 21.602 95.5814 21.6699C95.5135 21.7377 95.4218 21.7764 95.3258 21.7776H87.1051V22.0372C87.099 22.8811 87.2896 23.7149 87.662 24.4723C87.9941 25.1761 88.5132 25.7752 89.1626 26.2042C89.7692 26.6081 90.4819 26.8233 91.2107 26.8224C91.8346 26.8402 92.4548 26.721 93.0276 26.4731C93.5432 26.2201 93.9913 25.8481 94.3348 25.3878C94.3934 25.3144 94.4778 25.2662 94.5708 25.253C94.6638 25.2398 94.7583 25.2627 94.835 25.317L95.2361 25.6048C95.2749 25.6317 95.308 25.666 95.3336 25.7058C95.3591 25.7455 95.3765 25.7899 95.3848 25.8363C95.3932 25.8828 95.3922 25.9305 95.3821 25.9766C95.372 26.0227 95.3528 26.0664 95.3258 26.1051C94.8656 26.7694 94.2425 27.3045 93.5161 27.659C92.7898 28.0135 91.9846 28.1755 91.1777 28.1296C90.2004 28.1333 89.2429 27.853 88.4217 27.3226C87.5862 26.778 86.913 26.0184 86.4728 25.1235C86.0022 24.1701 85.763 23.1192 85.7743 22.0561V21.5842C85.763 20.5191 85.9937 19.4654 86.4492 18.5026C86.8633 17.6043 87.5163 16.837 88.3368 16.2846C89.1121 15.7571 90.0285 15.4758 90.9663 15.4776ZM94.4197 20.4799C94.39 19.8572 94.2292 19.2477 93.9478 18.6914C93.6756 18.115 93.2493 17.625 92.7161 17.2756C92.1968 16.9428 91.5916 16.769 90.9748 16.7754C90.4872 16.7671 90.0035 16.8644 89.5571 17.0607C89.1107 17.257 88.7121 17.5477 88.3887 17.9127C87.7346 18.6294 87.3091 19.5248 87.1665 20.4846L94.4197 20.4799Z" fill="#84B840"/>
</g>
<defs>
<clipPath id="clip0_47_72021">
<rect width="168" height="19" fill="white" transform="translate(0 10)"/>
</clipPath>
</defs>
</svg>
