<svg width="11" height="12" viewBox="0 0 11 12" fill="none" xmlns="http://www.w3.org/2000/svg">
<mask id="mask0_0_327" style="mask-type:luminance" maskUnits="userSpaceOnUse" x="-2" y="-2" width="15" height="16">
<rect x="-1.80366" y="-1.26743" width="14.5592" height="14.5592" fill="white"/>
</mask>
<g mask="url(#mask0_0_327)">
<path fill-rule="evenodd" clip-rule="evenodd" d="M5.1658 11.9261C5.34415 12.0213 5.568 12.0207 5.74635 11.9255C10.6067 9.3145 10.9519 4.21331 10.9476 2.76284C10.947 2.52383 10.8051 2.31151 10.5861 2.21505L5.70267 0.0517918C5.54555 -0.0173647 5.36659 -0.0173647 5.20948 0.0523984L0.360034 2.21566C0.144679 2.31211 0.00393965 2.5208 0.000906401 2.75678C-0.0197191 4.19996 0.270859 9.31208 5.1658 11.9261ZM3.45873 4.97343L4.84974 6.36444L7.45402 3.76016L8.31181 4.61794L4.84974 8.08L2.60094 5.83121L3.45873 4.97343Z" fill="#8F9198"/>
</g>
</svg>
