<svg width="22" height="22" viewBox="0 0 22 22" fill="none" xmlns="http://www.w3.org/2000/svg">
<path d="M10.4884 20.9767C4.70698 20.9767 0 16.2698 0 10.4884C0 4.70698 4.70698 0 10.4884 0C16.2698 0 20.9767 4.70698 20.9767 10.4884C20.9767 16.2698 16.2698 20.9767 10.4884 20.9767ZM10.4884 1.53488C5.54605 1.53488 1.53488 5.55628 1.53488 10.4884C1.53488 15.4205 5.54605 19.4419 10.4884 19.4419C15.4307 19.4419 19.4419 15.4205 19.4419 10.4884C19.4419 5.55628 15.4307 1.53488 10.4884 1.53488Z" fill="#CBC6B6"/>
<path d="M21.232 21.9974C21.0376 21.9974 20.8432 21.9258 20.6897 21.7723L18.6432 19.7258C18.3464 19.4291 18.3464 18.9379 18.6432 18.6412C18.9399 18.3444 19.4311 18.3444 19.7278 18.6412L21.7743 20.6877C22.0711 20.9844 22.0711 21.4756 21.7743 21.7723C21.6208 21.9258 21.4264 21.9974 21.232 21.9974Z" fill="#CBC6B6"/>
</svg>
