<svg width="56" height="56" viewBox="0 0 56 56" fill="none" xmlns="http://www.w3.org/2000/svg">
<rect width="56" height="56" rx="8" fill="#5541D7"/>
<path fill-rule="evenodd" clip-rule="evenodd" d="M25.5002 26.9978C24.9479 26.9978 24.5002 26.5501 24.5002 25.9978C24.5002 25.4455 24.9479 24.9978 25.5002 24.9978C26.0525 24.9978 26.5002 25.4455 26.5002 25.9978C26.5002 26.5501 26.0525 26.9978 25.5002 26.9978ZM27.5002 33.2078V35.9878C25.2302 35.8578 23.2102 34.7778 21.8402 33.1278C22.5202 32.5878 24.1202 32.0178 25.5002 32.0178C25.5802 32.0178 25.6502 32.0278 25.7302 32.0278C25.9702 31.3878 26.4002 30.7378 27.0302 30.1678C26.4702 30.0578 25.9402 30.0078 25.5002 30.0078C24.2002 30.0078 22.1102 30.4578 20.7702 31.4378C20.2802 30.3978 19.9902 29.2378 19.9902 28.0078C19.9902 23.5978 23.5802 20.0078 27.9902 20.0078C32.4002 20.0078 35.9902 23.5978 35.9902 28.0078C35.9902 29.2178 35.7202 30.3578 35.2402 31.3778C34.2402 30.7778 32.8802 30.5078 32.0002 30.5078C30.4802 30.5078 27.5002 31.3278 27.5002 33.2078ZM32.0002 24.9978C30.8902 24.9978 29.9902 25.8878 30.0002 26.9978C30.0002 28.1078 30.8902 28.9978 32.0002 28.9978C33.1102 28.9978 34.0002 28.1078 34.0002 26.9978C34.0002 25.8878 33.1102 24.9978 32.0002 24.9978ZM25.5002 28.9978C27.1502 28.9978 28.5002 27.6478 28.5002 25.9978C28.5002 24.3478 27.1502 22.9978 25.5002 22.9978C23.8502 22.9978 22.5002 24.3478 22.5002 25.9978C22.5002 27.6478 23.8502 28.9978 25.5002 28.9978Z" fill="#5541D7"/>
<path fill-rule="evenodd" clip-rule="evenodd" d="M28.5002 25.9978C28.5002 24.3478 27.1502 22.9978 25.5002 22.9978C23.8502 22.9978 22.5002 24.3478 22.5002 25.9978C22.5002 27.6478 23.8502 28.9978 25.5002 28.9978C27.1502 28.9978 28.5002 27.6478 28.5002 25.9978ZM25.5002 26.9978C24.9502 26.9978 24.5002 26.5478 24.5002 25.9978C24.5002 25.4478 24.9502 24.9978 25.5002 24.9978C26.0502 24.9978 26.5002 25.4478 26.5002 25.9978C26.5002 26.5478 26.0502 26.9978 25.5002 26.9978ZM32.0002 28.9978C33.1102 28.9978 34.0002 28.1078 34.0002 26.9978C34.0002 25.8878 33.1102 24.9978 32.0002 24.9978C30.8902 24.9978 29.9902 25.8878 30.0002 26.9978C30.0002 28.1078 30.8902 28.9978 32.0002 28.9978ZM27.9902 18.0078C22.4702 18.0078 17.9902 22.4878 17.9902 28.0078C17.9902 33.5278 22.4702 38.0078 27.9902 38.0078C33.5102 38.0078 37.9902 33.5278 37.9902 28.0078C37.9902 22.4878 33.5102 18.0078 27.9902 18.0078ZM21.8402 33.1178C22.5202 32.5778 24.1102 32.0078 25.5002 32.0078C25.5702 32.0078 25.6502 32.0178 25.7302 32.0178C25.9702 31.3778 26.4002 30.7278 27.0302 30.1578C26.4702 30.0578 25.9402 29.9978 25.5002 29.9978C24.2002 29.9978 22.1102 30.4478 20.7702 31.4278C20.2702 30.3878 19.9902 29.2278 19.9902 27.9978C19.9902 23.5878 23.5802 19.9978 27.9902 19.9978C32.4002 19.9978 35.9902 23.5878 35.9902 27.9978C35.9902 29.1978 35.7202 30.3378 35.2402 31.3678C34.2402 30.7778 32.8802 30.4978 32.0002 30.4978C30.4802 30.4978 27.5002 31.3078 27.5002 33.1978V35.9778C25.2302 35.8478 23.2102 34.7678 21.8402 33.1178Z" fill="white"/>
</svg>
