<svg width="19" height="17" viewBox="0 0 19 17" fill="none" xmlns="http://www.w3.org/2000/svg">
<path d="M5.81183 16.8375H5.72765C4.03181 16.8227 2.3605 16.4309 0.834719 15.6905C0.554058 15.5587 0.322969 15.3405 0.175282 15.0678C0.0275942 14.7952 -0.0289354 14.4824 0.0139684 14.1753C0.0606296 13.8662 0.20378 13.5795 0.422982 13.3566C0.642185 13.1336 0.926233 12.9855 1.23457 12.9337C2.18013 12.8075 3.08977 12.4888 3.90727 11.9972C2.48797 10.8875 1.39531 9.41449 0.745088 7.7343C0.0948718 6.05412 -0.0886765 4.22932 0.213895 2.4533C0.25492 2.17198 0.375903 1.90837 0.562449 1.69384C0.748994 1.47932 0.993246 1.3229 1.26613 1.24322C1.53164 1.15983 1.81577 1.15627 2.08328 1.23297C2.35079 1.30967 2.58987 1.46324 2.77084 1.67464C3.38536 2.48042 4.1576 3.15258 5.04044 3.65008C5.92328 4.14758 6.89823 4.46001 7.9058 4.56831C7.95393 3.32861 8.48668 2.15731 9.38946 1.30635C9.84025 0.874689 10.3724 0.537062 10.955 0.313142C11.5375 0.0892207 12.1589 -0.0165168 12.7828 0.00209103C13.4066 0.0206988 14.0205 0.16328 14.5887 0.421525C15.1568 0.67977 15.668 1.04851 16.0923 1.50628C16.2028 1.60399 16.3401 1.66627 16.4865 1.68503C16.6328 1.70379 16.7814 1.67817 16.913 1.6115C17.1639 1.49317 17.4433 1.44862 17.7185 1.48306C17.9938 1.5175 18.2535 1.62951 18.4675 1.806C18.6815 1.98249 18.841 2.21621 18.9271 2.47987C19.0133 2.74353 19.0228 3.02627 18.9544 3.29509C18.7116 4.29484 18.2518 5.2289 17.6075 6.03092C17.4655 9.02429 16.1457 11.8402 13.9361 13.8645C11.7265 15.8888 8.80617 16.9574 5.81183 16.8375ZM5.81183 14.733H5.89601C7.11942 14.7751 8.33903 14.5739 9.48409 14.1411C10.6291 13.7082 11.677 13.0525 12.5666 12.2117C13.4564 11.3709 14.1704 10.3619 14.6671 9.24309C15.164 8.12432 15.4338 6.91804 15.4609 5.69421C15.4783 5.35881 15.6166 5.04106 15.8503 4.7998C16.1069 4.47491 16.3258 4.12189 16.5027 3.74756C16.1235 3.74827 15.7486 3.66898 15.4023 3.51485C15.0559 3.36073 14.746 3.13525 14.4929 2.85315C14.2494 2.61171 13.9601 2.42128 13.6421 2.293C13.3242 2.16472 12.9837 2.10116 12.6409 2.10606C12.2946 2.0971 11.9499 2.15663 11.6268 2.28122C11.3035 2.40582 11.0081 2.59302 10.7574 2.83211C10.4192 3.15304 10.1712 3.55716 10.0382 4.00405C9.90526 4.45094 9.892 4.92491 9.99976 5.37854L10.2734 6.5781L9.04223 6.66228C7.78068 6.76514 6.51186 6.59257 5.32361 6.15652C4.13536 5.72046 3.0561 5.03135 2.16054 4.13689C2.12214 5.52205 2.46865 6.89074 3.16154 8.09077C3.85443 9.29079 4.86658 10.2751 6.08542 10.9344L7.08505 11.5026L6.42213 12.4496C5.70524 13.3898 4.72296 14.0936 3.60212 14.4699C4.32114 14.6502 5.06009 14.7386 5.80131 14.733H5.81183Z" fill="white"/>
</svg>
