<svg width="152" height="18" viewBox="0 0 152 18" fill="none" xmlns="http://www.w3.org/2000/svg">
<g clip-path="url(#clip0_47_75049)">
<path d="M11.0188 3.35575C10.5863 3.11575 9.34678 3.26425 7.85778 3.72475C5.25178 5.50575 3.05278 8.13025 2.89928 12.3437C2.87128 12.4447 2.61428 12.3302 2.56328 12.2987C1.85978 10.9502 1.58078 9.52975 2.16828 7.48125C2.27778 7.29875 1.91978 7.07425 1.85528 7.13875C1.72628 7.26775 1.18878 7.84075 0.831776 8.45975C-0.938223 11.5302 0.219276 15.4642 3.31578 17.1862C6.41178 18.9107 10.3213 17.7982 12.0453 14.7012C14.0398 11.1272 12.1878 4.00875 11.0188 3.35575Z" fill="#81B441"/>
<path d="M22.1011 5.07084C18.4301 5.07084 15.7656 7.79984 15.7656 11.5598C15.7656 15.3508 18.4231 17.9983 22.2291 17.9983C24.1516 17.9983 25.6731 17.3973 26.8836 16.1598C27.2451 15.7693 27.2841 15.3933 27.2841 15.2493C27.2841 14.6363 26.8281 14.1908 26.2001 14.1908C25.8836 14.1908 25.6186 14.3103 25.3151 14.5913C24.6296 15.2298 23.7271 15.8823 22.2291 15.8823C20.1461 15.8823 18.4521 14.3183 18.3451 12.3098H26.6356C27.5371 12.3098 27.9751 11.8883 27.9751 11.0218C27.9751 10.7668 27.9751 10.5823 27.9236 10.2193C27.4771 6.99584 25.3006 5.07084 22.1011 5.07084ZM22.1011 7.08384C24.0916 7.08384 25.3691 8.35234 25.4476 10.3998H18.3476C18.5341 8.50534 20.1361 7.08384 22.1011 7.08384ZM35.8926 5.07084C34.2251 5.07084 32.5741 6.02984 31.9291 7.36134V6.53834C31.9291 5.26334 30.9411 5.19884 30.7431 5.19884C30.1576 5.19884 29.5316 5.55084 29.5316 6.53834V16.4788C29.5316 17.8028 30.5836 17.8698 30.7941 17.8698C31.0046 17.8698 32.0571 17.8028 32.0571 16.4788V11.1503C32.0571 8.83184 33.3711 7.21234 35.2521 7.21234C37.0741 7.21234 37.9601 8.40784 37.9601 10.8683V16.4793C37.9601 17.8033 39.0126 17.8703 39.2231 17.8703C39.4336 17.8703 40.4856 17.8033 40.4856 16.4793V10.0743C40.4856 7.65534 39.2786 5.07084 35.8926 5.07084ZM51.9126 5.19934C51.3291 5.19934 50.9056 5.53984 50.6536 6.20934L47.1981 14.8983L43.7691 6.20934C43.5006 5.52934 43.0806 5.19934 42.4846 5.19934C41.7881 5.19934 41.2216 5.74284 41.2216 6.41084C41.2216 6.57634 41.2406 6.79034 41.3801 7.12534L45.3511 16.5018C45.8241 17.6328 46.6026 17.8703 47.1726 17.8703C47.7421 17.8703 48.5206 17.6328 48.9951 16.5023L52.9921 7.07384C53.1286 6.74284 53.1496 6.50034 53.1496 6.38534C53.1496 5.70934 52.6171 5.19934 51.9126 5.19934ZM59.2566 5.07084C57.6411 5.07084 56.1366 5.52084 55.0206 6.33684C54.6421 6.59784 54.4581 6.92384 54.4581 7.33334C54.4581 7.89734 54.8886 8.33934 55.4396 8.33934C55.6776 8.33934 55.9446 8.24434 56.1891 8.07334C57.1486 7.43384 58.0501 7.13534 59.0256 7.13534C60.8931 7.13534 61.9651 8.08484 61.9651 9.74134V10.0158C57.7731 10.0203 53.5101 10.5268 53.5101 14.1733C53.5101 16.7978 55.7531 17.9728 57.9761 17.9728C59.7461 17.9728 61.1601 17.2713 62.0671 15.9433V16.5818C62.0671 17.5328 62.7056 17.8698 63.2536 17.8698C63.3691 17.8698 64.3881 17.8338 64.3881 16.5818V9.89534C64.3871 6.87434 62.4686 5.07084 59.2566 5.07084ZM61.4336 11.8753H61.9651V12.4573C61.9651 14.5853 60.6101 15.9603 58.5136 15.9603C57.9446 15.9603 56.0876 15.8278 56.0876 14.1223C56.0871 12.1078 59.1381 11.8753 61.4336 11.8753ZM70.9641 7.49384C72.0691 7.49384 72.1251 6.63384 72.1251 6.46184C72.1251 5.95034 71.8201 5.40384 70.9641 5.40384H68.6916V3.10584C68.6916 2.07934 68.0256 1.71484 67.4546 1.71484C67.2441 1.71484 66.1921 1.78184 66.1921 3.10584V14.0203C66.1921 16.5388 67.4346 17.8703 69.7856 17.8703C70.3941 17.8703 70.9866 17.7628 71.3746 17.5823C71.8191 17.3603 72.0736 16.9958 72.0736 16.5823C72.0736 15.9988 71.6501 15.5753 71.0666 15.5753C70.9541 15.5753 70.7936 15.6033 70.6166 15.6543C70.4001 15.7083 70.2536 15.7293 70.0936 15.7293C69.1371 15.7293 68.6916 15.1048 68.6916 13.7638V7.49384H70.9641ZM79.3156 5.07084C75.4956 5.07084 72.7241 7.77834 72.7241 11.5083C72.7241 13.3243 73.3956 14.9793 74.6141 16.1688C75.8236 17.3483 77.4931 17.9983 79.3151 17.9983C83.0871 17.9983 85.9321 15.2083 85.9321 11.5088C85.9326 7.77834 83.1491 5.07084 79.3156 5.07084ZM79.3156 15.8573C76.6961 15.8573 75.3261 13.6698 75.3261 11.5088C75.3261 8.53934 77.3941 7.18684 79.3156 7.18684C81.2371 7.18684 83.3051 8.53934 83.3051 11.5088C83.3051 14.4963 81.2371 15.8573 79.3156 15.8573Z" fill="white"/>
<path d="M105.777 5.9685C105.407 5.566 104.949 5.267 104.414 5.08C103.439 4.74 102.105 4.7125 101.045 5.0495C100.548 5.2075 100.09 5.4265 99.6838 5.7005C99.2763 5.9765 98.9188 6.304 98.6208 6.674C98.5273 6.7895 98.4393 6.909 98.3573 7.0315C98.0973 6.3895 97.7148 5.89 97.2133 5.5425C96.5128 5.0565 95.6108 4.81 94.5318 4.81C93.9808 4.81 93.4588 4.898 92.9793 5.071C92.5058 5.242 92.0678 5.4785 91.6773 5.773C91.2938 6.0625 90.9533 6.4095 90.6658 6.8035V5.41C90.6658 5.201 90.4963 5.0315 90.2873 5.0315H89.6778C89.4688 5.0315 89.2993 5.201 89.2993 5.41V17.4C89.2993 17.609 89.4688 17.7785 89.6778 17.7785H90.2873C90.4963 17.7785 90.6658 17.609 90.6658 17.4V9.8565C90.7358 9.502 90.8633 9.1055 91.0453 8.677C91.2293 8.2445 91.4823 7.8315 91.7973 7.4515C92.1058 7.0795 92.4908 6.765 92.9413 6.516C93.3773 6.2755 93.9013 6.1535 94.4983 6.1535C94.9348 6.1535 95.3433 6.2045 95.7113 6.306C96.0558 6.401 96.3443 6.5615 96.5928 6.797C96.8393 7.0315 97.0358 7.358 97.1773 7.767C97.3253 8.194 97.4003 8.7505 97.4003 9.4215V17.4C97.4003 17.609 97.5698 17.7785 97.7788 17.7785H98.3773C98.5863 17.7785 98.7558 17.609 98.7558 17.4L98.7548 9.447C98.7673 9.2665 98.8133 9.058 98.8908 8.828C98.9708 8.5915 99.0843 8.3495 99.2283 8.108C99.3743 7.863 99.5553 7.6205 99.7668 7.3855C99.9718 7.157 100.218 6.9495 100.499 6.769C100.778 6.589 101.1 6.4415 101.454 6.3295C101.807 6.219 102.205 6.16 102.638 6.153L102.716 6.1525C103.119 6.1525 103.497 6.203 103.839 6.304C104.183 6.405 104.471 6.5745 104.72 6.824C104.968 7.0715 105.166 7.422 105.309 7.864C105.458 8.3265 105.534 8.9245 105.534 9.6425V17.4C105.534 17.609 105.704 17.7785 105.913 17.7785H106.511C106.72 17.7785 106.89 17.609 106.89 17.4V9.6425C106.89 8.8105 106.796 8.087 106.612 7.4915C106.424 6.8795 106.142 6.367 105.777 5.9685ZM117.91 16.78C117.875 16.6115 117.845 16.4315 117.821 16.2385C117.796 16.0425 117.776 15.8365 117.762 15.619C117.748 15.402 117.741 15.1905 117.741 14.984V8.978C117.741 8.3005 117.624 7.6915 117.392 7.168C117.159 6.6405 116.828 6.1955 116.408 5.845C115.994 5.5005 115.496 5.2375 114.929 5.0645C113.796 4.72 112.339 4.7195 111.204 5.1135C110.624 5.314 110.111 5.5925 109.682 5.9415C109.247 6.2955 108.905 6.7125 108.664 7.182C108.42 7.6585 108.296 8.166 108.296 8.6895C108.296 8.893 108.457 9.06 108.66 9.0675L109.259 9.0895C109.36 9.0975 109.461 9.055 109.535 8.984C109.609 8.913 109.651 8.8145 109.651 8.7115C109.651 8.359 109.732 8.0395 109.898 7.735C110.068 7.425 110.305 7.152 110.605 6.9235C110.912 6.6885 111.282 6.502 111.703 6.368C112.129 6.233 112.602 6.1645 113.107 6.1645C114.181 6.1645 115.009 6.4125 115.567 6.9015C116.117 7.385 116.385 8.0565 116.385 8.9555V10.328H113.893C113.002 10.328 112.187 10.4235 111.47 10.612C110.745 10.8035 110.119 11.0745 109.609 11.418C109.085 11.772 108.678 12.2055 108.399 12.7055C108.117 13.211 107.974 13.769 107.974 14.3635C107.974 14.894 108.072 15.3885 108.266 15.833C108.46 16.2805 108.742 16.671 109.103 16.9945C109.461 17.3155 109.895 17.566 110.394 17.74C110.887 17.912 111.442 17.9995 112.043 17.9995C112.67 17.9995 113.251 17.93 113.768 17.7925C114.284 17.6565 114.758 17.467 115.177 17.23C115.596 16.9925 115.969 16.7135 116.287 16.4L116.424 16.2595L116.436 16.417C116.472 16.8355 116.534 17.201 116.622 17.5045C116.668 17.6665 116.817 17.778 116.985 17.778H117.672C117.881 17.778 118.051 17.6085 118.051 17.3995V17.3C118.051 17.248 118.04 17.196 118.019 17.1485C117.978 17.055 117.941 16.931 117.91 16.78ZM112.043 16.656C111.63 16.656 111.253 16.595 110.919 16.4735C110.589 16.354 110.302 16.188 110.065 15.98C109.832 15.7755 109.649 15.5345 109.52 15.265C109.393 14.9995 109.33 14.7115 109.33 14.408C109.33 14.024 109.424 13.6805 109.619 13.357C109.817 13.028 110.108 12.74 110.484 12.4995C110.876 12.25 111.363 12.052 111.934 11.911C112.516 11.7675 113.186 11.6945 113.927 11.6945H116.385V14.0815C116.207 14.462 115.986 14.8075 115.728 15.1105C115.455 15.431 115.133 15.7095 114.771 15.9395C114.41 16.169 113.998 16.3475 113.545 16.47C113.089 16.593 112.583 16.656 112.043 16.656ZM125.299 4.9565C125.177 4.9095 125.036 4.8735 124.868 4.8475C124.708 4.822 124.524 4.8095 124.321 4.8095C123.26 4.8095 122.359 5.0815 121.645 5.617C121.323 5.858 121.037 6.14 120.788 6.461V5.41C120.788 5.201 120.618 5.0315 120.409 5.0315H119.811C119.602 5.0315 119.432 5.201 119.432 5.41V17.4C119.432 17.609 119.602 17.7785 119.811 17.7785H120.409C120.618 17.7785 120.788 17.609 120.788 17.4V9.577C120.878 9.084 121.021 8.623 121.213 8.205C121.405 7.7885 121.651 7.423 121.945 7.119C122.234 6.82 122.581 6.582 122.976 6.411C123.369 6.2405 123.822 6.154 124.321 6.154C124.447 6.154 124.567 6.1605 124.683 6.1735L125.05 6.2175C125.149 6.2295 125.25 6.202 125.329 6.141C125.408 6.0795 125.46 5.989 125.473 5.8895L125.539 5.3575C125.56 5.184 125.462 5.019 125.299 4.9565ZM130.321 10.5495L135.563 5.687C135.677 5.581 135.714 5.4165 135.658 5.271C135.601 5.1265 135.461 5.031 135.306 5.031H134.452C134.357 5.031 134.265 5.067 134.196 5.132L128.74 10.177L127.971 10.904V0.3785C127.971 0.1695 127.802 0 127.593 0H126.994C126.785 0 126.616 0.1695 126.616 0.3785V17.4C126.616 17.609 126.785 17.7785 126.994 17.7785H127.593C127.802 17.7785 127.971 17.609 127.971 17.4V12.609L129.315 11.454L134.585 17.6455C134.657 17.73 134.763 17.7785 134.873 17.7785H135.66C135.869 17.7785 136.038 17.609 136.038 17.4C136.038 17.278 135.98 17.1695 135.891 17.1005L130.321 10.5495ZM144.249 6.354C143.812 5.866 143.284 5.4815 142.679 5.2135C141.442 4.6645 139.858 4.667 138.571 5.2905C137.918 5.607 137.34 6.0545 136.854 6.6205C136.372 7.181 135.985 7.858 135.704 8.6325C135.425 9.406 135.283 10.2605 135.283 11.172V11.6595C135.283 12.573 135.429 13.425 135.717 14.1915C136.006 14.961 136.409 15.6355 136.915 16.1955C137.423 16.759 138.025 17.205 138.704 17.521C139.387 17.8385 140.131 17.9995 140.914 17.9995C141.422 17.9995 141.896 17.9475 142.322 17.845C142.748 17.742 143.144 17.5975 143.498 17.4145C143.855 17.23 144.179 17.0055 144.461 16.748C144.739 16.4935 144.989 16.2075 145.204 15.8975C145.321 15.727 145.281 15.494 145.112 15.374L144.691 15.075C144.526 14.957 144.297 14.9905 144.173 15.152C143.942 15.4505 143.7 15.6975 143.454 15.887C143.209 16.0765 142.95 16.23 142.684 16.3425C142.418 16.456 142.136 16.5365 141.847 16.583C140.984 16.722 140.031 16.663 139.243 16.274C138.722 16.017 138.264 15.6625 137.883 15.2195C137.498 14.773 137.191 14.239 136.971 13.631C136.751 13.0215 136.639 12.3575 136.639 11.6595V11.384H145.248C145.457 11.384 145.627 11.2145 145.627 11.0055V10.3075C145.627 9.5065 145.505 8.7625 145.266 8.0965C145.024 7.4255 144.682 6.8395 144.249 6.354ZM142.154 6.4855C142.592 6.7015 142.97 6.9975 143.278 7.364C143.59 7.7375 143.836 8.179 144.008 8.6755C144.157 9.1045 144.243 9.559 144.264 10.029H136.725C136.802 9.5735 136.928 9.1415 137.1 8.739C137.322 8.2205 137.613 7.762 137.967 7.378C138.316 6.9985 138.726 6.698 139.184 6.4835C140.082 6.0645 141.278 6.056 142.154 6.4855ZM151.837 16.8575C151.802 16.657 151.614 16.527 151.411 16.549C151.21 16.578 151.022 16.602 150.849 16.6195C150.522 16.654 150.062 16.673 149.691 16.5655C149.54 16.522 149.408 16.438 149.288 16.3065C149.163 16.1705 149.059 15.965 148.98 15.697C148.895 15.4085 148.851 15.0155 148.851 14.5295V6.3975H151.199C151.408 6.3975 151.578 6.228 151.578 6.019V5.4095C151.578 5.2005 151.408 5.031 151.199 5.031H148.851V2.1735C148.851 1.9645 148.682 1.795 148.473 1.795H147.863C147.654 1.795 147.485 1.9645 147.485 2.1735V5.031H145.647C145.438 5.031 145.268 5.2005 145.268 5.4095V6.019C145.268 6.228 145.438 6.3975 145.647 6.3975H147.485V14.53C147.485 15.16 147.545 15.6975 147.665 16.1275C147.791 16.581 147.98 16.952 148.229 17.231C148.484 17.5175 148.8 17.7225 149.167 17.8385C149.506 17.946 149.891 18.0005 150.312 18.0005L150.604 17.9945C150.721 17.9905 150.841 17.9825 150.97 17.971L151.326 17.931C151.464 17.9125 151.587 17.8835 151.694 17.845C151.866 17.782 151.969 17.6045 151.937 17.4235L151.837 16.8575Z" fill="#81B441"/>
</g>
<defs>
<clipPath id="clip0_47_75049">
<rect width="152" height="18" fill="white"/>
</clipPath>
</defs>
</svg>
