<svg width="21" height="14" viewBox="0 0 21 14" fill="none" xmlns="http://www.w3.org/2000/svg">
<path d="M10.2335 14.004C10.8001 14.004 11.2593 13.612 11.2593 13.1285C11.2593 12.645 10.8001 12.253 10.2335 12.253C9.66703 12.253 9.20778 12.645 9.20778 13.1285C9.20778 13.612 9.66703 14.004 10.2335 14.004Z" fill="#B0B6C4"/>
<path d="M10.234 8.75306C8.90641 8.75303 7.63051 9.1924 6.67464 9.97876C6.47876 10.1401 6.36602 10.3613 6.36121 10.5936C6.3564 10.826 6.45992 11.0504 6.64899 11.2176C6.83807 11.3848 7.09721 11.481 7.36941 11.4851C7.64161 11.4892 7.90457 11.4009 8.10044 11.2395C8.68297 10.7842 9.44417 10.5317 10.234 10.5317C11.0239 10.5317 11.7851 10.7842 12.3676 11.2395C12.5635 11.4009 12.8264 11.4892 13.0986 11.4851C13.3708 11.481 13.63 11.3848 13.819 11.2176C14.0081 11.0504 14.1116 10.826 14.1068 10.5936C14.102 10.3613 13.9893 10.1401 13.7934 9.97876C12.8375 9.1924 11.5616 8.75303 10.234 8.75306ZM10.234 4.37556C8.99512 4.37625 7.76905 4.58978 6.62887 5.00341C5.48869 5.41704 4.45771 6.02232 3.59736 6.78318C3.50374 6.86769 3.43054 6.96711 3.38194 7.07576C3.33333 7.18441 3.31028 7.30017 3.31409 7.41642C3.3179 7.53268 3.3485 7.64715 3.40414 7.75332C3.45979 7.85948 3.53939 7.95525 3.63839 8.03515C3.83835 8.19653 4.10522 8.2835 4.38031 8.27693C4.51652 8.27368 4.65064 8.24756 4.77502 8.20007C4.8994 8.15257 5.01161 8.08464 5.10523 8.00013C5.77503 7.407 6.57807 6.93522 7.46634 6.61297C8.35461 6.29073 9.30987 6.12465 10.275 6.12465C11.2402 6.12465 12.1955 6.29073 13.0838 6.61297C13.972 6.93522 14.7751 7.407 15.4449 8.00013C15.5399 8.08286 15.6532 8.14867 15.7782 8.19375C15.9032 8.23884 16.0374 8.2623 16.1732 8.26278C16.3736 8.26213 16.5695 8.21136 16.7365 8.11675C16.9035 8.02214 17.0344 7.88784 17.1129 7.73044C17.1915 7.57303 17.2143 7.39943 17.1786 7.23108C17.1428 7.06274 17.05 6.90702 16.9117 6.78318C16.0466 6.01807 15.0089 5.41032 13.8613 4.99655C12.7137 4.58278 11.4798 4.37154 10.234 4.37556Z" fill="#B0B6C4"/>
<path d="M20.2038 3.43565C17.527 1.23164 13.9528 0 10.2334 0C6.51411 0 2.93986 1.23164 0.263062 3.43565C0.0899527 3.59994 -0.00397207 3.81402 0.000128845 4.03495C0.00422976 4.25588 0.106053 4.46732 0.285173 4.62685C0.464293 4.78638 0.707462 4.8822 0.9659 4.89509C1.22434 4.90799 1.47893 4.837 1.67861 4.69637C3.97385 2.80277 7.04122 1.74428 10.2334 1.74428C13.4257 1.74428 16.493 2.80277 18.7883 4.69637C18.9784 4.8528 19.2319 4.94061 19.496 4.94151C19.6342 4.94106 19.7708 4.91679 19.8978 4.87015C20.0247 4.82351 20.1392 4.75547 20.2346 4.6701C20.4216 4.50262 20.5233 4.27877 20.5176 4.04746C20.5118 3.81615 20.399 3.59619 20.2038 3.43565Z" fill="#B0B6C4"/>
</svg>
