<svg width="22" height="22" viewBox="0 0 22 22" fill="none" xmlns="http://www.w3.org/2000/svg">
<path d="M2.2751 10.2019C2.2751 9.77804 1.92597 9.43444 1.4953 9.43444C1.06463 9.43444 0.715509 9.77804 0.715509 10.2019H2.2751ZM20.9589 10.2019C20.9589 9.77804 20.6098 9.43444 20.1791 9.43444C19.7485 9.43444 19.3994 9.77804 19.3994 10.2019H20.9589ZM0.715509 10.2019V14.7964H2.2751V10.2019H0.715509ZM0.715509 14.7964C0.715509 17.1698 1.19417 19.0313 2.4632 20.2802C3.73224 21.5291 5.62365 22.0003 8.03517 22.0003V20.4653C5.77832 20.4653 4.3998 20.0155 3.566 19.1949C2.73219 18.3743 2.2751 17.0175 2.2751 14.7964H0.715509ZM8.03517 22.0003H13.6393V20.4653H8.03517V22.0003ZM13.6393 22.0003C16.0508 22.0003 17.9422 21.5291 19.2113 20.2802C20.4803 19.0313 20.9589 17.1698 20.9589 14.7964H19.3994C19.3994 17.0175 18.9423 18.3743 18.1084 19.1949C17.2747 20.0155 15.8961 20.4653 13.6393 20.4653V22.0003ZM20.9589 14.7964V10.2019H19.3994V14.7964H20.9589Z" fill="#93989A"/>
<path d="M13.9615 7.60293L14.7376 7.52781L14.7376 7.52748L13.9615 7.60293ZM13.2753 0.767456L14.0513 0.691997C14.0119 0.299279 13.6763 0 13.2753 0V0.767456ZM8.41982 0.767456V0C8.01929 0 7.68389 0.298639 7.64392 0.690865L8.41982 0.767456ZM7.7232 7.60293L6.9473 7.52634L6.94716 7.52781L7.7232 7.60293ZM10.8424 11.7677C13.2077 11.7677 14.9697 9.85003 14.7376 7.52781L13.1855 7.67806C13.3277 9.10103 12.2825 10.2328 10.8424 10.2328V11.7677ZM14.7376 7.52748L14.0513 0.691997L12.4993 0.842915L13.1855 7.67839L14.7376 7.52748ZM13.2753 0H8.41982V1.53491H13.2753V0ZM7.64392 0.690865L6.9473 7.52634L8.4991 7.67953L9.19572 0.844048L7.64392 0.690865ZM6.94716 7.52781C6.71507 9.85003 8.47706 11.7677 10.8424 11.7677V10.2328C9.4023 10.2328 8.35704 9.10103 8.49925 7.67806L6.94716 7.52781Z" fill="#93989A"/>
<path d="M20.8342 7.26525L21.6102 7.18927L21.61 7.18752L20.8342 7.26525ZM20.5431 4.45125L21.3188 4.37351C21.3179 4.36432 21.3168 4.35514 21.3155 4.34599L20.5431 4.45125ZM13.2338 0.767456V0C13.0135 0 12.8035 0.0917049 12.6557 0.252449C12.5078 0.413192 12.436 0.627977 12.4579 0.843713L13.2338 0.767456ZM13.9616 7.94062L13.1857 8.01687L13.1859 8.01928L13.9616 7.94062ZM17.4031 11.7677C19.9661 11.7677 21.8636 9.69618 21.6102 7.18927L20.0582 7.34124C20.2207 8.94791 19.0406 10.2328 17.4031 10.2328V11.7677ZM21.61 7.18752L21.3188 4.37351L19.7673 4.52899L20.0584 7.34299L21.61 7.18752ZM21.3155 4.34599C21.1204 2.95939 20.7325 1.819 19.8843 1.0479C19.0258 0.267458 17.8469 0 16.405 0V1.53491C17.6871 1.53491 18.3901 1.77909 18.8261 2.17541C19.2723 2.58108 19.5914 3.28258 19.7706 4.5565L21.3155 4.34599ZM16.405 0H13.2338V1.53491H16.405V0ZM12.4579 0.843713L13.1857 8.01687L14.7376 7.86436L14.0097 0.691199L12.4579 0.843713ZM13.1859 8.01928C13.4037 10.0991 15.288 11.7677 17.4031 11.7677V10.2328C16.0871 10.2328 14.8731 9.1589 14.7373 7.86196L13.1859 8.01928Z" fill="#93989A"/>
<path d="M7.66085 7.94062L6.88489 7.8646L6.8847 7.86654L7.66085 7.94062ZM7.8896 5.67918L7.11367 5.60281L7.11363 5.60316L7.8896 5.67918ZM8.38867 0.767456L9.16458 0.843821C9.18651 0.628069 9.11467 0.413257 8.96685 0.252489C8.81901 0.0917213 8.60897 0 8.38867 0V0.767456ZM1.0794 4.45125L0.306975 4.34599C0.305559 4.35605 0.304346 4.36614 0.303337 4.37626L1.0794 4.45125ZM0.798673 7.26525L1.57464 7.34124L1.57473 7.34024L0.798673 7.26525ZM4.22977 11.7677C6.34392 11.7677 8.23162 10.0992 8.437 8.01469L6.8847 7.86654C6.75738 9.15879 5.54669 10.2328 4.22977 10.2328V11.7677ZM8.43682 8.01663L8.66556 5.7552L7.11363 5.60316L6.88489 7.8646L8.43682 8.01663ZM8.66551 5.75554L9.16458 0.843821L7.61274 0.691092L7.11367 5.60281L8.66551 5.75554ZM8.38867 0H5.21751V1.53491H8.38867V0ZM5.21751 0C3.77559 0 2.59667 0.267458 1.73818 1.0479C0.889949 1.819 0.50205 2.95939 0.306975 4.34599L1.85183 4.5565C2.03104 3.28258 2.35017 2.58108 2.79639 2.17541C3.23235 1.77909 3.93534 1.53491 5.21751 1.53491V0ZM0.303337 4.37626L0.0226115 7.19027L1.57473 7.34024L1.85546 4.52623L0.303337 4.37626ZM0.0227124 7.18927C-0.230741 9.69618 1.66676 11.7677 4.22977 11.7677V10.2328C2.59228 10.2328 1.4122 8.94791 1.57464 7.34124L0.0227124 7.18927Z" fill="#93989A"/>
<path d="M8.2431 21.2322H7.46331C7.46331 21.656 7.81243 21.9996 8.2431 21.9996V21.2322ZM13.4417 21.2322V21.9996C13.8724 21.9996 14.2215 21.656 14.2215 21.2322H13.4417ZM10.8424 15.3483C9.85522 15.3483 8.97143 15.5902 8.34023 16.2114C7.70904 16.8326 7.46331 17.7024 7.46331 18.674H9.02289C9.02289 17.9367 9.20865 17.5274 9.44303 17.2967C9.6774 17.0661 10.0933 16.8832 10.8424 16.8832V15.3483ZM7.46331 18.674V21.2322H9.02289V18.674H7.46331ZM8.2431 21.9996H13.4417V20.4647H8.2431V21.9996ZM14.2215 21.2322V18.674H12.6619V21.2322H14.2215ZM14.2215 18.674C14.2215 17.7024 13.9758 16.8326 13.3446 16.2114C12.7134 15.5902 11.8296 15.3483 10.8424 15.3483V16.8832C11.5916 16.8832 12.0074 17.0661 12.2418 17.2967C12.4762 17.5274 12.6619 17.9367 12.6619 18.674H14.2215Z" fill="#93989A"/>
</svg>
