<svg width="278" height="136" viewBox="0 0 278 136" fill="none" xmlns="http://www.w3.org/2000/svg">
<circle cx="21.0081" cy="21.0081" r="20.5081" stroke="#EEEFF8"/>
<path d="M275.641 130.695C276.942 130.695 278 131.784 278 133.123C278 134.461 276.942 135.552 275.641 135.552C274.339 135.552 273.282 134.461 273.282 133.123C273.282 131.784 274.339 130.695 275.641 130.695Z" fill="#AEAEAE"/>
<path d="M266.204 130.695C267.505 130.695 268.563 131.784 268.563 133.123C268.563 134.461 267.505 135.552 266.204 135.552C264.902 135.552 263.844 134.461 263.844 133.123C263.844 131.784 264.902 130.695 266.204 130.695Z" fill="#AEAEAE"/>
<path d="M256.766 130.687C258.068 130.687 259.126 131.776 259.126 133.115C259.126 134.453 258.068 135.545 256.766 135.545C255.465 135.545 254.407 134.453 254.407 133.115C254.407 131.776 255.465 130.687 256.766 130.687Z" fill="#AEAEAE"/>
</svg>
