<svg width="1076" height="76" viewBox="0 0 1076 76" fill="none" xmlns="http://www.w3.org/2000/svg">
<g clip-path="url(#clip0_47_86788)">
<mask id="mask0_47_86788" style="mask-type:luminance" maskUnits="userSpaceOnUse" x="0" y="16" width="89" height="44">
<path d="M0 16.0039H88.9062V59.9988H0V16.0039Z" fill="white"/>
</mask>
<g mask="url(#mask0_47_86788)">
<path fill-rule="evenodd" clip-rule="evenodd" d="M48.1313 19.6719V24.6402L41.9326 25.9619V20.969L48.1313 19.6719ZM61.0234 27.4053C58.6031 27.4053 57.0472 28.5312 56.1828 29.3144L55.8618 27.7969H50.4287V56.3342L56.6027 55.037L56.6274 48.1108C57.5164 48.7472 58.8254 49.6527 60.9986 49.6527C65.4193 49.6527 69.4447 46.1284 69.4447 38.37C69.42 31.2723 65.3451 27.4053 61.0234 27.4053ZM59.5416 44.2683C58.0845 44.2683 57.2201 43.7543 56.6274 43.118L56.6027 34.0379C57.2448 33.3282 58.1339 32.8387 59.5416 32.8387C61.7889 32.8387 63.3447 35.335 63.3447 38.5413C63.3447 41.8208 61.8136 44.2683 59.5416 44.2683ZM88.9065 38.6147C88.9065 32.3492 85.8441 27.4053 79.9911 27.4053C74.1134 27.4053 70.5571 32.3492 70.5571 38.5657C70.5571 45.9326 74.7555 49.6526 80.7813 49.6526C83.7202 49.6526 85.9429 48.9919 87.6223 48.0618V43.167C85.9429 43.9991 84.0166 44.513 81.5717 44.513C79.1761 44.513 77.0522 43.6809 76.7806 40.7929H88.8571C88.8571 40.6588 88.8659 40.3551 88.8759 40.0046L88.8761 39.9991V39.9979L88.8762 39.9969C88.8901 39.5176 88.9065 38.9527 88.9065 38.6147ZM76.7065 36.2896C76.7065 33.5239 78.4106 32.3736 79.9664 32.3736C81.4729 32.3736 83.0782 33.5239 83.0782 36.2896H76.7065ZM48.1313 27.8206H41.9326V49.2359H48.1313V27.8206ZM34.897 27.823L35.2921 29.6341C36.7492 26.9909 39.6387 27.5294 40.429 27.823V33.4522C39.6634 33.183 37.1937 32.8403 35.7367 34.7248V49.2382H29.5626V27.823H34.897ZM22.9424 22.5111L16.9166 23.7837L16.8919 43.3878C16.8919 47.01 19.6332 49.6777 23.2882 49.6777C25.3133 49.6777 26.7951 49.3107 27.6101 48.8701V43.9018C26.8197 44.22 22.9178 45.3458 22.9178 41.7236V33.0351H27.6101V27.822H22.9178L22.9424 22.5111ZM8.34732 32.7163C7.03842 32.7163 6.24814 33.0834 6.24814 34.0379C6.24814 35.0801 7.60822 35.5385 9.2956 36.1073C12.0463 37.0344 15.6668 38.2548 15.6821 42.7753C15.6821 47.1563 12.1505 49.6772 7.01372 49.6772C4.88985 49.6772 2.56841 49.2611 0.271658 48.2821V42.4572C2.34614 43.583 4.96394 44.4151 7.01372 44.4151C8.39671 44.4151 9.38459 44.048 9.38459 42.9221C9.38459 41.7678 7.91021 41.2402 6.13026 40.6032C3.41952 39.633 0 38.4092 0 34.3316C0 29.9997 3.33399 27.4053 8.34732 27.4053C10.3971 27.4053 12.4222 27.7235 14.472 28.5312V34.2827C12.595 33.2792 10.2243 32.7163 8.34732 32.7163Z" fill="#B7BFC7"/>
</g>
</g>
<g clip-path="url(#clip1_47_86788)">
<mask id="mask1_47_86788" style="mask-type:luminance" maskUnits="userSpaceOnUse" x="157" y="16" width="132" height="44">
<path d="M157.625 16H288.703V59.9983H157.625V16Z" fill="white"/>
</mask>
<g mask="url(#mask1_47_86788)">
<path fill-rule="evenodd" clip-rule="evenodd" d="M157.625 33.6003C157.625 27.3003 162.214 21.5 170.91 21.5C177.88 21.5 183.299 26.4531 183.321 33.0789C183.321 39.9871 178.951 45.5267 172.876 45.5267C170.844 45.5267 168.922 44.4622 168.266 43.224C168.266 43.224 167.261 47.0474 167.021 47.9815C166.343 50.5666 163.94 54.1511 163.743 54.4118C163.721 54.4552 163.656 54.4987 163.59 54.4987C163.481 54.4987 163.372 54.4118 163.372 54.3032C163.306 53.9339 162.607 49.6325 163.219 46.9822C163.59 45.4181 165.578 37.0327 165.578 37.0327C165.163 36.0985 164.945 35.0775 164.967 34.0565C164.967 31.2758 166.584 29.1903 168.616 29.1903C170.32 29.1903 171.15 30.472 171.15 32.0144C171.15 33.0763 170.732 34.4625 170.289 35.9312C170.016 36.8362 169.733 37.7726 169.533 38.6836C169.053 40.6605 170.539 42.2898 172.505 42.2898C176.067 42.2898 178.82 38.5533 178.82 33.144C178.82 28.3647 175.367 25.0193 170.429 25.0193C164.704 25.0193 161.34 29.2771 161.34 33.6871C161.34 35.4034 161.995 37.2499 162.825 38.2492C162.956 38.4229 163.022 38.6402 162.956 38.8357C162.877 39.1629 162.745 39.6834 162.626 40.1477C162.517 40.5775 162.42 40.9592 162.388 41.095C162.301 41.4643 162.104 41.5295 161.711 41.3557C159.198 40.1826 157.625 36.533 157.625 33.6003ZM226.149 37.2057C227.548 37.2057 228.029 38.053 228.029 39.0523C228.029 40.7467 226.718 41.7677 224.642 41.7677C223.833 41.746 223.025 41.6156 222.26 41.3984C222.522 39.8343 223.527 37.2057 226.149 37.2057ZM255.975 37.2057C257.242 37.2057 257.854 38.053 257.854 39.0523C257.854 40.7467 256.543 41.7677 254.467 41.7677C253.658 41.746 252.85 41.6156 252.086 41.3984C252.348 39.8343 253.484 37.2057 255.975 37.2057ZM284.249 37.3361H287.418C287.854 37.3361 288.116 37.1623 288.204 36.7495C288.259 36.5361 288.327 36.2653 288.394 35.9945C288.511 35.5208 288.629 35.0471 288.685 34.8812C288.772 34.5119 288.576 34.2512 288.16 34.2512H285.014C285.052 34.0964 285.111 33.8805 285.181 33.6195C285.517 32.3792 286.128 30.121 286.128 28.5596C286.128 24.7796 282.894 21.5644 278.306 21.5644C273.128 21.5644 269.763 25.0186 269.763 29.863C269.785 31.3185 270.199 32.7306 270.964 33.9688C270.68 33.9471 270.396 33.9471 270.112 33.9471C266.179 33.9471 263.71 36.0761 263.71 39.1609C263.71 42.0501 266.005 43.1798 268.168 43.9401C268.462 44.0431 268.753 44.1376 269.033 44.2289C270.59 44.7346 271.86 45.147 271.86 46.4167C271.86 47.416 270.898 48.0025 268.976 48.0025C266.725 48.0025 265.48 46.938 265.152 46.547C265.501 46.2429 265.698 45.7867 265.676 45.3087C265.676 44.3746 265.021 43.636 263.797 43.636C262.771 43.636 261.896 44.4615 261.678 45.5694C260.017 46.9163 258.226 47.7853 255.67 47.7853C253.134 47.7853 251.845 46.4818 251.845 43.7012C252.436 43.8749 253.987 44.0922 254.992 44.0922C259.253 44.0922 262.158 42.1587 262.158 38.2919C262.158 36.2064 260.323 34.034 256.696 34.034H256.674C251.91 34.034 249.223 37.0319 248.065 40.3556C247.901 40.3122 247.737 40.2742 247.574 40.2362C247.41 40.1982 247.246 40.1601 247.082 40.1167C247.388 39.3129 247.541 38.444 247.541 37.5968C247.541 35.9675 246.514 34.034 243.804 34.034C241.903 34.034 240.112 35.2723 238.866 37.1188C239.005 36.5651 239.127 36.1014 239.217 35.7542C239.326 35.3388 239.391 35.0905 239.391 35.055C239.478 34.7292 239.347 34.3816 238.844 34.3816H236.048C235.654 34.3816 235.37 34.5119 235.261 34.9681C235.195 35.2723 234.234 39.0306 233.294 42.6584C232.704 44.9394 229.667 47.7636 225.843 47.7636C223.331 47.7636 222.02 46.3732 222.02 43.5925C222.675 43.8532 224.139 44.0705 225.166 44.0705C229.602 44.0705 232.355 42.137 232.355 38.2702C232.355 36.1847 230.52 34.0123 226.892 34.0123H226.87C221.495 34.0123 218.218 38.1616 217.65 42.8756C217.409 44.8308 215.749 47.5246 213.957 47.5246C213.083 47.5246 212.58 46.9815 212.58 46.0474C212.58 45.4126 212.935 44.0599 213.396 42.2995C213.519 41.8307 213.649 41.3327 213.782 40.8118C213.923 40.2789 214.101 39.5648 214.303 38.7514C214.414 38.3052 214.532 37.8285 214.656 37.3361H217.584C218.021 37.3361 218.261 37.1623 218.371 36.7495C218.502 36.163 218.764 35.1419 218.851 34.8812C218.939 34.5119 218.742 34.2512 218.327 34.2512H215.443C215.443 34.2512 216.754 29.0157 216.798 28.8637C216.929 28.3206 216.47 28.0165 216.011 28.1251C216.011 28.1251 213.782 28.5595 213.367 28.6464C212.952 28.7333 212.624 28.9723 212.471 29.5588L211.291 34.273H208.997C208.56 34.273 208.298 34.4468 208.21 34.8595C208.155 35.0725 208.088 35.3429 208.021 35.6134L208.02 35.6143C207.903 36.0881 207.785 36.5619 207.73 36.7278C207.642 37.0971 207.839 37.3578 208.254 37.3578H210.505C210.483 37.423 209.696 40.4425 209.041 43.158C208.735 44.4615 207.708 47.5246 206.047 47.5246C205.042 47.5246 204.627 47.0249 204.627 45.9387C204.627 45.1171 205.023 43.6977 205.43 42.2355C205.863 40.6824 206.309 39.0811 206.309 38.0964C206.309 35.533 204.933 34.034 202.092 34.034C200.301 34.034 198.443 35.1854 197.657 36.1847C197.657 36.1847 197.897 35.3592 197.984 35.0333C198.072 34.7726 197.919 34.4902 197.657 34.4033C197.591 34.3816 197.504 34.3816 197.438 34.3816H194.685C194.095 34.3816 193.942 34.7074 193.855 35.0333C193.831 35.1037 193.533 36.2771 193.113 37.9337C192.755 39.3439 192.308 41.1041 191.866 42.8322C191.211 45.4174 189.616 47.568 187.912 47.568C187.037 47.568 186.644 47.0249 186.644 46.0908C186.644 45.3865 187.047 43.7815 187.558 41.7436L187.558 41.742C187.631 41.4547 187.705 41.1586 187.78 40.8553C188.183 39.2764 188.556 37.8482 188.828 36.8053C189.072 35.8685 189.235 35.2424 189.266 35.0985C189.354 34.7292 189.201 34.425 188.72 34.425H185.923C185.421 34.425 185.224 34.6857 185.136 35.055C185.136 35.055 184.35 38.0095 183.52 41.3115C183.464 41.5272 183.409 41.7432 183.353 41.9586L183.352 41.9623C182.794 44.1323 182.252 46.2388 182.252 47.2856C182.252 49.3277 183.17 50.87 185.705 50.87C187.649 50.87 189.201 49.8925 190.381 48.6325C190.342 48.7801 190.307 48.9163 190.275 49.0394C190.162 49.4774 190.092 49.75 190.075 49.7839C189.965 50.1749 190.096 50.5225 190.555 50.5225H193.418C193.92 50.5225 194.095 50.3269 194.204 49.8925C194.314 49.458 196.433 41.1377 196.433 41.1377C197.001 38.9002 198.4 37.4012 200.366 37.4012C201.306 37.4012 202.092 38.0095 202.005 39.2043C201.962 39.7196 201.69 40.768 201.377 41.975C200.898 43.821 200.322 46.0378 200.322 47.2856C200.322 48.8498 200.912 50.87 203.862 50.87C205.872 50.87 207.38 49.9143 208.451 48.6543C208.844 49.9794 209.893 50.87 211.816 50.87C215.006 50.87 216.929 48.9801 218.065 47.0901C219.004 49.2843 221.211 50.87 224.423 50.87C227.307 50.8917 230.082 49.7187 232.049 47.6115C231.893 48.2105 231.762 48.7211 231.665 49.099C231.558 49.516 231.492 49.7714 231.481 49.8056C231.372 50.1967 231.546 50.5225 232.027 50.5225H234.846C235.217 50.5443 235.545 50.2835 235.611 49.9143C235.629 49.8303 235.717 49.4941 235.855 48.9607C236.039 48.2516 236.313 47.194 236.638 45.917C237.752 41.6591 239.522 37.2274 242.187 37.2274C243.127 37.2274 243.52 37.7488 243.52 38.5743C243.52 38.8785 243.455 39.2043 243.302 39.4867C242.013 39.2261 240.964 39.856 240.964 41.2246C240.964 42.1153 241.925 42.9408 243.193 42.9408C244.176 42.9408 244.984 42.7018 245.618 42.2674C245.848 42.3181 246.088 42.3689 246.333 42.421C246.718 42.5026 247.119 42.5874 247.519 42.6801C247.432 43.2884 247.366 43.9184 247.366 44.5484C247.366 47.9808 249.944 50.8917 254.358 50.8917C257.811 50.8917 260.039 49.7405 262.115 48.0243C263.098 49.6318 265.589 50.9135 268.845 50.9135C273.302 50.9135 275.858 48.6108 275.858 45.5477C275.858 42.7887 273.564 41.7677 271.227 40.9205C270.993 40.8361 270.765 40.7566 270.543 40.6795C268.94 40.1213 267.709 39.6925 267.709 38.5092C267.709 37.4012 268.583 36.9016 270.068 36.9016C270.767 36.9016 271.489 37.0102 272.166 37.2274C272.559 38.1833 273.346 39.2477 274.701 39.2477C275.858 39.2477 276.362 38.3354 276.362 37.5099C276.362 36.5505 275.709 35.937 274.932 35.2072C273.791 34.1356 272.384 32.813 272.384 29.7761C272.384 26.6044 274.198 23.9975 277.934 23.9975C280.535 23.9975 282.239 25.6269 282.239 28.2771C282.239 30.4495 280.906 34.3381 280.906 34.3381H278.656C278.219 34.3381 277.956 34.5119 277.868 34.9247C277.813 35.1377 277.747 35.4081 277.68 35.6785L277.679 35.6796C277.561 36.1532 277.444 36.6271 277.388 36.793C277.301 37.1623 277.497 37.423 277.912 37.423H280.12C280.12 37.423 277.847 45.7867 277.847 47.3074C277.847 49.3494 279.005 50.8917 281.54 50.8917C285.124 50.8917 287.374 48.5891 288.335 45.2218C288.401 45.048 288.335 44.8525 288.16 44.7656C288.116 44.7439 288.051 44.7439 288.007 44.7439H286.631C286.39 44.7439 286.172 44.9177 286.128 45.1567C285.822 46.3515 285.058 47.6115 283.55 47.6115C282.676 47.6115 282.173 47.0684 282.173 46.1343C282.173 45.4239 282.583 43.8819 283.146 41.7634C283.22 41.4849 283.297 41.1965 283.376 40.8987C283.703 39.5953 284.249 37.3361 284.249 37.3361ZM190.815 29.9939C190.706 31.4711 189.483 32.6442 188.062 32.6442C186.642 32.6442 185.571 31.4494 185.659 29.9939C185.768 28.5166 186.992 27.3435 188.412 27.3435C189.832 27.3435 190.903 28.5383 190.815 29.9939Z" fill="#B7BFC7"/>
</g>
</g>
<g clip-path="url(#clip2_47_86788)">
<mask id="mask2_47_86788" style="mask-type:luminance" maskUnits="userSpaceOnUse" x="357" y="16" width="108" height="44">
<path d="M464.734 16.1523H357.422V59.0773H464.734V16.1523Z" fill="white"/>
</mask>
<g mask="url(#mask2_47_86788)">
<mask id="mask3_47_86788" style="mask-type:alpha" maskUnits="userSpaceOnUse" x="357" y="16" width="108" height="44">
<path d="M357.422 16.1523H464.299V59.0773H357.422V16.1523Z" fill="white"/>
</mask>
<g mask="url(#mask3_47_86788)">
<path d="M463.879 48.8296H458.311L459.231 45.1574H448.053L447.137 48.8296H441.74V48.0755C441.823 47.6609 441.895 47.2272 441.997 46.7634C442.981 42.8047 445.589 38.8912 450.105 38.8912C451.891 38.8912 453.667 39.5698 453.424 42.0318H460.067C460.328 40.8818 460.768 38.9251 459.515 37.1304C458.099 35.1773 455.245 34.3932 451.547 34.3932C448.897 34.3932 445.063 34.8116 441.74 36.9759V16.9931H463.879V48.8296ZM450.813 54.2099C449.586 54.444 448.341 54.5702 447.092 54.5869C443.901 54.5869 441.679 53.1089 441.634 49.6629H451.944L450.813 54.2099ZM438.057 36.0295V40.5916C436.679 42.4875 435.678 44.6285 435.108 46.8993C434.941 47.5326 434.823 48.1781 434.756 48.8296H431.505L434.283 35.6864H424.926L416.538 48.8296H415.917V17.0007H438.045L438.057 36.0295ZM425.698 48.8296H422.371L427.409 40.9346L425.698 48.8296ZM412.265 35.6562H406.727L402.942 48.8296H397.052C400.046 47.7287 401.867 45.6211 402.431 42.4993C402.893 40.0712 402.673 38.4727 401.674 37.2774C400.183 35.4978 397.192 35.6486 394.535 35.6486H390.144V17.0007H412.257L412.265 35.6562ZM408.726 48.8296L411.057 40.5916L411.137 48.8296H408.726ZM392.62 45.6965C392.404 45.6965 392.188 45.7267 391.942 45.7267C391.617 45.7267 391.367 45.7267 391.129 45.7267H389.713L390.368 43.3138L390.674 42.1185L391.431 39.3134H392.389H393.487C395.357 39.3134 396.541 39.419 396.973 40.0184C397.302 40.4671 397.26 41.2476 396.871 42.4276C396.205 44.4674 395.357 45.5005 392.635 45.7078M386.465 36.825L386.121 37.9561L382.953 48.4601L382.828 48.8371H372.411L371.597 47.1066L382.828 35.6864H375.613L366.832 45.1121L369.674 35.6864H364.352V17.0007H386.465V36.825ZM440.899 16.1523V37.5715C440.177 38.143 439.512 38.7817 438.912 39.4793V16.1523H415.092V35.6562H413.12V16.1523H389.297V35.6864H387.324V16.1523H363.501V38.4349L357.422 58.606H362.77L365.454 49.6667H366.211L370.659 58.606H377.12L372.816 49.6667H382.578L379.872 58.606H385.712L388.384 49.6892H389.667V49.6667H402.669L400.092 58.5797H405.982L408.48 49.6667H411.129L411.201 58.5797H416.145L421.822 49.6667H425.535L423.62 58.5797H429.419L431.312 49.6667H434.665C434.533 52.4303 435.241 54.9451 437.08 56.6266C439.328 58.6853 442.78 59.0773 445.336 59.0773C448.963 59.0339 452.574 58.5926 456.104 57.7616L458.114 49.6667H464.734V16.1523H440.899Z" fill="#B7BFC7"/>
</g>
</g>
</g>
<g clip-path="url(#clip3_47_86788)">
<path d="M641.178 31.5028C640.212 31.7593 639.343 31.9142 638.262 32.0296V32.3582C639.478 32.3582 639.633 32.4942 639.633 33.4993V36.8781C638.918 35.7193 638.358 35.3724 637.316 35.3724C635.25 35.3724 633.803 37.3221 633.803 40.1038C633.803 42.8855 635.27 44.8369 637.374 44.8369C638.475 44.8369 639.227 44.3357 639.767 43.254C639.845 43.9872 639.846 44.0643 640.039 44.7986C640.83 44.5472 641.158 44.4695 642.298 44.3346L642.586 44.2952V43.9672C641.293 43.9289 641.178 43.8317 641.178 42.654V31.5028ZM589.087 31.6433C588.478 31.7141 587.865 31.7467 587.253 31.741C586.711 31.741 586.422 31.7222 585.67 31.6639V32.145C587.002 32.2228 587.271 32.4159 587.271 33.305V33.4216L586.866 42.9049C586.827 43.9483 586.635 44.102 585.284 44.1992V44.6632C586.289 44.5854 586.673 44.5666 587.213 44.5666C587.754 44.5666 588.139 44.5854 589.125 44.6632V44.1992C587.773 44.102 587.522 43.9283 587.522 43.0786V42.9049L587.909 32.8805L591.074 41.4375L591.306 42.1129L591.578 42.8655L591.847 43.6197L592.06 44.2386H592.351L592.562 43.6009L592.812 42.8655L593.082 42.1523L593.314 41.5129L596.5 32.8993L596.674 42.9049V43.0015C596.674 43.9095 596.385 44.1215 595.071 44.1992V44.6632C596.288 44.5472 596.751 44.5089 597.485 44.5089C598.218 44.5089 598.682 44.5472 599.898 44.6632V44.1992C598.508 44.102 598.334 43.9483 598.315 42.9049L598.103 33.4216V33.2862C598.103 32.4165 598.392 32.2233 599.706 32.145V31.6639C598.972 31.7222 598.663 31.741 598.18 31.741C597.601 31.741 597.196 31.721 596.327 31.6433L592.679 41.4181L589.087 31.6433ZM664.186 31.7205V32.205C665.576 32.2816 665.77 32.4353 665.77 33.4787V42.846C665.77 43.8895 665.616 44.0237 664.186 44.1403V44.6043H669.071C670.499 44.6043 671.272 44.4306 672.082 43.9289C673.049 43.3106 673.685 42.1312 673.685 40.9141C673.685 39.8718 673.241 38.9261 672.488 38.3467C672.082 38.0381 671.657 37.8633 670.962 37.7278C672.353 37.2067 673.087 36.2216 673.087 34.8701C673.087 33.8644 672.662 32.9753 671.928 32.4159C671.271 31.933 670.518 31.7199 669.263 31.7199L664.186 31.7205ZM667.391 32.3205H669.032C670.654 32.3205 671.368 33.1113 671.368 34.9084C671.368 35.7964 671.157 36.4341 670.732 36.9364C670.307 37.4193 669.786 37.5741 668.703 37.5741H667.391V32.3205ZM622.989 35.0821L622.467 36.0667C621.849 35.4679 621.328 35.2553 620.498 35.2553C618.22 35.2553 616.675 37.2267 616.675 40.1038C616.675 42.9238 618.201 44.818 620.44 44.818C622.178 44.818 623.278 43.6963 623.529 41.6295H622.737C622.505 43.3295 621.79 44.1803 620.593 44.1803C619.107 44.1803 618.354 42.8089 618.354 40.1038C618.354 37.3415 619.205 35.7781 620.653 35.7781C621.831 35.7781 622.544 36.5884 622.891 38.2684H623.317V35.0821H622.989ZM657.582 35.1404L657.254 35.9313C656.597 35.4879 656.038 35.3141 655.285 35.3141C653.586 35.3141 652.389 36.357 652.389 37.8833C652.389 39.0032 652.835 39.5438 654.243 40.2015L655.131 40.6055L655.864 40.9341C656.81 41.3592 657.178 41.8032 657.178 42.4598C657.178 43.4455 656.328 44.1992 655.189 44.1992C653.837 44.1992 653.026 43.3495 652.678 41.5918L652.255 41.6106V44.8369H652.602L653.064 43.9672C653.798 44.5466 654.493 44.7786 655.381 44.7786C657.197 44.7786 658.49 43.6209 658.49 41.9975C658.49 40.8581 657.968 40.2392 656.501 39.6021L655.69 39.2547C653.933 38.4821 653.645 38.2318 653.645 37.4587C653.645 36.5507 654.436 35.8553 655.458 35.8553C656.675 35.8553 657.312 36.5896 657.485 38.1341H657.93V35.1399L657.582 35.1404ZM686.121 35.1404C685.351 35.4113 684.692 35.565 683.572 35.7199V36.0478C683.669 36.0478 683.767 36.0667 683.824 36.0667C684.79 36.0667 684.904 36.1838 684.924 36.9753V43.2335C684.924 44.0637 684.732 44.2186 683.555 44.2763V44.6632C684.559 44.566 684.963 44.5477 685.638 44.5477C686.334 44.5477 686.72 44.566 687.725 44.6632V44.2763C686.72 44.238 686.47 44.0443 686.47 43.2729V38.5964C686.47 37.013 687.164 36.1838 688.477 36.1838C689.712 36.1838 690.214 36.8593 690.214 38.5398V43.2729C690.214 44.0443 689.963 44.238 688.92 44.2763V44.6632C689.924 44.566 690.31 44.5477 691.025 44.5477C691.719 44.5477 692.107 44.566 693.131 44.6632V44.2763C691.952 44.2192 691.758 44.0637 691.758 43.2335V38.5964C691.758 37.8633 691.662 37.3221 691.468 36.8593C691.083 35.9124 690.079 35.3141 688.92 35.3141C687.802 35.3141 687.009 35.7776 686.313 36.821C686.274 36.0867 686.218 35.585 686.121 35.1404ZM611.82 35.1781C611.027 35.4096 610.371 35.5267 609.271 35.6233V35.9707H609.521C610.525 35.9896 610.623 36.0873 610.641 36.9176V43.2335C610.641 44.0637 610.43 44.2186 609.252 44.2763V44.6632C610.314 44.566 610.719 44.546 611.415 44.546C612.09 44.546 612.496 44.566 613.556 44.6632V44.2763C612.379 44.2192 612.186 44.0637 612.186 43.2335V39.1964C612.186 37.2833 612.822 36.0684 613.826 36.0684C614.173 36.0684 614.406 36.2598 614.406 36.5313V36.7044L614.367 36.8987C614.348 36.9764 614.329 37.053 614.329 37.0907C614.329 37.4781 614.677 37.7478 615.121 37.7478C615.604 37.7478 615.932 37.3798 615.932 36.8198C615.932 35.8936 615.217 35.2559 614.252 35.2559C613.249 35.2559 612.417 35.8936 611.993 36.9947V36.7816C611.954 36.2021 611.916 35.8936 611.82 35.1781ZM604.588 35.2559C602.271 35.2559 600.824 37.129 600.824 40.1038C600.824 43.078 602.271 44.818 604.761 44.818C606.653 44.818 607.888 43.6386 608.14 41.6489H607.368C607.136 43.2912 606.287 44.1803 604.916 44.1803C603.159 44.1803 602.387 42.8289 602.368 39.8147H608.121C608.083 36.8404 606.866 35.2559 604.588 35.2559ZM628.669 35.2559C626.352 35.2559 624.904 37.129 624.904 40.1038C624.904 43.078 626.352 44.818 628.842 44.818C630.734 44.818 631.971 43.6386 632.221 41.6489H631.449C631.217 43.2912 630.368 44.1803 628.997 44.1803C627.241 44.1803 626.467 42.8289 626.448 39.8147H632.202C632.163 36.8404 630.947 35.2559 628.669 35.2559ZM647.083 35.2559C644.766 35.2559 643.318 37.129 643.318 40.1038C643.318 43.078 644.766 44.818 647.256 44.818C649.148 44.818 650.384 43.6386 650.635 41.6489H649.862C649.63 43.2912 648.782 44.1803 647.411 44.1803C645.655 44.1803 644.882 42.8289 644.862 39.8147H650.616C650.577 36.8404 649.36 35.2559 647.083 35.2559ZM679.018 35.2559C676.701 35.2559 675.253 37.129 675.253 40.1038C675.253 43.078 676.701 44.818 679.191 44.818C681.083 44.818 682.319 43.6386 682.57 41.6489H681.797C681.566 43.2912 680.718 44.1803 679.348 44.1803C677.59 44.1803 676.818 42.8289 676.799 39.8147H682.551C682.512 36.8404 681.296 35.2559 679.018 35.2559ZM694.537 35.4873L694.091 37.9987H694.479C695.174 36.2604 695.482 35.9896 696.738 35.9896H699.11L693.88 44.6049H700.52L701.024 41.8238H700.618C700.038 43.5815 699.498 44.1026 698.184 44.1026H695.927L701.178 35.4873H694.537ZM604.569 35.7576C605.824 35.7576 606.46 36.8393 606.577 39.1192H602.406C602.599 36.8981 603.333 35.7576 604.569 35.7576ZM628.649 35.7576C629.903 35.7576 630.541 36.8393 630.657 39.1192H626.486C626.679 36.8981 627.413 35.7576 628.649 35.7576ZM647.064 35.7576C648.319 35.7576 648.956 36.8393 649.072 39.1192H644.901C645.094 36.8981 645.828 35.7576 647.064 35.7576ZM678.999 35.7576C680.254 35.7576 680.891 36.8393 681.007 39.1192H676.837C677.029 36.8981 677.763 35.7576 678.999 35.7576ZM637.49 35.9119C638.918 35.9119 639.652 37.3815 639.652 40.2204C639.652 42.9055 638.938 44.2952 637.548 44.2952C636.158 44.2952 635.425 42.8472 635.425 40.0849C635.425 37.2838 636.099 35.9119 637.49 35.9119ZM667.391 38.1735H669.226C670.249 38.1735 670.827 38.3461 671.271 38.7907C671.716 39.2352 671.966 40.0649 671.966 40.9924C671.966 42.9238 671.001 44.0066 669.282 44.0066H668.589C667.565 44.0066 667.391 43.8506 667.391 43.0009V38.1735ZM659.648 38.9392V39.9381H663.962V38.9392H659.648ZM555.397 24.3103C555.397 24.0331 555.313 24.024 555.291 24.3L554.407 37.4747L555.286 37.989L555.396 24.3109L555.397 24.3103ZM551.274 40.5524L554.982 38.497L554.14 38.0284L551.17 40.4604C551.004 40.6026 551.078 40.6615 551.274 40.5524Z" fill="#B7BFC7"/>
<path d="M555.46 17.2539C543.7 17.2482 534.162 26.6938 534.162 38.3348C534.162 49.9758 543.693 59.4116 555.46 59.4156C567.227 59.4191 576.767 49.9758 576.767 38.3348C576.767 26.6932 567.235 17.2539 555.46 17.2539ZM555.46 58.6128C547.457 58.6128 541.177 54.4506 538.186 48.7272L538.648 48.5575C539.425 49.8255 540.441 50.9403 541.805 52.4472C543.486 54.2951 548.802 57.8642 555.456 57.8642C558.814 57.8764 562.12 57.0296 565.059 55.4043C567.998 53.7785 570.473 51.4283 572.249 48.5769C572.518 48.5015 572.603 48.3849 572.514 48.1512C574.114 45.3324 575.2 41.7913 575.2 38.3308C575.2 36.1514 574.88 34.3783 574.373 32.7937C574.059 31.8176 573.677 30.8648 573.23 29.9423C573.18 29.8609 573.153 29.7667 573.155 29.6709C573.235 29.732 573.3 29.8115 573.344 29.9023C573.654 30.4669 574.346 31.8497 574.671 32.7497C575.11 33.9508 575.892 35.6137 575.892 38.3308C575.896 49.4221 566.815 58.6191 555.46 58.6128ZM538.405 48.2369L553.321 37.5108L552.045 36.7828L538.756 47.8341C537.264 45.1284 536.227 41.6542 536.227 38.3502C536.227 27.8875 544.553 19.4167 555.094 19.3522L552.375 36.2737L553.646 37.0125L555.354 19.355C555.386 19.1322 555.539 19.1322 555.539 19.355L555.64 37.9753L558.666 36.1977L555.766 19.3482C566.127 19.6253 574.711 27.9858 574.711 38.3171C574.711 41.6484 573.705 45.1284 572.181 47.8512L558.906 36.7885L557.628 37.5188L571.896 47.8712C572.239 48.1152 572.134 48.2261 571.769 48.0226L555.746 38.7782V42.2427L571.806 48.3815C568.44 53.8729 562.369 57.386 555.419 57.386C548.453 57.386 542.48 53.8746 539.115 48.3746L555.202 42.2319V38.7679L538.542 48.3964C538.147 48.6141 538.042 48.4924 538.405 48.2369ZM537.995 48.4426C537.291 46.9815 536.548 44.9227 536.241 43.2941C536.226 43.2084 536.23 43.1204 536.252 43.037C536.304 43.1136 536.343 43.1981 536.37 43.2867C536.852 44.7815 537.274 46.1261 538.376 48.1455L537.995 48.4426ZM575.862 34.7582C575.811 34.6847 575.772 34.6037 575.746 34.5183C574.188 29.7137 572.862 27.8263 570.306 25.0195C566.938 21.3236 561.441 18.4659 555.59 18.4596C544.408 18.4585 535.336 27.5372 535.336 38.7245C535.336 42.0502 536.061 44.9233 536.644 46.3661C537.327 48.0392 538.509 50.2929 538.568 50.3946C538.609 50.4775 538.631 50.5695 538.631 50.6626C538.554 50.6012 538.489 50.526 538.44 50.4409C538.101 49.9483 536.712 47.4455 536.282 46.3512C535.336 43.9707 534.642 41.3736 534.642 38.6479C534.642 27.1178 543.968 17.7676 555.501 17.7676C565.803 17.7676 574.108 24.9275 575.862 34.5114C575.879 34.5931 575.879 34.6771 575.862 34.7582Z" fill="#B7BFC7"/>
<path d="M567.822 45.3499L556.842 37.9883L555.939 38.5043L567.77 45.4339C567.98 45.555 568.024 45.4796 567.822 45.3499Z" fill="#B7BFC7"/>
</g>
<g clip-path="url(#clip4_47_86788)">
<path d="M802.049 33.1654C805.477 24.758 799.063 22.4727 794.897 22.4727H781.071C781.474 22.7254 781.77 23.1156 781.904 23.5702C782.038 24.0247 782.001 24.5124 781.8 24.9416L773.744 50.5674C773.551 51.0658 773.26 51.5207 772.888 51.9053C772.516 52.2899 772.071 52.5964 771.578 52.8069H782.758C782.315 52.673 781.942 52.3706 781.722 51.9651C781.501 51.5597 781.449 51.0839 781.578 50.6409L784.5 41.3707C784.5 41.3707 797.966 43.2064 802.012 33.1654H802.049ZM791.182 24.8315C792.648 24.8315 796.712 25.0334 794.076 32.6697C791.311 40.6917 785.256 39.0394 785.256 39.0394L789.726 24.8315H791.173H791.182Z" fill="#B7BFC7"/>
<path d="M810.998 52.825H818.528C815.766 51.8143 813.252 50.2277 811.155 48.1716C812.817 46.5974 813.824 44.4579 813.975 42.1781H810.076C810.303 42.3225 810.489 42.5205 810.619 42.7544C810.75 42.9883 810.82 43.2507 810.823 43.5182C810.795 44.5423 810.443 45.5314 809.818 46.3452C808.398 44.452 807.451 42.2499 807.053 39.9202C808.979 39.1414 810.793 38.1105 812.445 36.8547C813.024 36.4204 813.503 35.8685 813.851 35.2354C814.199 34.6025 814.408 33.903 814.464 33.1834V33.0733C814.466 32.6238 814.377 32.1784 814.203 31.7637C814.029 31.349 813.773 30.9734 813.45 30.6594C812.808 30.0869 812.038 29.6763 811.204 29.4623C810.37 29.2482 809.496 29.237 808.657 29.4295C807.388 29.6819 806.207 30.2574 805.228 31.0999C802.961 33.2294 802.675 36.7263 802.675 38.3141V39.1585L802.316 39.3053C800.657 39.9202 796.224 41.0859 794.648 44.7205C794.32 45.554 794.154 46.4415 794.159 47.3363C794.14 48.4396 794.437 49.5256 795.016 50.4661C796.131 52.21 798.03 53.3115 801.062 53.2197C804.362 53.1646 807.616 50.925 808.187 50.4661C809.025 51.3229 809.952 52.089 810.952 52.7516L810.998 52.825ZM810.998 32.5502C810.611 34.9916 807.431 37.4605 806.657 37.791C806.42 35.9497 806.799 34.0819 807.735 32.4767C808.491 31.3019 809.514 30.7879 810.334 31.0816C810.998 31.311 811.063 31.9076 811.007 32.5502H810.998ZM806.611 48.8875C805.432 49.5638 804.133 50.0093 802.786 50.1999C801.265 50.3468 798.74 49.7594 798.758 46.7306C798.758 44.1424 801.579 42.2517 803.118 41.5907C803.816 44.2202 805.004 46.6955 806.62 48.8875H806.611Z" fill="#B7BFC7"/>
<path d="M833.865 24.8612C838.335 23.7873 842.021 27.2751 842.353 27.5137L843.625 23.4753C841.865 22.9429 829.026 18.6199 819.956 28.9272C814.38 35.2693 813.016 48.2567 820.085 51.7445C827.652 55.4708 836.012 51.1754 836.676 50.8725L840.086 39.9045C840.263 39.2526 840.605 38.6569 841.079 38.1748C841.554 37.6926 842.145 37.3401 842.796 37.151H830.814C831.355 37.2993 831.815 37.6542 832.095 38.139C832.375 38.6237 832.451 39.1989 832.307 39.7392L828.851 50.7072C828.39 50.7899 818.712 53.1946 824.132 36.3617C825.32 32.7454 828.574 26.1278 833.892 24.852L833.865 24.8612Z" fill="#B7BFC7"/>
</g>
<g clip-path="url(#clip5_47_86788)">
<path d="M1009.58 31.4641V28.1406H997.723V45.2402H1009.58V41.772H1002.52V37.9815H1008.39V34.6621H1002.52V31.4641H1009.58Z" fill="#B7BFC7"/>
<path d="M1030.49 41.8659H1023.08V28.1406H1018.22V45.2402H1030.49V41.8659Z" fill="#B7BFC7"/>
<path d="M1069.62 34.6573C1066.34 33.9186 1065.19 33.8329 1065.19 32.5285C1065.19 31.318 1066.82 30.9415 1067.75 30.9415C1069.26 30.9415 1071.05 31.294 1072.87 32.2267L1074.19 29.0802C1072.33 28.0638 1069.94 27.6406 1067.63 27.6406C1063.11 27.6406 1060.08 29.4752 1059.95 33.0517C1059.82 36.3135 1062.47 37.5336 1064.91 38.037C1067.26 38.5225 1069.65 38.9381 1069.69 40.3338C1069.74 41.621 1068.58 42.1724 1066.39 42.1724C1064.37 42.1724 1062.49 41.5223 1060.57 40.7172L1059.45 44.1374C1061.66 45.0769 1063.9 45.5947 1066.21 45.5947C1069.42 45.5947 1071.77 45.0933 1073.49 43.4735C1074.69 42.3611 1075.08 41.0182 1075.08 39.7364C1075.08 37.0337 1073.4 35.5111 1069.62 34.6573Z" fill="#B7BFC7"/>
<path d="M990.829 31.5162V28.1406H975.916V31.5162H980.954V45.2402H985.784V31.5162H990.829Z" fill="#B7BFC7"/>
<path d="M1047.06 28.1406V39.0047C1047.06 39.8558 1047.06 40.091 1047.01 40.4223C1046.85 41.4579 1045.85 42.0587 1044.25 42.0799C1043.07 42.0607 1042.2 41.7103 1041.79 41.0909C1041.59 40.7727 1041.49 40.2007 1041.49 39.2873V28.1406H1036.45V39.9251C1036.45 41.558 1036.67 42.2953 1037.41 43.2272C1038.62 44.7477 1040.99 45.5474 1044.26 45.5474C1044.3 45.5474 1044.33 45.5474 1044.37 45.5474C1044.38 45.5474 1044.41 45.5474 1044.44 45.5474C1048.81 45.5474 1051.07 43.8425 1051.72 42.2473C1052.05 41.4737 1052.07 41.1074 1052.07 39.5465V28.1406H1047.06Z" fill="#B7BFC7"/>
<path d="M978.192 23.4587L949.932 29.0852V31.0563L950.022 31.0329C968.691 26.4949 978.192 23.7653 978.268 23.7461C978.374 23.7187 978.411 23.6364 978.397 23.5671C978.381 23.4944 978.305 23.4341 978.192 23.4587Z" fill="#B7BFC7"/>
<path d="M955.216 22.9213C953.842 22.9995 951.298 25.0343 949.902 26.2427C944.342 31.0531 940.208 35.4745 937.202 40.1052C930.936 43.4616 922.945 46.9134 915.013 49.6072L914.822 49.6717L913.295 53.7825L914.167 53.4457C919.213 51.5228 927.635 47.9112 935.271 43.8965C934.841 45.0431 934.624 46.0972 934.624 47.058C934.624 47.7747 934.744 48.4414 934.983 49.0469C935.463 50.2567 936.41 51.1729 937.722 51.6935C939.676 52.4733 942.341 52.4877 945.383 51.5666C953.153 49.2115 962.37 41.9803 964.377 40.542L964.454 40.4879C964.532 40.431 964.538 40.3453 964.505 40.2869C964.461 40.2205 964.369 40.2026 964.292 40.2493L964.194 40.3089C962.04 41.6016 951.576 47.8145 944.774 49.6387C941.309 50.5681 938.669 50.0606 937.673 48.6677C937.327 48.1917 937.161 47.5896 937.161 46.8873C937.161 45.5163 937.806 43.7709 939.049 41.8307C940.193 41.1799 941.261 40.5435 942.224 39.9385C948.86 36.2091 956.506 28.9579 956.832 24.5316C956.834 24.5014 956.834 24.4665 956.834 24.4335C956.834 24.0515 956.668 23.6586 956.378 23.3685C956.067 23.0509 955.657 22.8925 955.216 22.9213ZM954.476 25.0309C954.911 24.749 955.037 24.9253 954.908 25.2435C954.701 25.7517 953.743 28.8091 946.629 34.6495C944.773 36.17 943.452 37.0238 940.779 38.6066C945.157 32.472 951.548 26.932 954.476 25.0309Z" fill="#B7BFC7"/>
<path d="M949.841 29.1055L920.108 35.4966L918.961 38.589L949.933 31.0573L950.891 30.5162L950.865 29.1089L949.841 29.1055Z" fill="#B7BFC7"/>
</g>
<defs>
<clipPath id="clip0_47_86788">
<rect width="88.9062" height="43.9948" fill="white" transform="translate(0 16.0039)"/>
</clipPath>
<clipPath id="clip1_47_86788">
<rect width="131.078" height="43.9983" fill="white" transform="translate(157.625 16)"/>
</clipPath>
<clipPath id="clip2_47_86788">
<rect width="107.312" height="43.9981" fill="white" transform="translate(357.422 16)"/>
</clipPath>
<clipPath id="clip3_47_86788">
<rect width="169.141" height="43.9994" fill="white" transform="translate(533.453 16)"/>
</clipPath>
<clipPath id="clip4_47_86788">
<rect width="72.6406" height="31.9965" fill="white" transform="translate(771.312 22)"/>
</clipPath>
<clipPath id="clip5_47_86788">
<rect width="162.812" height="31.9978" fill="white" transform="translate(912.672 22)"/>
</clipPath>
</defs>
</svg>
