<svg width="20" height="20" viewBox="0 0 20 20" fill="none" xmlns="http://www.w3.org/2000/svg">
<path fill-rule="evenodd" clip-rule="evenodd" d="M3.33463 4.9987H16.6679V9.9987H18.3346V4.9987C18.3346 4.07822 17.5884 3.33203 16.6679 3.33203H3.33463C2.41416 3.33203 1.66797 4.07822 1.66797 4.9987V13.3321C1.66797 14.2525 2.41416 14.9987 3.33463 14.9987H8.33463V13.3321H3.33463V4.9987ZM10.0013 12.6654C10.0013 12.1131 10.449 11.6654 11.0013 11.6654H17.3346C17.8869 11.6654 18.3346 12.1131 18.3346 12.6654V17.3321C18.3346 17.8843 17.8869 18.3321 17.3346 18.3321H11.0013C10.449 18.3321 10.0013 17.8843 10.0013 17.3321V12.6654ZM7.91797 7.60286V8.5937L6.17213 6.84787C6.05963 6.73537 5.90297 6.66537 5.73047 6.66537C5.38547 6.66537 5.10547 6.94453 5.10547 7.29037C5.10547 7.46287 5.17547 7.6187 5.2888 7.73203L7.0338 9.47787H6.04297C5.69797 9.47787 5.41797 9.75703 5.41797 10.1029C5.41797 10.4479 5.69797 10.7279 6.04297 10.7279H8.54297C8.88797 10.7279 9.16797 10.4479 9.16797 10.1029V7.60286C9.16797 7.25703 8.88797 6.97787 8.54297 6.97787C8.19797 6.97787 7.91797 7.25703 7.91797 7.60286Z" fill="white"/>
</svg>
