<svg width="13" height="15" viewBox="0 0 13 15" fill="none" xmlns="http://www.w3.org/2000/svg">
<path d="M6.4989 8.95464C5.0228 8.95464 3.81696 7.75574 3.81696 6.2727C3.81696 4.78966 5.0228 3.59769 6.4989 3.59769C7.97501 3.59769 9.18085 4.79659 9.18085 6.27963C9.18085 7.76267 7.97501 8.95464 6.4989 8.95464ZM6.4989 4.6372C5.59799 4.6372 4.85647 5.37179 4.85647 6.27963C4.85647 7.18747 5.59106 7.92206 6.4989 7.92206C7.40674 7.92206 8.14133 7.18747 8.14133 6.27963C8.14133 5.37179 7.39981 4.6372 6.4989 4.6372Z" fill="#111111"/>
<path d="M6.49809 14.9066C5.47244 14.9066 4.43986 14.5185 3.63597 13.7493C1.59159 11.7811 -0.667616 8.64182 0.184785 4.9065C0.954024 1.51769 3.91317 0 6.49809 0C6.49809 0 6.49809 0 6.50502 0C9.08994 0 12.0491 1.51769 12.8183 4.91343C13.6638 8.64875 11.4046 11.7811 9.36022 13.7493C8.55633 14.5185 7.52374 14.9066 6.49809 14.9066ZM6.49809 1.03951C4.48144 1.03951 1.88959 2.11368 1.20351 5.13519C0.455058 8.39926 2.50636 11.2129 4.36363 12.9939C5.56253 14.1512 7.44058 14.1512 8.63949 12.9939C10.4898 11.2129 12.5411 8.39926 11.8065 5.13519C11.1135 2.11368 8.51475 1.03951 6.49809 1.03951Z" fill="#111111"/>
</svg>
