<svg width="64" height="64" viewBox="0 0 64 64" fill="none" xmlns="http://www.w3.org/2000/svg">
<path d="M23.6522 43.1301C25.9574 43.1301 27.8261 41.2613 27.8261 38.9561C27.8261 36.651 25.9574 34.7822 23.6522 34.7822C21.347 34.7822 19.4783 36.651 19.4783 38.9561C19.4783 41.2613 21.347 43.1301 23.6522 43.1301Z" stroke="#213A52" stroke-width="1.94783" stroke-linecap="round" stroke-linejoin="round"/>
<path d="M37.5653 43.1301C39.8705 43.1301 41.7392 41.2613 41.7392 38.9561C41.7392 36.651 39.8705 34.7822 37.5653 34.7822C35.2601 34.7822 33.3914 36.651 33.3914 38.9561C33.3914 41.2613 35.2601 43.1301 37.5653 43.1301Z" stroke="#213A52" stroke-width="1.94783" stroke-linecap="round" stroke-linejoin="round"/>
<path d="M27.8262 38.9561V20.8691H41.7392V38.9561" stroke="#213A52" stroke-width="1.94783" stroke-linecap="round" stroke-linejoin="round"/>
<path d="M27.8262 26.4346H41.7392" stroke="#213A52" stroke-width="1.94783" stroke-linecap="round" stroke-linejoin="round"/>
</svg>
