<svg width="560" height="642" viewBox="0 0 560 642" fill="none" xmlns="http://www.w3.org/2000/svg">
<g clip-path="url(#clip0_47_91933)">
<path d="M27.0312 606.875C27.0312 604.129 29.2578 601.902 32.0043 601.902H197.11C199.856 601.902 202.083 604.129 202.083 606.875C202.083 609.622 199.856 611.848 197.11 611.848H32.0043C29.2578 611.848 27.0312 609.622 27.0312 606.875Z" fill="#4285F4"/>
<path fill-rule="evenodd" clip-rule="evenodd" d="M27.0312 606.875C27.0312 604.129 29.2578 601.902 32.0043 601.902H390.065C392.811 601.902 395.038 604.129 395.038 606.875C395.038 609.622 392.811 611.848 390.065 611.848H32.0043C29.2578 611.848 27.0312 609.622 27.0312 606.875Z" stroke="#E9E9E9" stroke-width="0.994612"/>
<path d="M29.0195 564.22H30.8814L37.3086 574.424H37.3802L37.3086 571.954V564.22H38.8304V577.038H37.2549L30.5234 566.35H30.4518L30.5234 568.821V577.038H29.0195V564.22ZM44.0466 577.325C43.3783 577.325 42.7815 577.193 42.2563 576.931C41.7312 576.668 41.3254 576.31 41.0389 575.857C40.7525 575.391 40.6093 574.866 40.6093 574.281C40.6093 573.314 40.9733 572.563 41.7013 572.025C42.4294 571.476 43.3484 571.202 44.4584 571.202C45.0074 571.202 45.5147 571.262 45.9802 571.381C46.4576 571.5 46.8216 571.638 47.0722 571.793V571.238C47.0722 570.557 46.8335 570.014 46.3561 569.609C45.8787 569.191 45.276 568.982 44.5479 568.982C44.0347 568.982 43.5633 569.095 43.1336 569.322C42.7039 569.537 42.3638 569.841 42.1131 570.235L40.9673 569.376C41.3254 568.827 41.8147 568.397 42.4354 568.087C43.0679 567.776 43.7662 567.621 44.53 567.621C45.7713 567.621 46.744 567.95 47.4482 568.606C48.1643 569.25 48.5224 570.134 48.5224 571.256V577.038H47.0722V575.731H47.0006C46.7381 576.173 46.3442 576.549 45.819 576.859C45.2939 577.17 44.7031 577.325 44.0466 577.325ZM44.1899 575.982C44.7031 575.982 45.1805 575.851 45.6221 575.588C46.0637 575.326 46.4158 574.973 46.6784 574.532C46.941 574.09 47.0722 573.607 47.0722 573.082C46.7858 572.891 46.4337 572.736 46.016 572.616C45.5982 572.497 45.1566 572.437 44.6911 572.437C43.8557 572.437 43.2231 572.61 42.7934 572.956C42.3757 573.303 42.1668 573.75 42.1668 574.299C42.1668 574.8 42.3578 575.206 42.7397 575.517C43.1216 575.827 43.605 575.982 44.1899 575.982ZM53.9736 577.182C53.6036 577.182 53.2574 577.122 52.9352 577.002C52.6249 576.883 52.3623 576.722 52.1475 576.519C51.9087 576.292 51.7297 576.03 51.6104 575.731C51.491 575.433 51.4313 575.069 51.4313 574.639V569.286H49.838V567.908H51.4313V565.33H52.9531V567.908H55.1731V569.286H52.9531V574.263C52.9531 574.765 53.0486 575.135 53.2395 575.373C53.4663 575.636 53.7945 575.767 54.2242 575.767C54.5703 575.767 54.9045 575.666 55.2268 575.463V576.949C55.0477 577.032 54.8627 577.092 54.6718 577.128C54.4928 577.164 54.26 577.182 53.9736 577.182ZM59.7642 577.325C59.0958 577.325 58.499 577.193 57.9739 576.931C57.4487 576.668 57.0429 576.31 56.7565 575.857C56.47 575.391 56.3268 574.866 56.3268 574.281C56.3268 573.314 56.6908 572.563 57.4189 572.025C58.147 571.476 59.066 571.202 60.176 571.202C60.725 571.202 61.2322 571.262 61.6977 571.381C62.1751 571.5 62.5392 571.638 62.7898 571.793V571.238C62.7898 570.557 62.5511 570.014 62.0737 569.609C61.5963 569.191 60.9935 568.982 60.2655 568.982C59.7523 568.982 59.2808 569.095 58.8511 569.322C58.4215 569.537 58.0813 569.841 57.8307 570.235L56.6849 569.376C57.0429 568.827 57.5323 568.397 58.1529 568.087C58.7855 567.776 59.4837 567.621 60.2476 567.621C61.4889 567.621 62.4616 567.95 63.1658 568.606C63.8819 569.25 64.24 570.134 64.24 571.256V577.038H62.7898V575.731H62.7182C62.4556 576.173 62.0617 576.549 61.5366 576.859C61.0114 577.17 60.4206 577.325 59.7642 577.325ZM59.9074 575.982C60.4206 575.982 60.8981 575.851 61.3397 575.588C61.7813 575.326 62.1334 574.973 62.3959 574.532C62.6585 574.09 62.7898 573.607 62.7898 573.082C62.5034 572.891 62.1513 572.736 61.7335 572.616C61.3158 572.497 60.8742 572.437 60.4087 572.437C59.5732 572.437 58.9407 572.61 58.511 572.956C58.0932 573.303 57.8844 573.75 57.8844 574.299C57.8844 574.8 58.0753 575.206 58.4573 575.517C58.8392 575.827 59.3226 575.982 59.9074 575.982ZM66.357 564.22H67.8787V577.038H66.357V564.22ZM71.0286 566.225C70.7302 566.225 70.4736 566.117 70.2587 565.903C70.0439 565.688 69.9365 565.431 69.9365 565.133C69.9365 564.834 70.0439 564.584 70.2587 564.381C70.4736 564.166 70.7302 564.059 71.0286 564.059C71.327 564.059 71.5836 564.166 71.7984 564.381C72.0132 564.584 72.1207 564.834 72.1207 565.133C72.1207 565.431 72.0132 565.688 71.7984 565.903C71.5955 566.117 71.3389 566.225 71.0286 566.225ZM70.2766 567.908H71.7805V577.038H70.2766V567.908ZM78.1486 577.325C77.2773 577.325 76.4956 577.116 75.8033 576.698C75.1111 576.28 74.568 575.707 74.1741 574.979C73.7922 574.239 73.6012 573.41 73.6012 572.491C73.6012 571.608 73.7803 570.796 74.1383 570.056C74.5083 569.316 75.0275 568.725 75.6959 568.284C76.3643 567.842 77.1401 567.621 78.0233 567.621C78.9184 567.621 79.6942 567.824 80.3507 568.23C81.0071 568.624 81.5084 569.173 81.8545 569.877C82.2126 570.581 82.3916 571.387 82.3916 572.294C82.3916 572.473 82.3737 572.628 82.3379 572.759H75.123C75.1588 573.452 75.3259 574.037 75.6243 574.514C75.9227 574.991 76.2986 575.349 76.7522 575.588C77.2176 575.827 77.701 575.946 78.2023 575.946C79.372 575.946 80.2731 575.397 80.9057 574.299L82.1947 574.926C81.8008 575.666 81.2637 576.251 80.5834 576.68C79.915 577.11 79.1034 577.325 78.1486 577.325ZM80.7803 571.506C80.7565 571.124 80.6491 570.742 80.4581 570.36C80.2671 569.979 79.9628 569.656 79.545 569.394C79.1392 569.131 78.626 569 78.0054 569C77.2893 569 76.6806 569.233 76.1793 569.698C75.6899 570.152 75.3677 570.754 75.2125 571.506H80.7803ZM88.638 564.22H90.8401L94.9219 574.729H94.9936L99.0754 564.22H101.278V577.038H99.7737V568.892L99.8453 566.458H99.7737L95.5844 577.038H94.3311L90.1418 566.458H90.0702L90.1418 568.892V577.038H88.638V564.22ZM104.844 577.146C104.522 577.146 104.247 577.038 104.02 576.823C103.806 576.597 103.698 576.322 103.698 576C103.698 575.69 103.806 575.427 104.02 575.212C104.247 574.985 104.522 574.872 104.844 574.872C105.154 574.872 105.417 574.985 105.632 575.212C105.859 575.427 105.972 575.69 105.972 576C105.972 576.322 105.859 576.597 105.632 576.823C105.417 577.038 105.154 577.146 104.844 577.146ZM112.251 570.862H117.926V572.115H112.251V570.862ZM128.493 567.908H129.943V569.25H130.015C130.277 568.785 130.671 568.397 131.196 568.087C131.722 567.776 132.277 567.621 132.861 567.621C133.53 567.621 134.109 567.782 134.598 568.105C135.099 568.427 135.457 568.857 135.672 569.394C135.994 568.857 136.418 568.427 136.943 568.105C137.48 567.782 138.101 567.621 138.805 567.621C139.856 567.621 140.643 567.944 141.168 568.588C141.706 569.221 141.974 570.086 141.974 571.184V577.038H140.47V571.417C140.47 570.569 140.297 569.955 139.951 569.573C139.605 569.191 139.092 569 138.411 569C137.958 569 137.546 569.131 137.176 569.394C136.806 569.656 136.514 570.008 136.299 570.45C136.096 570.892 135.994 571.369 135.994 571.882V577.038H134.473V571.435C134.473 570.575 134.3 569.955 133.954 569.573C133.607 569.191 133.1 569 132.432 569C131.978 569 131.566 569.137 131.196 569.412C130.826 569.674 130.534 570.032 130.319 570.486C130.116 570.927 130.015 571.405 130.015 571.918V577.038H128.493V567.908ZM148.365 577.325C147.47 577.325 146.665 577.11 145.949 576.68C145.232 576.251 144.671 575.666 144.266 574.926C143.872 574.186 143.675 573.368 143.675 572.473C143.675 571.578 143.872 570.76 144.266 570.02C144.671 569.28 145.232 568.695 145.949 568.266C146.665 567.836 147.47 567.621 148.365 567.621C149.261 567.621 150.066 567.836 150.782 568.266C151.498 568.695 152.053 569.28 152.447 570.02C152.853 570.76 153.056 571.578 153.056 572.473C153.056 573.368 152.853 574.186 152.447 574.926C152.053 575.666 151.498 576.251 150.782 576.68C150.066 577.11 149.261 577.325 148.365 577.325ZM148.365 575.946C148.926 575.946 149.446 575.809 149.923 575.534C150.412 575.248 150.8 574.842 151.087 574.317C151.385 573.792 151.534 573.177 151.534 572.473C151.534 571.769 151.385 571.154 151.087 570.629C150.8 570.104 150.412 569.704 149.923 569.429C149.446 569.143 148.926 569 148.365 569C147.804 569 147.279 569.143 146.79 569.429C146.301 569.704 145.907 570.104 145.608 570.629C145.322 571.154 145.179 571.769 145.179 572.473C145.179 573.177 145.322 573.792 145.608 574.317C145.907 574.842 146.301 575.248 146.79 575.534C147.279 575.809 147.804 575.946 148.365 575.946ZM154.648 567.908H156.099V569.25H156.17C156.433 568.785 156.827 568.397 157.352 568.087C157.877 567.776 158.432 567.621 159.017 567.621C159.685 567.621 160.264 567.782 160.753 568.105C161.255 568.427 161.613 568.857 161.827 569.394C162.15 568.857 162.573 568.427 163.099 568.105C163.636 567.782 164.256 567.621 164.961 567.621C166.011 567.621 166.799 567.944 167.324 568.588C167.861 569.221 168.129 570.086 168.129 571.184V577.038H166.626V571.417C166.626 570.569 166.452 569.955 166.106 569.573C165.76 569.191 165.247 569 164.567 569C164.113 569 163.701 569.131 163.331 569.394C162.961 569.656 162.669 570.008 162.454 570.45C162.251 570.892 162.15 571.369 162.15 571.882V577.038H160.628V571.435C160.628 570.575 160.455 569.955 160.109 569.573C159.763 569.191 159.255 569 158.587 569C158.134 569 157.722 569.137 157.352 569.412C156.982 569.674 156.689 570.032 156.474 570.486C156.272 570.927 156.17 571.405 156.17 571.918V577.038H154.648V567.908Z" fill="#757575"/>
<path d="M356.81 570.652L355.473 571.619L354.805 570.604L357.204 568.874H358.123V577.037H356.81V570.652ZM363.125 577.228C362.456 577.228 361.867 577.041 361.358 576.667C360.849 576.286 360.455 575.772 360.177 575.128C359.906 574.475 359.771 573.751 359.771 572.956C359.771 572.152 359.906 571.428 360.177 570.783C360.455 570.131 360.849 569.618 361.358 569.244C361.867 568.87 362.456 568.683 363.125 568.683C363.793 568.683 364.378 568.87 364.879 569.244C365.388 569.618 365.778 570.131 366.049 570.783C366.327 571.428 366.467 572.152 366.467 572.956C366.467 573.751 366.327 574.475 366.049 575.128C365.778 575.772 365.388 576.286 364.879 576.667C364.37 577.041 363.785 577.228 363.125 577.228ZM363.125 575.987C363.53 575.987 363.884 575.856 364.187 575.593C364.497 575.323 364.732 574.961 364.891 574.507C365.058 574.046 365.142 573.528 365.142 572.956C365.142 572.383 365.058 571.865 364.891 571.404C364.732 570.942 364.497 570.58 364.187 570.318C363.884 570.055 363.53 569.924 363.125 569.924C362.711 569.924 362.353 570.055 362.05 570.318C361.748 570.58 361.513 570.942 361.346 571.404C361.187 571.865 361.108 572.383 361.108 572.956C361.108 573.528 361.187 574.046 361.346 574.507C361.513 574.961 361.748 575.323 362.05 575.593C362.353 575.856 362.711 575.987 363.125 575.987ZM371.028 577.228C370.359 577.228 369.771 577.041 369.261 576.667C368.752 576.286 368.358 575.772 368.08 575.128C367.809 574.475 367.674 573.751 367.674 572.956C367.674 572.152 367.809 571.428 368.08 570.783C368.358 570.131 368.752 569.618 369.261 569.244C369.771 568.87 370.359 568.683 371.028 568.683C371.696 568.683 372.281 568.87 372.782 569.244C373.292 569.618 373.681 570.131 373.952 570.783C374.23 571.428 374.37 572.152 374.37 572.956C374.37 573.751 374.23 574.475 373.952 575.128C373.681 575.772 373.292 576.286 372.782 576.667C372.273 577.041 371.688 577.228 371.028 577.228ZM371.028 575.987C371.434 575.987 371.788 575.856 372.09 575.593C372.4 575.323 372.635 574.961 372.794 574.507C372.961 574.046 373.045 573.528 373.045 572.956C373.045 572.383 372.961 571.865 372.794 571.404C372.635 570.942 372.4 570.58 372.09 570.318C371.788 570.055 371.434 569.924 371.028 569.924C370.614 569.924 370.256 570.055 369.954 570.318C369.651 570.58 369.417 570.942 369.249 571.404C369.09 571.865 369.011 572.383 369.011 572.956C369.011 573.528 369.09 574.046 369.249 574.507C369.417 574.961 369.651 575.323 369.954 575.593C370.256 575.856 370.614 575.987 371.028 575.987ZM382.568 577.228C381.757 577.228 381.009 577.033 380.324 576.644C379.64 576.254 379.095 575.721 378.689 575.044C378.291 574.36 378.093 573.6 378.093 572.765C378.093 571.929 378.291 571.173 378.689 570.497C379.095 569.813 379.64 569.276 380.324 568.886C381.009 568.496 381.757 568.301 382.568 568.301C383.213 568.301 383.814 568.416 384.371 568.647C384.928 568.878 385.393 569.2 385.767 569.614L384.836 570.545C384.558 570.234 384.223 569.996 383.833 569.829C383.452 569.661 383.026 569.578 382.556 569.578C382.007 569.578 381.494 569.709 381.017 569.972C380.539 570.234 380.157 570.608 379.871 571.094C379.584 571.579 379.441 572.136 379.441 572.765C379.441 573.393 379.584 573.95 379.871 574.436C380.157 574.921 380.539 575.295 381.017 575.557C381.494 575.82 382.011 575.951 382.568 575.951C383.078 575.951 383.503 575.876 383.845 575.725C384.188 575.573 384.494 575.37 384.764 575.116C384.939 574.941 385.087 574.722 385.206 574.459C385.333 574.197 385.417 573.91 385.457 573.6H382.556V572.407H386.722C386.762 572.629 386.781 572.86 386.781 573.099C386.781 573.64 386.698 574.161 386.531 574.662C386.364 575.156 386.097 575.585 385.731 575.951C384.928 576.803 383.873 577.228 382.568 577.228ZM388.325 568.492H391.536C391.989 568.492 392.407 568.591 392.789 568.79C393.179 568.989 393.489 569.264 393.72 569.614C393.951 569.964 394.066 570.35 394.066 570.771C394.066 571.193 393.959 571.559 393.744 571.869C393.537 572.18 393.262 572.414 392.92 572.574V572.645C393.35 572.796 393.696 573.047 393.959 573.397C394.229 573.747 394.364 574.157 394.364 574.627C394.364 575.096 394.241 575.514 393.994 575.88C393.756 576.246 393.429 576.532 393.016 576.739C392.61 576.938 392.164 577.037 391.679 577.037H388.325V568.492ZM391.476 572.072C391.858 572.072 392.164 571.953 392.395 571.714C392.634 571.476 392.753 571.201 392.753 570.891C392.753 570.58 392.638 570.31 392.407 570.079C392.184 569.84 391.89 569.721 391.524 569.721H389.662V572.072H391.476ZM391.679 575.796C392.085 575.796 392.407 575.669 392.646 575.414C392.892 575.16 393.016 574.865 393.016 574.531C393.016 574.189 392.888 573.894 392.634 573.648C392.387 573.393 392.053 573.266 391.631 573.266H389.662V575.796H391.679Z" fill="#AEB3B7"/>
<path d="M29.1538 635.35L31.2067 632.473L31.1828 632.449C30.9043 632.64 30.5502 632.736 30.1206 632.736C29.7068 632.736 29.301 632.62 28.9032 632.39C28.5053 632.159 28.1831 631.845 27.9364 631.447C27.6897 631.041 27.5664 630.591 27.5664 630.098C27.5664 629.621 27.6897 629.175 27.9364 628.761C28.191 628.34 28.5292 628.001 28.9509 627.747C29.3806 627.492 29.8461 627.365 30.3473 627.365C30.8884 627.365 31.3698 627.496 31.7915 627.759C32.2212 628.021 32.5514 628.363 32.7822 628.785C33.0209 629.199 33.1402 629.636 33.1402 630.098C33.1402 630.536 33.0487 630.957 32.8657 631.363C32.6906 631.761 32.436 632.207 32.1018 632.7L29.9654 635.91L29.1538 635.35ZM30.3473 631.829C30.6656 631.829 30.96 631.753 31.2306 631.602C31.509 631.443 31.7279 631.232 31.887 630.969C32.0461 630.699 32.1257 630.404 32.1257 630.086C32.1257 629.76 32.0461 629.465 31.887 629.203C31.7279 628.932 31.509 628.721 31.2306 628.57C30.96 628.411 30.6656 628.332 30.3473 628.332C30.0291 628.332 29.7347 628.411 29.4641 628.57C29.1936 628.721 28.9788 628.932 28.8196 629.203C28.6605 629.465 28.5809 629.76 28.5809 630.086C28.5809 630.404 28.6605 630.699 28.8196 630.969C28.9788 631.232 29.1936 631.443 29.4641 631.602C29.7347 631.753 30.0291 631.829 30.3473 631.829ZM39.0609 635.338L36.5426 629.632H37.6406L39.5503 634.156H39.5742L41.4122 629.632H42.5103L38.7506 638.298H37.7003L39.0609 635.338ZM45.8294 635.91C45.2485 635.91 44.7273 635.771 44.2658 635.493C43.8043 635.214 43.4423 634.832 43.1797 634.347C42.9251 633.854 42.7978 633.301 42.7978 632.688C42.7978 632.099 42.9171 631.558 43.1559 631.065C43.4025 630.571 43.7486 630.178 44.1942 629.883C44.6398 629.589 45.157 629.442 45.7458 629.442C46.3426 629.442 46.8598 629.577 47.2974 629.847C47.735 630.11 48.0692 630.476 48.3 630.945C48.5387 631.415 48.658 631.952 48.658 632.557C48.658 632.676 48.6461 632.779 48.6222 632.867H43.8123C43.8362 633.328 43.9476 633.718 44.1465 634.037C44.3454 634.355 44.5961 634.594 44.8984 634.753C45.2087 634.912 45.531 634.991 45.8652 634.991C46.645 634.991 47.2457 634.625 47.6674 633.893L48.5268 634.311C48.2642 634.804 47.9061 635.194 47.4526 635.481C47.007 635.767 46.4659 635.91 45.8294 635.91ZM47.5839 632.032C47.568 631.777 47.4963 631.522 47.369 631.268C47.2417 631.013 47.0388 630.798 46.7603 630.623C46.4898 630.448 46.1476 630.361 45.7339 630.361C45.2565 630.361 44.8507 630.516 44.5165 630.826C44.1903 631.128 43.9754 631.53 43.872 632.032H47.5839ZM51.8491 635.91C51.4035 635.91 51.0056 635.823 50.6555 635.648C50.3054 635.473 50.0349 635.234 49.8439 634.932C49.653 634.621 49.5575 634.271 49.5575 633.881C49.5575 633.237 49.8002 632.736 50.2855 632.378C50.7709 632.012 51.3836 631.829 52.1236 631.829C52.4896 631.829 52.8278 631.868 53.1381 631.948C53.4564 632.028 53.699 632.119 53.8661 632.222V631.852C53.8661 631.399 53.707 631.037 53.3887 630.766C53.0704 630.488 52.6686 630.349 52.1833 630.349C51.8411 630.349 51.5268 630.424 51.2404 630.575C50.9539 630.719 50.7271 630.922 50.56 631.184L49.7962 630.611C50.0349 630.245 50.3611 629.959 50.7749 629.752C51.1966 629.545 51.6621 629.442 52.1713 629.442C52.9988 629.442 53.6473 629.66 54.1168 630.098C54.5942 630.528 54.8329 631.116 54.8329 631.864V635.72H53.8661V634.848H53.8184C53.6433 635.143 53.3808 635.393 53.0307 635.6C52.6806 635.807 52.2867 635.91 51.8491 635.91ZM51.9445 635.015C52.2867 635.015 52.605 634.928 52.8994 634.753C53.1938 634.578 53.4285 634.343 53.6036 634.049C53.7786 633.754 53.8661 633.432 53.8661 633.082C53.6752 632.955 53.4404 632.851 53.162 632.772C52.8835 632.692 52.5891 632.652 52.2787 632.652C51.7218 632.652 51.3 632.768 51.0136 632.998C50.7351 633.229 50.5959 633.527 50.5959 633.893C50.5959 634.228 50.7232 634.498 50.9778 634.705C51.2324 634.912 51.5547 635.015 51.9445 635.015ZM56.2443 629.632H57.211V630.611H57.2588C57.3781 630.277 57.6089 630.003 57.951 629.788C58.2932 629.565 58.6512 629.453 59.0252 629.453C59.3037 629.453 59.5424 629.493 59.7413 629.573V630.671C59.4867 630.544 59.2002 630.48 58.882 630.48C58.5876 630.48 58.317 630.563 58.0704 630.731C57.8237 630.898 57.6248 631.124 57.4736 631.411C57.3304 631.689 57.2588 631.992 57.2588 632.318V635.72H56.2443V629.632ZM62.6114 635.91C61.9589 635.91 61.4138 635.759 60.9762 635.457C60.5386 635.147 60.2283 634.753 60.0453 634.275L60.9524 633.87C61.1035 634.236 61.3263 634.518 61.6207 634.717C61.9231 634.916 62.2533 635.015 62.6114 635.015C62.9933 635.015 63.3195 634.94 63.5901 634.789C63.8606 634.629 63.9959 634.407 63.9959 634.12C63.9959 633.866 63.8884 633.663 63.6736 633.511C63.4588 633.352 63.1206 633.217 62.6591 633.106L61.9191 632.915C61.4337 632.795 61.0359 632.592 60.7256 632.306C60.4153 632.02 60.2601 631.65 60.2601 631.196C60.2601 630.846 60.3635 630.54 60.5704 630.277C60.7853 630.006 61.0677 629.8 61.4178 629.656C61.7679 629.513 62.1459 629.442 62.5517 629.442C63.0848 629.442 63.5582 629.557 63.972 629.788C64.3937 630.018 64.6921 630.341 64.8671 630.754L63.9839 631.16C63.7134 630.619 63.232 630.349 62.5397 630.349C62.2056 630.349 61.9112 630.428 61.6565 630.587C61.4099 630.739 61.2865 630.933 61.2865 631.172C61.2865 631.395 61.3741 631.578 61.5491 631.721C61.7242 631.856 61.9867 631.968 62.3368 632.055L63.2201 632.282C63.8168 632.433 64.2664 632.66 64.5688 632.962C64.8711 633.257 65.0223 633.619 65.0223 634.049C65.0223 634.423 64.9149 634.753 64.7001 635.039C64.4852 635.318 64.1948 635.533 63.8288 635.684C63.4627 635.835 63.0569 635.91 62.6114 635.91ZM71.7071 635.91C71.1103 635.91 70.5732 635.767 70.0958 635.481C69.6184 635.194 69.2444 634.804 68.9739 634.311C68.7113 633.818 68.58 633.273 68.58 632.676C68.58 632.079 68.7113 631.534 68.9739 631.041C69.2444 630.548 69.6184 630.158 70.0958 629.871C70.5732 629.585 71.1103 629.442 71.7071 629.442C72.3039 629.442 72.8409 629.585 73.3184 629.871C73.7958 630.158 74.1658 630.548 74.4283 631.041C74.6989 631.534 74.8341 632.079 74.8341 632.676C74.8341 633.273 74.6989 633.818 74.4283 634.311C74.1658 634.804 73.7958 635.194 73.3184 635.481C72.8409 635.767 72.3039 635.91 71.7071 635.91ZM71.7071 634.991C72.0811 634.991 72.4272 634.9 72.7455 634.717C73.0717 634.526 73.3303 634.255 73.5213 633.905C73.7202 633.555 73.8196 633.145 73.8196 632.676C73.8196 632.207 73.7202 631.797 73.5213 631.447C73.3303 631.097 73.0717 630.83 72.7455 630.647C72.4272 630.456 72.0811 630.361 71.7071 630.361C71.3331 630.361 70.983 630.456 70.6568 630.647C70.3305 630.83 70.068 631.097 69.869 631.447C69.6781 631.797 69.5826 632.207 69.5826 632.676C69.5826 633.145 69.6781 633.555 69.869 633.905C70.068 634.255 70.3305 634.526 70.6568 634.717C70.983 634.9 71.3331 634.991 71.7071 634.991ZM76.5415 630.552H75.4196V629.632H76.5415V628.976C76.5415 628.594 76.629 628.26 76.8041 627.973C76.9791 627.687 77.2139 627.468 77.5083 627.317C77.8027 627.158 78.1289 627.078 78.487 627.078C78.8291 627.078 79.1275 627.126 79.3821 627.222V628.212C79.2389 628.157 79.1036 628.113 78.9763 628.081C78.849 628.041 78.6978 628.021 78.5228 628.021C78.2602 628.021 78.0334 628.117 77.8425 628.308C77.6515 628.491 77.556 628.749 77.556 629.083V629.632H79.1195V630.552H77.556V635.72H76.5415V630.552ZM86.2249 635.91C85.7634 635.91 85.3457 635.807 84.9717 635.6C84.6057 635.385 84.3312 635.127 84.1482 634.824H84.1005V635.72H83.1337V627.174H84.1482V629.692L84.1005 630.54H84.1482C84.3312 630.229 84.6057 629.971 84.9717 629.764C85.3457 629.549 85.7634 629.442 86.2249 629.442C86.766 629.442 87.2593 629.581 87.7049 629.859C88.1505 630.138 88.5006 630.524 88.7552 631.017C89.0099 631.51 89.1372 632.063 89.1372 632.676C89.1372 633.297 89.0099 633.854 88.7552 634.347C88.5006 634.832 88.1505 635.214 87.7049 635.493C87.2593 635.771 86.766 635.91 86.2249 635.91ZM86.1056 634.991C86.4557 634.991 86.7859 634.896 87.0962 634.705C87.4065 634.514 87.6532 634.244 87.8362 633.893C88.0272 633.535 88.1227 633.13 88.1227 632.676C88.1227 632.222 88.0272 631.821 87.8362 631.471C87.6532 631.112 87.4065 630.838 87.0962 630.647C86.7859 630.456 86.4557 630.361 86.1056 630.361C85.7555 630.361 85.4253 630.456 85.115 630.647C84.8046 630.838 84.558 631.109 84.375 631.459C84.192 631.809 84.1005 632.215 84.1005 632.676C84.1005 633.138 84.192 633.543 84.375 633.893C84.558 634.244 84.8046 634.514 85.115 634.705C85.4253 634.896 85.7555 634.991 86.1056 634.991ZM90.8521 628.511C90.6532 628.511 90.4821 628.439 90.3389 628.296C90.1956 628.153 90.124 627.981 90.124 627.783C90.124 627.584 90.1956 627.417 90.3389 627.281C90.4821 627.138 90.6532 627.066 90.8521 627.066C91.051 627.066 91.2221 627.138 91.3653 627.281C91.5085 627.417 91.5801 627.584 91.5801 627.783C91.5801 627.981 91.5085 628.153 91.3653 628.296C91.23 628.439 91.059 628.511 90.8521 628.511ZM90.3508 629.632H91.3534V635.72H90.3508V629.632ZM92.9477 629.632H93.9145V630.599H93.9622C94.1055 630.241 94.3481 629.963 94.6903 629.764C95.0324 629.565 95.4064 629.465 95.8122 629.465C95.9873 629.465 96.1345 629.477 96.2538 629.501V630.54C96.1186 630.508 95.9355 630.492 95.7048 630.492C95.1876 630.492 94.7659 630.663 94.4396 631.005C94.1214 631.347 93.9622 631.793 93.9622 632.342V635.72H92.9477V629.632ZM99.8105 635.815C99.5639 635.815 99.3331 635.775 99.1183 635.696C98.9114 635.616 98.7364 635.509 98.5931 635.373C98.434 635.222 98.3147 635.047 98.2351 634.848C98.1555 634.649 98.1157 634.407 98.1157 634.12V630.552H97.0535V629.632H98.1157V627.914H99.1302V629.632H100.61V630.552H99.1302V633.87C99.1302 634.204 99.1939 634.45 99.3212 634.61C99.4724 634.785 99.6912 634.872 99.9776 634.872C100.208 634.872 100.431 634.804 100.646 634.669V635.66C100.527 635.716 100.403 635.755 100.276 635.779C100.157 635.803 100.002 635.815 99.8105 635.815ZM101.899 627.174H102.914V629.692L102.866 630.528H102.914C103.081 630.217 103.343 629.959 103.701 629.752C104.067 629.545 104.465 629.442 104.895 629.442C105.635 629.442 106.2 629.66 106.59 630.098C106.98 630.528 107.175 631.101 107.175 631.817V635.72H106.16V631.972C106.16 631.423 106.021 631.017 105.742 630.754C105.464 630.492 105.102 630.361 104.656 630.361C104.338 630.361 104.044 630.456 103.773 630.647C103.511 630.838 103.3 631.085 103.141 631.387C102.989 631.689 102.914 632.004 102.914 632.33V635.72H101.899V627.174ZM111.214 635.91C110.673 635.91 110.18 635.771 109.734 635.493C109.297 635.214 108.951 634.832 108.696 634.347C108.441 633.854 108.314 633.297 108.314 632.676C108.314 632.063 108.441 631.51 108.696 631.017C108.951 630.524 109.297 630.138 109.734 629.859C110.18 629.581 110.673 629.442 111.214 629.442C111.684 629.442 112.101 629.549 112.467 629.764C112.834 629.971 113.112 630.229 113.303 630.54H113.351L113.303 629.692V627.174H114.317V635.72H113.351V634.824H113.303C113.112 635.127 112.834 635.385 112.467 635.6C112.101 635.807 111.684 635.91 111.214 635.91ZM111.334 634.991C111.692 634.991 112.022 634.896 112.324 634.705C112.635 634.514 112.881 634.244 113.064 633.893C113.255 633.543 113.351 633.138 113.351 632.676C113.351 632.215 113.255 631.809 113.064 631.459C112.881 631.109 112.635 630.838 112.324 630.647C112.022 630.456 111.692 630.361 111.334 630.361C110.984 630.361 110.653 630.456 110.343 630.647C110.033 630.838 109.782 631.112 109.591 631.471C109.408 631.821 109.317 632.222 109.317 632.676C109.317 633.13 109.408 633.535 109.591 633.893C109.782 634.244 110.033 634.514 110.343 634.705C110.653 634.896 110.984 634.991 111.334 634.991ZM117.703 635.91C117.258 635.91 116.86 635.823 116.51 635.648C116.16 635.473 115.889 635.234 115.698 634.932C115.507 634.621 115.412 634.271 115.412 633.881C115.412 633.237 115.654 632.736 116.14 632.378C116.625 632.012 117.238 631.829 117.978 631.829C118.344 631.829 118.682 631.868 118.992 631.948C119.311 632.028 119.553 632.119 119.72 632.222V631.852C119.72 631.399 119.561 631.037 119.243 630.766C118.925 630.488 118.523 630.349 118.037 630.349C117.695 630.349 117.381 630.424 117.095 630.575C116.808 630.719 116.581 630.922 116.414 631.184L115.65 630.611C115.889 630.245 116.215 629.959 116.629 629.752C117.051 629.545 117.516 629.442 118.025 629.442C118.853 629.442 119.501 629.66 119.971 630.098C120.448 630.528 120.687 631.116 120.687 631.864V635.72H119.72V634.848H119.673C119.498 635.143 119.235 635.393 118.885 635.6C118.535 635.807 118.141 635.91 117.703 635.91ZM117.799 635.015C118.141 635.015 118.459 634.928 118.754 634.753C119.048 634.578 119.283 634.343 119.458 634.049C119.633 633.754 119.72 633.432 119.72 633.082C119.529 632.955 119.295 632.851 119.016 632.772C118.738 632.692 118.443 632.652 118.133 632.652C117.576 632.652 117.154 632.768 116.868 632.998C116.589 633.229 116.45 633.527 116.45 633.893C116.45 634.228 116.577 634.498 116.832 634.705C117.087 634.912 117.409 635.015 117.799 635.015ZM123.844 635.338L121.325 629.632H122.423L124.333 634.156H124.357L126.195 629.632H127.293L123.533 638.298H122.483L123.844 635.338ZM130.863 629.632H131.83V630.54H131.877C132.06 630.229 132.335 629.971 132.701 629.764C133.075 629.549 133.493 629.442 133.954 629.442C134.495 629.442 134.988 629.581 135.434 629.859C135.88 630.138 136.23 630.524 136.484 631.017C136.739 631.51 136.866 632.063 136.866 632.676C136.866 633.297 136.739 633.854 136.484 634.347C136.23 634.832 135.88 635.214 135.434 635.493C134.988 635.771 134.495 635.91 133.954 635.91C133.493 635.91 133.075 635.807 132.701 635.6C132.335 635.385 132.06 635.127 131.877 634.824H131.83L131.877 635.66V638.298H130.863V629.632ZM133.835 634.991C134.185 634.991 134.515 634.896 134.825 634.705C135.136 634.514 135.382 634.244 135.565 633.893C135.756 633.535 135.852 633.13 135.852 632.676C135.852 632.222 135.756 631.821 135.565 631.471C135.382 631.112 135.136 630.838 134.825 630.647C134.515 630.456 134.185 630.361 133.835 630.361C133.485 630.361 133.154 630.456 132.844 630.647C132.534 630.838 132.287 631.109 132.104 631.459C131.921 631.809 131.83 632.215 131.83 632.676C131.83 633.138 131.921 633.543 132.104 633.893C132.287 634.244 132.534 634.514 132.844 634.705C133.154 634.896 133.485 634.991 133.835 634.991ZM139.988 635.91C139.543 635.91 139.145 635.823 138.795 635.648C138.445 635.473 138.174 635.234 137.983 634.932C137.792 634.621 137.697 634.271 137.697 633.881C137.697 633.237 137.939 632.736 138.425 632.378C138.91 632.012 139.523 631.829 140.263 631.829C140.629 631.829 140.967 631.868 141.277 631.948C141.596 632.028 141.838 632.119 142.005 632.222V631.852C142.005 631.399 141.846 631.037 141.528 630.766C141.21 630.488 140.808 630.349 140.323 630.349C139.98 630.349 139.666 630.424 139.38 630.575C139.093 630.719 138.866 630.922 138.699 631.184L137.936 630.611C138.174 630.245 138.5 629.959 138.914 629.752C139.336 629.545 139.801 629.442 140.311 629.442C141.138 629.442 141.787 629.66 142.256 630.098C142.734 630.528 142.972 631.116 142.972 631.864V635.72H142.005V634.848H141.958C141.783 635.143 141.52 635.393 141.17 635.6C140.82 635.807 140.426 635.91 139.988 635.91ZM140.084 635.015C140.426 635.015 140.744 634.928 141.039 634.753C141.333 634.578 141.568 634.343 141.743 634.049C141.918 633.754 142.005 633.432 142.005 633.082C141.815 632.955 141.58 632.851 141.301 632.772C141.023 632.692 140.728 632.652 140.418 632.652C139.861 632.652 139.439 632.768 139.153 632.998C138.874 633.229 138.735 633.527 138.735 633.893C138.735 634.228 138.862 634.498 139.117 634.705C139.372 634.912 139.694 635.015 140.084 635.015ZM144.384 629.632H145.35V630.599H145.398C145.541 630.241 145.784 629.963 146.126 629.764C146.468 629.565 146.842 629.465 147.248 629.465C147.423 629.465 147.57 629.477 147.69 629.501V630.54C147.554 630.508 147.371 630.492 147.141 630.492C146.623 630.492 146.202 630.663 145.876 631.005C145.557 631.347 145.398 631.793 145.398 632.342V635.72H144.384V629.632ZM151.246 635.815C151 635.815 150.769 635.775 150.554 635.696C150.347 635.616 150.172 635.509 150.029 635.373C149.87 635.222 149.751 635.047 149.671 634.848C149.591 634.649 149.552 634.407 149.552 634.12V630.552H148.489V629.632H149.552V627.914H150.566V629.632H152.046V630.552H150.566V633.87C150.566 634.204 150.63 634.45 150.757 634.61C150.908 634.785 151.127 634.872 151.414 634.872C151.644 634.872 151.867 634.804 152.082 634.669V635.66C151.963 635.716 151.839 635.755 151.712 635.779C151.593 635.803 151.437 635.815 151.246 635.815ZM155.197 635.338L152.679 629.632H153.777L155.686 634.156H155.71L157.548 629.632H158.646L154.887 638.298H153.836L155.197 635.338ZM162.216 629.632H163.183V630.54H163.23C163.413 630.229 163.688 629.971 164.054 629.764C164.428 629.549 164.846 629.442 165.307 629.442C165.848 629.442 166.342 629.581 166.787 629.859C167.233 630.138 167.583 630.524 167.838 631.017C168.092 631.51 168.219 632.063 168.219 632.676C168.219 633.297 168.092 633.854 167.838 634.347C167.583 634.832 167.233 635.214 166.787 635.493C166.342 635.771 165.848 635.91 165.307 635.91C164.846 635.91 164.428 635.807 164.054 635.6C163.688 635.385 163.413 635.127 163.23 634.824H163.183L163.23 635.66V638.298H162.216V629.632ZM165.188 634.991C165.538 634.991 165.868 634.896 166.179 634.705C166.489 634.514 166.736 634.244 166.919 633.893C167.109 633.535 167.205 633.13 167.205 632.676C167.205 632.222 167.109 631.821 166.919 631.471C166.736 631.112 166.489 630.838 166.179 630.647C165.868 630.456 165.538 630.361 165.188 630.361C164.838 630.361 164.508 630.456 164.197 630.647C163.887 630.838 163.64 631.109 163.457 631.459C163.274 631.809 163.183 632.215 163.183 632.676C163.183 633.138 163.274 633.543 163.457 633.893C163.64 634.244 163.887 634.514 164.197 634.705C164.508 634.896 164.838 634.991 165.188 634.991ZM169.281 627.174H170.295V629.692L170.247 630.528H170.295C170.462 630.217 170.725 629.959 171.083 629.752C171.449 629.545 171.847 629.442 172.276 629.442C173.016 629.442 173.581 629.66 173.971 630.098C174.361 630.528 174.556 631.101 174.556 631.817V635.72H173.542V631.972C173.542 631.423 173.402 631.017 173.124 630.754C172.845 630.492 172.483 630.361 172.038 630.361C171.72 630.361 171.425 630.456 171.155 630.647C170.892 630.838 170.681 631.085 170.522 631.387C170.371 631.689 170.295 632.004 170.295 632.33V635.72H169.281V627.174ZM178.822 635.91C178.225 635.91 177.688 635.767 177.211 635.481C176.733 635.194 176.359 634.804 176.089 634.311C175.826 633.818 175.695 633.273 175.695 632.676C175.695 632.079 175.826 631.534 176.089 631.041C176.359 630.548 176.733 630.158 177.211 629.871C177.688 629.585 178.225 629.442 178.822 629.442C179.419 629.442 179.956 629.585 180.433 629.871C180.911 630.158 181.281 630.548 181.543 631.041C181.814 631.534 181.949 632.079 181.949 632.676C181.949 633.273 181.814 633.818 181.543 634.311C181.281 634.804 180.911 635.194 180.433 635.481C179.956 635.767 179.419 635.91 178.822 635.91ZM178.822 634.991C179.196 634.991 179.542 634.9 179.86 634.717C180.187 634.526 180.445 634.255 180.636 633.905C180.835 633.555 180.935 633.145 180.935 632.676C180.935 632.207 180.835 631.797 180.636 631.447C180.445 631.097 180.187 630.83 179.86 630.647C179.542 630.456 179.196 630.361 178.822 630.361C178.448 630.361 178.098 630.456 177.772 630.647C177.445 630.83 177.183 631.097 176.984 631.447C176.793 631.797 176.698 632.207 176.698 632.676C176.698 633.145 176.793 633.555 176.984 633.905C177.183 634.255 177.445 634.526 177.772 634.717C178.098 634.9 178.448 634.991 178.822 634.991ZM185.292 635.815C185.045 635.815 184.815 635.775 184.6 635.696C184.393 635.616 184.218 635.509 184.075 635.373C183.915 635.222 183.796 635.047 183.717 634.848C183.637 634.649 183.597 634.407 183.597 634.12V630.552H182.535V629.632H183.597V627.914H184.612V629.632H186.092V630.552H184.612V633.87C184.612 634.204 184.675 634.45 184.803 634.61C184.954 634.785 185.173 634.872 185.459 634.872C185.69 634.872 185.913 634.804 186.127 634.669V635.66C186.008 635.716 185.885 635.755 185.757 635.779C185.638 635.803 185.483 635.815 185.292 635.815ZM189.86 635.91C189.263 635.91 188.726 635.767 188.249 635.481C187.772 635.194 187.398 634.804 187.127 634.311C186.864 633.818 186.733 633.273 186.733 632.676C186.733 632.079 186.864 631.534 187.127 631.041C187.398 630.548 187.772 630.158 188.249 629.871C188.726 629.585 189.263 629.442 189.86 629.442C190.457 629.442 190.994 629.585 191.472 629.871C191.949 630.158 192.319 630.548 192.582 631.041C192.852 631.534 192.987 632.079 192.987 632.676C192.987 633.273 192.852 633.818 192.582 634.311C192.319 634.804 191.949 635.194 191.472 635.481C190.994 635.767 190.457 635.91 189.86 635.91ZM189.86 634.991C190.234 634.991 190.58 634.9 190.899 634.717C191.225 634.526 191.483 634.255 191.674 633.905C191.873 633.555 191.973 633.145 191.973 632.676C191.973 632.207 191.873 631.797 191.674 631.447C191.483 631.097 191.225 630.83 190.899 630.647C190.58 630.456 190.234 630.361 189.86 630.361C189.486 630.361 189.136 630.456 188.81 630.647C188.484 630.83 188.221 631.097 188.022 631.447C187.831 631.797 187.736 632.207 187.736 632.676C187.736 633.145 187.831 633.555 188.022 633.905C188.221 634.255 188.484 634.526 188.81 634.717C189.136 634.9 189.486 634.991 189.86 634.991ZM196.232 635.91C195.579 635.91 195.034 635.759 194.597 635.457C194.159 635.147 193.849 634.753 193.666 634.275L194.573 633.87C194.724 634.236 194.947 634.518 195.241 634.717C195.543 634.916 195.874 635.015 196.232 635.015C196.614 635.015 196.94 634.94 197.21 634.789C197.481 634.629 197.616 634.407 197.616 634.12C197.616 633.866 197.509 633.663 197.294 633.511C197.079 633.352 196.741 633.217 196.279 633.106L195.539 632.915C195.054 632.795 194.656 632.592 194.346 632.306C194.036 632.02 193.88 631.65 193.88 631.196C193.88 630.846 193.984 630.54 194.191 630.277C194.406 630.006 194.688 629.8 195.038 629.656C195.388 629.513 195.766 629.442 196.172 629.442C196.705 629.442 197.179 629.557 197.592 629.788C198.014 630.018 198.312 630.341 198.488 630.754L197.604 631.16C197.334 630.619 196.852 630.349 196.16 630.349C195.826 630.349 195.532 630.428 195.277 630.587C195.03 630.739 194.907 630.933 194.907 631.172C194.907 631.395 194.994 631.578 195.169 631.721C195.345 631.856 195.607 631.968 195.957 632.055L196.84 632.282C197.437 632.433 197.887 632.66 198.189 632.962C198.491 633.257 198.643 633.619 198.643 634.049C198.643 634.423 198.535 634.753 198.32 635.039C198.106 635.318 197.815 635.533 197.449 635.684C197.083 635.835 196.677 635.91 196.232 635.91Z" fill="#757575"/>
</g>
<defs>
<clipPath id="clip0_47_91933">
<rect width="369.996" height="86.5312" fill="white" transform="translate(26.0352 555.156)"/>
</clipPath>
</defs>
</svg>
