<svg width="20" height="20" viewBox="0 0 20 20" fill="none" xmlns="http://www.w3.org/2000/svg">
<g clip-path="url(#clip0_47_91465)">
<path d="M17.0704 0H2.92956C2.15292 0.0010581 1.40839 0.310047 0.859217 0.859217C0.310047 1.40839 0.0010581 2.15292 0 2.92956L0 17.0704C0.00185098 17.8466 0.31119 18.5903 0.860274 19.1388C1.40936 19.6874 2.15344 19.9959 2.92956 19.997H17.0704C17.846 19.9952 18.5894 19.6862 19.1378 19.1378C19.6862 18.5894 19.9952 17.846 19.997 17.0704V2.92956C19.9959 2.15344 19.6874 1.40936 19.1388 0.860274C18.5903 0.31119 17.8466 0.00185098 17.0704 0ZM10.0395 15.2347C8.99655 15.2347 7.97703 14.9254 7.10986 14.346C6.24268 13.7666 5.5668 12.943 5.16768 11.9795C4.76857 11.0159 4.66414 9.95566 4.86761 8.93275C5.07108 7.90985 5.5733 6.97026 6.31077 6.23278C7.04824 5.49531 7.98784 4.99309 9.01074 4.78962C10.0336 4.58615 11.0939 4.69058 12.0575 5.0897C13.021 5.48881 13.8446 6.16469 14.424 7.03187C15.0034 7.89904 15.3127 8.91856 15.3127 9.96151C15.3111 11.3596 14.755 12.6999 13.7665 13.6885C12.7779 14.677 11.4375 15.2331 10.0395 15.2347ZM15.8976 5.85912C15.5501 5.85892 15.2104 5.75572 14.9215 5.56254C14.6327 5.36937 14.4075 5.09489 14.2746 4.77381C14.1416 4.45272 14.1069 4.09944 14.1746 3.75859C14.2424 3.41774 14.4097 3.10463 14.6554 2.85883C14.901 2.61303 15.214 2.44556 15.5548 2.37759C15.8956 2.30963 16.249 2.34421 16.5701 2.47697C16.8913 2.60973 17.1659 2.83471 17.3592 3.12349C17.5526 3.41226 17.656 3.75187 17.6564 4.09938C17.6564 4.56592 17.4711 5.01337 17.1413 5.34335C16.8115 5.67334 16.3642 5.85886 15.8976 5.85912Z" fill="white"/>
<path d="M15.8985 3.51562C15.7826 3.51562 15.6693 3.55 15.5729 3.61439C15.4766 3.67878 15.4015 3.7703 15.3571 3.87737C15.3128 3.98445 15.3011 4.10228 15.3238 4.21595C15.3464 4.32962 15.4022 4.43404 15.4841 4.51599C15.5661 4.59794 15.6705 4.65376 15.7842 4.67637C15.8978 4.69898 16.0157 4.68737 16.1227 4.64302C16.2298 4.59867 16.3213 4.52356 16.3857 4.42719C16.4501 4.33083 16.4845 4.21752 16.4845 4.10162C16.4845 3.94621 16.4228 3.79716 16.3129 3.68726C16.203 3.57737 16.0539 3.51563 15.8985 3.51562Z" fill="white"/>
<path d="M10.0369 5.85938C9.22611 5.85938 8.43353 6.0998 7.75939 6.55025C7.08525 7.0007 6.55982 7.64092 6.24954 8.38999C5.93927 9.13905 5.8581 9.96331 6.01627 10.7585C6.17445 11.5537 6.56488 12.2841 7.13819 12.8575C7.7115 13.4308 8.44193 13.8212 9.23713 13.9794C10.0323 14.1375 10.8566 14.0564 11.6057 13.7461C12.3547 13.4358 12.9949 12.9104 13.4454 12.2363C13.8958 11.5621 14.1363 10.7695 14.1363 9.95877C14.1344 8.87211 13.7019 7.83049 12.9336 7.06211C12.1652 6.29372 11.1235 5.86123 10.0369 5.85938Z" fill="white"/>
</g>
<defs>
<clipPath id="clip0_47_91465">
<rect width="20" height="20" fill="white"/>
</clipPath>
</defs>
</svg>
