<svg width="135" height="40" viewBox="0 0 135 40" fill="none" xmlns="http://www.w3.org/2000/svg">
<g clip-path="url(#clip0_47_90888)">
<path d="M5 40C3.67392 40 2.40215 39.4732 1.46447 38.5355C0.526784 37.5979 0 36.3261 0 35L0 5C0 3.67392 0.526784 2.40215 1.46447 1.46447C2.40215 0.526784 3.67392 0 5 0L130 0C131.326 0 132.598 0.526784 133.536 1.46447C134.473 2.40215 135 3.67392 135 5V35C135 36.3261 134.473 37.5979 133.536 38.5355C132.598 39.4732 131.326 40 130 40H5Z" fill="black"/>
<path d="M135 5V35C135 37.75 132.75 40 130 40H5C2.25 40 0 37.75 0 35V5C0 2.25 2.25 0 5 0H130C132.75 0 135 2.25 135 5ZM5 0.8C3.8865 0.801323 2.81898 1.24425 2.03161 2.03161C1.24425 2.81898 0.801323 3.8865 0.8 5V35C0.8 37.316 2.684 39.2 5 39.2H130C132.316 39.2 134.2 37.316 134.2 35V5C134.2 2.684 132.316 0.8 130 0.8H5Z" fill="#A6A5A5"/>
<path d="M47.4176 10.2442C47.4176 11.0822 47.1696 11.7492 46.6726 12.2472C46.1086 12.8392 45.3726 13.1352 44.4686 13.1352C43.6026 13.1352 42.8666 12.8352 42.2606 12.2342C41.6546 11.6342 41.3516 10.8892 41.3516 10.0012C41.3516 9.11219 41.6546 8.36819 42.2606 7.76819C42.8666 7.16719 43.6026 6.86719 44.4686 6.86719C44.8986 6.86719 45.3096 6.95119 45.7006 7.11819C46.0906 7.28619 46.4046 7.50919 46.6386 7.78919L46.1116 8.31619C45.7136 7.84219 45.1666 7.60519 44.4686 7.60519C43.8366 7.60519 43.2916 7.82619 42.8306 8.27119C42.3696 8.71519 42.1386 9.29219 42.1386 10.0012C42.1386 10.7102 42.3696 11.2872 42.8306 11.7312C43.0454 11.9459 43.3009 12.1154 43.5822 12.2298C43.8636 12.3441 44.1649 12.4011 44.4686 12.3972C45.1386 12.3972 45.6976 12.1742 46.1446 11.7282C46.4346 11.4362 46.6026 11.0322 46.6476 10.5122H44.4686V9.79219H47.3766C47.4046 9.94819 47.4176 10.0992 47.4176 10.2442Z" fill="white"/>
<path d="M47.4176 10.2442C47.4176 11.0822 47.1696 11.7492 46.6726 12.2472C46.1086 12.8392 45.3726 13.1352 44.4686 13.1352C43.6026 13.1352 42.8666 12.8352 42.2606 12.2342C41.6546 11.6342 41.3516 10.8892 41.3516 10.0012C41.3516 9.11219 41.6546 8.36819 42.2606 7.76819C42.8666 7.16719 43.6026 6.86719 44.4686 6.86719C44.8986 6.86719 45.3096 6.95119 45.7006 7.11819C46.0906 7.28619 46.4046 7.50919 46.6386 7.78919L46.1116 8.31619C45.7136 7.84219 45.1666 7.60519 44.4686 7.60519C43.8366 7.60519 43.2916 7.82619 42.8306 8.27119C42.3696 8.71519 42.1386 9.29219 42.1386 10.0012C42.1386 10.7102 42.3696 11.2872 42.8306 11.7312C43.0454 11.9459 43.3009 12.1154 43.5822 12.2298C43.8636 12.3441 44.1649 12.4011 44.4686 12.3972C45.1386 12.3972 45.6976 12.1742 46.1446 11.7282C46.4346 11.4362 46.6026 11.0322 46.6476 10.5122H44.4686V9.79219H47.3766C47.4046 9.94819 47.4176 10.0992 47.4176 10.2442Z" stroke="white" stroke-width="0.2" stroke-miterlimit="20"/>
<path d="M52.0264 7.737H49.2934V9.64H51.7574V10.36H49.2934V12.263H52.0264V13H48.5234V7H52.0264V7.737Z" fill="white"/>
<path d="M52.0264 7.737H49.2934V9.64H51.7574V10.36H49.2934V12.263H52.0264V13H48.5234V7H52.0264V7.737Z" stroke="white" stroke-width="0.2" stroke-miterlimit="20"/>
<path d="M55.279 13H54.507V7.737H52.832V7H56.955V7.737H55.279V13Z" fill="white"/>
<path d="M55.279 13H54.507V7.737H52.832V7H56.955V7.737H55.279V13Z" stroke="white" stroke-width="0.2" stroke-miterlimit="20"/>
<path d="M59.9375 13V7H60.7075V13H59.9375Z" fill="white"/>
<path d="M59.9375 13V7H60.7075V13H59.9375Z" stroke="white" stroke-width="0.2" stroke-miterlimit="20"/>
<path d="M64.1267 13H63.3557V7.737H61.6797V7H65.8027V7.737H64.1267V13Z" fill="white"/>
<path d="M64.1267 13H63.3557V7.737H61.6797V7H65.8027V7.737H64.1267V13Z" stroke="white" stroke-width="0.2" stroke-miterlimit="20"/>
<path d="M69.1112 10.0012C69.1112 9.30319 69.3342 8.72819 69.7772 8.27919C70.2222 7.82919 70.7652 7.60519 71.4072 7.60519C72.0502 7.60519 72.5942 7.82919 73.0372 8.27919C73.4812 8.72819 73.7042 9.30319 73.7042 10.0012C73.7042 10.6992 73.4812 11.2742 73.0372 11.7232C72.5942 12.1732 72.0502 12.3972 71.4072 12.3972C71.1038 12.4031 70.8023 12.3463 70.5219 12.2304C70.2414 12.1144 69.9879 11.9417 69.7772 11.7232C69.3342 11.2742 69.1112 10.6992 69.1112 10.0012ZM74.4912 10.0012C74.4912 9.12919 74.1952 8.38919 73.6032 7.78019C73.0112 7.17119 72.2792 6.86719 71.4072 6.86719C70.5302 6.86719 69.7972 7.17019 69.2082 7.77619C68.6182 8.38219 68.3242 9.12419 68.3242 10.0012C68.3242 10.8782 68.6182 11.6202 69.2082 12.2262C69.7972 12.8322 70.5302 13.1352 71.4072 13.1352C72.2842 13.1352 73.0182 12.8322 73.6072 12.2262C74.1962 11.6202 74.4912 10.8782 74.4912 10.0012Z" fill="white"/>
<path d="M69.1112 10.0012C69.1112 9.30319 69.3342 8.72819 69.7772 8.27919C70.2222 7.82919 70.7652 7.60519 71.4072 7.60519C72.0502 7.60519 72.5942 7.82919 73.0372 8.27919C73.4812 8.72819 73.7042 9.30319 73.7042 10.0012C73.7042 10.6992 73.4812 11.2742 73.0372 11.7232C72.5942 12.1732 72.0502 12.3972 71.4072 12.3972C71.1038 12.4031 70.8023 12.3463 70.5219 12.2304C70.2414 12.1144 69.9879 11.9417 69.7772 11.7232C69.3342 11.2742 69.1112 10.6992 69.1112 10.0012ZM74.4912 10.0012C74.4912 9.12919 74.1952 8.38919 73.6032 7.78019C73.0112 7.17119 72.2792 6.86719 71.4072 6.86719C70.5302 6.86719 69.7972 7.17019 69.2082 7.77619C68.6182 8.38219 68.3242 9.12419 68.3242 10.0012C68.3242 10.8782 68.6182 11.6202 69.2082 12.2262C69.7972 12.8322 70.5302 13.1352 71.4072 13.1352C72.2842 13.1352 73.0182 12.8322 73.6072 12.2262C74.1962 11.6202 74.4912 10.8782 74.4912 10.0012Z" stroke="white" stroke-width="0.2" stroke-miterlimit="20"/>
<path d="M75.5742 13V7H76.5132L79.4292 11.667H79.4622L79.4292 10.511V7H80.2002V13H79.3962L76.3452 8.106H76.3122L76.3452 9.263V13H75.5742Z" fill="white"/>
<path d="M75.5742 13V7H76.5132L79.4292 11.667H79.4622L79.4292 10.511V7H80.2002V13H79.3962L76.3452 8.106H76.3122L76.3452 9.263V13H75.5742Z" stroke="white" stroke-width="0.2" stroke-miterlimit="20"/>
<path d="M106.937 17.4989H108.803V29.9999H106.937V17.4989ZM125.819 22.0019L120.688 33.7909H118.742L120.64 29.5769L117.311 22.0019H119.321L121.541 27.4219H121.605L123.744 22.0019H125.819ZM115.381 26.6019C114.882 26.3609 114.496 26.1839 113.676 26.1839C112.759 26.1839 111.698 26.5539 111.698 27.5189C111.698 28.2749 112.55 28.5799 113.162 28.5799C114.239 28.5799 115.236 27.7599 115.381 26.6019ZM117.182 25.1859V29.9789H115.381V29.0139H115.317C114.882 29.6739 114.191 30.2369 112.936 30.2369C111.296 30.2369 109.832 29.1589 109.832 27.4859C109.832 25.6529 111.65 24.6719 113.435 24.6719C114.32 24.6719 115.043 24.9609 115.381 25.1539V25.0259C115.365 23.9959 114.384 23.4169 113.419 23.4169C112.727 23.4169 112.068 23.6419 111.714 24.3339L110.057 23.6419C110.636 22.3239 112.036 21.7289 113.387 21.7289C115.526 21.7289 117.182 22.9669 117.182 25.1859ZM104.042 21.3809C104.042 20.3939 103.25 19.2389 101.855 19.2389H99.201V23.5239H101.855C103.25 23.5239 104.042 22.3499 104.042 21.3809ZM105.908 21.3809C105.908 23.7659 103.875 25.2639 101.807 25.2639H99.201V29.9999H97.336V17.4989H101.807C103.875 17.4989 105.908 18.9959 105.908 21.3809ZM79.697 26.0209C79.697 24.5229 78.699 23.4269 77.426 23.4269C76.137 23.4269 75.058 24.5229 75.058 26.0209C75.058 27.5029 76.137 28.5819 77.426 28.5819C78.699 28.5819 79.697 27.5029 79.697 26.0209ZM79.568 22.0089H81.341V29.6459C81.341 32.7869 79.488 34.0759 77.297 34.0759C75.235 34.0759 73.994 32.6909 73.527 31.5629L75.154 30.8859C75.444 31.5789 76.153 32.4009 77.297 32.4009C78.699 32.4009 79.568 31.5309 79.568 29.9039V29.2909H79.504C79.085 29.8069 78.28 30.2579 77.265 30.2579C75.138 30.2579 73.189 28.4049 73.189 26.0209C73.189 23.6199 75.138 21.7519 77.265 21.7519C78.28 21.7519 79.085 22.2029 79.504 22.7019H79.568V22.0089ZM82.63 17.4979H84.498V29.9999H82.63V17.4979ZM91.055 24.2969C90.846 23.7649 90.218 23.3949 89.476 23.3949C88.526 23.3949 87.205 24.2329 87.253 25.8759L91.055 24.2969ZM93.246 24.9409L87.559 27.2939C87.994 28.1469 88.671 28.5819 89.622 28.5819C90.572 28.5819 91.232 28.1149 91.716 27.4059L93.166 28.3729C92.699 29.0659 91.571 30.2579 89.622 30.2579C87.205 30.2579 85.401 28.3889 85.401 26.0049C85.401 23.4749 87.221 21.7519 89.412 21.7519C91.619 21.7519 92.699 23.5079 93.053 24.4579L93.246 24.9409ZM53.818 23.0569C53.883 23.3789 53.915 23.7649 53.915 24.1839C53.915 25.5379 53.544 27.2129 52.352 28.4049C51.192 29.6139 49.71 30.2579 47.745 30.2579C44.104 30.2579 41.043 27.2939 41.043 23.6529C41.043 20.0119 44.104 17.0469 47.745 17.0469C49.759 17.0469 51.192 17.8369 52.272 18.8679L50.999 20.1409C50.226 19.4159 49.179 18.8519 47.745 18.8519C45.087 18.8519 43.008 20.9939 43.008 23.6529C43.008 26.3109 45.087 28.4529 47.745 28.4529C49.468 28.4529 50.451 27.7609 51.08 27.1319C51.595 26.6169 51.933 25.8759 52.062 24.8609H47.745V23.0569H53.818ZM61.224 26.0049C61.224 24.4739 60.112 23.4269 58.824 23.4269C57.535 23.4269 56.423 24.4739 56.423 26.0049C56.423 27.5189 57.535 28.5819 58.824 28.5819C60.112 28.5819 61.224 27.5189 61.224 26.0049ZM63.093 26.0049C63.093 28.4529 61.176 30.2579 58.824 30.2579C56.471 30.2579 54.554 28.4529 54.554 26.0049C54.554 23.5399 56.471 21.7519 58.824 21.7519C61.176 21.7519 63.093 23.5399 63.093 26.0049ZM70.537 26.0049C70.537 24.4739 69.426 23.4269 68.137 23.4269C66.848 23.4269 65.736 24.4739 65.736 26.0049C65.736 27.5189 66.848 28.5819 68.137 28.5819C69.426 28.5819 70.537 27.5189 70.537 26.0049ZM72.406 26.0049C72.406 28.4529 70.489 30.2579 68.137 30.2579C65.785 30.2579 63.868 28.4529 63.868 26.0049C63.868 23.5399 65.785 21.7519 68.137 21.7519C70.489 21.7519 72.406 23.5399 72.406 26.0049Z" fill="white"/>
<path d="M10.4347 7.54466C10.1437 7.85266 9.97266 8.32966 9.97266 8.94866V31.0467C9.97266 31.6657 10.1437 32.1427 10.4347 32.4507L10.5087 32.5227L22.8867 20.1437V19.8517L10.5087 7.47266L10.4347 7.54466Z" fill="#5BC8F3"/>
<path d="M27.0127 24.2736L22.8867 20.1456V19.8536L27.0147 15.7266L27.1077 15.7796L31.9967 18.5566C33.3927 19.3506 33.3927 20.6486 31.9967 21.4426L27.1077 24.2196L27.0127 24.2736Z" fill="url(#paint0_linear_47_90888)"/>
<path d="M27.1066 24.22L22.8856 20L10.4336 32.453C10.8946 32.94 11.6536 33 12.5096 32.514L27.1066 24.22Z" fill="url(#paint1_linear_47_90888)"/>
<path d="M27.1066 15.7782L12.5096 7.48422C11.6536 6.99822 10.8946 7.05822 10.4336 7.54522L22.8856 19.9982L27.1066 15.7782Z" fill="url(#paint2_linear_47_90888)"/>
</g>
<defs>
<linearGradient id="paint0_linear_47_90888" x1="31.0897" y1="19.9996" x2="6.92972" y2="19.9996" gradientUnits="userSpaceOnUse">
<stop stop-color="#FFDF00"/>
<stop offset="0.41" stop-color="#FBBC0E"/>
<stop offset="0.78" stop-color="#F8A318"/>
<stop offset="1" stop-color="#F89B1C"/>
</linearGradient>
<linearGradient id="paint1_linear_47_90888" x1="24.8186" y1="22.29" x2="2.07859" y2="45.03" gradientUnits="userSpaceOnUse">
<stop stop-color="#EE4447"/>
<stop offset="1" stop-color="#C5166C"/>
</linearGradient>
<linearGradient id="paint2_linear_47_90888" x1="1.97859" y1="-5.13178" x2="20.5386" y2="13.4282" gradientUnits="userSpaceOnUse">
<stop stop-color="#269E6F"/>
<stop offset="0.05" stop-color="#2BA06E"/>
<stop offset="0.47" stop-color="#52B26A"/>
<stop offset="0.8" stop-color="#6BBC68"/>
<stop offset="1" stop-color="#74C168"/>
</linearGradient>
<clipPath id="clip0_47_90888">
<rect width="135" height="40" fill="white"/>
</clipPath>
</defs>
</svg>
