<svg width="42" height="28" viewBox="0 0 42 28" fill="none" xmlns="http://www.w3.org/2000/svg">
<path d="M23 19H19C18.7348 19 18.4804 18.8946 18.2929 18.7071C18.1054 18.5196 18 18.2652 18 18V14C18 13.7348 18.1054 13.4804 18.2929 13.2929C18.4804 13.1054 18.7348 13 19 13H23C23.2652 13 23.5196 13.1054 23.7071 13.2929C23.8946 13.4804 24 13.7348 24 14V18C24 18.2652 23.8946 18.5196 23.7071 18.7071C23.5196 18.8946 23.2652 19 23 19Z" stroke="#06BEFB" stroke-width="2" stroke-linecap="round" stroke-linejoin="round"/>
<path d="M39 10V9H37V10H39ZM24.281 15H23.281V17H24.281V15ZM32 17C33.8565 17 35.637 16.2625 36.9497 14.9497C38.2625 13.637 39 11.8565 39 10H37C37 11.3261 36.4732 12.5979 35.5355 13.5355C34.5979 14.4732 33.3261 15 32 15V17ZM24.281 17H32V15H24.281V17ZM5 10V9H3V10H5ZM17.75 17H18.75V15H17.75V17ZM10 15C8.67392 15 7.40215 14.4732 6.46447 13.5355C5.52678 12.5979 5 11.3261 5 10H3C3 11.8565 3.7375 13.637 5.05025 14.9497C6.36301 16.2625 8.14348 17 10 17V15ZM10 17H17.75V15H10V17Z" fill="#06BEFB"/>
<path d="M3 24C3 24.7956 3.31607 25.5587 3.87868 26.1213C4.44129 26.6839 5.20435 27 6 27V25C5.73478 25 5.48043 24.8946 5.29289 24.7071C5.10536 24.5196 5 24.2652 5 24H3ZM37 24C37 24.2652 36.8946 24.5196 36.7071 24.7071C36.5196 24.8946 36.2652 25 36 25V27C36.7957 27 37.5587 26.6839 38.1213 26.1213C38.6839 25.5587 39 24.7956 39 24H37ZM36 6C36.2652 6 36.5196 6.10536 36.7071 6.29289C36.8946 6.48043 37 6.73478 37 7H39C39 6.20435 38.6839 5.44129 38.1213 4.87868C37.5587 4.31607 36.7957 4 36 4V6ZM6 4C5.20435 4 4.44129 4.31607 3.87868 4.87868C3.31607 5.44129 3 6.20435 3 7H5C5 6.73478 5.10536 6.48043 5.29289 6.29289C5.48043 6.10536 5.73478 6 6 6V4ZM5 24V7H3V24H5ZM37 7V24H39V7H37ZM36 25H6V27H36V25ZM6 6H36V4H6V6Z" fill="#06BEFB"/>
<path d="M16 5V3H14V5H16ZM17 2H25V0H17V2ZM26 3V5H28V3H26ZM25 2C25.2652 2 25.5196 2.10536 25.7071 2.29289C25.8946 2.48043 26 2.73478 26 3H28C28 2.20435 27.6839 1.44129 27.1213 0.87868C26.5587 0.31607 25.7956 0 25 0V2ZM16 3C16 2.73478 16.1054 2.48043 16.2929 2.29289C16.4804 2.10536 16.7348 2 17 2V0C16.2044 0 15.4413 0.31607 14.8787 0.87868C14.3161 1.44129 14 2.20435 14 3H16Z" fill="#06BEFB"/>
</svg>
