<svg width="32" height="32" viewBox="0 0 32 32" fill="none" xmlns="http://www.w3.org/2000/svg">
<path fill-rule="evenodd" clip-rule="evenodd" d="M9.8966 26.4297C10.4593 26.4297 10.9166 26.887 10.9166 27.4497C10.9166 28.0124 10.4593 28.4684 9.8966 28.4684C9.33393 28.4684 8.87793 28.0124 8.87793 27.4497C8.87793 26.887 9.33393 26.4297 9.8966 26.4297Z" stroke="#EA4961" stroke-width="2" stroke-linecap="round" stroke-linejoin="round"/>
<path fill-rule="evenodd" clip-rule="evenodd" d="M24.8999 26.4297C25.4626 26.4297 25.9199 26.887 25.9199 27.4497C25.9199 28.0124 25.4626 28.4684 24.8999 28.4684C24.3372 28.4684 23.8799 28.0124 23.8799 27.4497C23.8799 26.887 24.3372 26.4297 24.8999 26.4297Z" stroke="#EA4961" stroke-width="2" stroke-linecap="round" stroke-linejoin="round"/>
<path d="M3.66699 4.33594L6.44033 4.81594L7.72433 20.1133C7.82833 21.3599 8.86966 22.3173 10.1203 22.3173H24.6697C25.8643 22.3173 26.8777 21.4399 27.0497 20.2559L28.315 11.5119C28.471 10.4333 27.635 9.46794 26.5457 9.46794H6.88566" stroke="white" stroke-width="2" stroke-linecap="round" stroke-linejoin="round"/>
<path d="M18.834 14.3932H22.5313" stroke="#EA4961" stroke-width="2" stroke-linecap="round" stroke-linejoin="round"/>
</svg>
