<svg width="20" height="21" viewBox="0 0 20 21" fill="none" xmlns="http://www.w3.org/2000/svg">
<path fill-rule="evenodd" clip-rule="evenodd" d="M18.5262 6.17828L17.8953 5.08353C17.3616 4.1572 16.1788 3.83764 15.2512 4.36916V4.36916C14.8097 4.62927 14.2828 4.70306 13.7868 4.57427C13.2908 4.44548 12.8663 4.12468 12.6071 3.68262C12.4404 3.40163 12.3507 3.08159 12.3473 2.75486V2.75486C12.3624 2.23103 12.1648 1.72341 11.7995 1.34764C11.4342 0.971877 10.9324 0.759965 10.4083 0.760181H9.13731C8.6239 0.760175 8.13165 0.964759 7.76949 1.32866C7.40733 1.69257 7.20511 2.18579 7.20758 2.69919V2.69919C7.19236 3.7592 6.32867 4.61048 5.26856 4.61037C4.94183 4.60698 4.62179 4.51737 4.34081 4.3506V4.3506C3.41321 3.81909 2.23042 4.13865 1.6967 5.06497L1.01944 6.17828C0.486359 7.10345 0.801571 8.2855 1.72453 8.82239V8.82239C2.32447 9.16876 2.69405 9.80888 2.69405 10.5016C2.69405 11.1944 2.32447 11.8345 1.72453 12.1809V12.1809C0.802743 12.7141 0.487188 13.8933 1.01944 14.8157V14.8157L1.65959 15.9197C1.90966 16.371 2.32923 16.7039 2.82547 16.845C3.32171 16.986 3.85369 16.9235 4.3037 16.6712V16.6712C4.74608 16.4131 5.27325 16.3424 5.76803 16.4748C6.2628 16.6072 6.68419 16.9317 6.93853 17.3763C7.10529 17.6573 7.1949 17.9773 7.1983 18.3041V18.3041C7.1983 19.375 8.06642 20.2431 9.13731 20.2431H10.4083C11.4756 20.2431 12.3422 19.3806 12.3473 18.3133V18.3133C12.3449 17.7983 12.5484 17.3037 12.9125 16.9395C13.2767 16.5753 13.7713 16.3719 14.2864 16.3743C14.6123 16.3831 14.931 16.4723 15.2141 16.6341V16.6341C16.1393 17.1672 17.3213 16.852 17.8582 15.929V15.929L18.5262 14.8157C18.7848 14.3719 18.8557 13.8433 18.7234 13.3471C18.5911 12.8508 18.2663 12.4277 17.8211 12.1716V12.1716C17.3759 11.9155 17.0512 11.4924 16.9188 10.9961C16.7865 10.4999 16.8575 9.97129 17.116 9.52749C17.2842 9.23393 17.5276 8.99053 17.8211 8.82239V8.82239C18.7385 8.28579 19.053 7.11065 18.5262 6.18756V6.18756V6.17828Z" stroke="white" stroke-width="1.5" stroke-linecap="round" stroke-linejoin="round"/>
<circle cx="9.77686" cy="10.5034" r="2.67194" stroke="white" stroke-width="1.5" stroke-linecap="round" stroke-linejoin="round"/>
</svg>
