<svg width="42" height="42" viewBox="0 0 42 42" fill="none" xmlns="http://www.w3.org/2000/svg">
<path d="M21 37.625C30.1817 37.625 37.625 30.1817 37.625 21C37.625 11.8183 30.1817 4.375 21 4.375C11.8183 4.375 4.375 11.8183 4.375 21C4.375 30.1817 11.8183 37.625 21 37.625Z" fill="white"/>
<path d="M18.378 14.5102L27.6968 20.0034C27.8704 20.1053 28.0144 20.2508 28.1144 20.4255C28.2145 20.6003 28.267 20.7981 28.267 20.9994C28.2669 21.2008 28.2141 21.3986 28.1139 21.5732C28.0138 21.7478 27.8697 21.8932 27.6959 21.9949L18.378 27.4882C18.2021 27.5915 18.0019 27.6467 17.7979 27.6481C17.5938 27.6494 17.3929 27.597 17.2156 27.496C17.0382 27.3951 16.8906 27.2491 16.7876 27.0729C16.6846 26.8967 16.6299 26.6965 16.6289 26.4924V15.5059C16.6288 15.3014 16.6829 15.1005 16.7856 14.9237C16.8883 14.7469 17.0361 14.6004 17.2138 14.4993C17.3915 14.3981 17.5929 14.3458 17.7974 14.3477C18.0019 14.3496 18.2022 14.4057 18.378 14.5102Z" fill="#50CD32"/>
</svg>
