<svg width="15" height="4" viewBox="0 0 15 4" fill="none" xmlns="http://www.w3.org/2000/svg">
<mask id="mask0_0_190" style="mask-type:luminance" maskUnits="userSpaceOnUse" x="-3" y="-10" width="23" height="24">
<rect x="-2.72673" y="-9.37275" width="22.501" height="22.501" fill="white"/>
</mask>
<g mask="url(#mask0_0_190)">
<path fill-rule="evenodd" clip-rule="evenodd" d="M7.50033 0C6.46904 0 5.62525 0.843787 5.62525 1.87508C5.62525 2.90638 6.46904 3.75017 7.50033 3.75017C8.53163 3.75017 9.37542 2.90638 9.37542 1.87508C9.37542 0.843787 8.53163 0 7.50033 0ZM13.1256 0C12.0943 0 11.2505 0.843787 11.2505 1.87508C11.2505 2.90638 12.0943 3.75017 13.1256 3.75017C14.1569 3.75017 15.0007 2.90638 15.0007 1.87508C15.0007 0.843787 14.1569 0 13.1256 0ZM1.87508 0C0.843788 0 0 0.843787 0 1.87508C0 2.90638 0.843788 3.75017 1.87508 3.75017C2.90638 3.75017 3.75017 2.90638 3.75017 1.87508C3.75017 0.843787 2.90638 0 1.87508 0Z" fill="#8F9198"/>
</g>
</svg>
