<svg width="28" height="28" viewBox="0 0 28 28" fill="none" xmlns="http://www.w3.org/2000/svg">
<g clip-path="url(#clip0_47_128691)">
<path d="M14.0001 18.3166C16.3808 18.3166 18.3108 16.3867 18.3108 14.006C18.3108 11.6253 16.3808 9.69531 14.0001 9.69531C11.6194 9.69531 9.68945 11.6253 9.68945 14.006C9.68945 16.3867 11.6194 18.3166 14.0001 18.3166Z" fill="#46A985"/>
<path d="M27.5705 12.8114C24.257 8.80739 19.2413 4.95312 14.0001 4.95312C8.75776 4.95312 3.74086 8.81008 0.429583 12.8114C-0.143194 13.5033 -0.143194 14.5077 0.429583 15.1995C1.26208 16.2055 3.00735 18.1475 5.33834 19.8443C11.2089 24.1179 16.7783 24.1273 22.6618 19.8443C24.9928 18.1475 26.738 16.2055 27.5705 15.1995C28.1416 14.509 28.1446 13.5056 27.5705 12.8114ZM14.0001 7.97058C17.3279 7.97058 20.035 10.6777 20.035 14.0055C20.035 17.3333 17.3279 20.0404 14.0001 20.0404C10.6722 20.0404 7.96514 17.3333 7.96514 14.0055C7.96514 10.6777 10.6722 7.97058 14.0001 7.97058Z" fill="#46A985"/>
</g>
<defs>
<clipPath id="clip0_47_128691">
<rect width="28" height="28" fill="white"/>
</clipPath>
</defs>
</svg>
