<svg width="30" height="30" viewBox="0 0 30 30" fill="none" xmlns="http://www.w3.org/2000/svg">
<g clip-path="url(#clip0_47_25384)">
<path d="M6.375 2.4375L27.1875 0L27 1.5H28.0312L27.9375 2.90625H28.7812V3.5625L30 3.65625L26.1562 29.9062L0.65625 27.0938L6.375 2.4375Z" fill="#608191"/>
<path d="M25.4063 28.4062L1.6875 26.4375L6.9375 3.5625L28.5938 4.40625L25.4063 28.4062Z" fill="#8FB8CC"/>
<path d="M24.8438 27.6562L1.875 25.875L7.03125 3L28.0312 3.65625L24.8438 27.6562Z" fill="#B7C6CE"/>
<path d="M24.0938 26.25L2.53125 25.875L7.6875 3.09375L27.375 2.25L24.0938 26.25Z" fill="#D6DFE5"/>
<path d="M23.25 24.9375L1.78125 25.875L7.03125 3L26.5312 1.03125L23.25 24.9375Z" fill="#9EC6DD"/>
<path d="M21.5625 22.7812L4.03125 23.5312L8.34375 4.96875L24.2812 3.28125L21.5625 22.7812Z" fill="white"/>
<path d="M21.5625 22.7812L4.03125 23.5312L8.34375 4.96875L24.2812 3.28125L21.5625 22.7812Z" fill="#CFEFFF"/>
<path d="M1.21875 26.3438L22.9688 26.1562L23.25 24.9375L1.40625 25.875L1.21875 26.3438Z" fill="#608191"/>
<path d="M22.9688 26.1562L24.0938 26.25L27.1875 0L26.5312 0.84375L22.9688 26.1562Z" fill="#608191"/>
<path d="M23.8125 26.0625H0.84375L5.0625 2.53125L27 0.1875L23.8125 26.0625Z" fill="#608191"/>
<path d="M12.6563 11.7188L4.6875 12.2812L6.1875 3.9375L13.9688 3.09375L12.6563 11.7188Z" fill="#CFEFFF"/>
<path d="M24.1875 11.0625L13.7812 11.7188L15.0938 3L25.3125 1.96875L24.1875 11.0625Z" fill="white"/>
<path d="M22.5 24.4688L2.53125 24.5625L4.59375 13.0312L24.0938 11.9062L22.5 24.4688Z" fill="#CFEFFF"/>
<mask id="mask0_47_25384" style="mask-type:luminance" maskUnits="userSpaceOnUse" x="2" y="11" width="23" height="14">
<path d="M22.5 24.4688L2.53125 24.5625L4.59375 13.0312L24.0938 11.9062L22.5 24.4688Z" fill="white"/>
</mask>
<g mask="url(#mask0_47_25384)">
<path d="M6.09407 25.5929C4.96907 25.0304 4.59407 23.5304 5.43782 22.1242C5.71907 21.6554 7.12532 20.3429 7.50032 20.1554C8.71907 19.4054 13.6878 18.7492 17.2503 20.9992C17.9066 21.4679 18.3753 22.1242 18.4691 22.9679V23.0617C18.7503 25.4054 17.5316 27.1867 15.0941 27.1867C12.3753 27.2804 8.15657 26.7179 6.09407 25.5929Z" fill="#913A3A"/>
<path d="M7.59376 13.0312C7.59376 13.0312 5.34376 16.2188 7.21876 17.4375L7.96876 15.0938L7.59376 13.0312ZM22.2188 15.4688C22.125 16.5 20.9063 17.4375 19.5938 17.4375C18.2813 17.5313 17.3438 16.6875 17.5313 15.6563C17.625 14.625 18.8438 13.7813 20.0625 13.6875C21.375 13.6875 22.4063 14.4375 22.2188 15.4688Z" fill="#E8A554"/>
<path d="M20.8126 12.3744C20.1564 10.9682 18.1876 9.65568 15.5626 9.46818C14.7189 9.37443 13.5939 9.37443 12.1876 9.65568C6.75014 10.7807 7.12514 14.9994 7.12514 14.9994C8.15639 13.9682 10.1251 13.1244 13.3126 13.1244C14.6251 13.1244 15.6564 12.7494 16.4064 12.3744C17.0626 13.2182 18.0001 14.9057 17.5314 17.7182C17.5314 17.7182 17.6251 18.8432 19.6876 18.8432C19.6876 18.8432 19.5939 17.9994 20.0626 17.4369C20.3439 16.8744 21.4689 13.8744 20.8126 12.3744Z" fill="#E8A554"/>
<path d="M22.125 15.9368C22.0312 16.9681 20.8125 17.9056 19.5 17.9056C18.1875 17.9056 17.25 17.1556 17.4375 16.1243C17.5312 15.0931 18.75 14.2493 19.9687 14.1556C21.2812 14.0618 22.3125 14.9056 22.125 15.9368Z" fill="#E8A554"/>
<path d="M23.0626 19.5923C22.8751 21.4673 20.9063 22.9673 18.8438 23.0611C16.7813 23.0611 15.3751 21.6548 15.6563 19.8736C15.9376 18.0923 17.7188 16.5923 19.6876 16.4986C21.8438 16.4048 23.3438 17.8111 23.0626 19.5923ZM10.5938 19.1236C10.4063 20.4361 9.00006 21.4673 7.59381 21.5611C6.18756 21.5611 5.15631 20.6236 5.34381 19.3111C5.53131 18.0923 6.84381 16.9673 8.25006 16.9673C9.75006 16.8736 10.7813 17.9048 10.5938 19.1236Z" fill="#E8A554"/>
<path d="M22.7819 19.5C22.5944 21.1875 20.7194 22.5937 18.6569 22.5937C16.5944 22.5937 15.1881 21.2812 15.3756 19.6875C15.5631 18.0937 17.3444 16.6875 19.4069 16.5938C21.4694 16.5938 22.9694 17.8125 22.7819 19.5Z" fill="#FFEFAB"/>
<path d="M21.7505 15.5618C21.6567 16.5931 20.438 17.5306 19.1255 17.5306C17.813 17.6243 16.8755 16.7806 17.063 15.7493C17.1567 14.7181 18.3755 13.8743 19.5942 13.7806C21.0005 13.6868 21.938 14.5306 21.7505 15.5618ZM10.688 19.2181C10.5005 20.3431 9.2817 21.3743 7.87545 21.3743C6.56295 21.3743 5.62545 20.5306 5.81295 19.4056C6.00045 18.2806 7.2192 17.3431 8.5317 17.2493C9.8442 17.1556 10.8755 17.9993 10.688 19.2181Z" fill="#FFEFAB"/>
<path d="M6.28157 24.9378C5.15657 24.3753 4.78157 22.969 5.62532 21.5628C5.90657 21.094 7.31282 19.7815 7.68782 19.594C8.90657 18.844 13.8753 18.094 17.4378 20.4378C18.0941 20.9065 18.5628 21.5628 18.6566 22.4065V22.5003C18.9378 24.7503 17.7191 26.6253 15.2816 26.6253C12.5628 26.5315 8.34407 25.969 6.28157 24.9378Z" fill="#E8A554"/>
<path d="M6.65642 23.6253C5.53142 23.1566 6.18767 22.0316 7.03142 20.8128C7.31267 20.4378 7.87517 19.9691 8.25017 19.7816C9.37517 19.1253 13.7814 18.4691 17.1564 20.3441C17.8127 20.7191 18.1877 21.2816 18.2814 22.0316V22.1253C18.5627 24.0003 16.5939 25.6878 14.6252 25.5003C12.0939 25.1253 8.53142 24.4691 6.65642 23.6253Z" fill="#E8A554"/>
<path d="M6.46908 23.5305C5.53158 23.0618 6.65658 22.4055 7.40658 21.1868C7.68783 20.718 8.81283 19.7805 9.09408 19.593C10.1253 18.9368 12.5628 18.1868 15.3753 20.1555C15.9378 20.5305 16.2191 21.1868 16.3128 21.9368V22.0305C16.5003 23.9993 15.1878 25.593 13.5003 25.3118C11.4378 24.843 8.15658 24.468 6.46908 23.5305Z" fill="#FFD097"/>
<path d="M6.37522 20.7188L3.56271 23.7187C3.56271 23.7187 2.43771 25.2187 3.93771 25.7812C5.53146 26.3437 7.12521 25.2187 7.12521 25.2187C7.12521 25.2187 7.03147 24 7.59397 23.4375L6.37522 20.7188Z" fill="#E8A554"/>
<path d="M6.09415 21.7497C6.1879 21.5622 6.46915 21.4684 6.65665 21.5622C7.40665 22.0309 9.28165 22.8747 13.8754 23.2497C15.0004 23.3434 16.4067 23.2497 18.3754 22.8747C18.3754 22.8747 18.3754 23.2497 18.2817 23.7184C17.9067 24.8434 16.5942 25.6872 15.2817 25.6872C13.6879 25.6872 12.1879 25.6872 10.2192 25.2184C6.84415 24.4684 4.96915 24.1872 6.09415 21.7497Z" fill="#E8BD89"/>
<path d="M20.0626 15.1878C19.6876 18.2816 16.2188 20.9066 12.4688 21.0003C8.90631 21.0941 6.46881 18.7503 6.93756 15.8441C7.40631 12.9378 10.5938 10.5003 14.1563 10.2191C17.7188 9.93781 20.4376 12.1878 20.0626 15.1878Z" fill="#8E4028"/>
<path d="M6.75 20.7188L3.9375 23.7187C3.9375 23.7187 3 24.9375 4.59375 25.5C6.09375 26.0625 7.5 25.3125 7.5 25.3125C7.5 25.3125 7.3125 24.1875 7.875 23.625L6.75 20.7188Z" fill="#E8BD89"/>
<path d="M19.7813 14.8118C19.4063 17.8118 16.0313 20.343 12.4688 20.4368C9.00004 20.5305 6.65629 18.2805 7.12504 15.468C7.59379 12.6555 10.6875 10.3118 14.0625 10.0305C17.625 9.74928 20.1563 11.9055 19.7813 14.8118Z" fill="#E8A554"/>
<path d="M19.7817 14.6251C19.4067 17.4376 16.3129 19.8751 12.9379 19.9689C9.65666 20.0626 7.50041 17.9064 7.96916 15.1876C8.43791 12.5626 10.5004 10.2189 14.5317 9.93761C17.7192 9.75011 20.1567 11.8126 19.7817 14.6251Z" fill="#E8BD89"/>
<path d="M16.2191 15.5627C15.9379 17.6252 13.6879 19.3127 11.3441 19.4064C9.00039 19.5002 7.40664 17.9064 7.68789 15.9377C7.96914 13.9689 10.1254 12.2814 12.4691 12.1877C14.8129 12.0002 16.5941 13.5002 16.2191 15.5627Z" fill="#FFD097"/>
<path d="M7.59375 15C7.59375 15 7.875 14.25 10.0312 14.1563C12.1875 14.0625 15.1875 14.0625 16.6875 12.8437L16.2187 12.4688C16.2187 12.4688 14.8125 13.125 12.6562 13.2188C10.5937 13.3125 7.875 13.875 7.6875 14.1563C7.5 14.3438 7.59375 15 7.59375 15Z" fill="#E8A554"/>
<path d="M13.8753 16.0313C13.7816 16.3125 13.5003 16.5938 13.2191 16.5938C12.9378 16.5938 12.6566 16.4063 12.7503 16.0313C12.8441 15.75 13.1253 15.4688 13.4066 15.4688C13.6878 15.4688 13.9691 15.75 13.8753 16.0313Z" fill="#8E4028"/>
<path d="M13.5938 15.8435C13.5938 15.9373 13.5 16.031 13.4063 16.031C13.3125 16.031 13.3125 15.9373 13.3125 15.9373C13.3125 15.8435 13.4062 15.7498 13.5 15.7498C13.5 15.656 13.5938 15.7498 13.5938 15.8435Z" fill="white"/>
<path d="M9.28157 15.5625C9.18782 15.8438 8.90657 16.125 8.62532 16.125C8.34407 16.125 8.06282 15.9375 8.15657 15.5625C8.25032 15.2813 8.53157 15 8.81282 15C9.09407 15.0938 9.37532 15.2813 9.28157 15.5625Z" fill="#8E4028"/>
<path d="M9 15.4685C9 15.5623 8.90625 15.656 8.8125 15.656C8.71875 15.656 8.71875 15.5623 8.71875 15.5623C8.71875 15.4685 8.8125 15.3748 8.90625 15.3748C8.90625 15.281 9 15.3748 9 15.4685Z" fill="white"/>
<path d="M12.375 23.3437C12.375 23.3437 15.5625 23.4375 15.5625 20.7188C15.5625 20.7188 16.5 20.25 17.25 20.7188C17.9062 21.2813 18.9375 21.75 18.2812 23.5312C18.1875 23.5312 12.6562 24.1875 12.375 23.3437ZM7.5 22.3125C7.5 22.3125 7.125 21.75 7.59375 21.0937C8.0625 20.4375 8.71875 19.9687 8.71875 19.9687L8.25 19.6875C8.25 19.6875 6.46875 20.5312 6 21.8437L7.5 22.3125Z" fill="#E8BD89"/>
<path d="M10.3125 23.6251C10.3125 23.6251 13.2188 23.1563 14.5312 23.8126C14.5312 23.8126 14.8125 24.3751 14.4375 24.4688C14.0625 24.5626 11.625 23.6251 10.3125 23.9063C10.3125 24.0001 10.0312 23.7188 10.3125 23.6251Z" fill="white"/>
<path d="M5.8125 22.3113C5.8125 22.3113 7.21875 22.2175 7.59375 22.8738C7.59375 22.8738 7.59375 23.2488 7.40625 23.3425C7.21875 23.4363 6.375 22.4988 5.71875 22.5925C5.71875 22.5925 5.625 22.405 5.8125 22.3113Z" fill="#FCD6AE"/>
<path d="M17.5312 11.437C17.5312 11.437 16.2188 13.4058 13.2188 13.4058C10.3125 13.4058 8.15625 13.8745 7.125 14.9995C7.125 14.9995 7.78125 10.9683 12.1875 10.0308C16.6875 9.18704 17.625 10.8745 17.5312 11.437Z" fill="#FFEFAB"/>
<path d="M15.5625 12.0937C16.0313 12.4687 17.8125 14.1563 17.1562 17.9062C17.1562 17.9062 17.1562 19.0313 19.125 18.9375C19.125 18.9375 19.0313 18.0938 19.4063 17.5313C19.7813 16.9688 20.9063 14.0625 20.25 12.6562C19.5938 11.25 17.625 9.84375 15 9.84375" fill="#FFEFAB"/>
<path d="M17.25 15.8435C17.25 15.8435 18.0938 15.4685 18.375 15.656C18.9375 16.1248 18.2812 16.8748 17.1562 17.0623L17.25 15.8435Z" fill="#E8BD89"/>
<path d="M15.9375 13.0312C15.9375 13.0312 17.25 14.3437 17.25 15.8437C17.25 15.8437 17.4375 13.5 16.125 12.6562L15.9375 13.0312ZM17.625 17.0625C17.625 17.0625 17.25 18.375 18.1875 18.8438C18.1875 18.8438 17.625 18.9375 17.25 18.5625C16.875 18.0937 17.1562 17.1562 17.1562 17.1562L17.625 17.0625Z" fill="#E8A554"/>
<path d="M10.5 11.155C10.5 11.155 13.5 9.74871 15.8438 10.405C15.8438 10.405 16.5 11.155 14.625 11.3425C12.8438 11.6237 12.9375 10.8737 10.5 11.155ZM20.7188 17.8112C20.7188 17.8112 21.6563 19.5925 19.5938 20.8112C19.3125 20.9987 19.2188 21.28 19.4063 21.4675C19.5938 21.7487 20.1562 21.8425 20.4375 21.5612C21.375 20.7175 22.5938 19.2175 20.7188 17.8112ZM19.9688 14.3425C19.9688 14.3425 20.8125 15.28 20.0625 16.3112C20.0625 16.3112 19.9688 16.6862 20.3438 16.6862C20.625 16.6862 21.0938 16.4987 21.0938 16.1237C21.0938 15.8425 21.375 14.4362 19.9688 14.3425Z" fill="white"/>
<path d="M9.18755 26.4375C9.18755 26.4375 8.3438 25.875 8.43755 24.4688C8.5313 23.0625 10.2188 22.5 10.2188 22.5C10.2188 22.5 8.3438 22.5938 7.68755 24.0938C7.12505 25.6875 8.06255 26.0625 8.06255 26.0625L9.18755 26.4375Z" fill="#8E4028"/>
<path d="M12 18.375C12 18.375 11.4375 18.375 10.9687 18.0937C10.5937 17.8125 10.125 17.9063 10.125 17.9063C10.0313 17.9063 9.9375 17.8125 9.75 17.7188C9.65625 17.625 9.46875 17.625 9.375 17.7188C9.375 17.8125 9.5625 18 9.5625 18V18.375C9.5625 18.4688 9.5625 18.8438 10.0312 18.9375C10.5 19.0313 10.7812 18.9375 10.9687 18.8438C11.1562 18.8438 12 18.375 12 18.375Z" fill="#C6638C"/>
</g>
<mask id="mask1_47_25384" style="mask-type:luminance" maskUnits="userSpaceOnUse" x="13" y="1" width="13" height="11">
<path d="M24.1875 11.0625L13.7812 11.7188L15.0938 3L25.3125 1.96875L24.1875 11.0625Z" fill="white"/>
</mask>
<g mask="url(#mask1_47_25384)">
<path d="M17.3437 2.4375C16.5937 2.625 16.0312 3 15.5625 3.5625C15.375 3.75 15.1875 4.03125 14.9062 4.3125C13.875 5.34375 14.625 7.03125 16.3125 6.75C18.0937 6.46875 19.125 5.8125 19.7812 4.21875V4.125C20.25 2.90625 19.2187 1.96875 17.7187 2.25L17.3437 2.4375ZM23.5312 1.78125C24.2812 1.78125 24.8437 2.0625 25.125 2.625C25.2187 2.8125 25.4062 3.09375 25.5937 3.28125C26.4375 4.21875 25.125 6.09375 23.25 6.09375C21.375 6.09375 20.5312 5.625 20.25 4.125V4.03125C20.0625 2.90625 21.4687 1.6875 22.9687 1.6875L23.5312 1.78125Z" fill="#A3704D"/>
<path d="M23.7189 7.03068C23.7189 6.56193 23.8127 3.56193 24.0002 1.96818H23.6252C22.2189 1.87443 20.7189 1.87443 19.3127 2.15568C18.2814 2.34318 17.1564 2.62443 16.2189 3.28068C16.0314 4.68693 15.6564 6.74943 14.7189 8.62443C14.7189 8.62443 12.6564 12.2807 14.7189 12.5619C16.7814 12.8432 23.4377 12.7494 24.5627 11.4369C25.6877 9.93693 23.7189 7.59318 23.7189 7.03068Z" fill="#A3704D"/>
<path d="M23.6253 1.87369C22.5003 1.68619 20.8128 1.59244 19.2191 1.77994C17.9066 1.87369 17.0628 2.24869 16.5941 2.52994C16.5003 3.46744 16.3128 5.99869 15.0941 8.34244C15.0941 8.34244 13.2191 11.6237 15.0941 11.8112C16.9691 12.0924 22.8753 11.9049 23.9066 10.7799C24.9378 9.56119 23.2503 7.49869 23.1566 6.93619C23.2503 6.46744 23.3441 2.99869 23.6253 1.87369Z" fill="#E8BD89"/>
<path d="M17.3441 2.71765C16.6878 2.8114 16.1253 3.1864 15.8441 3.7489C15.7503 3.9364 15.5628 4.1239 15.2816 4.40515C14.4378 5.34265 15.0003 6.7489 16.5941 6.46765C18.1878 6.1864 19.1253 5.6239 19.6878 4.3114V4.21765C20.1566 3.1864 19.2191 2.34265 17.9066 2.53015L17.3441 2.71765Z" fill="#E8AB82"/>
<path d="M17.3441 2.90557C16.7816 2.99932 16.3128 3.37432 16.0316 3.74932C15.9378 3.93682 15.7503 4.12432 15.5628 4.31182C14.8128 5.15557 15.2816 6.37432 16.6878 6.18682C18.0941 5.90557 18.8441 5.43682 19.4066 4.21807C19.7816 3.28057 18.9378 2.53057 17.8128 2.81182L17.3441 2.90557Z" fill="#FFD097"/>
<path d="M16.7816 5.0625C16.6878 5.34375 16.3128 5.625 16.0316 5.625C15.7503 5.625 15.4691 5.4375 15.5628 5.0625C15.6566 4.78125 16.0316 4.5 16.3128 4.40625C16.6878 4.5 16.8753 4.6875 16.7816 5.0625Z" fill="#A3704D"/>
<path d="M16.219 5.15625C16.219 5.25 16.1253 5.34375 15.9378 5.34375C15.844 5.34375 15.7503 5.25 15.844 5.15625C15.844 5.0625 15.9378 4.96875 16.1253 4.96875C16.219 4.96875 16.219 5.0625 16.219 5.15625ZM23.4378 2.0625C24.094 2.0625 24.5628 2.34375 24.844 2.8125C24.9378 3 25.0315 3.1875 25.219 3.375C25.969 4.21875 24.844 5.8125 23.1565 5.90625C21.5628 5.90625 20.719 5.53125 20.5315 4.21875V4.125C20.4378 3.09375 21.5628 2.0625 22.8753 2.0625H23.4378Z" fill="#E8AB82"/>
<path d="M23.3438 2.34375C23.9063 2.34375 24.3751 2.625 24.5626 3C24.6563 3.1875 24.7501 3.375 24.9376 3.5625C25.5938 4.3125 24.5626 5.71875 23.1563 5.71875C21.7501 5.71875 21.0001 5.34375 20.8126 4.21875C20.7188 3.28125 21.7501 2.34375 22.8751 2.34375H23.3438Z" fill="#FFD097"/>
<path d="M23.3438 4.40625C23.3438 4.6875 23.625 4.96875 24 4.96875C24.375 4.96875 24.6562 4.6875 24.6562 4.3125C24.6562 4.03125 24.375 3.75 24 3.75C23.625 3.84375 23.3438 4.125 23.3438 4.40625Z" fill="#A3704D"/>
<path d="M13.8751 10.7812C13.8751 10.7812 15.4689 10.5 16.6876 10.7812C17.9064 11.0625 22.4064 10.5938 24.6564 9.9375C24.6564 9.9375 25.1251 10.4062 24.7501 10.9687C24.3751 11.4375 19.5001 13.875 18.5626 14.1562C17.6251 14.4375 14.0626 12.6562 13.8751 12.1875C13.7814 11.7187 13.5939 10.9687 13.8751 10.7812Z" fill="#5D8993"/>
<path d="M23.9062 4.40625C23.9062 4.5 24 4.59375 24.0938 4.59375C24.1875 4.59375 24.2812 4.5 24.2812 4.40625C24.2812 4.3125 24.1875 4.21875 24.0938 4.21875C24 4.21875 23.9062 4.3125 23.9062 4.40625Z" fill="#E8AB82"/>
<path d="M14.3436 10.5938C14.3436 10.5938 15.8436 10.3125 16.8749 10.5938C17.9999 10.875 22.1249 10.4062 24.1874 9.84375C24.1874 9.84375 24.6561 10.3125 24.2811 10.7812C23.9061 11.25 19.4999 13.5 18.6561 13.6875C17.8124 13.9688 14.5311 12.2813 14.4374 11.8125C14.2499 11.3438 14.0624 10.7813 14.3436 10.5938Z" fill="#CBDEE4"/>
<path d="M21.1875 5.53125C21.1875 5.53125 22.5 6.1875 23.5312 5.90625L23.625 6.1875C23.625 6.09375 22.4062 6.375 21.1875 5.53125ZM18.1875 5.8125C18.1875 5.8125 16.6875 6.65625 15.75 6.5625L15.6562 6.84375C15.6562 6.84375 16.7812 6.84375 18.1875 5.8125Z" fill="#A3704D"/>
<path d="M15.0939 4.875C15.0939 4.875 14.9064 5.90625 16.4064 5.8125C18.0002 5.625 19.2189 4.40625 19.2189 4.40625C19.2189 4.40625 18.8439 6.09375 16.5002 6.46875C14.2502 6.65625 15.0939 4.875 15.0939 4.875ZM25.2189 3.9375C25.2189 3.9375 25.1252 5.0625 23.4377 5.15625C21.7502 5.34375 20.8127 4.21875 20.8127 4.21875C20.8127 4.21875 20.8127 5.8125 23.1564 5.8125C25.6877 5.71875 25.2189 3.9375 25.2189 3.9375Z" fill="#E8BD89"/>
<path d="M19.5 8.53125C19.5 8.625 19.4063 8.71875 19.3125 8.71875C19.2188 8.71875 19.125 8.625 19.125 8.53125C19.125 8.4375 19.2188 8.34375 19.3125 8.34375C19.4063 8.34375 19.5 8.4375 19.5 8.53125Z" fill="#A3704D"/>
<path d="M14.0625 10.9687C14.0625 10.9687 14.5312 10.6875 15 10.6875C15.4687 10.6875 18 11.1562 19.9687 10.7812L24.4688 10.0312L24.2812 9.84375L19.125 10.5938C17.3437 10.6875 15.4687 10.0312 14.0625 10.7812V10.9687Z" fill="#5D8993"/>
<path d="M21.4688 10.7798C20.9062 10.9673 19.5 11.1548 19.0312 11.2486C18.6562 11.9048 18.2812 12.5611 18.1875 13.2174C18.375 13.3111 18.5625 13.3111 18.6562 13.4049C19.125 13.4986 21.8437 11.9986 22.7812 11.4361C23.7187 10.7798 22.2188 10.5923 21.4688 10.7798Z" fill="#D5EAEF"/>
<path d="M22.0313 10.3125C22.0313 10.3125 21.9375 10.875 21.5625 11.5313L20.9062 12.5625L22.3125 11.625C22.5938 11.5312 24.4688 10.9687 23.7188 10.6875C23.0625 10.4062 22.0313 10.3125 22.0313 10.3125Z" fill="#CBDEE4"/>
<path opacity="0.4" d="M20.8125 12.7486C20.9063 12.6549 21.375 12.0924 21.5625 11.7174C21.75 11.3424 22.125 11.0611 22.4062 11.1549C22.7812 11.3424 22.6875 11.8111 22.6875 11.8111L20.8125 12.7486ZM18.4688 13.9674C18.375 13.8736 18.0938 13.4049 18 13.0299C17.9063 12.6549 17.625 12.3736 17.3438 12.5611C16.9687 12.7486 16.875 13.2174 16.875 13.2174L18.4688 13.9674Z" fill="#5D8993"/>
<path d="M19.6878 11.8115C19.6878 11.8115 19.7816 11.249 20.0628 11.1553C20.3441 11.0615 21.1878 10.6865 21.2816 10.874C21.3753 11.0615 21.7503 11.3428 21.2816 11.5303C20.7191 11.7178 20.9066 12.1865 20.5316 12.2803C20.0628 12.4678 19.5941 12.0928 19.6878 11.8115Z" fill="#EEFDFF"/>
<path d="M16.3125 2.99903C16.3125 2.99903 17.4375 2.34278 18 2.24903C18.6562 2.15528 22.5 1.87403 23.9062 2.06153V1.78028C23.9062 1.78028 20.4375 1.21778 18.2812 1.68653C16.2187 2.15528 16.125 2.62403 16.125 2.62403L16.3125 2.99903Z" fill="#A3704D"/>
</g>
<path d="M19.125 4.3125L8.90625 5.25L9.28125 2.71875L19.5 1.59375L19.125 4.3125ZM25.3125 12.5625C25.5938 10.5 23.25 9.1875 20.3438 9.75L17.5313 10.3125C15.2813 10.7813 13.4063 12.375 13.2188 14.0625C13.0313 15.6563 14.5312 16.9688 16.7812 16.7812L19.5938 16.5938C19.5938 17.0625 19.125 17.8125 18.5625 18.5625C18.4688 18.6562 18.5625 18.8438 18.75 18.75C19.6875 18.4688 21.8438 17.5312 22.6875 15.75C24.0938 15 25.125 13.7813 25.3125 12.5625Z" fill="#4C6980"/>
<path d="M24.8439 12.4692C25.1251 10.5005 22.9689 9.37545 20.3439 9.8442L17.7189 10.313C15.6564 10.688 13.8751 12.2817 13.7814 13.7817C13.5939 15.2817 15.0001 16.4067 17.0626 16.313L19.5939 16.2192H20.0626C20.0626 16.5942 19.9689 17.1567 19.5001 17.7192C19.4064 17.813 19.5001 17.9067 19.6876 17.813C20.4376 17.438 21.6564 16.688 22.4064 15.3755C23.7189 14.7192 24.6564 13.688 24.8439 12.4692Z" fill="white"/>
<path d="M14.8125 15L14.9062 14.625C14.7188 14.625 14.625 14.625 14.4375 14.5313L14.5313 14.0625C14.625 14.1563 14.8125 14.1563 14.9062 14.1563C15 14.1563 15.0938 14.1563 15.0938 14.0625C15.1875 14.0625 15.1875 13.9687 15.1875 13.9687C15.1875 13.875 15.1875 13.875 15.0938 13.7812C15 13.7812 14.9062 13.6875 14.9062 13.6875C14.8125 13.6875 14.8125 13.5937 14.7188 13.5V13.125C14.7188 12.9375 14.8125 12.8438 15 12.6563C15.0938 12.5625 15.2813 12.4688 15.4688 12.375L15.5625 12L15.9375 11.9062L15.8438 12.2813H16.2187L16.125 12.75C16.0313 12.75 15.8437 12.6563 15.75 12.75C15.6562 12.75 15.6563 12.75 15.5625 12.8438C15.4688 12.8438 15.4688 12.9375 15.4688 13.0312C15.4688 13.125 15.4688 13.125 15.5625 13.125C15.6563 13.125 15.75 13.125 15.8438 13.2188C15.9375 13.2188 16.0313 13.3125 16.0313 13.4063C16.125 13.5 16.125 13.5938 16.0313 13.7812C16.0313 13.875 15.9375 14.0625 15.8438 14.1563L15.5625 14.4375C15.4688 14.5312 15.375 14.5313 15.2812 14.625L15.0938 15H14.8125Z" fill="#4C6980"/>
<path d="M17.25 12.1875L17.625 12.0937L17.4375 12.75H17.625L17.8125 12.0937L18.2813 12L18 12.6562H18.1875L18.0937 13.125H17.8125L17.7188 13.5H17.9063L17.8125 13.9687H17.5313L17.25 14.625H16.875L17.0625 13.9687H16.875L16.6875 14.625H16.3125L16.5 13.9687H16.3125L16.4063 13.5H16.6875L16.7812 13.2188H16.5938L16.6875 12.8437H16.9688L17.25 12.1875ZM17.4375 13.125H17.25L17.1562 13.4062H17.3438L17.4375 13.125ZM20.8125 13.6875H21.375L21 14.0625C20.9062 14.1562 20.7188 14.25 20.625 14.25C20.5313 14.3437 20.3438 14.3437 20.25 14.4375C20.1563 14.4375 19.9688 14.5312 19.875 14.5312C19.6875 14.5312 19.5 14.5312 19.3125 14.4375C19.125 14.3437 19.0313 14.25 18.9375 14.1562C18.8438 14.0625 18.75 13.875 18.75 13.7812V13.2188C18.8438 13.0312 18.8437 12.8437 19.0312 12.6562C19.125 12.4687 19.3125 12.2812 19.4063 12.1875C19.5938 12.0937 19.7812 11.9062 19.9687 11.8125C20.1562 11.7188 20.3438 11.625 20.625 11.625C20.8125 11.625 21.0938 11.5312 21.1875 11.625C21.375 11.625 21.4688 11.7188 21.6563 11.8125C21.75 11.9062 21.8437 12 21.8437 12.1875V12.6562C21.8437 12.8437 21.75 13.0312 21.5625 13.2188C21.4688 13.4062 21.2813 13.5 21.1875 13.5937C21 13.6875 20.9063 13.7812 20.7188 13.7812C20.625 13.875 20.4375 13.875 20.3438 13.875C20.1563 13.875 20.1563 13.7812 20.1563 13.6875C20.0625 13.7812 19.875 13.875 19.6875 13.875C19.5938 13.875 19.4063 13.875 19.4063 13.7812C19.3125 13.6875 19.3125 13.6875 19.2188 13.5V13.125C19.2188 13.0312 19.3125 12.9375 19.3125 12.8437C19.4063 12.75 19.4062 12.6562 19.5 12.5625C19.5937 12.4687 19.6875 12.375 19.7813 12.375C19.875 12.2812 19.9688 12.2812 20.1563 12.2812C20.3438 12.2812 20.5313 12.2812 20.625 12.4687L20.7188 12.2812L21.0938 12.1875L20.7188 13.125C20.7188 13.2187 20.625 13.2187 20.625 13.3125C20.625 13.4062 20.625 13.4062 20.7188 13.4062C20.8125 13.4062 20.9062 13.3125 21 13.2188C21.0938 13.125 21.1875 12.9375 21.1875 12.75V12.2812C21.0938 12.1875 21 12.0937 20.9062 12.0937H20.3438C20.1563 12.0937 20.0625 12.1875 19.875 12.2812C19.7813 12.375 19.5937 12.4687 19.5 12.5625C19.4062 12.6562 19.3125 12.75 19.2188 12.9375C19.125 13.0312 19.125 13.2187 19.0312 13.3125V13.7812L19.3125 14.0625C19.4063 14.1562 19.5938 14.1562 19.7813 14.1562C19.9688 14.1562 20.1563 14.1562 20.25 14.0625C20.5313 13.875 20.625 13.7812 20.8125 13.6875ZM19.9687 13.3125C20.0625 13.3125 20.1563 13.2188 20.25 13.2188C20.3438 13.125 20.3438 13.0312 20.3438 13.0312V12.8437C20.3438 12.8437 20.25 12.75 20.1563 12.75C20.0625 12.75 19.9688 12.8437 19.875 12.8437C19.7813 12.9375 19.7813 13.0312 19.6875 13.125V13.3125C19.7813 13.2187 19.875 13.3125 19.9687 13.3125ZM22.6875 11.1562L24.0938 10.875L23.4375 12.9375L22.4062 13.0312L22.6875 11.1562ZM22.3125 13.4062L23.4375 13.3125L23.25 14.1562L22.125 14.25L22.3125 13.4062Z" fill="#4C6980"/>
<path d="M18.5625 4.03125L9.46875 4.875L9.84375 3L18.8438 2.0625L18.5625 4.03125Z" fill="#FFEFAB"/>
<mask id="mask2_47_25384" style="mask-type:luminance" maskUnits="userSpaceOnUse" x="4" y="3" width="10" height="10">
<path d="M12.6563 11.7188L4.6875 12.2812L6.1875 3.9375L13.9688 3.09375L12.6563 11.7188Z" fill="white"/>
</mask>
<g mask="url(#mask2_47_25384)">
<path d="M13.2191 11.4378C15.4691 8.81285 13.1253 7.9691 13.1253 7.9691C13.1253 7.9691 11.9066 7.31285 10.3128 7.87535C10.4066 6.56285 9.28158 6.00035 9.28158 6.00035C9.28158 6.00035 7.59408 4.7816 5.34408 7.12535C3.09408 9.4691 5.06283 13.4066 5.15658 13.6878C5.53158 13.6878 11.0628 13.9691 13.2191 11.4378Z" fill="#4F1919"/>
<path d="M13.5003 11.0628C15.3753 8.81285 13.4066 7.5941 13.4066 7.5941C13.4066 7.5941 12.1878 6.8441 10.5941 7.4066C10.6878 6.0941 9.56283 5.5316 9.56283 5.5316C9.56283 5.5316 7.78158 4.31285 5.53158 6.6566C3.28158 9.00035 5.25033 12.9378 5.34408 13.2191C5.81283 13.2191 11.2503 13.6878 13.5003 11.0628Z" fill="#960F0F"/>
<path d="M13.0312 10.7819C13.9687 9.75069 13.875 9.00069 13.5937 8.53194C13.3125 8.06319 12.8437 7.78194 12.2812 7.78194C11.8125 7.78194 11.0625 7.68819 10.2187 7.96944C10.2187 7.40694 10.0312 6.84444 9.84374 6.56319C9.37499 6.00069 8.81249 5.62569 8.06249 5.71944C7.49999 5.71944 6.65624 6.00069 5.81249 6.93819C3.84374 8.90694 5.81249 12.3757 5.90624 12.6569C6.28124 12.5632 11.1562 12.9382 13.0312 10.7819Z" fill="#DD4545"/>
<path d="M11.625 10.0312C12.2813 9.28125 12.2813 8.71875 12.0938 8.34375C11.9063 8.0625 11.5313 7.78125 11.0625 7.78125C10.6875 7.78125 10.125 7.78125 9.5625 7.96875C9.5625 7.5 9.375 7.125 9.28125 6.9375C9 6.46875 8.53125 6.28125 7.96875 6.28125C7.5 6.375 6.9375 6.5625 6.375 7.21875C4.96875 8.71875 6.375 11.25 6.46875 11.4375C6.65625 11.3438 10.2188 11.625 11.625 10.0312Z" fill="#F96464"/>
<path d="M9.46916 11.6249C9.00041 11.5312 8.62541 11.3437 8.53166 11.0624C8.43791 10.7812 8.43791 10.3124 8.71916 9.93741C9.37541 8.81241 12.2817 6.93741 13.1254 8.81241C13.9692 10.6874 10.6879 11.7187 9.46916 11.6249Z" fill="#FFB3B3"/>
<path d="M5.25 12.8437C5.25 12.8437 9.09375 13.5938 12.6562 11.7188C12.6562 11.7188 10.5 13.5937 5.4375 13.3125L5.25 12.8437Z" fill="#DD4545"/>
<path d="M11.8125 9.65623C11.7188 9.65623 11.625 9.56248 11.5312 9.46873C11.5312 9.37498 11.5312 9.28123 11.625 9.18748C11.8125 8.90623 12.5625 8.43748 12.75 8.90623C12.9375 9.46873 12.0938 9.74998 11.8125 9.65623Z" fill="white"/>
<path d="M8.25031 7.59485C8.15656 7.6886 7.87531 7.78235 7.68781 7.78235C7.50031 7.78235 7.31281 7.78235 7.12531 7.6886C6.84406 7.5011 6.65656 6.65735 7.78156 6.46985C9.00031 6.1886 8.71906 7.21985 8.25031 7.59485Z" fill="#FFB3B3"/>
<path opacity="0.28" d="M4.50018 8.71875C4.50018 8.71875 5.06268 14.0625 11.7189 12.4688C11.7189 12.4688 8.43768 13.5938 5.53143 13.5938C5.53143 13.5938 3.46893 10.7813 4.50018 8.71875Z" fill="#4F1919"/>
</g>
<path d="M8.53145 13.7812L4.78145 13.9687C4.21895 13.9687 3.84395 13.5937 3.9377 13.125L4.1252 12C4.21895 11.5313 4.6877 11.0625 5.2502 11.0625L8.90645 10.7812C9.46895 10.7812 9.84395 11.1562 9.84395 11.625L9.65645 12.75C9.65645 13.3125 9.1877 13.7812 8.53145 13.7812Z" fill="white" stroke="#608191" stroke-width="0.595406" stroke-miterlimit="10"/>
</g>
<defs>
<clipPath id="clip0_47_25384">
<rect width="30" height="30" fill="white"/>
</clipPath>
</defs>
</svg>
