<svg width="17" height="16" viewBox="0 0 17 16" fill="none" xmlns="http://www.w3.org/2000/svg">
<path d="M15.7949 13.8535L12.8652 10.9238C12.7188 10.8066 12.543 10.7188 12.3672 10.7188H11.8984C12.6895 9.69336 13.1875 8.4043 13.1875 6.96875C13.1875 3.62891 10.4336 0.875 7.09375 0.875C3.72461 0.875 1 3.62891 1 6.96875C1 10.3379 3.72461 13.0625 7.09375 13.0625C8.5 13.0625 9.78906 12.5938 10.8438 11.7734V12.2715C10.8438 12.4473 10.9023 12.623 11.0488 12.7695L13.9492 15.6699C14.2422 15.9629 14.6816 15.9629 14.9453 15.6699L15.7656 14.8496C16.0586 14.5859 16.0586 14.1465 15.7949 13.8535ZM7.09375 10.7188C5.01367 10.7188 3.34375 9.04883 3.34375 6.96875C3.34375 4.91797 5.01367 3.21875 7.09375 3.21875C9.14453 3.21875 10.8438 4.91797 10.8438 6.96875C10.8438 9.04883 9.14453 10.7188 7.09375 10.7188Z" fill="#4B5563"/>
</svg>
