<svg width="24" height="21" viewBox="0 0 24 21" fill="none" xmlns="http://www.w3.org/2000/svg">
<path fill-rule="evenodd" clip-rule="evenodd" d="M12.25 7.24902C11.285 7.24902 10.5 7.91903 10.5 8.74353C10.5 9.56717 11.285 10.2363 12.25 10.2363C13.215 10.2363 14 9.56717 14 8.74353C14 7.91903 13.215 7.24902 12.25 7.24902ZM12.25 11.5166C10.458 11.5166 9 10.273 9 8.74353C9 7.21318 10.458 5.96875 12.25 5.96875C14.042 5.96875 15.5 7.21318 15.5 8.74353C15.5 10.273 14.042 11.5166 12.25 11.5166Z" fill="white"/>
<mask id="mask0_47_133012" style="mask-type:luminance" maskUnits="userSpaceOnUse" x="4" y="1" width="17" height="18">
<path fill-rule="evenodd" clip-rule="evenodd" d="M4 1.70312H20.4995V18.3467H4V1.70312Z" fill="white"/>
</mask>
<g mask="url(#mask0_47_133012)">
<path fill-rule="evenodd" clip-rule="evenodd" d="M12.25 2.9834C8.528 2.9834 5.5 5.5926 5.5 8.7984C5.5 12.8774 11.124 16.8513 12.25 17.063C13.376 16.8505 19 12.8765 19 8.7984C19 5.5926 15.972 2.9834 12.25 2.9834ZM12.25 18.3467C10.456 18.3467 4 13.608 4 8.7984C4 4.88588 7.701 1.70312 12.25 1.70312C16.799 1.70312 20.5 4.88588 20.5 8.7984C20.5 13.608 14.044 18.3467 12.25 18.3467Z" fill="white"/>
</g>
</svg>
