<svg width="123" height="96" viewBox="0 0 123 96" fill="none" xmlns="http://www.w3.org/2000/svg">
<path d="M23.795 8.99662e-10L4.23277 1.60036e-10C1.90474 0 0 1.44833 2.10866e-10 3.20887L1.18541e-09 18.039C1.30139e-09 19.8039 1.91046 21.2479 4.23277 21.2479L23.795 21.2479C26.123 21.2479 28.0278 19.7996 28.0278 18.039L28.0278 3.20887C28.0278 1.44833 26.1173 9.87466e-10 23.795 8.99662e-10Z" fill="#9949FF"/>
<path d="M116.278 95.7692L114.566 95.7692C114.374 95.7692 114.215 95.7256 114.089 95.6385C113.967 95.547 113.882 95.4315 113.834 95.2921L113.272 93.6323L109.652 93.6323L109.09 95.2921C109.046 95.4141 108.962 95.5252 108.835 95.6254C108.709 95.7213 108.554 95.7692 108.371 95.7692L106.646 95.7692L110.332 86.2481L112.593 86.2481L116.278 95.7692ZM110.162 92.1293L112.763 92.1293L111.887 89.522C111.83 89.3564 111.763 89.1626 111.684 88.9404C111.61 88.7139 111.536 88.4699 111.462 88.2085C111.392 88.4743 111.321 88.7204 111.246 88.9469C111.172 89.1735 111.103 89.3695 111.037 89.5351L110.162 92.1293Z" fill="#282C38"/>
<path d="M119.955 88.8881C120.403 88.8881 120.813 88.9578 121.183 89.0972C121.558 89.2366 121.878 89.4392 122.144 89.705C122.414 89.9707 122.623 90.2974 122.771 90.6852C122.924 91.0685 123 91.5042 123 91.9921C123 92.1446 122.993 92.2687 122.98 92.3646C122.967 92.4604 122.943 92.5367 122.908 92.5933C122.874 92.6499 122.826 92.6891 122.765 92.7109C122.708 92.7327 122.634 92.7436 122.542 92.7436L118.635 92.7436C118.7 93.3099 118.872 93.7216 119.151 93.9787C119.43 94.2313 119.789 94.3577 120.229 94.3577C120.464 94.3577 120.667 94.3294 120.837 94.2727C121.007 94.2161 121.157 94.1529 121.288 94.0832C121.423 94.0135 121.545 93.9503 121.654 93.8937C121.767 93.8371 121.885 93.8088 122.007 93.8088C122.168 93.8088 122.29 93.8676 122.373 93.9852L122.961 94.7106C122.752 94.9502 122.525 95.1462 122.281 95.2987C122.041 95.4468 121.793 95.5644 121.536 95.6516C121.283 95.7343 121.029 95.791 120.772 95.8215C120.519 95.8563 120.277 95.8737 120.046 95.8737C119.571 95.8737 119.125 95.7975 118.707 95.645C118.293 95.4882 117.929 95.2573 117.615 94.9523C117.306 94.6474 117.06 94.2684 116.877 93.8153C116.698 93.3622 116.609 92.8351 116.609 92.2339C116.609 91.7808 116.685 91.3517 116.838 90.9466C116.994 90.5414 117.217 90.1864 117.504 89.8814C117.796 89.5764 118.147 89.3347 118.556 89.156C118.97 88.9774 119.436 88.8881 119.955 88.8881ZM119.994 90.2866C119.606 90.2866 119.303 90.3976 119.086 90.6198C118.868 90.8376 118.724 91.1535 118.654 91.5674L121.183 91.5674C121.183 91.4062 121.161 91.2493 121.118 91.0969C121.079 90.9444 121.011 90.8093 120.915 90.6917C120.824 90.5697 120.702 90.4717 120.549 90.3976C120.397 90.3236 120.212 90.2866 119.994 90.2866Z" fill="#282C38"/>
</svg>
