<svg width="21" height="20" viewBox="0 0 21 20" fill="none" xmlns="http://www.w3.org/2000/svg">
<path d="M0.755312 16.6782C0.343381 16.6782 0.00177971 16.3366 0.00177971 15.9246V10.1978C-0.0484558 7.47504 0.966301 4.90298 2.85516 2.97394C4.74401 1.05495 7.27588 0 9.99864 0C15.5647 0 20.096 4.53124 20.096 10.0973V15.8242C20.096 16.2361 19.7544 16.5777 19.3424 16.5777C18.9305 16.5777 18.5889 16.2361 18.5889 15.8242V10.0973C18.5889 5.36515 14.7409 1.50706 9.99864 1.50706C7.67776 1.50706 5.52768 2.40126 3.93019 4.02889C2.32266 5.66656 1.46866 7.84678 1.50884 10.1777V15.9146C1.50884 16.3366 1.17729 16.6782 0.755312 16.6782Z" fill="white" fill-opacity="0.6"/>
<path d="M3.96052 10.4553H3.82991C1.72002 10.4553 0.00196232 12.1733 0.00196232 14.2832V16.1721C0.00196232 18.2819 1.72002 20 3.82991 20H3.96052C6.07041 20 7.78846 18.2819 7.78846 16.1721V14.2832C7.78846 12.1733 6.07041 10.4553 3.96052 10.4553Z" fill="white" fill-opacity="0.6"/>
<path d="M16.2682 10.4553H16.1376C14.0277 10.4553 12.3097 12.1733 12.3097 14.2832V16.1721C12.3097 18.2819 14.0277 20 16.1376 20H16.2682C18.3781 20 20.0962 18.2819 20.0962 16.1721V14.2832C20.0962 12.1733 18.3781 10.4553 16.2682 10.4553Z" fill="white" fill-opacity="0.6"/>
</svg>
