<svg width="1200" height="73" viewBox="0 0 1200 73" fill="none" xmlns="http://www.w3.org/2000/svg">
<g clip-path="url(#clip0_47_13575)">
<path d="M449.906 11.9844H250.031V60.0625H449.906V11.9844Z" fill="#D71016"/>
<path d="M372.317 17.861H364.547C364.547 17.861 360.506 17.861 359.011 19.0251C357.944 19.728 357.063 20.6796 356.446 21.7981C355.942 22.8038 355.67 23.91 355.651 25.0349V47.0675C355.619 48.3097 355.909 49.5389 356.493 50.6355C357.061 51.5312 357.841 52.2725 358.765 52.7934C360.38 53.7338 362.214 54.2331 364.083 54.2414H426.547C428.472 54.1405 430.326 53.4829 431.885 52.3486C432.793 51.6735 433.538 50.8037 434.065 49.8031C434.592 48.8024 434.889 47.6962 434.932 46.5659V34.5843H395.779V38.6823H410.117V44.8624C410.117 44.8624 410.193 47.4461 408.66 48.6481C407.814 49.4978 406.678 49.9951 405.48 50.0393H385.52C384.435 50.0969 383.367 49.7608 382.51 49.0929C381.546 48.3187 380.916 47.2042 380.75 45.9791V26.18C380.798 25.5812 380.972 24.9992 381.26 24.4723C381.549 23.9455 381.946 23.4857 382.425 23.1231C383.507 22.2975 384.854 21.8968 386.211 21.9969C388.747 22.0631 399.101 21.9969 399.101 21.9969H405.139C406.421 22.0099 407.655 22.4874 408.612 23.3408C409.123 23.8234 409.519 24.4135 409.773 25.0683C410.026 25.7231 410.131 26.4261 410.079 27.1265H434.923C434.923 27.1265 434.857 22.4606 433.096 20.5015C433.096 20.5015 430.711 17.7191 427.418 17.8232H412.275H387.782L372.317 17.861Z" fill="white"/>
<path d="M289.478 17.681L258.379 17.7189L288.551 54.2034L322.376 54.2507L352.917 17.7094L322.168 17.6621L305.208 42.3447L289.478 17.681Z" fill="white"/>
</g>
<g clip-path="url(#clip1_47_13575)">
<path d="M819.289 67.2118V66.8515L819.473 66.2902L819.792 65.1677L820.864 61.4984C820.956 61.2387 823.143 53.8498 825.446 46.0085L825.513 45.8158C828.337 36.3494 832.115 23.4565 832.115 23.4565L832.383 22.5099C832.465 22.2708 832.618 22.0624 832.821 21.9127C833.025 21.7629 833.27 21.679 833.522 21.6721H836.605C836.924 21.6721 838.54 21.6721 838.792 21.6721H840.224C841.301 21.6553 842.378 21.7338 843.441 21.9067C844.926 22.1491 846.328 22.7565 847.521 23.6743C848.708 24.62 849.653 25.8347 850.277 27.218L850.42 27.0253C851.441 25.4366 852.838 24.1244 854.488 23.2052C856.138 22.2861 857.989 21.7882 859.878 21.7559H869.378C869.679 21.7543 869.97 21.8649 870.195 22.0662C870.42 22.2675 870.561 22.5451 870.592 22.845L870.684 24.0932L870.886 26.8075C870.886 26.8745 870.886 27.2683 870.953 27.9133L871.254 27.352C872.207 25.4829 873.687 23.9336 875.51 22.8952C876.975 22.109 878.614 21.7056 880.277 21.7224C880.989 21.7224 882.74 21.7224 883.971 21.7224H885.244H886.593H889.19H897.668C899.471 21.7877 901.242 22.2238 902.869 23.0036C904.496 23.7834 905.946 24.89 907.126 26.2546C907.126 26.2546 907.771 27.0086 908.09 27.3688L908.927 26.9164L911.7 25.2912C914.783 23.5152 918.587 21.7057 923.512 21.7057H948.351C948.607 21.7023 948.856 21.7823 949.062 21.9335C949.267 22.0847 949.418 22.2988 949.491 22.5434L949.541 22.8701C949.542 23.0739 949.489 23.2743 949.39 23.4519C949.29 23.6295 949.146 23.7783 948.971 23.8838L947.648 24.7215L936.523 31.591C934.52 32.8309 926.269 37.7652 920.455 41.2502C925.355 46.7625 934.906 57.4856 937.503 60.5182L943.317 67.3458C943.497 67.5619 943.595 67.835 943.593 68.1165L943.501 68.6192C943.4 68.8252 943.244 68.9993 943.051 69.1221C942.857 69.2448 942.633 69.3114 942.404 69.3145H925.397C922.807 69.2974 920.255 68.692 917.933 67.5441C915.611 66.3961 913.58 64.7356 911.994 62.688C911.994 62.688 908.643 58.6333 906.456 56.0866C907.394 57.762 908.391 59.6051 909.329 61.4062L912.429 67.4631L912.563 68.0076C912.559 68.2287 912.499 68.445 912.387 68.6359C912.28 68.8127 912.129 68.9583 911.948 69.0583C911.767 69.1582 911.563 69.209 911.357 69.2056H896.881C895.079 69.2457 893.302 68.7783 891.754 67.8568C890.466 67.05 889.362 65.9828 888.512 64.7237C887.924 63.8598 887.414 62.946 886.987 61.9926L886.786 61.5486L882.547 64.1037C879.539 65.9468 875.954 67.9238 871.355 68.2924C870.138 69.4952 868.675 70.4185 867.065 70.9983C864.952 71.7448 862.721 72.0997 860.481 72.0455C859.819 72.0455 859.182 72.0455 858.562 71.9785L854.985 71.7439C854.708 71.7203 854.449 71.6013 854.25 71.4072C854.051 71.2132 853.926 70.9561 853.896 70.68L853.846 70.303L853.62 67.0526C853.435 64.6399 853.209 61.3895 853 58.0301C850.94 59.435 848.498 60.1721 846.005 60.1412C845.164 60.1423 844.324 60.0835 843.491 59.9653L841.28 59.6721C840.852 61.0598 840.241 62.384 839.462 63.6095C838.237 65.4579 836.456 66.8691 834.377 67.639C833.48 67.9666 832.546 68.1778 831.595 68.2673C830.861 68.3409 830.122 68.3745 829.384 68.3678H820.495C820.314 68.3696 820.135 68.3306 819.971 68.2537C819.808 68.1769 819.663 68.0641 819.549 67.9238C819.397 67.7178 819.318 67.4675 819.323 67.2118" fill="black"/>
<path d="M947.011 23.5067L944.372 25.1319L935.919 30.3594C933.75 31.6831 924.266 37.363 918.595 40.7558C923.906 46.7121 933.959 58.0049 936.598 61.1129L940.544 65.7624L941.8 67.2201L942.412 67.9405H933.037H925.372C922.964 67.9176 920.592 67.3485 918.436 66.2761C916.28 65.2038 914.395 63.6561 912.923 61.7496L905.928 53.3722C905.358 52.6936 904.789 52.0318 904.253 51.4119L904.202 51.3532L904.135 51.2778L903.993 51.1019C903.675 50.7165 903.356 50.3479 903.08 50.0045L902.15 50.5741C902.921 51.9899 903.767 53.5397 904.336 54.545C905.66 56.8907 907.026 59.362 908.257 61.7831L910.377 65.8964L911.038 67.1865L911.382 67.8316H896.855C895.273 67.8348 893.719 67.403 892.365 66.5834C891.226 65.8535 890.25 64.895 889.5 63.7686C888.947 62.9744 888.465 62.1335 888.059 61.2553C887.808 60.6857 887.556 60.116 887.355 59.5799L881.927 62.8554C879.053 64.6063 875.476 66.642 870.802 66.8933C869.655 68.144 868.215 69.0909 866.613 69.6495C864.63 70.3446 862.54 70.6821 860.439 70.6464C859.794 70.6464 859.207 70.6464 858.613 70.5794L855.463 70.37H855.077V69.9846L855.027 69.2223L854.843 66.7844C854.616 63.7853 854.34 59.5212 854.097 55.3241L853.795 55.6425C852.789 56.6617 851.584 57.4647 850.256 58.002C848.928 58.5393 847.504 58.7997 846.072 58.7672H845.963C845.206 58.7599 844.45 58.704 843.701 58.5997L841.74 58.3316L841.129 58.2478H840.802L840.76 57.9379L840.668 57.5777L840.484 58.1976C840.045 59.8177 839.37 61.3645 838.482 62.7884C837.404 64.4285 835.831 65.6817 833.991 66.3656C833.18 66.6558 832.336 66.8444 831.478 66.9268C830.782 66.99 830.083 67.0179 829.384 67.0106H820.479L820.654 66.441L820.973 65.3016L822.062 61.6574C822.154 61.4061 824.299 54.1178 826.644 46.1425L826.695 46.0084C829.518 36.4833 832.559 26.0618 832.735 25.6094L833.304 23.6072L833.489 22.9706L833.572 22.6606H834.578H836.655H839.277C839.596 22.6606 839.939 22.6606 840.274 22.6606C841.284 22.6431 842.294 22.7188 843.29 22.8868C844.582 23.0992 845.802 23.6256 846.842 24.4198C848.117 25.4689 849.08 26.8484 849.624 28.4075C849.825 28.9772 849.992 29.5384 850.126 30.083C850.562 29.2034 850.897 28.4913 851.106 28.0975V28.0389C851.182 27.9384 851.266 27.7624 851.408 27.553C852.324 26.1291 853.577 24.9526 855.056 24.1271C856.534 23.3017 858.193 22.8527 859.886 22.8198H869.386L869.436 23.2303L869.503 24.068L869.687 26.6901C869.687 26.7571 869.796 28.4913 870.006 31.0296C870.006 31.482 870.048 31.9679 870.098 32.4622C870.098 32.6884 870.098 32.9145 870.098 33.1575L870.642 31.6998V31.616C871.084 30.2448 871.648 28.9159 872.326 27.6452C873.179 25.9847 874.49 24.6037 876.105 23.6659C877.392 22.9762 878.832 22.6191 880.293 22.6271H884.574H885.261H886.56H889.073H889.207H897.685C899.324 22.7011 900.93 23.1111 902.405 23.8317C903.879 24.5522 905.189 25.5679 906.255 26.8158C906.757 27.3771 907.277 28.0138 907.805 28.6169L912.253 26.1037C915.286 24.3445 918.813 22.669 923.445 22.669H948.284L947.011 23.5067ZM923.554 27.419C920.094 27.419 917.489 28.5834 914.666 30.2086L909.354 33.2078C908.693 33.568 908.148 33.8863 907.763 34.1125L907.126 34.4811L906.783 34.657L906.556 34.3722L906.071 33.8026C905.392 32.9648 903.934 31.2223 902.787 29.9154C902.122 29.155 901.317 28.5293 900.416 28.0724C899.589 27.6226 898.667 27.3757 897.727 27.3519H890.346C891.184 28.4243 892.583 30.0746 893.99 31.7752C895.909 34.0958 897.936 36.5001 898.891 37.6394L899.578 38.4771L899.922 38.8876L899.461 39.1473L898.531 39.6667L894.292 42.0459L893.454 42.4899L893.069 42.7161L892.868 42.3056L892.432 41.4679C891.159 38.9547 886.802 30.6275 884.934 27.3352C883.971 27.3352 881.215 27.3352 880.352 27.3352C879.677 27.3132 879.009 27.4723 878.417 27.7959C877.878 28.0893 877.416 28.5054 877.068 29.0107C876.663 29.5869 876.32 30.2048 876.046 30.8537C875.753 31.549 875.501 32.2779 875.208 33.0653L869.26 49.4767L869.143 49.8118H868.783L867.107 49.5772L866.764 49.5186V49.1667C866.605 47.131 866.403 44.4 866.194 41.5517V41.4511L866.152 40.8982L866.085 39.8929C865.675 34.4727 865.247 29.0023 865.172 27.3268H860.02C859.107 27.3575 858.215 27.6119 857.424 28.0676C856.632 28.5233 855.964 29.1665 855.479 29.9406L855.303 30.2757L855.144 30.5856C854.231 32.4538 851.86 37.4886 850.512 40.3788V40.4458L850.461 40.5212L849.414 42.758L848.895 43.8806L848.593 42.691L847.982 40.2783L846.088 32.7386L846.021 32.4035C845.861 31.503 845.617 30.6195 845.292 29.7646C845.039 29.0793 844.626 28.4645 844.086 27.9719C843.638 27.6554 843.121 27.4488 842.578 27.3687C841.869 27.2577 841.151 27.2072 840.434 27.2179H839.093H837.141C836.069 30.8286 828.228 57.3766 826.812 62.1266H829.275C830.299 62.1874 831.326 62.0654 832.307 61.7664C833.213 61.4462 833.984 60.8291 834.494 60.0155C835.135 58.9779 835.613 57.8476 835.91 56.6645L839.847 43.5622L840.827 40.2113L841.33 38.5358L841.699 40.2113L842.402 43.5622L843.24 47.3572L843.29 47.5331C843.466 48.4379 844.379 52.5596 844.681 53.8916C845.133 53.8916 845.519 53.9586 845.912 53.9586C846.73 54.0053 847.548 53.8804 848.314 53.5918C849.08 53.3032 849.777 52.8574 850.361 52.2831C851.361 51.131 852.168 49.8238 852.748 48.4128L852.815 48.3122L855.571 42.9758L857.079 40.0856L857.8 38.6363L857.892 40.2615L858.076 43.512C858.37 48.6473 858.989 59.6971 859.442 65.9132C859.785 65.9132 860.129 65.9132 860.472 65.9132C862.006 65.9507 863.534 65.7182 864.988 65.2262C866.213 64.8122 867.248 63.9705 867.903 62.8554L868.171 62.3695L868.314 62.1266H868.59H869.16H869.838C873.575 62.1266 876.473 60.5684 879.439 58.7756L888.26 53.4643L889.098 52.9449L889.534 52.6852L889.735 53.146L890.145 54.0591C890.463 54.7461 890.924 55.8016 891.175 56.4467L891.377 56.9661C891.87 58.4375 892.539 59.844 893.37 61.1548C893.754 61.7459 894.26 62.2485 894.853 62.6292C895.456 62.9966 896.15 63.1854 896.855 63.1738H903.649C902.56 61.0962 901.371 58.9851 900.215 56.9158C899.302 55.2404 897.701 52.2915 896.788 50.6244C896.671 50.4066 896.554 50.2055 896.47 50.0296L896.076 49.284L895.875 48.907L896.235 48.6892L896.964 48.262L903.164 44.5508L903.809 44.1738L904.127 43.9811L904.353 44.2743L904.856 44.844L905.266 45.3466C906.179 46.4692 907.78 48.3625 909.505 50.3731C912.194 53.6068 915.227 57.2342 916.534 58.7924C917.574 60.0942 918.857 61.1812 920.312 61.9925C921.869 62.8493 923.621 63.2881 925.397 63.2659H925.447H932.149C927.86 58.3149 915.235 44.157 912.312 40.8647L911.608 40.027L911.239 39.6332L911.7 39.3735L912.613 38.8206C915.688 36.9943 926.855 30.2924 931.664 27.419H923.554ZM886.308 46.9132L885.596 47.3153L877.529 51.9397L875.225 53.2633L874.086 53.9251L874.613 52.7104L875.677 50.2642L880.603 38.8458L881.399 37.0279L881.784 36.1147L882.195 37.0195L883.033 38.8206L886.157 45.6147L886.476 46.3435L886.66 46.7121" fill="#D1D1D4"/>
<path d="M939.412 25.3917L934.537 28.4076C932.149 29.8904 920.387 36.919 915.269 39.96L914.833 40.2197C919.147 45.0451 931.722 59.1778 934.662 62.6125L936.924 65.3017L937.175 65.5949H925.305C921.116 65.5949 917.606 63.8357 914.64 60.2669L905.769 49.6778L905.593 49.4935C904.755 48.505 904.06 47.6421 903.515 46.9803L898.958 49.703C899.888 51.3784 901.354 54.1514 902.217 55.6928C903.515 58.005 904.881 60.4596 906.112 62.8471L907.318 65.2179L907.461 65.4692H896.813C895.802 65.4773 894.803 65.2417 893.902 64.7824C893.001 64.3231 892.224 63.6535 891.636 62.8304C891.064 62.0427 890.57 61.201 890.161 60.3171C889.743 59.4794 889.407 58.5495 889.106 57.7537L888.963 57.3515C888.829 57.0248 888.645 56.5976 888.444 56.1536L880.645 60.8449C877.545 62.755 874.127 64.6231 869.637 64.5561C868.776 65.8039 867.563 66.7665 866.152 67.3207C863.813 68.1813 861.308 68.4909 858.83 68.2254L857.423 68.1249H857.247V67.9657L857.138 66.5667C856.769 61.7078 856.3 53.3555 855.931 47.4997L854.968 49.3595C854.556 50.2733 854.091 51.1628 853.577 52.0235C853.027 52.9324 852.34 53.7518 851.542 54.4529C849.866 55.8855 847.529 56.7232 843.952 56.229L842.812 56.1284H842.695V56.0112L842.444 54.8886C842.444 54.6205 841.237 49.3176 840.986 48.1866L838.213 57.4688C837.375 60.1328 836.337 62.9141 833.187 64.1121C832.504 64.3567 831.791 64.5061 831.067 64.5561C830.331 64.614 829.593 64.6336 828.856 64.6147H823.67L823.737 64.3802L824.348 62.2858C824.533 61.7162 834.879 26.6148 834.971 26.263L835.315 25.1153L835.356 24.9812H838.917C840.079 24.9267 841.244 24.9575 842.402 25.0734C843.478 25.1656 844.506 25.5606 845.367 26.2127C846.269 26.9344 846.948 27.8954 847.328 28.9856C847.732 30.0731 848.037 31.1946 848.241 32.3366L849.405 36.9693C850.344 34.9755 851.232 33.0822 851.919 31.6161C852.312 30.8203 852.631 30.1585 852.857 29.6726C852.991 29.4129 853.083 29.2118 853.175 29.061L853.351 28.7427C854.05 27.637 855.012 26.7212 856.151 26.0767C857.289 25.4321 858.569 25.0789 859.877 25.0482H867.216V25.2242L867.333 26.7321C867.333 26.9667 868.062 36.6677 868.606 44.1152L872.87 32.3366C873.122 31.6161 873.415 30.7951 873.758 29.9909C874.127 29.158 874.59 28.3708 875.141 27.6452C875.718 26.8219 876.489 26.154 877.387 25.701C878.284 25.2479 879.279 25.0236 880.284 25.0482H885.236H886.308H889.039H897.609C898.918 25.109 900.201 25.4378 901.379 26.0142C902.556 26.5906 903.602 27.4023 904.453 28.3992C905.358 29.4212 906.456 30.7281 907.209 31.6413C909.12 30.5689 912.496 28.6757 913.358 28.1646C915.964 26.6735 919.131 25.0566 923.411 25.0566H939.94L939.412 25.3917ZM896.109 38.2427C894.032 35.7294 890.245 31.2475 888.452 29.0275C890.295 32.4287 892.708 37.0866 893.99 39.5412L896.151 38.3181L896.109 38.2427ZM881.792 41.9622L879.028 48.2956L883.501 45.7321" fill="white"/>
<path d="M934.058 27.6459C931.411 29.2711 917.194 37.7658 913.408 40.0277C916.759 43.7724 930.824 59.5555 933.966 63.2331L935.197 64.6908H933.287H925.304C923.283 64.7141 921.289 64.2179 919.515 63.2499C917.906 62.3388 916.485 61.1306 915.326 59.6895C913.089 57.0087 905.684 48.1622 903.698 45.8165L897.725 49.4272C898.563 50.9351 900.389 54.3698 901.42 56.2045C902.718 58.5334 904.084 60.9629 905.29 63.3253L905.952 64.607H904.494H896.812C895.868 64.6157 894.939 64.3697 894.123 63.8949C893.379 63.4394 892.735 62.8382 892.23 62.1273C891.732 61.4067 891.297 60.6443 890.931 59.8487C890.571 59.0109 890.253 58.1732 889.951 57.4276L889.817 57.0841C889.591 56.5061 889.18 55.5846 888.879 54.8976L880.2 60.1167C877.05 62.0603 873.682 63.9033 869.142 63.6939C868.653 64.4955 868.011 65.1924 867.251 65.7445C866.492 66.2967 865.631 66.693 864.718 66.9108C862.803 67.3924 860.821 67.5482 858.854 67.3716H858.1L858.033 66.6092C857.572 60.678 856.961 49.6617 856.642 44.1829L854.129 49.0502C853.694 49.8879 853.291 50.7927 852.789 51.6137C852.274 52.4625 851.636 53.2304 850.896 53.8923C850.081 54.5926 849.11 55.0868 848.064 55.3332C846.749 55.6305 845.389 55.6703 844.06 55.4505L843.44 55.3751L843.306 54.7803C843.239 54.462 841.798 47.8438 841.798 47.8438L841.069 44.5515L837.282 57.3103C836.94 58.6226 836.404 59.8764 835.69 61.0299C835.003 62.1001 833.985 62.9175 832.792 63.3588C832.155 63.5845 831.489 63.7171 830.815 63.7525C830.153 63.8028 829.441 63.7525 828.737 63.7525H826.082H824.9L825.235 62.6132C825.328 62.2614 829.064 49.578 832.097 39.3659L832.189 39.0392C834.174 32.3372 835.841 26.7411 835.858 26.6071L836.042 25.9788H838.916C839.963 25.9307 841.013 25.9502 842.057 26.0374C843.048 26.099 844.003 26.4355 844.814 27.0092C845.615 27.6888 846.215 28.5755 846.548 29.5727C846.909 30.559 847.189 31.5732 847.385 32.6053L849.203 39.7764C849.706 38.6789 850.343 37.305 851.004 35.9144C851.733 34.3813 852.462 32.8231 853.057 31.6084C853.333 31.0052 853.585 30.4942 853.761 30.1172L854.012 29.6313L854.104 29.4722L854.171 29.3297C854.782 28.3451 855.624 27.5245 856.624 26.9391C857.624 26.3537 858.752 26.0212 859.91 25.9704H866.377L866.427 26.8081C866.427 27.0846 867.5 41.2592 868.044 48.4721L873.766 32.6723C874.042 31.9016 874.319 31.1058 874.604 30.3685C874.914 29.608 875.31 28.8857 875.785 28.2155C876.292 27.5 876.968 26.9206 877.753 26.529C878.537 26.1373 879.407 25.9454 880.283 25.9704C881.339 25.9704 885.209 26.0123 885.209 26.0123H885.729L885.98 26.4563C887.002 28.2658 889.013 32.0608 890.764 35.3866C891.953 37.6485 893.017 39.7094 893.587 40.7984L897.566 38.5365C896.728 37.5815 895.329 35.8893 893.846 34.1132C891.568 31.3738 889.105 28.3831 888.359 27.4113L887.262 25.9704H889.08H897.608C898.779 26.0021 899.926 26.3062 900.959 26.8584C902.016 27.3972 902.96 28.1338 903.74 29.0282C904.854 30.3015 906.253 31.9854 906.974 32.8483C908.591 31.9351 912.838 29.5811 913.818 28.9946C916.725 27.2857 919.557 25.9704 923.427 25.9704H936.722L934.058 27.6459ZM881.766 39.701L877.117 50.466L884.707 46.1097" fill="#ED1C38"/>
<path d="M883.527 45.7314L879.028 48.2948L881.767 41.9615L883.527 45.7314ZM896.093 38.2755L893.931 39.4986C892.65 37.044 890.237 32.3861 888.394 28.9849C890.22 31.2301 893.973 35.7455 896.051 38.2001L896.093 38.2755ZM915.269 39.9509C920.354 36.9099 932.116 29.898 934.537 28.3985L939.412 25.3826L939.94 25.0559H923.428C919.147 25.0559 915.981 26.6727 913.375 28.1639C912.538 28.6749 909.136 30.5682 907.226 31.6405C906.472 30.7274 905.375 29.4205 904.47 28.3985C903.618 27.4027 902.571 26.5918 901.394 26.0155C900.217 25.4392 898.935 25.1098 897.626 25.0475H889.056H886.325H885.252H880.301C879.296 25.0229 878.301 25.2472 877.403 25.7002C876.506 26.1533 875.734 26.8212 875.158 27.6445C874.617 28.3823 874.164 29.1808 873.809 30.0237C873.465 30.8614 873.172 31.6489 872.921 32.361L868.64 44.1313C868.095 36.6838 867.383 26.9743 867.367 26.7481L867.249 25.2402V25.0643H859.911C858.604 25.0947 857.324 25.4471 856.186 26.09C855.048 26.733 854.085 27.6467 853.385 28.7503L853.209 29.0687C853.117 29.2279 853.024 29.4289 852.89 29.6802C852.664 30.1745 852.346 30.8363 851.952 31.6238C851.248 33.0982 850.36 34.9748 849.439 36.9937L848.274 32.3443C848.071 31.2022 847.765 30.0808 847.361 28.9933C846.981 27.9031 846.302 26.942 845.401 26.2204C844.525 25.5803 843.485 25.2026 842.402 25.1313C841.707 25.0515 841.007 25.0151 840.307 25.0224H838.917H835.356L835.315 25.1564L834.971 26.3041C834.879 26.6309 824.533 61.7322 824.348 62.327L823.737 64.3879L823.67 64.6224H826.083H828.227H828.772H829.157C829.794 64.6224 830.439 64.6224 831.05 64.5638C831.765 64.5043 832.469 64.3522 833.145 64.1114C836.337 62.9134 837.384 60.1321 838.171 57.4765L840.927 48.1524C841.179 49.275 842.343 54.5779 842.385 54.8544L842.636 55.9769V56.0942H842.754L843.893 56.245C844.543 56.3338 845.198 56.3814 845.853 56.3874C847.926 56.4851 849.959 55.7936 851.542 54.4522C852.339 53.7453 853.022 52.9203 853.569 52.006C854.085 51.1462 854.549 50.2567 854.96 49.342L855.923 47.4906C856.266 53.3548 856.761 61.7322 857.129 66.5409L857.238 67.9483V68.1074H857.406L858.788 68.208C859.408 68.208 859.978 68.2666 860.522 68.2666C862.438 68.3126 864.344 67.9854 866.135 67.3032C867.549 66.742 868.768 65.7814 869.645 64.5387H869.813C874.194 64.5387 877.562 62.704 880.594 60.8275L888.394 56.1361C888.595 56.5801 888.779 56.9738 888.896 57.3257L889.081 57.8032C889.382 58.6409 889.717 59.4787 890.136 60.3667C890.545 61.2505 891.038 62.0923 891.611 62.8799C892.196 63.7077 892.972 64.3821 893.873 64.8459C894.774 65.3097 895.774 65.5492 896.788 65.5439H907.436L907.293 65.2842L906.112 62.8297C904.881 60.4421 903.515 57.9875 902.217 55.6753C901.379 54.1255 899.888 51.4029 898.958 49.6855L903.515 46.9712C904.06 47.6079 904.772 48.4708 905.593 49.4844L905.769 49.6771L914.64 60.3164C917.606 63.8852 921.091 65.6445 925.305 65.6445H937.184L936.933 65.3513L934.671 62.6621C931.73 59.2274 919.156 45.0695 914.841 40.2693L915.277 40.0096" fill="#1B2728"/>
<path d="M923.428 26.8756C919.834 26.8756 917.145 28.0903 914.288 29.7407L906.815 33.9294C906.815 33.9294 904.671 31.3492 903.121 29.5648C902.434 28.7594 901.592 28.1004 900.645 27.627C899.698 27.1535 898.665 26.8752 897.609 26.8086H889.039C890.521 28.7103 898.907 38.7213 898.907 38.7213L893.269 41.9885C893.269 41.9885 887.296 30.4528 885.244 26.9091C885.244 26.9091 881.373 26.9091 880.318 26.9091C876.833 26.9091 875.693 29.992 874.646 33.0414L867.492 52.7534C867.492 52.7534 865.615 27.328 865.599 26.951H859.944C858.934 26.9828 857.947 27.2622 857.071 27.7647C856.195 28.2672 855.455 28.9774 854.917 29.8328C854.574 30.3355 848.944 42.399 848.944 42.399L846.506 32.8152C846.071 30.746 845.669 28.794 844.295 27.705C843.114 26.7835 841.103 26.8253 838.942 26.8672H836.73C836.638 27.2023 826.267 62.2869 826.107 62.8901H828.252C829.69 63.0079 831.138 62.8804 832.533 62.5131C834.719 61.6754 835.633 59.8826 836.504 57.0427L841.262 40.9748L842.72 47.6767L844.228 54.5881C850.092 55.4258 851.726 52.1251 853.393 48.6653L857.38 40.8994C857.38 40.8994 858.335 58.492 858.955 66.551C862.491 66.7856 866.956 66.3416 868.573 62.9823L868.64 62.8398H868.799C873.222 63.1666 876.506 61.4073 879.74 59.4302L889.248 53.6163C889.248 53.6163 890.203 55.7023 890.613 56.7411C891.887 60.0083 893.194 63.7446 896.813 63.7446H904.495C903.305 61.3989 901.982 58.9862 900.641 56.6489C899.301 54.3116 896.561 49.1093 896.561 49.1093L903.9 44.7195L916.031 59.1789C918.242 61.8513 921.158 63.8535 925.304 63.8535H933.288C929.728 59.6648 912.043 39.8606 912.043 39.8606C912.043 39.8606 930.549 28.8024 933.581 26.9343L923.428 26.8756ZM881.742 37.5317L885.847 46.4788L875.274 52.5608" fill="#ED1C38"/>
<path d="M855.278 7.95924C854.906 8.07215 854.525 8.14792 854.138 8.18543C853.883 8.2211 853.625 8.2379 853.367 8.23569C852.865 8.23569 852.32 8.1938 851.792 8.15192C851.307 8.11003 850.854 8.07652 850.393 8.07652C850.113 8.0798 849.834 8.09938 849.556 8.13516C849.049 8.1991 848.552 8.31995 848.073 8.49539V8.42837C848.174 7.59996 848.546 6.82807 849.13 6.23269C849.715 5.63731 850.48 5.25179 851.307 5.13605H851.792C852.606 5.1723 853.387 5.46134 854.029 5.96289C854.67 6.46444 855.139 7.15352 855.37 7.9341V7.97599L855.278 7.95924ZM857.221 8.65456L857.171 8.1938C857.134 7.8566 857.058 7.52483 856.945 7.20527C856.625 6.07032 855.947 5.06961 855.01 4.35355C854.073 3.63749 852.93 3.24476 851.751 3.23438C851.507 3.2362 851.263 3.2558 851.022 3.29302C850.288 3.38821 849.581 3.62928 848.942 4.00202C848.302 4.37477 847.744 4.87164 847.3 5.46339C846.856 6.05514 846.535 6.72979 846.355 7.44762C846.176 8.16544 846.142 8.91192 846.255 9.6431C846.401 10.9854 847.043 12.225 848.054 13.119C849.066 14.0131 850.375 14.4973 851.725 14.4769C851.969 14.4778 852.213 14.461 852.454 14.4266C853.191 14.354 853.906 14.1368 854.559 13.7875C855.211 13.4382 855.789 12.9636 856.258 12.3909L856.333 12.1563L856.216 11.9636C856.031 11.8464 855.462 11.5615 855.118 11.4024L854.917 11.3018L854.691 11.2264L854.465 11.3521C853.89 12.0175 853.091 12.4495 852.22 12.5668H851.742C850.996 12.5644 850.268 12.3368 849.654 11.9138C849.04 11.4907 848.567 10.892 848.299 10.196V10.1541C848.871 9.90115 849.492 9.77539 850.117 9.78551H850.511L851.424 9.88604C852.048 9.98221 852.678 10.0354 853.309 10.0452C853.738 10.0437 854.166 10.0129 854.591 9.95306C855.44 9.82708 856.258 9.54293 857.003 9.11532C857.229 8.95615 857.229 8.82211 857.213 8.58754" fill="white"/>
<path d="M884.047 3.85345L883.795 3.59375H882.363L882.111 3.85345V13.9315L882.363 14.1912H883.795L884.047 13.9315" fill="white"/>
<path d="M883.091 4.50598e-09C882.75 -2.84254e-05 882.422 0.134475 882.179 0.374379C881.936 0.614283 881.797 0.940273 881.793 1.28174C881.819 1.60487 881.966 1.90633 882.204 2.12614C882.442 2.34594 882.755 2.46799 883.079 2.46799C883.403 2.46799 883.715 2.34594 883.954 2.12614C884.192 1.90633 884.339 1.60487 884.365 1.28174C884.363 0.943919 884.228 0.620421 883.99 0.380755C883.752 0.14109 883.429 0.0043805 883.091 4.50598e-09Z" fill="white"/>
<path d="M864.309 5.13534C864.794 5.14066 865.273 5.24277 865.718 5.43568C866.163 5.62859 866.565 5.90842 866.901 6.25876C867.236 6.6091 867.498 7.0229 867.672 7.47589C867.845 7.92889 867.927 8.41196 867.911 8.89679C867.937 9.3728 867.867 9.84916 867.704 10.2972C867.541 10.7453 867.289 11.1558 866.964 11.504C866.638 11.8523 866.246 12.1311 865.809 12.3237C865.373 12.5163 864.903 12.6187 864.426 12.6247C863.461 12.6364 862.528 12.2765 861.821 11.6195C861.468 11.2745 861.189 10.8609 861.002 10.4042C860.814 9.94752 860.723 9.45734 860.732 8.96381C860.702 7.98282 861.062 7.02995 861.732 6.31283C862.402 5.59571 863.328 5.17247 864.309 5.13534ZM864.259 14.4594H864.535C865.243 14.4638 865.945 14.3268 866.6 14.0563C867.254 13.7859 867.848 13.3875 868.347 12.8844C868.858 12.354 869.259 11.728 869.528 11.0423C869.797 10.3567 869.928 9.62475 869.913 8.88842C869.929 8.14851 869.797 7.41294 869.524 6.72492C869.251 6.0369 868.844 5.41031 868.326 4.88195C867.807 4.35359 867.189 3.93413 866.506 3.64819C865.824 3.36226 865.091 3.21563 864.351 3.21691C863.117 3.20902 861.916 3.61854 860.945 4.37896C859.973 5.13937 859.287 6.206 858.998 7.40561C858.832 8.25543 858.756 9.12024 858.771 9.98586V17.8941L859.023 18.1538H860.43L860.681 17.8858V12.9012L860.748 12.9682C861.713 13.8526 862.952 14.379 864.259 14.4594Z" fill="white"/>
<path d="M839.051 5.13577C839.536 5.14222 840.015 5.2451 840.459 5.4384C840.904 5.6317 841.305 5.91156 841.641 6.26167C841.976 6.61177 842.238 7.02512 842.412 7.47761C842.586 7.9301 842.668 8.41268 842.654 8.89722C842.68 9.37323 842.609 9.84959 842.446 10.2976C842.284 10.7457 842.032 11.1562 841.706 11.5044C841.381 11.8527 840.988 12.1315 840.552 12.3241C840.116 12.5167 839.645 12.6191 839.169 12.6252C838.203 12.6368 837.271 12.2769 836.563 11.6199C836.209 11.2756 835.929 10.8624 835.74 10.4056C835.551 9.94892 835.458 9.45837 835.466 8.96424C835.436 7.98325 835.796 7.03038 836.466 6.31326C837.136 5.59614 838.062 5.1729 839.043 5.13577M839.043 14.4598H839.311C840.019 14.4643 840.721 14.3272 841.376 14.0568C842.03 13.7863 842.624 13.3879 843.123 12.8849C844.149 11.8137 844.709 10.3801 844.681 8.89722C844.729 7.52021 844.263 6.17455 843.376 5.12089C842.488 4.06723 841.241 3.38056 839.875 3.19388C838.51 3.00721 837.124 3.33382 835.986 4.11044C834.848 4.88707 834.039 6.05844 833.715 7.39767C833.565 8.24931 833.498 9.11337 833.514 9.97791V17.8862L833.765 18.1459H835.181L835.424 17.8778V12.9016L835.499 12.9686C836.459 13.8608 837.701 14.3884 839.01 14.4598" fill="white"/>
<path d="M871.287 12.6923C871.849 13.2545 872.516 13.6995 873.251 14.0015C873.986 14.3035 874.774 14.4565 875.568 14.4516H875.677C878.668 14.4516 880.008 12.7761 880.008 11.1844C880.008 8.95602 877.889 8.34447 877.252 8.21043L876.615 8.08477C876.087 7.98424 875.543 7.87533 875.065 7.74129C874.722 7.64914 873.583 7.27216 873.583 6.43442C873.583 5.59668 874.563 5.02701 875.543 5.02701C876.403 4.99962 877.241 5.29896 877.889 5.86475L878.165 5.97366L878.416 5.88151C878.761 5.62414 879.089 5.34428 879.397 5.04377L879.489 4.81758L879.33 4.55788C878.261 3.66095 876.895 3.19758 875.501 3.25938C873.248 3.25938 871.555 4.70029 871.555 6.61034C871.555 8.12666 872.787 9.20734 875.065 9.65135L876.481 9.91942C877.394 10.087 877.914 10.5896 877.914 11.2766C877.914 11.9635 877.076 12.6505 875.71 12.6505C874.63 12.6432 873.593 12.2237 872.812 11.4776L872.586 11.3603L872.376 11.4525L871.237 12.3154L871.17 12.4745L871.287 12.6923Z" fill="white"/>
<path d="M947.212 64.8083C947.317 64.8083 947.417 64.8498 947.491 64.9236C947.565 64.9975 947.606 65.0976 947.606 65.2021C947.606 65.3065 947.565 65.4066 947.491 65.4805C947.417 65.5543 947.317 65.5958 947.212 65.5958H946.668V64.8083H947.212ZM947.514 66.1152C947.712 66.0675 947.886 65.9494 948.003 65.7829C948.12 65.6164 948.173 65.4129 948.151 65.2104C948.159 65.0839 948.141 64.957 948.097 64.8381C948.053 64.7191 947.984 64.6107 947.896 64.5199C947.808 64.429 947.701 64.3578 947.583 64.3108C947.465 64.2638 947.339 64.2421 947.212 64.247H946.048V67.1708H946.618V66.1822H946.802L947.531 67.1959H948.234L947.514 66.1152ZM947.053 68.1174C947.533 68.1224 948.004 67.9846 948.405 67.7217C948.806 67.4587 949.121 67.0823 949.308 66.6404C949.495 66.1984 949.546 65.7109 949.456 65.2396C949.365 64.7683 949.137 64.3346 948.799 63.9935C948.462 63.6523 948.03 63.4193 947.56 63.3238C947.09 63.2283 946.602 63.2748 946.158 63.4572C945.714 63.6397 945.334 63.95 945.067 64.3487C944.8 64.7473 944.657 65.2164 944.657 65.6963C944.653 66.0134 944.712 66.3281 944.83 66.6223C944.949 66.9164 945.124 67.1839 945.348 67.4093C945.571 67.6347 945.836 67.8134 946.129 67.9349C946.422 68.0565 946.736 68.1185 947.053 68.1174ZM947.053 62.7559C947.831 62.7559 948.577 63.0648 949.127 63.6146C949.676 64.1645 949.985 64.9103 949.985 65.688C949.985 66.4656 949.676 67.2114 949.127 67.7613C948.577 68.3111 947.831 68.62 947.053 68.62C946.276 68.62 945.53 68.3111 944.98 67.7613C944.43 67.2114 944.121 66.4656 944.121 65.688C944.121 64.9103 944.43 64.1645 944.98 63.6146C945.53 63.0648 946.276 62.7559 947.053 62.7559Z" fill="white"/>
<path d="M817.035 36.5253C817.035 43.1529 815.07 49.6316 811.388 55.1422C807.705 60.6529 802.472 64.9479 796.349 67.4842C790.226 70.0204 783.488 70.684 776.988 69.3911C770.488 68.0981 764.517 64.9066 759.83 60.2202C755.144 55.5338 751.952 49.5629 750.66 43.0627C749.367 36.5625 750.03 29.8248 752.566 23.7017C755.103 17.5786 759.398 12.3451 764.908 8.66302C770.419 4.98093 776.898 3.01563 783.525 3.01562C792.413 3.01563 800.936 6.5461 807.22 12.8304C813.504 19.1147 817.035 27.638 817.035 36.5253Z" fill="white"/>
<path d="M783.526 66.8014C788.927 66.8002 794.229 65.3542 798.883 62.6135C803.537 59.8727 807.373 55.9368 809.993 51.2141C812.613 46.4913 813.923 41.1536 813.785 35.7544C813.648 30.3552 812.068 25.091 809.211 20.5078C810.374 24.6832 810.231 29.1148 808.801 33.2065C807.371 37.2982 804.722 40.8537 801.21 43.3949C792.054 50.1471 778.717 50.189 760.32 55.961C763.156 59.3602 766.705 62.0935 770.715 63.967C774.726 65.8405 779.099 66.8082 783.526 66.8014Z" fill="#00528A"/>
<path d="M801.486 12.1632C795.849 8.00382 788.944 5.9283 781.949 6.29051C774.953 6.65272 768.3 9.43022 763.123 14.1494C757.946 18.8687 754.566 25.2374 753.56 32.1698C752.554 39.1022 753.983 46.169 757.605 52.1653C778.414 46.4854 795.303 32.6208 801.486 12.1632Z" fill="#ED1C38"/>
</g>
<defs>
<clipPath id="clip0_47_13575">
<rect width="199.874" height="48.0781" fill="white" transform="translate(250.031 11.9844)"/>
</clipPath>
<clipPath id="clip1_47_13575">
<rect width="199.952" height="72.0625" fill="white" transform="translate(750.016)"/>
</clipPath>
</defs>
</svg>
