<svg width="80" height="24" viewBox="0 0 80 24" fill="none" xmlns="http://www.w3.org/2000/svg">
<g clip-path="url(#clip0_47_75104)">
<g clip-path="url(#clip1_47_75104)">
<path d="M18.2002 5.39844V3.39844H20.2002V5.39844H18.2002ZM18.2002 9.39844V7.39844H20.2002V9.39844H18.2002ZM18.2002 13.3984V11.3984H20.2002V13.3984H18.2002ZM18.2002 17.3984V15.3984H20.2002V17.3984H18.2002ZM22.2002 5.39844V3.39844H34.2002V5.39844H22.2002ZM22.2002 9.39844V7.39844H34.2002V9.39844H22.2002ZM22.2002 13.3984V11.3984H34.2002V13.3984H22.2002ZM22.2002 17.3984V15.3984H34.2002V17.3984H22.2002Z" fill="#333333"/>
</g>
</g>
<g clip-path="url(#clip2_47_75104)">
<path d="M47.5879 6.20292V3.39844H50.3924V6.20292H47.5879ZM53.1857 6.20292V3.39844H55.9901V6.20292H53.1857ZM58.7834 6.20292V3.39844H61.5879V6.20292H58.7834ZM47.5879 11.8007V8.9955H50.3924V11.8007H47.5879ZM53.1857 11.8007V8.9962H55.9901V11.8007H53.1857ZM58.7834 11.8007V8.9955H61.5879V11.8007H58.7834ZM47.5879 17.3977V14.5933H50.3924V17.3977H47.5879ZM53.1857 17.3977V14.5933H55.9901V17.3977H53.1857ZM58.7834 17.3977V14.5933H61.5879V17.3977H58.7834Z" fill="#B3B3B3"/>
</g>
<path d="M0.8 24V0H-0.8V24H0.8Z" fill="#E6E6E6" mask="url(#path-1-inside-1_47_75104)"/>
<defs>
<clipPath id="clip0_47_75104">
<rect width="16" height="16" fill="white" transform="translate(18.2002 2.39844)"/>
</clipPath>
<clipPath id="clip1_47_75104">
<rect width="16" height="16" fill="white" transform="translate(18.2002 2.39844)"/>
</clipPath>
<clipPath id="clip2_47_75104">
<rect width="16" height="16" fill="white" transform="translate(46.5879 2.39844)"/>
</clipPath>
</defs>
</svg>
