<svg width="30" height="30" viewBox="0 0 30 30" fill="none" xmlns="http://www.w3.org/2000/svg">
<g clip-path="url(#clip0_47_44615)">
<path d="M7.59369 4.37891C7.59369 4.37891 6.65619 2.50391 5.33431 2.50391C4.01244 2.50391 1.19056 4.21016 1.87494 9.42266C1.87494 9.42266 5.30619 10.5758 7.31244 9.01016C7.34056 9.01016 5.71869 6.29141 7.59369 4.37891Z" fill="#827420"/>
<path d="M6.70301 4.34922C6.70301 4.34922 6.01864 2.74609 5.00614 2.74609C3.99364 2.74609 1.87489 4.19922 2.42801 8.57734C2.42801 8.57734 5.00614 9.51484 6.50614 8.23984C6.50614 8.23984 5.29676 5.95234 6.70301 4.34922Z" fill="#E3D146"/>
<path d="M13.1249 3.27187C14.7961 4.03984 16.2564 5.20105 17.3811 6.65625C18.6936 8.70937 21.178 11.7938 25.1624 11.0719C25.1624 11.0719 25.6218 0.553125 13.5843 0.375C13.5843 0.375 10.6405 2.30625 13.1249 3.27187Z" fill="#998522"/>
<path d="M14.8221 0.478156C14.8221 0.478156 13.5002 3.37503 11.2502 4.04066C9.00021 4.70628 4.68771 6.45941 3.99396 9.05628C3.94709 9.05628 5.13771 -1.03122 14.8221 0.478156Z" fill="#827420"/>
<path d="M6.24365 7.05977C7.74518 7.05977 8.9624 5.81736 8.9624 4.28477C8.9624 2.75218 7.74518 1.50977 6.24365 1.50977C4.74213 1.50977 3.5249 2.75218 3.5249 4.28477C3.5249 5.81736 4.74213 7.05977 6.24365 7.05977Z" fill="#B74F88"/>
<path d="M6.24395 6.23398C7.3209 6.23398 8.19395 5.33995 8.19395 4.23711C8.19395 3.13427 7.3209 2.24023 6.24395 2.24023C5.16699 2.24023 4.29395 3.13427 4.29395 4.23711C4.29395 5.33995 5.16699 6.23398 6.24395 6.23398Z" fill="#ED5A9D"/>
<path d="M19.9405 17.0148C20.9618 17.3825 21.8773 17.9954 22.6063 18.7996C23.3354 19.6039 23.8558 20.5749 24.1217 21.6273C24.4146 22.794 24.39 24.0178 24.0504 25.1718C23.7108 26.3257 23.0686 27.3678 22.1905 28.1898C21.0715 28.9833 19.7163 29.3733 18.3467 29.2961C15.1592 29.2961 11.9998 28.1711 8.81234 27.018C7.71526 26.6891 6.6796 26.1824 5.74672 25.518C5.23878 25.1414 4.81124 24.6671 4.48925 24.1229C4.16725 23.5788 3.95729 22.9757 3.87172 22.3492C3.81683 21.4672 3.99082 20.5859 4.37683 19.7909C4.76284 18.9959 5.34775 18.3141 6.07484 17.8117C8.17244 16.3263 10.686 15.542 13.2561 15.5711C15.5451 15.7066 17.7996 16.1935 19.9405 17.0148Z" fill="#C98C75"/>
<path d="M19.1343 17.231C20.0381 17.5424 20.8522 18.0698 21.5058 18.7675C22.1593 19.4652 22.6325 20.3119 22.8843 21.2341C23.1481 22.2578 23.124 23.3344 22.8147 24.3452C22.5053 25.356 21.9227 26.2616 21.1312 26.9623C20.1085 27.6456 18.8901 27.9749 17.6624 27.8998C14.7749 27.8998 11.9156 26.9623 9.02805 25.9216C8.02778 25.6381 7.07858 25.1983 6.21555 24.6185C5.76285 24.2967 5.37996 23.8866 5.08994 23.413C4.79993 22.9393 4.6088 22.4118 4.52805 21.8623C4.47757 21.0766 4.63989 20.2918 4.99791 19.5906C5.35593 18.8894 5.89641 18.2977 6.56243 17.8779C8.49957 16.5742 10.7903 15.8968 13.1249 15.9373C15.1811 16.0681 17.2064 16.5042 19.1343 17.231Z" fill="#FAEACF"/>
<path d="M16.678 18.0844C13.8094 19.4644 11.4051 21.6504 9.75922 24.375C9.75922 24.375 8.70921 20.3813 9.31859 17.4844C9.31859 17.475 13.3967 19.2938 16.678 18.0844Z" fill="#FAEACF"/>
<path d="M6.5625 17.5039C6.5625 17.5039 8.12813 21.4414 10.0031 21.807C11.8781 22.1727 15.2063 22.8289 19.4531 18.6852L6.5625 17.5039Z" fill="#E8CCAA"/>
<path opacity="0.28" d="M21.3582 25.1721C22.0323 23.0937 21.4209 21.0333 19.9926 20.5701C18.5643 20.1068 16.86 21.4162 16.1859 23.4946C15.5118 25.5729 16.1232 27.6333 17.5515 28.0966C18.9797 28.5598 20.6841 27.2505 21.3582 25.1721Z" fill="white"/>
<path d="M23.6756 10.7914C23.6956 5.34967 19.3046 0.922152 13.8681 0.902226C8.43154 0.8823 4.00821 5.27751 3.98826 10.7192C3.96832 16.1609 8.35932 20.5884 13.7958 20.6083C19.2323 20.6283 23.6557 16.2331 23.6756 10.7914Z" fill="#A67A65"/>
<path d="M23.2252 10.0852C23.2446 4.80918 18.9916 0.516484 13.7259 0.497184C8.46027 0.477885 4.17593 4.73929 4.1566 10.0153C4.13726 15.2913 8.39024 19.584 13.6559 19.6033C18.9215 19.6226 23.2059 15.3612 23.2252 10.0852Z" fill="#E5A98C"/>
<path d="M23.1054 9.81833C23.1239 4.75461 19.1599 0.635062 14.2515 0.617071C9.34313 0.599081 5.34904 4.68946 5.33048 9.75319C5.31192 14.8169 9.27592 18.9365 14.1843 18.9544C19.0927 18.9724 23.0868 14.8821 23.1054 9.81833Z" fill="#E8CCAA"/>
<path d="M18.2399 11.0702C18.2535 7.37853 15.3641 4.37523 11.7864 4.36211C8.20861 4.349 5.29731 7.33105 5.28378 11.0227C5.27025 14.7144 8.15961 17.7177 11.7374 17.7308C15.3151 17.7439 18.2264 14.7618 18.2399 11.0702Z" fill="#FAEACF"/>
<path d="M14.8356 11.7842C14.8377 11.2095 14.4449 10.7421 13.9582 10.7404C13.4715 10.7386 13.0753 11.203 13.0732 11.7777C13.071 12.3525 13.4639 12.8198 13.9506 12.8216C14.4373 12.8234 14.8335 12.3589 14.8356 11.7842Z" fill="#425763"/>
<path d="M14.3108 11.4149C14.3114 11.27 14.211 11.1521 14.0868 11.1516C13.9625 11.1512 13.8614 11.2683 13.8608 11.4133C13.8603 11.5583 13.9606 11.6762 14.0849 11.6766C14.2091 11.6771 14.3103 11.5599 14.3108 11.4149Z" fill="white"/>
<path d="M7.78779 10.2315C7.78989 9.65675 7.39705 9.1894 6.91036 9.18762C6.42366 9.18584 6.0274 9.65029 6.0253 10.225C6.02319 10.7997 6.41603 11.2671 6.90273 11.2689C7.38943 11.2706 7.78568 10.8062 7.78779 10.2315Z" fill="#425763"/>
<path d="M7.27274 9.8622C7.27327 9.71722 7.17296 9.59933 7.0487 9.59887C6.92444 9.59842 6.82327 9.71557 6.82274 9.86055C6.82221 10.0055 6.92251 10.1234 7.04678 10.1239C7.17104 10.1243 7.27221 10.0072 7.27274 9.8622Z" fill="white"/>
<path d="M20.1655 11.5217C20.1655 11.5217 20.9624 10.903 21.6093 11.1467C22.2562 11.3905 22.1624 13.4436 20.5124 13.6686L20.1655 11.5217Z" fill="#FAEACF"/>
<path d="M12.0001 16.2369C11.4466 16.1527 10.9202 15.9408 10.4626 15.6181C10.0773 15.3086 9.58541 15.1637 9.09387 15.215C8.97199 15.215 8.77512 15.0275 8.57824 14.9244C8.38137 14.8212 8.06262 14.8025 8.04387 14.9244C8.02512 15.0462 8.30637 15.5244 8.30637 15.5244C8.33167 15.7298 8.33167 15.9376 8.30637 16.1431C8.28311 16.2546 8.28216 16.3695 8.30355 16.4813C8.32494 16.5932 8.36827 16.6997 8.43102 16.7946C8.49377 16.8896 8.57471 16.9713 8.66916 17.0348C8.76362 17.0984 8.86973 17.1426 8.98137 17.165C9.46637 17.3131 9.98834 17.2832 10.4532 17.0806C10.7626 16.9494 12.0001 16.2369 12.0001 16.2369Z" fill="#B74F88"/>
<path d="M12.5249 3.25234C14.0935 4.03899 15.443 5.20169 16.453 6.63672C17.653 8.68984 19.9499 11.7742 23.6343 11.043C23.6343 11.043 24.0655 0.533594 12.9468 0.355469C12.9468 0.355469 10.228 2.28672 12.5249 3.25234Z" fill="#E3D146"/>
<path d="M14.0623 0.497544C14.0623 0.497544 12.8529 3.67567 10.7342 4.34129C8.61543 5.00692 4.6123 6.76004 4.00293 9.37567C4.00293 9.37567 5.09043 -1.01183 14.0623 0.497544Z" fill="#E3D146"/>
<path d="M11.0156 2.46551C11.8362 4.7323 13.2536 6.73545 15.1183 8.26346C16.9829 9.79147 19.2255 10.7876 21.6094 11.1468L23.3344 11.0436L18.2625 2.88738C18.2625 2.88738 14.0625 0.478008 11.0156 2.46551Z" fill="#E3D146"/>
<path d="M19.2656 8.30547C19.2656 8.30547 20.3906 5.93359 22.0781 5.93359C23.625 5.93359 26.625 7.72422 26.475 12.9555C26.4614 13.438 26.2797 13.9007 25.9614 14.2635C25.643 14.6264 25.2079 14.8667 24.7312 14.943C23.2688 15.1773 21.1031 15.243 19.5938 14.0617C19.5938 14.0617 21.5625 10.6773 19.2656 8.30547Z" fill="#827420"/>
<path d="M12.3843 2.30547C12.3843 2.30547 13.9124 9.43984 22.6968 10.4805C22.6968 10.4805 22.6968 1.90234 14.0437 1.10547C13.9968 1.14297 12.3843 1.65859 12.3843 2.30547Z" fill="#FFEF92"/>
<path d="M6.10303 5.16532C6.10303 5.16532 7.9124 1.37782 11.2499 1.21845C14.5874 1.05907 15.0843 1.05907 15.1218 1.62157C15.1593 2.18407 15.5624 2.6247 13.5468 2.55907C11.5312 2.49345 7.63115 3.39345 6.10303 5.16532Z" fill="#FFEF92"/>
<path d="M21.5811 10.6789C23.0826 10.6789 24.2998 9.4365 24.2998 7.90391C24.2998 6.37132 23.0826 5.12891 21.5811 5.12891C20.0795 5.12891 18.8623 6.37132 18.8623 7.90391C18.8623 9.4365 20.0795 10.6789 21.5811 10.6789Z" fill="#ED5A9D"/>
<path d="M20.3721 8.26836C20.3721 8.26836 21.2252 6.27148 22.5002 6.27148C23.7752 6.27148 25.8002 7.70586 25.8096 11.8309C25.8121 12.3489 25.6214 12.8493 25.2746 13.2342C24.9279 13.619 24.4501 13.8608 23.9346 13.9121C23.3584 14.0143 22.7674 13.9972 22.1982 13.8617C21.6289 13.7262 21.0936 13.4754 20.6252 13.1246C20.6252 13.1246 22.1252 10.3121 20.3721 8.26836Z" fill="#E3D146"/>
<path d="M21.5625 8.55859C21.5625 8.55859 22.0969 7.29297 22.9031 7.29297C23.7094 7.29297 25.3125 8.43672 24.9 11.8961C24.9 11.8961 22.8656 12.6648 21.675 11.6336C21.675 11.6336 22.6406 9.82422 21.5625 8.55859Z" fill="#FFEF92"/>
<path d="M4.12524 20.3535C4.12524 20.3535 5.21274 23.4941 11.6815 25.041C18.1502 26.5879 21.1034 26.916 22.4909 25.8848C23.0593 25.432 23.6645 25.0275 24.3002 24.6754C24.263 25.3919 24.0731 26.0923 23.7431 26.7294C23.4132 27.3666 22.9508 27.9258 22.3871 28.3697C21.8234 28.8136 21.1713 29.1318 20.4745 29.3031C19.7777 29.4744 19.0524 29.4948 18.3471 29.3629C12.7221 28.791 5.45649 25.9598 5.45649 25.9598C4.58891 25.3485 3.9747 24.4412 3.72951 23.4087C3.48432 22.3761 3.62506 21.2895 4.12524 20.3535Z" fill="#5CD9EA"/>
<path d="M17.6529 26.1465L15.2998 29.0621C16.7941 29.4729 18.3494 29.6157 19.8936 29.484C21.9467 29.184 23.9436 28.0309 24.2998 24.6465C24.2998 24.6371 22.5467 27.4778 17.6529 26.1465Z" fill="#188689"/>
<path d="M11.7939 4.35938C11.7939 4.35938 15.1971 9.79687 20.4752 10.8469L20.6252 12.0094C20.6252 12.0094 15.4689 10.65 11.7939 4.35938Z" fill="#827420"/>
<path d="M4.52805 21.075C4.27979 21.7653 4.28491 22.5214 4.54249 23.2083C4.80007 23.8951 5.29335 24.4681 5.9343 24.825C8.27805 26.0344 17.4937 28.575 17.4937 28.575L16.4062 29.175L5.69992 26.25C5.69992 26.25 2.43742 25.2281 3.96555 20.3906L4.52805 21.075Z" fill="#188689"/>
<path d="M13.2188 1.74414C15.3571 1.80929 17.4152 2.57326 19.0781 3.91914L19.6219 4.51914L18.1969 6.84414C18.1969 6.84414 13.9125 2.58789 13.2188 1.74414Z" fill="#FFF6CA"/>
<path d="M19.1718 18.8625C19.1718 18.8625 21.853 23.55 18.2905 26.2969C19.6018 26.6903 21.0126 26.5799 22.2468 25.9875C22.2468 25.9875 25.1999 21.2344 20.6249 17.8125L19.1718 18.8625Z" fill="#E8CCAA"/>
<path d="M23.9719 24.4597C24.8348 24.511 25.6719 24.7739 26.4093 25.2251C27.1466 25.6764 27.7616 26.3021 28.2 27.0472C28.3036 27.212 28.3725 27.3961 28.4026 27.5884C28.4327 27.7807 28.4233 27.9771 28.3751 28.1657C28.3268 28.3543 28.2407 28.5311 28.122 28.6853C28.0033 28.8395 27.8544 28.9679 27.6844 29.0628C26.4746 29.7209 25.1194 30.0656 23.7422 30.0656C22.365 30.0656 21.0098 29.7209 19.8 29.0628C19.4469 28.842 19.1943 28.4917 19.0961 28.087C18.998 27.6822 19.0622 27.2552 19.275 26.8972C19.7754 26.1168 20.4714 25.4812 21.2938 25.0535C22.1163 24.6259 23.0364 24.4211 23.9625 24.4597H23.9719Z" fill="#425763"/>
<path d="M23.9341 25.031C24.6574 25.0651 25.3626 25.2686 25.9928 25.6253C26.623 25.9819 27.1606 26.4816 27.5623 27.0841C27.6571 27.2153 27.7215 27.3661 27.7506 27.5254C27.7798 27.6847 27.773 27.8484 27.7308 28.0048C27.6885 28.1611 27.6119 28.306 27.5066 28.429C27.4012 28.5519 27.2697 28.6497 27.1216 28.7154C26.0499 29.2165 24.8779 29.466 23.695 29.4449C22.5121 29.4238 21.3497 29.1326 20.2966 28.5935C20.1555 28.52 20.0319 28.417 19.9343 28.2915C19.8366 28.1659 19.7671 28.0208 19.7307 27.8659C19.6942 27.7111 19.6915 27.5502 19.7229 27.3943C19.7542 27.2383 19.8188 27.091 19.9123 26.9622C20.3611 26.332 20.9613 25.8248 21.6576 25.4873C22.3538 25.1498 23.1238 24.9929 23.8966 25.031H23.9341Z" fill="#A2B6BA"/>
<path d="M23.9158 25.1159C24.5062 25.141 25.0822 25.3052 25.5971 25.5952C26.1119 25.8852 26.5509 26.2928 26.8783 26.7847C26.9488 26.895 26.9954 27.0188 27.0151 27.1483C27.0348 27.2777 27.0272 27.4098 26.9927 27.5361C26.9583 27.6623 26.8978 27.78 26.8151 27.8815C26.7324 27.983 26.6294 28.066 26.5127 28.1253C25.6395 28.5332 24.6846 28.736 23.7211 28.7181C22.7575 28.7002 21.8108 28.4622 20.9533 28.0222C20.841 27.9595 20.7428 27.8744 20.6648 27.7722C20.5868 27.6699 20.5307 27.5527 20.4999 27.4279C20.4691 27.303 20.4644 27.1732 20.4859 27.0464C20.5075 26.9196 20.5549 26.7986 20.6252 26.6909C20.99 26.177 21.4784 25.7632 22.0453 25.488C22.6123 25.2127 23.2395 25.0847 23.8689 25.1159H23.9158Z" fill="#87999B"/>
<path d="M23.5501 27.7594C26.9052 27.7594 29.6251 25.0395 29.6251 21.6844C29.6251 18.3292 26.9052 15.6094 23.5501 15.6094C20.195 15.6094 17.4751 18.3292 17.4751 21.6844C17.4751 25.0395 20.195 27.7594 23.5501 27.7594Z" fill="#425763"/>
<path d="M23.5499 26.8879C26.5322 26.8879 28.9499 24.4702 28.9499 21.4879C28.9499 18.5056 26.5322 16.0879 23.5499 16.0879C20.5676 16.0879 18.1499 18.5056 18.1499 21.4879C18.1499 24.4702 20.5676 26.8879 23.5499 26.8879Z" fill="#A2B6BA"/>
<path d="M23.7658 26.0258C26.5203 26.0258 28.7533 23.7928 28.7533 21.0383C28.7533 18.2838 26.5203 16.0508 23.7658 16.0508C21.0113 16.0508 18.7783 18.2838 18.7783 21.0383C18.7783 23.7928 21.0113 26.0258 23.7658 26.0258Z" fill="#CBDEE4"/>
<path d="M26.5032 20.6148C27.1142 20.6148 27.6095 20.1196 27.6095 19.5086C27.6095 18.8976 27.1142 18.4023 26.5032 18.4023C25.8923 18.4023 25.397 18.8976 25.397 19.5086C25.397 20.1196 25.8923 20.6148 26.5032 20.6148Z" fill="#425763"/>
<path d="M26.5499 20.1086C26.9175 20.1086 27.2155 19.8106 27.2155 19.443C27.2155 19.0754 26.9175 18.7773 26.5499 18.7773C26.1823 18.7773 25.8843 19.0754 25.8843 19.443C25.8843 19.8106 26.1823 20.1086 26.5499 20.1086Z" fill="#4ED154"/>
<path d="M22.5468 19.0781C22.634 18.5277 22.8328 18.0009 23.1311 17.5302C23.4293 17.0594 23.8207 16.6546 24.2812 16.3406C24.478 16.2281 24.4405 16.1062 24.2249 16.0781H23.9343C23.6999 16.0781 22.0593 16.1531 21.478 19.1625L22.5468 19.0781Z" fill="#A2B6BA"/>
<path d="M25.3124 22.143C25.3124 20.2479 23.8769 18.7117 22.1062 18.7117C20.3354 18.7117 18.8999 20.2479 18.8999 22.143C18.8999 24.038 20.3354 25.5742 22.1062 25.5742C23.8769 25.5742 25.3124 24.038 25.3124 22.143Z" fill="#425763"/>
<path d="M24.7095 22.084C24.7147 20.6394 23.6235 19.4643 22.2722 19.4594C20.9208 19.4544 19.821 20.6215 19.8157 22.066C19.8104 23.5106 20.9016 24.6857 22.253 24.6906C23.6044 24.6956 24.7042 23.5285 24.7095 22.084Z" fill="#3587C4"/>
<path d="M24.3067 21.9884C24.3111 20.7872 23.4038 19.81 22.2803 19.8059C21.1567 19.8018 20.2424 20.7722 20.238 21.9735C20.2335 23.1747 21.1408 24.1518 22.2643 24.1559C23.3879 24.16 24.3023 23.1896 24.3067 21.9884Z" fill="#4DA3EC"/>
<path d="M23.4179 20.9853C23.4191 20.6694 23.1514 20.4124 22.82 20.4112C22.4886 20.41 22.2191 20.665 22.2179 20.9809C22.2168 21.2967 22.4844 21.5537 22.8158 21.5549C23.1472 21.5561 23.4168 21.3011 23.4179 20.9853Z" fill="white"/>
<path d="M23.6908 17.5119C23.9356 17.2469 24.1988 16.9994 24.4783 16.7713C24.5302 16.7294 24.5913 16.7008 24.6566 16.6877C24.7219 16.6746 24.7894 16.6776 24.8533 16.6963C25.3899 16.854 25.9036 17.0809 26.3815 17.3713C26.4601 17.421 26.5201 17.4952 26.5522 17.5825C26.5842 17.6698 26.5865 17.7653 26.5587 17.854C26.5309 17.9428 26.4746 18.0199 26.3984 18.0733C26.3223 18.1267 26.2306 18.1535 26.1377 18.1494C25.4406 18.1052 24.7409 18.124 24.0471 18.2057C23.9639 18.2126 23.8805 18.1946 23.8074 18.1541C23.7344 18.1135 23.6751 18.0522 23.6369 17.9779C23.5988 17.9036 23.5835 17.8197 23.5931 17.7367C23.6027 17.6538 23.6367 17.5755 23.6908 17.5119Z" fill="#E1F0F4"/>
</g>
<defs>
<clipPath id="clip0_47_44615">
<rect width="30" height="30" fill="white"/>
</clipPath>
</defs>
</svg>
