<svg width="30" height="30" viewBox="0 0 30 30" fill="none" xmlns="http://www.w3.org/2000/svg">
<g clip-path="url(#clip0_47_57645)">
<path d="M16.7811 4.96875L17.5311 7.3125L18.6561 7.96875C18.6561 7.96875 18.4686 5.25 16.9686 4.59375L16.7811 4.96875ZM7.4999 5.15625C7.4999 5.15625 5.53115 9.5625 7.78115 11.3438L8.2499 8.0625L7.4999 5.15625Z" fill="#663021"/>
<path d="M22.5938 4.5007C21.5625 2.43819 19.0313 0.375695 15.9375 0.188195C15 0.000694878 13.6875 0.0944449 12.0938 0.563195C6.37503 2.06319 7.31253 7.96945 7.31253 7.96945C8.34378 6.46945 10.4063 5.43819 13.875 5.53194C15.375 5.53194 16.5938 5.0632 17.3438 4.5007C18.2813 5.71944 19.5938 8.15695 19.4063 12.2819C19.4063 12.2819 19.5938 13.9694 22.125 14.0632C22.125 14.0632 21.9375 12.8444 22.3125 12.0007C22.6875 11.1569 23.7188 6.65694 22.5938 4.5007Z" fill="#663021"/>
<path d="M24.7502 9.75C24.7502 11.3437 23.4377 12.5625 21.8439 12.5625C20.2502 12.5625 19.0314 11.3438 19.1252 9.84375C19.1252 8.34375 20.3439 7.125 21.9377 7.03125C23.5314 7.03125 24.8439 8.25 24.7502 9.75Z" fill="#663021"/>
<path d="M26.5312 15.3759C26.5312 18.1884 24.375 20.3446 21.8438 20.1571C19.4062 19.9696 17.5313 17.8134 17.5313 15.1884C17.5313 12.5634 19.5 10.5009 21.9375 10.5009C24.4687 10.4071 26.5312 12.6571 26.5312 15.3759ZM11.625 13.8759C11.625 15.6571 10.2187 17.1571 8.625 17.0634C7.125 16.9696 5.90625 15.5634 5.90625 13.7821C6 12.0946 7.21875 10.6884 8.71875 10.5946C10.4062 10.5946 11.625 12.0946 11.625 13.8759Z" fill="#663021"/>
<path d="M24.2812 9.1875C24.2812 10.7812 22.9688 12 21.375 12C19.875 12 18.6562 10.7812 18.6562 9.28125C18.6562 7.78125 19.875 6.5625 21.4687 6.46875C22.9687 6.46875 24.2812 7.59375 24.2812 9.1875ZM11.7188 13.9687C11.7188 15.5625 10.4062 16.875 8.90625 16.7812C7.5 16.6875 6.375 15.375 6.375 13.875C6.375 12.375 7.59375 11.0625 9 11.0625C10.5938 11.0625 11.8125 12.375 11.7188 13.9687Z" fill="#663021"/>
<path d="M22.1248 8.62489C22.1248 13.2186 18.3748 16.7811 14.0623 16.5936C10.031 16.4061 7.12476 13.0311 7.21851 8.99989C7.31226 4.96864 10.406 1.49989 14.3435 1.21864C18.5623 0.843637 22.1248 4.12489 22.1248 8.62489Z" fill="#663021"/>
<path d="M21.7498 8.06331C21.656 12.4696 18.0935 15.9383 13.9685 15.8446C10.1248 15.7508 7.21851 12.4696 7.31226 8.53206C7.40601 4.68831 10.406 1.31331 14.2498 0.938314C18.3748 0.469564 21.7498 3.65706 21.7498 8.06331Z" fill="#663021"/>
<path d="M21.6561 7.78275C21.6561 12.0015 18.2811 15.3765 14.3436 15.2828C10.6874 15.189 7.96861 12.0015 8.15611 8.2515C8.24986 4.59525 10.3124 1.314 14.7186 0.939005C18.4686 0.564005 21.6561 3.65775 21.6561 7.78275Z" fill="#663021"/>
<path d="M17.625 8.90741C17.5312 11.9074 15.2812 14.2512 12.5625 14.2512C9.9375 14.1574 8.0625 11.9074 8.0625 9.18866C8.15625 6.46991 10.2188 4.12616 12.75 3.93866C15.4688 3.75116 17.7187 6.00116 17.625 8.90741Z" fill="#663021"/>
<path d="M7.78109 7.875C7.78109 7.875 8.06234 6.84375 10.3123 6.65625C12.6561 6.5625 16.1248 6.65625 17.7186 4.875L17.1561 4.40625C17.1561 4.40625 15.6561 5.34375 13.2186 5.4375C10.8748 5.53125 7.96859 6.375 7.78109 6.5625C7.59359 6.9375 7.78109 7.875 7.78109 7.875ZM17.5311 10.3125C17.5311 10.7812 17.2498 11.1562 16.8748 11.1562C16.4998 11.1562 16.2186 10.7812 16.2186 10.3125C16.2186 9.84375 16.4998 9.46875 16.8748 9.46875C17.2498 9.46875 17.5311 9.84375 17.5311 10.3125Z" fill="#663021"/>
<path d="M17.1562 10.032C17.1562 10.1258 17.0625 10.2195 16.9688 10.2195C16.875 10.2195 16.7812 10.1258 16.7812 10.032C16.7812 9.93829 16.875 9.84454 16.9688 9.84454C17.0625 9.84454 17.1562 9.93829 17.1562 10.032ZM12.0937 10.032C12.0937 10.5008 11.8125 10.782 11.4375 10.8758C11.0625 10.8758 10.875 10.5008 10.875 10.1258C10.875 9.65704 11.1562 9.37579 11.5312 9.28204C11.8125 9.18829 12.0937 9.56329 12.0937 10.032Z" fill="#663021"/>
<path d="M11.7188 9.75108C11.7188 9.84483 11.625 9.93858 11.5312 9.93858C11.4375 9.93858 11.3438 9.84483 11.3438 9.75108C11.3438 9.65733 11.4375 9.56358 11.5312 9.56358C11.625 9.56358 11.7188 9.65733 11.7188 9.75108ZM18.5625 3.09483C18.5625 3.09483 17.25 6.00108 13.7812 5.90733C10.5 5.81358 8.25 6.56358 7.3125 7.96983C7.3125 7.96983 7.5 2.34483 12.1875 1.12608C17.25 -0.280166 18.5625 2.25108 18.5625 3.09483Z" fill="#663021"/>
<path d="M16.3125 4.03125L16.4063 4.125C16.875 4.59375 19.3125 7.125 19.0312 12.4688C19.0312 12.4688 19.2188 14.1562 21.5625 14.1562C21.5625 14.1562 21.375 12.9375 21.75 12.1875C22.125 11.4375 23.0625 7.125 22.0313 4.96875C21 2.90625 18.4688 0.75 15.375 0.75" fill="#663021"/>
<path d="M18.8438 9.46989C18.8438 9.46989 19.7812 8.90739 20.1562 9.28239C20.8125 10.0324 20.25 11.1574 18.8438 11.3449V9.46989ZM16.875 5.34489C16.875 5.34489 18.5625 7.21989 18.75 9.56364C18.75 9.56364 18.5625 6.09489 17.0625 4.96989L16.875 5.34489ZM10.4062 2.53239C10.4062 2.53239 13.5937 0.563644 16.4062 1.50114C16.4062 1.50114 17.25 2.53239 15.0938 2.90739C13.0312 3.28239 13.125 2.15739 10.4062 2.53239ZM21.8437 7.31364C21.8437 7.31364 23.0625 8.71989 22.2188 10.1261C22.2188 10.1261 22.2188 10.6886 22.5938 10.7824C22.9688 10.7824 23.5312 10.5011 23.4375 10.0324C23.4375 9.56364 23.5312 7.59489 21.8437 7.31364Z" fill="#663021"/>
<path d="M6.375 18.1871L13.9687 13.9684C13.9687 13.9684 20.25 12.0934 21.6562 13.5934C23.0625 15.0934 23.7188 21.1871 23.7188 21.1871C23.7188 21.1871 7.3125 20.9059 6.375 18.1871Z" fill="#FFBC8F"/>
<path d="M6.9375 19.4065L12.0937 14.2503C12.0937 14.2503 18.1875 13.3128 19.4063 14.8128C20.625 16.3128 21.0938 22.4065 21.0938 22.4065C21.0938 22.4065 7.6875 22.1253 6.9375 19.4065Z" fill="#FFBC8F"/>
<path d="M12.2813 25.2188C12.2813 25.2188 15.2813 20.7188 17.4376 19.7813C19.5938 18.8438 21.2813 18.6562 21.2813 18.6562C21.2813 18.6562 23.8126 20.7188 24.2813 23.8125C24.6563 26.9062 23.4376 28.875 20.4376 29.4375C17.4376 30 12.7501 30.1875 12.2813 25.2188ZM11.8126 26.3438C11.8126 26.3438 8.25006 20.1562 4.50006 19.5C4.50006 19.5 0.281312 29.625 10.7813 28.4062C10.7813 28.3125 12.0001 28.0313 11.8126 26.3438Z" fill="#96172C"/>
<path d="M11.4375 24.8438H12.4688C12.4688 24.8438 12.75 28.0313 13.6875 28.6875C13.6875 28.6875 12.375 28.125 10.6875 28.4062C10.7812 28.3125 11.625 25.7812 11.4375 24.8438Z" fill="#96172C"/>
<path d="M10.5002 17.2497C10.5002 17.2497 6.09392 18.1872 5.25017 19.4997C4.40642 20.8122 1.59392 29.3435 12.1877 26.9997C22.7814 24.656 12.2814 16.9685 10.5002 17.2497Z" fill="#8E4028"/>
<path d="M15.0941 17.9062C15.0941 17.9062 12.0004 19.0312 11.4379 21.5625C10.9691 24.1875 11.4379 27.5625 15.0941 28.0312C18.7504 28.5 24.1879 28.875 23.7191 24.2812C23.2504 19.6875 20.5316 18.1875 20.5316 18.1875L15.0941 17.9062Z" fill="#8E4028"/>
<path d="M15.9379 17.9062C15.9379 17.9062 12.8441 19.0312 12.2816 21.5625C11.8129 24.1875 12.2816 27.5625 15.9379 28.0312C19.5941 28.5 25.0316 28.875 24.5629 24.2812C24.0941 19.6875 21.3754 18.1875 21.3754 18.1875L15.9379 17.9062Z" fill="#8E4028"/>
<path d="M12.4688 24.4688C12.4688 24.4688 15.4688 19.9687 17.6251 19.0312C19.7813 18.0937 21.4688 17.9062 21.4688 17.9062C21.4688 17.9062 24.0001 19.9688 24.4688 23.0625C24.9376 26.1562 23.6251 28.125 20.6251 28.6875C17.6251 29.25 13.0313 29.5312 12.4688 24.4688ZM12.0938 25.5937C12.0938 25.5937 8.53131 19.4062 4.78131 18.75C4.78131 18.75 0.562562 28.875 11.0626 27.6562C11.0626 27.6562 12.2813 27.2812 12.0938 25.5937Z" fill="#96172C"/>
<path d="M11.7188 24.0938H12.75C12.75 24.0938 13.0312 27.2812 13.9687 27.9375C13.9687 27.9375 12.6562 27.375 10.9688 27.6563C11.0625 27.6563 11.9063 25.0313 11.7188 24.0938ZM11.625 17.625C11.625 17.625 12.75 18.8438 12.5625 19.6875L13.4063 18.8438L11.625 17.625Z" fill="#8E4028"/>
<path d="M12.75 24.0938C12.75 24.0938 17.3438 20.1563 19.4063 19.875C21.4688 19.5938 24.1875 21.9375 24.1875 21.9375L21.5625 17.9062C21.5625 17.9062 16.2188 18.0938 12.75 24.0938Z" fill="#8E4028"/>
<path d="M11.625 24.75C11.625 24.75 10.0313 19.5938 4.59375 18.75L4.40625 20.5312C4.40625 20.5312 9.375 20.8125 11.625 24.75Z" fill="#96172C"/>
<path d="M16.6875 5.4375L17.3438 7.5L18.2813 8.0625C18.2813 8.0625 18.0938 5.625 16.875 4.96875L16.6875 5.4375Z" fill="#D3674F"/>
<path d="M8.62512 5.53125C8.62512 5.53125 6.93762 9.5625 8.81262 11.1562L9.18762 8.15625L8.62512 5.53125Z" fill="#8E4028"/>
<path d="M21.375 9.56291C21.375 13.6879 18.0938 16.9692 14.3438 16.8754C10.875 16.7817 8.71876 13.5942 8.81251 9.93791C8.90626 6.28166 11.1563 3.18791 14.625 2.90666C18.2813 2.53166 21.375 5.53166 21.375 9.56291Z" fill="#E07D69"/>
<path d="M21.75 4.9681C20.8125 3.0931 18.5625 1.2181 15.9375 1.12435C15.0938 1.0306 13.9688 1.0306 12.5625 1.4056C7.59378 2.81185 8.43753 8.1556 8.43753 8.1556C9.28128 6.8431 11.1563 5.81185 14.1563 5.9056C15.4688 5.9056 16.5 5.43685 17.25 4.9681C18.0938 6.0931 19.2188 8.3431 19.0313 12.0931C19.0313 12.0931 19.2188 13.6868 21.375 13.6868C21.375 13.6868 21.1875 12.5618 21.5625 11.8118C21.8438 10.9681 22.7813 6.93685 21.75 4.9681Z" fill="#8E4028"/>
<path d="M23.7187 9.75006C23.7187 11.1563 22.5938 12.3751 21.1875 12.3751C19.7813 12.3751 18.75 11.2501 18.75 9.93756C18.75 8.62506 19.875 7.40631 21.1875 7.40631C22.5938 7.31256 23.7187 8.3438 23.7187 9.75006Z" fill="#8E4028"/>
<path d="M25.2188 14.9062C25.2188 17.4375 23.3438 19.4062 21.0937 19.2187C18.9375 19.125 17.3438 17.0625 17.3438 14.7187C17.3438 12.375 19.0312 10.5 21.1875 10.4062C23.4375 10.4062 25.2188 12.375 25.2188 14.9062ZM12.1875 13.5C12.1875 15.1875 10.9687 16.4062 9.5625 16.4062C8.25 16.3125 7.21875 15 7.21875 13.5C7.21875 11.9062 8.34375 10.6875 9.75 10.5937C11.0625 10.5937 12.1875 11.9062 12.1875 13.5Z" fill="#8E4028"/>
<path d="M23.2501 9.18756C23.2501 10.5938 22.1251 11.7188 20.7188 11.8126C19.4063 11.8126 18.2813 10.6876 18.2813 9.37506C18.2813 8.06256 19.4063 6.84381 20.7188 6.84381C22.1251 6.75006 23.2501 7.78131 23.2501 9.18756ZM12.2813 13.5938C12.2813 15.0938 11.1563 16.2188 9.84382 16.2188C8.62507 16.1251 7.59382 15.0001 7.68757 13.5938C7.68757 12.1876 8.71882 11.0626 10.0313 11.0626C11.2501 10.9688 12.2813 12.0938 12.2813 13.5938Z" fill="#8E4028"/>
<path d="M21.375 8.71719C21.375 12.8422 18.0937 16.1234 14.3437 16.0297C10.875 15.9359 8.24999 12.7484 8.34374 9.09219C8.43749 5.43594 11.1562 2.34219 14.625 1.96719C18.2812 1.59219 21.375 4.59219 21.375 8.71719Z" fill="#8E4028"/>
<path d="M21.0002 8.15657C21.0002 12.1878 17.8127 15.3753 14.1564 15.1878C10.7814 15.0941 8.34392 12.1878 8.43767 8.62532C8.53142 5.15657 11.1564 2.06282 14.5314 1.78157C18.0939 1.40657 21.0939 4.21907 21.0002 8.15657Z" fill="#FFBC8F"/>
<path d="M20.9065 7.9686C20.9065 11.8124 17.9065 14.8124 14.5315 14.7186C11.344 14.6249 9.00027 11.7186 9.09402 8.3436C9.18777 5.06235 10.969 2.06235 14.8128 1.68735C18.1878 1.4061 21.0003 4.2186 20.9065 7.9686Z" fill="#FFBC8F"/>
<path d="M17.4375 9.00012C17.4375 11.7189 15.375 13.8751 12.9375 13.8751C10.6875 13.8751 9 11.7189 9 9.28137C9.09375 6.84387 10.875 4.68763 13.125 4.50013C15.5625 4.31263 17.4375 6.37513 17.4375 9.00012Z" fill="#FFDEC7"/>
<path d="M8.81234 8.0625C8.81234 8.0625 8.99984 7.125 10.9686 7.03125C13.0311 6.9375 16.0311 7.03125 17.4373 5.4375L16.9686 4.96875C16.9686 4.96875 15.6561 5.8125 13.4998 5.90625C11.4373 6 8.90609 6.75 8.81234 6.9375C8.62484 7.21875 8.81234 8.0625 8.81234 8.0625Z" fill="#FFBC8F"/>
<path d="M17.5313 10.2187C17.5313 10.7812 17.1562 11.1562 16.7812 11.1562C16.4062 11.1562 16.0313 10.7812 16.0313 10.2187C16.0313 9.75 16.4062 9.28125 16.7812 9.28125C17.25 9.28125 17.5313 9.65625 17.5313 10.2187ZM11.5313 9.84375C11.5313 10.3125 11.25 10.7812 10.875 10.7812C10.5 10.7812 10.2188 10.4062 10.2188 9.9375C10.2188 9.46875 10.5 9 10.875 9C11.25 9 11.5313 9.375 11.5313 9.84375Z" fill="#663021"/>
<path d="M18.2812 3.65694C18.2812 3.65694 17.1562 6.28194 14.1563 6.18819C11.25 6.18819 9.1875 6.84444 8.4375 8.06319C8.4375 8.06319 8.625 2.90694 12.6562 1.78194C17.0625 0.656936 18.2812 2.90694 18.2812 3.65694Z" fill="#8E4028"/>
<path d="M16.2187 4.5C16.7812 4.96875 18.8437 7.3125 18.5625 12.1875C18.5625 12.1875 18.75 13.6875 20.7188 13.6875C20.7188 13.6875 20.5312 12.5625 20.9062 11.9062C21.2812 11.1562 22.0313 7.3125 21.1875 5.34375C20.3438 3.46875 18 1.5 15.375 1.5" fill="#8E4028"/>
<path d="M18.4688 9.5625C18.4688 9.5625 19.2188 9 19.5938 9.375C20.1562 10.0312 19.6875 11.0625 18.4688 11.25V9.5625ZM16.7812 5.71875C16.7812 5.71875 18.2813 7.5 18.4688 9.46875C18.4688 9.46875 18.375 6.375 16.9688 5.25L16.7812 5.71875Z" fill="#FFBC8F"/>
<path d="M11.1562 3.28157C11.1562 3.28157 13.9688 1.50032 16.4063 2.34407C16.4063 2.34407 17.1562 3.28157 15.2812 3.65657C13.4062 3.84407 13.5 2.81282 11.1562 3.28157Z" fill="#A55038"/>
<path d="M21.1875 7.5C21.1875 7.5 22.2187 8.8125 21.4687 10.125C21.4687 10.125 21.4687 10.6875 21.8437 10.6875C22.2187 10.6875 22.6875 10.4062 22.5938 10.0312C22.5 9.5625 22.5938 7.78125 21.1875 7.5Z" fill="#8E4028"/>
<path d="M12.2814 25.125C12.2814 25.125 15.0939 21 17.1564 20.1563C19.2189 19.3125 20.8127 19.125 20.8127 19.125C20.8127 19.125 23.2502 21 23.6252 23.9062C24.0002 26.8125 22.8752 28.5938 19.9689 29.0625C17.0627 29.5312 12.8439 29.7187 12.2814 25.125ZM12.0002 26.1562C12.0002 26.1562 8.62519 20.5313 5.06269 19.875C5.06269 19.875 1.03144 29.1562 10.9689 28.0312C10.8752 27.9375 12.0939 27.6562 12.0002 26.1562Z" fill="#96172C"/>
<path d="M11.5312 24.75H12.5625C12.5625 24.75 12.8438 27.6563 13.6875 28.3125C13.6875 28.3125 12.4688 27.75 10.875 28.0312C10.875 27.9375 11.7187 25.5937 11.5312 24.75Z" fill="#96172C"/>
<path d="M10.4064 16.4994C10.4064 16.4994 6.09394 17.8119 5.34394 19.2182C4.59394 20.6244 2.15644 28.9682 12.1877 26.5307C22.2189 24.0932 12.1877 16.3119 10.4064 16.4994Z" fill="#FFDEC7"/>
<path d="M14.625 17.5312C14.625 17.5312 11.625 18.6562 11.1562 21.4687C10.6875 24.2812 11.1562 27.8438 14.625 28.3125C18.0937 28.7812 23.25 29.25 22.875 24.2812C22.5 19.3125 19.7812 17.7187 19.7812 17.7187L14.625 17.5312Z" fill="#AF1E30"/>
<path d="M15.3751 16.875C15.3751 16.875 12.5626 18 12.0939 20.8125C11.6251 23.5313 12.0939 27.1875 15.3751 27.6562C18.6564 28.125 23.6251 28.5938 23.1564 23.625C22.7814 18.6563 19.1251 17.0625 19.1251 17.0625L15.3751 16.875Z" fill="#FFBC8F"/>
<path d="M16.2189 16.875C16.2189 16.875 13.4064 18 12.9376 20.8125C12.4689 23.5313 12.9376 27.1875 16.2189 27.6562C19.5001 28.125 24.4689 28.5938 24.0001 23.625C23.6251 18.6563 19.4064 16.9688 19.4064 16.9688L16.2189 16.875Z" fill="#FFDEC7"/>
<path d="M12.5627 24.4688C12.5627 24.4688 15.3752 20.3437 17.4377 19.5C19.5002 18.6562 21.0939 18.4688 21.0939 18.4688C21.0939 18.4688 23.5314 20.3437 23.9064 23.25C24.2814 26.1562 23.1564 27.9375 20.2502 28.4062C17.3439 28.875 13.0314 29.0625 12.5627 24.4688ZM12.1877 25.5C12.1877 25.5 8.81269 19.875 5.25019 19.2187C5.25019 19.2187 1.21894 28.5 11.1564 27.375C11.1564 27.375 12.3752 27 12.1877 25.5Z" fill="#DB2031"/>
<path d="M11.8125 24.0938H12.8438C12.8438 24.0938 13.125 27 13.9688 27.6562C13.9688 27.6562 12.75 27.0938 11.1562 27.375C11.1562 27.375 12 25.0312 11.8125 24.0938Z" fill="#AF1E30"/>
<path d="M11.7188 16.5938C11.7188 16.5938 12.75 17.9062 12.5625 18.75L13.4063 17.8125L11.7188 16.5938Z" fill="#FFBC8F"/>
<path d="M8.0625 17.5317C8.0625 17.5317 9 16.8755 10.0312 17.063C11.0625 17.2505 12.0938 18.188 11.5312 18.4692C10.9688 18.8442 9.28125 19.5005 8.34375 19.0317C7.40625 18.6567 7.3125 17.9067 8.0625 17.5317Z" fill="#FFEDDE"/>
<path d="M6.37484 22.4057C6.37484 22.4057 7.87484 22.4057 8.90609 23.3432C9.93734 24.2807 10.3123 26.062 9.46859 26.062C8.62484 26.062 6.28109 25.4057 5.53109 24.2807C4.78109 23.1557 5.24984 22.2182 6.37484 22.4057ZM16.3123 23.7182C16.3123 23.7182 17.1561 22.4057 18.4686 22.1245C19.7811 21.8432 21.4686 22.4057 20.9998 23.1557C20.5311 23.812 18.7498 25.4995 17.3436 25.4995C15.9373 25.4995 15.5623 24.562 16.3123 23.7182Z" fill="#F4374E"/>
<path d="M15.4688 17.718C15.4688 17.718 16.3125 17.1555 17.1562 17.343C18 17.4367 18.8438 18.2805 18.375 18.5617C17.9063 18.843 16.5 19.4055 15.75 19.0305C14.9062 18.6555 14.8125 17.9992 15.4688 17.718Z" fill="#FFEDDE"/>
<path d="M12.8437 24.0929C12.8437 24.0929 17.1562 20.4367 19.2187 20.2492C21.2812 20.0617 23.8125 22.2179 23.8125 22.2179L21.1875 18.4679C21.1875 18.3742 16.125 18.5617 12.8437 24.0929ZM11.7187 24.7492C11.7187 24.7492 10.2188 20.0617 5.0625 19.2179L4.875 20.8117C4.875 20.8117 9.5625 21.0929 11.7187 24.7492Z" fill="#F4374E"/>
<path d="M26.0623 21.8431C26.0623 21.8431 21.9373 19.1244 21.7498 20.0619C21.5623 20.9056 23.4373 21.4681 23.4373 21.4681C23.4373 21.4681 22.7811 22.8744 21.2811 23.8119C21.2811 23.8119 20.4373 24.7494 20.6248 24.8431C20.9061 25.0306 22.9686 24.0931 22.9686 24.0931C22.9686 24.0931 20.6248 25.5931 21.0936 25.8744C21.5623 26.1556 23.6248 25.4056 23.6248 25.4056C23.6248 25.4056 22.2186 26.5306 22.5936 26.9056C22.9686 27.3744 27.7498 25.6869 26.0623 21.8431Z" fill="#AF1E30"/>
<path d="M26.5311 21.1869C26.5311 21.1869 22.4061 18.4681 22.2186 19.4056C22.0311 20.2494 23.9061 20.9056 23.9061 20.9056C23.9061 20.9056 23.2498 22.3119 21.7498 23.2494C21.7498 23.2494 20.9061 24.1869 21.0936 24.2806C21.3748 24.4681 23.4373 23.5306 23.4373 23.5306C23.4373 23.5306 21.0936 25.0306 21.5623 25.3119C22.0311 25.5931 24.0936 24.8431 24.0936 24.8431C24.0936 24.8431 22.6873 25.9681 23.0623 26.3431C23.4373 26.7181 28.2186 25.1244 26.5311 21.1869Z" fill="#FFBC8F"/>
<path d="M1.40623 20.2507C1.40623 20.2507 5.81248 17.3445 6.09373 18.282C6.28123 19.2195 4.21873 19.8757 4.21873 19.8757C4.21873 19.8757 4.87498 21.4695 6.56248 22.5007C6.56248 22.5007 7.49997 23.532 7.21872 23.6257C6.93748 23.8132 4.68748 22.782 4.68748 22.782C4.68748 22.782 7.21872 24.4695 6.74998 24.7507C6.28123 25.032 4.03123 24.282 4.03123 24.282C4.03123 24.282 5.53123 25.5007 5.15623 25.8757C4.78123 26.2507 -0.375024 24.4695 1.40623 20.2507Z" fill="#AF1E30"/>
<path d="M1.8748 19.8744C1.8748 19.8744 5.9998 17.1556 6.1873 18.0931C6.3748 19.0306 4.4998 19.5931 4.4998 19.5931C4.4998 19.5931 5.15605 20.9994 6.65605 21.9369C6.65605 21.9369 7.4998 22.8744 7.3123 22.9681C7.1248 23.0619 4.96855 22.2181 4.96855 22.2181C4.96855 22.2181 7.3123 23.7181 6.84355 23.9994C6.3748 24.2806 4.3123 23.5306 4.3123 23.5306C4.3123 23.5306 5.71855 24.6556 5.34355 25.0306C4.96855 25.4994 0.281052 23.8119 1.8748 19.8744Z" fill="#FFBC8F"/>
<path d="M3.56267 19.6875C3.56267 19.6875 3.56267 20.9063 4.21892 21.1875C4.87517 21.4688 4.21892 21.9375 4.21892 21.9375C4.21892 21.9375 4.50017 21.8437 4.40642 22.3125C4.31267 22.7812 3.65642 22.875 3.56267 22.875C3.46892 22.875 3.00017 23.1563 2.71892 22.5938C2.43767 22.0313 1.78142 20.625 3.56267 19.6875ZM24.4689 21.4687C24.4689 21.4687 24.4689 22.6875 23.8127 22.9688C23.1564 23.25 23.8127 23.7187 23.8127 23.7187C23.8127 23.7187 23.5314 23.625 23.6252 24.0938C23.7189 24.5625 24.3752 24.6562 24.4689 24.6562C24.5627 24.6562 25.0314 24.9375 25.3127 24.375C25.5939 23.8125 26.2502 22.5 24.4689 21.4687Z" fill="#FFDEC7"/>
</g>
<defs>
<clipPath id="clip0_47_57645">
<rect width="30" height="30" fill="white"/>
</clipPath>
</defs>
</svg>
