<svg width="74" height="37" viewBox="0 0 74 37" fill="none" xmlns="http://www.w3.org/2000/svg">
<g clip-path="url(#clip0_6_6396)">
<path fill-rule="evenodd" clip-rule="evenodd" d="M70.8381 8.19761H73.9005L73.6653 9.29296H70.6035L68.9015 17.0953C68.8245 17.4463 68.7805 17.8037 68.7702 18.1629C68.7702 19.1511 69.3986 19.6353 70.3927 19.6353C71.1681 19.6131 71.9243 19.3946 72.592 19.0003L72.3775 20.1432C71.646 20.5445 70.8254 20.7548 69.9911 20.7544C68.3687 20.7544 67.2432 19.917 67.2432 18.4169C67.2559 17.9976 67.3079 17.5804 67.3983 17.1707L69.1281 9.29296H67.2948L67.5295 8.19761H69.3627L70.0945 4.9195L71.685 4.31231L70.8381 8.19761ZM62.5625 8.19761H65.6803L63.4812 18.3137C63.414 18.5806 63.3701 18.8528 63.35 19.1273C63.35 19.4567 63.5608 19.663 63.9783 19.663C64.3666 19.647 64.7444 19.5322 65.0759 19.3297L64.8412 20.3734C64.4147 20.6293 63.9272 20.7663 63.4295 20.7702C62.4075 20.7702 61.8586 20.2107 61.8586 19.3455C61.8731 19.0287 61.9171 18.7138 61.9899 18.405L63.9783 9.30884H62.328L62.5625 8.19761ZM66.6507 4.53852C66.6163 4.86592 66.4647 5.16993 66.2235 5.39454C65.9823 5.61915 65.6679 5.74925 65.3383 5.76086C65.1274 5.76086 64.9251 5.67724 64.7759 5.52838C64.6267 5.37953 64.543 5.17764 64.543 4.96713C64.5675 4.6486 64.7096 4.3505 64.9418 4.13054C65.1739 3.91059 65.4796 3.78444 65.7997 3.77653C66.013 3.76778 66.2213 3.84253 66.3804 3.98486C66.5394 4.1272 66.6363 4.32586 66.6507 4.53852ZM56.8122 11.3765C56.8122 10.69 56.3668 10.1859 55.5039 10.1859C53.7501 10.1859 52.2827 11.9401 51.7061 13.8212C52.1725 13.9142 52.6463 13.9647 53.1218 13.972C55.5317 13.968 56.8122 12.8489 56.8122 11.3765ZM59.9936 11.3765C59.9936 13.9442 57.4008 15.9761 53.6029 15.9761C52.8295 15.9791 52.058 15.9018 51.3004 15.746C51.3004 15.8492 51.2725 15.9523 51.2725 16.0277C51.2725 17.6152 52.3463 18.4923 53.9171 18.4923C55.458 18.4132 56.9576 17.9684 58.2916 17.1946L57.7944 19.5757C56.3345 20.3505 54.7077 20.7591 53.0542 20.7663C50.0438 20.7663 47.789 19.2662 47.789 16.1904C47.789 11.9956 51.2209 7.9833 55.8021 7.9833C58.2279 7.9714 60.0095 9.11437 60.0095 11.3765H59.9936ZM47.6657 11.5273C47.6574 11.7579 47.6308 11.9875 47.5862 12.2139L44.2378 12.2893C44.2693 12.1137 44.2866 11.9359 44.2894 11.7575C44.2894 10.9201 43.9753 10.17 42.9811 10.17C41.9074 10.17 40.9927 10.9638 40.3604 11.948C39.5912 13.2052 39.1673 14.6425 39.1315 16.1151C39.1315 17.7025 40.0463 18.4962 41.7244 18.4962C43.2512 18.4178 44.7347 17.9637 46.0431 17.1746L45.5182 19.5361C44.1572 20.3242 42.614 20.7454 41.0405 20.7584C37.9784 20.7584 35.6201 19.3615 35.6201 16.1587C35.6201 11.9123 38.7657 7.97536 43.2674 7.97536C45.916 7.9714 47.6697 9.34455 47.6697 11.5273H47.6657ZM29.8818 15.4165L31.019 10.309C30.7762 10.1732 30.502 10.1034 30.2237 10.1065C27.1855 10.1065 25.2489 13.6783 25.2489 16.254C25.2489 17.7025 25.8533 18.4645 27.0304 18.4645C27.3879 18.4789 27.7442 18.4154 28.0746 18.2783C28.4048 18.1412 28.7014 17.9338 28.9432 17.6708C29.4355 17.0066 29.759 16.233 29.8857 15.4165H29.8818ZM33.0631 8.66988L34.9481 8.18571L32.9597 17.2104C32.907 17.4361 32.8725 17.6658 32.8563 17.897C32.8563 18.2264 33.0393 18.405 33.433 18.405C33.8512 18.3707 34.2578 18.249 34.626 18.0478L34.2283 19.9805C33.4808 20.414 32.6312 20.6414 31.7666 20.6394C30.7169 20.6394 29.826 20.1829 29.5914 19.294C29.1187 19.774 28.5511 20.1506 27.9247 20.4C27.2982 20.6494 26.6267 20.766 25.9527 20.7425C23.332 20.7425 21.7374 19.0638 21.7374 16.3453C21.7446 15.235 21.9716 14.1369 22.4053 13.1145C22.839 12.0919 23.4709 11.1649 24.2647 10.3868C25.0584 9.60871 25.9984 8.99477 27.0305 8.58025C28.0628 8.16574 29.1668 7.95883 30.2794 7.9714C31.261 7.96793 32.2269 8.21814 33.083 8.69766L33.0631 8.66988ZM16.7585 3.11377H21.9282L18.8583 17.3216C18.8058 17.5473 18.7713 17.777 18.7548 18.0081C18.7548 18.3375 18.9616 18.5161 19.3553 18.5161C19.7601 18.4795 20.1528 18.3592 20.5085 18.1629L20.087 20.0916C19.341 20.5293 18.4907 20.7582 17.6254 20.7544C16.2415 20.7544 15.2393 20.1432 15.2393 18.6708C15.2482 18.2077 15.3096 17.7471 15.4223 17.2977L17.9674 5.52274H16.2654L16.7585 3.11377ZM11.5331 8.91196C11.5553 8.64703 11.5199 8.38043 11.4292 8.13041C11.3387 7.8804 11.195 7.65288 11.0081 7.46342C10.5349 7.06654 9.77934 6.90383 8.62208 6.90383H6.5979L5.26172 12.9758H6.76095C8.4351 12.9758 9.50884 12.6227 10.2406 11.9837C10.6596 11.5906 10.9913 11.1141 11.2139 10.5849C11.4366 10.0557 11.5453 9.48577 11.5331 8.91196ZM15.2911 8.69766C15.3031 9.62646 15.1043 10.5459 14.7098 11.3872C14.3152 12.2284 13.7348 12.9696 13.0124 13.5552C11.6245 14.6704 9.71567 15.2062 7.27795 15.2062H4.79246L3.6392 20.5242H0.000488281L2.95918 6.90383H1.1259L1.65083 4.43929H9.00784C11.3103 4.43929 12.8851 4.7687 13.9549 5.60608C14.8456 6.29266 15.2911 7.28482 15.2911 8.69766Z" fill="white"/>
<path fill-rule="evenodd" clip-rule="evenodd" d="M15.0514 31.1564C14.7232 31.1698 14.3996 31.0757 14.1296 30.8884C13.892 30.706 13.735 30.4386 13.6911 30.1426L14.2459 27.7025C14.4009 27.3319 14.6703 27.02 15.0152 26.812C15.3711 26.5763 15.7884 26.4504 16.216 26.4499C16.4543 26.4398 16.6894 26.5099 16.8832 26.649C17.0725 26.801 17.201 27.0154 17.2462 27.2536C17.3186 27.5632 17.3347 27.8833 17.2934 28.1985L17.1991 28.7163L17.1771 28.814C17.0485 29.4576 16.7605 30.0587 16.3394 30.5626C16.1811 30.7496 15.9834 30.8996 15.7612 31.0022C15.5384 31.1048 15.2962 31.1574 15.0514 31.1564ZM17.8482 28.7669C17.8902 28.5551 17.9206 28.3412 17.9387 28.1262C17.9754 27.728 17.9373 27.3265 17.8263 26.9422C17.7306 26.5985 17.5226 26.2965 17.2352 26.0843C16.9381 25.8837 16.5854 25.7811 16.2263 25.791C15.8039 25.79 15.3873 25.8946 15.0152 26.0951C14.824 26.1956 14.6451 26.317 14.4817 26.4571L15.0765 23.8251C15.0836 23.7996 15.0836 23.7728 15.0785 23.747C15.0727 23.7212 15.0611 23.6971 15.0443 23.6767C15.0281 23.6552 15.0075 23.6378 14.9836 23.6259C14.959 23.6139 14.9332 23.6078 14.906 23.6079H14.6303C14.5863 23.6084 14.5437 23.6237 14.5095 23.6514C14.4752 23.6789 14.4514 23.7172 14.4416 23.76L12.7441 31.4749C12.7384 31.5006 12.7384 31.5271 12.7441 31.5527C12.7494 31.5784 12.7609 31.6025 12.7765 31.6234C12.7926 31.6444 12.8139 31.6612 12.8378 31.6726C12.8617 31.6839 12.8882 31.6894 12.9147 31.6885H13.1937C13.237 31.6887 13.279 31.6741 13.3126 31.6469C13.3462 31.62 13.3694 31.5823 13.3791 31.54L13.4734 31.1383C13.5993 31.2941 13.755 31.4244 13.9301 31.522C14.2633 31.7046 14.6386 31.797 15.0184 31.7899C15.3356 31.7906 15.6488 31.7267 15.9401 31.6023C16.2315 31.4777 16.4943 31.2952 16.7127 31.0659C17.2269 30.5143 17.5873 29.8376 17.7578 29.1036L17.8482 28.7669Z" fill="white"/>
<path fill-rule="evenodd" clip-rule="evenodd" d="M23.409 25.9865C23.3929 25.9591 23.3702 25.9364 23.3431 25.9205C23.3154 25.9046 23.2844 25.8961 23.2527 25.896H22.9407C22.9078 25.8964 22.8748 25.9053 22.8458 25.9217C22.816 25.9382 22.7915 25.9617 22.7741 25.9901L20.0244 30.5662L19.226 26.0299C19.2183 25.9897 19.1969 25.9534 19.1647 25.9276C19.133 25.9017 19.093 25.888 19.0523 25.8887H18.7584C18.7306 25.8891 18.7028 25.8954 18.6783 25.9073C18.6531 25.9191 18.6312 25.9363 18.6131 25.9575C18.595 25.9779 18.5814 26.0022 18.5736 26.0286C18.5665 26.0549 18.5646 26.0826 18.5698 26.1095L19.5238 31.4243L19.0264 32.2641L18.8126 32.5864C18.7054 32.7757 18.553 32.9354 18.3689 33.051C18.1848 33.1667 17.9742 33.2348 17.7572 33.2489C17.6506 33.2431 17.5453 33.2285 17.4414 33.2054C17.4168 33.2018 17.391 33.2031 17.3671 33.2093C17.3425 33.2156 17.3199 33.2266 17.2999 33.2417C17.2586 33.271 17.2301 33.3151 17.2198 33.3648L17.1804 33.6254C17.172 33.6685 17.1811 33.7128 17.2043 33.7498C17.2282 33.7867 17.265 33.8134 17.307 33.8246C17.4562 33.8658 17.61 33.8866 17.7643 33.8861C18.1195 33.8803 18.4638 33.7653 18.7507 33.5566C19.1117 33.2741 19.4075 32.9173 19.6181 32.5104L23.4019 26.182C23.4174 26.1538 23.4258 26.122 23.4258 26.0897C23.4258 26.0573 23.4174 26.0255 23.4019 25.9974" fill="white"/>
<path d="M37.7909 24.7339C35.7705 24.7339 34.301 26.2328 34.301 28.2964C34.3191 28.9955 34.5407 29.6744 34.9373 30.2509C35.3339 30.8275 35.89 31.2769 36.5372 31.545C37.1844 31.813 37.8956 31.8881 38.5847 31.7614C39.274 31.6346 39.9121 31.3113 40.4211 30.8306C40.5555 30.6979 40.6343 30.5194 40.642 30.331C40.6439 30.2532 40.6291 30.176 40.6 30.1041C40.5703 30.0321 40.5264 29.967 40.4709 29.9127C40.4147 29.8584 40.3481 29.8161 40.2758 29.7885C40.2028 29.7607 40.1253 29.7482 40.0471 29.7517C39.9554 29.7539 39.8649 29.7742 39.7803 29.8114C39.6964 29.8488 39.6208 29.9022 39.5575 29.969C39.3385 30.1982 39.075 30.3807 38.7831 30.5052C38.4911 30.6296 38.1772 30.6935 37.8601 30.693C37.3194 30.7025 36.7956 30.5041 36.3976 30.1387C35.9998 29.7733 35.7582 29.2691 35.7234 28.7308H40.2867C40.7835 28.7308 41.0121 28.4991 41.0121 28.0067C41.0153 27.859 41.0056 27.7112 40.9831 27.565C40.7512 25.773 39.5504 24.7339 37.7909 24.7339ZM37.7909 25.8381C38.8793 25.8381 39.6047 26.5368 39.6337 27.6483H35.7234C35.7757 27.1405 36.0172 26.6709 36.4003 26.3323C36.7832 25.9938 37.2793 25.811 37.7909 25.82V25.8381Z" fill="white"/>
<path d="M45.3832 24.7339C44.9408 24.7309 44.5061 24.8457 44.123 25.0666C43.7406 25.2874 43.4241 25.6063 43.2065 25.9902V25.5196C43.2161 25.4272 43.2058 25.3339 43.1774 25.2456C43.1484 25.1574 43.1018 25.076 43.0392 25.007C42.9772 24.9381 42.9009 24.8829 42.8163 24.8452C42.7311 24.8074 42.6394 24.7879 42.5463 24.7879C42.4527 24.7879 42.361 24.8074 42.2763 24.8452C42.1911 24.8829 42.1148 24.9381 42.0529 25.007C41.9902 25.076 41.9437 25.1574 41.9146 25.2456C41.8862 25.3339 41.8759 25.4272 41.8856 25.5196V30.9826C41.8759 31.0799 41.8862 31.1782 41.9166 31.2711C41.9476 31.364 41.9973 31.4495 42.0625 31.522C42.1284 31.5946 42.2086 31.6525 42.2983 31.6922C42.3875 31.7319 42.4843 31.7524 42.5825 31.7524C42.68 31.7524 42.777 31.7319 42.8667 31.6922C42.9559 31.6525 43.0366 31.5946 43.1018 31.522C43.1677 31.4495 43.2174 31.364 43.2478 31.2711C43.2782 31.1782 43.2885 31.0799 43.2788 30.9826V28.0538C43.2788 26.7794 44.0042 25.8816 45.0344 25.8816C46.0647 25.8816 46.5258 26.5369 46.5258 27.8873V30.9718C46.5155 31.0691 46.5265 31.1673 46.5568 31.2602C46.5872 31.3531 46.637 31.4386 46.7028 31.5111C46.7681 31.5837 46.8481 31.6417 46.938 31.6814C47.0271 31.7211 47.124 31.7416 47.2222 31.7416C47.3203 31.7416 47.4172 31.7211 47.5064 31.6814C47.5961 31.6417 47.6763 31.5837 47.7421 31.5111C47.8074 31.4386 47.8571 31.3531 47.8874 31.2602C47.9178 31.1673 47.9288 31.0691 47.9184 30.9718V27.4637C47.9113 26.135 47.2474 24.7339 45.3832 24.7339Z" fill="white"/>
<path d="M54.2009 24.7844C54.0401 24.7871 53.885 24.843 53.7598 24.9432C53.6344 25.0434 53.546 25.1824 53.5078 25.3383L51.6036 30.1135L49.7169 25.3383C49.6788 25.18 49.5883 25.0393 49.4598 24.9387C49.3313 24.8382 49.1731 24.7839 49.0096 24.7844C48.9199 24.7829 48.83 24.7992 48.7467 24.8322C48.6628 24.8653 48.5866 24.9145 48.5219 24.9771C48.4567 25.0396 48.4051 25.1142 48.3695 25.1966C48.334 25.2791 48.3146 25.3679 48.3134 25.4578C48.3139 25.5927 48.3437 25.7261 48.4005 25.8487L50.5767 31.0005C50.64 31.2172 50.7724 31.4074 50.9532 31.5428C51.1341 31.6782 51.3537 31.7514 51.5798 31.7514C51.8058 31.7514 52.0261 31.6782 52.2069 31.5428C52.3878 31.4074 52.5196 31.2172 52.5829 31.0005L54.7958 25.8198C54.8455 25.705 54.8752 25.5825 54.883 25.4578C54.8862 25.3678 54.8707 25.2783 54.8371 25.1947C54.8042 25.1111 54.7538 25.0353 54.6899 24.9721C54.6253 24.9088 54.5491 24.8595 54.4651 24.8272C54.3811 24.7949 54.2906 24.7803 54.2009 24.7844Z" fill="white"/>
<path d="M58.2417 24.7337C57.4104 24.7173 56.5953 24.9603 55.9087 25.4289C55.8144 25.4854 55.7362 25.5655 55.682 25.6614C55.6283 25.7572 55.5999 25.8655 55.6006 25.9755C55.5986 26.0476 55.6116 26.1192 55.6374 26.1864C55.6639 26.2535 55.7032 26.3147 55.7536 26.3663C55.804 26.418 55.8641 26.459 55.9306 26.487C55.9972 26.515 56.0688 26.5294 56.1412 26.5294C56.2975 26.5199 56.4473 26.4616 56.5695 26.3629C57.0235 26.0354 57.5687 25.8559 58.1293 25.8487C59.1596 25.8487 59.7474 26.3701 59.7474 27.2969V27.449C57.4401 27.449 55.0928 27.7314 55.0928 29.7335C55.0928 31.1815 56.3298 31.8224 57.5525 31.8224C57.9917 31.842 58.4291 31.7501 58.823 31.5551C59.2171 31.36 59.5549 31.0683 59.8049 30.7073V31.0693C59.7926 31.1612 59.7997 31.2548 59.8274 31.3434C59.8546 31.4322 59.9011 31.5139 59.9631 31.5828C60.0251 31.6517 60.102 31.7063 60.1873 31.7427C60.2725 31.7791 60.3655 31.7964 60.4579 31.7934C60.549 31.7934 60.6387 31.7738 60.7214 31.7359C60.8041 31.6981 60.8771 31.6429 60.9365 31.5741C60.9959 31.5054 61.0392 31.4248 61.0644 31.3376C61.0896 31.2505 61.0954 31.159 61.0819 31.0693V27.3657C61.0676 25.704 60.0122 24.7337 58.2417 24.7337ZM59.4425 28.4699H59.7325V28.7885C59.7525 29.0438 59.7176 29.3004 59.6304 29.5411C59.5426 29.7817 59.4037 30.0007 59.2242 30.1833C59.0439 30.3659 58.8269 30.5078 58.5873 30.5995C58.3477 30.6911 58.0912 30.7303 57.8355 30.7145C57.5196 30.7145 56.4964 30.6421 56.4964 29.7044C56.4964 28.5785 58.1765 28.4518 59.4425 28.4518V28.4699Z" fill="white"/>
<path d="M64.6872 26.0448C64.768 26.0564 64.8499 26.0504 64.9275 26.0271C65.005 26.0038 65.0774 25.964 65.138 25.9103C65.1988 25.8564 65.2472 25.7901 65.2795 25.7158C65.3118 25.6415 65.3279 25.5611 65.326 25.48C65.3293 25.3978 65.3144 25.3159 65.2827 25.2399C65.2511 25.1641 65.2033 25.096 65.1426 25.0404C65.0818 24.985 65.0095 24.9434 64.9307 24.9187C64.8519 24.8938 64.7692 24.8865 64.6872 24.8971H63.436V23.6481C63.4483 23.5508 63.4393 23.4519 63.4109 23.3582C63.3818 23.2644 63.3334 23.1779 63.2681 23.1043C63.2029 23.0306 63.1228 22.9717 63.0336 22.9314C62.9439 22.891 62.8463 22.8701 62.7481 22.8701C62.6499 22.8701 62.5531 22.891 62.4633 22.9314C62.3735 22.9717 62.2934 23.0306 62.2288 23.1043C62.1636 23.1779 62.1152 23.2644 62.0861 23.3582C62.057 23.4519 62.0486 23.5508 62.0609 23.6481V29.6325C62.0609 31.0155 62.743 31.7468 64.0381 31.7468C64.3371 31.755 64.6349 31.7008 64.912 31.5875C65.0231 31.5428 65.118 31.4669 65.1865 31.3693C65.2543 31.2716 65.2931 31.1563 65.2969 31.0372C65.2995 30.9643 65.2866 30.8916 65.2602 30.8237C65.233 30.7558 65.193 30.6941 65.1407 30.6425C65.0889 30.5909 65.0276 30.5504 64.9591 30.5237C64.8913 30.497 64.8183 30.4844 64.7453 30.487C64.6607 30.4902 64.5761 30.5048 64.4953 30.5304C64.4017 30.5559 64.3055 30.5693 64.2086 30.5702C63.6821 30.5702 63.436 30.2263 63.436 29.4841V26.0448H64.6872Z" fill="white"/>
<path d="M69.2833 24.7339C67.1828 24.7339 65.6559 26.2182 65.6559 28.271C65.6481 28.7455 65.7366 29.2167 65.9155 29.6564C66.0944 30.0961 66.3606 30.4954 66.6971 30.8306C67.3946 31.4897 68.3229 31.8498 69.2833 31.8334C69.76 31.8491 70.2348 31.7682 70.6791 31.5957C71.1236 31.4233 71.5285 31.1627 71.8696 30.8298C72.21 30.4968 72.4793 30.0984 72.6621 29.6586C72.8443 29.2189 72.9353 28.7469 72.9296 28.271C72.9296 26.2001 71.3948 24.7339 69.2833 24.7339ZM69.2833 30.6568C67.8326 30.6568 67.0885 29.4585 67.0885 28.271C67.0885 26.6382 68.2279 25.8961 69.2833 25.8961C70.3394 25.8961 71.482 26.6382 71.482 28.271C71.482 29.9038 70.3536 30.6387 69.2833 30.6387V30.6568Z" fill="white"/>
<path d="M31.9258 24.0822C30.8083 22.7752 27.1918 25.3095 27.2099 28.5678C27.2099 28.6081 27.1937 28.6468 27.1654 28.6753C27.1363 28.7039 27.0975 28.7198 27.0574 28.7198C27.031 28.7203 27.0051 28.7139 26.9826 28.7011C26.9593 28.6885 26.9399 28.6699 26.927 28.6474C26.7164 28.1933 26.6066 27.6995 26.604 27.1993C26.6034 26.8211 26.6661 26.4455 26.7888 26.0878C26.7978 26.0569 26.7959 26.0238 26.7836 25.994C26.772 25.9642 26.75 25.9392 26.7222 25.9229C26.6945 25.9068 26.6622 25.9004 26.6299 25.9046C26.5982 25.9089 26.5685 25.9237 26.5459 25.9467C25.9497 26.5916 25.6196 27.4371 25.621 28.3144C25.6132 28.7757 25.6991 29.2337 25.8722 29.6613C26.046 30.0889 26.3037 30.4774 26.6305 30.8036C26.9574 31.1298 27.3469 31.3872 27.7751 31.5603C28.204 31.7335 28.6626 31.8189 29.1251 31.8116C34.0806 31.6957 32.9231 25.2479 31.9258 24.0822Z" fill="#80B341"/>
</g>
<defs>
<clipPath id="clip0_6_6396">
<rect width="74" height="30.7723" fill="white" transform="translate(0 3.11377)"/>
</clipPath>
</defs>
</svg>
