<svg width="32" height="32" viewBox="0 0 32 32" fill="none" xmlns="http://www.w3.org/2000/svg">
<path d="M5.33301 8.0026C5.33301 7.29536 5.61396 6.61708 6.11406 6.11699C6.61415 5.61689 7.29243 5.33594 7.99967 5.33594H10.6663C11.3736 5.33594 12.0519 5.61689 12.552 6.11699C13.0521 6.61708 13.333 7.29536 13.333 8.0026V10.6693C13.333 11.3765 13.0521 12.0548 12.552 12.5549C12.0519 13.055 11.3736 13.3359 10.6663 13.3359H7.99967C7.29243 13.3359 6.61415 13.055 6.11406 12.5549C5.61396 12.0548 5.33301 11.3765 5.33301 10.6693V8.0026ZM18.6663 8.0026C18.6663 7.29536 18.9473 6.61708 19.4474 6.11699C19.9475 5.61689 20.6258 5.33594 21.333 5.33594H23.9997C24.7069 5.33594 25.3852 5.61689 25.8853 6.11699C26.3854 6.61708 26.6663 7.29536 26.6663 8.0026V10.6693C26.6663 11.3765 26.3854 12.0548 25.8853 12.5549C25.3852 13.055 24.7069 13.3359 23.9997 13.3359H21.333C20.6258 13.3359 19.9475 13.055 19.4474 12.5549C18.9473 12.0548 18.6663 11.3765 18.6663 10.6693V8.0026ZM5.33301 21.3359C5.33301 20.6287 5.61396 19.9504 6.11406 19.4503C6.61415 18.9502 7.29243 18.6693 7.99967 18.6693H10.6663C11.3736 18.6693 12.0519 18.9502 12.552 19.4503C13.0521 19.9504 13.333 20.6287 13.333 21.3359V24.0026C13.333 24.7098 13.0521 25.3881 12.552 25.8882C12.0519 26.3883 11.3736 26.6693 10.6663 26.6693H7.99967C7.29243 26.6693 6.61415 26.3883 6.11406 25.8882C5.61396 25.3881 5.33301 24.7098 5.33301 24.0026V21.3359ZM18.6663 21.3359C18.6663 20.6287 18.9473 19.9504 19.4474 19.4503C19.9475 18.9502 20.6258 18.6693 21.333 18.6693H23.9997C24.7069 18.6693 25.3852 18.9502 25.8853 19.4503C26.3854 19.9504 26.6663 20.6287 26.6663 21.3359V24.0026C26.6663 24.7098 26.3854 25.3881 25.8853 25.8882C25.3852 26.3883 24.7069 26.6693 23.9997 26.6693H21.333C20.6258 26.6693 19.9475 26.3883 19.4474 25.8882C18.9473 25.3881 18.6663 24.7098 18.6663 24.0026V21.3359Z" stroke="white" stroke-width="2" stroke-linecap="round" stroke-linejoin="round"/>
</svg>
