<svg width="15" height="17" viewBox="0 0 15 17" fill="none" xmlns="http://www.w3.org/2000/svg">
<path d="M4.42308 3.46154C4.10769 3.46154 3.84615 3.2 3.84615 2.88462V0.576923C3.84615 0.261538 4.10769 0 4.42308 0C4.73846 0 5 0.261538 5 0.576923V2.88462C5 3.2 4.73846 3.46154 4.42308 3.46154Z" fill="#B0B0B0"/>
<path d="M10.5769 3.46154C10.2615 3.46154 10 3.2 10 2.88462V0.576923C10 0.261538 10.2615 0 10.5769 0C10.8923 0 11.1538 0.261538 11.1538 0.576923V2.88462C11.1538 3.2 10.8923 3.46154 10.5769 3.46154Z" fill="#B0B0B0"/>
<path d="M14.0385 6.61058H0.961538C0.646154 6.61058 0.384615 6.34904 0.384615 6.03365C0.384615 5.71827 0.646154 5.45673 0.961538 5.45673H14.0385C14.3538 5.45673 14.6154 5.71827 14.6154 6.03365C14.6154 6.34904 14.3538 6.61058 14.0385 6.61058Z" fill="#B0B0B0"/>
<path d="M10.5769 16.5385H4.42308C1.61538 16.5385 0 14.9231 0 12.1154V5.57692C0 2.76923 1.61538 1.15385 4.42308 1.15385H10.5769C13.3846 1.15385 15 2.76923 15 5.57692V12.1154C15 14.9231 13.3846 16.5385 10.5769 16.5385ZM4.42308 2.30769C2.22308 2.30769 1.15385 3.37692 1.15385 5.57692V12.1154C1.15385 14.3154 2.22308 15.3846 4.42308 15.3846H10.5769C12.7769 15.3846 13.8462 14.3154 13.8462 12.1154V5.57692C13.8462 3.37692 12.7769 2.30769 10.5769 2.30769H4.42308Z" fill="#B0B0B0"/>
<path d="M4.80769 10.1923C4.70769 10.1923 4.60769 10.1693 4.51538 10.1308C4.42307 10.0923 4.33847 10.0385 4.26155 9.96923C4.19231 9.89231 4.13845 9.8077 4.09999 9.7154C4.06153 9.62309 4.03846 9.52309 4.03846 9.42309C4.03846 9.22309 4.12308 9.02309 4.26155 8.87694C4.33847 8.80771 4.42307 8.75384 4.51538 8.71538C4.65384 8.65384 4.8077 8.63846 4.96155 8.66923C5.0077 8.67692 5.05385 8.69231 5.1 8.71538C5.14616 8.73077 5.19231 8.75387 5.23846 8.78463C5.27692 8.8154 5.31538 8.84617 5.35384 8.87694C5.38461 8.9154 5.42307 8.95386 5.44614 8.99232C5.47691 9.03847 5.50001 9.08462 5.51539 9.13077C5.53847 9.17693 5.55385 9.22308 5.56155 9.26923C5.56924 9.32308 5.57692 9.36924 5.57692 9.42309C5.57692 9.62309 5.4923 9.82308 5.35384 9.96923C5.20769 10.1077 5.00769 10.1923 4.80769 10.1923Z" fill="#B0B0B0"/>
<path d="M7.5 10.1915C7.3 10.1915 7.10001 10.1068 6.95385 9.96838C6.92308 9.92991 6.89232 9.89146 6.86155 9.853C6.83078 9.80684 6.80768 9.76069 6.7923 9.71454C6.76922 9.66839 6.75384 9.62224 6.74615 9.57608C6.73845 9.52224 6.73077 9.47607 6.73077 9.42223C6.73077 9.32223 6.75384 9.22222 6.7923 9.12992C6.83076 9.03761 6.88462 8.953 6.95385 8.87608C7.16924 8.6607 7.51539 8.59145 7.79231 8.71453C7.89231 8.75299 7.96922 8.80685 8.04615 8.87608C8.18461 9.02223 8.26923 9.22223 8.26923 9.42223C8.26923 9.47607 8.26155 9.52224 8.25385 9.57608C8.24616 9.62224 8.23078 9.66839 8.2077 9.71454C8.19232 9.76069 8.16922 9.80684 8.13845 9.853C8.10768 9.89146 8.07692 9.92991 8.04615 9.96838C7.96922 10.0376 7.89231 10.0915 7.79231 10.1299C7.7 10.1684 7.6 10.1915 7.5 10.1915Z" fill="#B0B0B0"/>
<path d="M4.80769 12.8838C4.70769 12.8838 4.60769 12.8607 4.51538 12.8222C4.42307 12.7838 4.33847 12.7299 4.26155 12.6607C4.19231 12.5838 4.13845 12.5068 4.09999 12.4068C4.06153 12.3145 4.03846 12.2145 4.03846 12.1145C4.03846 11.9145 4.12308 11.7145 4.26155 11.5684C4.33847 11.4992 4.42307 11.4453 4.51538 11.4068C4.8 11.2838 5.13845 11.353 5.35384 11.5684C5.38461 11.6069 5.42307 11.6453 5.44614 11.6838C5.47691 11.7299 5.50001 11.7761 5.51539 11.8222C5.53847 11.8684 5.55385 11.9145 5.56155 11.9684C5.56924 12.0145 5.57692 12.0684 5.57692 12.1145C5.57692 12.3145 5.4923 12.5145 5.35384 12.6607C5.20769 12.7991 5.00769 12.8838 4.80769 12.8838Z" fill="#B0B0B0"/>
</svg>
