<svg width="114" height="24" viewBox="0 0 114 24" fill="none" xmlns="http://www.w3.org/2000/svg">
<path d="M98 6H111" stroke="white" stroke-width="2" stroke-linecap="round" stroke-linejoin="round"/>
<path d="M98 12H111" stroke="white" stroke-width="2" stroke-linecap="round" stroke-linejoin="round"/>
<path d="M98 18H111" stroke="white" stroke-width="2" stroke-linecap="round" stroke-linejoin="round"/>
<path d="M93 6H93.01" stroke="white" stroke-width="2" stroke-linecap="round" stroke-linejoin="round"/>
<path d="M93 12H93.01" stroke="white" stroke-width="2" stroke-linecap="round" stroke-linejoin="round"/>
<path d="M93 18H93.01" stroke="white" stroke-width="2" stroke-linecap="round" stroke-linejoin="round"/>
<path d="M20.84 4.61183C20.3292 4.10083 19.7228 3.69547 19.0554 3.41891C18.3879 3.14235 17.6725 3 16.95 3C16.2275 3 15.5121 3.14235 14.8446 3.41891C14.1772 3.69547 13.5708 4.10083 13.06 4.61183L12 5.67183L10.94 4.61183C9.9083 3.58013 8.50903 3.00053 7.05 3.00053C5.59096 3.00053 4.19169 3.58013 3.16 4.61183C2.1283 5.64352 1.54871 7.04279 1.54871 8.50183C1.54871 9.96086 2.1283 11.3601 3.16 12.3918L4.22 13.4518L12 21.2318L19.78 13.4518L20.84 12.3918C21.351 11.8811 21.7563 11.2746 22.0329 10.6072C22.3095 9.93972 22.4518 9.22431 22.4518 8.50183C22.4518 7.77934 22.3095 7.06393 22.0329 6.39647C21.7563 5.72901 21.351 5.12258 20.84 4.61183V4.61183Z" stroke="white" stroke-width="2" stroke-linecap="round" stroke-linejoin="round"/>
<path d="M62 8C63.6569 8 65 6.65685 65 5C65 3.34315 63.6569 2 62 2C60.3431 2 59 3.34315 59 5C59 6.65685 60.3431 8 62 8Z" stroke="white" stroke-width="2" stroke-linecap="round" stroke-linejoin="round"/>
<path d="M50 15C51.6569 15 53 13.6569 53 12C53 10.3431 51.6569 9 50 9C48.3431 9 47 10.3431 47 12C47 13.6569 48.3431 15 50 15Z" stroke="white" stroke-width="2" stroke-linecap="round" stroke-linejoin="round"/>
<path d="M62 22C63.6569 22 65 20.6569 65 19C65 17.3431 63.6569 16 62 16C60.3431 16 59 17.3431 59 19C59 20.6569 60.3431 22 62 22Z" stroke="white" stroke-width="2" stroke-linecap="round" stroke-linejoin="round"/>
<path d="M52.59 13.5078L59.42 17.4878" stroke="white" stroke-width="2" stroke-linecap="round" stroke-linejoin="round"/>
<path d="M59.41 6.50781L52.59 10.4878" stroke="white" stroke-width="2" stroke-linecap="round" stroke-linejoin="round"/>
</svg>
