<svg width="190" height="127" viewBox="0 0 190 127" fill="none" xmlns="http://www.w3.org/2000/svg">
<path opacity="0.22" d="M128.59 32.1919H148.702C149.762 32.1947 150.778 32.617 151.528 33.3666C152.277 34.1162 152.699 35.1321 152.702 36.1921V90.3535C152.699 91.4136 152.277 92.4294 151.528 93.179C150.778 93.9286 149.762 94.3509 148.702 94.3537H51.6833C50.6233 94.3509 49.6074 93.9286 48.8578 93.179C48.1082 92.4294 47.6859 91.4136 47.6831 90.3535V36.2027C47.6831 35.1408 48.1042 34.1222 48.8541 33.3704C49.604 32.6185 50.6214 32.1947 51.6833 32.1919H61.6153" fill="#81B441"/>
<path opacity="0.3" d="M178.503 109.853H157.452" stroke="white" stroke-width="2.11094" stroke-miterlimit="10" stroke-linecap="round"/>
<path opacity="0.3" d="M36.0731 109.853H30.7852" stroke="white" stroke-width="2.11094" stroke-miterlimit="10" stroke-linecap="round"/>
<path opacity="0.3" d="M62.4019 115.801H8.30908" stroke="white" stroke-width="2.11094" stroke-miterlimit="10" stroke-linecap="round"/>
<path d="M124.675 28.9885H144.481C145.525 28.9913 146.526 29.4075 147.265 30.1462C148.004 30.8849 148.42 31.886 148.423 32.9307V86.2635C148.42 87.3082 148.004 88.3093 147.265 89.048C146.526 89.7867 145.525 90.2029 144.481 90.2057H48.929C47.8843 90.2029 46.8832 89.7867 46.1445 89.048C45.4058 88.3093 44.9896 87.3082 44.9868 86.2635V32.9307C44.9896 31.886 45.4058 30.8849 46.1445 30.1462C46.8832 29.4075 47.8843 28.9913 48.929 28.9885H69.2626" stroke="#81B441" stroke-width="2.11094" stroke-miterlimit="10" stroke-linecap="round"/>
<path opacity="0.8" d="M56.9188 62.4098C58.2303 62.4098 59.2936 61.3465 59.2936 60.035C59.2936 58.7234 58.2303 57.6602 56.9188 57.6602C55.6072 57.6602 54.5439 58.7234 54.5439 60.035C54.5439 61.3465 55.6072 62.4098 56.9188 62.4098Z" stroke="white" stroke-width="2.11094" stroke-miterlimit="10" stroke-linecap="round"/>
<path opacity="0.8" d="M140.332 61.5865L139.203 60.4572L140.332 59.3278C140.472 59.1778 140.548 58.9793 140.545 58.7742C140.541 58.5691 140.458 58.3735 140.313 58.2284C140.168 58.0834 139.972 58.0003 139.767 57.9967C139.562 57.9931 139.363 58.0692 139.213 58.209L138.084 59.3384L136.955 58.209C136.805 58.0692 136.606 57.9931 136.401 57.9967C136.196 58.0003 136 58.0834 135.855 58.2284C135.71 58.3735 135.627 58.5691 135.624 58.7742C135.62 58.9793 135.696 59.1778 135.836 59.3278L136.965 60.4572L135.836 61.5865C135.758 61.659 135.696 61.7464 135.653 61.8435C135.609 61.9406 135.586 62.0454 135.584 62.1517C135.582 62.258 135.602 62.3636 135.642 62.4622C135.681 62.5607 135.741 62.6503 135.816 62.7254C135.891 62.8006 135.981 62.8599 136.079 62.8997C136.178 62.9395 136.283 62.959 136.39 62.9572C136.496 62.9553 136.601 62.932 136.698 62.8888C136.795 62.8455 136.882 62.7831 136.955 62.7053L138.084 61.576L139.213 62.7053C139.286 62.7831 139.373 62.8455 139.47 62.8888C139.568 62.932 139.672 62.9553 139.779 62.9572C139.885 62.959 139.99 62.9395 140.089 62.8997C140.188 62.8599 140.277 62.8006 140.352 62.7254C140.427 62.6503 140.487 62.5607 140.527 62.4622C140.566 62.3636 140.586 62.258 140.584 62.1517C140.582 62.0454 140.559 61.9406 140.516 61.8435C140.472 61.7464 140.41 61.659 140.332 61.5865Z" fill="white"/>
<path opacity="0.7" d="M68.7926 117.822C69.9584 117.822 70.9035 116.877 70.9035 115.711C70.9035 114.545 69.9584 113.6 68.7926 113.6C67.6267 113.6 66.6816 114.545 66.6816 115.711C66.6816 116.877 67.6267 117.822 68.7926 117.822Z" stroke="white" stroke-width="1.05547" stroke-miterlimit="10"/>
<path d="M150.761 109.853H47.1558" stroke="#E4E6E7" stroke-width="2.11094" stroke-miterlimit="10" stroke-linecap="round"/>
<path d="M138.855 109.415C138.875 105.41 138.342 101.422 137.271 97.5624C136.337 94.3537 133.129 81.2606 132.997 77.7882C132.865 74.3157 128.722 71.9092 128.722 71.9092C116.584 64.6212 101.28 62.3625 95.7281 61.935C95.7281 61.7186 80.5135 61.8453 64.0641 71.7139C64.0641 71.7139 59.9213 74.1204 59.7894 77.5929C59.6575 81.0654 56.4489 94.1585 55.5148 97.3671C54.5347 101.317 53.9931 105.363 53.8999 109.431" fill="white"/>
<path d="M138.855 109.415C138.875 105.41 138.342 101.422 137.271 97.5624C136.337 94.3537 133.129 81.2606 132.997 77.7882C132.865 74.3157 128.722 71.9092 128.722 71.9092C116.584 64.6212 101.28 62.3625 95.7281 61.935C95.7281 61.7186 80.5135 61.8453 64.0641 71.7139C64.0641 71.7139 59.9213 74.1204 59.7894 77.5929C59.6575 81.0654 56.4489 94.1585 55.5148 97.3671C54.5347 101.317 53.9931 105.363 53.8999 109.431" stroke="#E4E6E7" stroke-width="2.11094" stroke-linecap="round" stroke-linejoin="round"/>
<path d="M80.6929 42.7094C77.041 41.9389 77.9329 45.5908 78.0173 45.8758C78.0185 45.8916 78.0185 45.9075 78.0173 45.9233C78.5978 51.016 80.3024 51.6862 81.3737 51.5648C81.6103 51.5401 81.8475 51.6066 82.0368 51.7507C82.2261 51.8949 82.3532 52.1059 82.3922 52.3406C82.9727 55.6706 85.8436 59.845 86.4505 60.6999C86.4856 60.7496 86.5324 60.79 86.5866 60.8175C86.6409 60.8451 86.701 60.8591 86.7619 60.8582H104.209C104.27 60.8591 104.33 60.8451 104.384 60.8175C104.438 60.79 104.485 60.7496 104.52 60.6999C105.143 59.8238 108.125 55.4859 108.615 52.1242C108.63 52.0302 108.663 51.9401 108.714 51.8593C108.764 51.7785 108.83 51.7086 108.908 51.6539C108.985 51.5992 109.074 51.5608 109.167 51.541C109.26 51.5211 109.356 51.5203 109.449 51.5384C110.505 51.739 112.346 51.264 112.953 45.9233C112.952 45.9075 112.952 45.8916 112.953 45.8758C113.032 45.5697 113.924 41.9231 110.278 42.7094" fill="white"/>
<path d="M80.6929 42.7094C77.041 41.9389 77.9329 45.5908 78.0173 45.8758C78.0185 45.8916 78.0185 45.9075 78.0173 45.9233C78.5978 51.016 80.3024 51.6862 81.3737 51.5648C81.6103 51.5401 81.8475 51.6066 82.0368 51.7507C82.2261 51.8949 82.3532 52.1059 82.3922 52.3406C82.9727 55.6706 85.8436 59.845 86.4505 60.6999C86.4856 60.7496 86.5324 60.79 86.5866 60.8175C86.6409 60.8451 86.701 60.8591 86.7619 60.8582H104.209C104.27 60.8591 104.33 60.8451 104.384 60.8175C104.438 60.79 104.485 60.7496 104.52 60.6999C105.143 59.8238 108.125 55.4859 108.615 52.1242C108.63 52.0302 108.663 51.9401 108.714 51.8593C108.764 51.7785 108.83 51.7086 108.908 51.6539C108.985 51.5992 109.074 51.5608 109.167 51.541C109.26 51.5211 109.356 51.5203 109.449 51.5384C110.505 51.739 112.346 51.264 112.953 45.9233C112.952 45.9075 112.952 45.8916 112.953 45.8758C113.032 45.5697 113.924 41.9231 110.278 42.7094" stroke="#E4E6E7" stroke-width="1.5832" stroke-miterlimit="10" stroke-linecap="round"/>
<path d="M111.212 66.4945C111.278 66.5036 111.345 66.4974 111.408 66.4764C111.471 66.4553 111.529 66.42 111.576 66.3731L112.996 64.9535C113.064 64.8856 113.108 64.7965 113.119 64.7007C113.131 64.6049 113.11 64.508 113.059 64.4258C112.273 63.1486 108.426 59.2698 96.1715 59.1062H96.1346C83.7117 59.7025 79.8698 63.1856 79.0571 64.4152C79.0059 64.4968 78.9837 64.5934 78.9943 64.6892C79.0048 64.785 79.0474 64.8744 79.1151 64.9429L80.5242 66.352C80.5715 66.3989 80.6289 66.4342 80.6921 66.4553C80.7552 66.4763 80.8224 66.4825 80.8883 66.4734" fill="white"/>
<path d="M111.212 66.4945C111.278 66.5036 111.345 66.4974 111.408 66.4764C111.471 66.4553 111.529 66.42 111.576 66.3731L112.996 64.9535C113.064 64.8856 113.108 64.7965 113.119 64.7007C113.131 64.6049 113.11 64.508 113.059 64.4258C112.273 63.1486 108.426 59.2698 96.1715 59.1062H96.1346C83.7117 59.7025 79.8698 63.1856 79.0571 64.4152C79.0059 64.4968 78.9837 64.5934 78.9943 64.6892C79.0048 64.785 79.0474 64.8744 79.1151 64.9429L80.5242 66.352C80.5715 66.3989 80.6289 66.4342 80.6921 66.4553C80.7552 66.4763 80.8224 66.4825 80.8883 66.4734" stroke="#E4E6E7" stroke-width="1.05547" stroke-miterlimit="10" stroke-linecap="round"/>
<path d="M110.236 26.0278L109.814 25.1887C109.636 24.8061 109.419 24.4435 109.165 24.1069C108.287 23.034 107.212 22.1384 105.998 21.4682C105.932 21.4301 105.878 21.3731 105.844 21.3044C105.81 21.2358 105.798 21.1586 105.808 21.0827C105.818 21.0068 105.851 20.9356 105.902 20.8784C105.952 20.8211 106.019 20.7802 106.093 20.761C106.173 20.7409 106.244 20.696 106.296 20.6328C106.348 20.5696 106.378 20.4915 106.383 20.4097C106.388 20.3279 106.366 20.2468 106.322 20.1781C106.277 20.1093 106.212 20.0566 106.135 20.0275C99.3013 17.3202 94.8947 17.9799 91.7441 19.1884C91.6822 19.2153 91.6142 19.2252 91.5472 19.2171C91.4802 19.209 91.4165 19.1832 91.3628 19.1424C91.309 19.1015 91.2671 19.0471 91.2414 18.9847C91.2157 18.9223 91.207 18.8541 91.2164 18.7873C91.2447 18.5325 91.2923 18.2802 91.3589 18.0326C91.3834 17.9614 91.3862 17.8845 91.367 17.8116C91.3477 17.7388 91.3072 17.6733 91.2507 17.6235C91.1941 17.5738 91.124 17.5419 91.0493 17.5321C90.9746 17.5222 90.8987 17.5348 90.8311 17.5682C89.7746 17.9803 88.7543 18.4799 87.7808 19.0617C86.8256 18.8981 85.8599 18.7767 84.8836 18.7081C84.7746 18.7008 84.6658 18.7241 84.5694 18.7754C84.473 18.8266 84.3928 18.9038 84.3379 18.9982C84.2831 19.0926 84.2557 19.2004 84.2588 19.3096C84.262 19.4187 84.2956 19.5248 84.3558 19.6158C84.6997 19.9899 85.0663 20.3424 85.4535 20.6713C82.7747 22.7936 80.8518 25.7233 79.9704 29.0253C79.19 32.4953 79.1397 36.0896 79.8226 39.58C80.0959 41.0919 80.8338 42.481 81.9335 43.5539C82.8685 44.4621 83.6272 45.5357 84.1711 46.7203C85.2564 49.0465 86.088 51.4828 86.6515 53.9872C86.6863 54.1501 86.7549 54.304 86.8528 54.4388C86.9507 54.5737 87.0758 54.6865 87.22 54.77C87.3642 54.8536 87.5243 54.9059 87.6899 54.9238C87.8556 54.9417 88.0232 54.9246 88.1819 54.8738C89.4221 54.4674 91.6913 53.9925 95.4382 54.0399H95.2535C99.0057 53.9925 101.27 54.4674 102.51 54.8738C102.669 54.9246 102.836 54.9417 103.002 54.9238C103.168 54.9059 103.328 54.8536 103.472 54.77C103.616 54.6865 103.741 54.5737 103.839 54.4388C103.937 54.304 104.006 54.1501 104.04 53.9872C104.604 51.4828 105.435 49.0465 106.521 46.7203C107.252 45.1151 108.371 43.717 109.777 42.6514C110.116 42.393 110.397 42.0657 110.6 41.691C111.212 40.5722 112.252 38.1076 112.236 34.2077C112.208 31.3634 111.524 28.5641 110.236 26.0278Z" fill="white" stroke="#E4E6E7" stroke-width="1.05547" stroke-miterlimit="10"/>
<path opacity="0.1" d="M62.1484 109.241V89.7676C62.154 86.9579 63.2719 84.2647 65.2577 82.2769C67.2435 80.2891 69.9356 79.1685 72.7453 79.1602H120.468C123.276 79.1685 125.967 80.2876 127.952 82.2731C129.938 84.2586 131.057 86.9492 131.065 89.7571V109.769" fill="white"/>
<path d="M114.178 78.8225H119.941C122.748 78.8309 125.439 79.95 127.425 81.9355C129.41 83.921 130.529 86.6115 130.538 89.4194V109.405" stroke="white" stroke-width="2.11094" stroke-linecap="round" stroke-linejoin="round"/>
<path d="M61.6206 108.919V89.4194C61.629 86.6115 62.7481 83.921 64.7336 81.9355C66.7191 79.95 69.4096 78.8309 72.2175 78.8225H96.2347" stroke="white" stroke-width="2.11094" stroke-linecap="round" stroke-linejoin="round"/>
<path d="M109.428 78.8225H110.225" stroke="white" stroke-width="2.11094" stroke-linecap="round" stroke-linejoin="round"/>
<path d="M28.3155 17.3625H57.304C57.9726 17.3639 58.6134 17.6302 59.0862 18.1029C59.5589 18.5757 59.8252 19.2165 59.8266 19.8851V33.5376C59.8252 34.2062 59.5589 34.847 59.0862 35.3198C58.6134 35.7926 57.9726 36.0588 57.304 36.0602H55.4939V40.1501C55.4925 40.218 55.4713 40.284 55.433 40.34C55.3946 40.396 55.3407 40.4396 55.278 40.4654C55.2152 40.4911 55.1462 40.498 55.0795 40.4852C55.0129 40.4723 54.9515 40.4402 54.9028 40.3929L50.5648 36.0549H28.3155C27.6469 36.0535 27.0061 35.7873 26.5334 35.3145C26.0606 34.8417 25.7944 34.2009 25.793 33.5323V19.8798C25.7958 19.2122 26.0626 18.5727 26.5352 18.1011C27.0078 17.6294 27.6479 17.3639 28.3155 17.3625Z" fill="white" stroke="white" stroke-width="6.33281" stroke-miterlimit="10" stroke-linecap="round"/>
<path opacity="0.3" d="M28.3155 17.489H57.304C57.9726 17.4904 58.6134 17.7566 59.0862 18.2294C59.5589 18.7022 59.8252 19.343 59.8266 20.0116V33.6641C59.8252 34.3327 59.5589 34.9735 59.0862 35.4463C58.6134 35.919 57.9726 36.1852 57.304 36.1866H55.4939V40.2766C55.4925 40.3445 55.4713 40.4104 55.433 40.4665C55.3946 40.5225 55.3407 40.566 55.278 40.5918C55.2152 40.6176 55.1462 40.6245 55.0795 40.6116C55.0129 40.5987 54.9515 40.5667 54.9028 40.5193L50.5648 36.1814H28.3155C27.6469 36.18 27.0061 35.9138 26.5334 35.441C26.0606 34.9682 25.7944 34.3274 25.793 33.6588V20.0063C25.7958 19.3386 26.0626 18.6992 26.5352 18.2275C27.0078 17.7559 27.6479 17.4904 28.3155 17.489Z" stroke="white" stroke-width="2.11094" stroke-miterlimit="10" stroke-linecap="round"/>
<path opacity="0.3" d="M52.7917 28.9252C54.0304 28.9252 55.0346 27.921 55.0346 26.6823C55.0346 25.4436 54.0304 24.4395 52.7917 24.4395C51.553 24.4395 50.5488 25.4436 50.5488 26.6823C50.5488 27.921 51.553 28.9252 52.7917 28.9252Z" fill="white"/>
<path opacity="0.3" d="M43.6037 28.9252C44.8424 28.9252 45.8466 27.921 45.8466 26.6823C45.8466 25.4436 44.8424 24.4395 43.6037 24.4395C42.365 24.4395 41.3608 25.4436 41.3608 26.6823C41.3608 27.921 42.365 28.9252 43.6037 28.9252Z" fill="white"/>
<path opacity="0.3" d="M31.7881 27.8116L32.9174 26.6822L31.7881 25.5529C31.7103 25.4804 31.6479 25.393 31.6047 25.2959C31.5614 25.1988 31.5381 25.094 31.5363 24.9877C31.5344 24.8814 31.5539 24.7758 31.5937 24.6773C31.6336 24.5787 31.6928 24.4892 31.768 24.414C31.8432 24.3388 31.9327 24.2796 32.0313 24.2397C32.1298 24.1999 32.2354 24.1804 32.3417 24.1823C32.448 24.1841 32.5528 24.2074 32.6499 24.2507C32.747 24.2939 32.8344 24.3563 32.9069 24.4341L34.0362 25.5634L35.1656 24.4341C35.3156 24.2942 35.5141 24.2181 35.7192 24.2217C35.9243 24.2254 36.1199 24.3084 36.265 24.4535C36.41 24.5985 36.4931 24.7942 36.4967 24.9993C36.5003 25.2043 36.4242 25.4028 36.2844 25.5529L35.155 26.6822L36.2844 27.8116C36.4242 27.9616 36.5003 28.1601 36.4967 28.3652C36.4931 28.5703 36.41 28.7659 36.265 28.911C36.1199 29.056 35.9243 29.1391 35.7192 29.1427C35.5141 29.1463 35.3156 29.0702 35.1656 28.9304L34.0362 27.801L32.9069 28.9304C32.7568 29.0702 32.5583 29.1463 32.3533 29.1427C32.1482 29.1391 31.9525 29.056 31.8075 28.911C31.6624 28.7659 31.5794 28.5703 31.5757 28.3652C31.5721 28.1601 31.6483 27.9616 31.7881 27.8116Z" fill="white"/>
</svg>
