<svg width="1512" height="1387" viewBox="0 0 1512 1387" fill="none" xmlns="http://www.w3.org/2000/svg">
<rect width="1512" height="1386.23" fill="#FFF0E6"/>
<rect width="1512" height="107.156" fill="#FFF0E6"/>
<g clip-path="url(#clip0_47_12741)">
<mask id="mask0_47_12741" style="mask-type:luminance" maskUnits="userSpaceOnUse" x="581" y="30" width="350" height="83">
<path d="M930.998 30H581.001V112.989H930.998V30Z" fill="white"/>
</mask>
<g mask="url(#mask0_47_12741)">
<path d="M621.071 54.4293C621.047 51.311 620.101 48.2695 618.351 45.6882C616.602 43.1068 614.127 41.1012 611.24 39.9242C608.352 38.7471 605.18 38.4513 602.125 39.0741C599.069 39.6968 596.267 41.2102 594.07 43.4234C591.873 45.6367 590.381 48.4508 589.781 51.5109C589.181 54.571 589.501 57.7402 590.7 60.6189C591.898 63.4977 593.923 65.9571 596.517 67.6872C599.111 69.4173 602.16 70.3405 605.278 70.3406C609.477 70.3284 613.498 68.6497 616.46 65.6736C619.421 62.6974 621.079 58.6673 621.071 54.4689M655.684 55.0575C655.678 53.8268 655.307 52.6257 654.618 51.6056C653.93 50.5855 652.954 49.7921 651.816 49.3257C650.677 48.8593 649.425 48.7406 648.219 48.9847C647.013 49.2288 645.906 49.8247 645.038 50.6972C644.17 51.5698 643.58 52.6798 643.342 53.8873C643.104 55.0949 643.23 56.3457 643.702 57.4821C644.175 58.6185 644.973 59.5895 645.997 60.2726C647.021 60.9556 648.224 61.3202 649.454 61.3202C651.111 61.315 652.697 60.6524 653.865 59.4781C655.033 58.3038 655.688 56.7138 655.684 55.0575ZM670.689 69.6066C672.296 69.3288 674.247 63.6216 671.199 63.9126C649.712 65.4402 649.13 65.3939 627.756 63.9126C624.701 63.6216 626.652 69.3288 628.259 69.6066C637.848 71.5178 640.275 71.9609 640.275 74.6061C639.978 79.0304 639.878 83.0578 633.86 100.477C632.439 103.737 638.582 102.752 639.316 101.085C643.172 93.6323 645.599 87.7267 648.145 84.8302C648.311 84.6428 648.514 84.4928 648.742 84.3901C648.97 84.2873 649.218 84.2342 649.468 84.2342C649.718 84.2342 649.965 84.2873 650.193 84.3901C650.421 84.4928 650.625 84.6428 650.79 84.8302C653.33 87.7267 655.757 93.6323 659.612 101.085C660.36 102.752 666.497 103.731 665.075 100.477C659.063 83.0578 658.958 79.0304 658.653 74.6061C658.653 71.9609 661.08 71.5178 670.67 69.6066M687.507 61.3863V96.3834C687.507 101.879 683.691 107.229 676.84 107.229H615.258C608.056 107.229 605.239 100.88 605.239 96.3834V83.653C605.249 82.3573 604.783 81.1028 603.93 80.1277C603.076 79.1525 601.895 78.5244 600.609 78.3624C594.709 77.1408 589.469 73.7826 585.894 68.9327C582.319 64.0828 580.662 58.0832 581.241 52.0861C581.82 46.0889 584.594 40.5171 589.031 36.4406C593.467 32.3642 599.254 30.0705 605.278 30.0001C608.907 29.991 612.492 30.8031 615.762 32.3755C619.033 33.948 621.906 36.24 624.166 39.08C626.388 41.8642 628.795 41.7253 630.832 40.5878C636.407 37.4201 640.857 34.8872 641.492 34.5103C644.415 32.8239 647.206 32.2684 650.803 34.3846C652.477 35.37 679.326 50.9176 683.803 53.5629C687.408 55.6858 687.527 57.9739 687.527 61.307" fill="#004F9F"/>
<path d="M930.079 65.0831L919.782 68.1318C918.889 63.853 915.814 60.6655 910.16 60.6655C905.531 60.6655 902.151 63.5422 902.151 66.7232C902.151 69.3684 903.831 71.65 907.832 72.4105L915.47 73.8125C925.628 75.6907 930.998 82.1915 930.998 89.962C930.998 98.4467 923.816 107.037 910.848 107.037C897.707 107.037 890.591 100.365 888.839 90.0281L899.453 87.5349C900.346 93.4868 905.2 96.8331 911.225 96.8331C916.462 96.8331 919.471 94.0291 919.471 90.6431C919.471 87.9119 917.077 85.6502 913.242 84.8963L905.471 83.3554C896.616 81.583 890.863 75.9287 890.863 67.5763C890.863 57.7755 899.757 50.501 910.259 50.501C922.923 50.501 929.12 58.0665 930.099 65.1162" fill="#004F9F"/>
<path d="M871.73 78.7323C871.775 76.4866 871.371 74.2546 870.542 72.1669C869.714 70.0791 868.477 68.1777 866.904 66.5738C865.332 64.9698 863.455 63.6957 861.384 62.8259C859.313 61.956 857.09 61.508 854.844 61.508C852.597 61.508 850.374 61.956 848.303 62.8259C846.232 63.6957 844.355 64.9698 842.783 66.5738C841.21 68.1777 839.974 70.0791 839.145 72.1669C838.316 74.2546 837.912 76.4866 837.957 78.7323C837.957 88.2157 845.377 96.0523 854.86 96.0523C864.343 96.0523 871.73 88.1958 871.73 78.7323ZM854.966 50.5006C870.771 50.5006 883.337 62.821 883.337 78.6001C883.341 82.3523 882.603 86.0683 881.165 89.5339C879.726 92.9995 877.616 96.1463 874.956 98.7927C872.296 101.439 869.139 103.533 865.666 104.954C862.193 106.374 858.473 107.093 854.721 107.07C838.916 107.037 826.351 94.6834 826.351 78.8381C826.364 75.0971 827.115 71.3953 828.561 67.945C830.007 64.4946 832.119 61.3635 834.778 58.7311C837.436 56.0987 840.587 54.0166 844.052 52.6043C847.516 51.1919 851.225 50.477 854.966 50.5006Z" fill="#004F9F"/>
<path d="M806.749 67.6164C806.749 63.0666 802.603 61.7968 798.774 61.7968H788.656V73.6014H798.027C802.067 73.6014 806.756 72.5433 806.756 67.6164M800.559 95.6763C804.633 95.6763 809.157 94.519 809.157 89.5855C809.157 84.5198 804.402 83.4551 800.189 83.4551H788.656V95.6763H800.559ZM810.175 77.6751C816.682 80.1419 820.234 83.8056 820.234 91.0536C820.234 102.217 810.387 106.218 800.698 106.218H777.592V51.3281H800.348C809.176 51.3281 817.866 56.0235 817.866 65.8441C817.866 71.3132 814.923 75.1026 810.168 77.5825L810.175 77.6751Z" fill="#004F9F"/>
<path d="M756.582 78.7328C756.626 76.487 756.222 74.255 755.394 72.1673C754.565 70.0796 753.328 68.1781 751.756 66.5742C750.183 64.9703 748.307 63.6961 746.236 62.8263C744.165 61.9565 741.941 61.5084 739.695 61.5084C737.449 61.5084 735.225 61.9565 733.154 62.8263C731.083 63.6961 729.207 64.9703 727.634 66.5742C726.062 68.1781 724.825 70.0796 723.996 72.1673C723.168 74.255 722.764 76.487 722.808 78.7328C722.808 88.2161 730.228 96.0527 739.705 96.0527C749.182 96.0527 756.582 88.1963 756.582 78.7328ZM739.817 50.501C755.623 50.501 768.155 62.7883 768.155 78.5674C768.159 82.3191 767.421 86.0346 765.984 89.4998C764.546 92.9649 762.436 96.1114 759.777 98.7577C757.118 101.404 753.961 103.498 750.489 104.919C747.017 106.34 743.298 107.06 739.546 107.037C723.741 107.037 711.143 94.6838 711.143 78.8386C711.156 75.0924 711.909 71.3858 713.358 67.9315C714.808 64.4773 716.926 61.3436 719.591 58.7103C722.255 56.0771 725.414 53.9963 728.885 52.5875C732.356 51.1787 736.071 50.4696 739.817 50.501Z" fill="#004F9F"/>
<path d="M671.199 63.8462C674.247 63.5486 672.297 69.2558 670.696 69.5336C661.1 71.4448 658.673 71.8879 658.673 74.5331C658.978 78.9574 659.083 82.9848 665.095 100.404C666.517 103.664 660.38 102.679 659.632 101.012C655.777 93.5593 653.35 87.6537 650.81 84.7572C650.645 84.5698 650.441 84.4198 650.213 84.3171C649.985 84.2143 649.738 84.1612 649.488 84.1612C649.238 84.1612 648.99 84.2143 648.762 84.3171C648.534 84.4198 648.331 84.5698 648.165 84.7572C645.606 87.6537 643.165 93.5593 639.317 101.012C638.582 102.679 632.439 103.658 633.861 100.404C639.859 82.9848 639.978 78.9375 640.275 74.5331C640.275 71.8879 637.848 71.4448 628.259 69.5336C626.659 69.2558 624.701 63.5486 627.757 63.8462C649.131 65.3209 649.712 65.3672 671.199 63.8462Z" fill="white"/>
<path d="M649.454 48.755C650.694 48.7484 651.908 49.1102 652.943 49.7943C653.977 50.4785 654.785 51.4543 655.264 52.598C655.743 53.7418 655.872 55.0021 655.634 56.2191C655.396 57.4361 654.802 58.5551 653.927 59.4343C653.053 60.3134 651.937 60.9132 650.721 61.1575C649.506 61.4019 648.245 61.2798 647.098 60.8068C645.952 60.3337 644.972 59.5311 644.282 58.5005C643.593 57.4699 643.225 56.2577 643.225 55.0177C643.221 53.3614 643.875 51.7714 645.043 50.5971C646.211 49.4228 647.798 48.7602 649.454 48.755Z" fill="white"/>
<path d="M605.278 38.5373C608.42 38.5216 611.497 39.4391 614.117 41.1735C616.738 42.9079 618.784 45.3812 619.998 48.28C621.211 51.1787 621.537 54.3725 620.933 57.4565C620.33 60.5405 618.825 63.376 616.608 65.6036C614.392 67.8313 611.564 69.3508 608.483 69.9697C605.402 70.5885 602.207 70.2789 599.302 69.08C596.397 67.881 593.913 65.8468 592.166 63.235C590.418 60.6233 589.485 57.5515 589.485 54.409C589.477 50.2106 591.135 46.1805 594.096 43.2044C597.058 40.2282 601.079 38.5496 605.278 38.5373Z" fill="#30A879"/>
</g>
</g>
<rect width="1512" height="117.078" transform="translate(0 107.156)" fill="#FFF0E6"/>
<g clip-path="url(#clip1_47_12741)">
<path d="M605.906 149.141H406.031V197.219H605.906V149.141Z" fill="#D71016"/>
<path d="M528.318 155.018H520.548C520.548 155.018 516.507 155.018 515.012 156.182C513.945 156.885 513.064 157.837 512.447 158.955C511.943 159.961 511.671 161.067 511.652 162.192V184.225C511.62 185.467 511.91 186.696 512.494 187.793C513.062 188.688 513.842 189.43 514.766 189.951C516.381 190.891 518.215 191.39 520.084 191.399H582.548C584.473 191.298 586.327 190.64 587.886 189.506C588.794 188.831 589.538 187.961 590.066 186.96C590.593 185.96 590.89 184.853 590.933 183.723V171.741H551.78V175.839H566.118V182.02C566.118 182.02 566.194 184.603 564.661 185.805C563.815 186.655 562.679 187.152 561.481 187.197H541.521C540.436 187.254 539.368 186.918 538.511 186.25C537.547 185.476 536.917 184.361 536.751 183.136V163.337C536.799 162.738 536.973 162.156 537.261 161.63C537.55 161.103 537.947 160.643 538.426 160.28C539.508 159.455 540.855 159.054 542.212 159.154C544.748 159.22 555.102 159.154 555.102 159.154H561.14C562.422 159.167 563.656 159.645 564.613 160.498C565.124 160.981 565.52 161.571 565.774 162.226C566.027 162.88 566.132 163.583 566.08 164.284H590.924C590.924 164.284 590.858 159.618 589.097 157.659C589.097 157.659 586.712 154.876 583.419 154.98H568.276H543.783L528.318 155.018Z" fill="white"/>
<path d="M445.478 154.838L414.379 154.876L444.551 191.361L478.376 191.408L508.917 154.867L478.168 154.819L461.208 179.502L445.478 154.838Z" fill="white"/>
</g>
<g clip-path="url(#clip2_47_12741)">
<path d="M975.289 204.368V204.008L975.473 203.446L975.792 202.324L976.864 198.655C976.956 198.395 979.143 191.006 981.446 183.165L981.513 182.972C984.337 173.506 988.115 160.613 988.115 160.613L988.383 159.666C988.465 159.427 988.618 159.219 988.821 159.069C989.025 158.919 989.27 158.835 989.522 158.828H992.605C992.924 158.828 994.54 158.828 994.792 158.828H996.224C997.301 158.812 998.378 158.89 999.441 159.063C1000.93 159.305 1002.33 159.913 1003.52 160.831C1004.71 161.776 1005.65 162.991 1006.28 164.374L1006.42 164.182C1007.44 162.593 1008.84 161.281 1010.49 160.361C1012.14 159.442 1013.99 158.944 1015.88 158.912H1025.38C1025.68 158.911 1025.97 159.021 1026.2 159.222C1026.42 159.424 1026.56 159.701 1026.59 160.001L1026.68 161.249L1026.89 163.964C1026.89 164.031 1026.89 164.425 1026.95 165.07L1027.25 164.508C1028.21 162.639 1029.69 161.09 1031.51 160.051C1032.97 159.265 1034.61 158.862 1036.28 158.879C1036.99 158.879 1038.74 158.879 1039.97 158.879H1041.24H1042.59H1045.19H1053.67C1055.47 158.944 1057.24 159.38 1058.87 160.16C1060.5 160.94 1061.95 162.046 1063.13 163.411C1063.13 163.411 1063.77 164.165 1064.09 164.525L1064.93 164.073L1067.7 162.447C1070.78 160.671 1074.59 158.862 1079.51 158.862H1104.35C1104.61 158.859 1104.86 158.939 1105.06 159.09C1105.27 159.241 1105.42 159.455 1105.49 159.7L1105.54 160.026C1105.54 160.23 1105.49 160.431 1105.39 160.608C1105.29 160.786 1105.15 160.935 1104.97 161.04L1103.65 161.878L1092.52 168.747C1090.52 169.987 1082.27 174.921 1076.45 178.406C1081.36 183.919 1090.91 194.642 1093.5 197.674L1099.32 204.502C1099.5 204.718 1099.6 204.991 1099.59 205.273L1099.5 205.775C1099.4 205.981 1099.24 206.156 1099.05 206.278C1098.86 206.401 1098.63 206.468 1098.4 206.471H1081.4C1078.81 206.454 1076.25 205.848 1073.93 204.7C1071.61 203.552 1069.58 201.892 1067.99 199.844C1067.99 199.844 1064.64 195.79 1062.46 193.243C1063.39 194.918 1064.39 196.761 1065.33 198.562L1068.43 204.619L1068.56 205.164C1068.56 205.385 1068.5 205.601 1068.39 205.792C1068.28 205.969 1068.13 206.115 1067.95 206.215C1067.77 206.314 1067.56 206.365 1067.36 206.362H1052.88C1051.08 206.402 1049.3 205.935 1047.75 205.013C1046.47 204.206 1045.36 203.139 1044.51 201.88C1043.92 201.016 1043.41 200.102 1042.99 199.149L1042.79 198.705L1038.55 201.26C1035.54 203.103 1031.95 205.08 1027.35 205.449C1026.14 206.651 1024.67 207.575 1023.07 208.155C1020.95 208.901 1018.72 209.256 1016.48 209.202C1015.82 209.202 1015.18 209.202 1014.56 209.135L1010.99 208.9C1010.71 208.877 1010.45 208.758 1010.25 208.563C1010.05 208.369 1009.93 208.112 1009.9 207.836L1009.85 207.459L1009.62 204.209C1009.44 201.796 1009.21 198.546 1009 195.186C1006.94 196.591 1004.5 197.328 1002 197.297C1001.16 197.299 1000.32 197.24 999.491 197.122L997.28 196.828C996.852 198.216 996.241 199.54 995.462 200.766C994.237 202.614 992.456 204.025 990.377 204.795C989.48 205.123 988.546 205.334 987.595 205.424C986.861 205.497 986.122 205.531 985.384 205.524H976.495C976.314 205.526 976.135 205.487 975.971 205.41C975.808 205.333 975.663 205.22 975.549 205.08C975.397 204.874 975.318 204.624 975.323 204.368" fill="black"/>
<path d="M1103.01 160.663L1100.37 162.288L1091.92 167.516C1089.75 168.839 1080.27 174.519 1074.6 177.912C1079.91 183.868 1089.96 195.161 1092.6 198.269L1096.54 202.919L1097.8 204.376L1098.41 205.097H1089.04H1081.37C1078.96 205.074 1076.59 204.505 1074.44 203.432C1072.28 202.36 1070.4 200.812 1068.92 198.906L1061.93 190.528C1061.36 189.85 1060.79 189.188 1060.25 188.568L1060.2 188.509L1060.14 188.434L1059.99 188.258C1059.68 187.873 1059.36 187.504 1059.08 187.161L1058.15 187.73C1058.92 189.146 1059.77 190.696 1060.34 191.701C1061.66 194.047 1063.03 196.518 1064.26 198.939L1066.38 203.053L1067.04 204.343L1067.38 204.988H1052.86C1051.27 204.991 1049.72 204.559 1048.37 203.74C1047.23 203.01 1046.25 202.051 1045.5 200.925C1044.95 200.131 1044.47 199.29 1044.06 198.412C1043.81 197.842 1043.56 197.272 1043.36 196.736L1037.93 200.012C1035.05 201.763 1031.48 203.798 1026.8 204.05C1025.66 205.3 1024.22 206.247 1022.61 206.806C1020.63 207.501 1018.54 207.838 1016.44 207.803C1015.79 207.803 1015.21 207.803 1014.61 207.736L1011.46 207.526H1011.08V207.141L1011.03 206.379L1010.84 203.941C1010.62 200.942 1010.34 196.677 1010.1 192.48L1009.8 192.799C1008.79 193.818 1007.59 194.621 1006.26 195.158C1004.93 195.696 1003.5 195.956 1002.07 195.923H1001.96C1001.21 195.916 1000.45 195.86 999.702 195.756L997.741 195.488L997.13 195.404H996.803L996.761 195.094L996.669 194.734L996.485 195.354C996.046 196.974 995.371 198.521 994.483 199.945C993.405 201.585 991.832 202.838 989.992 203.522C989.181 203.812 988.337 204.001 987.479 204.083C986.783 204.146 986.084 204.174 985.385 204.167H976.479L976.655 203.597L976.974 202.458L978.063 198.814C978.155 198.562 980.3 191.274 982.645 183.299L982.696 183.165C985.519 173.64 988.56 163.218 988.736 162.766L989.305 160.763L989.49 160.127L989.573 159.817H990.579H992.656H995.278C995.597 159.817 995.94 159.817 996.275 159.817C997.285 159.799 998.295 159.875 999.291 160.043C1000.58 160.255 1001.8 160.782 1002.84 161.576C1004.12 162.625 1005.08 164.005 1005.62 165.564C1005.83 166.133 1005.99 166.695 1006.13 167.239C1006.56 166.36 1006.9 165.648 1007.11 165.254V165.195C1007.18 165.095 1007.27 164.919 1007.41 164.709C1008.33 163.285 1009.58 162.109 1011.06 161.283C1012.53 160.458 1014.19 160.009 1015.89 159.976H1025.39L1025.44 160.387L1025.5 161.224L1025.69 163.846C1025.69 163.913 1025.8 165.648 1026.01 168.186C1026.01 168.638 1026.05 169.124 1026.1 169.618C1026.1 169.845 1026.1 170.071 1026.1 170.314L1026.64 168.856V168.772C1027.09 167.401 1027.65 166.072 1028.33 164.801C1029.18 163.141 1030.49 161.76 1032.11 160.822C1033.39 160.132 1034.83 159.775 1036.29 159.783H1040.58H1041.26H1042.56H1045.07H1045.21H1053.69C1055.32 159.857 1056.93 160.267 1058.41 160.988C1059.88 161.708 1061.19 162.724 1062.26 163.972C1062.76 164.533 1063.28 165.17 1063.81 165.773L1068.25 163.26C1071.29 161.501 1074.81 159.825 1079.45 159.825H1104.29L1103.01 160.663ZM1079.56 164.575C1076.1 164.575 1073.49 165.74 1070.67 167.365L1065.36 170.364C1064.69 170.724 1064.15 171.043 1063.76 171.269L1063.13 171.637L1062.78 171.813L1062.56 171.528L1062.07 170.959C1061.39 170.121 1059.94 168.379 1058.79 167.072C1058.12 166.311 1057.32 165.686 1056.42 165.229C1055.59 164.779 1054.67 164.532 1053.73 164.508H1046.35C1047.18 165.581 1048.58 167.231 1049.99 168.931C1051.91 171.252 1053.94 173.656 1054.89 174.796L1055.58 175.633L1055.92 176.044L1055.46 176.304L1054.53 176.823L1050.29 179.202L1049.46 179.646L1049.07 179.872L1048.87 179.462L1048.43 178.624C1047.16 176.111 1042.8 167.784 1040.94 164.491C1039.97 164.491 1037.22 164.491 1036.35 164.491C1035.68 164.469 1035.01 164.629 1034.42 164.952C1033.88 165.246 1033.42 165.662 1033.07 166.167C1032.66 166.743 1032.32 167.361 1032.05 168.01C1031.75 168.705 1031.5 169.434 1031.21 170.222L1025.26 186.633L1025.14 186.968H1024.78L1023.11 186.733L1022.76 186.675V186.323C1022.61 184.287 1022.4 181.556 1022.2 178.708V178.607L1022.15 178.054L1022.09 177.049C1021.68 171.629 1021.25 166.159 1021.17 164.483H1016.02C1015.11 164.514 1014.22 164.768 1013.42 165.224C1012.63 165.68 1011.97 166.323 1011.48 167.097L1011.3 167.432L1011.15 167.742C1010.23 169.61 1007.86 174.645 1006.51 177.535V177.602L1006.46 177.677L1005.42 179.914L1004.9 181.037L1004.59 179.847L1003.98 177.435L1002.09 169.895L1002.02 169.56C1001.86 168.659 1001.62 167.776 1001.29 166.921C1001.04 166.236 1000.63 165.621 1000.09 165.128C999.639 164.812 999.122 164.605 998.579 164.525C997.87 164.414 997.152 164.363 996.434 164.374H995.094H993.142C992.07 167.985 984.229 194.533 982.813 199.283H985.276C986.3 199.344 987.327 199.222 988.308 198.923C989.214 198.602 989.985 197.985 990.495 197.172C991.136 196.134 991.614 195.004 991.911 193.821L995.848 180.718L996.828 177.368L997.331 175.692L997.699 177.368L998.403 180.718L999.241 184.513L999.291 184.689C999.467 185.594 1000.38 189.716 1000.68 191.048C1001.13 191.048 1001.52 191.115 1001.91 191.115C1002.73 191.162 1003.55 191.037 1004.31 190.748C1005.08 190.459 1005.78 190.014 1006.36 189.439C1007.36 188.287 1008.17 186.98 1008.75 185.569L1008.82 185.468L1011.57 180.132L1013.08 177.242L1013.8 175.793L1013.89 177.418L1014.08 180.668C1014.37 185.804 1014.99 196.853 1015.44 203.069C1015.79 203.069 1016.13 203.069 1016.47 203.069C1018.01 203.107 1019.54 202.874 1020.99 202.382C1022.21 201.968 1023.25 201.127 1023.9 200.012L1024.17 199.526L1024.31 199.283H1024.59H1025.16H1025.84C1029.58 199.283 1032.47 197.725 1035.44 195.932L1044.26 190.621L1045.1 190.101L1045.53 189.841L1045.74 190.302L1046.15 191.215C1046.46 191.902 1046.93 192.958 1047.18 193.603L1047.38 194.122C1047.87 195.594 1048.54 197 1049.37 198.311C1049.76 198.902 1050.26 199.405 1050.85 199.785C1051.46 200.153 1052.15 200.342 1052.86 200.33H1059.65C1058.56 198.252 1057.37 196.141 1056.22 194.072C1055.3 192.397 1053.7 189.448 1052.79 187.781C1052.67 187.563 1052.55 187.362 1052.47 187.186L1052.08 186.44L1051.88 186.063L1052.24 185.845L1052.97 185.418L1059.16 181.707L1059.81 181.33L1060.13 181.137L1060.35 181.431L1060.86 182L1061.27 182.503C1062.18 183.625 1063.78 185.519 1065.51 187.529C1068.2 190.763 1071.23 194.39 1072.53 195.949C1073.57 197.25 1074.86 198.337 1076.31 199.149C1077.87 200.006 1079.62 200.444 1081.4 200.422H1081.45H1088.15C1083.86 195.471 1071.24 181.313 1068.31 178.021L1067.61 177.183L1067.24 176.789L1067.7 176.53L1068.61 175.977C1071.69 174.151 1082.86 167.449 1087.66 164.575H1079.56ZM1042.31 184.069L1041.6 184.472L1033.53 189.096L1031.23 190.42L1030.09 191.081L1030.61 189.867L1031.68 187.42L1036.6 176.002L1037.4 174.184L1037.79 173.271L1038.2 174.176L1039.03 175.977L1042.16 182.771L1042.48 183.5L1042.66 183.868" fill="#D1D1D4"/>
<path d="M1095.41 162.548L1090.54 165.564C1088.15 167.047 1076.39 174.075 1071.27 177.116L1070.83 177.376C1075.15 182.201 1087.72 196.334 1090.66 199.769L1092.93 202.458L1093.18 202.751H1081.31C1077.12 202.751 1073.61 200.992 1070.64 197.423L1061.77 186.834L1061.59 186.65C1060.76 185.661 1060.06 184.798 1059.52 184.137L1054.96 186.859C1055.89 188.535 1057.35 191.308 1058.22 192.849C1059.52 195.161 1060.88 197.616 1062.11 200.003L1063.32 202.374L1063.46 202.625H1052.81C1051.8 202.634 1050.8 202.398 1049.9 201.939C1049 201.479 1048.22 200.81 1047.64 199.987C1047.06 199.199 1046.57 198.357 1046.16 197.473C1045.74 196.636 1045.41 195.706 1045.11 194.91L1044.96 194.508C1044.83 194.181 1044.65 193.754 1044.45 193.31L1036.65 198.001C1033.55 199.911 1030.13 201.779 1025.64 201.712C1024.78 202.96 1023.56 203.923 1022.15 204.477C1019.81 205.338 1017.31 205.647 1014.83 205.382L1013.42 205.281H1013.25V205.122L1013.14 203.723C1012.77 198.864 1012.3 190.512 1011.93 184.656L1010.97 186.516C1010.56 187.43 1010.09 188.319 1009.58 189.18C1009.03 190.089 1008.34 190.908 1007.54 191.609C1005.87 193.042 1003.53 193.879 999.953 193.385L998.813 193.285H998.696V193.167L998.445 192.045C998.445 191.777 997.238 186.474 996.987 185.343L994.214 194.625C993.376 197.289 992.338 200.07 989.188 201.268C988.505 201.513 987.792 201.662 987.068 201.712C986.332 201.77 985.594 201.79 984.857 201.771H979.671L979.738 201.536L980.349 199.442C980.534 198.872 990.88 163.771 990.972 163.419L991.316 162.272L991.357 162.137H994.918C996.08 162.083 997.245 162.114 998.403 162.23C999.479 162.322 1000.51 162.717 1001.37 163.369C1002.27 164.091 1002.95 165.052 1003.33 166.142C1003.73 167.229 1004.04 168.351 1004.24 169.493L1005.41 174.126C1006.34 172.132 1007.23 170.238 1007.92 168.772C1008.31 167.977 1008.63 167.315 1008.86 166.829C1008.99 166.569 1009.08 166.368 1009.18 166.217L1009.35 165.899C1010.05 164.793 1011.01 163.877 1012.15 163.233C1013.29 162.588 1014.57 162.235 1015.88 162.204H1023.22V162.38L1023.33 163.888C1023.33 164.123 1024.06 173.824 1024.61 181.271L1028.87 169.493C1029.12 168.772 1029.42 167.951 1029.76 167.147C1030.13 166.314 1030.59 165.527 1031.14 164.801C1031.72 163.978 1032.49 163.31 1033.39 162.857C1034.28 162.404 1035.28 162.18 1036.29 162.204H1041.24H1042.31H1045.04H1053.61C1054.92 162.265 1056.2 162.594 1057.38 163.17C1058.56 163.747 1059.6 164.559 1060.45 165.555C1061.36 166.577 1062.46 167.884 1063.21 168.798C1065.12 167.725 1068.5 165.832 1069.36 165.321C1071.96 163.83 1075.13 162.213 1079.41 162.213H1095.94L1095.41 162.548ZM1052.11 175.399C1050.03 172.886 1046.25 168.404 1044.45 166.184C1046.3 169.585 1048.71 174.243 1049.99 176.697L1052.15 175.474L1052.11 175.399ZM1037.79 179.118L1035.03 185.452L1039.5 182.888" fill="white"/>
<path d="M1090.06 164.802C1087.41 166.427 1073.2 174.922 1069.41 177.184C1072.76 180.929 1086.83 196.712 1089.97 200.389L1091.2 201.847H1089.29H1081.31C1079.28 201.87 1077.29 201.374 1075.52 200.406C1073.91 199.495 1072.49 198.287 1071.33 196.846C1069.09 194.165 1061.69 185.318 1059.7 182.973L1053.73 186.583C1054.56 188.091 1056.39 191.526 1057.42 193.361C1058.72 195.69 1060.09 198.119 1061.29 200.482L1061.95 201.763H1060.5H1052.81C1051.87 201.772 1050.94 201.526 1050.12 201.051C1049.38 200.596 1048.74 199.994 1048.23 199.284C1047.73 198.563 1047.3 197.801 1046.93 197.005C1046.57 196.167 1046.25 195.329 1045.95 194.584L1045.82 194.24C1045.59 193.662 1045.18 192.741 1044.88 192.054L1036.2 197.273C1033.05 199.217 1029.68 201.06 1025.14 200.85C1024.65 201.652 1024.01 202.349 1023.25 202.901C1022.49 203.453 1021.63 203.849 1020.72 204.067C1018.81 204.549 1016.82 204.704 1014.86 204.528H1014.1L1014.04 203.765C1013.57 197.834 1012.96 186.818 1012.64 181.339L1010.13 186.206C1009.7 187.044 1009.29 187.949 1008.79 188.77C1008.28 189.619 1007.64 190.387 1006.9 191.049C1006.08 191.749 1005.11 192.243 1004.07 192.489C1002.75 192.787 1001.39 192.827 1000.06 192.607L999.442 192.531L999.308 191.937C999.241 191.618 997.8 185 997.8 185L997.071 181.708L993.284 194.467C992.942 195.779 992.406 197.033 991.692 198.186C991.004 199.256 989.987 200.074 988.794 200.515C988.157 200.741 987.491 200.873 986.817 200.909C986.155 200.959 985.443 200.909 984.739 200.909H982.084H980.902L981.237 199.769C981.33 199.418 985.066 186.734 988.099 176.522L988.191 176.195C990.176 169.493 991.843 163.897 991.86 163.763L992.044 163.135H994.918C995.965 163.087 997.014 163.106 998.059 163.194C999.05 163.255 1000 163.592 1000.82 164.165C1001.62 164.845 1002.22 165.732 1002.55 166.729C1002.91 167.715 1003.19 168.729 1003.39 169.762L1005.21 176.933C1005.71 175.835 1006.34 174.461 1007.01 173.071C1007.74 171.538 1008.46 169.979 1009.06 168.765C1009.34 168.161 1009.59 167.65 1009.76 167.273L1010.01 166.788L1010.11 166.628L1010.17 166.486C1010.78 165.501 1011.63 164.681 1012.63 164.095C1013.63 163.51 1014.75 163.177 1015.91 163.127H1022.38L1022.43 163.964C1022.43 164.241 1023.5 178.415 1024.05 185.628L1029.77 169.829C1030.04 169.058 1030.32 168.262 1030.61 167.525C1030.92 166.764 1031.31 166.042 1031.79 165.372C1032.29 164.656 1032.97 164.077 1033.75 163.685C1034.54 163.294 1035.41 163.102 1036.29 163.127C1037.34 163.127 1041.21 163.169 1041.21 163.169H1041.73L1041.98 163.613C1043 165.422 1045.01 169.217 1046.77 172.543C1047.96 174.805 1049.02 176.866 1049.59 177.955L1053.57 175.693C1052.73 174.738 1051.33 173.046 1049.85 171.269C1047.57 168.53 1045.11 165.539 1044.36 164.568L1043.26 163.127H1045.08H1053.61C1054.78 163.158 1055.93 163.462 1056.96 164.015C1058.02 164.553 1058.96 165.29 1059.74 166.184C1060.86 167.458 1062.26 169.142 1062.98 170.005C1064.59 169.091 1068.84 166.737 1069.82 166.151C1072.73 164.442 1075.56 163.127 1079.43 163.127H1092.72L1090.06 164.802ZM1037.77 176.857L1033.12 187.622L1040.71 183.266" fill="#ED1C38"/>
<path d="M1039.53 182.889L1035.03 185.452L1037.77 179.119L1039.53 182.889ZM1052.09 175.433L1049.93 176.656C1048.65 174.201 1046.24 169.543 1044.39 166.142C1046.22 168.387 1049.97 172.903 1052.05 175.357L1052.09 175.433ZM1071.27 177.108C1076.35 174.067 1088.12 167.055 1090.54 165.556L1095.41 162.54L1095.94 162.213H1079.43C1075.15 162.213 1071.98 163.83 1069.38 165.321C1068.54 165.832 1065.14 167.725 1063.23 168.798C1062.47 167.885 1061.38 166.578 1060.47 165.556C1059.62 164.56 1058.57 163.749 1057.4 163.173C1056.22 162.596 1054.94 162.267 1053.63 162.205H1045.06H1042.33H1041.25H1036.3C1035.3 162.18 1034.3 162.404 1033.4 162.857C1032.51 163.311 1031.74 163.978 1031.16 164.802C1030.62 165.539 1030.16 166.338 1029.81 167.181C1029.47 168.019 1029.17 168.806 1028.92 169.518L1024.64 181.288C1024.1 173.841 1023.38 164.132 1023.37 163.905L1023.25 162.397V162.222H1015.91C1014.6 162.252 1013.33 162.604 1012.19 163.247C1011.05 163.89 1010.09 164.804 1009.39 165.908L1009.21 166.226C1009.12 166.385 1009.03 166.586 1008.89 166.837C1008.67 167.332 1008.35 167.994 1007.95 168.781C1007.25 170.255 1006.36 172.132 1005.44 174.151L1004.28 169.501C1004.07 168.359 1003.77 167.238 1003.36 166.151C1002.98 165.06 1002.3 164.099 1001.4 163.378C1000.53 162.738 999.486 162.36 998.403 162.289C997.708 162.209 997.008 162.172 996.308 162.18H994.918H991.357L991.316 162.314L990.972 163.461C990.88 163.788 980.534 198.889 980.349 199.484L979.738 201.545L979.671 201.78H982.084H984.228H984.773H985.158C985.795 201.78 986.44 201.78 987.051 201.721C987.766 201.661 988.47 201.509 989.146 201.269C992.338 200.071 993.385 197.289 994.172 194.634L996.928 185.31C997.18 186.432 998.344 191.735 998.386 192.012L998.637 193.134V193.251H998.755L999.894 193.402C1000.54 193.491 1001.2 193.539 1001.85 193.545C1003.93 193.642 1005.96 192.951 1007.54 191.609C1008.34 190.903 1009.02 190.078 1009.57 189.163C1010.09 188.303 1010.55 187.414 1010.96 186.499L1011.92 184.648C1012.27 190.512 1012.76 198.889 1013.13 203.698L1013.24 205.105V205.265H1013.41L1014.79 205.365C1015.41 205.365 1015.98 205.424 1016.52 205.424C1018.44 205.47 1020.35 205.143 1022.14 204.46C1023.55 203.899 1024.77 202.939 1025.65 201.696H1025.81C1030.2 201.696 1033.56 199.861 1036.6 197.985L1044.39 193.293C1044.6 193.737 1044.78 194.131 1044.9 194.483L1045.08 194.96C1045.38 195.798 1045.72 196.636 1046.14 197.524C1046.55 198.408 1047.04 199.249 1047.61 200.037C1048.2 200.865 1048.97 201.539 1049.87 202.003C1050.78 202.467 1051.78 202.706 1052.79 202.701H1063.44L1063.29 202.441L1062.11 199.987C1060.88 197.599 1059.52 195.145 1058.22 192.833C1057.38 191.283 1055.89 188.56 1054.96 186.843L1059.52 184.128C1060.06 184.765 1060.77 185.628 1061.59 186.642L1061.77 186.834L1070.64 197.474C1073.61 201.042 1077.09 202.802 1081.31 202.802H1093.18L1092.93 202.508L1090.67 199.819C1087.73 196.385 1075.16 182.227 1070.84 177.427L1071.28 177.167" fill="#1B2728"/>
<path d="M1079.43 164.031C1075.83 164.031 1073.15 165.246 1070.29 166.896L1062.82 171.085C1062.82 171.085 1060.67 168.504 1059.12 166.72C1058.43 165.915 1057.59 165.256 1056.65 164.782C1055.7 164.309 1054.67 164.03 1053.61 163.964H1045.04C1046.52 165.866 1054.91 175.877 1054.91 175.877L1049.27 179.144C1049.27 179.144 1043.3 167.608 1041.24 164.064C1041.24 164.064 1037.37 164.064 1036.32 164.064C1032.83 164.064 1031.69 167.147 1030.65 170.197L1023.49 189.909C1023.49 189.909 1021.62 164.483 1021.6 164.106H1015.94C1014.93 164.138 1013.95 164.417 1013.07 164.92C1012.2 165.423 1011.46 166.133 1010.92 166.988C1010.57 167.491 1004.95 179.554 1004.95 179.554L1002.51 169.97C1002.07 167.901 1001.67 165.949 1000.3 164.86C999.115 163.939 997.104 163.981 994.943 164.023H992.731C992.639 164.358 982.268 199.442 982.108 200.045H984.253C985.691 200.163 987.139 200.036 988.534 199.668C990.72 198.831 991.634 197.038 992.505 194.198L997.263 178.13L998.721 184.832L1000.23 191.743C1006.09 192.581 1007.73 189.28 1009.39 185.821L1013.38 178.055C1013.38 178.055 1014.34 195.647 1014.96 203.706C1018.49 203.941 1022.96 203.497 1024.57 200.138L1024.64 199.995H1024.8C1029.22 200.322 1032.51 198.563 1035.74 196.586L1045.25 190.772C1045.25 190.772 1046.2 192.858 1046.61 193.896C1047.89 197.164 1049.19 200.9 1052.81 200.9H1060.5C1059.31 198.554 1057.98 196.142 1056.64 193.804C1055.3 191.467 1052.56 186.265 1052.56 186.265L1059.9 181.875L1072.03 196.334C1074.24 199.007 1077.16 201.009 1081.31 201.009H1089.29C1085.73 196.82 1068.04 177.016 1068.04 177.016C1068.04 177.016 1086.55 165.958 1089.58 164.09L1079.43 164.031ZM1037.74 174.687L1041.85 183.634L1031.28 189.716" fill="#ED1C38"/>
<path d="M1011.28 145.115C1010.91 145.227 1010.53 145.303 1010.14 145.341C1009.88 145.376 1009.63 145.393 1009.37 145.391C1008.87 145.391 1008.32 145.349 1007.79 145.307C1007.31 145.265 1006.86 145.232 1006.39 145.232C1006.11 145.235 1005.83 145.255 1005.56 145.29C1005.05 145.354 1004.55 145.475 1004.07 145.651V145.584C1004.17 144.755 1004.55 143.983 1005.13 143.388C1005.72 142.793 1006.48 142.407 1007.31 142.291H1007.79C1008.61 142.328 1009.39 142.617 1010.03 143.118C1010.67 143.62 1011.14 144.309 1011.37 145.089V145.131L1011.28 145.115ZM1013.22 145.81L1013.17 145.349C1013.14 145.012 1013.06 144.68 1012.95 144.361C1012.63 143.226 1011.95 142.225 1011.01 141.509C1010.07 140.793 1008.93 140.4 1007.75 140.39C1007.51 140.391 1007.26 140.411 1007.02 140.448C1006.29 140.543 1005.58 140.785 1004.94 141.157C1004.3 141.53 1003.75 142.027 1003.3 142.619C1002.86 143.21 1002.54 143.885 1002.36 144.603C1002.18 145.321 1002.14 146.067 1002.26 146.798C1002.4 148.141 1003.04 149.38 1004.06 150.274C1005.07 151.168 1006.38 151.653 1007.73 151.632C1007.97 151.633 1008.21 151.616 1008.46 151.582C1009.19 151.509 1009.91 151.292 1010.56 150.943C1011.21 150.593 1011.79 150.119 1012.26 149.546L1012.33 149.312L1012.22 149.119C1012.03 149.002 1011.46 148.717 1011.12 148.558L1010.92 148.457L1010.69 148.382L1010.47 148.507C1009.89 149.173 1009.09 149.605 1008.22 149.722H1007.74C1007 149.72 1006.27 149.492 1005.66 149.069C1005.04 148.646 1004.57 148.047 1004.3 147.351V147.309C1004.87 147.056 1005.49 146.931 1006.12 146.941H1006.51L1007.42 147.041C1008.05 147.137 1008.68 147.191 1009.31 147.2C1009.74 147.199 1010.17 147.168 1010.59 147.108C1011.44 146.982 1012.26 146.698 1013 146.271C1013.23 146.111 1013.23 145.977 1013.21 145.743" fill="white"/>
<path d="M1040.05 141.01L1039.8 140.75H1038.36L1038.11 141.01V151.088L1038.36 151.347H1039.8L1040.05 151.088" fill="white"/>
<path d="M1039.09 137.156C1038.75 137.156 1038.42 137.291 1038.18 137.531C1037.94 137.771 1037.8 138.097 1037.79 138.438C1037.82 138.761 1037.97 139.063 1038.2 139.282C1038.44 139.502 1038.75 139.624 1039.08 139.624C1039.4 139.624 1039.72 139.502 1039.95 139.282C1040.19 139.063 1040.34 138.761 1040.36 138.438C1040.36 138.1 1040.23 137.777 1039.99 137.537C1039.75 137.297 1039.43 137.161 1039.09 137.156Z" fill="white"/>
<path d="M1020.31 142.292C1020.79 142.297 1021.27 142.399 1021.72 142.592C1022.16 142.785 1022.57 143.065 1022.9 143.415C1023.24 143.765 1023.5 144.179 1023.67 144.632C1023.85 145.085 1023.93 145.568 1023.91 146.053C1023.94 146.529 1023.87 147.005 1023.7 147.453C1023.54 147.902 1023.29 148.312 1022.96 148.66C1022.64 149.009 1022.25 149.287 1021.81 149.48C1021.37 149.673 1020.9 149.775 1020.43 149.781C1019.46 149.793 1018.53 149.433 1017.82 148.776C1017.47 148.431 1017.19 148.017 1017 147.56C1016.82 147.104 1016.72 146.614 1016.73 146.12C1016.7 145.139 1017.06 144.186 1017.73 143.469C1018.4 142.752 1019.33 142.329 1020.31 142.292ZM1020.26 151.616H1020.54C1021.24 151.62 1021.95 151.483 1022.6 151.213C1023.26 150.942 1023.85 150.544 1024.35 150.041C1024.86 149.51 1025.26 148.884 1025.53 148.199C1025.8 147.513 1025.93 146.781 1025.91 146.045C1025.93 145.305 1025.8 144.569 1025.52 143.881C1025.25 143.193 1024.84 142.567 1024.33 142.038C1023.81 141.51 1023.19 141.09 1022.51 140.804C1021.82 140.519 1021.09 140.372 1020.35 140.373C1019.12 140.365 1017.92 140.775 1016.95 141.535C1015.97 142.296 1015.29 143.362 1015 144.562C1014.83 145.412 1014.76 146.276 1014.77 147.142V155.05L1015.02 155.31H1016.43L1016.68 155.042V150.057L1016.75 150.124C1017.71 151.009 1018.95 151.535 1020.26 151.616Z" fill="white"/>
<path d="M995.051 142.292C995.536 142.298 996.015 142.401 996.459 142.595C996.904 142.788 997.305 143.068 997.641 143.418C997.976 143.768 998.238 144.181 998.412 144.634C998.586 145.086 998.668 145.569 998.654 146.053C998.68 146.529 998.609 147.006 998.446 147.454C998.284 147.902 998.032 148.312 997.706 148.661C997.381 149.009 996.988 149.288 996.552 149.48C996.116 149.673 995.645 149.775 995.169 149.781C994.203 149.793 993.271 149.433 992.563 148.776C992.209 148.432 991.929 148.019 991.74 147.562C991.551 147.105 991.458 146.615 991.466 146.12C991.436 145.139 991.796 144.187 992.466 143.47C993.136 142.752 994.062 142.329 995.043 142.292M995.043 151.616H995.311C996.019 151.621 996.721 151.483 997.376 151.213C998.03 150.943 998.624 150.544 999.123 150.041C1000.15 148.97 1000.71 147.536 1000.68 146.053C1000.73 144.676 1000.26 143.331 999.376 142.277C998.488 141.223 997.241 140.537 995.875 140.35C994.51 140.163 993.124 140.49 991.986 141.267C990.848 142.043 990.039 143.215 989.715 144.554C989.565 145.406 989.498 146.27 989.514 147.134V155.042L989.765 155.302H991.181L991.424 155.034V150.058L991.499 150.125C992.459 151.017 993.701 151.545 995.01 151.616" fill="white"/>
<path d="M1027.29 149.848C1027.85 150.41 1028.52 150.855 1029.25 151.157C1029.99 151.459 1030.77 151.612 1031.57 151.607H1031.68C1034.67 151.607 1036.01 149.931 1036.01 148.34C1036.01 146.111 1033.89 145.5 1033.25 145.366L1032.62 145.24C1032.09 145.14 1031.54 145.031 1031.07 144.897C1030.72 144.804 1029.58 144.427 1029.58 143.59C1029.58 142.752 1030.56 142.182 1031.54 142.182C1032.4 142.155 1033.24 142.454 1033.89 143.02L1034.17 143.129L1034.42 143.037C1034.76 142.779 1035.09 142.5 1035.4 142.199L1035.49 141.973L1035.33 141.713C1034.26 140.816 1032.9 140.353 1031.5 140.415C1029.25 140.415 1027.56 141.856 1027.56 143.766C1027.56 145.282 1028.79 146.363 1031.07 146.807L1032.48 147.075C1033.4 147.242 1033.91 147.745 1033.91 148.432C1033.91 149.119 1033.08 149.806 1031.71 149.806C1030.63 149.798 1029.59 149.379 1028.81 148.633L1028.59 148.516L1028.38 148.608L1027.24 149.471L1027.17 149.63L1027.29 149.848Z" fill="white"/>
<path d="M1103.21 201.964C1103.32 201.964 1103.42 202.005 1103.49 202.079C1103.56 202.153 1103.61 202.253 1103.61 202.357C1103.61 202.462 1103.56 202.562 1103.49 202.636C1103.42 202.71 1103.32 202.751 1103.21 202.751H1102.67V201.964H1103.21ZM1103.51 203.27C1103.71 203.223 1103.89 203.105 1104 202.938C1104.12 202.772 1104.17 202.568 1104.15 202.366C1104.16 202.239 1104.14 202.112 1104.1 201.993C1104.05 201.874 1103.98 201.766 1103.9 201.675C1103.81 201.584 1103.7 201.513 1103.58 201.466C1103.47 201.419 1103.34 201.397 1103.21 201.402H1102.05V204.326H1102.62V203.337H1102.8L1103.53 204.351H1104.23L1103.51 203.27ZM1103.05 205.273C1103.53 205.278 1104 205.14 1104.41 204.877C1104.81 204.614 1105.12 204.238 1105.31 203.796C1105.49 203.354 1105.55 202.866 1105.46 202.395C1105.37 201.924 1105.14 201.49 1104.8 201.149C1104.46 200.808 1104.03 200.575 1103.56 200.479C1103.09 200.384 1102.6 200.43 1102.16 200.613C1101.71 200.795 1101.33 201.105 1101.07 201.504C1100.8 201.903 1100.66 202.372 1100.66 202.852C1100.65 203.169 1100.71 203.483 1100.83 203.778C1100.95 204.072 1101.12 204.339 1101.35 204.565C1101.57 204.79 1101.84 204.969 1102.13 205.09C1102.42 205.212 1102.74 205.274 1103.05 205.273ZM1103.05 199.911C1103.83 199.911 1104.58 200.22 1105.13 200.77C1105.68 201.32 1105.99 202.066 1105.99 202.843C1105.99 203.621 1105.68 204.367 1105.13 204.917C1104.58 205.466 1103.83 205.775 1103.05 205.775C1102.28 205.775 1101.53 205.466 1100.98 204.917C1100.43 204.367 1100.12 203.621 1100.12 202.843C1100.12 202.066 1100.43 201.32 1100.98 200.77C1101.53 200.22 1102.28 199.911 1103.05 199.911Z" fill="white"/>
<path d="M973.036 173.682C973.036 180.309 971.071 186.788 967.389 192.298C963.706 197.809 958.473 202.104 952.35 204.64C946.227 207.177 939.489 207.84 932.989 206.547C926.489 205.254 920.518 202.063 915.831 197.376C911.145 192.69 907.953 186.719 906.66 180.219C905.368 173.719 906.031 166.981 908.567 160.858C911.104 154.735 915.399 149.501 920.909 145.819C926.42 142.137 932.899 140.172 939.526 140.172C948.414 140.172 956.937 143.702 963.221 149.987C969.505 156.271 973.036 164.794 973.036 173.682Z" fill="white"/>
<path d="M939.527 203.958C944.928 203.956 950.23 202.51 954.884 199.77C959.538 197.029 963.374 193.093 965.994 188.37C968.614 183.648 969.924 178.31 969.786 172.911C969.649 167.511 968.069 162.247 965.212 157.664C966.375 161.839 966.232 166.271 964.802 170.363C963.372 174.454 960.723 178.01 957.211 180.551C948.055 187.303 934.718 187.345 916.321 193.117C919.157 196.516 922.706 199.25 926.716 201.123C930.727 202.997 935.1 203.964 939.527 203.958Z" fill="#00528A"/>
<path d="M957.488 149.32C951.851 145.161 944.946 143.086 937.951 143.448C930.955 143.81 924.302 146.587 919.125 151.307C913.948 156.026 910.568 162.395 909.562 169.327C908.556 176.259 909.985 183.326 913.607 189.323C934.416 183.643 951.305 169.778 957.488 149.32Z" fill="#ED1C38"/>
</g>
<g clip-path="url(#clip3_47_12741)">
<path d="M630.997 240.812H481.004V329.656H630.997V240.812Z" fill="#FEC800"/>
<path fill-rule="evenodd" clip-rule="evenodd" d="M492.123 258.022L503.076 269.542V277.761L492.123 266.252V258.022Z" fill="#12100D"/>
<path fill-rule="evenodd" clip-rule="evenodd" d="M492.123 291.126L503.076 302.44V310.65L492.123 299.326V291.126Z" fill="#12100D"/>
<path fill-rule="evenodd" clip-rule="evenodd" d="M492.143 274.901L503.096 286.225V294.464L492.143 283.14V274.901Z" fill="#12100D"/>
<path fill-rule="evenodd" clip-rule="evenodd" d="M492.123 315.432V307.232L501.475 316.887H493.539L492.123 315.432Z" fill="#12100D"/>
<path fill-rule="evenodd" clip-rule="evenodd" d="M503.114 253.581V261.166L495.783 253.581H503.114Z" fill="#12100D"/>
<mask id="mask1_47_12741" style="mask-type:luminance" maskUnits="userSpaceOnUse" x="480" y="240" width="152" height="91">
<path d="M631.368 240.441H480.633V330.027H631.368V240.441Z" fill="white"/>
</mask>
<g mask="url(#mask1_47_12741)">
<path fill-rule="evenodd" clip-rule="evenodd" d="M532.186 305.847L531.092 309.069L532.254 309.508C532.415 309.151 532.594 308.802 532.791 308.463C532.928 308.263 533.089 308.08 533.269 307.917C533.415 307.768 533.593 307.653 533.788 307.58C533.984 307.507 534.194 307.479 534.402 307.497C534.424 307.504 534.444 307.516 534.459 307.534C534.475 307.551 534.485 307.572 534.489 307.595C534.494 307.673 534.494 307.751 534.489 307.829C534.489 309.703 534.489 311.568 534.489 313.442C534.489 313.618 534.489 313.803 534.304 313.989C534.027 314.076 533.734 314.106 533.445 314.077V315.336H537.75V314.037C537.493 314.057 537.235 314.057 536.979 314.037C536.91 314.037 536.823 314.037 536.764 313.872C536.703 313.723 536.68 313.562 536.696 313.403C536.696 311.451 536.696 309.566 536.696 307.643C536.708 307.601 536.732 307.563 536.764 307.534C536.797 307.504 536.838 307.485 536.881 307.477C537.281 307.497 537.658 307.668 537.935 307.956C538.359 308.404 538.691 308.932 538.912 309.508L540.083 309.069L539.048 305.847H538.228L538.121 306.169H533.113L533.025 305.847H532.186ZM608.895 306.169V307.438C609.176 307.414 609.46 307.434 609.735 307.497C609.798 307.548 609.853 307.607 609.901 307.673C609.92 307.854 609.92 308.038 609.901 308.219C609.901 310.045 609.901 311.87 609.901 313.696C609.901 313.823 609.735 314.018 609.588 314.037C609.348 314.062 609.106 314.062 608.866 314.037V315.297H616.5L617.652 311.9L616.5 311.49C616.394 311.83 616.25 312.158 616.07 312.466C615.987 312.607 615.893 312.741 615.787 312.866C615.618 313.068 615.424 313.248 615.211 313.403C614.989 313.552 614.745 313.667 614.489 313.745C613.801 313.876 613.098 313.916 612.4 313.862C612.312 313.862 612.195 313.862 612.126 313.686C612.112 313.566 612.112 313.445 612.126 313.325V311.167C612.499 311.137 612.873 311.16 613.239 311.236C613.323 311.279 613.395 311.341 613.449 311.417C613.503 311.494 613.539 311.582 613.552 311.675C613.566 311.938 613.566 312.202 613.552 312.466H614.684V308.561H613.552C613.573 308.888 613.553 309.216 613.493 309.537C613.45 309.664 613.359 309.769 613.239 309.83C612.866 309.897 612.486 309.92 612.107 309.898V307.595H613.474C613.839 307.589 614.203 307.631 614.557 307.721C614.776 307.795 614.978 307.911 615.153 308.063C615.334 308.208 615.492 308.379 615.621 308.571C615.804 308.848 615.967 309.139 616.109 309.44L617.242 309.03L616.265 306.101L608.895 306.169ZM592.3 306.169V307.438C592.579 307.404 592.861 307.404 593.139 307.438C593.383 307.624 593.344 307.819 593.364 308.014C593.364 309.85 593.364 311.685 593.364 313.52C593.369 313.596 593.359 313.673 593.334 313.745C593.308 313.817 593.269 313.883 593.217 313.94C592.923 314.04 592.609 314.073 592.3 314.037V315.297H596.624V314.037C596.378 314.062 596.129 314.062 595.882 314.037C595.831 314.029 595.782 314.009 595.738 313.981C595.695 313.952 595.657 313.915 595.629 313.872C595.574 313.756 595.55 313.628 595.56 313.501C595.56 311.685 595.56 309.879 595.56 308.073C595.534 307.981 595.534 307.883 595.559 307.791C595.584 307.698 595.634 307.614 595.703 307.548C595.772 307.482 595.858 307.435 595.952 307.414C596.045 307.393 596.143 307.398 596.234 307.429H596.634V306.16L592.3 306.169ZM571.663 306.169V307.438C571.955 307.401 572.251 307.428 572.532 307.516C572.737 307.653 572.708 307.848 572.727 308.024C572.727 309.83 572.727 311.646 572.727 313.452C572.727 313.618 572.727 313.784 572.571 313.959C572.37 314.055 572.148 314.096 571.927 314.077H571.663V315.336H579.297L580.468 311.939L579.297 311.529C579.157 312.003 578.929 312.447 578.623 312.837C577.559 314.077 576.427 313.813 575.314 313.813C575.216 313.813 575.119 313.813 575.011 313.754C574.979 313.729 574.953 313.696 574.936 313.659C574.919 313.622 574.911 313.581 574.914 313.54C574.914 312.749 574.914 311.948 574.914 311.158C575.283 311.127 575.654 311.15 576.017 311.226C576.098 311.278 576.165 311.349 576.215 311.432C576.264 311.515 576.293 311.608 576.3 311.704C576.329 311.967 576.329 312.232 576.3 312.495H577.413V308.59H576.3C576.332 308.942 576.296 309.297 576.193 309.635C576.147 309.703 576.086 309.761 576.015 309.803C575.944 309.845 575.865 309.871 575.783 309.879C575.47 309.879 575.168 309.879 574.806 309.879V307.595C575.382 307.595 575.968 307.595 576.544 307.595C576.841 307.594 577.134 307.656 577.405 307.777C577.676 307.899 577.918 308.076 578.116 308.297C578.401 308.635 578.628 309.018 578.789 309.43L579.941 309.02L578.965 306.091L571.663 306.169ZM552.051 306.169V307.438C552.319 307.395 552.593 307.395 552.861 307.438C552.928 307.479 552.984 307.534 553.025 307.6C553.065 307.667 553.09 307.742 553.096 307.819C553.106 307.923 553.106 308.028 553.096 308.131C553.096 309.898 553.096 311.665 553.096 313.442C553.096 313.579 553.096 313.715 552.949 313.872C552.81 313.986 552.631 314.041 552.451 314.028H552.032V315.287H558.787L559.939 311.89L558.787 311.48C558.61 312.031 558.332 312.544 557.967 312.993C557.662 313.31 557.286 313.552 556.871 313.698C556.456 313.843 556.012 313.89 555.575 313.832C555.521 313.829 555.468 313.814 555.42 313.787C555.373 313.76 555.332 313.722 555.302 313.676C555.302 313.549 555.302 313.422 555.302 313.286C555.302 311.509 555.302 309.723 555.302 307.946C555.293 307.855 555.307 307.763 555.341 307.678C555.375 307.593 555.428 307.518 555.497 307.458C555.567 307.413 555.648 307.389 555.731 307.39H556.366V306.12L552.051 306.169ZM510.368 306.169V307.438C510.656 307.4 510.95 307.427 511.227 307.516C511.262 307.534 511.293 307.559 511.318 307.589C511.343 307.62 511.362 307.655 511.373 307.692C511.424 307.9 511.447 308.113 511.441 308.327C511.441 309.635 511.441 310.943 511.441 312.231C511.397 312.927 511.594 313.616 511.998 314.184C512.171 314.403 512.371 314.6 512.593 314.77C512.853 314.965 513.131 315.135 513.423 315.277C513.896 315.431 514.39 315.51 514.887 315.512C515.326 315.515 515.763 315.456 516.186 315.336C516.343 315.284 516.496 315.222 516.644 315.15C516.785 315.08 516.922 315.001 517.054 314.916C517.181 314.827 517.302 314.729 517.416 314.623C517.527 314.513 517.632 314.395 517.728 314.272C518.21 313.577 518.453 312.744 518.421 311.9C518.421 310.621 518.421 309.342 518.421 308.063C518.421 307.917 518.421 307.77 518.529 307.624C518.597 307.546 518.69 307.494 518.792 307.477C519.023 307.463 519.254 307.463 519.485 307.477V306.208H515.824V307.477C516.106 307.453 516.389 307.473 516.664 307.536C516.73 307.575 516.787 307.628 516.83 307.692C516.845 307.802 516.845 307.914 516.83 308.024C516.83 309.352 516.83 310.689 516.83 312.026C516.822 312.358 516.767 312.687 516.664 313.003C516.559 313.239 516.394 313.444 516.186 313.598C515.969 313.76 515.717 313.867 515.451 313.913C515.185 313.959 514.911 313.941 514.653 313.862C514.394 313.794 514.162 313.647 513.989 313.442C513.731 313.086 513.585 312.661 513.569 312.222C513.569 312.02 513.569 311.815 513.569 311.607V308.083C513.556 307.974 513.568 307.865 513.604 307.761C513.639 307.658 513.698 307.565 513.774 307.487C513.911 307.411 514.068 307.381 514.224 307.399H514.663V306.13L510.368 306.169ZM619.799 316.907H508.708V304.539H619.78L619.799 316.907Z" fill="#12100D"/>
<path d="M619.877 253.581H508.708V257.535H619.877V253.581Z" fill="#12100D"/>
<path fill-rule="evenodd" clip-rule="evenodd" d="M582.831 263.167H599.28V268.048C598.499 268.048 597.718 268.048 596.937 268.048C596.632 268.074 596.333 268.143 596.048 268.253C595.854 268.371 595.684 268.527 595.551 268.712C595.426 268.904 595.343 269.12 595.307 269.346C595.23 269.939 595.198 270.536 595.209 271.133V277.244H607.48V270.703C607.484 270.233 607.455 269.763 607.392 269.298C607.332 268.979 607.187 268.682 606.972 268.438C606.854 268.327 606.71 268.246 606.552 268.204C606.233 268.12 605.906 268.071 605.576 268.058C604.854 268.058 604.122 268.058 603.399 268.058V263.177H619.916V268.058C619.106 268.058 618.306 268.058 617.486 268.058C617.271 268.074 617.059 268.11 616.851 268.165C616.625 268.235 616.424 268.371 616.275 268.556C616.1 268.752 615.991 268.997 615.963 269.258C615.883 269.88 615.847 270.506 615.855 271.133V290.139C615.847 290.793 615.893 291.446 615.992 292.092C616.043 292.382 616.179 292.65 616.383 292.863C616.626 293.077 616.929 293.21 617.251 293.244C618.137 293.327 619.027 293.356 619.916 293.331V298.212H603.36V293.331C604.092 293.331 604.824 293.332 605.566 293.283L606.133 293.205C606.446 293.148 606.739 293.01 606.982 292.804C607.229 292.538 607.375 292.192 607.392 291.828C607.455 291.264 607.485 290.697 607.48 290.13V282.71H595.209V290.13C595.209 290.774 595.209 291.408 595.277 292.082C595.301 292.242 595.35 292.397 595.424 292.541C595.517 292.719 595.646 292.875 595.804 293C596.055 293.155 596.34 293.246 596.634 293.263H597.054C597.796 293.263 598.538 293.263 599.28 293.263V298.144H582.831V293.263C583.58 293.287 584.329 293.268 585.076 293.205L585.72 293.087C586.028 293.005 586.301 292.827 586.501 292.58C586.687 292.309 586.792 291.991 586.804 291.662C586.848 291.231 586.867 290.797 586.862 290.364V271.396C586.876 270.744 586.84 270.091 586.755 269.444C586.705 269.031 586.503 268.652 586.189 268.38C586.103 268.312 586.007 268.256 585.906 268.214C585.39 268.06 584.852 267.997 584.315 268.028H582.831V263.167ZM556.62 268.8C556.62 276.18 556.62 283.57 556.62 290.95C556.606 291.279 556.645 291.609 556.737 291.926C556.837 292.124 556.998 292.284 557.196 292.385C557.395 292.464 557.606 292.51 557.821 292.521H558.201C558.797 292.521 559.392 292.521 559.978 292.521C560.564 292.521 561.169 292.433 561.755 292.375C562.174 292.306 562.584 292.238 562.994 292.141C563.404 292.043 563.795 291.906 564.195 291.77C564.583 291.624 564.958 291.448 565.318 291.242C565.658 291.034 565.984 290.802 566.294 290.549C566.614 290.289 566.914 290.005 567.192 289.7C567.407 289.456 567.622 289.212 567.817 288.948C568.012 288.685 568.178 288.411 568.354 288.138C568.607 287.679 568.861 287.221 569.076 286.742C569.278 286.264 569.454 285.775 569.603 285.278C569.807 284.55 569.963 283.81 570.072 283.062C570.15 282.213 570.238 281.363 570.238 280.514C570.226 279.666 570.171 278.819 570.072 277.976C569.994 277.439 569.916 276.892 569.789 276.365C569.662 275.838 569.496 275.321 569.32 274.803C569.144 274.286 568.939 273.827 568.715 273.398C568.49 272.968 568.207 272.509 567.934 272.08C567.779 271.842 567.61 271.613 567.426 271.396C567.251 271.182 567.055 270.986 566.85 270.781C566.626 270.561 566.384 270.359 566.128 270.176C565.873 269.989 565.602 269.826 565.318 269.688C565.035 269.543 564.741 269.423 564.439 269.327C563.68 269.086 562.898 268.926 562.106 268.848C561.501 268.79 560.896 268.761 560.29 268.761L556.62 268.8ZM544.31 263.167H561.96C563.288 263.177 564.615 263.265 565.933 263.431C566.577 263.528 567.231 263.636 567.885 263.792C568.539 263.948 569.135 264.143 569.759 264.348C570.381 264.579 570.985 264.856 571.565 265.178C572.148 265.501 572.706 265.867 573.235 266.271C573.763 266.675 574.259 267.118 574.718 267.599C575.187 268.126 575.695 268.653 576.075 269.219C576.485 269.798 576.863 270.397 577.208 271.016C577.547 271.673 577.854 272.348 578.125 273.036C578.389 273.729 578.574 274.442 578.77 275.155C578.954 275.973 579.091 276.801 579.18 277.634C579.238 278.298 579.297 278.952 579.316 279.587C579.336 280.221 579.316 280.905 579.316 281.539C579.316 282.174 579.199 283.072 579.082 283.833C578.965 284.595 578.77 285.346 578.574 286.088C578.137 287.617 577.479 289.073 576.622 290.413C575.767 291.754 574.721 292.964 573.518 294.005C573.039 294.396 572.542 294.786 572.073 295.128C571.604 295.469 571.038 295.762 570.501 296.104C569.824 296.411 569.126 296.669 568.412 296.875C567.368 297.168 566.304 297.402 565.249 297.588C563.687 297.865 562.109 298.051 560.525 298.144H544.31V293.263C545.052 293.263 545.784 293.263 546.526 293.214C546.75 293.214 546.965 293.156 547.18 293.107C547.417 293.042 547.629 292.906 547.785 292.716C547.957 292.526 548.09 292.304 548.176 292.062C548.313 291.421 548.369 290.765 548.342 290.11V271.025C548.346 270.49 548.317 269.956 548.254 269.424C548.22 269.053 548.054 268.707 547.785 268.448C547.596 268.283 547.367 268.169 547.121 268.116C546.572 268.032 546.017 267.996 545.462 268.009H544.31V263.167ZM508.708 263.167H536.842L540.688 274.257L536.276 275.867C536.042 275.311 535.797 274.745 535.514 274.208C535.231 273.671 534.909 273.153 534.538 272.636C534.314 272.296 534.07 271.97 533.806 271.66C533.543 271.354 533.259 271.067 532.957 270.801C532.647 270.534 532.321 270.286 531.981 270.059C531.302 269.606 530.548 269.275 529.755 269.083C529.159 268.975 528.564 268.868 527.968 268.8C527.373 268.731 526.836 268.751 526.231 268.751H521.086V277.537C522.334 277.579 523.583 277.533 524.825 277.4C525.316 277.332 525.764 277.085 526.084 276.707C526.353 276.312 526.503 275.847 526.514 275.369C526.589 274.431 526.615 273.489 526.592 272.548H530.897V287.347H526.592C526.592 286.605 526.592 285.864 526.592 285.122C526.592 284.887 526.533 284.643 526.504 284.409C526.428 283.893 526.2 283.41 525.85 283.023C525.429 282.636 524.879 282.42 524.308 282.418C523.234 282.32 522.16 282.359 521.086 282.349V290.959C521.081 291.287 521.11 291.614 521.174 291.936C521.262 292.104 521.398 292.243 521.565 292.336C521.896 292.475 522.25 292.554 522.609 292.57H525.967C526.475 292.57 526.943 292.57 527.49 292.511C528.037 292.453 528.466 292.385 529.003 292.306C529.54 292.228 529.794 292.141 530.175 292.033C530.555 291.926 530.946 291.76 531.317 291.613C531.727 291.431 532.124 291.222 532.508 290.989C532.902 290.756 533.283 290.502 533.65 290.227C533.994 289.939 534.32 289.629 534.626 289.3C535.134 288.727 535.606 288.124 536.042 287.494C536.447 286.865 536.816 286.213 537.145 285.541C537.413 284.932 537.651 284.31 537.857 283.677L542.289 285.258L537.857 298.164H508.708V293.283C509.67 293.342 510.635 293.299 511.588 293.156C511.871 293.096 512.129 292.951 512.326 292.74C512.523 292.528 512.651 292.261 512.691 291.975C512.748 291.348 512.771 290.719 512.759 290.091V271.006C512.772 270.401 512.726 269.796 512.623 269.2C512.558 268.915 512.408 268.656 512.193 268.458C512.041 268.31 511.852 268.206 511.646 268.155C511.002 268.048 510.347 268.008 509.694 268.038H508.718L508.708 263.167Z" fill="#12100D"/>
</g>
</g>
<g clip-path="url(#clip4_47_12741)">
<mask id="mask2_47_12741" style="mask-type:luminance" maskUnits="userSpaceOnUse" x="681" y="264" width="150" height="42">
<path d="M830.999 264.703H681V305.766H830.999V264.703Z" fill="white"/>
</mask>
<g mask="url(#mask2_47_12741)">
<path d="M756.063 266.274C755.607 267.23 754.878 268.03 753.968 268.572L756.958 270.38L755.269 271.224C755.215 271.983 754.958 272.713 754.523 273.338C754.089 273.962 753.495 274.458 752.802 274.772C752.115 275.044 751.369 275.132 750.637 275.028C749.906 274.924 749.214 274.633 748.629 274.181C747.539 273.201 745.301 269.265 745.301 269.265L750.454 265.886L753.224 268.082C753.473 267.851 753.658 267.561 753.763 267.239C753.868 266.917 753.889 266.573 753.824 266.241C754.601 265.708 755.429 265.227 756.181 264.703C756.184 265.23 756.136 265.756 756.037 266.274" fill="#008C49"/>
<path d="M761.731 294.556C761.91 294.925 761.997 295.333 761.984 295.743C761.971 296.154 761.858 296.555 761.655 296.912C761.423 297.302 761.079 297.614 760.668 297.806C760.257 297.999 759.797 298.064 759.349 297.994C758.952 297.925 758.58 297.756 758.268 297.503C757.955 297.249 757.713 296.92 757.565 296.546C757.417 296.172 757.367 295.766 757.42 295.367C757.474 294.968 757.629 294.59 757.871 294.268C758.148 293.907 758.526 293.634 758.957 293.484C759.387 293.334 759.853 293.313 760.295 293.424C760.911 293.607 761.432 294.022 761.748 294.581" fill="#008C49"/>
<path d="M693.806 280.305C693.806 275.406 691.652 273.227 686.829 273.227H681V296.879H685.469V287.384C686.068 287.384 686.668 287.384 687.099 287.308L689.92 296.879H694.516L691.137 286.269C692.429 285.602 693.874 284.022 693.874 280.305M685.469 276.986H686.634C688.467 276.986 689.346 277.484 689.346 280.305C689.346 283.127 688.501 283.617 686.634 283.617H685.469V276.986Z" fill="black"/>
</g>
<path d="M699.584 273.226L695.233 296.879H699.584L700.276 291.734H704.213L704.922 296.87H709.273L704.914 273.218L699.584 273.226ZM703.579 287.789H700.927L702.245 279.443L703.579 287.789Z" fill="black"/>
<mask id="mask3_47_12741" style="mask-type:luminance" maskUnits="userSpaceOnUse" x="681" y="264" width="150" height="47">
<path d="M830.999 264.703H681V310.116H830.999V264.703Z" fill="white"/>
</mask>
<g mask="url(#mask3_47_12741)">
<path d="M716.884 272.906C713.192 272.906 710.802 275.331 710.802 279.081V291.017C710.802 294.776 712.99 297.201 716.369 297.201H717.484C720.863 297.201 723.05 294.776 723.05 291.017V284.648H717.053V288.28H718.827V290.282C718.827 292.766 718.117 293.247 716.884 293.247C715.651 293.247 715.27 292.572 715.27 291.051V279.149C715.27 276.86 716.411 276.86 716.791 276.86C718.109 276.86 718.827 277.518 718.827 280.982V281.218H723.101V279.529C723.101 275.516 720.66 272.932 716.884 272.932" fill="black"/>
<path d="M734.513 285.517L730.019 273.227H725.914V296.879H729.994V283.414L734.716 296.879H738.594V273.227H734.513V285.517Z" fill="black"/>
<path d="M777.621 283.288C775.872 281.801 774.368 280.517 774.368 278.887C774.368 277.957 774.664 276.851 776.109 276.851C776.615 276.851 777.798 277.079 777.984 279.191V279.444L782.258 278.971V278.726C781.87 275.128 779.665 272.897 776.497 272.897C772.426 272.897 770.094 275.094 770.094 278.912C770.094 282.73 772.628 284.732 774.782 286.565C776.598 288.086 778.161 289.395 778.161 291.363C778.161 292.554 777.409 293.239 776.092 293.239C774.774 293.239 774.107 292.048 773.963 289.97V289.708L769.739 290.324V290.544C769.95 295.139 773.017 297.192 775.948 297.192C779.986 297.192 782.486 294.827 782.486 291.009C782.486 287.393 779.952 285.205 777.654 283.288" fill="black"/>
<path d="M788.703 286.616H793.839V282.662H788.703V277.18H795.385V273.227H784.243V296.879H795.833V292.926H788.703V286.616Z" fill="black"/>
<path d="M802.024 273.227H797.556V296.879H807.304V292.926H802.024V273.227Z" fill="black"/>
<path d="M812.786 273.227H808.326V296.879H818.074V292.926H812.786V273.227Z" fill="black"/>
<path d="M826.176 283.288C824.427 281.801 822.915 280.517 822.915 278.887C822.915 277.957 823.219 276.851 824.663 276.851C825.17 276.851 826.353 277.079 826.539 279.191V279.444L830.813 278.971V278.726C830.425 275.128 828.22 272.897 825.052 272.897C820.98 272.897 818.649 275.094 818.649 278.912C818.649 282.73 821.141 284.732 823.337 286.565C825.162 288.086 826.716 289.395 826.716 291.363C826.716 292.554 825.964 293.239 824.655 293.239C823.346 293.239 822.661 292.048 822.518 289.97V289.708L818.252 290.324V290.544C818.463 295.139 821.521 297.192 824.461 297.192C828.49 297.192 830.991 294.827 830.991 291.009C830.991 287.393 828.456 285.205 826.167 283.288" fill="black"/>
</g>
<mask id="mask4_47_12741" style="mask-type:luminance" maskUnits="userSpaceOnUse" x="681" y="264" width="150" height="42">
<path d="M830.999 264.703H681V305.766H830.999V264.703Z" fill="white"/>
</mask>
<g mask="url(#mask4_47_12741)">
<path d="M753.334 279.815C753.396 282.085 753.183 284.354 752.701 286.573C753.391 286.551 754.077 286.676 754.715 286.94C755.353 287.204 755.928 287.6 756.401 288.102C757.44 289.194 758.283 290.457 758.893 291.836L755.945 294.97C755.168 293.432 753.706 291.532 751.721 291.591C751.436 291.593 751.152 291.63 750.876 291.7C750.268 293.424 749.043 295.569 746.957 295.789C746.01 295.981 745.028 295.885 744.136 295.513C743.245 295.141 742.485 294.51 741.956 293.702L741.542 293.027C741.956 291.726 742.218 290.602 742.589 289.293C742.927 290.138 743.485 291.422 744.6 291.574C744.978 291.617 745.36 291.537 745.69 291.346C745.316 290.987 745.042 290.538 744.894 290.042C744.745 289.546 744.729 289.02 744.845 288.516C745.335 286.607 748.317 276.233 748.317 276.233H755.556C756.452 276.233 757.812 276.495 758.572 279.384L762.795 292.571C762.807 292.604 762.831 292.632 762.862 292.65C762.893 292.667 762.93 292.672 762.964 292.663L767.703 291.151L768.1 292.402L763.361 293.905C763.22 293.953 763.071 293.976 762.922 293.973C762.617 293.972 762.32 293.875 762.073 293.694C761.827 293.513 761.645 293.259 761.554 292.968L757.33 279.781L753.334 279.815Z" fill="#008C49"/>
<path d="M769.291 300.807H742.623V305.765H769.291V300.807Z" fill="#FBB90F"/>
</g>
</g>
<g clip-path="url(#clip5_47_12741)">
<path d="M881.013 301.593H887.675V304.407H884.153V306.721H887.342V309.321H884.153V313.956H881.013V301.593Z" fill="black"/>
<path d="M895.492 310.507L894.315 306.786L893.146 310.507H895.492ZM894.219 301.26H894.585L900.294 313.981H896.787L896.295 312.701H892.319L891.834 313.973H888.511L894.219 301.26Z" fill="black"/>
<path d="M904.865 304.114V306.721H906.089C906.276 306.744 906.465 306.724 906.642 306.662C906.82 306.599 906.98 306.497 907.111 306.362C907.242 306.227 907.34 306.064 907.397 305.885C907.454 305.706 907.469 305.516 907.441 305.33C907.447 305.157 907.415 304.984 907.348 304.824C907.28 304.665 907.178 304.522 907.049 304.406C906.921 304.29 906.768 304.203 906.602 304.153C906.436 304.102 906.261 304.089 906.089 304.114H904.865ZM901.804 301.569H906.28C908.816 301.569 910.311 302.921 910.311 304.917C910.371 305.692 910.144 306.463 909.673 307.083C909.203 307.703 908.522 308.128 907.759 308.28L911.146 313.933H907.64L904.865 308.51V313.957H901.843L901.804 301.569Z" fill="black"/>
<path d="M918.174 308.017L922.905 301.426H923.358L923.7 313.956H920.79L920.694 308.566L918.174 312.7L915.662 308.566L915.558 313.956H912.656L912.99 301.426H913.443L918.174 308.017Z" fill="black"/>
<path d="M932.017 310.507L930.848 306.786L929.672 310.507H932.017ZM930.745 301.26H931.103L936.811 313.981H933.313L932.828 312.701H928.853L928.368 313.973H925.028L930.745 301.26Z" fill="black"/>
<path d="M938.33 301.426H938.95L944.874 307.739V301.593H947.839V314.115H947.219L941.296 307.922V313.956H938.33V301.426Z" fill="black"/>
<path d="M954.001 304.439V311.11H955.058C956.378 311.11 957.34 309.83 957.34 307.755C957.34 305.679 956.378 304.439 955.058 304.439H954.001ZM950.82 301.593H955.018C958.199 301.593 960.584 304.161 960.584 307.675C960.584 311.189 958.199 313.956 955.018 313.956H950.86L950.82 301.593Z" fill="black"/>
<path d="M966.428 314.203C965.465 314.289 964.503 314.031 963.713 313.475C962.922 312.919 962.355 312.101 962.11 311.166L964.496 309.902C964.933 310.983 965.474 311.627 966.38 311.627C967.127 311.627 967.549 311.285 967.549 310.657C967.549 310.029 967.167 309.615 965.959 309.027C963.653 307.922 962.715 306.785 962.715 304.956C962.715 302.873 964.257 301.347 966.595 301.347C967.422 301.276 968.248 301.504 968.922 301.99C969.596 302.476 970.073 303.187 970.268 303.994L968.018 305.219C967.684 304.424 967.223 304.05 966.658 304.05C966.539 304.035 966.419 304.046 966.305 304.081C966.19 304.116 966.085 304.175 965.995 304.254C965.905 304.333 965.832 304.43 965.782 304.538C965.732 304.647 965.705 304.765 965.704 304.885C965.704 305.449 966.157 305.847 967.08 306.308C969.743 307.659 970.602 308.693 970.602 310.506C970.602 312.716 969.139 314.203 966.444 314.203" fill="black"/>
<path d="M971.611 301.593H979.475V304.407H977.026V313.956H973.893V304.407H971.611V301.593Z" fill="black"/>
<path d="M984.508 304.114V306.721H985.732C985.919 306.746 986.109 306.726 986.288 306.665C986.466 306.603 986.627 306.5 986.759 306.365C986.891 306.23 986.99 306.067 987.048 305.887C987.105 305.707 987.12 305.517 987.092 305.33C987.098 305.156 987.066 304.983 986.998 304.822C986.93 304.662 986.828 304.518 986.698 304.402C986.568 304.286 986.414 304.2 986.247 304.15C986.08 304.1 985.904 304.088 985.732 304.114H984.508ZM981.494 301.569H985.963C988.499 301.569 989.986 302.921 989.986 304.917C990.046 305.691 989.82 306.461 989.351 307.081C988.882 307.7 988.203 308.127 987.441 308.28L990.828 313.933H987.322L984.5 308.486V313.933H981.486L981.494 301.569Z" fill="black"/>
<path d="M992.515 301.593H999.511V304.248H995.568V306.308H999.344V308.661H995.568V311.38H999.511V313.956H992.515V301.593Z" fill="black"/>
<path d="M1005.5 304.44V311.11H1006.56C1007.88 311.11 1008.84 309.854 1008.84 307.779C1008.84 305.704 1007.88 304.463 1006.56 304.463L1005.5 304.44ZM1002.37 301.569H1006.56C1009.74 301.569 1012.12 304.137 1012.12 307.652C1012.12 311.166 1009.74 313.933 1006.56 313.933H1002.37V301.569Z" fill="black"/>
<path d="M1014.28 301.593H1021.27V304.248H1017.33V306.308H1021.11V308.661H1017.33V311.38H1021.27V313.956H1014.28V301.593Z" fill="black"/>
<path d="M1023.12 301.593H1030.99V304.407H1028.54V313.956H1025.4V304.407H1023.12V301.593Z" fill="black"/>
<path d="M957.499 273.472C956.87 273.472 956.255 273.658 955.732 274.008C955.209 274.357 954.802 274.854 954.561 275.435C954.32 276.016 954.257 276.655 954.38 277.272C954.503 277.889 954.806 278.456 955.25 278.901C955.695 279.345 956.262 279.648 956.879 279.771C957.496 279.894 958.135 279.831 958.716 279.59C959.297 279.349 959.794 278.942 960.143 278.419C960.493 277.896 960.679 277.281 960.679 276.652C960.679 275.808 960.344 275 959.748 274.403C959.152 273.807 958.343 273.472 957.499 273.472ZM957.499 282.289C956.383 282.269 955.297 281.919 954.378 281.284C953.46 280.649 952.749 279.756 952.336 278.719C951.923 277.681 951.825 276.545 952.055 275.452C952.286 274.359 952.834 273.359 953.63 272.576C954.427 271.794 955.437 271.264 956.534 271.054C957.631 270.843 958.765 270.961 959.795 271.393C960.825 271.825 961.704 272.552 962.323 273.482C962.941 274.412 963.271 275.503 963.271 276.62C963.265 277.372 963.111 278.114 962.817 278.806C962.524 279.498 962.097 280.125 961.561 280.651C961.024 281.178 960.39 281.593 959.693 281.874C958.996 282.155 958.251 282.296 957.499 282.289Z" fill="black"/>
<path d="M939.324 291.535H946.932V266.244H972.677V258.77H939.324V291.535ZM949.501 294.056H936.779V256.25H975.261V268.765H949.501V294.056Z" fill="black"/>
</g>
<g clip-path="url(#clip6_47_12741)">
<path d="M1031.09 429.313H1004.72V455.665H1031.09V429.313Z" fill="white"/>
<mask id="mask5_47_12741" style="mask-type:luminance" maskUnits="userSpaceOnUse" x="933" y="425" width="103" height="36">
<path d="M1035.51 425.002H933.767V460.977H1035.51V425.002Z" fill="white"/>
</mask>
<g mask="url(#mask5_47_12741)">
<path d="M1004.72 442.957V445.293C1006.77 445.117 1008.79 444.618 1010.69 443.815C1008.68 443.706 1006.68 443.419 1004.72 442.957Z" fill="black"/>
<path d="M1012.74 443.867C1010.2 445.134 1007.5 446.071 1004.72 446.655V455.691H1031.1V440.046C1025.67 443.538 1016.46 444.351 1012.74 443.867Z" fill="black"/>
<path d="M1004.72 429.281V441.782C1007.24 442.475 1009.84 442.867 1012.46 442.95C1018.48 439.93 1022.58 432.818 1022.94 429.255L1004.72 429.281Z" fill="black"/>
<path d="M1027.82 429.28C1026.23 432.227 1024.22 434.927 1021.86 437.296C1019.68 439.493 1017.21 441.386 1014.53 442.924C1019.57 442.924 1026.51 441.162 1031.1 436.683V429.28H1027.82Z" fill="black"/>
<path d="M1010.47 451.87C1010.61 451.87 1010.74 451.816 1010.83 451.72C1010.93 451.625 1010.98 451.495 1010.98 451.36C1010.98 451.225 1010.93 451.095 1010.83 450.999C1010.74 450.904 1010.61 450.85 1010.47 450.85H1010.02V451.87H1010.47ZM1009.48 450.85H1009.2V450.385H1010.57C1010.7 450.381 1010.83 450.403 1010.95 450.45C1011.06 450.498 1011.17 450.57 1011.26 450.662C1011.35 450.753 1011.42 450.863 1011.47 450.983C1011.51 451.103 1011.53 451.232 1011.52 451.36C1011.53 451.489 1011.51 451.618 1011.47 451.74C1011.42 451.861 1011.35 451.972 1011.27 452.065C1011.18 452.158 1011.07 452.231 1010.95 452.279C1010.83 452.328 1010.7 452.351 1010.57 452.347H1010.03V453.399H1009.48V450.85Z" fill="#C3A572"/>
<path d="M1013.15 451.793C1013.21 451.796 1013.28 451.786 1013.33 451.762C1013.39 451.739 1013.44 451.703 1013.49 451.658C1013.53 451.612 1013.56 451.558 1013.58 451.499C1013.6 451.44 1013.6 451.377 1013.6 451.315C1013.6 451.255 1013.6 451.194 1013.58 451.136C1013.56 451.079 1013.53 451.026 1013.49 450.982C1013.45 450.937 1013.4 450.902 1013.34 450.88C1013.29 450.857 1013.22 450.847 1013.16 450.851H1012.71V451.793H1013.15ZM1012.16 450.851H1011.86V450.386H1013.2C1013.33 450.376 1013.45 450.392 1013.57 450.433C1013.68 450.474 1013.79 450.54 1013.88 450.625C1013.96 450.711 1014.03 450.815 1014.08 450.929C1014.12 451.044 1014.14 451.166 1014.14 451.289C1014.15 451.457 1014.11 451.625 1014.02 451.767C1013.93 451.909 1013.79 452.017 1013.64 452.077C1013.7 452.111 1013.75 452.165 1013.78 452.232L1014.07 452.806C1014.13 452.896 1014.2 452.903 1014.29 452.903H1014.35V453.4H1014.05C1013.83 453.4 1013.73 453.4 1013.64 453.174L1013.25 452.419C1013.19 452.303 1013.13 452.283 1012.96 452.283H1012.69V453.4H1012.14L1012.16 450.851Z" fill="#C3A572"/>
<path d="M1016.19 452.915C1016.32 452.911 1016.46 452.88 1016.58 452.825C1016.7 452.77 1016.81 452.691 1016.9 452.593C1016.99 452.495 1017.06 452.38 1017.11 452.255C1017.15 452.13 1017.17 451.996 1017.17 451.863C1017.18 451.727 1017.17 451.588 1017.13 451.457C1017.09 451.326 1017.02 451.205 1016.93 451.103C1016.83 451 1016.72 450.918 1016.6 450.862C1016.47 450.806 1016.34 450.777 1016.2 450.777C1016.06 450.777 1015.92 450.806 1015.8 450.862C1015.67 450.918 1015.56 451 1015.47 451.103C1015.38 451.205 1015.31 451.326 1015.27 451.457C1015.23 451.588 1015.21 451.727 1015.23 451.863C1015.22 451.996 1015.24 452.13 1015.29 452.255C1015.34 452.38 1015.41 452.495 1015.5 452.593C1015.59 452.691 1015.7 452.77 1015.82 452.825C1015.94 452.88 1016.07 452.911 1016.2 452.915M1016.2 450.334C1016.41 450.328 1016.61 450.364 1016.8 450.439C1016.99 450.514 1017.16 450.626 1017.3 450.769C1017.45 450.911 1017.56 451.082 1017.64 451.27C1017.72 451.458 1017.76 451.66 1017.75 451.863C1017.75 452.274 1017.59 452.668 1017.3 452.958C1017.01 453.249 1016.62 453.412 1016.2 453.412C1015.79 453.412 1015.4 453.249 1015.11 452.958C1014.82 452.668 1014.66 452.274 1014.66 451.863C1014.65 451.66 1014.69 451.459 1014.77 451.271C1014.85 451.084 1014.96 450.913 1015.11 450.771C1015.25 450.628 1015.42 450.516 1015.61 450.441C1015.8 450.366 1016 450.329 1016.2 450.334Z" fill="#C3A572"/>
<path d="M1018.41 450.85H1018.14V450.386H1019.85C1020.05 450.386 1020.13 450.47 1020.13 450.67V451.128H1019.64V450.947C1019.64 450.935 1019.64 450.922 1019.64 450.91C1019.63 450.897 1019.63 450.886 1019.62 450.877C1019.61 450.867 1019.6 450.86 1019.59 450.856C1019.57 450.851 1019.56 450.849 1019.55 450.85H1018.96V451.702H1019.92V452.167H1018.96V453.4H1018.41L1018.41 450.85Z" fill="#C3A572"/>
<path d="M1020.5 452.909H1020.8V450.85H1020.5V450.379H1021.62V450.85H1021.33V452.909H1021.62V453.38H1020.5V452.909Z" fill="#C3A572"/>
<path d="M1022.33 450.947C1022.33 450.883 1022.3 450.85 1022.24 450.85H1022.06V450.386H1022.59C1022.8 450.386 1022.88 450.47 1022.88 450.67V452.819C1022.88 452.831 1022.88 452.843 1022.89 452.855C1022.89 452.866 1022.9 452.876 1022.91 452.885C1022.92 452.894 1022.93 452.9 1022.94 452.904C1022.95 452.909 1022.96 452.91 1022.97 452.909H1023.62C1023.68 452.909 1023.72 452.877 1023.72 452.819V452.638H1024.22V453.09C1024.22 453.297 1024.13 453.38 1023.93 453.38H1022.61C1022.41 453.38 1022.32 453.297 1022.32 453.09L1022.33 450.947Z" fill="#C3A572"/>
<path d="M1024.68 450.85H1024.41V450.386H1026.21C1026.41 450.386 1026.5 450.47 1026.5 450.67V451.128H1026V450.947C1026 450.935 1026 450.922 1026 450.91C1026 450.897 1025.99 450.886 1025.98 450.877C1025.97 450.867 1025.96 450.86 1025.95 450.856C1025.94 450.851 1025.92 450.849 1025.91 450.85H1025.23V451.638H1026.2V452.109H1025.23V452.819C1025.23 452.831 1025.23 452.843 1025.24 452.855C1025.24 452.866 1025.25 452.876 1025.26 452.885C1025.27 452.894 1025.28 452.9 1025.29 452.904C1025.3 452.909 1025.31 452.91 1025.32 452.909H1026.01C1026.08 452.909 1026.11 452.877 1026.11 452.819V452.638H1026.61V453.096C1026.61 453.297 1026.52 453.38 1026.32 453.38H1024.97C1024.76 453.38 1024.68 453.297 1024.68 453.096V450.85Z" fill="#C3A572"/>
<path d="M1011.22 447.256V449.527C1011.22 449.598 1011.22 449.637 1011.11 449.637H1010.77C1010.67 449.637 1010.65 449.586 1010.6 449.508L1009.81 448.217V449.508C1009.81 449.592 1009.77 449.618 1009.7 449.618H1009.33C1009.32 449.62 1009.3 449.619 1009.29 449.614C1009.27 449.609 1009.26 449.601 1009.25 449.59C1009.24 449.58 1009.23 449.567 1009.22 449.552C1009.22 449.538 1009.22 449.523 1009.22 449.508V447.256C1009.22 447.191 1009.22 447.152 1009.33 447.152H1009.68C1009.78 447.152 1009.8 447.204 1009.85 447.275L1010.64 448.566V447.275C1010.64 447.191 1010.68 447.172 1010.75 447.172H1011.11C1011.18 447.172 1011.22 447.172 1011.22 447.275" fill="white"/>
<path d="M1013.51 449.191V449.527C1013.51 449.592 1013.51 449.637 1013.4 449.637H1011.73C1011.64 449.637 1011.62 449.592 1011.62 449.527V447.255C1011.62 447.191 1011.62 447.146 1011.73 447.146H1013.33C1013.42 447.146 1013.44 447.191 1013.44 447.255V447.591C1013.44 447.662 1013.44 447.701 1013.33 447.701H1012.21V448.107H1013.21C1013.29 448.107 1013.32 448.146 1013.32 448.217V448.507C1013.32 448.522 1013.32 448.537 1013.32 448.552C1013.31 448.566 1013.3 448.579 1013.29 448.59C1013.28 448.6 1013.27 448.608 1013.25 448.613C1013.24 448.618 1013.22 448.619 1013.21 448.617H1012.21V449.108H1013.4C1013.49 449.108 1013.51 449.146 1013.51 449.217" fill="white"/>
<path d="M1016.8 447.281L1016.11 449.527C1016.1 449.549 1016.09 449.568 1016.07 449.582C1016.05 449.596 1016.03 449.604 1016.01 449.605H1015.69C1015.67 449.606 1015.64 449.598 1015.62 449.583C1015.6 449.567 1015.58 449.546 1015.58 449.521L1015.2 448.327L1014.83 449.527C1014.82 449.552 1014.8 449.573 1014.78 449.588C1014.76 449.603 1014.73 449.611 1014.71 449.611H1014.38C1014.36 449.612 1014.34 449.604 1014.32 449.59C1014.3 449.576 1014.29 449.556 1014.28 449.534L1013.59 447.262C1013.58 447.251 1013.58 447.239 1013.58 447.226C1013.58 447.214 1013.59 447.202 1013.59 447.192C1013.6 447.181 1013.61 447.173 1013.62 447.167C1013.63 447.161 1013.64 447.158 1013.65 447.158H1014.07C1014.1 447.156 1014.14 447.167 1014.16 447.188C1014.19 447.21 1014.21 447.24 1014.22 447.275L1014.58 448.565L1014.95 447.275C1014.95 447.243 1014.96 447.213 1014.99 447.192C1015.01 447.17 1015.04 447.158 1015.07 447.158H1015.33C1015.42 447.158 1015.44 447.223 1015.46 447.275L1015.82 448.565L1016.18 447.275C1016.19 447.24 1016.21 447.21 1016.24 447.188C1016.26 447.167 1016.3 447.156 1016.33 447.158H1016.73C1016.75 447.158 1016.76 447.161 1016.77 447.167C1016.78 447.173 1016.79 447.181 1016.79 447.192C1016.8 447.202 1016.8 447.214 1016.81 447.226C1016.81 447.239 1016.8 447.251 1016.8 447.262" fill="white"/>
<path d="M1020.59 447.294L1019.91 449.527C1019.91 449.549 1019.9 449.568 1019.88 449.582C1019.86 449.596 1019.84 449.604 1019.82 449.605H1019.51C1019.48 449.606 1019.46 449.598 1019.44 449.583C1019.41 449.568 1019.4 449.546 1019.39 449.521L1019.02 448.346L1018.66 449.527C1018.65 449.552 1018.63 449.573 1018.61 449.588C1018.59 449.603 1018.57 449.611 1018.54 449.611H1018.22C1018.19 449.612 1018.17 449.605 1018.15 449.591C1018.13 449.577 1018.12 449.557 1018.11 449.534L1017.44 447.301C1017.44 447.256 1017.44 447.198 1017.5 447.198H1017.91C1017.94 447.195 1017.98 447.206 1018 447.227C1018.03 447.249 1018.05 447.28 1018.06 447.314L1018.42 448.559L1018.77 447.314C1018.77 447.262 1018.81 447.198 1018.9 447.198H1019.15C1019.23 447.198 1019.26 447.262 1019.28 447.314L1019.63 448.559L1019.99 447.314C1020 447.28 1020.02 447.249 1020.04 447.227C1020.07 447.206 1020.11 447.195 1020.14 447.198H1020.53C1020.59 447.198 1020.61 447.256 1020.59 447.301" fill="white"/>
<path d="M1021.74 448.688L1021.47 447.881L1021.19 448.688H1021.74ZM1022.54 449.605H1022.19C1022.1 449.605 1022.08 449.605 1022.04 449.495L1021.94 449.204H1021.04L1020.9 449.527C1020.86 449.611 1020.84 449.637 1020.75 449.637H1020.37C1020.29 449.637 1020.29 449.579 1020.31 449.534L1021.12 447.333C1021.13 447.3 1021.15 447.271 1021.18 447.25C1021.2 447.23 1021.24 447.221 1021.27 447.223H1021.63C1021.71 447.223 1021.74 447.223 1021.77 447.333L1022.61 449.527C1022.61 449.572 1022.61 449.63 1022.54 449.63" fill="white"/>
<path d="M1024.4 447.294L1023.61 449.527C1023.57 449.624 1023.55 449.637 1023.46 449.637H1023.12C1023.03 449.637 1023.01 449.637 1022.96 449.527L1022.19 447.294C1022.19 447.249 1022.19 447.19 1022.25 447.19H1022.66C1022.75 447.19 1022.78 447.19 1022.81 447.307L1023.31 448.823L1023.81 447.307C1023.81 447.216 1023.86 447.19 1023.96 447.19H1024.35C1024.42 447.19 1024.43 447.249 1024.41 447.294" fill="white"/>
<path d="M1026.5 449.198V449.527C1026.5 449.598 1026.5 449.637 1026.39 449.637H1024.77C1024.68 449.637 1024.67 449.598 1024.67 449.527V447.294C1024.67 447.229 1024.67 447.19 1024.77 447.19H1026.36C1026.44 447.19 1026.46 447.229 1026.46 447.294V447.591C1026.46 447.662 1026.46 447.7 1026.36 447.7H1025.25V448.1H1026.23C1026.31 448.1 1026.34 448.139 1026.34 448.204V448.494C1026.34 448.559 1026.34 448.597 1026.23 448.597H1025.25V449.081H1026.41C1026.43 449.079 1026.44 449.081 1026.46 449.085C1026.47 449.09 1026.49 449.098 1026.5 449.109C1026.51 449.119 1026.52 449.132 1026.52 449.147C1026.52 449.161 1026.53 449.176 1026.52 449.191" fill="white"/>
<path d="M938.4 438.297H940.866C942.363 438.297 943.254 438.794 943.254 440.465C943.254 441.679 942.757 442.234 942.053 442.46C942.886 442.673 943.428 443.292 943.428 444.686C943.428 446.565 942.434 447.087 940.937 447.087H938.4V438.297ZM940.866 442.221C941.969 442.221 942.673 441.879 942.673 440.524C942.673 439.168 941.969 438.826 940.866 438.826H938.994V442.221H940.866ZM940.95 446.552C942.066 446.552 942.847 446.171 942.847 444.654C942.847 443.137 942.066 442.77 940.95 442.77H939.014V446.552H940.95Z" fill="black"/>
<path d="M944.738 438.297H947.21C948.701 438.297 949.592 438.794 949.592 440.465C949.592 441.679 949.095 442.234 948.391 442.46C949.224 442.673 949.772 443.292 949.772 444.686C949.772 446.565 948.772 447.087 947.281 447.087H944.738V438.297ZM947.197 442.221C948.301 442.221 948.998 441.879 948.998 440.524C948.998 439.168 948.301 438.826 947.197 438.826H945.339V442.221H947.197ZM947.32 446.552C948.43 446.552 949.217 446.171 949.217 444.654C949.217 443.137 948.398 442.77 947.32 442.77H945.384V446.552H947.32Z" fill="black"/>
<path d="M953.31 438.291H957.692V438.84H953.903V442.254H957.466V442.802H953.903V447.088H953.31V438.291Z" fill="black"/>
<path d="M958.77 438.555H959.35V439.671H958.77V438.555ZM958.77 440.62H959.35V447.087H958.77V440.62Z" fill="black"/>
<path d="M960.873 440.633H961.325L961.396 441.634C961.532 441.282 961.782 440.987 962.106 440.795C962.431 440.603 962.81 440.525 963.184 440.575V441.118C961.525 441.156 961.454 442.531 961.454 443.906V447.133H960.873V440.633Z" fill="black"/>
<path d="M964.101 440.634H964.565L964.623 441.55C964.836 440.956 965.269 440.53 966.508 440.53C967.747 440.53 968.031 440.93 968.173 441.582C968.405 440.937 968.87 440.53 970.109 440.53C971.839 440.53 971.897 441.466 971.897 442.912V447.113H971.316V442.97C971.316 441.711 971.271 441.034 969.954 441.034C968.522 441.034 968.27 441.853 968.27 443.79V447.075H967.715V442.97C967.715 441.711 967.663 441.034 966.347 441.034C964.901 441.034 964.649 441.879 964.649 443.79V447.075H964.101V440.634Z" fill="black"/>
<path d="M972.93 445.151C972.93 443.215 974.13 442.814 976.279 442.814H976.589C976.589 441.653 976.396 441.033 975.208 441.033C974.667 441.03 974.133 441.152 973.646 441.388L973.381 440.904C973.962 440.62 974.601 440.479 975.247 440.491C976.905 440.491 977.183 441.285 977.183 442.847V445.828C977.183 446.396 977.228 446.551 977.751 446.551V447.087C977.704 447.093 977.656 447.093 977.609 447.087C976.86 447.087 976.718 446.835 976.673 446.196C976.485 446.519 976.207 446.78 975.874 446.948C975.541 447.116 975.166 447.185 974.795 447.145C973.504 447.145 972.956 446.5 972.956 445.138M976.615 444.531V443.337H976.318C974.427 443.337 973.53 443.582 973.53 445.119C973.53 446.325 974.059 446.635 974.879 446.635C975.698 446.635 976.615 446.222 976.615 444.544" fill="black"/>
<path d="M979.803 444.616C979.703 444.767 979.65 444.944 979.648 445.126C979.648 445.532 979.945 445.636 980.739 445.636C982.482 445.636 983.076 446.075 983.076 447.217C983.076 448.359 982.398 449.056 980.713 449.056C979.029 449.056 978.345 448.676 978.345 447.469C978.302 447.107 978.399 446.743 978.614 446.449C978.83 446.156 979.149 445.955 979.506 445.887C979.375 445.818 979.268 445.71 979.198 445.579C979.127 445.448 979.098 445.299 979.113 445.152C979.118 444.881 979.209 444.619 979.371 444.403C979.118 444.187 978.922 443.912 978.801 443.603C978.679 443.293 978.636 442.958 978.674 442.628C978.674 441.047 979.455 440.466 980.7 440.466C980.917 440.468 981.133 440.487 981.346 440.524L983.043 440.369V440.866H982.03C982.289 441.075 982.489 441.346 982.612 441.655C982.736 441.964 982.777 442.299 982.733 442.628C982.733 444.203 981.94 444.751 980.7 444.751C980.396 444.76 980.092 444.714 979.803 444.616ZM982.482 447.243C982.482 446.442 982.14 446.152 980.7 446.152C979.261 446.152 978.945 446.552 978.945 447.398C978.945 448.243 979.345 448.559 980.746 448.559C982.146 448.559 982.514 448.153 982.514 447.269M982.172 442.628C982.172 441.453 981.63 441.015 980.713 441.015C979.797 441.015 979.255 441.453 979.255 442.628C979.255 443.803 979.816 444.229 980.713 444.229C981.61 444.229 982.172 443.803 982.172 442.628Z" fill="black"/>
<path d="M983.824 445.151C983.824 443.215 985.018 442.815 987.167 442.815H987.477C987.477 441.653 987.284 441.033 986.102 441.033C985.559 441.03 985.023 441.151 984.534 441.388L984.276 440.904C984.854 440.62 985.491 440.478 986.135 440.491C987.793 440.491 988.071 441.285 988.071 442.847V445.829C988.071 446.397 988.116 446.551 988.639 446.551V447.087C988.592 447.094 988.544 447.094 988.497 447.087C987.748 447.087 987.606 446.835 987.561 446.196C987.373 446.518 987.097 446.778 986.765 446.946C986.433 447.115 986.06 447.184 985.689 447.145C984.399 447.145 983.85 446.5 983.85 445.138M987.503 444.531V443.337H987.206C985.322 443.337 984.418 443.583 984.418 445.119C984.418 446.326 984.954 446.635 985.767 446.635C986.58 446.635 987.503 446.222 987.503 444.544" fill="black"/>
<path d="M988.994 440.595H989.588L991.324 446.3L993.054 440.595H993.622L991.608 447.133H991.001L988.994 440.595Z" fill="black"/>
<path d="M994.145 443.821C994.145 441.885 994.512 440.504 996.481 440.504C998.572 440.504 998.533 441.937 998.533 444.002H994.7C994.7 445.603 994.977 446.648 996.507 446.648C997.061 446.672 997.613 446.552 998.107 446.3L998.346 446.764C997.78 447.076 997.14 447.228 996.494 447.203C994.461 447.203 994.145 445.848 994.145 443.854M994.7 443.486H997.978C997.978 442.085 997.978 441.053 996.468 441.053C994.958 441.053 994.751 442.04 994.7 443.486Z" fill="black"/>
<path d="M999.733 440.633H1000.19L1000.26 441.634C1000.39 441.282 1000.64 440.987 1000.97 440.795C1001.29 440.603 1001.67 440.525 1002.04 440.575V441.118C1000.39 441.156 1000.31 442.531 1000.31 443.906V447.133H999.733V440.633Z" fill="black"/>
<path d="M938.542 435.173H1002.19" stroke="black" stroke-width="0.251708" stroke-miterlimit="10"/>
<path d="M938.542 450.005H1002.19" stroke="black" stroke-width="0.251708" stroke-miterlimit="10"/>
<path d="M975.53 452.567H976.214C976.627 452.567 976.905 452.696 976.905 453.213C976.925 453.344 976.896 453.478 976.824 453.589C976.751 453.699 976.64 453.779 976.511 453.813C976.769 453.878 976.957 454.058 976.957 454.458C976.957 455.033 976.66 455.175 976.234 455.175H975.53V452.567ZM976.214 453.774C976.569 453.774 976.815 453.665 976.815 453.213C976.815 452.761 976.569 452.651 976.214 452.651H975.621V453.774H976.214ZM976.214 455.117C976.582 455.117 976.86 454.994 976.86 454.471C976.86 453.949 976.595 453.826 976.214 453.826H975.569V455.084L976.214 455.117Z" fill="black"/>
<path d="M977.725 452.561H978.957V452.651H977.809V453.774H978.886V453.864H977.809V455.116H978.97V455.2H977.725V452.561Z" fill="black"/>
<path d="M981.391 454.161L980.597 452.561H980.693L981.429 454.071L982.178 452.561H982.262L981.481 454.155V455.2H981.391V454.161Z" fill="black"/>
<path d="M982.772 453.883C982.772 453.135 982.843 452.541 983.663 452.541C984.483 452.541 984.56 453.135 984.56 453.883C984.56 454.632 984.489 455.226 983.663 455.226C982.837 455.226 982.772 454.632 982.772 453.883ZM984.47 453.883C984.47 453.186 984.399 452.593 983.663 452.593C982.927 452.593 982.863 453.154 982.863 453.883C982.863 454.613 982.927 455.174 983.663 455.174C984.399 455.174 984.47 454.619 984.47 453.883Z" fill="black"/>
<path d="M985.289 454.381V452.567H985.399V454.381C985.399 454.859 985.534 455.143 986.083 455.143C986.632 455.143 986.773 454.859 986.773 454.381V452.567H986.857V454.381C986.857 454.91 986.709 455.226 986.083 455.226C985.457 455.226 985.308 454.917 985.308 454.381" fill="black"/>
<path d="M988.432 454.045H987.787V455.233H987.696V452.567H988.439C988.89 452.567 989.123 452.767 989.123 453.29C989.123 453.813 988.923 453.987 988.522 454.013L989.077 455.201H988.981L988.432 454.045ZM988.432 453.961C988.832 453.961 989.026 453.787 989.026 453.316C989.026 452.845 988.832 452.671 988.432 452.671H987.787V453.961H988.432Z" fill="black"/>
<path d="M990.969 452.567H991.659C992.066 452.567 992.343 452.696 992.343 453.213C992.363 453.343 992.334 453.475 992.263 453.586C992.191 453.696 992.083 453.777 991.956 453.813C992.208 453.878 992.395 454.058 992.395 454.458C992.395 455.033 992.105 455.175 991.679 455.175H990.969V452.567ZM991.659 453.774C992.014 453.774 992.253 453.665 992.253 453.213C992.253 452.761 992.014 452.651 991.659 452.651H991.059V453.774H991.659ZM991.659 455.117C992.027 455.117 992.305 454.994 992.305 454.471C992.305 453.949 992.04 453.826 991.659 453.826H991.014V455.084L991.659 455.117Z" fill="black"/>
<path d="M993.886 454.045H993.24V455.233H993.144V452.567H993.886C994.338 452.567 994.531 452.767 994.531 453.29C994.531 453.813 994.331 453.987 993.931 454.013L994.492 455.201H994.434L993.886 454.045ZM993.886 453.961C994.286 453.961 994.48 453.787 994.48 453.316C994.48 452.845 994.286 452.671 993.886 452.671H993.24V453.961H993.886Z" fill="black"/>
<path d="M995.996 452.554H996.067L996.874 455.2H996.79L996.564 454.464H995.499L995.273 455.2H995.189L995.996 452.554ZM996.538 454.387L996.028 452.702L995.519 454.387H996.538Z" fill="black"/>
<path d="M997.597 452.561H997.706L999.023 455.032V452.561H999.107V455.2H999.023L997.681 452.69V455.2H997.597V452.561Z" fill="black"/>
<path d="M999.985 452.567H1000.63C1001.46 452.567 1001.53 453.135 1001.53 453.858C1001.53 454.581 1001.46 455.149 1000.6 455.149H999.953L999.985 452.567ZM1000.63 455.117C1001.41 455.117 1001.47 454.6 1001.47 453.884C1001.47 453.168 1001.41 452.651 1000.66 452.651H1000.1V455.117H1000.63Z" fill="black"/>
</g>
</g>
<g clip-path="url(#clip7_47_12741)">
<mask id="mask6_47_12741" style="mask-type:luminance" maskUnits="userSpaceOnUse" x="1090" y="435" width="94" height="17">
<path d="M1183.6 435.266H1090.9V451.828H1183.6V435.266Z" fill="white"/>
</mask>
<g mask="url(#mask6_47_12741)">
<path d="M1167.69 435.266H1165.34C1164.77 435.265 1164.2 435.377 1163.67 435.595C1163.14 435.814 1162.66 436.135 1162.25 436.54C1161.85 436.945 1161.53 437.426 1161.31 437.955C1161.09 438.485 1160.97 439.052 1160.97 439.625V451.413C1160.98 451.53 1161.02 451.641 1161.11 451.723C1161.19 451.805 1161.3 451.851 1161.42 451.851H1163.38C1163.5 451.851 1163.61 451.805 1163.69 451.723C1163.78 451.641 1163.83 451.53 1163.83 451.413V440.279C1163.83 439.994 1163.88 439.711 1163.99 439.447C1164.1 439.183 1164.26 438.943 1164.46 438.741C1164.87 438.334 1165.42 438.105 1166 438.103H1167.69C1167.8 438.103 1167.91 438.057 1168 437.975C1168.08 437.892 1168.13 437.781 1168.13 437.665V435.712C1168.13 435.653 1168.12 435.596 1168.09 435.542C1168.07 435.487 1168.04 435.438 1168 435.397C1167.96 435.355 1167.91 435.322 1167.86 435.3C1167.8 435.277 1167.75 435.266 1167.69 435.266Z" fill="black"/>
<path d="M1114.05 448.983C1113.76 448.986 1113.47 448.932 1113.21 448.823C1112.94 448.715 1112.7 448.554 1112.49 448.351C1112.29 448.148 1112.12 447.906 1112.01 447.64C1111.9 447.373 1111.85 447.088 1111.85 446.799V435.712C1111.85 435.595 1111.8 435.482 1111.72 435.399C1111.64 435.316 1111.53 435.268 1111.41 435.266H1109.45C1109.33 435.266 1109.22 435.313 1109.13 435.396C1109.05 435.48 1109 435.593 1109 435.712V447.468C1109 448.625 1109.46 449.734 1110.28 450.551C1111.1 451.369 1112.21 451.828 1113.36 451.828H1114.05C1114.16 451.828 1114.28 451.782 1114.36 451.7C1114.44 451.618 1114.49 451.507 1114.49 451.39V449.429C1114.49 449.311 1114.45 449.197 1114.36 449.114C1114.28 449.03 1114.17 448.983 1114.05 448.983Z" fill="black"/>
<path d="M1122.81 448.983C1122.52 448.986 1122.23 448.932 1121.96 448.823C1121.7 448.715 1121.45 448.554 1121.25 448.351C1121.04 448.148 1120.88 447.906 1120.77 447.64C1120.66 447.373 1120.61 447.088 1120.61 446.799V435.712C1120.61 435.595 1120.56 435.482 1120.48 435.399C1120.4 435.316 1120.29 435.268 1120.17 435.266H1118.21C1118.09 435.266 1117.98 435.313 1117.89 435.396C1117.81 435.48 1117.76 435.593 1117.76 435.712V447.468C1117.76 448.041 1117.87 448.608 1118.09 449.137C1118.31 449.666 1118.63 450.146 1119.04 450.551C1119.44 450.956 1119.92 451.277 1120.45 451.496C1120.98 451.715 1121.55 451.828 1122.12 451.828H1122.81C1122.92 451.828 1123.04 451.782 1123.12 451.7C1123.2 451.618 1123.25 451.507 1123.25 451.39V449.429C1123.25 449.311 1123.2 449.197 1123.12 449.114C1123.04 449.03 1122.92 448.983 1122.81 448.983Z" fill="black"/>
<path d="M1104.41 435.266H1095.26C1094.69 435.265 1094.12 435.377 1093.59 435.595C1093.06 435.814 1092.58 436.135 1092.18 436.54C1091.77 436.945 1091.45 437.426 1091.23 437.955C1091.01 438.485 1090.9 439.052 1090.9 439.625V451.413C1090.9 451.53 1090.95 451.641 1091.03 451.723C1091.11 451.805 1091.22 451.851 1091.34 451.851H1093.3C1093.42 451.849 1093.53 451.802 1093.61 451.721C1093.69 451.639 1093.74 451.529 1093.74 451.413V446.915H1102V451.413C1102 451.53 1102.05 451.641 1102.13 451.723C1102.22 451.805 1102.33 451.851 1102.44 451.851H1104.41C1104.52 451.851 1104.63 451.805 1104.72 451.723C1104.8 451.641 1104.84 451.529 1104.84 451.413V435.712C1104.84 435.653 1104.83 435.596 1104.81 435.542C1104.79 435.487 1104.76 435.438 1104.72 435.397C1104.68 435.355 1104.63 435.322 1104.57 435.3C1104.52 435.277 1104.46 435.266 1104.41 435.266ZM1093.74 444.093V440.248C1093.75 439.679 1093.98 439.137 1094.39 438.737C1094.79 438.337 1095.34 438.113 1095.91 438.111H1102V444.093H1093.74Z" fill="black"/>
<path d="M1135.88 435.266H1130.66C1130.08 435.262 1129.51 435.371 1128.98 435.589C1128.45 435.806 1127.96 436.127 1127.55 436.532C1127.15 436.937 1126.82 437.419 1126.6 437.95C1126.38 438.481 1126.27 439.05 1126.27 439.626V447.468C1126.27 448.549 1126.67 449.591 1127.4 450.39C1127.81 450.836 1128.31 451.192 1128.87 451.44C1129.42 451.687 1130.02 451.819 1130.63 451.828H1139.8C1139.92 451.828 1140.03 451.782 1140.11 451.7C1140.19 451.618 1140.24 451.507 1140.24 451.39V449.429C1140.24 449.311 1140.2 449.197 1140.11 449.114C1140.03 449.03 1139.92 448.983 1139.8 448.983H1131.34C1130.98 448.972 1130.63 448.878 1130.32 448.709C1130 448.539 1129.73 448.299 1129.53 448.007C1129.28 447.651 1129.15 447.231 1129.14 446.8V444.962H1139.8C1139.92 444.962 1140.03 444.915 1140.11 444.831C1140.2 444.748 1140.24 444.634 1140.24 444.516V439.626C1140.24 439.052 1140.13 438.485 1139.91 437.955C1139.69 437.426 1139.37 436.945 1138.96 436.54C1138.56 436.135 1138.08 435.814 1137.55 435.595C1137.02 435.377 1136.45 435.265 1135.88 435.266ZM1137.41 442.14H1129.14V440.279C1129.14 439.994 1129.19 439.711 1129.3 439.447C1129.41 439.183 1129.57 438.943 1129.77 438.741C1130.18 438.334 1130.73 438.105 1131.31 438.103H1135.22C1135.54 438.105 1135.86 438.174 1136.14 438.307C1136.43 438.439 1136.69 438.632 1136.9 438.872C1137.23 439.256 1137.4 439.744 1137.4 440.248L1137.41 442.14Z" fill="black"/>
<path d="M1157.41 439.625C1157.41 438.468 1156.95 437.359 1156.13 436.542C1155.31 435.725 1154.2 435.266 1153.05 435.266H1147.8C1146.65 435.267 1145.55 435.714 1144.72 436.511C1144.3 436.916 1143.97 437.4 1143.75 437.935C1143.52 438.47 1143.4 439.045 1143.41 439.625V442.655C1143.41 443.23 1143.52 443.8 1143.74 444.33C1143.96 444.861 1144.28 445.343 1144.69 445.749C1145.1 446.154 1145.59 446.474 1146.12 446.692C1146.65 446.909 1147.22 447.019 1147.8 447.015H1154.52C1154.49 447.369 1154.37 447.71 1154.18 448.007C1153.98 448.295 1153.72 448.534 1153.41 448.703C1153.1 448.873 1152.76 448.969 1152.41 448.983H1144.24C1144.13 448.985 1144.01 449.033 1143.93 449.116C1143.85 449.2 1143.81 449.312 1143.81 449.429V451.413C1143.81 451.529 1143.85 451.639 1143.94 451.721C1144.02 451.802 1144.13 451.849 1144.24 451.851H1153.04C1153.65 451.836 1154.24 451.698 1154.8 451.447C1155.35 451.196 1155.84 450.837 1156.25 450.39C1156.98 449.591 1157.38 448.549 1157.38 447.468L1157.41 439.625ZM1146.94 443.531C1146.74 443.33 1146.58 443.091 1146.47 442.827C1146.36 442.563 1146.3 442.28 1146.3 441.994V440.279C1146.3 439.952 1146.38 439.63 1146.52 439.335C1146.66 439.041 1146.87 438.783 1147.13 438.58C1147.48 438.313 1147.91 438.151 1148.35 438.111H1152.41C1152.99 438.111 1153.54 438.341 1153.95 438.749C1154.15 438.951 1154.31 439.19 1154.42 439.454C1154.53 439.718 1154.58 440.001 1154.58 440.287V444.177H1148.47C1147.9 444.175 1147.34 443.946 1146.93 443.539" fill="black"/>
<path d="M1179.24 435.266H1174.02C1172.86 435.266 1171.75 435.725 1170.93 436.543C1170.12 437.36 1169.66 438.469 1169.66 439.625V447.468C1169.66 448.625 1170.12 449.734 1170.93 450.551C1171.75 451.369 1172.86 451.828 1174.02 451.828H1179.24C1179.81 451.829 1180.38 451.717 1180.91 451.498C1181.44 451.28 1181.92 450.959 1182.32 450.554C1182.73 450.149 1183.05 449.668 1183.27 449.139C1183.49 448.609 1183.6 448.042 1183.6 447.468V439.625C1183.6 439.052 1183.49 438.485 1183.27 437.955C1183.05 437.426 1182.73 436.945 1182.32 436.54C1181.92 436.135 1181.44 435.814 1180.91 435.595C1180.38 435.377 1179.81 435.265 1179.24 435.266ZM1180.77 446.799C1180.78 447.085 1180.72 447.368 1180.61 447.633C1180.5 447.897 1180.34 448.136 1180.14 448.337C1179.94 448.542 1179.7 448.704 1179.43 448.813C1179.17 448.923 1178.88 448.978 1178.6 448.975H1174.71C1174.42 448.981 1174.13 448.928 1173.86 448.821C1173.6 448.714 1173.35 448.554 1173.15 448.351C1172.94 448.149 1172.78 447.907 1172.67 447.641C1172.56 447.374 1172.5 447.088 1172.5 446.799V440.279C1172.5 439.994 1172.55 439.711 1172.66 439.447C1172.77 439.183 1172.93 438.943 1173.13 438.741C1173.54 438.333 1174.09 438.103 1174.67 438.103H1178.59C1179.17 438.105 1179.72 438.334 1180.12 438.74C1180.53 439.146 1180.76 439.697 1180.76 440.271L1180.77 446.799Z" fill="black"/>
</g>
</g>
<path d="M1252.41 446.146L1245.6 437.796H1244.45V448.574H1245.81V440.275L1252.53 448.574H1253.77V437.796H1252.41V446.146Z" fill="#202020"/>
<path d="M1258.89 441.341C1256.92 441.341 1255.39 442.926 1255.39 444.957C1255.39 447.141 1256.86 448.716 1258.89 448.716C1261.01 448.716 1262.46 447.202 1262.46 444.957C1262.47 442.854 1260.97 441.341 1258.89 441.341ZM1258.88 447.456C1257.61 447.456 1256.74 446.461 1256.74 444.957C1256.74 443.596 1257.64 442.6 1258.88 442.6C1260.19 442.6 1261.13 443.596 1261.13 444.967C1261.13 446.512 1260.26 447.456 1258.88 447.456Z" fill="#202020"/>
<path d="M1265.36 443.108H1265.33V441.483H1264.02V448.574H1265.33V444.856C1265.33 443.636 1266.04 442.671 1266.93 442.671C1267.24 442.671 1267.76 442.956 1268.15 443.362L1268.84 442.143C1268.29 441.595 1267.8 441.32 1267.27 441.32C1266.65 441.341 1266.02 441.859 1265.36 443.108Z" fill="#202020"/>
<path d="M1270.41 445.039C1270.41 443.596 1271.23 442.631 1272.43 442.631C1273.01 442.631 1273.51 442.794 1274.26 443.322V441.828C1273.63 441.524 1273.11 441.341 1272.34 441.341C1270.34 441.341 1269.07 442.824 1269.07 445.171C1269.07 447.253 1270.45 448.726 1272.43 448.726C1273.12 448.726 1273.96 448.533 1274.4 448.32V446.928C1273.74 447.243 1273.21 447.406 1272.64 447.406C1271.29 447.395 1270.41 446.512 1270.41 445.039Z" fill="#202020"/>
<path d="M1278.94 441.341C1276.97 441.341 1275.45 442.926 1275.45 444.957C1275.45 447.141 1276.91 448.716 1278.94 448.716C1281.06 448.716 1282.52 447.202 1282.52 444.957C1282.52 442.854 1281.01 441.341 1278.94 441.341ZM1278.93 447.456C1277.66 447.456 1276.8 446.461 1276.8 444.957C1276.8 443.596 1277.69 442.6 1278.93 442.6C1280.24 442.6 1281.19 443.596 1281.19 444.967C1281.18 446.512 1280.31 447.456 1278.93 447.456Z" fill="#202020"/>
<path d="M1287.26 441.341C1286.52 441.341 1285.79 441.737 1285.29 442.418H1285.26V441.483H1283.95V448.574H1285.26V443.484C1285.88 442.743 1286.34 442.458 1286.91 442.458C1287.7 442.458 1288.21 443.139 1288.21 444.185V448.574H1289.52V444.195C1289.52 442.255 1288.51 441.341 1287.26 441.341Z" fill="#202020"/>
<path d="M1294.01 444.643C1292.85 443.911 1292.4 443.535 1292.4 443.221C1292.4 442.845 1292.74 442.57 1293.27 442.57C1293.76 442.57 1294.45 442.794 1295.19 443.312V441.92C1294.5 441.524 1293.86 441.331 1293.25 441.331C1291.93 441.331 1291.07 442.062 1291.07 443.261C1291.07 445.171 1294.17 445.699 1294.17 446.674C1294.17 447.182 1293.73 447.447 1293.19 447.477C1292.66 447.477 1291.88 447.172 1291.03 446.542V448.056C1291.88 448.534 1292.52 448.706 1293.33 448.706C1294.57 448.706 1295.51 447.873 1295.51 446.624C1295.5 445.902 1295.1 445.415 1294.01 444.643Z" fill="#202020"/>
<path d="M1301.22 446.553C1300.79 447.203 1300.23 447.548 1299.64 447.548C1298.75 447.548 1298.29 446.979 1298.29 445.984V441.483H1296.98V445.892C1296.98 447.69 1297.93 448.726 1299.27 448.726C1299.92 448.726 1300.68 448.32 1301.23 447.68V448.584H1302.54V441.483H1301.23V446.553H1301.22Z" fill="#202020"/>
<path d="M1305.72 437.796H1304.41V448.584H1305.72V437.796Z" fill="#202020"/>
<path d="M1309.14 446.379V442.742H1311.23V441.483H1309.14V440.01L1306.68 442.58V442.742H1307.83V446.491C1307.83 447.771 1308.55 448.716 1309.99 448.716C1310.41 448.716 1311.12 448.513 1311.58 448.238V446.928C1311.05 447.273 1310.56 447.446 1310.1 447.446C1309.7 447.456 1309.14 447.222 1309.14 446.379Z" fill="#202020"/>
<path d="M1329.58 438.507L1325.13 434.067L1320.69 438.507L1325.13 442.946L1329.58 438.507Z" fill="#202020"/>
<path d="M1319.67 439.543L1315.22 443.989L1319.67 448.436L1324.11 443.989L1319.67 439.543Z" fill="#202020"/>
<path d="M1330.61 439.533L1326.17 443.973L1330.61 448.422L1335.05 443.973L1330.61 439.533Z" fill="#202020"/>
<path d="M1325.13 445.993C1323.22 445.993 1321.68 447.537 1321.68 449.447C1321.68 451.357 1323.22 452.901 1325.13 452.901C1327.04 452.901 1328.59 451.357 1328.59 449.447C1328.59 447.537 1327.04 445.993 1325.13 445.993Z" fill="#202020"/>
<defs>
<clipPath id="clip0_47_12741">
<rect width="349.997" height="77.1562" fill="white" transform="translate(581.001 30)"/>
</clipPath>
<clipPath id="clip1_47_12741">
<rect width="199.874" height="48.0781" fill="white" transform="translate(406.031 149.141)"/>
</clipPath>
<clipPath id="clip2_47_12741">
<rect width="199.952" height="72.0625" fill="white" transform="translate(906.017 137.156)"/>
</clipPath>
<clipPath id="clip3_47_12741">
<rect width="149.993" height="88.8438" fill="white" transform="translate(481.004 240.812)"/>
</clipPath>
<clipPath id="clip4_47_12741">
<rect width="149.999" height="41.0625" fill="white" transform="translate(681 264.703)"/>
</clipPath>
<clipPath id="clip5_47_12741">
<rect width="149.975" height="57.9531" fill="white" transform="translate(881.013 256.25)"/>
</clipPath>
<clipPath id="clip6_47_12741">
<rect width="92.6996" height="26.3906" fill="white" transform="translate(938.4 429.281)"/>
</clipPath>
<clipPath id="clip7_47_12741">
<rect width="92.7085" height="16.5625" fill="white" transform="translate(1090.9 435.266)"/>
</clipPath>
</defs>
</svg>
