<svg width="17" height="17" viewBox="0 0 17 17" fill="none" xmlns="http://www.w3.org/2000/svg">
<path d="M12.7855 16.9278H4.22391C3.87289 16.9278 3.5818 16.6367 3.5818 16.2856C3.5818 15.9346 3.87289 15.6435 4.22391 15.6435H12.7855C13.1365 15.6435 13.4276 15.9346 13.4276 16.2856C13.4276 16.6367 13.1365 16.9278 12.7855 16.9278Z" fill="#CAC3AA"/>
<path d="M15.6521 2.81889L12.2275 5.26749C11.7737 5.59282 11.123 5.39591 10.9261 4.87365L9.30798 0.55864C9.03401 -0.186213 7.98094 -0.186213 7.70698 0.55864L6.08028 4.86509C5.88337 5.39591 5.24125 5.59282 4.78749 5.25892L1.36288 2.81032C0.677954 2.33088 -0.229569 3.00724 0.0529616 3.80346L3.61456 13.7777C3.73442 14.1201 4.05976 14.3427 4.41935 14.3427H12.5785C12.9381 14.3427 13.2634 14.1116 13.3833 13.7777L16.9449 3.80346C17.236 3.00724 16.3284 2.33088 15.6521 2.81889ZM10.6436 10.7212H6.36281C6.01179 10.7212 5.7207 10.4301 5.7207 10.0791C5.7207 9.72805 6.01179 9.43695 6.36281 9.43695H10.6436C10.9946 9.43695 11.2857 9.72805 11.2857 10.0791C11.2857 10.4301 10.9946 10.7212 10.6436 10.7212Z" fill="#CAC3AA"/>
</svg>
