<svg width="26" height="18" viewBox="0 0 26 18" fill="none" xmlns="http://www.w3.org/2000/svg">
<path d="M25.078 2.85938C24.7968 1.73438 23.9062 0.84375 22.828 0.5625C20.8124 0 12.8437 0 12.8437 0C12.8437 0 4.82803 0 2.8124 0.5625C1.73428 0.84375 0.843653 1.73438 0.562403 2.85938C-9.72748e-05 4.82812 -9.72748e-05 9.04688 -9.72748e-05 9.04688C-9.72748e-05 9.04688 -9.72748e-05 13.2188 0.562403 15.2344C0.843653 16.3594 1.73428 17.2031 2.8124 17.4844C4.82803 18 12.8437 18 12.8437 18C12.8437 18 20.8124 18 22.828 17.4844C23.9062 17.2031 24.7968 16.3594 25.078 15.2344C25.6405 13.2188 25.6405 9.04688 25.6405 9.04688C25.6405 9.04688 25.6405 4.82812 25.078 2.85938ZM10.2187 12.8438V5.25L16.8749 9.04688L10.2187 12.8438Z" fill="#FF0000"/>
</svg>
