<svg width="30" height="30" viewBox="0 0 30 30" fill="none" xmlns="http://www.w3.org/2000/svg">
<g clip-path="url(#clip0_47_56576)">
<path d="M23.3438 0.563305L9.28128 8.81331C6.75003 10.3133 5.81253 13.1258 6.84378 15.7508C7.50003 17.3446 8.71878 19.1258 11.0625 20.7196C13.5 22.4071 15.9375 23.0633 18.0938 23.1571C21.9375 23.4383 25.125 21.4696 25.6875 18.2821L28.4063 2.81331C28.7813 0.469555 25.6875 -0.842945 23.3438 0.563305Z" fill="#853E96"/>
<path d="M19.2438 28.9006C20.716 26.8344 18.2178 22.5288 13.6637 19.2839C9.1097 16.0389 4.22443 15.0833 2.75218 17.1495C1.27992 19.2157 3.7782 23.5212 8.33223 26.7662C12.8863 30.0111 17.7715 30.9667 19.2438 28.9006Z" fill="#853E96"/>
<path d="M22.406 1.96814L9.84351 9.37439C7.59351 10.6869 6.74976 13.2181 7.68726 15.6556C8.24976 17.1556 9.37476 18.6556 11.4373 20.1556C13.5935 21.6556 15.8435 22.2181 17.8123 22.3119C21.281 22.4994 24.0935 20.8119 24.656 17.9994L26.9998 4.03064C27.281 1.87439 24.5623 0.749391 22.406 1.96814Z" fill="#581F66"/>
<path d="M18.9959 27.6887C20.1677 26.0442 17.7335 22.2997 13.5589 19.3251C9.3844 16.3506 5.05035 15.2724 3.87856 16.9169C2.70676 18.5614 5.14096 22.3059 9.31549 25.2804C13.49 28.255 17.8241 29.3332 18.9959 27.6887Z" fill="#581F66"/>
<path d="M18.08 27.0379C18.8312 25.9837 16.4662 23.01 12.7977 20.396C9.12914 17.782 5.54629 16.5175 4.79514 17.5717C4.04399 18.6259 6.40898 21.5995 10.0775 24.2135C13.746 26.8275 17.3289 28.092 18.08 27.0379Z" fill="#A94DBC"/>
<path d="M14.5313 22.1247L9.93755 19.2185C8.43755 18.281 6.93755 17.8122 6.00005 17.9997C5.25005 18.1872 5.62505 19.2185 6.56255 19.8747L15.4688 25.8747C16.7813 26.7185 18.0938 26.7185 17.8126 25.8747C17.5313 24.656 16.3126 23.2497 14.5313 22.1247Z" fill="#A94DBC"/>
<path d="M15 23.25L8.4375 19.0312L10.9687 14.625L18.375 18.8438L15 23.25Z" fill="#581F66"/>
<path d="M21.9373 3.18723L11.3436 9.74973C9.46855 10.9685 8.71855 13.1247 9.46855 15.0935C9.9373 16.3122 10.7811 17.6247 12.5623 18.8435C14.3436 20.0622 16.1248 20.531 17.7186 20.6247C20.5311 20.7185 22.9686 19.2185 23.4373 16.781L25.6873 4.87473C25.9686 2.99973 23.7186 2.06223 21.9373 3.18723Z" fill="#A94DBC"/>
<path d="M14.8994 23.5918C15.3802 22.9172 14.3 21.3229 12.4868 20.0309C10.6737 18.7389 8.81408 18.2385 8.33334 18.9132C7.8526 19.5878 8.93276 21.1821 10.7459 22.4741C12.5591 23.7661 14.4187 24.2665 14.8994 23.5918Z" fill="#581F66"/>
<path d="M12.8437 19.4063C12.8437 19.4063 17.7188 21.375 19.875 16.9688C22.0313 12.5625 24.6562 2.71875 24.6562 2.71875L25.9688 3L25.6875 10.125L23.4375 19.875C23.4375 19.875 18.1875 24.75 12.8437 19.4063ZM12.1875 25.875C12.1875 25.875 14.5312 27.2813 15.9375 26.4375C17.3438 25.5938 16.0313 22.7812 16.0313 22.7812C16.0313 22.7812 18.5625 25.4062 18.75 26.25C18.9375 27.0938 17.625 29.625 12.1875 25.875Z" fill="#581F66"/>
<path d="M10.9687 11.8125L21.6562 4.125C21.8437 3.9375 22.2187 3.9375 22.4062 4.125C22.7812 4.3125 22.875 4.875 22.5937 5.15625L13.875 15.0938C13.125 15.9375 11.9062 15.9375 11.25 15.0938C10.6875 14.25 10.3125 13.125 10.9687 11.8125ZM8.90623 22.2188C8.90623 22.2188 7.03123 19.4062 7.96873 18.6562C7.96873 18.6562 6.84373 17.5312 5.81248 17.9062C4.78123 18.2812 8.90623 22.2188 8.90623 22.2188Z" fill="#E08CF5"/>
</g>
<defs>
<clipPath id="clip0_47_56576">
<rect width="30" height="30" fill="white"/>
</clipPath>
</defs>
</svg>
