<svg width="245" height="100" viewBox="0 0 245 100" fill="none" xmlns="http://www.w3.org/2000/svg">
<g clip-path="url(#clip0_47_70097)">
<g clip-path="url(#clip1_47_70097)">
<path fill-rule="evenodd" clip-rule="evenodd" d="M83.2236 83.1285H100.224V35.1445H83.2236V83.1285Z" fill="#FFE6A6"/>
<path fill-rule="evenodd" clip-rule="evenodd" d="M0.131836 0V83.096H25.4968V52.07H57.8638V83.096H83.2298V0H0.131836Z" fill="#FBBC05"/>
<path fill-rule="evenodd" clip-rule="evenodd" d="M0.131836 83.097H83.2288V0H0.131836V83.097Z" fill="#FBBC04"/>
<path fill-rule="evenodd" clip-rule="evenodd" d="M10.0337 24.232H19.0597V15.207H10.0337V24.232Z" fill="white"/>
<path fill-rule="evenodd" clip-rule="evenodd" d="M28.2397 24.232H37.2657V15.207H28.2397V24.232Z" fill="white"/>
<path fill-rule="evenodd" clip-rule="evenodd" d="M46.4458 24.232H55.4718V15.207H46.4458V24.232Z" fill="white"/>
<path fill-rule="evenodd" clip-rule="evenodd" d="M64.6519 24.232H73.6779V15.207H64.6519V24.232Z" fill="white"/>
<path fill-rule="evenodd" clip-rule="evenodd" d="M10.0337 44.1656H19.0597V35.1406H10.0337V44.1656Z" fill="white"/>
<path fill-rule="evenodd" clip-rule="evenodd" d="M28.2397 44.1656H37.2657V35.1406H28.2397V44.1656Z" fill="white"/>
<path fill-rule="evenodd" clip-rule="evenodd" d="M46.4458 44.1656H55.4718V35.1406H46.4458V44.1656Z" fill="white"/>
<path fill-rule="evenodd" clip-rule="evenodd" d="M64.6519 44.1656H73.6779V35.1406H64.6519V44.1656Z" fill="white"/>
<path fill-rule="evenodd" clip-rule="evenodd" d="M10.0337 24.232H19.0597V15.207H10.0337V24.232Z" fill="white"/>
<path fill-rule="evenodd" clip-rule="evenodd" d="M28.2397 24.232H37.2657V15.207H28.2397V24.232Z" fill="white"/>
<path fill-rule="evenodd" clip-rule="evenodd" d="M46.4458 24.232H55.4718V15.207H46.4458V24.232Z" fill="white"/>
<path fill-rule="evenodd" clip-rule="evenodd" d="M64.6519 24.232H73.6779V15.207H64.6519V24.232Z" fill="white"/>
<path fill-rule="evenodd" clip-rule="evenodd" d="M10.0337 44.1656H19.0597V35.1406H10.0337V44.1656Z" fill="white"/>
<path fill-rule="evenodd" clip-rule="evenodd" d="M28.2397 44.1656H37.2657V35.1406H28.2397V44.1656Z" fill="white"/>
<path fill-rule="evenodd" clip-rule="evenodd" d="M46.4458 44.1656H55.4718V35.1406H46.4458V44.1656Z" fill="white"/>
<path fill-rule="evenodd" clip-rule="evenodd" d="M64.6519 44.1656H73.6779V35.1406H64.6519V44.1656Z" fill="white"/>
<path fill-rule="evenodd" clip-rule="evenodd" d="M30.6221 68.3793V83.1413H52.9901V68.3793C52.9901 62.2043 47.9851 57.1973 41.8111 57.1953H41.8041C35.6281 57.1973 30.6241 62.2043 30.6241 68.3793" fill="white"/>
</g>
</g>
<defs>
<clipPath id="clip0_47_70097">
<rect width="245" height="100" fill="white"/>
</clipPath>
<clipPath id="clip1_47_70097">
<rect width="101" height="84" fill="white"/>
</clipPath>
</defs>
</svg>
