<svg width="22" height="21" viewBox="0 0 22 21" fill="none" xmlns="http://www.w3.org/2000/svg">
<path d="M10.995 13.4881C12.6896 13.4881 14.0634 12.1143 14.0634 10.4197C14.0634 8.72507 12.6896 7.35131 10.995 7.35131C9.30039 7.35131 7.92663 8.72507 7.92663 10.4197C7.92663 12.1143 9.30039 13.4881 10.995 13.4881Z" stroke="#AEAEAE" stroke-width="1.5" stroke-miterlimit="10" stroke-linecap="round" stroke-linejoin="round"/>
<path d="M0.767093 11.3212V9.52106C0.767093 8.45736 1.63647 7.57776 2.7104 7.57776C4.56165 7.57776 5.31851 6.26859 4.38777 4.6628C3.85592 3.74229 4.17299 2.54563 5.10373 2.01377L6.87316 1.00121C7.68116 0.5205 8.72441 0.806881 9.20512 1.61489L9.31763 1.80922C10.2381 3.415 11.7519 3.415 12.6826 1.80922L12.7951 1.61489C13.2758 0.806881 14.3191 0.5205 15.1271 1.00121L16.8965 2.01377C17.8273 2.54563 18.1443 3.74229 17.6125 4.6628C16.6817 6.26859 17.4386 7.57776 19.2898 7.57776C20.3535 7.57776 21.2331 8.44713 21.2331 9.52106V11.3212C21.2331 12.3849 20.3638 13.2645 19.2898 13.2645C17.4386 13.2645 16.6817 14.5737 17.6125 16.1794C18.1443 17.1102 17.8273 18.2966 16.8965 18.8285L15.1271 19.841C14.3191 20.3217 13.2758 20.0354 12.7951 19.2274L12.6826 19.033C11.7621 17.4272 10.2484 17.4272 9.31763 19.033L9.20512 19.2274C8.72441 20.0354 7.68116 20.3217 6.87316 19.841L5.10373 18.8285C4.17299 18.2966 3.85592 17.0999 4.38777 16.1794C5.31851 14.5737 4.56165 13.2645 2.7104 13.2645C1.63647 13.2645 0.767093 12.3849 0.767093 11.3212Z" stroke="#AEAEAE" stroke-width="1.5" stroke-miterlimit="10" stroke-linecap="round" stroke-linejoin="round"/>
</svg>
