<svg width="153" height="18" viewBox="0 0 153 18" fill="none" xmlns="http://www.w3.org/2000/svg">
<g clip-path="url(#clip0_3_874)">
<mask id="mask0_3_874" style="mask-type:luminance" maskUnits="userSpaceOnUse" x="39" y="3" width="114" height="11">
<path d="M153 3.375H39.375V13.5H153V3.375Z" fill="white"/>
</mask>
<g mask="url(#mask0_3_874)">
<path d="M40.5 12.3752H41.7375V9.1127H45.1125V7.93145H41.7375V5.68145H46.0125V4.5002H40.5V12.3752ZM52.2503 12.4877C54.6128 12.4877 56.4128 10.6877 56.4128 8.4377C56.4128 6.1877 54.6128 4.3877 52.2503 4.3877C49.8878 4.3877 48.0878 6.1877 48.0878 8.4377C48.0878 10.6877 49.8878 12.4877 52.2503 12.4877ZM52.2503 11.3627C50.619 11.3627 49.3253 10.0689 49.3253 8.4377C49.3253 6.80645 50.619 5.5127 52.2503 5.5127C53.8815 5.5127 55.1753 6.80645 55.1753 8.4377C55.1753 10.0689 53.8815 11.3627 52.2503 11.3627ZM59.4346 12.3752H60.6722V9.45019H62.5284L64.1596 12.3752H65.5659L63.7771 9.22519C63.7771 9.22519 65.2846 8.71895 65.2846 6.97519C65.2846 5.56894 64.2159 4.5002 62.6972 4.5002H59.4346V12.3752ZM60.6722 8.3252V5.6252H62.6972C63.4847 5.6252 64.0472 6.1877 64.0472 6.97519C64.0472 7.7627 63.4847 8.3252 62.6972 8.3252H60.6722ZM72.129 12.3752H73.3665V6.58145L76.2353 10.2377L79.104 6.58145V12.3752H80.3415V4.5002H79.2165L76.2353 8.3252L73.254 4.5002H72.129V12.3752ZM83.8705 12.3752H89.5518V11.1939H85.1081V8.8877H88.5393V7.70645H85.1081V5.68145H89.4393V4.5002H83.8705V12.3752ZM92.4699 12.3752H93.7074V9.45019H95.5637L97.1949 12.3752H98.6012L96.8124 9.22519C96.8124 9.22519 98.3199 8.71895 98.3199 6.97519C98.3199 5.56894 97.2512 4.5002 95.7324 4.5002H92.4699V12.3752ZM93.7074 8.3252V5.6252H95.7324C96.5199 5.6252 97.0824 6.1877 97.0824 6.97519C97.0824 7.7627 96.5199 8.3252 95.7324 8.3252H93.7074ZM105.176 12.4877C107.314 12.4877 108.439 10.9127 108.439 10.9127L107.651 10.1252C107.651 10.1252 106.807 11.3627 105.176 11.3627C103.545 11.3627 102.251 10.0689 102.251 8.4377C102.251 6.80645 103.545 5.5127 105.176 5.5127C106.807 5.5127 107.595 6.69394 107.595 6.69394L108.382 5.90645C108.382 5.90645 107.314 4.3877 105.176 4.3877C102.814 4.3877 101.014 6.1877 101.014 8.4377C101.014 10.6877 102.814 12.4877 105.176 12.4877ZM111.185 12.3752H112.422V8.94394H116.304V12.3752H117.541V4.5002H116.304V7.81894H112.422V4.5002H111.185V12.3752ZM120.057 12.3752H121.35L122.138 10.3502H125.625L126.413 12.3752H127.707L124.557 4.5002H123.207L120.057 12.3752ZM122.588 9.22519L123.882 5.9627L125.175 9.22519H122.588ZM130.229 12.3752H131.466V6.58145L135.798 12.3752H136.923V4.5002H135.685V10.2939L131.354 4.5002H130.229V12.3752ZM141.918 12.3752H143.155V5.68145H145.518V4.5002H139.555V5.68145H141.918V12.3752ZM150.179 12.4877C151.922 12.4877 152.991 11.4189 152.991 10.1814C152.991 7.25645 148.829 8.3252 148.829 6.58145C148.829 6.01895 149.335 5.5127 150.291 5.5127C151.36 5.5127 151.922 6.24395 151.922 6.24395L152.766 5.4002C152.766 5.4002 151.922 4.3877 150.291 4.3877C148.603 4.3877 147.591 5.4002 147.591 6.58145C147.591 9.50644 151.753 8.4377 151.753 10.1814C151.753 10.8002 151.191 11.3627 150.179 11.3627C148.829 11.3627 148.21 10.4627 148.21 10.4627L147.366 11.3064C147.366 11.3064 148.266 12.4877 150.179 12.4877Z" fill="white"/>
</g>
<path d="M30.2937 4.23715C28.8966 1.62478 26.1657 0 23.2125 0H0.762107C0.349299 0 0 0.350439 0 0.796458C0 0.987609 0.0952634 1.17876 0.222282 1.33805L5.11246 6.27609C5.55703 6.7221 6.12862 6.94512 6.73194 6.94512H22.5457C23.6571 6.94512 24.6097 7.83714 24.6097 8.98406C24.6097 10.1309 23.7205 11.0548 22.5774 11.0548H11.6856C11.2728 11.0548 10.9235 11.4053 10.9235 11.8513C10.9235 12.0424 11.0188 12.2336 11.1458 12.3929L16.036 17.331C16.4806 17.7769 17.0522 18 17.6555 18H22.5774C29.0236 17.9682 33.8503 11.0867 30.2937 4.23715Z" fill="#FF3008"/>
</g>
<defs>
<clipPath id="clip0_3_874">
<rect width="153" height="18" fill="white"/>
</clipPath>
</defs>
</svg>
