<svg width="24" height="24" viewBox="0 0 24 24" fill="none" xmlns="http://www.w3.org/2000/svg">
<path d="M12.1338 12.8704L12.0154 13.6992C12.0641 13.7061 12.1132 13.7088 12.1624 13.7071L12.1338 12.8704ZM11.8659 12.8704L11.8374 13.7071C11.8816 13.7086 11.9259 13.7066 11.9698 13.7011L11.8659 12.8704ZM15.6613 9.22015L16.4985 9.22489V9.22015H15.6613ZM12.2522 12.0416C12.091 12.0185 11.9151 12.0205 11.7621 12.0396L11.9698 13.7011C11.9777 13.7001 11.9903 13.6992 12.0041 13.6992C12.0104 13.6992 12.0152 13.6994 12.0181 13.6996C12.0212 13.6998 12.0202 13.6999 12.0154 13.6992L12.2522 12.0416ZM11.8944 12.0337C10.3795 11.982 9.1757 10.7434 9.1757 9.22015H7.50128C7.50128 11.6486 9.42307 13.6248 11.8374 13.7071L11.8944 12.0337ZM9.1757 9.22015C9.1757 7.6604 10.4323 6.39597 11.9999 6.39597V4.72156C9.50422 4.72156 7.50128 6.73898 7.50128 9.22015H9.1757ZM11.9999 6.39597C13.558 6.39597 14.8241 7.66207 14.8241 9.22015H16.4985C16.4985 6.73732 14.4827 4.72156 11.9999 4.72156V6.39597ZM14.8241 9.21542C14.8154 10.7466 13.616 11.9822 12.1053 12.0337L12.1624 13.7071C14.5809 13.6246 16.4848 11.6454 16.4985 9.22489L14.8241 9.21542Z" fill="#93989A"/>
<path d="M19.5237 20.238L20.0891 20.8554C20.2852 20.6759 20.3844 20.4138 20.3562 20.1494L19.5237 20.238ZM4.47631 20.238L3.6438 20.1494C3.61567 20.4138 3.71481 20.6759 3.9109 20.8554L4.47631 20.238ZM6.45212 17.358L5.98889 16.6606L5.98472 16.6634L6.45212 17.358ZM17.5479 17.358L18.0153 16.6634L18.0135 16.6622L17.5479 17.358ZM18.9583 19.6205C17.1195 21.3044 14.6848 22.3254 12 22.3254V23.9998C15.1199 23.9998 17.954 22.8106 20.0891 20.8554L18.9583 19.6205ZM12 22.3254C9.31525 22.3254 6.8805 21.3044 5.04172 19.6205L3.9109 20.8554C6.04606 22.8106 8.88015 23.9998 12 23.9998V22.3254ZM5.30882 20.3266C5.38777 19.5845 5.87319 18.7567 6.91952 18.0526L5.98472 16.6634C4.64222 17.5668 3.78811 18.7929 3.6438 20.1494L5.30882 20.3266ZM6.91534 18.0554C8.27881 17.1497 10.1231 16.6715 12.0084 16.6715C13.8939 16.6715 15.7313 17.1498 17.0823 18.0538L18.0135 16.6622C16.3283 15.5345 14.147 14.9971 12.0084 14.9971C9.86949 14.9971 7.68403 15.5346 5.9889 16.6606L6.91534 18.0554ZM17.0805 18.0526C18.1268 18.7567 18.6123 19.5845 18.6912 20.3266L20.3562 20.1494C20.2119 18.7929 19.3578 17.5668 18.0153 16.6634L17.0805 18.0526Z" fill="#93989A"/>
<path d="M22.3255 12C22.3255 17.7026 17.7026 22.3255 12 22.3255V24C18.6274 24 24 18.6274 24 12H22.3255ZM12 22.3255C6.29733 22.3255 1.67442 17.7026 1.67442 12H0C0 18.6274 5.37257 24 12 24V22.3255ZM1.67442 12C1.67442 6.29733 6.29733 1.67442 12 1.67442V0C5.37257 0 0 5.37257 0 12H1.67442ZM12 1.67442C17.7026 1.67442 22.3255 6.29733 22.3255 12H24C24 5.37257 18.6274 0 12 0V1.67442Z" fill="#93989A"/>
</svg>
