<svg width="48" height="48" viewBox="0 0 48 48" fill="none" xmlns="http://www.w3.org/2000/svg">
<path d="M10.5007 24.1999C10.5007 23.7892 10.6588 23.3954 10.9401 23.105C11.2214 22.8146 11.6029 22.6515 12.0007 22.6515L32.3858 22.6515L30.4358 20.6541C30.1533 20.3625 29.9946 19.9671 29.9946 19.5547C29.9946 19.1424 30.1533 18.7469 30.4358 18.4554C30.7182 18.1638 31.1013 18 31.5008 18C31.9002 18 32.2833 18.1638 32.5658 18.4554L37.0658 23.1005C37.2739 23.3183 37.4149 23.5948 37.471 23.8951C37.527 24.1955 37.4956 24.5063 37.3808 24.7883C37.2682 25.071 37.0771 25.3131 36.8316 25.4839C36.586 25.6548 36.2969 25.7467 36.0008 25.7483L12.0007 25.7483C11.6029 25.7483 11.2214 25.5851 10.9401 25.2948C10.6588 25.0044 10.5007 24.6105 10.5007 24.1999Z" fill="white"/>
<path d="M29.9997 28.8483C29.9986 28.6445 30.0364 28.4425 30.1111 28.2539C30.1857 28.0652 30.2957 27.8936 30.4347 27.749L34.9347 23.1038C35.2172 22.8122 35.6003 22.6484 35.9997 22.6484C36.1975 22.6484 36.3934 22.6887 36.5761 22.7668C36.7588 22.8449 36.9249 22.9594 37.0647 23.1038C37.2046 23.2482 37.3155 23.4196 37.3912 23.6082C37.4669 23.7968 37.5059 23.999 37.5059 24.2032C37.5059 24.6155 37.3472 25.0109 37.0647 25.3025L32.5647 29.9477C32.4253 30.0928 32.2594 30.208 32.0766 30.2866C31.8938 30.3652 31.6977 30.4057 31.4997 30.4057C31.3017 30.4057 31.1056 30.3652 30.9229 30.2866C30.7401 30.208 30.5742 30.0928 30.4347 29.9477C30.2957 29.803 30.1857 29.6314 30.1111 29.4428C30.0364 29.2541 29.9986 29.0521 29.9997 28.8483Z" fill="white"/>
</svg>
