<svg width="67" height="30" viewBox="0 0 67 30" fill="none" xmlns="http://www.w3.org/2000/svg">
<g clip-path="url(#clip0_47_72787)">
<g clip-path="url(#clip1_47_72787)">
<path d="M64 22.4056H49C48.6316 22.4056 48.2783 22.5519 48.0179 22.8124C47.7574 23.0728 47.6111 23.4261 47.6111 23.7944C47.6111 24.1628 47.7574 24.5161 48.0179 24.7765C48.2783 25.037 48.6316 25.1833 49 25.1833H64C64.3683 25.1833 64.7216 25.037 64.9821 24.7765C65.2425 24.5161 65.3889 24.1628 65.3889 23.7944C65.3889 23.4261 65.2425 23.0728 64.9821 22.8124C64.7216 22.5519 64.3683 22.4056 64 22.4056ZM50.5222 13.0556C50.5041 13.1026 50.4893 13.1509 50.4778 13.2V13.2667C50.4707 13.3387 50.4707 13.4113 50.4778 13.4833V13.5333C50.4739 13.587 50.4739 13.6408 50.4778 13.6944V13.7833C50.4885 13.8229 50.5015 13.8619 50.5166 13.9C50.5166 13.9333 50.55 13.9611 50.5666 13.9944C50.5817 14.0267 50.5984 14.0583 50.6166 14.0889C50.6439 14.1278 50.6736 14.1649 50.7055 14.2L50.75 14.2556L55.9833 19.5667L56.0778 19.6444L56.15 19.7L56.2722 19.7667L56.3389 19.8L56.4889 19.8444H56.55C56.6894 19.8714 56.8327 19.8714 56.9722 19.8444H57.0278L57.1778 19.8L57.2444 19.7667L57.3666 19.7L57.4389 19.6444L57.5389 19.5667L62.7722 14.2556L62.8166 14.2C62.8486 14.1649 62.8783 14.1278 62.9055 14.0889C62.9238 14.0583 62.9404 14.0267 62.9555 13.9944C62.9555 13.9611 62.9889 13.9333 63.0055 13.9C63.0206 13.8619 63.0336 13.8229 63.0444 13.7833V13.6944C63.0483 13.6408 63.0483 13.587 63.0444 13.5333V13.4833C63.0515 13.4113 63.0515 13.3387 63.0444 13.2667V13.2C63.0329 13.1509 63.0181 13.1026 63 13.0556C63 13.0222 62.9666 12.9889 62.95 12.9611C62.9333 12.9333 62.9166 12.8944 62.9 12.8667C62.8592 12.8067 62.8127 12.7509 62.7611 12.7L62.7055 12.6556C62.6704 12.6236 62.6333 12.5939 62.5944 12.5667L62.5 12.5167L62.4055 12.4667L62.2889 12.4333H58.7222V7.44444C58.7222 6.92875 58.5173 6.43417 58.1527 6.06951C57.788 5.70486 57.2934 5.5 56.7778 5.5C56.2621 5.5 55.7675 5.70486 55.4028 6.06951C55.0382 6.43417 54.8333 6.92875 54.8333 7.44444V12.3722H51.25L51.1333 12.4056L51.0389 12.4556L50.9444 12.5611C50.9055 12.5883 50.8684 12.618 50.8333 12.65L50.7778 12.6944C50.7261 12.7453 50.6796 12.8012 50.6389 12.8611C50.6389 12.8889 50.6055 12.9222 50.5889 12.9556C50.5722 12.9889 50.5333 13.0222 50.5222 13.0556Z" fill="#F73859"/>
</g>
</g>
<g clip-path="url(#clip2_47_72787)">
<g clip-path="url(#clip3_47_72787)">
<path d="M27.9 3.5H12.6C12.3 3.5 12 3.8 12 4.1V25.9C12 26.1 12.1 26.3 12.3 26.4C12.5 26.5 12.7 26.5 12.9 26.4L20.2 21.9L27.5 26.4C27.6 26.5 27.7 26.5 27.8 26.5C27.9 26.5 28 26.5 28.1 26.4C28.3 26.3 28.4 26.1 28.4 25.9V4.1C28.5 3.8 28.2 3.5 27.9 3.5ZM27.2 24.8L20.5 20.7C20.3 20.6 20.1 20.6 19.9 20.7L13.2 24.8V4.7H27.2V24.8ZM20.9 16.4C20.9 16.7 20.6 17 20.3 17C20.1 17 20 16.9 19.9 16.8C19.8 16.7 19.7 16.5 19.7 16.4V13.4H16.7C16.2 13.4 16 13.1 16 12.7C16 12.4 16.3 12.1 16.6 12.1H19.6V9.1C19.6 8.7 19.9 8.5 20.2 8.5C20.5 8.5 20.8 8.8 20.8 9.1V12.1H23.8C24.1 12.1 24.4 12.4 24.4 12.7C24.4 13 24.1 13.3 23.8 13.3H20.8L20.9 16.4Z" fill="#F73859"/>
</g>
</g>
<defs>
<clipPath id="clip0_47_72787">
<rect width="20" height="20" fill="white" transform="translate(46.5 5.5)"/>
</clipPath>
<clipPath id="clip1_47_72787">
<rect width="17.7778" height="20" fill="white" transform="translate(47.6111 5.5)"/>
</clipPath>
<clipPath id="clip2_47_72787">
<rect width="16.5" height="23" fill="white" transform="translate(12 3.5)"/>
</clipPath>
<clipPath id="clip3_47_72787">
<rect width="16.5" height="23" fill="white" transform="translate(12 3.5)"/>
</clipPath>
</defs>
</svg>
