<svg width="144" height="18" viewBox="0 0 144 18" fill="none" xmlns="http://www.w3.org/2000/svg">
<g clip-path="url(#clip0_47_82923)">
<path fill-rule="evenodd" clip-rule="evenodd" d="M11.7732 1.73483C11.3106 1.47793 9.98412 1.63691 8.3909 2.12996C5.60249 4.03595 3.24895 6.84395 3.08479 11.3529C3.05484 11.4606 2.78009 11.3385 2.72537 11.3051C1.97254 9.86161 1.67417 8.34212 2.30316 6.14987C2.42009 5.9546 2.03705 5.71441 1.96793 5.78296C1.83026 5.9212 1.25484 6.53406 0.872952 7.19703C-1.02094 10.4825 0.217464 14.6925 3.53119 16.5346C6.84377 18.3795 11.0273 17.1895 12.8716 13.8758C15.0057 10.0511 13.0242 2.43409 11.7732 1.73483Z" fill="#7AAC41"/>
<path fill-rule="evenodd" clip-rule="evenodd" d="M23.6311 3.57031C19.7028 3.57031 16.8516 6.49063 16.8516 10.5134C16.8516 14.5702 19.6953 17.403 23.7676 17.403C25.8245 17.403 27.4528 16.7601 28.7483 15.4359C29.1348 15.0183 29.1768 14.6157 29.1768 14.4619C29.1768 13.8058 28.6889 13.3295 28.0167 13.3295C27.6781 13.3295 27.3947 13.4574 27.0698 13.758C26.3366 14.4412 25.3706 15.1393 23.7676 15.1393C21.5385 15.1393 19.7258 13.466 19.6118 11.3169H28.4833C29.4475 11.3169 29.9164 10.8659 29.9164 9.93799C29.9164 9.66497 29.9164 9.46798 29.8617 9.07918C29.3836 5.62951 27.0548 3.57031 23.6311 3.57031ZM23.6311 5.72398C25.7611 5.72398 27.1274 7.08161 27.2121 9.27271H19.6146C19.8139 7.24462 21.5281 5.72398 23.6311 5.72398Z" fill="white"/>
<path fill-rule="evenodd" clip-rule="evenodd" d="M38.3886 3.57031C36.6042 3.57031 34.8376 4.59617 34.1475 6.02119V5.14106C34.1475 3.77652 33.09 3.7074 32.878 3.7074C32.2519 3.7074 31.582 4.0841 31.582 5.14106V15.7775C31.582 17.1944 32.7075 17.2659 32.9333 17.2659C33.1585 17.2659 34.2846 17.1944 34.2846 15.7775V10.0757C34.2846 7.59425 35.6906 5.86164 37.7032 5.86164C39.6529 5.86164 40.601 7.14094 40.601 9.77326V15.7775C40.601 17.1944 41.7271 17.2659 41.9529 17.2659C42.1781 17.2659 43.3036 17.1944 43.3036 15.7775V8.92366C43.3036 6.33569 42.0122 3.57031 38.3886 3.57031Z" fill="white"/>
<path fill-rule="evenodd" clip-rule="evenodd" d="M55.5317 3.70703C54.9073 3.70703 54.454 4.07164 54.1845 4.78818L50.4871 14.086L46.818 4.78818C46.5306 4.0607 46.0813 3.70703 45.4431 3.70703C44.6983 3.70703 44.0918 4.28822 44.0918 5.00303C44.0918 5.18044 44.112 5.40969 44.2611 5.76796L48.5103 15.8013C49.0172 17.0115 49.8501 17.2655 50.4595 17.2655C51.0689 17.2655 51.9024 17.0115 52.4098 15.8019L56.6866 5.71266C56.8329 5.35842 56.8554 5.09865 56.8554 4.97596C56.8554 4.25308 56.2857 3.70703 55.5317 3.70703Z" fill="white"/>
<path fill-rule="evenodd" clip-rule="evenodd" d="M63.3896 3.57031C61.661 3.57031 60.0511 4.05185 58.8571 4.92506C58.4521 5.20442 58.2551 5.5529 58.2551 5.99066C58.2551 6.59431 58.7154 7.06778 59.3052 7.06778C59.5598 7.06778 59.8449 6.96583 60.107 6.78266C61.1334 6.09838 62.0982 5.77927 63.1425 5.77927C65.1407 5.77927 66.2875 6.79534 66.2875 8.56769V8.86145C61.8022 8.86606 57.2402 9.40807 57.2402 13.3099C57.2402 16.1185 59.6404 17.3759 62.0187 17.3759C63.9132 17.3759 65.4258 16.6254 66.3963 15.2044V15.8875C66.3963 16.9053 67.08 17.2659 67.6658 17.2659C67.7897 17.2659 68.88 17.2273 68.88 15.8875V8.73242C68.88 5.49991 66.8266 3.57031 63.3896 3.57031ZM65.719 10.851H66.2875V11.4736C66.2875 13.7505 64.8377 15.2216 62.5942 15.2216C61.9853 15.2216 59.9981 15.0799 59.9981 13.2552C59.9981 11.0998 63.2629 10.851 65.719 10.851Z" fill="white"/>
<path fill-rule="evenodd" clip-rule="evenodd" d="M75.9168 6.16441C77.0987 6.16441 77.1586 5.24453 77.1586 5.06021C77.1586 4.51301 76.832 3.92837 75.9168 3.92837H73.4849V1.46885C73.4849 0.370421 72.7724 -0.0195312 72.1613 -0.0195312C71.9361 -0.0195312 70.8105 0.0518928 70.8105 1.46885V13.1478C70.8105 15.8429 72.14 17.2674 74.6559 17.2674C75.3068 17.2674 75.941 17.1522 76.3557 16.9592C76.8315 16.7219 77.1039 16.332 77.1039 15.889C77.1039 15.2646 76.6512 14.8113 76.0262 14.8113C75.9058 14.8113 75.7342 14.8413 75.5453 14.896C75.3137 14.9536 75.157 14.9761 74.9854 14.9761C73.9618 14.9761 73.4849 14.3079 73.4849 12.8731V6.16441H75.9168Z" fill="white"/>
<path fill-rule="evenodd" clip-rule="evenodd" d="M84.8539 3.57031C80.7666 3.57031 77.8008 6.46759 77.8008 10.4587C77.8008 12.4021 78.5191 14.1733 79.8231 15.4457C81.1174 16.7083 82.9036 17.403 84.8539 17.403C88.8905 17.403 91.9347 14.4181 91.9347 10.4587C91.9347 6.46759 88.9562 3.57031 84.8539 3.57031ZM84.8539 15.1122C82.0505 15.1122 80.5852 12.7713 80.5852 10.4587C80.5852 7.2809 82.7976 5.83399 84.8539 5.83399C86.9096 5.83399 89.1226 7.2809 89.1226 10.4587C89.1226 13.6561 86.9096 15.1122 84.8539 15.1122Z" fill="white"/>
<path fill-rule="evenodd" clip-rule="evenodd" d="M100.337 15.7851C99.0514 15.9689 98.3262 15.9193 97.9806 15.4136C97.7335 15.0501 97.6079 14.45 97.6079 13.6303V4.95229H100.111C100.334 4.95229 100.514 4.772 100.514 4.54909V3.91146C100.514 3.68855 100.334 3.50768 100.111 3.50768H97.6079V0.461794C97.6079 0.239458 97.4277 0.0585938 97.2047 0.0585938H96.555C96.3321 0.0585938 96.1518 0.239458 96.1518 0.461794V3.50768H94.1923C93.9699 3.50768 93.7891 3.68855 93.7891 3.91146V4.54909C93.7891 4.772 93.9699 4.95229 94.1923 4.95229H96.1518V13.7156C96.1604 14.9298 96.3891 15.8082 96.8511 16.4014C97.3309 17.0189 98.1096 17.3317 99.1654 17.3317C99.8492 17.3317 100.331 17.2775 100.638 17.1658C100.822 17.099 100.931 16.9095 100.897 16.7171L100.791 16.1146C100.753 15.8997 100.55 15.7569 100.337 15.7851Z" fill="#7AAC41"/>
<path fill-rule="evenodd" clip-rule="evenodd" d="M111.678 3.50781H111.028C110.805 3.50781 110.625 3.68868 110.625 3.91159V12.8632C110.434 13.862 110.011 14.5958 109.332 15.1067C108.643 15.6251 107.724 15.8878 106.599 15.8878C105.562 15.8878 104.804 15.5917 104.282 14.9829C103.75 14.3631 103.473 13.4144 103.458 12.1685V3.91159C103.458 3.68868 103.277 3.50781 103.054 3.50781H102.417C102.194 3.50781 102.014 3.68868 102.014 3.91159V12.149C102.03 13.7981 102.423 15.0831 103.179 15.9684C103.953 16.8733 105.111 17.3318 106.622 17.3318C107.798 17.3318 108.791 17.1054 109.574 16.6585C109.971 16.4327 110.321 16.1637 110.625 15.8532V16.6925C110.625 16.9154 110.805 17.0957 111.028 17.0957H111.678C111.901 17.0957 112.081 16.9154 112.081 16.6925V3.91159C112.081 3.68868 111.901 3.50781 111.678 3.50781Z" fill="#7AAC41"/>
<path fill-rule="evenodd" clip-rule="evenodd" d="M120.025 15.7851C118.738 15.9694 118.013 15.9188 117.668 15.4136C117.421 15.0507 117.295 14.4505 117.295 13.6303V4.95229H119.798C120.02 4.95229 120.201 4.772 120.201 4.54909V3.91146C120.201 3.68855 120.02 3.50768 119.798 3.50768H117.295V0.461794C117.295 0.239458 117.115 0.0585938 116.892 0.0585938H116.243C116.02 0.0585938 115.839 0.239458 115.839 0.461794V3.50768H113.88C113.657 3.50768 113.477 3.68855 113.477 3.91146V4.54909C113.477 4.772 113.657 4.95229 113.88 4.95229H115.839V13.7156C115.848 14.9298 116.077 15.8082 116.538 16.4014C117.018 17.0189 117.797 17.3317 118.853 17.3317C119.536 17.3317 120.018 17.2775 120.325 17.1658C120.51 17.099 120.618 16.9095 120.585 16.7171L120.478 16.1146C120.441 15.8997 120.238 15.7569 120.025 15.7851Z" fill="#7AAC41"/>
<path fill-rule="evenodd" clip-rule="evenodd" d="M131.081 11.7027C130.768 11.1895 130.268 10.7454 129.593 10.382C128.951 10.0358 128.074 9.73283 126.989 9.48169C125.967 9.24553 125.185 8.999 124.662 8.74902C124.173 8.51459 123.821 8.25769 123.617 7.98524C123.428 7.7318 123.332 7.35798 123.332 6.87414C123.332 6.27049 123.599 5.77744 124.15 5.36617C124.73 4.9336 125.543 4.71414 126.567 4.71414C127.634 4.71414 128.504 4.97507 129.152 5.48886C129.781 5.98768 130.086 6.58787 130.086 7.32284C130.086 7.54576 130.266 7.72662 130.489 7.72662H131.138C131.361 7.72662 131.541 7.54576 131.541 7.32284C131.541 6.08041 131.068 5.07759 130.136 4.34262C129.232 3.63068 128.031 3.26953 126.567 3.26953C125.214 3.26953 124.092 3.60361 123.233 4.26255C122.341 4.94569 121.888 5.83273 121.888 6.89775C121.888 7.94607 122.249 8.78703 122.962 9.39587C123.642 9.97647 124.787 10.4327 126.46 10.7886C128.915 11.3076 130.109 12.2142 130.109 13.5603C130.109 14.187 129.812 14.7129 129.202 15.1685C128.564 15.6443 127.71 15.8857 126.662 15.8857C125.507 15.8857 124.587 15.657 123.93 15.206C123.303 14.7751 122.972 14.1888 122.917 13.414C122.903 13.2027 122.726 13.0385 122.515 13.0385H121.878C121.655 13.0385 121.475 13.2194 121.475 13.4417C121.475 14.596 121.973 15.5499 122.954 16.2762C123.899 16.9755 125.147 17.3297 126.662 17.3297C128.082 17.3297 129.256 16.9927 130.15 16.3292C131.081 15.6374 131.554 14.7095 131.554 13.5719C131.554 12.8467 131.394 12.2183 131.081 11.7027Z" fill="#7AAC41"/>
<path fill-rule="evenodd" clip-rule="evenodd" d="M143.107 9.58073H139.538V5.81773C139.538 5.54758 139.319 5.32812 139.048 5.32812H138.585C138.314 5.32812 138.095 5.54758 138.095 5.81773V9.58073H134.686C134.416 9.58073 134.197 9.80019 134.197 10.0703V10.5259C134.197 10.7961 134.416 11.0155 134.686 11.0155H138.095V14.7699C138.095 15.0401 138.314 15.2595 138.585 15.2595H139.048C139.319 15.2595 139.538 15.0401 139.538 14.7699V11.0155H143.107C143.378 11.0155 143.596 10.7961 143.596 10.5259V10.0703C143.596 9.80019 143.378 9.58073 143.107 9.58073Z" fill="#7AAC41"/>
</g>
<defs>
<clipPath id="clip0_47_82923">
<rect width="144" height="17.856" fill="white" transform="translate(0 0.0703125)"/>
</clipPath>
</defs>
</svg>
