<svg width="16" height="15" viewBox="0 0 16 15" fill="none" xmlns="http://www.w3.org/2000/svg">
<path d="M0 0.737811C0 1.14225 0.338372 1.47562 0.756831 1.47562H0.758834V1.47963H2.28251L5.02552 7.09379L3.99639 8.90478C3.87526 9.11201 3.80718 9.35628 3.80718 9.61556C3.80718 10.4275 4.49194 11.0942 5.33186 11.0942H14.4759C14.8934 11.0932 15.2347 10.7598 15.2347 10.3564C15.2347 9.95093 14.8934 9.61957 14.4759 9.61757V9.61556H5.65021C5.54409 9.61556 5.46 9.53347 5.46 9.42936L5.48403 9.34126L6.16878 8.13494H11.846C12.4196 8.13494 12.9222 7.83261 13.1805 7.3741L15.9095 2.57383C15.9685 2.47071 15.9996 2.34458 15.9996 2.21844C15.9996 1.81199 15.6582 1.47963 15.2377 1.47963H3.96736L3.47582 0.465511L3.4608 0.431474C3.33767 0.178196 3.07838 0 2.77205 0H0.756831C0.338372 0 0 0.331364 0 0.737811ZM3.81419 13.3136C3.81419 14.1275 4.49194 14.7933 5.33186 14.7933C6.16878 14.7933 6.85553 14.1275 6.85553 13.3136C6.85553 12.4987 6.16878 11.835 5.33186 11.835C4.49194 11.835 3.81419 12.4987 3.81419 13.3136ZM11.4346 13.3136C11.4346 14.1275 12.1143 14.7933 12.9512 14.7933C13.7902 14.7933 14.4759 14.1275 14.4759 13.3136C14.4759 12.4987 13.7902 11.835 12.9512 11.835C12.1143 11.835 11.4346 12.4987 11.4346 13.3136Z" fill="#666666"/>
</svg>
