<svg width="36" height="36" viewBox="0 0 36 36" fill="none" xmlns="http://www.w3.org/2000/svg">
<mask id="mask0_47_90793" style="mask-type:luminance" maskUnits="userSpaceOnUse" x="7" y="5" width="23" height="26">
<path d="M7 31V5H29.8354V31H7Z" fill="white"/>
</mask>
<g mask="url(#mask0_47_90793)">
<path d="M15.8947 15.264V14.2378C15.5526 14.1522 15.2105 14.1523 14.8684 14.1523C10.5066 14.1523 7 17.6588 7 22.0206C7 24.6719 8.36846 27.0667 10.3355 28.4351L10.25 28.3496C8.96711 26.9812 8.28291 25.0997 8.28291 23.1325C8.28291 18.7707 11.7039 15.3496 15.8947 15.264Z" fill="#25F4EE"/>
</g>
<mask id="mask1_47_90793" style="mask-type:luminance" maskUnits="userSpaceOnUse" x="7" y="5" width="23" height="26">
<path d="M7 31V5H29.8354V31H7Z" fill="white"/>
</mask>
<g mask="url(#mask1_47_90793)">
<path d="M28.6362 11.9276V10.9013C27.4389 10.9013 26.3271 10.5592 25.3863 9.96051C26.2415 10.9013 27.3534 11.6711 28.6362 11.9276ZM16.0641 26.7236C18.0312 26.7236 19.5707 25.1842 19.6562 23.2171V6.11184H22.7351C22.6496 5.76976 22.6496 5.42763 22.6496 5H18.3733V22.1052C18.2878 23.9868 16.7483 25.5263 14.7812 25.5263C14.1825 25.5263 13.5839 25.3552 13.1562 25.0987C13.8404 26.0394 14.8667 26.7236 16.0641 26.7236Z" fill="#25F4EE"/>
</g>
<mask id="mask2_47_90793" style="mask-type:luminance" maskUnits="userSpaceOnUse" x="7" y="5" width="23" height="26">
<path d="M7 31V5H29.8354V31H7Z" fill="white"/>
</mask>
<g mask="url(#mask2_47_90793)">
<path d="M14.8694 18.343C12.9023 18.343 11.2773 19.968 11.2773 21.9351C11.2773 23.3035 12.1326 24.5009 13.2445 25.0996C12.8168 24.5009 12.5603 23.8167 12.5603 23.047C12.5603 21.0798 14.1852 19.4549 16.1524 19.4549C16.4944 19.4549 16.8366 19.5404 17.1786 19.6259V15.2641C16.8366 15.1786 16.4944 15.1786 16.1524 15.1786H15.9813V18.4285C15.5536 18.4285 15.2116 18.343 14.8694 18.343ZM25.3891 9.96156C24.4483 8.93523 23.9351 7.56682 23.9351 6.02734H22.7377C23.0799 7.73788 24.1062 9.1063 25.3891 9.96156Z" fill="#FE2C55"/>
</g>
<mask id="mask3_47_90793" style="mask-type:luminance" maskUnits="userSpaceOnUse" x="7" y="5" width="23" height="26">
<path d="M7 31V5H29.8354V31H7Z" fill="white"/>
</mask>
<g mask="url(#mask3_47_90793)">
<path d="M28.6385 11.9258V15.1757C26.4148 15.1757 24.3622 14.4915 22.7372 13.2942V22.0179C22.7372 26.3797 19.2306 29.8862 14.8688 29.8862C13.1583 29.8862 11.6188 29.3731 10.3359 28.5179C11.7899 30.0573 13.8425 30.9981 16.0662 30.9981C20.428 30.9981 23.9346 27.4915 23.9346 23.1297V14.406C25.6451 15.6034 27.6977 16.2876 29.8358 16.2876V12.0113C29.4938 12.0113 29.0661 12.0113 28.6385 11.9258Z" fill="#FE2C55"/>
</g>
<mask id="mask4_47_90793" style="mask-type:luminance" maskUnits="userSpaceOnUse" x="7" y="5" width="23" height="26">
<path d="M7 31V5H29.8354V31H7Z" fill="white"/>
</mask>
<g mask="url(#mask4_47_90793)">
<path d="M22.7348 22.0207V13.297C24.4453 14.4945 26.4979 15.1787 28.6361 15.1787V11.8431C27.3532 11.5866 26.2414 10.9023 25.3861 9.96152C24.0177 9.1063 23.0769 7.65233 22.8203 6.02734H19.6558V23.1327C19.5703 25.0142 18.0308 26.5537 16.0637 26.5537C14.8664 26.5537 13.84 25.9549 13.1558 25.0997C12.044 24.5865 11.2743 23.3891 11.2743 22.0207C11.2743 20.0536 12.8993 18.4287 14.8664 18.4287C15.2085 18.4287 15.5506 18.5141 15.8927 18.5997V15.2641C11.6164 15.3497 8.19531 18.8563 8.19531 23.1326C8.19531 25.1853 8.96507 27.0667 10.3335 28.5207C11.6164 29.376 13.1558 29.9747 14.8664 29.9747C19.2282 29.8892 22.7348 26.297 22.7348 22.0207Z" fill="white"/>
</g>
</svg>
