<svg width="19" height="19" viewBox="0 0 19 19" fill="none" xmlns="http://www.w3.org/2000/svg">
<mask id="mask0_0_165" style="mask-type:luminance" maskUnits="userSpaceOnUse" x="-2" y="-2" width="23" height="23">
<rect x="-1.9004" y="-1.90243" width="22.7968" height="22.7968" fill="white"/>
</mask>
<g mask="url(#mask0_0_165)">
<path fill-rule="evenodd" clip-rule="evenodd" d="M9.49865 0C4.26109 0 0 4.26109 0 9.49865C0 14.7362 4.26109 18.9973 9.49865 18.9973C14.7362 18.9973 18.9973 14.7362 18.9973 9.49865C18.9973 4.26109 14.7362 0 9.49865 0ZM9.49866 17.0976C5.30881 17.0976 1.89974 13.6885 1.89974 9.49863C1.89974 5.30878 5.30881 1.89971 9.49866 1.89971C13.6885 1.89971 17.0976 5.30877 17.0976 9.49863C17.0976 13.6885 13.6885 17.0976 9.49866 17.0976Z" fill="#8F9198"/>
<path fill-rule="evenodd" clip-rule="evenodd" d="M12.186 12.1793C12.0102 12.3541 11.8212 12.5108 11.6236 12.6438C11.4175 12.7824 11.2009 12.9002 10.9777 12.9943C10.746 13.0921 10.5066 13.1662 10.2663 13.2156C9.7619 13.3182 9.23378 13.3182 8.7313 13.2156C8.49003 13.1662 8.25067 13.0921 8.0189 12.9943C7.79663 12.9002 7.57911 12.7824 7.37394 12.6438C7.17542 12.5098 6.9864 12.3541 6.81067 12.1793C6.63875 12.0074 6.48202 11.8183 6.34714 11.617L4.77226 12.6799C4.97648 12.9819 5.2111 13.2659 5.46946 13.5243C5.72878 13.7836 6.01279 14.0182 6.31199 14.2186C6.6188 14.4257 6.9446 14.6024 7.28086 14.7439C7.62756 14.8902 7.98756 15.0023 8.3523 15.0764C8.72845 15.1533 9.11504 15.1922 9.49879 15.1922C9.88254 15.1922 10.2691 15.1533 10.6462 15.0764C11.01 15.0023 11.37 14.8902 11.7167 14.7439C12.053 14.6024 12.3778 14.4257 12.6865 14.2186C12.9838 14.0173 13.2679 13.7836 13.5281 13.5243C13.7865 13.2669 14.022 12.9819 14.2253 12.6799L12.6504 11.617C12.5146 11.8183 12.3579 12.0074 12.186 12.1793Z" fill="#8F9198"/>
<circle cx="6.17277" cy="8.07115" r="1.4248" fill="#8F9198"/>
<circle cx="12.8165" cy="8.06451" r="1.41815" fill="#8F9198"/>
</g>
</svg>
