<svg width="17" height="17" viewBox="0 0 17 17" fill="none" xmlns="http://www.w3.org/2000/svg">
<path d="M8.10465 16.2093C3.63721 16.2093 0 12.5721 0 8.10465C0 3.63721 3.63721 0 8.10465 0C12.5721 0 16.2093 3.63721 16.2093 8.10465C16.2093 12.5721 12.5721 16.2093 8.10465 16.2093ZM8.10465 1.18605C4.28558 1.18605 1.18605 4.29349 1.18605 8.10465C1.18605 11.9158 4.28558 15.0233 8.10465 15.0233C11.9237 15.0233 15.0233 11.9158 15.0233 8.10465C15.0233 4.29349 11.9237 1.18605 8.10465 1.18605Z" fill="#B0B0B0"/>
<path d="M16.4071 16.998C16.2568 16.998 16.1066 16.9427 15.988 16.8241L14.4066 15.2427C14.1773 15.0134 14.1773 14.6338 14.4066 14.4045C14.6359 14.1752 15.0154 14.1752 15.2447 14.4045L16.8261 15.9859C17.0554 16.2152 17.0554 16.5948 16.8261 16.8241C16.7075 16.9427 16.5573 16.998 16.4071 16.998Z" fill="#B0B0B0"/>
</svg>
