<svg width="278" height="278" viewBox="0 0 278 278" fill="none" xmlns="http://www.w3.org/2000/svg">
<circle cx="138.043" cy="139.001" r="73.8367" stroke="#E1E5FF" stroke-width="2"/>
<path d="M138.043 65.1641C157.141 65.1641 175.497 72.5642 189.255 85.8105C203.013 99.0568 211.103 117.119 211.827 136.203C212.55 155.288 205.851 173.911 193.135 188.161C180.42 202.411 162.677 211.18 143.634 212.626" stroke="#56C7CE" stroke-width="10" stroke-linecap="round"/>
<circle cx="138.043" cy="138.999" r="103.007" stroke="#E1E5FF" stroke-width="2"/>
<path d="M138.043 35.9922C155.4 35.9922 172.475 40.3781 187.684 48.7427C202.892 57.1073 215.74 69.1792 225.035 83.8376C234.33 98.4959 239.77 115.265 240.85 132.589C241.93 149.912 238.616 167.227 231.214 182.927C223.812 198.626 212.563 212.201 198.511 222.39C184.46 232.579 168.061 239.052 150.839 241.208C133.617 243.364 116.129 241.133 99.9988 234.723C83.8692 228.312 69.6209 217.93 58.5771 204.54" stroke="#5856CE" stroke-width="10" stroke-linecap="round"/>
<circle cx="138.043" cy="139" r="134" stroke="#E1E5FF" stroke-width="2"/>
<path d="M138.043 5C163.863 5 189.133 12.4598 210.814 26.482C232.495 40.5042 249.663 60.4917 260.253 84.0403C270.843 107.589 274.405 133.696 270.508 159.22C266.612 184.745 255.425 208.6 238.291 227.917C221.158 247.234 198.809 261.189 173.932 268.104C149.055 275.02 122.71 274.601 98.0654 266.898C73.421 259.195 51.5269 244.535 35.0167 224.683C18.5065 204.832 8.08337 180.632 5.00098 154.997" stroke="#FF285C" stroke-width="10" stroke-linecap="round"/>
</svg>
