<svg width="24" height="24" viewBox="0 0 24 24" fill="none" xmlns="http://www.w3.org/2000/svg">
<path fill-rule="evenodd" clip-rule="evenodd" d="M11.7659 1.78125C6.24937 1.78125 1.77734 6.25328 1.77734 11.7698C1.77734 17.2863 6.24937 21.7584 11.7659 21.7584C14.045 21.7584 16.1458 20.9951 17.8266 19.7102L20.8354 22.7112C21.2264 23.1012 21.8596 23.1004 22.2496 22.7093C22.6396 22.3183 22.6388 21.6851 22.2478 21.2951L19.2875 18.3425C20.8236 16.586 21.7545 14.2866 21.7545 11.7698C21.7545 6.25328 17.2824 1.78125 11.7659 1.78125ZM3.77734 11.7698C3.77734 7.35785 7.35394 3.78125 11.7659 3.78125C16.1779 3.78125 19.7545 7.35785 19.7545 11.7698C19.7545 16.1818 16.1779 19.7584 11.7659 19.7584C7.35394 19.7584 3.77734 16.1818 3.77734 11.7698Z" fill="#8F8F8F"/>
</svg>
