<svg width="56" height="516" viewBox="0 0 56 516" fill="none" xmlns="http://www.w3.org/2000/svg">
<rect width="56" height="56" rx="28" fill="#EB9947"/>
<path d="M40 26.4384V38.0009C39.9991 38.3619 39.9012 38.7159 39.7165 39.026C39.5317 39.3361 39.267 39.5908 38.95 39.7634C38.6593 39.9237 38.3319 40.0055 38 40.0009H32C31.7348 40.0009 31.4805 39.8956 31.2929 39.708C31.1054 39.5205 31 39.2661 31 39.0009V33.0009C31 32.7357 30.8947 32.4814 30.7071 32.2938C30.5196 32.1063 30.2652 32.0009 30 32.0009H26C25.7348 32.0009 25.4805 32.1063 25.2929 32.2938C25.1054 32.4814 25 32.7357 25 33.0009V39.0009C25 39.2661 24.8947 39.5205 24.7071 39.708C24.5196 39.8956 24.2652 40.0009 24 40.0009H18C17.7163 40.002 17.4356 39.9423 17.1769 39.8259C16.9182 39.7095 16.6874 39.539 16.5 39.3259C16.1749 38.9418 15.9976 38.4542 16 37.9509V26.4384C16.0001 26.1609 16.0579 25.8865 16.1699 25.6325C16.2818 25.3786 16.4453 25.1507 16.65 24.9634L26.65 15.8759C27.0187 15.5386 27.5003 15.3516 28 15.3516C28.4997 15.3516 28.9813 15.5386 29.35 15.8759L39.35 24.9634C39.5548 25.1507 39.7183 25.3786 39.8302 25.6325C39.9421 25.8865 39.9999 26.1609 40 26.4384Z" fill="white"/>
<path d="M40.7375 124.848C40.7342 124.848 40.731 124.846 40.7287 124.844C40.7263 124.841 40.725 124.838 40.725 124.835C40.5443 124.527 40.2856 124.273 39.975 124.098L28.975 117.91C28.677 117.744 28.3413 117.656 28 117.656C27.6587 117.656 27.323 117.744 27.025 117.91L16.025 124.098C15.7144 124.273 15.4557 124.527 15.275 124.835C15.275 124.838 15.2737 124.841 15.2713 124.844C15.269 124.846 15.2658 124.848 15.2625 124.848V124.873C15.0897 125.164 14.999 125.496 15 125.835V138.16C15.0006 138.516 15.0959 138.866 15.276 139.174C15.456 139.481 15.7145 139.735 16.025 139.91L27.025 146.097C27.3019 146.249 27.6098 146.334 27.925 146.347H28.1C28.4072 146.334 28.707 146.248 28.975 146.097L39.975 139.91C40.2855 139.735 40.544 139.481 40.7241 139.174C40.9042 138.866 40.9994 138.516 41 138.16V125.835C41.0018 125.488 40.9112 125.147 40.7375 124.848ZM28 119.648L37.9625 125.248L28.1125 130.848L18.05 125.248L28 119.648ZM17 126.948L27.1125 132.585L27.0125 143.797L17 138.16V126.948ZM29.0125 143.785L29.1125 132.585L39 126.96V138.16L29.0125 143.785Z" fill="#898EA9"/>
<path d="M28.0117 211C25.4406 211 22.9271 211.762 20.7893 213.191C18.6515 214.619 16.9852 216.65 16.0013 219.025C15.0174 221.401 14.7599 224.014 15.2615 226.536C15.7631 229.058 17.0013 231.374 18.8193 233.192C20.6374 235.01 22.9538 236.249 25.4755 236.75C27.9973 237.252 30.6112 236.994 32.9866 236.01C35.362 235.026 37.3924 233.36 38.8208 231.222C40.2493 229.085 41.0117 226.571 41.0117 224C41.0051 220.554 39.6334 217.251 37.1968 214.815C34.7603 212.378 31.4575 211.007 28.0117 211ZM28.0117 235C25.8361 235 23.7094 234.355 21.9005 233.146C20.0915 231.937 18.6816 230.22 17.849 228.21C17.0165 226.2 16.7986 223.988 17.2231 221.854C17.6475 219.72 18.6952 217.76 20.2335 216.222C21.7719 214.683 23.7319 213.636 25.8657 213.211C27.9995 212.787 30.2113 213.005 32.2212 213.837C34.2312 214.67 35.9492 216.08 37.1579 217.889C38.3666 219.698 39.0117 221.824 39.0117 224C39.0084 226.916 37.8484 229.712 35.7862 231.775C33.7241 233.837 30.9281 234.997 28.0117 235ZM33.2367 217.438L25.4742 220.962C25.2492 221.071 25.0714 221.257 24.9742 221.488L21.7867 228.913C21.7083 229.096 21.6866 229.299 21.7245 229.495C21.7623 229.691 21.858 229.871 21.9992 230.013C22.1912 230.196 22.4462 230.299 22.7117 230.3C22.8444 230.299 22.9759 230.274 23.0992 230.225L30.5242 227.038C30.7543 226.94 30.941 226.763 31.0492 226.538L34.5617 218.762C34.6393 218.577 34.66 218.373 34.6212 218.176C34.5824 217.979 34.4858 217.798 34.3437 217.655C34.2017 217.513 34.0205 217.417 33.8234 217.378C33.6263 217.339 33.422 217.36 33.2367 217.438ZM29.3867 225.35L24.6117 227.4L26.6617 222.625L31.6367 220.363L29.3867 225.35Z" fill="#898EA9"/>
<path d="M41.8749 325.777L40.0874 309.777C40.0348 309.288 39.8024 308.835 39.4352 308.508C39.068 308.18 38.5922 308 38.0999 308.002H33.9124C33.6718 306.609 32.9466 305.345 31.8648 304.434C30.783 303.523 29.4142 303.023 27.9999 303.023C26.5857 303.023 25.2169 303.523 24.1351 304.434C23.0533 305.345 22.3281 306.609 22.0874 308.002H17.8999C17.4077 308 16.9318 308.18 16.5647 308.508C16.1975 308.835 15.9651 309.288 15.9124 309.777L14.1249 325.777C14.0947 326.058 14.1235 326.343 14.2096 326.612C14.2957 326.881 14.4372 327.129 14.6249 327.34C14.812 327.549 15.0413 327.716 15.2977 327.831C15.5541 327.945 15.8318 328.003 16.1124 328.002H39.8874C40.1681 328.003 40.4458 327.945 40.7022 327.831C40.9585 327.716 41.1878 327.549 41.3749 327.34C41.5627 327.129 41.7041 326.881 41.7903 326.612C41.8764 326.343 41.9052 326.058 41.8749 325.777ZM27.9999 305.002C28.8865 305.004 29.7476 305.299 30.4486 305.842C31.1497 306.385 31.6512 307.145 31.8749 308.002H24.1249C24.3487 307.145 24.8502 306.385 25.5513 305.842C26.2523 305.299 27.1134 305.004 27.9999 305.002ZM16.1124 326.002L17.8999 310.002H21.9999V313.002C21.9999 313.268 22.1053 313.522 22.2928 313.71C22.4804 313.897 22.7347 314.002 22.9999 314.002C23.2652 314.002 23.5195 313.897 23.707 313.71C23.8946 313.522 23.9999 313.268 23.9999 313.002V310.002H31.9999V313.002C31.9999 313.268 32.1053 313.522 32.2928 313.71C32.4804 313.897 32.7347 314.002 32.9999 314.002C33.2652 314.002 33.5195 313.897 33.707 313.71C33.8946 313.522 33.9999 313.268 33.9999 313.002V310.002H38.0999L39.8874 326.002H16.1124Z" fill="#898EA9"/>
<path d="M28 420C27.8294 420.002 27.6613 419.959 27.5125 419.875C26.975 419.575 14.5 412.488 14.5 403.5C14.5 401.926 14.9953 400.392 15.9157 399.115C16.8361 397.838 18.135 396.883 19.6283 396.385C21.1216 395.887 22.7337 395.872 24.2363 396.341C25.7388 396.81 27.0555 397.741 28 399C28.9445 397.741 30.2612 396.81 31.7637 396.341C33.2663 395.872 34.8784 395.887 36.3717 396.385C37.865 396.883 39.1639 397.838 40.0843 399.115C41.0047 400.392 41.5 401.926 41.5 403.5C41.5 407.325 39.2875 411.25 34.925 415.175C32.944 416.956 30.7871 418.531 28.4875 419.875C28.3387 419.959 28.1706 420.002 28 420ZM22 398C20.5413 398 19.1424 398.579 18.1109 399.611C17.0795 400.642 16.5 402.041 16.5 403.5C16.5 410.4 25.75 416.463 28 417.838C30.25 416.463 39.5 410.4 39.5 403.5C39.5012 402.229 39.0618 400.996 38.2566 400.012C37.4514 399.028 36.3301 398.353 35.0835 398.103C33.837 397.852 32.5422 398.041 31.4193 398.638C30.2965 399.235 29.4151 400.202 28.925 401.375C28.8497 401.558 28.7215 401.715 28.5568 401.826C28.3921 401.936 28.1983 401.995 28 401.995C27.8017 401.995 27.6079 401.936 27.4432 401.826C27.2785 401.715 27.1503 401.558 27.075 401.375C26.6588 400.373 25.9541 399.517 25.0505 398.916C24.1469 398.315 23.0852 397.996 22 398Z" fill="#898EA9"/>
<path d="M28.9995 494V499.425L33.6995 502.138C33.8884 502.248 34.0357 502.418 34.1187 502.621C34.2018 502.823 34.216 503.048 34.1592 503.259C34.1025 503.471 33.9778 503.658 33.8044 503.792C33.631 503.925 33.4185 503.999 33.1995 504C33.0228 504.005 32.8487 503.957 32.6995 503.863L27.4995 500.863H27.4745L27.4245 500.825L27.387 500.8L27.3495 500.775L27.312 500.738L27.287 500.713C27.262 500.7 27.2495 500.675 27.237 500.663L27.212 500.638L27.187 500.588L27.162 500.55L27.137 500.513C27.1292 500.507 27.1229 500.499 27.1186 500.49C27.1142 500.482 27.112 500.472 27.112 500.463L27.087 500.425C27.087 500.413 27.0745 500.4 27.0745 500.375C27.0699 500.37 27.0665 500.364 27.0644 500.358C27.0622 500.351 27.0614 500.344 27.062 500.338L27.037 500.288C27.0375 500.281 27.0367 500.274 27.0346 500.267C27.0324 500.261 27.029 500.255 27.0245 500.25C27.0245 500.225 27.0245 500.213 27.012 500.2V500.15C27.012 500.125 26.9995 500.113 26.9995 500.1V494C26.9995 493.735 27.1048 493.48 27.2924 493.293C27.4799 493.105 27.7342 493 27.9995 493C28.2647 493 28.519 493.105 28.7066 493.293C28.8941 493.48 28.9995 493.735 28.9995 494ZM40.8495 497.025C40.862 497 40.8745 496.988 40.8745 496.975L40.8995 496.938C40.912 496.925 40.912 496.9 40.9245 496.888L40.9495 496.85C40.9476 496.832 40.952 496.815 40.962 496.8C40.962 496.788 40.9745 496.775 40.9745 496.75C40.979 496.745 40.9824 496.739 40.9846 496.733C40.9867 496.726 40.9875 496.719 40.987 496.713C40.987 496.688 40.9995 496.675 40.9995 496.663C40.9995 496.65 41.012 496.625 41.012 496.613V496.563C41.0223 496.53 41.0265 496.496 41.0245 496.463V491.463C41.0245 491.197 40.9191 490.943 40.7316 490.755C40.544 490.568 40.2897 490.463 40.0245 490.463C39.7592 490.463 39.5049 490.568 39.3174 490.755C39.1298 490.943 39.0245 491.197 39.0245 491.463V494.05L36.487 491.513C34.8085 489.835 32.6703 488.693 30.3427 488.23C28.0151 487.768 25.6026 488.006 23.4103 488.914C21.2179 489.822 19.3441 491.361 18.0258 493.334C16.7075 495.307 16.0039 497.627 16.0039 500C16.0039 502.373 16.7075 504.693 18.0258 506.666C19.3441 508.639 21.2179 510.178 23.4103 511.086C25.6026 511.994 28.0151 512.232 30.3427 511.77C32.6703 511.307 34.8085 510.165 36.487 508.488C36.674 508.3 36.779 508.046 36.779 507.781C36.779 507.516 36.674 507.262 36.487 507.075C36.395 506.981 36.2851 506.906 36.1639 506.855C36.0426 506.804 35.9123 506.778 35.7807 506.778C35.6491 506.778 35.5189 506.804 35.3976 506.855C35.2763 506.906 35.1664 506.981 35.0745 507.075C33.6755 508.472 31.8936 509.424 29.9541 509.809C28.0146 510.194 26.0045 509.995 24.1779 509.238C22.3513 508.481 20.7902 507.199 19.6919 505.555C18.5935 503.91 18.0073 501.977 18.0073 500C18.0073 498.023 18.5935 496.09 19.6919 494.445C20.7902 492.801 22.3513 491.519 24.1779 490.762C26.0045 490.005 28.0146 489.806 29.9541 490.191C31.8936 490.576 33.6755 491.528 35.0745 492.925L37.612 495.463H35.0245C34.7592 495.463 34.5049 495.568 34.3174 495.755C34.1298 495.943 34.0245 496.197 34.0245 496.463C34.0245 496.728 34.1298 496.982 34.3174 497.17C34.5049 497.357 34.7592 497.463 35.0245 497.463H40.312L40.362 497.438H40.3995L40.4495 497.413H40.487L40.537 497.388L40.5745 497.363L40.6245 497.325L40.6495 497.3L40.7995 497.163L40.8245 497.125L40.8495 497.025Z" fill="#898EA9"/>
</svg>
