<svg width="20" height="20" viewBox="0 0 20 20" fill="none" xmlns="http://www.w3.org/2000/svg">
<path fill-rule="evenodd" clip-rule="evenodd" d="M5.83366 1.04102C3.18729 1.04102 1.04199 3.18632 1.04199 5.83268V14.166C1.04199 16.8124 3.18729 18.9577 5.83366 18.9577H14.167C16.8134 18.9577 18.9587 16.8124 18.9587 14.166V5.83268C18.9587 3.18632 16.8134 1.04102 14.167 1.04102H5.83366ZM13.2503 9.99935C13.2503 10.4136 12.9145 10.7493 12.5003 10.7493H10.7503V12.4993C10.7503 12.9136 10.4145 13.2493 10.0003 13.2493C9.58611 13.2493 9.25033 12.9136 9.25033 12.4993V10.7493H7.50033C7.08611 10.7493 6.75033 10.4136 6.75033 9.99935C6.75033 9.58514 7.08611 9.24935 7.50033 9.24935H9.25032V7.49935C9.25032 7.08514 9.58611 6.74935 10.0003 6.74935C10.4145 6.74935 10.7503 7.08514 10.7503 7.49935V9.24935H12.5003C12.9145 9.24935 13.2503 9.58514 13.2503 9.99935Z" fill="white"/>
</svg>
