<svg width="49" height="49" viewBox="0 0 49 49" fill="none" xmlns="http://www.w3.org/2000/svg">
<mask id="mask0_47_14759" style="mask-type:luminance" maskUnits="userSpaceOnUse" x="-1" y="-1" width="51" height="51">
<path d="M49.5768 -0.575982H-0.576717V49.5776H49.5768V-0.575982Z" fill="white"/>
</mask>
<g mask="url(#mask0_47_14759)">
<path d="M48.3731 24.5C48.3731 37.6848 37.6847 48.3731 24.5 48.3731C11.3153 48.3731 0.626919 37.6848 0.626919 24.5C0.626919 11.3153 11.3153 0.626919 24.5 0.626919C37.6847 0.626919 48.3731 11.3153 48.3731 24.5Z" stroke="black" stroke-width="1.25"/>
<path d="M7.35885 13.746L8.14826 12.6687C8.47276 12.2259 8.95172 11.9987 9.39508 12.3232C9.64384 12.5057 9.7266 12.762 9.6629 13.0649L9.67193 13.0715C9.86753 12.9446 10.0556 12.9421 10.2522 13.0303C10.5551 13.1638 10.8325 13.4416 10.9112 13.3784L10.9448 13.403L10.4869 14.0279C10.4002 14.0575 10.1509 13.8378 9.9232 13.7405C9.7276 13.6578 9.58918 13.6683 9.45326 13.8534L9.2376 14.1478L9.99291 14.7015L9.52799 15.3354L7.35834 13.7455L7.35885 13.746ZM8.78521 13.8168L9.03448 13.4767C9.16789 13.2947 9.16237 13.1367 9.0109 13.0253C8.86847 12.921 8.71048 12.9451 8.57708 13.1271L8.32129 13.4762L8.78521 13.8168Z" fill="black"/>
<path d="M9.95591 10.5325L11.5031 9.11972L11.9345 9.59216L10.9675 10.4749L11.2138 10.7442L12.0222 10.0064L12.4205 10.4428L11.612 11.1805L11.8958 11.4915L12.8904 10.5837L13.3443 11.0812L11.769 12.5191L9.95591 10.5325Z" fill="black"/>
<path d="M12.8143 8.11202L13.5064 7.69374L14.4758 8.58447C14.6524 8.74597 14.859 8.96363 14.859 8.96363L14.8655 8.95962C14.8655 8.95962 14.7718 8.67374 14.7076 8.44404L14.3625 7.17566L15.0451 6.76289L15.6966 9.51231L14.9433 9.96771L12.8143 8.11202Z" fill="black"/>
<path d="M16.5108 6.1125L17.24 5.8186L18.2456 8.31323L17.5163 8.60713L16.5108 6.1125Z" fill="black"/>
<path d="M18.9157 5.23749L20.957 4.76655L21.1009 5.38945L19.8255 5.68386L19.9077 6.03946L20.9745 5.79321L21.1074 6.36847L20.0406 6.61472L20.1354 7.02498L21.4475 6.72205L21.5989 7.37806L19.5206 7.85753L18.9162 5.23699L18.9157 5.23749Z" fill="black"/>
<path d="M22.6596 4.48348H23.4455L23.6411 5.4048C23.7053 5.69817 23.773 6.15306 23.773 6.15306H23.7805C23.7805 6.15306 23.8517 5.75033 23.9195 5.44191L24.1261 4.48298H24.8368L25.0439 5.43439C25.1116 5.74632 25.1793 6.15306 25.1793 6.15306H25.1868C25.1868 6.15306 25.2581 5.69767 25.3223 5.39677L25.5179 4.48247H26.3228L25.6162 7.17168H24.8222L24.5815 6.03219C24.5328 5.79898 24.4872 5.50962 24.4872 5.50962H24.4797C24.4797 5.50962 24.4345 5.79898 24.3859 6.03219L24.1527 7.17218H23.3477L22.6591 4.48298L22.6596 4.48348Z" fill="black"/>
<path d="M28.045 4.76851L30.0868 5.23844L29.9433 5.86135L28.6679 5.56795L28.5862 5.92354L29.6529 6.16879L29.5205 6.74455L28.4538 6.4993L28.3595 6.91006L29.672 7.21198L29.521 7.86799L27.4427 7.39003L28.0455 4.76901L28.045 4.76851Z" fill="black"/>
<path d="M31.8372 5.81126L32.9677 6.32383C33.6733 6.64381 33.9582 7.31838 33.6051 8.09576C33.251 8.87665 32.586 9.10384 31.8257 8.75879L30.7258 8.26026L31.8367 5.81076L31.8372 5.81126ZM32.0363 8.14039C32.3653 8.28935 32.6908 8.18152 32.8789 7.76675C33.0624 7.36251 32.9521 7.0315 32.6096 6.87652L32.2841 6.72907L31.7108 7.99344L32.0363 8.14039Z" fill="black"/>
<path d="M37.2121 8.88267L38.2527 9.80699C38.4493 9.98203 38.5532 10.1596 38.5878 10.3361C38.6264 10.5362 38.5742 10.7368 38.4268 10.9023C38.2568 11.0934 38.0677 11.1421 37.8345 11.0653L37.8269 11.0739C37.9839 11.3392 37.9453 11.6371 37.7432 11.8648C37.5506 12.0815 37.3189 12.1672 37.0852 12.1406C36.8891 12.1176 36.6945 12.0198 36.4863 11.8352L35.4261 10.8933L37.2121 8.88267ZM36.8314 11.3166C36.9578 11.429 37.1128 11.4305 37.2201 11.3096C37.3349 11.1802 37.2968 11.0307 37.1759 10.9229L36.7597 10.5533L36.4126 10.944L36.8319 11.3161L36.8314 11.3166ZM37.4598 10.5016C37.5722 10.6014 37.6955 10.6155 37.7908 10.5086C37.8831 10.4048 37.8595 10.2729 37.7472 10.1726L37.3846 9.85013L37.0947 10.1766L37.4603 10.5011L37.4598 10.5016Z" fill="black"/>
<path d="M39.1332 13.2983L39.9677 11.5098L40.4833 12.1904L40.1793 12.7797C40.0765 12.9804 39.9436 13.185 39.9436 13.185L39.9482 13.191C39.9482 13.191 40.1834 13.1213 40.404 13.0766L41.0535 12.9432L41.5576 13.6088L39.6076 13.9252L38.8548 14.4955L38.3798 13.8686L39.1332 13.2983Z" fill="black"/>
<path d="M30.4432 21.2002C30.2105 21.0061 29.9217 20.8566 29.5776 20.7528C29.2335 20.649 28.8418 20.5958 28.4025 20.5943C27.9832 20.5928 27.6015 20.6375 27.2565 20.7288C26.9114 20.82 26.612 20.9529 26.3577 21.127C26.1035 21.3015 25.8998 21.5121 25.7479 21.7594C25.5959 22.0067 25.5051 22.2835 25.4755 22.5894L27.0955 22.5955C27.1687 22.3944 27.3081 22.2419 27.5143 22.1376C27.7204 22.0337 27.9822 21.9821 28.3007 21.9836C28.6673 21.9851 28.9462 22.0618 29.1367 22.2133C29.3273 22.3648 29.4221 22.5799 29.4211 22.8583L29.4191 23.4024L27.8052 23.4928C26.9706 23.5379 26.3317 23.7299 25.8873 24.0685C25.4424 24.4075 25.2193 24.881 25.2167 25.4893C25.2157 25.7958 25.2679 26.0716 25.3737 26.3179C25.4796 26.5641 25.6285 26.7753 25.8216 26.9513C26.0142 27.1273 26.2434 27.2633 26.5092 27.3591C26.7745 27.4548 27.0684 27.5035 27.3909 27.5045C27.8257 27.506 28.2139 27.4217 28.5555 27.2522C28.8965 27.0822 29.1543 26.8445 29.3288 26.539H29.4377L29.4342 27.4098L31.1384 27.4163L31.1559 22.8653C31.1574 22.5107 31.0968 22.1933 30.9754 21.9129C30.8535 21.6326 30.676 21.3948 30.4432 21.2002ZM29.4131 24.9923C29.4126 25.1613 29.376 25.3184 29.3028 25.4633C29.2295 25.6083 29.1287 25.7346 28.9993 25.843C28.8699 25.9513 28.7185 26.035 28.5449 26.0947C28.3714 26.1544 28.1823 26.184 27.9767 26.1835C27.6703 26.1824 27.421 26.1107 27.2284 25.9688C27.0353 25.8274 26.9395 25.6313 26.9405 25.3816C26.9425 24.8981 27.3182 24.6318 28.068 24.5821L29.4161 24.5028L29.4141 24.9923H29.4131Z" fill="black"/>
<path d="M36.1814 20.6242C35.6859 20.6222 35.2717 20.7285 34.9382 20.9427C34.6052 21.1573 34.3609 21.4532 34.2064 21.8314H34.0976L34.1016 20.7611L32.3974 20.7546L32.3718 27.4205L34.1307 27.427L34.1452 23.5833C34.1463 23.3656 34.1773 23.1675 34.238 22.9884C34.2992 22.8094 34.387 22.6564 34.5028 22.53C34.6182 22.4036 34.7566 22.3063 34.9176 22.2386C35.0791 22.1709 35.2627 22.1373 35.4678 22.1383C35.8871 22.1398 36.1955 22.2592 36.3941 22.4954C36.5927 22.7316 36.691 23.0817 36.689 23.5451L36.6739 27.4371L38.4329 27.4436L38.4494 23.1344C38.4524 22.3364 38.2604 21.7195 37.8732 21.2827C37.486 20.8459 36.9218 20.6262 36.1805 20.6237" fill="black"/>
<path d="M41.4804 20.4136L41.4849 19.2059L39.726 19.1994L39.7014 25.6482C39.7004 25.9747 39.7405 26.2525 39.8223 26.4827C39.904 26.7124 40.0354 26.9015 40.216 27.0494C40.3965 27.1974 40.6303 27.3057 40.9161 27.3754C41.202 27.4452 41.5481 27.4808 41.9553 27.4823C42.1248 27.4828 42.2868 27.4752 42.4418 27.4597C42.5968 27.4442 42.7292 27.4266 42.838 27.407L42.843 26.0654C42.7583 26.0735 42.6795 26.079 42.6073 26.0825C42.5346 26.0865 42.4398 26.088 42.3234 26.0875C42.0215 26.0865 41.8018 26.0173 41.6654 25.8794C41.529 25.7419 41.4613 25.5283 41.4623 25.2379L41.4738 22.2402L42.8581 22.2457L42.8636 20.8615L41.9217 20.858C41.6775 20.857 41.4804 20.6584 41.4814 20.4141" fill="black"/>
<path d="M21.8881 25.7664H21.7793L20.3965 20.7079H20.2867L19.5214 23.2136C19.4607 23.4127 19.4642 23.6264 19.5319 23.8235L20.7697 27.418L20.7085 27.6592C20.6348 27.913 20.5024 28.0956 20.3103 28.2074C20.1187 28.3192 19.8574 28.3749 19.5269 28.3739H19.4426L19.3248 28.3729C19.2821 28.3729 19.243 28.3714 19.2069 28.3694C19.1708 28.3669 19.1442 28.3639 19.1282 28.3599L19.1226 29.7742C19.1387 29.7782 19.1803 29.7817 19.2465 29.7837C19.3127 29.7857 19.3844 29.7882 19.4612 29.7907C19.5379 29.7932 19.6081 29.7943 19.6728 29.7943H19.7937C20.2085 29.7963 20.5746 29.7571 20.891 29.6779C21.2075 29.5987 21.4874 29.4678 21.7296 29.2852C21.9724 29.1026 22.1835 28.8649 22.3641 28.5715C22.5446 28.2781 22.7061 27.916 22.849 27.4857L25.1717 20.7255L23.3105 20.7185L21.8891 25.7654L21.8881 25.7664Z" fill="black"/>
<path d="M16.7974 16.4382L14.9047 16.4312L11.8944 26.3515H11.8082L11.8217 22.7911C11.8232 22.4366 11.7625 22.1191 11.6412 21.8387C11.5193 21.5584 11.3417 21.3211 11.109 21.1265C10.8758 20.9324 10.5874 20.783 10.2434 20.6792C9.89932 20.5754 9.50763 20.5222 9.06828 20.5207C8.649 20.5192 8.26733 20.5638 7.92227 20.6551C7.57722 20.7464 7.2778 20.8793 7.02302 21.0533C6.76874 21.2279 6.56512 21.4385 6.41315 21.6858C6.26119 21.933 6.17041 22.2099 6.14082 22.5158L7.76078 22.5218C7.834 22.3207 7.97343 22.1682 8.17956 22.0639C8.38569 21.9601 8.64749 21.9084 8.96597 21.9099C9.33259 21.9114 9.61144 21.9882 9.80203 22.1396C9.99261 22.2911 10.0874 22.5063 10.0864 22.7846L10.0844 23.3288L8.47045 23.4191C7.6364 23.4642 6.99694 23.6563 6.55258 23.9948C6.10822 24.3339 5.88453 24.8073 5.88253 25.4157C5.88152 25.7221 5.93368 25.998 6.03951 26.2442C6.14533 26.4905 6.29429 26.7016 6.48738 26.8777C6.68047 27.0537 6.90917 27.1896 7.17498 27.2854C7.4403 27.3812 7.7342 27.4298 8.05668 27.4308C8.49202 27.4324 8.8797 27.3481 9.22125 27.1786C9.56229 27.0086 9.82008 26.7708 9.99462 26.4654H10.1034L10.0999 27.3361L11.8042 27.3426L13.4863 27.3491L16.7969 16.4387L16.7974 16.4382ZM10.0794 24.9177C10.0789 25.0867 10.0418 25.2436 9.96904 25.3886C9.89581 25.5335 9.7945 25.6599 9.66561 25.7683C9.53621 25.8766 9.38475 25.9603 9.21122 26.02C9.03769 26.0797 8.84861 26.1093 8.64298 26.1088C8.33654 26.1078 8.08728 26.0361 7.89469 25.8941C7.7016 25.7527 7.6058 25.5566 7.60681 25.3068C7.60881 24.8234 7.98446 24.557 8.73376 24.5074L10.0819 24.4282L10.0794 24.9177Z" fill="black"/>
<path d="M18.4703 16.4449L15.1597 27.3553L17.0525 27.3623L20.3626 16.4524L18.4703 16.4449Z" fill="black"/>
<path d="M8.40565 30.7386L9.26579 32.6244L8.66344 32.8993L8.12981 31.7287L7.72908 31.9112L8.17094 32.8797L7.61674 33.1325L7.17489 32.164L6.28516 32.5698L5.95916 31.8546L8.40565 30.7386Z" fill="black"/>
<path d="M8.30715 33.7211C8.97519 33.2722 9.76561 33.376 10.231 34.0692C10.6965 34.7623 10.4979 35.5392 9.82931 35.988C9.16126 36.4369 8.36984 36.3246 7.90441 35.6314C7.43899 34.9383 7.6386 34.1695 8.30715 33.7211ZM9.38495 35.326C9.75057 35.0807 9.92109 34.7347 9.71145 34.4227C9.5018 34.1103 9.11713 34.1379 8.75151 34.3831C8.38589 34.6284 8.21837 34.9724 8.42802 35.2844C8.63766 35.5968 9.01933 35.5713 9.38495 35.326Z" fill="black"/>
<path d="M11.3025 35.6345L12.2254 36.6C12.605 36.9972 12.7455 37.5082 12.3483 37.8879C12.1256 38.101 11.8583 38.1377 11.5709 38.0223L11.5628 38.0303C11.6536 38.2455 11.623 38.4306 11.5022 38.6091C11.3176 38.8844 10.9961 39.1086 11.0448 39.1974L11.0152 39.226L10.4795 38.6658C10.4655 38.575 10.7258 38.3679 10.8607 38.1607C10.9766 37.9822 10.9901 37.8443 10.8316 37.6788L10.5793 37.4149L9.90226 38.0624L9.3591 37.4942L11.3031 35.635L11.3025 35.6345ZM10.9841 37.0268L11.2755 37.3312C11.4314 37.4942 11.5879 37.5163 11.7238 37.3864C11.8517 37.264 11.8552 37.1045 11.6993 36.9415L11.4003 36.629L10.9841 37.0268Z" fill="black"/>
<path d="M14.8037 38.773L15.4747 39.2108L14.8398 42.0079L14.1406 41.5515L14.246 41.1488L13.4836 40.6513L13.1576 40.9101L12.5026 40.4827L14.8037 38.773ZM13.9275 40.2947L14.3939 40.5991L14.5399 40.0655C14.577 39.9326 14.6437 39.7199 14.6437 39.7199L14.6377 39.7159C14.6377 39.7159 14.4732 39.8644 14.3633 39.9501L13.9275 40.2947Z" fill="black"/>
<path d="M15.9205 41.0699C16.243 40.3326 16.9893 40.0061 17.73 40.3301C17.9989 40.4475 18.21 40.622 18.3349 40.8247C18.5129 41.112 18.5405 41.4526 18.4342 41.7796L17.714 41.4646C17.7812 41.264 17.6944 41.0208 17.4602 40.9184C17.1192 40.769 16.8273 40.9862 16.6507 41.3894C16.4742 41.7926 16.5409 42.1663 16.8614 42.3067C17.1131 42.4165 17.3368 42.3177 17.4577 42.1076L18.1849 42.4256C18.045 42.6889 17.8158 42.8754 17.566 42.9677C17.2671 43.0791 16.9657 43.054 16.6076 42.897C15.8563 42.5685 15.5985 41.8067 15.921 41.0694L15.9205 41.0699Z" fill="black"/>
<path d="M18.9182 42.3183C19.1088 41.5364 19.7879 41.0861 20.5733 41.2776C20.8581 41.3469 21.0964 41.4828 21.2543 41.6603C21.4795 41.9126 21.5653 42.2431 21.5171 42.5836L20.7532 42.3976C20.7848 42.1884 20.6575 41.9637 20.4093 41.9036C20.0476 41.8153 19.7974 42.0796 19.6931 42.5069C19.5887 42.9347 19.7186 43.2913 20.0587 43.3741C20.3255 43.4393 20.5291 43.3028 20.6114 43.0751L21.3827 43.2632C21.2905 43.5466 21.0964 43.7703 20.8667 43.9037C20.5913 44.0652 20.2904 44.0923 19.9102 43.9995C19.1138 43.8054 18.7281 43.0997 18.9187 42.3173L18.9182 42.3183Z" fill="black"/>
<path d="M22.2932 41.6803L24.3821 41.8378L24.334 42.4753L23.0285 42.377L23.0009 42.7406L24.0922 42.8228L24.0476 43.4116L22.9562 43.3294L22.9246 43.7497L24.2673 43.851L24.2166 44.5225L22.0901 44.3621L22.2932 41.6803Z" fill="black"/>
<path d="M25.0211 43.6737L25.8235 43.6075C25.8677 43.8192 26.0407 43.9064 26.2995 43.8854C26.4529 43.8728 26.6355 43.7971 26.6225 43.6361C26.6089 43.4751 26.4259 43.4485 26.0888 43.3933C25.6294 43.3181 25.0732 43.2093 25.0261 42.6395C24.9754 42.0247 25.4584 41.7508 26.0618 41.7007C26.6165 41.6545 27.1456 41.8451 27.2053 42.4289L26.4294 42.4931C26.3948 42.3487 26.2819 42.2639 26.0683 42.2814C25.8957 42.296 25.7824 42.3843 25.7914 42.4931C25.8045 42.6506 26.0352 42.6541 26.4439 42.7183C26.9028 42.79 27.3672 42.9289 27.4144 43.4987C27.4625 44.0835 26.9675 44.4375 26.3341 44.4902C25.637 44.5479 25.0833 44.2911 25.0211 43.6737Z" fill="black"/>
<path d="M28.1351 43.36L28.9159 43.1644C28.9937 43.366 29.1787 43.4242 29.4305 43.361C29.58 43.3234 29.748 43.2196 29.7089 43.0626C29.6698 42.9056 29.4842 42.9096 29.1431 42.9096C28.6777 42.9096 28.1115 42.8926 27.9726 42.3384C27.8226 41.7401 28.2549 41.3915 28.8422 41.244C29.3824 41.1086 29.9351 41.2109 30.0885 41.7772L29.3332 41.9662C29.2755 41.8293 29.1507 41.7636 28.9425 41.8158C28.7745 41.8579 28.6772 41.9637 28.7038 42.0696C28.7424 42.223 28.9701 42.1889 29.3844 42.1859C29.8488 42.1819 30.3298 42.2441 30.4682 42.7988C30.6106 43.368 30.1793 43.7979 29.5629 43.9523C28.8843 44.1223 28.2965 43.9594 28.1351 43.36Z" fill="black"/>
<path d="M30.5491 40.7794L31.2818 40.4951L32.2543 43.0028L31.5216 43.2871L30.5491 40.7794Z" fill="black"/>
<path d="M31.9166 40.253L33.1398 39.589C33.371 39.4631 33.5736 39.426 33.7512 39.4536C33.9523 39.4852 34.1233 39.6025 34.2291 39.7976C34.351 40.0223 34.3325 40.2164 34.181 40.41L34.1865 40.42C34.4894 40.3629 34.7563 40.5003 34.9017 40.7676C35.0401 41.0224 35.0416 41.2697 34.9378 41.4798C34.8495 41.6558 34.6911 41.8063 34.4468 41.9392L33.2005 42.6158L31.9171 40.2525L31.9166 40.253ZM33.523 40.5705C33.6554 40.4988 33.7106 40.3875 33.6424 40.2621C33.5761 40.1397 33.4437 40.1171 33.3118 40.1893L32.8855 40.421L33.0937 40.8042L33.5235 40.571L33.523 40.5705ZM34.0757 41.4387C34.2246 41.3579 34.2783 41.213 34.2011 41.071C34.1183 40.9191 33.9648 40.904 33.8229 40.9813L33.3339 41.2471L33.5832 41.7065L34.0757 41.4387Z" fill="black"/>
<path d="M34.4487 38.774L35.0867 38.3146L36.658 40.4973L36.02 40.9567L34.4487 38.774Z" fill="black"/>
<path d="M35.6427 37.9023L36.225 37.3742L37.5796 38.8678L38.4323 38.0944L38.8847 38.5929L37.4498 39.8949L35.6422 37.9028L35.6427 37.9023Z" fill="black"/>
<path d="M37.4566 36.1651L37.9747 35.5738L39.9974 37.3467L39.4793 37.938L37.4566 36.1651Z" fill="black"/>
<path d="M38.3653 35.1461L39.6668 33.2287L40.221 33.6048L39.7876 34.2428L41.4588 35.3773L41.0169 36.0278L39.3458 34.8933L38.919 35.5222L38.3653 35.1461Z" fill="black"/>
<path d="M41.8561 32.7547L39.8855 32.8675L40.2401 32.0907L40.9027 32.0791C41.1279 32.0746 41.3711 32.0947 41.3711 32.0947L41.3741 32.0876C41.3741 32.0876 41.2016 31.9136 41.0571 31.7401L40.6318 31.2315L40.9789 30.4722L42.1821 32.039L43.0407 32.4312L42.7142 33.1464L41.8556 32.7542L41.8561 32.7547Z" fill="black"/>
</g>
</svg>
