<svg width="284" height="30" viewBox="0 0 284 30" fill="none" xmlns="http://www.w3.org/2000/svg">
<g clip-path="url(#clip0_6_6354)">
<path d="M24.0125 12.0063C24.0125 5.37538 18.6371 0 12.0063 0C5.37538 0 0 5.37538 0 12.0063C0 17.9989 4.39049 22.966 10.1303 23.8666V15.4769H7.08181V12.0063H10.1303V9.36113C10.1303 6.35206 11.9228 4.68994 14.6652 4.68994C15.9784 4.68994 17.3528 4.92444 17.3528 4.92444V7.8791H15.8388C14.3475 7.8791 13.8822 8.80467 13.8822 9.75508V12.0063H17.2121L16.6798 15.4769H13.8822V23.8666C19.622 22.966 24.0125 17.9989 24.0125 12.0063Z" fill="#8E59CF"/>
</g>
<g clip-path="url(#clip1_6_6354)">
<mask id="mask0_6_6354" style="mask-type:luminance" maskUnits="userSpaceOnUse" x="47" y="0" width="25" height="25">
<path d="M71.9281 0H47.9156V24.0125H71.9281V0Z" fill="white"/>
</mask>
<g mask="url(#mask0_6_6354)">
<path d="M55.4697 21.7613C64.5287 21.7613 69.4851 14.2541 69.4851 7.7459C69.4851 7.53485 69.4804 7.31911 69.471 7.10807C70.4352 6.41081 71.2672 5.54715 71.9281 4.55767C71.0301 4.95718 70.0767 5.21811 69.1005 5.33152C70.1285 4.71536 70.8981 3.74743 71.2668 2.60713C70.2998 3.18021 69.2423 3.58449 68.1395 3.80259C67.3965 3.01313 66.4142 2.49042 65.3444 2.31525C64.2745 2.1401 63.1767 2.32226 62.2207 2.83357C61.2648 3.34489 60.5039 4.15687 60.0557 5.144C59.6076 6.13111 59.497 7.23839 59.7412 8.29462C57.7832 8.19637 55.8677 7.68771 54.1188 6.80164C52.3699 5.91558 50.8268 4.67187 49.5894 3.15116C48.9605 4.23545 48.7681 5.51852 49.0512 6.73961C49.3343 7.96068 50.0718 9.02815 51.1137 9.72505C50.3315 9.70022 49.5664 9.48963 48.8817 9.11067V9.17165C48.881 10.3095 49.2744 11.4125 49.995 12.2932C50.7156 13.1738 51.7189 13.7777 52.8344 14.0023C52.1098 14.2006 51.3493 14.2294 50.6118 14.0867C50.9266 15.0653 51.539 15.9212 52.3637 16.535C53.1883 17.1487 54.184 17.4897 55.2117 17.5104C53.4669 18.881 51.3115 19.6244 49.0928 19.6209C48.6993 19.6203 48.3062 19.5962 47.9156 19.5486C50.1696 20.9947 52.7917 21.7627 55.4697 21.7613Z" fill="#8E59CF"/>
</g>
</g>
<g clip-path="url(#clip2_6_6354)">
<path d="M107.837 2.16207C111.045 2.16207 111.425 2.17613 112.687 2.23241C113.859 2.284 114.492 2.48098 114.915 2.64513C115.473 2.86087 115.876 3.12351 116.293 3.5409C116.715 3.963 116.973 4.36165 117.189 4.91975C117.353 5.34184 117.55 5.97967 117.602 7.14747C117.658 8.41375 117.672 8.79364 117.672 11.9968C117.672 15.2048 117.658 15.5847 117.602 16.8463C117.55 18.0188 117.353 18.6519 117.189 19.074C116.973 19.6321 116.711 20.0354 116.293 20.4529C115.871 20.875 115.473 21.1329 114.915 21.3486C114.492 21.5128 113.855 21.7097 112.687 21.7613C111.421 21.8177 111.041 21.8317 107.837 21.8317C104.629 21.8317 104.25 21.8177 102.988 21.7613C101.816 21.7097 101.182 21.5128 100.76 21.3486C100.202 21.1329 99.7989 20.8703 99.3815 20.4529C98.9594 20.0307 98.7014 19.6321 98.4857 19.074C98.3215 18.6519 98.1245 18.0141 98.073 16.8463C98.0167 15.58 98.0026 15.2001 98.0026 11.9968C98.0026 8.78896 98.0167 8.40907 98.073 7.14747C98.1245 5.97498 98.3215 5.34184 98.4857 4.91975C98.7014 4.36165 98.964 3.95831 99.3815 3.5409C99.8035 3.11881 100.202 2.86087 100.76 2.64513C101.182 2.48098 101.82 2.284 102.988 2.23241C104.25 2.17613 104.629 2.16207 107.837 2.16207ZM107.837 0C104.578 0 104.17 0.0140698 102.89 0.0703491C101.614 0.126629 100.737 0.332985 99.9771 0.628452C99.1845 0.937989 98.5138 1.34601 97.8478 2.01667C97.1772 2.68265 96.7692 3.35331 96.4596 4.14122C96.1641 4.90569 95.9578 5.77801 95.9015 7.05367C95.8452 8.33871 95.8312 8.74675 95.8312 12.0063C95.8312 15.2658 95.8452 15.6738 95.9015 16.9541C95.9578 18.2298 96.1641 19.1069 96.4596 19.8666C96.7692 20.6592 97.1772 21.3299 97.8478 21.9959C98.5138 22.6618 99.1845 23.0745 99.9724 23.3794C100.737 23.6748 101.609 23.8811 102.885 23.9375C104.165 23.9937 104.573 24.0078 107.833 24.0078C111.092 24.0078 111.5 23.9937 112.781 23.9375C114.056 23.8811 114.933 23.6748 115.693 23.3794C116.481 23.0745 117.152 22.6618 117.818 21.9959C118.484 21.3299 118.896 20.6592 119.201 19.8713C119.497 19.1069 119.703 18.2345 119.759 16.9588C119.816 15.6785 119.83 15.2705 119.83 12.011C119.83 8.75144 119.816 8.34341 119.759 7.06306C119.703 5.78739 119.497 4.91037 119.201 4.1506C118.906 3.35331 118.498 2.68265 117.827 2.01667C117.161 1.3507 116.49 0.937989 115.702 0.633142C114.938 0.337676 114.066 0.131318 112.79 0.0750391C111.505 0.0140698 111.097 0 107.837 0Z" fill="#8E59CF"/>
<path d="M107.837 5.83898C104.433 5.83898 101.67 8.60136 101.67 12.0063C101.67 15.4111 104.433 18.1736 107.837 18.1736C111.242 18.1736 114.005 15.4111 114.005 12.0063C114.005 8.60136 111.242 5.83898 107.837 5.83898ZM107.837 16.0067C105.628 16.0067 103.837 14.2152 103.837 12.0063C103.837 9.79729 105.628 8.00573 107.837 8.00573C110.046 8.00573 111.838 9.79729 111.838 12.0063C111.838 14.2152 110.046 16.0067 107.837 16.0067Z" fill="#8E59CF"/>
<path d="M115.688 5.59505C115.688 6.39235 115.041 7.03487 114.249 7.03487C113.451 7.03487 112.809 6.38765 112.809 5.59505C112.809 4.79777 113.456 4.15524 114.249 4.15524C115.041 4.15524 115.688 4.80246 115.688 5.59505Z" fill="#8E59CF"/>
</g>
<g clip-path="url(#clip3_6_6354)">
<path d="M160.828 0H156.781V16.3563C156.781 18.3052 155.225 19.9061 153.288 19.9061C151.351 19.9061 149.795 18.3052 149.795 16.3563C149.795 14.4423 151.316 12.8762 153.184 12.8067V8.7002C149.068 8.76977 145.748 12.1454 145.748 16.3563C145.748 20.602 149.137 24.0125 153.323 24.0125C157.508 24.0125 160.897 20.5672 160.897 16.3563V7.96935C162.419 9.083 164.287 9.74421 166.258 9.77902V5.67252C163.215 5.56812 160.828 3.06246 160.828 0Z" fill="#8E59CF"/>
</g>
<g clip-path="url(#clip4_6_6354)">
<path d="M215.436 7.2038C215.436 7.2038 215.201 5.54825 214.479 4.82131C213.564 3.86456 212.542 3.85987 212.073 3.80359C208.715 3.55972 203.673 3.55972 203.673 3.55972H203.664C203.664 3.55972 198.622 3.55972 195.264 3.80359C194.795 3.85987 193.773 3.86456 192.858 4.82131C192.136 5.54825 191.906 7.2038 191.906 7.2038C191.906 7.2038 191.662 9.15013 191.662 11.0918V12.9114C191.662 14.8531 191.902 16.7995 191.902 16.7995C191.902 16.7995 192.136 18.455 192.854 19.1819C193.768 20.1387 194.969 20.1059 195.503 20.209C197.426 20.3919 203.669 20.4482 203.669 20.4482C203.669 20.4482 208.715 20.4388 212.073 20.1996C212.542 20.1434 213.564 20.1387 214.479 19.1819C215.201 18.455 215.436 16.7995 215.436 16.7995C215.436 16.7995 215.675 14.8577 215.675 12.9114V11.0918C215.675 9.15013 215.436 7.2038 215.436 7.2038ZM201.188 15.1204V8.37159L207.674 11.7577L201.188 15.1204Z" fill="#8E59CF"/>
</g>
<g clip-path="url(#clip5_6_6354)">
<path d="M251.584 0C244.953 0 239.578 5.37468 239.578 12.0063C239.578 17.0948 242.744 21.4378 247.208 23.1871C247.105 22.235 247.007 20.7811 247.251 19.7447C247.471 18.8067 248.658 13.7791 248.658 13.7791C248.658 13.7791 248.297 13.0615 248.297 11.9968C248.297 10.3273 249.263 9.07973 250.468 9.07973C251.49 9.07973 251.987 9.84888 251.987 10.7728C251.987 11.8045 251.331 13.3428 250.993 14.7686C250.712 15.9645 251.594 16.9401 252.771 16.9401C254.905 16.9401 256.546 14.6889 256.546 11.4435C256.546 8.56852 254.483 6.55655 251.533 6.55655C248.118 6.55655 246.111 9.11725 246.111 11.767C246.111 12.7989 246.51 13.9056 247.007 14.506C247.105 14.6232 247.119 14.7311 247.091 14.8483C247.002 15.2282 246.796 16.0443 246.758 16.2084C246.707 16.4289 246.585 16.4758 246.355 16.3679C244.854 15.6691 243.916 13.4789 243.916 11.7155C243.916 7.92601 246.669 4.45076 251.847 4.45076C256.011 4.45076 259.248 7.41949 259.248 11.3872C259.248 15.5237 256.64 18.8536 253.019 18.8536C251.805 18.8536 250.66 18.2204 250.266 17.4747C250.266 17.4747 249.666 19.7681 249.521 20.3309C249.249 21.372 248.517 22.6806 248.029 23.4778C249.155 23.8249 250.346 24.0125 251.584 24.0125C258.216 24.0125 263.59 18.6378 263.59 12.0063C263.59 5.37468 258.216 0 251.584 0Z" fill="#8E59CF"/>
</g>
<defs>
<clipPath id="clip0_6_6354">
<rect width="24" height="24" fill="white" transform="scale(1.00052)"/>
</clipPath>
<clipPath id="clip1_6_6354">
<rect width="24" height="24" fill="white" transform="translate(47.9156) scale(1.00052)"/>
</clipPath>
<clipPath id="clip2_6_6354">
<rect width="24" height="24" fill="white" transform="translate(95.8312) scale(1.00052)"/>
</clipPath>
<clipPath id="clip3_6_6354">
<rect width="24" height="24" fill="white" transform="translate(143.747) scale(1.00052)"/>
</clipPath>
<clipPath id="clip4_6_6354">
<rect width="24" height="24" fill="white" transform="translate(191.662) scale(1.00052)"/>
</clipPath>
<clipPath id="clip5_6_6354">
<rect width="24" height="24" fill="white" transform="translate(239.578) scale(1.00052)"/>
</clipPath>
</defs>
</svg>
