<svg width="20" height="20" viewBox="0 0 20 20" fill="none" xmlns="http://www.w3.org/2000/svg">
<path fill-rule="evenodd" clip-rule="evenodd" d="M16.668 9.99869C16.668 13.1051 14.5434 15.7153 11.668 16.4553V18.1653C15.4717 17.3932 18.3346 14.0303 18.3346 9.99869C18.3346 5.96707 15.4717 2.60415 11.668 1.83203V3.54203C14.5434 4.28211 16.668 6.89227 16.668 9.99869ZM15.0013 9.99869C15.0013 7.82164 13.61 5.96957 11.668 5.28318V7.11128C12.6643 7.68762 13.3346 8.76486 13.3346 9.99869C13.3346 11.2324 12.6643 12.3097 11.668 12.886V14.7142C13.61 14.0278 15.0013 12.1757 15.0013 9.99869ZM5.48946 6.66866H3.33464C2.41416 6.66866 1.66797 7.41485 1.66797 8.33536V11.6687C1.66797 12.5891 2.41416 13.3354 3.33464 13.3354H5.48946L8.57872 17.2579C9.10372 17.7829 10.0013 17.4111 10.0013 16.6687V3.33532C10.0013 2.5929 9.10372 2.2211 8.57872 2.74606L5.48946 6.66866Z" fill="white"/>
</svg>
