<svg width="24" height="25" viewBox="0 0 24 25" fill="none" xmlns="http://www.w3.org/2000/svg">
<path d="M11.9538 13.5704L10.1078 11.1892C10.1878 11.271 10.2831 11.3362 10.3884 11.3812C10.4936 11.4262 10.6066 11.45 10.721 11.4513C10.8354 11.4526 10.949 11.4313 11.0552 11.3887C11.1614 11.3461 11.2582 11.283 11.34 11.203C11.4218 11.123 11.4871 11.0277 11.532 10.9225C11.577 10.8172 11.6008 10.7042 11.6021 10.5898C11.6034 10.4754 11.5821 10.3618 11.5395 10.2556C11.4969 10.1494 11.4338 10.0526 11.3538 9.97083L8.88025 7.0173C9.73862 7.86644 10.9016 6.68503 10.0432 5.72513L7.34811 2.85467C7.26177 2.76246 7.15743 2.68894 7.04153 2.63869C6.92564 2.58843 6.80066 2.5625 6.67433 2.5625C6.54801 2.5625 6.42303 2.58843 6.30714 2.63869C6.19124 2.68894 6.0869 2.76246 6.00056 2.85467L3.30547 5.72513C2.4471 6.64811 3.61005 7.86644 4.46842 7.0173L2.0133 9.97083C1.85174 10.1361 1.76243 10.3587 1.76503 10.5898C1.76762 10.8209 1.86191 11.0414 2.02714 11.203C2.19237 11.3646 2.41502 11.4539 2.6461 11.4513C2.87717 11.4487 3.09776 11.3544 3.25932 11.1892L1.41336 13.5704C1.29059 13.6913 1.20656 13.8459 1.17197 14.0146C1.13738 14.1833 1.1538 14.3586 1.21913 14.5179C1.28446 14.6773 1.39575 14.8136 1.53883 14.9095C1.6819 15.0054 1.85028 15.0566 2.02253 15.0564H11.3446C11.5168 15.0566 11.6852 15.0054 11.8283 14.9095C11.9714 14.8136 12.0827 14.6773 12.148 14.5179C12.2133 14.3586 12.2297 14.1833 12.1952 14.0146C12.1606 13.8459 12.0765 13.6913 11.9538 13.5704Z" stroke="#767676" stroke-width="1.15" stroke-linecap="round" stroke-linejoin="round"/>
<path d="M21.6803 11.809L19.5852 9.04004C20.3143 9.85227 21.1912 8.67085 20.582 7.82171L18.4868 5.05278C18.4009 4.93815 18.2894 4.84511 18.1612 4.78103C18.0331 4.71695 17.8917 4.68359 17.7485 4.68359C17.6052 4.68359 17.4639 4.71695 17.3357 4.78103C17.2075 4.84511 17.0961 4.93815 17.0101 5.05278L14.9241 7.78479C14.315 8.63393 15.1826 9.81535 15.9117 9.00313L13.8258 11.7721C13.7277 11.8818 13.6595 12.015 13.6277 12.1587C13.5959 12.3024 13.6016 12.4519 13.6442 12.5928C13.6869 12.7336 13.765 12.8612 13.8712 12.9632C13.9773 13.0651 14.1079 13.1381 14.2504 13.175H21.2465C21.3832 13.1364 21.5082 13.0644 21.6103 12.9656C21.7123 12.8668 21.7882 12.7442 21.8312 12.6088C21.8742 12.4734 21.8829 12.3295 21.8566 12.1899C21.8303 12.0503 21.7697 11.9194 21.6803 11.809Z" stroke="#767676" stroke-width="1.15" stroke-linecap="round" stroke-linejoin="round"/>
<path d="M6.67383 15.0586V18.8613" stroke="#767676" stroke-width="1.15" stroke-linecap="round" stroke-linejoin="round"/>
<path d="M17.748 13.2109V16.0168" stroke="#767676" stroke-width="1.15" stroke-linecap="round" stroke-linejoin="round"/>
<path d="M1.13477 19.1912C3.53526 18.6042 6.04045 18.5926 8.4463 19.1571C10.8521 19.7217 13.0906 20.8466 14.9794 22.4401" stroke="#767676" stroke-width="1.15" stroke-linecap="round" stroke-linejoin="round"/>
<path d="M11.3516 18.0397C12.9795 17.0326 14.7985 16.374 16.6937 16.1056C18.5889 15.8371 20.5193 15.9645 22.3628 16.4799" stroke="#767676" stroke-width="1.15" stroke-linecap="round" stroke-linejoin="round"/>
</svg>
