<svg width="9" height="9" viewBox="0 0 9 9" fill="none" xmlns="http://www.w3.org/2000/svg">
<path d="M8.99994 2.21406C8.99994 2.36406 8.96244 2.51406 8.84994 2.58906L4.94994 7.20156C4.83744 7.35156 4.64994 7.42656 4.49994 7.42656C4.34994 7.42656 4.16244 7.35156 4.04994 7.20156L0.149936 2.58906C-0.0750635 2.28906 -0.0375635 1.91406 0.224937 1.68906C0.374937 1.57656 0.487437 1.53906 0.637437 1.53906C0.787437 1.53906 0.974936 1.61406 1.04994 1.76406L4.49994 5.81406L7.91244 1.80156C8.02494 1.68906 8.17494 1.57656 8.32494 1.57656C8.47494 1.57656 8.66244 1.61406 8.77494 1.72656C8.92494 1.87656 8.99994 2.02656 8.99994 2.21406Z" fill="#484848"/>
</svg>
