<svg width="18" height="17" viewBox="0 0 18 17" fill="none" xmlns="http://www.w3.org/2000/svg">
<path d="M11.4854 3.89854C11.4854 3.33892 11.2097 2.82107 10.742 2.51202L7.40099 0.281898C6.84137 -0.0939659 6.10635 -0.0939659 5.54673 0.281898L2.20572 2.51202C1.74633 2.82107 1.46234 3.33892 1.46234 3.89854V8.64278C1.46234 8.87665 1.6461 9.0604 1.87997 9.0604H11.0677C11.3016 9.0604 11.4854 8.87665 11.4854 8.64278V3.89854ZM6.47386 6.97227C5.67202 6.97227 5.01217 6.31242 5.01217 5.51058C5.01217 4.70874 5.67202 4.04889 6.47386 4.04889C7.2757 4.04889 7.93555 4.70874 7.93555 5.51058C7.93555 6.31242 7.2757 6.97227 6.47386 6.97227Z" fill="#777778"/>
<path d="M17.3315 15.7409H16.2707V13.2351C17.0642 12.9762 17.6405 12.2328 17.6405 11.3558V9.68528C17.6405 8.59109 16.7468 7.69737 15.6526 7.69737C14.5585 7.69737 13.6647 8.59109 13.6647 9.68528V11.3558C13.6647 12.2244 14.2327 12.9595 15.0095 13.2267V15.7409H11.4847V10.7293C11.4847 10.4955 11.301 10.3117 11.0671 10.3117H1.87932C1.64545 10.3117 1.46169 10.4955 1.46169 10.7293V15.7409H0.626439C0.283986 15.7409 0 16.0248 0 16.3673C0 16.7097 0.283986 16.9937 0.626439 16.9937H15.6025C15.6192 16.9937 15.6276 17.0021 15.6443 17.0021C15.661 17.0021 15.6693 16.9937 15.686 16.9937H17.3315C17.6739 16.9937 17.9579 16.7097 17.9579 16.3673C17.9579 16.0248 17.6739 15.7409 17.3315 15.7409ZM5.84677 13.2351C5.84677 12.8926 6.13075 12.6087 6.47321 12.6087C6.81566 12.6087 7.09965 12.8926 7.09965 13.2351V15.7409H5.84677V13.2351Z" fill="#777778"/>
</svg>
