<svg width="48" height="48" viewBox="0 0 48 48" fill="none" xmlns="http://www.w3.org/2000/svg">
<path d="M33.2986 34.0025C33.1186 34.0025 32.9386 33.9325 32.8086 33.8025L30.9486 31.9425C30.6786 31.6725 30.6786 31.2325 30.9486 30.9525C31.2186 30.6825 31.6586 30.6825 31.9386 30.9525L33.7986 32.8125C34.0686 33.0825 34.0686 33.5225 33.7986 33.8025C33.6586 33.9325 33.4786 34.0025 33.2986 34.0025Z" fill="white"/>
<path d="M14.75 23.5C14.75 18.6742 18.6742 14.75 23.5 14.75C28.3258 14.75 32.25 18.6742 32.25 23.5C32.25 28.3258 28.3258 32.25 23.5 32.25C18.6742 32.25 14.75 28.3258 14.75 23.5Z" stroke="white" stroke-width="1.5"/>
<rect x="0.5" y="0.5" width="47" height="47" rx="11.5" stroke="white" stroke-opacity="0.1"/>
</svg>
