<svg width="10" height="10" viewBox="0 0 10 10" fill="none" xmlns="http://www.w3.org/2000/svg">
<path d="M9.88864 1.20536C9.96288 1.27976 10 1.36905 10 1.47321C10 1.57738 9.96288 1.66667 9.88864 1.74107L6.90423 4.73214C6.82999 4.80655 6.79287 4.89583 6.79287 5C6.79287 5.10417 6.82999 5.19345 6.90423 5.26786L9.86637 8.25893C9.95546 8.33333 10 8.42262 10 8.52679C10 8.63095 9.95546 8.72024 9.86637 8.79464L8.79733 9.88839C8.72309 9.9628 8.63029 10 8.51893 10C8.40757 10 8.31477 9.9628 8.24053 9.88839L5.2784 6.89732C5.20416 6.82292 5.11136 6.78571 5 6.78571C4.88864 6.78571 4.79584 6.82292 4.7216 6.89732L1.73719 9.88839C1.66295 9.9628 1.57387 10 1.46993 10C1.366 10 1.27691 9.9628 1.20267 9.88839L0.111359 8.79464C0.037119 8.72024 0 8.63095 0 8.52679C0 8.42262 0.037119 8.33333 0.111359 8.25893L3.09577 5.26786C3.17001 5.19345 3.20713 5.10417 3.20713 5C3.20713 4.89583 3.17001 4.80655 3.09577 4.73214L0.111359 1.74107C0.037119 1.66667 0 1.57366 0 1.46205C0 1.35045 0.037119 1.25744 0.111359 1.18304L1.20267 0.111607C1.27691 0.037202 1.36971 0 1.48107 0C1.59243 0 1.68523 0.037202 1.75946 0.111607L4.7216 3.10268C4.79584 3.17708 4.88864 3.21429 5 3.21429C5.11136 3.21429 5.20416 3.17708 5.2784 3.10268L8.26281 0.111607C8.33705 0.037202 8.42613 0 8.53007 0C8.634 0 8.72309 0.037202 8.79733 0.111607L9.88864 1.20536Z" fill="#999999"/>
</svg>
