<svg width="12" height="14" viewBox="0 0 12 14" fill="none" xmlns="http://www.w3.org/2000/svg">
<path d="M11.831 4.52959C11.1211 1.4062 8.39663 0 6.00338 0C6.00338 0 6.00338 0 5.99662 0C3.61014 0 0.878861 1.39944 0.169 4.52283C-0.621988 8.01129 1.51436 10.9657 3.44788 12.8248C4.1645 13.5144 5.08394 13.8592 6.00338 13.8592C6.92282 13.8592 7.84226 13.5144 8.55212 12.8248C10.4857 10.9657 12.622 8.01805 11.831 4.52959ZM6.00338 7.91664C4.82704 7.91664 3.8738 6.9634 3.8738 5.78706C3.8738 4.61072 4.82704 3.65748 6.00338 3.65748C7.17973 3.65748 8.13297 4.61072 8.13297 5.78706C8.13297 6.9634 7.17973 7.91664 6.00338 7.91664Z" fill="#192252"/>
</svg>
