<svg width="30" height="30" viewBox="0 0 30 30" fill="none" xmlns="http://www.w3.org/2000/svg">
<g clip-path="url(#clip0_47_45358)">
<path d="M7.59399 22.9674C8.15649 27.2799 19.3127 23.8112 17.344 25.5924C14.6252 28.1237 11.2502 29.7174 11.2502 29.7174C10.8752 29.9049 9.37524 29.0612 8.25024 27.9362C6.84399 26.5299 5.53149 25.0299 5.81274 24.6549C5.81274 24.6549 7.50024 22.5924 7.59399 22.9674Z" fill="#72143F"/>
<path d="M14.0625 15.1875C14.0625 15.1875 10.4062 15.4688 8.8125 13.2188C8.4375 12.5625 7.78125 11.9062 7.78125 11.1562C7.875 10.875 7.96875 10.5 7.875 10.0312C7.6875 8.8125 6.09375 8.15625 5.0625 8.0625C4.3125 8.15625 3.75 8.625 3.65625 9.28125C3.5625 9.375 3.5625 9.5625 3.5625 9.84375V10.3125C3.9375 12.9375 5.0625 17.25 8.4375 20.1562C14.625 25.2188 14.0625 15.1875 14.0625 15.1875Z" fill="#962050"/>
<path d="M12.4688 16.125C12.4688 16.125 9.1875 15.5625 7.5 13.9688C7.125 13.5938 6.75 12.2813 6.75 11.8125C6.84375 11.625 6.84375 11.3438 6.84375 11.0625C6.75 10.3125 6.09375 9.5625 5.34375 9.5625C4.875 9.5625 4.5 9.84375 4.40625 10.3125C4.3125 10.4063 4.3125 10.5 4.40625 10.6875V11.0625C4.6875 12.8438 5.71875 17.7188 10.9687 21C15.5625 23.7188 12.4688 16.125 12.4688 16.125Z" fill="#DB529D"/>
<path d="M6.9375 23.4358C6.9375 23.4358 11.3438 18.7483 12.6562 7.59205C13.0312 4.02955 17.4375 -0.564205 22.3125 1.6858C27.5625 4.1233 28.5 11.8108 26.1562 15.092C21 22.4045 15.8438 28.6858 11.625 28.217L6.9375 23.4358Z" fill="#72143F"/>
<path d="M7.21875 24.5622C7.21875 24.5622 12.4688 18.7497 13.7812 7.49971C14.1562 4.78096 17.8125 0.937205 21.5625 2.62471C25.5 4.49971 26.8125 11.0622 25.0312 13.6872C21.1875 19.5935 14.25 28.8747 11.0625 28.4997L7.21875 24.5622Z" fill="#F45BA7"/>
<path d="M7.87505 23.8129C10.0313 27.5629 13.4063 27.6567 13.4063 27.6567L11.0625 28.7817C10.7813 28.9692 9.37505 28.3129 8.43755 27.3754C7.31255 26.2504 6.6563 25.2192 6.8438 24.8442C6.93755 24.8442 7.68755 23.5317 7.87505 23.8129Z" fill="#D6D6D6"/>
<path d="M21.0937 10.4052C21.0937 10.4052 22.4062 5.43648 23.8124 6.18648C25.3124 6.93648 26.6249 10.499 25.4999 13.124C24.3749 15.6552 15.9374 27.1865 12.4687 28.0302C12.4687 28.0302 11.8124 27.749 13.5937 25.6865C15.5624 23.4365 20.9062 14.1552 21.0937 10.4052Z" fill="#D15298"/>
<path d="M23.9998 15.4707C23.9998 15.4707 20.7186 14.627 20.4373 15.1895C20.1561 15.752 21.1873 16.7832 21.2811 17.4395C21.2811 18.002 20.6248 19.6895 20.6248 19.6895L23.9998 15.4707ZM19.6873 20.9082C19.6873 20.9082 14.3436 16.5957 18.6561 22.0332L19.6873 20.9082ZM18.0936 22.5957C18.0936 22.5957 12.8436 18.377 17.1561 23.7207L18.0936 22.5957ZM16.5936 24.2832C16.5936 24.2832 11.5311 20.1582 15.7498 25.3145L16.5936 24.2832ZM15.0936 25.877C15.0936 25.877 10.1248 21.8457 14.2498 26.9082L15.0936 25.877Z" fill="#C44B8E"/>
<path d="M6.65644 11.436C6.75019 12.186 6.37519 12.6548 5.90644 12.6548C5.34394 12.6548 4.87519 11.9985 4.78144 11.3423C4.68769 10.5923 4.96894 10.0298 5.53144 10.1235C6.00019 10.1235 6.56269 10.686 6.65644 11.436Z" fill="#F45BA7"/>
<path d="M23.4787 9.29537C24.1518 8.12957 23.2071 6.32405 21.3687 5.26262C19.5303 4.2012 17.4944 4.28582 16.8213 5.45162C16.1482 6.61743 17.0928 8.42295 18.9312 9.48438C20.7696 10.5458 22.8056 10.4612 23.4787 9.29537Z" fill="#FF7BCA"/>
<path d="M24.3291 10.0904C25.5459 7.98302 24.4603 5.07838 21.9045 3.60275C19.3487 2.12711 16.2905 2.63927 15.0737 4.74669C13.857 6.8541 14.9425 9.75874 17.4983 11.2344C20.0541 12.71 23.1124 12.1979 24.3291 10.0904Z" fill="#FF7BCA"/>
<path d="M23.0014 7.38597C23.3379 6.80307 22.484 5.67994 21.094 4.87741C19.704 4.07487 18.3043 3.89682 17.9678 4.47972C17.6312 5.06262 18.4852 6.18574 19.8752 6.98828C21.2652 7.79082 22.6648 7.96887 23.0014 7.38597Z" fill="#FFAEE2"/>
<path d="M5.53125 14.8125C5.53125 14.8125 6.9375 17.0625 9.1875 17.625L8.71875 19.2188C8.71875 19.2188 6.1875 16.7812 5.53125 14.8125Z" fill="#C44B8E"/>
<path d="M10.4998 27.8438L11.6248 27.375L13.2186 27.8438L11.1561 28.875C11.1561 28.875 9.46856 28.5938 10.4998 27.8438Z" fill="#AFA1A7"/>
<path d="M4.6875 14.3438C4.6875 14.3438 7.40625 19.125 9.84375 19.875L9.09375 20.8125C9.09375 20.8125 5.625 18.6562 4.6875 14.3438Z" fill="#72143F"/>
<path d="M8.2501 18.0937L10.1251 15.4688L10.7814 15.6563C10.7814 15.6563 9.65635 19.0312 9.1876 19.6875C9.28135 19.6875 7.59385 19.125 8.2501 18.0937Z" fill="#C44B8E"/>
</g>
<defs>
<clipPath id="clip0_47_45358">
<rect width="30" height="30" fill="white"/>
</clipPath>
</defs>
</svg>
