<svg width="15" height="20" viewBox="0 0 15 20" fill="none" xmlns="http://www.w3.org/2000/svg">
<path d="M7.03906 0C4.41906 0 2.28906 2.13 2.28906 4.75C2.28906 7.32 4.29906 9.4 6.91906 9.49C6.99906 9.48 7.07906 9.48 7.13906 9.49C7.15906 9.49 7.16906 9.49 7.18906 9.49C7.19906 9.49 7.19906 9.49 7.20906 9.49C9.76906 9.4 11.7791 7.32 11.7891 4.75C11.7891 2.13 9.65906 0 7.03906 0Z" fill="white"/>
<path d="M12.12 12.1528C9.33 10.2928 4.78 10.2928 1.97 12.1528C0.7 13.0028 0 14.1528 0 15.3828C0 16.6128 0.7 17.7528 1.96 18.5928C3.36 19.5328 5.2 20.0028 7.04 20.0028C8.88 20.0028 10.72 19.5328 12.12 18.5928C13.38 17.7428 14.08 16.6028 14.08 15.3628C14.07 14.1328 13.38 12.9928 12.12 12.1528Z" fill="white"/>
</svg>
