<svg width="30" height="30" viewBox="0 0 30 30" fill="none" xmlns="http://www.w3.org/2000/svg">
<g clip-path="url(#clip0_47_54616)">
<path d="M19.9873 19.2461H0.674805V24.0555H19.9873V19.2461Z" fill="#683C2F"/>
<path d="M19.9873 19.1914H0.674805V21.1977H19.9873V19.1914Z" fill="#683C2F"/>
<path d="M10.3311 25.1719C15.6641 25.1719 19.9873 23.2201 19.9873 20.8125C19.9873 18.4049 15.6641 16.4531 10.3311 16.4531C4.99806 16.4531 0.674805 18.4049 0.674805 20.8125C0.674805 23.2201 4.99806 25.1719 10.3311 25.1719Z" fill="#683C2F"/>
<path d="M10.3311 27.8438C15.6641 27.8438 19.9873 25.892 19.9873 23.4844C19.9873 21.0768 15.6641 19.125 10.3311 19.125C4.99806 19.125 0.674805 21.0768 0.674805 23.4844C0.674805 25.892 4.99806 27.8438 10.3311 27.8438Z" fill="#683C2F"/>
<path d="M10.3313 26.5781C15.2604 26.5781 19.2563 24.6264 19.2563 22.2188C19.2563 19.8111 15.2604 17.8594 10.3313 17.8594C5.40211 17.8594 1.40625 19.8111 1.40625 22.2188C1.40625 24.6264 5.40211 26.5781 10.3313 26.5781Z" fill="#F05922"/>
<path d="M8.95312 24.6562V26.5312C9.79423 26.7338 10.6714 26.7338 11.5125 26.5312V24.6562H8.95312Z" fill="#EFB9AC"/>
<path d="M3.81543 22.6875V24.5156C4.56687 24.9335 5.37089 25.2488 6.20605 25.4531V22.6875H3.81543Z" fill="white"/>
<path d="M17.0154 22.5V24.5062C16.2094 24.9912 15.3288 25.3396 14.4092 25.5375V22.5H17.0154Z" fill="white"/>
<path d="M10.3311 24.2812C15.6641 24.2812 19.9873 22.3295 19.9873 19.9219C19.9873 17.5143 15.6641 15.5625 10.3311 15.5625C4.99806 15.5625 0.674805 17.5143 0.674805 19.9219C0.674805 22.3295 4.99806 24.2812 10.3311 24.2812Z" fill="#683C2F"/>
<path d="M10.3311 23.5508C15.6641 23.5508 19.9873 21.599 19.9873 19.1914C19.9873 16.7838 15.6641 14.832 10.3311 14.832C4.99806 14.832 0.674805 16.7838 0.674805 19.1914C0.674805 21.599 4.99806 23.5508 10.3311 23.5508Z" fill="#683C2F"/>
<path d="M10.3312 24.0559C15.3846 24.0559 19.4812 22.2048 19.4812 19.9215C19.4812 17.6381 15.3846 15.7871 10.3312 15.7871C5.27775 15.7871 1.18115 17.6381 1.18115 19.9215C1.18115 22.2048 5.27775 24.0559 10.3312 24.0559Z" fill="#F05922"/>
<path d="M10.3314 22.7344C13.7694 22.7344 16.5564 21.4752 16.5564 19.9219C16.5564 18.3686 13.7694 17.1094 10.3314 17.1094C6.89347 17.1094 4.10645 18.3686 4.10645 19.9219C4.10645 21.4752 6.89347 22.7344 10.3314 22.7344Z" fill="white"/>
<path d="M11.9719 16.1914L8.4375 16.2758V23.6727" fill="white"/>
<path d="M18.478 19.1352H11.9718V16.1914L8.4374 16.2758V19.1352H1.93115L2.10928 20.7289H8.4374V23.6727H11.9718V20.7289H18.478V19.1352Z" fill="white"/>
<path d="M12.2532 23.793H8.15635V20.8586H1.8751L1.67822 18.9836H8.24072V16.1523L12.3376 16.0586V19.0117H18.7501V20.8867H12.2532V23.793ZM8.71885 23.5398H11.6907V20.6242H18.197V19.2555H11.6907V16.3305L8.71885 16.3961V19.2555H2.22197L2.37197 20.6242H8.71885V23.5398Z" fill="#F05922"/>
<path d="M14.803 16.7246L10.1999 18.8059L5.60615 16.7246L3.2249 17.9059L7.70615 19.9309L3.10303 22.0121L5.72803 23.0809L10.1999 21.0559L14.803 23.1371L17.3062 22.0121L12.703 19.9309L17.3062 17.8496L14.803 16.7246Z" fill="white"/>
<path d="M10.3127 23.8215C5.5502 23.8215 1.66895 22.0777 1.66895 19.9215C1.66895 17.7652 5.56895 16.0215 10.3127 16.0215C15.0564 16.0215 18.9471 17.7746 18.9471 19.9215C18.9471 22.0684 15.0939 23.8215 10.3127 23.8215ZM10.3127 16.3684C5.97207 16.3684 2.4377 17.9621 2.4377 19.9215C2.4377 21.8809 5.97207 23.484 10.3127 23.484C14.6533 23.484 18.1783 21.8809 18.1783 19.9215C18.1783 17.9621 14.6721 16.3684 10.3127 16.3684Z" fill="#F05922"/>
<path d="M10.3313 22.7723C13.8159 22.7723 16.6407 21.4963 16.6407 19.9223C16.6407 18.3483 13.8159 17.0723 10.3313 17.0723C6.84678 17.0723 4.02197 18.3483 4.02197 19.9223C4.02197 21.4963 6.84678 22.7723 10.3313 22.7723Z" fill="white"/>
<path d="M10.3127 23.025C6.5627 23.025 3.4502 21.6375 3.4502 19.9219C3.4502 18.2062 6.5627 16.875 10.3127 16.875C14.0627 16.875 17.1752 18.2625 17.1752 19.9687C17.1752 21.675 14.1096 23.025 10.3127 23.025ZM10.3127 17.325C7.14394 17.325 4.56582 18.4969 4.56582 19.9219C4.56582 21.3469 7.1627 22.5 10.3127 22.5C13.4627 22.5 16.0596 21.3375 16.0596 19.9031C16.0596 18.4687 13.5002 17.325 10.3127 17.325Z" fill="#F05922"/>
<path d="M13.7156 19.5656C12.7781 19.0031 10.3312 17.9531 10.3312 17.9531C10.3312 17.9531 7.88433 19.0031 6.94683 19.5656C6.00933 20.1281 6.80621 21.0656 9.75933 21.1594C9.70308 21.3469 9.44996 21.6375 8.37183 21.6375V21.8906H12.2437V21.6375C11.175 21.6375 10.9218 21.3469 10.8656 21.1594C13.8468 21.0656 14.5968 20.0906 13.7156 19.5656Z" fill="#F05922"/>
<path d="M19.9873 15.9746H0.674805V20.784H19.9873V15.9746Z" fill="#683C2F"/>
<path d="M19.9873 15.918H0.674805V17.9242H19.9873V15.918Z" fill="#683C2F"/>
<path d="M10.3311 21.9004C15.6641 21.9004 19.9873 19.9486 19.9873 17.541C19.9873 15.1334 15.6641 13.1816 10.3311 13.1816C4.99806 13.1816 0.674805 15.1334 0.674805 17.541C0.674805 19.9486 4.99806 21.9004 10.3311 21.9004Z" fill="#683C2F"/>
<path d="M10.3311 23.8594C15.6641 23.8594 19.9873 21.9076 19.9873 19.5C19.9873 17.0924 15.6641 15.1406 10.3311 15.1406C4.99806 15.1406 0.674805 17.0924 0.674805 19.5C0.674805 21.9076 4.99806 23.8594 10.3311 23.8594Z" fill="#683C2F"/>
<path d="M10.3313 23.3066C15.2604 23.3066 19.2563 21.3549 19.2563 18.9473C19.2563 16.5396 15.2604 14.5879 10.3313 14.5879C5.40211 14.5879 1.40625 16.5396 1.40625 18.9473C1.40625 21.3549 5.40211 23.3066 10.3313 23.3066Z" fill="#F05922"/>
<path d="M8.95312 21.3848V23.2598C9.79492 23.4564 10.6707 23.4564 11.5125 23.2598V21.3848H8.95312Z" fill="#EFB9AC"/>
<path d="M3.81543 19.4062V21.2812C4.56687 21.6991 5.37089 22.0144 6.20605 22.2188V19.4062H3.81543Z" fill="white"/>
<path d="M17.0154 19.2656V21.2719C16.2094 21.7568 15.3288 22.1052 14.4092 22.3031V19.2656H17.0154Z" fill="white"/>
<path d="M10.3311 21.6465C15.6641 21.6465 19.9873 19.6947 19.9873 17.2871C19.9873 14.8795 15.6641 12.9277 10.3311 12.9277C4.99806 12.9277 0.674805 14.8795 0.674805 17.2871C0.674805 19.6947 4.99806 21.6465 10.3311 21.6465Z" fill="#683C2F"/>
<path d="M10.3311 20.2773C15.6641 20.2773 19.9873 18.3256 19.9873 15.918C19.9873 13.5104 15.6641 11.5586 10.3311 11.5586C4.99806 11.5586 0.674805 13.5104 0.674805 15.918C0.674805 18.3256 4.99806 20.2773 10.3311 20.2773Z" fill="#683C2F"/>
<path d="M10.3312 20.7844C15.3846 20.7844 19.4812 18.9334 19.4812 16.65C19.4812 14.3666 15.3846 12.5156 10.3312 12.5156C5.27775 12.5156 1.18115 14.3666 1.18115 16.65C1.18115 18.9334 5.27775 20.7844 10.3312 20.7844Z" fill="#F05922"/>
<path d="M10.3314 19.4629C13.7694 19.4629 16.5564 18.2037 16.5564 16.6504C16.5564 15.0971 13.7694 13.8379 10.3314 13.8379C6.89347 13.8379 4.10645 15.0971 4.10645 16.6504C4.10645 18.2037 6.89347 19.4629 10.3314 19.4629Z" fill="white"/>
<path d="M11.9719 12.918L8.4375 13.0023V20.3992" fill="white"/>
<path d="M18.478 15.8617H11.9718V12.918L8.4374 13.0023V15.8617H1.93115L2.10928 17.4555H8.4374V20.3992H11.9718V17.4555H18.478V15.8617Z" fill="white"/>
<path d="M12.2532 20.5219H8.15635V17.5781H1.8751L1.67822 15.7031H8.24072V12.8906L12.3376 12.7969V15.7406H18.7501V17.6156H12.2532V20.5219ZM8.71885 20.2688H11.6907V17.3344H18.197V15.9844H11.6907V13.05L8.71885 13.125V15.9937H2.22197L2.37197 17.3438H8.71885V20.2688Z" fill="#F05922"/>
<path d="M14.803 13.4531L10.1999 15.5344L5.60615 13.4531L3.2249 14.6344L7.70615 16.6594L3.10303 18.7406L5.72803 19.8094L10.1999 17.7844L14.803 19.8656L17.3062 18.7406L12.703 16.6594L17.3062 14.5781L14.803 13.4531Z" fill="white"/>
<path d="M10.3127 20.55C5.5502 20.55 1.66895 18.8062 1.66895 16.65C1.66895 14.4937 5.56895 12.75 10.3127 12.75C15.0564 12.75 18.9471 14.5031 18.9471 16.65C18.9471 18.7969 15.0939 20.55 10.3127 20.55ZM10.3127 13.05C5.97207 13.05 2.4377 14.6437 2.4377 16.6031C2.4377 18.5625 5.97207 20.1562 10.3127 20.1562C14.6533 20.1562 18.1783 18.5625 18.1783 16.6031C18.1783 14.6437 14.6721 13.125 10.3127 13.125V13.05Z" fill="#F05922"/>
<path d="M10.3313 19.5008C13.8159 19.5008 16.6407 18.2248 16.6407 16.6508C16.6407 15.0768 13.8159 13.8008 10.3313 13.8008C6.84678 13.8008 4.02197 15.0768 4.02197 16.6508C4.02197 18.2248 6.84678 19.5008 10.3313 19.5008Z" fill="white"/>
<path d="M10.3127 19.7531C6.5627 19.7531 3.4502 18.3563 3.4502 16.65C3.4502 14.9438 6.5627 13.5469 10.3127 13.5469C14.0627 13.5469 17.1752 14.9438 17.1752 16.65C17.1752 18.3563 14.1096 19.7531 10.3127 19.7531ZM10.3127 14.0625C7.14394 14.0625 4.56582 15.225 4.56582 16.6594C4.56582 18.0938 7.1627 19.2469 10.3127 19.2469C13.4627 19.2469 16.0596 18.0844 16.0596 16.65C16.0596 15.2156 13.5002 14.0625 10.3127 14.0625Z" fill="#F05922"/>
<path d="M13.7156 16.2848C12.7781 15.7316 10.3312 14.6816 10.3312 14.6816C10.3312 14.6816 7.88433 15.7316 6.94683 16.2848C6.00933 16.8379 6.80621 17.7848 9.75933 17.8879C9.70308 18.0754 9.44996 18.366 8.37183 18.366V18.6191H12.2437V18.366C11.175 18.366 10.9218 18.0754 10.8656 17.8879C13.8468 17.8129 14.5968 16.8191 13.7156 16.2848Z" fill="#F05922"/>
<path d="M19.9873 13.2559H0.674805V18.0652H19.9873V13.2559Z" fill="#683C2F"/>
<path d="M19.9873 13.1992H0.674805V15.2055H19.9873V13.1992Z" fill="#683C2F"/>
<path d="M10.3311 19.1816C15.6641 19.1816 19.9873 17.2299 19.9873 14.8223C19.9873 12.4146 15.6641 10.4629 10.3311 10.4629C4.99806 10.4629 0.674805 12.4146 0.674805 14.8223C0.674805 17.2299 4.99806 19.1816 10.3311 19.1816Z" fill="#683C2F"/>
<path d="M10.3311 21.2813C15.6641 21.2813 19.9873 19.3295 19.9873 16.9219C19.9873 14.5143 15.6641 12.5625 10.3311 12.5625C4.99806 12.5625 0.674805 14.5143 0.674805 16.9219C0.674805 19.3295 4.99806 21.2813 10.3311 21.2813Z" fill="#A0432D"/>
<path d="M10.3313 20.5879C15.2604 20.5879 19.2563 18.6361 19.2563 16.2285C19.2563 13.8209 15.2604 11.8691 10.3313 11.8691C5.40211 11.8691 1.40625 13.8209 1.40625 16.2285C1.40625 18.6361 5.40211 20.5879 10.3313 20.5879Z" fill="#F05922"/>
<path d="M8.95312 18.666V20.4941C9.79423 20.6967 10.6714 20.6967 11.5125 20.4941V18.6191L8.95312 18.666Z" fill="#EFB9AC"/>
<path d="M3.81543 16.6875V18.5625C4.56687 18.9803 5.37089 19.2956 6.20605 19.5V16.6875H3.81543Z" fill="white"/>
<path d="M17.0154 16.5469V18.5531C16.2077 19.0325 15.3275 19.3776 14.4092 19.575V16.5469H17.0154Z" fill="white"/>
<path d="M10.3311 18.918C15.6641 18.918 19.9873 16.9662 19.9873 14.5586C19.9873 12.151 15.6641 10.1992 10.3311 10.1992C4.99806 10.1992 0.674805 12.151 0.674805 14.5586C0.674805 16.9662 4.99806 18.918 10.3311 18.918Z" fill="#A0432D"/>
<path d="M10.3311 17.5586C15.6641 17.5586 19.9873 15.6068 19.9873 13.1992C19.9873 10.7916 15.6641 8.83984 10.3311 8.83984C4.99806 8.83984 0.674805 10.7916 0.674805 13.1992C0.674805 15.6068 4.99806 17.5586 10.3311 17.5586Z" fill="#683C2F"/>
<path d="M10.3312 18.0656C15.3846 18.0656 19.4812 16.2146 19.4812 13.9312C19.4812 11.6479 15.3846 9.79688 10.3312 9.79688C5.27775 9.79688 1.18115 11.6479 1.18115 13.9312C1.18115 16.2146 5.27775 18.0656 10.3312 18.0656Z" fill="#F05922"/>
<path d="M10.3314 16.7441C13.7694 16.7441 16.5564 15.4849 16.5564 13.9316C16.5564 12.3783 13.7694 11.1191 10.3314 11.1191C6.89347 11.1191 4.10645 12.3783 4.10645 13.9316C4.10645 15.4849 6.89347 16.7441 10.3314 16.7441Z" fill="white"/>
<path d="M11.9719 10.1992L8.4375 10.2742V17.6805" fill="white"/>
<path d="M18.478 13.143H11.9718V10.1992L8.4374 10.2742V13.143H1.93115L2.10928 14.7367H8.4374V17.6805H11.9718V14.7367H18.478V13.143Z" fill="white"/>
<path d="M12.2532 17.8125H8.15635V14.8594H1.8751L1.67822 12.9844H8.24072V10.1719L12.3376 10.0781V13.0219H18.7501V14.8969H12.2532V17.8125ZM8.71885 17.55H11.6907V14.6062H18.197V13.2656H11.6907V10.3125L8.71885 10.3781V13.2469H2.22197L2.37197 14.5875H8.71885V17.55Z" fill="#F05922"/>
<path d="M14.803 10.7344L10.1999 12.8063L5.60615 10.7344L3.2249 11.9156L7.70615 13.9406L3.10303 16.0219L5.72803 17.0906L10.1999 15.0656L14.803 17.1469L17.3062 16.0219L12.703 13.9406L17.3062 11.8594L14.803 10.7344Z" fill="white"/>
<path d="M10.3125 17.8125C5.56875 17.8125 1.6875 16.0781 1.6875 13.9312C1.6875 11.7844 5.56875 10.0312 10.3125 10.0312C15.0562 10.0312 18.9469 11.775 18.9469 13.9312C18.9469 16.0875 15.0938 17.8125 10.3125 17.8125ZM10.3125 10.3594C5.97187 10.3594 2.4375 11.9531 2.4375 13.9125C2.4375 15.8719 5.97187 17.4656 10.3125 17.4656C14.6531 17.4656 18.1781 15.8719 18.1781 13.9125C18.1781 11.9531 14.6719 10.3781 10.3125 10.3781V10.3594Z" fill="#F05922"/>
<path d="M10.3313 16.782C13.8159 16.782 16.6407 15.506 16.6407 13.932C16.6407 12.358 13.8159 11.082 10.3313 11.082C6.84678 11.082 4.02197 12.358 4.02197 13.932C4.02197 15.506 6.84678 16.782 10.3313 16.782Z" fill="white"/>
<path d="M10.3127 17.0344C6.5627 17.0344 3.4502 15.6375 3.4502 13.9312C3.4502 12.225 6.5627 10.8281 10.3127 10.8281C14.0627 10.8281 17.1752 12.225 17.1752 13.9312C17.1752 15.6375 14.1096 17.0344 10.3127 17.0344ZM10.3127 11.3344C7.14394 11.3344 4.56582 12.4969 4.56582 13.9312C4.56582 15.3656 7.1627 16.5281 10.3127 16.5281C13.4627 16.5281 16.0596 15.3656 16.0596 13.9312C16.0596 12.4969 13.5002 11.3344 10.3127 11.3344Z" fill="#F05922"/>
<path d="M13.7156 13.566C12.7781 13.0129 10.3312 11.9629 10.3312 11.9629C10.3312 11.9629 7.88433 13.0129 6.94683 13.566C6.00933 14.1191 6.80621 15.066 9.75933 15.1691C9.70308 15.3566 9.44996 15.6473 8.37183 15.6473V15.9379H12.2437V15.6848C11.175 15.6848 10.9218 15.3941 10.8656 15.2066C13.8468 15.066 14.5968 14.0629 13.7156 13.566Z" fill="#F05922"/>
<path d="M19.9873 10.5371H0.674805V15.3465H19.9873V10.5371Z" fill="#683C2F"/>
<path d="M19.9873 10.4727H0.674805V12.4789H19.9873V10.4727Z" fill="#683C2F"/>
<path d="M10.3311 16.4629C15.6641 16.4629 19.9873 14.5111 19.9873 12.1035C19.9873 9.6959 15.6641 7.74414 10.3311 7.74414C4.99806 7.74414 0.674805 9.6959 0.674805 12.1035C0.674805 14.5111 4.99806 16.4629 10.3311 16.4629Z" fill="#683C2F"/>
<path d="M10.3311 18.4219C15.6641 18.4219 19.9873 16.4701 19.9873 14.0625C19.9873 11.6549 15.6641 9.70312 10.3311 9.70312C4.99806 9.70312 0.674805 11.6549 0.674805 14.0625C0.674805 16.4701 4.99806 18.4219 10.3311 18.4219Z" fill="#683C2F"/>
<path d="M10.3313 17.8691C15.2604 17.8691 19.2563 15.9174 19.2563 13.5098C19.2563 11.1021 15.2604 9.15039 10.3313 9.15039C5.40211 9.15039 1.40625 11.1021 1.40625 13.5098C1.40625 15.9174 5.40211 17.8691 10.3313 17.8691Z" fill="#F05922"/>
<path d="M8.95312 15.9375V17.8125C9.79423 18.0151 10.6714 18.0151 11.5125 17.8125V15.9375H8.95312Z" fill="white"/>
<path d="M3.81543 13.9688V15.8438C4.56553 16.2644 5.36995 16.5799 6.20605 16.7812V13.9688H3.81543Z" fill="white"/>
<path d="M17.0154 13.8281V15.8344C16.2089 16.3203 15.3286 16.6718 14.4092 16.875V13.8281H17.0154Z" fill="white"/>
<path d="M10.3311 16.1992C15.6641 16.1992 19.9873 14.2475 19.9873 11.8398C19.9873 9.43223 15.6641 7.48047 10.3311 7.48047C4.99806 7.48047 0.674805 9.43223 0.674805 11.8398C0.674805 14.2475 4.99806 16.1992 10.3311 16.1992Z" fill="#683C2F"/>
<path d="M10.3311 14.832C15.6641 14.832 19.9873 12.8803 19.9873 10.4727C19.9873 8.06504 15.6641 6.11328 10.3311 6.11328C4.99806 6.11328 0.674805 8.06504 0.674805 10.4727C0.674805 12.8803 4.99806 14.832 10.3311 14.832Z" fill="#683C2F"/>
<path d="M10.3312 15.3469C15.3846 15.3469 19.4812 13.4959 19.4812 11.2125C19.4812 8.92915 15.3846 7.07812 10.3312 7.07812C5.27775 7.07812 1.18115 8.92915 1.18115 11.2125C1.18115 13.4959 5.27775 15.3469 10.3312 15.3469Z" fill="#F05922"/>
<path d="M10.3314 14.0254C13.7694 14.0254 16.5564 12.7662 16.5564 11.2129C16.5564 9.65959 13.7694 8.40039 10.3314 8.40039C6.89347 8.40039 4.10645 9.65959 4.10645 11.2129C4.10645 12.7662 6.89347 14.0254 10.3314 14.0254Z" fill="white"/>
<path d="M11.9719 7.48047L8.4375 7.55547V14.9523" fill="white"/>
<path d="M18.478 10.4242H11.9718V7.48047L8.4374 7.55547V10.4242H1.93115L2.10928 12.018H8.4374V14.9523H11.9718V12.018H18.478V10.4242Z" fill="white"/>
<path d="M12.2532 15.084H8.15635V12.1871H1.8751L1.67822 10.3121H8.24072V7.43398L12.3376 7.34961V10.3121H18.7501V12.1871H12.2532V15.084ZM8.71885 14.8309H11.6907V11.8871H18.197V10.5465H11.6907V7.61211L8.71885 7.67773V10.5465H2.22197L2.37197 11.8871H8.71885V14.8309Z" fill="#F05922"/>
<path d="M14.803 8.00586L10.1999 10.0871L5.60615 8.00586L3.2249 9.19648L7.70615 11.2215L3.10303 13.2934L5.72803 14.3715L10.1999 12.3465L14.803 14.4277L17.3062 13.2934L12.703 11.2215L17.3062 9.14023L14.803 8.00586Z" fill="white"/>
<path d="M10.3125 15.1121C5.56875 15.1121 1.6875 13.359 1.6875 11.2496C1.6875 9.14023 5.56875 7.30273 10.3125 7.30273C15.0562 7.30273 18.9656 9.05586 18.9656 11.2496C18.9656 13.4434 15.0938 15.1121 10.3125 15.1121ZM10.3125 7.61211C5.97187 7.61211 2.4375 9.21523 2.4375 11.1746C2.4375 13.134 5.97187 14.7277 10.3125 14.7277C14.6531 14.7277 18.1781 13.134 18.1781 11.1746C18.1781 9.21523 14.6719 7.64961 10.3125 7.64961V7.61211Z" fill="#F05922"/>
<path d="M10.3313 14.0633C13.8159 14.0633 16.6407 12.7873 16.6407 11.2133C16.6407 9.63927 13.8159 8.36328 10.3313 8.36328C6.84678 8.36328 4.02197 9.63927 4.02197 11.2133C4.02197 12.7873 6.84678 14.0633 10.3313 14.0633Z" fill="white"/>
<path d="M10.3127 14.3063C6.5627 14.3063 3.4502 12.9188 3.4502 11.2125C3.4502 9.50625 6.5627 8.10938 10.3127 8.10938C14.0627 8.10938 17.1752 9.49688 17.1752 11.2125C17.1752 12.9281 14.1096 14.3063 10.3127 14.3063ZM10.3127 8.61562C7.14394 8.61562 4.56582 9.77813 4.56582 11.2125C4.56582 12.6469 7.1627 13.8094 10.3127 13.8094C13.4627 13.8094 16.0596 12.6375 16.0596 11.2125C16.0596 9.7875 13.5002 8.61562 10.3127 8.61562Z" fill="#F05922"/>
<path d="M13.7156 10.8469C12.7687 10.3125 10.3125 9.23438 10.3125 9.23438C10.3125 9.23438 7.88433 10.3125 6.94683 10.8469C6.00933 11.3812 6.80621 12.3469 9.75933 12.45C9.70308 12.6375 9.44996 12.9281 8.37183 12.9281V13.1813H12.2437V12.9281C11.175 12.9281 10.9218 12.6375 10.8656 12.45C13.8468 12.3469 14.5968 11.3719 13.7156 10.8469Z" fill="#F05922"/>
<path d="M19.9873 10.3965H0.674805V15.2059H19.9873V10.3965Z" fill="#683C2F"/>
<path d="M19.9873 10.3398H0.674805V12.3461H19.9873V10.3398Z" fill="#683C2F"/>
<path d="M10.3311 16.3223C15.6641 16.3223 19.9873 14.3705 19.9873 11.9629C19.9873 9.55527 15.6641 7.60352 10.3311 7.60352C4.99806 7.60352 0.674805 9.55527 0.674805 11.9629C0.674805 14.3705 4.99806 16.3223 10.3311 16.3223Z" fill="#683C2F"/>
<path d="M10.3311 18.4219C15.6641 18.4219 19.9873 16.4701 19.9873 14.0625C19.9873 11.6549 15.6641 9.70312 10.3311 9.70312C4.99806 9.70312 0.674805 11.6549 0.674805 14.0625C0.674805 16.4701 4.99806 18.4219 10.3311 18.4219Z" fill="#A0432D"/>
<path d="M10.3313 17.7285C15.2604 17.7285 19.2563 15.7768 19.2563 13.3691C19.2563 10.9615 15.2604 9.00977 10.3313 9.00977C5.40211 9.00977 1.40625 10.9615 1.40625 13.3691C1.40625 15.7768 5.40211 17.7285 10.3313 17.7285Z" fill="#F05922"/>
<path d="M8.95312 15.8066V17.6816C9.79423 17.8842 10.6714 17.8842 11.5125 17.6816V15.8066H8.95312Z" fill="#EFB9AC"/>
<path d="M3.81543 13.8379V15.7129C4.56687 16.1307 5.37089 16.446 6.20605 16.6504V13.8379H3.81543Z" fill="white"/>
<path d="M17.0154 13.6875V15.6937C16.2094 16.1787 15.3288 16.5271 14.4092 16.725V13.6875H17.0154Z" fill="white"/>
<path d="M10.3311 15.3086C15.6641 15.3086 19.9873 13.3568 19.9873 10.9492C19.9873 8.5416 15.6641 6.58984 10.3311 6.58984C4.99806 6.58984 0.674805 8.5416 0.674805 10.9492C0.674805 13.3568 4.99806 15.3086 10.3311 15.3086Z" fill="#683C2F"/>
<path d="M10.8374 13.7812C16.1704 13.7812 20.4937 11.8295 20.4937 9.42188C20.4937 7.01426 16.1704 5.0625 10.8374 5.0625C5.5044 5.0625 1.18115 7.01426 1.18115 9.42188C1.18115 11.8295 5.5044 13.7812 10.8374 13.7812Z" fill="#683C2F"/>
<path d="M10.3312 15.2062C15.3846 15.2062 19.4812 13.3552 19.4812 11.0719C19.4812 8.78852 15.3846 6.9375 10.3312 6.9375C5.27775 6.9375 1.18115 8.78852 1.18115 11.0719C1.18115 13.3552 5.27775 15.2062 10.3312 15.2062Z" fill="#F05922"/>
<path d="M10.3314 13.8848C13.7694 13.8848 16.5564 12.6256 16.5564 11.0723C16.5564 9.51896 13.7694 8.25977 10.3314 8.25977C6.89347 8.25977 4.10645 9.51896 4.10645 11.0723C4.10645 12.6256 6.89347 13.8848 10.3314 13.8848Z" fill="white"/>
<path d="M11.9719 7.33984L8.4375 7.42422V14.8211" fill="white"/>
<path d="M18.478 10.2836H11.9718V7.33984L8.4374 7.42422V10.2836H1.93115L2.10928 11.8773H8.4374V14.8211H11.9718V11.8773H18.478V10.2836Z" fill="white"/>
<path d="M12.2532 14.9441H8.15635V12.0098H1.8751L1.67822 10.1348H8.24072V7.32227L12.3376 7.22852V10.1816H18.7501V12.0566H12.2532V14.9441ZM8.71885 14.691H11.6907V11.7566H18.197V10.4066H11.6907V7.50039L8.71885 7.54727V10.3598H2.22197L2.37197 11.7098H8.71885V14.691Z" fill="#F05922"/>
<path d="M14.803 7.875L10.1999 9.95625L5.60615 7.875L3.2249 9.05625L7.70615 11.0813L3.10303 13.1625L5.72803 14.2313L10.1999 12.2156L14.803 14.2875L17.3062 13.1625L12.703 11.0813L17.3062 9L14.803 7.875Z" fill="white"/>
<path d="M10.3125 15C5.56875 15 1.6875 13.2281 1.6875 11.0719C1.6875 8.91563 5.56875 7.17188 10.3125 7.17188C15.0562 7.17188 18.9469 8.925 18.9469 11.0719C18.9469 13.2188 15.0938 15 10.3125 15ZM10.3125 7.5C5.97187 7.5 2.4375 9.09375 2.4375 11.0531C2.4375 13.0125 5.97187 14.6156 10.3125 14.6156C14.6531 14.6156 18.1781 13.0125 18.1781 11.0531C18.1781 9.09375 14.6719 7.5 10.3125 7.5Z" fill="#F05922"/>
<path d="M10.3313 13.9227C13.8159 13.9227 16.6407 12.6467 16.6407 11.0727C16.6407 9.49864 13.8159 8.22266 10.3313 8.22266C6.84678 8.22266 4.02197 9.49864 4.02197 11.0727C4.02197 12.6467 6.84678 13.9227 10.3313 13.9227Z" fill="white"/>
<path d="M10.3127 14.1754C6.5627 14.1754 3.4502 12.7879 3.4502 11.0723C3.4502 9.35664 6.5627 7.97852 10.3127 7.97852C14.0627 7.97852 17.1752 9.36602 17.1752 11.0723C17.1752 12.7785 14.1096 14.1754 10.3127 14.1754ZM10.3127 8.43789C7.14394 8.43789 4.56582 9.60977 4.56582 11.0348C4.56582 12.4598 7.1627 13.6691 10.3127 13.6691C13.4627 13.6691 16.0596 12.5066 16.0596 11.0723C16.0596 9.63789 13.5002 8.43789 10.3127 8.43789Z" fill="#F05922"/>
<path d="M13.7156 10.716C12.7781 10.1535 10.3312 9.10352 10.3312 9.10352C10.3312 9.10352 7.88433 10.1535 6.94683 10.716C6.00933 11.2785 6.80621 12.216 9.75933 12.3098C9.70308 12.4973 9.44996 12.7879 8.37183 12.7879V13.041H12.2437V12.7879C11.175 12.7879 10.9218 12.4973 10.8656 12.3098C13.8468 12.1879 14.5968 11.2504 13.7156 10.716Z" fill="#F05922"/>
<path d="M19.9873 7.07812H0.674805V11.8875H19.9873V7.07812Z" fill="#683C2F"/>
<path d="M19.9873 7.01172H0.674805V9.01797H19.9873V7.01172Z" fill="#683C2F"/>
<path d="M10.3311 13.0039C15.6641 13.0039 19.9873 11.0521 19.9873 8.64453C19.9873 6.23691 15.6641 4.28516 10.3311 4.28516C4.99806 4.28516 0.674805 6.23691 0.674805 8.64453C0.674805 11.0521 4.99806 13.0039 10.3311 13.0039Z" fill="#683C2F"/>
<path d="M10.3311 15.1602C15.6641 15.1602 19.9873 13.2084 19.9873 10.8008C19.9873 8.39317 15.6641 6.44141 10.3311 6.44141C4.99806 6.44141 0.674805 8.39317 0.674805 10.8008C0.674805 13.2084 4.99806 15.1602 10.3311 15.1602Z" fill="#A0432D"/>
<path d="M10.3313 14.4102C15.2604 14.4102 19.2563 12.4584 19.2563 10.0508C19.2563 7.64316 15.2604 5.69141 10.3313 5.69141C5.40211 5.69141 1.40625 7.64316 1.40625 10.0508C1.40625 12.4584 5.40211 14.4102 10.3313 14.4102Z" fill="#F05922"/>
<path d="M8.95312 12.4883V14.3164C9.79423 14.519 10.6714 14.519 11.5125 14.3164V12.4414L8.95312 12.4883Z" fill="#EFB9AC"/>
<path d="M3.81543 10.5098V12.3379C4.56553 12.7586 5.36995 13.074 6.20605 13.2754V10.5098H3.81543Z" fill="white"/>
<path d="M17.0154 10.3691V12.3754C16.2077 12.8548 15.3275 13.1999 14.4092 13.3973V10.3691H17.0154Z" fill="white"/>
<path d="M10.3311 12.7402C15.6641 12.7402 19.9873 10.7885 19.9873 8.38086C19.9873 5.97324 15.6641 4.02148 10.3311 4.02148C4.99806 4.02148 0.674805 5.97324 0.674805 8.38086C0.674805 10.7885 4.99806 12.7402 10.3311 12.7402Z" fill="#A0432D"/>
<path d="M10.3311 11.3711C15.6641 11.3711 19.9873 9.41934 19.9873 7.01172C19.9873 4.6041 15.6641 2.65234 10.3311 2.65234C4.99806 2.65234 0.674805 4.6041 0.674805 7.01172C0.674805 9.41934 4.99806 11.3711 10.3311 11.3711Z" fill="#683C2F"/>
<path d="M10.3312 11.8879C15.3846 11.8879 19.4812 10.0369 19.4812 7.75352C19.4812 5.47016 15.3846 3.61914 10.3312 3.61914C5.27775 3.61914 1.18115 5.47016 1.18115 7.75352C1.18115 10.0369 5.27775 11.8879 10.3312 11.8879Z" fill="#F05922"/>
<path d="M10.3314 10.5664C13.7694 10.5664 16.5564 9.30721 16.5564 7.75391C16.5564 6.20061 13.7694 4.94141 10.3314 4.94141C6.89347 4.94141 4.10645 6.20061 4.10645 7.75391C4.10645 9.30721 6.89347 10.5664 10.3314 10.5664Z" fill="white"/>
<path d="M11.9719 4.02148L8.4375 4.09648V11.4934" fill="white"/>
<path d="M18.478 6.95586H11.9718V4.02148L8.4374 4.09648V6.95586H1.93115L2.10928 8.55898H8.4374V11.4934H11.9718V8.55898H18.478V6.95586Z" fill="white"/>
<path d="M12.2532 11.6258H8.15635V8.68203H1.8751L1.67822 6.80703H8.24072V3.99453L12.3376 3.91016V6.83516H18.7501V8.71016H12.2532V11.6258ZM8.71885 11.3727H11.6907V8.43828H18.197V7.08828H11.6907V4.15391L8.71885 4.21953V7.08828H2.22197L2.37197 8.43828H8.71885V11.3727Z" fill="#F05922"/>
<path d="M14.803 4.55664L10.1999 6.62852L5.60615 4.55664L3.2249 5.73789L7.70615 7.76289L3.10303 9.83477L5.72803 10.9129L10.1999 8.88789L14.803 10.9691L17.3062 9.83477L12.703 7.76289L17.3062 5.68164L14.803 4.55664Z" fill="white"/>
<path d="M10.3127 11.6531C5.5502 11.6531 1.66895 9.9 1.66895 7.75313C1.66895 5.60625 5.56895 3.84375 10.3127 3.84375C15.0564 3.84375 18.9658 5.625 18.9658 7.75313C18.9658 9.88125 15.0939 11.6531 10.3127 11.6531ZM10.3127 4.15312C5.97207 4.15312 2.4377 5.75625 2.4377 7.71562C2.4377 9.675 5.97207 11.2688 10.3127 11.2688C14.6533 11.2688 18.1783 9.675 18.1783 7.71562C18.1783 5.75625 14.6721 4.19062 10.3127 4.19062V4.15312Z" fill="#F05922"/>
<path d="M10.3313 10.6023C13.8159 10.6023 16.6407 9.32636 16.6407 7.75234C16.6407 6.17833 13.8159 4.90234 10.3313 4.90234C6.84678 4.90234 4.02197 6.17833 4.02197 7.75234C4.02197 9.32636 6.84678 10.6023 10.3313 10.6023Z" fill="white"/>
<path d="M10.3127 10.8469C6.5627 10.8469 3.4502 9.45938 3.4502 7.75313C3.4502 6.04688 6.5627 4.6875 10.3127 4.6875C14.0627 4.6875 17.1752 6.075 17.1752 7.79063C17.1752 9.50625 14.1096 10.8469 10.3127 10.8469ZM10.3127 5.15625C7.14394 5.15625 4.56582 6.31875 4.56582 7.75313C4.56582 9.1875 7.1627 10.3125 10.3127 10.3125C13.4627 10.3125 16.0596 9.14062 16.0596 7.71562C16.0596 6.29062 13.5002 5.15625 10.3127 5.15625Z" fill="#F05922"/>
<path d="M13.7156 7.38789C12.7781 6.82539 10.3312 5.77539 10.3312 5.77539C10.3312 5.77539 7.88433 6.82539 6.94683 7.38789C6.00933 7.95039 6.80621 8.88789 9.75933 8.99102C9.70308 9.17852 9.44996 9.46914 8.37183 9.46914V9.72227H12.2437V9.46914C11.175 9.46914 10.9218 9.17852 10.8656 8.99102C13.8468 8.88789 14.5968 7.91289 13.7156 7.38789Z" fill="#F05922"/>
<path d="M29.4937 18.7503C29.6371 19.991 29.5133 21.2481 29.1307 22.4371C28.7481 23.6261 28.1156 24.7195 27.2756 25.6439C26.4356 26.5683 25.4075 27.3022 24.2604 27.7965C23.1133 28.2908 21.8738 28.5339 20.625 28.5096C17.8601 28.4976 15.2105 27.4003 13.2467 25.454C11.2829 23.5077 10.1618 20.868 10.125 18.1034C10.1266 16.8856 10.3816 15.6815 10.8739 14.5677C11.3662 13.4538 12.0849 12.4546 12.9843 11.6337C13.8838 10.8127 14.9442 10.188 16.0983 9.79914C17.2523 9.41032 18.4746 9.26596 19.6875 9.37525C22.1539 9.56312 24.479 10.6 26.267 12.3093C28.0549 14.0186 29.1952 16.2948 29.4937 18.7503Z" fill="#342F68"/>
<path d="M28.4625 18.8528C28.5846 19.965 28.4673 21.0904 28.1183 22.1534C27.7693 23.2164 27.1968 24.1923 26.4392 25.0156C25.6816 25.839 24.7565 26.4905 23.7262 26.9265C22.6958 27.3625 21.584 27.5729 20.4656 27.5435C18.0028 27.5244 15.6449 26.5446 13.8938 24.8128C12.1427 23.081 11.1369 20.734 11.0906 18.2716C11.0819 17.1718 11.3039 16.0824 11.7424 15.0737C12.1808 14.065 12.826 13.1595 13.6361 12.4157C14.4462 11.6718 15.4034 11.1061 16.4457 10.7551C17.488 10.4041 18.5924 10.2756 19.6875 10.3778C21.9075 10.5493 23.9984 11.4894 25.6 13.0363C27.2017 14.5832 28.2139 16.6401 28.4625 18.8528Z" fill="#6780F0"/>
<path d="M25.8282 18.7493C25.8994 19.5048 25.8085 20.2669 25.5617 20.9845C25.3149 21.7022 24.9178 22.3589 24.3969 22.9109C23.876 23.4628 23.2434 23.8972 22.5412 24.1852C21.839 24.4731 21.0835 24.6079 20.3251 24.5805C18.6869 24.5339 17.1279 23.8655 15.9647 22.7111C14.8016 21.5566 14.1215 20.0027 14.0626 18.3649C14.0446 17.6176 14.1836 16.8749 14.4706 16.1847C14.7575 15.4945 15.1861 14.8722 15.7286 14.358C16.2711 13.8438 16.9154 13.4491 17.62 13.1995C18.3245 12.9498 19.0736 12.8507 19.8188 12.9086C21.3443 13.0288 22.7798 13.6784 23.8772 14.7449C24.9745 15.8114 25.6646 17.2278 25.8282 18.7493Z" fill="white"/>
<path d="M21.178 11.2309L17.9624 11.1934L18.5437 26.6621" fill="white"/>
<path d="M27.4313 17.2402L21.497 17.0059L21.1782 11.2309L17.9626 11.1934L18.1782 16.8746L11.8501 16.6309L12.0376 20.0246L18.3001 20.2027L18.5438 26.6621L22.0313 26.6809L21.6845 20.2965L27.7126 20.4652L27.4313 17.2402Z" fill="white"/>
<path d="M22.3221 26.9621H18.2721L18.0377 20.484L11.7752 20.3152L11.5596 16.3777L17.9064 16.6309L17.7002 11.0059L21.4502 11.0527L21.7783 16.8184L27.6939 17.0527L28.0314 20.8027L21.9939 20.6434L22.3221 26.9621ZM18.8064 26.3715H21.7502L21.4033 19.9965L27.4408 20.1652L27.1877 17.4746L21.2346 17.2496L20.9252 11.4746H18.2158L18.4314 17.1746L12.1877 16.8746L12.3471 19.6871L18.6002 19.8652L18.8064 26.3715Z" fill="#6780F0"/>
<path d="M23.7844 12.3852L19.8187 16.2758L15.3469 11.9258L13.1062 14.1664L17.5313 18.4977L13.0781 22.8664L15.7687 25.3133L20.0344 20.9539L24.7031 25.5289L26.8687 23.1195L22.275 18.657L26.175 14.6727L23.7844 12.3852Z" fill="white"/>
<path d="M20.4376 27.0285C18.1211 26.9952 15.9078 26.0652 14.2627 24.4341C12.6176 22.803 11.6688 20.5977 11.6157 18.2817C11.6043 17.2451 11.8095 16.2176 12.2182 15.2649C12.6268 14.3122 13.23 13.4554 13.989 12.7494C14.748 12.0433 15.6461 11.5036 16.6258 11.1648C17.6055 10.8259 18.6452 10.6954 19.6782 10.7817C21.7846 10.9349 23.771 11.8201 25.2932 13.2841C26.8153 14.7481 27.7774 16.6985 28.0126 18.7973C28.128 19.8506 28.0166 20.9165 27.6859 21.9233C27.3552 22.93 26.8129 23.8543 26.0953 24.634C25.3777 25.4138 24.5016 26.0309 23.5257 26.4439C22.5498 26.8569 21.4969 27.0562 20.4376 27.0285ZM19.6876 11.4754C18.748 11.3997 17.8031 11.5208 16.913 11.831C16.0229 12.1411 15.2073 12.6335 14.5183 13.2767C13.8293 13.9198 13.2819 14.6996 12.9113 15.5663C12.5406 16.4329 12.3548 17.3673 12.3657 18.3098C12.4188 20.4152 13.2852 22.4182 14.7832 23.8987C16.2811 25.3792 18.2942 26.222 20.4001 26.2504C21.3608 26.2779 22.3163 26.1002 23.2029 25.7292C24.0895 25.3581 24.8868 24.8023 25.5416 24.0987C26.1964 23.3952 26.6936 22.56 27.0001 21.6491C27.3065 20.7381 27.4152 19.7723 27.3188 18.816C27.1119 16.8909 26.2336 15.1001 24.8382 13.7578C23.4428 12.4156 21.6193 11.6075 19.6876 11.4754Z" fill="#6780F0"/>
<path d="M25.903 18.7506C25.9757 19.5163 25.8839 20.2888 25.6338 21.0162C25.3837 21.7436 24.9812 22.4092 24.453 22.9684C23.9249 23.5276 23.2834 23.9675 22.5714 24.2587C21.8595 24.5499 21.0935 24.6856 20.3249 24.6568C18.6599 24.6129 17.0739 23.9376 15.8884 22.7678C14.7029 21.5979 14.0065 20.0211 13.9405 18.3568C13.9224 17.6001 14.0634 16.848 14.3542 16.1492C14.6451 15.4504 15.0793 14.8204 15.6289 14.3C16.1786 13.7795 16.8313 13.3802 17.5449 13.1278C18.2585 12.8755 19.0172 12.7757 19.7718 12.835C21.3304 12.9303 22.8041 13.5783 23.9279 14.6625C25.0517 15.7468 25.752 17.1963 25.903 18.7506Z" fill="white"/>
<path d="M20.3529 25.2278C18.5324 25.1881 16.7962 24.4529 15.5008 23.1732C14.2054 21.8935 13.4492 20.1664 13.3873 18.3465C13.3717 17.5241 13.5284 16.7074 13.8472 15.9491C14.166 15.1908 14.64 14.5076 15.2386 13.9434C15.8373 13.3793 16.5473 12.9465 17.3232 12.6731C18.099 12.3997 18.9234 12.2917 19.7435 12.3559C21.4285 12.4692 23.0199 13.172 24.2387 14.341C25.4574 15.5101 26.2258 17.0708 26.4092 18.7496C26.4923 19.5851 26.3962 20.4286 26.1271 21.2238C25.858 22.0191 25.4223 22.7477 24.8489 23.361C24.2756 23.9743 23.5779 24.4581 22.8025 24.78C22.0272 25.1019 21.192 25.2546 20.3529 25.2278ZM19.7904 13.3403C19.1032 13.2889 18.4128 13.3822 17.7638 13.6141C17.1149 13.846 16.5217 14.2114 16.0226 14.6866C15.5235 15.1619 15.1296 15.7364 14.8662 16.3733C14.6029 17.0101 14.4759 17.6951 14.4935 18.384C14.5505 19.8995 15.1837 21.3362 16.2639 22.4007C17.3441 23.4653 18.7898 24.0774 20.306 24.1121C21.0045 24.1376 21.7003 24.0141 22.3473 23.7497C22.9942 23.4853 23.5775 23.0862 24.0582 22.5789C24.5389 22.0716 24.9061 21.4677 25.1352 20.8074C25.3644 20.1472 25.4503 19.4457 25.3873 18.7496C25.2515 17.3292 24.6131 16.0038 23.5871 15.0121C22.561 14.0204 21.2147 13.4276 19.7904 13.3403Z" fill="#6780F0"/>
<path d="M23.1656 17.934C22.2281 16.7715 19.8563 14.5684 19.8563 14.5684C18.7679 15.551 17.738 16.5965 16.7719 17.6996C15.9469 18.7777 16.7719 20.8684 19.6313 21.159C19.6313 21.5527 19.3688 22.1809 18.3281 22.1527V22.7059H20.1469H20.2875H22.0875V22.1621C21.7664 22.1926 21.4457 22.1003 21.1899 21.9037C20.9342 21.7071 20.7625 21.4209 20.7094 21.1027C23.4938 21.0371 24.0563 19.0402 23.1656 17.934Z" fill="#6780F0"/>
</g>
<defs>
<clipPath id="clip0_47_54616">
<rect width="30" height="30" fill="white"/>
</clipPath>
</defs>
</svg>
