<svg width="21" height="22" viewBox="0 0 21 22" fill="none" xmlns="http://www.w3.org/2000/svg">
<path d="M1.45093 10.0619V14.5938C1.45093 19.1257 3.26774 20.9426 7.79968 20.9426H13.24C17.772 20.9426 19.5888 19.1257 19.5888 14.5938V10.0619" stroke="#AEAEAE" stroke-width="1.5" stroke-linecap="round" stroke-linejoin="round"/>
<path d="M10.5256 10.8504C12.3727 10.8504 13.7353 9.34649 13.5536 7.4994L12.8875 0.757005H8.17385L7.4976 7.4994C7.31591 9.34649 8.67852 10.8504 10.5256 10.8504Z" stroke="#AEAEAE" stroke-width="1.5" stroke-linecap="round" stroke-linejoin="round"/>
<path d="M16.8939 10.8504C18.9327 10.8504 20.4266 9.19509 20.2247 7.16632L19.9421 4.39063C19.5787 1.76635 18.5694 0.757005 15.9249 0.757005H12.8464L13.553 7.83248C13.7245 9.49789 15.2285 10.8504 16.8939 10.8504Z" stroke="#AEAEAE" stroke-width="1.5" stroke-linecap="round" stroke-linejoin="round"/>
<path d="M4.1061 10.8504C5.77152 10.8504 7.27543 9.49789 7.43693 7.83248L7.65898 5.60184L8.14347 0.757005H5.06498C2.42051 0.757005 1.41116 1.76635 1.0478 4.39063L0.77528 7.16632C0.573412 9.19509 2.06724 10.8504 4.1061 10.8504Z" stroke="#AEAEAE" stroke-width="1.5" stroke-linecap="round" stroke-linejoin="round"/>
<path d="M10.5251 15.8971C8.83954 15.8971 8.00178 16.7349 8.00178 18.4205V20.9438H13.0485V18.4205C13.0485 16.7349 12.2107 15.8971 10.5251 15.8971Z" stroke="#AEAEAE" stroke-width="1.5" stroke-linecap="round" stroke-linejoin="round"/>
</svg>
