<svg width="64" height="64" viewBox="0 0 64 64" fill="none" xmlns="http://www.w3.org/2000/svg">
<path d="M18.0421 30.88H45.9578L40.7139 20.7499C40.5187 20.3795 40.1754 20.2527 39.8859 20.438C38.1223 21.5787 31.7947 24.9424 24.114 20.3892C23.8245 20.2235 23.4947 20.3502 23.3062 20.7109L18.0421 30.88Z" stroke="#213A52" stroke-width="1.66957" stroke-miterlimit="10" stroke-linejoin="round"/>
<path d="M45.9578 30.7871H18.0421V43.6132H45.9578V30.7871Z" stroke="#213A52" stroke-width="1.66957" stroke-miterlimit="10" stroke-linejoin="round"/>
<path d="M39.922 34.5596C41.1726 34.5596 42.1854 35.4712 42.1854 36.5967V39.6523H37.6586V36.5967C37.6586 35.4712 38.6714 34.5596 39.922 34.5596Z" stroke="#213A52" stroke-width="1.66957" stroke-miterlimit="10"/>
<path d="M24.078 34.5596C25.3286 34.5596 26.3414 35.4712 26.3414 36.5967V39.6523H21.8146V36.5967C21.8146 35.4712 22.8274 34.5596 24.078 34.5596Z" stroke="#213A52" stroke-width="1.66957" stroke-miterlimit="10"/>
<path d="M32.1287 34.5596C33.3793 34.5596 34.3921 35.4712 34.3921 36.5967V39.6523H29.8652V36.5967C29.8652 35.4712 30.8781 34.5596 32.1287 34.5596Z" stroke="#213A52" stroke-width="1.66957" stroke-miterlimit="10"/>
<path d="M45.9579 30.8564L48.9758 43.6825" stroke="#213A52" stroke-width="1.66957" stroke-miterlimit="10" stroke-linecap="round"/>
<path d="M18.0422 30.834L15.0243 43.6601" stroke="#213A52" stroke-width="1.66957" stroke-miterlimit="10" stroke-linecap="round"/>
</svg>
