<svg width="25" height="25" viewBox="0 0 25 25" fill="none" xmlns="http://www.w3.org/2000/svg">
<path d="M12.5025 6.09016C8.95543 6.09016 6.09438 8.95185 6.09438 12.4997C6.09438 16.0475 8.95543 18.9092 12.5025 18.9092C16.0495 18.9092 18.9106 16.0475 18.9106 12.4997C18.9106 8.95185 16.0495 6.09016 12.5025 6.09016ZM12.5025 16.6667C10.2103 16.6667 8.33638 14.798 8.33638 12.4997C8.33638 10.2014 10.2047 8.33266 12.5025 8.33266C14.8002 8.33266 16.6686 10.2014 16.6686 12.4997C16.6686 14.798 14.7947 16.6667 12.5025 16.6667ZM20.6674 5.82798C20.6674 6.65915 19.9981 7.32298 19.1727 7.32298C18.3417 7.32298 17.678 6.65357 17.678 5.82798C17.678 5.00238 18.3473 4.33298 19.1727 4.33298C19.9981 4.33298 20.6674 5.00238 20.6674 5.82798ZM24.9115 7.34529C24.8167 5.34266 24.3594 3.56875 22.8926 2.10722C21.4314 0.645694 19.6579 0.188269 17.6557 0.087859C15.5922 -0.0292863 9.40718 -0.0292863 7.34365 0.087859C5.34705 0.182691 3.57353 0.640115 2.10675 2.10164C0.639973 3.56317 0.188227 5.33708 0.0878394 7.33971C-0.0292798 9.4037 -0.0292798 15.5901 0.0878394 17.6541C0.18265 19.6567 0.639973 21.4306 2.10675 22.8921C3.57353 24.3537 5.34147 24.8111 7.34365 24.9115C9.40718 25.0287 15.5922 25.0287 17.6557 24.9115C19.6579 24.8167 21.4314 24.3593 22.8926 22.8921C24.3538 21.4306 24.8111 19.6567 24.9115 17.6541C25.0286 15.5901 25.0286 9.40928 24.9115 7.34529ZM22.2457 19.8687C21.8107 20.962 20.9685 21.8044 19.8698 22.2451C18.2246 22.8977 14.3206 22.7471 12.5025 22.7471C10.6843 22.7471 6.77479 22.8921 5.13512 22.2451C4.04201 21.8099 3.19986 20.9676 2.75927 19.8687C2.10675 18.2231 2.25733 14.3182 2.25733 12.4997C2.25733 10.6811 2.11233 6.77072 2.75927 5.13069C3.19429 4.03733 4.03643 3.195 5.13512 2.75431C6.78036 2.10164 10.6843 2.25226 12.5025 2.25226C14.3206 2.25226 18.2302 2.10722 19.8698 2.75431C20.9629 3.18942 21.8051 4.03175 22.2457 5.13069C22.8982 6.7763 22.7476 10.6811 22.7476 12.4997C22.7476 14.3182 22.8982 18.2286 22.2457 19.8687Z" fill="#353751"/>
</svg>
