<svg width="24" height="24" viewBox="0 0 24 24" fill="none" xmlns="http://www.w3.org/2000/svg">
<path d="M21.9382 10.8281L17.7006 14.3531L19.0413 19.8C19.1029 20.0283 19.1114 20.2677 19.066 20.4998C19.0207 20.7319 18.9227 20.9505 18.7797 21.1389C18.6366 21.3272 18.4523 21.4802 18.2408 21.5861C18.0294 21.6921 17.7965 21.7481 17.56 21.75C17.2704 21.7487 16.9873 21.6641 16.7444 21.5062L12.01 18.5156H11.9913L7.5944 21.3C7.31036 21.4792 6.97931 21.5696 6.64362 21.5596C6.30793 21.5495 5.98286 21.4396 5.71002 21.2438C5.42893 21.0386 5.21603 20.7537 5.099 20.426C4.98196 20.0983 4.9662 19.743 5.05377 19.4062L6.3194 14.4281L2.06314 10.8281C1.82167 10.6263 1.64617 10.3569 1.55928 10.0544C1.47239 9.75197 1.47809 9.43043 1.57564 9.13125C1.67064 8.83659 1.85188 8.57722 2.09589 8.38668C2.33991 8.19614 2.63549 8.08321 2.94439 8.0625L8.47565 7.70625L10.5756 2.475C10.6883 2.1885 10.8843 1.94241 11.1384 1.76858C11.3924 1.59475 11.6928 1.50118 12.0006 1.5C12.3085 1.50118 12.6089 1.59475 12.8629 1.76858C13.117 1.94241 13.313 2.1885 13.4256 2.475L15.4881 7.67813L21.0569 8.0625C21.3662 8.08195 21.6624 8.19441 21.9066 8.38513C22.1509 8.57585 22.3318 8.83592 22.4256 9.13125C22.5232 9.43043 22.5289 9.75197 22.442 10.0544C22.3551 10.3569 22.1796 10.6263 21.9382 10.8281Z" fill="#FFA033"/>
</svg>
