<svg width="60" height="61" viewBox="0 0 60 61" fill="none" xmlns="http://www.w3.org/2000/svg">
<path d="M8.48379 11.879C8.27717 12.1918 8.16044 12.5553 8.14633 12.9298C8.13222 13.3044 8.22128 13.6756 8.40379 14.003C9.40775 15.7935 10.95 17.2224 12.8118 18.087C14.674 17.2223 16.2167 15.793 17.2208 14.002L17.2248 13.994C17.4208 13.67 17.5228 13.304 17.5228 12.932C17.5228 12.561 17.4208 12.195 17.2248 11.871L17.2228 11.867C17.0719 11.609 16.8547 11.396 16.5938 11.25C16.3254 11.0997 16.0234 11.0195 15.7158 11.017C15.3658 11.025 15.0258 11.129 14.7388 11.314C14.4554 11.4933 14.2303 11.7511 14.0908 12.056L14.0888 12.062L13.8988 12.452L8.48379 11.879ZM8.48379 11.879L8.49079 11.867L8.48379 11.879ZM8.48379 11.879L8.49079 11.867L8.48379 11.879ZM8.49079 11.867C8.63779 11.614 8.85379 11.401 9.11979 11.25C9.38479 11.1 9.68779 11.02 9.99779 11.017C10.3478 11.025 10.6878 11.129 10.9758 11.314C11.2638 11.499 11.4878 11.757 11.6228 12.056M8.49079 11.867L11.6228 12.056L8.49079 11.867ZM11.6228 12.056L11.6258 12.062L11.6228 12.056ZM11.6228 12.056L11.6258 12.062L11.6228 12.056ZM11.6258 12.062L11.8138 12.452L11.6258 12.062ZM11.6258 12.062L11.8138 12.452L11.6258 12.062ZM11.8138 12.452C11.9078 12.645 12.0558 12.806 12.2408 12.918C12.4265 13.0307 12.6396 13.0902 12.8568 13.0902C13.074 13.0902 13.2871 13.0307 13.4728 12.918C13.6578 12.806 13.8058 12.645 13.8988 12.452H11.8138ZM10.1738 19.112L10.1768 19.113C10.8818 19.576 11.6398 19.963 12.4358 20.265C12.7058 20.367 13.0068 20.367 13.2768 20.265H13.2788C14.0758 19.961 14.8358 19.575 15.5448 19.114L15.5488 19.111C17.0932 18.0676 18.3719 16.6772 19.2828 15.051C19.6628 14.389 19.8558 13.643 19.8408 12.888C19.8245 12.129 19.6022 11.3886 19.1978 10.746C18.838 10.1579 18.3305 9.67416 17.7258 9.34305C17.1096 9.00453 16.4188 8.82511 15.7158 8.82104H15.7138C15.1372 8.82202 14.567 8.94185 14.0388 9.17305C13.6007 9.36451 13.2005 9.63273 12.8568 9.96504C12.5168 9.63504 12.1168 9.36705 11.6748 9.17305C11.1469 8.94198 10.577 8.82216 10.0008 8.82104H9.99779C9.29479 8.82511 8.60392 9.00453 7.98779 9.34305C7.37779 9.68005 6.86979 10.163 6.51679 10.746C6.11194 11.3885 5.88934 12.1289 5.87279 12.888C5.85874 13.6467 6.05165 14.3948 6.43079 15.052C7.34246 16.6807 8.62513 18.0717 10.1748 19.112H10.1738ZM8.48379 27.797C8.27717 28.1098 8.16044 28.4733 8.14633 28.8478C8.13222 29.2224 8.22128 29.5936 8.40379 29.921C9.40758 31.7119 10.9499 33.1412 12.8118 34.006C14.6741 33.1414 16.2168 31.7121 17.2208 29.921L17.2248 29.913C17.4208 29.589 17.5228 29.223 17.5228 28.851C17.5228 28.48 17.4208 28.114 17.2248 27.79L17.2228 27.786C17.0719 27.528 16.8547 27.3149 16.5938 27.169C16.3254 27.0186 16.0234 26.9385 15.7158 26.936C15.3658 26.945 15.0258 27.048 14.7388 27.233C14.4554 27.4123 14.2303 27.6701 14.0908 27.975L14.0888 27.981L13.8988 28.371L8.48379 27.797ZM8.48379 27.797L8.49079 27.786L8.48379 27.797ZM8.48379 27.797L8.49079 27.786L8.48379 27.797ZM8.49079 27.786C8.63779 27.533 8.85379 27.32 9.11979 27.169C9.38479 27.019 9.68779 26.939 9.99779 26.936C10.3478 26.945 10.6878 27.048 10.9758 27.233C11.2638 27.418 11.4878 27.676 11.6228 27.975M8.49079 27.786L11.6228 27.975L8.49079 27.786ZM11.6228 27.975L11.6258 27.981L11.6228 27.975ZM11.6228 27.975L11.6258 27.981L11.6228 27.975ZM11.6258 27.981L11.8138 28.371L11.6258 27.981ZM11.6258 27.981L11.8138 28.371L11.6258 27.981ZM11.8138 28.371C11.9078 28.564 12.0558 28.725 12.2408 28.837C12.4265 28.9497 12.6396 29.0092 12.8568 29.0092C13.074 29.0092 13.2871 28.9497 13.4728 28.837C13.6578 28.725 13.8058 28.564 13.8988 28.371H11.8138ZM10.1738 35.031L10.1768 35.032C10.8818 35.495 11.6398 35.882 12.4358 36.184C12.7058 36.286 13.0068 36.286 13.2768 36.184H13.2788C14.0728 35.8819 14.8324 35.496 15.5448 35.033L15.5488 35.03C17.0932 33.9866 18.372 32.5962 19.2828 30.97C19.6628 30.308 19.8558 29.562 19.8408 28.807C19.8245 28.048 19.6022 27.3076 19.1978 26.665C18.838 26.0769 18.3305 25.5932 17.7258 25.262C17.1096 24.9235 16.4188 24.7441 15.7158 24.74H15.7138C15.1372 24.741 14.567 24.8609 14.0388 25.092C13.6007 25.2835 13.2005 25.5517 12.8568 25.884C12.5168 25.554 12.1168 25.286 11.6748 25.092C11.1469 24.861 10.577 24.7412 10.0008 24.74H9.99779C9.29479 24.7441 8.60392 24.9235 7.98779 25.262C7.37779 25.599 6.86979 26.082 6.51679 26.664C6.11177 27.3068 5.88916 28.0475 5.87279 28.807C5.85874 29.5657 6.05165 30.3138 6.43079 30.971C7.34243 32.5998 8.6251 33.9907 10.1748 35.031H10.1738ZM8.48379 43.715C8.27717 44.0278 8.16044 44.3913 8.14633 44.7658C8.13222 45.1404 8.22128 45.5117 8.40379 45.839C9.40758 47.6299 10.9499 49.0592 12.8118 49.924C14.6741 49.0593 16.2167 47.6301 17.2208 45.839L17.2248 45.831C17.4208 45.506 17.5228 45.141 17.5228 44.769C17.5228 44.398 17.4208 44.032 17.2248 43.708L17.2228 43.704C17.0719 43.446 16.8547 43.233 16.5938 43.087C16.3254 42.9367 16.0234 42.8565 15.7158 42.854C15.3658 42.862 15.0258 42.966 14.7388 43.151C14.4554 43.3304 14.2303 43.5881 14.0908 43.893L14.0888 43.899L13.8988 44.289L8.48379 43.715ZM8.48379 43.715L8.49079 43.704L8.48379 43.715ZM8.48379 43.715L8.49079 43.704L8.48379 43.715ZM8.49079 43.704C8.63779 43.451 8.85379 43.237 9.11979 43.087C9.38479 42.937 9.68779 42.857 9.99779 42.854C10.3478 42.862 10.6878 42.966 10.9758 43.151C11.2638 43.336 11.4878 43.594 11.6228 43.893M8.49079 43.704L11.6228 43.893L8.49079 43.704ZM11.6228 43.893L11.6258 43.899L11.6228 43.893ZM11.6228 43.893L11.6258 43.899L11.6228 43.893ZM11.6258 43.899L11.8138 44.289L11.6258 43.899ZM11.6258 43.899L11.8138 44.289L11.6258 43.899ZM11.8138 44.289C11.9078 44.482 12.0558 44.643 12.2408 44.755C12.4265 44.8677 12.6396 44.9272 12.8568 44.9272C13.074 44.9272 13.2871 44.8677 13.4728 44.755C13.6578 44.643 13.8058 44.482 13.8988 44.289H11.8138ZM10.1738 50.949L10.1768 50.95C10.8818 51.413 11.6398 51.8 12.4358 52.102C12.7058 52.204 13.0068 52.204 13.2768 52.102H13.2788C14.0728 51.7999 14.8324 51.414 15.5448 50.951L15.5488 50.948C17.0932 49.9046 18.372 48.5142 19.2828 46.888C19.6628 46.226 19.8558 45.48 19.8408 44.725C19.8245 43.966 19.6022 43.2256 19.1978 42.583C18.838 41.9949 18.3305 41.5112 17.7258 41.18C17.1096 40.8415 16.4188 40.6621 15.7158 40.658H15.7138C15.1372 40.659 14.567 40.7788 14.0388 41.01C13.6007 41.2015 13.2004 41.4697 12.8568 41.802C12.5131 41.4697 12.1128 41.2015 11.6748 41.01C11.1469 40.779 10.577 40.6591 10.0008 40.658H9.99779C9.29479 40.6621 8.60392 40.8415 7.98779 41.18C7.37779 41.517 6.86979 42 6.51679 42.583C6.11194 43.2255 5.88934 43.9659 5.87279 44.725C5.85892 45.4833 6.05182 46.2311 6.43079 46.888C7.34243 48.5168 8.6251 49.9077 10.1748 50.948L10.1738 50.949Z" fill="#213A52"/>
<path d="M8.48379 11.879C8.27717 12.1918 8.16044 12.5553 8.14633 12.9298C8.13222 13.3044 8.22128 13.6756 8.40379 14.003C9.40775 15.7935 10.95 17.2224 12.8118 18.087C14.674 17.2223 16.2167 15.793 17.2208 14.002L17.2248 13.994C17.4208 13.67 17.5228 13.304 17.5228 12.932C17.5228 12.561 17.4208 12.195 17.2248 11.871L17.2228 11.867C17.0719 11.609 16.8547 11.396 16.5938 11.25C16.3254 11.0997 16.0234 11.0195 15.7158 11.017C15.3658 11.025 15.0258 11.129 14.7388 11.314C14.4554 11.4933 14.2303 11.7511 14.0908 12.056L14.0888 12.062L13.8988 12.452M8.48379 11.879L13.8988 12.452M8.48379 11.879L8.49079 11.867M13.8988 12.452C13.8058 12.645 13.6578 12.806 13.4728 12.918C13.2871 13.0307 13.074 13.0902 12.8568 13.0902C12.6396 13.0902 12.4265 13.0307 12.2408 12.918C12.0558 12.806 11.9078 12.645 11.8138 12.452M13.8988 12.452H11.8138M8.49079 11.867C8.63779 11.614 8.85379 11.401 9.11979 11.25C9.38479 11.1 9.68779 11.02 9.99779 11.017C10.3478 11.025 10.6878 11.129 10.9758 11.314C11.2638 11.499 11.4878 11.757 11.6228 12.056M8.49079 11.867L11.6228 12.056M11.6228 12.056L11.6258 12.062L11.8138 12.452M8.48379 27.797C8.27717 28.1098 8.16044 28.4733 8.14633 28.8478C8.13222 29.2224 8.22128 29.5936 8.40379 29.921C9.40758 31.7119 10.9499 33.1412 12.8118 34.006C14.6741 33.1414 16.2168 31.7121 17.2208 29.921L17.2248 29.913C17.4208 29.589 17.5228 29.223 17.5228 28.851C17.5228 28.48 17.4208 28.114 17.2248 27.79L17.2228 27.786C17.0719 27.528 16.8547 27.3149 16.5938 27.169C16.3254 27.0186 16.0234 26.9385 15.7158 26.936C15.3658 26.945 15.0258 27.048 14.7388 27.233C14.4554 27.4123 14.2303 27.6701 14.0908 27.975L14.0888 27.981L13.8988 28.371M8.48379 27.797L13.8988 28.371M8.48379 27.797L8.49079 27.786M13.8988 28.371C13.8058 28.564 13.6578 28.725 13.4728 28.837C13.2871 28.9497 13.074 29.0092 12.8568 29.0092C12.6396 29.0092 12.4265 28.9497 12.2408 28.837C12.0558 28.725 11.9078 28.564 11.8138 28.371M13.8988 28.371H11.8138M8.49079 27.786C8.63779 27.533 8.85379 27.32 9.11979 27.169C9.38479 27.019 9.68779 26.939 9.99779 26.936C10.3478 26.945 10.6878 27.048 10.9758 27.233C11.2638 27.418 11.4878 27.676 11.6228 27.975M8.49079 27.786L11.6228 27.975M11.6228 27.975L11.6258 27.981L11.8138 28.371M8.48379 43.715C8.27717 44.0278 8.16044 44.3913 8.14633 44.7658C8.13222 45.1404 8.22128 45.5116 8.40379 45.839C9.40758 47.6299 10.9499 49.0592 12.8118 49.924C14.6741 49.0593 16.2167 47.6301 17.2208 45.839L17.2248 45.831C17.4208 45.506 17.5228 45.141 17.5228 44.769C17.5228 44.398 17.4208 44.032 17.2248 43.708L17.2228 43.704C17.0719 43.446 16.8547 43.233 16.5938 43.087C16.3254 42.9367 16.0234 42.8565 15.7158 42.854C15.3658 42.862 15.0258 42.966 14.7388 43.151C14.4554 43.3304 14.2303 43.5881 14.0908 43.893L14.0888 43.899L13.8988 44.289M8.48379 43.715L13.8988 44.289M8.48379 43.715L8.49079 43.704M13.8988 44.289C13.8058 44.482 13.6578 44.643 13.4728 44.755C13.2871 44.8677 13.074 44.9272 12.8568 44.9272C12.6396 44.9272 12.4265 44.8677 12.2408 44.755C12.0558 44.643 11.9078 44.482 11.8138 44.289M13.8988 44.289H11.8138M8.49079 43.704C8.63779 43.451 8.85379 43.237 9.11979 43.087C9.38479 42.937 9.68779 42.857 9.99779 42.854C10.3478 42.862 10.6878 42.966 10.9758 43.151C11.2638 43.336 11.4878 43.594 11.6228 43.893M8.49079 43.704L11.6228 43.893M11.6228 43.893L11.6258 43.899L11.8138 44.289M10.1738 19.112L10.1768 19.113C10.8818 19.576 11.6398 19.963 12.4358 20.265C12.7058 20.367 13.0068 20.367 13.2768 20.265H13.2788C14.0758 19.961 14.8358 19.575 15.5448 19.114L15.5488 19.111C17.0932 18.0676 18.3719 16.6772 19.2828 15.051C19.6628 14.389 19.8558 13.643 19.8408 12.888C19.8245 12.129 19.6022 11.3886 19.1978 10.746C18.838 10.1579 18.3305 9.67416 17.7258 9.34305C17.1096 9.00453 16.4188 8.82511 15.7158 8.82104H15.7138C15.1372 8.82202 14.567 8.94185 14.0388 9.17305C13.6007 9.36451 13.2005 9.63273 12.8568 9.96504C12.5168 9.63504 12.1168 9.36705 11.6748 9.17305C11.1469 8.94198 10.577 8.82216 10.0008 8.82104H9.99779C9.29479 8.82511 8.60392 9.00453 7.98779 9.34305C7.37779 9.68005 6.86979 10.163 6.51679 10.746C6.11194 11.3885 5.88934 12.1289 5.87279 12.888C5.85874 13.6467 6.05165 14.3948 6.43079 15.052C7.34246 16.6807 8.62513 18.0717 10.1748 19.112H10.1738ZM10.1738 35.031L10.1768 35.032C10.8818 35.495 11.6398 35.882 12.4358 36.184C12.7058 36.286 13.0068 36.286 13.2768 36.184H13.2788C14.0728 35.8819 14.8324 35.496 15.5448 35.033L15.5488 35.03C17.0932 33.9866 18.372 32.5962 19.2828 30.97C19.6628 30.308 19.8558 29.562 19.8408 28.807C19.8245 28.048 19.6022 27.3076 19.1978 26.665C18.838 26.0769 18.3305 25.5932 17.7258 25.262C17.1096 24.9235 16.4188 24.7441 15.7158 24.74H15.7138C15.1372 24.741 14.567 24.8609 14.0388 25.092C13.6007 25.2835 13.2005 25.5517 12.8568 25.884C12.5168 25.554 12.1168 25.286 11.6748 25.092C11.1469 24.861 10.577 24.7412 10.0008 24.74H9.99779C9.29479 24.7441 8.60392 24.9235 7.98779 25.262C7.37779 25.599 6.86979 26.082 6.51679 26.664C6.11177 27.3068 5.88916 28.0475 5.87279 28.807C5.85874 29.5657 6.05165 30.3138 6.43079 30.971C7.34243 32.5998 8.6251 33.9907 10.1748 35.031H10.1738ZM10.1738 50.949L10.1768 50.95C10.8818 51.413 11.6398 51.8 12.4358 52.102C12.7058 52.204 13.0068 52.204 13.2768 52.102H13.2788C14.0728 51.7999 14.8324 51.414 15.5448 50.951L15.5488 50.948C17.0932 49.9046 18.372 48.5142 19.2828 46.888C19.6628 46.226 19.8558 45.48 19.8408 44.725C19.8245 43.966 19.6022 43.2256 19.1978 42.583C18.838 41.9949 18.3305 41.5112 17.7258 41.18C17.1096 40.8415 16.4188 40.6621 15.7158 40.658H15.7138C15.1372 40.659 14.567 40.7788 14.0388 41.01C13.6007 41.2015 13.2004 41.4697 12.8568 41.802C12.5131 41.4697 12.1128 41.2015 11.6748 41.01C11.1469 40.779 10.577 40.6591 10.0008 40.658H9.99779C9.29479 40.6621 8.60392 40.8415 7.98779 41.18C7.37779 41.517 6.86979 42 6.51679 42.583C6.11194 43.2255 5.88934 43.9659 5.87279 44.725C5.85892 45.4833 6.05182 46.2311 6.43079 46.888C7.34243 48.5168 8.6251 49.9077 10.1748 50.948L10.1738 50.949Z" stroke="#213A52" stroke-width="0.5"/>
<path d="M27.5 15.5H50M27.5 30.5H50M27.5 45.5H50" stroke="#213A52" stroke-width="4" stroke-linecap="round" stroke-linejoin="round"/>
</svg>
