<svg width="146" height="40" viewBox="0 0 146 40" fill="none" xmlns="http://www.w3.org/2000/svg">
<g clip-path="url(#clip0_47_90824)">
<path d="M110.635 0H10.035C9.668 0 9.306 0 8.94 0.002C8.634 0.004 8.33 0.01 8.021 0.015C7.356 0.032 6.682 0.073 6.017 0.192C5.35564 0.303849 4.71503 0.515247 4.117 0.819C3.21708 1.27874 2.43822 1.94419 1.84366 2.76133C1.24909 3.57847 0.855557 4.52428 0.695 5.522C0.574 6.184 0.533 6.854 0.515 7.524C0.506 7.83 0.505 8.138 0.5 8.445V31.559C0.505 31.869 0.506 32.17 0.515 32.481C0.533 33.151 0.574 33.821 0.695 34.483C0.804592 35.1459 1.01538 35.7881 1.32 36.387C1.62241 36.9854 2.02029 37.5305 2.498 38.001C2.971 38.479 3.518 38.876 4.117 39.18C4.71504 39.4846 5.35556 39.6973 6.017 39.811C6.682 39.93 7.356 39.969 8.021 39.988C8.33 39.994 8.634 39.998 8.94 39.998C9.306 40 9.668 40 10.035 40H110.635C110.995 40 111.36 40 111.719 39.998C112.024 39.998 112.336 39.994 112.641 39.988C113.311 39.969 113.983 39.93 114.641 39.811C115.305 39.6966 115.948 39.4839 116.549 39.18C117.148 38.8763 117.694 38.4782 118.166 38.001C118.642 37.5286 119.041 36.9839 119.348 36.387C119.65 35.7876 119.859 35.1455 119.967 34.483C120.09 33.821 120.129 33.151 120.153 32.481C120.157 32.17 120.157 31.869 120.157 31.559C120.164 31.196 120.164 30.834 120.164 30.465V9.536C120.164 9.17 120.164 8.807 120.157 8.445C120.157 8.138 120.157 7.83 120.153 7.524C120.129 6.854 120.09 6.184 119.967 5.522C119.859 4.85958 119.65 4.21755 119.348 3.618C118.731 2.41526 117.752 1.43634 116.549 0.819C115.948 0.515926 115.305 0.304582 114.641 0.192C113.983 0.073 113.311 0.032 112.641 0.015C112.336 0.01 112.024 0.004 111.719 0.002C111.36 0 110.995 0 110.635 0Z" fill="#B6B6B6"/>
<path d="M8.94309 39.125C8.63809 39.125 8.34109 39.121 8.03909 39.115C7.48009 39.099 6.81709 39.068 6.17009 38.952C5.59374 38.8521 5.03535 38.6675 4.51309 38.404C3.99616 38.1417 3.52453 37.7983 3.11609 37.387C2.70225 36.9804 2.3577 36.5088 2.09609 35.991C1.83091 35.4695 1.64775 34.9103 1.55309 34.333C1.43009 33.661 1.39909 32.978 1.38609 32.458C1.38009 32.247 1.37109 31.545 1.37109 31.545V8.445C1.37109 8.445 1.38009 7.753 1.38609 7.55C1.39909 7.026 1.43009 6.344 1.55209 5.678C1.64753 5.09961 1.83063 4.53916 2.09509 4.016C2.62584 2.97461 3.47214 2.1276 4.51309 1.596C5.03365 1.33268 5.5909 1.14929 6.16609 1.052C6.83909 0.931 7.52209 0.901 8.04109 0.888L8.94409 0.875H111.712L112.625 0.888C113.138 0.901 113.821 0.931 114.484 1.051C115.065 1.14943 115.628 1.33378 116.155 1.598C117.193 2.13228 118.038 2.97864 118.57 4.018C118.83 4.53782 119.01 5.09367 119.105 5.667C119.221 6.298 119.257 6.946 119.279 7.555C119.282 7.838 119.282 8.142 119.282 8.445C119.289 8.82 119.289 9.177 119.289 9.536V30.465C119.289 30.828 119.289 31.183 119.282 31.54C119.282 31.866 119.282 32.163 119.278 32.47C119.257 33.059 119.221 33.706 119.107 34.324C119.013 34.9049 118.831 35.4681 118.567 35.994C118.297 36.513 117.954 36.983 117.551 37.379C117.143 37.7928 116.67 38.1382 116.152 38.402C115.627 38.6675 115.064 38.8528 114.484 38.952C113.843 39.068 113.18 39.099 112.615 39.115C112.322 39.121 112.015 39.125 111.717 39.125L110.633 39.127L8.94309 39.125Z" fill="black"/>
<path d="M25.27 20.3044C25.245 17.5534 27.523 16.2154 27.627 16.1524C26.337 14.2714 24.338 14.0144 23.636 13.9944C21.956 13.8184 20.328 14.9994 19.473 14.9994C18.6 14.9994 17.283 14.0124 15.864 14.0414C14.038 14.0694 12.329 15.1274 11.391 16.7694C9.45696 20.1174 10.9 25.0384 12.752 27.7454C13.679 29.0704 14.763 30.5514 16.18 30.4984C17.567 30.4414 18.085 29.6144 19.76 29.6144C21.418 29.6144 21.904 30.4984 23.351 30.4654C24.839 30.4414 25.777 29.1344 26.671 27.7964C27.742 26.2764 28.172 24.7804 28.189 24.7034C28.155 24.6914 25.299 23.6024 25.27 20.3044Z" fill="white"/>
<path d="M22.5397 12.2127C23.2847 11.2797 23.7957 10.0107 23.6537 8.72266C22.5737 8.76966 21.2237 9.46866 20.4467 10.3817C19.7587 11.1857 19.1437 12.5047 19.3027 13.7437C20.5157 13.8337 21.7607 13.1317 22.5397 12.2127Z" fill="white"/>
<path d="M40.4117 20.1441H40.4637L42.3127 25.5911H38.5607L40.4117 20.1441ZM43.9397 30.4961H45.9787L41.4957 18.0781H39.4127L34.9297 30.4961H36.9337L38.0707 27.1401H42.8047L43.9397 30.4961Z" fill="white"/>
<path d="M51.3578 29.0157C49.9378 29.0157 48.9828 27.7937 48.9828 25.9697C48.9828 24.1617 49.9378 22.9317 51.3578 22.9317C52.8038 22.9317 53.7508 24.1367 53.7508 25.9697C53.7508 27.8197 52.8038 29.0157 51.3578 29.0157ZM51.8488 21.3477C50.5838 21.3477 49.4818 21.9767 48.9658 22.9487H48.9318V21.4427H47.1328V33.4917H48.9908V29.0067H49.0338C49.5678 30.0137 50.5928 30.5907 51.8828 30.5907C54.1548 30.5907 55.6608 28.7837 55.6608 25.9697C55.6608 23.1637 54.1458 21.3477 51.8488 21.3477Z" fill="white"/>
<path d="M61.3227 29.0157C59.9027 29.0157 58.9477 27.7937 58.9477 25.9697C58.9477 24.1617 59.9027 22.9317 61.3227 22.9317C62.7677 22.9317 63.7157 24.1367 63.7157 25.9697C63.7157 27.8197 62.7677 29.0157 61.3227 29.0157ZM61.8127 21.3477C60.5487 21.3477 59.4467 21.9767 58.9307 22.9487H58.8957V21.4427H57.0977V33.4917H58.9557V29.0067H58.9987C59.5327 30.0137 60.5577 30.5907 61.8477 30.5907C64.1197 30.5907 65.6257 28.7837 65.6257 25.9697C65.6257 23.1637 64.1107 21.3477 61.8127 21.3477Z" fill="white"/>
<path d="M72.2116 27.0361C72.3486 28.2681 73.5456 29.0771 75.1806 29.0771C76.7466 29.0771 77.8736 28.2681 77.8736 27.1581C77.8736 26.1941 77.1936 25.6171 75.5846 25.2211L73.9746 24.8331C71.6946 24.2831 70.6366 23.2161 70.6366 21.4861C70.6366 19.3431 72.5036 17.8711 75.1546 17.8711C77.7786 17.8711 79.5776 19.3431 79.6386 21.4861H77.7626C77.6496 20.2461 76.6256 19.4981 75.1286 19.4981C73.6316 19.4981 72.6066 20.2551 72.6066 21.3571C72.6066 22.2351 73.2616 22.7511 74.8616 23.1471L76.2296 23.4831C78.7776 24.0851 79.8366 25.1091 79.8366 26.9251C79.8366 29.2481 77.9856 30.7031 75.0426 30.7031C72.2886 30.7031 70.4296 29.2831 70.3086 27.0361H72.2116Z" fill="white"/>
<path d="M83.8481 19.3008V21.4438H85.5691V22.9148H83.8481V27.9068C83.8481 28.6818 84.1921 29.0428 84.9491 29.0428C85.1391 29.0428 85.4401 29.0168 85.5601 28.9998V30.4628C85.3541 30.5148 84.9411 30.5488 84.5281 30.5488C82.6951 30.5488 81.9801 29.8608 81.9801 28.1048V22.9148H80.6641V21.4438H81.9801V19.3008H83.8481Z" fill="white"/>
<path d="M90.8604 29.078C89.3544 29.078 88.4604 27.933 88.4604 25.971C88.4604 24.026 89.3544 22.864 90.8604 22.864C92.3664 22.864 93.2624 24.017 93.2624 25.971C93.2624 27.933 92.3664 29.078 90.8604 29.078ZM90.8604 30.61C93.4944 30.61 95.1554 28.828 95.1554 25.971C95.1554 23.122 93.4854 21.332 90.8604 21.332C88.2444 21.332 86.5664 23.122 86.5664 25.971C86.5664 28.828 88.2274 30.61 90.8604 30.61Z" fill="white"/>
<path d="M96.6875 21.4427H98.4605V22.9837H98.5035C98.7875 21.9587 99.6135 21.3477 100.682 21.3477C100.948 21.3477 101.172 21.3827 101.318 21.4167V23.1557C101.172 23.0947 100.845 23.0427 100.483 23.0427C99.2865 23.0427 98.5465 23.8527 98.5465 25.1257V30.4957H96.6875V21.4427Z" fill="white"/>
<path d="M105.909 22.838C107.2 22.838 108.087 23.75 108.13 25.136H103.603C103.698 23.768 104.627 22.838 105.909 22.838ZM108.121 27.838C107.872 28.621 107.062 29.112 106.03 29.112C104.567 29.112 103.595 28.096 103.595 26.547V26.435H109.989V25.798C109.989 23.053 108.414 21.332 105.909 21.332C103.362 21.332 101.719 23.174 101.719 26.014C101.719 28.845 103.353 30.61 105.987 30.61C108.035 30.61 109.636 29.482 109.886 27.838H108.121Z" fill="white"/>
<path d="M37.0989 9.57447H38.2239C39.4599 9.57447 40.1919 10.3595 40.1919 11.7075C40.1919 13.0765 39.4719 13.8535 38.2239 13.8535H37.0989V9.57447ZM36.1719 8.73047V14.6975H38.3279C40.1049 14.6975 41.1349 13.6015 41.1349 11.6955C41.1349 9.81847 40.0969 8.73047 38.3279 8.73047H36.1719Z" fill="white"/>
<path d="M44.3086 13.9964C43.5366 13.9964 43.1016 13.4304 43.1016 12.4464C43.1016 11.4704 43.5366 10.8994 44.3086 10.8994C45.0786 10.8994 45.5166 11.4704 45.5166 12.4464C45.5166 13.4264 45.0786 13.9964 44.3086 13.9964ZM44.3086 14.7864C45.6236 14.7864 46.4306 13.9054 46.4306 12.4464C46.4306 10.9944 45.6206 10.1094 44.3086 10.1094C42.9946 10.1094 42.1836 10.9944 42.1836 12.4464C42.1836 13.9054 42.9906 14.7864 44.3086 14.7864Z" fill="white"/>
<path d="M52.0743 14.6983H51.1523L50.2213 11.3823H50.1513L49.2243 14.6983H48.3113L47.0703 10.1953H47.9713L48.7783 13.6313H48.8443L49.7703 10.1953H50.6223L51.5483 13.6313H51.6193L52.4213 10.1953H53.3103L52.0743 14.6983Z" fill="white"/>
<path d="M54.3555 10.1964H55.2105V10.9114H55.2775C55.4955 10.4114 55.9435 10.1094 56.6205 10.1094C57.6255 10.1094 58.1795 10.7134 58.1795 11.7844V14.6994H57.2905V12.0074C57.2905 11.2844 56.9765 10.9244 56.3195 10.9244C55.6625 10.9244 55.2445 11.3624 55.2445 12.0654V14.6994H54.3555V10.1964Z" fill="white"/>
<path d="M59.5938 8.4375H60.4827V14.6985H59.5938V8.4375Z" fill="white"/>
<path d="M63.8438 13.9964C63.0717 13.9964 62.6368 13.4304 62.6368 12.4464C62.6368 11.4704 63.0717 10.8994 63.8438 10.8994C64.6137 10.8994 65.0518 11.4704 65.0518 12.4464C65.0518 13.4264 64.6137 13.9964 63.8438 13.9964ZM63.8438 14.7864C65.1597 14.7864 65.9668 13.9054 65.9668 12.4464C65.9668 10.9944 65.1558 10.1094 63.8438 10.1094C62.5297 10.1094 61.7188 10.9944 61.7188 12.4464C61.7188 13.9054 62.5258 14.7864 63.8438 14.7864Z" fill="white"/>
<path d="M68.6313 14.0254C68.1473 14.0254 67.7963 13.7894 67.7963 13.3844C67.7963 12.9874 68.0773 12.7764 68.6973 12.7354L69.7973 12.6644V13.0414C69.7973 13.5994 69.3013 14.0254 68.6313 14.0254ZM68.4033 14.7734C68.9953 14.7734 69.4873 14.5174 69.7563 14.0664H69.8263V14.6994H70.6823V11.6224C70.6823 10.6714 70.0453 10.1094 68.9163 10.1094C67.8943 10.1094 67.1673 10.6054 67.0763 11.3794H67.9363C68.0353 11.0604 68.3793 10.8784 68.8753 10.8784C69.4823 10.8784 69.7973 11.1474 69.7973 11.6224V12.0114L68.5773 12.0814C67.5063 12.1484 66.9023 12.6154 66.9023 13.4264C66.9023 14.2484 67.5353 14.7734 68.4033 14.7734Z" fill="white"/>
<path d="M73.9697 10.9195C74.7137 10.9195 75.1817 11.5105 75.1817 12.4495C75.1817 13.3915 74.7187 13.9745 73.9697 13.9745C73.2167 13.9745 72.7657 13.4005 72.7657 12.4455C72.7657 11.4975 73.2217 10.9195 73.9697 10.9195ZM73.7177 14.7725C74.3377 14.7725 74.8627 14.4795 75.1317 13.9875H75.2017V14.6985H76.0537V8.4375H75.1647V10.9105H75.0977C74.8537 10.4145 74.3337 10.1205 73.7177 10.1205C72.5797 10.1205 71.8477 11.0225 71.8477 12.4455C71.8477 13.8715 72.5717 14.7725 73.7177 14.7725Z" fill="white"/>
<path d="M81.8555 13.9964C81.0835 13.9964 80.6485 13.4304 80.6485 12.4464C80.6485 11.4704 81.0835 10.8994 81.8555 10.8994C82.6255 10.8994 83.0635 11.4704 83.0635 12.4464C83.0635 13.4264 82.6255 13.9964 81.8555 13.9964ZM81.8555 14.7864C83.1715 14.7864 83.9775 13.9054 83.9775 12.4464C83.9775 10.9944 83.1675 10.1094 81.8555 10.1094C80.5415 10.1094 79.7305 10.9944 79.7305 12.4464C79.7305 13.9054 80.5375 14.7864 81.8555 14.7864Z" fill="white"/>
<path d="M85.1719 10.1964H86.0269V10.9114H86.0939C86.3119 10.4114 86.7599 10.1094 87.4369 10.1094C88.4419 10.1094 88.9959 10.7134 88.9959 11.7844V14.6994H88.1069V12.0074C88.1069 11.2844 87.7929 10.9244 87.1359 10.9244C86.4779 10.9244 86.0599 11.3624 86.0599 12.0654V14.6994H85.1719V10.1964Z" fill="white"/>
<path d="M94.0142 9.07422V10.2162H94.9902V10.9642H94.0142V13.2802C94.0142 13.7512 94.2092 13.9582 94.6512 13.9582C94.7882 13.9582 94.8662 13.9502 94.9902 13.9372V14.6782C94.8307 14.7065 94.6691 14.7215 94.5072 14.7232C93.5182 14.7232 93.1252 14.3752 93.1252 13.5072V10.9642H92.4102V10.2162H93.1252V9.07422H94.0142Z" fill="white"/>
<path d="M96.207 8.4375H97.088V10.9195H97.158C97.377 10.4145 97.852 10.1125 98.531 10.1125C99.49 10.1125 100.082 10.7205 100.082 11.7915V14.6985H99.192V12.0105C99.192 11.2915 98.857 10.9275 98.229 10.9275C97.501 10.9275 97.096 11.3865 97.096 12.0685V14.6985H96.207V8.4375Z" fill="white"/>
<path d="M103.302 10.8664C103.96 10.8664 104.39 11.3254 104.41 12.0324H102.136C102.185 11.3294 102.644 10.8664 103.302 10.8664ZM104.406 13.4834C104.241 13.8354 103.873 14.0294 103.335 14.0294C102.624 14.0294 102.165 13.5294 102.136 12.7394V12.6894H105.315V12.3794C105.315 10.9654 104.559 10.1094 103.307 10.1094C102.037 10.1094 101.23 11.0234 101.23 12.4624C101.23 13.9014 102.02 14.7864 103.31 14.7864C104.34 14.7864 105.059 14.2904 105.262 13.4834H104.406Z" fill="white"/>
</g>
<defs>
<clipPath id="clip0_47_90824">
<rect width="120" height="40" fill="white" transform="translate(0.5)"/>
</clipPath>
</defs>
</svg>
