<svg width="18" height="18" viewBox="0 0 18 18" fill="none" xmlns="http://www.w3.org/2000/svg">
<mask id="mask0_0_203" style="mask-type:luminance" maskUnits="userSpaceOnUse" x="-3" y="-2" width="23" height="23">
<rect x="-2.84189" y="-1.89729" width="22.7351" height="22.7351" fill="white"/>
</mask>
<g mask="url(#mask0_0_203)">
<path fill-rule="evenodd" clip-rule="evenodd" d="M16.1048 8.52473H17.9994C17.9994 3.66509 14.3305 0 9.46423 0V1.8946C13.3122 1.8946 16.1048 4.68249 16.1048 8.52473Z" fill="#4EAC6D"/>
<path fill-rule="evenodd" clip-rule="evenodd" d="M9.47325 5.68329C11.4654 5.68329 12.3151 6.53301 12.3151 8.52518H14.2097C14.2097 5.47014 12.5283 3.78869 9.47325 3.78869V5.68329ZM12.7149 10.8394C12.3369 10.4956 11.7534 10.5136 11.3972 10.8802L9.13032 13.2115C8.58468 13.1073 7.48771 12.7653 6.35853 11.639C5.22935 10.5088 4.88738 9.40901 4.78602 8.86716L7.11542 6.59933C7.48297 6.24314 7.50003 5.66056 7.15616 5.28164L3.65589 1.43277C3.31202 1.0529 2.72754 1.0169 2.3382 1.35035L0.282562 3.11327C0.118679 3.2781 0.0211078 3.49598 0.0078455 3.72807C-0.00636406 3.96489 -0.277291 9.57479 4.0727 13.9267C7.86758 17.7206 12.6211 17.9982 13.9303 17.9982C14.1216 17.9982 14.2391 17.9925 14.2704 17.9906C14.5024 17.9773 14.7203 17.8797 14.8842 17.7149L16.6462 15.6583C16.9806 15.269 16.9427 14.6855 16.5647 14.3406L12.7149 10.8394Z" fill="#4EAC6D"/>
</g>
</svg>
