<svg width="20" height="20" viewBox="0 0 20 20" fill="none" xmlns="http://www.w3.org/2000/svg">
<path d="M19.6682 4.94942C19.0282 2.77942 17.2182 0.969416 15.0482 0.329416C13.3982 -0.150584 12.2582 -0.110584 11.4682 0.479416C10.5182 1.18942 10.4082 2.46942 10.4082 3.37942V5.86942C10.4082 8.32942 11.5282 9.57942 13.7282 9.57942H16.5982C17.4982 9.57942 18.7882 9.46942 19.4982 8.51942C20.1082 7.73942 20.1582 6.59942 19.6682 4.94942Z" fill="#B0B0B0"/>
<path d="M16.9075 11.3611C16.6475 11.0611 16.2675 10.8911 15.8775 10.8911H12.2975C10.5375 10.8911 9.10746 9.46113 9.10746 7.70113V4.12113C9.10746 3.73113 8.93746 3.35113 8.63746 3.09113C8.34746 2.83113 7.94746 2.71113 7.56746 2.76113C5.21746 3.06113 3.05746 4.35113 1.64746 6.29113C0.227457 8.24113 -0.292543 10.6211 0.157457 13.0011C0.807457 16.4411 3.55746 19.1911 7.00746 19.8411C7.55746 19.9511 8.10746 20.0011 8.65746 20.0011C10.4675 20.0011 12.2175 19.4411 13.7075 18.3511C15.6475 16.9411 16.9375 14.7811 17.2375 12.4311C17.2875 12.0411 17.1675 11.6511 16.9075 11.3611Z" fill="#B0B0B0"/>
</svg>
