<svg width="30" height="30" viewBox="0 0 30 30" fill="none" xmlns="http://www.w3.org/2000/svg">
<g clip-path="url(#clip0_47_27209)">
<path d="M20.7281 4.05068C21.0375 3.93818 16.0406 0.825676 9.01872 2.1288C1.99685 3.43193 0.58122 8.8788 1.98747 11.9444C3.39372 15.0101 6.44997 16.3882 9.8156 14.4569C13.1812 12.5257 17.625 5.23193 20.7281 4.05068Z" fill="#16577F"/>
<path d="M18.4596 4.61174C18.7502 4.50861 13.3877 1.43361 7.7158 2.81174C2.04393 4.18986 1.20018 8.89611 2.51268 11.4367C3.82518 13.9774 6.41268 15.0367 9.07518 13.2555C11.7377 11.4742 15.9846 5.74611 18.4596 4.61174Z" fill="#1389E3"/>
<path d="M16.6784 4.53687C14.9303 3.73615 13.0177 3.36036 11.0967 3.4402C9.17565 3.52004 7.30077 4.05324 5.62523 4.99625C-0.0841482 8.23062 4.5096 14.0619 7.1346 12.8056C9.7596 11.5494 13.1252 6.41187 16.6784 4.53687Z" fill="#7BC9DB"/>
<path d="M13.7437 4.62145C13.7437 4.62145 7.62187 4.04957 4.62187 6.73082C1.62187 9.41207 5.71874 13.2933 9.00937 10.0402C10.7412 8.37425 12.3253 6.5612 13.7437 4.62145Z" fill="url(#paint0_linear_47_27209)"/>
<path d="M29.8029 7.2743C30.0092 7.18993 26.5873 5.07117 21.9186 6.0368C17.2498 7.00242 16.4061 10.818 17.3998 12.9274C18.3936 15.0368 20.4842 15.9837 22.6967 14.6055C24.9092 13.2274 27.7498 8.12743 29.8029 7.2743Z" fill="#16577F"/>
<path d="M28.772 7.36009C28.9408 7.28509 25.3689 5.04446 21.4502 5.86009C17.5314 6.67571 16.8189 9.86321 17.6533 11.6445C18.4877 13.4257 20.2408 14.2038 22.097 13.0507C23.9533 11.8976 27.0377 8.07259 28.772 7.36009Z" fill="#1389E3"/>
<path d="M27.5438 7.25673C26.3724 6.65919 25.076 6.34766 23.761 6.34766C22.446 6.34766 21.1496 6.65919 19.9782 7.25673C15.9657 9.33798 18.9563 13.4536 20.7938 12.6567C22.6313 11.8599 25.0407 8.43798 27.5438 7.25673Z" fill="#7BC9DB"/>
<path d="M25.5375 7.23843C25.5375 7.23843 21.3563 6.69468 19.2281 8.43843C17.1 10.1822 19.8094 12.9759 22.1531 10.8103C23.3824 9.71974 24.5148 8.52464 25.5375 7.23843Z" fill="url(#paint1_linear_47_27209)"/>
<path d="M15.7405 13.8008C15.7405 13.8008 7.06859 17.1102 4.59359 22.0227C2.11859 26.9352 8.34359 30.5164 12.3186 27.3945C16.2936 24.2727 15.7405 13.8008 15.7405 13.8008Z" fill="#16577F"/>
<path d="M14.4655 15.1875C14.4655 15.1875 7.71553 17.8125 5.78428 21.5625C3.85303 25.3125 8.69053 28.1812 11.803 25.7437C14.9155 23.3062 14.4655 15.1875 14.4655 15.1875Z" fill="#1389E3"/>
<path d="M13.8842 16.1992C13.8842 16.1992 8.58736 18.2148 7.07799 21.2148C5.56861 24.2148 9.35611 26.3992 11.7655 24.4867C14.1749 22.5742 13.8842 16.1992 13.8842 16.1992Z" fill="#7BC9DB"/>
<path d="M13.2468 17.2227C13.2468 17.2227 9.49679 18.6664 8.39054 20.8039C7.28429 22.9414 10.0124 24.507 11.7562 23.1477C13.4999 21.7883 13.2468 17.2227 13.2468 17.2227Z" fill="url(#paint2_linear_47_27209)"/>
<path d="M23.9719 24.4597C24.8348 24.511 25.6719 24.7739 26.4093 25.2251C27.1466 25.6764 27.7616 26.3021 28.2 27.0472C28.3036 27.212 28.3725 27.3961 28.4026 27.5884C28.4327 27.7807 28.4233 27.9771 28.3751 28.1657C28.3268 28.3543 28.2407 28.5311 28.122 28.6853C28.0033 28.8395 27.8544 28.9679 27.6844 29.0628C26.4746 29.7209 25.1194 30.0656 23.7422 30.0656C22.365 30.0656 21.0098 29.7209 19.8 29.0628C19.4469 28.842 19.1943 28.4917 19.0961 28.087C18.998 27.6822 19.0622 27.2552 19.275 26.8972C19.7754 26.1168 20.4714 25.4812 21.2938 25.0535C22.1163 24.6259 23.0364 24.4211 23.9625 24.4597H23.9719Z" fill="#425763"/>
<path d="M23.9341 25.031C24.6574 25.0651 25.3626 25.2686 25.9928 25.6253C26.623 25.9819 27.1606 26.4816 27.5623 27.0841C27.6571 27.2153 27.7215 27.3661 27.7506 27.5254C27.7798 27.6847 27.773 27.8484 27.7308 28.0048C27.6885 28.1611 27.6119 28.306 27.5066 28.429C27.4012 28.5519 27.2697 28.6497 27.1216 28.7154C26.0499 29.2165 24.8779 29.466 23.695 29.4449C22.5121 29.4238 21.3497 29.1326 20.2966 28.5935C20.1555 28.52 20.0319 28.417 19.9343 28.2915C19.8366 28.1659 19.7671 28.0208 19.7307 27.8659C19.6942 27.7111 19.6915 27.5502 19.7229 27.3943C19.7542 27.2383 19.8188 27.091 19.9123 26.9622C20.3611 26.332 20.9613 25.8248 21.6576 25.4873C22.3538 25.1498 23.1238 24.9929 23.8966 25.031H23.9341Z" fill="#A2B6BA"/>
<path d="M23.9158 25.1159C24.5062 25.141 25.0822 25.3052 25.5971 25.5952C26.1119 25.8852 26.5509 26.2928 26.8783 26.7847C26.9488 26.895 26.9954 27.0188 27.0151 27.1483C27.0348 27.2777 27.0272 27.4098 26.9927 27.5361C26.9583 27.6623 26.8978 27.78 26.8151 27.8815C26.7324 27.983 26.6294 28.066 26.5127 28.1253C25.6395 28.5332 24.6846 28.736 23.7211 28.7181C22.7575 28.7002 21.8108 28.4622 20.9533 28.0222C20.841 27.9595 20.7428 27.8744 20.6648 27.7722C20.5868 27.6699 20.5307 27.5527 20.4999 27.4279C20.4691 27.303 20.4644 27.1732 20.4859 27.0464C20.5075 26.9196 20.5549 26.7986 20.6252 26.6909C20.99 26.177 21.4784 25.7632 22.0453 25.488C22.6123 25.2127 23.2395 25.0847 23.8689 25.1159H23.9158Z" fill="#87999B"/>
<path d="M23.5501 27.7594C26.9052 27.7594 29.6251 25.0395 29.6251 21.6844C29.6251 18.3292 26.9052 15.6094 23.5501 15.6094C20.195 15.6094 17.4751 18.3292 17.4751 21.6844C17.4751 25.0395 20.195 27.7594 23.5501 27.7594Z" fill="#425763"/>
<path d="M23.5499 26.8879C26.5322 26.8879 28.9499 24.4702 28.9499 21.4879C28.9499 18.5056 26.5322 16.0879 23.5499 16.0879C20.5676 16.0879 18.1499 18.5056 18.1499 21.4879C18.1499 24.4702 20.5676 26.8879 23.5499 26.8879Z" fill="#A2B6BA"/>
<path d="M23.7658 26.0258C26.5203 26.0258 28.7533 23.7928 28.7533 21.0383C28.7533 18.2838 26.5203 16.0508 23.7658 16.0508C21.0113 16.0508 18.7783 18.2838 18.7783 21.0383C18.7783 23.7928 21.0113 26.0258 23.7658 26.0258Z" fill="#CBDEE4"/>
<path d="M26.5032 20.6148C27.1142 20.6148 27.6095 20.1196 27.6095 19.5086C27.6095 18.8976 27.1142 18.4023 26.5032 18.4023C25.8923 18.4023 25.397 18.8976 25.397 19.5086C25.397 20.1196 25.8923 20.6148 26.5032 20.6148Z" fill="#425763"/>
<path d="M26.5499 20.1086C26.9175 20.1086 27.2155 19.8106 27.2155 19.443C27.2155 19.0754 26.9175 18.7773 26.5499 18.7773C26.1823 18.7773 25.8843 19.0754 25.8843 19.443C25.8843 19.8106 26.1823 20.1086 26.5499 20.1086Z" fill="#4ED154"/>
<path d="M22.5468 19.0781C22.634 18.5277 22.8328 18.0009 23.1311 17.5302C23.4293 17.0594 23.8207 16.6546 24.2812 16.3406C24.478 16.2281 24.4405 16.1062 24.2249 16.0781H23.9343C23.6999 16.0781 22.0593 16.1531 21.478 19.1625L22.5468 19.0781Z" fill="#A2B6BA"/>
<path d="M25.3124 22.143C25.3124 20.2479 23.8769 18.7117 22.1062 18.7117C20.3354 18.7117 18.8999 20.2479 18.8999 22.143C18.8999 24.038 20.3354 25.5742 22.1062 25.5742C23.8769 25.5742 25.3124 24.038 25.3124 22.143Z" fill="#425763"/>
<path d="M24.7095 22.084C24.7147 20.6394 23.6235 19.4643 22.2722 19.4594C20.9208 19.4544 19.821 20.6215 19.8157 22.066C19.8104 23.5106 20.9016 24.6857 22.253 24.6906C23.6044 24.6956 24.7042 23.5285 24.7095 22.084Z" fill="#3587C4"/>
<path d="M24.3067 21.9884C24.3111 20.7872 23.4038 19.81 22.2803 19.8059C21.1567 19.8018 20.2424 20.7722 20.238 21.9735C20.2335 23.1747 21.1408 24.1518 22.2643 24.1559C23.3879 24.16 24.3023 23.1896 24.3067 21.9884Z" fill="#4DA3EC"/>
<path d="M23.4179 20.9853C23.4191 20.6694 23.1514 20.4124 22.82 20.4112C22.4886 20.41 22.2191 20.665 22.2179 20.9809C22.2168 21.2967 22.4844 21.5537 22.8158 21.5549C23.1472 21.5561 23.4168 21.3011 23.4179 20.9853Z" fill="white"/>
<path d="M23.6908 17.5119C23.9356 17.2469 24.1988 16.9994 24.4783 16.7713C24.5302 16.7294 24.5913 16.7008 24.6566 16.6877C24.7219 16.6746 24.7894 16.6776 24.8533 16.6963C25.3899 16.854 25.9036 17.0809 26.3815 17.3713C26.4601 17.421 26.5201 17.4952 26.5522 17.5825C26.5842 17.6698 26.5865 17.7653 26.5587 17.854C26.5309 17.9428 26.4746 18.0199 26.3984 18.0733C26.3223 18.1267 26.2306 18.1535 26.1377 18.1494C25.4406 18.1052 24.7409 18.124 24.0471 18.2057C23.9639 18.2126 23.8805 18.1946 23.8074 18.1541C23.7344 18.1135 23.6751 18.0522 23.6369 17.9779C23.5988 17.9036 23.5835 17.8197 23.5931 17.7367C23.6027 17.6538 23.6367 17.5755 23.6908 17.5119Z" fill="#E1F0F4"/>
</g>
<defs>
<linearGradient id="paint0_linear_47_27209" x1="14.2014" y1="6.47076" x2="3.57993" y2="9.20826" gradientUnits="userSpaceOnUse">
<stop stop-color="white"/>
<stop offset="1" stop-color="#7BC9DB"/>
</linearGradient>
<linearGradient id="paint1_linear_47_27209" x1="46.317" y1="19.1718" x2="38.9578" y2="20.7487" gradientUnits="userSpaceOnUse">
<stop stop-color="white"/>
<stop offset="1" stop-color="#7BC9DB"/>
</linearGradient>
<linearGradient id="paint2_linear_47_27209" x1="13.8156" y1="20.0266" x2="8.02744" y2="21.1488" gradientUnits="userSpaceOnUse">
<stop stop-color="white"/>
<stop offset="1" stop-color="#7BC9DB"/>
</linearGradient>
<clipPath id="clip0_47_27209">
<rect width="30" height="30" fill="white"/>
</clipPath>
</defs>
</svg>
