<svg width="8" height="5" viewBox="0 0 8 5" fill="none" xmlns="http://www.w3.org/2000/svg">
<path fill-rule="evenodd" clip-rule="evenodd" d="M3.59143 4.61489C3.64637 4.66958 3.7116 4.71285 3.78335 4.74219C3.8551 4.77152 3.93196 4.78636 4.00948 4.78582C4.08699 4.78529 4.16364 4.76941 4.23498 4.73909C4.30633 4.70877 4.37096 4.66462 4.42514 4.60918L7.81771 1.22689C7.87508 1.17262 7.92083 1.10725 7.95216 1.03476C7.9835 0.962261 7.99977 0.884156 8 0.80518C7.99948 0.690035 7.96514 0.577581 7.90123 0.481796C7.83733 0.386011 7.74668 0.31112 7.64056 0.266431C7.53444 0.221742 7.41753 0.209227 7.30435 0.230441C7.19118 0.251655 7.08673 0.305663 7.004 0.385752L7.00229 0.383466L4.016 3.34918L1.008 0.386323L1.00571 0.388609C0.923886 0.305621 0.819222 0.24885 0.705036 0.225517C0.590851 0.202183 0.472305 0.213343 0.36448 0.257576C0.256655 0.301809 0.164424 0.377115 0.0995206 0.473916C0.0346171 0.570716 -2.54305e-05 0.684635 1.40065e-08 0.80118C1.40065e-08 0.971466 0.0742857 1.12175 0.190286 1.22861L3.59029 4.61718L3.59143 4.61489Z" fill="white"/>
</svg>
