<svg width="16" height="16" viewBox="0 0 16 16" fill="none" xmlns="http://www.w3.org/2000/svg">
<path fill-rule="evenodd" clip-rule="evenodd" d="M8.00065 1.83203C4.5949 1.83203 1.83398 4.59294 1.83398 7.9987C1.83398 11.4044 4.5949 14.1654 8.00065 14.1654C11.4064 14.1654 14.1673 11.4044 14.1673 7.9987C14.1673 4.59294 11.4064 1.83203 8.00065 1.83203ZM0.833984 7.9987C0.833984 4.04066 4.04261 0.832031 8.00065 0.832031C11.9587 0.832031 15.1673 4.04066 15.1673 7.9987C15.1673 11.9568 11.9587 15.1654 8.00065 15.1654C4.04261 15.1654 0.833984 11.9568 0.833984 7.9987ZM8.00065 4.16536C8.27678 4.16536 8.50065 4.38922 8.50065 4.66536V7.9533L10.9447 9.5827C11.1745 9.73583 11.2365 10.0463 11.0833 10.276C10.9302 10.5058 10.6197 10.5679 10.39 10.4147L7.72332 8.63696C7.58418 8.54423 7.50065 8.3881 7.50065 8.2209V4.66536C7.50065 4.38922 7.72452 4.16536 8.00065 4.16536Z" fill="#3D4047"/>
</svg>
