<svg width="24" height="24" viewBox="0 0 24 24" fill="none" xmlns="http://www.w3.org/2000/svg">
<path d="M17.7703 10.3181L16.5703 9.81805L18.0003 9.05805C18.8781 8.59392 19.5357 7.80007 19.8282 6.85114C20.1208 5.90221 20.0244 4.87592 19.5603 3.99805C19.0961 3.12019 18.3023 2.46265 17.3534 2.17009C16.4044 1.87754 15.3781 1.97392 14.5003 2.43805L6.00027 6.93805C5.37549 7.26449 4.85568 7.76085 4.50078 8.3699C4.14587 8.97896 3.97032 9.67592 3.99436 10.3804C4.0184 11.0849 4.24106 11.7683 4.63666 12.3518C5.03225 12.9352 5.58469 13.395 6.23027 13.6781L7.43027 14.1681L6.00027 14.9281C5.14959 15.4077 4.51957 16.2003 4.24422 17.1372C3.96886 18.0742 4.06988 19.0816 4.52579 19.9453C4.98171 20.8089 5.75655 21.4606 6.68553 21.7618C7.61451 22.063 8.62435 21.9899 9.50027 21.5581L18.0003 17.0581C18.625 16.7316 19.1449 16.2353 19.4998 15.6262C19.8547 15.0171 20.0302 14.3202 20.0062 13.6157C19.9821 12.9112 19.7595 12.2278 19.3639 11.6444C18.9683 11.0609 18.4158 10.6011 17.7703 10.3181Z" fill="#FF0000"/>
<path d="M10 14.6477L15 11.9977L10 9.34766V14.6477Z" fill="white"/>
</svg>
