<svg width="80" height="30" viewBox="0 0 80 30" fill="none" xmlns="http://www.w3.org/2000/svg">
<rect width="79.0364" height="29.9992" rx="6.92109" fill="#EFF3FA" fill-opacity="0.4"/>
<path d="M18.4611 17.7379C18.3688 17.7379 18.2823 17.709 18.2015 17.6513C18.0111 17.5071 17.9707 17.236 18.1149 17.0456C19.0207 15.8399 19.0207 14.1553 18.1149 12.9495C17.9707 12.7592 18.0111 12.488 18.2015 12.3438C18.3919 12.1996 18.663 12.2399 18.8072 12.4303C19.938 13.9418 19.938 16.0533 18.8072 17.5648C18.7207 17.6802 18.5938 17.7379 18.4611 17.7379Z" fill="white"/>
<path d="M19.5168 19.1806C19.4245 19.1806 19.3379 19.1518 19.2572 19.0941C19.0668 18.9499 19.0264 18.6787 19.1706 18.4883C20.711 16.4346 20.711 13.5616 19.1706 11.5078C19.0264 11.3174 19.0668 11.0462 19.2572 10.902C19.4476 10.7578 19.7187 10.7982 19.8629 10.9885C21.634 13.3481 21.634 16.648 19.8629 19.0076C19.7822 19.1229 19.6495 19.1806 19.5168 19.1806Z" fill="white"/>
<path d="M16.1649 10.2599C15.5188 9.90224 14.6938 9.99454 13.8515 10.5195L12.167 11.5753C12.0516 11.6445 11.9189 11.6849 11.7862 11.6849H11.2497H10.9612C9.56511 11.6849 8.79782 12.4522 8.79782 13.8483V16.1559C8.79782 17.552 9.56511 18.3193 10.9612 18.3193H11.2497H11.7862C11.9189 18.3193 12.0516 18.3597 12.167 18.4289L13.8515 19.4847C14.3592 19.802 14.8554 19.9577 15.3169 19.9577C15.6169 19.9577 15.9053 19.8885 16.1649 19.7443C16.8053 19.3866 17.163 18.6424 17.163 17.6501V12.3541C17.163 11.3618 16.8053 10.6176 16.1649 10.2599Z" fill="white"/>
<rect opacity="0.6" x="70.9595" y="14.4217" width="1.15382" height="43.2681" rx="0.576758" transform="rotate(90 70.9595 14.4217)" fill="white"/>
<rect x="53.0755" y="13.8434" width="2.30763" height="25.3839" rx="1.15352" transform="rotate(90 53.0755 13.8434)" fill="#4A74EA"/>
<circle cx="53.0754" cy="14.9984" r="2.30763" transform="rotate(90 53.0754 14.9984)" fill="white"/>
</svg>
