<svg width="396" height="130" viewBox="0 0 396 130" fill="none" xmlns="http://www.w3.org/2000/svg">
<g clip-path="url(#clip0_47_69984)">
<path d="M51.0745 101.039C23.3283 101.039 9.65724e-07 78.4219 9.65724e-07 50.6466C-0.00548031 22.8714 23.3228 0.253906 51.0745 0.253906C66.4221 0.253906 77.3518 6.27865 85.5737 14.1415L75.8718 23.8535C69.9794 18.3226 61.9987 14.0208 51.069 14.0208C30.8103 14.0208 14.9694 30.3666 14.9694 50.6466C14.9694 70.9266 30.8103 87.2724 51.069 87.2724C64.2077 87.2724 71.6951 81.9884 76.4857 77.1928C80.4158 73.2586 82.992 67.607 83.9731 59.8648H51.0745V46.1034H97.3639C97.8572 48.5616 98.0984 51.5136 98.0984 54.707C98.0984 65.0336 95.2755 77.8128 86.1876 86.9103C77.3463 96.123 66.0549 101.039 51.0745 101.039Z" fill="#80868B"/>
<path d="M167.574 68.3682C167.574 87.0514 152.966 100.813 135.037 100.813C117.113 100.813 102.5 87.046 102.5 68.3682C102.5 49.5642 117.113 35.918 135.037 35.918C152.966 35.918 167.574 49.5642 167.574 68.3682ZM153.333 68.3682C153.333 56.6918 144.859 48.7027 135.037 48.7027C125.214 48.7027 116.74 56.6918 116.74 68.3682C116.74 79.9183 125.214 88.0336 135.037 88.0336C144.859 88.0336 153.333 79.9183 153.333 68.3682Z" fill="#80868B"/>
<path d="M238.282 68.3682C238.282 87.0514 223.675 100.813 205.745 100.813C187.822 100.813 173.208 87.046 173.208 68.3682C173.208 49.5642 187.822 35.918 205.745 35.918C223.675 35.918 238.282 49.5642 238.282 68.3682ZM224.042 68.3682C224.042 56.6918 215.568 48.7027 205.745 48.7027C195.923 48.7027 187.449 56.6918 187.449 68.3682C187.449 79.9183 195.923 88.0336 205.745 88.0336C215.568 88.0336 224.042 79.9183 224.042 68.3682Z" fill="#80868B"/>
<path d="M306.047 37.9427V96.1434C306.047 120.111 291.927 129.943 275.232 129.943C259.517 129.943 250.062 119.375 246.499 110.772L258.897 105.609C261.106 110.893 266.511 117.159 275.226 117.159C285.909 117.159 292.536 110.519 292.536 98.1078V93.4383H292.048C288.858 97.3725 282.713 100.813 274.979 100.813C258.771 100.813 243.917 86.6783 243.917 68.4889C243.917 50.1732 258.771 35.918 274.979 35.918C282.713 35.918 288.852 39.3583 292.048 43.1718H292.536V37.9427H306.047ZM293.523 68.4889C293.523 57.0594 285.909 48.7027 276.213 48.7027C266.39 48.7027 258.163 57.0594 258.163 68.4889C258.163 79.7976 266.39 88.0336 276.213 88.0336C285.909 88.0336 293.523 79.7976 293.523 68.4889Z" fill="#80868B"/>
<path d="M329.962 3.54688V98.9221H315.722V3.54688H329.962Z" fill="#80868B"/>
<path d="M383.755 79.0569L394.805 86.4314C391.242 91.7154 382.648 100.813 367.793 100.813C349.376 100.813 336.002 86.5576 336.002 68.3682C336.002 49.0703 349.497 35.918 366.198 35.918C383.02 35.918 391.248 49.3173 393.945 56.5656L395.419 60.2529L352.079 78.1954C355.395 84.7085 360.553 88.0281 367.793 88.0281C375.04 88.0281 380.071 84.4616 383.755 79.0569ZM349.743 67.3805L378.718 55.3365C377.122 51.2816 372.332 48.4558 366.686 48.4558C359.445 48.4503 349.376 54.8427 349.743 67.3805Z" fill="#80868B"/>
</g>
<defs>
<clipPath id="clip0_47_69984">
<rect width="396" height="130" fill="white"/>
</clipPath>
</defs>
</svg>
