<svg width="25" height="25" viewBox="0 0 25 25" fill="none" xmlns="http://www.w3.org/2000/svg">
<path d="M11.3636 0C5.08767 0 0 5.08767 0 11.3636C0 17.6395 5.08767 22.7273 11.3636 22.7273C17.6395 22.7273 22.7273 17.6395 22.7273 11.3636C22.7273 8.34982 21.53 5.45943 19.399 3.32833C17.2678 1.19724 14.3775 0 11.3636 0ZM11.3636 3.40909C13.2465 3.40909 14.7727 4.9354 14.7727 6.81818C14.7727 8.70097 13.2465 10.2273 11.3636 10.2273C9.48085 10.2273 7.95455 8.70097 7.95455 6.81818C7.95455 4.9354 9.48085 3.40909 11.3636 3.40909ZM17.75 16.0909C16.2493 18.1118 13.8808 19.3032 11.3636 19.3032C8.84651 19.3032 6.47791 18.1118 4.97727 16.0909C4.7491 15.7537 4.71876 15.3202 4.89773 14.9545L5.13636 14.4545C5.69873 13.2625 6.89786 12.5014 8.21591 12.5H14.5114C15.8109 12.5017 16.9964 13.2422 17.5682 14.4091L17.8295 14.9432C18.013 15.3119 17.9825 15.751 17.75 16.0909Z" fill="#484848"/>
</svg>
