<svg width="36" height="36" viewBox="0 0 36 36" fill="none" xmlns="http://www.w3.org/2000/svg">
<path d="M5 18C5 10.82 10.597 5 17.5 5C24.404 5 30 10.82 30 18C30 25.18 24.404 31 17.5 31C10.597 31 5 25.18 5 18Z" fill="#212121"/>
<path d="M17.906 5C10.78 5 5 10.778 5 17.906C5 23.376 8.4 28.05 13.2 29.931C13.084 28.911 12.988 27.339 13.243 26.223C13.477 25.214 14.751 19.807 14.751 19.807C14.751 19.807 14.369 19.032 14.369 17.895C14.369 16.1 15.41 14.762 16.706 14.762C17.811 14.762 18.342 15.59 18.342 16.578C18.342 17.683 17.641 19.34 17.269 20.88C16.961 22.166 17.917 23.217 19.181 23.217C21.475 23.217 23.239 20.795 23.239 17.311C23.239 14.22 21.019 12.064 17.843 12.064C14.167 12.064 12.011 14.814 12.011 17.662C12.011 18.766 12.436 19.956 12.967 20.604C13.0124 20.6532 13.0441 20.7134 13.059 20.7787C13.0739 20.8439 13.0715 20.912 13.052 20.976C12.956 21.38 12.733 22.261 12.691 22.442C12.638 22.676 12.5 22.729 12.255 22.612C10.641 21.858 9.631 19.51 9.631 17.609C9.631 13.54 12.584 9.801 18.161 9.801C22.633 9.801 26.118 12.988 26.118 17.258C26.118 21.708 23.313 25.288 19.425 25.288C18.119 25.288 16.887 24.608 16.472 23.802L15.665 26.872C15.378 27.997 14.592 29.4 14.061 30.26C15.272 30.632 16.547 30.834 17.885 30.834C25.013 30.834 30.791 25.055 30.791 17.927C30.813 10.778 25.034 5 17.906 5Z" fill="white"/>
</svg>
