<svg width="15" height="15" viewBox="0 0 15 15" fill="none" xmlns="http://www.w3.org/2000/svg">
<path d="M7.49605 9.13661C8.61254 9.13661 9.51764 8.23152 9.51764 7.11503C9.51764 5.99854 8.61254 5.09345 7.49605 5.09345C6.37956 5.09345 5.47447 5.99854 5.47447 7.11503C5.47447 8.23152 6.37956 9.13661 7.49605 9.13661Z" stroke="white" stroke-width="1.5" stroke-miterlimit="10" stroke-linecap="round" stroke-linejoin="round"/>
<path d="M0.758094 7.71161V6.52561C0.758094 5.82479 1.33088 5.24527 2.03843 5.24527C3.25812 5.24527 3.75678 4.38273 3.14356 3.32477C2.79316 2.71829 3.00205 1.92987 3.61527 1.57946L4.78105 0.912342C5.3134 0.595627 6.00074 0.784308 6.31745 1.31666L6.39158 1.44469C6.99805 2.50266 7.99537 2.50266 8.60858 1.44469L8.68271 1.31666C8.99942 0.784308 9.68676 0.595627 10.2191 0.912342L11.3849 1.57946C11.9981 1.92987 12.207 2.71829 11.8566 3.32477C11.2434 4.38273 11.742 5.24527 12.9617 5.24527C13.6625 5.24527 14.2421 5.81805 14.2421 6.52561V7.71161C14.2421 8.41242 13.6693 8.99194 12.9617 8.99194C11.742 8.99194 11.2434 9.85448 11.8566 10.9124C12.207 11.5257 11.9981 12.3073 11.3849 12.6577L10.2191 13.3249C9.68676 13.6416 8.99942 13.4529 8.68271 12.9206L8.60858 12.7925C8.00211 11.7346 7.00479 11.7346 6.39158 12.7925L6.31745 12.9206C6.00074 13.4529 5.3134 13.6416 4.78105 13.3249L3.61527 12.6577C3.00205 12.3073 2.79316 11.5189 3.14356 10.9124C3.75678 9.85448 3.25812 8.99194 2.03843 8.99194C1.33088 8.99194 0.758094 8.41242 0.758094 7.71161Z" stroke="white" stroke-width="1.5" stroke-miterlimit="10" stroke-linecap="round" stroke-linejoin="round"/>
</svg>
