<svg width="24" height="24" viewBox="0 0 24 24" fill="none" xmlns="http://www.w3.org/2000/svg">
<g clip-path="url(#clip0_47_82979)">
<mask id="mask0_47_82979" style="mask-type:luminance" maskUnits="userSpaceOnUse" x="0" y="0" width="24" height="24">
<path d="M24 0H0V24H24V0Z" fill="white"/>
</mask>
<g mask="url(#mask0_47_82979)">
<path d="M21.9707 6.46378C21.4547 7.15213 20.8309 7.75258 20.1235 8.24195C20.1235 8.42177 20.1235 8.60158 20.1235 8.79139C20.1292 12.0568 18.8248 15.1879 16.5029 17.4828C14.1809 19.7777 11.0356 21.0443 7.77212 20.9988C5.88539 21.0051 4.02282 20.5743 2.33031 19.7401C2.23905 19.7003 2.18019 19.61 2.18053 19.5103V19.4005C2.18053 19.257 2.29677 19.1407 2.44014 19.1407C4.29476 19.0796 6.0832 18.4366 7.55245 17.3026C5.87377 17.2688 4.36339 16.2744 3.6683 14.7453C3.63319 14.6617 3.64412 14.5659 3.69714 14.4925C3.75017 14.419 3.83762 14.3785 3.92791 14.3856C4.43809 14.4369 4.95338 14.3894 5.44562 14.2458C3.5925 13.8611 2.20008 12.3227 2.0008 10.4397C1.99372 10.3494 2.0342 10.2619 2.10762 10.2088C2.18104 10.1558 2.27678 10.1448 2.36026 10.18C2.85756 10.3994 3.39439 10.515 3.93789 10.5196C2.31411 9.45384 1.61275 7.42672 2.23046 5.58469C2.29422 5.4057 2.44741 5.27347 2.63373 5.2366C2.82005 5.19972 3.01202 5.26365 3.13909 5.40487C5.33028 7.73695 8.341 9.12662 11.5364 9.28088C11.4546 8.95427 11.4143 8.61862 11.4166 8.28191C11.4465 6.51636 12.5389 4.94357 14.1824 4.29986C15.8259 3.65615 17.6953 4.06893 18.9153 5.34494C19.747 5.18651 20.5509 4.90716 21.3017 4.51579C21.3567 4.48145 21.4265 4.48145 21.4815 4.51579C21.5158 4.57081 21.5158 4.64058 21.4815 4.6956C21.1178 5.52835 20.5035 6.2268 19.7241 6.69355C20.4066 6.6144 21.0771 6.45341 21.7211 6.21404C21.7753 6.17713 21.8466 6.17713 21.9008 6.21404C21.9462 6.23482 21.9802 6.27457 21.9937 6.32269C22.0071 6.37081 21.9987 6.42242 21.9707 6.46378Z" fill="#9B9B9B"/>
</g>
</g>
<defs>
<clipPath id="clip0_47_82979">
<rect width="24" height="24" fill="white"/>
</clipPath>
</defs>
</svg>
