<svg width="22" height="22" viewBox="0 0 22 22" fill="none" xmlns="http://www.w3.org/2000/svg">
<path d="M21.7798 3.18909L18.764 0.173291C18.6175 0.0530644 18.4315 -0.00837655 18.2422 0.000919702C18.053 0.010216 17.8739 0.0895847 17.7399 0.223588C17.6059 0.357591 17.5265 0.536647 17.5172 0.725927C17.5079 0.915208 17.5694 1.10118 17.6896 1.24767L17.831 1.37961L12.6382 5.2813L9.02863 6.00697C8.88406 6.03612 8.75035 6.10461 8.64223 6.20488L0.669214 14.1873C0.457215 14.3968 0.288901 14.6463 0.174026 14.9213C0.0591515 15.1963 0 15.4914 0 15.7895C0 16.0875 0.0591515 16.3826 0.174026 16.6576C0.288901 16.9326 0.457215 17.1821 0.669214 17.3916L4.56148 21.2839C4.77097 21.4959 5.02045 21.6642 5.29547 21.7791C5.57049 21.8939 5.86557 21.9531 6.16362 21.9531C6.46166 21.9531 6.75675 21.8939 7.03176 21.7791C7.30678 21.6642 7.55627 21.4959 7.76576 21.2839L15.7482 13.3109C15.8485 13.2027 15.917 13.069 15.9461 12.9245L16.6718 9.31493L20.5735 4.1221L20.7054 4.26347C20.8495 4.40281 21.0421 4.4807 21.2426 4.4807C21.4431 4.4807 21.6357 4.40281 21.7798 4.26347C21.9214 4.12052 22.0008 3.92747 22.0008 3.72628C22.0008 3.52509 21.9214 3.33203 21.7798 3.18909ZM8.42547 18.4943L3.45883 13.5276L7.67152 9.31493L12.6382 14.2816L8.42547 18.4943ZM5.62643 20.2189L1.73417 16.3267C1.66293 16.2565 1.60636 16.1729 1.56774 16.0807C1.52913 15.9884 1.50924 15.8894 1.50924 15.7895C1.50924 15.6895 1.52913 15.5905 1.56774 15.4983C1.60636 15.4061 1.66293 15.3224 1.73417 15.2523L2.39387 14.5926L7.36051 19.5592L6.70081 20.2189C6.55786 20.3605 6.36481 20.4399 6.16362 20.4399C5.96243 20.4399 5.76937 20.3605 5.62643 20.2189ZM15.3618 8.55155C15.2969 8.64158 15.2519 8.74438 15.2299 8.85313L14.5136 12.4061L13.7031 13.2166L8.73647 8.24997L9.54696 7.43948L13.0999 6.72322C13.2087 6.70113 13.3115 6.65616 13.4015 6.59128L18.9054 2.46341L19.4897 3.04772L15.3618 8.55155Z" fill="#3E4B65"/>
</svg>
