<svg width="20" height="20" viewBox="0 0 20 20" fill="none" xmlns="http://www.w3.org/2000/svg">
<path d="M10.767 10.0017L6.97535 6.04334C6.77753 5.83312 6.66738 5.55533 6.66738 5.26667C6.66738 4.97801 6.77753 4.70023 6.97535 4.49001C7.07081 4.38834 7.1861 4.30732 7.31409 4.25193C7.44208 4.19654 7.58006 4.16797 7.71952 4.16797C7.85898 4.16797 7.99696 4.19654 8.12495 4.25193C8.25293 4.30732 8.36822 4.38834 8.46368 4.49001L13.0428 9.26917C13.2295 9.46738 13.3335 9.72939 13.3335 10.0017C13.3335 10.274 13.2295 10.536 13.0428 10.7342L8.46368 15.5133C8.36822 15.615 8.25293 15.696 8.12495 15.7514C7.99696 15.8068 7.85898 15.8354 7.71952 15.8354C7.58006 15.8354 7.44208 15.8068 7.31409 15.7514C7.1861 15.696 7.07081 15.615 6.97535 15.5133C6.77729 15.3031 6.66699 15.0251 6.66699 14.7363C6.66699 14.4474 6.77729 14.1694 6.97535 13.9592L10.767 10.0017Z" fill="#1E1E1E"/>
</svg>
