<svg width="36" height="36" viewBox="0 0 36 36" fill="none" xmlns="http://www.w3.org/2000/svg">
<path d="M30.6232 18.3419C30.6232 11.4589 25.0432 5.87891 18.1612 5.87891C11.2782 5.87891 5.69922 11.4589 5.69922 18.3419C5.69922 24.5619 10.2562 29.7179 16.2142 30.6519V21.9439H13.0502V18.3419H16.2142V15.5959C16.2142 12.4729 18.0742 10.7469 20.9212 10.7469C22.2852 10.7469 23.7112 10.9909 23.7112 10.9909V14.0579H22.1382C20.5902 14.0579 20.1082 15.0179 20.1082 16.0039V18.3419H23.5642L23.0112 21.9439H20.1082V30.6519C26.0662 29.7179 30.6232 24.5619 30.6232 18.3419Z" fill="white"/>
<path d="M23.0128 21.9431L23.5658 18.3411H20.1088V16.0031C20.1088 15.0171 20.5918 14.0571 22.1398 14.0571H23.7118V10.9901C23.7118 10.9901 22.2858 10.7461 20.9218 10.7461C18.0748 10.7461 16.2148 12.4721 16.2148 15.5951V18.3411H13.0508V21.9431H16.2148V30.6511C17.5049 30.8536 18.8187 30.8536 20.1088 30.6511V21.9431H23.0128Z" fill="#212121"/>
</svg>
