<svg width="35" height="40" viewBox="0 0 35 40" fill="none" xmlns="http://www.w3.org/2000/svg">
<path fill-rule="evenodd" clip-rule="evenodd" d="M32.4971 4.99952V37.4966H34.9969V39.9964H0V37.4966H2.4998V4.99952C2.4998 2.24223 4.74203 0 7.49932 0H27.4975C30.2548 0 32.4971 2.24223 32.4971 4.99952ZM24.9977 7.49932H19.9982V12.4988H24.9977V7.49932ZM19.9982 14.9986H24.9977V19.9982H19.9982V14.9986ZM24.9977 22.498H19.9982V27.4975H24.9977V22.498ZM9.99912 7.49932H14.9986V12.4988H9.99912V7.49932ZM14.9986 14.9986H9.99912V19.9982H14.9986V14.9986ZM9.99912 22.498H14.9986V27.4975H9.99912V22.498ZM11.4975 29.9974V37.4967H23.4993V29.9974H11.4975Z" fill="#3347D2"/>
</svg>
