<svg width="35" height="26" viewBox="0 0 35 26" fill="none" xmlns="http://www.w3.org/2000/svg">
<path d="M17.135 2.74169e-10C7.6716 1.2275e-10 1.61751e-10 5.81968 3.61281e-10 12.9986C5.6081e-10 20.1776 7.6716 25.9972 17.135 25.9972C26.5984 25.9972 34.27 20.1776 34.27 12.9986C34.26 5.82289 26.5942 0.00767079 17.135 2.74169e-10ZM24.3512 13.4128C24.2326 13.5933 24.0398 13.7396 23.8017 13.8296L23.8017 13.8342L14.0103 17.5482C13.4056 17.7774 12.6705 17.5914 12.3683 17.1326C12.2824 17.0022 12.2382 16.8583 12.2393 16.7125L12.2393 9.28476C12.239 8.77196 12.7867 8.35611 13.4626 8.35583C13.6527 8.35578 13.8403 8.38929 14.0103 8.45376L23.8017 12.1677C24.4067 12.3964 24.6528 12.9538 24.3512 13.4128Z" fill="#FBCD2D" fill-opacity="0.73"/>
</svg>
