<svg width="16" height="16" viewBox="0 0 16 16" fill="none" xmlns="http://www.w3.org/2000/svg">
<g clip-path="url(#clip0_47_77176)">
<path d="M0.00878906 1.35028C0.00878906 1.75428 0.346789 2.08728 0.764789 2.08728H0.766789V2.09128H2.28879L5.02879 7.69928L4.00079 9.50828C3.87979 9.71528 3.81179 9.95928 3.81179 10.2183C3.81179 11.0293 4.49579 11.6953 5.33479 11.6953H14.4688C14.8858 11.6943 15.2268 11.3613 15.2268 10.9583C15.2268 10.5533 14.8858 10.2223 14.4688 10.2203V10.2183H5.65279C5.54679 10.2183 5.46279 10.1363 5.46279 10.0323L5.48679 9.94428L6.17079 8.73928H11.8418C12.4148 8.73928 12.9168 8.43728 13.1748 7.97928L15.9008 3.18428C15.9598 3.08128 15.9908 2.95528 15.9908 2.82928C15.9908 2.42328 15.6498 2.09128 15.2298 2.09128H3.97179L3.48079 1.07828L3.46579 1.04428C3.34279 0.791281 3.08379 0.613281 2.77779 0.613281H0.764789C0.346789 0.613281 0.00878906 0.944281 0.00878906 1.35028ZM3.81879 13.9123C3.81879 14.7253 4.49579 15.3903 5.33479 15.3903C6.17079 15.3903 6.85679 14.7253 6.85679 13.9123C6.85679 13.0983 6.17079 12.4353 5.33479 12.4353C4.49579 12.4353 3.81879 13.0983 3.81879 13.9123ZM11.4308 13.9123C11.4308 14.7253 12.1098 15.3903 12.9458 15.3903C13.7838 15.3903 14.4688 14.7253 14.4688 13.9123C14.4688 13.0983 13.7838 12.4353 12.9458 12.4353C12.1098 12.4353 11.4308 13.0983 11.4308 13.9123Z" fill="white"/>
</g>
<defs>
<clipPath id="clip0_47_77176">
<rect width="16" height="16" fill="white"/>
</clipPath>
</defs>
</svg>
