<svg width="24" height="24" viewBox="0 0 24 24" fill="none" xmlns="http://www.w3.org/2000/svg">
<g clip-path="url(#clip0_47_69904)">
<path d="M7.5001 21.7984C16.6001 21.7984 21.5001 14.2984 21.5001 7.79844C21.5001 7.59844 21.5001 7.39844 21.5001 7.19844C22.5001 6.49844 23.3001 5.59844 24.0001 4.69844C23.1001 5.09844 22.2001 5.39844 21.2001 5.49844C22.2001 4.89844 23.0001 3.89844 23.4001 2.79844C22.4001 3.39844 21.4001 3.79844 20.3001 3.99844C19.4001 2.99844 18.1001 2.39844 16.7001 2.39844C14.0001 2.39844 11.8001 4.59844 11.8001 7.29844C11.8001 7.69844 11.8001 8.09844 11.9001 8.39844C7.7001 8.09844 4.1001 6.09844 1.7001 3.09844C1.2001 3.89844 1.0001 4.69844 1.0001 5.59844C1.0001 7.29844 1.9001 8.79844 3.2001 9.69844C2.4001 9.69844 1.6001 9.49844 1.0001 9.09844C1.0001 9.09844 1.0001 9.09844 1.0001 9.19844C1.0001 11.5984 2.7001 13.5984 5.0001 13.9984C4.6001 14.0984 4.2001 14.1984 3.7001 14.1984C3.4001 14.1984 3.1001 14.1984 2.8001 14.0984C3.4001 16.0984 5.2001 17.4984 7.4001 17.4984C5.7001 18.7984 3.6001 19.5984 1.3001 19.5984C0.900098 19.5984 0.500098 19.5984 0.100098 19.4984C2.2001 20.8984 4.8001 21.7984 7.5001 21.7984Z" fill="#202124"/>
</g>
<defs>
<clipPath id="clip0_47_69904">
<rect width="24" height="24" fill="white"/>
</clipPath>
</defs>
</svg>
