<svg width="120" height="120" viewBox="0 0 120 120" fill="none" xmlns="http://www.w3.org/2000/svg">
<path d="M118.999 74.7205C118.999 99.3463 102.236 119.004 81.9038 119.004C61.5717 119.004 44.8086 99.3463 44.8086 74.7205C44.8086 50.0948 61.5717 30.4375 81.9038 30.4375C102.236 30.4375 118.999 50.0948 118.999 74.7205Z" stroke="#9F9F9F" stroke-width="2"/>
<path d="M8.80518 1.94467C8.55518 3.27486 8.30915 4.60505 8.05915 5.93524C7.65439 8.10974 7.24963 10.2796 6.84486 12.4541C6.74566 12.9919 6.64248 13.5296 6.54328 14.0673C6.26153 15.5909 6.12264 17.1663 6.19804 18.7277C6.39248 22.6711 7.72185 26.4258 9.98375 29.3315C11.0909 30.7513 12.4401 31.9636 13.8965 32.8315C15.5671 33.8267 17.3369 34.4116 19.1941 34.6097C22.5671 34.9682 26.0949 33.756 28.7814 31.3079C30.1584 30.0531 31.333 28.5862 32.2655 26.8409C33.1108 25.2654 33.7417 23.4777 34.0869 21.6569C34.4401 19.7984 34.5512 17.8598 34.3528 15.9636C34.2615 15.1192 34.1306 14.2937 33.9758 13.4682C33.6108 11.5107 33.2457 9.55314 32.8806 7.59561C32.5473 5.80788 32.2139 4.02486 31.8806 2.23712C31.8607 2.13807 31.8448 2.03901 31.825 1.93995C31.7496 1.54373 31.5155 1.19939 31.2575 0.958824C30.9798 0.704107 30.6544 0.553164 30.2972 0.553164C29.6346 0.553164 28.9718 0.553164 28.3092 0.553164C26.7179 0.553164 25.1266 0.553164 23.5353 0.553164C21.6187 0.553164 19.702 0.553164 17.7814 0.553164C16.1187 0.553164 14.456 0.553164 12.7893 0.553164C11.9838 0.553164 11.1742 0.539013 10.3647 0.553164C10.3528 0.553164 10.3409 0.553164 10.333 0.553164C9.50359 0.553164 8.70598 1.42109 8.74566 2.43995C8.78534 3.46354 9.44407 4.32675 10.333 4.32675C10.9957 4.32675 11.6584 4.32675 12.3211 4.32675C13.9123 4.32675 15.5036 4.32675 17.0949 4.32675C19.0115 4.32675 20.9282 4.32675 22.8488 4.32675C24.5115 4.32675 26.1742 4.32675 27.8409 4.32675C28.6464 4.32675 29.456 4.34561 30.2655 4.32675C30.2774 4.32675 30.2893 4.32675 30.2972 4.32675C29.7854 3.86448 29.2774 3.40222 28.7655 2.93995C29.0393 4.41637 29.3171 5.89278 29.5909 7.37392C30.0076 9.59563 30.4203 11.822 30.8369 14.0437C30.9838 14.822 31.1385 15.6003 31.2258 16.3928C31.206 16.2277 31.1861 16.0579 31.1702 15.8928C31.3171 17.2135 31.3131 18.5437 31.1663 19.8645C31.1861 19.6994 31.206 19.5296 31.2219 19.3645C31.0711 20.6617 30.7814 21.9305 30.3568 23.138C30.4083 22.9871 30.4639 22.8362 30.5155 22.6852C30.0949 23.8692 29.5473 24.9871 28.8885 26.0107C28.9718 25.8833 29.0552 25.756 29.1385 25.6286C28.4758 26.6475 27.7099 27.5579 26.8568 28.3409C26.9639 28.2418 27.0711 28.1428 27.1782 28.0437C26.325 28.822 25.3965 29.4636 24.4123 29.9636C24.5393 29.9022 24.6663 29.8362 24.7933 29.7749C23.7655 30.289 22.6861 30.6428 21.579 30.822C21.7179 30.7984 21.8607 30.7749 21.9996 30.756C20.8806 30.9305 19.7496 30.9305 18.6346 30.756C18.7734 30.7796 18.9163 30.8032 19.0552 30.822C17.948 30.6428 16.8687 30.289 15.8409 29.7749C15.9679 29.8362 16.0949 29.9022 16.2219 29.9636C15.2337 29.4636 14.3052 28.8173 13.456 28.0437C13.5631 28.1428 13.6702 28.2418 13.7774 28.3409C12.9242 27.5531 12.1544 26.6428 11.4957 25.6286C11.579 25.756 11.6623 25.8833 11.7457 26.0107C11.0869 24.9871 10.5433 23.8739 10.1187 22.6852C10.1703 22.8362 10.2258 22.9871 10.2774 23.138C9.8528 21.9305 9.56312 20.6617 9.41232 19.3645C9.43217 19.5296 9.45201 19.6994 9.46788 19.8645C9.32106 18.5437 9.31709 17.2135 9.46391 15.8928C9.44407 16.0579 9.42423 16.2277 9.40836 16.3928C9.48772 15.69 9.62264 14.9965 9.74963 14.3032C9.92423 13.3598 10.0988 12.4211 10.2774 11.4777C10.706 9.17578 11.1385 6.8692 11.5671 4.56731C11.6703 4.02486 11.7695 3.48241 11.8726 2.93995C11.9639 2.44467 11.9322 1.93052 11.7139 1.48712C11.5195 1.09562 11.1425 0.722975 10.7655 0.619202C10.3607 0.510711 9.90439 0.534296 9.54328 0.807881C9.19804 1.07675 8.89645 1.46354 8.80518 1.94467Z" fill="#393D46"/>
<path d="M18.7305 32.8104C18.7305 34.282 18.7305 35.7537 18.7305 37.2207C18.7305 39.565 18.7305 41.9047 18.7305 44.249C18.7305 44.7868 18.7305 45.3198 18.7305 45.8575C18.7305 46.8434 19.4606 47.7915 20.3178 47.7443C21.1789 47.6971 21.9051 46.9141 21.9051 45.8575C21.9051 44.3858 21.9051 42.9141 21.9051 41.4472C21.9051 39.1028 21.9051 36.7632 21.9051 34.4188C21.9051 33.8811 21.9051 33.3481 21.9051 32.8104C21.9051 31.8245 21.1749 30.8764 20.3178 30.9236C19.4567 30.9707 18.7305 31.7538 18.7305 32.8104Z" fill="#393D46"/>
<path d="M12.9168 47.7427C13.4089 47.7427 13.901 47.7427 14.393 47.7427C15.5676 47.7427 16.7422 47.7427 17.9168 47.7427C19.3454 47.7427 20.774 47.7427 22.1986 47.7427C23.4288 47.7427 24.6589 47.7427 25.8851 47.7427C26.4843 47.7427 27.0875 47.7568 27.6867 47.7427C27.6946 47.7427 27.7025 47.7427 27.7105 47.7427C28.5399 47.7427 29.3375 46.8748 29.2978 45.8559C29.2581 44.8323 28.5994 43.9691 27.7105 43.9691C27.2184 43.9691 26.7263 43.9691 26.2343 43.9691C25.0597 43.9691 23.8851 43.9691 22.7105 43.9691C21.2819 43.9691 19.8533 43.9691 18.4288 43.9691C17.1986 43.9691 15.9684 43.9691 14.7422 43.9691C14.143 43.9691 13.5399 43.9549 12.9407 43.9691C12.9327 43.9691 12.9248 43.9691 12.9168 43.9691C12.0875 43.9691 11.2899 44.837 11.3295 45.8559C11.3692 46.8794 12.028 47.7427 12.9168 47.7427ZM22.77 19.3511C22.4724 18.3465 22.1748 17.337 21.8771 16.3323C21.405 14.7285 20.9327 13.1247 20.4565 11.521C20.3494 11.153 20.2383 10.7899 20.1311 10.4219C19.4803 11.1955 18.8295 11.9691 18.1787 12.7427C19.1787 12.9125 20.1748 13.0776 21.1748 13.2474C21.3176 13.271 21.4605 13.2945 21.6034 13.3182C21.8851 13.4077 22.1669 13.4077 22.4486 13.3182C22.7184 13.2285 22.9526 13.0681 23.151 12.8323C23.5716 12.3323 23.6748 11.6672 23.5597 10.9974C23.3811 9.98322 23.2065 8.96435 23.0279 7.95021C22.7422 6.32286 22.4605 4.6955 22.1748 3.06814C22.1113 2.6955 22.0438 2.32286 21.9803 1.95493C21.901 1.50682 21.5756 1.05399 21.2502 0.827574C20.9089 0.591725 20.4089 0.492668 20.0279 0.638894C19.643 0.785121 19.274 1.06814 19.0796 1.50682C18.8732 1.9738 18.8295 2.44078 18.9208 2.95965C19.0994 3.9738 19.274 4.99267 19.4526 6.00682C19.7383 7.63418 20.02 9.26156 20.3057 10.8889C20.3692 11.2616 20.4367 11.6342 20.5002 12.0021C21.151 11.2285 21.8018 10.4549 22.4526 9.68133C21.4526 9.51152 20.4565 9.34646 19.4565 9.17665C19.3136 9.15303 19.1708 9.12948 19.0279 9.10586C18.7462 9.01627 18.4644 9.01627 18.1827 9.10586C17.9129 9.19552 17.6787 9.3559 17.4803 9.59175C17.0994 10.0446 16.8891 10.804 17.0716 11.4266C17.3692 12.4314 17.6668 13.4408 17.9644 14.4455C18.4367 16.0493 18.9089 17.653 19.3851 19.2568C19.4923 19.6247 19.6034 19.988 19.7105 20.3559C19.8494 20.8228 20.0716 21.2285 20.4406 21.4832C20.7819 21.7191 21.2819 21.8182 21.6629 21.6719C22.0478 21.5257 22.4168 21.2427 22.6113 20.804C22.8018 20.3748 22.9129 19.8276 22.77 19.3511Z" fill="#393D46"/>
</svg>
