<svg width="20" height="20" viewBox="0 0 20 20" fill="none" xmlns="http://www.w3.org/2000/svg">
<g opacity="0.3">
<path d="M17.5758 5.81823C16.8675 5.0349 15.6842 4.64323 13.9675 4.64323H13.7675V4.6099C13.7675 3.2099 13.7675 1.47656 10.6342 1.47656H9.36751C6.23418 1.47656 6.23418 3.21823 6.23418 4.6099V4.65156H6.03418C4.30918 4.65156 3.13418 5.04323 2.42584 5.82656C1.60085 6.74323 1.62584 7.97656 1.70918 8.81823L1.71751 8.87656L1.7783 9.51484C1.79256 9.66462 1.87332 9.8 1.99931 9.88222C2.20137 10.0141 2.51111 10.2128 2.70084 10.3182C2.81751 10.3932 2.94251 10.4599 3.06751 10.5266C4.49251 11.3099 6.05918 11.8349 7.65084 12.0932C7.72584 12.8766 8.06751 13.7932 9.89251 13.7932C11.7175 13.7932 12.0758 12.8849 12.1342 12.0766C13.8342 11.8016 15.4758 11.2099 16.9592 10.3432C17.0092 10.3182 17.0425 10.2932 17.0842 10.2682C17.4044 10.0872 17.7362 9.86556 18.0408 9.64689C18.154 9.56561 18.2263 9.43948 18.2416 9.30097L18.2508 9.21823L18.2925 8.82656C18.3008 8.77656 18.3008 8.7349 18.3092 8.67656C18.3758 7.8349 18.3592 6.6849 17.5758 5.81823ZM10.9092 11.5266C10.9092 12.4099 10.9092 12.5432 9.88418 12.5432C8.85918 12.5432 8.85918 12.3849 8.85918 11.5349V10.4849H10.9092V11.5266ZM7.42584 4.64323V4.6099C7.42584 3.19323 7.42584 2.66823 9.36751 2.66823H10.6342C12.5758 2.66823 12.5758 3.20156 12.5758 4.6099V4.65156H7.42584V4.64323Z" fill="#292D32"/>
<path d="M17.2589 11.5071C17.613 11.3397 18.0202 11.6203 17.9848 12.0103L17.6992 15.1563C17.5242 16.823 16.8409 18.523 13.1742 18.523H6.82422C3.15755 18.523 2.47422 16.823 2.29922 15.1646L2.02851 12.1868C1.99347 11.8014 2.39179 11.5213 2.74482 11.68C3.70402 12.1111 5.31603 12.8044 6.35201 13.0834C6.51602 13.1276 6.64917 13.2456 6.72357 13.3983C7.23778 14.4536 8.32696 15.0146 9.89089 15.0146C11.4394 15.0146 12.5419 14.432 13.058 13.3735C13.1326 13.2207 13.2656 13.1028 13.4297 13.0583C14.5315 12.7598 16.2528 11.9826 17.2589 11.5071Z" fill="#292D32"/>
</g>
</svg>
