<svg width="24" height="24" viewBox="0 0 24 24" fill="none" xmlns="http://www.w3.org/2000/svg">
<path d="M6.9156 15.3719L7.63228 15.779L7.63415 15.7759L6.9156 15.3719ZM5.63288 17.3815L4.91621 16.9744L4.91608 16.9746L5.63288 17.3815ZM6.83752 20.4644L6.56932 21.2118L6.57242 21.2128L6.83752 20.4644ZM21.6389 20.4644L21.3764 19.7151L21.3738 19.716L21.6389 20.4644ZM22.8436 17.3815L23.5609 16.9755L23.5602 16.9744L22.8436 17.3815ZM21.5609 15.3719L20.8361 15.7663L20.8441 15.779L21.5609 15.3719ZM14.2438 3.06152C10.0898 3.06152 6.71483 6.24516 6.71483 10.1637H8.38793C8.38793 7.1168 11.0138 4.63977 14.2438 4.63977V3.06152ZM6.71483 10.1637V13.2044H8.38793V10.1637H6.71483ZM6.71483 13.2044C6.71483 13.4303 6.66064 13.7607 6.55708 14.1126C6.45359 14.4643 6.31941 14.7741 6.19704 14.9678L7.63415 15.7759C7.85756 15.4225 8.04126 14.9695 8.16922 14.5348C8.2971 14.1002 8.38793 13.6204 8.38793 13.2044H6.71483ZM6.19892 14.9648L4.91621 16.9744L6.34956 17.7886L7.63227 15.779L6.19892 14.9648ZM4.91608 16.9746C4.40184 17.7809 4.29454 18.6854 4.60997 19.4889C4.92504 20.2916 5.6297 20.9119 6.56932 21.2118L7.10571 19.7169C6.59531 19.5539 6.30169 19.2535 6.17896 18.9409C6.0566 18.6292 6.07199 18.2237 6.34969 17.7884L4.91608 16.9746ZM6.57242 21.2128C11.5519 22.7822 16.9246 22.7822 21.904 21.2128L21.3738 19.716C16.7385 21.1768 11.7379 21.1768 7.10261 19.716L6.57242 21.2128ZM21.9015 21.2136C23.7631 20.633 24.5711 18.5638 23.5609 16.9755L22.1261 17.7876C22.5883 18.514 22.2139 19.454 21.3764 19.7151L21.9015 21.2136ZM23.5602 16.9744L22.2775 14.9648L20.8441 15.779L22.1268 17.7886L23.5602 16.9744ZM22.2854 14.9775C22.1651 14.7808 22.0323 14.4676 21.9298 14.115C21.827 13.7614 21.7728 13.4305 21.7728 13.2044H20.0997C20.0997 13.6202 20.1904 14.0994 20.3163 14.5324C20.4423 14.9662 20.6219 15.4159 20.8362 15.7662L22.2854 14.9775ZM21.7728 13.2044V10.1637H20.0997V13.2044H21.7728ZM21.7728 10.1637C21.7728 6.25568 18.3866 3.06152 14.2438 3.06152V4.63977C17.4626 4.63977 20.0997 7.12732 20.0997 10.1637H21.7728Z" fill="#010101"/>
<path d="M16.3073 4.15587L16.0741 4.91371C16.3802 4.99754 16.7102 4.90999 16.9251 4.68793C17.14 4.46587 17.2025 4.1479 17.0862 3.86794L16.3073 4.15587ZM15.2365 3.94544L15.1328 4.72847L15.1359 4.72883L15.2365 3.94544ZM12.1803 4.15587L11.4014 3.86794C11.2851 4.14794 11.3476 4.46597 11.5626 4.68803C11.7776 4.91009 12.1077 4.99757 12.4138 4.91363L12.1803 4.15587ZM16.5405 3.39804C16.1584 3.29339 15.7568 3.21003 15.3372 3.16205L15.1359 4.72883C15.4524 4.76502 15.7646 4.82896 16.0741 4.91371L16.5405 3.39804ZM15.3403 3.16241C14.1629 3.02357 13.0216 3.1034 11.9468 3.39811L12.4138 4.91363C13.2576 4.68226 14.1686 4.61479 15.1328 4.72847L15.3403 3.16241ZM12.9592 4.44381C13.1606 3.95905 13.6606 3.61927 14.2438 3.61927V2.04102C12.9531 2.04102 11.847 2.79549 11.4014 3.86794L12.9592 4.44381ZM14.2438 3.61927C14.827 3.61927 15.327 3.95905 15.5284 4.44381L17.0862 3.86794C16.6406 2.79549 15.5345 2.04102 14.2438 2.04102V3.61927Z" fill="#010101"/>
<path d="M16.7534 20.0547C16.7534 21.3549 15.6222 22.4221 14.2438 22.4221V24.0003C16.5462 24.0003 18.4265 22.2266 18.4265 20.0547H16.7534ZM14.2438 22.4221C13.5606 22.4221 12.923 22.154 12.4707 21.7273L11.2876 22.8433C12.0399 23.5529 13.0977 24.0003 14.2438 24.0003V22.4221ZM12.4707 21.7273C12.0183 21.3006 11.7341 20.6992 11.7341 20.0547H10.061C10.061 21.1358 10.5353 22.1336 11.2876 22.8433L12.4707 21.7273Z" fill="#010101"/>
<circle cx="21" cy="3" r="3" fill="#E23434"/>
</svg>
