<svg width="24" height="21" viewBox="0 0 24 21" fill="none" xmlns="http://www.w3.org/2000/svg">
<path d="M22.8 9.21797H18.996L22.044 6.61645C22.1552 6.5217 22.2435 6.40915 22.3037 6.28525C22.3639 6.16134 22.3949 6.02852 22.3949 5.89438C22.3949 5.76024 22.3639 5.62742 22.3037 5.50351C22.2435 5.37961 22.1552 5.26706 22.044 5.17231C21.576 4.77286 20.808 4.77286 20.34 5.17231L15.6 9.21797H13.2V7.16953L17.94 3.12387C18.408 2.72442 18.408 2.06892 17.94 1.66948C17.829 1.57453 17.6971 1.4992 17.552 1.4478C17.4068 1.39641 17.2512 1.36995 17.094 1.36995C16.9368 1.36995 16.7812 1.39641 16.6361 1.4478C16.4909 1.4992 16.359 1.57453 16.248 1.66948L13.2 4.27099V1.02422C13.2 0.460898 12.66 0 12 0C11.34 0 10.8 0.460898 10.8 1.02422V4.27099L7.752 1.66948C7.64098 1.57453 7.50912 1.4992 7.36395 1.4478C7.21878 1.39641 7.06316 1.36995 6.906 1.36995C6.74884 1.36995 6.59322 1.39641 6.44805 1.4478C6.30288 1.4992 6.17102 1.57453 6.06 1.66948C5.592 2.06892 5.592 2.72442 6.06 3.12387L10.8 7.16953V9.21797H8.4L3.66 5.17231C3.192 4.77286 2.424 4.77286 1.956 5.17231C1.84476 5.26706 1.7565 5.37961 1.69628 5.50351C1.63606 5.62742 1.60507 5.76024 1.60507 5.89438C1.60507 6.02852 1.63606 6.16134 1.69628 6.28525C1.7565 6.40915 1.84476 6.5217 1.956 6.61645L5.004 9.21797H1.2C0.54 9.21797 0 9.67887 0 10.2422C0 10.8055 0.54 11.2664 1.2 11.2664H5.004L1.956 13.8679C1.84476 13.9627 1.7565 14.0752 1.69628 14.1991C1.63606 14.323 1.60507 14.4559 1.60507 14.59C1.60507 14.7241 1.63606 14.857 1.69628 14.9809C1.7565 15.1048 1.84476 15.2173 1.956 15.3121C2.424 15.7115 3.192 15.7115 3.66 15.3121L8.4 11.2664H10.8V13.3148L6.06 17.3605C5.592 17.76 5.592 18.4155 6.06 18.8149C6.528 19.2143 7.284 19.2143 7.752 18.8149L10.8 16.2134V19.4602C10.8 20.0235 11.34 20.4844 12 20.4844C12.66 20.4844 13.2 20.0235 13.2 19.4602V16.2134L16.248 18.8149C16.716 19.2143 17.472 19.2143 17.94 18.8149C18.408 18.4155 18.408 17.76 17.94 17.3605L13.2 13.3148V11.2664H15.6L20.34 15.3121C20.808 15.7115 21.576 15.7115 22.044 15.3121C22.1552 15.2173 22.2435 15.1048 22.3037 14.9809C22.3639 14.857 22.3949 14.7241 22.3949 14.59C22.3949 14.4559 22.3639 14.323 22.3037 14.1991C22.2435 14.0752 22.1552 13.9627 22.044 13.8679L18.996 11.2664H22.8C23.46 11.2664 24 10.8055 24 10.2422C24 9.67887 23.46 9.21797 22.8 9.21797Z" fill="#25396F"/>
</svg>
