<svg width="16" height="16" viewBox="0 0 16 16" fill="none" xmlns="http://www.w3.org/2000/svg">
<path d="M12.9464 3.25343C13.5545 3.63277 14.257 3.83337 14.9737 3.83228V6.57074C13.5499 6.57074 12.2318 6.11837 11.1554 5.34958V10.9381C11.1554 13.7337 8.88801 16 6.091 16C5.04741 16 4.07743 15.6846 3.27166 15.1439C1.91774 14.2353 1.02637 12.6904 1.02637 10.9381C1.02637 8.1426 3.29385 5.87634 6.09105 5.8764C6.32351 5.87629 6.55568 5.89207 6.78594 5.92353V6.54403L6.78587 8.7232C6.56421 8.65287 6.32792 8.61473 6.08277 8.61473C4.80322 8.61473 3.76615 9.65147 3.76615 10.9301C3.76615 11.8343 4.28454 12.6171 5.04049 12.9985C5.35392 13.1565 5.70791 13.2455 6.08276 13.2455C7.35967 13.2455 8.39501 12.213 8.39941 10.9381V0H11.1553C11.1553 1.31175 11.8231 2.55287 12.9464 3.25343Z" fill="#C2C8CC"/>
</svg>
