<svg width="22" height="22" viewBox="0 0 22 22" fill="none" xmlns="http://www.w3.org/2000/svg">
<path d="M18.3318 0H16.2423C13.8449 0 12.5802 1.2647 12.5802 3.66212V5.75162C12.5802 8.14904 13.8449 9.41374 16.2423 9.41374H18.3318C20.7293 9.41374 21.9939 8.14904 21.9939 5.75162V3.66212C21.9939 1.2647 20.7293 0 18.3318 0Z" fill="#1B1BDD"/>
<path d="M5.76261 12.5703H3.67312C1.2647 12.5703 0 13.835 0 16.2324V18.3219C0 20.7303 1.2647 21.995 3.66212 21.995H5.75162C8.14904 21.995 9.41374 20.7303 9.41374 18.3329V16.2434C9.42474 13.835 8.16004 12.5703 5.76261 12.5703Z" fill="#1B1BDD"/>
<path d="M4.71787 9.43573C7.32347 9.43573 9.43573 7.32347 9.43573 4.71787C9.43573 2.11226 7.32347 0 4.71787 0C2.11226 0 0 2.11226 0 4.71787C0 7.32347 2.11226 9.43573 4.71787 9.43573Z" fill="#7777EE"/>
<path d="M17.2763 21.9981C19.8819 21.9981 21.9941 19.8858 21.9941 17.2802C21.9941 14.6746 19.8819 12.5624 17.2763 12.5624C14.6707 12.5624 12.5584 14.6746 12.5584 17.2802C12.5584 19.8858 14.6707 21.9981 17.2763 21.9981Z" fill="#7777EE"/>
</svg>
