<svg width="18" height="20" viewBox="0 0 18 20" fill="none" xmlns="http://www.w3.org/2000/svg">
<path d="M11.0607 0H6.3607C5.3207 0 4.4707 0.84 4.4707 1.88V2.82C4.4707 3.86 5.3107 4.7 6.3507 4.7H11.0607C12.1007 4.7 12.9407 3.86 12.9407 2.82V1.88C12.9507 0.84 12.1007 0 11.0607 0Z" fill="white"/>
<path d="M13.95 2.8234C13.95 4.4134 12.65 5.7134 11.06 5.7134H6.36C4.77 5.7134 3.47 4.4134 3.47 2.8234C3.47 2.2634 2.87 1.9134 2.37 2.1734C0.96 2.9234 0 4.4134 0 6.1234V15.5334C0 17.9934 2.01 20.0034 4.47 20.0034H12.95C15.41 20.0034 17.42 17.9934 17.42 15.5334V6.1234C17.42 4.4134 16.46 2.9234 15.05 2.1734C14.55 1.9134 13.95 2.2634 13.95 2.8234ZM9.09 14.9534H4.71C4.3 14.9534 3.96 14.6134 3.96 14.2034C3.96 13.7934 4.3 13.4534 4.71 13.4534H9.09C9.5 13.4534 9.84 13.7934 9.84 14.2034C9.84 14.6134 9.5 14.9534 9.09 14.9534ZM11.71 10.9534H4.71C4.3 10.9534 3.96 10.6134 3.96 10.2034C3.96 9.7934 4.3 9.4534 4.71 9.4534H11.71C12.12 9.4534 12.46 9.7934 12.46 10.2034C12.46 10.6134 12.12 10.9534 11.71 10.9534Z" fill="white"/>
</svg>
