<svg width="16" height="16" viewBox="0 0 16 16" fill="none" xmlns="http://www.w3.org/2000/svg">
<path fill-rule="evenodd" clip-rule="evenodd" d="M10.0475 0C8.97073 0 8.0936 0.854693 8.05753 1.92266L8.05553 2.07505C8.02433 3.74713 6.92613 5.16203 5.30964 5.68906H2.02618C1.5549 5.68906 1.17285 6.07111 1.17285 6.54239V13.3691C1.17285 13.8403 1.5549 14.2224 2.02618 14.2224H5.43952C5.63815 14.2224 5.82094 14.1545 5.96595 14.0407C6.25233 14.1576 6.55926 14.2222 6.8618 14.2222H11.6973L11.7623 14.221C12.7149 14.1844 13.6951 13.3504 13.8626 12.4119L13.8663 12.3879L14.8071 8.01493C14.8117 7.99413 14.8153 7.97313 14.8183 7.95207C14.829 7.87413 14.8311 7.8216 14.8291 7.75053L14.8263 7.68L14.8251 7.61153C14.789 6.54358 13.9119 5.68889 12.8351 5.68889H11.1965L11.2467 5.57963C11.7478 4.46135 12.0386 3.18541 12.0386 1.99111C12.0386 0.891453 11.1471 0 10.0475 0ZM4.58625 7.39613V12.2311C4.58625 12.2343 4.58625 12.2375 4.58627 12.2407V12.5161H2.8796V7.39613H4.58625ZM10.0475 1.70681C10.2045 1.70681 10.3319 1.83415 10.3319 1.99125C10.3319 3.39265 9.8128 4.97894 9.02373 6.03007C8.60153 6.59257 9.00287 7.39567 9.7062 7.39567H12.8351C12.9922 7.39567 13.1195 7.52307 13.1195 7.68013L13.1204 7.73987L12.1931 12.0518C12.1887 12.0726 12.1849 12.0936 12.1821 12.1147C12.1638 12.247 11.8478 12.5157 11.6973 12.5157H6.86173L6.81847 12.5136C6.57109 12.4905 6.29287 12.2809 6.29287 12.2313V7.1428C8.33886 6.28638 9.71986 4.35859 9.762 2.09904L9.76293 1.99919C9.763 1.83415 9.89033 1.70681 10.0475 1.70681Z" fill="#21201F"/>
</svg>
