<svg width="16" height="16" viewBox="0 0 16 16" fill="none" xmlns="http://www.w3.org/2000/svg">
<path d="M8.00009 3.83862C5.74206 3.83862 3.87109 5.67733 3.87109 7.96765C3.87109 10.258 5.7098 12.0967 8.00009 12.0967C10.2904 12.0967 12.1292 10.2257 12.1292 7.96765C12.1292 5.70959 10.2582 3.83862 8.00009 3.83862ZM8.00009 10.6128C6.54851 10.6128 5.35496 9.41925 5.35496 7.96765C5.35496 6.51604 6.54851 5.32249 8.00009 5.32249C9.45176 5.32249 10.6453 6.51604 10.6453 7.96765C10.6453 9.41925 9.45176 10.6128 8.00009 10.6128Z" fill="#C2C8CC"/>
<path d="M12.29 4.67736C12.8066 4.67736 13.2255 4.25853 13.2255 3.74188C13.2255 3.22522 12.8066 2.8064 12.29 2.8064C11.7734 2.8064 11.3545 3.22522 11.3545 3.74188C11.3545 4.25853 11.7734 4.67736 12.29 4.67736Z" fill="#C2C8CC"/>
<path d="M14.7097 1.32258C13.871 0.451613 12.6774 0 11.3226 0H4.67742C1.87097 0 0 1.87097 0 4.67742V11.2903C0 12.6774 0.451613 13.871 1.35484 14.7419C2.22581 15.5807 3.3871 16 4.70968 16H11.2903C12.6774 16 13.8387 15.5484 14.6774 14.7419C15.5484 13.9032 16 12.7097 16 11.3226V4.67742C16 3.32258 15.5484 2.16129 14.7097 1.32258ZM14.5807 11.3226C14.5807 12.3226 14.2258 13.1291 13.6451 13.6774C13.0645 14.2258 12.2581 14.5161 11.2903 14.5161H4.70968C3.74193 14.5161 2.93549 14.2258 2.35484 13.6774C1.77419 13.0968 1.48387 12.2903 1.48387 11.2903V4.67742C1.48387 3.70968 1.77419 2.90323 2.35484 2.32258C2.90323 1.77419 3.74193 1.48387 4.70968 1.48387H11.3549C12.3226 1.48387 13.129 1.77419 13.7097 2.35484C14.2581 2.93549 14.5807 3.74193 14.5807 4.67742V11.3226Z" fill="#C2C8CC"/>
</svg>
