<svg width="45" height="45" viewBox="0 0 45 45" fill="none" xmlns="http://www.w3.org/2000/svg">
<g clip-path="url(#clip0_47_36685)">
<path d="M23.3438 40.5C32.3529 40.5 39.6562 32.63 39.6562 22.9219C39.6562 13.2137 32.3529 5.34375 23.3438 5.34375C14.3346 5.34375 7.03125 13.2137 7.03125 22.9219C7.03125 32.63 14.3346 40.5 23.3438 40.5Z" fill="#4C0F0F"/>
<path d="M18.2816 44.0141C6.04719 44.2954 -0.562183 34.5923 2.25032 23.6235C4.78157 14.061 12.6566 5.20164 22.6409 3.37352C33.6097 1.26414 44.7191 7.73289 44.7191 18.7016C44.7191 31.4985 32.2034 43.8735 18.2816 44.0141ZM23.6253 6.60789C15.1878 8.15477 7.31282 15.3266 5.48469 23.3423C3.37532 32.3423 9.00032 40.0766 18.9847 39.6548C29.9534 39.2329 39.9378 29.5298 40.2191 19.2641C40.5003 10.2641 32.7659 4.92039 23.6253 6.60789Z" fill="#5C2E0E"/>
<path d="M17.0158 41.9044C4.92206 42.1856 -1.54669 32.3419 1.26581 21.5138C3.65643 11.9513 12.9377 3.51375 22.7814 1.545C33.4689 -0.564374 43.0314 5.4825 43.0314 16.5919C43.0314 29.3888 30.6564 41.6231 17.0158 41.9044ZM22.3596 4.3575C14.0627 5.90438 6.32831 13.0763 4.35956 21.0919C2.25018 30.0919 7.73456 37.8262 17.5783 37.4044C28.4064 36.9825 38.2502 27.2794 38.5314 17.0138C38.8127 8.01375 31.2189 2.81063 22.3596 4.3575Z" fill="#5C2E0E"/>
<path d="M8.01562 36.4219L5.625 32.4844L34.3125 5.34375L37.2656 7.59375L8.01562 36.4219Z" fill="#4C0E18"/>
<path d="M17.8594 38.5304C8.01561 38.9523 3.37499 31.0773 6.04687 22.3585C8.57812 14.9054 16.1719 8.29603 23.9062 6.74915C32.3437 5.06165 39.5156 9.56165 39.2344 18.1398C38.9531 28.1242 28.8281 38.1085 17.8594 38.5304ZM23.4844 8.99915C16.875 10.1242 10.5469 15.7492 8.57811 22.0773C6.46874 29.2492 10.5469 35.4367 18.5625 34.8742C27.2812 34.3117 35.2969 26.4367 35.7187 18.421C36.1406 11.5304 30.375 7.5929 23.4844 8.99915Z" fill="#4C0E18"/>
<path d="M10.8281 34.3125L9 31.2188L32.7656 9.5625L35.0156 11.25L10.8281 34.3125Z" fill="#4C0E18"/>
<path d="M18.8436 42.3271C7.45296 42.4677 1.54671 33.4677 4.07796 23.3427C6.32796 14.3427 13.6405 6.18643 22.7811 4.3583C32.9061 2.38955 43.0311 8.43643 43.0311 18.7021C43.0311 30.6552 31.4998 42.0458 18.8436 42.3271ZM23.7655 7.31143C16.0311 8.71768 8.71858 15.4677 7.03108 22.9208C5.06233 31.2177 10.2655 38.5302 19.4061 38.1083C29.5311 37.6864 38.6717 28.6864 38.953 19.1239C39.2342 10.6864 32.0623 5.90518 23.7655 7.31143Z" fill="#CC2E2E"/>
<path d="M17.2967 40.2176C5.90608 40.4989 -0.000165582 31.3583 2.53108 21.2333C4.78108 12.3739 13.3592 4.49888 22.6405 2.67075C32.6248 0.702001 41.6248 6.327 41.6248 16.5926C41.4842 28.5458 29.953 40.077 17.2967 40.2176ZM22.2186 5.34263C14.4842 6.74888 7.17171 13.3583 5.48421 20.952C3.51546 29.2489 8.71858 36.5614 17.8592 36.1395C27.9842 35.7176 37.1248 26.7176 37.4061 17.1551C37.6873 8.71763 30.5155 3.79575 22.2186 5.34263Z" fill="#FF5050"/>
<path d="M27 22.3594L30.2344 20.5313L35.2969 22.6406M24.8906 18.5625L29.1094 14.9063L32.625 12.375M33.3281 33.6094L27 29.6719L21.6562 28.6875M24.8906 11.3906C24.8906 11.3906 25.4531 9.14063 28.125 8.01562M15.75 23.625L13.3594 22.5L8.4375 25.4531M18.8437 19.4063L15.75 16.7344L8.57812 15.8906M11.1094 33.1875L13.9219 30.7969L19.2656 28.9688M20.8125 12.0938C20.8125 12.0938 20.8125 9.98438 18.5625 9.70313" stroke="#26070C" stroke-width="1.69622" stroke-miterlimit="10" stroke-linecap="round"/>
<path d="M29.8125 13.2168C29.8125 13.0762 29.6719 13.0762 29.6719 12.9356L27.7031 9.84183C27.1406 8.85745 26.0156 8.0137 23.4844 8.43558H23.2031C20.6719 8.85745 19.2656 10.1231 18.5625 11.2481L15.8906 15.3262L15.3281 16.0293C6.89063 27.9825 13.2188 33.045 16.7344 34.8731L19.2656 36.2793L20.9531 35.4356C23.4844 34.5918 38.8125 27.5606 29.8125 13.2168Z" fill="#26070C"/>
<path d="M17.5782 16.875L21.5157 16.3125L18.9844 33.6094C19.125 33.6094 8.1563 30.375 17.5782 16.875Z" fill="#26070C"/>
<path d="M18.5623 18.8405C19.5466 18.6999 20.2498 19.403 20.1091 20.3874L19.1248 27.1374C18.8435 28.8249 16.5935 29.9499 15.7498 28.6843C14.6248 27.1374 14.2029 24.4655 16.8748 20.1061C17.156 19.403 17.8591 18.9811 18.5623 18.8405ZM26.9998 15.6061L22.9216 16.1686L20.531 33.6061C20.531 33.6061 34.031 28.2624 26.9998 15.6061ZM22.6404 11.9499C18.9841 12.5124 18.4216 15.8874 18.4216 15.8874L21.656 15.4655L22.3591 15.3249L25.7341 14.903C25.8748 14.7624 26.2966 11.3874 22.6404 11.9499Z" fill="#26070C"/>
<path d="M22.2185 12.375C22.0779 12.375 22.0779 12.375 22.2185 12.375C21.5154 12.5156 21.0935 12.6562 20.6716 12.9375C19.6873 13.6406 19.9685 14.9062 21.0935 14.7656L21.656 14.625H22.0779L22.6404 14.4844C23.7654 14.3438 24.3279 12.9375 23.6248 12.5156C23.2029 12.375 22.781 12.375 22.2185 12.375ZM25.031 18C24.0466 18.1406 23.0623 18.9844 22.9216 19.9687L22.0779 26.7188C21.7966 28.5469 23.906 29.1094 25.3123 27.7031C26.9998 25.7344 28.406 22.7812 26.5779 18.7031C26.2966 18.2812 25.7341 18 25.031 18Z" fill="#26070C"/>
<path d="M18.5625 21.9356C18.4219 22.7793 17.8594 23.4825 17.2969 23.4825C16.7344 23.4825 16.4531 22.92 16.5938 22.0762C16.7344 21.2325 17.2969 20.5293 17.8594 20.5293C18.2812 20.5293 18.7031 21.0918 18.5625 21.9356ZM25.875 21.0918C25.7344 21.9356 25.1719 22.6387 24.6094 22.7793C24.0469 22.7793 23.625 22.2168 23.7656 21.3731C23.9062 20.5293 24.4687 19.8262 25.0312 19.8262C25.4531 19.6856 25.875 20.2481 25.875 21.0918ZM15.4688 31.3575C15.4688 31.3575 22.2188 32.6231 26.0156 30.5137C29.8125 28.4043 19.5469 35.0137 19.5469 35.0137L15.4688 31.3575Z" fill="#26070C"/>
<path d="M27 21.375L29.9531 19.5469L38.25 23.4844M29.25 17.8594L31.6406 15.0469H38.25M24.75 17.5781L28.9688 14.0625L31.9219 12.375M33.75 33.1875L27 28.4063L21.6562 27.4219M24.75 10.6875C24.75 10.6875 25.3125 8.57813 27.8437 7.45312M15.75 22.5L13.5 21.375L8.57812 24.3281M18.8437 18.4219L15.8906 15.8906L9 15.0469M9.5625 33.1875L13.9219 29.3906L19.4063 27.5625M20.8125 11.3906C20.8125 11.3906 20.8125 9.28125 18.5625 9.14062" stroke="#4D4DFF" stroke-width="1.65698" stroke-miterlimit="10" stroke-linecap="round"/>
<path d="M28.1251 14.2036L27.9845 14.063L26.297 11.2505C25.8751 10.4067 24.8907 9.70361 22.7814 9.98486C20.672 10.2661 19.547 11.3911 18.8439 12.3755L16.5939 15.8911L16.172 16.5942C9.14074 26.8599 14.3439 31.3599 17.4376 32.9067L19.547 34.0317L20.9532 33.3286C22.7814 32.6255 35.5782 26.5786 28.1251 14.2036Z" fill="#3333BC"/>
<path d="M17.8595 16.0312L21.797 15.4688L19.4064 32.2031C19.4064 32.2031 8.57824 29.1094 17.8595 16.0312Z" fill="#6161E2"/>
<path d="M18.5623 17.8579C19.5466 17.7172 20.1091 18.4204 19.9685 19.2641L18.9841 25.7329C18.7029 27.4204 16.4529 28.4047 15.6091 27.2797C14.4841 25.7329 14.0623 23.2016 16.7341 18.9829C17.2966 18.4204 17.8591 17.9985 18.5623 17.8579Z" fill="#8888FF"/>
<path d="M27.1408 14.7656L23.0626 15.3281L20.8126 32.2031C20.672 32.2031 34.0314 27 27.1408 14.7656Z" fill="#6161E2"/>
<path d="M17.8595 15.8906L21.797 15.4688L19.4064 30.5156C19.4064 30.5156 8.57824 27.7031 17.8595 15.8906ZM27.1407 14.7656L23.0626 15.3281L20.8126 30.5156C20.672 30.5156 34.0314 25.875 27.1407 14.7656Z" fill="#7979F2"/>
<path d="M22.6406 11.2492C22.5 11.2492 22.5 11.2492 22.6406 11.2492C19.125 11.8117 18.5625 15.0461 18.5625 15.0461L21.7969 14.6242L22.5 14.4836L25.875 14.0617C25.875 13.9211 26.1563 10.6867 22.6406 11.2492Z" fill="#6B6BFF"/>
<path d="M22.0782 11.6719C21.3751 11.8125 20.9532 11.9531 20.5313 12.2344C19.6876 12.9375 19.9688 14.0625 20.9532 13.9219L21.5157 13.7812H21.9376L22.5001 13.6406C23.6251 13.5 24.1876 12.2344 23.4845 11.6719C23.2032 11.6719 22.7813 11.5312 22.0782 11.6719Z" fill="#C0C0FF"/>
<path d="M24.8907 17.1562C23.9063 17.2969 23.0626 18.1406 22.922 19.125L22.0782 25.7344C21.797 27.4219 23.9063 28.125 25.3126 26.7188C27.0001 24.8906 28.4063 21.9375 26.5782 18C26.1563 17.2969 25.5938 17.0156 24.8907 17.1562Z" fill="#8888FF"/>
<path d="M25.7343 19.9688C25.5937 20.8125 25.0312 21.5156 24.4687 21.5156C23.9062 21.5156 23.4843 20.9531 23.6249 20.1094C23.7655 19.2656 24.328 18.5625 24.8905 18.5625C25.453 18.7031 25.8749 19.2656 25.7343 19.9688Z" fill="#C0C0FF"/>
<path d="M10.9688 34.7344L7.73438 33.0469L33.8906 7.45312L35.0156 11.25L10.9688 34.7344Z" fill="#4C0E18"/>
<path d="M6.60938 36.7031V31.5L33.4687 6.1875L36.2812 8.29688L6.60938 36.7031Z" fill="#FF5050"/>
<path d="M15.6094 30.9375L29.25 18.5625L28.9688 17.0156L14.625 31.0781L15.6094 30.9375Z" fill="#3333BC"/>
<path d="M31.2188 18L32.625 16.4531L37.9687 16.3125" stroke="#26070C" stroke-width="1.69622" stroke-miterlimit="10" stroke-linecap="round"/>
<path d="M25.875 2.9525C25.875 2.9525 36.1406 1.54625 39.6563 13.0775C39.6563 13.0775 34.1719 3.65563 25.875 2.9525Z" fill="#FF9999"/>
<path d="M34.5938 6.46875L14.2031 25.875L35.2969 7.03125L34.5938 6.46875Z" fill="#FF9999"/>
<path d="M22.2188 25.875L26.8594 23.3438C26.8594 23.3438 25.1719 27.1406 21.7969 29.1094L22.2188 25.875ZM20.6719 16.4531L20.3906 17.7188L15.75 21.5156L18.1406 16.875L20.6719 16.4531Z" fill="#C0C0FF"/>
</g>
<defs>
<clipPath id="clip0_47_36685">
<rect width="45" height="45" fill="white"/>
</clipPath>
</defs>
</svg>
