<svg width="24" height="24" viewBox="0 0 24 24" fill="none" xmlns="http://www.w3.org/2000/svg">
<path d="M10.1169 17.9867H2.88281" stroke="#AEAEAE" stroke-width="1.3" stroke-linecap="round" stroke-linejoin="round"/>
<path fill-rule="evenodd" clip-rule="evenodd" d="M21.1174 17.9894C21.1174 19.58 19.828 20.8694 18.2374 20.8694C16.6468 20.8694 15.3574 19.58 15.3574 17.9894C15.3574 16.3976 16.6468 15.1094 18.2374 15.1094C19.828 15.1094 21.1174 16.3976 21.1174 17.9894Z" stroke="#AEAEAE" stroke-width="1.3" stroke-linecap="round" stroke-linejoin="round"/>
<path d="M13.8828 6.26011H21.1181" stroke="#AEAEAE" stroke-width="1.3" stroke-linecap="round" stroke-linejoin="round"/>
<path fill-rule="evenodd" clip-rule="evenodd" d="M2.88281 6.26281C2.88281 7.85458 4.17222 9.14281 5.76281 9.14281C7.3534 9.14281 8.64281 7.85458 8.64281 6.26281C8.64281 4.67222 7.3534 3.38281 5.76281 3.38281C4.17222 3.38281 2.88281 4.67222 2.88281 6.26281Z" stroke="#AEAEAE" stroke-width="1.3" stroke-linecap="round" stroke-linejoin="round"/>
</svg>
