<svg width="16" height="16" viewBox="0 0 16 16" fill="none" xmlns="http://www.w3.org/2000/svg">
<path fill-rule="evenodd" clip-rule="evenodd" d="M8 1.83203C6.06701 1.83203 4.5 3.39904 4.5 5.33203C4.5 6.29942 4.88569 6.84537 5.37218 7.53397C5.38422 7.55103 5.39633 7.5681 5.40849 7.58536C5.86431 8.2311 6.3658 8.9739 6.47725 10.1654H9.52273C9.6342 8.9739 10.1357 8.2311 10.5915 7.58536C10.6037 7.5681 10.6158 7.55103 10.6278 7.53397C11.1143 6.84537 11.5 6.29942 11.5 5.33203C11.5 3.39904 9.933 1.83203 8 1.83203ZM3.5 5.33203C3.5 2.84675 5.51472 0.832031 8 0.832031C10.4853 0.832031 12.5 2.84675 12.5 5.33203C12.5 6.62069 11.9514 7.39536 11.4681 8.07776C11.4481 8.10596 11.4282 8.1341 11.4085 8.16203C10.9249 8.8471 10.5 9.49083 10.5 10.6654C10.5 10.9415 10.2761 11.1654 10 11.1654H6C5.72386 11.1654 5.5 10.9415 5.5 10.6654C5.5 9.49083 5.07507 8.8471 4.59151 8.16203C4.57178 8.1341 4.55189 8.10596 4.53188 8.07776C4.04862 7.39536 3.5 6.62069 3.5 5.33203ZM5.5 12.6654C5.5 12.3892 5.72386 12.1654 6 12.1654H10C10.2761 12.1654 10.5 12.3892 10.5 12.6654C10.5 12.9415 10.2761 13.1654 10 13.1654H6C5.72386 13.1654 5.5 12.9415 5.5 12.6654ZM6.16667 14.6654C6.16667 14.3892 6.39053 14.1654 6.66667 14.1654H9.33333C9.60947 14.1654 9.83333 14.3892 9.83333 14.6654C9.83333 14.9415 9.60947 15.1654 9.33333 15.1654H6.66667C6.39053 15.1654 6.16667 14.9415 6.16667 14.6654Z" fill="#07080A"/>
</svg>
