<svg width="21" height="20" viewBox="0 0 21 20" fill="none" xmlns="http://www.w3.org/2000/svg">
<g opacity="0.5">
<g clip-path="url(#clip0_47_91469)">
<path d="M20.9225 12.2623V19.9972H16.4389V12.78C16.4389 10.967 15.7902 9.72963 14.1671 9.72963C13.6617 9.73295 13.1696 9.89229 12.7581 10.1859C12.3467 10.4794 12.0359 10.8929 11.8683 11.3698C11.753 11.7222 11.7026 12.0927 11.7194 12.4632V19.9962H7.23179C7.23179 19.9962 7.29176 7.77267 7.23179 6.50334H11.7174V8.41533C11.7084 8.42932 11.6964 8.44531 11.6884 8.4593H11.7174V8.41533C12.1232 7.71003 12.7145 7.12939 13.4271 6.73646C14.1396 6.34353 14.9462 6.15333 15.7593 6.18651C18.7107 6.19051 20.9225 8.11848 20.9225 12.2623ZM2.53929 0.0047969C2.21903 -0.0229147 1.8965 0.0157195 1.59185 0.118286C1.2872 0.220852 1.00697 0.385146 0.768682 0.600902C0.530393 0.816658 0.33916 1.07924 0.206933 1.37224C0.0747067 1.66524 0.00432747 1.98236 0.000193355 2.30379C-0.00394076 2.62521 0.0582591 2.94404 0.182906 3.24034C0.307554 3.53665 0.49197 3.80406 0.724631 4.02587C0.957293 4.24768 1.2332 4.41913 1.53511 4.5295C1.83703 4.63987 2.15846 4.68678 2.47932 4.66732H2.5093C2.83095 4.69513 3.15487 4.65605 3.46067 4.55254C3.76648 4.44902 4.04753 4.28331 4.28615 4.06585C4.52477 3.84838 4.71578 3.58387 4.84715 3.28896C4.97853 2.99405 5.04742 2.67514 5.0495 2.3523C5.05158 2.02946 4.98679 1.70968 4.85922 1.41311C4.73165 1.11654 4.54405 0.849588 4.30825 0.629071C4.07245 0.408554 3.79355 0.239246 3.4891 0.131806C3.18466 0.0243667 2.86127 -0.0188777 2.53929 0.0047969ZM0.267497 19.9942H4.75111V6.50134H0.267497V19.9942Z" fill="white"/>
</g>
</g>
<defs>
<clipPath id="clip0_47_91469">
<rect width="20.9219" height="19.9924" fill="white" transform="translate(0 0.00390625)"/>
</clipPath>
</defs>
</svg>
