<svg width="25" height="25" viewBox="0 0 25 25" fill="none" xmlns="http://www.w3.org/2000/svg">
<path d="M12.5 0C12.3229 0 12.1458 0 11.9583 0.0104167C5.14583 0.28125 0 5.54167 0 12.2396C0 19.2708 5.59375 25 12.4688 25C19.375 25 25 19.375 25 12.4583C25 5.58333 19.3958 0 12.5 0ZM22.0937 6.22917C23.1042 7.75 23.7396 9.53125 23.9062 11.4375H18.1979C18.1458 9.65625 17.8125 7.90625 17.1875 6.22917H22.0937ZM7.80208 11.4375C7.85417 9.64583 8.21875 7.90625 8.90625 6.22917H16.1042C16.7917 7.90625 17.1562 9.65625 17.2083 11.4375H7.80208ZM17.1979 12.4792C17.1458 14.1875 16.8021 15.9271 16.1667 17.6875H8.83333C8.20833 15.9375 7.86458 14.1875 7.8125 12.4792H17.1979ZM21.3229 5.1875H16.7604C16.1354 3.79167 15.3021 2.44792 14.2708 1.17708C17.0938 1.61458 19.5729 3.08333 21.3229 5.1875ZM12.2187 1.05208C12.3125 1.04167 12.4062 1.04167 12.5 1.04167H12.7917C13.9792 2.35417 14.9271 3.73958 15.6354 5.1875H9.375C10.0833 3.75 11.0312 2.36458 12.2187 1.05208ZM10.75 1.17708C9.70833 2.44792 8.875 3.79167 8.25 5.1875H3.51042C5.23958 3.0625 7.78125 1.58333 10.75 1.17708ZM2.77083 6.22917H7.82292C7.19792 7.90625 6.86458 9.65625 6.8125 11.4375H1.07292C1.19792 9.52083 1.79167 7.75 2.77083 6.22917ZM1.04167 12.4792H6.8125C6.86458 14.1979 7.1875 15.9375 7.76042 17.6875H2.35417C1.55208 16.125 1.08333 14.3542 1.04167 12.4792ZM2.96875 18.7292H8.13542C8.80208 20.4375 9.71875 22.1458 10.8958 23.8437C7.59375 23.375 4.73958 21.4583 2.96875 18.7292ZM12.25 23.9583C10.9688 22.2188 9.95833 20.4687 9.23958 18.7292H15.7708C15.0417 20.4687 14.0312 22.2188 12.75 23.9583H12.25ZM14.125 23.8333C15.2917 22.1458 16.1979 20.4375 16.8646 18.7292H22.0833C20.3229 21.4375 17.4479 23.3542 14.125 23.8333ZM22.6875 17.6875H17.2396C17.8229 15.9375 18.1458 14.1979 18.1979 12.4792H23.9583C23.9583 14.3542 23.5 16.125 22.6875 17.6875Z" fill="white"/>
</svg>
