<svg width="190" height="127" viewBox="0 0 190 127" fill="none" xmlns="http://www.w3.org/2000/svg">
<path opacity="0.3" d="M172.419 111.299H131.731C131.15 111.299 130.675 110.824 130.675 110.244C130.675 109.663 131.15 109.188 131.731 109.188H172.419C173 109.188 173.475 109.663 173.475 110.244C173.475 110.824 173 111.299 172.419 111.299ZM106.663 111.299H100.331C99.7501 111.299 99.2751 110.824 99.2751 110.244C99.2751 109.663 99.7501 109.188 100.331 109.188H106.663C107.244 109.188 107.719 109.663 107.719 110.244C107.719 110.824 107.244 111.299 106.663 111.299ZM92.6784 111.299H61.4366C60.8561 111.299 60.3811 110.824 60.3811 110.244C60.3811 109.663 60.8561 109.188 61.4366 109.188H92.6784C93.2589 109.188 93.7339 109.663 93.7339 110.244C93.7339 110.824 93.2589 111.299 92.6784 111.299ZM38.8495 111.299H17.5818C17.0013 111.299 16.5264 110.824 16.5264 110.244C16.5264 109.663 17.0013 109.188 17.5818 109.188H38.8495C39.43 109.188 39.905 109.663 39.905 110.244C39.905 110.824 39.43 111.299 38.8495 111.299ZM24.2313 68.9221H22.6481V67.3389C22.6481 66.9167 22.2787 66.5473 21.8565 66.5473C21.4343 66.5473 21.0649 66.9167 21.0649 67.3389V68.9221H19.4817C19.0595 68.9221 18.6901 69.2916 18.6901 69.7137C18.6901 70.1359 19.0595 70.5053 19.4817 70.5053H21.0649V72.0885C21.0649 72.5107 21.4343 72.8801 21.8565 72.8801C22.2787 72.8801 22.6481 72.5107 22.6481 72.0885V70.5053H24.2313C24.6535 70.5053 25.0229 70.1359 25.0229 69.7137C25.0229 69.2916 24.6535 68.9221 24.2313 68.9221ZM153.473 97.1031H151.89V95.52C151.89 95.0978 151.521 94.7283 151.099 94.7283C150.676 94.7283 150.307 95.0978 150.307 95.52V97.1031H148.724C148.302 97.1031 147.932 97.4726 147.932 97.8948C147.932 98.3169 148.302 98.6864 148.724 98.6864H150.307V100.27C150.307 100.692 150.676 101.061 151.099 101.061C151.521 101.061 151.89 100.692 151.89 100.27V98.6864H153.473C153.896 98.6864 154.265 98.3169 154.265 97.8948C154.265 97.4726 153.896 97.1031 153.473 97.1031ZM134.158 32.4557C132.681 32.4557 131.52 31.2947 131.52 29.817C131.52 28.3394 132.681 27.1783 134.158 27.1783C135.636 27.1783 136.797 28.3394 136.797 29.817C136.797 31.2947 135.636 32.4557 134.158 32.4557ZM134.158 28.2338C133.261 28.2338 132.575 28.9199 132.575 29.817C132.575 30.7142 133.261 31.4002 134.158 31.4002C135.055 31.4002 135.742 30.7142 135.742 29.817C135.742 28.9199 135.055 28.2338 134.158 28.2338Z" fill="white"/>
<path opacity="0.7" d="M47.0817 77.6825C45.8679 77.6825 44.8652 76.6798 44.8652 75.466C44.8652 74.2522 45.8679 73.2495 47.0817 73.2495C48.2955 73.2495 49.2982 74.2522 49.2982 75.466C49.2982 76.6798 48.2955 77.6825 47.0817 77.6825ZM47.0817 74.3577C46.4484 74.3577 45.9207 74.8855 45.9207 75.5188C45.9207 76.1521 46.4484 76.6798 47.0817 76.6798C47.715 76.6798 48.2427 76.1521 48.2427 75.5188C48.2427 74.8855 47.715 74.3577 47.0817 74.3577Z" fill="white"/>
<path d="M84.7616 124.334C84.3922 124.334 84.0227 124.334 83.6533 124.281C82.9145 124.229 82.334 123.648 82.3868 122.909C82.4395 122.17 83.02 121.643 83.7589 121.643C84.0755 121.643 84.4449 121.643 84.7616 121.696C85.5004 121.696 86.0809 122.329 86.0281 123.068C86.0281 123.754 85.4476 124.334 84.7616 124.334ZM88.9834 124.229C88.2974 124.229 87.7169 123.701 87.6641 123.015C87.6113 122.276 88.1918 121.643 88.8779 121.643L89.8806 121.59C90.6194 121.537 91.2527 122.065 91.3055 122.804C91.3582 123.543 90.8305 124.176 90.0917 124.229C89.7223 124.281 89.3529 124.281 89.0362 124.281C89.0362 124.229 88.9834 124.229 88.9834 124.229ZM79.4842 123.965H79.3259C78.9565 123.912 78.5871 123.859 78.2704 123.806C77.5316 123.701 77.0566 123.015 77.1622 122.329C77.2677 121.59 77.9538 121.115 78.6398 121.221L79.6425 121.379C80.3814 121.484 80.8563 122.118 80.8036 122.857C80.698 123.437 80.1175 123.965 79.4842 123.965ZM94.208 123.648C93.5747 123.648 92.9942 123.173 92.8887 122.54C92.7831 121.801 93.2581 121.168 93.9969 121.009L94.9996 120.851C95.7384 120.746 96.4245 121.221 96.53 121.907C96.6356 122.593 96.1606 123.331 95.4746 123.437L94.4191 123.595C94.3663 123.648 94.2608 123.648 94.208 123.648ZM74.2596 123.068C74.1541 123.068 74.0486 123.068 73.9958 123.015C73.6264 122.962 73.3097 122.857 72.9403 122.751C72.2543 122.593 71.7793 121.854 71.9904 121.168C72.1487 120.482 72.8875 120.007 73.5736 120.218C73.8902 120.323 74.2596 120.376 74.5763 120.429C75.2623 120.587 75.7373 121.273 75.579 122.012C75.4207 122.645 74.8929 123.068 74.2596 123.068ZM99.3798 122.593C98.7993 122.593 98.2716 122.223 98.1132 121.59C97.9021 120.904 98.3243 120.165 99.0632 119.954L100.066 119.69C100.752 119.479 101.491 119.901 101.702 120.587C101.913 121.273 101.491 122.012 100.805 122.223C100.435 122.329 100.119 122.434 99.7492 122.487C99.5909 122.54 99.4854 122.593 99.3798 122.593ZM69.1934 121.643C69.0351 121.643 68.9295 121.643 68.7712 121.59C68.4546 121.484 68.0852 121.379 67.7685 121.221C67.0825 120.957 66.713 120.218 66.9769 119.532C67.2408 118.846 67.9796 118.476 68.6657 118.74L69.6156 119.057C70.3016 119.268 70.6711 120.06 70.46 120.746C70.2489 121.273 69.7739 121.643 69.1934 121.643ZM104.393 120.957C103.866 120.957 103.338 120.64 103.179 120.112C102.916 119.426 103.285 118.687 103.971 118.424L104.921 118.054C105.607 117.79 106.346 118.107 106.61 118.793C106.874 119.479 106.557 120.218 105.871 120.482C105.554 120.64 105.185 120.746 104.868 120.851C104.71 120.957 104.552 120.957 104.393 120.957ZM64.2855 119.743C64.1271 119.743 63.9161 119.69 63.7577 119.637C63.4411 119.479 63.1245 119.321 62.755 119.162C62.1218 118.846 61.8051 118.054 62.1218 117.421C62.4384 116.788 63.23 116.471 63.8633 116.788L64.8132 117.21C65.4993 117.526 65.7631 118.265 65.4993 118.951C65.2882 119.426 64.7604 119.743 64.2855 119.743ZM109.248 118.846C108.773 118.846 108.299 118.582 108.087 118.107C107.771 117.474 108.035 116.682 108.668 116.365C108.985 116.207 109.301 116.049 109.565 115.89C110.198 115.574 110.99 115.785 111.359 116.471C111.676 117.104 111.465 117.896 110.779 118.265L109.829 118.74C109.618 118.793 109.407 118.846 109.248 118.846ZM59.5886 117.315C59.3775 117.315 59.1137 117.263 58.9553 117.157L58.0054 116.629C57.3721 116.26 57.1611 115.468 57.5305 114.835C57.8999 114.202 58.6915 113.991 59.3248 114.36L60.2219 114.888C60.8552 115.257 61.0663 116.049 60.6969 116.682C60.4858 117.104 60.0636 117.315 59.5886 117.315ZM113.84 116.313C113.418 116.313 112.995 116.102 112.731 115.679C112.362 115.046 112.52 114.254 113.154 113.885C113.47 113.727 113.734 113.516 113.998 113.305C114.631 112.882 115.423 113.093 115.845 113.674C116.267 114.254 116.056 115.099 115.476 115.521L114.579 116.102C114.315 116.207 114.104 116.313 113.84 116.313ZM55.1557 114.466C54.8918 114.466 54.6279 114.36 54.3641 114.202C54.0474 113.991 53.7836 113.78 53.5197 113.568C52.9392 113.146 52.8336 112.302 53.2558 111.721C53.678 111.141 54.5224 111.035 55.1029 111.457C55.3668 111.669 55.6306 111.88 55.9473 112.038C56.5278 112.46 56.6861 113.305 56.2639 113.885C55.9473 114.307 55.5778 114.466 55.1557 114.466ZM118.167 113.252C117.798 113.252 117.376 113.093 117.112 112.724C116.689 112.144 116.795 111.299 117.323 110.877L118.114 110.244C118.695 109.769 119.486 109.874 119.961 110.455C120.436 111.035 120.331 111.827 119.75 112.302L118.906 112.988C118.748 113.199 118.431 113.252 118.167 113.252ZM122.178 109.822C121.809 109.822 121.492 109.663 121.228 109.399C120.7 108.872 120.753 108.027 121.281 107.552C121.545 107.341 121.756 107.077 122.02 106.813C122.547 106.286 123.392 106.286 123.867 106.813C124.394 107.341 124.394 108.186 123.867 108.66C123.603 108.924 123.339 109.188 123.075 109.399C122.811 109.716 122.495 109.822 122.178 109.822ZM125.819 106.022C125.503 106.022 125.186 105.916 124.975 105.705C124.447 105.23 124.342 104.386 124.817 103.858C125.028 103.594 125.239 103.33 125.503 103.066C125.978 102.486 126.822 102.433 127.35 102.908C127.93 103.383 127.983 104.228 127.508 104.755C127.297 105.019 127.033 105.283 126.822 105.6C126.558 105.863 126.189 106.022 125.819 106.022ZM129.038 101.853C128.775 101.853 128.511 101.8 128.3 101.589C127.719 101.167 127.561 100.322 127.983 99.7418L128.564 98.8974C128.986 98.3169 129.777 98.1058 130.411 98.528C130.991 98.9502 131.202 99.7418 130.78 100.375L130.147 101.272C129.883 101.694 129.461 101.853 129.038 101.853ZM131.835 97.4197C131.624 97.4197 131.413 97.367 131.202 97.2614C130.569 96.892 130.358 96.1004 130.674 95.4671L131.149 94.57C131.519 93.9367 132.31 93.6728 132.944 94.0422C133.577 94.4117 133.841 95.2033 133.471 95.8365C133.313 96.1532 133.155 96.4698 132.944 96.7865C132.733 97.1559 132.31 97.4197 131.835 97.4197ZM134.21 92.6701C134.052 92.6701 133.841 92.6174 133.683 92.5646C132.996 92.2479 132.733 91.5091 132.996 90.8231L133.419 89.8731C133.683 89.1871 134.474 88.8704 135.16 89.1343C135.846 89.3982 136.163 90.1898 135.899 90.8758L135.477 91.8785C135.213 92.4063 134.685 92.6701 134.21 92.6701ZM136.057 87.7622C135.899 87.7622 135.793 87.7622 135.635 87.7094C134.949 87.4983 134.58 86.7595 134.791 86.0735C134.896 85.7568 135.002 85.4402 135.107 85.0708C135.319 84.3847 136.057 83.9625 136.743 84.1736C137.429 84.3847 137.852 85.1235 137.641 85.8096L137.324 86.8651C137.113 87.3928 136.638 87.7622 136.057 87.7622ZM137.429 82.6432C137.324 82.6432 137.218 82.6432 137.166 82.5904C136.427 82.4321 136.005 81.746 136.163 81.0072L136.374 80.0045C136.532 79.2657 137.218 78.8435 137.904 78.949C138.643 79.1074 139.065 79.7934 138.96 80.4795L138.749 81.5349C138.59 82.221 138.01 82.6432 137.429 82.6432ZM138.274 77.4714H138.116C137.377 77.3658 136.849 76.7326 136.954 75.9937L137.06 74.991C137.113 74.2522 137.746 73.7245 138.485 73.7772C139.224 73.83 139.751 74.4633 139.699 75.2021C139.646 75.5715 139.646 75.941 139.593 76.2576C139.54 76.9436 138.96 77.4714 138.274 77.4714ZM138.59 72.194C137.852 72.194 137.271 71.5608 137.271 70.8747V69.8192C137.271 69.0804 137.852 68.4999 138.59 68.4999C139.329 68.4999 139.91 69.0804 139.91 69.8192V70.8747C139.91 71.6135 139.329 72.194 138.59 72.194ZM138.432 66.9167C137.746 66.9167 137.166 66.389 137.113 65.7029L137.007 64.7002C136.954 63.9614 137.429 63.3281 138.168 63.2226C138.907 63.1698 139.54 63.6447 139.646 64.3836C139.699 64.753 139.699 65.1224 139.751 65.439C139.804 66.1779 139.277 66.8111 138.538 66.8639C138.485 66.9167 138.432 66.9167 138.432 66.9167ZM137.693 61.6921C137.06 61.6921 136.532 61.2699 136.374 60.6367C136.321 60.32 136.268 59.9506 136.163 59.634C136.005 58.8951 136.48 58.2091 137.166 58.0508C137.852 57.8924 138.59 58.3674 138.749 59.0535L138.96 60.1089C139.118 60.8478 138.643 61.5338 137.904 61.6394C137.852 61.6921 137.746 61.6921 137.693 61.6921ZM136.427 56.5731C135.846 56.5731 135.319 56.2037 135.16 55.6232C135.055 55.3065 134.949 54.9899 134.844 54.6205C134.632 53.9344 135.002 53.1956 135.688 52.9845C136.374 52.7734 137.113 53.1428 137.324 53.8289L137.641 54.8844C137.852 55.5704 137.429 56.3092 136.743 56.5203C136.691 56.5203 136.585 56.5731 136.427 56.5731ZM134.685 51.6124C134.157 51.6124 133.683 51.2958 133.471 50.768C133.366 50.4514 133.208 50.1347 133.049 49.8181C132.785 49.132 133.049 48.3932 133.735 48.0766C134.421 47.8127 135.16 48.0766 135.477 48.7626L135.899 49.7653C136.163 50.4514 135.846 51.1902 135.16 51.5069C135.002 51.5596 134.844 51.6124 134.685 51.6124ZM132.469 46.81C131.994 46.81 131.519 46.5462 131.308 46.124L130.833 45.2268C130.463 44.5935 130.727 43.8019 131.361 43.4325C131.994 43.0631 132.785 43.327 133.155 43.9603L133.683 44.9102C133.999 45.5435 133.788 46.3351 133.155 46.7045C132.891 46.7572 132.68 46.81 132.469 46.81Z" fill="#E5E6E8"/>
<path d="M41.1186 97.2087C40.9603 97.2087 40.8019 97.1559 40.6436 97.1031L33.1498 94.2006C32.4637 93.9367 32.1471 93.1451 32.411 92.5118C32.6748 91.8258 33.4664 91.5091 34.0997 91.773L40.327 94.2006L42.8073 87.815C43.0712 87.1289 43.8628 86.8123 44.4961 87.0762C45.1821 87.34 45.4988 88.1316 45.2349 88.7649L42.2796 96.3643C42.1213 96.892 41.6463 97.2087 41.1186 97.2087ZM40.9603 96.7337C40.4853 96.7337 40.0103 96.4698 39.7992 96.0476C33.0442 83.2237 31.6721 68.6055 35.894 54.7788C40.1159 40.9522 49.5096 29.6587 62.2807 22.9037C81.5958 12.6656 105.027 15.0404 121.915 28.9198C122.495 29.3948 122.548 30.2392 122.073 30.7669C121.598 31.3474 120.754 31.4002 120.226 30.9252C104.13 17.7319 81.9124 15.5154 63.4945 25.2257C51.3566 31.664 42.4379 42.4298 38.3744 55.5704C34.3108 68.711 35.6301 82.6432 42.0685 94.7811C42.3851 95.4144 42.174 96.206 41.5408 96.5754C41.3824 96.6809 41.1713 96.7337 40.9603 96.7337Z" fill="white"/>
<path d="M128.986 53.3539C128.828 53.3539 128.617 53.3011 128.458 53.2483C127.614 52.9317 127.192 52.0345 127.508 51.2429L130.305 43.5908C130.464 43.2214 130.728 42.852 131.15 42.6937C131.519 42.5353 131.941 42.4826 132.364 42.6409L139.91 45.3851C140.755 45.7017 141.177 46.5989 140.86 47.3905C140.543 48.2349 139.646 48.6571 138.855 48.3404L132.786 46.1239L130.517 52.2984C130.253 52.9317 129.619 53.3539 128.986 53.3539Z" fill="#E5E6E8"/>
<path d="M106.927 41.9548H66.7133C63.4941 41.9548 60.9082 44.5407 60.9082 47.7599V79.3184C60.9082 82.5376 63.4941 85.1235 66.7133 85.1235H70.8824V94.5699C70.8824 94.9921 71.2518 95.3615 71.674 95.3615C71.8851 95.3615 72.0962 95.256 72.2545 95.1505L82.2814 85.1235H106.927C110.146 85.1235 112.732 82.5376 112.732 79.3184V47.7599C112.784 44.5407 110.146 41.9548 106.927 41.9548Z" fill="white"/>
<path d="M71.7265 96.4171C71.2516 96.4171 70.7766 96.206 70.4072 95.8893C70.0378 95.5199 69.8795 95.0977 69.8795 94.57V86.179H66.7658C63.0189 86.179 59.9053 83.0654 59.9053 79.3185V47.76C59.9053 44.013 63.0189 40.8994 66.7658 40.8994H106.979C110.779 40.8994 113.84 44.013 113.84 47.76V79.3185C113.84 83.0654 110.726 86.179 106.979 86.179H82.7562L73.0459 95.8893C72.7292 96.2588 72.2543 96.4171 71.7265 96.4171ZM70.9349 84.0681H71.9904V93.9367L81.9118 84.0153H106.979C109.565 84.0153 111.729 81.8516 111.729 79.2657V47.76C111.729 45.1213 109.565 43.0104 106.979 43.0104H66.7658C64.1799 43.0104 62.0162 45.1741 62.0162 47.76V79.3185C62.0162 81.9044 64.1799 84.0681 66.7658 84.0681H70.9349Z" fill="#81B441"/>
<path opacity="0.22" d="M110.357 45.1213H70.1967C66.9775 45.1213 64.3916 47.7072 64.3916 50.9264V82.4849C64.3916 85.7041 66.9775 88.29 70.1967 88.29H74.3658V97.7365C74.3658 98.1586 74.7352 98.5281 75.1574 98.5281C75.3685 98.5281 75.5796 98.4225 75.7379 98.317L85.7648 88.29H110.41C113.629 88.29 116.215 85.7041 116.215 82.4849V50.9264C116.215 47.7072 113.576 45.1213 110.357 45.1213Z" fill="#81B441"/>
<path opacity="0.8" d="M85.0263 56.151H69.0887C68.5082 56.151 68.0332 55.676 68.0332 55.0955C68.0332 54.515 68.5082 54.04 69.0887 54.04H85.0263C85.6068 54.04 86.0818 54.515 86.0818 55.0955C86.0818 55.676 85.6068 56.151 85.0263 56.151ZM100.225 59.9507H69.0359C68.4554 59.9507 67.9805 59.4757 67.9805 58.8952C67.9805 58.3147 68.4554 57.8397 69.0359 57.8397H100.225C100.806 57.8397 101.281 58.3147 101.281 58.8952C101.281 59.4757 100.806 59.9507 100.225 59.9507ZM100.225 77.8936H69.0359C68.4554 77.8936 67.9805 77.4187 67.9805 76.8382C67.9805 76.2577 68.4554 75.7827 69.0359 75.7827H100.225C100.806 75.7827 101.281 76.2577 101.281 76.8382C101.281 77.4187 100.806 77.8936 100.225 77.8936ZM92.5201 64.753H69.0359C68.4554 64.753 67.9805 64.2781 67.9805 63.6976C67.9805 63.1171 68.4554 62.6421 69.0359 62.6421H92.5201C93.1006 62.6421 93.5756 63.1171 93.5756 63.6976C93.5756 64.3309 93.1006 64.753 92.5201 64.753ZM75.3687 69.6082H69.0359C68.4554 69.6082 67.9805 69.1332 67.9805 68.5527C67.9805 67.9722 68.4554 67.4973 69.0359 67.4973H75.3687C75.9493 67.4973 76.4242 67.9722 76.4242 68.5527C76.4242 69.1332 75.9493 69.6082 75.3687 69.6082ZM93.47 69.6082H86.8206C86.2401 69.6082 85.7651 69.1332 85.7651 68.5527C85.7651 67.9722 86.2401 67.4973 86.8206 67.4973H93.47C94.0505 67.4973 94.5255 67.9722 94.5255 68.5527C94.5255 69.1332 94.1033 69.6082 93.47 69.6082ZM101.808 69.6082H98.4835C97.903 69.6082 97.428 69.1332 97.428 68.5527C97.428 67.9722 97.903 67.4973 98.4835 67.4973H101.808C102.389 67.4973 102.864 67.9722 102.864 68.5527C102.864 69.1332 102.389 69.6082 101.808 69.6082Z" fill="white"/>
</svg>
