<svg width="24" height="23" viewBox="0 0 24 23" fill="none" xmlns="http://www.w3.org/2000/svg">
<g clip-path="url(#clip0_47_92108)">
<path d="M22.5708 11.6509C22.5708 10.9241 22.5064 10.2341 22.396 9.5625H12V13.7117H17.9524C17.6856 15.0733 16.9036 16.2233 15.7444 17.0053V19.7653H19.2956C21.3748 17.8425 22.5708 15.0089 22.5708 11.6509Z" fill="#4285F4"/>
<path d="M12.0016 22.4449C14.9824 22.4449 17.4756 21.4513 19.2972 19.7677L15.746 17.0077C14.7524 17.6701 13.492 18.0749 12.0016 18.0749C9.12204 18.0749 6.68404 16.1337 5.81004 13.5117H2.14844V16.3545C3.96084 19.9609 7.68684 22.4449 12.0016 22.4449Z" fill="#34A853"/>
<path d="M5.80934 13.5095C5.57934 12.8471 5.45974 12.1387 5.45974 11.4027C5.45974 10.6667 5.58854 9.95833 5.80934 9.29593V6.45312H2.14774C1.39334 7.94353 0.960938 9.61793 0.960938 11.4027C0.960938 13.1875 1.39334 14.8619 2.14774 16.3523L5.80934 13.5095Z" fill="#FABB05"/>
<path d="M12.0016 4.73328C13.63 4.73328 15.0836 5.29448 16.2336 6.38928L19.38 3.24288C17.4756 1.45808 14.9824 0.363281 12.0016 0.363281C7.68684 0.363281 3.96084 2.84728 2.14844 6.45368L5.81004 9.29648C6.68404 6.67448 9.12204 4.73328 12.0016 4.73328Z" fill="#E94235"/>
</g>
<defs>
<clipPath id="clip0_47_92108">
<rect width="22.08" height="23" fill="white" transform="translate(0.960938)"/>
</clipPath>
</defs>
</svg>
