<svg width="24" height="25" viewBox="0 0 24 25" fill="none" xmlns="http://www.w3.org/2000/svg">
<path d="M10.2852 4.35264C10.2852 4.95277 10.5236 5.52832 10.9479 5.95268C11.3723 6.37703 11.9478 6.61543 12.548 6.61543C13.1481 6.61543 13.7236 6.37703 14.148 5.95268C14.5723 5.52832 14.8108 4.95277 14.8108 4.35264C14.8108 3.7525 14.5723 3.17695 14.148 2.7526C13.7236 2.32824 13.1481 2.08984 12.548 2.08984C11.9478 2.08984 11.3723 2.32824 10.9479 2.7526C10.5236 3.17695 10.2852 3.7525 10.2852 4.35264Z" stroke="#767676" stroke-width="1.15" stroke-linecap="round" stroke-linejoin="round"/>
<path d="M16.8121 11.61C13.98 11.2054 13.3772 10.0812 12.6133 8.65744L12.3761 8.22117C12.2438 7.98321 12.0429 7.79055 11.7997 7.66821C11.5564 7.54586 11.282 7.49949 11.012 7.53511C10.7421 7.57074 10.4891 7.68671 10.2859 7.86797C10.0827 8.04922 9.9387 8.2874 9.8726 8.55154L6.70467 21.2232C6.6173 21.5724 6.67215 21.9419 6.85715 22.2507C7.04215 22.5594 7.34217 22.782 7.69126 22.8697C7.79968 22.8963 7.91088 22.91 8.02253 22.9104C8.32523 22.9101 8.61913 22.8087 8.85758 22.6222C9.09602 22.4358 9.26532 22.175 9.33857 21.8813L10.4672 17.3656C11.2936 18.5902 11.5307 19.3822 12.1327 21.8713C12.204 22.1667 12.3723 22.4296 12.6107 22.618C12.8492 22.8064 13.1439 22.9093 13.4478 22.9104C13.5554 22.9101 13.6626 22.8974 13.7673 22.8724C13.9407 22.8305 14.1041 22.7549 14.2483 22.6499C14.3925 22.5448 14.5145 22.4124 14.6075 22.2602C14.7004 22.108 14.7625 21.9389 14.7901 21.7627C14.8177 21.5865 14.8103 21.4066 14.7684 21.2332C13.8316 17.362 13.5111 16.8316 11.318 13.947L11.757 12.1947C13.0289 13.4055 14.6751 14.147 16.4247 14.2973C16.6033 14.3272 16.786 14.3211 16.9622 14.2793C17.1384 14.2376 17.3044 14.161 17.4506 14.0541C17.5967 13.9473 17.72 13.8122 17.8132 13.657C17.9064 13.5017 17.9676 13.3294 17.9932 13.1502C18.0188 12.971 18.0082 12.7884 17.9622 12.6133C17.9162 12.4382 17.8357 12.274 17.7253 12.1305C17.6149 11.987 17.4769 11.867 17.3195 11.7776C17.162 11.6882 16.9883 11.6312 16.8085 11.61H16.8121Z" stroke="#767676" stroke-width="1.15" stroke-linecap="round" stroke-linejoin="round"/>
<path d="M20.2403 10.2383L17.0723 22.91" stroke="#767676" stroke-width="1.15" stroke-linecap="round" stroke-linejoin="round"/>
<path d="M4.57835 13.5726C4.4417 13.542 4.31254 13.4844 4.19849 13.4031C4.08444 13.3218 3.9878 13.2186 3.91426 13.0994C3.84071 12.9802 3.79175 12.8476 3.77026 12.7092C3.74876 12.5708 3.75516 12.4295 3.78909 12.2937L4.89786 7.86491C4.96444 7.59938 5.13208 7.37036 5.36507 7.22664C5.59805 7.08293 5.87795 7.03589 6.14512 7.09556L7.2032 7.33179C7.3395 7.36261 7.46828 7.42032 7.58198 7.50155C7.69569 7.58278 7.79203 7.68589 7.86537 7.80484C7.93871 7.92378 7.98757 8.05617 8.00908 8.19425C8.0306 8.33232 8.02433 8.4733 7.99065 8.60892L6.88369 13.044C6.81712 13.3095 6.64947 13.5386 6.41649 13.6823C6.1835 13.826 5.9036 13.873 5.63644 13.8134L4.57835 13.5726Z" stroke="#767676" stroke-width="1.15" stroke-linecap="round" stroke-linejoin="round"/>
<path d="M4.62109 8.96875L7.72475 9.66298" stroke="#767676" stroke-width="1.15" stroke-linecap="round" stroke-linejoin="round"/>
</svg>
