<svg width="20" height="20" viewBox="0 0 20 20" fill="none" xmlns="http://www.w3.org/2000/svg">
<g opacity="0.3">
<path d="M7.49935 1.66406C5.31602 1.66406 3.54102 3.43906 3.54102 5.6224C3.54102 7.76406 5.21602 9.4974 7.39935 9.5724C7.46602 9.56406 7.53268 9.56406 7.58268 9.5724C7.59935 9.5724 7.60768 9.5724 7.62435 9.5724C7.63268 9.5724 7.63268 9.5724 7.64102 9.5724C9.77435 9.4974 11.4494 7.76406 11.4577 5.6224C11.4577 3.43906 9.68268 1.66406 7.49935 1.66406Z" fill="#292D32"/>
<path d="M11.7328 11.7953C9.40781 10.2453 5.61615 10.2453 3.27448 11.7953C2.21615 12.5036 1.63281 13.462 1.63281 14.487C1.63281 15.512 2.21615 16.462 3.26615 17.162C4.43281 17.9453 5.96615 18.337 7.49948 18.337C9.03281 18.337 10.5661 17.9453 11.7328 17.162C12.7828 16.4536 13.3661 15.5036 13.3661 14.4703C13.3578 13.4453 12.7828 12.4953 11.7328 11.7953Z" fill="#292D32"/>
<path d="M16.6578 6.11903C16.7911 7.73569 15.6411 9.15236 14.0495 9.34403C14.0411 9.34403 14.0411 9.34403 14.0328 9.34403H14.0078C13.9578 9.34403 13.9078 9.34403 13.8661 9.36069C13.0578 9.40236 12.3161 9.14403 11.7578 8.66903C12.6161 7.90236 13.1078 6.75236 13.0078 5.50236C12.9495 4.82736 12.7161 4.2107 12.3661 3.6857C12.6828 3.52736 13.0495 3.42736 13.4245 3.39403C15.0578 3.25236 16.5161 4.46903 16.6578 6.11903Z" fill="#292D32"/>
<path d="M18.3249 13.8227C18.2582 14.6311 17.7415 15.3311 16.8749 15.8061C16.0415 16.2644 14.9915 16.4811 13.9499 16.4561C14.5499 15.9144 14.8999 15.2394 14.9665 14.5227C15.0499 13.4894 14.5582 12.4977 13.5749 11.7061C13.0165 11.2644 12.3665 10.9144 11.6582 10.6561C13.4999 10.1227 15.8165 10.4811 17.2415 11.6311C18.0082 12.2477 18.3999 13.0227 18.3249 13.8227Z" fill="#292D32"/>
</g>
</svg>
