<svg width="48" height="48" viewBox="0 0 48 48" fill="none" xmlns="http://www.w3.org/2000/svg">
<mask id="mask0_47_91295" style="mask-type:luminance" maskUnits="userSpaceOnUse" x="0" y="0" width="48" height="48">
<path d="M24 46C36.1503 46 46 36.1503 46 24C46 11.8497 36.1503 2 24 2C11.8497 2 2 11.8497 2 24C2 36.1503 11.8497 46 24 46Z" stroke="#80807E" stroke-width="4"/>
</mask>
<g mask="url(#mask0_47_91295)">
<path d="M24 46C36.1503 46 46 36.1503 46 24C46 11.8497 36.1503 2 24 2C11.8497 2 2 11.8497 2 24C2 36.1503 11.8497 46 24 46Z" stroke="#80807E" stroke-width="4"/>
</g>
<path fill-rule="evenodd" clip-rule="evenodd" d="M30.1348 14H17.8652C15.7345 14 14 15.7333 14 17.8652V30.1348C14 32.2667 15.7345 34 17.8652 34H30.1348C32.2655 34 34 32.2667 34 30.1348V17.8652C34 15.7333 32.2655 14 30.1348 14ZM31.2437 16.306L31.6858 16.3036V19.6938L28.3062 19.7044L28.2944 16.3142L31.2437 16.306ZM21.146 21.9468C21.7857 21.0602 22.8253 20.4793 24 20.4793C25.1747 20.4793 26.2143 21.0602 26.854 21.9468C27.2714 22.5254 27.5207 23.2333 27.5207 24C27.5207 25.9403 25.9414 27.5195 24 27.5195C22.0597 27.5195 20.4805 25.9403 20.4805 24C20.4805 23.2333 20.7298 22.5254 21.146 21.9468ZM32.0515 30.1348C32.0515 31.1919 31.1919 32.0515 30.1348 32.0515H17.8652C16.8081 32.0515 15.9485 31.1919 15.9485 30.1348V21.9468H18.9353C18.6766 22.5818 18.532 23.2745 18.532 24C18.532 27.0151 20.9849 29.4692 24 29.4692C27.0162 29.4692 29.4692 27.0151 29.4692 24C29.4692 23.2745 29.3222 22.5818 29.0659 21.9468H32.0515V30.1348Z" fill="#80807E"/>
</svg>
