<svg width="22" height="22" viewBox="0 0 22 22" fill="none" xmlns="http://www.w3.org/2000/svg">
<path d="M21.9999 14.0518V7.92008H20.4651V14.0518H21.9999ZM21.9999 7.92008C21.9999 5.28962 21.4779 3.24891 20.1123 1.88515C18.7469 0.521398 16.7036 0 14.0697 0V1.53292C16.5521 1.53292 18.0902 2.03347 19.0271 2.96909C19.9639 3.90471 20.4651 5.44081 20.4651 7.92008H21.9999ZM14.0697 0H7.93021V1.53292H14.0697V0ZM7.93021 0C5.29639 0 3.25307 0.521398 1.88756 1.88515C0.522065 3.24891 0 5.28962 0 7.92008H1.53488C1.53488 5.44081 2.03607 3.90471 2.97289 2.96909C3.90971 2.03347 5.44777 1.53292 7.93021 1.53292V0ZM0 7.92008V14.0518H1.53488V7.92008H0ZM0 14.0518C0 16.6822 0.522065 18.723 1.88756 20.0866C3.25307 21.4504 5.29639 21.9718 7.93021 21.9718V20.4389C5.44777 20.4389 3.90971 19.9384 2.97289 19.0028C2.03607 18.0671 1.53488 16.531 1.53488 14.0518H0ZM7.93021 21.9718H14.0697V20.4389H7.93021V21.9718ZM14.0697 21.9718C16.7036 21.9718 18.7469 21.4504 20.1123 20.0866C21.4779 18.723 21.9999 16.6822 21.9999 14.0518H20.4651C20.4651 16.531 19.9639 18.0671 19.0271 19.0028C18.0902 19.9384 16.5521 20.4389 14.0697 20.4389V21.9718Z" fill="#93989A"/>
<path d="M7.6744 0.766459C7.6744 0.343155 7.3308 0 6.90696 0C6.48311 0 6.13952 0.343155 6.13952 0.766459H7.6744ZM6.13952 21.2054C6.13952 21.6287 6.48311 21.9718 6.90696 21.9718C7.3308 21.9718 7.6744 21.6287 7.6744 21.2054H6.13952ZM6.13952 0.766459V21.2054H7.6744V0.766459H6.13952Z" fill="#93989A"/>
<path d="M14.6124 8.91106C14.9121 8.61174 14.9121 8.12645 14.6124 7.82712C14.3127 7.5278 13.8268 7.5278 13.5271 7.82712L14.6124 8.91106ZM11.4502 10.9853L10.9076 10.4433C10.6078 10.7426 10.6078 11.2279 10.9076 11.5272L11.4502 10.9853ZM13.5271 14.1434C13.8268 14.4427 14.3127 14.4427 14.6124 14.1434C14.9121 13.8441 14.9121 13.3588 14.6124 13.0595L13.5271 14.1434ZM13.5271 7.82712L10.9076 10.4433L11.9929 11.5272L14.6124 8.91106L13.5271 7.82712ZM10.9076 11.5272L13.5271 14.1434L14.6124 13.0595L11.9929 10.4433L10.9076 11.5272Z" fill="#93989A"/>
</svg>
