<svg width="106" height="20" viewBox="0 0 106 20" fill="none" xmlns="http://www.w3.org/2000/svg">
<g clip-path="url(#clip0_1_5)">
<rect y="0.000976562" width="105.266" height="19.9977" fill="white"/>
<path d="M13.585 2.06438C13.0558 1.77067 11.5394 1.9519 9.71846 2.51572C6.53105 4.69464 3.84108 7.9044 3.65332 13.0592C3.6193 13.182 3.30475 13.0419 3.24254 13.004C2.38208 11.3541 2.04129 9.61685 2.75926 7.11089C2.89341 6.88758 2.45596 6.61316 2.37694 6.69149C2.2189 6.8498 1.5612 7.55014 1.12431 8.30755C-1.04072 12.0627 0.375784 16.876 4.16285 18.9817C7.94991 21.0912 12.7317 19.7303 14.8408 15.9425C17.2799 11.5702 15.0144 2.86304 13.5847 2.06425L13.585 2.06438Z" fill="#88B227"/>
<path d="M27.1404 4.1627C22.6507 4.1627 19.3916 7.50079 19.3916 12.1C19.3916 16.7369 22.6412 19.9757 27.2968 19.9757C29.6483 19.9757 31.5098 19.2403 32.9906 17.7265C33.4319 17.2488 33.4798 16.7887 33.4798 16.6133C33.4798 15.8632 32.9216 15.3184 32.1543 15.3184C31.7666 15.3184 31.4424 15.465 31.0716 15.8076C30.2331 16.5892 29.1292 17.3866 27.2968 17.3866C24.7482 17.3866 22.6761 15.4743 22.546 13.0176H32.6867C33.7894 13.0176 34.3252 12.5015 34.3252 11.4412C34.3252 11.1297 34.3252 10.9043 34.2624 10.4599C33.7166 6.51659 31.0537 4.16242 27.1402 4.16242L27.1404 4.1627ZM27.1404 6.62491C29.5757 6.62491 31.138 8.17668 31.2344 10.6808H22.5497C22.7775 8.36333 24.7375 6.62491 27.1404 6.62491ZM44.0097 4.1627C41.9701 4.1627 39.9505 5.33562 39.1617 6.9646V5.95805C39.1617 4.3985 37.9532 4.31976 37.7112 4.31976C36.995 4.31976 36.2294 4.74958 36.2294 5.95777V18.1171C36.2294 19.7367 37.5162 19.8183 37.7739 19.8183C38.0317 19.8183 39.3182 19.7367 39.3182 18.1171V11.5989C39.3182 8.76258 40.9256 6.7817 43.2266 6.7817C45.4561 6.7817 46.5397 8.24431 46.5397 11.2534V18.1171C46.5397 19.7369 47.8264 19.8183 48.084 19.8183C48.3417 19.8183 49.6285 19.7369 49.6285 18.1171V10.2823C49.6281 7.32372 48.1523 4.1627 44.0097 4.1627ZM63.6061 4.3199C62.8917 4.3199 62.3743 4.73583 62.0663 5.55532L57.8398 16.1842L53.6449 5.55532C53.3164 4.72347 52.803 4.31976 52.0738 4.31976C51.222 4.31976 50.5295 4.98399 50.5295 5.80112C50.5295 6.00318 50.5518 6.26551 50.7233 6.67491L55.581 18.144C56.1593 19.5277 57.1121 19.8178 57.809 19.8178C58.5047 19.8178 59.4574 19.5279 60.0382 18.1448L64.9265 6.61186C65.094 6.20705 65.1195 5.91 65.1195 5.76932C65.1192 4.94261 64.4685 4.31949 63.6064 4.31949L63.6061 4.3199ZM72.5884 4.1627C70.6128 4.1627 68.773 4.71319 67.4073 5.71113C66.9446 6.03054 66.7192 6.42883 66.7192 6.9296C66.7192 7.61952 67.2459 8.16001 67.9195 8.16001C68.2117 8.16001 68.537 8.04419 68.8365 7.83477C70.0099 7.0525 71.1131 6.68741 72.3066 6.68741C74.5906 6.68741 75.9017 7.84936 75.9017 9.87482V10.2106C70.7746 10.2162 65.5599 10.8355 65.5599 15.2957C65.5599 18.5065 68.3033 19.9435 71.0218 19.9435C73.1878 19.9435 74.9169 19.086 76.0263 17.4616V18.2427C76.0263 19.4065 76.8072 19.8185 77.4781 19.8185C77.6193 19.8185 78.8647 19.7746 78.8647 18.2429V10.0637C78.8647 6.36856 76.5183 4.16298 72.5887 4.16298L72.5884 4.1627ZM75.252 12.4853H75.9015V13.1968C75.9015 15.8002 74.2443 17.482 71.6797 17.482C70.9843 17.482 68.712 17.3199 68.712 15.2336C68.7117 12.7703 72.4445 12.4856 75.252 12.4856V12.4853ZM86.9092 7.12652C88.2616 7.12652 88.3296 6.07484 88.3296 5.86417C88.3296 5.23869 87.9563 4.57015 86.9092 4.57015H84.1298V1.75881C84.1298 0.502844 83.3151 0.0576172 82.6175 0.0576172C82.3595 0.0576172 81.0732 0.139136 81.0732 1.75881V15.1094C81.0732 18.1901 82.5922 19.8185 85.4681 19.8185C86.2122 19.8185 86.9371 19.6863 87.4119 19.4662C87.9554 19.195 88.2667 18.7488 88.2667 18.2427C88.2667 17.5284 87.7493 17.0109 87.0352 17.0109C86.8969 17.0109 86.7008 17.045 86.4847 17.1068C86.22 17.1734 86.0406 17.199 85.8445 17.199C84.6749 17.199 84.1294 16.4354 84.1294 14.7951V7.12624H86.909L86.9092 7.12652ZM97.125 4.1627C92.4533 4.1627 89.0631 7.4744 89.0631 12.0372C89.0631 14.2588 89.8847 16.2831 91.3744 17.7379C92.854 19.1812 94.8965 19.976 97.1251 19.976C101.739 19.976 105.22 16.5632 105.22 12.0375C105.22 7.47482 101.814 4.16312 97.125 4.16312V4.1627ZM97.125 17.3566C93.9216 17.3566 92.245 14.6805 92.245 12.0372C92.245 8.40499 94.7753 6.75101 97.125 6.75101C99.4757 6.75101 102.005 8.40499 102.005 12.0375C102.005 15.6926 99.4757 17.357 97.125 17.357V17.3566Z" fill="#13110C"/>
</g>
<rect x="0.5" y="0.500977" width="104.266" height="18.9977" stroke="white"/>
<defs>
<clipPath id="clip0_1_5">
<rect y="0.000976562" width="105.266" height="19.9977" fill="white"/>
</clipPath>
</defs>
</svg>
