<svg width="38" height="29" viewBox="0 0 38 29" fill="none" xmlns="http://www.w3.org/2000/svg">
<path d="M38.0007 10.4932V0H26.8242V10.4932H31.2948V26.71H29.0595V28.6179H35.7654V26.71H33.5301V10.4932H38.0007Z" fill="#25396F"/>
<path d="M21.2353 19.0821V23.8518H5.58824C5.58824 21.8057 5.58824 21.318 5.58824 19.0821C5.58824 16.448 3.08635 14.3125 0 14.3125V26.7136H2.23529V28.6214H4.47059V26.7136H22.3529V28.6214H24.5882V26.7136H26.8235V14.3125C23.7372 14.3125 21.2353 16.448 21.2353 19.0821Z" fill="#25396F"/>
<path d="M18.9999 21.9407C19.0053 19.0763 18.9873 19.037 19.0167 18.645C18.3552 18.315 17.586 18.125 16.7646 18.125C14.796 18.125 12.1497 18.125 10.0587 18.125C9.23731 18.125 8.46814 18.315 7.80664 18.645C7.836 19.0369 7.81782 19.0087 7.82341 21.9407H18.9999Z" fill="#25396F"/>
<path d="M10.0585 16.2174H16.7644C17.7404 16.2174 18.6679 16.3968 19.5052 16.7183C19.8918 15.8481 20.4855 15.0644 21.235 14.411V8.58594H5.58789V14.411C6.33731 15.0644 6.931 15.8481 7.31764 16.7183C8.15483 16.3968 9.0824 16.2174 10.0585 16.2174ZM14.5291 11.4477H16.7644V13.3556H14.5291V11.4477ZM10.0585 11.4477H12.2938V13.3556H10.0585V11.4477Z" fill="#25396F"/>
</svg>
