<svg width="75" height="24" viewBox="0 0 75 24" fill="none" xmlns="http://www.w3.org/2000/svg">
<g clip-path="url(#clip0_47_91305)">
<path d="M52.5631 11.1429C55.0737 12.1387 56.25 13.6746 56.25 15.9633C56.25 18.9577 53.9712 21.1196 50.5276 21.4629V22.6175C50.5276 23.381 49.9081 24 49.1438 24C48.3795 24 47.76 23.381 47.76 22.6175V21.3831C45.7586 21.0812 43.8746 20.2501 42.303 18.9759C41.9564 18.7317 41.7536 18.3316 41.7616 17.9079C41.7565 17.546 41.8973 17.1972 42.1522 16.9401C42.4072 16.6829 42.755 16.539 43.1173 16.5406C43.4375 16.5376 43.7475 16.6535 43.9871 16.8658C45.5327 18.2561 47.5512 19.0046 49.6304 18.9585C51.9046 18.9585 53.4322 17.8191 53.4322 16.1236C53.4322 14.9644 53.1303 13.9382 49.4221 13.0852L49.0085 12.9902L52.5631 11.1429ZM6.80784 2.57143C12.7396 2.57143 17.0447 6.51469 17.0455 11.9482V12C17.0455 17.4635 12.7396 21.4286 6.80784 21.4286H1.38332C0.619292 21.4148 0.00564516 20.8026 0 20.0486V3.95138C0.00564516 3.1974 0.619292 2.58524 1.38332 2.57143H6.80784ZM29.4295 1.71539C32.0921 1.67514 34.6534 2.73709 36.5096 4.65085C38.2607 6.50496 39.2265 8.96725 39.2042 11.5203V11.5726C39.2216 14.1374 38.2462 16.6091 36.4831 18.4679C34.6062 20.3584 32.0565 21.4236 29.3956 21.4286C26.7348 21.4335 24.1811 20.378 22.2972 18.4944C20.5465 16.6401 19.5807 14.1779 19.6026 11.625V11.5726C19.5851 9.00763 20.5605 6.5357 22.3237 4.67667C24.1848 2.75141 26.7553 1.68018 29.4295 1.71539ZM73.6435 2.57143C74.3928 2.58546 74.9945 3.18921 75 3.9327V20.0695C75 20.8201 74.3867 21.4286 73.6301 21.4286C72.8735 21.4286 72.2601 20.8201 72.2601 20.0695V13.2351H62.399V20.0695C62.399 20.8201 61.7856 21.4286 61.029 21.4286C60.2724 21.4286 59.6591 20.8201 59.6591 20.0695V3.9327C59.6591 3.18212 60.2724 2.57366 61.029 2.57366C61.7856 2.57366 62.399 3.18212 62.399 3.9327V10.6643H72.2601V3.9327C72.2638 3.17808 72.8828 2.56898 73.6435 2.57143ZM6.8048 5.14975H2.79021V18.8503H6.80784C11.1449 18.8503 14.1731 16.0543 14.1731 12.0518L14.1701 12C14.1701 7.96669 11.1395 5.14975 6.8048 5.14975ZM32.9764 5.30533C30.7936 3.99285 28.0693 3.98257 25.8766 5.27852C23.684 6.57448 22.3745 8.96895 22.4639 11.5187V11.5711C22.3553 14.1202 23.6468 16.5245 25.8296 17.8369C28.0125 19.1494 30.7368 19.1597 32.9294 17.8637C35.122 16.5678 36.4316 14.1733 36.3422 11.6235V11.5711C36.4507 9.02209 35.1592 6.6178 32.9764 5.30533ZM49.2036 0C49.9445 0 50.5452 0.585024 50.5452 1.30669V2.38794C52.0911 2.58789 53.5609 3.16177 54.8206 4.0572C55.1743 4.30287 55.3882 4.69673 55.3977 5.11978C55.3861 5.59914 55.1048 6.03347 54.6657 6.25019C54.2265 6.4669 53.7006 6.43091 53.2969 6.15652C52.0144 5.19774 50.4392 4.68489 48.8225 4.69977C46.7585 4.69977 45.3174 5.7401 45.3174 7.22987C45.3174 8.93431 46.6856 9.55606 49.3805 10.1663L49.7233 10.2439L46.2588 12C43.7437 11.0609 42.6136 9.61852 42.6136 7.35407C42.6136 4.72059 44.7506 2.70599 47.862 2.34199V1.30669C47.862 0.585024 48.4627 0 49.2036 0Z" fill="#683CAF"/>
</g>
<defs>
<clipPath id="clip0_47_91305">
<rect width="75" height="24" fill="white"/>
</clipPath>
</defs>
</svg>
