<svg width="9" height="6" viewBox="0 0 9 6" fill="none" xmlns="http://www.w3.org/2000/svg">
<path d="M9 0.714062C9 0.864062 8.9625 1.01406 8.85 1.08906L4.95 5.70156C4.8375 5.85156 4.65 5.92656 4.5 5.92656C4.35 5.92656 4.1625 5.85156 4.05 5.70156L0.149998 1.08906C-0.0750025 0.789063 -0.0375025 0.414062 0.224998 0.189063C0.374998 0.0765625 0.487498 0.0390625 0.637498 0.0390625C0.787498 0.0390625 0.974998 0.114062 1.05 0.264062L4.5 4.31406L7.9125 0.301562C8.025 0.189062 8.175 0.0765625 8.325 0.0765625C8.475 0.0765625 8.6625 0.114062 8.775 0.226562C8.925 0.376563 9 0.526562 9 0.714062Z" fill="white"/>
</svg>
