<svg width="39" height="40" viewBox="0 0 39 40" fill="none" xmlns="http://www.w3.org/2000/svg">
<path d="M7.50035 18.7473C7.50035 18.4158 7.63205 18.0978 7.86645 17.8634C8.10085 17.629 8.41875 17.4973 8.75035 17.4973L25.7378 17.4973L24.1128 15.8848C23.8774 15.6494 23.7452 15.3302 23.7452 14.9973C23.7452 14.6644 23.8774 14.3452 24.1128 14.1098C24.3482 13.8744 24.6674 13.7422 25.0003 13.7422C25.3332 13.7422 25.6524 13.8744 25.8878 14.1098L29.6378 17.8598C29.8113 18.0356 29.9288 18.2588 29.9755 18.5013C30.0222 18.7438 29.996 18.9947 29.9003 19.2223C29.8065 19.4506 29.6473 19.646 29.4426 19.7839C29.238 19.9218 28.9971 19.9961 28.7503 19.9973L8.75035 19.9973C8.41875 19.9973 8.10085 19.8656 7.86645 19.6312C7.63205 19.3968 7.50035 19.0788 7.50035 18.7473Z" fill="#393D46"/>
<path d="M23.7507 22.4973C23.7498 22.3328 23.7813 22.1697 23.8435 22.0174C23.9057 21.8651 23.9974 21.7266 24.1132 21.6098L27.8632 17.8598C28.0986 17.6244 28.4179 17.4922 28.7507 17.4922C28.9156 17.4922 29.0788 17.5247 29.2311 17.5877C29.3833 17.6508 29.5217 17.7433 29.6382 17.8598C29.7548 17.9763 29.8472 18.1147 29.9103 18.267C29.9734 18.4193 30.0059 18.5825 30.0059 18.7473C30.0059 19.0802 29.8736 19.3994 29.6382 19.6348L25.8882 23.3848C25.772 23.502 25.6338 23.595 25.4815 23.6584C25.3291 23.7219 25.1658 23.7545 25.0007 23.7545C24.8357 23.7545 24.6723 23.7219 24.52 23.6584C24.3677 23.595 24.2294 23.502 24.1132 23.3848C23.9974 23.268 23.9057 23.1295 23.8435 22.9772C23.7813 22.8249 23.7498 22.6618 23.7507 22.4973Z" fill="#393D46"/>
</svg>
