<svg width="32" height="32" viewBox="0 0 32 32" fill="none" xmlns="http://www.w3.org/2000/svg">
<path fill-rule="evenodd" clip-rule="evenodd" d="M16.0761 2.66417C11.3961 2.64526 7.04775 5.07345 4.61433 9.06453C2.1809 13.0556 2.01755 18.0272 4.18375 22.1689L4.45085 22.6895C4.66978 23.0992 4.71558 23.5793 4.57804 24.0229C4.19689 25.0352 3.87831 26.07 3.62411 27.1213C3.62411 27.6546 3.77674 27.9594 4.3491 27.9467C5.36286 27.7228 6.36123 27.4344 7.33808 27.0832C7.75881 26.9673 8.20615 26.9941 8.60999 27.1594C8.97884 27.3371 9.72927 27.7943 9.7547 27.7943C14.6557 30.3713 20.6414 29.6604 24.8 26.0073C28.9586 22.3542 30.4268 16.5174 28.4905 11.3361C26.5541 6.15485 21.6151 2.70477 16.0761 2.66417V2.66417Z" stroke="white" stroke-width="2" stroke-linecap="round" stroke-linejoin="round"/>
<ellipse cx="9.71701" cy="15.9943" rx="0.635954" ry="0.63492" fill="#EA4961" stroke="#EA4961" stroke-width="2" stroke-linecap="round" stroke-linejoin="round"/>
<ellipse cx="16.0764" cy="15.9943" rx="0.635954" ry="0.63492" fill="#EA4961" stroke="#EA4961" stroke-width="2" stroke-linecap="round" stroke-linejoin="round"/>
<ellipse cx="22.4358" cy="15.9943" rx="0.635953" ry="0.63492" fill="#EA4961" stroke="#EA4961" stroke-width="2" stroke-linecap="round" stroke-linejoin="round"/>
</svg>
