<svg width="45" height="45" viewBox="0 0 45 45" fill="none" xmlns="http://www.w3.org/2000/svg">
<g clip-path="url(#clip0_47_39262)">
<path d="M26.407 0L22.5 4.159L18.593 0L16.344 5.245L11.25 2.674L10.93 8.369L5.265 7.696L6.912 13.159L1.358 14.464L4.775 19.034L0 22.159L4.775 25.283L1.358 29.853L6.912 31.157L5.265 36.621L10.93 35.947L11.25 41.644L16.344 39.072L18.593 44.316L22.5 40.159L26.407 44.316L28.658 39.072L33.75 41.644L34.07 35.947L39.737 36.621L38.089 31.157L43.643 29.853L40.226 25.283L45 22.159L40.226 19.034L43.643 14.464L38.089 13.159L39.737 7.696L34.07 8.369L33.75 2.674L28.658 5.245L26.407 0Z" fill="#64C4AC"/>
<path d="M20.0981 29.0992H16.8571L12.4451 18.7612H12.3181C12.4801 19.5482 12.5621 20.3952 12.5621 21.2992V29.0992H10.1011V14.8272H13.3621L17.7351 25.0582H17.8431C17.7191 24.3752 17.6581 23.5612 17.6581 22.6172V14.8272H20.0981V29.0992ZM26.0531 20.4602L27.9571 14.8262H30.7391L27.3521 23.3782V29.0992H24.7361V23.4862L21.3581 14.8262H24.1591L26.0531 20.4602ZM31.8231 27.7622C31.8231 27.2552 31.9581 26.8612 32.2281 26.5812C32.4981 26.3012 32.9001 26.1612 33.4341 26.1612C33.9671 26.1612 34.3711 26.2992 34.6451 26.5762C34.9181 26.8532 35.0551 27.2492 35.0551 27.7622C35.0551 28.2702 34.9131 28.6642 34.6301 28.9432C34.3461 29.2232 33.9481 29.3632 33.4341 29.3632C32.9061 29.3632 32.5061 29.2222 32.2331 28.9382C31.9601 28.6552 31.8231 28.2632 31.8231 27.7622ZM34.5181 24.5012H32.3801L31.9021 14.8272H35.0161L34.5181 24.5012Z" fill="white"/>
</g>
<defs>
<clipPath id="clip0_47_39262">
<rect width="45" height="45" fill="white"/>
</clipPath>
</defs>
</svg>
