<svg width="14" height="14" viewBox="0 0 14 14" fill="none" xmlns="http://www.w3.org/2000/svg">
<path d="M13.8096 12.0823L11.0832 9.36128C10.9601 9.23846 10.7933 9.17023 10.6183 9.17023H10.1726C10.9273 8.20681 11.3758 6.99503 11.3758 5.67681C11.3758 2.54092 8.82991 0 5.6879 0C2.54588 0 0 2.54092 0 5.67681C0 8.8127 2.54588 11.3536 5.6879 11.3536C7.00869 11.3536 8.22284 10.906 9.18814 10.1528V10.5976C9.18814 10.7723 9.25651 10.9388 9.37956 11.0616L12.1059 13.7826C12.363 14.0392 12.7786 14.0392 13.0329 13.7826L13.8068 13.0103C14.0639 12.7537 14.0639 12.3389 13.8096 12.0823ZM5.6879 9.17023C3.75456 9.17023 2.18765 7.60911 2.18765 5.67681C2.18765 3.74724 3.75182 2.18339 5.6879 2.18339C7.62124 2.18339 9.18814 3.74451 9.18814 5.67681C9.18814 7.60638 7.62397 9.17023 5.6879 9.17023Z" fill="white"/>
</svg>
