<svg width="44" height="44" viewBox="0 0 44 44" fill="none" xmlns="http://www.w3.org/2000/svg">
<g filter="url(#filter0_dd_47_81077)">
<path fill-rule="evenodd" clip-rule="evenodd" d="M21.9922 14.935C20.5482 13.717 19.1152 13.006 17.6822 13.006C15.8582 13.006 14.3022 13.586 13.0422 14.82C12.3959 15.4481 11.8823 16.1995 11.5315 17.0296C11.1807 17.8598 11 18.7518 11 19.653C11 20.5542 11.1807 21.4462 11.5315 22.2764C11.8823 23.1065 12.3959 23.8579 13.0422 24.486C13.2942 24.732 14.5422 26.034 16.4392 28.023C17.1932 28.813 17.9992 29.66 18.8042 30.507L19.5832 31.326L19.8782 31.636C19.9402 31.698 19.9822 31.742 20.0422 31.808L20.0482 31.815L20.2382 32.023C20.8352 32.666 21.2602 32.983 21.9932 33C22.7052 33 23.1392 32.679 23.7462 32.023L23.9362 31.816L23.9422 31.808C24.0022 31.742 24.0442 31.698 24.0772 31.666L24.2052 31.536L25.1702 30.548L27.5352 28.127L30.9632 24.62C31.6083 23.9917 32.121 23.2404 32.4708 22.4106C32.8207 21.5808 33.0007 20.6893 33.0001 19.7887C32.9995 18.8882 32.8185 17.9969 32.4676 17.1675C32.1167 16.3381 31.6031 15.5875 30.9572 14.96C29.6192 13.65 28.0842 13 26.2772 13C24.8772 13 23.3942 13.74 21.9922 14.935ZM22.0682 30.918L21.9922 31C21.9064 30.9061 21.8211 30.8117 21.7362 30.717L21.7212 30.699C21.6467 30.6153 21.57 30.5336 21.4912 30.454L21.4852 30.447L21.2152 30.157L20.4082 29.288C19.5844 28.4025 18.7601 27.5175 17.9352 26.633C15.9432 24.497 14.6692 23.139 14.3752 22.845C13.9393 22.4117 13.5933 21.8965 13.3573 21.3291C13.1212 20.7616 12.9997 20.1531 12.9997 19.5385C12.9997 18.9239 13.1212 18.3154 13.3573 17.7479C13.5933 17.1805 13.9393 16.6653 14.3752 16.232C15.2132 15.394 16.2282 15.006 17.5262 15.006C18.5162 15.006 19.8042 15.781 21.1762 17.135L22.0132 17.96L22.8372 17.121C24.1172 15.818 25.4762 15.001 26.4342 15.001C27.6782 15.001 28.6772 15.433 29.6242 16.381C30.0601 16.8143 30.406 17.3295 30.642 17.8969C30.8781 18.4644 30.9996 19.0729 30.9996 19.6875C30.9996 20.3021 30.8781 20.9106 30.642 21.4781C30.406 22.0455 30.0601 22.5607 29.6242 22.994L26.0392 26.743L23.5892 29.308L22.4742 30.473C22.4018 30.5468 22.3315 30.6225 22.2632 30.7L22.2452 30.72L22.0682 30.918Z" fill="white"/>
</g>
<path opacity="0.5" fill-rule="evenodd" clip-rule="evenodd" d="M22.2428 30.777C22.3228 30.694 22.8198 30.152 23.0008 29.96C23.6438 29.282 25.6568 27.197 25.9568 26.881C25.5998 27.257 29.3468 23.325 29.7698 22.851C31.1458 21.311 31.3788 19.149 30.4158 17.474C29.4038 15.712 27.9558 15 26.4908 15C25.6458 15 25.0238 15.294 23.6948 16.321L21.9888 17.909L21.3128 17.262L20.3628 16.352C19.1838 15.346 18.2938 15 17.5108 15C16.9148 15 16.4308 15.063 15.8348 15.302C14.9258 15.664 14.1348 16.345 13.5078 17.464C12.5818 19.117 12.9658 21.324 14.3438 22.846C14.3268 22.828 16.4048 25.036 17.7398 26.479C18.0778 26.844 18.2648 27.043 19.1798 28.016L19.1938 28.032C19.8098 28.687 20.1648 29.067 20.5008 29.431C20.5378 29.471 21.0998 30.104 21.2968 30.314C21.4088 30.434 21.5138 30.542 21.6128 30.64C21.7688 30.793 21.9058 30.915 22.0178 31C22.0962 30.9288 22.1706 30.8545 22.2428 30.777Z" fill="#272E3F"/>
<defs>
<filter id="filter0_dd_47_81077" x="5" y="8" width="34" height="32" filterUnits="userSpaceOnUse" color-interpolation-filters="sRGB">
<feFlood flood-opacity="0" result="BackgroundImageFix"/>
<feColorMatrix in="SourceAlpha" type="matrix" values="0 0 0 0 0 0 0 0 0 0 0 0 0 0 0 0 0 0 127 0" result="hardAlpha"/>
<feOffset dy="1"/>
<feGaussianBlur stdDeviation="0.5"/>
<feColorMatrix type="matrix" values="0 0 0 0 0.272549 0 0 0 0 0.272549 0 0 0 0 0.272549 0 0 0 0.24 0"/>
<feBlend mode="normal" in2="BackgroundImageFix" result="effect1_dropShadow_47_81077"/>
<feColorMatrix in="SourceAlpha" type="matrix" values="0 0 0 0 0 0 0 0 0 0 0 0 0 0 0 0 0 0 127 0" result="hardAlpha"/>
<feOffset dy="1"/>
<feGaussianBlur stdDeviation="3"/>
<feColorMatrix type="matrix" values="0 0 0 0 0.272549 0 0 0 0 0.272549 0 0 0 0 0.272549 0 0 0 0.16 0"/>
<feBlend mode="normal" in2="effect1_dropShadow_47_81077" result="effect2_dropShadow_47_81077"/>
<feBlend mode="normal" in="SourceGraphic" in2="effect2_dropShadow_47_81077" result="shape"/>
</filter>
</defs>
</svg>
