<svg width="20" height="20" viewBox="0 0 20 20" fill="none" xmlns="http://www.w3.org/2000/svg">
<path fill-rule="evenodd" clip-rule="evenodd" d="M9.16537 1.66797C8.24489 1.66797 7.4987 2.41416 7.4987 3.33464V4.72933C7.21353 4.8648 6.9411 5.02273 6.68368 5.20082L5.46822 4.49908C4.67972 4.04383 3.65878 4.31513 3.19903 5.11145L2.36395 6.55784C1.90576 7.35144 2.17474 8.37108 2.96822 8.8292L4.18404 9.53115C4.17167 9.68624 4.16537 9.84304 4.16537 10.0013C4.16537 10.1596 4.17167 10.3164 4.18404 10.4715L2.96822 11.1734C2.17474 11.6316 1.90576 12.6512 2.36395 13.4448L3.19903 14.8912C3.65878 15.6875 4.67972 15.9588 5.46822 15.5036L6.68369 14.8018C6.9411 14.9799 7.21353 15.1378 7.4987 15.2733V16.668C7.4987 17.5885 8.24489 18.3347 9.16537 18.3347H10.832C11.7525 18.3347 12.4987 17.5885 12.4987 16.668V15.2733C12.7838 15.1379 13.0561 14.98 13.3134 14.802L14.5285 15.5036C15.317 15.9588 16.338 15.6875 16.7977 14.8912L17.6328 13.4448C18.091 12.6512 17.822 11.6316 17.0285 11.1734L15.8133 10.4718C15.8257 10.3166 15.832 10.1597 15.832 10.0013C15.832 9.84291 15.8257 9.68599 15.8133 9.53079L17.0285 8.8292C17.822 8.37108 18.091 7.35144 17.6328 6.55784L16.7977 5.11145C16.338 4.31513 15.317 4.04383 14.5285 4.49908L13.3134 5.20061C13.0561 5.0226 12.7838 4.86475 12.4987 4.72933V3.33464C12.4987 2.41416 11.7525 1.66797 10.832 1.66797H9.16537ZM12.4987 10.0013C12.4987 11.382 11.3794 12.5013 9.99869 12.5013C8.61799 12.5013 7.4987 11.382 7.4987 10.0013C7.4987 8.62059 8.61799 7.50131 9.99869 7.50131C11.3794 7.50131 12.4987 8.62059 12.4987 10.0013Z" fill="white"/>
</svg>
