<svg width="28" height="28" viewBox="0 0 28 28" fill="none" xmlns="http://www.w3.org/2000/svg">
<path d="M23.2748 11.34C23.2702 8.33538 22.0752 5.45501 19.9514 3.3296C17.8276 1.20419 14.9482 0.00694088 11.9436 0C5.6873 0 0.612305 5.075 0.612305 11.34C0.612305 17.605 5.6873 22.68 11.9436 22.68C14.9497 22.6754 17.8314 21.4791 19.957 19.3535C22.0827 17.2278 23.2789 14.3461 23.2836 11.34H23.2748ZM11.9348 20.265C7.00855 20.265 3.0098 16.2575 3.0098 11.34C3.0098 6.4225 7.01731 2.415 11.9348 2.415C16.8523 2.415 20.8598 6.4225 20.8598 11.34C20.8598 16.2575 16.8523 20.265 11.9348 20.265ZM26.8623 24.85L21.9098 19.8625C21.1093 20.8031 20.1712 21.6173 19.1273 22.2775L24.2548 27.44C24.6048 27.79 25.0861 27.9825 25.5673 27.9825C25.8076 27.983 26.0457 27.9361 26.2679 27.8445C26.4901 27.7529 26.6921 27.6184 26.8623 27.4487C27.0335 27.2787 27.1696 27.0766 27.2627 26.8539C27.3558 26.6313 27.4041 26.3925 27.4049 26.1512C27.4058 25.9099 27.359 25.6707 27.2674 25.4475C27.1758 25.2242 27.0411 25.0212 26.8711 24.85H26.8623Z" fill="white"/>
</svg>
