<svg width="20" height="18" viewBox="0 0 20 18" fill="none" xmlns="http://www.w3.org/2000/svg">
<path fill-rule="evenodd" clip-rule="evenodd" d="M7.41732 1.42188H12.559C14.8173 1.42188 16.6423 2.18293 16.6673 4.11756V14.9145C16.6673 15.0354 16.634 15.1564 16.5673 15.2631C16.459 15.4338 16.2757 15.5618 16.0507 15.6187C15.834 15.6756 15.5923 15.6471 15.3923 15.5476L9.99232 13.2431L4.58398 15.5476C4.45982 15.6037 4.31732 15.64 4.17565 15.64C3.70898 15.64 3.33398 15.3128 3.33398 14.9145V4.11756C3.33398 2.18293 5.16732 1.42188 7.41732 1.42188ZM6.85065 6.8417H13.1257C13.484 6.8417 13.7757 6.59205 13.7757 6.2798C13.7757 5.96685 13.484 5.7179 13.1257 5.7179H6.85065C6.49232 5.7179 6.20065 5.96685 6.20065 6.2798C6.20065 6.59205 6.49232 6.8417 6.85065 6.8417Z" fill="#242731"/>
</svg>
