<svg width="1451" height="968" viewBox="0 0 1451 968" fill="none" xmlns="http://www.w3.org/2000/svg">
<path fill-rule="evenodd" clip-rule="evenodd" d="M0 683.625C0 675.561 6.5603 669 14.625 669C22.6897 669 29.25 675.561 29.25 683.625C29.25 694.414 15.7565 707.238 15.182 707.779C15.0249 707.926 14.825 708 14.625 708C14.425 708 14.2251 707.926 14.068 707.779C13.4935 707.238 0 694.414 0 683.625ZM6.49997 683.625C6.49997 688.105 10.1451 691.75 14.625 691.75C19.1049 691.75 22.75 688.105 22.75 683.625C22.75 679.145 19.1048 675.5 14.625 675.5C10.1452 675.5 6.49997 679.145 6.49997 683.625Z" fill="#3347D2"/>
<g filter="url(#filter0_d_47_116989)">
<rect x="1370" y="5" width="50" height="105" rx="15" fill="white"/>
</g>
<rect x="1393.33" y="23.3359" width="3.33333" height="16.6667" fill="#3347D2"/>
<rect x="1403.33" y="30" width="3.33333" height="16.6667" transform="rotate(90 1403.33 30)" fill="#3347D2"/>
<rect x="1403.33" y="81.6641" width="3.33333" height="16.6667" transform="rotate(90 1403.33 81.6641)" fill="#3347D2"/>
<rect x="1370" y="56.6641" width="50" height="1.66667" fill="#D8D8D8"/>
<path fill-rule="evenodd" clip-rule="evenodd" d="M226 357.625C226 349.561 232.56 343 240.625 343C248.69 343 255.25 349.561 255.25 357.625C255.25 368.414 241.756 381.238 241.182 381.779C241.025 381.926 240.825 382 240.625 382C240.425 382 240.225 381.926 240.068 381.779C239.494 381.238 226 368.414 226 357.625ZM232.5 357.625C232.5 362.105 236.145 365.75 240.625 365.75C245.105 365.75 248.75 362.105 248.75 357.625C248.75 353.145 245.105 349.5 240.625 349.5C236.145 349.5 232.5 353.145 232.5 357.625Z" fill="#3347D2"/>
<path fill-rule="evenodd" clip-rule="evenodd" d="M318 828.625C318 820.561 324.56 814 332.625 814C340.69 814 347.25 820.561 347.25 828.625C347.25 839.414 333.756 852.238 333.182 852.779C333.025 852.926 332.825 853 332.625 853C332.425 853 332.225 852.926 332.068 852.779C331.494 852.238 318 839.414 318 828.625ZM324.5 828.625C324.5 833.105 328.145 836.75 332.625 836.75C337.105 836.75 340.75 833.105 340.75 828.625C340.75 824.145 337.105 820.5 332.625 820.5C328.145 820.5 324.5 824.145 324.5 828.625Z" fill="#3347D2"/>
<path fill-rule="evenodd" clip-rule="evenodd" d="M1035 77.625C1035 69.5611 1041.56 63 1049.62 63C1057.69 63 1064.25 69.5611 1064.25 77.625C1064.25 88.4144 1050.76 101.238 1050.18 101.779C1050.02 101.926 1049.82 102 1049.62 102C1049.43 102 1049.23 101.926 1049.07 101.779C1048.49 101.238 1035 88.4144 1035 77.625ZM1041.5 77.625C1041.5 82.1049 1045.15 85.75 1049.62 85.75C1054.1 85.75 1057.75 82.1048 1057.75 77.625C1057.75 73.1452 1054.1 69.5 1049.62 69.5C1045.15 69.5 1041.5 73.1451 1041.5 77.625Z" fill="#3347D2"/>
<path fill-rule="evenodd" clip-rule="evenodd" d="M663 185.625C663 177.561 669.56 171 677.625 171C685.69 171 692.25 177.561 692.25 185.625C692.25 196.414 678.756 209.238 678.182 209.779C678.025 209.926 677.825 210 677.625 210C677.425 210 677.225 209.926 677.068 209.779C676.494 209.238 663 196.414 663 185.625ZM669.5 185.625C669.5 190.105 673.145 193.75 677.625 193.75C682.105 193.75 685.75 190.105 685.75 185.625C685.75 181.145 682.105 177.5 677.625 177.5C673.145 177.5 669.5 181.145 669.5 185.625Z" fill="#3347D2"/>
<path fill-rule="evenodd" clip-rule="evenodd" d="M726 598.625C726 590.561 732.56 584 740.625 584C748.69 584 755.25 590.561 755.25 598.625C755.25 609.414 741.756 622.238 741.182 622.779C741.025 622.926 740.825 623 740.625 623C740.425 623 740.225 622.926 740.068 622.779C739.494 622.238 726 609.414 726 598.625ZM732.5 598.625C732.5 603.105 736.145 606.75 740.625 606.75C745.105 606.75 748.75 603.105 748.75 598.625C748.75 594.145 745.105 590.5 740.625 590.5C736.145 590.5 732.5 594.145 732.5 598.625Z" fill="#3347D2"/>
<path fill-rule="evenodd" clip-rule="evenodd" d="M364 67.625C364 59.5611 370.56 53 378.625 53C386.69 53 393.25 59.5611 393.25 67.625C393.25 78.4144 379.756 91.2383 379.182 91.7794C379.025 91.9262 378.825 92 378.625 92C378.425 92 378.225 91.9262 378.068 91.7794C377.494 91.2383 364 78.4144 364 67.625ZM370.5 67.625C370.5 72.1049 374.145 75.75 378.625 75.75C383.105 75.75 386.75 72.1048 386.75 67.625C386.75 63.1452 383.105 59.5 378.625 59.5C374.145 59.5 370.5 63.1451 370.5 67.625Z" fill="#3347D2"/>
<path fill-rule="evenodd" clip-rule="evenodd" d="M1028 235.625C1028 227.561 1034.56 221 1042.62 221C1050.69 221 1057.25 227.561 1057.25 235.625C1057.25 246.414 1043.76 259.238 1043.18 259.779C1043.02 259.926 1042.82 260 1042.62 260C1042.43 260 1042.23 259.926 1042.07 259.779C1041.49 259.238 1028 246.414 1028 235.625ZM1034.5 235.625C1034.5 240.105 1038.15 243.75 1042.62 243.75C1047.1 243.75 1050.75 240.105 1050.75 235.625C1050.75 231.145 1047.1 227.5 1042.62 227.5C1038.15 227.5 1034.5 231.145 1034.5 235.625Z" fill="#3347D2"/>
<g filter="url(#filter1_d_47_116989)">
<path fill-rule="evenodd" clip-rule="evenodd" d="M565 674.75C565 664.412 573.411 656 583.75 656C594.089 656 602.5 664.412 602.5 674.75C602.5 688.583 585.201 705.023 584.464 705.717C584.263 705.905 584.006 706 583.75 706C583.494 706 583.237 705.905 583.036 705.717C582.299 705.023 565 688.583 565 674.75ZM573.333 674.75C573.333 680.493 578.007 685.167 583.75 685.167C589.493 685.167 594.167 680.493 594.167 674.75C594.167 669.007 589.493 664.333 583.75 664.333C578.007 664.333 573.333 669.007 573.333 674.75Z" fill="#3347D2"/>
</g>
<path fill-rule="evenodd" clip-rule="evenodd" d="M214 160.625C214 152.561 220.56 146 228.625 146C236.69 146 243.25 152.561 243.25 160.625C243.25 171.414 229.756 184.238 229.182 184.779C229.025 184.926 228.825 185 228.625 185C228.425 185 228.225 184.926 228.068 184.779C227.494 184.238 214 171.414 214 160.625ZM220.5 160.625C220.5 165.105 224.145 168.75 228.625 168.75C233.105 168.75 236.75 165.105 236.75 160.625C236.75 156.145 233.105 152.5 228.625 152.5C224.145 152.5 220.5 156.145 220.5 160.625Z" fill="#3347D2"/>
<path fill-rule="evenodd" clip-rule="evenodd" d="M1292 67.625C1292 59.5611 1298.56 53 1306.62 53C1314.69 53 1321.25 59.5611 1321.25 67.625C1321.25 78.4144 1307.76 91.2383 1307.18 91.7794C1307.02 91.9262 1306.82 92 1306.62 92C1306.43 92 1306.23 91.9262 1306.07 91.7794C1305.49 91.2383 1292 78.4144 1292 67.625ZM1298.5 67.625C1298.5 72.1049 1302.15 75.75 1306.62 75.75C1311.1 75.75 1314.75 72.1048 1314.75 67.625C1314.75 63.1452 1311.1 59.5 1306.62 59.5C1302.15 59.5 1298.5 63.1451 1298.5 67.625Z" fill="#3347D2"/>
<path fill-rule="evenodd" clip-rule="evenodd" d="M878 328.625C878 320.561 884.56 314 892.625 314C900.69 314 907.25 320.561 907.25 328.625C907.25 339.414 893.756 352.238 893.182 352.779C893.025 352.926 892.825 353 892.625 353C892.425 353 892.225 352.926 892.068 352.779C891.494 352.238 878 339.414 878 328.625ZM884.5 328.625C884.5 333.105 888.145 336.75 892.625 336.75C897.105 336.75 900.75 333.105 900.75 328.625C900.75 324.145 897.105 320.5 892.625 320.5C888.145 320.5 884.5 324.145 884.5 328.625Z" fill="#3347D2"/>
<path fill-rule="evenodd" clip-rule="evenodd" d="M849 943.625C849 935.561 855.56 929 863.625 929C871.69 929 878.25 935.561 878.25 943.625C878.25 954.414 864.756 967.238 864.182 967.779C864.025 967.926 863.825 968 863.625 968C863.425 968 863.225 967.926 863.068 967.779C862.494 967.238 849 954.414 849 943.625ZM855.5 943.625C855.5 948.105 859.145 951.75 863.625 951.75C868.105 951.75 871.75 948.105 871.75 943.625C871.75 939.145 868.105 935.5 863.625 935.5C859.145 935.5 855.5 939.145 855.5 943.625Z" fill="#3347D2"/>
<path fill-rule="evenodd" clip-rule="evenodd" d="M1119 748.625C1119 740.561 1125.56 734 1133.62 734C1141.69 734 1148.25 740.561 1148.25 748.625C1148.25 759.414 1134.76 772.238 1134.18 772.779C1134.02 772.926 1133.82 773 1133.62 773C1133.43 773 1133.23 772.926 1133.07 772.779C1132.49 772.238 1119 759.414 1119 748.625ZM1125.5 748.625C1125.5 753.105 1129.15 756.75 1133.62 756.75C1138.1 756.75 1141.75 753.105 1141.75 748.625C1141.75 744.145 1138.1 740.5 1133.62 740.5C1129.15 740.5 1125.5 744.145 1125.5 748.625Z" fill="#3347D2"/>
<path fill-rule="evenodd" clip-rule="evenodd" d="M67 492.625C67 484.561 73.5603 478 81.625 478C89.6897 478 96.25 484.561 96.25 492.625C96.25 503.414 82.7565 516.238 82.182 516.779C82.0249 516.926 81.825 517 81.625 517C81.425 517 81.2251 516.926 81.068 516.779C80.4935 516.238 67 503.414 67 492.625ZM73.5 492.625C73.5 497.105 77.1451 500.75 81.625 500.75C86.1049 500.75 89.75 497.105 89.75 492.625C89.75 488.145 86.1048 484.5 81.625 484.5C77.1452 484.5 73.5 488.145 73.5 492.625Z" fill="#3347D2"/>
<path fill-rule="evenodd" clip-rule="evenodd" d="M1421 385.625C1421 377.561 1427.56 371 1435.62 371C1443.69 371 1450.25 377.561 1450.25 385.625C1450.25 396.414 1436.76 409.238 1436.18 409.779C1436.02 409.926 1435.82 410 1435.62 410C1435.43 410 1435.23 409.926 1435.07 409.779C1434.49 409.238 1421 396.414 1421 385.625ZM1427.5 385.625C1427.5 390.105 1431.15 393.75 1435.62 393.75C1440.1 393.75 1443.75 390.105 1443.75 385.625C1443.75 381.145 1440.1 377.5 1435.62 377.5C1431.15 377.5 1427.5 381.145 1427.5 385.625Z" fill="#3347D2"/>
<defs>
<filter id="filter0_d_47_116989" x="1362" y="0" width="66" height="121" filterUnits="userSpaceOnUse" color-interpolation-filters="sRGB">
<feFlood flood-opacity="0" result="BackgroundImageFix"/>
<feColorMatrix in="SourceAlpha" type="matrix" values="0 0 0 0 0 0 0 0 0 0 0 0 0 0 0 0 0 0 127 0" result="hardAlpha"/>
<feOffset dy="3"/>
<feGaussianBlur stdDeviation="4"/>
<feColorMatrix type="matrix" values="0 0 0 0 0 0 0 0 0 0 0 0 0 0 0 0 0 0 0.1 0"/>
<feBlend mode="normal" in2="BackgroundImageFix" result="effect1_dropShadow_47_116989"/>
<feBlend mode="normal" in="SourceGraphic" in2="effect1_dropShadow_47_116989" result="shape"/>
</filter>
<filter id="filter1_d_47_116989" x="560" y="653" width="47.5" height="60" filterUnits="userSpaceOnUse" color-interpolation-filters="sRGB">
<feFlood flood-opacity="0" result="BackgroundImageFix"/>
<feColorMatrix in="SourceAlpha" type="matrix" values="0 0 0 0 0 0 0 0 0 0 0 0 0 0 0 0 0 0 127 0" result="hardAlpha"/>
<feOffset dy="2"/>
<feGaussianBlur stdDeviation="2.5"/>
<feColorMatrix type="matrix" values="0 0 0 0 0.2 0 0 0 0 0.278431 0 0 0 0 0.823529 0 0 0 0.5 0"/>
<feBlend mode="normal" in2="BackgroundImageFix" result="effect1_dropShadow_47_116989"/>
<feBlend mode="normal" in="SourceGraphic" in2="effect1_dropShadow_47_116989" result="shape"/>
</filter>
</defs>
</svg>
