<svg width="30" height="30" viewBox="0 0 30 30" fill="none" xmlns="http://www.w3.org/2000/svg">
<g clip-path="url(#clip0_47_33181)">
<path d="M29.3441 13.5005C29.0629 13.2192 27.9379 12.8442 27.8441 14.1567C27.8441 14.5317 27.6566 15.0005 27.5629 15.3755C27.5629 13.9692 27.5629 12.563 27.3754 11.813C27.0941 10.2192 26.0629 9.18798 25.7816 9.18798C25.5004 9.18798 25.4066 10.0317 25.3129 10.313C25.2191 10.5942 25.3129 11.813 25.4066 12.0942C25.5004 12.3755 25.6879 14.063 25.6879 14.438C25.7816 14.813 25.5941 15.563 25.5004 15.6567C25.4066 15.7505 25.2191 15.7505 25.1254 15.563C25.0316 15.4692 24.7504 12.3755 24.7504 12.3755C24.7504 12.3755 24.5629 10.313 24.0941 8.90673C23.6254 7.40673 22.7816 7.78173 22.4066 8.06298C22.0316 8.34423 22.4066 10.2192 22.5004 10.5005C22.5004 10.7817 22.9691 13.2192 23.0629 14.063C23.1566 14.9067 22.9691 15.4692 22.8754 15.6567C22.8754 15.938 22.6879 15.938 22.6879 15.938C22.6879 15.938 22.5941 15.0005 22.5004 14.813C22.5004 14.5317 21.8441 10.8755 21.6566 10.313C21.4691 9.75048 21.0941 8.81298 20.4379 8.90673C19.7816 9.00048 19.9691 10.9692 20.0629 11.3442C20.0629 11.7192 20.4379 14.063 20.4379 14.7192C20.5316 15.2817 20.7191 17.3442 20.6254 17.5317C20.5316 17.7192 20.4379 17.7192 20.3441 17.6255L19.4066 15.7505C18.7504 14.2505 17.8129 14.063 17.4379 14.438C17.0629 14.7192 17.6254 15.938 17.9066 16.688C18.1879 17.438 18.6566 20.438 18.8441 21.2817C19.0316 22.2192 19.3129 22.5005 20.4379 23.813C21.4691 25.2192 24.0004 24.563 24.0004 24.563C25.3129 24.7505 26.1566 23.7192 26.7191 22.5005C28.6879 20.1567 29.6254 13.8755 29.3441 13.5005Z" fill="#7C563C"/>
<path d="M28.9689 13.5005C28.6876 13.2192 27.5626 12.8442 27.3751 14.1567C27.3751 14.5317 27.1876 15.0005 27.0939 15.4692C27.0939 14.063 27.0001 12.563 26.9064 11.813C26.6251 10.2192 25.5939 9.09423 25.2189 9.09423C24.9376 9.09423 24.8439 9.93798 24.7501 10.2192C24.6564 10.5005 24.7501 11.813 24.8439 12.0942C24.9376 12.3755 25.1251 14.1567 25.2189 14.5317C25.3126 14.9067 25.1251 15.6567 25.0314 15.7505C24.9376 15.8442 24.7501 15.8442 24.6564 15.6567C24.5626 15.563 24.2814 12.4692 24.2814 12.4692C24.2814 12.4692 24.0001 10.4067 23.5314 8.90673C23.0626 7.40673 22.2189 7.78173 21.8439 8.06298C21.4689 8.34423 21.8439 10.2192 21.9376 10.5942C21.9376 10.8755 22.5001 13.4067 22.5939 14.2505C22.6876 15.0942 22.5001 15.7505 22.4064 15.8442C22.3126 15.938 22.2189 15.938 22.2189 15.938L22.0314 14.813C22.0314 14.5317 21.2814 10.7817 21.0939 10.2192C20.9064 9.65673 20.5314 8.71923 19.8751 8.81298C19.2189 8.90673 19.4064 10.8755 19.5001 11.2505C19.5001 11.6255 19.8751 14.063 19.9689 14.7192C20.0626 15.2817 20.2501 17.438 20.1564 17.6255C20.0626 17.813 19.9689 17.813 19.8751 17.7192L18.9376 15.7505C18.2814 14.3442 17.2501 14.1567 16.8751 14.5317C16.5001 14.813 17.0626 16.1255 17.4376 16.8755C17.7189 17.6255 18.2814 20.7192 18.4689 21.6567C18.6564 22.5942 19.0314 22.8755 20.0626 24.2817C21.1876 25.688 23.7189 25.0317 23.7189 25.0317C25.0314 25.2192 25.8751 24.188 26.5314 22.8755C28.4064 20.2505 29.2501 13.7817 28.9689 13.5005Z" fill="#7C563C"/>
<path d="M28.8754 12.6567C28.5941 12.3755 27.4691 12.0005 27.3754 13.313C27.3754 13.688 27.1879 14.1567 27.0941 14.5317C27.0941 13.1255 27.0941 11.7192 26.9066 10.9692C26.6254 9.37548 25.5941 8.34423 25.3129 8.34423C25.0316 8.34423 24.9379 9.18798 24.8441 9.46923C24.7504 9.75048 24.8441 10.9692 24.9379 11.2505C25.0316 11.5317 25.2191 13.2192 25.2191 13.5942C25.3129 13.9692 25.1254 14.7192 25.0316 14.813C24.9379 14.9067 24.7504 14.9067 24.6566 14.7192C24.5629 14.6255 24.2816 11.5317 24.2816 11.5317C24.2816 11.5317 24.0941 9.46923 23.6254 8.06298C23.1566 6.56298 22.3129 6.93798 21.9379 7.21923C21.5629 7.50048 21.9379 9.37548 22.0316 9.65673C22.0316 9.93798 22.5004 12.3755 22.5941 13.2192C22.6879 14.063 22.5004 14.6255 22.4066 14.813C22.3129 15.0005 22.2191 14.9067 22.2191 14.9067C22.2191 14.9067 22.0316 14.063 22.0316 13.7817C22.0316 13.5005 21.3754 9.84423 21.1879 9.28173C21.0004 8.71923 20.6254 7.78173 19.9691 7.87548C19.3129 7.96923 19.5004 9.93798 19.5941 10.313C19.5941 10.688 19.9691 13.0317 19.9691 13.688C20.0629 14.2505 20.2504 16.313 20.1566 16.5005C20.0629 16.688 19.9691 16.688 19.8754 16.5942L18.9379 14.7192C18.2816 13.313 17.3441 13.2192 16.9691 13.5005C16.5941 13.7817 17.1566 15.0005 17.4379 15.7505C17.7191 16.5005 18.1879 19.5005 18.3754 20.3442C18.5629 21.2817 18.8441 21.563 19.9691 22.8755C21.0004 24.2817 23.5316 23.6255 23.5316 23.6255C24.8441 23.813 25.6879 22.7817 26.2504 21.563C28.3129 19.2192 29.1566 12.938 28.8754 12.6567Z" fill="#7C563C" stroke="#7C563C" stroke-width="0.4695" stroke-miterlimit="10"/>
<path d="M16.875 14.0612C16.875 14.0612 18.75 13.1237 20.0625 15.7487L20.3438 17.3424L19.875 17.7174L16.875 14.0612Z" fill="#A3704D"/>
<path d="M28.4066 13.7816C28.1254 13.4066 27.1879 13.1254 27.0004 14.3441C27.0004 14.7191 26.9066 15.0941 26.7191 15.4691C26.7191 14.1566 26.6254 12.8441 26.5316 12.1879C26.2504 10.6879 25.3129 9.75036 25.0316 9.65661C24.7504 9.65661 24.6566 10.4066 24.5629 10.6879C24.4691 10.9691 24.5629 12.0941 24.6566 12.3754C24.7504 12.6566 24.8441 14.2504 24.9379 14.6254C25.0316 15.0004 24.8441 15.6566 24.7504 15.7504C24.6566 15.8441 24.4691 15.8441 24.4691 15.6566C24.3754 15.5629 24.0941 12.7504 24.0941 12.7504C24.0941 12.7504 23.9066 10.7816 23.4379 9.46911C22.9691 8.06286 22.2191 8.43786 21.9379 8.71911C21.5629 9.00036 21.9379 10.6879 22.0316 10.9691C22.0316 11.2504 22.5004 13.5004 22.5941 14.2504C22.6879 15.0004 22.5004 15.5629 22.5004 15.7504C22.4066 15.9379 22.3129 15.9379 22.3129 15.9379L22.1254 14.9066C22.1254 14.7191 21.4691 11.2504 21.2816 10.6879C21.0941 10.1254 20.8129 9.28161 20.1566 9.37536C19.5004 9.46911 19.7816 11.2504 19.7816 11.6254C19.7816 11.9066 20.1566 14.2504 20.1566 14.7191C20.2504 15.2816 20.4379 17.1566 20.3441 17.3441C20.2504 17.5316 20.1566 17.5316 20.0629 17.4379C19.9691 17.2504 19.7816 16.9691 19.2191 15.6566C18.6566 14.3441 17.7191 14.2504 17.3441 14.5316C16.9691 14.8129 17.5316 15.9379 17.8129 16.6879C18.0941 17.3441 18.5629 20.1566 18.7504 21.0004C18.9379 21.8441 19.2191 22.1254 20.2504 23.4379C21.2816 24.7504 23.6254 24.0941 23.6254 24.0941C24.8441 24.2816 25.5941 23.2504 26.1566 22.1254C27.8441 19.9691 28.6879 14.0629 28.4066 13.7816Z" fill="#A3704D"/>
<path d="M28.2191 14.7207C27.9379 14.4394 27.0941 14.1582 26.9066 15.2832C26.9066 15.6582 26.7191 16.0332 26.6254 16.3144L26.5316 13.2207C26.3441 11.8144 25.5004 10.8769 25.2191 10.7832C24.9379 10.7832 24.8441 11.5332 24.7504 11.8144C24.6566 12.0957 24.7504 13.1269 24.8441 13.4082C24.9379 13.6894 25.0316 15.1894 25.1254 15.4707C25.2191 15.8457 25.0316 16.4082 24.9379 16.5019C24.8441 16.5957 24.7504 16.5957 24.6566 16.4082C24.5629 16.3144 24.3754 13.5957 24.3754 13.5957C24.3754 13.5957 24.1879 11.7207 23.8129 10.4082C23.4379 9.09567 22.6879 9.37692 22.4066 9.56442C22.0316 9.75192 22.4066 11.5332 22.5004 11.7207C22.5004 12.0019 22.8754 14.1582 22.9691 14.9082C23.0629 15.6582 22.8754 16.1269 22.7816 16.3144C22.7816 16.4082 22.5941 16.4082 22.5941 16.4082C22.5941 16.4082 22.5004 15.6582 22.4066 15.3769C22.4066 15.1894 21.8441 11.8144 21.6566 11.3457C21.4691 10.7832 21.1879 9.93942 20.6254 10.0332C20.0629 10.1269 20.2504 11.9082 20.2504 12.1894C20.2504 12.4707 20.5316 14.6269 20.6254 15.1894C20.7191 15.6582 20.8129 17.5332 20.8129 17.7207C20.7191 17.9082 20.6254 17.9082 20.5316 17.8144C20.4379 17.7207 20.2504 17.3457 19.6879 16.1269C19.1254 14.9082 18.2816 14.7207 17.9066 15.0019C17.5316 15.2832 18.0941 16.4082 18.3754 17.0644C18.6566 17.7207 19.0316 20.3457 19.2191 21.1894C19.4066 21.9394 19.6879 22.2207 20.6254 23.4394C21.5629 24.6582 23.7191 24.0019 23.7191 24.0019C24.7504 24.0957 25.5941 23.2519 26.0629 22.2207C27.5629 20.4394 28.4066 15.0019 28.2191 14.7207Z" fill="#A3704D"/>
<path opacity="0.34" d="M26.344 18.1875C26.344 18.1875 24.094 17.9062 22.594 19.0312C21.094 20.1562 21.2815 21.2813 22.1253 21.4688C22.969 21.6563 23.9065 21.2813 24.2815 20.5313C24.6565 19.7813 24.844 19.4063 25.594 19.2188C26.344 19.2188 26.8128 18.4688 26.344 18.1875Z" fill="#A3704D"/>
<path d="M27 13.5937V14.4375L26.9063 16.875C26.9063 16.875 26.7188 17.0625 26.625 16.9688C26.4375 16.875 26.7188 12.9375 26.7188 12.9375L27.1875 13.6875M24.5625 12.75L24.9375 16.125C24.9375 16.125 24.75 16.3125 24.6562 16.2187C24.4687 16.125 24.1875 12.1875 24.1875 12.1875L24.75 12.8437M22.2188 12.5625L22.5938 15.9375C22.5938 15.9375 22.4062 16.125 22.3125 16.0312C22.125 15.9375 21.8437 12 21.8437 12L22.4062 12.6562M22.5938 23.3437C22.5938 23.3437 24.0938 23.8125 25.3125 22.3125C26.625 20.8125 28.3125 14.7187 28.3125 14.7187C28.3125 14.7187 28.2188 19.3125 26.3438 22.0312C24.4688 24.75 23.0625 24.375 23.0625 24.375L22.5938 23.3437ZM16.4062 13.125C16.4062 13.125 18.2812 12.1875 19.5937 14.8125L19.875 16.4062L19.4063 16.7812L16.4062 13.125Z" fill="#A3704D"/>
<path d="M28.5939 12.563C28.3126 12.2817 27.1876 11.9067 27.0001 13.2192C27.0001 13.5942 26.8126 14.063 26.7189 14.5317C26.7189 13.1255 26.6251 11.6255 26.5314 10.8755C26.2501 9.28173 25.2189 8.15673 24.8439 8.15673C24.5626 8.15673 24.4689 9.00048 24.3751 9.28173C24.2814 9.56298 24.3751 10.8755 24.4689 11.1567C24.5626 11.438 24.7501 13.2192 24.8439 13.5942C24.9376 13.9692 24.7501 14.7192 24.6564 14.813C24.5626 14.9067 24.3751 14.9067 24.2814 14.7192C24.1876 14.6255 23.9064 11.5317 23.9064 11.5317C23.9064 11.5317 23.6251 9.46923 23.1564 7.96923C22.6876 6.46923 21.8439 6.84423 21.4689 7.12548C21.0939 7.40673 21.4689 9.28173 21.5626 9.65673C21.5626 9.93798 22.1251 12.4692 22.2189 13.313C22.3126 14.1567 22.1251 14.813 22.0314 14.9067C21.9376 15.0005 21.8439 15.0005 21.8439 15.0005L21.6564 13.8755C21.6564 13.5942 20.9064 9.84423 20.7189 9.28173C20.5314 8.71923 20.1564 7.78173 19.5001 7.87548C18.8439 7.96923 19.0314 9.93798 19.1251 10.313C19.1251 10.688 19.5001 13.1255 19.5939 13.7817C19.6876 14.3442 19.8751 16.5005 19.7814 16.688C19.6876 16.8755 19.5939 16.8755 19.5001 16.7817L18.5626 14.813C17.9064 13.4067 16.8751 13.2192 16.5001 13.5942C16.1251 13.9692 16.6876 15.188 17.0626 15.938C17.3439 16.688 17.9064 19.7817 18.0939 20.7192C18.2814 21.6567 18.6564 21.938 19.6876 23.3442C20.8126 24.7505 23.3439 24.0942 23.3439 24.0942C24.6564 24.2817 25.5001 23.2505 26.1564 21.938C27.9376 19.4067 28.8751 12.8442 28.5939 12.563Z" fill="#A3704D" stroke="#A3704D" stroke-width="0.479719" stroke-miterlimit="10"/>
<path d="M28.0311 12.8441C27.7499 12.5629 26.7186 12.2816 26.6249 13.5004C26.6249 13.8754 26.5311 14.2504 26.3436 14.6254C26.3436 13.3129 26.2499 12.0004 26.1561 11.3441C25.8749 9.84411 24.9374 8.90661 24.6561 8.81286C24.3749 8.81286 24.2811 9.56286 24.1874 9.84411C24.0936 10.1254 24.1874 11.2504 24.2811 11.5316C24.3749 11.8129 24.4686 13.4066 24.5624 13.7816C24.6561 14.1566 24.4686 14.8129 24.3749 14.9066C24.2811 15.0004 24.0936 15.0004 24.0936 14.8129C23.9999 14.7191 23.7186 11.9066 23.7186 11.9066C23.7186 11.9066 23.5311 9.93786 23.0624 8.62536C22.5936 7.21911 21.8436 7.59411 21.5624 7.87536C21.1874 8.15661 21.5624 9.84411 21.6561 10.1254C21.6561 10.4066 22.1249 12.6566 22.2186 13.4066C22.3124 14.1566 22.1249 14.7191 22.1249 14.9066C22.0311 15.0004 21.9374 15.0004 21.9374 15.0004L21.7499 13.9691C21.7499 13.7816 21.0936 10.3129 20.9061 9.75036C20.7186 9.18786 20.3436 8.34411 19.6874 8.43786C19.0311 8.53161 19.3124 10.3129 19.3124 10.6879C19.3124 10.9691 19.6874 13.3129 19.6874 13.7816C19.7811 14.3441 19.9686 16.2191 19.8749 16.4066C19.7811 16.5941 19.6874 16.5941 19.5936 16.5004C19.4999 16.3129 19.3124 16.0316 18.7499 14.7191C18.1874 13.4066 17.2499 13.3129 16.8749 13.5941C16.4999 13.8754 17.0624 15.0004 17.3436 15.7504C17.6249 16.4066 18.0936 19.2191 18.2811 20.0629C18.4686 20.9066 18.7499 21.1879 19.7811 22.5004C20.8124 23.8129 23.1561 23.1566 23.1561 23.1566C24.3749 23.3441 25.1249 22.3129 25.6874 21.1879C27.4686 19.0316 28.2186 13.1254 28.0311 12.8441Z" fill="#E8AB82"/>
<path opacity="0.34" d="M27.7499 13.7832C27.4686 13.5019 26.6249 13.2207 26.4374 14.3457C26.4374 14.7207 26.2499 15.0957 26.1561 15.3769L26.0624 12.2832C25.8749 10.8769 25.0311 9.93942 24.7499 9.84567C24.4686 9.84567 24.3749 10.5957 24.2811 10.8769C24.1874 11.1582 24.2811 12.1894 24.3749 12.4707C24.4686 12.7519 24.5624 14.2519 24.6561 14.5332C24.7499 14.9082 24.5624 15.4707 24.4686 15.5644C24.3749 15.6582 24.2811 15.6582 24.1874 15.4707C24.0936 15.3769 23.9061 12.6582 23.9061 12.6582C23.9061 12.6582 23.7186 10.7832 23.3436 9.47067C22.9686 8.15817 22.2186 8.43942 21.9374 8.62692C21.5624 8.81442 21.9374 10.5957 22.0311 10.7832C22.0311 11.0644 22.4061 13.2207 22.4999 13.9707C22.5936 14.7207 22.4061 15.1894 22.3124 15.3769C22.3124 15.4707 22.1249 15.4707 22.1249 15.4707C22.1249 15.4707 22.0311 14.7207 21.9374 14.4394C21.9374 14.2519 21.3749 10.8769 21.1874 10.4082C20.9999 9.84567 20.7186 9.00192 20.1561 9.09567C19.5936 9.18942 19.7811 10.9707 19.7811 11.2519C19.7811 11.5332 20.0624 13.6894 20.1561 14.2519C20.2499 14.7207 20.3436 16.5957 20.3436 16.7832C20.2499 16.9707 20.1561 16.9707 20.0624 16.8769C19.9686 16.7832 19.7811 16.4082 19.2186 15.1894C18.6561 13.9707 17.8124 13.7832 17.4374 14.0644C17.0624 14.3457 17.6249 15.4707 17.9061 16.1269C18.1874 16.7832 18.5624 19.4082 18.7499 20.2519C18.9374 21.0019 19.2186 21.2832 20.1561 22.5019C21.0936 23.7207 23.2499 23.0644 23.2499 23.0644C24.2811 23.1582 25.1249 22.3144 25.5936 21.2832C27.0936 19.5019 28.0311 14.0644 27.7499 13.7832Z" fill="#E5895B"/>
<path opacity="0.34" d="M25.9685 17.3438C25.9685 17.3438 23.7185 17.0625 22.2185 18.1875C20.7185 19.3125 20.906 20.4375 21.7498 20.625C22.5935 20.8125 23.531 20.4375 23.906 19.6875C24.281 18.9375 24.4685 18.5625 25.2185 18.375C25.8748 18.2813 26.4373 17.625 25.9685 17.3438Z" fill="#E5895B"/>
<path d="M26.625 12.6562V13.5L26.4375 15.9375C26.4375 15.9375 26.25 16.125 26.1562 16.0312C25.9688 15.9375 26.25 12 26.25 12L26.7188 12.75M24.0938 11.8125L24.4688 15.1875C24.4688 15.1875 24.2812 15.375 24.1875 15.2812C24.0937 15.1875 23.7187 11.25 23.7187 11.25L24.2812 11.9062M21.8437 11.625L22.2188 15C22.2188 15 22.0312 15.1875 21.9375 15.0938C21.75 15 21.4688 11.0625 21.4688 11.0625L22.0313 11.7187" fill="#A3704D"/>
<path d="M22.125 22.4062C22.125 22.4062 23.625 22.875 24.8437 21.375C25.5 20.625 26.1562 18.8438 26.8125 17.25L27.9375 13.7812C27.9375 13.7812 27.8438 18.375 25.9688 21.0938C24.0938 23.8125 22.5938 23.4375 22.5938 23.4375L22.125 22.4062Z" fill="#E8AB82"/>
<path d="M18.8439 19.7814C18.8439 19.7814 18.8439 26.1564 15.3751 27.0001C11.9064 27.8439 6.09385 27.4689 7.3126 20.8126C8.53135 14.1564 16.1251 17.5314 16.1251 17.5314L18.8439 19.7814Z" fill="#A3704D"/>
<path d="M18.0938 20.0625C18.0938 20.0625 18.0938 25.6875 15 26.4375C11.9063 27.1875 6.84376 26.8125 7.87501 21C8.90626 15.1875 15.6563 18.0937 15.6563 18.0937L18.0938 20.0625Z" fill="#FCC097"/>
<path d="M15.2812 4.78168C15.2812 4.78168 15.4687 14.3442 20.8125 19.0317C22.5 20.5317 22.7812 23.1567 21.1875 24.8442C20.8125 25.2192 20.4375 25.5004 19.875 25.6879C17.3437 26.5317 15.5625 22.9692 13.2187 20.3442C10.875 17.7192 6.18748 13.7817 7.78123 4.50043C7.78123 4.59418 14.5312 3.46918 15.2812 4.78168Z" fill="#7C563C" stroke="#7C563C" stroke-width="0.508969" stroke-miterlimit="10"/>
<path d="M21.0001 20.7189C22.2189 21.7501 22.7814 23.3439 22.5001 24.9376C22.1251 26.8126 21.2814 28.9689 19.3126 29.4376C15.8439 30.2814 10.0314 29.9064 11.2501 23.2501C12.4689 16.5939 20.0626 19.9689 20.0626 19.9689L21.0001 20.7189Z" fill="#7C563C" stroke="#7C563C" stroke-width="0.508969" stroke-miterlimit="10"/>
<path d="M14.6252 5.71935C14.6252 5.71935 14.5314 15.2819 19.8752 19.5006C20.8127 20.2506 21.2814 21.5631 20.9064 22.7819C20.6252 23.7194 20.1564 24.7506 19.1252 25.0319C16.8752 25.7819 15.5627 22.1256 13.5002 19.7819C11.4377 17.4381 7.03143 13.7819 8.53143 5.4381C8.53143 5.4381 13.9689 4.5006 14.6252 5.71935Z" fill="#FCC097"/>
<path d="M10.5935 0.28024C10.5935 0.28024 8.34355 0.0927401 7.21855 1.68649C6.09355 3.28024 5.8123 6.09274 7.59355 7.68649C7.59355 7.68649 8.90605 8.53024 9.28105 7.96774C9.65605 7.40524 10.2185 5.90524 10.2185 5.90524L10.5935 0.28024Z" fill="#A3704D"/>
<path d="M9.9375 0.65625C9.9375 0.65625 8.4375 0.65625 7.5 1.96875C6.5625 3.28125 6.28125 5.625 7.78125 7.03125C7.78125 7.03125 8.8125 7.6875 9.09375 7.3125C9.375 6.84375 9.84375 5.625 9.84375 5.625L9.9375 0.65625Z" fill="#F4A082"/>
<path d="M8.62519 5.43794C8.62519 5.43794 8.06269 7.59419 11.6252 8.53169C15.1877 9.46919 17.4377 9.09419 17.8127 8.15669C18.1877 7.21919 18.0002 6.75044 16.5002 5.25044C15.0002 3.75044 15.0939 0.844186 12.1877 0.0941863C9.28144 -0.655814 8.25019 2.43794 8.62519 5.43794Z" fill="#A3704D"/>
<path d="M9.37505 5.34483C9.37505 5.34483 8.9063 7.12608 11.9063 7.96983C14.9063 8.81358 16.8751 8.43858 17.1563 7.59483C17.4376 6.84483 17.3438 6.37608 16.0313 5.15733C14.7188 3.93858 14.7188 1.40733 12.3751 0.844829C10.0313 0.282329 9.0938 2.81358 9.37505 5.34483Z" fill="#F4A082"/>
<path d="M20.4375 21.0938C21.5625 22.0313 22.0313 23.4375 21.75 24.8438C21.375 26.4375 20.625 28.4063 18.9375 28.7813C15.8438 29.5312 10.7813 29.1562 11.8125 23.3438C12.8438 17.5313 19.5938 20.4375 19.5938 20.4375L20.4375 21.0938Z" fill="#FCC097"/>
<path opacity="0.53" d="M9.37516 3C9.37516 3 9.00016 5.4375 12.6564 6.5625C16.3127 7.6875 17.7189 7.6875 17.7189 7.6875C17.7189 7.6875 17.3439 8.71875 15.6564 8.71875C14.0627 8.625 7.87516 9.375 9.37516 3ZM7.21891 1.96875C7.21891 1.96875 6.46891 5.4375 9.00016 5.8125C9.00016 5.8125 9.65641 6.5625 9.46891 7.03125C9.28141 7.5 9.18766 7.875 8.62516 7.875C8.06266 7.875 5.06266 6.5625 7.21891 1.96875Z" fill="#A3704D"/>
<path d="M11.2498 2.15775C11.2498 1.8765 11.4373 1.59525 11.7185 1.5015C11.9998 1.40775 12.3748 1.59525 12.656 1.78275C13.3123 2.34525 13.781 3.09525 14.156 3.84525C14.2498 4.03275 14.3435 4.22025 14.2498 4.40775C14.156 4.689 13.781 4.78275 13.4998 4.78275C12.1873 4.689 10.9685 3.564 11.2498 2.15775Z" fill="#FCC097"/>
<path opacity="0.3" d="M11.0624 8.25C11.0624 8.4375 10.9687 8.625 10.8749 8.71875C10.5937 9.375 10.5937 10.125 10.5937 10.875C10.7812 13.5938 11.7187 16.2188 13.3124 18.4688C13.4999 18.75 13.7812 19.0312 13.7812 19.4062C13.7812 19.7812 13.4999 20.1562 13.1249 20.0625C12.9374 19.9687 12.8437 19.875 12.7499 19.7812L10.4062 16.875C9.74994 16.0312 8.99994 15.0938 8.53119 14.1563C7.87494 12.5625 7.87494 10.7812 7.96869 9.09375C7.96869 8.8125 7.96869 8.4375 8.15619 8.15625C8.24994 7.875 8.43744 7.6875 8.71869 7.5C9.09369 7.3125 9.65619 7.3125 10.0312 7.5C10.4062 7.5 11.1562 7.875 11.0624 8.25Z" fill="#A3704D"/>
<path opacity="0.38" d="M12.0002 20.0625C11.7189 20.4375 11.2502 20.7187 10.8752 21.0937C10.0314 21.9375 9.75016 23.1562 10.1252 24.2812C10.4064 25.2187 11.1564 25.875 11.8127 26.5312C10.8752 26.9062 9.75016 26.7187 9.00016 26.0625C8.34391 25.5 7.96891 24.5625 7.78141 23.7187C7.59391 23.0625 7.50016 22.4062 7.59391 21.6562C7.68766 20.25 8.43766 18.8438 9.56266 17.9062C9.93766 17.625 10.3127 17.4375 10.6877 17.4375C11.3439 17.5312 11.7189 18.1875 12.0939 18.5625C12.3752 19.0312 12.2814 19.5937 12.0002 20.0625Z" fill="#A3704D"/>
<path opacity="0.38" d="M12.8437 23.5308C12.9375 24.6558 13.3125 25.6871 14.1562 26.4371C14.8125 26.9996 15.75 27.2808 16.5937 27.3746C17.4375 27.4683 18.375 27.3746 19.2187 27.3746C19.5937 27.3746 20.0625 27.3746 20.1562 27.7496C20.25 28.0308 19.9687 28.3121 19.6875 28.4996C18.8437 29.0621 17.7187 29.3433 16.6875 29.2496C15.6562 29.1558 14.625 28.9683 13.5937 28.6871C13.125 28.5933 12.5625 28.4058 12.1875 28.1246C11.7187 27.7496 11.5312 27.1871 11.4375 26.6246C11.0625 25.0308 11.3437 23.3433 12 21.8433C12.0937 21.5621 12.9375 19.9683 13.2187 20.7183C13.3125 20.9058 12.9375 21.6558 12.9375 21.9371C12.9375 22.5933 12.8437 23.0621 12.8437 23.5308Z" fill="#A3704D"/>
<path d="M12.8438 19.4062C12.8438 19.4062 10.7813 21.0937 9.84375 24C8.90625 26.9062 7.875 24.0938 7.875 24.0938C7.875 24.0938 7.96875 26.25 11.625 27C11.625 27 11.5313 21.8437 12.75 20.4375L13.4063 20.25L12.8438 19.4062Z" fill="#A3704D"/>
<path d="M17.1564 23.6242L14.5314 21.0929C14.2502 20.9054 13.7814 20.3429 13.2189 19.8742C13.4064 19.9679 13.6877 20.1554 14.0627 20.2492C15.5627 20.9992 16.4064 20.4367 16.5002 19.9679V19.8742C16.8752 19.7804 17.0627 19.4992 17.0627 19.3117C17.1564 18.8429 15.8439 18.1867 15.0939 17.7179C14.3439 17.3429 11.8127 15.0929 11.0627 14.5304C10.4064 14.0617 10.0314 13.8742 8.90641 13.6867C8.34391 13.4992 7.68766 13.3117 7.03141 13.4054C5.15641 13.0304 3.56266 15.2804 3.56266 15.2804C2.43766 16.0304 2.34391 17.5304 2.71891 18.8429C2.71891 22.0304 6.46891 27.9367 6.84391 28.0304H7.03141C7.21891 28.3117 7.40641 28.4992 7.50016 28.4992C7.78141 28.4992 8.43766 28.3117 8.53141 27.8429C8.71891 27.7492 8.90641 27.6554 9.00016 27.4679C9.28141 27.7492 9.46891 27.9367 9.65641 28.0304C9.65641 28.0304 9.75016 28.0304 9.75016 28.1242L10.2189 28.5929C11.5314 29.7179 13.1252 29.9054 13.4064 29.7179C13.5002 29.6242 13.5002 29.4367 13.4064 29.1554C13.6877 29.1554 13.9689 29.1554 13.9689 29.0617C14.2502 28.8742 13.6877 28.1242 13.5939 27.7492L14.8127 28.6867C16.0314 29.5304 16.5002 28.8742 16.6877 28.4054C17.0627 28.3117 17.2502 27.9367 17.3439 27.6554C17.4377 27.3742 16.9689 26.9992 16.5939 26.5304C17.0627 26.7179 17.6252 26.8117 17.9064 26.5304C18.0002 26.4367 18.0002 26.2492 18.0002 26.1554C18.1877 26.1554 18.3752 26.0617 18.5627 25.9679C19.0314 25.3117 17.4377 23.8117 17.1564 23.6242Z" fill="#7C563C" stroke="#7C563C" stroke-width="0.508969" stroke-miterlimit="10"/>
<path d="M14.7189 19.4054C14.6251 19.9679 13.6876 20.4367 12.1876 19.7804L10.1251 18.8429C9.93763 18.7492 9.84388 18.9367 9.93763 19.1242C10.0314 19.3117 11.6251 20.9054 12.0939 21.2804L14.8126 23.8117C15.0939 24.0929 16.6876 25.4992 16.1251 26.0617C15.6564 26.6242 14.7189 26.1554 14.1564 25.7804C13.5939 25.4054 10.5001 22.7804 10.3126 22.5929C10.1251 22.4054 9.37513 21.7492 9.37513 21.7492C9.37513 21.7492 9.18763 21.7492 9.28138 21.9367C9.37513 22.1242 9.56263 22.6867 10.2189 23.3429C10.8751 23.9992 12.9376 25.6867 13.2189 25.8742C13.5001 26.0617 15.0939 27.3742 15.0001 27.8429C14.9064 28.3117 14.4376 29.1554 13.0314 28.3117C11.6251 27.4679 10.0314 25.8742 10.0314 25.8742L7.50013 23.5304C7.31263 23.4367 7.12513 23.5304 7.12513 23.7179C7.12513 23.9054 7.50013 24.6554 7.78138 24.8429C8.15638 25.1242 9.46888 26.4367 9.75013 26.6242C10.0314 26.8117 10.9689 27.7492 11.0626 28.0304C11.1564 28.3117 11.7189 29.0617 11.4376 29.3429C11.1564 29.5304 9.56263 29.3429 8.25013 28.2179C7.59388 27.7492 6.56263 26.5304 5.62513 25.4054C5.81263 25.8742 6.00013 26.2492 6.28138 26.6242C7.03138 27.8429 5.90638 28.3117 5.43763 28.2179C4.96888 28.1242 1.31263 22.3117 1.31263 19.0304C0.937628 17.6242 0.937628 16.2179 2.15638 15.4679C2.15638 15.4679 3.75013 13.2179 5.62513 13.5929C7.50013 13.9679 7.96888 14.0617 8.71888 14.6242L12.7501 17.8117C13.5001 18.2804 14.8126 18.9367 14.7189 19.4054Z" fill="#7C563C"/>
<path d="M15.0002 20.1541C14.9064 20.6228 14.0627 21.1853 12.5627 20.4353L10.5002 19.4978C10.3127 19.4041 10.2189 19.5916 10.3127 19.7791C10.4064 19.9666 12.0002 21.5603 12.4689 21.9353L15.0939 24.4666C15.3752 24.7478 16.9689 26.1541 16.5002 26.7166C16.0314 27.2791 15.0939 26.7166 14.5314 26.3416C13.9689 25.9666 10.8752 23.3416 10.6877 23.1541C10.5002 22.9666 9.75016 22.3103 9.75016 22.3103C9.75016 22.3103 9.65641 22.3103 9.65641 22.4978C9.75016 22.6853 9.93766 23.2478 10.5939 23.9041C11.2502 24.5603 13.3127 26.2478 13.5939 26.4353C13.8752 26.6228 15.4689 27.9353 15.3752 28.4041C15.2814 28.8728 14.9064 29.7166 13.5002 28.7791C12.0939 27.8416 10.5002 26.3416 10.5002 26.3416L7.96891 23.9978C7.78141 23.9041 7.59391 23.9978 7.68766 24.1853C7.68766 24.3728 8.06266 25.1228 8.43766 25.3103C8.81266 25.5916 10.1252 26.9041 10.4064 27.0916C10.6877 27.2791 11.6252 28.2166 11.7189 28.4978C11.8127 28.7791 12.3752 29.5291 12.0939 29.8103C11.8127 29.9978 10.2189 29.8103 8.90641 28.6853C8.25016 28.1228 7.21891 26.9978 6.28141 25.8728C6.37516 26.4353 6.56266 26.8103 6.84391 27.1853C7.59391 28.4041 6.56266 28.8728 6.09391 28.7791C5.62516 28.6853 1.87516 22.8728 1.78141 19.6853C1.40641 18.2791 1.40641 16.8728 2.53141 16.1228C2.53141 16.1228 4.12516 13.8728 5.90641 14.3416C7.68766 14.8103 8.15641 14.8103 9.00016 15.4666L13.0314 18.6541C13.0314 18.6541 15.0939 19.6853 15.0002 20.1541Z" fill="#7C563C"/>
<path d="M13.4999 18.6577C13.4061 19.1264 12.6561 19.5014 11.4374 19.0327L9.74986 18.2827C9.56236 18.2827 9.46861 18.3764 9.56236 18.4702C9.65611 18.6577 10.9686 19.8764 11.3436 20.2514L13.4999 22.2202C13.6874 22.4077 14.9999 23.6264 14.5311 24.0952C14.1561 24.5639 13.3124 24.1889 12.9374 23.9077C12.4686 23.6264 9.93736 21.4702 9.74986 21.3764C9.56236 21.1889 8.99986 20.7202 8.99986 20.7202C8.99986 20.7202 8.90611 20.7202 8.90611 20.9077C8.99986 21.0014 9.18736 21.5639 9.65611 22.0327L12.0936 24.0952C12.2811 24.2827 13.5936 25.3139 13.4999 25.6889C13.4061 26.0639 13.0311 26.8139 11.9061 26.0639C10.6874 25.3139 9.37486 24.0952 9.37486 24.0952L7.31236 22.2202C7.21861 22.2202 7.03111 22.2202 7.03111 22.4077C7.03111 22.5014 7.31236 23.1577 7.59361 23.3452C7.87486 23.5327 8.90611 24.5639 9.18736 24.7514L10.3124 25.8764C10.4061 26.1577 10.8749 26.7202 10.5936 26.9077C10.4061 27.0952 9.09361 26.9077 7.96861 26.0639C7.49986 25.6889 6.65611 24.7514 5.81236 23.8139C5.99986 24.1889 6.09361 24.5639 6.28111 24.8452C6.93736 25.7827 5.99986 26.2514 5.62486 26.1577C5.24986 26.1577 2.34361 21.3764 2.34361 18.6577C2.06236 17.5327 2.15611 16.3139 3.09361 15.6577C3.09361 15.6577 4.49986 13.7827 5.99986 14.0639C7.49986 14.3452 7.87486 14.3452 8.53111 14.9077L11.8124 17.4389C12.4686 17.7202 13.5936 18.1889 13.4999 18.6577Z" fill="#A3704D"/>
<path d="M2.90615 21.5639C2.90615 21.5639 2.0624 17.4389 3.1874 16.4076C4.3124 15.3764 6.28115 13.8764 9.46865 15.4701C9.46865 15.4701 6.5624 12.0014 3.1874 14.7201C-0.187603 17.4389 2.90615 21.5639 2.90615 21.5639Z" fill="#A3704D"/>
<path opacity="0.34" d="M4.8747 21.9396C4.8747 21.9396 7.03095 20.8146 7.6872 18.9396C8.34345 17.0646 7.4997 16.2209 6.5622 16.5021C5.6247 16.7834 5.0622 17.7209 5.2497 18.6584C5.34345 19.5959 5.4372 19.9709 4.8747 20.5334C4.3122 21.0959 4.21845 21.9396 4.8747 21.9396Z" fill="#A3704D"/>
<path d="M5.24966 22.9686C5.99966 24.4686 7.68716 26.4373 7.68716 26.4373L7.31216 26.0623V26.3436L6.56216 25.9686L4.68716 23.1561C4.49966 22.8748 4.40591 22.4998 4.59341 22.3123C4.68716 22.1248 5.24966 22.9686 5.24966 22.9686Z" fill="#A3704D"/>
<path d="M3.09375 22.3125C3.09375 22.3125 3.9375 23.7188 4.5 24.0938C5.0625 24.4688 6.1875 25.2187 6.28125 25.5937C6.375 25.9687 5.71875 26.5313 5.53125 26.4375C5.34375 26.3438 3.65625 23.25 3.09375 22.3125Z" fill="#A3704D"/>
<path d="M15.1876 19.5031C15.0939 20.0656 14.1564 20.5343 12.6564 19.8781L10.5939 18.9406C10.4064 18.8468 10.3126 19.0343 10.4064 19.2218C10.5001 19.4093 12.0939 21.0031 12.5626 21.3781C13.0314 21.7531 15.0001 23.6281 15.2814 23.9093C15.5626 24.1906 17.1564 25.5968 16.5939 26.1593C16.1251 26.7218 15.1876 26.2531 14.6251 25.8781C14.0626 25.5031 10.9689 22.8781 10.7814 22.6906C10.5939 22.5031 9.84388 21.8468 9.84388 21.8468C9.84388 21.8468 9.65638 21.8468 9.75013 22.0343C9.84388 22.2218 10.0314 22.7843 10.6876 23.4406C11.3439 24.0968 13.4064 25.7843 13.6876 25.9718C13.9689 26.1593 15.5626 27.4718 15.4689 27.9406C15.3751 28.4093 14.9064 29.2531 13.5001 28.4093C12.0939 27.5656 10.5001 25.9718 10.5001 25.9718L7.96888 23.6281C7.78138 23.5343 7.59388 23.6281 7.59388 23.8156C7.59388 24.0031 7.96888 24.7531 8.25013 24.9406C8.53138 25.1281 9.93763 26.5343 10.2189 26.7218C10.5001 26.9093 11.4376 27.8468 11.5314 28.1281C11.6251 28.4093 12.1876 29.1593 11.9064 29.4406C11.6251 29.6281 10.0314 29.4406 8.71888 28.3156C8.06263 27.8468 7.03138 26.6281 6.09388 25.5031C6.28138 25.9718 6.46888 26.3468 6.75013 26.7218C7.50013 27.9406 6.37513 28.4093 5.90638 28.3156C5.43763 28.2218 1.78138 22.4093 1.78138 19.1281C1.40638 17.7218 1.40638 16.3156 2.62513 15.5656C2.62513 15.5656 4.21888 13.3156 6.09388 13.6906C7.96888 14.0656 8.43763 14.1593 9.18763 14.7218L13.2189 17.9093C13.9689 18.3781 15.2814 19.0343 15.1876 19.5031Z" fill="#7C563C" stroke="#7C563C" stroke-width="0.508969" stroke-miterlimit="10"/>
<path d="M15.6564 19.5955C15.5627 20.0642 14.7189 20.6267 13.2189 19.8767L11.1564 18.9392C10.9689 18.8455 10.8752 19.033 10.9689 19.2205C11.0627 19.408 12.6564 21.0017 13.1252 21.3767L15.7502 23.908C16.0314 24.1892 17.6252 25.5955 17.1564 26.158C16.6877 26.7205 15.7502 26.158 15.1877 25.783C14.6252 25.408 11.5314 22.783 11.3439 22.5955C11.1564 22.408 10.4064 21.7517 10.4064 21.7517C10.4064 21.7517 10.3127 21.7517 10.3127 21.9392C10.4064 22.1267 10.5939 22.6892 11.2502 23.3455C11.9064 24.0017 13.9689 25.6892 14.2502 25.8767C14.5314 26.0642 16.1252 27.3767 16.0314 27.8455C15.9377 28.3142 15.5627 29.158 14.1564 28.2205C12.7502 27.283 11.1564 25.783 11.1564 25.783L8.62516 23.4392C8.43766 23.3455 8.25016 23.4392 8.34391 23.6267C8.34391 23.8142 8.71891 24.5642 9.09391 24.7517C9.46891 25.033 10.7814 26.3455 11.0627 26.533C11.3439 26.7205 12.2814 27.658 12.3752 27.9392C12.4689 28.2205 13.0314 28.9705 12.7502 29.2517C12.4689 29.4392 10.8752 29.2517 9.56266 28.1267C8.90641 27.5642 7.87516 26.4392 6.93766 25.3142C7.12516 25.783 7.31266 26.158 7.59391 26.533C8.34391 27.7517 7.31266 28.2205 6.84391 28.1267C6.37516 28.033 2.71891 22.2205 2.62516 19.033C2.25016 17.6267 2.25016 16.2205 3.37516 15.4705C3.37516 15.4705 4.96891 13.2205 6.75016 13.6892C8.53141 14.158 9.00016 14.158 9.84391 14.8142L13.8752 18.0017C14.4377 18.4705 15.7502 19.033 15.6564 19.5955Z" fill="#A3704D" stroke="#A3704D" stroke-width="0.500063" stroke-miterlimit="10"/>
<path d="M14.9061 19.219C14.8124 19.6878 13.9686 20.1565 12.5624 19.5003L10.5936 18.6565C10.4061 18.6565 10.3124 18.7503 10.4061 18.9378C10.4999 19.1253 11.9999 20.5315 12.3749 21.0003C12.7499 21.469 14.6249 23.0628 14.8124 23.344C15.0936 23.6253 16.4999 24.9378 16.0311 25.4065C15.5624 25.969 14.7186 25.4065 14.1561 25.1253L10.5936 22.219C10.4061 22.0315 9.74986 21.469 9.74986 21.469C9.74986 21.469 9.65611 21.469 9.65611 21.6565C9.74986 21.844 9.93736 22.4065 10.5936 22.969L13.3124 25.3128C13.4999 25.5003 15.0936 26.719 14.9061 27.094C14.8124 27.5628 14.4374 28.3128 13.1249 27.469C11.8124 26.6253 10.3124 25.219 10.3124 25.219L7.96861 23.0628C7.78111 22.969 7.68736 23.0628 7.68736 23.2503C7.68736 23.4378 7.96861 24.094 8.34361 24.2815C8.62486 24.5628 9.84361 25.6878 10.1249 25.8753C10.4061 26.0628 11.2499 26.9065 11.3436 27.1878C11.4374 27.469 11.9061 28.219 11.7186 28.4065C11.4374 28.594 10.0311 28.4065 8.71861 27.3753C8.15611 26.9065 7.21861 25.7815 6.28111 24.7503L6.84361 25.8753C7.59361 27.0003 6.56236 27.3753 6.09361 27.3753C5.71861 27.3753 2.24986 21.9378 2.24986 18.9378C1.87486 17.6253 1.96861 16.3128 2.99986 15.6565C2.99986 15.6565 4.49986 13.5003 6.18736 13.969C7.87486 14.344 8.34361 14.344 9.09361 14.9065L12.8436 17.8128C13.6874 18.1878 14.9999 18.7503 14.9061 19.219Z" fill="#E8AB82"/>
<path d="M14.3436 19.3139C14.2499 19.7827 13.4999 20.1577 12.2811 19.6889L10.5936 18.9389C10.4061 18.9389 10.3124 19.0327 10.4061 19.1264L12.1874 20.9077L14.3436 22.8764C14.5311 23.0639 15.8436 24.2827 15.3749 24.7514C14.9999 25.2202 14.1561 24.8452 13.7811 24.5639C13.3124 24.2827 10.7811 22.1264 10.5936 22.0327C10.4061 21.8452 9.84361 21.3764 9.84361 21.3764C9.84361 21.3764 9.74986 21.3764 9.74986 21.5639C9.84361 21.6577 10.0311 22.2202 10.4999 22.6889L12.9374 24.7514C13.1249 24.9389 14.4374 25.9702 14.3436 26.3452C14.2499 26.7202 13.8749 27.4702 12.7499 26.7202C11.6249 25.9702 10.3124 24.7514 10.3124 24.7514L8.24986 22.8764C8.15611 22.8764 7.96861 22.8764 7.96861 23.0639C7.96861 23.1577 8.24986 23.8139 8.53111 24.0014C8.81236 24.1889 9.84361 25.2202 10.1249 25.4077L11.2499 26.5327C11.3436 26.8139 11.8124 27.3764 11.5311 27.5639C11.3436 27.7514 10.0311 27.5639 8.90611 26.7202C8.43736 26.3452 7.59361 25.4077 6.74986 24.4702C6.93736 24.8452 7.03111 25.2202 7.21861 25.5014C7.87486 26.4389 6.93736 26.9077 6.56236 26.8139C6.18736 26.8139 3.28111 22.0327 3.28111 19.3139C2.99986 18.1889 3.09361 16.9702 4.03111 16.3139C4.03111 16.3139 5.43736 14.4389 6.93736 14.7202C8.43736 15.0014 8.81236 15.0014 9.46861 15.5639L12.7499 18.0952C13.3124 18.3764 14.4374 18.9389 14.3436 19.3139Z" fill="#FCD6BE"/>
<path d="M3.7499 22.2201C3.7499 22.2201 2.90615 18.0951 4.03115 17.0639C5.15615 16.0326 7.1249 14.5326 10.3124 16.1264C10.3124 16.1264 7.40615 12.6576 4.03115 15.3764C0.656147 18.0951 3.7499 22.2201 3.7499 22.2201Z" fill="#E8AB82"/>
<path d="M6.09381 23.6248C6.84381 25.1248 8.53131 27.0936 8.53131 27.0936L8.15631 26.7186V26.9998L7.40631 26.6248L5.53131 23.8123C5.34381 23.5311 5.34381 23.1561 5.43756 22.9686C5.53131 22.7811 6.09381 23.6248 6.09381 23.6248Z" fill="#A3704D"/>
<path d="M3.9375 22.9688C3.9375 22.9688 4.78125 24.375 5.34375 24.75C5.90625 25.125 7.03125 25.875 7.125 26.25C7.21875 26.625 6.5625 27.1875 6.375 27.0938C6.1875 27.0938 4.40625 23.9063 3.9375 22.9688Z" fill="#E8AB82"/>
<path d="M14.625 23.1562C14.625 23.1562 16.7812 24.8437 16.7812 25.125C16.7812 25.4062 16.7813 25.9687 16.5938 26.1562C16.4063 26.3437 16.125 26.4375 15.6563 26.25C15.1875 26.0625 12.9375 23.9062 12.9375 23.9062L14.625 23.1562ZM6 24.5625L7.875 27C7.875 27.1875 7.875 27.8437 7.6875 28.0312C7.5 28.2187 7.21875 28.3125 6.75 28.125C6.28125 27.9375 4.6875 25.0312 4.6875 25.0312L6 24.5625Z" fill="#FCD6BE"/>
<path d="M14.0625 24.4688L15 23.7188C15 23.7188 16.125 24.6563 16.2187 25.0313C16.2187 25.4063 16.125 25.7813 15.8437 25.6875C15.5625 25.5938 14.7188 25.125 14.0625 24.4688Z" fill="#CC4858"/>
<path d="M10.875 26.25C10.875 26.25 12.2813 27.75 12.2813 28.0312C12.2813 28.3125 12.2812 28.875 12.0937 29.0625C11.9062 29.25 11.625 29.3438 11.1562 29.1562C10.6875 28.9688 8.625 26.625 8.625 26.625L10.875 26.25ZM13.7812 25.4062C13.7812 25.4062 15.1875 26.9062 15.1875 27.1875C15.1875 27.375 15.1875 28.0312 15 28.2188C14.8125 28.4062 14.5312 28.5 14.0625 28.3125C13.5938 28.125 11.5313 25.7812 11.5313 25.7812L13.7812 25.4062Z" fill="#FCD6BE"/>
<path d="M12.5625 26.3438L13.5 25.5938C13.5 25.5938 14.625 26.5313 14.7188 26.9063C14.7188 27.2813 14.625 27.6563 14.3438 27.5625C13.9688 27.5625 13.2187 27 12.5625 26.3438ZM9.9375 27.4688L10.875 26.7188C10.875 26.7188 12 27.6563 12.0937 28.0313C12.0937 28.4063 12 28.7813 11.7187 28.6875C11.4375 28.6875 10.5938 28.125 9.9375 27.4688ZM5.71875 25.9688L6.5625 25.875C6.5625 25.875 7.59375 27 7.40625 27.375C7.21875 27.75 7.03125 27.9375 6.75 27.8438C6.5625 27.6563 6 26.9063 5.71875 25.9688Z" fill="#CC4858"/>
<path d="M13.5937 10.03C13.5937 10.03 14.8124 14.905 17.4374 18.28C17.4374 18.28 16.8749 18.5613 16.4062 18.3738C15.9374 18.1863 13.7812 16.2175 13.4062 14.9988C13.0312 13.78 11.6249 8.62375 13.5937 10.03Z" fill="#FCD6BE"/>
<path opacity="0.46" d="M16.5938 13.5017C16.5938 13.5017 17.3437 13.1267 17.9062 13.3142C18.5625 13.5017 19.6875 15.5642 19.6875 15.5642C19.6875 15.5642 22.5 18.9392 23.0625 20.158C23.625 21.3767 24.1875 23.7205 24.1875 23.7205H22.5L21.75 21.8455L21.375 20.4392L20.25 19.2205L18.4688 17.3455L16.5938 13.5017Z" fill="#7C563C"/>
</g>
<defs>
<clipPath id="clip0_47_33181">
<rect width="30" height="30" fill="white"/>
</clipPath>
</defs>
</svg>
