<svg width="30" height="30" viewBox="0 0 30 30" fill="none" xmlns="http://www.w3.org/2000/svg">
<g clip-path="url(#clip0_47_26074)">
<path d="M22.5 1.40702L5.62495 2.43827C3.18745 2.62577 1.2187 5.25077 1.12495 8.25077C1.0312 11.2508 2.9062 13.782 5.24995 13.8758L17.9062 14.2508L21.4687 19.1258L21.75 14.3445C24.8437 14.3445 27.6562 11.532 27.8437 7.87577C28.3125 4.12577 25.7812 1.21952 22.5 1.40702Z" fill="#538C4D"/>
<path d="M4.125 14.7179L15.75 15.2804C17.9062 15.3742 19.5938 17.9992 19.4063 20.9992C19.2188 23.9992 17.3438 26.1554 15.1875 25.9679L6.9375 24.9367L3.75 27.9367V24.4679C2.0625 24.1867 0.84375 21.9367 0.84375 19.3117C0.84375 16.6867 2.34375 14.6242 4.125 14.7179Z" fill="#4D7D8E"/>
<path d="M22.5 0.000773896L5.62495 1.21952C3.18745 1.40702 1.2187 4.03202 1.12495 7.12577C1.0312 10.1258 2.9062 12.657 5.24995 12.657L18 12.9383L21.5625 17.8133L21.8437 13.032C24.9374 12.9383 27.75 10.1258 28.0312 6.46952C28.3125 2.71952 25.7812 -0.186726 22.5 0.000773896Z" fill="#538C4D"/>
<path d="M4.03125 13.5L15.6563 13.9688C17.8125 14.0625 19.5 16.5938 19.3125 19.6875C19.125 22.6875 17.25 24.9375 15.0938 24.6562L6.84375 23.7188L3.75 26.7188L3.65625 23.3438C1.96875 23.0625 0.75 20.8125 0.75 18.2813C0.84375 15.5625 2.25 13.5 4.03125 13.5Z" fill="#4D7D8E"/>
<path d="M21.6564 0.936945L6.18762 2.15569C3.93762 2.34319 2.06262 4.59319 1.96887 7.12444C1.87512 9.65569 3.65637 11.7182 5.81262 11.7182H17.5314L20.8126 15.7494L21.0939 11.7182C23.9064 11.6244 26.4376 9.18694 26.6251 6.18694C27.0001 2.99944 24.6564 0.655695 21.6564 0.936945Z" fill="#ACE8B9"/>
<path d="M4.68768 14.4375L15.4689 14.9063C17.4377 15 19.0314 17.0625 18.8439 19.5C18.7502 21.9375 16.9689 23.625 15.0002 23.4375L7.50018 22.6875L4.59393 25.125L4.50018 22.4063C2.90643 22.2188 1.68768 20.3438 1.78143 18.2813C1.68768 16.125 3.09393 14.4375 4.68768 14.4375Z" fill="#ACD9EA"/>
<path d="M20.9063 1.87563L6.75003 3.00063C4.59378 3.18813 2.90628 5.15688 2.90628 7.21938C2.81253 9.37563 4.40628 11.0631 6.46878 10.9694L17.25 10.6881L20.25 13.9694L20.4375 10.5944C22.9688 10.5006 25.2188 8.43813 25.4063 5.90688C25.6875 3.46938 23.625 1.59438 20.9063 1.87563Z" fill="#DFF2E1"/>
<path d="M5.43759 15.375L15.3751 15.4688C17.1563 15.4688 18.6563 16.9688 18.5626 18.6562C18.4688 20.3438 16.8751 21.6563 15.0938 21.5625L8.06259 21.1875L5.15634 23.625L5.25009 21C3.75009 20.9062 2.62509 19.5937 2.71884 18.0937C2.62509 16.6875 3.84384 15.375 5.43759 15.375Z" fill="#DFEEF4"/>
<path d="M4.40625 16.7812L4.3125 17.8125L8.34375 18L8.4375 16.7812H4.40625ZM4.21875 18.9375L4.03125 20.0625L8.0625 20.25L8.15625 19.0312L4.21875 18.9375Z" fill="#4D7D8E"/>
<path d="M5.4375 4.875L5.34375 6L22.2188 5.0625L22.3125 3.65625L5.4375 4.875ZM5.25 7.21875L5.15625 8.34375L14.9062 7.96875L15 6.65625L5.25 7.21875Z" fill="#538C4D"/>
<path d="M26.3438 23.5313L28.5 24.0938L28.3125 23.4375L26.3438 22.5V23.5313Z" fill="#B29A34"/>
<path d="M23.8126 21.8438C25.0314 22.2188 26.1564 23.25 26.5314 24.6563C26.9064 26.0625 26.3439 27.8438 25.3126 28.5938C24.5626 29.1563 23.7189 29.25 22.8751 29.25C20.8126 29.25 18.8439 28.5938 16.7814 27.8438C16.1251 27.6563 15.3751 27.375 14.8126 26.9063C14.2501 26.4375 13.6876 25.7813 13.5939 25.0313C13.5001 23.9063 14.1564 22.7813 15.0001 22.2188C16.5001 21.2813 18.0001 20.9062 19.5939 20.9062C20.9064 21 22.5001 21.4688 23.8126 21.8438Z" fill="#4C875A"/>
<path d="M24.0939 20.4375C25.3126 20.9062 26.5314 22.2188 26.9064 24C27.2814 25.875 26.7189 28.0313 25.5939 29.1563C24.8439 29.8125 23.9064 30 22.9689 30C20.8126 30 18.6564 29.1563 16.5001 28.2188C15.7501 27.9375 15.0939 27.6562 14.4376 27.0938C13.7814 26.5312 13.3126 25.6875 13.2189 24.6562C13.0314 23.25 13.7814 21.8437 14.7189 21.0937C16.3126 19.875 17.9064 19.3125 19.5939 19.3125C21.0001 19.3125 22.6876 19.875 24.0939 20.4375Z" fill="#4C875A"/>
<path d="M26.5617 17.2924C26.575 13.6162 23.6057 10.6253 19.9296 10.612C16.2534 10.5987 13.2625 13.568 13.2492 17.2441C13.2359 20.9203 16.2052 23.9112 19.8813 23.9245C23.5575 23.9378 26.5484 20.9685 26.5617 17.2924Z" fill="#7F5C4E"/>
<path d="M23.5312 21C24.6562 21.375 25.6874 22.4063 26.0624 23.8125C26.4374 25.2188 25.8749 27 24.9374 27.75C24.2812 28.3125 23.4374 28.4062 22.5937 28.4062C20.7187 28.4062 18.7499 27.75 16.8749 27C16.2187 26.8125 15.5624 26.5312 14.9999 26.0625C14.4374 25.5938 13.9687 24.9375 13.8749 24.1875C13.7812 23.0625 14.3437 21.9375 15.1874 21.375C16.5937 20.4375 17.9999 20.0625 19.4999 20.0625C20.8124 20.1563 22.4062 20.625 23.5312 21Z" fill="#6BBF7F"/>
<path d="M22.7815 21.7509C23.6252 22.0321 24.469 22.8759 24.7502 23.9071C25.0315 25.0321 24.6565 26.3446 23.8127 27.0009C23.2502 27.3759 22.594 27.5634 22.0315 27.5634C20.5315 27.5634 19.0315 27.0009 17.5315 26.5321C17.0627 26.3446 16.5002 26.1571 16.1252 25.7821C15.6565 25.4071 15.2815 24.9384 15.2815 24.2821C15.1877 23.4384 15.6565 22.5946 16.3127 22.1259C17.4377 21.3759 18.5627 21.0946 19.6877 21.0946C20.6252 21.0009 21.844 21.3759 22.7815 21.7509Z" fill="#7ED693"/>
<path d="M23.25 21.8437C23.25 21.8437 21.6563 25.125 18.75 25.5C15.8438 25.875 15.8438 21.2812 15.8438 21.2812C15.8438 21.2812 19.9687 23.8125 23.25 21.8437Z" fill="#E8CCAA"/>
<path d="M25.8119 17.2889C25.8237 14.027 23.189 11.3731 19.9271 11.3612C16.6651 11.3494 14.0112 13.9842 13.9994 17.2461C13.9876 20.508 16.6223 23.1619 19.8843 23.1737C23.1462 23.1856 25.8001 20.5508 25.8119 17.2889Z" fill="#A67A65"/>
<path opacity="0.48" d="M24.8438 18.9375C24.8438 18.9375 22.875 23.1563 19.2187 23.625C15.5625 24.0938 15.5625 18.2812 15.5625 18.2812C15.5625 18.2812 20.8125 21.4688 24.8438 18.9375Z" fill="#A67A65"/>
<path d="M25.5007 16.8735C25.5121 13.7151 22.9611 11.1454 19.8027 11.134C16.6443 11.1226 14.0746 13.6737 14.0632 16.832C14.0518 19.9904 16.6029 22.5601 19.7612 22.5715C22.9196 22.5829 25.4893 20.0319 25.5007 16.8735Z" fill="#E5A98C"/>
<path d="M25.5059 16.6501C25.517 13.5952 23.1334 11.1101 20.1822 11.0994C17.2309 11.0887 14.8295 13.5565 14.8184 16.6113C14.8073 19.6662 17.1908 22.1512 20.1421 22.1619C23.0934 22.1726 25.4948 19.7049 25.5059 16.6501Z" fill="#E8CCAA"/>
<path d="M22.6171 17.4289C22.6252 15.2025 20.8689 13.3913 18.6943 13.3834C16.5196 13.3755 14.7502 15.174 14.7421 17.4004C14.7341 19.6268 16.4904 21.438 18.665 21.4459C20.8397 21.4538 22.6091 19.6553 22.6171 17.4289Z" fill="#FAEACF"/>
<path d="M15.8972 16.6765C15.8975 16.5729 15.8559 16.4888 15.8041 16.4886C15.7523 16.4884 15.71 16.5722 15.7097 16.6758C15.7093 16.7793 15.751 16.8634 15.8027 16.8636C15.8545 16.8638 15.8968 16.78 15.8972 16.6765Z" fill="white"/>
<path d="M19.1251 12.0932C19.1251 12.0932 24.0938 12.5619 24.5626 16.1244C25.0313 19.6869 25.4063 22.8744 28.4063 23.6244C28.4063 23.6244 27.0938 22.4057 27.6563 21.2807C28.2188 20.1557 31.4063 10.3119 24.7501 8.62443C18.0938 6.93693 19.1251 12.0932 19.1251 12.0932Z" fill="#B29A34"/>
<path d="M19.5002 12.5615C19.5002 12.5615 23.0627 13.5927 23.5314 16.874C24.0002 20.1552 24.2814 22.9677 27.0002 23.624C27.0002 23.624 25.8752 22.499 26.3439 21.5615C26.8127 20.624 29.7189 11.624 23.7189 10.0302C17.7189 8.43648 19.5002 12.5615 19.5002 12.5615Z" fill="#B29A34"/>
<path d="M19.1251 12.3753C19.1251 12.3753 23.7189 13.3128 24.0939 16.5941C24.4689 19.8753 24.8439 22.6878 27.5626 23.3441C27.5626 23.3441 26.4376 22.2191 26.9064 21.2816C27.3751 20.3441 30.2814 11.3441 24.2814 9.75033C18.2814 8.15658 19.1251 12.3753 19.1251 12.3753Z" fill="#E8E26B"/>
<path d="M20.5314 11.9061C20.5314 11.9061 15.5627 10.5936 14.3439 12.8436C13.1252 15.0936 12.7502 15.2811 12.9377 18.2811C12.9377 18.2811 11.8127 15.3749 11.9064 13.9686C12.0002 12.5624 13.5002 7.9686 16.9689 7.87485C20.4377 7.7811 21.8439 9.4686 21.6564 9.93735C21.4689 10.4999 20.5314 11.9061 20.5314 11.9061Z" fill="#B29A34"/>
<path d="M21.2814 12.7499C21.2814 12.7499 16.3127 11.4374 15.0939 13.6874C13.8752 15.9374 13.5002 16.1249 13.6877 19.1249C13.6877 19.1249 12.5627 16.2186 12.6564 14.8124C12.7502 13.4061 14.2502 8.81235 17.7189 8.7186C21.1877 8.62485 22.5939 10.3124 22.4064 10.7811C22.2189 11.3436 21.2814 12.7499 21.2814 12.7499Z" fill="#E8E26B"/>
<path d="M21.9376 11.0629C21.9376 11.0629 26.1563 10.8754 26.5313 13.8754C26.9063 16.8754 26.2501 19.1254 26.2501 19.1254C26.2501 19.1254 26.4376 15.9379 25.5938 14.9066C24.7501 13.8754 22.7813 13.1254 22.1251 12.4691C21.4688 11.9066 21.9376 11.0629 21.9376 11.0629Z" fill="#F7F1A9"/>
<path d="M12.6563 16.0312L13.9688 19.125L13.875 20.1562C13.875 20.1562 12.5625 17.8125 12.5625 17.3437C12.5625 16.9687 12.6563 16.0312 12.6563 16.0312Z" fill="#B29A34"/>
</g>
<defs>
<clipPath id="clip0_47_26074">
<rect width="30" height="30" fill="white"/>
</clipPath>
</defs>
</svg>
