<svg width="512" height="512" viewBox="0 0 512 512" fill="none" xmlns="http://www.w3.org/2000/svg">
<g clip-path="url(#clip0_47_83856)">
<path d="M12.4105 148.02L245.351 253.69C252.151 256.78 259.841 256.78 266.641 253.69L499.581 148.02C516.131 140.51 516.131 115.5 499.581 107.99L266.651 2.30965C263.31 0.782561 259.679 -0.0078125 256.006 -0.0078125C252.332 -0.0078125 248.702 0.782561 245.361 2.30965L12.4105 107.98C-4.13945 115.49 -4.13945 140.51 12.4105 148.02ZM499.591 236.3L441.501 209.97L279.861 283.24C272.301 286.67 264.271 288.41 256.001 288.41C247.731 288.41 239.711 286.67 232.141 283.24L70.5106 209.97L12.4105 236.3C-4.13945 243.8 -4.13945 268.8 12.4105 276.3L245.351 381.89C252.151 384.97 259.841 384.97 266.641 381.89L499.591 276.3C516.141 268.8 516.141 243.8 499.591 236.3ZM499.591 364.1L441.721 337.87L279.861 411.24C272.301 414.67 264.271 416.41 256.001 416.41C247.731 416.41 239.711 414.67 232.141 411.24L70.2906 337.87L12.4105 364.1C-4.13945 371.6 -4.13945 396.6 12.4105 404.1L245.351 509.69C252.151 512.77 259.841 512.77 266.641 509.69L499.591 404.1C516.141 396.6 516.141 371.6 499.591 364.1Z" fill="#57ABFF"/>
</g>
<defs>
<clipPath id="clip0_47_83856">
<rect width="512" height="512" fill="white"/>
</clipPath>
</defs>
</svg>
