<svg width="4" height="15" viewBox="0 0 4 15" fill="none" xmlns="http://www.w3.org/2000/svg">
<mask id="mask0_47_123287" style="mask-type:luminance" maskUnits="userSpaceOnUse" x="-10" y="-4" width="24" height="23">
<rect x="-9.376" y="-3.748" width="22.504" height="22.504" fill="white"/>
</mask>
<g mask="url(#mask0_47_123287)">
<path fill-rule="evenodd" clip-rule="evenodd" d="M1.87533 5.626C0.843899 5.626 0 6.4699 0 7.50133C0 8.53276 0.843899 9.37666 1.87533 9.37666C2.90677 9.37666 3.75067 8.53276 3.75067 7.50133C3.75067 6.4699 2.90677 5.626 1.87533 5.626ZM1.87533 0C0.843899 0 0 0.8439 0 1.87533C0 2.90677 0.843899 3.75067 1.87533 3.75067C2.90677 3.75067 3.75067 2.90677 3.75067 1.87533C3.75067 0.8439 2.90677 0 1.87533 0ZM1.87533 11.252C0.843899 11.252 0 12.0959 0 13.1273C0 14.1588 0.843899 15.0027 1.87533 15.0027C2.90677 15.0027 3.75067 14.1588 3.75067 13.1273C3.75067 12.0959 2.90677 11.252 1.87533 11.252Z" fill="#ADB5BD"/>
</g>
</svg>
