<svg width="52" height="52" viewBox="0 0 52 52" fill="none" xmlns="http://www.w3.org/2000/svg">
<g clip-path="url(#clip0_47_132455)">
<path d="M26.061 51.9307C40.4142 51.9307 52.0498 40.2951 52.0498 25.9419C52.0498 11.5887 40.4142 -0.046875 26.061 -0.046875C11.7078 -0.046875 0.0722656 11.5887 0.0722656 25.9419C0.0722656 40.2951 11.7078 51.9307 26.061 51.9307Z" fill="#82BD39"/>
<path d="M25.9967 47.7472C37.9801 47.7472 47.6945 38.0328 47.6945 26.0494C47.6945 14.066 37.9801 4.35156 25.9967 4.35156C14.0133 4.35156 4.29883 14.066 4.29883 26.0494C4.29883 38.0328 14.0133 47.7472 25.9967 47.7472Z" fill="black"/>
<path fill-rule="evenodd" clip-rule="evenodd" d="M42.3627 26.0544C42.3627 35.0936 35.035 42.4213 25.9958 42.4213C16.9566 42.4213 9.62891 35.0936 9.62891 26.0544C9.62891 17.0152 16.9566 9.6875 25.9958 9.6875C35.035 9.6875 42.3627 17.0152 42.3627 26.0544ZM27.0397 20.7312C27.0397 21.2202 26.9318 21.6841 26.7386 22.1002L26.7404 22.1004C26.7404 22.1004 31.3343 20.5161 34.0279 25.0371C34.0279 25.0371 36.3884 30.224 32.1499 32.9849C32.1499 32.9849 29.3235 35.179 25.6817 33.4338C25.6817 33.4338 24.4677 32.8353 23.4707 29.9753C23.4707 29.9753 22.9881 28.3461 21.5759 28.2301C21.5759 28.2301 18.8001 27.914 19.1985 30.9404C19.1985 30.9404 19.7297 33.1682 22.2568 32.2535C22.2568 32.2535 23.3211 31.4885 23.7027 31.9543C23.7027 31.9543 24.3087 32.9157 23.2369 33.4338C23.2369 33.4338 21.69 34.5973 19.7615 33.7331C19.7615 33.7331 18.05 33.1476 17.5506 30.5663C17.5506 30.5663 17.4654 28.4708 19.067 27.3639C18.3212 27.0317 17.8012 26.2841 17.8012 25.415C17.8012 24.2373 18.7559 23.2826 19.9336 23.2826C21.1113 23.2826 22.066 24.2373 22.066 25.415C22.066 25.8964 21.9064 26.3406 21.6373 26.6975C21.6714 26.6981 21.7058 26.6989 21.7405 26.7C21.7405 26.7 23.8317 26.6589 24.7838 29.2196C24.7838 29.2196 25.4572 31.5633 26.342 32.0122C26.342 32.0122 28.6315 33.4394 31.1791 31.7635C31.1791 31.7635 34.6339 29.6554 32.4267 25.4299C32.4267 25.4299 30.2195 21.7768 25.9809 24.1337C25.9809 24.1337 25.3824 24.5826 25.0214 25.1063C25.0214 25.1063 24.7838 25.7741 24.174 25.8583C24.174 25.8583 23.5381 25.9799 23.351 25.3439C23.351 25.3439 23.1626 24.6886 23.8232 23.9857L23.785 23.9859C21.9875 23.9859 20.5303 22.5287 20.5303 20.7312C20.5303 18.9337 21.9875 17.4766 23.785 17.4766C25.5825 17.4766 27.0397 18.9337 27.0397 20.7312Z" fill="#82BD39"/>
</g>
<defs>
<clipPath id="clip0_47_132455">
<rect width="52" height="52" fill="white"/>
</clipPath>
</defs>
</svg>
