<svg width="16" height="16" viewBox="0 0 16 16" fill="none" xmlns="http://www.w3.org/2000/svg">
<g clip-path="url(#clip0_47_81332)">
<path d="M10.8486 12.8484C9.39981 13.8013 7.64886 14.1825 5.93501 13.9182C4.22116 13.6539 2.66643 12.7628 1.57204 11.4177C0.477644 10.0725 -0.0784973 8.36904 0.0113649 6.63726C0.101227 4.90548 0.830695 3.2687 2.05844 2.04404C3.28618 0.819384 4.92479 0.0940314 6.65679 0.00852173C8.38879 -0.076988 10.0909 0.483432 11.4333 1.5812C12.7757 2.67897 13.6628 4.23594 13.9228 5.95045C14.1828 7.66496 13.7972 9.41494 12.8406 10.8614L15.5006 13.4994C16.0006 13.9994 16.0006 14.9994 15.5006 15.4994C15.0006 15.9994 14.0006 15.9994 13.5006 15.4994L10.8486 12.8484ZM7.00062 11.9994C8.3267 11.9994 9.59847 11.4726 10.5362 10.5349C11.4738 9.59721 12.0006 8.32544 12.0006 6.99935C12.0006 5.67327 11.4738 4.4015 10.5362 3.46382C9.59847 2.52614 8.3267 1.99936 7.00062 1.99936C5.67454 1.99936 4.40277 2.52614 3.46509 3.46382C2.52741 4.4015 2.00062 5.67327 2.00062 6.99935C2.00062 8.32544 2.52741 9.59721 3.46509 10.5349C4.40277 11.4726 5.67454 11.9994 7.00062 11.9994Z" fill="#999999"/>
</g>
<defs>
<clipPath id="clip0_47_81332">
<rect width="16" height="16" fill="white"/>
</clipPath>
</defs>
</svg>
