<svg width="24" height="24" viewBox="0 0 24 24" fill="none" xmlns="http://www.w3.org/2000/svg">
<path d="M22.3256 12C22.3256 17.7026 17.7026 22.3256 12 22.3256V24C18.6275 24 24 18.6275 24 12H22.3256ZM12 22.3256C6.29735 22.3256 1.67442 17.7026 1.67442 12H0C0 18.6275 5.37259 24 12 24V22.3256ZM1.67442 12C1.67442 6.29735 6.29735 1.67442 12 1.67442V0C5.37259 0 0 5.37259 0 12H1.67442ZM12 1.67442C17.7026 1.67442 22.3256 6.29735 22.3256 12H24C24 5.37259 18.6275 0 12 0V1.67442Z" fill="white"/>
<path d="M7.94473 13.2343C7.73983 12.888 7.29687 12.7756 6.95536 12.9835C6.61385 13.1913 6.50311 13.6405 6.70801 13.9868L7.94473 13.2343ZM14.3742 14.4199L14.8827 14.9384L14.8841 14.937L14.3742 14.4199ZM16.3571 11.9208C16.414 11.5211 16.1405 11.1502 15.7464 11.0925C15.3522 11.0348 14.9865 11.3121 14.9296 11.7119L16.3571 11.9208ZM6.70801 13.9868C6.91233 14.3322 7.16064 14.6523 7.44143 14.937L8.46125 13.9028C8.2613 13.7 8.08656 13.474 7.94473 13.2343L6.70801 13.9868ZM7.44143 14.937C9.49297 17.0176 12.8234 17.0155 14.8827 14.9384L13.8656 13.9014C12.3674 15.4126 9.94804 15.4106 8.46125 13.9028L7.44143 14.937ZM14.8841 14.937C15.7251 14.0841 16.2023 13.0083 16.3571 11.9208L14.9296 11.7119C14.8152 12.5161 14.4654 13.2931 13.8642 13.9028L14.8841 14.937Z" fill="white"/>
<path d="M5.96826 10.4058C5.91193 10.8057 6.18589 11.1761 6.58015 11.2332C6.97442 11.2903 7.33969 11.0125 7.39601 10.6127L5.96826 10.4058ZM14.3741 7.90571L14.8841 7.38858L14.8827 7.38719L14.3741 7.90571ZM14.3864 9.10072C14.5964 9.44388 15.041 9.54941 15.3794 9.33641C15.7178 9.12341 15.8218 8.67255 15.6118 8.32938L14.3864 9.10072ZM7.39601 10.6127C7.51035 9.80101 7.85907 9.03351 8.46124 8.42283L7.44141 7.38859C6.60133 8.24054 6.12314 9.3063 5.96826 10.4058L7.39601 10.6127ZM8.46124 8.42283C9.94802 6.91503 12.3674 6.91302 13.8656 8.42423L14.8827 7.38719C12.8234 5.31006 9.49295 5.30805 7.44141 7.38859L8.46124 8.42283ZM13.8642 8.42283C14.0677 8.62921 14.2365 8.85573 14.3864 9.10072L15.6118 8.32938C15.4156 8.00881 15.1805 7.68925 14.8841 7.38859L13.8642 8.42283Z" fill="white"/>
<path d="M6.4224 16.2134C6.4224 16.6173 6.74525 16.9448 7.14352 16.9448C7.54179 16.9448 7.86465 16.6173 7.86465 16.2134H6.4224ZM7.14352 13.61V12.8786C6.74525 12.8786 6.4224 13.2061 6.4224 13.61H7.14352ZM9.71071 14.3413C10.109 14.3413 10.4318 14.0139 10.4318 13.61C10.4318 13.2061 10.109 12.8786 9.71071 12.8786V14.3413ZM7.86465 16.2134V13.61H6.4224V16.2134H7.86465ZM7.14352 14.3413H9.71071V12.8786H7.14352V14.3413Z" fill="white"/>
<path d="M15.9029 6.11141C15.9029 5.70751 15.58 5.38009 15.1817 5.38009C14.7835 5.38009 14.4606 5.70751 14.4606 6.11141H15.9029ZM15.1817 8.71488V9.4462C15.58 9.4462 15.9029 9.11879 15.9029 8.71488H15.1817ZM12.6145 7.98357C12.2163 7.98357 11.8934 8.31099 11.8934 8.71488C11.8934 9.11879 12.2163 9.4462 12.6145 9.4462V7.98357ZM14.4606 6.11141V8.71488H15.9029V6.11141H14.4606ZM15.1817 7.98357H12.6145V9.4462H15.1817V7.98357Z" fill="#101010"/>
</svg>
