<svg width="8" height="5" viewBox="0 0 8 5" fill="none" xmlns="http://www.w3.org/2000/svg">
<path d="M0.415007 0.190839C0.18753 0.43144 0.202528 0.882646 0.415007 1.12825L0.809969 1.58508L2.5223 3.56738L3.59532 4.80914C3.81468 5.06349 4.18526 5.06349 4.40462 4.80914L4.8002 4.35168L6.51254 2.36938L7.58556 1.12762C7.81241 0.867023 7.79554 0.455813 7.58556 0.190839C7.37745 -0.0716357 6.98749 -0.0541374 6.77564 0.190839L6.38067 0.648294L4.66834 2.6306C4.31088 3.04306 3.95216 3.45927 3.59532 3.87235H4.40462L4.00966 3.4149L2.29732 1.43259L1.2243 0.190839C0.999325 -0.0697609 0.643735 -0.0522626 0.415007 0.190839Z" fill="white"/>
</svg>
