<svg width="24" height="21" viewBox="0 0 24 21" fill="none" xmlns="http://www.w3.org/2000/svg">
<mask id="mask0_47_133018" style="mask-type:luminance" maskUnits="userSpaceOnUse" x="4" y="12" width="16" height="7">
<path fill-rule="evenodd" clip-rule="evenodd" d="M4 12.375H19.8399V18.6688H4V12.375Z" fill="white"/>
</mask>
<g mask="url(#mask0_47_133018)">
<path fill-rule="evenodd" clip-rule="evenodd" d="M11.921 13.6553C7.66 13.6553 5.5 14.28 5.5 15.5134C5.5 16.7578 7.66 17.3886 11.921 17.3886C16.181 17.3886 18.34 16.7638 18.34 15.5304C18.34 14.286 16.181 13.6553 11.921 13.6553ZM11.921 18.6688C9.962 18.6688 4 18.6688 4 15.5134C4 12.7002 8.521 12.375 11.921 12.375C13.88 12.375 19.84 12.375 19.84 15.5304C19.84 18.3436 15.32 18.6688 11.921 18.6688Z" fill="white"/>
</g>
<mask id="mask1_47_133018" style="mask-type:luminance" maskUnits="userSpaceOnUse" x="6" y="1" width="12" height="10">
<path fill-rule="evenodd" clip-rule="evenodd" d="M6.60938 1.71094H17.2294V10.7741H6.60938V1.71094Z" fill="white"/>
</mask>
<g mask="url(#mask1_47_133018)">
<path fill-rule="evenodd" clip-rule="evenodd" d="M11.9204 2.92976C9.77941 2.92976 8.03741 4.41573 8.03741 6.24311C8.03041 8.06451 9.75941 9.54963 11.8914 9.55645L11.9204 10.1659V9.55645C14.0604 9.55645 15.8014 8.06963 15.8014 6.24311C15.8014 4.41573 14.0604 2.92976 11.9204 2.92976ZM11.9204 10.7744H11.8884C8.96641 10.7667 6.59941 8.73281 6.60941 6.24054C6.60941 3.74401 8.99141 1.71094 11.9204 1.71094C14.8484 1.71094 17.2294 3.74401 17.2294 6.2431C17.2294 8.7422 14.8484 10.7744 11.9204 10.7744Z" fill="white"/>
</g>
</svg>
