<svg width="18" height="19" viewBox="0 0 18 19" fill="none" xmlns="http://www.w3.org/2000/svg">
<path d="M12.8781 6.25404C12.4072 6.21345 11.9925 6.5627 11.9519 7.03411C11.9114 7.50553 12.2603 7.92059 12.7313 7.96119L12.8781 6.25404ZM5.20645 7.96922C5.67713 7.9253 6.02312 7.50778 5.97924 7.03666C5.93537 6.56554 5.51823 6.21923 5.04757 6.26315L5.20645 7.96922ZM12.7313 7.96119C14.1441 8.08297 14.9666 8.49084 15.4654 9.10601C15.9831 9.74484 16.2883 10.7715 16.2883 12.4279H18.0002C18.0002 10.6146 17.6762 9.11387 16.7946 8.02639C15.8939 6.91525 14.5465 6.39785 12.8781 6.25404L12.7313 7.96119ZM16.2883 12.4279V12.5393H18.0002V12.4279H16.2883ZM16.2883 12.5393C16.2883 14.3693 15.9171 15.4282 15.2947 16.0512C14.6724 16.6741 13.6145 17.0457 11.7861 17.0457V18.7592C13.7837 18.7592 15.4049 18.364 16.5051 17.2628C17.6054 16.1615 18.0002 14.5388 18.0002 12.5393H16.2883ZM11.7861 17.0457H6.21404V18.7592H11.7861V17.0457ZM6.21404 17.0457C4.38569 17.0457 3.32779 16.6741 2.70546 16.0512C2.08315 15.4282 1.71186 14.3693 1.71186 12.5393H0C0 14.5388 0.394769 16.1615 1.495 17.2628C2.59523 18.364 4.21638 18.7592 6.21404 18.7592V17.0457ZM1.71186 12.5393V12.4279H0V12.5393H1.71186ZM1.71186 12.4279C1.71186 10.7841 2.01277 9.76088 2.52359 9.12174C3.01462 8.50738 3.82208 8.09839 5.20645 7.96922L5.04757 6.26315C3.40195 6.4167 2.07387 6.94155 1.18686 8.05135C0.319639 9.13639 0 10.6277 0 12.4279H1.71186Z" fill="#010101"/>
<path d="M8.14857 12.3332C8.14857 12.8063 8.53178 13.1899 9.0045 13.1899C9.47721 13.1899 9.86042 12.8063 9.86042 12.3332H8.14857ZM9.86042 2.58358C9.86042 2.11042 9.47721 1.72685 9.0045 1.72685C8.53178 1.72685 8.14857 2.11042 8.14857 2.58358H9.86042ZM9.86042 12.3332V2.58358H8.14857V12.3332H9.86042Z" fill="#010101"/>
<path d="M11.0162 3.63754L8.14884 0.767488L5.28148 3.63754" fill="#010101"/>
<path d="M11.0162 3.63754L8.14884 0.767488L5.28148 3.63754" stroke="#010101" stroke-width="1.5" stroke-linecap="round" stroke-linejoin="round"/>
</svg>
