<svg width="24" height="24" viewBox="0 0 24 24" fill="none" xmlns="http://www.w3.org/2000/svg">
<path fill-rule="evenodd" clip-rule="evenodd" d="M16.5134 21.5022H8.16555C5.09919 21.5022 2.74679 20.3947 3.41498 15.937L4.19301 9.89583C4.60491 7.67157 6.02367 6.82031 7.26852 6.82031H17.447C18.7102 6.82031 20.0466 7.73564 20.5225 9.89583L21.3006 15.937C21.8681 19.8913 19.5797 21.5022 16.5134 21.5022Z" stroke="white" stroke-width="2" stroke-linecap="round" stroke-linejoin="round"/>
<path d="M16.6502 6.60166C16.6502 4.21558 14.716 2.28129 12.3299 2.28129V2.28129C11.1809 2.27642 10.0773 2.72945 9.26308 3.5402C8.44889 4.35096 7.9912 5.45264 7.99121 6.60166H7.99121" stroke="#EA4961" stroke-width="2" stroke-linecap="round" stroke-linejoin="round"/>
<path d="M15.296 11.1061H15.2502" stroke="white" stroke-width="1.5" stroke-linecap="round" stroke-linejoin="round"/>
<path d="M9.46492 11.1061H9.41916" stroke="white" stroke-width="2" stroke-linecap="round" stroke-linejoin="round"/>
</svg>
