<svg width="566" height="716" viewBox="0 0 566 716" fill="none" xmlns="http://www.w3.org/2000/svg">
<path fill-rule="evenodd" clip-rule="evenodd" d="M18 23.25C18 23.0511 18.079 22.8603 18.2197 22.7197C18.3603 22.579 18.5511 22.5 18.75 22.5H31.25C31.3485 22.5 31.446 22.5194 31.537 22.5571C31.628 22.5948 31.7107 22.65 31.7803 22.7197C31.85 22.7893 31.9052 22.872 31.9429 22.963C31.9806 23.054 32 23.1515 32 23.25C32 23.3485 31.9806 23.446 31.9429 23.537C31.9052 23.628 31.85 23.7107 31.7803 23.7803C31.7107 23.85 31.628 23.9052 31.537 23.9429C31.446 23.9806 31.3485 24 31.25 24H18.75C18.5511 24 18.3603 23.921 18.2197 23.7803C18.079 23.6397 18 23.4489 18 23.25ZM18 28.25C18 28.0511 18.079 27.8603 18.2197 27.7197C18.3603 27.579 18.5511 27.5 18.75 27.5H31.25C31.4489 27.5 31.6397 27.579 31.7803 27.7197C31.921 27.8603 32 28.0511 32 28.25C32 28.4489 31.921 28.6397 31.7803 28.7803C31.6397 28.921 31.4489 29 31.25 29H18.75C18.5511 29 18.3603 28.921 18.2197 28.7803C18.079 28.6397 18 28.4489 18 28.25ZM18.75 32.5C18.5511 32.5 18.3603 32.579 18.2197 32.7197C18.079 32.8603 18 33.0511 18 33.25C18 33.4489 18.079 33.6397 18.2197 33.7803C18.3603 33.921 18.5511 34 18.75 34H31.25C31.4489 34 31.6397 33.921 31.7803 33.7803C31.921 33.6397 32 33.4489 32 33.25C32 33.0511 31.921 32.8603 31.7803 32.7197C31.6397 32.579 31.4489 32.5 31.25 32.5H18.75Z" fill="white"/>
<path fill-rule="evenodd" clip-rule="evenodd" d="M283.5 16C276.87 16 271.5 21.37 271.5 28C271.5 33.31 274.935 37.795 279.705 39.385C280.305 39.49 280.53 39.13 280.53 38.815C280.53 38.53 280.515 37.585 280.515 36.58C277.5 37.135 276.72 35.845 276.48 35.17C276.345 34.825 275.76 33.76 275.25 33.475C274.83 33.25 274.23 32.695 275.235 32.68C276.18 32.665 276.855 33.55 277.08 33.91C278.16 35.725 279.885 35.215 280.575 34.9C280.68 34.12 280.995 33.595 281.34 33.295C278.67 32.995 275.88 31.96 275.88 27.37C275.88 26.065 276.345 24.985 277.11 24.145C276.99 23.845 276.57 22.615 277.23 20.965C277.23 20.965 278.235 20.65 280.53 22.195C281.49 21.925 282.51 21.79 283.53 21.79C284.55 21.79 285.57 21.925 286.53 22.195C288.825 20.635 289.83 20.965 289.83 20.965C290.49 22.615 290.07 23.845 289.95 24.145C290.715 24.985 291.18 26.05 291.18 27.37C291.18 31.975 288.375 32.995 285.705 33.295C286.14 33.67 286.515 34.39 286.515 35.515C286.515 37.12 286.5 38.41 286.5 38.815C286.5 39.13 286.725 39.505 287.325 39.385C289.707 38.5808 291.777 37.0498 293.244 35.0074C294.71 32.9651 295.499 30.5143 295.5 28C295.5 21.37 290.13 16 283.5 16Z" fill="white"/>
<path d="M542 36.5C542.488 36.5002 542.958 36.3225 543.324 36.0002C543.689 35.678 543.924 35.2334 543.985 34.75C544.002 34.613 543.888 34.5 543.75 34.5H540.25C540.112 34.5 539.998 34.613 540.015 34.75C540.076 35.2334 540.312 35.678 540.677 36.0002C541.043 36.3225 541.513 36.5002 542 36.5Z" fill="white"/>
<path fill-rule="evenodd" clip-rule="evenodd" d="M542 22C541.072 22 540.181 22.3687 539.525 23.0251C538.869 23.6815 538.5 24.5717 538.5 25.5V28.447C538.5 28.793 538.398 29.13 538.206 29.417L536.503 31.973C536.501 31.976 536.5 31.9794 536.5 31.983L536.501 31.989C536.501 31.991 536.503 31.993 536.505 31.995C536.507 31.9967 536.509 31.9981 536.511 31.999L536.518 32H547.482L547.489 31.999C547.491 31.9981 547.493 31.9968 547.495 31.995C547.497 31.9933 547.498 31.9913 547.499 31.989L547.5 31.982C547.5 31.9784 547.499 31.9749 547.497 31.972L545.794 29.418C545.602 29.1307 545.5 28.7933 545.5 28.448V25.5C545.5 24.5717 545.131 23.6815 544.475 23.0251C543.818 22.3687 542.928 22 542 22ZM537 25.5C537 24.1739 537.527 22.9021 538.464 21.9645C539.402 21.0268 540.674 20.5 542 20.5C543.326 20.5 544.598 21.0268 545.535 21.9645C546.473 22.9021 547 24.1739 547 25.5V28.447C547 28.497 547.015 28.545 547.042 28.586L548.745 31.141C548.897 31.3696 548.984 31.6352 548.997 31.9095C549.011 32.1837 548.949 32.4564 548.819 32.6985C548.69 32.9406 548.497 33.143 548.261 33.2841C548.026 33.4253 547.757 33.4999 547.482 33.5H536.518C536.243 33.5 535.974 33.4254 535.738 33.2842C535.502 33.143 535.309 32.9405 535.18 32.6983C535.05 32.456 534.989 32.1831 535.002 31.9087C535.015 31.6343 535.103 31.3686 535.255 31.14L536.958 28.586C536.985 28.5448 537 28.4965 537 28.447V25.5Z" fill="white"/>
<rect width="565" height="664" transform="translate(1 52)" fill="#040D21"/>
<path d="M1 664V0H-1V664H1Z" fill="#30363D" mask="url(#path-1-inside-1_47_86932)"/>
</svg>
