<svg width="140" height="140" viewBox="0 0 140 140" fill="none" xmlns="http://www.w3.org/2000/svg">
<g clip-path="url(#clip0_47_91399)">
<path opacity="0.1" fill-rule="evenodd" clip-rule="evenodd" d="M139.978 70.0123C139.978 108.666 108.642 140 69.9896 140C31.3356 140 0 108.666 0 70.0123C0 31.3583 31.3356 0.0234375 69.9896 0.0234375C108.642 0.0234375 139.978 31.3583 139.978 70.0123Z" fill="#84DBAB"/>
<path fill-rule="evenodd" clip-rule="evenodd" d="M30.7812 112.2H109.221V30.7812H30.7812V112.2Z" stroke="#84DBAB" stroke-width="2" stroke-linecap="round" stroke-linejoin="round"/>
<path d="M38.7227 49.6446V38.7227H48.6517" stroke="white" stroke-width="2" stroke-linecap="round" stroke-linejoin="round"/>
<path d="M101.277 49.6446V38.7227H91.3477" stroke="white" stroke-width="2" stroke-linecap="round" stroke-linejoin="round"/>
<path d="M101.277 91.3477V102.27H91.3477" stroke="white" stroke-width="2" stroke-linecap="round" stroke-linejoin="round"/>
<path d="M38.7227 91.3477V102.27H48.6517" stroke="white" stroke-width="2" stroke-linecap="round" stroke-linejoin="round"/>
<path d="M49.375 71.3203V76.4536C49.375 87.8773 58.635 97.1381 70.0587 97.1381H71.418" stroke="#84DBAB" stroke-width="2" stroke-linecap="round" stroke-linejoin="round"/>
<path d="M49.375 63.6013V63.2265C49.375 51.991 58.4831 42.8828 69.718 42.8828C80.9535 42.8828 90.0617 51.991 90.0617 63.2265V70.9473" stroke="#84DBAB" stroke-width="2" stroke-linecap="round" stroke-linejoin="round"/>
<path d="M90.061 75.1211C90.061 75.1211 90.1685 81.5989 87.2773 87.0596" stroke="#84DBAB" stroke-width="2" stroke-linecap="round" stroke-linejoin="round"/>
<path d="M76.8398 96.4301C76.8398 96.4301 81.9258 94.396 84.5487 91.0234" stroke="#84DBAB" stroke-width="2" stroke-linecap="round" stroke-linejoin="round"/>
<path d="M65.2734 68.6435V63.0087C65.2734 60.4065 67.3831 58.2969 69.9838 58.2969C72.586 58.2969 74.6957 60.4065 74.6957 63.0087V77.2095" stroke="#84DBAB" stroke-width="2" stroke-linecap="round" stroke-linejoin="round"/>
<path d="M76.1406 88.0768C76.1406 88.0768 82.2436 83.9013 82.2977 75.4961" stroke="#84DBAB" stroke-width="2" stroke-linecap="round" stroke-linejoin="round"/>
<path d="M82.2992 62.7555C82.2992 56.0733 76.8829 50.6562 70.1999 50.6562H69.8251C63.1436 50.6562 57.7266 56.0733 57.7266 62.7555V77.2103" stroke="#84DBAB" stroke-width="2" stroke-linecap="round" stroke-linejoin="round"/>
<path d="M65.2734 75.4961C65.2734 78.9702 68.0897 81.7865 71.5638 81.7865H71.6979" stroke="#84DBAB" stroke-width="2" stroke-linecap="round" stroke-linejoin="round"/>
<path d="M62.543 86.7383C62.543 86.7383 64.337 89.7361 71.4163 89.8435" stroke="#84DBAB" stroke-width="2" stroke-linecap="round" stroke-linejoin="round"/>
</g>
<defs>
<clipPath id="clip0_47_91399">
<rect width="140" height="140" fill="white"/>
</clipPath>
</defs>
</svg>
