<svg width="15" height="15" viewBox="0 0 15 15" fill="none" xmlns="http://www.w3.org/2000/svg">
<path d="M12.2156 10.1922V3.78884C12.2156 3.04739 11.609 2.44076 10.8676 2.44076H7.16035" stroke="white" stroke-width="1.5" stroke-linecap="round" stroke-linejoin="round"/>
<path d="M8.84676 0.758294L6.82464 2.44339L8.84676 4.12849" stroke="white" stroke-width="1.5" stroke-linecap="round" stroke-linejoin="round"/>
<path d="M12.2156 14.2338C13.3324 14.2338 14.2378 13.3285 14.2378 12.2117C14.2378 11.0949 13.3324 10.1896 12.2156 10.1896C11.0989 10.1896 10.1935 11.0949 10.1935 12.2117C10.1935 13.3285 11.0989 14.2338 12.2156 14.2338Z" stroke="white" stroke-width="1.5" stroke-linecap="round" stroke-linejoin="round"/>
<path d="M2.78041 4.80253V11.2059C2.78041 11.9473 3.38705 12.554 4.12849 12.554H7.8357" stroke="white" stroke-width="1.5" stroke-linecap="round" stroke-linejoin="round"/>
<path d="M6.14929 14.2391L8.17141 12.554L6.14929 10.8689" stroke="white" stroke-width="1.5" stroke-linecap="round" stroke-linejoin="round"/>
<path d="M2.78041 4.80253C3.8972 4.80253 4.80253 3.8972 4.80253 2.78041C4.80253 1.66363 3.8972 0.758294 2.78041 0.758294C1.66363 0.758294 0.758294 1.66363 0.758294 2.78041C0.758294 3.8972 1.66363 4.80253 2.78041 4.80253Z" stroke="white" stroke-width="1.5" stroke-linecap="round" stroke-linejoin="round"/>
</svg>
