<svg width="15" height="15" viewBox="0 0 15 15" fill="none" xmlns="http://www.w3.org/2000/svg">
<path d="M12.5408 6.14858H1.75053V11.5437C1.75053 13.5669 2.42492 14.2413 4.4481 14.2413H9.84326C11.8664 14.2413 12.5408 13.5669 12.5408 11.5437V6.14858Z" stroke="white" stroke-width="1.5" stroke-miterlimit="10" stroke-linecap="round" stroke-linejoin="round"/>
<path d="M13.5722 4.13066V4.80506C13.5722 5.54689 13.2148 6.15385 12.2234 6.15385H2.10748C1.07566 6.15385 0.758693 5.54689 0.758693 4.80506V4.13066C0.758693 3.38883 1.07566 2.78188 2.10748 2.78188H12.2234C13.2148 2.78188 13.5722 3.38883 13.5722 4.13066Z" stroke="white" stroke-width="1.5" stroke-miterlimit="10" stroke-linecap="round" stroke-linejoin="round"/>
<path d="M6.92251 2.78019H3.19985C2.97056 2.53066 2.9773 2.14626 3.22009 1.90348L4.17773 0.945838C4.42725 0.696312 4.83863 0.696312 5.08816 0.945838L6.92251 2.78019Z" stroke="white" stroke-width="1.5" stroke-miterlimit="10" stroke-linecap="round" stroke-linejoin="round"/>
<path d="M11.1239 2.78019H7.40121L9.23556 0.945838C9.48509 0.696312 9.89647 0.696312 10.146 0.945838L11.1036 1.90348C11.3464 2.14626 11.3532 2.53066 11.1239 2.78019Z" stroke="white" stroke-width="1.5" stroke-miterlimit="10" stroke-linecap="round" stroke-linejoin="round"/>
<path d="M5.1034 6.14858V9.61496C5.1034 10.1545 5.69687 10.4714 6.14871 10.1815L6.78264 9.76333C7.01193 9.61496 7.30192 9.61496 7.52447 9.76333L8.12468 10.168C8.56978 10.4647 9.17 10.1477 9.17 9.60822V6.14858H5.1034Z" stroke="white" stroke-width="1.5" stroke-miterlimit="10" stroke-linecap="round" stroke-linejoin="round"/>
</svg>
