<svg width="49" height="49" viewBox="0 0 49 49" fill="none" xmlns="http://www.w3.org/2000/svg">
<mask id="mask0_47_38988" style="mask-type:luminance" maskUnits="userSpaceOnUse" x="-1" y="-1" width="51" height="51">
<path d="M49.5768 -0.575982H-0.576717V49.5776H49.5768V-0.575982Z" fill="white"/>
</mask>
<g mask="url(#mask0_47_38988)">
<path d="M48.3731 24.5C48.3731 37.6848 37.6847 48.3731 24.5 48.3731C11.3153 48.3731 0.626919 37.6848 0.626919 24.5C0.626919 11.3153 11.3153 0.626919 24.5 0.626919C37.6847 0.626919 48.3731 11.3153 48.3731 24.5Z" stroke="black" stroke-width="1.25"/>
<path d="M7.35885 13.746L8.14826 12.6687C8.47276 12.2259 8.95172 11.9987 9.39508 12.3232C9.64384 12.5057 9.7266 12.762 9.6629 13.0649L9.67193 13.0715C9.86753 12.9446 10.0556 12.9421 10.2522 13.0303C10.5551 13.1638 10.8325 13.4416 10.9112 13.3784L10.9448 13.403L10.4869 14.0279C10.4002 14.0575 10.1509 13.8378 9.9232 13.7405C9.7276 13.6578 9.58918 13.6683 9.45326 13.8534L9.2376 14.1478L9.99291 14.7015L9.52799 15.3354L7.35834 13.7455L7.35885 13.746ZM8.78521 13.8168L9.03448 13.4767C9.16789 13.2947 9.16237 13.1367 9.0109 13.0253C8.86847 12.921 8.71048 12.9451 8.57708 13.1271L8.32129 13.4762L8.78521 13.8168Z" fill="black"/>
<path d="M9.95591 10.5325L11.5031 9.11972L11.9345 9.59216L10.9675 10.4749L11.2138 10.7442L12.0222 10.0064L12.4205 10.4428L11.612 11.1805L11.8958 11.4915L12.8904 10.5837L13.3443 11.0812L11.769 12.5191L9.95591 10.5325Z" fill="black"/>
<path d="M12.8142 8.11202L13.5063 7.69374L14.4758 8.58447C14.6523 8.74597 14.859 8.96363 14.859 8.96363L14.8655 8.95962C14.8655 8.95962 14.7717 8.67374 14.7075 8.44404L14.3624 7.17566L15.045 6.76289L15.6965 9.51231L14.9432 9.96771L12.8142 8.11202Z" fill="black"/>
<path d="M16.5108 6.1125L17.2401 5.8186L18.2456 8.31323L17.5164 8.60713L16.5108 6.1125Z" fill="black"/>
<path d="M18.9156 5.23749L20.9569 4.76655L21.1008 5.38945L19.8254 5.68386L19.9077 6.03946L20.9744 5.79321L21.1074 6.36847L20.0406 6.61472L20.1354 7.02498L21.4474 6.72205L21.5989 7.37806L19.5205 7.85753L18.9161 5.23699L18.9156 5.23749Z" fill="black"/>
<path d="M22.6596 4.48348H23.4455L23.6411 5.4048C23.7053 5.69817 23.773 6.15306 23.773 6.15306H23.7805C23.7805 6.15306 23.8517 5.75033 23.9195 5.44191L24.1261 4.48298H24.8368L25.0439 5.43439C25.1116 5.74632 25.1793 6.15306 25.1793 6.15306H25.1868C25.1868 6.15306 25.2581 5.69767 25.3223 5.39677L25.5179 4.48247H26.3228L25.6162 7.17168H24.8222L24.5815 6.03219C24.5328 5.79898 24.4872 5.50962 24.4872 5.50962H24.4797C24.4797 5.50962 24.4345 5.79898 24.3859 6.03219L24.1527 7.17218H23.3477L22.6591 4.48298L22.6596 4.48348Z" fill="black"/>
<path d="M28.0451 4.76851L30.0869 5.23844L29.9434 5.86135L28.668 5.56795L28.5862 5.92354L29.653 6.16879L29.5206 6.74455L28.4539 6.4993L28.3596 6.91006L29.6721 7.21198L29.5211 7.86799L27.4427 7.39003L28.0456 4.76901L28.0451 4.76851Z" fill="black"/>
<path d="M31.8372 5.81126L32.9677 6.32383C33.6733 6.64381 33.9582 7.31838 33.6051 8.09576C33.251 8.87665 32.586 9.10384 31.8257 8.75879L30.7258 8.26026L31.8367 5.81076L31.8372 5.81126ZM32.0363 8.14039C32.3653 8.28935 32.6908 8.18152 32.8789 7.76675C33.0624 7.36251 32.9521 7.0315 32.6096 6.87652L32.2841 6.72907L31.7108 7.99344L32.0363 8.14039Z" fill="black"/>
<path d="M37.2121 8.88267L38.2528 9.80699C38.4494 9.98203 38.5532 10.1596 38.5878 10.3361C38.6265 10.5362 38.5743 10.7368 38.4268 10.9023C38.2568 11.0934 38.0677 11.1421 37.8345 11.0653L37.827 11.0739C37.984 11.3392 37.9454 11.6371 37.7432 11.8648C37.5507 12.0815 37.3189 12.1672 37.0852 12.1406C36.8891 12.1176 36.6945 12.0198 36.4864 11.8352L35.4262 10.8933L37.2121 8.88267ZM36.8315 11.3166C36.9578 11.429 37.1128 11.4305 37.2201 11.3096C37.335 11.1802 37.2969 11.0307 37.176 10.9229L36.7597 10.5533L36.4127 10.944L36.832 11.3161L36.8315 11.3166ZM37.4599 10.5016C37.5722 10.6014 37.6956 10.6155 37.7909 10.5086C37.8832 10.4048 37.8596 10.2729 37.7473 10.1726L37.3846 9.85013L37.0948 10.1766L37.4604 10.5011L37.4599 10.5016Z" fill="black"/>
<path d="M39.1332 13.2983L39.9677 11.5098L40.4833 12.1904L40.1793 12.7797C40.0765 12.9804 39.9436 13.185 39.9436 13.185L39.9482 13.191C39.9482 13.191 40.1834 13.1213 40.404 13.0766L41.0535 12.9432L41.5576 13.6088L39.6076 13.9252L38.8548 14.4955L38.3798 13.8686L39.1332 13.2983Z" fill="black"/>
<path d="M30.4432 21.2002C30.2105 21.0061 29.9216 20.8566 29.5775 20.7528C29.2335 20.649 28.8418 20.5958 28.4024 20.5943C27.9832 20.5928 27.6015 20.6375 27.2564 20.7288C26.9114 20.82 26.612 20.9529 26.3577 21.127C26.1034 21.3015 25.8998 21.5121 25.7478 21.7594C25.5958 22.0067 25.5051 22.2835 25.4755 22.5894L27.0954 22.5955C27.1687 22.3944 27.3081 22.2419 27.5142 22.1376C27.7204 22.0337 27.9822 21.9821 28.3006 21.9836C28.6673 21.9851 28.9461 22.0618 29.1367 22.2133C29.3273 22.3648 29.4221 22.5799 29.4211 22.8583L29.4191 23.4024L27.8051 23.4928C26.9706 23.5379 26.3316 23.7299 25.8872 24.0685C25.4424 24.4075 25.2192 24.881 25.2167 25.4893C25.2157 25.7958 25.2678 26.0716 25.3737 26.3179C25.4795 26.5641 25.6284 26.7753 25.8215 26.9513C26.0141 27.1273 26.2433 27.2633 26.5091 27.3591C26.7745 27.4548 27.0684 27.5035 27.3908 27.5045C27.8257 27.506 28.2139 27.4217 28.5554 27.2522C28.8965 27.0822 29.1542 26.8445 29.3288 26.539H29.4376L29.4341 27.4098L31.1383 27.4163L31.1559 22.8653C31.1574 22.5107 31.0967 22.1933 30.9753 21.9129C30.8534 21.6326 30.6759 21.3948 30.4432 21.2002ZM29.413 24.9923C29.4125 25.1613 29.3759 25.3184 29.3027 25.4633C29.2295 25.6083 29.1287 25.7346 28.9993 25.843C28.8699 25.9513 28.7184 26.035 28.5449 26.0947C28.3713 26.1544 28.1823 26.184 27.9766 26.1835C27.6702 26.1824 27.4209 26.1107 27.2283 25.9688C27.0353 25.8274 26.9395 25.6313 26.9405 25.3816C26.9425 24.8981 27.3181 24.6318 28.0679 24.5821L29.416 24.5028L29.414 24.9923H29.413Z" fill="black"/>
<path d="M36.1814 20.6242C35.6859 20.6222 35.2717 20.7285 34.9382 20.9427C34.6052 21.1573 34.3609 21.4532 34.2064 21.8314H34.0976L34.1016 20.7611L32.3974 20.7546L32.3718 27.4205L34.1307 27.427L34.1452 23.5833C34.1463 23.3656 34.1773 23.1675 34.238 22.9884C34.2992 22.8094 34.387 22.6564 34.5028 22.53C34.6182 22.4036 34.7566 22.3063 34.9176 22.2386C35.0791 22.1709 35.2627 22.1373 35.4678 22.1383C35.8871 22.1398 36.1955 22.2592 36.3941 22.4954C36.5927 22.7316 36.691 23.0817 36.689 23.5451L36.6739 27.4371L38.4329 27.4436L38.4494 23.1344C38.4524 22.3364 38.2604 21.7195 37.8732 21.2827C37.486 20.8459 36.9218 20.6262 36.1805 20.6237" fill="black"/>
<path d="M41.4803 20.4136L41.4848 19.2059L39.7259 19.1994L39.7013 25.6482C39.7003 25.9747 39.7405 26.2525 39.8222 26.4827C39.904 26.7124 40.0354 26.9015 40.2159 27.0494C40.3965 27.1974 40.6302 27.3057 40.9161 27.3754C41.2019 27.4452 41.548 27.4808 41.9552 27.4823C42.1248 27.4828 42.2868 27.4752 42.4417 27.4597C42.5967 27.4442 42.7291 27.4266 42.838 27.407L42.843 26.0654C42.7582 26.0735 42.6795 26.079 42.6072 26.0825C42.5345 26.0865 42.4397 26.088 42.3234 26.0875C42.0215 26.0865 41.8018 26.0173 41.6654 25.8794C41.5289 25.7419 41.4612 25.5283 41.4622 25.2379L41.4738 22.2402L42.858 22.2457L42.8635 20.8615L41.9216 20.858C41.6774 20.857 41.4803 20.6584 41.4813 20.4141" fill="black"/>
<path d="M21.888 25.7664H21.7792L20.3965 20.7079H20.2866L19.5213 23.2136C19.4606 23.4127 19.4641 23.6264 19.5318 23.8235L20.7696 27.418L20.7084 27.6592C20.6347 27.913 20.5023 28.0956 20.3102 28.2074C20.1186 28.3192 19.8573 28.3749 19.5268 28.3739H19.4426L19.3247 28.3729C19.2821 28.3729 19.2429 28.3714 19.2068 28.3694C19.1707 28.3669 19.1441 28.3639 19.1281 28.3599L19.1226 29.7742C19.1386 29.7782 19.1803 29.7817 19.2465 29.7837C19.3127 29.7857 19.3844 29.7882 19.4611 29.7907C19.5378 29.7932 19.6081 29.7943 19.6728 29.7943H19.7936C20.2084 29.7963 20.5745 29.7571 20.891 29.6779C21.2075 29.5987 21.4873 29.4678 21.7296 29.2852C21.9723 29.1026 22.1834 28.8649 22.364 28.5715C22.5446 28.2781 22.706 27.916 22.849 27.4857L25.1716 20.7255L23.3104 20.7185L21.889 25.7654L21.888 25.7664Z" fill="black"/>
<path d="M16.7975 16.4382L14.9047 16.4312L11.8945 26.3515H11.8082L11.8218 22.7911C11.8233 22.4366 11.7626 22.1191 11.6412 21.8387C11.5193 21.5584 11.3418 21.3211 11.1091 21.1265C10.8759 20.9324 10.5875 20.783 10.2434 20.6792C9.89939 20.5754 9.50769 20.5222 9.06834 20.5207C8.64906 20.5192 8.26739 20.5638 7.92233 20.6551C7.57728 20.7464 7.27786 20.8793 7.02308 21.0533C6.7688 21.2279 6.56518 21.4385 6.41321 21.6858C6.26125 21.933 6.17047 22.2099 6.14088 22.5158L7.76084 22.5218C7.83406 22.3207 7.97349 22.1682 8.17962 22.0639C8.38575 21.9601 8.64755 21.9084 8.96603 21.9099C9.33265 21.9114 9.61151 21.9882 9.80209 22.1396C9.99267 22.2911 10.0875 22.5063 10.0865 22.7846L10.0845 23.3288L8.47051 23.4191C7.63646 23.4642 6.997 23.6563 6.55264 23.9948C6.10828 24.3339 5.88459 24.8073 5.88259 25.4157C5.88158 25.7221 5.93374 25.998 6.03957 26.2442C6.14539 26.4905 6.29435 26.7016 6.48744 26.8777C6.68053 27.0537 6.90923 27.1896 7.17505 27.2854C7.44036 27.3812 7.73426 27.4298 8.05674 27.4308C8.49208 27.4324 8.87976 27.3481 9.22131 27.1786C9.56235 27.0086 9.82014 26.7708 9.99468 26.4654H10.1035L10.1 27.3361L11.8042 27.3426L13.4864 27.3491L16.797 16.4387L16.7975 16.4382ZM10.0794 24.9177C10.0789 25.0867 10.0418 25.2436 9.9691 25.3886C9.89588 25.5335 9.79457 25.6599 9.66567 25.7683C9.53628 25.8766 9.38481 25.9603 9.21128 26.02C9.03775 26.0797 8.84867 26.1093 8.64304 26.1088C8.3366 26.1078 8.08734 26.0361 7.89475 25.8941C7.70166 25.7527 7.60586 25.5566 7.60687 25.3068C7.60887 24.8234 7.98452 24.557 8.73382 24.5074L10.0819 24.4282L10.0794 24.9177Z" fill="black"/>
<path d="M18.4703 16.4449L15.1596 27.3553L17.0524 27.3623L20.3626 16.4524L18.4703 16.4449Z" fill="black"/>
<path d="M8.40559 30.7386L9.26573 32.6244L8.66338 32.8993L8.12975 31.7287L7.72902 31.9112L8.17087 32.8797L7.61668 33.1325L7.17482 32.164L6.2851 32.5698L5.9591 31.8546L8.40559 30.7386Z" fill="black"/>
<path d="M8.30715 33.7211C8.97519 33.2722 9.76561 33.376 10.231 34.0692C10.6965 34.7623 10.4979 35.5392 9.82931 35.988C9.16126 36.4369 8.36984 36.3246 7.90441 35.6314C7.43899 34.9383 7.6386 34.1695 8.30715 33.7211ZM9.38495 35.326C9.75057 35.0807 9.92109 34.7347 9.71145 34.4227C9.5018 34.1103 9.11713 34.1379 8.75151 34.3831C8.38589 34.6284 8.21837 34.9724 8.42802 35.2844C8.63766 35.5968 9.01933 35.5713 9.38495 35.326Z" fill="black"/>
<path d="M11.3025 35.6345L12.2254 36.6C12.605 36.9972 12.7455 37.5082 12.3483 37.8879C12.1256 38.101 11.8583 38.1377 11.5709 38.0223L11.5628 38.0303C11.6536 38.2455 11.623 38.4306 11.5022 38.6091C11.3176 38.8844 10.9961 39.1086 11.0448 39.1974L11.0152 39.226L10.4795 38.6658C10.4655 38.575 10.7258 38.3679 10.8607 38.1607C10.9766 37.9822 10.9901 37.8443 10.8316 37.6788L10.5793 37.4149L9.90226 38.0624L9.3591 37.4942L11.3031 35.635L11.3025 35.6345ZM10.9841 37.0268L11.2755 37.3312C11.4314 37.4942 11.5879 37.5163 11.7238 37.3864C11.8517 37.264 11.8552 37.1045 11.6993 36.9415L11.4003 36.629L10.9841 37.0268Z" fill="black"/>
<path d="M14.8036 38.773L15.4747 39.2108L14.8397 42.0079L14.1406 41.5515L14.2459 41.1488L13.4836 40.6513L13.1576 40.9101L12.5026 40.4827L14.8036 38.773ZM13.9274 40.2947L14.3939 40.5991L14.5398 40.0655C14.5769 39.9326 14.6436 39.7199 14.6436 39.7199L14.6376 39.7159C14.6376 39.7159 14.4731 39.8644 14.3633 39.9501L13.9274 40.2947Z" fill="black"/>
<path d="M15.9206 41.0699C16.243 40.3326 16.9893 40.0061 17.7301 40.3301C17.9989 40.4475 18.2101 40.622 18.3349 40.8247C18.513 41.112 18.5406 41.4526 18.4343 41.7796L17.714 41.4646C17.7813 41.264 17.6945 41.0208 17.4603 40.9184C17.1192 40.769 16.8273 40.9862 16.6508 41.3894C16.4743 41.7926 16.541 42.1663 16.8614 42.3067C17.1132 42.4165 17.3369 42.3177 17.4578 42.1076L18.185 42.4256C18.0451 42.6889 17.8159 42.8754 17.5661 42.9677C17.2672 43.0791 16.9658 43.054 16.6077 42.897C15.8564 42.5685 15.5986 41.8067 15.9211 41.0694L15.9206 41.0699Z" fill="black"/>
<path d="M18.9183 42.3183C19.1088 41.5364 19.7879 41.0861 20.5733 41.2776C20.8582 41.3469 21.0964 41.4828 21.2544 41.6603C21.4796 41.9126 21.5654 42.2431 21.5172 42.5836L20.7533 42.3976C20.7849 42.1884 20.6576 41.9637 20.4093 41.9036C20.0477 41.8153 19.7974 42.0796 19.6931 42.5069C19.5888 42.9347 19.7187 43.2913 20.0587 43.3741C20.3256 43.4393 20.5292 43.3028 20.6114 43.0751L21.3828 43.2632C21.2905 43.5466 21.0964 43.7703 20.8667 43.9037C20.5914 44.0652 20.2905 44.0923 19.9103 43.9995C19.1138 43.8054 18.7282 43.0997 18.9188 42.3173L18.9183 42.3183Z" fill="black"/>
<path d="M22.2932 41.6803L24.382 41.8378L24.3339 42.4753L23.0284 42.377L23.0008 42.7406L24.0922 42.8228L24.0475 43.4116L22.9562 43.3294L22.9246 43.7497L24.2672 43.851L24.2165 44.5225L22.09 44.3621L22.2932 41.6803Z" fill="black"/>
<path d="M25.0211 43.6737L25.8235 43.6075C25.8677 43.8192 26.0407 43.9064 26.2995 43.8854C26.4529 43.8728 26.6355 43.7971 26.6225 43.6361C26.6089 43.4751 26.4259 43.4485 26.0888 43.3933C25.6294 43.3181 25.0732 43.2093 25.0261 42.6395C24.9754 42.0247 25.4584 41.7508 26.0618 41.7007C26.6165 41.6545 27.1456 41.8451 27.2053 42.4289L26.4294 42.4931C26.3948 42.3487 26.2819 42.2639 26.0683 42.2814C25.8957 42.296 25.7824 42.3843 25.7914 42.4931C25.8045 42.6506 26.0352 42.6541 26.4439 42.7183C26.9028 42.79 27.3672 42.9289 27.4144 43.4987C27.4625 44.0835 26.9675 44.4375 26.3341 44.4902C25.637 44.5479 25.0833 44.2911 25.0211 43.6737Z" fill="black"/>
<path d="M28.1351 43.36L28.9159 43.1644C28.9937 43.366 29.1787 43.4242 29.4305 43.361C29.58 43.3234 29.748 43.2196 29.7089 43.0626C29.6698 42.9056 29.4842 42.9096 29.1431 42.9096C28.6777 42.9096 28.1115 42.8926 27.9726 42.3384C27.8226 41.7401 28.2549 41.3915 28.8422 41.244C29.3824 41.1086 29.9351 41.2109 30.0885 41.7772L29.3332 41.9662C29.2755 41.8293 29.1507 41.7636 28.9425 41.8158C28.7745 41.8579 28.6772 41.9637 28.7038 42.0696C28.7424 42.223 28.9701 42.1889 29.3844 42.1859C29.8488 42.1819 30.3298 42.2441 30.4682 42.7988C30.6106 43.368 30.1793 43.7979 29.5629 43.9523C28.8843 44.1223 28.2965 43.9594 28.1351 43.36Z" fill="black"/>
<path d="M30.5492 40.7794L31.2819 40.4951L32.2544 43.0028L31.5216 43.2871L30.5492 40.7794Z" fill="black"/>
<path d="M31.9166 40.253L33.1398 39.589C33.371 39.4631 33.5736 39.426 33.7512 39.4536C33.9523 39.4852 34.1233 39.6025 34.2291 39.7976C34.351 40.0223 34.3325 40.2164 34.181 40.41L34.1865 40.42C34.4894 40.3629 34.7563 40.5003 34.9017 40.7676C35.0401 41.0224 35.0416 41.2697 34.9378 41.4798C34.8495 41.6558 34.6911 41.8063 34.4468 41.9392L33.2005 42.6158L31.9171 40.2525L31.9166 40.253ZM33.523 40.5705C33.6554 40.4988 33.7106 40.3875 33.6424 40.2621C33.5761 40.1397 33.4437 40.1171 33.3118 40.1893L32.8855 40.421L33.0937 40.8042L33.5235 40.571L33.523 40.5705ZM34.0757 41.4387C34.2246 41.3579 34.2783 41.213 34.2011 41.071C34.1183 40.9191 33.9648 40.904 33.8229 40.9813L33.3339 41.2471L33.5832 41.7065L34.0757 41.4387Z" fill="black"/>
<path d="M34.4487 38.774L35.0867 38.3146L36.658 40.4973L36.02 40.9567L34.4487 38.774Z" fill="black"/>
<path d="M35.6428 37.9023L36.2251 37.3742L37.5797 38.8678L38.4323 38.0944L38.8848 38.5929L37.4499 39.8949L35.6423 37.9028L35.6428 37.9023Z" fill="black"/>
<path d="M37.4566 36.1651L37.9747 35.5738L39.9974 37.3467L39.4793 37.938L37.4566 36.1651Z" fill="black"/>
<path d="M38.3653 35.1461L39.6668 33.2287L40.221 33.6048L39.7877 34.2428L41.4588 35.3773L41.017 36.0278L39.3458 34.8933L38.919 35.5222L38.3653 35.1461Z" fill="black"/>
<path d="M41.8561 32.7547L39.8856 32.8675L40.2402 32.0907L40.9027 32.0791C41.1279 32.0746 41.3712 32.0947 41.3712 32.0947L41.3742 32.0876C41.3742 32.0876 41.2016 31.9136 41.0572 31.7401L40.6319 31.2315L40.979 30.4722L42.1821 32.039L43.0408 32.4312L42.7143 33.1464L41.8556 32.7542L41.8561 32.7547Z" fill="black"/>
</g>
</svg>
