<svg width="18" height="18" viewBox="0 0 18 18" fill="none" xmlns="http://www.w3.org/2000/svg">
<path d="M2.8127 6.75316C2.81473 6.60408 2.87241 6.46113 2.97442 6.35238C3.08107 6.24676 3.2251 6.1875 3.3752 6.1875C3.52531 6.1875 3.66934 6.24676 3.77599 6.35238L9.0002 11.5836L14.2244 6.35238C14.3337 6.26269 14.4725 6.21685 14.6137 6.22378C14.7549 6.23072 14.8885 6.28993 14.9885 6.38991C15.0884 6.48988 15.1477 6.62347 15.1546 6.76469C15.1615 6.90591 15.1157 7.04465 15.026 7.15395L9.40099 12.7789C9.29434 12.8846 9.15031 12.9438 9.0002 12.9438C8.8501 12.9438 8.70607 12.8846 8.59942 12.7789L2.97442 7.15395C2.87241 7.0452 2.81473 6.90225 2.8127 6.75316Z" fill="#E2E7E9"/>
</svg>
