<svg width="12" height="12" viewBox="0 0 12 12" fill="none" xmlns="http://www.w3.org/2000/svg">
<path d="M8.6517 2.64994V3.34568L4.28537 7.71201C3.70959 7.19021 3.34972 6.42251 3.34972 5.60082V2.64994C3.34972 1.41442 4.1894 0.388807 5.32897 0.0949194C5.44292 0.0649308 5.55088 0.160894 5.55088 0.274851V1.1985C5.55088 1.4444 5.75481 1.64833 6.00071 1.64833C6.24662 1.64833 6.45054 1.4444 6.45054 1.1985V0.274851C6.45054 0.160894 6.5585 0.0649308 6.67246 0.0949194C7.81202 0.388807 8.6517 1.41442 8.6517 2.64994Z" fill="white"/>
<path d="M10.6848 4.68313V5.63676C10.6848 8.07783 8.80753 10.0871 6.42044 10.297V11.5745C6.42044 11.8084 6.23451 11.9943 6.0006 11.9943C5.76669 11.9943 5.58076 11.8084 5.58076 11.5745V10.297C4.92701 10.237 4.30925 10.0451 3.75746 9.7392L4.37522 9.12143C4.86703 9.34935 5.41882 9.4813 6.0006 9.4813C8.12379 9.4813 9.85113 7.75396 9.85113 5.63676V4.68313C9.85113 4.45521 10.0371 4.26928 10.271 4.26928C10.4989 4.26928 10.6848 4.45521 10.6848 4.68313Z" fill="white"/>
<path d="M8.65165 4.84204V5.71171C8.65165 7.25912 7.32016 8.50065 5.73677 8.3507C5.56883 8.33271 5.40089 8.30272 5.24495 8.24874L8.65165 4.84204Z" fill="white"/>
<path d="M11.8605 0.134949C11.6805 -0.0449828 11.3867 -0.0449828 11.2067 0.134949L3.1398 8.20187C2.52204 7.52413 2.15018 6.62447 2.15018 5.63485V4.68121C2.15018 4.4533 1.96425 4.26737 1.73034 4.26737C1.50243 4.26737 1.3165 4.4533 1.3165 4.68121V5.63485C1.3165 6.85239 1.78432 7.96196 2.54603 8.79565L0.134949 11.2067C-0.0449828 11.3867 -0.0449828 11.6805 0.134949 11.8605C0.230912 11.9444 0.344868 11.9924 0.464823 11.9924C0.584777 11.9924 0.698733 11.9444 0.788699 11.8545L11.8605 0.782701C12.0464 0.60277 12.0464 0.31488 11.8605 0.134949Z" fill="white"/>
</svg>
