<svg width="22" height="22" viewBox="0 0 22 22" fill="none" xmlns="http://www.w3.org/2000/svg">
<path d="M11.002 17.7279C10.5825 17.7279 10.2347 17.38 10.2347 16.9606V13.8914C10.2347 13.4719 10.5825 13.1241 11.002 13.1241C11.4215 13.1241 11.7693 13.4719 11.7693 13.8914V16.9606C11.7693 17.38 11.4215 17.7279 11.002 17.7279Z" fill="white"/>
<path d="M16.7321 21.6226H5.27377C3.41178 21.6226 1.71348 20.1903 1.40656 18.359L0.0458779 10.2051C-0.179198 8.93653 0.444875 7.30985 1.45771 6.50163L8.54759 0.823589C9.9185 -0.281326 12.0772 -0.271096 13.4583 0.83382L20.5482 6.50163C21.5508 7.30985 22.1646 8.93653 21.96 10.2051L20.5994 18.3488C20.2924 20.1596 18.5532 21.6226 16.7321 21.6226ZM10.9927 1.53974C10.4505 1.53974 9.90827 1.70343 9.50928 2.02058L2.4194 7.70885C1.84648 8.16923 1.43725 9.23322 1.56002 9.9596L2.9207 18.1032C3.10486 19.1775 4.17908 20.088 5.27377 20.088H16.7321C17.8268 20.088 18.9011 19.1775 19.0852 18.093L20.4459 9.94937C20.5584 9.23322 20.1492 8.14877 19.5865 7.69862L12.4966 2.03081C12.0874 1.70343 11.535 1.53974 10.9927 1.53974Z" fill="white"/>
</svg>
