<svg width="126" height="40" viewBox="0 0 126 40" fill="none" xmlns="http://www.w3.org/2000/svg">
<rect width="27" height="28" rx="13.5" fill="#43739B"/>
<g clip-path="url(#clip0_47_69615)">
<path d="M9.13996 21.0656H6.13996V11.0406H9.13996V21.0706V21.0656ZM16.72 11.3406C17.84 11.3406 18.6933 11.7006 19.28 12.4206C19.8633 13.1406 20.155 14.124 20.155 15.3706V21.0456H17.155V15.6906C17.155 14.2973 16.6666 13.6006 15.69 13.6006C14.9066 13.6006 14.395 13.9923 14.155 14.7756V21.0506H11.155C11.1883 15.0373 11.1883 11.694 11.155 11.0206H13.535L13.725 13.0206H13.775C14.4616 11.9006 15.445 11.3406 16.725 11.3406H16.72ZM6.08496 8.53063C6.08496 7.52063 6.60496 7.01562 7.64496 7.01562C8.66829 7.01562 9.17996 7.52063 9.17996 8.53063C9.17996 9.52396 8.66829 10.0206 7.64496 10.0206C6.60496 10.0206 6.08496 9.52396 6.08496 8.53063Z" fill="white"/>
</g>
<rect x="39" width="27" height="28" rx="13.5" fill="#436B9F"/>
<g clip-path="url(#clip1_47_69615)">
<path d="M45.5195 16.7891H48.5695L50.9845 12.7991L49.1695 9.59906H46.1195L47.9345 12.7991L45.5195 16.7891ZM50.5695 15.5391L55.3995 7.03906H58.6395L53.8245 15.5291L56.9245 21.0041H53.6845L50.5695 15.5391Z" fill="white"/>
</g>
<defs>
<clipPath id="clip0_47_69615">
<rect width="16" height="16" fill="white" transform="translate(5 6.14062)"/>
</clipPath>
<clipPath id="clip1_47_69615">
<rect width="16" height="16" fill="white" transform="translate(44 6.14062)"/>
</clipPath>
</defs>
</svg>
