<svg width="14" height="14" viewBox="0 0 14 14" fill="none" xmlns="http://www.w3.org/2000/svg">
<path d="M6.33376 9.06323L5.03902 10.358C4.76607 10.6309 4.33215 10.6309 4.05221 10.365C3.97522 10.288 3.89824 10.218 3.82125 10.141C3.10039 9.41316 2.44952 8.65031 1.86864 7.85247C1.29475 7.05462 0.832837 6.25678 0.496903 5.46593C0.167967 4.66809 0 3.90524 0 3.17738C0 2.70147 0.0839835 2.24656 0.251951 1.82664C0.419918 1.39973 0.685866 1.0078 1.05679 0.657872C1.50471 0.216958 1.99461 0 2.51251 0C2.70847 0 2.90443 0.0419918 3.0794 0.125975C3.26136 0.209959 3.42233 0.335934 3.54831 0.517899L5.17199 2.80645C5.29797 2.98142 5.38895 3.14239 5.45193 3.29636C5.51492 3.44333 5.54992 3.5903 5.54992 3.72327C5.54992 3.89124 5.50093 4.05921 5.40294 4.22018C5.31196 4.38114 5.17899 4.54911 5.01102 4.71708L4.47912 5.26997C4.40214 5.34696 4.36715 5.43794 4.36715 5.54992C4.36715 5.60591 4.37415 5.6549 4.38814 5.71088C4.40914 5.76687 4.43013 5.80887 4.44413 5.85086C4.57011 6.08181 4.78706 6.38275 5.095 6.74668C5.40994 7.11061 5.74588 7.48154 6.10981 7.85247C6.17979 7.92245 6.25678 7.99244 6.32676 8.06243C6.60671 8.33537 6.61371 8.78328 6.33376 9.06323Z" fill="white"/>
<path d="M13.9763 11.4295C13.9763 11.6254 13.9413 11.8284 13.8713 12.0244C13.8503 12.0804 13.8293 12.1363 13.8013 12.1923C13.6823 12.4443 13.5283 12.6822 13.3254 12.9062C12.9824 13.2841 12.6045 13.5571 12.1776 13.732C12.1706 13.732 12.1636 13.739 12.1566 13.739C11.7437 13.907 11.2958 13.998 10.8129 13.998C10.099 13.998 9.33616 13.83 8.53132 13.4871C7.72647 13.1441 6.92163 12.6822 6.12379 12.1013C5.85084 11.8984 5.57789 11.6954 5.31894 11.4785L7.6075 9.18992C7.80346 9.33689 7.97842 9.44887 8.1254 9.52585C8.16039 9.53985 8.20238 9.56084 8.25137 9.58184C8.30736 9.60284 8.36335 9.60983 8.42634 9.60983C8.54531 9.60983 8.6363 9.56784 8.71328 9.49086L9.24518 8.96596C9.42014 8.79099 9.58811 8.65802 9.74908 8.57404C9.91005 8.47606 10.071 8.42707 10.246 8.42707C10.379 8.42707 10.5189 8.45506 10.6729 8.51805C10.8269 8.58104 10.9878 8.67202 11.1628 8.79099L13.4794 10.4357C13.6613 10.5616 13.7873 10.7086 13.8643 10.8836C13.9343 11.0586 13.9763 11.2335 13.9763 11.4295Z" fill="white"/>
</svg>
