<svg width="42" height="28" viewBox="0 0 42 28" fill="none" xmlns="http://www.w3.org/2000/svg">
<path d="M14 23H27.188" stroke="#06BEFB" stroke-width="2"/>
<path d="M1 12C0.734784 12 0.48043 12.1054 0.292893 12.2929C0.105357 12.4804 0 12.7348 0 13C0 13.2652 0.105357 13.5196 0.292893 13.7071C0.48043 13.8946 0.734784 14 1 14V12ZM5 14C5.26522 14 5.51957 13.8946 5.70711 13.7071C5.89464 13.5196 6 13.2652 6 13C6 12.7348 5.89464 12.4804 5.70711 12.2929C5.51957 12.1054 5.26522 12 5 12V14ZM1 14H5V12H1V14ZM35 13C35.2652 13 35.5196 12.8946 35.7071 12.7071C35.8946 12.5196 36 12.2652 36 12C36 11.7348 35.8946 11.4804 35.7071 11.2929C35.5196 11.1054 35.2652 11 35 11V13ZM26 12L25.2 12.6L25.5 13H26V12ZM23 8L23.8 7.4C23.7069 7.2758 23.5861 7.175 23.4472 7.10557C23.3084 7.03614 23.1552 7 23 7V8ZM15 7C14.7348 7 14.4804 7.10536 14.2929 7.29289C14.1054 7.48043 14 7.73478 14 8C14 8.26522 14.1054 8.51957 14.2929 8.70711C14.4804 8.89464 14.7348 9 15 9V7ZM35 11H26V13H35V11ZM26.8 11.4L23.8 7.4L22.2 8.6L25.2 12.6L26.8 11.4ZM23 7H15V9H23V7Z" fill="#06BEFB"/>
<path d="M35 12L34.2 12.6C34.2679 12.6907 34.3508 12.7691 34.445 12.832L35 12ZM41 16H42V15.465L41.555 15.168L41 16ZM41 23V24C41.2652 24 41.5196 23.8946 41.7071 23.7071C41.8946 23.5196 42 23.2652 42 23H41ZM5 24C5.26522 24 5.51957 23.8946 5.70711 23.7071C5.89464 23.5196 6 23.2652 6 23C6 22.7348 5.89464 22.4804 5.70711 22.2929C5.51957 22.1054 5.26522 22 5 22V24ZM36 22C35.7348 22 35.4804 22.1054 35.2929 22.2929C35.1054 22.4804 35 22.7348 35 23C35 23.2652 35.1054 23.5196 35.2929 23.7071C35.4804 23.8946 35.7348 24 36 24V22ZM2 4V3C1.82315 3.00014 1.64951 3.04718 1.49677 3.13631C1.34402 3.22545 1.21765 3.35349 1.13054 3.50739C1.04342 3.66129 0.998677 3.83555 1.00087 4.01238C1.00306 4.18921 1.0521 4.3623 1.143 4.514L2 4ZM3.5 6.5L4.433 6.859C4.48744 6.71726 4.50889 6.56499 4.49572 6.41373C4.48255 6.26247 4.43511 6.1162 4.357 5.986L3.5 6.5ZM1 13L0.067 12.641C0.0228197 12.7555 0.00010771 12.8772 0 13H1ZM30.6 7.8L34.2 12.6L35.8 11.4L32.2 6.6L30.6 7.8ZM40 16V23H42V16H40ZM3 24H5V22H3V24ZM41.555 15.168L35.555 11.168L34.445 12.832L40.445 16.832L41.555 15.168ZM1.143 4.514L2.643 7.015L4.357 5.986L2.857 3.485L1.143 4.514ZM2.567 6.14L0.067 12.641L1.933 13.358L4.433 6.858L2.567 6.14ZM0 21C0 21.7956 0.31607 22.5587 0.87868 23.1213C1.44129 23.6839 2.20435 24 3 24V22C2.73478 22 2.48043 21.8946 2.29289 21.7071C2.10536 21.5196 2 21.2652 2 21H0ZM32.2 6.6C31.3617 5.48224 30.2746 4.575 29.0249 3.95016C27.7752 3.32531 26.3972 3 25 3V5C26.0867 5 27.1585 5.25302 28.1305 5.73901C29.1025 6.225 29.948 6.93063 30.6 7.8L32.2 6.6ZM0 13V21H2V13H0ZM41 22H36V24H41V22ZM25 3H2V5H25V3Z" fill="#06BEFB"/>
<path d="M36 22.5C36 23.6935 35.5259 24.8381 34.682 25.682C33.8381 26.5259 32.6935 27 31.5 27C30.3065 27 29.1619 26.5259 28.318 25.682C27.4741 24.8381 27 23.6935 27 22.5C27 21.3065 27.4741 20.1619 28.318 19.318C29.1619 18.4741 30.3065 18 31.5 18C32.6935 18 33.8381 18.4741 34.682 19.318C35.5259 20.1619 36 21.3065 36 22.5ZM14 22.5C14 23.0909 13.8836 23.6761 13.6575 24.2221C13.4313 24.768 13.0998 25.2641 12.682 25.682C12.2641 26.0998 11.768 26.4313 11.2221 26.6575C10.6761 26.8836 10.0909 27 9.5 27C8.90905 27 8.32389 26.8836 7.77792 26.6575C7.23196 26.4313 6.73588 26.0998 6.31802 25.682C5.90016 25.2641 5.56869 24.768 5.34254 24.2221C5.1164 23.6761 5 23.0909 5 22.5C5 21.3065 5.47411 20.1619 6.31802 19.318C7.16193 18.4741 8.30653 18 9.5 18C10.6935 18 11.8381 18.4741 12.682 19.318C13.5259 20.1619 14 21.3065 14 22.5Z" stroke="#06BEFB" stroke-width="2"/>
</svg>
