<svg width="60" height="60" viewBox="0 0 60 60" fill="none" xmlns="http://www.w3.org/2000/svg">
<g clip-path="url(#clip0_47_92010)">
<g filter="url(#filter0_d_47_92010)">
<path d="M29.9994 55.7137C44.201 55.7137 55.7137 44.201 55.7137 29.9994C55.7137 15.7978 44.201 4.28516 29.9994 4.28516C15.7978 4.28516 4.28516 15.7978 4.28516 29.9994C4.28516 44.201 15.7978 55.7137 29.9994 55.7137Z" fill="white"/>
</g>
<path d="M35.5695 34.3347L34.875 32.1883L39.867 28.5469L40.5474 28.9433L40.6929 29.7054L36.538 32.7368L36.9114 33.8904L36.3369 34.3347H35.5695Z" fill="#FBBC04"/>
<path d="M43.8326 25.9611C43.7253 25.6133 43.5099 25.3098 43.2184 25.0958C42.927 24.8817 42.5749 24.7687 42.2148 24.7734H33.9631L31.4138 16.8958C31.3014 16.5521 31.0848 16.253 30.7949 16.041C30.5048 15.8289 30.1561 15.7148 29.7984 15.7148C29.4406 15.7148 29.092 15.8289 28.8019 16.041C28.512 16.253 28.2954 16.5521 28.183 16.8958L25.634 24.7734H17.382C17.0238 24.7717 16.6743 24.8851 16.384 25.0974C16.0937 25.3096 15.8775 25.6097 15.7666 25.9543C15.6558 26.2989 15.6559 26.6702 15.7671 27.0148C15.8783 27.3593 16.0948 27.6592 16.3853 27.8712L23.0568 32.7381L20.509 40.6113C20.3944 40.9536 20.3918 41.3242 20.5015 41.6681C20.6112 42.0121 20.8275 42.3111 21.1183 42.521C21.4071 42.7397 21.7578 42.8584 22.1184 42.8597C22.4791 42.861 22.8306 42.7448 23.1209 42.5282L28.5915 38.5371L27.3844 37.6566L22.2954 41.3691C22.2464 41.4083 22.1858 41.4296 22.1234 41.4293C22.0609 41.4291 22.0004 41.4074 21.9517 41.3679C21.9027 41.3351 21.866 41.2864 21.8477 41.2298C21.8293 41.1732 21.8304 41.1121 21.8508 41.0562L24.7196 32.1904L17.2108 26.7123C17.1611 26.6799 17.1238 26.6314 17.105 26.5747C17.0862 26.5179 17.0872 26.4564 17.1076 26.4002C17.1242 26.3406 17.1604 26.2884 17.2102 26.2523C17.2601 26.2163 17.3206 26.1985 17.3817 26.2019H26.6572L29.5245 17.3405C29.5441 17.2828 29.581 17.2327 29.6301 17.1973C29.6791 17.1618 29.7379 17.1428 29.7983 17.1428C29.8585 17.1428 29.9173 17.1618 29.9664 17.1973C30.0156 17.2327 30.0524 17.2828 30.072 17.3405L32.9393 26.2019H42.2148C42.276 26.1985 42.3366 26.2163 42.3864 26.2523C42.4362 26.2884 42.4724 26.3406 42.489 26.4002C42.5094 26.4564 42.5103 26.5179 42.4915 26.5747C42.4728 26.6314 42.4355 26.6799 42.3858 26.7123L41.8133 27.1303L42.6392 28.2888L43.2117 27.871C43.5046 27.6627 43.7232 27.3644 43.8351 27.0203C43.947 26.6762 43.9461 26.3047 43.8326 25.9611Z" fill="#BDC1C6"/>
<path d="M37.4744 42.8589C37.1159 42.8574 36.7671 42.7414 36.4777 42.5273L28.8149 36.9368L28.5938 36.7748L29.8003 35.8945L37.3034 41.3682C37.3524 41.4074 37.413 41.4287 37.4755 41.4284C37.5379 41.4282 37.5984 41.4066 37.6471 41.367C37.6962 41.3342 37.7328 41.2855 37.7511 41.229C37.7695 41.1724 37.7684 41.1112 37.748 41.0553L36.6855 37.7717L38.0272 37.3272L39.0897 40.6105C39.2043 40.9529 39.207 41.3234 39.0972 41.6674C38.9875 42.0114 38.7712 42.3104 38.4805 42.5202C38.1894 42.7388 37.8368 42.8574 37.4744 42.8589Z" fill="#4285F4"/>
<path d="M36.912 33.8906L35.5703 34.3351L36.9018 38.4499L38.2435 38.0054L36.912 33.8906Z" fill="#EA4335"/>
<path d="M42.3841 26.7109L39.8672 28.547L40.6928 29.706L43.2098 27.8699L42.3841 26.7109Z" fill="#34A853"/>
</g>
<defs>
<filter id="filter0_d_47_92010" x="-0.000557899" y="-0.000557899" width="60.0011" height="60.0011" filterUnits="userSpaceOnUse" color-interpolation-filters="sRGB">
<feFlood flood-opacity="0" result="BackgroundImageFix"/>
<feColorMatrix in="SourceAlpha" type="matrix" values="0 0 0 0 0 0 0 0 0 0 0 0 0 0 0 0 0 0 127 0" result="hardAlpha"/>
<feOffset/>
<feGaussianBlur stdDeviation="2.14286"/>
<feComposite in2="hardAlpha" operator="out"/>
<feColorMatrix type="matrix" values="0 0 0 0 0 0 0 0 0 0 0 0 0 0 0 0 0 0 0.1 0"/>
<feBlend mode="normal" in2="BackgroundImageFix" result="effect1_dropShadow_47_92010"/>
<feBlend mode="normal" in="SourceGraphic" in2="effect1_dropShadow_47_92010" result="shape"/>
</filter>
<clipPath id="clip0_47_92010">
<rect width="60" height="60" fill="white"/>
</clipPath>
</defs>
</svg>
