<svg width="20" height="20" viewBox="0 0 20 20" fill="none" xmlns="http://www.w3.org/2000/svg">
<path d="M18 0H2C0.9 0 0.00999999 0.9 0.00999999 2L0 18C0 19.1 0.9 20 2 20H18C19.1 20 20 19.1 20 18V2C20 0.9 19.1 0 18 0ZM14 7V8C14 8.55 14.45 9 15 9C15.55 9 16 9.45 16 10V13C16 14.66 14.66 16 13 16H7C5.34 16 4 14.66 4 13V6C4 4.34 5.34 3 7 3H11C12.66 3 14 4.34 14 6V7ZM7.95 8H10.55C11.1 8 11.55 7.55 11.55 7C11.55 6.45 11.1 6 10.55 6H7.95C7.4 6 6.95 6.45 6.95 7C6.95 7.55 7.4 8 7.95 8ZM12 11H7.95C7.4 11 6.95 11.45 6.95 12C6.95 12.55 7.4 13 7.95 13H12C12.55 13 13 12.55 13 12C13 11.45 12.55 11 12 11Z" fill="#202124"/>
</svg>
