<svg width="200" height="201" viewBox="0 0 200 201" fill="none" xmlns="http://www.w3.org/2000/svg">
<path d="M100.825 0.755085C108.631 0.820064 116.372 1.80544 123.893 3.67082C132.366 5.77241 140.558 8.99096 148.248 13.2687C162.982 21.465 175.385 33.2796 184.287 47.598C193.189 61.9164 198.297 78.2666 199.129 95.1063C199.564 103.895 198.826 112.666 196.962 121.194C195.307 128.764 192.766 136.142 189.371 143.172L169.208 133.244C174.743 121.72 177.314 108.992 176.683 96.2152C176.04 83.1885 172.088 70.5404 165.202 59.4641C158.315 48.3878 148.72 39.2484 137.323 32.908C126.144 26.6892 113.591 23.3641 100.807 23.2294L100.825 0.755085Z" fill="#82BD39" stroke="white" stroke-width="1.5"/>
<path d="M188.687 144.563C185.182 151.539 180.881 158.05 175.887 163.974C170.261 170.649 163.756 176.579 156.523 181.59C142.664 191.192 126.587 197.105 109.81 198.772C93.032 200.439 76.1064 197.804 60.6293 191.116C52.5515 187.625 45.0074 183.091 38.1781 177.654C32.1163 172.828 26.6178 167.29 21.8092 161.14L39.6183 147.431C47.5152 157.485 57.8006 165.412 69.5436 170.486C81.5163 175.66 94.6095 177.698 107.588 176.409C120.567 175.119 133.003 170.545 143.724 163.117C154.24 155.832 162.764 146.037 168.529 134.626L188.687 144.563Z" fill="#6339BD" stroke="white" stroke-width="1.5"/>
<mask id="path-3-inside-1_47_132678" fill="white">
<path fill-rule="evenodd" clip-rule="evenodd" d="M39.9815 146.67C39.9793 146.667 39.9771 146.664 39.9749 146.661C31.2523 135.44 25.85 121.997 24.3811 107.86C22.9119 93.7194 25.437 79.45 31.6696 66.6722C37.9023 53.8943 47.5928 43.12 59.6409 35.5727C71.689 28.0253 85.6118 24.0073 99.8287 23.9748L99.7739 0.00127778C91.646 0.0198586 83.5912 1.02882 75.7801 2.97889C65.6204 5.51534 55.8731 9.64396 46.9139 15.2563C31.0668 25.1835 18.3207 39.3552 10.1227 56.1622C1.92472 72.9691 -1.39656 91.738 0.535956 110.338C1.6285 120.853 4.37551 131.076 8.63112 140.644C11.9003 147.994 16.0598 154.957 21.0434 161.37C21.0474 161.375 21.0514 161.38 21.0554 161.385L39.9815 146.67Z"/>
</mask>
<path fill-rule="evenodd" clip-rule="evenodd" d="M39.9815 146.67C39.9793 146.667 39.9771 146.664 39.9749 146.661C31.2523 135.44 25.85 121.997 24.3811 107.86C22.9119 93.7194 25.437 79.45 31.6696 66.6722C37.9023 53.8943 47.5928 43.12 59.6409 35.5727C71.689 28.0253 85.6118 24.0073 99.8287 23.9748L99.7739 0.00127778C91.646 0.0198586 83.5912 1.02882 75.7801 2.97889C65.6204 5.51534 55.8731 9.64396 46.9139 15.2563C31.0668 25.1835 18.3207 39.3552 10.1227 56.1622C1.92472 72.9691 -1.39656 91.738 0.535956 110.338C1.6285 120.853 4.37551 131.076 8.63112 140.644C11.9003 147.994 16.0598 154.957 21.0434 161.37C21.0474 161.375 21.0514 161.38 21.0554 161.385L39.9815 146.67Z" fill="#F6C139"/>
<path d="M39.9815 146.67L40.9022 147.854L42.0867 146.933L41.1654 145.749L39.9815 146.67ZM39.9749 146.661L41.1596 145.741L41.1592 145.741L39.9749 146.661ZM24.3811 107.86L25.8731 107.705L25.8731 107.705L24.3811 107.86ZM31.6696 66.6722L30.3214 66.0145L31.6696 66.6722ZM59.6409 35.5727L60.4372 36.8439L59.6409 35.5727ZM99.8287 23.9748L99.8321 25.4748L101.332 25.4714L101.329 23.9713L99.8287 23.9748ZM99.7739 0.00127778L101.274 -0.00215139L101.27 -1.50218L99.7704 -1.49875L99.7739 0.00127778ZM75.7801 2.97889L75.4168 1.52353L75.7801 2.97889ZM46.9139 15.2563L46.1176 13.9851L46.9139 15.2563ZM10.1227 56.1622L11.4709 56.8198L10.1227 56.1622ZM0.535956 110.338L-0.956041 110.493L0.535956 110.338ZM8.63112 140.644L7.26055 141.253L8.63112 140.644ZM21.0434 161.37L19.859 162.29L19.8591 162.29L21.0434 161.37ZM21.0554 161.385L19.8713 162.306L20.7921 163.49L21.9762 162.569L21.0554 161.385ZM41.1654 145.749C41.1631 145.746 41.1613 145.744 41.1596 145.741L38.7902 147.581C38.7928 147.585 38.7954 147.588 38.7975 147.591L41.1654 145.749ZM41.1592 145.741C32.6087 134.74 27.313 121.563 25.8731 107.705L22.8891 108.015C24.387 122.431 29.8959 136.139 38.7905 147.582L41.1592 145.741ZM25.8731 107.705C24.4329 93.8433 26.9081 79.8555 33.0178 67.3298L30.3214 66.0145C23.9658 79.0445 21.3909 93.5954 22.8891 108.015L25.8731 107.705ZM33.0178 67.3298C39.1275 54.804 48.6268 44.2423 60.4372 36.8439L58.8446 34.3015C46.5588 41.9978 36.6771 52.9846 30.3214 66.0145L33.0178 67.3298ZM60.4372 36.8439C72.2476 29.4454 85.8958 25.5067 99.8321 25.4748L99.8252 22.4747C85.3279 22.5079 71.1303 26.6052 58.8446 34.3015L60.4372 36.8439ZM101.329 23.9713L101.274 -0.00215139L98.2738 0.00470694L98.3286 23.9782L101.329 23.9713ZM99.7704 -1.49875C91.5206 -1.47989 83.345 -0.455789 75.4168 1.52353L76.1435 4.43426C83.8373 2.51343 91.7713 1.51961 99.7773 1.5013L99.7704 -1.49875ZM75.4168 1.52353C65.1047 4.09802 55.2111 8.28857 46.1176 13.9851L47.7103 16.5275C56.535 10.9994 66.1361 6.93267 76.1435 4.43426L75.4168 1.52353ZM46.1176 13.9851C30.0328 24.0612 17.0954 38.4455 8.77449 55.5046L11.4709 56.8198C19.5459 40.2649 32.1009 26.3058 47.7103 16.5275L46.1176 13.9851ZM8.77449 55.5046C0.453557 72.5636 -2.91755 91.614 -0.956041 110.493L2.02795 110.183C0.124425 91.862 3.39589 73.3746 11.4709 56.8198L8.77449 55.5046ZM-0.956041 110.493C0.152891 121.166 2.94111 131.542 7.26055 141.253L10.0017 140.034C5.80991 130.61 3.10411 120.54 2.02795 110.183L-0.956041 110.493ZM7.26055 141.253C10.5788 148.714 14.8006 155.782 19.859 162.29L22.2278 160.449C17.3189 154.133 13.2218 147.274 10.0017 140.034L7.26055 141.253ZM19.8591 162.29C19.8631 162.295 19.8672 162.301 19.8713 162.306L22.2395 160.464C22.2357 160.459 22.2318 160.454 22.2277 160.449L19.8591 162.29ZM21.9762 162.569L40.9022 147.854L39.0607 145.486L20.1347 160.201L21.9762 162.569Z" fill="white" mask="url(#path-3-inside-1_47_132678)"/>
</svg>
