<svg width="64" height="64" viewBox="0 0 64 64" fill="none" xmlns="http://www.w3.org/2000/svg">
<path d="M20.0261 21.637C19.9101 21.8141 19.8453 22.0158 19.8375 22.2225C19.8297 22.4292 19.879 22.6346 19.9812 22.8188C20.3854 23.5456 20.9625 24.1752 21.668 24.6583C21.91 24.8231 22.1665 24.9682 22.4346 25.0921C22.7027 24.9682 22.9593 24.8231 23.2012 24.6583C23.9068 24.1752 24.484 23.5455 24.8881 22.8187L24.8905 22.8143C24.9995 22.6337 25.0566 22.4302 25.0566 22.2235C25.0566 22.0168 24.9996 21.8132 24.8906 21.6325L24.8893 21.6304C24.8078 21.4896 24.6873 21.371 24.5394 21.2874C24.3921 21.2042 24.2234 21.1591 24.0508 21.1573C23.8558 21.1623 23.667 21.2199 23.5068 21.3226C23.3461 21.4256 23.2214 21.5694 23.1465 21.7357L23.145 21.7392L23.0399 21.9561L20.0261 21.637ZM20.0261 21.637L20.0299 21.6304L20.0261 21.637ZM20.0261 21.637L20.0299 21.6304L20.0261 21.637ZM20.0299 21.6304C20.1115 21.4896 20.232 21.371 20.3798 21.2874C20.5271 21.2042 20.6958 21.1591 20.8685 21.1573C21.0635 21.1623 21.2523 21.2199 21.4125 21.3226C21.5732 21.4256 21.6978 21.5694 21.7727 21.7357M20.0299 21.6304L21.7727 21.7357L20.0299 21.6304ZM21.7727 21.7357L21.7744 21.7392L21.7727 21.7357ZM21.7727 21.7357L21.7744 21.7392L21.7727 21.7357ZM21.7744 21.7392L21.8793 21.9561L21.7744 21.7392ZM21.7744 21.7392L21.8793 21.9561L21.7744 21.7392ZM21.8793 21.9561C21.9312 22.0635 22.0141 22.1533 22.117 22.2157C22.2197 22.2781 22.3387 22.3109 22.4596 22.3109C22.5806 22.3109 22.6995 22.2781 22.8023 22.2157C22.9052 22.1533 22.9881 22.0634 23.0399 21.9561H21.8793ZM20.9667 25.6622L20.9682 25.6632C21.3604 25.921 21.7821 26.136 22.2252 26.3044C22.3755 26.3609 22.5433 26.361 22.6936 26.3045L22.6942 26.3043C23.1382 26.1351 23.5612 25.9202 23.9556 25.6635L23.9579 25.6619C24.8261 25.0716 25.5377 24.2983 26.0359 23.4028C26.2475 23.034 26.3547 22.619 26.3463 22.1986C26.3379 21.7781 26.2143 21.3674 25.9882 21.0065C25.7915 20.6824 25.5088 20.4135 25.1691 20.2261C24.8292 20.0383 24.4435 19.9384 24.0507 19.9355H24.0494C23.7276 19.9363 23.4096 20.0031 23.1174 20.1314C22.8715 20.2394 22.6487 20.3887 22.4596 20.5723C22.2706 20.3887 22.0477 20.2394 21.8019 20.1314C21.5097 20.0031 21.1917 19.9363 20.8699 19.9355H20.8686C20.4757 19.9384 20.0901 20.0383 19.7501 20.2261C19.4104 20.4135 19.1278 20.6824 18.9311 21.0065C18.705 21.3674 18.5814 21.7781 18.573 22.1986C18.5646 22.619 18.6717 23.034 18.8833 23.4028C19.3818 24.2998 20.0955 25.0734 20.9667 25.6622Z" fill="#213A52"/>
<path d="M20.0261 21.637C19.9101 21.8141 19.8453 22.0158 19.8375 22.2225C19.8297 22.4292 19.879 22.6346 19.9812 22.8188C20.3854 23.5456 20.9625 24.1752 21.668 24.6583C21.91 24.8231 22.1665 24.9682 22.4346 25.0921C22.7027 24.9682 22.9593 24.8231 23.2012 24.6583C23.9068 24.1752 24.484 23.5455 24.8881 22.8187L24.8905 22.8143C24.9995 22.6337 25.0566 22.4302 25.0566 22.2235C25.0566 22.0168 24.9996 21.8132 24.8906 21.6325L24.8893 21.6304C24.8078 21.4896 24.6873 21.371 24.5394 21.2874C24.3921 21.2042 24.2234 21.1591 24.0508 21.1573C23.8558 21.1623 23.667 21.2199 23.5068 21.3226C23.3461 21.4256 23.2214 21.5694 23.1465 21.7357L23.145 21.7392L23.0399 21.9561M20.0261 21.637L23.0399 21.9561M20.0261 21.637L20.0299 21.6304M23.0399 21.9561C22.9881 22.0634 22.9052 22.1533 22.8023 22.2157C22.6995 22.2781 22.5806 22.3109 22.4596 22.3109C22.3387 22.3109 22.2197 22.2781 22.117 22.2157C22.0141 22.1533 21.9312 22.0635 21.8793 21.9561M23.0399 21.9561H21.8793M20.0299 21.6304C20.1115 21.4896 20.232 21.371 20.3798 21.2874C20.5271 21.2042 20.6958 21.1591 20.8685 21.1573C21.0635 21.1623 21.2523 21.2199 21.4125 21.3226C21.5732 21.4256 21.6978 21.5694 21.7727 21.7357M20.0299 21.6304L21.7727 21.7357M21.7727 21.7357L21.7744 21.7392L21.8793 21.9561M20.9667 25.6622L20.9682 25.6632C21.3604 25.921 21.7821 26.136 22.2252 26.3044C22.3755 26.3609 22.5433 26.361 22.6936 26.3045L22.6942 26.3043C23.1382 26.1351 23.5612 25.9202 23.9556 25.6635L23.9579 25.6619C24.8261 25.0716 25.5377 24.2983 26.0359 23.4028C26.2475 23.034 26.3547 22.619 26.3463 22.1986C26.3379 21.7781 26.2143 21.3674 25.9882 21.0065C25.7915 20.6824 25.5088 20.4135 25.1691 20.2261C24.8292 20.0383 24.4435 19.9384 24.0507 19.9355H24.0494C23.7276 19.9363 23.4096 20.0031 23.1174 20.1314C22.8715 20.2394 22.6487 20.3887 22.4596 20.5723C22.2706 20.3887 22.0477 20.2394 21.8019 20.1314C21.5097 20.0031 21.1917 19.9363 20.8699 19.9355H20.8686C20.4757 19.9384 20.0901 20.0383 19.7501 20.2261C19.4104 20.4135 19.1278 20.6824 18.9311 21.0065C18.705 21.3674 18.5814 21.7781 18.573 22.1986C18.5646 22.619 18.6717 23.034 18.8833 23.4028C19.3818 24.2998 20.0955 25.0734 20.9667 25.6622Z" stroke="#213A52" stroke-width="0.278261"/>
<path d="M20.0261 30.4954C19.9101 30.6725 19.8453 30.8742 19.8375 31.0809C19.8297 31.2876 19.879 31.493 19.9812 31.6772C20.3854 32.404 20.9625 33.0337 21.668 33.5167C21.91 33.6815 22.1665 33.8266 22.4346 33.9505C22.7027 33.8266 22.9593 33.6815 23.2012 33.5167C23.9068 33.0337 24.484 32.4039 24.8881 31.6771L24.8905 31.6728C24.9995 31.4922 25.0566 31.2886 25.0566 31.0819C25.0566 30.8752 24.9996 30.6716 24.8906 30.4909L24.8893 30.4888C24.8078 30.3481 24.6873 30.2294 24.5394 30.1458C24.3921 30.0626 24.2234 30.0175 24.0508 30.0157C23.8558 30.0207 23.667 30.0783 23.5068 30.181C23.3461 30.284 23.2214 30.4278 23.1465 30.5941L23.145 30.5976L23.0399 30.8145L20.0261 30.4954ZM20.0261 30.4954L20.0299 30.4888L20.0261 30.4954ZM20.0261 30.4954L20.0299 30.4888L20.0261 30.4954ZM20.0299 30.4888C20.1115 30.3481 20.232 30.2294 20.3798 30.1458C20.5271 30.0626 20.6958 30.0175 20.8685 30.0157C21.0635 30.0207 21.2523 30.0783 21.4125 30.181C21.5732 30.284 21.6978 30.4278 21.7727 30.5941M20.0299 30.4888L21.7727 30.5941L20.0299 30.4888ZM21.7727 30.5941L21.7744 30.5976L21.7727 30.5941ZM21.7727 30.5941L21.7744 30.5976L21.7727 30.5941ZM21.7744 30.5976L21.8793 30.8145L21.7744 30.5976ZM21.7744 30.5976L21.8793 30.8145L21.7744 30.5976ZM21.8793 30.8145C21.9312 30.9219 22.0141 31.0117 22.117 31.0741C22.2197 31.1365 22.3387 31.1693 22.4596 31.1693C22.5806 31.1693 22.6995 31.1365 22.8023 31.0741C22.9052 31.0117 22.9881 30.9218 23.0399 30.8145H21.8793ZM20.9667 34.5206L20.9682 34.5216C21.3604 34.7794 21.7821 34.9945 22.2252 35.1628C22.3755 35.2193 22.5433 35.2194 22.6936 35.1629L22.6942 35.1627C23.1382 34.9935 23.5612 34.7786 23.9556 34.5219L23.9579 34.5203C24.8261 33.93 25.5377 33.1568 26.0359 32.2612C26.2475 31.8924 26.3547 31.4775 26.3463 31.057C26.3379 30.6365 26.2143 30.2259 25.9882 29.8649C25.7915 29.5408 25.5088 29.272 25.1691 29.0844C24.8292 28.8967 24.4435 28.7968 24.0507 28.794L24.0494 28.7939C23.7276 28.7948 23.4096 28.8615 23.1174 28.9898C22.8715 29.0978 22.6487 29.2472 22.4596 29.4307C22.2706 29.2472 22.0477 29.0978 21.8019 28.9898C21.5097 28.8615 21.1917 28.7948 20.8699 28.7939L20.8686 28.794C20.4757 28.7968 20.0901 28.8967 19.7501 29.0844C19.4104 29.272 19.1278 29.5408 18.9311 29.8649C18.705 30.2258 18.5814 30.6365 18.573 31.057C18.5646 31.4775 18.6717 31.8924 18.8833 32.2612C19.3818 33.1582 20.0955 33.9318 20.9667 34.5206Z" fill="#213A52"/>
<path d="M20.0261 30.4954C19.9101 30.6725 19.8453 30.8742 19.8375 31.0809C19.8297 31.2876 19.879 31.493 19.9812 31.6772C20.3854 32.404 20.9625 33.0337 21.668 33.5167C21.91 33.6815 22.1665 33.8266 22.4346 33.9505C22.7027 33.8266 22.9593 33.6815 23.2012 33.5167C23.9068 33.0337 24.484 32.4039 24.8881 31.6771L24.8905 31.6728C24.9995 31.4922 25.0566 31.2886 25.0566 31.0819C25.0566 30.8752 24.9996 30.6716 24.8906 30.4909L24.8893 30.4888C24.8078 30.3481 24.6873 30.2294 24.5394 30.1458C24.3921 30.0626 24.2234 30.0175 24.0508 30.0157C23.8558 30.0207 23.667 30.0783 23.5068 30.181C23.3461 30.284 23.2214 30.4278 23.1465 30.5941L23.145 30.5976L23.0399 30.8145M20.0261 30.4954L23.0399 30.8145M20.0261 30.4954L20.0299 30.4888M23.0399 30.8145C22.9881 30.9218 22.9052 31.0117 22.8023 31.0741C22.6995 31.1365 22.5806 31.1693 22.4596 31.1693C22.3387 31.1693 22.2197 31.1365 22.117 31.0741C22.0141 31.0117 21.9312 30.9219 21.8793 30.8145M23.0399 30.8145H21.8793M20.0299 30.4888C20.1115 30.3481 20.232 30.2294 20.3798 30.1458C20.5271 30.0626 20.6958 30.0175 20.8685 30.0157C21.0635 30.0207 21.2523 30.0783 21.4125 30.181C21.5732 30.284 21.6978 30.4278 21.7727 30.5941M20.0299 30.4888L21.7727 30.5941M21.7727 30.5941L21.7744 30.5976L21.8793 30.8145M20.9667 34.5206L20.9682 34.5216C21.3604 34.7794 21.7821 34.9945 22.2252 35.1628C22.3755 35.2193 22.5433 35.2194 22.6936 35.1629L22.6942 35.1627C23.1382 34.9935 23.5612 34.7786 23.9556 34.5219L23.9579 34.5203C24.8261 33.93 25.5377 33.1568 26.0359 32.2612C26.2475 31.8924 26.3547 31.4775 26.3463 31.057C26.3379 30.6365 26.2143 30.2259 25.9882 29.8649C25.7915 29.5408 25.5088 29.272 25.1691 29.0844C24.8292 28.8967 24.4435 28.7968 24.0507 28.794L24.0494 28.7939C23.7276 28.7948 23.4096 28.8615 23.1174 28.9898C22.8715 29.0978 22.6487 29.2472 22.4596 29.4307C22.2706 29.2472 22.0477 29.0978 21.8019 28.9898C21.5097 28.8615 21.1917 28.7948 20.8699 28.7939L20.8686 28.794C20.4757 28.7968 20.0901 28.8967 19.7501 29.0844C19.4104 29.272 19.1278 29.5408 18.9311 29.8649C18.705 30.2258 18.5814 30.6365 18.573 31.057C18.5646 31.4775 18.6717 31.8924 18.8833 32.2612C19.3818 33.1582 20.0955 33.9318 20.9667 34.5206Z" stroke="#213A52" stroke-width="0.278261"/>
<path d="M20.0261 39.3548C19.9101 39.5319 19.8453 39.7335 19.8375 39.9402C19.8297 40.1469 19.879 40.3524 19.9812 40.5365C20.3854 41.2633 20.9625 41.893 21.668 42.376C21.91 42.5409 22.1665 42.686 22.4346 42.8099C22.7027 42.686 22.9593 42.5409 23.2012 42.3761C23.9068 41.893 24.484 41.2633 24.8881 40.5364L24.8905 40.5321C24.9995 40.3514 25.0566 40.1479 25.0566 39.9412C25.0566 39.7345 24.9996 39.531 24.8906 39.3503L24.8893 39.3482C24.8078 39.2074 24.6873 39.0888 24.5394 39.0052C24.3921 38.922 24.2234 38.8769 24.0508 38.8751C23.8558 38.88 23.667 38.9377 23.5068 39.0403C23.3461 39.1434 23.2214 39.2872 23.1465 39.4535L23.145 39.457L23.0399 39.6739L20.0261 39.3548ZM20.0261 39.3548L20.0299 39.3482L20.0261 39.3548ZM20.0261 39.3548L20.0299 39.3482L20.0261 39.3548ZM20.0299 39.3482C20.1115 39.2074 20.232 39.0888 20.3798 39.0052C20.5271 38.922 20.6958 38.8769 20.8685 38.8751C21.0635 38.88 21.2523 38.9377 21.4125 39.0403C21.5732 39.1434 21.6978 39.2872 21.7727 39.4535M20.0299 39.3482L21.7727 39.4535L20.0299 39.3482ZM21.7727 39.4535L21.7744 39.457L21.7727 39.4535ZM21.7727 39.4535L21.7744 39.457L21.7727 39.4535ZM21.7744 39.457L21.8793 39.6739L21.7744 39.457ZM21.7744 39.457L21.8793 39.6739L21.7744 39.457ZM21.8793 39.6739C21.9312 39.7812 22.0141 39.871 22.117 39.9334C22.2197 39.9959 22.3387 40.0287 22.4596 40.0287C22.5806 40.0287 22.6995 39.9959 22.8023 39.9334C22.9052 39.8711 22.9881 39.7812 23.0399 39.6739H21.8793ZM20.9667 43.3799L20.9682 43.3809C21.3604 43.6388 21.7821 43.8538 22.2252 44.0222C22.3755 44.0786 22.5433 44.0788 22.6936 44.0223L22.6942 44.0221C23.1382 43.8529 23.5612 43.638 23.9556 43.3813L23.9579 43.3797C24.8261 42.7893 25.5377 42.0161 26.0359 41.1206C26.2475 40.7518 26.3547 40.3368 26.3463 39.9164C26.3379 39.4959 26.2143 39.0852 25.9882 38.7242C25.7915 38.4002 25.5088 38.1313 25.1691 37.9438C24.8292 37.7561 24.4435 37.6561 24.0507 37.6533H24.0494C23.7276 37.6541 23.4096 37.7209 23.1174 37.8492C22.8715 37.9571 22.6487 38.1065 22.4596 38.29C22.2706 38.1065 22.0477 37.9571 21.8019 37.8492C21.5097 37.7209 21.1917 37.6541 20.8699 37.6533H20.8686C20.4757 37.6561 20.0901 37.7561 19.7501 37.9438C19.4104 38.1313 19.1278 38.4002 18.9311 38.7242C18.705 39.0852 18.5814 39.4959 18.573 39.9164C18.5646 40.3368 18.6717 40.7518 18.8833 41.1206C19.3818 42.0176 20.0955 42.7911 20.9667 43.3799Z" fill="#213A52"/>
<path d="M20.0261 39.3548C19.9101 39.5319 19.8453 39.7335 19.8375 39.9402C19.8297 40.1469 19.879 40.3524 19.9812 40.5365C20.3854 41.2633 20.9625 41.893 21.668 42.376C21.91 42.5409 22.1665 42.686 22.4346 42.8099C22.7027 42.686 22.9593 42.5409 23.2012 42.3761C23.9068 41.893 24.484 41.2633 24.8881 40.5364L24.8905 40.5321C24.9995 40.3514 25.0566 40.1479 25.0566 39.9412C25.0566 39.7345 24.9996 39.531 24.8906 39.3503L24.8893 39.3482C24.8078 39.2074 24.6873 39.0888 24.5394 39.0052C24.3921 38.922 24.2234 38.8769 24.0508 38.8751C23.8558 38.88 23.667 38.9377 23.5068 39.0403C23.3461 39.1434 23.2214 39.2872 23.1465 39.4535L23.145 39.457L23.0399 39.6739M20.0261 39.3548L23.0399 39.6739M20.0261 39.3548L20.0299 39.3482M23.0399 39.6739C22.9881 39.7812 22.9052 39.8711 22.8023 39.9334C22.6995 39.9959 22.5806 40.0287 22.4596 40.0287C22.3387 40.0287 22.2197 39.9959 22.117 39.9334C22.0141 39.871 21.9312 39.7812 21.8793 39.6739M23.0399 39.6739H21.8793M20.0299 39.3482C20.1115 39.2074 20.232 39.0888 20.3798 39.0052C20.5271 38.922 20.6958 38.8769 20.8685 38.8751C21.0635 38.88 21.2523 38.9377 21.4125 39.0403C21.5732 39.1434 21.6978 39.2872 21.7727 39.4535M20.0299 39.3482L21.7727 39.4535M21.7727 39.4535L21.7744 39.457L21.8793 39.6739M20.9667 43.3799L20.9682 43.3809C21.3604 43.6388 21.7821 43.8538 22.2252 44.0222C22.3755 44.0786 22.5433 44.0788 22.6936 44.0223L22.6942 44.0221C23.1382 43.8529 23.5612 43.638 23.9556 43.3813L23.9579 43.3797C24.8261 42.7893 25.5377 42.0161 26.0359 41.1206C26.2475 40.7518 26.3547 40.3368 26.3463 39.9164C26.3379 39.4959 26.2143 39.0852 25.9882 38.7242C25.7915 38.4002 25.5088 38.1313 25.1691 37.9438C24.8292 37.7561 24.4435 37.6561 24.0507 37.6533H24.0494C23.7276 37.6541 23.4096 37.7209 23.1174 37.8492C22.8715 37.9571 22.6487 38.1065 22.4596 38.29C22.2706 38.1065 22.0477 37.9571 21.8019 37.8492C21.5097 37.7209 21.1917 37.6541 20.8699 37.6533H20.8686C20.4757 37.6561 20.0901 37.7561 19.7501 37.9438C19.4104 38.1313 19.1278 38.4002 18.9311 38.7242C18.705 39.0852 18.5814 39.4959 18.573 39.9164C18.5646 40.3368 18.6717 40.7518 18.8833 41.1206C19.3818 42.0176 20.0955 42.7911 20.9667 43.3799Z" stroke="#213A52" stroke-width="0.278261"/>
<path d="M30.6086 23.6523H43.1304" stroke="#213A52" stroke-width="2.22609" stroke-linecap="round" stroke-linejoin="round"/>
<path d="M30.6086 32H43.1304" stroke="#213A52" stroke-width="2.22609" stroke-linecap="round" stroke-linejoin="round"/>
<path d="M30.6086 40.3477H43.1304" stroke="#213A52" stroke-width="2.22609" stroke-linecap="round" stroke-linejoin="round"/>
</svg>
