<svg width="24" height="25" viewBox="0 0 24 25" fill="none" xmlns="http://www.w3.org/2000/svg">
<path d="M9.71484 17.5703H16.572" stroke="#767676" stroke-width="1.25" stroke-linecap="round" stroke-linejoin="round"/>
<path d="M9.71401 16.1412C9.71401 16.7041 9.60315 17.2614 9.38778 17.7813C9.1724 18.3013 8.85672 18.7737 8.45875 19.1717C8.06079 19.5697 7.58833 19.8854 7.06837 20.1007C6.5484 20.3161 5.9911 20.427 5.42829 20.427C4.86548 20.427 4.30819 20.3161 3.78822 20.1007C3.26825 19.8854 2.7958 19.5697 2.39784 19.1717C1.99987 18.7737 1.68419 18.3013 1.46881 17.7813C1.25343 17.2614 1.14258 16.7041 1.14258 16.1412C1.14258 15.5784 1.25343 15.0211 1.46881 14.5012C1.68419 13.9812 1.99987 13.5088 2.39784 13.1108C2.7958 12.7128 3.26825 12.3971 3.78822 12.1818C4.30819 11.9664 4.86548 11.8555 5.42829 11.8555C5.9911 11.8555 6.5484 11.9664 7.06837 12.1818C7.58833 12.3971 8.06079 12.7128 8.45875 13.1108C8.85672 13.5088 9.1724 13.9812 9.38778 14.5012C9.60315 15.0211 9.71401 15.5784 9.71401 16.1412Z" stroke="#767676" stroke-width="1.25" stroke-linecap="round" stroke-linejoin="round"/>
<path d="M22.858 17.2873C22.858 17.7 22.7767 18.1087 22.6188 18.49C22.4608 18.8714 22.2293 19.2178 21.9375 19.5097C21.6457 19.8015 21.2992 20.033 20.9179 20.1909C20.5366 20.3489 20.1279 20.4302 19.7152 20.4302C19.3024 20.4302 18.8938 20.3489 18.5124 20.1909C18.1311 20.033 17.7847 19.8015 17.4928 19.5097C17.201 19.2178 16.9695 18.8714 16.8115 18.49C16.6536 18.1087 16.5723 17.7 16.5723 17.2873C16.5723 16.8746 16.6536 16.4659 16.8115 16.0846C16.9695 15.7033 17.201 15.3568 17.4928 15.065C17.7847 14.7731 18.1311 14.5416 18.5124 14.3837C18.8938 14.2258 19.3024 14.1445 19.7152 14.1445C20.1279 14.1445 20.5366 14.2258 20.9179 14.3837C21.2992 14.5416 21.6457 14.7731 21.9375 15.065C22.2293 15.3568 22.4608 15.7033 22.6188 16.0846C22.7767 16.4659 22.858 16.8746 22.858 17.2873Z" stroke="#767676" stroke-width="1.25" stroke-linecap="round" stroke-linejoin="round"/>
<path d="M18.2859 6.14453H16.8574V9.28738" stroke="#767676" stroke-width="1.25" stroke-linecap="round" stroke-linejoin="round"/>
<path d="M3.42773 12.1446V7.28738C3.42773 6.6562 3.93941 6.14453 4.57059 6.14453H6.99916H10.8897C11.3816 6.14453 11.8184 6.4593 11.9739 6.92598L13.4277 11.2874" stroke="#767676" stroke-width="1.25" stroke-linecap="round"/>
<path d="M21.4292 14.428L20.9496 12.0302C20.8962 11.7631 20.6617 11.5709 20.3893 11.5709H10.572L9.71484 9.28516" stroke="#767676" stroke-width="1.25" stroke-linecap="round"/>
<path d="M15.4277 11.2851V9.28516H18.2849V11.2851" stroke="#767676" stroke-width="1.25" stroke-linecap="round" stroke-linejoin="round"/>
</svg>
