<svg width="14" height="16" viewBox="0 0 14 16" fill="none" xmlns="http://www.w3.org/2000/svg">
<path fill-rule="evenodd" clip-rule="evenodd" d="M6.285 11.7008C6.38114 11.7965 6.4953 11.8722 6.62086 11.9235C6.74643 11.9749 6.88093 12.0008 7.01658 11.9999C7.15224 11.999 7.28637 11.9712 7.41122 11.9181C7.53607 11.865 7.64918 11.7878 7.744 11.6908L13.681 5.77176C13.7814 5.67678 13.8614 5.56238 13.9163 5.43552C13.9711 5.30865 13.9996 5.17197 14 5.03376C13.9991 4.83226 13.939 4.63546 13.8272 4.46784C13.7153 4.30021 13.5567 4.16915 13.371 4.09095C13.1853 4.01274 12.9807 3.99084 12.7826 4.02797C12.5846 4.06509 12.4018 4.15961 12.257 4.29976L12.254 4.29576L7.028 9.48576L1.764 4.30076L1.76 4.30476C1.6168 4.15953 1.43364 4.06018 1.23381 4.01935C1.03399 3.97852 0.826534 3.99805 0.63784 4.07545C0.449146 4.15286 0.287742 4.28465 0.174161 4.45405C0.0605799 4.62345 -4.45034e-05 4.82281 2.45113e-08 5.02676C2.45113e-08 5.32476 0.13 5.58776 0.333 5.77476L6.283 11.7048L6.285 11.7008Z" fill="#0E0E0E"/>
</svg>
