<svg width="25" height="25" viewBox="0 0 25 25" fill="none" xmlns="http://www.w3.org/2000/svg">
<path fill-rule="evenodd" clip-rule="evenodd" d="M9.98793 3.15615H12.5003H15.0127V8.99379C13.96 9.76958 12.9346 9.88599 12.0357 9.73556C11.2728 9.60787 10.5615 9.27758 9.98793 8.90102V3.15615ZM8.52195 10.8441C7.32217 11.6354 6.13673 11.9452 5.03502 11.9075V21.7014H7.46559V14.5834C7.46559 13.9122 8.00968 13.3681 8.68086 13.3681H16.3198C16.9909 13.3681 17.535 13.9122 17.535 14.5834V21.7014H19.9656V11.9075C18.8831 11.9445 17.7199 11.6461 16.5417 10.8851C14.9245 12.1136 13.1989 12.3946 11.6346 12.1328C10.4296 11.9311 9.35942 11.4168 8.52195 10.8441ZM15.1045 21.7014V15.7986H9.89614V21.7014H15.1045ZM0.980973 9.87275C1.3481 10.3295 1.90001 10.8314 2.60447 11.223V22.9168C2.60447 23.5879 3.14857 24.132 3.81975 24.132H21.1808C21.8521 24.132 22.3961 23.5879 22.3961 22.9168V11.223C23.1006 10.8314 23.6525 10.3295 24.0197 9.87275C24.3178 9.50184 24.372 8.99104 24.1584 8.56581L20.556 1.3953C20.3498 0.984727 19.9296 0.725586 19.4701 0.725586H16.228H12.5003H8.77266H5.53053C5.07105 0.725586 4.65087 0.984727 4.4446 1.3953L0.84224 8.56581C0.628608 8.99104 0.68283 9.50184 0.980973 9.87275ZM7.55738 3.15615V8.54693C6.39317 9.45379 5.43147 9.56057 4.73142 9.43803C4.21554 9.34773 3.76435 9.11871 3.41473 8.85951L6.28001 3.15615H7.55738ZM17.4432 3.15615V8.54693C18.6075 9.45379 19.5692 9.56057 20.2692 9.43803C20.7851 9.34773 21.2362 9.11871 21.5859 8.85951L18.7206 3.15615H17.4432Z" fill="#0E0E0E"/>
</svg>
