<svg width="24" height="24" viewBox="0 0 24 24" fill="none" xmlns="http://www.w3.org/2000/svg">
<path d="M21.5348 20.4641L17.4754 16.4141C18.9081 14.7084 19.627 12.5154 19.4821 10.2926C19.3372 8.06972 18.3398 5.98862 16.6979 4.48329C15.0559 2.97797 12.8962 2.16466 10.6692 2.21297C8.44212 2.26129 6.31971 3.16751 4.74459 4.74264C3.16947 6.31776 2.26324 8.44016 2.21493 10.6672C2.16661 12.8942 2.97992 15.0539 4.48525 16.6959C5.99057 18.3379 8.07167 19.3353 10.2945 19.4801C12.5174 19.625 14.7103 18.9061 16.416 17.4734L20.466 21.5328C20.6094 21.6714 20.801 21.7489 21.0004 21.7489C21.1998 21.7489 21.3914 21.6714 21.5348 21.5328C21.6756 21.3906 21.7546 21.1986 21.7546 20.9984C21.7546 20.7983 21.6756 20.6063 21.5348 20.4641ZM3.75039 10.8734C3.75039 9.46424 4.16826 8.0867 4.95117 6.915C5.73407 5.7433 6.84685 4.83007 8.14877 4.29079C9.45069 3.75152 10.8833 3.61042 12.2654 3.88534C13.6475 4.16026 14.9171 4.83885 15.9135 5.8353C16.91 6.83175 17.5886 8.1013 17.8635 9.48342C18.1384 10.8655 17.9973 12.2981 17.458 13.6001C16.9188 14.902 16.0055 16.0148 14.8338 16.7977C13.6621 17.5806 12.2846 17.9984 10.8754 17.9984C8.98648 17.996 7.17565 17.2445 5.83999 15.9088C4.50433 14.5732 3.75287 12.7623 3.75039 10.8734Z" fill="white"/>
</svg>
