<svg width="190" height="127" viewBox="0 0 190 127" fill="none" xmlns="http://www.w3.org/2000/svg">
<path opacity="0.3" d="M134.105 111.727H36.7168" stroke="white" stroke-width="2.11094" stroke-miterlimit="10" stroke-linecap="round"/>
<path opacity="0.3" d="M173.152 111.727H147.805" stroke="white" stroke-width="2.11094" stroke-miterlimit="10" stroke-linecap="round"/>
<path opacity="0.3" d="M77.796 117.674H58.5337" stroke="white" stroke-width="2.11094" stroke-miterlimit="10" stroke-linecap="round"/>
<path d="M111.94 38.4084H54.9924C51.9933 38.4084 49.562 40.8397 49.562 43.8388V106.344C49.562 109.343 51.9933 111.774 54.9924 111.774H111.94C114.939 111.774 117.371 109.343 117.371 106.344V43.8388C117.371 40.8397 114.939 38.4084 111.94 38.4084Z" fill="white"/>
<path opacity="0.4" d="M49.5303 48.6676V44.2082C49.5345 42.7693 50.1079 41.3905 51.1254 40.373C52.1429 39.3555 53.5217 38.782 54.9607 38.7778H111.887C113.326 38.782 114.705 39.3555 115.723 40.373C116.74 41.3905 117.314 42.7693 117.318 44.2082V48.6676" fill="#E4E6E7"/>
<path opacity="0.3" d="M56.2695 45.5803C57.2255 45.5803 58.0005 44.8054 58.0005 43.8494C58.0005 42.8934 57.2255 42.1184 56.2695 42.1184C55.3136 42.1184 54.5386 42.8934 54.5386 43.8494C54.5386 44.8054 55.3136 45.5803 56.2695 45.5803Z" fill="white"/>
<path opacity="0.3" d="M62.3018 45.5803C63.2578 45.5803 64.0327 44.8054 64.0327 43.8494C64.0327 42.8934 63.2578 42.1184 62.3018 42.1184C61.3458 42.1184 60.5708 42.8934 60.5708 43.8494C60.5708 44.8054 61.3458 45.5803 62.3018 45.5803Z" fill="white"/>
<path opacity="0.1" d="M111.191 52.2773H56.7232C55.3737 52.2773 54.2798 53.3713 54.2798 54.7208V67.6661C54.2798 69.0155 55.3737 70.1095 56.7232 70.1095H111.191C112.54 70.1095 113.634 69.0155 113.634 67.6661V54.7208C113.634 53.3713 112.54 52.2773 111.191 52.2773Z" fill="white"/>
<path opacity="0.1" d="M72.4761 74.8909H56.7232C55.3737 74.8909 54.2798 75.9848 54.2798 77.3343V83.5299C54.2798 84.8793 55.3737 85.9733 56.7232 85.9733H72.4761C73.8255 85.9733 74.9195 84.8793 74.9195 83.5299V77.3343C74.9195 75.9848 73.8255 74.8909 72.4761 74.8909Z" fill="white"/>
<path opacity="0.1" d="M110.785 92.7019H95.0318C93.6823 92.7019 92.5884 93.7959 92.5884 95.1453V101.341C92.5884 102.69 93.6823 103.784 95.0318 103.784H110.785C112.134 103.784 113.228 102.69 113.228 101.341V95.1453C113.228 93.7959 112.134 92.7019 110.785 92.7019Z" fill="white"/>
<path opacity="0.3" d="M94.9948 75.7615H78.2393" stroke="white" stroke-width="2.11094" stroke-miterlimit="10" stroke-linecap="round"/>
<path opacity="0.3" d="M111.001 80.6062H78.2393" stroke="white" stroke-width="2.11094" stroke-miterlimit="10" stroke-linecap="round"/>
<path opacity="0.3" d="M102.911 85.4561H78.2393" stroke="white" stroke-width="2.11094" stroke-miterlimit="10" stroke-linecap="round"/>
<path opacity="0.3" d="M71.2995 93.3931H54.5439" stroke="white" stroke-width="2.11094" stroke-miterlimit="10" stroke-linecap="round"/>
<path opacity="0.3" d="M87.3057 98.2429H54.5439" stroke="white" stroke-width="2.11094" stroke-miterlimit="10" stroke-linecap="round"/>
<path opacity="0.3" d="M79.2155 103.088H54.5439" stroke="white" stroke-width="2.11094" stroke-miterlimit="10" stroke-linecap="round"/>
<path d="M117.825 52.9583V106.106C117.821 107.542 117.25 108.917 116.237 109.934C115.224 110.951 113.851 111.527 112.415 111.537H55.4201C53.9812 111.533 52.6024 110.959 51.5849 109.942C50.5674 108.924 49.9939 107.545 49.9897 106.106V43.6015C49.9939 42.1626 50.5674 40.7838 51.5849 39.7663C52.6024 38.7488 53.9812 38.1753 55.4201 38.1711H111.36" stroke="white" stroke-width="2.11094" stroke-linecap="round" stroke-linejoin="round"/>
<path opacity="0.3" d="M165.848 106.328C167.014 106.328 167.959 105.383 167.959 104.217C167.959 103.051 167.014 102.106 165.848 102.106C164.682 102.106 163.737 103.051 163.737 104.217C163.737 105.383 164.682 106.328 165.848 106.328Z" stroke="white" stroke-width="1.05547" stroke-miterlimit="10"/>
<path opacity="0.3" d="M129.118 17.0406H127.535V15.4574C127.535 15.2474 127.451 15.0461 127.303 14.8976C127.154 14.7492 126.953 14.6658 126.743 14.6658C126.533 14.6658 126.332 14.7492 126.183 14.8976C126.035 15.0461 125.951 15.2474 125.951 15.4574V17.0406H124.368C124.158 17.0406 123.957 17.124 123.809 17.2724C123.66 17.4209 123.577 17.6222 123.577 17.8322C123.577 18.0421 123.66 18.2435 123.809 18.3919C123.957 18.5404 124.158 18.6238 124.368 18.6238H125.951V20.207C125.951 20.4169 126.035 20.6183 126.183 20.7667C126.332 20.9152 126.533 20.9986 126.743 20.9986C126.953 20.9986 127.154 20.9152 127.303 20.7667C127.451 20.6183 127.535 20.4169 127.535 20.207V18.6238H129.118C129.328 18.6238 129.529 18.5404 129.678 18.3919C129.826 18.2435 129.909 18.0421 129.909 17.8322C129.909 17.6222 129.826 17.4209 129.678 17.2724C129.529 17.124 129.328 17.0406 129.118 17.0406Z" fill="white"/>
<path opacity="0.3" d="M132.305 94.0054H130.722V92.4222C130.722 92.2123 130.639 92.0109 130.49 91.8625C130.342 91.714 130.141 91.6306 129.931 91.6306C129.721 91.6306 129.519 91.714 129.371 91.8625C129.222 92.0109 129.139 92.2123 129.139 92.4222V94.0054H127.556C127.346 94.0054 127.144 94.0888 126.996 94.2373C126.848 94.3857 126.764 94.5871 126.764 94.797C126.764 95.007 126.848 95.2083 126.996 95.3568C127.144 95.5052 127.346 95.5886 127.556 95.5886H129.139V97.1718C129.139 97.3818 129.222 97.5831 129.371 97.7316C129.519 97.88 129.721 97.9634 129.931 97.9634C130.141 97.9634 130.342 97.88 130.49 97.7316C130.639 97.5831 130.722 97.3818 130.722 97.1718V95.5886H132.305C132.515 95.5886 132.717 95.5052 132.865 95.3568C133.014 95.2083 133.097 95.007 133.097 94.797C133.097 94.5871 133.014 94.3857 132.865 94.2373C132.717 94.0888 132.515 94.0054 132.305 94.0054Z" fill="white"/>
<path d="M50.0161 56.1774V43.6015C50.0202 42.1671 50.5901 40.7923 51.6019 39.7755C52.6137 38.7588 53.9858 38.1823 55.4201 38.1711H112.415C113.854 38.1753 115.233 38.7488 116.251 39.7663C117.268 40.7838 117.842 42.1626 117.846 43.6015V64.2412" stroke="white" stroke-width="2.11094" stroke-linecap="round" stroke-linejoin="round"/>
<path opacity="0.3" d="M75.5317 62.9905C75.0039 63.4443 75.1517 63.7504 75.8325 63.6765L77.0726 63.5446L77.5634 64.6898C77.8326 65.3178 78.1703 65.2861 78.3128 64.6159C78.3814 64.2781 78.5714 63.3968 78.5714 63.3968L79.8116 63.2807C80.4924 63.2174 80.5663 62.8902 79.9699 62.5472L78.9144 61.9244L79.1678 60.6895C79.3208 60.0193 79.0253 59.8504 78.5186 60.3096L77.5846 61.1645L76.5291 60.5312C75.938 60.1829 75.6847 60.4046 75.9697 61.0326L76.4974 62.1725L75.5317 62.9905Z" fill="white"/>
<path opacity="0.3" d="M81.8856 56.6839C81.3579 56.9477 81.3579 57.2485 81.9806 57.3488L83.0783 57.5335L83.2261 58.6365C83.3105 59.2434 83.6061 59.2961 83.8858 58.7526L84.4135 57.7657L85.5059 57.9663C86.1075 58.0771 86.25 57.8079 85.8173 57.3752L85.0362 56.5836L85.5639 55.602C85.8542 55.0743 85.6431 54.8473 85.0943 55.1218L84.0968 55.6178L83.3316 54.8157C82.9094 54.3724 82.6403 54.5096 82.73 55.1112L82.8936 56.2142L81.8856 56.6839Z" fill="white"/>
<path opacity="0.3" d="M88.3189 63.7345L88.7358 62.4204C88.9628 61.6974 89.3375 61.6974 89.5697 62.4204L89.9813 63.7292H91.364C92.1239 63.7292 92.24 64.0775 91.6226 64.5208L90.4985 65.323L90.9365 66.6317C91.174 67.3547 90.8732 67.5711 90.261 67.1225L89.1528 66.3045L88.0392 67.1225C87.4271 67.5711 87.1263 67.3495 87.3637 66.6317L87.8018 65.323L86.6777 64.5208C86.0602 64.0828 86.1499 63.7239 86.9363 63.7292L88.3189 63.7345Z" fill="white"/>
<path opacity="0.3" d="M133.525 88.0579C136.427 81.3393 137.9 74.0904 137.85 66.7719C137.801 59.4534 136.229 52.2252 133.236 45.5466C130.243 38.868 125.893 32.8849 120.464 27.9776C115.034 23.0703 108.643 19.346 101.697 17.0413C94.7503 14.7367 87.4005 13.902 80.1143 14.5904C72.828 15.2788 65.7646 17.4752 59.3728 21.04C52.981 24.6049 47.4006 29.4602 42.9861 35.2976C38.5715 41.135 35.4194 47.8268 33.73 54.9478" stroke="white" stroke-width="2.11094" stroke-miterlimit="10" stroke-linecap="round" stroke-dasharray="1.06 4.22"/>
<path opacity="0.7" d="M102.911 31.1787C104.077 31.1787 105.022 30.2336 105.022 29.0677C105.022 27.9019 104.077 26.9568 102.911 26.9568C101.745 26.9568 100.8 27.9019 100.8 29.0677C100.8 30.2336 101.745 31.1787 102.911 31.1787Z" stroke="white" stroke-width="1.05547" stroke-miterlimit="10"/>
<path d="M43.1816 93.0395C54.0822 93.0395 62.9189 84.2028 62.9189 73.3022C62.9189 62.4016 54.0822 53.5649 43.1816 53.5649C32.281 53.5649 23.4443 62.4016 23.4443 73.3022C23.4443 84.2028 32.281 93.0395 43.1816 93.0395Z" fill="white"/>
<path d="M44.6224 87.8889C53.34 87.8889 60.407 80.8219 60.407 72.1044C60.407 63.3868 53.34 56.3198 44.6224 56.3198C35.9049 56.3198 28.8379 63.3868 28.8379 72.1044C28.8379 80.8219 35.9049 87.8889 44.6224 87.8889Z" stroke="#81B441" stroke-width="2.11094" stroke-miterlimit="10" stroke-linecap="round"/>
<path opacity="0.22" d="M42.4484 91.1978C51.5361 91.1978 58.9032 83.8308 58.9032 74.7431C58.9032 65.6554 51.5361 58.2883 42.4484 58.2883C33.3607 58.2883 25.9937 65.6554 25.9937 74.7431C25.9937 83.8308 33.3607 91.1978 42.4484 91.1978Z" fill="#81B441"/>
<path d="M32.4845 83.7356L20.1514 96.074" stroke="#81B441" stroke-width="3.69414" stroke-miterlimit="10" stroke-linecap="round"/>
<path d="M42.828 70.1886L43.7251 67.3546C44.2159 65.7978 45.0234 65.7978 45.5194 67.3546C45.7675 68.1251 46.4113 70.1727 46.4113 70.1727H49.3877C51.0237 70.1727 51.2665 70.9274 49.9419 71.872L47.5037 73.6188L48.4431 76.4317C48.9708 77.9832 48.3059 78.4529 46.9971 77.4871L44.6117 75.7245L42.2264 77.4924C40.9123 78.4582 40.2632 77.9885 40.7804 76.4369L41.6986 73.6188L39.2816 71.8879C37.9517 70.9379 38.2261 70.1727 39.8357 70.1886H42.828Z" fill="white"/>
<path opacity="0.3" d="M36.0998 102.296H34.5166V100.713C34.5166 100.503 34.4332 100.301 34.2847 100.153C34.1363 100.005 33.9349 99.9211 33.725 99.9211C33.5151 99.9211 33.3137 100.005 33.1653 100.153C33.0168 100.301 32.9334 100.503 32.9334 100.713V102.296H31.3502C31.1402 102.296 30.9389 102.379 30.7904 102.528C30.642 102.676 30.5586 102.878 30.5586 103.088C30.5586 103.297 30.642 103.499 30.7904 103.647C30.9389 103.796 31.1402 103.879 31.3502 103.879H32.9334V105.462C32.9334 105.672 33.0168 105.874 33.1653 106.022C33.3137 106.171 33.5151 106.254 33.725 106.254C33.9349 106.254 34.1363 106.171 34.2847 106.022C34.4332 105.874 34.5166 105.672 34.5166 105.462V103.879H36.0998C36.3098 103.879 36.5111 103.796 36.6596 103.647C36.808 103.499 36.8914 103.297 36.8914 103.088C36.8914 102.878 36.808 102.676 36.6596 102.528C36.5111 102.379 36.3098 102.296 36.0998 102.296Z" fill="white"/>
</svg>
