<svg width="16" height="16" viewBox="0 0 16 16" fill="none" xmlns="http://www.w3.org/2000/svg">
<path fill-rule="evenodd" clip-rule="evenodd" d="M8.00065 1.83203C7.23145 1.83203 6.50387 2.10418 5.97581 2.57356C5.44967 3.04124 5.16732 3.66205 5.16732 4.29499V6.16536H10.834V4.29499C10.834 3.66205 10.5517 3.04124 10.0255 2.57356C9.49745 2.10418 8.76985 1.83203 8.00065 1.83203ZM11.834 6.1818V4.29499C11.834 3.35628 11.414 2.4698 10.6899 1.82616C9.96765 1.18422 8.99952 0.832031 8.00065 0.832031C7.00178 0.832031 6.03363 1.18422 5.31144 1.82616C4.58734 2.4698 4.16732 3.35628 4.16732 4.29499V6.1818C3.7708 6.24659 3.44841 6.49564 3.2306 6.8011C2.97588 7.15843 2.83398 7.62623 2.83398 8.1199V13.2108C2.83398 13.7045 2.97588 14.1723 3.2306 14.5296C3.4846 14.8858 3.88085 15.1654 4.37102 15.1654H11.6303C12.1205 15.1654 12.5167 14.8858 12.7707 14.5296C13.0255 14.1723 13.1673 13.7045 13.1673 13.2108V8.1199C13.1673 7.62623 13.0255 7.15843 12.7707 6.8011C12.5529 6.49564 12.2305 6.24659 11.834 6.1818ZM4.37102 7.16536C4.28845 7.16536 4.16618 7.2115 4.04484 7.38163C3.92424 7.55083 3.83398 7.81023 3.83398 8.1199V13.2108C3.83398 13.5205 3.92424 13.7799 4.04484 13.9491C4.16618 14.1192 4.28845 14.1654 4.37102 14.1654H11.6303C11.7129 14.1654 11.8351 14.1192 11.9565 13.9491C12.0771 13.7799 12.1673 13.5205 12.1673 13.2108V8.1199C12.1673 7.81023 12.0771 7.55083 11.9565 7.38163C11.8351 7.2115 11.7129 7.16536 11.6303 7.16536H4.37102Z" fill="#3D4047"/>
</svg>
