<svg width="22" height="22" viewBox="0 0 22 22" fill="none" xmlns="http://www.w3.org/2000/svg">
<g clip-path="url(#clip0_47_80388)">
<path fill-rule="evenodd" clip-rule="evenodd" d="M10.5217 0.257812C4.73478 0.257812 0 4.99259 0 10.7795C0 16.5665 4.73478 21.3013 10.5217 21.3013C16.3087 21.3013 21.0435 16.5665 21.0435 10.7795C21.0435 4.99259 16.3087 0.257812 10.5217 0.257812ZM15.1688 8.49988V8.76293C15.1688 11.8318 12.8891 15.339 8.59277 15.339C7.27755 15.339 6.05002 14.9883 5.08553 14.2868C6.31306 14.4622 7.5406 14.1115 8.50508 13.3223C7.45291 13.3223 6.66378 12.6209 6.31306 11.7441C6.66378 11.8318 7.01451 11.8318 7.36524 11.7441C6.31306 11.5687 5.52393 10.6042 5.52393 9.46437C5.87466 9.63973 6.22538 9.72744 6.57611 9.72744C5.96234 9.28901 5.52393 8.58756 5.52393 7.79843C5.52393 7.36002 5.61161 7.0093 5.87466 6.65858C7.01451 8.06147 8.68045 8.93828 10.6095 9.11364C10.5217 8.8506 10.5217 8.67524 10.5217 8.49988C10.5217 7.18466 11.5739 6.22017 12.8015 6.22017C13.5029 6.22017 14.029 6.48321 14.4674 6.92162C14.9935 6.83394 16.221 6.65858 16.221 6.65858C15.8703 7.18466 15.6073 8.14915 15.1688 8.49988Z" fill="#7C7C7D"/>
</g>
<defs>
<clipPath id="clip0_47_80388">
<rect width="21.0435" height="22" fill="white"/>
</clipPath>
</defs>
</svg>
