<svg width="160" height="48" viewBox="0 0 160 48" fill="none" xmlns="http://www.w3.org/2000/svg">
<rect x="80" width="80" height="48" fill="white"/>
<path d="M106.501 24.1999C106.501 23.7892 106.659 23.3954 106.94 23.105C107.221 22.8146 107.603 22.6515 108.001 22.6515L128.386 22.6515L126.436 20.6541C126.153 20.3625 125.995 19.9671 125.995 19.5547C125.995 19.1424 126.153 18.7469 126.436 18.4554C126.718 18.1638 127.101 18 127.501 18C127.9 18 128.283 18.1638 128.566 18.4554L133.066 23.1005C133.274 23.3183 133.415 23.5948 133.471 23.8951C133.527 24.1955 133.496 24.5063 133.381 24.7883C133.268 25.071 133.077 25.3131 132.832 25.4839C132.586 25.6548 132.297 25.7467 132.001 25.7483L108.001 25.7483C107.603 25.7483 107.221 25.5851 106.94 25.2948C106.659 25.0044 106.501 24.6105 106.501 24.1999Z" fill="#393D46"/>
<path d="M126 28.8483C125.999 28.6445 126.036 28.4425 126.111 28.2539C126.186 28.0652 126.296 27.8936 126.435 27.749L130.935 23.1038C131.217 22.8122 131.6 22.6484 132 22.6484C132.198 22.6484 132.393 22.6887 132.576 22.7668C132.759 22.8449 132.925 22.9594 133.065 23.1038C133.205 23.2482 133.316 23.4196 133.391 23.6082C133.467 23.7968 133.506 23.999 133.506 24.2032C133.506 24.6155 133.347 25.0109 133.065 25.3025L128.565 29.9477C128.425 30.0928 128.259 30.208 128.077 30.2866C127.894 30.3652 127.698 30.4057 127.5 30.4057C127.302 30.4057 127.106 30.3652 126.923 30.2866C126.74 30.208 126.574 30.0928 126.435 29.9477C126.296 29.803 126.186 29.6314 126.111 29.4428C126.036 29.2541 125.999 29.0521 126 28.8483Z" fill="#393D46"/>
<rect width="80" height="48" fill="white"/>
<path d="M53.4993 24.1999C53.4993 23.7892 53.3412 23.3954 53.0599 23.105C52.7786 22.8146 52.3971 22.6515 51.9993 22.6515L31.6142 22.6515L33.5642 20.6541C33.8467 20.3625 34.0054 19.9671 34.0054 19.5547C34.0054 19.1424 33.8467 18.7469 33.5642 18.4554C33.2818 18.1638 32.8987 18 32.4992 18C32.0998 18 31.7167 18.1638 31.4342 18.4554L26.9342 23.1005C26.7261 23.3183 26.5851 23.5948 26.529 23.8951C26.473 24.1955 26.5044 24.5063 26.6192 24.7883C26.7318 25.071 26.9229 25.3131 27.1684 25.4839C27.414 25.6548 27.7031 25.7467 27.9992 25.7483L51.9993 25.7483C52.3971 25.7483 52.7786 25.5851 53.0599 25.2948C53.3412 25.0044 53.4993 24.6105 53.4993 24.1999Z" fill="#CDCFD1"/>
<path d="M34.0003 28.8483C34.0014 28.6445 33.9636 28.4425 33.8889 28.2539C33.8143 28.0652 33.7043 27.8936 33.5653 27.749L29.0653 23.1038C28.7828 22.8122 28.3997 22.6484 28.0003 22.6484C27.8025 22.6484 27.6066 22.6887 27.4239 22.7668C27.2412 22.8449 27.0751 22.9594 26.9353 23.1038C26.7954 23.2482 26.6845 23.4196 26.6088 23.6082C26.5331 23.7968 26.4941 23.999 26.4941 24.2032C26.4941 24.6155 26.6528 25.0109 26.9353 25.3025L31.4353 29.9477C31.5747 30.0928 31.7406 30.208 31.9234 30.2866C32.1062 30.3652 32.3023 30.4057 32.5003 30.4057C32.6983 30.4057 32.8944 30.3652 33.0771 30.2866C33.2599 30.208 33.4258 30.0928 33.5653 29.9477C33.7043 29.803 33.8143 29.6314 33.8889 29.4427C33.9636 29.2541 34.0014 29.0521 34.0003 28.8483Z" fill="#CDCFD1"/>
</svg>
