<svg width="20" height="18" viewBox="0 0 20 18" fill="none" xmlns="http://www.w3.org/2000/svg">
<path fill-rule="evenodd" clip-rule="evenodd" d="M17.9003 5.40918C17.8249 7.03141 16.6754 9.25251 14.4518 12.0719C12.153 15.0166 10.2079 16.4892 8.61692 16.4892C7.63154 16.4892 6.7972 15.5927 6.11594 13.7989C5.66114 12.1548 5.20617 10.5108 4.7512 8.8668C4.24532 7.07397 3.70274 6.17646 3.12246 6.17646C2.99594 6.17646 2.55331 6.43893 1.79543 6.96149L1 5.95133C1.83434 5.2288 2.65754 4.50626 3.46754 3.78254C4.58029 2.83487 5.41583 2.33647 5.9728 2.28613C7.28869 2.16149 8.09869 3.04802 8.4028 4.94573C8.73109 6.99308 8.95857 8.26654 9.08611 8.76512C9.46566 10.4637 9.88274 11.3122 10.3389 11.3122C10.6927 11.3122 11.2242 10.7611 11.9332 9.6594C12.641 8.55738 13.0206 7.71898 13.0717 7.14288C13.1726 6.19183 12.7931 5.71521 11.9332 5.71521C11.5283 5.71521 11.111 5.80709 10.6817 5.98849C11.5127 3.30592 13.1005 2.00306 15.4437 2.07721C17.1813 2.12754 18.0002 3.2382 17.9003 5.40918Z" fill="white"/>
</svg>
