<svg width="28" height="30" viewBox="0 0 28 30" fill="none" xmlns="http://www.w3.org/2000/svg">
<g clip-path="url(#clip0_47_16491)">
<path fill-rule="evenodd" clip-rule="evenodd" d="M26.6631 16.9292V23.8786C26.9158 24.1303 27.1164 24.4293 27.2535 24.7585C27.3905 25.0878 27.4613 25.4408 27.4618 25.7975V29.1985H0.746977V25.8027C0.747465 25.446 0.818254 25.093 0.955296 24.7637C1.09234 24.4345 1.29294 24.1354 1.54564 23.8838V17.1003C1.06627 16.7521 0.676662 16.2947 0.409012 15.7661C0.141361 15.2375 0.00335448 14.6527 0.00639689 14.0602V13.0914C0.00505061 12.5044 0.141847 11.9252 0.405729 11.4008L2.76127 6.68863C3.01231 6.18932 3.39776 5.77001 3.87421 5.4779C4.35066 5.1858 4.8992 5.03251 5.45806 5.03529H22.5402C23.0995 5.02997 23.6491 5.18221 24.126 5.47459C24.6029 5.76698 24.9879 6.1877 25.2369 6.68863L27.5966 11.4008C27.86 11.9254 27.9968 12.5044 27.996 13.0914V14.0602C28.0006 14.6073 27.8834 15.1487 27.6528 15.6449C27.4223 16.1411 27.0842 16.5798 26.6631 16.9292Z" fill="#3C3C3C"/>
<path fill-rule="evenodd" clip-rule="evenodd" d="M26.6631 16.9287V19.5322H1.54564V17.0999C1.06627 16.7516 0.676662 16.2943 0.409012 15.7656C0.141361 15.237 0.00335448 14.6523 0.00639689 14.0598V13.091C0.00457913 12.5535 0.121456 12.0223 0.348682 11.5352H27.6703C27.8829 12.0264 27.993 12.5558 27.9939 13.091V14.0598C27.9988 14.6067 27.8819 15.148 27.6517 15.6442C27.4215 16.1404 27.0839 16.5792 26.6631 16.9287Z" fill="#4B4B4B"/>
<path fill-rule="evenodd" clip-rule="evenodd" d="M3.80713 11.4004H24.4033V25.7069H3.80713V11.4004Z" fill="#E3AE26"/>
<path fill-rule="evenodd" clip-rule="evenodd" d="M24.4033 21.5277V25.7077H3.80713V16.3789L24.4033 21.5277Z" fill="#FDE049"/>
<path fill-rule="evenodd" clip-rule="evenodd" d="M3.80713 24.2266H24.4033V25.7077H3.80713V24.2266Z" fill="#FF9701"/>
<path fill-rule="evenodd" clip-rule="evenodd" d="M5.93457 17.0059V22.4202H14.5041V17.0059H5.93457Z" fill="#C86815"/>
<path fill-rule="evenodd" clip-rule="evenodd" d="M6.3335 17.3848V22.0398H14.1231V17.3848H6.3335Z" fill="#7FB6C9"/>
<path fill-rule="evenodd" clip-rule="evenodd" d="M6.67578 22.0398H14.1231V17.8027H6.67578V22.0398Z" fill="#A2D9EB"/>
<path fill-rule="evenodd" clip-rule="evenodd" d="M8.87989 17.803L11.7489 22.04H9.22114L6.67578 18.2552V17.7988L8.87989 17.803ZM11.7489 17.803H10.0385L12.8888 22.04H14.1231V21.2995L11.7489 17.803Z" fill="#CFF3FF"/>
<path fill-rule="evenodd" clip-rule="evenodd" d="M5.53613 21.9648H14.9023V22.4399C14.9015 22.5957 14.8393 22.7449 14.7292 22.8552C14.6191 22.9655 14.47 23.028 14.3142 23.029H6.12631C5.9705 23.028 5.82138 22.9655 5.7113 22.8552C5.60121 22.7449 5.53902 22.5957 5.53821 22.4399L5.53613 21.9648Z" fill="#FF9701"/>
<path fill-rule="evenodd" clip-rule="evenodd" d="M22.0852 25.3275H16.6128V17.0059H22.0852V25.3275Z" fill="#C86815"/>
<path fill-rule="evenodd" clip-rule="evenodd" d="M21.6855 25.3268V17.3848H17.0117V25.3268H21.6855Z" fill="#7FB6C9"/>
<path fill-rule="evenodd" clip-rule="evenodd" d="M21.6855 17.8027H17.354V25.3268H21.6855V17.8027Z" fill="#A2D9EB"/>
<path fill-rule="evenodd" clip-rule="evenodd" d="M21.6845 25.3268V24.2055L17.3521 17.8027V21.5264L19.9213 25.3268H21.6845ZM20.2221 17.8027H18.5127L21.6845 22.5149V19.9882L20.2221 17.8027Z" fill="#CFF3FF"/>
<path fill-rule="evenodd" clip-rule="evenodd" d="M3.5033 25.3086H24.7073C24.8354 25.3173 24.956 25.3721 25.0467 25.4629C25.1375 25.5537 25.1923 25.6742 25.2011 25.8023V26.9433H3.00439V25.8023C3.01055 25.6725 3.06524 25.5497 3.15763 25.4582C3.25003 25.3668 3.3734 25.3134 3.5033 25.3086Z" fill="#BDD6DE"/>
<path fill-rule="evenodd" clip-rule="evenodd" d="M3.5033 25.3088H24.7073C24.8356 25.3068 24.9595 25.3556 25.052 25.4446C25.1445 25.5336 25.1981 25.6555 25.2011 25.7838H3.00439C3.00587 25.7198 3.01996 25.6568 3.04585 25.5982C3.07174 25.5397 3.10893 25.4869 3.15527 25.4428C3.20162 25.3986 3.25621 25.3641 3.31594 25.3411C3.37566 25.3181 3.43933 25.3071 3.5033 25.3088Z" fill="white"/>
<path fill-rule="evenodd" clip-rule="evenodd" d="M25.7297 13.0905V14.0593C25.7297 16.3412 21.1119 16.3588 21.1119 14.0593V12.7296H16.2909V14.0593C16.2909 16.3412 11.7115 16.3588 11.7115 14.0593V12.7296H6.88428V14.0593C6.88428 16.3412 2.26758 16.3588 2.26758 14.0593V13.0905C2.2679 12.8521 2.32666 12.6174 2.43872 12.407L4.77767 7.69487C4.8433 7.57142 4.942 7.46867 5.06273 7.39814C5.18345 7.32761 5.32143 7.29208 5.4612 7.29554H22.5402C22.6805 7.28978 22.8195 7.32433 22.9409 7.3951C23.0622 7.46586 23.1607 7.56989 23.2248 7.69487L25.5803 12.407C25.6856 12.6191 25.7369 12.8539 25.7297 13.0905Z" fill="#C86815"/>
<path fill-rule="evenodd" clip-rule="evenodd" d="M22.5404 7.29554H5.45939C5.31996 7.29247 5.18243 7.32818 5.0621 7.39869C4.94178 7.4692 4.8434 7.57174 4.77793 7.69487L2.40268 12.4661C2.39192 12.4941 2.388 12.5242 2.39124 12.554C2.39449 12.5837 2.40482 12.6123 2.42135 12.6373C2.43944 12.6663 2.46466 12.6902 2.49462 12.7068C2.52458 12.7233 2.55828 12.7319 2.5925 12.7316H25.4291C25.4633 12.7319 25.497 12.7233 25.527 12.7068C25.557 12.6902 25.5822 12.6663 25.6003 12.6373C25.6184 12.6124 25.6282 12.5824 25.6282 12.5517C25.6282 12.5209 25.6184 12.491 25.6003 12.4661L23.225 7.69487C23.161 7.56989 23.0624 7.46586 22.9411 7.3951C22.8198 7.32433 22.6808 7.28978 22.5404 7.29554Z" fill="#FF9701"/>
<path fill-rule="evenodd" clip-rule="evenodd" d="M16.2913 12.7309V14.0606C16.2913 16.3425 21.1165 16.3602 21.1165 14.0606V12.7309L19.4632 7.29688H15.9096L16.2913 12.7309ZM11.712 12.7309V14.0606C11.712 16.3425 6.88574 16.3602 6.88574 14.0606V12.7309L8.55671 7.29688H12.1103L11.712 12.7309Z" fill="#BDD6DE"/>
<path fill-rule="evenodd" clip-rule="evenodd" d="M8.55629 7.29688H12.1098L11.7105 12.7309H6.88428L8.55629 7.29688ZM19.4627 7.29688H15.9092L16.2909 12.7309H21.1161L19.4627 7.29688Z" fill="white"/>
<path fill-rule="evenodd" clip-rule="evenodd" d="M6.46646 3.07904C6.67391 2.09056 6.84713 1.90075 7.85324 1.71094C7.89161 1.69123 7.94866 1.65389 7.94866 1.59684C7.94456 1.56855 7.93377 1.54165 7.91717 1.51837C7.90057 1.4951 7.87865 1.47613 7.85324 1.46304C6.85231 1.27323 6.67598 1.08341 6.46646 0.0959743C6.46089 0.0695813 6.44662 0.045825 6.42593 0.0285196C6.40524 0.0112142 6.37933 0.00136363 6.35237 0.000549462C6.33857 -0.000876009 6.32464 0.000478966 6.31137 0.00453426C6.29811 0.00858955 6.2858 0.0152628 6.27516 0.0241594C6.26452 0.033056 6.25578 0.0439953 6.24944 0.0563304C6.24311 0.0686655 6.23931 0.0821458 6.23827 0.0959743C6.03083 1.08341 5.85865 1.27323 4.8515 1.46304C4.82405 1.47314 4.80033 1.49134 4.78347 1.51524C4.76661 1.53914 4.75742 1.5676 4.75711 1.59684C4.75787 1.62366 4.76757 1.64946 4.78468 1.67013C4.80178 1.6908 4.8253 1.70517 4.8515 1.71094C5.85865 1.90075 6.02979 2.09056 6.23827 3.07904C6.23944 3.09278 6.24333 3.10614 6.24973 3.11836C6.25612 3.13058 6.26488 3.14139 6.27551 3.15018C6.28613 3.15897 6.2984 3.16555 6.3116 3.16954C6.32479 3.17353 6.33865 3.17485 6.35237 3.17343C6.37919 3.17267 6.40498 3.16297 6.42566 3.14586C6.44633 3.12876 6.46069 3.10524 6.46646 3.07904ZM3.17949 7.69574C3.54045 5.93245 3.86406 5.60572 5.63046 5.24477C5.67898 5.23615 5.72284 5.21055 5.7542 5.17254C5.78556 5.13453 5.80236 5.08659 5.8016 5.03732C5.79836 4.99112 5.77975 4.94733 5.74873 4.91293C5.71772 4.87853 5.67608 4.8555 5.63046 4.84751C3.86717 4.48656 3.54045 4.16398 3.17949 2.39654C3.17257 2.35045 3.14986 2.30818 3.11524 2.27697C3.08062 2.24575 3.03624 2.22753 2.98968 2.2254C2.94041 2.22464 2.89248 2.24145 2.85447 2.2728C2.81646 2.30416 2.79085 2.34803 2.78223 2.39654C2.42128 4.15983 2.0987 4.48656 0.331266 4.84751C0.285833 4.85571 0.244434 4.87883 0.213624 4.91321C0.182813 4.94759 0.164351 4.99127 0.16116 5.03732C0.160359 5.08644 0.177017 5.13426 0.208167 5.17224C0.239318 5.21023 0.28294 5.23593 0.331266 5.24477C2.09455 5.60572 2.42128 5.9283 2.78223 7.69574C2.79085 7.74425 2.81646 7.78812 2.85447 7.81948C2.89248 7.85083 2.94041 7.86764 2.98968 7.86688C3.03588 7.86364 3.07967 7.84503 3.11407 7.81401C3.14847 7.78299 3.1715 7.74136 3.17949 7.69574Z" fill="#FFFF99"/>
</g>
<defs>
<clipPath id="clip0_47_16491">
<rect width="27.9875" height="29.2031" fill="white" transform="translate(0.00634766)"/>
</clipPath>
</defs>
</svg>
