<svg width="16" height="16" viewBox="0 0 16 16" fill="none" xmlns="http://www.w3.org/2000/svg">
<path d="M10.6667 7.33261H8.66666V3.60595L9.19333 4.13928C9.25531 4.20177 9.32904 4.25136 9.41028 4.28521C9.49152 4.31905 9.57866 4.33648 9.66666 4.33648C9.75467 4.33648 9.84181 4.31905 9.92305 4.28521C10.0043 4.25136 10.078 4.20177 10.14 4.13928C10.2025 4.0773 10.2521 4.00357 10.2859 3.92233C10.3198 3.84109 10.3372 3.75395 10.3372 3.66595C10.3372 3.57794 10.3198 3.4908 10.2859 3.40956C10.2521 3.32832 10.2025 3.25459 10.14 3.19261L8.47333 1.52595C8.40993 1.46525 8.33516 1.41768 8.25333 1.38595C8.09102 1.31927 7.90897 1.31927 7.74666 1.38595C7.66483 1.41768 7.59007 1.46525 7.52666 1.52595L5.86 3.19261C5.73446 3.31815 5.66394 3.48841 5.66394 3.66595C5.66394 3.84348 5.73446 4.01374 5.86 4.13928C5.98553 4.26482 6.1558 4.33534 6.33333 4.33534C6.51086 4.33534 6.68113 4.26482 6.80666 4.13928L7.33333 3.60595V7.33261H5.33333C5.15652 7.33261 4.98695 7.40285 4.86193 7.52788C4.7369 7.6529 4.66666 7.82247 4.66666 7.99928C4.66666 8.17609 4.7369 8.34566 4.86193 8.47068C4.98695 8.59571 5.15652 8.66595 5.33333 8.66595H7.33333V12.3926L6.80666 11.8593C6.7445 11.7971 6.67071 11.7478 6.5895 11.7142C6.50828 11.6805 6.42124 11.6632 6.33333 11.6632C6.24542 11.6632 6.15838 11.6805 6.07716 11.7142C5.99595 11.7478 5.92216 11.7971 5.86 11.8593C5.79784 11.9214 5.74853 11.9952 5.71489 12.0764C5.68125 12.1577 5.66394 12.2447 5.66394 12.3326C5.66394 12.4205 5.68125 12.5076 5.71489 12.5888C5.74853 12.67 5.79784 12.7438 5.86 12.8059L7.52666 14.4726C7.59007 14.5333 7.66483 14.5809 7.74666 14.6126C7.82646 14.6479 7.91275 14.6661 8 14.6661C8.08724 14.6661 8.17353 14.6479 8.25333 14.6126C8.33516 14.5809 8.40993 14.5333 8.47333 14.4726L10.14 12.8059C10.2655 12.6804 10.3361 12.5101 10.3361 12.3326C10.3361 12.1551 10.2655 11.9848 10.14 11.8593C10.0145 11.7337 9.8442 11.6632 9.66666 11.6632C9.48913 11.6632 9.31887 11.7337 9.19333 11.8593L8.66666 12.3926V8.66595H10.6667C10.8435 8.66595 11.013 8.59571 11.1381 8.47068C11.2631 8.34566 11.3333 8.17609 11.3333 7.99928C11.3333 7.82247 11.2631 7.6529 11.1381 7.52788C11.013 7.40285 10.8435 7.33261 10.6667 7.33261Z" fill="#C5D0E6"/>
</svg>
