<svg width="312" height="312" viewBox="0 0 312 312" fill="none" xmlns="http://www.w3.org/2000/svg">
<g clip-path="url(#clip0_47_70632)">
<path d="M184.08 279.971V280.018H187.426V279.971C220.094 279.091 251.128 265.496 273.923 242.079C296.717 218.662 309.472 187.273 309.473 154.594H61.9631C61.964 187.285 74.7287 218.684 97.5384 242.103C120.348 265.521 151.4 279.109 184.08 279.971Z" fill="#004182"/>
<path d="M48.8047 78.8594H124.714C127.191 78.8594 129.644 79.3472 131.932 80.295C134.22 81.2429 136.299 82.6321 138.051 84.3835C139.802 86.1348 141.191 88.214 142.139 90.5022C143.087 92.7905 143.575 95.243 143.575 97.7198V159.613H29.9443V97.7198C29.9443 92.7177 31.9314 87.9205 35.4684 84.3835C39.0054 80.8464 43.8026 78.8594 48.8047 78.8594Z" fill="#6FA9DC"/>
<path d="M162.365 78.8594H238.274C243.277 78.8594 248.074 80.8464 251.611 84.3835C255.148 87.9205 257.135 92.7177 257.135 97.7198V159.613H143.52V97.7198C143.52 92.7204 145.505 87.9255 149.039 84.389C152.572 80.8524 157.365 78.8635 162.365 78.8594Z" fill="#6FA9DC"/>
<path d="M286.369 126.219V169.119C286.369 172.985 284.833 176.693 282.099 179.427C279.365 182.161 275.657 183.697 271.791 183.697H15.3582C11.4959 183.697 7.79142 182.164 5.05815 179.435C2.32488 176.707 0.786229 173.005 0.780029 169.142V126.242C0.780029 122.376 2.31594 118.668 5.04988 115.934C7.78383 113.2 11.4918 111.664 15.3582 111.664C19.2246 111.664 22.9326 113.2 25.6666 115.934C28.4005 118.668 29.9364 122.376 29.9364 126.242V159.634H257.213V126.219C257.213 122.352 258.749 118.644 261.483 115.91C264.217 113.177 267.925 111.641 271.791 111.641C275.657 111.641 279.365 113.177 282.099 115.91C284.833 118.644 286.369 122.352 286.369 126.219Z" fill="#6FA9DC"/>
<path d="M257.065 159.611V158.051C257.065 154.654 255.716 151.395 253.314 148.992C250.912 146.589 247.655 145.238 244.257 145.236H42.7519C39.3544 145.238 36.0968 146.589 33.6951 148.992C31.2935 151.395 29.9443 154.654 29.9443 158.051V159.611V126.22M143.505 92.5703V145.205" stroke="#1B4481" stroke-width="0.5694" stroke-miterlimit="10"/>
<path d="M257.065 126.227V159.611H29.9443" stroke="#1B4481" stroke-width="0.5694" stroke-miterlimit="10"/>
<path d="M32.7055 183.719L24.7651 213.016H28.7353L40.9267 183.719M254.304 183.719L262.236 213.016H258.266L246.082 183.719" fill="#0D2135"/>
<path d="M74.8255 103.569L92.6875 79.1629L84.0841 71.1289L70.2859 86.8459" fill="#FBF8F6"/>
<path d="M127.678 128.261C127.678 128.261 131.095 130.344 133.918 129.041C137.262 127.383 140.251 125.088 142.717 122.286C142.966 121.988 143.301 121.774 143.677 121.672C144.052 121.57 144.449 121.586 144.816 121.716C145.182 121.847 145.499 122.087 145.725 122.404C145.951 122.72 146.074 123.099 146.078 123.487C146.052 125.115 145.58 126.704 144.713 128.082L135.353 143.292C135.149 143.628 134.87 143.912 134.539 144.124C134.207 144.335 133.831 144.468 133.44 144.512C133.049 144.555 132.654 144.509 132.284 144.376C131.913 144.243 131.579 144.027 131.305 143.744L126.672 139.002C125.383 137.497 123.713 136.368 121.836 135.733L124.231 126.233L127.678 128.261Z" fill="white"/>
<path d="M74.2327 135.277L90.6985 116.221L122.413 136.049L133.177 118.733L99.3253 97.673C84.6535 88.313 68.7259 107.275 65.2237 110.512C61.7215 113.749 56.8855 117.781 56.8855 117.781L74.2327 135.277Z" fill="#394450"/>
<path d="M44.2495 142.27C60.1615 147.262 70.8709 144.454 77.4541 129.322C84.0373 114.19 88.3741 103.582 88.3741 103.582L93.0541 129.322L113.498 122.926L106.673 96.2262C102.461 79.7214 79.8877 77.592 72.6493 93.0048L66.6511 105.797L64.1707 116.717H48.3055L44.2495 142.27Z" fill="#57697B"/>
<path d="M76.8534 46.1836C76.8528 45.8915 76.8711 45.5997 76.908 45.31C76.9053 45.602 76.8871 45.8936 76.8534 46.1836ZM76.908 45.31L60.7932 48.8044L52.0416 50.6998C50.9434 48.4172 50.5341 45.8641 50.8638 43.3526C51.1935 40.8412 52.2479 38.4802 53.898 36.5584C54.171 36.2854 54.4362 36.0046 54.678 35.7004C56.5355 33.8866 58.8905 32.6662 61.4435 32.1945C63.9965 31.7227 66.6322 32.0209 69.0152 33.051C71.3983 34.0812 73.4212 35.7968 74.8266 37.9797C76.2321 40.1626 76.9566 42.7142 76.908 45.31Z" fill="#DE9885"/>
<path d="M77.7505 51.7748C77.5633 53.1476 75.7537 52.5938 75.6055 54.965C75.1531 59.1692 74.8801 59.2784 70.4341 60.2144C68.7493 60.5654 67.9069 62.0084 67.5091 63.6698C67.1391 65.6975 67.118 67.7736 67.4467 69.8084C67.9374 71.8339 68.7065 73.7817 69.7321 75.596C64.7011 75.8612 62.4079 71.9534 59.3815 68.732L50.8639 67.601L50.6221 67.4606C51.5079 66.6454 52.3416 65.7753 53.1181 64.8554C57.3145 59.8166 55.1539 57.188 52.0651 50.7608C52.0633 50.7426 52.0633 50.7244 52.0651 50.7062L76.9081 45.3086C76.8712 45.5983 76.8529 45.8901 76.8535 46.1822V46.2212C76.7989 48.9746 77.9065 50.5502 77.7505 51.7748Z" fill="#DE9885"/>
<path d="M52.0651 50.7616V50.707C52.0633 50.7252 52.0633 50.7435 52.0651 50.7616Z" fill="#DE9885"/>
<path d="M71.1906 95.7747C64.7322 107.217 64.1706 116.687 64.1706 116.687C54.9354 123.707 62.478 131.195 44.226 142.271C28.7742 137.591 31.8162 121.39 37.3542 108.099C42.8922 94.8075 37.5102 89.0667 40.3182 78.9267C43.1262 68.7867 49.842 67.6947 53.0946 64.8867L55.4892 65.7213L67.4232 69.8397C67.9139 71.8653 68.683 73.813 69.7086 75.6273C72.4074 80.9625 75.816 87.5691 71.1906 95.7747Z" fill="#FBF8F6"/>
<path d="M77.766 95.6261L92.82 92.3579C93.5632 92.1627 94.2395 91.7694 94.7766 91.2199C95.3138 90.6704 95.6916 89.9853 95.8698 89.2379C96.5484 86.4845 97.7574 85.1507 99.918 84.2303L101.759 83.4503C101.844 83.4142 101.937 83.4022 102.029 83.4153C102.12 83.4285 102.207 83.4665 102.278 83.5252C102.35 83.5838 102.404 83.6609 102.434 83.748C102.465 83.8352 102.472 83.9291 102.453 84.0197C102.302 84.6049 102.004 85.1419 101.587 85.5797L103.537 84.3629C103.796 84.1975 104.11 84.1408 104.411 84.205C104.712 84.2692 104.975 84.4492 105.144 84.7061C105.232 84.8347 105.293 84.9794 105.323 85.1318C105.354 85.2843 105.355 85.4413 105.324 85.5939C105.294 85.7464 105.233 85.8913 105.146 86.0201C105.059 86.1489 104.947 86.259 104.816 86.3441L104.231 86.7263C105.316 87.0149 105.245 88.8869 104.481 89.2379C105.511 89.1677 105.838 91.1333 105.035 91.4999C105.308 91.5706 105.553 91.7227 105.737 91.9359C105.921 92.1492 106.036 92.4135 106.067 92.6938C106.097 92.9741 106.042 93.257 105.908 93.5049C105.773 93.7528 105.567 93.954 105.316 94.0817L101.603 96.4217C99.6606 97.8413 98.8572 96.3125 96.1428 97.5215C93.2334 98.8241 76.6428 107.42 76.6428 107.42L77.766 95.6261Z" fill="#DE9885"/>
<path d="M75.2855 38.7577C75.2855 38.9215 75.2231 39.0931 75.1841 39.2491C74.2559 42.9931 70.9409 45.1303 70.0361 41.7919C70.0361 41.7919 69.1002 46.4251 66.6432 46.8073L60.5903 48.2347C60.6683 48.4297 60.7307 48.6169 60.7931 48.8041C62.4389 53.7649 59.5763 55.2001 57.6731 54.8959C62.8679 63.0625 57.3065 66.3931 53.1257 64.8565C52.5371 65.9013 51.7407 66.8144 50.7857 67.5397C47.5487 69.9655 43.3133 69.0997 40.9421 65.1997C31.2155 67.5397 30.1235 53.6245 40.0061 51.8071C40.9889 42.3067 47.5487 45.7231 53.9213 36.5347C54.1669 36.2359 54.4273 35.9496 54.7013 35.6767C56.144 34.2698 57.8923 33.2153 59.8097 32.5953C61.7271 31.9754 63.7618 31.8068 65.755 32.1028C67.7483 32.3988 69.6462 33.1513 71.3008 34.3016C72.9553 35.4519 74.3217 36.9689 75.2933 38.7343L75.2855 38.7577Z" fill="#BF7461"/>
<path d="M63.5467 50.3415C65.2742 50.3415 66.6745 48.9412 66.6745 47.2137C66.6745 45.4863 65.2742 44.0859 63.5467 44.0859C61.8193 44.0859 60.4189 45.4863 60.4189 47.2137C60.4189 48.9412 61.8193 50.3415 63.5467 50.3415Z" fill="#DE9885"/>
<path d="M77.7659 95.6289V111.588L64.1939 116.689L54.1787 120.254V101.307L77.7659 95.6289Z" fill="#FBF8F6"/>
<path d="M102.492 130.408C102.492 130.408 102.492 134.401 105.089 136.109C108.253 138.084 111.767 139.429 115.44 140.072C115.828 140.125 116.189 140.296 116.475 140.563C116.761 140.829 116.958 141.178 117.038 141.561C117.119 141.943 117.079 142.342 116.924 142.701C116.769 143.06 116.507 143.362 116.173 143.566C114.771 144.393 113.168 144.82 111.54 144.799H93.7093C93.3164 144.799 92.9287 144.709 92.5756 144.537C92.2226 144.364 91.9136 144.114 91.6721 143.804C91.4307 143.494 91.2631 143.133 91.1822 142.748C91.1014 142.364 91.1093 141.966 91.2055 141.585L92.8279 135.15C93.4343 133.266 93.5205 131.253 93.0775 129.323L102.437 126.398L102.492 130.408Z" fill="white"/>
<path d="M90.5815 77.2906L93.9355 72.2206C94.7155 71.1208 97.0165 70.2472 98.1631 69.6856C98.8335 69.4173 99.4676 69.0662 100.051 68.6404L100.948 62.767L95.7607 62.2756C95.1757 62.221 94.3879 61.8778 94.4191 61.2148" fill="#DE9885"/>
<path d="M94.8525 50.0742L102.639 50.7513L101.291 66.2538L93.5044 65.5767L94.8525 50.0742Z" fill="#F4FBFE"/>
<path d="M101.299 66.254L93.5142 65.5754L94.4814 54.1562L102.352 54.125L101.299 66.254Z" fill="#F4BA64"/>
<path d="M92.8668 71.0748C94.3128 70.0022 95.3566 68.4749 95.8308 66.738C96.4158 64.0704 94.4424 62.5104 94.419 61.2312L94.497 60.2796L94.6062 59.1096L95.2536 58.5714C95.4126 58.4371 95.521 58.2526 95.5607 58.0483C95.6004 57.844 95.5691 57.6323 95.472 57.4482C95.412 57.3327 95.3275 57.2316 95.2245 57.1521C95.1215 57.0725 95.0024 57.0162 94.8755 56.9873C94.7486 56.9584 94.6169 56.9574 94.4896 56.9844C94.3623 57.0115 94.2424 57.0659 94.1382 57.144L93.0774 57.924C92.8119 58.1143 92.6193 58.3894 92.5314 58.704L91.4004 63.1812L84.084 71.1294L90.5814 77.2914L92.8668 71.0748Z" fill="#DE9885"/>
<path d="M101.837 61.0273H100.051C99.5036 61.0273 99.0601 61.4708 99.0601 62.0179V62.1349C99.0601 62.682 99.5036 63.1255 100.051 63.1255H101.837C102.384 63.1255 102.827 62.682 102.827 62.1349V62.0179C102.827 61.4708 102.384 61.0273 101.837 61.0273Z" fill="#DE9885"/>
<path d="M101.476 62.974L100.112 63.1275C99.5682 63.1887 99.177 63.679 99.2382 64.2227L99.2513 64.3389C99.3125 64.8826 99.8028 65.2737 100.346 65.2126L101.711 65.0591C102.254 64.9979 102.645 64.5076 102.584 63.9639L102.571 63.8476C102.51 63.304 102.02 62.9128 101.476 62.974Z" fill="#DE9885"/>
<path d="M100.597 65.0798L99.8608 65.1627C99.3172 65.2238 98.9261 65.7142 98.9872 66.2578L99.0003 66.3741C99.0615 66.9178 99.5518 67.3089 100.095 67.2477L100.832 67.1649C101.375 67.1037 101.767 66.6134 101.705 66.0697L101.692 65.9534C101.631 65.4098 101.141 65.0186 100.597 65.0798Z" fill="#DE9885"/>
<path d="M99.936 66.8257L99.4304 66.9227C98.8931 67.0258 98.5411 67.5449 98.6442 68.0822L98.6662 68.1971C98.7693 68.7344 99.2884 69.0864 99.8257 68.9834L100.331 68.8864C100.869 68.7833 101.221 68.2642 101.117 67.7269L101.095 67.612C100.992 67.0747 100.473 66.7227 99.936 66.8257Z" fill="#DE9885"/>
<path d="M202.075 77.1183L188.76 99.3951L169.627 92.1021C169.627 92.1021 166.663 87.8667 163.004 87.0945C162.277 86.9168 161.573 86.655 160.906 86.3145L158.473 85.1445C158.254 85.0234 157.997 84.9941 157.757 85.0628C157.517 85.1316 157.314 85.2928 157.193 85.5111C157.072 85.7293 157.043 85.9867 157.112 86.2266C157.18 86.4665 157.342 86.6692 157.56 86.7903L160.118 88.3503C160.118 88.3503 160.633 92.0319 151.164 88.9119C151.164 88.9119 149.971 88.5609 150.384 90.1989C150.468 90.6702 150.656 91.117 150.934 91.5069C151.211 91.8967 151.573 92.2199 151.991 92.4531L154.027 93.4827C155.506 94.24 157.08 94.7961 158.707 95.1363C160.805 95.5575 163.683 95.9163 165.922 95.4405L183.206 107.733C185.663 109.902 191.786 113.232 196.03 109.574C195.928 109.683 196.131 109.48 196.03 109.574L198.604 106.883C199.157 106.345 199.742 105.768 200.343 105.167L201.7 103.607C208.822 96.2517 217.573 85.5813 215.28 78.6471C211.583 67.3293 202.075 77.1183 202.075 77.1183Z" fill="#955646"/>
<path d="M188.76 99.3944L196.045 109.534C196.045 109.534 208.073 97.2338 209.742 94.9094C214.57 88.1858 217.394 83.849 216.848 80.222C216.302 76.595 212.94 66.806 201.965 77.219L188.76 99.3944Z" fill="#381710"/>
<path d="M257.954 164.141L253.001 162.137L250.661 169.859C251.806 170.211 252.831 170.872 253.625 171.77L258.734 175.288L262.727 166.201L257.954 164.141Z" fill="#0D2135"/>
<path d="M266.76 167.967L261.23 184.799C260.744 186.339 259.843 187.716 258.625 188.777C258.252 189.098 257.766 189.258 257.275 189.222C256.877 189.192 256.499 189.033 256.199 188.769L256.012 188.59C255.829 188.378 255.695 188.128 255.62 187.858C255.544 187.589 255.529 187.306 255.575 187.03C256.862 179.745 253.648 171.796 253.648 171.796C255.676 171.016 256.62 170.712 256.62 170.712C261.136 167.639 257.946 164.168 257.946 164.168L264.521 164.628C265.102 164.67 265.652 164.906 266.081 165.299C266.436 165.633 266.688 166.062 266.809 166.534C266.929 167.007 266.912 167.503 266.76 167.967Z" fill="white"/>
<path d="M266.76 167.964L261.23 184.797C260.744 186.337 259.843 187.714 258.625 188.775C258.252 189.096 257.766 189.256 257.275 189.219C262.883 183.986 259.311 172.301 266.074 165.281C266.433 165.616 266.688 166.047 266.81 166.522C266.931 166.998 266.914 167.498 266.76 167.964Z" fill="#57697B"/>
<path d="M201.646 140.211L254.233 162.527L246.792 181.325L194.735 158.393L201.646 140.211Z" fill="#EFB7A8"/>
<path d="M232.939 49.1379C232.941 51.6618 232.207 54.1314 230.826 56.2437L230.724 56.3997C229.533 58.1611 227.93 59.6048 226.054 60.6054C224.178 61.6059 222.086 62.1329 219.96 62.1405C218.253 62.1415 216.562 61.8059 214.984 61.1527C213.407 60.4995 211.973 59.5417 210.766 58.3339C209.559 57.1262 208.602 55.6924 207.95 54.1144C207.298 52.5364 206.963 50.8453 206.965 49.1379V48.6153C207.006 48.3022 207.029 47.9871 207.036 47.6715C207.381 44.3507 208.992 41.2905 211.534 39.1261C214.076 36.9617 217.354 35.8594 220.687 36.0481C224.02 36.2368 227.153 37.702 229.434 40.1394C231.716 42.5769 232.971 45.7994 232.939 49.1379Z" fill="#955646"/>
<path d="M228.969 59.0287C225.724 63.8725 224.64 66.2983 230.022 72.9361L229.765 73.0375H211.544C211.544 73.0375 212.753 69.2545 211.903 66.4933C211.65 65.5414 211.037 64.7248 210.194 64.2157C209.785 63.9727 209.399 63.6934 209.04 63.3811C208.397 62.8204 207.902 62.1107 207.597 61.3141C207.55 61.1971 207.511 61.0801 207.472 60.9631L207.386 60.6667C207.386 60.5887 207.347 60.5029 207.324 60.4171C207.301 60.3313 207.277 60.1987 207.262 60.0895V59.9803C207.262 59.8711 207.262 59.7775 207.223 59.6683C207.184 59.5591 207.223 59.4109 207.176 59.2705C207.129 59.1301 207.176 58.9975 207.176 58.8571V57.3829C207.223 56.9406 207.162 56.4933 206.996 56.0803C206.552 55.0741 205.483 55.0039 205.483 53.9665C205.483 52.7341 206.77 51.3379 207.09 48.6469C207.13 48.3338 207.154 48.0188 207.16 47.7031L216.84 51.2131L222.721 53.3269L230.786 56.2441L230.677 56.4001C230.053 57.3517 229.468 58.2175 228.93 59.0131L228.969 59.0287Z" fill="#955646"/>
<path d="M232.939 49.1411C232.941 51.665 232.207 54.1346 230.826 56.2469L230.716 56.4029C230.092 57.3545 229.507 58.2203 228.969 59.0159L228.29 59.0861C225.287 59.3357 222.152 58.4855 222.752 53.3297C222.807 52.9085 222.877 52.4639 222.979 51.9803L216.879 50.8493C214.913 50.5061 215.553 46.3877 217.347 45.6233C214.726 46.3175 214.313 43.9931 214.313 43.9931C211.677 45.6935 209.251 43.6343 209.251 43.6343L208.471 43.0805L206.521 41.7155C206.015 41.3024 205.635 40.7565 205.423 40.1392C205.211 39.5219 205.175 38.8577 205.32 38.2211C205.383 37.8702 205.523 37.5374 205.729 37.2464C205.936 36.9553 206.203 36.7129 206.513 36.5363C206.881 36.3716 207.28 36.2866 207.683 36.2867C208.336 36.2655 208.989 36.3471 209.617 36.5285C208.369 34.0169 212.339 33.4631 214.422 34.5005C213.845 32.4491 217.87 32.5037 219.102 34.1027C221.52 31.3025 225.007 36.6611 227.604 38.6579C229.258 39.8595 230.604 41.4361 231.532 43.2583C232.459 45.0805 232.941 47.0965 232.939 49.1411Z" fill="#61382D"/>
<path d="M219.952 54.4119C221.667 54.4119 223.057 53.022 223.057 51.3075C223.057 49.593 221.667 48.2031 219.952 48.2031C218.238 48.2031 216.848 49.593 216.848 51.3075C216.848 53.022 218.238 54.4119 219.952 54.4119Z" fill="#955646"/>
<path d="M182.465 154.438L206.099 202.712L225.521 190.607L205.686 148.892L231.098 144.587C240.388 142.489 243.493 132.887 243.493 132.887L237.12 118.316L193.034 130.796C190.655 131.465 188.452 132.648 186.581 134.263C184.711 135.878 183.218 137.884 182.21 140.141C181.201 142.397 180.701 144.847 180.745 147.318C180.79 149.789 181.377 152.22 182.465 154.438Z" fill="#F9D4C8"/>
<path d="M224.975 69.3008L211.903 69.7298L201.965 90.0098C194.119 109.837 196.599 129.673 196.599 129.673L218.096 126.303C230.272 124.923 234.398 131.592 243.493 132.902C255.263 102.615 239.343 79.823 236.285 75.0884C233.228 70.3538 224.975 69.3008 224.975 69.3008Z" fill="#381710"/>
<path d="M223.228 114.411L197.621 125.167L191.381 124.145C190.773 124.046 190.149 124.105 189.571 124.319C188.992 124.532 188.479 124.891 188.081 125.362L185.25 128.701C185.092 128.885 184.976 129.103 184.911 129.337C184.846 129.572 184.834 129.818 184.876 130.058C184.911 130.276 184.988 130.484 185.104 130.672C185.22 130.86 185.372 131.023 185.551 131.152C185.73 131.281 185.932 131.373 186.147 131.424C186.362 131.474 186.584 131.482 186.802 131.446L209.656 127.694L226.816 125.066C229.151 124.71 231.313 123.625 232.994 121.966C234.675 120.308 235.789 118.16 236.176 115.831L238.352 102.727L222.557 106.034L223.228 114.411Z" fill="#955646"/>
<path d="M227.901 195.383L225.522 190.602L218.681 194.868C219.305 195.89 219.634 197.064 219.633 198.261L221.138 204.283L230.139 200.102L227.901 195.383Z" fill="#0D2135"/>
<path d="M231.996 204.088L216.715 213.05C215.333 213.888 213.745 214.325 212.129 214.313C211.635 214.306 211.164 214.105 210.819 213.752C210.54 213.468 210.362 213.101 210.312 212.707V212.449C210.311 212.166 210.375 211.886 210.498 211.631C210.621 211.376 210.8 211.151 211.021 210.975C216.809 206.357 219.656 198.277 219.656 198.277C221.715 199.018 222.597 199.423 222.597 199.423C228.057 200.117 227.932 195.398 227.932 195.398L232.549 200.078C232.824 200.356 233.031 200.693 233.155 201.063C233.28 201.433 233.318 201.826 233.267 202.213C233.215 202.6 233.076 202.97 232.86 203.295C232.644 203.62 232.356 203.891 232.019 204.088H231.996Z" fill="white"/>
<path d="M231.995 204.086L216.715 213.048C215.333 213.886 213.745 214.324 212.129 214.312C211.635 214.305 211.164 214.103 210.818 213.75C218.486 213.532 223.548 202.409 233.259 201.621C233.306 202.11 233.212 202.602 232.988 203.039C232.764 203.475 232.42 203.839 231.995 204.086Z" fill="#57697B"/>
<path opacity="0.65" d="M216.879 50.8633V51.2299L216.528 59.3575L216.419 61.6195L216.349 63.1795C216.308 64.0748 215.924 64.9201 215.276 65.5391C214.628 66.1582 213.766 66.5032 212.87 66.5023H211.903C211.65 65.5503 211.037 64.7337 210.194 64.2247C209.785 63.9792 209.399 63.6972 209.04 63.3823C208.397 62.8216 207.902 62.1119 207.597 61.3153C207.55 61.1983 207.511 61.0813 207.472 60.9643L207.386 60.6679C207.386 60.5899 207.347 60.5041 207.324 60.4183C207.301 60.3325 207.277 60.1999 207.262 60.0907V59.9815C207.262 59.8723 207.262 59.7787 207.223 59.6695C207.184 59.5603 207.223 59.4121 207.176 59.2717C207.129 59.1313 207.176 58.9987 207.176 58.8583V57.3841C207.223 56.9417 207.162 56.4945 206.996 56.0815V55.9957C207.761 56.436 208.619 56.6874 209.5 56.7289C212.62 56.9395 216.349 55.1065 216.941 51.2689C216.84 51.1051 216.84 50.9881 216.879 50.8633Z" fill="#61382D"/>
</g>
<defs>
<clipPath id="clip0_47_70632">
<rect width="312" height="249.6" fill="white" transform="translate(0 31.1992)"/>
</clipPath>
</defs>
</svg>
