<svg width="17" height="17" viewBox="0 0 17 17" fill="none" xmlns="http://www.w3.org/2000/svg">
<path d="M16.2252 9.1957C16.0899 10.66 15.5404 12.0554 14.6409 13.2187C13.7415 14.3821 12.5293 15.2652 11.1463 15.7648C9.76321 16.2643 8.26649 16.3597 6.83124 16.0396C5.39599 15.7196 4.08156 14.9975 3.04176 13.9577C2.00195 12.9179 1.27979 11.6034 0.959762 10.1682C0.639734 8.73292 0.735081 7.2362 1.23465 5.85316C1.73421 4.47012 2.61733 3.25795 3.78067 2.3585C4.94401 1.45905 6.33945 0.90951 7.80371 0.774194C6.94643 1.93399 6.5339 3.36297 6.64116 4.80122C6.74841 6.23947 7.36832 7.59145 8.38814 8.61127C9.40796 9.63109 10.7599 10.251 12.1982 10.3583C13.6364 10.4655 15.0654 10.053 16.2252 9.1957Z" stroke="#1066E7" stroke-width="1.5" stroke-linecap="round" stroke-linejoin="round"/>
</svg>
