<svg width="16" height="16" viewBox="0 0 16 16" fill="none" xmlns="http://www.w3.org/2000/svg">
<path fill-rule="evenodd" clip-rule="evenodd" d="M12.2298 8.81714C12.3392 8.70726 12.4257 8.5768 12.4844 8.4333C12.543 8.28979 12.5727 8.13608 12.5716 7.98105C12.5706 7.82601 12.5388 7.67272 12.4782 7.53003C12.4175 7.38734 12.3292 7.25808 12.2184 7.14971L5.45379 0.364571C5.34524 0.249831 5.2145 0.158349 5.06951 0.0956783C4.92452 0.0330076 4.76831 0.000455856 4.61036 0C4.38007 0.00103188 4.15516 0.0697231 3.96359 0.197533C3.77202 0.325343 3.62224 0.506637 3.53286 0.718878C3.44348 0.931119 3.41845 1.16495 3.46088 1.3913C3.50331 1.61765 3.61133 1.82654 3.7715 1.992L3.76693 1.99543L9.69836 7.968L3.77265 13.984L3.77722 13.9886C3.61124 14.1522 3.4977 14.3616 3.45103 14.5899C3.40437 14.8183 3.42669 15.0554 3.51515 15.271C3.60362 15.4867 3.75423 15.6712 3.94783 15.801C4.14143 15.9308 4.36927 16.0001 4.60236 16C4.94293 16 5.2435 15.8514 5.45722 15.6194L12.2344 8.81943L12.2298 8.81714Z" fill="#0E0E0E"/>
</svg>
