<svg width="30" height="30" viewBox="0 0 30 30" fill="none" xmlns="http://www.w3.org/2000/svg">
<g clip-path="url(#clip0_47_51497)">
<path d="M24.5625 4.21875C24.5625 4.21875 27.75 18.5625 24.6562 20.8125C21.5625 23.0625 18.75 24.75 18.75 24.75L15.4687 23.0625L15.0938 17.25L24.5625 4.21875Z" fill="#422F28"/>
<path d="M20.9062 8.53125C23.3915 8.53125 25.4062 6.60048 25.4062 4.21875C25.4062 1.83702 23.3915 -0.09375 20.9062 -0.09375C18.421 -0.09375 16.4062 1.83702 16.4062 4.21875C16.4062 6.60048 18.421 8.53125 20.9062 8.53125Z" fill="#422F28"/>
<path d="M19.3125 10.0312C21.7978 10.0312 23.8125 8.10048 23.8125 5.71875C23.8125 3.33702 21.7978 1.40625 19.3125 1.40625C16.8272 1.40625 14.8125 3.33702 14.8125 5.71875C14.8125 8.10048 16.8272 10.0312 19.3125 10.0312Z" fill="#893E27"/>
<path d="M20.4376 18.5625C22.3126 19.2188 24.0001 20.7188 24.5626 22.875C25.1251 25.125 24.3751 27.75 22.5939 29.0625C21.4689 29.9063 20.1564 30.0937 18.7501 30.0937C15.5626 30.0937 12.4689 29.0625 9.28136 27.9375C8.25011 27.5625 7.12511 27.1875 6.28136 26.5312C5.34386 25.875 4.59386 24.8438 4.40636 23.5313C4.21886 21.8438 5.25011 20.0625 6.56261 19.2188C8.90636 17.7188 11.2501 17.1562 13.6876 17.1562C15.8439 17.1562 18.3751 17.9062 20.4376 18.5625Z" fill="#A53829"/>
<path d="M20.6251 17.3438C22.5001 18 24.1876 19.5 24.7501 21.6563C25.3126 23.9063 24.5626 26.5313 22.7814 27.8438C21.6564 28.6875 20.3439 28.875 18.9376 28.875C15.7501 28.875 12.6564 27.8438 9.46886 26.7188C8.53136 26.4375 7.50011 26.0625 6.56261 25.3125C5.62511 24.6562 4.87511 23.625 4.68761 22.3125C4.50011 20.625 5.53136 18.8438 6.84386 18C9.18761 16.5 11.5314 15.9375 13.9689 15.9375C16.1251 16.0312 18.6564 16.6875 20.6251 17.3438Z" fill="#D3624F"/>
<path d="M20.25 16.0312C22.0312 16.6875 23.625 18.1875 24.1875 20.3438C24.75 22.5938 24 25.2187 22.4062 26.5312C21.375 27.375 20.0625 27.5625 18.8437 27.5625C15.8437 27.5625 12.9375 26.5312 9.93747 25.4062C8.90622 25.0312 7.96872 24.6562 7.03122 24C6.18747 23.3438 5.43746 22.3125 5.24996 21C5.06246 19.3125 5.99997 17.5312 7.31247 16.6875C9.46872 15.1875 11.7187 14.625 14.0625 14.625C16.0312 14.625 18.375 15.375 20.25 16.0312Z" fill="#E5A98C"/>
<path d="M21.6109 23.623C22.2338 21.7023 21.6609 19.7956 20.3311 19.3643C19.0014 18.933 17.4184 20.1405 16.7954 22.0612C16.1725 23.982 16.7455 25.8887 18.0752 26.32C19.405 26.7512 20.9879 25.5438 21.6109 23.623Z" fill="#F7BFA9"/>
<path d="M23.7872 10.2717C23.8056 5.19754 19.7071 1.06926 14.633 1.05087C9.55887 1.03248 5.43058 5.13096 5.4122 10.2051C5.39381 15.2792 9.49229 19.4075 14.5664 19.4259C19.6405 19.4443 23.7688 15.3458 23.7872 10.2717Z" fill="#A67A65"/>
<path d="M23.3863 9.57236C23.4041 4.65357 19.4311 0.651657 14.5123 0.633834C9.59351 0.616011 5.5916 4.58903 5.57378 9.50781C5.55595 14.4266 9.52897 18.4285 14.4478 18.4463C19.3665 18.4642 23.3685 14.4911 23.3863 9.57236Z" fill="#E5A98C"/>
<path d="M23.2775 9.33976C23.2946 4.62809 19.5728 0.794978 14.9647 0.77828C10.3565 0.761583 6.60707 4.56762 6.58999 9.2793C6.57292 13.991 10.2947 17.8241 14.9028 17.8408C19.511 17.8575 23.2604 14.0514 23.2775 9.33976Z" fill="#E5A98C"/>
<path d="M18.7801 10.4699C18.7927 7.0009 16.0746 4.17881 12.7091 4.16661C9.34361 4.15442 6.60515 6.95674 6.59258 10.4258C6.58001 13.8948 9.29809 16.7169 12.6636 16.7291C16.0291 16.7413 18.7675 13.939 18.7801 10.4699Z" fill="#F7BFA9"/>
<path d="M15.5459 11.1135C15.5478 10.5958 15.1715 10.1747 14.7055 10.173C14.2395 10.1713 13.8603 10.5897 13.8584 11.1074C13.8565 11.6252 14.2327 12.0463 14.6987 12.048C15.1647 12.0497 15.544 11.6313 15.5459 11.1135Z" fill="#425763"/>
<path d="M14.9864 10.8021C14.9869 10.6468 14.9034 10.5206 14.7999 10.5202C14.6963 10.5198 14.6119 10.6455 14.6114 10.8008C14.6108 10.9561 14.6943 11.0823 14.7979 11.0827C14.9014 11.0831 14.9858 10.9575 14.9864 10.8021Z" fill="white"/>
<path d="M8.91355 9.6526C8.91543 9.13483 8.53919 8.71373 8.0732 8.71204C7.60721 8.71035 7.22793 9.12872 7.22605 9.64648C7.22418 10.1643 7.60042 10.5854 8.06641 10.587C8.5324 10.5887 8.91168 10.1704 8.91355 9.6526Z" fill="#425763"/>
<path d="M8.44731 9.3412C8.44787 9.18587 8.36438 9.05965 8.26083 9.05927C8.15727 9.0589 8.07287 9.18451 8.07231 9.33984C8.07175 9.49517 8.15524 9.6214 8.25879 9.62177C8.36234 9.62215 8.44674 9.49653 8.44731 9.3412Z" fill="white"/>
<path d="M12.8437 15.2812C12.8437 15.2812 12 15.1875 11.4375 14.7187C10.875 14.25 10.3125 14.3438 10.125 14.3438C10.0312 14.3438 9.84375 14.1562 9.65625 14.0625C9.46875 13.9688 9.1875 13.9688 9.1875 14.0625C9.1875 14.1562 9.46875 14.625 9.46875 14.625C9.46875 14.625 9.5625 15 9.46875 15.1875C9.375 15.375 9.46875 16.0313 10.125 16.125C10.7812 16.2188 11.25 16.2188 11.5312 16.0313C11.7187 15.9375 12.8437 15.2812 12.8437 15.2812Z" fill="#A67A65"/>
<path d="M9 3.84284C9 3.84284 9.1875 6.56159 12.75 6.84284C16.4062 7.12409 22.7812 8.71784 23.4375 10.7803C23.4375 10.7803 24.9375 5.90534 20.5312 2.62409C16.125 -0.657161 9.5625 -0.469661 9 3.84284Z" fill="#422F28"/>
<path d="M10.875 3.375L10.2187 2.71875C10.2187 2.71875 8.53124 1.3125 7.12499 1.875C5.71874 2.4375 4.40624 7.21875 10.125 6.5625L11.4375 6.46875C11.4375 6.46875 11.4375 3.75 10.875 3.375ZM19.2187 13.5938C19.2187 13.5938 19.875 12.4688 21.375 12.4688C22.875 12.4688 24.0937 11.25 23.5312 8.53125C22.9687 5.8125 19.7812 5.53125 19.7812 5.53125L20.25 9.1875L19.2187 13.5938Z" fill="#422F28"/>
<path d="M20.625 13.7813C21.4017 13.7813 22.0312 12.9838 22.0312 12C22.0312 11.0162 21.4017 10.2188 20.625 10.2188C19.8483 10.2188 19.2188 11.0162 19.2188 12C19.2188 12.9838 19.8483 13.7813 20.625 13.7813Z" fill="#E5A98C"/>
<path d="M18.5627 7.87501C18.5627 7.87501 19.7814 9.00001 18.7502 11.5313C17.7189 13.9688 19.2189 17.5313 19.2189 17.5313C19.2189 17.5313 18.9377 14.625 19.5002 13.875C20.0627 13.125 22.2189 9.37501 21.0939 7.50001C19.9689 5.62501 18.5627 7.87501 18.5627 7.87501Z" fill="#422F28"/>
<path d="M19.875 14.3428L20.0625 13.8741C20.0625 13.8741 21.75 13.4053 22.0312 12.5616C21.9375 12.4678 22.0312 14.6241 19.875 14.3428Z" fill="#A67A65"/>
<path d="M4.96875 21.6554C4.96875 21.6554 6.09375 20.4367 7.5 20.7179C8.90625 20.9992 9.65625 22.5929 10.6875 23.9054C11.7187 25.2179 13.5 23.7179 13.875 23.5304C14.25 23.3429 15.6562 22.5929 17.8125 23.5304C19.875 24.4679 21 28.1242 21 28.1242C21 28.1242 14.7188 28.0304 10.9687 26.9054C7.21875 25.7804 5.34375 23.1554 4.96875 21.6554Z" fill="#D3624F"/>
<path d="M8.43743 23.4366C8.62493 23.7178 8.71868 23.9053 8.81243 24.1866C8.90618 24.4678 8.81243 24.7491 8.53118 24.9366C8.15618 25.2178 7.68743 25.0303 7.31243 24.8428C6.65618 24.5616 5.15618 23.4366 5.81243 22.4991C6.56243 21.4678 7.96868 22.7803 8.43743 23.4366ZM16.7812 25.9678C16.9687 26.2491 17.0624 26.4366 17.1562 26.7178C17.2499 26.9991 17.1562 27.2803 16.8749 27.4678C16.4999 27.7491 16.0312 27.5616 15.6562 27.3741C14.9062 26.9991 13.4999 25.8741 14.1562 24.9366C14.9999 23.9991 16.3124 25.3116 16.7812 25.9678Z" fill="#E27364"/>
<path d="M9.09375 21.6562C9.09375 21.6562 10.6875 23.5312 11.625 23.5312C12.5625 23.5312 14.3438 22.125 16.125 22.3125C17.9063 22.5 20.8125 24.0938 21.75 26.8125L20.625 27.4687C20.625 27.4687 18.8438 23.9062 16.125 23.5312C16.125 23.5312 15 23.5313 13.5 24.0938C12 24.6563 10.9688 25.5 9.09375 21.6562Z" fill="#A53829"/>
<path d="M21.9375 7.31237C21.75 6.09362 20.7188 5.24987 19.875 4.49987C19.3125 4.03112 18.6563 3.56237 18 3.18737C16.9688 2.62487 15.75 2.43737 14.625 2.24987C13.9688 2.15612 13.3125 2.06237 12.75 2.43737C12.4688 2.62487 12.2813 2.99987 12 3.28112C11.625 3.65612 11.1563 3.74987 10.5938 3.84362C10.125 3.84362 9.5625 3.74987 9.09375 3.65612C9 3.84362 9.09375 4.21862 9.375 4.31237C9.5625 4.40612 9.84375 4.40612 10.125 4.40612C11.7188 4.31237 13.3125 4.31237 14.9062 4.59362C17.1562 5.06237 19.3125 6.18737 21.2813 7.31237" fill="#513C36"/>
</g>
<defs>
<clipPath id="clip0_47_51497">
<rect width="30" height="30" fill="white"/>
</clipPath>
</defs>
</svg>
