<svg width="17" height="17" viewBox="0 0 17 17" fill="none" xmlns="http://www.w3.org/2000/svg">
<path d="M7.30772 1.82693C7.30772 1.98838 7.17176 2.12434 7.01031 2.12434H6.05011C4.21468 2.12434 2.71915 3.61987 2.71915 5.4553V13.2983C2.71915 13.4598 2.58319 13.5958 2.42174 13.5958H1.82693C0.815745 13.5958 0 12.78 0 11.7688V1.82693C0 0.815745 0.815745 0 1.82693 0H5.48079C6.49197 0 7.30772 0.815745 7.30772 1.82693Z" fill="#CAC3AA"/>
<path d="M16.9947 1.82693V11.7688C16.9947 12.78 16.1789 13.5958 15.1678 13.5958H14.6324C14.471 13.5958 14.335 13.4598 14.335 13.2983V5.4553C14.335 3.61987 12.8395 2.12434 11.0041 2.12434H9.98438C9.82293 2.12434 9.68697 1.98838 9.68697 1.82693C9.68697 0.815745 10.5027 0 11.5139 0H15.1678C16.1789 0 16.9947 0.815745 16.9947 1.82693Z" fill="#CAC3AA"/>
<path d="M11.0054 3.40159H6.05144C4.91279 3.40159 3.99508 4.31931 3.99508 5.45795V14.941C3.99508 16.0796 4.91279 16.9973 6.05144 16.9973H7.4365C7.67443 16.9973 7.86137 16.8104 7.86137 16.5725V14.4481C7.86137 14.0998 8.15028 13.8108 8.49867 13.8108C8.84706 13.8108 9.13597 14.0998 9.13597 14.4481V16.5725C9.13597 16.8104 9.32291 16.9973 9.56084 16.9973H11.0139C12.144 16.9973 13.0617 16.0796 13.0617 14.9495V5.45795C13.0617 4.31931 12.144 3.40159 11.0054 3.40159ZM10.1981 10.8368H6.7992C6.45081 10.8368 6.1619 10.5479 6.1619 10.1995C6.1619 9.85108 6.45081 9.56217 6.7992 9.56217H10.1981C10.5465 9.56217 10.8354 9.85108 10.8354 10.1995C10.8354 10.5479 10.5465 10.8368 10.1981 10.8368ZM10.1981 8.28757H6.7992C6.45081 8.28757 6.1619 7.99866 6.1619 7.65027C6.1619 7.30187 6.45081 7.01296 6.7992 7.01296H10.1981C10.5465 7.01296 10.8354 7.30187 10.8354 7.65027C10.8354 7.99866 10.5465 8.28757 10.1981 8.28757Z" fill="#CAC3AA"/>
</svg>
