<svg width="22" height="22" viewBox="0 0 22 22" fill="none" xmlns="http://www.w3.org/2000/svg">
<path d="M1.91909 13.8757C1.79262 13.469 1.36046 13.2419 0.953851 13.3684C0.547238 13.4949 0.320142 13.9271 0.446617 14.3337L1.91909 13.8757ZM8.76997 21.8714C9.18721 21.9565 9.59442 21.6872 9.6795 21.27C9.76458 20.8527 9.49532 20.4455 9.07808 20.3604L8.76997 21.8714ZM0.446617 14.3337C1.6291 18.1353 4.81057 21.064 8.76997 21.8714L9.07808 20.3604C5.67668 19.6668 2.93662 17.147 1.91909 13.8757L0.446617 14.3337Z" fill="white"/>
<path d="M0.00396068 9.92538C-0.0388264 10.3491 0.269943 10.7272 0.693617 10.77C1.11729 10.8128 1.49543 10.504 1.53822 10.0803L0.00396068 9.92538ZM20.462 10.0805C20.5049 10.5041 20.8831 10.8128 21.3067 10.77C21.7304 10.7271 22.0391 10.3489 21.9963 9.92522L20.462 10.0805ZM1.53822 10.0803C2.02309 5.27918 6.07404 1.54206 11.0001 1.54206V0C5.27566 0 0.567696 4.34329 0.00396068 9.92538L1.53822 10.0803ZM11.0001 1.54206C15.9256 1.54206 19.9772 5.28889 20.462 10.0805L21.9963 9.92522C21.4325 4.35415 16.7252 0 11.0001 0V1.54206Z" fill="white"/>
<path d="M12.9121 20.3706C12.4949 20.4559 12.2258 20.8633 12.3111 21.2805C12.3964 21.6977 12.8038 21.9667 13.221 21.8814L12.9121 20.3706ZM21.5425 14.3894C21.6715 13.9835 21.447 13.55 21.0412 13.421C20.6354 13.2921 20.2018 13.5165 20.0729 13.9223L21.5425 14.3894ZM13.221 21.8814C17.1678 21.0743 20.3382 18.1789 21.5425 14.3894L20.0729 13.9223C19.036 17.1852 16.3055 19.6767 12.9121 20.3706L13.221 21.8814Z" fill="white"/>
</svg>
