<svg width="103" height="136" viewBox="0 0 103 136" fill="none" xmlns="http://www.w3.org/2000/svg">
<path fill-rule="evenodd" clip-rule="evenodd" d="M63.2419 22.1664L62.412 20.7263C61.7099 19.5078 60.154 19.0874 58.9337 19.7866V19.7866C58.3529 20.1288 57.6598 20.2258 57.0073 20.0564C56.3548 19.887 55.7965 19.465 55.4555 18.8835C55.2361 18.5138 55.1182 18.0928 55.1137 17.663V17.663C55.1335 16.9739 54.8736 16.3062 54.393 15.8119C53.9125 15.3175 53.2524 15.0388 52.563 15.0391H50.891C50.2156 15.0391 49.5681 15.3082 49.0917 15.7869C48.6153 16.2656 48.3492 16.9144 48.3525 17.5898V17.5898C48.3325 18.9842 47.1963 20.104 45.8018 20.1039C45.372 20.0994 44.951 19.9816 44.5813 19.7622V19.7622C43.3611 19.063 41.8052 19.4834 41.1031 20.7019L40.2121 22.1664C39.5109 23.3835 39.9255 24.9384 41.1397 25.6447V25.6447C41.9289 26.1003 42.415 26.9424 42.415 27.8537C42.415 28.765 41.9289 29.6071 41.1397 30.0627V30.0627C39.9271 30.7642 39.512 32.3154 40.2121 33.5288V33.5288L41.0542 34.9811C41.3832 35.5747 41.9351 36.0127 42.5879 36.1982C43.2407 36.3837 43.9405 36.3015 44.5325 35.9696V35.9696C45.1144 35.6301 45.8079 35.537 46.4588 35.7112C47.1097 35.8854 47.664 36.3124 47.9986 36.8972C48.2179 37.2668 48.3358 37.6878 48.3403 38.1176V38.1176C48.3403 39.5264 49.4823 40.6684 50.891 40.6684H52.563C53.967 40.6684 55.107 39.5338 55.1137 38.1298V38.1298C55.1105 37.4523 55.3782 36.8017 55.8572 36.3226C56.3363 35.8435 56.987 35.5758 57.6645 35.5791C58.0932 35.5906 58.5125 35.708 58.8849 35.9208V35.9208C60.1019 36.6221 61.6569 36.2074 62.3632 34.9933V34.9933L63.2419 33.5288C63.582 32.945 63.6754 32.2496 63.5013 31.5968C63.3272 30.9439 62.9 30.3874 62.3143 30.0505V30.0505C61.7287 29.7136 61.3015 29.1571 61.1274 28.5042C60.9533 27.8514 61.0467 27.1561 61.3868 26.5722C61.608 26.1861 61.9282 25.8659 62.3143 25.6447V25.6447C63.5212 24.9388 63.9349 23.393 63.2419 22.1787V22.1787V22.1664Z" stroke="#384455" stroke-width="1.5" stroke-linecap="round" stroke-linejoin="round"/>
<ellipse opacity="0.4" cx="51.7326" cy="27.8508" rx="3.51487" ry="3.51487" stroke="#384455" stroke-width="1.5" stroke-linecap="round" stroke-linejoin="round"/>
<path opacity="0.4" d="M55.5216 101.853V100.609C55.5216 97.8953 53.3216 95.6953 50.6083 95.6953H44.1083C41.3963 95.6953 39.1963 97.8953 39.1963 100.609V115.449C39.1963 118.162 41.3963 120.362 44.1083 120.362H50.6216C53.327 120.362 55.5216 118.169 55.5216 115.463V114.206" stroke="#384455" stroke-width="1.5" stroke-linecap="round" stroke-linejoin="round"/>
<path d="M64.5801 108.026H48.5254" stroke="#384455" stroke-width="1.5" stroke-linecap="round" stroke-linejoin="round"/>
<path d="M60.6748 104.141L64.5788 108.027L60.6748 111.915" stroke="#384455" stroke-width="1.5" stroke-linecap="round" stroke-linejoin="round"/>
</svg>
