<svg width="135" height="34" viewBox="0 0 135 34" fill="none" xmlns="http://www.w3.org/2000/svg">
<g clip-path="url(#clip0_47_70317)">
<path fill-rule="evenodd" clip-rule="evenodd" d="M132.556 0H103.794C102.418 0 101.25 1.08804 101.25 2.42839V31.32C101.25 32.662 102.017 33.75 103.392 33.75H132.154C133.531 33.75 135 32.662 135 31.32V2.42839C135 1.08804 133.933 0 132.556 0ZM114.107 12.8571H118.651V15.173H118.7C119.393 13.9243 121.439 12.6562 123.969 12.6562C128.824 12.6562 130.179 15.2341 130.179 20.0089V28.9286H125.357V20.888C125.357 18.7505 124.504 16.875 122.508 16.875C120.084 16.875 118.929 18.5159 118.929 21.2095V28.9286H114.107V12.8571ZM106.071 28.9286H110.893V12.8571H106.071V28.9286ZM111.496 7.23214C111.496 8.89714 110.147 10.2455 108.482 10.2455C106.817 10.2455 105.469 8.89714 105.469 7.23214C105.469 5.56714 106.817 4.21875 108.482 4.21875C110.147 4.21875 111.496 5.56714 111.496 7.23214Z" fill="#0A66C2"/>
<path d="M96.4285 28.9275H91.9285V27.0133H91.8803C90.8791 28.1737 89.1401 29.1283 86.1926 29.1283C82.1748 29.1283 78.7146 26.1053 78.7146 20.9094C78.7146 15.9594 82.125 12.6551 86.3437 12.6551C88.9553 12.6551 90.5769 13.5841 91.5589 14.7701H91.6071V4.82031H96.4285V28.9275ZM87.5555 16.2712C84.7992 16.2712 83.25 18.2367 83.25 20.85C83.25 23.4648 84.7992 25.5123 87.5555 25.5123C90.315 25.5123 91.9285 23.5178 91.9285 20.85C91.9285 18.1082 90.315 16.2712 87.5555 16.2712Z" fill="#0A66C2"/>
<path d="M76.5981 26.3395C75.4603 27.8132 73.1171 29.1295 69.3339 29.1295C64.2858 29.1295 61.0715 25.7882 61.0715 20.5361C61.0715 15.8705 63.9837 12.6562 69.4753 12.6562C74.218 12.6562 77.143 15.7709 77.143 21.2496C77.143 21.7977 77.0546 22.3393 77.0546 22.3393H65.6214L65.6487 22.8359C65.9653 24.2213 67.0115 25.9152 69.4126 25.9152C71.5083 25.9152 72.9451 24.7886 73.5944 23.9062L76.5981 26.3395ZM72.5031 19.2857C72.5353 17.5902 71.2914 15.8705 69.3306 15.8705C66.9971 15.8705 65.7515 17.693 65.6214 19.2857H72.5031Z" fill="#0A66C2"/>
<path d="M61.0714 12.856H55.4464L49.8214 19.2846V4.82031H45V28.9275H49.8214V20.8917L55.7663 28.9275H61.4588L54.6429 20.1412L61.0714 12.856Z" fill="#0A66C2"/>
<path d="M25.7144 12.8571H30.2577V15.173H30.3076C31.0002 13.9243 33.0461 12.6562 35.5758 12.6562C40.431 12.6562 41.7858 15.7371 41.7858 20.0089V28.9286H36.9644V20.888C36.9644 18.5223 36.111 16.875 34.1149 16.875C31.6913 16.875 30.5358 18.7939 30.5358 21.2095V28.9286H25.7144V12.8571Z" fill="#0A66C2"/>
<path d="M17.6787 28.9291H22.5001V12.8577H17.6787V28.9291ZM20.091 10.1256C21.6885 10.1256 22.9822 8.8302 22.9822 7.2327C22.9822 5.6352 21.6885 4.33984 20.091 4.33984C18.4951 4.33984 17.1965 5.6352 17.1965 7.2327C17.1965 8.8302 18.4951 10.1256 20.091 10.1256Z" fill="#0A66C2"/>
<path d="M4.82143 4.82031H0V28.9275H14.4643V24.106H4.82143V4.82031Z" fill="#0A66C2"/>
</g>
<defs>
<clipPath id="clip0_47_70317">
<rect width="135" height="33.75" fill="white"/>
</clipPath>
</defs>
</svg>
