<svg width="16" height="16" viewBox="0 0 16 16" fill="none" xmlns="http://www.w3.org/2000/svg">
<path d="M9 7.99906C9 8.54906 8.55 8.99906 8 8.99906C7.45 8.99906 7 8.54906 7 7.99906C7 7.44906 7.45 6.99906 8 6.99906C8.55 6.99906 9 7.44906 9 7.99906ZM10.11 10.129L10.82 10.839C11.55 10.109 12 9.10906 12 7.99906C12 6.88906 11.55 5.88906 10.82 5.15906L10.11 5.86906C10.66 6.41906 11 7.16906 11 7.99906C11 8.82906 10.66 9.57906 10.11 10.129ZM5.18 10.839L5.89 10.129C5.34 9.57906 5 8.82906 5 7.99906C5 7.16906 5.34 6.41906 5.89 5.86906L5.18 5.15906C4.45 5.88906 4 6.88906 4 7.99906C4 9.10906 4.45 10.109 5.18 10.839ZM12.23 12.249L12.94 12.959C14.21 11.689 15 9.93906 15 7.99906C15 6.05906 14.21 4.30906 12.94 3.03906L12.23 3.74906C13.32 4.83906 14 6.33906 14 7.99906C14 9.65906 13.32 11.159 12.23 12.249ZM3.06 12.959L3.77 12.249C2.68 11.159 2 9.65906 2 7.99906C2 6.33906 2.68 4.83906 3.77 3.74906L3.06 3.03906C1.79 4.30906 1 6.05906 1 7.99906C1 9.93906 1.79 11.689 3.06 12.959Z" fill="white"/>
</svg>
