<svg width="40" height="52" viewBox="0 0 40 52" fill="none" xmlns="http://www.w3.org/2000/svg">
<rect y="5.59375" width="40" height="40" rx="20" fill="white"/>
<g clip-path="url(#clip0_47_36838)">
<path fill-rule="evenodd" clip-rule="evenodd" d="M20.8806 48.7964C20.2032 49.3762 19.5475 49.5984 18.6859 49.8423C16.605 50.059 14.7789 49.891 13.137 49.4467C13.0069 48.6068 13.1695 47.6964 13.6843 46.9973C14.7735 46.6885 16.5725 45.8756 18.0085 44.7052L22.658 44.5859C23.3245 45.8811 23.4166 46.5259 23.487 47.9673C22.6417 48.3033 21.7747 48.5797 20.8806 48.7964Z" fill="#3C3C3C"/>
<path fill-rule="evenodd" clip-rule="evenodd" d="M18.1008 44.9834C16.7515 45.91 15.4781 46.7337 13.8849 47.2105C13.5598 47.6657 13.3918 48.2781 13.3701 48.7874C15.0771 49.2155 16.8165 49.3402 18.5343 49.1505C19.862 48.9663 20.7832 48.1155 20.8482 48.0938C21.26 47.9909 21.6502 47.8771 22.0403 47.7579C22.4251 47.6386 22.799 47.514 23.1837 47.3785C23.1079 46.3977 22.9507 45.7529 22.4955 44.875L18.1008 44.9834Z" fill="url(#paint0_linear_47_36838)"/>
<path fill-rule="evenodd" clip-rule="evenodd" d="M13.3701 48.9191C13.3701 49.0275 13.3755 49.1305 13.3918 49.2226C15.1096 49.6615 16.3939 49.7536 18.6102 49.5802C19.6344 49.2876 20.1492 49.0708 20.7344 48.5561C21.6231 48.3393 22.4739 48.0629 23.2 47.7703L23.1837 47.5156L22.0729 47.8841C21.6881 48.0033 21.298 48.1117 20.8915 48.2201C20.5881 48.4694 20.1979 48.7186 19.7644 48.9191C19.3959 49.0871 18.957 49.2334 18.5452 49.2822C16.9412 49.4881 14.9849 49.3255 13.3701 48.9191Z" fill="#4B4B4B"/>
<path fill-rule="evenodd" clip-rule="evenodd" d="M13.3701 48.918C13.3701 49.0263 13.3755 49.1293 13.3918 49.2214C15.0933 49.6604 16.3722 49.7525 18.556 49.5791L18.5506 49.2756C16.9412 49.487 14.9849 49.3244 13.3701 48.918Z" fill="#666666"/>
<path fill-rule="evenodd" clip-rule="evenodd" d="M17.3258 45.506C16.2474 46.2105 15.1745 46.8228 13.8848 47.2076C15.3208 47.5381 16.4587 47.549 18.3174 47.4948C19.049 47.2509 19.8618 46.7524 20.5879 46.2376C20.3224 45.9829 20.0569 45.7716 19.7155 45.5765C19.4175 45.5386 19.114 45.5006 18.816 45.4844C19.1086 45.5548 19.3741 45.6686 19.5638 45.8095C19.6667 45.8908 19.4825 46.1617 19.2657 46.0263C18.5938 45.609 17.8731 45.5331 17.1361 45.8095C17.2553 45.6524 17.4341 45.5494 17.6346 45.4844C17.5317 45.4898 17.4233 45.5006 17.3258 45.506ZM18.9081 46.3514C19.011 46.4327 18.8268 46.7036 18.6155 46.5682C17.9489 46.1509 17.2174 46.1075 16.475 46.3351C17.1198 45.7011 18.3174 45.9179 18.9081 46.3514Z" fill="url(#paint1_linear_47_36838)"/>
<path fill-rule="evenodd" clip-rule="evenodd" d="M20.6098 48.2973L20.8645 48.1239C21.3035 48.0101 21.7315 47.88 22.1596 47.7391C21.5473 46.4494 20.9458 46.0213 20.1438 45.707C19.732 45.978 19.2443 46.3627 18.8975 46.7041C19.6073 46.9642 20.2522 47.6036 20.6098 48.2973Z" fill="#3C3C3C"/>
<path fill-rule="evenodd" clip-rule="evenodd" d="M20.0354 45.7773C19.6453 46.0429 19.2118 46.3897 18.8975 46.6986C19.0709 46.7636 19.2389 46.8449 19.396 46.9532C19.797 46.7527 20.198 46.5089 20.5827 46.2379C20.4093 46.07 20.2359 45.9182 20.0354 45.7773Z" fill="#666666"/>
<path fill-rule="evenodd" clip-rule="evenodd" d="M20.7615 48.1661C20.7994 48.1444 20.8265 48.1227 20.8536 48.101L21.1679 48.0198C20.8103 47.2069 20.2575 46.6271 19.3309 46.3128C19.2225 46.4049 19.1141 46.497 19.0166 46.5892C19.8294 46.8601 20.3659 47.4779 20.7615 48.1661ZM21.4118 47.9439C21.5852 47.8951 21.764 47.8409 21.9374 47.7813C21.5472 46.8764 20.897 46.1719 19.9432 45.8359C19.8186 45.9226 19.6831 46.0202 19.5585 46.1231C20.4851 46.4754 21.0433 47.0985 21.4118 47.9439Z" fill="#CC6633"/>
<path fill-rule="evenodd" clip-rule="evenodd" d="M20.3226 46.0063C20.2034 45.9413 20.0788 45.8871 19.9433 45.8438L19.5585 46.131C19.8078 46.2231 20.03 46.3423 20.2359 46.4778C20.3551 46.4019 20.4689 46.3206 20.5827 46.2393C20.5014 46.158 20.4147 46.0768 20.3226 46.0063ZM19.3255 46.3152C19.2171 46.4073 19.1088 46.4994 19.0112 46.5916C19.2171 46.6566 19.4068 46.7487 19.5802 46.8571L19.9921 46.6241C19.797 46.5049 19.5748 46.4019 19.3255 46.3152Z" fill="#FF9701"/>
<path fill-rule="evenodd" clip-rule="evenodd" d="M18.1005 44.9812C17.5911 45.2847 17.0926 45.5719 16.6537 45.935C16.4044 46.1355 16.1714 46.3468 15.9492 46.569L16.0197 46.6394C16.4423 46.2167 16.9192 45.8266 17.4394 45.4635C17.6778 45.2955 17.9325 45.133 18.1926 44.9812H18.1005ZM21.5415 44.8945L21.3248 44.8999C20.8858 45.1438 20.474 45.3931 20.0838 45.664C19.5582 46.0271 19.0759 46.4227 18.6532 46.8508L18.7183 46.9158C19.1409 46.4931 19.6178 46.1029 20.138 45.7399C20.577 45.4418 21.0484 45.1601 21.5415 44.8945ZM20.7991 44.9162L20.5228 44.9216C20.1705 45.1221 19.8346 45.3335 19.5203 45.5556C18.9946 45.9241 18.5124 46.3143 18.0843 46.7424L18.1764 46.8345C18.5991 46.4118 19.0705 46.0217 19.5907 45.6586C19.9755 45.3931 20.3765 45.1492 20.7991 44.9162ZM18.7237 44.965L18.4582 44.9704C18.2252 45.1113 17.9921 45.2576 17.7754 45.4093C17.2498 45.7724 16.7675 46.168 16.3448 46.5961L16.4369 46.6882C16.8596 46.2655 17.3365 45.8754 17.8513 45.5123C18.1222 45.328 18.4148 45.1384 18.7237 44.965Z" fill="#4B4B4B"/>
<path fill-rule="evenodd" clip-rule="evenodd" d="M15.6458 46.4992C15.4724 46.548 15.3315 46.6184 15.2231 46.6997C16.4695 46.6509 17.7754 46.7051 18.973 47.0844C19.2819 47.6101 19.4607 48.2224 19.6233 48.8347C19.6937 48.8293 19.7533 48.8022 19.8021 48.7535C19.6612 48.2224 19.4607 47.4909 19.0814 46.9219C17.9705 46.5642 16.8055 46.4775 15.6458 46.4992Z" fill="#4B4B4B"/>
<path d="M19.6615 45.7059C19.7591 45.7872 19.5748 46.0582 19.3635 45.9227C18.6915 45.5054 17.9654 45.4296 17.2339 45.7059C17.7161 45.0828 19.06 45.267 19.6615 45.7059ZM19.0058 46.2532C19.1034 46.3345 18.9137 46.6163 18.7078 46.47C18.0521 46.0148 17.3151 45.9877 16.5728 46.237C17.2284 45.5705 18.4314 45.7764 19.0058 46.2532Z" fill="#3C3C3C"/>
<path fill-rule="evenodd" clip-rule="evenodd" d="M26.6195 46.325C26.7604 47.3058 26.2022 48.3733 26.1155 48.8339C26.0017 49.4517 26.0668 49.8689 26.083 50.5842C27.4594 51.4404 31.0955 51.4784 32.5532 50.2537C32.5586 49.7064 32.6074 48.9098 32.3744 48.4329C31.9463 47.7014 31.6157 46.8235 31.3773 45.8156L29.8329 43.6914L27.2914 44.0924L26.186 45.4255L26.6195 46.325Z" fill="#3C3C3C"/>
<path fill-rule="evenodd" clip-rule="evenodd" d="M32.0005 48.3427C31.5886 47.584 31.3123 46.7549 31.1172 45.9259L29.7029 43.9805L27.4378 44.3381L26.5057 45.4598L26.8959 46.2456C26.9176 46.6249 26.9338 46.8904 26.8634 47.2697C26.7875 47.7032 26.6358 48.1097 26.4949 48.5323C26.4624 48.6353 26.419 48.7599 26.3973 48.8683C26.3215 49.2801 26.3269 49.6866 26.3486 50.093C28.1856 50.7107 30.1852 50.6999 31.9192 49.9304C32.0763 49.7462 32.1089 49.0796 32.0005 48.3427Z" fill="url(#paint2_linear_47_36838)"/>
<path fill-rule="evenodd" clip-rule="evenodd" d="M31.1716 47.541C30.9711 47.0154 30.6893 46.4626 30.5647 45.9099C29.611 45.3463 28.0774 45.4927 27.1237 46.0725C27.1725 46.3814 27.1833 46.8474 27.1075 47.2701C27.0912 47.373 27.0749 47.4706 27.0479 47.5681C27.0749 48.0991 27.0153 48.343 27.1942 48.7169C28.0503 49.2534 30.6297 49.0041 31.1554 48.4405C31.3179 48.2726 31.2041 47.8878 31.1716 47.541Z" fill="url(#paint3_linear_47_36838)"/>
<path fill-rule="evenodd" clip-rule="evenodd" d="M26.3597 50.5096C27.7361 51.252 30.9495 51.2033 32.2771 50.2116C32.2771 49.7022 32.3801 49.0194 32.1308 48.5859C32.1308 48.5859 32.2609 49.7293 31.9845 50.0436L31.9466 50.0761C30.1855 50.8565 28.1696 50.8565 26.3543 50.2604C26.3489 50.3417 26.3543 50.4284 26.3597 50.5096Z" fill="#4B4B4B"/>
<path fill-rule="evenodd" clip-rule="evenodd" d="M26.3595 50.5091C27.595 51.1756 30.2936 51.2081 31.8 50.4929L31.7892 50.1406C30.066 50.8559 28.1152 50.8342 26.3486 50.2598C26.3486 50.3411 26.3541 50.4278 26.3595 50.5091Z" fill="#666666"/>
<path fill-rule="evenodd" clip-rule="evenodd" d="M26.7227 47.8282C26.9502 47.606 27.232 47.4326 27.5355 47.308C27.503 46.907 27.438 46.5168 27.3404 46.1321C27.167 46.2513 27.0207 46.3813 26.9015 46.5385C26.8202 47.0154 26.7498 47.3838 26.7227 47.8282ZM30.2016 47.0966C30.841 47.2213 31.3937 47.4543 31.7135 47.7577C31.6647 47.3351 31.5401 46.9016 31.2583 46.4843C31.0198 46.2188 30.7055 46.0183 30.3587 45.8828C30.2883 46.2946 30.2341 46.7011 30.2016 47.0966Z" fill="#3C3C3C"/>
<path fill-rule="evenodd" clip-rule="evenodd" d="M27.0425 47.4543C27.1888 47.3513 27.3568 47.2646 27.5248 47.1942C27.4922 46.8365 27.4326 46.4843 27.3405 46.1375C27.2701 46.1863 27.205 46.235 27.1454 46.2838C27.1617 46.5493 27.1509 46.8636 27.0967 47.1563L27.0425 47.4543ZM30.2125 46.9828C30.5322 47.0479 30.8303 47.14 31.0904 47.2538C30.9224 46.842 30.7273 46.4139 30.6081 45.9912C30.5268 45.9478 30.4455 45.9153 30.3643 45.8828C30.2992 46.2567 30.245 46.6198 30.2125 46.9828Z" fill="#666666"/>
<path fill-rule="evenodd" clip-rule="evenodd" d="M27.5136 47.1309L27.4757 46.8058C27.2318 46.9304 26.9934 47.0876 26.7767 47.2718L26.7441 47.5482C26.9717 47.3802 27.2373 47.2393 27.5136 47.1309ZM27.454 46.6757C27.4323 46.5619 27.4161 46.4535 27.389 46.3397C27.2102 46.459 27.0368 46.589 26.8688 46.7407C26.8471 46.8491 26.8308 46.9575 26.8146 47.055C27.0097 46.9033 27.221 46.7787 27.454 46.6757ZM30.3314 46.0742C30.6891 46.2097 31.0359 46.4048 31.3665 46.654C31.4261 46.757 31.4748 46.8545 31.5182 46.9575C31.1497 46.7136 30.727 46.5402 30.2773 46.4373C30.2881 46.3127 30.3098 46.1934 30.3314 46.0742ZM30.261 46.5402C30.7216 46.6649 31.1714 46.8762 31.5941 47.1634C31.6266 47.2555 31.6482 47.3368 31.6699 47.4289C31.2472 47.1797 30.7433 47.0063 30.2231 46.9087L30.261 46.5402Z" fill="#CC6633"/>
<path fill-rule="evenodd" clip-rule="evenodd" d="M27.5137 47.1309L27.4758 46.8058L27.1182 47.0171L27.0965 47.1526C27.0911 47.2176 27.0748 47.2772 27.064 47.3422C27.2103 47.261 27.362 47.1905 27.5137 47.1309ZM27.4541 46.6757L27.3891 46.3397L27.1507 46.5077L27.1398 46.8383C27.2374 46.7733 27.3457 46.7191 27.4541 46.6757ZM30.3316 46.0742L30.6838 46.2314L30.8247 46.6107C30.6513 46.5402 30.467 46.4861 30.2774 46.4373C30.2882 46.3127 30.3099 46.1934 30.3316 46.0742ZM30.2611 46.5402C30.4779 46.5999 30.6838 46.6703 30.8897 46.7678C30.9385 46.8925 30.9927 47.0117 31.0469 47.1363C30.7813 47.0334 30.505 46.9629 30.2178 46.9087C30.234 46.7895 30.2449 46.6649 30.2611 46.5402Z" fill="#FF9701"/>
<path fill-rule="evenodd" clip-rule="evenodd" d="M27.7627 47.0192C28.4725 46.7591 29.242 46.7645 29.9302 46.9271C30.1145 46.9704 30.0765 47.2956 29.8923 47.2685C29.1607 47.1655 28.5321 47.1763 27.8006 47.3606C27.6218 47.4094 27.6272 47.0734 27.7627 47.0192ZM27.6218 46.2551C28.3858 45.9192 29.2583 45.8704 30.0007 46.0926C30.1957 46.1522 30.1632 46.5369 29.9682 46.4936C29.1662 46.331 28.4617 46.3852 27.6922 46.6399C27.4917 46.7049 27.4755 46.3147 27.6218 46.2551Z" fill="url(#paint4_linear_47_36838)"/>
<path d="M26.6083 48.1852C26.8088 47.9143 27.0635 47.7192 27.3128 47.6759C27.3886 47.665 27.432 47.6542 27.5079 47.6434C27.4157 46.7438 27.264 45.7576 26.928 44.9448L27.0093 44.8472C27.367 45.6763 27.5295 46.6951 27.6217 47.6271C27.7138 47.6108 27.833 47.5946 27.9251 47.5837C27.8547 46.6246 27.6325 45.5354 27.3724 44.6575L27.5133 44.6196C27.7734 45.5029 27.9956 46.5921 28.0714 47.5567C28.6187 47.4916 29.0848 47.47 29.6212 47.4754C29.6266 46.5813 29.6808 45.1398 29.8651 44.2891L29.9897 44.3974C29.8163 45.2482 29.7621 46.6246 29.7567 47.47C29.8705 47.47 29.9951 47.4754 30.1089 47.4754C30.1414 46.7655 30.2444 45.8064 30.4341 45.0044L30.5262 45.129C30.3528 45.9039 30.2552 46.8088 30.2281 47.4862C30.4449 47.497 30.6454 47.5187 30.873 47.5404C31.2631 47.5783 31.6858 47.9577 32.0001 48.3641C32.0543 48.4833 32.0651 48.5862 32.0381 48.6784C31.7508 48.2286 31.2686 47.7246 30.8513 47.6813C29.6266 47.5512 28.5862 47.6054 27.3345 47.8113C26.9822 47.871 26.6192 48.3587 26.4078 48.7813C26.3916 48.5862 26.4728 48.3749 26.6083 48.1852Z" fill="#4B4B4B"/>
<path d="M27.7627 46.884C28.4672 46.6239 29.2366 46.6293 29.9248 46.7919C30.1091 46.8352 30.0712 47.1604 29.8869 47.1333C29.1554 47.0303 28.5268 47.0411 27.7952 47.2254C27.6164 47.2742 27.6272 46.9382 27.7627 46.884ZM27.6164 46.1145C28.3805 45.7785 29.2529 45.7298 29.9953 45.9519C30.1904 46.0116 30.1579 46.3909 29.9628 46.3529C29.1608 46.1904 28.4563 46.2446 27.6868 46.4993C27.4863 46.5697 27.4701 46.1795 27.6164 46.1145Z" fill="#3C3C3C"/>
<path fill-rule="evenodd" clip-rule="evenodd" d="M18.2528 39.0662C18.3016 38.7519 18.1282 37.8577 18.1878 37.1316C18.2962 35.8311 18.6267 34.3571 18.8977 32.9699L24.0077 32.8398C23.0106 36.6385 22.8535 37.7385 22.5175 39.7869C22.7343 40.2421 22.8264 40.643 22.7885 41.0007C22.7451 41.4125 22.7451 43.0545 22.7668 43.9052C23.1082 44.4796 23.1678 44.8915 23.2762 45.5851C22.5067 46.0023 22.1111 46.1541 21.2441 46.3221L21.1411 46.2137C20.7943 45.8452 20.4908 45.5742 20.0194 45.4063C19.1686 45.1082 17.8952 44.9402 17.0553 45.4008C17.0336 45.3737 17.0119 45.3196 16.9902 45.2274C17.0607 44.523 17.142 44.1599 17.2612 43.7318C17.3912 43.5638 17.5267 43.3091 17.6242 43.1249C17.7976 42.7022 18.0361 40.5889 18.2528 39.0662Z" fill="#232323"/>
<path fill-rule="evenodd" clip-rule="evenodd" d="M23.6445 33.1328L19.1251 33.2466C18.8813 34.455 18.4207 36.5359 18.4532 37.6468C18.5616 38.2049 18.7025 39.8577 18.5724 40.2641C18.4965 40.1828 18.4478 40.0202 18.4424 39.668L18.1064 42.1228C18.0739 42.3449 17.9601 43.0927 17.8625 43.2716C17.7542 43.4721 17.6458 43.6834 17.5049 43.8622C17.4019 44.247 17.3315 44.61 17.2827 45.0002C18.1606 44.7076 19.2823 44.8593 20.106 45.1465C20.6262 45.3307 20.9621 45.6288 21.336 46.0189C22.0026 45.8835 22.3711 45.748 22.9671 45.4337C22.8913 44.9568 22.6854 44.312 22.4849 44.0085C22.4686 43.4287 22.4469 41.5104 22.5065 40.9631C22.5336 40.703 22.4686 40.4266 22.3927 40.2099C22.2735 40.8385 22.1164 41.1636 21.8237 41.6351C22.3873 38.7739 22.9021 35.9723 23.6445 33.1328Z" fill="#3C3C3C"/>
<path fill-rule="evenodd" clip-rule="evenodd" d="M18.9517 34.1055C18.7133 35.2868 18.4315 36.7661 18.4586 37.644C18.4911 37.8174 18.529 38.0992 18.5615 38.4135C19.0492 38.8687 19.9162 38.8958 20.6641 38.8307C21.1247 38.5706 21.3577 38.1046 21.5798 37.6874L21.9592 34.9562C20.8591 34.8695 19.7645 34.6365 18.9517 34.1055ZM18.6266 39.8983C18.6211 40.0554 18.6049 40.18 18.5778 40.2559C18.5019 40.1746 18.4531 40.0121 18.4477 39.6598L18.1118 42.1146C18.0792 42.3368 17.9654 43.0846 17.8679 43.2634C17.7595 43.4639 17.6512 43.6752 17.5103 43.8541C17.4073 44.2388 17.3369 44.6019 17.2881 44.992C18.1659 44.6994 19.2877 44.8511 20.1113 45.1383C20.5394 45.2846 20.8429 45.5177 21.1463 45.8157C21.0434 45.2359 21.0054 44.9433 20.8754 44.6019C20.8916 43.892 20.9729 43.2309 21.0651 42.4993C21.2059 42.185 21.2926 41.9737 21.3902 41.7136C21.4661 41.1013 21.4119 40.348 21.3631 39.5731C20.9946 40.1421 20.702 40.6948 20.3931 40.8628C19.8837 40.9875 19.2551 40.8899 18.7837 40.6732L18.6266 39.8983Z" fill="url(#paint5_linear_47_36838)"/>
<path fill-rule="evenodd" clip-rule="evenodd" d="M20.9673 35.5086C21.0323 35.7037 21.2599 35.9421 21.3845 35.9963C21.623 36.1047 21.7964 36.186 21.9752 36.3106C22.4683 37.3565 22.9398 38.7004 23.46 39.5295C23.7743 39.8817 23.9531 40.0659 24.1915 40.3694C24.8851 42.0059 25.4704 43.1655 25.8443 44.6557C25.9147 44.9375 25.9689 45.5769 25.9852 45.9888C26.099 46.2109 26.3916 46.4169 26.6192 46.4927C26.7926 46.1784 27.0527 45.8533 27.1828 45.7612C28.0931 45.1055 30.5045 45.0025 31.3065 46.1026C31.4854 45.9183 31.5937 45.1597 31.4583 44.9158C31.312 44.7695 30.911 44.5365 30.6888 43.935C30.4016 42.8783 29.9193 40.9438 29.2094 39.4427C28.9276 39.0743 28.6296 38.9063 28.1419 38.4673L25.9256 34.414L25.2916 32.3711L22.788 32.4957L20.9673 35.5086Z" fill="#232323"/>
<path fill-rule="evenodd" clip-rule="evenodd" d="M31.2147 45.5927C31.2472 45.403 31.2634 45.1808 31.2309 45.0779C31.2309 45.0779 30.5915 44.601 30.4289 43.9995C30.0225 42.5147 29.6378 40.9541 28.9821 39.6861C28.8032 39.3935 28.0121 38.7757 27.9145 38.5915L25.6928 34.5381L25.1021 32.6523L20.9404 32.8583L20.9729 35.5027C21.5907 35.817 22.2572 36.1042 22.9183 36.3589C22.7178 36.3643 22.5282 36.3643 22.3006 36.3209L22.9779 37.8816C23.3193 38.6944 23.4656 38.9762 23.7149 39.3176C24.4085 40.1033 24.8204 40.4718 25.2918 41.0137C25.0263 40.8728 24.9125 40.8457 24.6578 40.6561C25.2593 42.0541 25.7524 43.0837 26.1263 44.5793C26.1913 44.834 26.2184 45.1429 26.2347 45.403C26.2509 45.5656 26.2618 45.7336 26.2672 45.8961C26.3214 45.9774 26.4135 46.0587 26.5111 46.1237C26.6574 45.8961 26.8524 45.6414 27.0204 45.5222C28.0067 44.8178 30.1851 44.7636 31.2147 45.5927Z" fill="#3C3C3C"/>
<path fill-rule="evenodd" clip-rule="evenodd" d="M24.9558 40.6569L25.2864 41.0199C25.0209 40.8791 24.9071 40.852 24.6524 40.6623C25.2539 42.0604 25.747 43.09 26.1209 44.5856C26.1859 44.8403 26.213 45.1491 26.2293 45.4092C26.2455 45.5718 26.2564 45.7398 26.2618 45.9024C26.316 45.9836 26.4081 46.0649 26.5057 46.13C26.652 45.9024 26.847 45.6477 27.015 45.5285C27.7195 45.0245 29.02 44.8511 30.0875 45.0895C29.9141 44.8999 29.7353 44.7156 29.5619 44.5097C29.3722 43.9299 29.123 43.2688 28.9875 42.6781C28.8629 42.1254 28.8466 41.1392 28.6732 40.7111C28.489 40.2505 27.8279 39.5731 27.3347 39.0637C27.2047 39.5297 27.053 39.9795 26.7766 40.3968C26.3377 40.646 25.85 40.8194 25.2593 40.8791L24.9558 40.6569ZM20.7725 34.7936C20.7779 34.8532 20.7779 34.9129 20.7779 34.967C20.7833 35.1404 20.87 35.3951 20.9675 35.5035C21.5853 35.8178 22.2518 36.105 22.9129 36.3597C22.7124 36.3651 22.5228 36.3651 22.2952 36.3218L22.9725 37.8824C23.1134 38.213 23.2164 38.4568 23.3139 38.6519C23.6716 38.8795 24.0942 39.0312 24.376 39.0475C24.9342 38.9824 25.2972 38.9174 25.8987 38.511C26.0234 38.2942 26.1588 37.9366 26.1968 37.5681C26.0125 36.7499 25.5899 35.6173 25.0588 34.4414C24.4844 34.6853 23.9534 34.8099 23.1947 34.9779C22.3981 34.9941 21.5582 34.9508 20.7725 34.7936Z" fill="url(#paint6_linear_47_36838)"/>
<path fill-rule="evenodd" clip-rule="evenodd" d="M24.7393 33.1562L25.0645 34.8198C24.3763 35.8115 24.0132 35.9199 23.6122 37.0308C23.5851 37.4263 23.1408 38.0712 22.8807 38.082C22.2466 38.1145 21.4663 38.0874 20.919 37.9086C19.0874 37.0362 19.4288 34.0612 20.6752 33.4543L24.7393 33.1562Z" fill="#232323"/>
<path fill-rule="evenodd" clip-rule="evenodd" d="M20.6154 32.9453L24.5874 33.3409L25.1618 34.9503C24.6687 35.503 24.1052 36.2725 23.6662 37.1179C23.547 37.3509 23.2273 37.7248 22.9347 37.7573C22.176 37.8332 21.477 37.8061 20.9622 37.6381C19.2119 36.9715 19.304 34.1591 20.6154 32.9453Z" fill="#3C3C3C"/>
<path fill-rule="evenodd" clip-rule="evenodd" d="M23.3087 37.5683C23.1894 37.6713 23.0648 37.7471 22.9402 37.758C22.1815 37.8338 21.4825 37.8067 20.9677 37.6387C20.3337 37.3949 19.9381 36.8747 19.7593 36.2461C20.1386 36.8801 20.3662 37.2052 20.8539 37.3841C21.4229 37.59 22.485 37.7146 23.3087 37.5683Z" fill="#666666"/>
<path fill-rule="evenodd" clip-rule="evenodd" d="M25.0534 34.6485L25.2431 35.1849C24.3165 35.5697 23.8179 36.2633 23.4169 36.8485C21.5149 37.2278 20.4745 37.049 20.0247 36.3391C19.6291 35.678 19.5966 35.147 19.6345 34.4805C20.7237 34.9194 22.0785 35.0603 23.2652 35.0765C23.9371 34.9465 24.4953 34.8273 25.0534 34.6485Z" fill="url(#paint7_linear_47_36838)"/>
<path fill-rule="evenodd" clip-rule="evenodd" d="M20.1436 35.0117C20.615 35.2556 21.3574 35.4452 22.8097 35.6566C21.9426 35.7704 21.2002 35.7324 20.8805 35.6349C20.6638 35.5644 20.382 35.3531 20.1436 35.0117Z" fill="#7F7F7F"/>
<path fill-rule="evenodd" clip-rule="evenodd" d="M20.209 36.3789C20.5504 36.6282 21.0652 36.7745 22.046 36.8612C21.4878 37.1159 20.9947 37.1592 20.7725 37.0779C20.6154 37.0129 20.4041 36.7853 20.209 36.3789Z" fill="#3C3C3C"/>
<path fill-rule="evenodd" clip-rule="evenodd" d="M19.3688 36.3242C19.1142 36.8119 19.4881 37.5435 20.4472 37.9607C19.8294 37.6031 19.5314 36.9907 19.3688 36.3242ZM19.0708 37.1858C19.0166 37.641 19.5368 37.8903 19.9487 37.9228C19.5748 37.8036 19.2334 37.5218 19.0708 37.1858Z" fill="#B2B2B2"/>
<path fill-rule="evenodd" clip-rule="evenodd" d="M23.7634 35.332C23.8555 35.332 23.9368 35.4079 23.9476 35.4946C23.953 35.5867 23.888 35.6626 23.7959 35.6626C23.7038 35.6626 23.6225 35.5867 23.6116 35.4946C23.6062 35.4025 23.6713 35.332 23.7634 35.332Z" fill="#323232"/>
<path fill-rule="evenodd" clip-rule="evenodd" d="M23.7202 35.3594C23.8123 35.3594 23.8936 35.4352 23.9045 35.5274C23.9153 35.6195 23.8448 35.6953 23.7527 35.6953C23.6606 35.6953 23.5793 35.6195 23.5685 35.5274C23.5576 35.4298 23.6281 35.3594 23.7202 35.3594Z" fill="#232323"/>
<path fill-rule="evenodd" clip-rule="evenodd" d="M23.7255 35.4102C23.758 35.4102 23.8014 35.4318 23.823 35.4589C23.8014 35.4481 23.7797 35.4373 23.758 35.4373C23.693 35.4373 23.6442 35.4914 23.655 35.5565C23.655 35.5836 23.6659 35.6052 23.6821 35.6269C23.6496 35.6052 23.6225 35.5673 23.6171 35.5294C23.6117 35.4589 23.6605 35.4102 23.7255 35.4102Z" fill="#3C3C3C"/>
<path fill-rule="evenodd" clip-rule="evenodd" d="M23.1785 36.7955C23.2706 36.8117 23.3248 36.9038 23.3031 37.0014C23.2814 37.0989 23.1893 37.1639 23.0972 37.1477C23.005 37.1314 22.9509 37.0393 22.9725 36.9418C22.9996 36.8442 23.0918 36.7792 23.1785 36.7955Z" fill="#323232"/>
<path fill-rule="evenodd" clip-rule="evenodd" d="M23.1242 36.8189C23.2163 36.8406 23.2705 36.9273 23.2488 37.0248C23.2272 37.1224 23.135 37.1874 23.0483 37.1711C22.9562 37.1495 22.902 37.0573 22.9237 36.9598C22.9454 36.8677 23.0375 36.8026 23.1242 36.8189Z" fill="#232323"/>
<path fill-rule="evenodd" clip-rule="evenodd" d="M23.1134 36.8727C23.1513 36.8782 23.1784 36.9053 23.1946 36.9378C23.1784 36.9215 23.1621 36.9107 23.135 36.9053C23.07 36.8944 23.005 36.9378 22.9887 37.0082C22.9833 37.0353 22.9833 37.0624 22.9941 37.0841C22.967 37.057 22.9562 37.0191 22.967 36.9757C22.9833 36.9053 23.0537 36.8619 23.1134 36.8727Z" fill="#3C3C3C"/>
<path fill-rule="evenodd" clip-rule="evenodd" d="M20.3278 36.5195C20.4037 36.5195 20.4795 36.5954 20.4958 36.6875C20.5175 36.7796 20.4633 36.8555 20.3928 36.8555C20.317 36.8555 20.2411 36.7796 20.2194 36.6875C20.2032 36.5954 20.2519 36.5195 20.3278 36.5195Z" fill="#323232"/>
<path fill-rule="evenodd" clip-rule="evenodd" d="M20.2956 36.5508C20.3715 36.5508 20.4474 36.6266 20.4636 36.7188C20.4853 36.8109 20.4311 36.8813 20.3607 36.8813C20.2848 36.8813 20.2089 36.8055 20.1927 36.7188C20.171 36.6266 20.2198 36.5508 20.2956 36.5508Z" fill="#232323"/>
<path fill-rule="evenodd" clip-rule="evenodd" d="M20.3063 36.6016C20.3388 36.6016 20.3713 36.6178 20.393 36.6503C20.3713 36.6395 20.3551 36.6287 20.3334 36.6287C20.2846 36.6287 20.2467 36.6774 20.2575 36.7479C20.2629 36.7695 20.2738 36.7966 20.29 36.8129C20.2575 36.7912 20.2358 36.7587 20.225 36.7208C20.2142 36.6557 20.2521 36.6016 20.3063 36.6016Z" fill="#3C3C3C"/>
<path fill-rule="evenodd" clip-rule="evenodd" d="M20.2197 35.0195C20.3118 35.0195 20.3931 35.0954 20.404 35.1875C20.4094 35.2796 20.3444 35.3555 20.2522 35.3555C20.1601 35.3555 20.0788 35.2796 20.068 35.1875C20.0572 35.0954 20.1276 35.0195 20.2197 35.0195Z" fill="#323232"/>
<path fill-rule="evenodd" clip-rule="evenodd" d="M20.1709 35.0469C20.263 35.0469 20.3443 35.1227 20.3605 35.2149C20.3659 35.307 20.2955 35.3828 20.2088 35.3828C20.1167 35.3828 20.0354 35.307 20.0245 35.2149C20.0137 35.1227 20.0841 35.0469 20.1709 35.0469Z" fill="#232323"/>
<path fill-rule="evenodd" clip-rule="evenodd" d="M20.1816 35.0938C20.2196 35.0938 20.2575 35.1154 20.2792 35.1425C20.2575 35.1317 20.2358 35.1208 20.2141 35.1208C20.1491 35.1208 20.1003 35.1696 20.1112 35.2401C20.1166 35.2617 20.122 35.2888 20.1383 35.3051C20.1058 35.2834 20.0841 35.2509 20.0787 35.2075C20.0678 35.1479 20.1166 35.0938 20.1816 35.0938Z" fill="#3C3C3C"/>
<path fill-rule="evenodd" clip-rule="evenodd" d="M17.0658 25.1882C17.4397 24.63 18.4639 23.7251 19.2497 23.7305C19.8295 23.8118 20.4093 24.0014 20.9458 24.2561L20.9566 24.6734L20.4527 28.3257C19.3201 28.6183 18.1876 29.0302 17.0604 29.5829C14.4594 29.9514 13.3973 26.3261 15.0609 25.3941L15.1963 25.3616C15.8141 25.3507 16.4643 25.3345 17.0658 25.1882Z" fill="#7F3E13"/>
<path fill-rule="evenodd" clip-rule="evenodd" d="M20.7454 24.6054C20.2631 24.4916 19.5316 24.1502 19.201 24.0039C18.6592 24.0852 17.7325 24.7463 17.3695 25.2557C17.5808 25.3315 17.7054 25.4291 17.8897 25.6458C17.5916 25.5266 17.4562 25.4724 17.2069 25.4453C16.562 25.6133 15.8413 25.635 15.1965 25.6404C14.9581 25.7705 14.7846 25.9818 14.6763 26.2202C15.7438 24.5946 17.765 27.9055 17.0335 29.2657C18.1281 28.7129 19.1685 28.3065 20.2577 27.9705L20.7454 24.6054Z" fill="url(#paint8_linear_47_36838)"/>
<path fill-rule="evenodd" clip-rule="evenodd" d="M20.7452 24.6054C20.3876 24.4103 19.7969 24.096 19.2009 24.0039C18.659 24.0852 17.7323 24.7463 17.3693 25.2557C17.5806 25.3315 17.7052 25.4291 17.8895 25.6458C17.5914 25.5266 17.456 25.4724 17.2067 25.4453C16.5618 25.6133 15.8411 25.635 15.1963 25.6404C16.02 25.6621 16.2692 26.4858 16.8003 27.0818C18.2417 26.7838 18.6752 26.4803 20.1383 26.3015L20.7452 24.6054Z" fill="url(#paint9_linear_47_36838)"/>
<path fill-rule="evenodd" clip-rule="evenodd" d="M16.1178 25.6133L15.8848 25.6241C16.9414 25.9547 17.8464 28.0301 17.44 29.0705L17.6026 28.9947C17.8843 27.7754 17.0878 26.0901 16.1178 25.6133Z" fill="#B85A1B"/>
<path fill-rule="evenodd" clip-rule="evenodd" d="M17.6243 24.9648C17.5214 25.0678 17.4347 25.1653 17.3696 25.2629C17.581 25.3387 17.6839 25.653 17.8736 25.8752C18.4372 25.9457 18.8923 25.8698 19.6239 25.3767C18.6485 25.6476 18.0795 25.2954 17.6243 24.9648Z" fill="#DE7721"/>
<path fill-rule="evenodd" clip-rule="evenodd" d="M16.9847 28.9305C15.6408 29.5103 14.4812 30.9788 13.2402 31.1956L13.2565 27.0772C14.0043 26.6925 14.7629 26.3023 15.592 25.9609C16.3832 26.3674 17.1473 27.9172 16.9847 28.9305Z" fill="#9A4C18"/>
<path fill-rule="evenodd" clip-rule="evenodd" d="M17.0063 28.5897C15.527 29.24 14.4757 30.4213 13.354 30.8277L13.457 27.2892C14.1885 26.8665 14.9634 26.4601 15.8142 26.1133C16.4374 26.5956 16.9847 27.7064 17.0063 28.5897Z" fill="#E5895B"/>
<path fill-rule="evenodd" clip-rule="evenodd" d="M14.5246 25.1592C14.66 26.1129 14.9906 26.2213 15.2615 27.0504C15.7547 28.5623 14.9635 29.1638 14.0152 29.3372L13.2403 31.1959C12.758 31.2988 12.1023 31.2717 11.5767 31.0983C9.85889 30.5348 9.16528 28.5894 9.88057 26.9854C10.1949 26.2863 10.4712 25.8854 10.7313 25.0888C10.7638 24.9967 10.7422 25.0237 10.8235 24.9641C11.8205 24.1567 13.3812 24.2976 14.4053 24.9641L14.5083 25.0346L14.5246 25.1592Z" fill="#9A4C18"/>
<path fill-rule="evenodd" clip-rule="evenodd" d="M11.0564 25.1423C10.7909 25.9606 10.4387 26.5296 10.2003 27.0769C9.55541 28.5454 10.2219 30.2632 11.7663 30.7888C12.2703 30.9568 12.8284 30.9893 13.3486 30.8213C14.6329 30.2632 15.5595 28.8109 14.9635 27.2503C14.725 26.7626 14.4433 26.3291 14.2753 25.164C13.392 24.5733 11.9614 24.3945 11.0564 25.1423Z" fill="#E5895B"/>
<path fill-rule="evenodd" clip-rule="evenodd" d="M11.0564 25.1436C10.7909 25.9618 10.4387 26.5308 10.2003 27.0781C9.55541 28.5466 10.2219 30.2644 11.7663 30.7901C12.2703 30.958 12.8284 30.9906 13.3486 30.8226C11.8964 29.7659 11.7555 27.387 12.0156 24.6992C11.6688 24.7697 11.3382 24.9106 11.0564 25.1436Z" fill="url(#paint10_linear_47_36838)"/>
<path fill-rule="evenodd" clip-rule="evenodd" d="M8.22774 20.8694C8.52578 20.4792 8.8184 20.0728 9.08934 19.661C9.3061 19.3358 9.62039 18.8319 9.72335 18.458C9.73961 18.4038 9.76128 18.3496 9.7938 18.3008C9.9672 18.0299 10.3086 17.9432 10.6066 17.9811C10.948 18.019 11.2569 18.1979 11.4628 18.4742C11.7663 18.8861 11.7825 19.4009 11.6633 19.8831C11.4737 20.6689 10.9318 21.4492 10.4278 22.0615L10.2815 22.2404L7.98389 21.162L8.22774 20.8694Z" fill="#9A4C18"/>
<path fill-rule="evenodd" clip-rule="evenodd" d="M8.46094 21.0467C8.85652 20.5428 9.83192 19.2368 10.027 18.5324C10.2275 17.8008 13.0399 18.4673 10.2275 21.8704L8.46094 21.0467Z" fill="#E5895B"/>
<path fill-rule="evenodd" clip-rule="evenodd" d="M10.0864 18.4183C10.3736 18.0877 11.387 18.2665 11.4628 19.2257C10.9209 19.3449 10.1515 19.074 10.0864 18.4183Z" fill="url(#paint11_linear_47_36838)"/>
<path fill-rule="evenodd" clip-rule="evenodd" d="M11.311 20.6731L15.5811 21.2258C16.1772 21.3017 16.6215 21.8057 16.6215 22.4017V26.6881C16.6215 27.2408 16.2476 27.7068 15.7111 27.8423L10.5198 29.1591C10.4819 29.1699 10.4386 29.1808 10.3952 29.1916H10.3898C10.2706 29.2187 10.1568 29.2404 10.0321 29.2512C9.54445 29.2946 9.03507 29.2079 8.60156 28.9694C7.88085 28.5576 7.55029 27.8206 7.55029 26.997V21.8328C7.55029 21.215 8.07593 20.7544 8.67742 20.7273L10.8883 20.6243C11.0292 20.6135 11.1755 20.6298 11.311 20.6731Z" fill="#4B4B4B"/>
<path fill-rule="evenodd" clip-rule="evenodd" d="M10.9044 20.8945L15.5484 21.4852C16.009 21.5502 16.3504 21.935 16.3504 22.3956V26.6819C16.3504 27.11 16.0632 27.4676 15.6459 27.5706L10.3408 28.9145L10.796 26.8011V22.0704L10.9044 20.8945Z" fill="#4B4B4B"/>
<path fill-rule="evenodd" clip-rule="evenodd" d="M13.4405 28.1293L10.3354 28.915L10.9586 27.5874L14.3075 27.1484C14.21 27.6145 14.042 27.945 13.4405 28.1293Z" fill="#3C3C3C"/>
<path fill-rule="evenodd" clip-rule="evenodd" d="M16.3452 26.0764V26.6833C16.3452 26.7537 16.3397 26.8187 16.3235 26.8838L14.3077 27.1493C14.3239 27.0843 14.3348 27.0138 14.3456 26.938C14.3998 26.6345 14.5949 26.3744 14.92 26.3202L16.3452 26.0764ZM8.69368 20.9989L10.9046 20.8959C11.4302 20.8688 11.8692 21.2481 11.8692 21.7304V27.1872C11.8692 29.4307 7.82666 29.7937 7.82666 26.9976V21.8334C7.82666 21.389 8.20598 21.0205 8.69368 20.9989Z" fill="#666666"/>
<path fill-rule="evenodd" clip-rule="evenodd" d="M11.9992 24.3633C11.8366 25.1382 11.3273 25.9456 10.4873 26.0431L8.01632 26.3303V26.3141H7.97839C6.29853 26.3141 5.00342 24.8943 5.00342 23.2416C5.00342 21.6755 6.16306 20.3154 7.71286 20.1745C8.1247 20.142 8.33062 20.1907 8.76955 20.2503L13.9392 20.841C15.7924 21.0794 15.6136 23.7618 14.1017 24.0815L11.9992 24.3633Z" fill="#3C3C3C"/>
<path fill-rule="evenodd" clip-rule="evenodd" d="M15.2396 22.332C15.7327 22.3916 15.7923 22.9498 15.7923 23.069V25.6321C15.7923 25.8435 15.6623 25.9519 15.4889 25.9735L13.24 26.2391C12.6006 26.3149 12.4326 25.9789 12.4326 25.6592V22.332H15.2396Z" fill="#3C3C3C"/>
<path fill-rule="evenodd" clip-rule="evenodd" d="M13.8851 21.2187C15.5487 21.4409 15.2994 23.6355 14.0585 23.8035L11.9343 24.0961C11.8259 24.9144 11.3274 25.6676 10.6338 25.7489L8.28739 26.0198L8.20068 20.4492L13.8851 21.2187Z" fill="#3C3C3C"/>
<path fill-rule="evenodd" clip-rule="evenodd" d="M14.5081 21.719C14.8495 21.7461 14.9904 22.1905 15.0013 22.4885H8.23847L8.2168 21.2422L14.5081 21.719Z" fill="#4B4B4B"/>
<path fill-rule="evenodd" clip-rule="evenodd" d="M7.97839 20.4414C9.46317 20.4414 10.6716 21.6932 10.6716 23.243C10.6716 24.7874 9.46859 26.0445 7.97839 26.0445C6.4882 26.0445 5.27979 24.7874 5.27979 23.243C5.27979 21.6932 6.4882 20.4414 7.97839 20.4414Z" fill="#B2B2B2"/>
<path fill-rule="evenodd" clip-rule="evenodd" d="M7.97851 20.8242C9.25737 20.8242 10.2978 21.9026 10.2978 23.241C10.2978 24.5741 9.25737 25.6579 7.97851 25.6579C6.69424 25.6579 5.65381 24.5795 5.65381 23.241C5.65381 21.908 6.69424 20.8242 7.97851 20.8242Z" fill="#4B4B4B"/>
<path fill-rule="evenodd" clip-rule="evenodd" d="M8.99715 21.0728C9.76663 21.4684 10.2977 22.2921 10.2977 23.2404C10.2977 24.1941 9.76663 25.0178 8.99715 25.408C8.83458 25.4513 8.65576 25.473 8.47694 25.473C7.2902 25.473 6.33105 24.4759 6.33105 23.2404C6.33105 22.0049 7.2902 21.0078 8.47694 21.0078C8.66118 21.0078 8.83458 21.0349 8.99715 21.0728Z" fill="#6EA6B8"/>
<path fill-rule="evenodd" clip-rule="evenodd" d="M9.7881 22.9055C9.7881 23.8484 9.16493 24.645 8.31958 24.8618C7.81562 24.9918 7.12742 24.7696 6.84564 24.3253C6.64514 24.011 6.52051 23.6263 6.52051 23.2198C6.52051 22.1144 7.38753 21.2148 8.44963 21.2148C9.36001 21.2148 9.7881 22.1035 9.7881 22.9055Z" fill="#9FD4E6"/>
<path fill-rule="evenodd" clip-rule="evenodd" d="M9.39804 23.6365C9.59312 23.7123 9.66899 23.9616 9.56603 24.2C9.46307 24.4439 9.21922 24.574 9.01872 24.5035C8.81822 24.4276 8.74778 24.1784 8.85073 23.9399C8.95369 23.7015 9.20296 23.5715 9.39804 23.6365ZM7.9512 21.7128C8.29801 21.8428 8.43348 22.2818 8.24924 22.7044C8.06499 23.1271 7.64232 23.3655 7.29551 23.2355C6.9487 23.1108 6.81323 22.6665 6.99747 22.2438C7.18172 21.8266 7.60439 21.5881 7.9512 21.7128Z" fill="#EAF4F7"/>
<path fill-rule="evenodd" clip-rule="evenodd" d="M10.0756 20.7014C10.5308 20.7664 11.0618 21.4763 11.2352 21.9152C11.3924 22.3162 11.4791 22.766 11.4791 23.2428C11.4791 23.8118 11.3544 24.3483 11.1323 24.8035C10.9372 25.2153 10.4061 25.7789 10.0539 25.8222L9.81006 25.8493C10.1027 25.7138 10.3628 25.4917 10.585 25.2207C10.9805 24.7113 11.2352 24.0177 11.2352 23.2428C11.2352 22.4679 10.986 21.7743 10.585 21.2649C10.3899 21.0211 10.1569 20.8152 9.89676 20.6797L10.0756 20.7014Z" fill="#666666"/>
<path fill-rule="evenodd" clip-rule="evenodd" d="M11.3975 22.481H11.2295C11.1374 22.0854 10.9857 21.7277 10.7852 21.4297L10.9748 21.4459C11.0886 21.6085 11.1753 21.7765 11.2349 21.912C11.3054 22.0908 11.3596 22.2859 11.3975 22.481Z" fill="#999999"/>
<path fill-rule="evenodd" clip-rule="evenodd" d="M8.17871 26.8883V27.1593C8.17871 27.6958 8.35753 28.178 8.83982 28.449C9.70684 28.9313 11.2133 28.4923 11.2133 27.3544V26.845C11.2133 26.7149 11.1103 26.612 10.9857 26.6174L8.41172 26.6607C8.28167 26.6607 8.17871 26.7637 8.17871 26.8883Z" fill="#3C3C3C"/>
<path fill-rule="evenodd" clip-rule="evenodd" d="M8.41162 26.9374V27.1596C8.41162 27.6093 8.54709 28.0212 8.95893 28.2488C9.67422 28.6443 10.9856 28.3138 10.9856 27.3492L10.991 26.8832C10.991 26.8669 10.9856 26.8615 10.9748 26.8507C10.9693 26.8453 10.9531 26.8398 10.9422 26.8398L8.45497 26.8886C8.42788 26.8886 8.41162 26.9103 8.41162 26.9374Z" fill="#3C3C3C"/>
<path fill-rule="evenodd" clip-rule="evenodd" d="M8.47168 26.9676V27.1844C8.47168 27.5474 8.58006 27.878 8.91061 28.0622C9.48501 28.382 10.5471 28.111 10.5471 27.3415L10.5525 26.973C10.5525 26.9568 10.5471 26.9459 10.5363 26.9405C10.5309 26.9351 10.5146 26.9297 10.5038 26.9297L8.47168 26.9676C8.47168 26.9622 8.47168 26.9622 8.47168 26.9676Z" fill="#4B4B4B"/>
<path fill-rule="evenodd" clip-rule="evenodd" d="M17.3801 21.6484L17.819 21.7622C18.0195 21.811 18.1604 21.9898 18.1604 22.2445V25.1761C18.1604 25.4308 18.0195 25.6042 17.819 25.6584L17.3584 25.7776L17.3801 21.6484Z" fill="#666666"/>
<path fill-rule="evenodd" clip-rule="evenodd" d="M18.1603 22.2453V22.8414H17.3745L17.3799 22.1641L18.1603 22.2453Z" fill="#7F7F7F"/>
<path fill-rule="evenodd" clip-rule="evenodd" d="M13.2187 21.8144L17.2232 21.641C17.5375 21.6301 17.7489 21.8848 17.7489 22.1503V25.2662C17.7489 25.5317 17.5321 25.7864 17.2232 25.7756L13.2187 25.6076C12.9477 25.5968 12.731 25.3692 12.731 25.0982V22.3183C12.731 22.0474 12.9477 21.8198 13.2187 21.8144Z" fill="#666666"/>
<path fill-rule="evenodd" clip-rule="evenodd" d="M13.2237 21.9689C13.0341 21.9743 12.8823 22.1315 12.8823 22.3265V25.1064C12.8823 25.2961 13.0286 25.4532 13.2237 25.4641L17.2283 25.6321C17.4342 25.6375 17.5968 25.4803 17.5968 25.2744V22.1586C17.5968 21.9581 17.4342 21.7955 17.2283 21.8009L13.2237 21.9689Z" fill="#B2B2B2"/>
<path fill-rule="evenodd" clip-rule="evenodd" d="M13.2237 21.9665C13.0341 21.9719 12.8823 22.1291 12.8823 22.3242V23.9661H17.5968V22.1507C17.5968 21.9502 17.4342 21.7877 17.2283 21.7931L13.2237 21.9665Z" fill="#CCCCCC"/>
<path fill-rule="evenodd" clip-rule="evenodd" d="M12.7524 22.6503V24.7636C12.7741 24.7691 12.7958 24.7691 12.8175 24.7691L15.6949 24.8612C16.9738 24.9045 16.8437 22.5094 15.6949 22.5473L12.8175 22.6394C12.7958 22.6449 12.7741 22.6503 12.7524 22.6503Z" fill="#A35A15"/>
<path fill-rule="evenodd" clip-rule="evenodd" d="M12.6764 22.6433L15.5376 22.5512C16.681 22.5133 16.811 24.9084 15.5376 24.8651L12.6764 24.773C12.4813 24.7676 12.3296 24.6429 12.3296 24.4858V22.9305C12.3296 22.7734 12.4813 22.6488 12.6764 22.6433Z" fill="#CD6C13"/>
<path fill-rule="evenodd" clip-rule="evenodd" d="M12.5788 22.7489C12.4867 22.7544 12.335 22.814 12.335 22.9332V23.9845H15.9494C16.0306 23.9845 16.1553 23.9357 16.1553 23.784C16.1607 23.2258 15.8843 22.6352 15.3695 22.6568L12.5788 22.7489Z" fill="#FF9701"/>
<path fill-rule="evenodd" clip-rule="evenodd" d="M13.9173 23.0239L14.9468 23.6417C14.9739 23.6579 14.9902 23.685 14.9902 23.7175C14.9902 23.75 14.9739 23.7771 14.9468 23.7934L13.9173 24.4708C13.8847 24.4924 13.8522 24.4924 13.8251 24.4762C13.7926 24.4599 13.7764 24.4274 13.7764 24.4003V23.1052C13.7764 23.0727 13.798 23.0402 13.8251 23.0239C13.8522 23.0077 13.8847 23.0077 13.9173 23.0239Z" fill="#CD6C13"/>
<path fill-rule="evenodd" clip-rule="evenodd" d="M13.7981 23.0084L14.8277 23.6262C14.8548 23.6425 14.8711 23.6695 14.8711 23.7021C14.8711 23.7346 14.8548 23.7671 14.8277 23.7833L13.7981 24.4553C13.7656 24.477 13.7331 24.477 13.706 24.4607C13.6735 24.4445 13.6572 24.4119 13.6572 24.3794V23.0897C13.6572 23.0572 13.6735 23.0247 13.706 23.0084C13.7331 22.9868 13.7656 22.9868 13.7981 23.0084Z" fill="#D3E8EF"/>
<path fill-rule="evenodd" clip-rule="evenodd" d="M13.7603 23.1016V23.9361H14.3834L14.7519 23.6976L13.7603 23.1016Z" fill="white"/>
<path fill-rule="evenodd" clip-rule="evenodd" d="M12.3296 23.1641L12.9473 23.2833C13.034 23.2995 13.0991 23.3862 13.0991 23.4838V24.0202C13.0991 24.1232 13.034 24.2045 12.9473 24.2207L12.3296 24.34V23.1641Z" fill="#CD6C13"/>
<path fill-rule="evenodd" clip-rule="evenodd" d="M12.2106 23.1226L12.7904 23.2201C12.8934 23.2364 12.9692 23.3231 12.9692 23.4206V23.9571C12.9692 24.0601 12.8934 24.1468 12.7904 24.1576L12.2052 24.2335C12.1401 24.2389 12.0859 24.1955 12.0859 24.1359V23.2256C12.0914 23.1605 12.1455 23.1118 12.2106 23.1226Z" fill="#4B4B4B"/>
<path fill-rule="evenodd" clip-rule="evenodd" d="M12.189 23.2188V23.6848H12.8176C12.8447 23.6848 12.8663 23.6631 12.8663 23.636V23.4192C12.8663 23.3705 12.823 23.3271 12.7742 23.3217L12.189 23.2188Z" fill="#666666"/>
<path fill-rule="evenodd" clip-rule="evenodd" d="M12.8013 19.9155C13.0397 19.6716 13.8254 19.5795 14.1289 19.715C14.3565 19.8179 14.5407 20.013 14.6599 20.2244C14.8225 20.5116 14.9309 20.8259 14.7466 21.1347C14.5136 21.5195 13.5436 21.4003 13.1535 21.254C13.0072 21.1998 12.7904 20.7933 12.7471 20.5874C12.85 20.2948 12.8067 20.2569 12.8013 19.9155Z" fill="#9A4C18"/>
<path fill-rule="evenodd" clip-rule="evenodd" d="M12.9043 20.5574C12.9747 20.6983 13.056 20.9692 13.2457 21.0505C13.6738 21.251 14.4216 21.1589 14.5191 21.0234C14.7196 20.7362 14.4812 20.1239 14.026 19.918C13.7822 19.8096 13.0994 19.9234 12.9585 20.0697C12.9639 20.2973 12.9531 20.4057 12.9043 20.5574Z" fill="#E5895B"/>
<path fill-rule="evenodd" clip-rule="evenodd" d="M14.5625 20.5574C14.4866 20.3027 14.297 20.0372 14.026 19.918C13.7822 19.8096 13.0994 19.9234 12.9585 20.0697C13.3216 20.5303 13.7009 20.6116 14.5625 20.5574Z" fill="#FAD395"/>
<path fill-rule="evenodd" clip-rule="evenodd" d="M11.6091 19.5738C11.9505 19.4437 12.6279 19.4058 12.8717 19.525C13.1319 19.6496 13.3269 19.8826 13.4624 20.1319C13.6358 20.4733 13.7442 20.8364 13.522 21.1723C13.2348 21.6113 11.9126 21.53 11.7067 21.2374C11.582 21.0585 11.3111 20.5492 11.3924 20.1536L11.6091 19.5738Z" fill="#9A4C18"/>
<path fill-rule="evenodd" clip-rule="evenodd" d="M11.9505 21.0969C12.4327 21.3516 13.1535 21.1999 13.2672 21.0481C13.5111 20.7284 13.2618 20.0077 12.747 19.7585C12.5249 19.6501 11.9776 19.6934 11.6849 19.7964C11.6795 19.8181 11.6741 19.8452 11.6687 19.8668C11.6362 19.9969 11.5928 20.1269 11.544 20.257C11.5332 20.3816 11.6741 20.9506 11.9505 21.0969Z" fill="#E5895B"/>
<path fill-rule="evenodd" clip-rule="evenodd" d="M13.3324 20.5156C13.262 20.223 13.0507 19.9087 12.7472 19.7624C12.525 19.654 11.9777 19.6973 11.6851 19.8003C11.6797 19.822 11.6743 19.8491 11.6688 19.8707C11.658 19.9195 11.6417 19.9737 11.6255 20.0225C11.994 20.4506 12.4329 20.5373 13.3324 20.5156Z" fill="url(#paint12_linear_47_36838)"/>
<path fill-rule="evenodd" clip-rule="evenodd" d="M22.1921 23.4734L20.3768 19.3822L29.3125 17.1875L29.2638 18.2008L28.1963 19.7615C27.7411 20.3305 27.4268 20.8561 27.3943 21.0891L27.1612 22.7473L27.9903 24.1074L25.4326 27.6135L20.8374 27.5755L20.2847 25.7602L22.1921 23.4734Z" fill="#9A4C18"/>
<path fill-rule="evenodd" clip-rule="evenodd" d="M20.6045 25.8246L21.0434 27.2823L25.281 27.3148L27.6382 24.0852L26.8525 22.7847L27.1126 20.9206C27.1614 20.5737 28.2397 19.1161 29.226 17.8047L20.7833 19.5821L22.5282 23.5108L20.6045 25.8246Z" fill="#E5895B"/>
<path fill-rule="evenodd" clip-rule="evenodd" d="M20.6045 25.8264L20.9892 27.1107L22.1868 27.2949L24.0292 27.3112L25.3243 25.6205C25.6116 24.7318 25.7958 23.8485 25.7741 22.8948C25.9367 22.51 26.1263 22.1957 26.2889 21.8164C25.3081 22.8297 24.2081 23.6372 23.1405 23.9785C22.8858 23.8756 22.707 23.6805 22.5282 23.5179L20.6045 25.8264Z" fill="url(#paint13_linear_47_36838)"/>
<path fill-rule="evenodd" clip-rule="evenodd" d="M20.48 24.0319L21.5313 23.7501L22.1924 23.4683C22.2954 23.9127 22.5771 24.6009 23.0269 24.8447C24.2624 24.6605 26.1699 23.7013 27.1561 22.7422L29.199 23.7393C29.4375 23.7176 29.833 23.7718 30.1798 23.9235L30.104 28.5079C28.8576 29.6404 28.0719 30.101 27.0531 30.9735C26.728 31.8568 26.5817 32.5341 26.5546 33.0598C26.6847 33.3524 26.7551 33.5366 26.7985 33.8347C25.6551 34.4795 24.7989 34.6692 23.5742 34.9076C21.683 34.8805 19.3529 34.5337 18.3721 33.1736C18.6213 32.4149 18.8273 31.976 18.979 31.2824C18.9736 30.2257 18.7785 29.2069 18.41 27.4079C18.4534 26.8009 18.6539 26.0965 19.3475 25.7822L20.2145 24.3191C20.247 24.1674 20.2958 24.0807 20.48 24.0319Z" fill="#4B4B4B"/>
<path fill-rule="evenodd" clip-rule="evenodd" d="M20.2142 24.3254C19.125 25.2791 18.7673 25.951 18.6318 27.1865C18.7619 27.9452 19.0057 28.8393 19.0979 29.6034C19.1304 29.896 19.2713 31.229 19.2225 31.4458C19.0762 32.0852 18.9136 32.5296 18.7077 33.1419C19.7265 34.372 22.0512 34.5996 23.5468 34.6213C24.0561 34.5237 24.5601 34.4207 25.0586 34.2744C25.5572 34.1281 26.0232 33.933 26.4784 33.6838C26.435 33.4995 26.2616 33.1202 26.2616 33.1202C26.2942 32.4591 26.4459 31.8576 26.6572 31.2344C26.473 31.3482 26.3267 31.4458 26.1912 31.5162C26.2887 31.2724 26.6247 30.9418 26.8686 30.7576C27.5568 30.2374 28.2016 29.7605 28.8464 29.2024L29.7893 28.4058L28.9006 23.9189L27.2099 23.0898C26.1858 24.0002 24.3596 24.9431 23.0645 25.1328C22.9453 25.149 22.9886 25.1544 22.8911 25.1003C22.463 24.8727 22.1704 24.347 22.0078 23.8647L21.6176 24.0273L20.2142 24.3254Z" fill="url(#paint14_linear_47_36838)"/>
<path fill-rule="evenodd" clip-rule="evenodd" d="M20.2142 24.3254C19.125 25.2791 18.7673 25.951 18.6318 27.1865C18.7185 27.6959 19.0328 28.4762 19.358 28.991C21.157 28.5413 22.3546 28.7905 24.1429 29.3866C25.3296 29.1536 26.5759 28.6442 27.2099 28.2215C27.275 26.7368 27.676 25.951 28.543 25.0081L29.3125 26.0052L28.8952 23.9189L27.2045 23.0898C26.1804 24.0002 24.3542 24.9431 23.0591 25.1328C22.9399 25.149 22.9832 25.1544 22.8857 25.1003C22.4576 24.8727 22.165 24.347 22.0024 23.8647L21.6122 24.0273L20.2142 24.3254Z" fill="white"/>
<path fill-rule="evenodd" clip-rule="evenodd" d="M28.8521 29.2039C29.1772 28.9438 29.4915 28.6837 29.7949 28.4074L29.0905 24.8634L28.4131 24.793C26.5544 26.2236 26.8579 28.4995 27.2047 29.6754C27.286 29.9788 28.6407 29.3665 28.8521 29.2039Z" fill="#CCCCCC"/>
<path fill-rule="evenodd" clip-rule="evenodd" d="M19.8568 29.9734C21.0923 29.7675 22.5337 29.8379 23.7638 30.6345C24.452 30.4773 25.0589 30.1955 25.6496 29.8487C25.6333 30.2877 25.6604 30.602 25.6496 31.0409L25.1619 31.6316L25.1402 33.0459C24.8151 33.7287 24.2677 34.2977 23.5199 34.6282C22.0243 34.6011 19.7213 34.3681 18.7134 33.1488C18.9193 32.5365 19.0819 32.0922 19.2282 31.4527C19.2769 31.236 19.1361 29.9029 19.1035 29.6103C19.0819 29.4477 19.0548 29.2852 19.0277 29.1172C19.2336 29.3827 19.4883 29.6374 19.8568 29.9734Z" fill="url(#paint15_linear_47_36838)"/>
<path fill-rule="evenodd" clip-rule="evenodd" d="M26.3921 33.4254C25.5956 33.8101 24.5064 34.2111 23.699 34.2761C21.6669 34.2707 20.0629 33.9835 18.7894 32.9323C18.784 32.8997 18.7949 32.8618 18.822 32.8293C20.2038 33.8806 21.7373 34.1678 23.7044 34.1515C24.6148 34.0485 25.4384 33.7613 26.3542 33.317C26.3867 33.3441 26.3976 33.382 26.3921 33.4254ZM21.6452 24.0182C21.9432 24.6955 22.263 25.2483 22.9186 25.5788C24.2354 25.3621 26.5168 24.2187 27.5735 23.2704C27.6114 23.2649 27.6439 23.2866 27.6656 23.3191C26.5764 24.2945 24.2734 25.465 22.9186 25.6818L22.8861 25.6763C22.2033 25.335 21.862 24.7714 21.5531 24.0398C21.5802 24.029 21.6127 24.0236 21.6452 24.0182Z" fill="#999999"/>
<path fill-rule="evenodd" clip-rule="evenodd" d="M31.3884 25.45C31.8544 25.9106 32.2012 26.2033 32.7323 26.588L32.7973 26.653C33.816 28.0619 31.4317 31.8497 28.9986 30.5871L28.8903 30.4896C28.4513 29.8502 28.0666 29.3245 27.5626 28.8477C27.373 28.6743 27.2375 28.4196 27.2158 28.1812L27.5301 26.3929C27.2321 24.7293 28.5164 23.4992 30.1854 23.8948C30.7544 24.1712 31.2366 24.8269 31.3884 25.45Z" fill="#7F3E13"/>
<path fill-rule="evenodd" clip-rule="evenodd" d="M30.2284 24.2833C28.4997 23.568 26.5002 24.8793 27.2154 28.1849C27.9904 28.781 28.5973 29.5396 29.1337 30.3308C29.4209 30.4771 29.7081 30.5475 29.9845 30.5529C29.5889 30.4391 29.3397 30.282 29.2313 30.0598C28.5431 28.6726 32.3038 25.7518 32.7427 27.5671C32.7536 27.2799 32.6994 27.0198 32.5639 26.8302C32.1521 26.5321 31.7023 26.169 31.3121 25.7897C31.2959 26.0607 31.2092 26.2395 31.09 26.4996C31.2688 25.4429 30.884 24.7981 30.2284 24.2833Z" fill="url(#paint16_linear_47_36838)"/>
<path fill-rule="evenodd" clip-rule="evenodd" d="M30.2283 24.2823C28.1583 23.5724 27.0853 25.5232 28.0282 27.3386C28.5539 27.8317 28.8627 28.1677 29.3504 28.6174C30.0278 27.5499 31.8811 26.2548 32.656 27.0026C32.6343 26.943 32.6018 26.8888 32.5638 26.8292C32.152 26.5312 31.7022 26.1681 31.3121 25.7888C31.2958 26.0597 31.2091 26.2385 31.0899 26.4986C31.2687 25.442 30.884 24.7971 30.2283 24.2823Z" fill="url(#paint17_linear_47_36838)"/>
<path fill-rule="evenodd" clip-rule="evenodd" d="M28.3911 25.6636C29.2906 26.2326 30.1793 26.6336 31.0897 26.4927C31.171 26.07 31.1602 25.734 31.068 25.4414C30.873 26.0917 29.9247 25.967 28.3911 25.6636Z" fill="#DE7721"/>
<path fill-rule="evenodd" clip-rule="evenodd" d="M28.6459 29.6589C28.6784 29.7348 28.7218 29.7781 28.7651 29.8215C28.4779 28.3367 31.1711 26.1095 32.3524 26.6785C32.2928 26.6135 32.2224 26.5485 32.1248 26.5051C30.8351 26.2883 28.5809 28.2121 28.6459 29.6589Z" fill="#B85A1B"/>
<path fill-rule="evenodd" clip-rule="evenodd" d="M32.3958 27.2502C32.8618 27.5211 33.2953 28.1605 33.6313 28.6807C33.9022 29.098 34.0919 29.396 34.352 29.6887L33.3332 32.7341C33.1327 32.7395 32.8239 32.669 32.45 32.5173C31.48 31.9646 30.2553 30.6966 29.3774 29.7212C29.3829 29.6941 29.3829 29.667 29.3829 29.6399C29.5021 28.4477 31.48 26.9142 32.3958 27.2502Z" fill="#9A4C18"/>
<path fill-rule="evenodd" clip-rule="evenodd" d="M31.8917 27.2188C33.1489 28.0858 33.4578 29.0829 34.1135 29.8686L33.2356 32.4642C33.008 32.4426 32.8671 32.3884 32.6016 32.2908C31.7833 31.8302 30.6887 30.7519 29.4424 29.3592C29.7458 28.4163 30.9922 27.3759 31.8917 27.2188Z" fill="#E5895B"/>
<path fill-rule="evenodd" clip-rule="evenodd" d="M32.1681 27.4297C33.1923 28.2425 33.5066 29.1529 34.1135 29.8736L33.0839 30.8978C31.9893 29.9603 30.9922 29.1962 30.6562 28.6544C30.9435 28.0583 31.3878 27.7223 32.1681 27.4297Z" fill="url(#paint18_linear_47_36838)"/>
<path fill-rule="evenodd" clip-rule="evenodd" d="M33.3497 30.3282L33.6477 30.6696L34.1137 29.873L34.3197 29.6562C34.5852 29.9164 34.7911 30.1169 34.9049 30.4745C35.0079 30.7996 35.1 32.1327 34.6936 32.6421C34.3413 33.0756 33.7453 33.6391 32.9162 33.9643C31.4747 34.5278 29.757 35.2594 28.5377 35.85L27.8062 32.382C29.6161 31.6829 29.8382 31.179 30.4289 30.3824C31.1279 29.4395 32.6398 29.4558 33.3497 30.3282Z" fill="#9A4C18"/>
<path fill-rule="evenodd" clip-rule="evenodd" d="M34.1137 29.8672L33.3496 30.2248C32.087 29.5529 31.0737 30.0243 30.6944 30.4958C30.2988 30.9889 30.017 31.8288 28.0337 32.4249L28.3968 35.4974L32.9649 33.6225C33.6422 33.3461 34.2546 32.75 34.4605 32.4791C34.7206 32.154 34.7911 31.1027 34.6339 30.5987C34.558 30.3549 34.428 30.1706 34.1137 29.8672Z" fill="#E5895B"/>
<path fill-rule="evenodd" clip-rule="evenodd" d="M34.1137 29.8672C33.7886 29.8726 33.5393 29.9972 33.3496 30.2248C32.087 29.5529 31.0737 30.0243 30.6944 30.4958C30.2988 30.9889 30.017 31.8288 28.0337 32.4249L28.2071 34.159C30.5914 33.5845 32.7698 32.6471 34.7206 31.2815C34.7206 31.0214 34.6935 30.7721 34.6393 30.5933C34.558 30.3549 34.428 30.1706 34.1137 29.8672Z" fill="url(#paint19_linear_47_36838)"/>
<path fill-rule="evenodd" clip-rule="evenodd" d="M29.475 32.4807C28.9332 31.2669 28.6622 30.6763 28.7272 29.2728C28.7327 29.1264 28.5701 28.8338 28.3804 28.7634C28.0174 28.6333 27.34 28.6713 26.9824 28.8122C26.7548 28.9043 26.6626 29.0831 26.5814 29.3053C26.4459 29.6792 26.3917 30.1885 26.435 30.3511C26.6084 31.0122 26.836 31.5975 26.8902 32.3019C27.4971 32.5729 28.3425 32.7734 28.944 33.0497L29.475 32.4807Z" fill="#944A26"/>
<path fill-rule="evenodd" clip-rule="evenodd" d="M29.1877 32.4312C28.9601 31.9381 28.7054 31.4612 28.5971 30.9193C28.4778 30.3395 28.4453 29.8789 28.4778 29.2882C28.4833 29.1744 28.3532 29.0065 28.234 28.9685C27.9522 28.8764 27.4428 28.9035 27.1556 28.9794C26.9822 29.0281 26.9335 29.0444 26.8576 29.2015C26.7004 29.505 26.6246 30.0469 26.6408 30.2311C26.6896 30.7134 27.0527 31.2445 27.1231 32.1277C27.6704 32.3608 28.3424 32.5179 28.8897 32.7509L29.1877 32.4312Z" fill="#E5895B"/>
<path fill-rule="evenodd" clip-rule="evenodd" d="M28.2232 29.212C28.2557 29.0602 28.0281 28.9248 27.9252 28.9248C27.6596 28.9031 27.3508 28.9356 27.1503 28.9898C26.9769 29.0386 26.9281 29.0548 26.8522 29.212C26.6951 29.5154 26.6192 30.0573 26.6355 30.2415C26.7276 30.6696 28.1419 30.4962 28.1473 30.2903C28.169 29.8785 28.1582 29.5859 28.2232 29.212Z" fill="url(#paint20_linear_47_36838)"/>
<path fill-rule="evenodd" clip-rule="evenodd" d="M24.7986 33.3376C24.7011 33.2346 24.5927 33.0938 24.5439 32.9854C24.4789 32.8391 24.3814 32.1834 24.3705 31.907C24.3651 31.7824 24.4139 31.6632 24.4952 31.571C25.1454 30.8558 26.343 30.4764 27.2751 30.4927C27.9687 30.6011 28.8682 31.2188 29.3342 31.5765C29.4264 31.6469 29.4264 32.0804 29.4589 32.2105L29.15 32.5194L29.1229 34.714L29.849 34.3184C29.9141 34.9199 29.6485 35.283 29.5076 35.3968C29.1121 35.7111 28.1746 36.1717 27.5568 36.3993C27.0366 36.4968 25.7957 36.3343 25.3188 36.1717C25.0912 35.9278 24.8962 35.4401 24.8311 35.115C24.8528 35.012 24.8799 34.8549 24.9503 34.7574C24.9233 34.6327 24.7932 33.4351 24.7986 33.3376Z" fill="#944A26"/>
<path fill-rule="evenodd" clip-rule="evenodd" d="M29.5075 31.918C30.2066 32.6767 30.0982 34.5028 29.5075 35.1206C28.9223 35.5649 28.2341 35.8901 27.5242 36.1231C26.9335 36.2044 26.099 36.1177 25.4704 35.9768C25.2808 35.7871 25.102 35.2561 25.0749 34.996C25.0911 34.9038 25.1291 34.8063 25.2049 34.6708C25.1291 34.4324 25.0315 33.4245 25.0532 33.1915C24.9448 33.0885 24.831 32.991 24.7714 32.8717C24.6684 32.6604 24.6251 32.0481 24.6143 31.8476C24.6143 31.8096 24.6305 31.7663 24.6522 31.7392C25.2483 31.0781 26.3754 30.7421 27.3129 30.7584C28.3587 31.1485 28.7543 31.4791 29.5075 31.918Z" fill="url(#paint21_linear_47_36838)"/>
<path fill-rule="evenodd" clip-rule="evenodd" d="M27.5242 36.1227C27.1557 36.1715 26.6951 36.1552 26.2508 36.1065C26.0123 34.9631 25.9527 33.6626 26.0123 33.0177C26.2562 32.9147 26.5542 32.828 27.0203 32.8172C26.6138 32.6167 26.1478 32.633 25.736 32.6655C25.671 32.2103 25.6493 31.7822 25.6059 31.3162C25.6005 31.262 25.6439 31.1319 25.698 31.0561C26.2183 30.8501 26.8035 30.7526 27.3237 30.758C27.405 30.9531 27.4917 31.1482 27.5784 31.3433C27.7356 31.7172 27.8006 32.1182 27.8223 32.5192C27.7952 32.6926 27.7301 32.8606 27.6597 33.0177C27.6868 33.8685 27.6434 34.6596 27.5838 35.4562C27.5567 35.6838 27.5405 35.906 27.5242 36.1227Z" fill="url(#paint22_linear_47_36838)"/>
<path fill-rule="evenodd" clip-rule="evenodd" d="M25.1235 34.5801C25.8117 34.6126 26.5379 34.5801 27.2152 34.515C27.1123 34.6072 26.9985 34.683 26.9009 34.7047C26.2832 34.7752 25.66 34.786 25.0368 34.7589C25.0639 34.6993 25.091 34.6397 25.1235 34.5801ZM24.9014 33.1712C25.6383 32.9436 26.3699 32.7864 26.9985 32.7539C27.1827 32.8027 27.2532 32.8244 27.3941 32.8894C26.5812 32.9381 25.8117 33.1224 24.9285 33.3771C24.923 33.3121 24.9068 33.2416 24.9014 33.1712Z" fill="#944A26"/>
<path fill-rule="evenodd" clip-rule="evenodd" d="M27.5728 31.3438C27.6649 31.7014 27.6974 32.1187 27.7082 32.5142C27.6811 32.731 27.6053 32.8827 27.5728 32.9965C27.6161 33.8744 27.5673 34.6276 27.5782 35.4567C27.7082 35.1586 27.7407 33.3596 27.7407 33.0073C27.7895 32.8665 27.8329 32.731 27.86 32.5522C27.8545 32.2595 27.8274 31.9452 27.7841 31.631C27.7191 31.528 27.6811 31.4521 27.5728 31.3438Z" fill="#D1794D"/>
<path fill-rule="evenodd" clip-rule="evenodd" d="M14.2045 9.46706C13.9877 9.28824 13.8089 9.08774 13.6246 8.8764C13.2995 7.94977 13.2291 7.16945 13.3483 6.22656C14.1069 7.0123 14.8222 7.66799 15.9493 7.95519L16.242 8.03105L15.5213 10.4045C14.5079 10.3341 14.4212 10.2691 13.6138 9.67298L14.1503 9.49957C14.1665 9.48332 14.1882 9.4779 14.2045 9.46706Z" fill="#7F3E13"/>
<path fill-rule="evenodd" clip-rule="evenodd" d="M15.8791 8.24169C15.1638 8.05203 14.4756 7.70522 13.6086 6.91406C13.6032 7.56433 13.717 8.23627 13.8904 8.73481C14.1505 9.03827 14.4648 9.33631 14.7736 9.53681C14.5677 9.65602 14.4593 9.69937 14.2372 9.7644C14.6165 10.0462 14.92 10.0679 15.3101 10.0895L15.8791 8.24169Z" fill="#B85A1B"/>
<path fill-rule="evenodd" clip-rule="evenodd" d="M15.8789 8.24169C15.1636 8.05203 14.4754 7.70522 13.6084 6.91406C13.8143 7.47763 14.134 8.03577 14.6055 8.43135C14.4321 8.42052 14.3454 8.40426 14.1395 8.36091C14.4917 8.789 14.9414 9.13581 15.5158 9.41217L15.8789 8.24169Z" fill="#FF9626"/>
<path fill-rule="evenodd" clip-rule="evenodd" d="M31.0247 14.7782C30.9867 15.6073 30.9596 16.8862 30.6508 17.6069C30.4015 18.1921 28.597 19.8828 27.5186 20.7498L27.394 20.0996L26.9388 20.4193C26.294 21.4434 25.3077 22.5164 24.3269 22.9607C23.3732 23.3888 20.4524 23.6273 19.6504 22.977C19.1302 22.5489 18.5992 21.709 18.2523 21.1237C17.6292 20.0996 16.838 19.5089 16.1823 18.0729C15.7813 17.1842 15.6675 16.0787 15.8843 15.125C15.7217 14.2038 15.3207 13.3747 14.936 12.5294L14.9143 12.4535C14.5729 10.3022 14.7626 7.5494 16.3286 5.86955C17.7213 4.38477 19.9268 3.534 21.8993 3.22513C24.0126 2.89999 26.2723 3.21971 28.2068 4.14634C29.865 4.9375 31.339 6.27054 31.8267 8.09671C32.2873 9.81992 32.1247 11.6082 31.5286 13.2718L31.0247 14.7782Z" fill="#9A4C18"/>
<path fill-rule="evenodd" clip-rule="evenodd" d="M21.9264 3.59401C26.3753 2.90581 30.6779 4.95415 31.545 8.18381C31.9622 9.74987 31.8647 11.4677 31.2469 13.1855L30.7375 14.7244C30.6996 15.6673 30.6617 16.8486 30.3853 17.4881C30.0927 18.1763 26.4295 21.6877 24.2078 22.6956C23.3733 23.0749 20.5446 23.3242 19.8401 22.7498C19.412 22.3976 19.0869 21.8232 18.5613 20.9561C18.0736 20.1542 17.147 19.2492 16.5455 17.927C16.2366 17.2496 16.0198 16.1821 16.2745 15.1092C16.1119 14.1392 15.7218 13.3155 15.2937 12.3835C14.9523 10.2213 15.104 7.69611 16.5563 6.13547C17.7484 4.86745 19.7155 3.9354 21.9264 3.59401Z" fill="#E5895B"/>
<path fill-rule="evenodd" clip-rule="evenodd" d="M21.9265 3.59375C21.2058 4.74797 20.8589 6.34655 21.2762 7.79339C24.2783 7.33821 25.0532 7.41949 26.6084 7.88551C26.2507 8.67667 26.0882 9.61956 26.1424 10.6708C25.3295 10.9634 24.5655 11.2506 23.9694 11.5162L23.0319 12.6379C24.8635 12.5891 25.3837 12.3778 26.1424 12.4916C26.5705 13.3369 26.9227 14.5182 26.7655 15.6941C27.871 15.2769 28.4725 15.7158 28.4942 16.5612C27.806 17.8346 27.2478 18.6149 26.2995 19.7529C26.6951 19.4223 26.9335 19.2923 27.367 18.9726C26.5054 20.3923 25.5354 21.4598 24.2024 22.7008C23.3679 23.0801 20.5392 23.3294 19.8348 22.755C19.4067 22.4027 19.0815 21.8283 18.5559 20.9613C18.0682 20.1593 17.1416 19.2544 16.5401 17.9321C16.2312 17.2548 16.0145 16.1873 16.2691 15.1143C16.1066 14.1443 15.7164 13.3207 15.2883 12.3886C14.9469 10.2265 15.0987 7.70127 16.5509 6.14063C17.7485 4.86719 19.7156 3.93514 21.9265 3.59375Z" fill="url(#paint23_linear_47_36838)"/>
<path fill-rule="evenodd" clip-rule="evenodd" d="M23.5034 12.0752L23.0374 12.6388C24.869 12.59 25.3892 12.3787 26.1478 12.4925C26.4079 12.9964 26.4242 13.4841 26.5326 14.1453C24.0995 14.4921 23.3029 14.6492 21.5851 15.099C21.0757 15.3591 20.7452 15.5867 20.4797 15.8251C20.2792 15.4566 20.187 15.0773 20.0461 14.66C19.9161 14.2753 19.5259 14.3728 19.4934 14.6926C19.4446 15.2453 19.32 15.7059 19.1412 16.1177C18.6643 15.7926 18.0628 15.6354 17.4234 15.5271L16.7027 15.5921C16.5455 15.4566 16.3992 15.3049 16.2692 15.1152C16.1066 14.1453 15.7164 13.3216 15.2884 12.3895C15.2179 11.9343 15.1691 11.4629 15.1475 10.9915C15.3588 10.8777 15.5918 10.791 15.8519 10.7422C16.9574 11.2245 17.8786 12.0698 18.7564 13.0073C19.1791 13.1428 19.5422 13.0506 19.9161 12.9477C19.6397 12.5792 19.4392 12.1999 19.3634 11.8639C19.7481 12.3028 20.2466 12.5792 20.7343 12.6767L23.5034 12.0752Z" fill="url(#paint24_linear_47_36838)"/>
<path fill-rule="evenodd" clip-rule="evenodd" d="M19.8346 22.7539C19.4065 22.4017 19.0814 21.8273 18.5558 20.9603C18.0681 20.1583 17.1414 19.2533 16.5399 17.9311C16.2311 17.2537 16.0143 16.1862 16.269 15.1133C16.2798 16.3054 16.5128 17.4813 16.9572 18.24C17.4503 19.0799 18.1873 20.0987 18.5829 20.711C19.2656 21.7677 19.4445 22.1849 19.8346 22.7539Z" fill="#FBFAC4"/>
<path fill-rule="evenodd" clip-rule="evenodd" d="M31.713 11.3086C31.686 11.5091 31.6426 11.6771 31.5992 11.883L29.5943 12.8259L29.2204 13.5195L27.3779 14.5979L27.4701 12.9343L31.713 11.3086Z" fill="#B26036"/>
<path fill-rule="evenodd" clip-rule="evenodd" d="M15.4077 11.0723C15.4511 9.55504 15.4131 8.47126 16.5078 7.30078C15.8196 8.74763 15.955 9.52253 16.0851 11.0777L15.4077 11.0723Z" fill="#FBFAC4"/>
<path fill-rule="evenodd" clip-rule="evenodd" d="M30.9708 15.869L30.9166 16.4325C30.8679 16.8715 30.7866 17.2941 30.6511 17.6084C30.3422 18.3346 28.218 19.7868 27.4594 20.4588C27.1559 20.7297 26.5111 21.2283 26.1209 21.5209C26.0721 21.5696 25.9258 21.7376 25.8771 21.7918C25.3948 22.3012 24.8583 22.7293 24.3218 22.9677C23.3681 23.3958 20.4473 23.6342 19.6453 22.984C19.1251 22.5559 18.5941 21.716 18.2473 21.1307C17.6241 20.1065 16.8329 19.5159 16.1772 18.0799C17.0063 18.6164 17.662 18.7356 19.2931 18.1991C19.8296 18.2641 20.2197 18.1937 20.9296 17.8577C22.7612 17.9282 25.1022 17.2941 26.1318 16.6926C26.4569 16.5192 27.0638 15.8473 27.4323 15.7172C27.7737 15.7281 27.9688 15.7823 28.256 15.8744C28.05 15.8961 27.9417 15.9123 27.817 15.9448C28.1042 16.037 28.3372 16.1508 28.5594 16.6601C28.7057 16.1778 28.7328 15.6089 28.722 15.1483L29.8058 13.1758C29.4752 15.1157 29.9629 16.6872 30.9708 15.869ZM27.2806 16.3838C27.1722 17.5055 26.95 18.4375 26.5707 19.2341C26.4515 19.4942 26.6953 18.0745 26.5653 18.2966C26.0288 19.9331 24.8204 21.3962 24.3273 21.5371C23.379 21.8189 23.1351 21.7051 22.6041 21.3962C22.3223 21.4288 21.7262 21.4938 21.3035 21.445C21.5799 21.7593 21.439 21.7701 21.9646 22.1495C21.4227 22.2199 20.805 22.2362 20.3823 21.9327C20.0626 21.5751 19.4828 20.7406 18.9734 20.0849C19.0926 20.3558 19.1522 20.5617 19.3419 20.8977C18.7458 20.2366 17.9817 19.2612 17.7054 18.9577C20.3281 19.1366 25.6386 18.4971 27.2806 16.3838Z" fill="#A86D54" fill-opacity="0.502"/>
<path fill-rule="evenodd" clip-rule="evenodd" d="M29.1064 7.96675C27.6162 7.67955 26.63 7.2352 24.9718 7.2352C22.6525 7.24062 20.6041 8.14558 18.5396 9.03969L23.2161 3.18187C25.5137 2.68333 26.9551 2.91092 29.1606 3.61538C30.7592 4.12476 31.0897 4.23313 32.6883 4.44989C32.3794 4.67748 32.0109 4.9701 31.6804 5.15435L33.0243 5.34943C32.7316 5.54451 32.3469 5.81545 32.0434 5.96176C32.038 7.55492 32.1464 8.69288 32.2548 10.2427C30.8675 11.8033 29.9138 13.4073 28.7217 15.1414C28.9113 13.4561 28.6783 12.2477 28.2936 10.6274C28.0335 10.1451 27.7733 10.0097 27.2694 9.78208C28.1364 9.45153 28.6187 9.14807 29.3123 8.47071C29.1497 8.30814 28.9167 8.22686 28.6079 8.17809C28.8192 8.11848 28.933 8.05887 29.1064 7.96675Z" fill="#663010"/>
<path fill-rule="evenodd" clip-rule="evenodd" d="M19.5801 8.20641C25.7576 5.5349 27.2803 7.69704 30.3528 7.82709C30.0169 7.9734 29.7459 8.0601 29.372 8.18474C29.5237 8.27144 29.6213 8.3744 29.7513 8.50445C29.2203 8.91629 28.7976 9.49069 27.9306 9.80499C28.2503 9.99465 28.3858 10.1735 28.5754 10.5257C28.8789 11.7991 29.1444 13.2351 28.9981 14.2431C29.9193 12.9046 30.8026 11.4469 31.9622 10.141C31.8539 8.56948 31.7509 7.74581 31.7563 6.00634C31.6696 5.97925 31.5558 5.94132 31.442 5.87629C31.7401 5.77875 32.0598 5.6487 32.2278 5.5349C31.6913 5.45904 31.1928 5.38317 30.6888 5.2477C31.209 5.10139 31.6154 4.89005 31.9514 4.64078C29.0306 4.2452 27.3345 2.63579 23.3733 3.50281L19.5801 8.20641Z" fill="#7F3E13"/>
<path fill-rule="evenodd" clip-rule="evenodd" d="M19.5801 8.20339C24.9773 5.86785 27.1069 6.89743 29.5508 7.25508C29.9356 7.17922 30.2336 7.09251 30.6184 6.95704C30.0385 6.94079 29.8001 6.86492 29.372 6.73487C30.3583 6.55063 31.0194 6.35555 31.7617 6.01416C31.675 5.98706 31.5613 5.94913 31.4475 5.8841C31.7455 5.78656 32.0652 5.65651 32.2332 5.54271C31.6967 5.46685 31.1982 5.39098 30.6942 5.25551C31.2144 5.1092 31.6209 4.89786 31.9568 4.64859C29.036 4.25302 27.3399 2.6436 23.3787 3.51063L19.5801 8.20339ZM29.7459 8.50685C29.2149 8.91868 28.7922 9.49308 27.9252 9.80738C29.0957 9.93743 29.7026 9.86699 30.342 9.65565C30.5154 9.46057 30.6129 9.31426 30.7918 9.09209C30.3528 9.30884 30.1469 9.39555 29.6321 9.5256C30.4775 9.14628 31.2686 8.12752 31.5233 7.65066C31.1115 7.96496 30.445 8.26842 29.7459 8.50685Z" fill="#B85A1B"/>
<path fill-rule="evenodd" clip-rule="evenodd" d="M31.941 4.65058C30.0498 4.39048 28.6734 3.62641 26.8635 3.35547C24.9669 4.14121 23.4441 5.47426 22.1924 6.81814C24.1432 6.06492 25.9748 5.8319 28.2778 6.14078C27.5517 5.72894 27.297 5.66392 26.262 5.46884C27.828 5.39297 28.8197 5.66934 30.1798 5.59889C29.6867 5.27376 29.3833 5.02449 28.7601 4.63433C30.0227 4.84566 30.8193 4.91069 31.941 4.65058Z" fill="url(#paint25_linear_47_36838)"/>
<path fill-rule="evenodd" clip-rule="evenodd" d="M28.2505 9.7257C28.6732 9.72028 29.1554 9.64984 29.5564 9.50895C30.0279 9.1242 30.2609 8.85868 30.8407 8.27344C29.8599 8.96706 29.1771 9.38973 28.2505 9.7257Z" fill="#FF9701"/>
<path fill-rule="evenodd" clip-rule="evenodd" d="M15.695 6.05832C15.6245 4.93119 15.722 3.80406 16.058 2.69861C16.5566 1.86952 17.2502 1.21383 17.9275 0.666524C17.6728 1.2626 17.5428 1.9779 17.4561 2.5252C18.8325 1.10004 20.3118 0.444349 22.0351 0C21.4173 0.921212 21.2764 1.30053 20.9513 2.12421C22.9183 1.39807 25.0642 1.40891 27.0638 1.62567C26.083 2.51437 25.1672 3.40307 24.2568 4.45975L23.0105 5.90659L23.574 6.34011L24.1376 6.22089L26.1209 6.38346C24.1538 6.52977 22.1055 7.24506 20.3986 8.30175C20.9079 8.38845 21.2818 8.4318 21.7695 8.43722C20.4311 8.89782 19.5044 9.21754 17.9167 9.47223C16.7679 9.28798 15.5866 8.41554 14.6762 7.33176C14.4323 6.06916 14.6383 5.01248 14.9851 4.06417C15.1097 4.88242 15.2831 5.38096 15.695 6.05832Z" fill="#7F3E13"/>
<path fill-rule="evenodd" clip-rule="evenodd" d="M14.9091 7.16474C14.7737 6.53073 14.7628 5.76667 14.9308 4.99718C15.0826 5.64745 15.3264 6.13515 15.657 6.47654C15.8195 7.05636 16.0417 7.53864 16.2639 8.01551C15.7708 5.76667 15.9387 4.08681 16.3397 2.78086C16.7245 2.19562 17.0171 1.83797 17.4344 1.43697C17.2718 2.02763 17.1092 2.56952 17.0225 3.04096C16.822 3.39861 16.7028 3.73458 16.5944 4.11932C17.6782 2.29316 19.4285 1.11184 21.3793 0.445312C20.3551 2.06014 20.0354 3.58827 20.0679 4.73166C20.2955 3.74 20.431 3.18185 20.7886 2.52075C22.2138 1.98428 24.5277 1.73501 26.2942 1.86506C24.9124 3.12225 23.639 4.66121 23.005 5.90756C24.0996 5.82086 25.1238 6.05387 26.1154 6.38442C24.105 6.2652 21.7857 7.02385 19.5531 8.48153C19.8458 8.52488 20.1167 8.57365 20.4202 8.60075C19.7699 8.77415 18.9245 9.03426 17.9166 9.19141C16.8274 8.90963 16.0742 8.50863 14.9091 7.16474Z" fill="#B85A1B"/>
<path fill-rule="evenodd" clip-rule="evenodd" d="M26.2996 1.86897C24.9178 3.12615 23.6444 4.66512 23.0104 5.91146C24.105 5.82476 25.1291 6.05777 26.1208 6.38833C24.2079 6.25827 22.1704 6.46419 19.8566 7.75931C19.9433 6.3233 20.7019 4.29663 21.4497 3.51631C21.1463 4.35082 21.0704 4.75724 21.0921 5.25036C21.5689 4.16658 22.0891 3.4838 22.8044 2.77934C24.0399 2.3079 25.2158 2.02612 26.2996 1.86897ZM16.0308 6.56715C15.8628 5.02276 16.0308 3.79268 16.3451 2.78476C16.7299 2.19952 17.0225 1.84187 17.4397 1.44088C16.719 2.34041 16.6269 3.27246 16.5998 4.12323C17.6836 2.29706 19.4339 1.11574 21.3847 0.449219C19.6127 1.59802 19.0004 3.48922 18.7565 4.73014C19.1575 4.19367 19.4447 3.87938 19.8511 3.51631C19.8024 5.16908 19.6127 7.07653 19.3201 7.84059C19.2442 6.91938 19.2171 6.42626 19.0871 5.64052C19.0383 6.68095 18.4585 8.44751 17.922 9.20073C17.4289 8.23617 16.8762 7.27161 16.5781 5.78141C16.6269 7.01692 16.7082 7.75931 16.9629 8.65342C16.719 8.46376 16.253 7.21742 16.0308 6.56715ZM14.9308 4.99567C15.0825 5.64594 15.3264 6.13364 15.6569 6.47503C15.7436 6.77307 15.8412 7.05485 15.9495 7.30954C15.7382 7.13613 15.5106 6.93563 15.3372 6.65927C15.2884 6.83268 15.2668 6.91938 15.2613 7.06569C15.0446 6.54005 14.8983 6.009 14.9308 4.99567Z" fill="url(#paint26_linear_47_36838)"/>
<path fill-rule="evenodd" clip-rule="evenodd" d="M16.1986 6.67988C15.9819 5.03254 16.0957 4.05172 16.5617 2.68615C16.3504 3.95418 16.139 5.30348 16.1986 6.67988ZM21.3249 6.6582C21.65 6.42519 21.9914 6.20302 22.4358 6.07296C23.124 5.95917 23.758 5.99168 24.392 6.02419C23.3624 6.12173 22.3328 6.26804 21.3249 6.6582ZM20.9727 6.62027C21.2165 4.98377 22.0348 3.87831 22.8747 2.96252C21.9968 4.38227 21.5254 5.22762 20.9727 6.62027ZM19.515 6.12173C19.4283 5.35225 19.4879 4.52858 19.7805 3.69949C19.7263 4.55025 19.6992 5.38476 19.515 6.12173ZM18.5504 6.19218C18.4366 5.83453 18.312 5.42811 18.2524 5.02712C18.3066 4.07339 18.7076 3.51525 19.1953 2.86498C18.6696 3.91624 18.442 5.03254 18.5504 6.19218ZM16.9302 6.72865C16.7839 6.28972 16.6159 5.55275 16.5454 5.04337C16.773 4.1059 17.4287 3.16844 18.2957 2.28516C17.3637 3.76993 16.8272 4.69656 16.9302 6.72865Z" fill="#FDE049"/>
<path fill-rule="evenodd" clip-rule="evenodd" d="M18.3499 12.5857C18.8701 13.2305 19.0381 14.2439 18.9297 15.1976C18.5071 15.6528 17.3041 15.8804 16.7026 15.5932C16.2311 14.8508 16.0686 13.5502 16.4641 12.7916C16.8489 12.0546 17.808 11.9137 18.3499 12.5857Z" fill="#232323"/>
<path fill-rule="evenodd" clip-rule="evenodd" d="M18.4423 12.839C18.9083 13.4026 19.1738 14.546 19.0655 15.3805C18.5561 15.5972 17.4019 15.7002 16.9413 15.4564C16.5186 14.8061 16.3777 13.6952 16.7408 13.0287C17.093 12.3838 17.9546 12.2538 18.4423 12.839Z" fill="url(#paint27_linear_47_36838)"/>
<path fill-rule="evenodd" clip-rule="evenodd" d="M18.4425 12.839C18.6701 13.1154 18.8543 13.5327 18.9627 13.9878C18.6159 14.8603 16.9794 15.2938 16.5296 13.9824C16.5242 13.6302 16.5892 13.2942 16.7355 13.0287C17.0932 12.3838 17.9548 12.2538 18.4425 12.839Z" fill="white"/>
<path fill-rule="evenodd" clip-rule="evenodd" d="M17.9062 13.0611C18.5022 12.8985 18.9899 13.4296 19.1254 13.9444C19.2609 14.4537 19.1037 15.1582 18.5077 15.3153C17.917 15.4779 17.4239 14.9469 17.2884 14.4321C17.1529 13.9227 17.3155 13.2182 17.9062 13.0611Z" fill="#022740"/>
<path fill-rule="evenodd" clip-rule="evenodd" d="M19.0436 14.598C18.9678 14.9068 18.7673 15.1453 18.4909 15.2211C18.2091 15.297 17.9165 15.1886 17.6943 14.961C17.7702 14.6521 17.9707 14.4137 18.2525 14.3433C18.5288 14.262 18.8215 14.3704 19.0436 14.598Z" fill="url(#paint28_radial_47_36838)"/>
<path fill-rule="evenodd" clip-rule="evenodd" d="M18.0306 13.526C18.3232 13.4502 18.6375 13.6832 18.735 14.0463C18.8326 14.4093 18.6754 14.7724 18.3828 14.8483C18.0902 14.9241 17.7759 14.6911 17.6783 14.328C17.5808 13.9596 17.7379 13.6019 18.0306 13.526Z" fill="#151720"/>
<path fill-rule="evenodd" clip-rule="evenodd" d="M17.3908 13.5099C17.6564 13.4394 17.9219 13.5857 17.9923 13.8404C18.0573 14.0951 17.9002 14.3552 17.6347 14.4256C17.3746 14.4961 17.109 14.3498 17.0386 14.0951C16.9736 13.8458 17.1307 13.5803 17.3908 13.5099Z" fill="white"/>
<path fill-rule="evenodd" clip-rule="evenodd" d="M14.2047 11.5038C14.3673 11.1949 15.0447 10.4634 15.8304 10.1328C16.9629 10.5555 17.624 11.0161 18.1984 11.5309C18.6049 12.1486 18.9733 13.059 18.995 13.5792C17.9763 12.9019 16.7624 11.623 15.6461 11.4225C15.1422 11.6176 14.7141 11.8343 14.2047 12.2408C14.1668 11.9915 14.0963 11.8289 14.2047 11.5038Z" fill="#7F3E13"/>
<path fill-rule="evenodd" clip-rule="evenodd" d="M18.5452 12.6522C18.3988 12.2837 18.2092 11.9152 18.052 11.6605C17.3367 11.0807 16.7352 10.6906 15.8357 10.3438C15.4618 10.5172 14.9416 10.8694 14.6436 11.2108C15.0391 11.0157 15.3697 10.8694 15.6406 10.7881C16.3234 10.9344 17.1742 11.4384 17.4451 11.6389C17.2717 11.6118 17.1742 11.5793 17.0008 11.563C17.5806 11.9532 18.09 12.3216 18.5452 12.6522Z" fill="url(#paint29_linear_47_36838)"/>
<path fill-rule="evenodd" clip-rule="evenodd" d="M26.5487 14.2506C25.8389 14.4078 25.2211 14.7979 24.8039 15.2043C24.1157 15.4482 23.7851 15.4915 23.2486 15.5186C22.2841 15.0526 21.9969 13.5462 22.5713 12.6412C24.1861 12.289 26.0665 12.2077 26.5108 12.3215C26.9064 12.7821 27.1502 13.8334 26.5487 14.2506Z" fill="#232323"/>
<path fill-rule="evenodd" clip-rule="evenodd" d="M26.5493 14.2522C25.9045 14.4744 25.4005 14.7507 24.9832 15.1572C24.2625 15.3251 23.9049 15.3631 23.3955 15.3197C22.6423 14.8645 22.4418 13.7103 22.8536 12.93C23.4876 12.5778 25.7148 12.2797 26.2946 12.6157C26.7227 13.0275 26.8582 13.7591 26.5493 14.2522Z" fill="url(#paint30_linear_47_36838)"/>
<path fill-rule="evenodd" clip-rule="evenodd" d="M22.6476 13.9813C22.6205 13.6182 22.6855 13.2443 22.8481 12.93C23.4821 12.5778 25.7092 12.2797 26.2891 12.6157C26.4516 12.7783 26.5763 12.9788 26.6467 13.2009C26.0886 14.1276 23.3791 15.0542 22.7018 14.0842C22.6801 14.0517 22.6638 14.0138 22.6476 13.9813Z" fill="white"/>
<path fill-rule="evenodd" clip-rule="evenodd" d="M25.9258 12.5077C26.2672 12.6811 26.5056 13.0008 26.5869 13.3205C26.6682 13.6185 26.6357 13.9816 26.4623 14.2851C25.9908 14.453 25.5898 14.6535 25.2484 14.9245C24.674 14.8757 24.2514 14.4314 24.1321 13.9762C23.9967 13.4722 24.1918 12.7786 24.8149 12.4914C25.2268 12.4589 25.6278 12.4589 25.9258 12.5077Z" fill="#022740"/>
<path fill-rule="evenodd" clip-rule="evenodd" d="M26.4349 14.0508C26.3969 14.1592 26.3427 14.2622 26.2777 14.3489C25.9363 14.4789 25.6437 14.6361 25.3782 14.8203C25.1181 14.8257 24.858 14.7336 24.6304 14.5331C24.7496 14.1863 25.0259 13.9099 25.3999 13.807C25.7738 13.7149 26.1585 13.8178 26.4349 14.0508Z" fill="url(#paint31_radial_47_36838)"/>
<path fill-rule="evenodd" clip-rule="evenodd" d="M25.1672 12.9263C25.5573 12.8233 25.9583 13.0618 26.0667 13.4628C26.1751 13.8583 25.9475 14.2702 25.5573 14.3731C25.1726 14.4761 24.7662 14.2377 24.6578 13.8367C24.544 13.4411 24.777 13.0292 25.1672 12.9263Z" fill="#151720"/>
<path fill-rule="evenodd" clip-rule="evenodd" d="M24.2243 12.7476C24.544 12.6609 24.8746 12.8505 24.9613 13.1702C25.048 13.4954 24.8583 13.8205 24.5386 13.9072C24.2189 13.9939 23.8883 13.8043 23.807 13.4845C23.7203 13.1594 23.9046 12.8288 24.2243 12.7476Z" fill="white"/>
<path fill-rule="evenodd" clip-rule="evenodd" d="M19.2388 11.6405C19.5693 13.0278 19.9324 13.2337 20.4526 13.3475C19.9866 12.8814 19.6614 12.4534 19.2388 11.6405ZM19.5097 11.375C19.8511 12.2203 20.2575 12.9302 20.8319 13.2608C23.0537 12.9952 24.6306 11.9711 27.3346 11.8193C27.0745 11.5376 26.6735 11.4346 26.2291 11.2558C24.4247 11.0553 22.7936 11.7272 20.9403 11.879C20.4309 11.9169 19.9486 11.6568 19.5097 11.375Z" fill="#7F3E13"/>
<path fill-rule="evenodd" clip-rule="evenodd" d="M26.1806 11.4436C24.4303 11.254 22.718 11.9259 20.9568 12.0668C20.5938 12.0993 20.247 11.9909 19.9272 11.8392C20.312 12.3594 20.4366 12.5382 20.8159 12.8038C21.4608 12.6954 22.2303 12.6033 22.7722 12.4136C22.5825 12.3974 22.4308 12.3486 22.2953 12.2456C23.6554 11.9638 24.6146 11.5628 26.1806 11.4436Z" fill="url(#paint32_linear_47_36838)"/>
<path fill-rule="evenodd" clip-rule="evenodd" d="M27.4757 12.6678L32.6399 10.6953L32.1684 11.3781L29.5619 12.6515L29.2314 13.253L27.4106 14.1634L27.4757 12.6678Z" fill="#232323"/>
<path fill-rule="evenodd" clip-rule="evenodd" d="M27.4541 12.9702L27.4866 13.5609L29.2098 12.7752L29.3778 12.5151L29.7355 12.3471C29.8655 12.2604 30.1581 12.1303 30.2719 11.8594L27.4541 12.9702Z" fill="#3C3C3C"/>
<path fill-rule="evenodd" clip-rule="evenodd" d="M20.2952 13.968C20.2844 13.7242 20.4144 13.5725 20.6474 13.5129C22.517 13.0468 24.9934 12.7217 26.9117 12.7705C27.0634 12.7759 27.2043 12.8788 27.2585 13.0143C23.8392 14.1089 21.8775 15.7346 21.0213 16.5908C21.0051 16.5799 20.9888 16.5691 20.978 16.5583C20.5336 16.141 20.3277 14.5804 20.2952 13.968ZM14.9468 16.5474C14.9305 16.5203 14.9142 16.4932 14.9034 16.4661C14.7029 15.9405 14.562 14.9109 14.5078 14.3365C14.4916 14.1685 14.6108 14.0222 14.7734 13.9897C16.0251 13.7296 17.304 13.6104 18.5774 13.7567C18.8213 13.7784 18.8809 13.9572 18.9188 14.1685C18.9351 14.2661 18.9459 14.3636 18.9622 14.4612C17.0005 15.0193 15.8517 15.8213 14.9468 16.5474Z" fill="url(#paint33_linear_47_36838)"/>
<path fill-rule="evenodd" clip-rule="evenodd" d="M18.1224 17.3541C17.2824 17.4733 16.1499 17.5058 15.3967 17.2349C15.0661 17.1157 14.8168 16.9585 14.7139 16.7418C14.4104 16.1186 14.2587 14.9156 14.2262 14.4117C14.2208 14.3575 14.107 14.2979 14.0365 14.2437C13.9336 14.1624 13.874 13.7722 13.9281 13.6476C15.6134 13.1924 17.147 13.019 18.6697 13.2087C18.8648 13.2358 19.049 13.3116 19.2278 13.3821C19.4283 13.4579 19.748 13.4254 19.9323 13.2628C20.2032 13.0353 20.3658 13.0136 20.6801 12.9323C22.9235 12.3471 25.8931 12.0382 28.001 12.1845C28.0552 12.385 28.104 12.6776 28.001 12.8835C27.9577 12.9756 27.6163 13.0894 27.6217 13.1978C27.6271 13.8264 27.6217 14.4008 27.4971 14.8777C27.2695 15.7393 26.4946 16.0698 25.6926 16.3191C23.926 16.8718 21.2111 17.2241 20.7505 16.796C20.3062 16.3841 20.0623 15.1649 19.9756 14.1841C19.7047 14.0161 19.4554 14.0215 19.2441 14.2328C19.3037 14.6826 19.3687 15.2245 19.347 15.7393C19.3199 16.6659 19.0978 17.2132 18.1224 17.3541ZM20.3929 13.9565C20.4417 14.7585 20.6692 16.1349 21.0486 16.4871C21.4604 16.8718 25.3078 16.2161 26.5758 15.5171C27.2803 15.1269 27.2532 14.0865 27.1936 13.1274C27.1828 12.9865 27.0527 12.8673 26.9172 12.8619C25.0315 12.8131 22.5496 13.1328 20.6747 13.5988C20.485 13.653 20.382 13.7668 20.3929 13.9565ZM18.9298 15.0457C18.9081 14.7422 18.8648 14.4387 18.8268 14.1732C18.7943 13.9836 18.7455 13.8589 18.5667 13.8427C17.315 13.7072 16.0578 13.821 14.7952 14.0757C14.6922 14.0974 14.5947 14.1895 14.6055 14.3195C14.6597 14.8831 14.806 15.9235 15.0011 16.4275C15.0607 16.5846 15.2233 16.7093 15.4563 16.8014C16.2366 17.1211 17.7214 17.0507 18.4854 16.861C18.7347 16.796 18.8593 16.5521 18.9189 16.2541C19.0002 15.8368 18.9569 15.3166 18.9298 15.0457Z" fill="#232323"/>
<path fill-rule="evenodd" clip-rule="evenodd" d="M14.4104 14.3388C14.3887 14.122 14.5567 13.9703 14.7518 13.889C15.44 13.6072 17.174 13.2984 18.648 13.4067C17.109 13.2171 15.5863 13.3959 14.1069 13.8023C14.1232 14.2738 14.3183 14.0841 14.4104 14.3388ZM19.9377 13.9269C20.084 13.7373 20.2357 13.5476 20.5879 13.423C22.2407 12.8323 25.0802 12.5397 26.3374 12.3555C24.4624 12.388 22.3653 12.6806 20.7288 13.1304C20.485 13.1954 20.3224 13.1954 20.1598 13.3471C19.9756 13.5043 19.9485 13.7048 19.9377 13.9269ZM14.8385 16.5226C15.2124 17.4384 17.3691 17.2487 18.079 17.1024C18.2415 17.0699 18.3824 17.0374 18.5017 16.994C17.6726 17.2 15.3153 17.3571 14.8385 16.5226ZM22.1161 16.7394C23.2323 16.6852 25.931 16.2462 26.7492 15.596C25.8822 16.0999 23.2811 16.6472 22.1161 16.7394Z" fill="#3C3C3C"/>
<path fill-rule="evenodd" clip-rule="evenodd" d="M30.9758 14.6358L30.19 13.3461C29.8541 12.1377 31.1221 9.52576 32.6502 9.47699C33.9833 9.43906 34.0374 11.9101 33.9291 12.7988C33.7828 14.0722 32.6394 15.6979 31.3605 16.0555C30.8132 16.2127 30.2876 16.0555 30.125 15.5245L30.9758 14.6358Z" fill="#9A4C18"/>
<path fill-rule="evenodd" clip-rule="evenodd" d="M30.1202 15.5261C30.0552 14.7512 30.0931 14.0846 30.1907 13.3477C30.3153 12.4048 31.2528 9.87959 32.6617 9.83623C33.5721 9.80914 33.74 11.6407 33.6046 12.7624C33.3716 14.697 31.0794 16.5936 30.1202 15.5261Z" fill="url(#paint34_linear_47_36838)"/>
<path fill-rule="evenodd" clip-rule="evenodd" d="M30.4832 12.0936C30.8788 11.0098 31.6483 9.68757 32.6616 9.66048C33.3606 9.6388 33.6207 10.7117 33.6424 11.7197C33.0897 12.8576 32.0113 13.7897 31.1172 13.7897C30.2664 13.7843 30.2448 12.7384 30.4832 12.0936Z" fill="url(#paint35_linear_47_36838)"/>
<path fill-rule="evenodd" clip-rule="evenodd" d="M31.1391 14.4302C31.643 14.0834 31.6322 13.108 30.8193 13.4386C30.9115 12.3657 31.5888 10.8429 32.4884 10.805C33.2199 10.7725 33.5613 13.211 31.7785 14.1268L31.1391 14.4302Z" fill="#9A4C18"/>
<path fill-rule="evenodd" clip-rule="evenodd" d="M31.1225 14.4413C32.0437 13.959 31.5885 13.0215 31.0737 13.1949C31.2309 12.3983 31.7348 11.0436 32.526 11.0274C33.057 11.0219 33.0679 12.4579 32.9216 13.0323C32.6344 14.1378 31.659 14.7935 31.1225 14.4413Z" fill="url(#paint36_linear_47_36838)"/>
<path fill-rule="evenodd" clip-rule="evenodd" d="M18.3931 17.3732C18.7724 16.9614 19.4985 16.2028 19.4985 14.8047C19.6394 15.6934 19.3251 17.1186 18.6857 17.6496C18.5285 17.6063 18.4418 17.5196 18.3931 17.3732Z" fill="url(#paint37_linear_47_36838)"/>
<path fill-rule="evenodd" clip-rule="evenodd" d="M18.3933 17.3739C18.6155 17.6015 18.9081 17.5581 19.179 17.4877C19.4446 17.4172 19.6884 17.2709 19.9485 17.168C20.2032 17.2222 20.3712 17.3847 20.5121 17.6232C20.0461 17.8562 19.5313 18.0621 19.0327 18.1C18.6371 18.0512 18.3012 17.6719 18.3933 17.3739Z" fill="#E5895B"/>
<path d="M18.0088 17.2339C18.7729 16.6649 19.396 15.4835 19.3852 14.4106C19.3852 14.2209 19.4556 14.4648 19.4611 14.5352C19.6561 15.787 19.0167 16.8762 18.3881 17.3802C18.3393 17.6078 18.7349 18.0196 19.0275 18.1009C18.5561 18.1225 18.1497 17.8299 18.0088 17.2339Z" fill="#9A4C18"/>
<path fill-rule="evenodd" clip-rule="evenodd" d="M25.9097 16.5997C26.2348 15.9115 27.1777 15.0824 27.958 15.3967C27.259 15.5701 26.419 16.1228 25.9097 16.5997Z" fill="#9A4C18"/>
<path fill-rule="evenodd" clip-rule="evenodd" d="M25.9097 16.5975C26.5491 15.8985 27.1723 15.4325 27.958 15.3945C27.259 15.6655 26.4787 16.2724 25.9097 16.5975Z" fill="url(#paint38_linear_47_36838)"/>
<path fill-rule="evenodd" clip-rule="evenodd" d="M24.2406 20.8672C23.5416 22.4062 20.6967 22.4712 20.4854 21.2953L24.2406 20.8672Z" fill="#BD7447"/>
<path fill-rule="evenodd" clip-rule="evenodd" d="M25.7635 18.6445C25.0265 20.0263 24.4738 20.9042 24.0511 21.2077C23.3087 21.7496 19.3963 22.1506 19.5426 20.7687L20.6643 20.8446L25.7635 18.6445Z" fill="url(#paint39_linear_47_36838)"/>
<path fill-rule="evenodd" clip-rule="evenodd" d="M18.3179 18.6952C20.5017 18.7603 22.3658 18.4297 24.3599 17.9203C25.0698 17.7361 25.9802 17.3134 26.2891 16.8799C26.2295 16.8582 26.1861 16.8474 26.0723 16.842C26.3162 16.5819 26.5383 16.5223 26.8364 16.5277C26.5492 16.6035 26.4245 16.6848 26.3974 16.7228C26.3703 16.7715 26.56 16.7769 26.5004 16.8528C26.2295 17.2538 25.7959 17.6765 25.5033 18.1262C24.7393 19.3184 24.1323 20.3913 23.7151 20.749C23.1515 21.2367 20.6913 21.551 19.6184 20.684C19.7647 20.6677 19.9056 20.6785 20.0519 20.6894C19.9652 20.451 19.8731 19.8549 19.6726 19.4701C19.5588 19.2534 19.3366 19.042 19.1957 18.9066C18.8977 18.8849 18.643 18.8036 18.3179 18.6952Z" fill="#9A4C18"/>
<path fill-rule="evenodd" clip-rule="evenodd" d="M19.6128 18.9551C19.8729 19.2694 20.1384 20.3857 20.2685 20.7488C20.9079 21.269 23.0213 20.9439 23.5198 20.6242C24.0563 20.1202 24.9612 18.4024 25.5031 17.7305C23.8937 18.4945 21.4119 18.8142 19.6128 18.9551Z" fill="#792936"/>
<path fill-rule="evenodd" clip-rule="evenodd" d="M24.3925 19.4327C23.7151 19.1943 20.9406 19.4977 20.6426 20.9337C21.5042 21.1776 23.0919 20.9012 23.52 20.6303C23.7584 20.4027 24.0727 19.9366 24.3925 19.4327Z" fill="#C93853"/>
<path fill-rule="evenodd" clip-rule="evenodd" d="M21.813 19.75C21.2332 19.9993 20.7617 20.3841 20.6479 20.9314C21.5096 21.1752 23.0973 20.8988 23.5254 20.6279C23.4712 19.5875 22.3441 19.4737 21.813 19.75Z" fill="#F25E79"/>
<path fill-rule="evenodd" clip-rule="evenodd" d="M20.404 20.8415C21.1627 21.2371 23.0539 20.9336 23.5199 20.6302C23.6391 20.5218 23.7637 20.3592 23.91 20.1641C23.8179 20.1587 23.5524 20.1966 23.4549 20.2617C23.4007 20.2942 23.2923 20.3375 23.0593 20.4134C22.3115 20.6681 20.8755 20.6247 20.6262 20.4947C20.4745 20.4188 20.5883 20.3213 20.7454 20.2508C20.4582 20.3159 20.3498 20.3863 20.339 20.5001C20.3282 20.6139 20.3932 20.7277 20.404 20.8415ZM19.7158 18.9503C19.9055 19.1725 20.1385 19.4163 20.2631 19.4326C21.2819 19.606 23.043 19.3134 23.8071 18.8257C23.8775 18.7335 24.0455 18.4626 24.1972 18.2188C22.7612 18.6306 21.0597 18.8419 19.7158 18.9503Z" fill="url(#paint40_linear_47_36838)"/>
<path fill-rule="evenodd" clip-rule="evenodd" d="M23.4873 20.6517C23.4548 20.5325 23.4114 20.4024 23.3681 20.294L23.0592 20.4078C22.3114 20.6625 20.8754 20.6192 20.6261 20.4891C20.4744 20.4132 20.5882 20.3157 20.7453 20.2452C20.4581 20.3103 20.3498 20.3807 20.3389 20.4945C20.3335 20.6137 20.3985 20.7221 20.404 20.8359C21.1463 21.2206 22.9563 20.9389 23.4873 20.6517ZM19.8892 19.1398C20.0355 19.2915 20.1764 19.4162 20.2631 19.4324C21.103 19.5787 22.4415 19.3999 23.3139 19.0639C23.3898 18.9447 23.4494 18.7605 23.4331 18.625C22.2951 18.9393 20.9946 19.0964 19.8892 19.1398Z" fill="url(#paint41_linear_47_36838)"/>
</g>
<defs>
<linearGradient id="paint0_linear_47_36838" x1="18.3079" y1="47.0542" x2="14.7531" y2="47.0542" gradientUnits="userSpaceOnUse">
<stop stop-color="#B2B2B2"/>
<stop offset="1" stop-color="white"/>
</linearGradient>
<linearGradient id="paint1_linear_47_36838" x1="18.9831" y1="48.224" x2="17.2988" y2="46.772" gradientUnits="userSpaceOnUse">
<stop stop-color="#B2B2B2"/>
<stop offset="1" stop-color="white"/>
</linearGradient>
<linearGradient id="paint2_linear_47_36838" x1="28.0073" y1="47.2602" x2="26.497" y2="47.2602" gradientUnits="userSpaceOnUse">
<stop stop-color="#B2B2B2"/>
<stop offset="1" stop-color="white"/>
</linearGradient>
<linearGradient id="paint3_linear_47_36838" x1="31.6666" y1="47.2869" x2="29.8071" y2="47.2869" gradientUnits="userSpaceOnUse">
<stop stop-color="#B2B2B2"/>
<stop offset="1" stop-color="white"/>
</linearGradient>
<linearGradient id="paint4_linear_47_36838" x1="29.2707" y1="46.661" x2="28.385" y2="46.661" gradientUnits="userSpaceOnUse">
<stop stop-color="#B2B2B2"/>
<stop offset="1" stop-color="white"/>
</linearGradient>
<linearGradient id="paint5_linear_47_36838" x1="22.0221" y1="40.1425" x2="19.1472" y2="39.8812" gradientUnits="userSpaceOnUse">
<stop stop-color="#3C3C3C"/>
<stop offset="1" stop-color="#666666"/>
</linearGradient>
<linearGradient id="paint6_linear_47_36838" x1="27.8506" y1="38.6173" x2="25.4113" y2="39.9531" gradientUnits="userSpaceOnUse">
<stop stop-color="#3C3C3C"/>
<stop offset="1" stop-color="#666666"/>
</linearGradient>
<linearGradient id="paint7_linear_47_36838" x1="22.4315" y1="37.3527" x2="22.4315" y2="35.7532" gradientUnits="userSpaceOnUse">
<stop stop-color="#3C3C3C"/>
<stop offset="1" stop-color="#666666"/>
</linearGradient>
<linearGradient id="paint8_linear_47_36838" x1="18.3225" y1="27.7052" x2="18.6535" y2="28.9526" gradientUnits="userSpaceOnUse">
<stop stop-color="#CC6633"/>
<stop offset="1" stop-color="#FF9701"/>
</linearGradient>
<linearGradient id="paint9_linear_47_36838" x1="18.2476" y1="25.8762" x2="18.6549" y2="26.9963" gradientUnits="userSpaceOnUse">
<stop stop-color="#FF9701"/>
<stop offset="1" stop-color="#CC6633"/>
</linearGradient>
<linearGradient id="paint10_linear_47_36838" x1="10.956" y1="32.8386" x2="12.3888" y2="23.0148" gradientUnits="userSpaceOnUse">
<stop stop-color="#FAD395"/>
<stop offset="1" stop-color="#E5895B"/>
</linearGradient>
<linearGradient id="paint11_linear_47_36838" x1="10.8476" y1="18.7576" x2="10.3783" y2="19.17" gradientUnits="userSpaceOnUse">
<stop stop-color="#FAD395"/>
<stop offset="1" stop-color="#E5895B"/>
</linearGradient>
<linearGradient id="paint12_linear_47_36838" x1="12.6727" y1="19.873" x2="12.2654" y2="20.5858" gradientUnits="userSpaceOnUse">
<stop stop-color="#FAD395"/>
<stop offset="1" stop-color="#E5895B"/>
</linearGradient>
<linearGradient id="paint13_linear_47_36838" x1="26.3901" y1="24.5644" x2="23.5365" y2="24.5644" gradientUnits="userSpaceOnUse">
<stop stop-color="#E5895B"/>
<stop offset="1" stop-color="#FAD395"/>
</linearGradient>
<linearGradient id="paint14_linear_47_36838" x1="26.0338" y1="29.2515" x2="27.621" y2="29.6861" gradientUnits="userSpaceOnUse">
<stop stop-color="#CCCCCC"/>
<stop offset="1" stop-color="white"/>
</linearGradient>
<linearGradient id="paint15_linear_47_36838" x1="22.2527" y1="31.9958" x2="25.994" y2="32.3737" gradientUnits="userSpaceOnUse">
<stop stop-color="white"/>
<stop offset="1" stop-color="#CCCCCC"/>
</linearGradient>
<linearGradient id="paint16_linear_47_36838" x1="28.6474" y1="28.1463" x2="28.0683" y2="28.8627" gradientUnits="userSpaceOnUse">
<stop stop-color="#CC6633"/>
<stop offset="1" stop-color="#FF9701"/>
</linearGradient>
<linearGradient id="paint17_linear_47_36838" x1="28.4656" y1="28.1313" x2="29.663" y2="26.7081" gradientUnits="userSpaceOnUse">
<stop stop-color="#CC6633"/>
<stop offset="1" stop-color="#FF9701"/>
</linearGradient>
<linearGradient id="paint18_linear_47_36838" x1="31.4202" y1="30.046" x2="32.5984" y2="29.0237" gradientUnits="userSpaceOnUse">
<stop stop-color="#E5895B"/>
<stop offset="1" stop-color="#FAD395"/>
</linearGradient>
<linearGradient id="paint19_linear_47_36838" x1="31.7971" y1="33.1816" x2="31.104" y2="31.6914" gradientUnits="userSpaceOnUse">
<stop stop-color="#E5895B"/>
<stop offset="1" stop-color="#FAD395"/>
</linearGradient>
<linearGradient id="paint20_linear_47_36838" x1="27.4301" y1="30.6344" x2="27.4301" y2="29.506" gradientUnits="userSpaceOnUse">
<stop stop-color="#E5895B"/>
<stop offset="1" stop-color="#FAD395"/>
</linearGradient>
<linearGradient id="paint21_linear_47_36838" x1="27.2274" y1="33.2586" x2="27.574" y2="31.3179" gradientUnits="userSpaceOnUse">
<stop stop-color="#E5895B"/>
<stop offset="1" stop-color="#FAD395"/>
</linearGradient>
<linearGradient id="paint22_linear_47_36838" x1="25.4088" y1="34.1036" x2="27.0722" y2="33.3932" gradientUnits="userSpaceOnUse">
<stop stop-color="#E5895B"/>
<stop offset="1" stop-color="#FAD395"/>
</linearGradient>
<linearGradient id="paint23_linear_47_36838" x1="24.1915" y1="12.8746" x2="27.9087" y2="11.9789" gradientUnits="userSpaceOnUse">
<stop stop-color="#FAD395"/>
<stop offset="1" stop-color="#E5895B"/>
</linearGradient>
<linearGradient id="paint24_linear_47_36838" x1="20.8385" y1="13.8545" x2="20.8385" y2="15.6082" gradientUnits="userSpaceOnUse">
<stop stop-color="#E5895B"/>
<stop offset="1" stop-color="#FAD395"/>
</linearGradient>
<linearGradient id="paint25_linear_47_36838" x1="27.1511" y1="6.61375" x2="26.8612" y2="3.56811" gradientUnits="userSpaceOnUse">
<stop stop-color="#B85A1B"/>
<stop offset="1" stop-color="#FF9701"/>
</linearGradient>
<linearGradient id="paint26_linear_47_36838" x1="20.6131" y1="4.40347" x2="20.6131" y2="9.0312" gradientUnits="userSpaceOnUse">
<stop stop-color="#FF9701"/>
<stop offset="1" stop-color="#B85A1B"/>
</linearGradient>
<linearGradient id="paint27_linear_47_36838" x1="17.8512" y1="14.8279" x2="17.9433" y2="15.6874" gradientUnits="userSpaceOnUse">
<stop stop-color="#BDD6DE"/>
<stop offset="1" stop-color="white"/>
</linearGradient>
<radialGradient id="paint28_radial_47_36838" cx="0" cy="0" r="1" gradientUnits="userSpaceOnUse" gradientTransform="translate(18.4902 15.0085) rotate(-53.8599) scale(0.850426)">
<stop stop-color="#33B4FF"/>
<stop offset="1" stop-color="#022740"/>
</radialGradient>
<linearGradient id="paint29_linear_47_36838" x1="16.6935" y1="10.4725" x2="16.552" y2="12.5265" gradientUnits="userSpaceOnUse">
<stop stop-color="#B85A1B"/>
<stop offset="1" stop-color="#7F3E13"/>
</linearGradient>
<linearGradient id="paint30_linear_47_36838" x1="24.779" y1="14.3505" x2="24.9171" y2="15.1639" gradientUnits="userSpaceOnUse">
<stop stop-color="#BDD6DE"/>
<stop offset="1" stop-color="white"/>
</linearGradient>
<radialGradient id="paint31_radial_47_36838" cx="0" cy="0" r="1" gradientUnits="userSpaceOnUse" gradientTransform="translate(25.6762 14.5201) rotate(-48.4364) scale(1.03248)">
<stop stop-color="#33B4FF"/>
<stop offset="1" stop-color="#022740"/>
</radialGradient>
<linearGradient id="paint32_linear_47_36838" x1="23.0428" y1="11.469" x2="23.1289" y2="12.736" gradientUnits="userSpaceOnUse">
<stop stop-color="#B85A1B"/>
<stop offset="1" stop-color="#7F3E13"/>
</linearGradient>
<linearGradient id="paint33_linear_47_36838" x1="20.7834" y1="13.0235" x2="21.1992" y2="15.9692" gradientUnits="userSpaceOnUse">
<stop stop-color="white"/>
<stop offset="1" stop-color="white" stop-opacity="0"/>
</linearGradient>
<linearGradient id="paint34_linear_47_36838" x1="32.0112" y1="13.2035" x2="33.4231" y2="14.7587" gradientUnits="userSpaceOnUse">
<stop stop-color="#E5895B"/>
<stop offset="1" stop-color="#FAD395"/>
</linearGradient>
<linearGradient id="paint35_linear_47_36838" x1="31.7001" y1="11.3718" x2="32.5664" y2="13.1045" gradientUnits="userSpaceOnUse">
<stop stop-color="#FAD395"/>
<stop offset="1" stop-color="#E5895B"/>
</linearGradient>
<linearGradient id="paint36_linear_47_36838" x1="31.0735" y1="11.6762" x2="32.9211" y2="13.9887" gradientUnits="userSpaceOnUse">
<stop stop-color="#C76636"/>
<stop offset="1" stop-color="#E5895B"/>
</linearGradient>
<linearGradient id="paint37_linear_47_36838" x1="18.9618" y1="17.1851" x2="18.9618" y2="15.4795" gradientUnits="userSpaceOnUse">
<stop stop-color="#FBFAC4"/>
<stop offset="1" stop-color="#FAD395"/>
</linearGradient>
<linearGradient id="paint38_linear_47_36838" x1="26.9364" y1="15.2941" x2="26.9364" y2="15.952" gradientUnits="userSpaceOnUse">
<stop stop-color="#FBFAC4"/>
<stop offset="1" stop-color="#FAD395"/>
</linearGradient>
<linearGradient id="paint39_linear_47_36838" x1="22.6481" y1="21.7611" x2="22.6481" y2="20.7986" gradientUnits="userSpaceOnUse">
<stop stop-color="#FBFAC4"/>
<stop offset="1" stop-color="#FAD395"/>
</linearGradient>
<linearGradient id="paint40_linear_47_36838" x1="23.5618" y1="19.5726" x2="24.0162" y2="19.5367" gradientUnits="userSpaceOnUse">
<stop stop-color="#BDD6DE"/>
<stop offset="1" stop-color="white"/>
</linearGradient>
<linearGradient id="paint41_linear_47_36838" x1="23.6768" y1="19.7593" x2="22.6722" y2="19.8191" gradientUnits="userSpaceOnUse">
<stop stop-color="#BDD6DE"/>
<stop offset="1" stop-color="white"/>
</linearGradient>
<clipPath id="clip0_47_36838">
<rect width="29.9936" height="51.2031" fill="white" transform="translate(5.00342)"/>
</clipPath>
</defs>
</svg>
