<svg width="113" height="37" viewBox="0 0 113 37" fill="none" xmlns="http://www.w3.org/2000/svg">
<g clip-path="url(#clip0_47_91439)">
<path fill-rule="evenodd" clip-rule="evenodd" d="M21.1161 18.5676C21.1161 24.6473 16.6037 28.894 10.1425 28.894H4.16045V8.08397H10.1425C16.6037 8.08397 21.1161 12.3626 21.1161 18.489V18.5676ZM10.1425 4.16797H2.06051C0.943434 4.16797 0 5.12797 0 6.26397V30.7136C0 31.85 0.943434 32.81 2.06051 32.81H10.1425C18.9807 32.81 25.3958 26.787 25.3958 18.489V18.41C25.3958 10.1576 18.9807 4.16797 10.1425 4.16797Z" fill="white"/>
<path fill-rule="evenodd" clip-rule="evenodd" d="M54.7922 18.5683C54.7922 24.725 50.3471 29.3676 44.4525 29.3676C38.5132 29.3676 34.0337 24.691 34.0337 18.4896V18.4106C34.0337 12.254 38.4788 7.61131 44.3733 7.61131C50.3129 7.61131 54.7922 12.288 54.7922 18.4896V18.5683ZM44.4525 3.69531C40.3259 3.69531 36.5511 5.27365 33.8242 8.13898C31.1997 10.897 29.7539 14.573 29.7539 18.4896V18.5683C29.7539 22.4853 31.1855 26.147 33.7845 28.8793C36.4862 31.7193 40.2467 33.2836 44.3733 33.2836C48.5003 33.2836 52.2747 31.7053 55.0019 28.84C57.6265 26.082 59.0723 22.406 59.0723 18.4896V18.4106C59.0723 14.4936 57.6404 10.8323 55.0414 8.09965C52.3397 5.25965 48.5792 3.69531 44.4525 3.69531Z" fill="white"/>
<mask id="mask0_47_91439" style="mask-type:luminance" maskUnits="userSpaceOnUse" x="89" y="3" width="24" height="31">
<path d="M89.4609 3.97266H112.757V33.0087H89.4609V3.97266Z" fill="white"/>
</mask>
<g mask="url(#mask0_47_91439)">
<path fill-rule="evenodd" clip-rule="evenodd" d="M110.696 3.97266C109.538 3.97266 108.596 4.91299 108.596 6.06866V16.4343H93.6217V6.06866C93.6217 4.91299 92.6796 3.97266 91.5214 3.97266C90.4047 3.97266 89.4609 4.93266 89.4609 6.06866V30.913C89.4609 32.049 90.4047 33.0087 91.5214 33.0087C92.6796 33.0087 93.6217 32.0687 93.6217 30.913V20.3893H108.596V30.913C108.596 32.0687 109.538 33.0087 110.696 33.0087C111.813 33.0087 112.757 32.049 112.757 30.913V6.06866C112.757 4.93266 111.813 3.97266 110.696 3.97266Z" fill="white"/>
</g>
<path fill-rule="evenodd" clip-rule="evenodd" d="M83.1005 6.591C81.0509 5.12467 78.946 4.27467 76.5312 3.94167V2.074C76.5312 0.928333 75.608 0 74.4691 0C73.3305 0 72.4069 0.928333 72.4069 2.074V3.86867C67.6248 4.44633 64.3398 7.64467 64.3398 11.8247C64.3398 15.4197 66.0773 17.7097 69.9431 19.2L75.2723 16.4117L74.7455 16.2887C70.6036 15.3193 68.5003 14.3323 68.5003 11.6273C68.5003 9.26267 70.7159 7.611 73.8878 7.611C76.4388 7.611 78.5576 8.32267 80.761 9.92133C81.1172 10.1747 81.5013 10.2927 81.9702 10.2927C83.0843 10.2927 83.9912 9.388 83.9912 8.27567C83.9912 7.355 83.3742 6.79533 83.1005 6.591Z" fill="white"/>
<mask id="mask1_47_91439" style="mask-type:luminance" maskUnits="userSpaceOnUse" x="63" y="17" width="23" height="20">
<path d="M63.4688 17.6445H85.061V36.9946H63.4688V17.6445Z" fill="white"/>
</mask>
<g mask="url(#mask1_47_91439)">
<path fill-rule="evenodd" clip-rule="evenodd" d="M85.061 24.8775C85.061 21.4442 83.308 19.1392 79.5661 17.6445L74.2687 20.4159L74.8847 20.5585C80.4111 21.8382 80.8605 23.3789 80.8605 25.1145C80.8605 27.6582 78.5842 29.3675 75.1956 29.3675C71.9126 29.3675 69.3964 28.4282 66.7862 26.2279C66.472 25.9262 65.9779 25.7395 65.4892 25.7395C64.3565 25.7395 63.4688 26.6429 63.4688 27.7959C63.4688 28.4559 63.7696 29.0532 64.2747 29.3985C66.7988 31.3919 69.4657 32.5762 72.4073 33.0112V34.9205C72.4073 36.0659 73.3309 36.9949 74.4695 36.9949C75.6085 36.9949 76.5317 36.0659 76.5317 34.9205V33.1305C81.6644 32.6145 85.061 29.3702 85.061 24.8775Z" fill="white"/>
</g>
</g>
<defs>
<clipPath id="clip0_47_91439">
<rect width="113" height="37" fill="white"/>
</clipPath>
</defs>
</svg>
