<svg width="30" height="30" viewBox="0 0 30 30" fill="none" xmlns="http://www.w3.org/2000/svg">
<g clip-path="url(#clip0_47_51975)">
<path d="M0.28125 27.0938C0.28125 27.0938 0.5625 29.4375 2.8125 29.4375C5.0625 29.4375 27 30 27 30L28.7813 2.25L27.4688 2.34375L27.5625 0.28125H5.25L0.28125 27.0938Z" fill="#4C2537"/>
<path d="M25.4062 28.7813L2.34375 28.4063L4.5 4.3125L27.0938 2.71875L25.4062 28.7813Z" fill="#C9524C"/>
<path d="M24.8438 28.0312L2.53125 27.75L4.5 3.46875H25.5937L24.8438 28.0312Z" fill="#CCC6BA"/>
<path d="M25.7812 24.75L3.46875 24.4687L5.4375 0.1875H26.5312L25.7812 24.75Z" fill="#EC5446"/>
<path d="M4.68761 0.65625L5.43761 0.09375L3.28136 26.625L2.43761 28.4062C1.12511 28.4062 0.187607 27.375 0.281357 26.25L2.90636 3.5625C3.00011 2.4375 3.65636 1.40625 4.68761 0.65625Z" fill="#4C2537"/>
<path d="M4.31232 25.7812L3.46857 24.4688C3.46857 24.4688 1.31232 24.6562 0.937315 26.25C0.562315 27.8438 3.09357 27.8438 3.09357 27.8438L4.31232 25.7812Z" fill="#CCC6BA"/>
<path d="M26.906 11.5316C26.9998 5.81283 20.9998 5.53158 20.9998 5.53158C20.9998 5.53158 17.531 5.06283 15.1873 7.50033C13.031 4.96908 9.84354 5.06283 9.84354 5.06283C9.84354 5.06283 4.03104 4.50033 3.37479 11.0628C2.71854 17.7191 13.9685 22.7816 14.6248 23.1566C15.3748 22.8753 26.906 18.1878 26.906 11.5316Z" fill="#960F0F"/>
<path d="M25.4998 11.344C25.4998 8.5315 24.1873 7.31275 22.8748 6.75025C21.6561 6.18775 20.2498 6.18775 18.9373 6.6565C17.9061 7.0315 16.3123 7.7815 15.0936 9.00025C14.0623 7.87525 12.7498 7.219 11.8123 6.75025C10.3123 6.094 8.53109 6.094 7.03109 6.93775C5.81234 7.594 4.68734 8.81275 4.49984 11.2502C3.93734 16.8752 13.9686 21.1877 14.6248 21.5627C15.2811 21.1877 25.4998 16.969 25.4998 11.344Z" fill="#DD4545"/>
<path d="M21.5626 11.3431C21.5626 9.2806 20.6251 8.3431 19.5938 7.87435C18.7501 7.49935 17.7188 7.49935 16.7813 7.7806C16.0313 8.06185 14.8126 8.62435 13.9688 9.4681C13.1251 8.7181 12.1876 8.1556 11.4376 7.87435C10.3126 7.4056 9.00008 7.49935 7.87508 8.06185C6.93758 8.5306 6.09383 9.4681 6.00008 11.2493C5.53133 15.4681 13.0313 18.5618 13.5001 18.8431C13.9688 18.6556 21.5626 15.5618 21.5626 11.3431Z" fill="#F96464"/>
<path d="M19.9686 16.2195C18.8436 16.5945 17.8124 16.5008 17.1561 16.1258C16.4999 15.7508 15.8436 15.0008 15.6561 13.8758C15.2811 11.3445 17.8124 5.15701 22.4999 7.68826C27.1874 10.2195 22.5936 15.282 19.9686 16.2195Z" fill="#FFB3B3"/>
<path d="M21.4688 10.5007C21.1876 10.5945 20.9063 10.5945 20.7188 10.5007C20.5313 10.407 20.3438 10.2195 20.3438 9.93821C20.2501 9.28196 20.9063 7.78196 22.0313 8.34446C23.2501 9.00071 22.1251 10.3132 21.4688 10.5007Z" fill="white"/>
<path d="M10.6876 10.0314C10.5938 10.5002 10.3126 10.8752 10.0313 11.0627C9.75008 11.2502 9.28133 11.4377 8.81258 11.4377C7.68758 11.4377 5.71883 10.0314 7.78133 8.43766C9.84383 6.84391 10.9688 9.00016 10.6876 10.0314Z" fill="#FFB3B3"/>
<path d="M2.34375 25.7812L24.0938 26.25V27.4687L3.09375 27.0937C3.09375 27.0937 2.34375 26.5312 2.34375 25.7812Z" fill="#E8E0D1"/>
<path d="M2.34375 24.8437L26.4375 25.5L26.5312 24.5625L2.15625 24.0938L2.34375 24.8437Z" fill="#4C2537"/>
<path opacity="0.37" d="M14.8125 21.1875L3.75 19.875L4.5 12.5625C4.5 12.5625 10.5938 19.5 14.8125 21.1875Z" fill="#960F0F"/>
<path d="M12.5625 0.1875L12.4688 5.34375L9.5625 3.5625L6.65625 5.4375L7.40625 0L12.5625 0.1875Z" fill="#960F0F"/>
<path d="M12.4688 0.1875L12.375 4.3125L10.0312 2.90625L7.78125 4.40625L8.34375 0.09375L12.4688 0.1875Z" fill="#CCC6BA"/>
<path d="M10.3125 0.65625V1.96875L11.7188 2.90625L11.625 0.75L10.3125 0.65625Z" fill="white"/>
</g>
<defs>
<clipPath id="clip0_47_51975">
<rect width="30" height="30" fill="white"/>
</clipPath>
</defs>
</svg>
