<svg width="24" height="24" viewBox="0 0 24 24" fill="none" xmlns="http://www.w3.org/2000/svg">
<path fill-rule="evenodd" clip-rule="evenodd" d="M14.1153 12.0003L19.0503 7.06528C19.3353 6.79528 19.5003 6.42028 19.5003 6.00028C19.4998 5.7033 19.4115 5.4131 19.2465 5.16622C19.0814 4.91934 18.847 4.72684 18.5727 4.61296C18.2984 4.49908 17.9966 4.46892 17.7052 4.52628C17.4138 4.58363 17.1459 4.72594 16.9353 4.93528L12.0003 9.88528L7.06528 4.93528C6.92542 4.79542 6.75939 4.68448 6.57665 4.60879C6.39392 4.5331 6.19807 4.49414 6.00028 4.49414C5.80249 4.49414 5.60664 4.5331 5.4239 4.60879C5.24117 4.68448 5.07514 4.79542 4.93528 4.93528C4.65282 5.21773 4.49414 5.60083 4.49414 6.00028C4.49414 6.39973 4.65282 6.78282 4.93528 7.06528L9.88528 12.0003L4.95028 16.9353C4.66528 17.2053 4.50028 17.5803 4.50028 18.0003C4.50071 18.2973 4.58902 18.5875 4.75408 18.8343C4.91915 19.0812 5.15358 19.2737 5.42785 19.3876C5.70213 19.5015 6.00397 19.5316 6.29535 19.4743C6.58674 19.4169 6.85463 19.2746 7.06528 19.0653L12.0003 14.1153L16.9353 19.0503C17.2053 19.3353 17.5803 19.5003 18.0003 19.5003C18.2973 19.4998 18.5875 19.4115 18.8343 19.2465C19.0812 19.0814 19.2737 18.847 19.3876 18.5727C19.5015 18.2984 19.5316 17.9966 19.4743 17.7052C19.4169 17.4138 19.2746 17.1459 19.0653 16.9353L14.1153 12.0003Z" fill="black"/>
</svg>
