<svg width="17" height="15" viewBox="0 0 17 15" fill="none" xmlns="http://www.w3.org/2000/svg">
<path d="M12.7505 0H4.25017C1.70007 0 0 1.27505 0 4.25017V10.2004C0 13.1755 1.70007 14.4506 4.25017 14.4506H12.7505C15.3006 14.4506 17.0007 13.1755 17.0007 10.2004V4.25017C17.0007 1.27505 15.3006 0 12.7505 0ZM5.1002 12.113H2.5501C2.20159 12.113 1.91257 11.824 1.91257 11.4754C1.91257 11.1269 2.20159 10.8379 2.5501 10.8379H5.1002C5.44871 10.8379 5.73772 11.1269 5.73772 11.4754C5.73772 11.824 5.44871 12.113 5.1002 12.113ZM8.50033 9.77538C7.08928 9.77538 5.95023 8.63634 5.95023 7.22528C5.95023 5.81423 7.08928 4.67518 8.50033 4.67518C9.91139 4.67518 11.0504 5.81423 11.0504 7.22528C11.0504 8.63634 9.91139 9.77538 8.50033 9.77538ZM14.4506 3.61264H11.9005C11.552 3.61264 11.2629 3.32363 11.2629 2.97512C11.2629 2.6266 11.552 2.33759 11.9005 2.33759H14.4506C14.7991 2.33759 15.0881 2.6266 15.0881 2.97512C15.0881 3.32363 14.7991 3.61264 14.4506 3.61264Z" fill="#CAC3AA"/>
</svg>
