<svg width="16" height="16" viewBox="0 0 16 16" fill="none" xmlns="http://www.w3.org/2000/svg">
<path d="M11.4 10L16 14.6L14.6 16L10.1 11.4V10.7L9.8 10.5C8.7 11.4 7.4 11.9 5.9 11.9C4.3 11.9 2.9 11.3 1.7 10.2C0.6 9 0 7.6 0 6C0 4.4 0.6 3 1.7 1.8C2.9 0.6 4.3 0 5.9 0C7.5 0 8.9 0.6 10.1 1.8C11.3 3 11.8 4.4 11.8 6C11.8 7.5 11.3 8.8 10.4 9.9L10.7 10.1H11.4V10ZM3 8.9C3.8 9.7 4.8 10 5.9 10C7 10 8 9.6 8.8 8.9C9.6 8.1 10 7.1 10 6C10 4.9 9.6 3.8 8.8 3C8 2.2 7.1 1.8 5.9 1.8C4.8 1.8 3.8 2.2 3 3C2.2 3.8 1.8 4.8 1.8 6C1.8 7.1 2.2 8.1 3 8.9Z" fill="white"/>
</svg>
