<svg width="7" height="7" viewBox="0 0 7 7" fill="none" xmlns="http://www.w3.org/2000/svg">
<path opacity="0.3" d="M6.12498 2.62499H4.37499V0.874997C4.37499 0.642934 4.2828 0.420374 4.11871 0.25628C3.95461 0.0921863 3.73205 0 3.49999 0C3.26793 0 3.04537 0.0921863 2.88127 0.25628C2.71718 0.420374 2.62499 0.642934 2.62499 0.874997V2.62499H0.874997C0.642934 2.62499 0.420376 2.71718 0.256282 2.88127C0.0921885 3.04537 0 3.26793 0 3.49999C0 3.73205 0.0921885 3.95461 0.256282 4.11871C0.420376 4.2828 0.642934 4.37499 0.874997 4.37499H2.62499V6.12498C2.62499 6.35704 2.71718 6.5796 2.88127 6.7437C3.04537 6.90779 3.26793 6.99998 3.49999 6.99998C3.73205 6.99998 3.95461 6.90779 4.11871 6.7437C4.2828 6.5796 4.37499 6.35704 4.37499 6.12498V4.37499H6.12498C6.35704 4.37499 6.5796 4.2828 6.7437 4.11871C6.90779 3.95461 6.99998 3.73205 6.99998 3.49999C6.99998 3.26793 6.90779 3.04537 6.7437 2.88127C6.5796 2.71718 6.35704 2.62499 6.12498 2.62499Z" fill="white"/>
</svg>
