<svg width="21" height="30" viewBox="0 0 21 30" fill="none" xmlns="http://www.w3.org/2000/svg">
<path d="M1.14526 10.4946L9.88958 7.36325C10.2746 7.23031 10.7146 7.23031 11.0812 7.36325L19.8256 10.4946C20.5955 10.7753 21.3105 10.022 20.7788 9.49024L11.6128 0.46528C10.9895 -0.155093 9.96293 -0.155093 9.33963 0.46528L0.173604 9.49024C-0.339693 10.022 0.375311 10.7753 1.14526 10.4946Z" fill="white"/>
<path d="M1.14562 19.062L9.90829 22.1934C10.2933 22.3264 10.7333 22.3264 11.0999 22.1934L19.8626 19.062C20.6325 18.7814 21.3475 19.5347 20.8159 20.0664L11.6499 29.0914C11.0266 29.7118 9.99998 29.7118 9.3767 29.0914L0.210669 20.0664C-0.339293 19.5347 0.357342 18.7814 1.14562 19.062Z" fill="white"/>
<path d="M10.0915 11.071L2.52033 14.1138C1.84205 14.3797 1.84205 15.1625 2.52033 15.4284L10.0915 18.4712C10.3481 18.5746 10.6597 18.5746 10.9163 18.4712L18.4875 15.4284C19.1658 15.1625 19.1658 14.3797 18.4875 14.1138L10.9163 11.071C10.6414 10.9676 10.3481 10.9676 10.0915 11.071Z" fill="white"/>
</svg>
