<svg width="28" height="28" viewBox="0 0 28 28" fill="none" xmlns="http://www.w3.org/2000/svg">
<path fill-rule="evenodd" clip-rule="evenodd" d="M28 14C28 21.72 21.72 28 14 28C6.282 28 0 21.72 0 14C0 6.28 6.282 0 14 0C21.72 0 28 6.28 28 14ZM18.243 18.243C18.1501 18.336 18.0398 18.4097 17.9184 18.4601C17.797 18.5104 17.6669 18.5363 17.5355 18.5363C17.4041 18.5363 17.274 18.5104 17.1526 18.4601C17.0312 18.4097 16.9209 18.336 16.828 18.243L14 15.414L11.172 18.243C10.9844 18.4306 10.7299 18.5361 10.4645 18.5361C10.1991 18.5361 9.94464 18.4306 9.757 18.243C9.56936 18.0554 9.46394 17.8009 9.46394 17.5355C9.46394 17.2701 9.56936 17.0156 9.757 16.828L12.586 14L9.757 11.172C9.66409 11.0791 9.59039 10.9688 9.54011 10.8474C9.48982 10.726 9.46394 10.5959 9.46394 10.4645C9.46394 10.3331 9.48982 10.203 9.54011 10.0816C9.59039 9.96021 9.66409 9.84991 9.757 9.757C9.84991 9.66409 9.96021 9.59039 10.0816 9.54011C10.203 9.48982 10.3331 9.46394 10.4645 9.46394C10.5959 9.46394 10.726 9.48982 10.8474 9.54011C10.9688 9.59039 11.0791 9.66409 11.172 9.757L14 12.587L16.828 9.758C16.9209 9.66509 17.0312 9.59139 17.1526 9.54111C17.274 9.49082 17.4041 9.46494 17.5355 9.46494C17.6669 9.46494 17.797 9.49082 17.9184 9.54111C18.0398 9.59139 18.1501 9.66509 18.243 9.758C18.3359 9.85091 18.4096 9.96121 18.4599 10.0826C18.5102 10.204 18.5361 10.3341 18.5361 10.4655C18.5361 10.5969 18.5102 10.727 18.4599 10.8484C18.4096 10.9698 18.3359 11.0801 18.243 11.173L15.414 14L18.243 16.829C18.4305 17.0165 18.5358 17.2708 18.5358 17.536C18.5358 17.8012 18.4305 18.0555 18.243 18.243Z" fill="#0A0A0A"/>
</svg>
