<svg width="24" height="24" viewBox="0 0 24 24" fill="none" xmlns="http://www.w3.org/2000/svg">
<g clip-path="url(#clip0_47_69910)">
<path d="M23.74 7.1012C23.74 7.1012 23.51 5.4512 22.79 4.7312C21.88 3.7712 20.86 3.7712 20.39 3.7112C17.04 3.4712 12 3.5012 12 3.5012C12 3.5012 6.98 3.4712 3.63 3.7112C3.17 3.7712 2.15 3.7712 1.24 4.7312C0.52 5.4512 0.28 7.1012 0.28 7.1012C0.28 7.1012 0.04 9.0512 0 10.9812V13.0012C0.04 14.9412 0.28 16.8712 0.28 16.8712C0.28 16.8712 0.52 18.5212 1.24 19.2512C2.15 20.2012 3.34 20.1712 3.88 20.2712C5.76 20.4512 11.79 20.4912 12 20.4912C12 20.4912 17.05 20.5012 20.4 20.2612C20.86 20.2012 21.88 20.2012 22.79 19.2412C23.51 18.5212 23.75 16.8712 23.75 16.8712C23.75 16.8712 23.99 14.9312 24 13.0012V10.9812C23.98 9.0512 23.74 7.1012 23.74 7.1012ZM9.57 15.5012V8.4912L16 12.1312L9.57 15.5012Z" fill="#202124"/>
</g>
<defs>
<clipPath id="clip0_47_69910">
<rect width="24" height="24" fill="white"/>
</clipPath>
</defs>
</svg>
