<svg width="24" height="25" viewBox="0 0 24 25" fill="none" xmlns="http://www.w3.org/2000/svg">
<path d="M22.7936 9.33415L19.0856 5.76871C18.1997 4.9168 17.0182 4.4411 15.7892 4.44141H8.20861C6.97968 4.44261 5.79897 4.91967 4.91414 5.77251L1.20608 9.33795C1.16181 9.38211 1.12668 9.43457 1.10271 9.49233C1.07875 9.55009 1.06641 9.612 1.06641 9.67453C1.06641 9.73706 1.07875 9.79898 1.10271 9.85673C1.12668 9.91449 1.16181 9.96695 1.20608 10.0111L3.41475 12.2197C3.4986 12.3038 3.61086 12.3534 3.72944 12.3589C3.84803 12.3643 3.96437 12.3252 4.05558 12.2492L6.77007 10.1461V21.0801C6.77007 21.2062 6.82016 21.3271 6.90931 21.4163C6.99846 21.5054 7.11938 21.5555 7.24546 21.5555H16.7533C16.8794 21.5555 17.0003 21.5054 17.0894 21.4163C17.1786 21.3271 17.2287 21.2062 17.2287 21.0801V10.1461L19.9441 12.2454C20.0353 12.3214 20.1517 12.3605 20.2703 12.3551C20.3888 12.3496 20.5011 12.3 20.5849 12.2159L22.7946 10.0073C22.8388 9.96308 22.8738 9.91057 22.8977 9.85279C22.9216 9.795 22.9339 9.73306 22.9338 9.67053C22.9337 9.608 22.9213 9.5461 22.8972 9.48838C22.8732 9.43066 22.838 9.37825 22.7936 9.33415Z" stroke="#767676" stroke-width="1.15" stroke-linecap="round" stroke-linejoin="round"/>
<path d="M9.14648 4.44141C9.14648 5.1979 9.447 5.92341 9.98192 6.45833C10.5168 6.99325 11.2423 7.29377 11.9988 7.29377C12.7553 7.29377 13.4808 6.99325 14.0157 6.45833C14.5507 5.92341 14.8512 5.1979 14.8512 4.44141" stroke="#767676" stroke-width="1.15" stroke-linecap="round" stroke-linejoin="round"/>
</svg>
