<svg width="16" height="15" viewBox="0 0 16 15" fill="none" xmlns="http://www.w3.org/2000/svg">
<path d="M7.28592 13.8631H11.4279C12.3832 13.8631 13.2985 13.0881 13.4588 12.1462L14.3473 6.82845C14.4542 6.17375 14.1202 5.29857 13.6058 4.88438L8.97611 1.18331C8.26129 0.608775 7.10556 0.608769 6.39742 1.17662L1.76778 4.88438C1.24669 5.29857 0.91265 6.17375 1.02622 6.82845L1.21328 7.95074" stroke="white" stroke-width="1.5" stroke-linecap="round" stroke-linejoin="round"/>
<path d="M1.006 11.9859C2.18178 12.0126 2.98345 12.8143 3.01018 13.9901" stroke="white" stroke-width="1.5" stroke-linecap="round" stroke-linejoin="round"/>
<path d="M5.01435 13.9901C5.00767 13.4824 4.92083 13.008 4.76717 12.5738C4.37302 11.4581 3.53126 10.6231 2.42228 10.2289C1.98804 10.0753 1.51373 9.98841 1.006 9.98173" stroke="white" stroke-width="1.5" stroke-linecap="round" stroke-linejoin="round"/>
<path d="M1.00234 13.9953H1.00836" stroke="white" stroke-width="2" stroke-linecap="round" stroke-linejoin="round"/>
</svg>
