<svg width="132" height="132" viewBox="0 0 132 132" fill="none" xmlns="http://www.w3.org/2000/svg">
<g clip-path="url(#clip0_3_527)">
<mask id="mask0_3_527" style="mask-type:luminance" maskUnits="userSpaceOnUse" x="0" y="0" width="132" height="132">
<path d="M132 0H0V132H132V0Z" fill="white"/>
</mask>
<g mask="url(#mask0_3_527)">
<path d="M127.19 67.5483C130.561 88.4327 115.341 119.434 88.9853 101.154C70.1861 85.3916 51.7299 106.62 28.6583 107.428C10.6365 108.057 1.83989 83.3346 7.2999 68.4874C15.4119 46.4281 45.5236 59.2675 50.93 41.3921C59.1089 14.3487 90.7204 19.3095 107.068 31.3218C115.808 37.7443 123.315 43.539 127.19 67.5483Z" fill="#E2F3F7"/>
<path d="M29.8521 49.5575C26.6209 51.9487 22.4524 54.0652 20.5137 60.4793C18.2518 67.8789 17.3632 74.8748 19.9159 81.3208C22.4686 87.7676 26.2815 92.7924 26.2815 93.7457C26.2815 94.6983 26.7824 103.068 27.0409 105.217C27.2994 107.365 30.3529 113.101 30.3529 113.101C30.3529 113.101 30.3529 113.343 33.4065 113.569C35.9054 113.599 38.3961 113.277 40.8062 112.616L41.307 98.5278C44.9261 100.882 49.009 102.43 53.2789 103.068C60.6624 104.263 72.2143 101.92 72.2143 101.92L75.7037 111.614L86.6583 112.325C86.7587 110.402 87.0125 108.489 87.4173 106.606C88.177 102.535 89.97 95.6194 89.97 95.6194C93.0713 96.2266 96.2327 96.4656 99.3897 96.3307C103.643 96.0095 107.632 94.1417 110.602 91.0793C112.218 89.4638 116.208 81.9999 117.727 80.8038C118.598 80.1013 119.664 79.684 120.78 79.6085C120.78 79.6085 124.351 73.3884 122.816 72.2089C121.944 71.5141 121.588 71.2395 114.932 70.5932C99.3897 68.9776 99.6478 58.6536 99.6478 58.6536C99.6478 58.6536 101.425 52.6757 100.408 51.9649C99.3897 51.254 93.7833 52.918 91.4887 55.5516C90.2567 56.9481 89.1736 58.4697 88.2577 60.0915C88.2577 60.0915 79.5977 52.0133 75.5263 49.816C67.0063 46.13 57.8119 44.2592 48.529 44.3229C42.0341 44.6137 33.1642 47.1664 29.8521 49.5575Z" fill="#E8C4C0"/>
<g style="mix-blend-mode:multiply">
<path d="M38.7709 50.4137C38.7709 50.4137 35.9597 52.2071 37.4946 52.4495C39.0294 52.6918 44.8781 51.9486 51.2437 51.9486C55.2841 51.9208 59.3101 52.4316 63.2156 53.4673C63.9749 53.7258 65.7683 51.6901 64.492 50.6722C63.2156 49.6544 53.0209 48.8951 49.7088 49.0566C46.3968 49.2182 38.7709 50.4137 38.7709 50.4137Z" fill="#E8C4C0"/>
</g>
<g style="mix-blend-mode:multiply">
<path d="M41.0488 93.9868L41.3073 98.5269C41.3073 98.5269 44.8779 102.356 53.2792 103.067C59.6074 103.342 65.9447 102.799 72.1338 101.451C72.1338 101.451 57.8677 101.226 50.7427 98.3494C44.0862 95.6192 41.0488 93.9868 41.0488 93.9868Z" fill="#E8C4C0"/>
</g>
<g style="mix-blend-mode:multiply">
<path d="M104.381 76.5225C104.373 76.9655 104.226 77.3945 103.962 77.7501C103.823 77.943 103.637 78.0977 103.423 78.1997C103.208 78.3009 102.971 78.3463 102.734 78.3317C102.333 78.3324 101.939 78.2268 101.593 78.0251C101.246 77.8235 100.96 77.5338 100.762 77.1847C100.609 76.9083 100.531 76.5966 100.536 76.2798C100.556 76.1038 100.611 75.9337 100.698 75.7789C100.921 75.3309 101.254 74.9466 101.667 74.6643C101.985 74.4648 102.367 74.3951 102.734 74.4707C103.136 74.5411 103.508 74.7339 103.797 75.0229C104.086 75.3118 104.279 75.6836 104.349 76.0862C104.357 76.2153 104.357 76.3451 104.349 76.4741" fill="#E8C4C0"/>
</g>
<g style="mix-blend-mode:multiply">
<path d="M90.3097 93.7449L89.9863 95.6677C89.9863 95.6677 100.957 97.1864 105.093 94.8595C101.877 95.3685 98.5964 95.3135 95.3991 94.6982C93.73 94.2487 92.0287 93.9297 90.3097 93.7449Z" fill="#E8C4C0"/>
</g>
<g style="mix-blend-mode:multiply">
<g style="mix-blend-mode:multiply">
<path d="M11.0784 72.8388L10.4806 71.8048C11.9006 71.0291 13.063 69.8554 13.825 68.4281L13.098 68.1373C11.4343 67.2351 10.1924 65.7146 9.64053 63.9043C9.10461 62.6859 9.06405 61.3068 9.52745 60.0591C9.84373 59.1588 10.4188 58.372 11.1804 57.7972C11.942 57.2224 12.8564 56.8851 13.8089 56.8278C14.3426 56.7759 14.8806 56.8632 15.3704 57.0813C15.8603 57.2993 16.2853 57.6406 16.604 58.0718C17.9611 59.8652 17.8319 63.258 16.9917 65.6815C16.8463 66.1016 16.6686 66.5216 16.4908 66.9094C18.6101 66.0446 20.6173 64.9271 22.4687 63.5812L23.2927 64.8737C19.6575 67.2002 17.541 68.5412 15.5376 68.622C14.4041 70.3592 12.8762 71.8041 11.0784 72.8388ZM14.132 57.878H13.7927C13.0752 57.9339 12.3889 58.1952 11.816 58.6307C11.2429 59.0661 10.8074 59.6573 10.5614 60.3337C10.4594 61.52 10.6307 62.7138 11.0623 63.8235C11.2759 64.471 11.6238 65.0662 12.0832 65.5701C12.5425 66.074 13.103 66.4754 13.7281 66.7479C14.0381 66.8915 14.3633 66.9999 14.6974 67.071C15.2315 66.3858 15.7226 65.6681 16.1677 64.9222C16.4739 63.9402 16.5602 62.9028 16.4206 61.8837C16.281 60.8645 15.9189 59.8886 15.3599 59.0251C15.0529 58.605 14.6974 57.8941 14.132 57.8941V57.878Z" fill="#E5BBB7"/>
</g>
</g>
<mask id="mask1_3_527" style="mask-type:alpha" maskUnits="userSpaceOnUse" x="31" y="16" width="36" height="38">
<g style="mix-blend-mode:multiply">
<path d="M31.0293 51.6155C31.0293 51.6155 33.1829 17.838 35.0214 17.4735C36.86 17.109 43.7765 18.6144 51.3477 18.848C56.1518 19.0446 60.9678 18.3055 65.6684 16.65C66.5855 16.2289 67.2411 51.4458 65.6684 53.1666C63.4328 54.2666 52.4328 51.6155 44.3661 52.4334C34.0995 52.9495 31.0293 51.6155 31.0293 51.6155Z" fill="#E8C4C0"/>
</g>
</mask>
<g mask="url(#mask1_3_527)">
<path d="M41.3335 70.7347C42.6299 70.6292 52.7613 69.6973 55.3521 69.5509C57.9428 69.4046 64.0852 70.4509 63.9863 68.9446C63.743 65.9099 63.6698 62.864 63.7667 59.8212C63.8874 55.9132 62.9937 42.9705 62.764 39.9408L61.5006 22.2182C61.5006 22.2182 50.2009 21.724 47.6086 21.9187C45.0163 22.1135 36.6631 23.5691 36.6631 23.5691C37.5701 27.0827 38.1894 30.6643 38.5147 34.2784C38.8886 39.4463 38.6931 52.0645 39.1887 55.9107C39.6842 59.7568 40.0538 70.8245 41.3335 70.7347Z" fill="#536B5F"/>
<path d="M40.3043 69.5071C41.6002 69.4178 51.732 68.4697 54.3228 68.3234C56.9136 68.177 63.0565 69.2071 62.9575 67.7008C62.7144 64.6769 62.6408 61.6419 62.737 58.6098C62.8581 54.6856 61.9644 41.7429 61.7347 38.7131L60.441 20.925C60.441 20.925 49.1414 20.4308 46.5491 20.6255C43.9568 20.8203 35.6035 22.2759 35.6035 22.2759C36.5079 25.8109 37.1211 29.4141 37.437 33.0493C37.8104 38.2334 37.6154 50.8353 38.1105 54.6977C38.6055 58.5601 39.0085 69.5964 40.3043 69.5071Z" stroke="#536B5F" stroke-width="0.484693" stroke-miterlimit="10"/>
<path d="M45.2919 66.0723C45.0801 65.6356 44.7589 65.2612 44.3595 64.9853C43.9602 64.7096 43.4962 64.542 43.0128 64.4987C41.7855 64.4608 41.5027 65.2441 41.5027 65.2441C41.5027 65.2441 40.8915 54.6701 40.625 51.7846C40.3584 48.8992 40.4146 41.3199 40.4589 39.8827C40.5032 38.4455 39.3274 30.4564 39.2884 30.1481C39.2495 29.8398 39.042 27.134 39.042 27.134C39.7204 27.1503 40.3855 26.9437 40.9352 26.5458C41.5477 25.8732 41.9693 25.0492 42.1565 24.1589C44.2365 24.2288 46.3185 24.1037 48.3751 23.7851C50.1018 23.6374 51.8359 23.5937 53.5678 23.6544C54.5851 23.6858 57.5444 23.6479 57.5444 23.6479C57.2609 23.9489 57.0783 24.3309 57.0222 24.7406C56.9661 25.1503 57.0392 25.5673 57.2314 25.9335C57.4905 26.3855 57.8657 26.76 58.3181 27.0183C58.7705 27.2767 59.2837 27.4095 59.8046 27.403C59.9693 27.8284 61.0429 42.7972 61.1058 47.5675C61.1687 52.3379 61.7774 62.9927 61.7774 62.9927C60.7246 63.123 59.7278 63.5394 58.8953 64.1969C58.1381 65.3537 57.8042 66.7368 57.9501 68.1117C56.0015 67.9343 54.0439 67.8739 52.0881 67.9308C50.0083 67.9818 47.9274 67.9176 45.8547 67.7384C45.7293 67.1639 45.5405 66.6051 45.2919 66.0723Z" fill="#889990"/>
<path d="M51.1444 51.8991C49.8013 52.0312 48.45 51.7468 47.274 51.0846C46.4284 50.5792 45.7357 49.854 45.2698 48.9861C44.7578 48.2631 44.4135 47.4353 44.2616 46.5626C43.879 43.7706 44.0835 41.3361 46.8885 39.483C47.7404 38.8927 48.7218 38.5159 49.7499 38.3845C50.778 38.253 51.8226 38.3708 52.7956 38.7278C53.6529 39.0649 54.4337 39.5711 55.0914 40.2162C55.749 40.8613 56.2702 41.6322 56.6237 42.4829C57.4486 44.1217 57.5933 46.0199 57.0265 47.7648C56.7446 48.6715 56.2027 49.4753 55.468 50.0767C54.2496 51.116 52.7392 51.7526 51.1444 51.8991Z" fill="#63796D" fill-opacity="0.8"/>
<path d="M48.8986 28.3113C49.6958 28.2072 50.5055 28.3566 51.213 28.7383C51.5985 28.9354 51.9262 29.2289 52.1644 29.5904C52.4025 29.9519 52.5429 30.3689 52.5718 30.8008C52.6889 31.5193 52.6072 32.2561 52.3357 32.9315C52.0641 33.6069 51.613 34.1952 51.0311 34.6327C50.5629 35.0044 49.992 35.2237 49.3952 35.261C49.0828 35.2869 48.7685 35.2385 48.4783 35.1196C47.6112 34.843 46.8341 34.339 46.228 33.66C46.0125 33.4017 45.852 33.102 45.7563 32.7794C45.6607 32.4569 45.6318 32.1181 45.6717 31.784C45.686 31.0263 45.94 30.2926 46.3972 29.6882C46.8542 29.0837 47.4911 28.6396 48.2163 28.4196C48.4407 28.3665 48.6688 28.3304 48.8986 28.3113Z" fill="#63796D" fill-opacity="0.8"/>
<path d="M54.1641 44.6539C54.0779 44.4486 53.9581 44.2592 53.8096 44.0933C53.0191 43.5194 51.9159 44.6977 51.9643 44.6991L51.4687 45.5728L50.9173 46.1539C50.2567 46.9626 49.328 47.5074 48.2998 47.6895C47.7879 47.7058 47.2857 47.5479 46.8752 47.2415C46.4649 46.9352 46.1705 46.4987 46.0404 46.0034L45.346 45.982C45.346 45.982 45.272 45.2362 45.2568 45.2033C45.5073 45.1402 45.7628 45.0994 46.0203 45.0814C46.0136 44.9467 46.0178 44.8117 46.0328 44.6777C46.1021 44.4079 46.24 44.1606 46.4332 43.9597C46.6263 43.7589 46.868 43.6115 47.135 43.5318C47.6088 43.3686 48.1261 43.3684 48.1081 43.9498C48.0981 44.2727 48.0937 44.4181 47.7541 44.4237C47.4144 44.4294 46.9557 44.6254 46.9937 44.966L46.9748 45.5797C47.0194 45.7836 47.1121 45.974 47.2453 46.1349C47.3784 46.2957 47.5481 46.4223 47.7402 46.5042C47.9323 46.5861 48.1411 46.6208 48.3494 46.6054C48.5576 46.5901 48.7592 46.5252 48.9372 46.4161C48.9372 46.4161 50.1111 45.5633 49.9845 45.4785L50.4884 44.8637C50.9094 44.3785 51.3897 43.948 51.918 43.5824C52.2009 43.3661 52.5316 43.2207 52.8822 43.1584C53.2329 43.0961 53.5933 43.1187 53.9334 43.2243C54.2828 43.367 54.5759 43.6202 54.7679 43.9451C54.8576 44.096 54.9182 44.2624 54.9467 44.4356C55.1185 44.4514 55.291 44.4568 55.4634 44.4515C55.8349 44.463 56.0933 44.4709 56.1116 44.9241C56.13 45.3773 56.0947 45.4732 55.6758 45.4279L55.1429 45.4115C55.1533 45.5299 55.1496 45.6492 55.1319 45.7667C55.0351 46.1868 54.815 46.5683 54.5001 46.8626C54.2492 47.1433 53.9232 47.3465 53.5606 47.4478C53.1539 47.5322 53.1633 47.2254 53.1567 46.9181C53.15 46.6108 53.1707 46.466 53.3846 46.3432C53.5846 46.2895 53.7651 46.1794 53.9045 46.0261C54.0439 45.8728 54.1364 45.6828 54.1709 45.4785L54.1641 44.6539Z" fill="white"/>
<g style="mix-blend-mode:multiply" opacity="0.27">
<path d="M39.1826 48.9492L39.6998 55.2369L63.9944 56.811L63.7235 49.351C55.5802 48.3529 47.3542 48.2182 39.1826 48.9492Z" fill="#5BB55F"/>
</g>
</g>
</g>
</g>
<defs>
<clipPath id="clip0_3_527">
<rect width="132" height="132" fill="white"/>
</clipPath>
</defs>
</svg>
