<svg width="24" height="11" viewBox="0 0 24 11" fill="none" xmlns="http://www.w3.org/2000/svg">
<path d="M21.9283 5.58995C21.9362 5.54366 21.9423 5.49653 21.9423 5.44771C21.9423 5.43887 21.9398 5.43088 21.9398 5.42204L22.0159 5.50032L21.9283 5.58995ZM23.7593 4.90528L19.2107 0.24681C18.8902 -0.0822701 18.3692 -0.0822701 18.0487 0.24681C17.7278 0.575049 17.7278 1.10823 18.0487 1.43689L21.1455 4.6086C21.1369 4.60818 21.1291 4.60607 21.1205 4.60607H0.821777C0.368157 4.60607 0 4.98313 0 5.44771C0 5.91272 0.368157 6.28935 0.821777 6.28935H21.1205C21.1682 6.28935 21.2142 6.28304 21.2594 6.27504L18.0487 9.56332C17.7278 9.89198 17.7278 10.4247 18.0487 10.7534C18.2094 10.9179 18.4193 11 18.6296 11C18.84 11 19.0505 10.9179 19.2107 10.7534L23.7593 6.09535C23.9134 5.93754 24 5.72335 24 5.50032C24 5.27686 23.9134 5.06308 23.7593 4.90528Z" fill="#999999"/>
</svg>
