<svg width="45" height="45" viewBox="0 0 45 45" fill="none" xmlns="http://www.w3.org/2000/svg">
<g clip-path="url(#clip0_47_36726)">
<path d="M25.7344 41.625C25.7344 41.625 24.75 45.2812 19.125 44.8594L14.2031 44.4375C12.9375 44.2969 11.6719 43.7344 10.8281 42.75L6.89062 38.1094L25.7344 41.625Z" fill="#63310F"/>
<path d="M15.1875 28.2656C15.1875 28.2656 16.0312 32.0625 15.4687 36L14.9062 39.6563C14.9062 39.6563 20.5312 38.8125 22.3594 36.7031C24.1875 34.5938 26.5781 27.1406 26.5781 27.1406L24.3281 24.6094L15.1875 28.2656Z" fill="#FCC097"/>
<path d="M41.3436 25.8758C40.078 36.4227 27.4218 45.8446 16.5936 44.7196C5.76552 43.454 3.51552 32.3446 4.78114 21.7977C6.04677 11.2508 13.2186 3.37585 24.0468 4.64147C34.8749 5.9071 42.6093 15.329 41.3436 25.8758Z" fill="#63310F"/>
<path d="M39.797 24.1882C38.672 33.7507 29.672 40.6413 19.8282 39.6569C9.98448 38.6725 5.90635 30.3756 7.73448 20.8131C9.28135 12.9381 16.0314 4.92252 26.0157 6.04752C36.0001 7.17252 40.922 14.6256 39.797 24.1882Z" fill="#E8BD89"/>
<path d="M39.6563 22.3577C38.5313 30.6546 28.4063 39.6546 19.125 38.8108C9.84376 37.9671 4.50001 29.5296 5.62501 21.2327C6.60938 13.0765 13.3594 4.49833 24.8906 5.62333C34.1719 6.60771 40.7813 14.0608 39.6563 22.3577Z" fill="#CE9D67"/>
<path d="M23.0623 24.6094C22.2186 31.3594 23.0623 36.4219 15.8905 35.7188C8.71859 34.875 5.20296 28.6875 5.90609 21.9375C6.60921 15.1875 11.5311 10.5469 18.703 11.25C25.8748 11.9531 23.7655 18 23.0623 24.6094Z" fill="#FFD097"/>
<path d="M34.4531 22.2174C34.4531 22.2174 35.2969 27.2799 33.6094 29.2486C31.9219 31.2174 38.8125 32.2017 38.8125 32.2017C38.8125 32.2017 41.625 26.858 41.0625 23.7642C40.3594 20.5299 34.4531 22.2174 34.4531 22.2174ZM27 36.7017C27 36.7017 25.1719 42.0455 21.7969 42.8892C18.4219 43.733 15.1875 43.8736 12.7969 42.8892C10.4063 42.0455 5.76562 35.9986 5.76562 33.7486C5.76562 31.4986 5.625 31.2174 5.625 31.2174L27 36.7017Z" fill="#63310F"/>
<path d="M27.8438 35.1563C30.2344 35.2969 25.3125 42.1875 22.6406 42.8906C19.9688 43.5938 15.3281 43.4531 13.3594 42.6094C11.3906 41.7656 6.04688 35.4375 6.04688 33.1875L5.90625 29.3906C5.90625 29.3906 6.89062 33.8906 27.8438 35.1563Z" fill="#C6A27B"/>
<path d="M18.7029 29.3906C18.7029 29.3906 22.6404 28.125 25.031 29.3906C25.031 29.3906 26.156 30.5156 25.4529 30.9375C24.8904 31.3594 24.0466 31.9219 23.4841 31.3594C22.9216 30.7969 20.3904 29.3906 18.7029 29.3906ZM9.70289 26.5781C9.70289 26.5781 8.85914 24.0469 6.89039 23.9062C6.89039 23.9062 5.48414 24.3281 5.62476 24.75C5.62476 25.3125 5.48414 26.0156 6.18726 25.875C6.89039 25.7344 8.99976 25.7344 9.70289 26.5781Z" fill="#2B2927"/>
<path d="M10.1251 33.0469C10.1251 33.0469 16.3126 36.1406 20.9532 35.8594C21.9376 35.7188 22.5001 37.125 22.0782 38.25C21.3751 40.0781 18.9845 41.7656 17.297 41.625C12.9376 41.2031 9.84383 34.4531 9.84383 34.4531C9.84383 34.4531 9.28133 34.1719 10.1251 33.0469Z" fill="#63310F"/>
<path d="M13.2188 40.0768C13.2188 40.0768 13.2188 38.6706 16.1719 38.2487C19.125 37.8268 20.8125 39.3737 20.8125 39.3737C20.8125 39.3737 20.8125 41.0612 19.6875 41.4831C18.5625 41.7643 15.4688 42.7487 13.2188 40.0768Z" fill="#ED5671"/>
<path d="M19.2656 41.2031L16.7344 40.7813L16.875 39.2344L15.8906 40.7813H13.9219C13.9219 40.6406 15.75 43.3125 19.2656 41.2031Z" fill="#A02A44"/>
<path d="M5.625 21.5156C5.625 21.5156 12.375 27.7031 12.375 17.0156L9.14062 12.375C9.14062 12.375 6.75 14.625 6.1875 18.2812M27 35.2969L32.625 33.0469L33.6094 35.7187C33.6094 35.7187 30.5156 40.0781 24.3281 41.7656L27 35.2969Z" fill="#AA8866"/>
<path d="M27.703 16.8741C27.2812 16.8741 26.9999 17.0148 26.578 17.0148H26.2968C26.0155 17.0148 25.5937 17.1554 25.3124 17.296C24.7499 17.4366 24.0468 17.7179 23.7655 18.2804C23.7655 18.421 23.6249 18.5616 23.4843 18.8429C25.7343 18.2804 27.703 18.9835 28.2655 19.8273C29.1093 20.8116 30.0937 21.9366 31.9218 21.3741C33.8905 20.8116 31.4999 17.8585 27.703 16.8741ZM10.9687 16.4523C9.42178 16.0304 7.17178 17.0148 5.90616 17.8585C6.04678 18.421 6.04678 18.5616 6.04678 19.2648C8.43741 17.7179 11.1093 18.7023 11.8124 19.6866C12.5155 20.8116 13.2187 21.9366 14.7655 21.3741C16.1718 20.8116 14.0624 17.296 10.9687 16.4523ZM41.6249 11.1085L39.6562 17.5773C39.6562 17.5773 28.4062 11.3898 18.2812 15.4679L16.3124 16.171C16.3124 16.171 7.31241 14.3429 6.60928 12.6554C6.60928 12.6554 4.49991 9.28039 7.45303 5.20226C7.45303 5.20226 7.87491 5.90539 8.29678 7.45226C8.29678 7.45226 9.42178 3.79601 14.0624 2.10851C14.0624 2.10851 13.3593 2.67101 13.6405 5.20226C13.6405 5.20226 18.703 0.421011 24.4687 0.561636C24.4687 0.561636 22.9218 1.96789 22.9218 4.63976C22.9218 4.63976 28.6874 3.09289 35.4374 4.07726C35.4374 4.07726 34.5937 5.76476 33.0468 7.31164C32.9062 7.17101 37.4062 8.85851 41.6249 11.1085Z" fill="#63310F"/>
<path d="M38.9533 10.8274L37.2658 16.1711C37.2658 16.1711 27.7033 10.968 19.1252 14.343L17.4377 14.9055C17.4377 14.9055 8.71894 13.4992 8.15644 12.093C8.15644 12.093 6.32832 9.9836 7.45332 7.31173C7.45332 7.31173 8.29707 8.8586 8.71894 10.1242C8.71894 10.1242 8.85957 5.34298 12.7971 3.93673C12.7971 3.93673 12.2346 4.49923 12.5158 6.46798C12.5158 6.46798 17.8596 1.82735 22.7814 1.96798C22.7814 1.96798 20.6721 3.93673 20.6721 6.18673C20.6721 6.18673 27.8439 4.07735 33.7502 4.9211C33.7502 4.9211 33.0471 6.32735 31.6408 7.59298C31.6408 7.45235 35.4377 8.8586 38.9533 10.8274Z" fill="url(#paint0_linear_47_36726)"/>
<path d="M32.625 14.9062L29.5312 17.5781C29.5312 17.5781 32.9062 22.3594 32.2031 27.1406L40.6406 23.625L40.0781 17.0156C40.0781 17.0156 35.8594 14.9062 32.625 14.9062ZM34.1719 29.25C34.1719 29.25 36.7031 27.1406 38.1094 27.2812C39.5156 27.4219 41.0625 35.0156 36 36C30.9375 36.9844 34.1719 29.25 34.1719 29.25Z" fill="#63310F"/>
<path d="M35.719 28.9705C35.719 28.9705 38.5315 26.4392 40.219 26.5799C41.9065 26.7205 43.4533 35.7205 37.6877 36.9861C31.9221 38.2517 35.719 28.9705 35.719 28.9705Z" fill="#63310F"/>
<path d="M33.6094 28.5483C33.6094 28.5483 37.1251 25.8765 38.8126 26.0171C40.5001 26.1577 42.4688 34.5952 36.2813 35.5796C30.0938 36.7046 33.6094 28.5483 33.6094 28.5483Z" fill="#E8BD89"/>
<path d="M34.5936 28.8294C34.5936 28.8294 36.703 27.2825 37.9686 27.4231C39.2342 27.5637 40.6405 33.1887 36.2811 33.7512C31.9217 34.4544 34.5936 28.8294 34.5936 28.8294Z" fill="#C18053"/>
<path d="M34.0311 29.2512C34.0311 29.2512 36.1405 27.7044 37.4061 27.845C38.6717 27.9856 40.078 33.6106 35.7186 34.1731C31.3592 35.0169 34.0311 29.2512 34.0311 29.2512Z" fill="#CE9D67"/>
<path d="M33.7499 28.8313C34.8749 24.6126 30.6562 23.4876 30.6562 23.4876C30.6562 23.4876 28.2655 22.6438 26.1562 24.1907C25.0312 22.0813 22.7812 21.6595 22.7812 21.6595C22.7812 21.6595 18.8437 20.3938 17.1562 25.1751C15.4687 30.097 22.4999 35.4407 22.9218 35.8626C23.4843 35.5813 32.4843 33.7532 33.7499 28.8313ZM15.328 26.8626C15.6093 23.9095 12.6562 23.6282 12.6562 23.6282C12.6562 23.6282 10.9687 23.347 9.84365 24.6126C8.85928 23.347 7.3124 23.2063 7.3124 23.2063C7.3124 23.2063 4.4999 22.7845 4.07803 26.1595C3.65615 29.6751 8.85928 32.4876 9.14053 32.6282C9.5624 32.4876 15.1874 30.3782 15.328 26.8626Z" fill="#63310F"/>
<path d="M14.6249 25.0327C14.7656 21.517 11.3906 21.0952 11.3906 21.0952C11.3906 21.0952 9.42182 20.8139 8.01557 22.2202C6.89057 20.6733 5.06245 20.5327 5.06245 20.5327C5.06245 20.5327 1.68745 20.1108 1.12495 24.0483C0.562447 28.1264 8.57807 32.0639 8.85932 32.3452L8.7187 31.642L7.87495 31.9233L8.57807 31.3608C9.14057 31.2202 14.4843 29.2514 14.6249 25.0327Z" fill="#63310F"/>
<path d="M30.9375 27.1406C31.0781 27.1406 35.1562 26.5781 35.1562 26.5781L35.2969 27.7031L30.9375 29.8125L31.3594 27.5625L30.9375 27.1406Z" fill="#AE021D"/>
<path d="M38.8125 17.4375L30.9375 18.2813C30.9375 18.2813 32.0625 19.6875 32.4844 21.9375L37.125 20.3906C37.4062 20.3906 39.6563 19.8281 39.6563 19.8281L38.8125 17.4375Z" fill="url(#paint1_linear_47_36726)"/>
<path d="M33.0469 4.92188C33.0469 4.92188 29.6719 7.03125 25.7344 7.59375L32.4844 9.5625L25.7344 10.5469C23.7656 10.6875 21.6562 11.1094 21.6562 11.1094L31.2188 12.375C31.2188 12.375 23.7656 12.5156 20.3906 14.0625C20.3906 14.0625 29.5312 12.375 37.125 16.3125L38.3906 15.8906L40.6406 11.6719C40.6406 11.6719 36.8438 9.42188 34.0313 8.85938L32.0625 8.15625L33.4687 5.0625L33.0469 4.92188Z" fill="#B85A1B"/>
<path d="M41.2031 11.8125L33.1875 11.6719L37.125 13.5L29.5312 13.7812C29.5312 13.7812 33.3281 14.2031 35.0156 16.7344L36.2812 17.1562L39.0937 16.4531L41.2031 11.8125Z" fill="#63310F"/>
<path d="M7.3125 10.5469C7.3125 10.5469 9.84375 12.375 11.9531 12.6562L22.0781 13.5L17.7188 15.4688C17.7188 15.4688 10.6875 14.4844 9.28125 13.5C8.01563 12.5156 7.3125 10.5469 7.3125 10.5469Z" fill="#B85A1B"/>
<path d="M14.6251 24.0469C14.7657 22.5 13.922 21.7969 13.2189 21.375C12.6564 21.0937 11.8126 21.0938 11.1095 21.2344C10.547 21.375 9.56262 21.7969 8.8595 22.3594C8.297 21.6562 7.59387 21.2344 7.03137 21.0938C6.18762 20.6719 5.20325 20.6719 4.3595 21.0938C3.65637 21.375 2.95325 22.0781 2.81262 23.4844C2.39075 26.5781 8.01575 29.25 8.297 29.3906C8.57825 29.25 14.4845 27.1406 14.6251 24.0469Z" fill="#960F0F"/>
<path d="M34.3125 26.2954C34.875 24.0454 34.0313 22.9204 33.0469 22.2173C32.2032 21.5141 30.9375 21.2329 29.8125 21.3735C28.8282 21.5141 27.4219 21.7954 26.2969 22.4985C25.7344 21.3735 24.75 20.6704 24.0469 20.1079C22.9219 19.2641 21.5157 18.9829 20.1094 19.4048C18.9844 19.686 17.8594 20.5298 17.1563 22.3579C15.6094 26.7173 23.0625 31.9204 23.4844 32.3423C24.0469 32.2016 33.1875 30.7954 34.3125 26.2954Z" fill="#960F0F"/>
<path d="M35.0158 27.7006C36.1408 23.4819 31.5002 22.2162 31.5002 22.2162C31.5002 22.2162 28.8283 21.3725 26.5783 22.7788C25.3127 20.5288 22.9221 20.1069 22.9221 20.1069C22.9221 20.1069 18.4221 18.8413 16.7346 23.4819C15.0471 28.2631 22.7814 33.8881 23.2033 34.31C23.7658 34.31 33.6096 32.6225 35.0158 27.7006Z" fill="#960F0F"/>
<path d="M33.8907 26.8579C34.4532 24.6079 33.6094 23.4829 32.625 22.7798C31.7813 22.0766 30.5157 21.7954 29.3907 21.936C28.4063 22.0766 27 22.3579 25.875 23.061C25.3125 21.936 24.3282 21.2329 23.625 20.6704C22.5 19.8266 21.0938 19.5454 19.6875 19.9673C18.5625 20.2485 17.4375 21.0923 16.7344 22.9204C15.1875 27.2798 22.6407 32.4829 23.0625 32.9048C23.625 32.7641 32.7657 31.3579 33.8907 26.8579Z" fill="#FF5C5C"/>
<path d="M30.6563 26.1572C31.0782 24.4697 30.375 23.626 29.6719 23.0635C28.9688 22.6416 28.125 22.3603 27.2813 22.501C26.5782 22.6416 25.5938 22.7822 24.6094 23.3447C24.1875 22.501 23.4844 21.9385 22.9219 21.6572C22.0782 21.0947 20.9532 20.8135 19.9688 21.0947C19.125 21.376 18.2813 21.9385 17.8594 23.3447C16.7344 26.5791 22.2188 30.376 22.5 30.6572C23.0625 30.5166 29.8125 29.5322 30.6563 26.1572Z" fill="#F98B8B"/>
<path d="M20.1094 27.2815C19.4062 27.2815 18.7031 27.1409 18.4219 26.719C18.1406 26.2971 17.7188 25.8753 17.7188 25.1721C17.7188 23.6253 19.9687 20.5315 22.5 22.7815C25.1719 25.0315 21.7969 27.1409 20.1094 27.2815Z" fill="#FFBDBD"/>
<path d="M30.6564 23.7672C30.3751 23.7672 30.2345 23.7672 30.0939 23.6265C29.9533 23.4859 29.8126 23.3453 29.9533 23.064C29.9533 22.5015 30.797 21.3765 31.6408 22.0797C32.4845 22.7828 31.2189 23.6265 30.6564 23.7672Z" fill="white"/>
<path d="M22.5002 23.2015C22.3595 23.4828 22.0783 23.764 21.797 23.9046C21.5158 24.0453 21.0939 24.0453 20.672 24.0453C19.6877 23.764 18.422 22.3578 20.3908 21.514C22.3595 20.5296 22.7814 22.3578 22.5002 23.2015Z" fill="#FFBDBD"/>
<path d="M15.3283 25.4544C15.469 22.5013 12.094 22.22 12.094 22.22C12.094 22.22 10.1252 21.9387 8.71897 23.2044C7.59397 21.7981 5.76584 21.7981 5.76584 21.7981C5.76584 21.7981 2.53147 21.3763 1.96897 24.7513C1.40647 28.1263 7.73459 31.0794 8.01584 31.22C8.43772 31.0794 15.1877 28.97 15.3283 25.4544Z" fill="#960F0F"/>
<path d="M14.6251 24.75C14.7657 23.2031 13.922 22.5 13.2189 22.0781C12.5157 21.7969 11.672 21.6563 10.9689 21.9375C10.4064 22.0781 9.422 22.5 8.71887 23.0625C8.15637 22.3594 7.45325 21.9375 6.89075 21.7969C6.047 21.375 5.06262 21.375 4.21887 21.7969C3.51575 22.0781 2.81262 22.7813 2.672 24.1875C2.25012 27.2813 7.87512 29.9531 8.15637 30.0937C8.43762 29.9531 14.4845 27.8438 14.6251 24.75Z" fill="#FF5C5C"/>
<path d="M12.3748 24.6094C12.3748 23.4844 11.953 22.9219 11.3905 22.6406C10.828 22.3594 10.2655 22.3594 9.70296 22.5C9.28109 22.6406 8.57796 22.9219 8.01546 23.3438C7.59359 22.9219 7.03109 22.5 6.60922 22.3594C5.90609 22.0781 5.20297 22.0781 4.64047 22.3594C4.07797 22.6406 3.65609 23.0625 3.51547 24.0469C3.09359 26.2969 7.31234 28.2656 7.59359 28.4063C7.87484 28.5469 12.2342 27 12.3748 24.6094Z" fill="#F98B8B"/>
<path d="M7.31263 24.0468C7.17201 24.4687 6.89076 24.8906 6.46888 25.1718C6.04701 25.4531 5.62513 25.5937 5.06263 25.5937C3.79701 25.5937 1.82826 24.1875 4.21888 22.5C6.75013 20.9531 7.59388 22.9218 7.31263 24.0468Z" fill="#FFBDBD"/>
</g>
<defs>
<linearGradient id="paint0_linear_47_36726" x1="7.05648" y1="9.01329" x2="38.9235" y2="9.01329" gradientUnits="userSpaceOnUse">
<stop stop-color="#F38C05"/>
<stop offset="1" stop-color="#B85A1B"/>
</linearGradient>
<linearGradient id="paint1_linear_47_36726" x1="30.8731" y1="19.6871" x2="39.6667" y2="19.6871" gradientUnits="userSpaceOnUse">
<stop stop-color="#F38C05"/>
<stop offset="1" stop-color="#B85A1B"/>
</linearGradient>
<clipPath id="clip0_47_36726">
<rect width="45" height="45" fill="white"/>
</clipPath>
</defs>
</svg>
