<svg width="86" height="28" viewBox="0 0 86 28" fill="none" xmlns="http://www.w3.org/2000/svg">
<path fill-rule="evenodd" clip-rule="evenodd" d="M0 10.8536C0 4.87041 5.04244 -0.000864139 11.0405 -0.000864139C14.3579 -0.000864139 16.72 1.29632 18.4981 2.99061L16.4014 5.08219C15.1275 3.89069 13.4026 2.96413 11.0405 2.96413C6.66147 2.96413 3.23785 6.48527 3.23785 10.8536C3.23785 15.2218 6.66147 18.743 11.0405 18.743C13.88 18.743 15.4991 17.6046 16.5341 16.572C17.3835 15.7248 17.9406 14.5071 18.1531 12.8393H11.0405V9.87405H21.0457C21.1519 10.4035 21.205 11.0389 21.205 11.7274C21.205 13.9511 20.5946 16.7045 18.6306 18.6636C16.72 20.649 14.2781 21.708 11.0405 21.708C5.04244 21.708 0 16.8369 0 10.8536Z" fill="#5F6368"/>
<path fill-rule="evenodd" clip-rule="evenodd" d="M29.2904 18.9546C27.1671 18.9546 25.336 17.2073 25.336 14.7186C25.336 12.2035 27.1671 10.4827 29.2904 10.4827C31.4134 10.4827 33.2445 12.2035 33.2445 14.7186C33.2445 17.2073 31.4134 18.9546 29.2904 18.9546ZM29.2904 7.72951C25.4156 7.72951 22.2573 10.668 22.2573 14.7186C22.2573 18.7428 25.4156 21.708 29.2904 21.708C33.1649 21.708 36.3232 18.7428 36.3232 14.7186C36.3232 10.668 33.1649 7.72951 29.2904 7.72951Z" fill="#5F6368"/>
<path fill-rule="evenodd" clip-rule="evenodd" d="M44.6335 18.9546C42.5104 18.9546 40.6791 17.2073 40.6791 14.7186C40.6791 12.2035 42.5104 10.4827 44.6335 10.4827C46.7565 10.4827 48.5877 12.2035 48.5877 14.7186C48.5877 17.2073 46.7565 18.9546 44.6335 18.9546ZM44.6335 7.72951C40.7587 7.72951 37.6005 10.668 37.6005 14.7186C37.6005 18.7428 40.7587 21.708 44.6335 21.708C48.508 21.708 51.6665 18.7428 51.6665 14.7186C51.6665 10.668 48.508 7.72951 44.6335 7.72951Z" fill="#5F6368"/>
<path fill-rule="evenodd" clip-rule="evenodd" d="M59.9353 18.9548C57.8123 18.9548 56.034 17.1811 56.034 14.7454C56.034 12.2834 57.8123 10.483 59.9353 10.483C62.0318 10.483 63.6774 12.2834 63.6774 14.7454C63.6774 17.1811 62.0318 18.9548 59.9353 18.9548ZM63.4649 8.15312V9.29167H63.3589C62.6689 8.47101 61.3418 7.72975 59.6699 7.72975C56.1667 7.72975 52.9554 10.8006 52.9554 14.7454C52.9554 18.6636 56.1667 21.7082 59.6699 21.7082C61.3418 21.7082 62.6689 20.967 63.3589 20.1196H63.4649V21.1258C63.4649 23.7996 62.0318 25.2292 59.723 25.2292C57.8388 25.2292 56.6709 23.879 56.1932 22.7407L53.5127 23.8525C54.2823 25.7059 56.3259 27.9826 59.723 27.9826C63.3324 27.9826 66.3843 25.8647 66.3843 20.7022V8.15312H63.4649Z" fill="#5F6368"/>
<mask id="mask0_47_92232" style="mask-type:luminance" maskUnits="userSpaceOnUse" x="-1" y="-1" width="88" height="30">
<path d="M-0.149115 28.1081H86.0997V-0.0196204H-0.149115V28.1081Z" fill="#5F6368"/>
</mask>
<g mask="url(#mask0_47_92232)">
<path fill-rule="evenodd" clip-rule="evenodd" d="M71.5851 21.2842H68.5065V0.739948H71.5851V21.2842Z" fill="#5F6368"/>
</g>
<mask id="mask1_47_92232" style="mask-type:luminance" maskUnits="userSpaceOnUse" x="-1" y="-1" width="88" height="30">
<path d="M-0.149115 28.1081H86.0997V-0.0196204H-0.149115V28.1081Z" fill="#5F6368"/>
</mask>
<g mask="url(#mask1_47_92232)">
<path fill-rule="evenodd" clip-rule="evenodd" d="M79.7884 10.43C81.0094 10.43 82.0444 11.0389 82.3894 11.9125L76.1262 14.5071C76.0464 11.8066 78.2227 10.43 79.7884 10.43ZM80.0273 18.9548C78.4615 18.9548 77.3469 18.24 76.6304 16.8369L85.9988 12.9716L85.6803 12.1772C85.0965 10.6153 83.3182 7.72951 79.6823 7.72951C76.0729 7.72951 73.0741 10.5624 73.0741 14.7188C73.0741 18.6371 76.0464 21.708 80.0273 21.708C83.2386 21.708 85.0965 19.749 85.8659 18.6106L83.4774 17.0222C82.6813 18.187 81.5932 18.9548 80.0273 18.9548Z" fill="#5F6368"/>
</g>
</svg>
