<svg width="30" height="9" viewBox="0 0 30 9" fill="none" xmlns="http://www.w3.org/2000/svg">
<path d="M25.8205 3.32812H0.897392C0.487136 3.32812 0.179443 3.63582 0.179443 4.04607C0.179443 4.45633 0.487136 4.76402 0.897392 4.76402H25.8205C26.2307 4.76402 26.5384 4.45633 26.5384 4.04607C26.5384 3.63582 26.2307 3.32812 25.8205 3.32812Z" fill="#523EE8"/>
<path d="M25.2051 4.8661V0.45584C25.2051 0.045584 25.5128 -0.159544 25.8205 0.148148L27.0512 1.27635C27.3589 1.58405 27.9743 2.09687 28.282 2.40456L29.5128 3.53276C29.8205 3.84046 29.8205 4.35328 29.5128 4.66097L28.282 5.78917C27.9743 6.09687 27.3589 6.60969 27.0512 6.91738L25.8205 7.84046C25.5128 8.14815 25.2051 8.04558 25.2051 7.53276V4.8661Z" fill="#523EE8"/>
</svg>
