<svg width="24" height="25" viewBox="0 0 24 25" fill="none" xmlns="http://www.w3.org/2000/svg">
<path d="M4.80834 21.3961C4.57962 21.6092 4.27711 21.7252 3.96454 21.7197C3.65197 21.7142 3.35374 21.5876 3.13268 21.3666C2.91162 21.1455 2.785 20.8472 2.77948 20.5346C2.77397 20.2221 2.88999 19.9196 3.10312 19.6908L8.3877 14.4062L10.0929 16.1115L4.80834 21.3961Z" stroke="#767676" stroke-width="1.15" stroke-linecap="round" stroke-linejoin="round"/>
<path d="M7.53516 13.5547L10.9456 16.9652" stroke="#767676" stroke-width="1.15" stroke-linecap="round" stroke-linejoin="round"/>
<path d="M17.2355 7.28125L9.24023 15.2604" stroke="#767676" stroke-width="1.15" stroke-linecap="round" stroke-linejoin="round"/>
<path d="M19.0046 7.75328C18.9348 7.84445 18.8463 7.91962 18.745 7.97373C18.6437 8.02784 18.532 8.05963 18.4174 8.06698C18.3022 8.07542 18.1866 8.05896 18.0783 8.01871C17.97 7.97846 17.8717 7.91536 17.79 7.83372L16.6559 6.69958C16.5732 6.61698 16.5095 6.51734 16.4692 6.4076C16.4289 6.29785 16.413 6.18066 16.4226 6.06415C16.4338 5.94693 16.4705 5.83358 16.5303 5.73212C16.5901 5.63066 16.6714 5.54356 16.7685 5.47697L19.8974 3.32131C19.9752 3.26755 20.0695 3.24293 20.1636 3.25175C20.2577 3.26058 20.3458 3.30229 20.4122 3.36957L21.1281 4.08544C21.1926 4.15883 21.2281 4.25319 21.2281 4.35088C21.2281 4.44857 21.1926 4.54292 21.1281 4.61631L19.0046 7.75328Z" stroke="#767676" stroke-width="1.15" stroke-linecap="round" stroke-linejoin="round"/>
<path d="M12.8044 11.6957L8.90328 7.79458C9.08742 7.37627 9.18326 6.92445 9.1848 6.4674C9.1848 5.61409 8.84583 4.79574 8.24245 4.19236C7.63907 3.58898 6.82071 3.25 5.9674 3.25C5.74601 3.25068 5.52518 3.27222 5.30784 3.31435C5.23608 3.329 5.1697 3.36296 5.11583 3.41257C5.06197 3.46219 5.02267 3.52556 5.00218 3.59587C4.98222 3.66615 4.98139 3.74047 4.99977 3.81118C5.01816 3.88188 5.05509 3.94639 5.10675 3.99805L6.24893 5.14022C6.28779 5.17766 6.31855 5.22268 6.3393 5.27249C6.36006 5.3223 6.37036 5.37584 6.36958 5.42979V6.4674C6.36958 6.57407 6.32721 6.67636 6.25178 6.75178C6.17636 6.82721 6.07407 6.86958 5.9674 6.86958H4.92979C4.87584 6.87036 4.8223 6.86006 4.77249 6.8393C4.72268 6.81855 4.67766 6.78779 4.64022 6.74893L3.49805 5.60675C3.44639 5.55509 3.38188 5.51816 3.31118 5.49977C3.24047 5.48139 3.16615 5.48222 3.09587 5.50218C3.02638 5.52418 2.96385 5.56396 2.91447 5.61757C2.86509 5.67119 2.83057 5.73677 2.81435 5.80784C2.77222 6.02518 2.75068 6.24601 2.75 6.4674C2.75 7.32071 3.08898 8.13907 3.69236 8.74245C4.29574 9.34583 5.11409 9.6848 5.9674 9.6848C6.42445 9.68326 6.87627 9.58742 7.29458 9.40328L11.1957 13.3044" stroke="#767676" stroke-width="1.15" stroke-linecap="round" stroke-linejoin="round"/>
<path d="M14.0601 12.9492L16.7064 15.5955C17.1248 15.4114 17.5766 15.3155 18.0336 15.314C18.8869 15.314 19.7053 15.653 20.3087 16.2563C20.912 16.8597 21.251 17.6781 21.251 18.5314C21.2503 18.7528 21.2288 18.9736 21.1867 19.191C21.172 19.2627 21.1381 19.3291 21.0884 19.383C21.0388 19.4368 20.9755 19.4761 20.9052 19.4966C20.8349 19.5166 20.7605 19.5174 20.6898 19.499C20.6191 19.4806 20.5546 19.4437 20.503 19.392L19.3608 18.2499C19.3234 18.211 19.2783 18.1802 19.2285 18.1595C19.1787 18.1387 19.1252 18.1284 19.0712 18.1292H18.0336C17.927 18.1292 17.8247 18.1716 17.7492 18.247C17.6738 18.3224 17.6314 18.4247 17.6314 18.5314V19.569C17.6307 19.623 17.641 19.6765 17.6617 19.7263C17.6825 19.7761 17.7132 19.8211 17.7521 19.8586L18.8943 21.0007C18.9459 21.0524 18.9829 21.1169 19.0013 21.1876C19.0196 21.2583 19.0188 21.3326 18.9988 21.4029C18.9768 21.4724 18.9371 21.5349 18.8834 21.5843C18.8298 21.6337 18.7642 21.6682 18.6932 21.6844C18.4758 21.7266 18.255 21.7481 18.0336 21.7488C17.1803 21.7488 16.362 21.4098 15.7586 20.8064C15.1552 20.2031 14.8162 19.3847 14.8162 18.5314C14.8178 18.0743 14.9136 17.6225 15.0977 17.2042L12.4434 14.5499" stroke="#767676" stroke-width="1.15" stroke-linecap="round" stroke-linejoin="round"/>
</svg>
