<svg width="18" height="18" viewBox="0 0 18 18" fill="none" xmlns="http://www.w3.org/2000/svg">
<path fill-rule="evenodd" clip-rule="evenodd" d="M13.1935 11.6104H12.3597L12.0642 11.3254C13.3307 9.84781 13.9851 7.83194 13.6262 5.68942C13.1302 2.75533 10.6816 0.412277 7.7264 0.0534317C3.26193 -0.495391 -0.495391 3.26193 0.0534317 7.7264C0.412277 10.6816 2.75533 13.1302 5.68942 13.6262C7.83194 13.9851 9.84781 13.3307 11.3254 12.0642L11.6104 12.3597V13.1935L16.0959 17.6791C16.5287 18.1118 17.2358 18.1118 17.6685 17.6791C18.1013 17.2464 18.1013 16.5392 17.6685 16.1065L13.1935 11.6104ZM6.86094 11.6104C4.23293 11.6104 2.11152 9.48896 2.11152 6.86094C2.11152 4.23293 4.23293 2.11152 6.86094 2.11152C9.48896 2.11152 11.6104 4.23293 11.6104 6.86094C11.6104 9.48896 9.48896 11.6104 6.86094 11.6104Z" fill="#9A9AB0"/>
</svg>
