<svg width="156" height="43" viewBox="0 0 156 43" fill="none" xmlns="http://www.w3.org/2000/svg">
<g clip-path="url(#clip0_47_91039)">
<path d="M13.3893 13.853C12.5616 12.8676 11.3604 12.3049 9.81237 12.3049C6.65912 12.3049 4.3405 14.867 4.3405 18.3907C4.3405 21.9145 6.66208 24.4775 9.67836 24.4775C11.3604 24.4775 12.7212 23.7295 13.5766 22.4476L17.0471 25.0372C15.4705 27.2799 12.802 28.3205 10.2134 28.3205C4.31389 28.3205 0.015625 24.4499 0.015625 18.3907C0.015625 12.3315 4.31389 8.46094 10.2134 8.46094C12.3222 8.46094 14.9916 9.18126 16.5928 11.2368L13.3893 13.853Z" fill="white"/>
<path d="M21.9411 7.66016V16.6272H21.9944C22.3678 15.6123 23.6764 14.5451 25.6255 14.5451C29.6824 14.5451 30.4303 17.2145 30.4303 20.685V27.839H26.4266V21.4862C26.4266 19.9913 26.399 18.0698 24.3435 18.0698C22.2624 18.0698 21.9411 19.6977 21.9411 21.3797V27.8399H17.9375V7.66016H21.9411Z" fill="white"/>
<path d="M44.0511 25.599C42.7701 27.2259 40.6604 28.161 38.5782 28.161C34.5746 28.161 31.3711 25.4916 31.3711 21.3539C31.3711 17.2163 34.5746 14.5469 38.5812 14.5469C42.3188 14.5469 44.667 17.2163 44.667 21.353V22.6083H35.3757C35.696 24.1347 36.8439 25.1201 38.391 25.1201C39.6996 25.1201 40.5805 24.453 41.2486 23.5435L44.0511 25.599ZM40.6604 19.8837C40.687 18.5495 39.6464 17.4282 38.2048 17.4282C36.4429 17.4282 35.4821 18.6293 35.3757 19.8837H40.6604Z" fill="white"/>
<path d="M54.7844 19.057C54.5539 18.7509 54.2555 18.5026 53.9126 18.3316C53.5697 18.1606 53.1918 18.0716 52.8087 18.0716C50.8064 18.0716 49.6062 19.4058 49.6062 21.3539C49.6062 23.302 50.8064 24.6382 52.8087 24.6382C53.6956 24.6382 54.3311 24.184 54.7844 23.6528L57.4272 26.4287C56.1728 27.7097 54.3311 28.1639 52.8087 28.1639C48.8051 28.1639 45.6016 25.4945 45.6016 21.3569C45.6016 17.2192 48.8051 14.5508 52.8087 14.5508C54.3311 14.5508 56.1728 15.005 57.4272 16.2861L54.7844 19.057Z" fill="white"/>
<path d="M58.2773 7.67969H62.281V20.0059L66.7152 14.8819H71.6274L66.4758 20.7282L71.7604 27.8555H66.7152L62.3352 21.2879H62.281V27.8546H58.2773V7.67969Z" fill="white"/>
<path d="M77.1759 14.5586C81.1795 14.5586 84.383 17.228 84.383 21.3657C84.383 25.5033 81.1795 28.1737 77.1759 28.1737C73.1723 28.1737 69.9688 25.5043 69.9688 21.3667C69.9688 17.229 73.1713 14.5586 77.1759 14.5586ZM77.1759 24.649C79.1772 24.649 80.3784 23.3148 80.3784 21.3657C80.3784 19.4166 79.1772 18.0823 77.1759 18.0823C75.1746 18.0823 73.9724 19.4166 73.9724 21.3657C73.9724 23.3148 75.1736 24.649 77.1759 24.649Z" fill="white"/>
<path d="M97.7496 27.8525H93.9066V26.0907H93.8524C93.3193 27.1046 92.0107 28.1728 90.0626 28.1728C86.0057 28.1728 85.2578 25.5034 85.2578 22.0338V14.8789H89.2615V21.2327C89.2615 22.7275 89.289 24.649 91.3446 24.649C93.4257 24.649 93.7469 23.0212 93.7469 21.3391V14.8789H97.7506L97.7496 27.8525Z" fill="white"/>
<path d="M107.301 24.8129C105.566 24.8129 105.407 23.7979 105.407 22.4105V18.0856H108.195C108.359 17.0173 108.605 15.9631 108.93 14.9324V14.8782H105.407V11.0352H101.402V14.8782H98.8398V18.0817H101.402V24.2482C101.402 27.0773 103.458 28.1721 106.132 28.1721C107.063 28.1721 108.047 28.0922 108.926 27.773C108.614 26.777 108.375 25.7593 108.213 24.7281C107.912 24.7841 107.607 24.8125 107.301 24.8129Z" fill="white"/>
<path d="M134.617 0C122.816 0 113.25 9.56616 113.25 21.3662C113.25 33.1662 122.816 42.7344 134.617 42.7344C146.418 42.7344 155.984 33.1682 155.984 21.3662C155.984 9.56419 146.418 0 134.617 0ZM136.403 28.8039C135.813 29.9016 134.925 30.8102 133.841 31.4251C132.761 32.0321 131.516 32.3356 130.103 32.3356C128.418 32.3356 126.996 31.8202 125.837 30.7895C124.679 29.7588 123.986 28.4236 123.76 26.7839H125.894C126.053 27.5847 126.324 28.2344 126.706 28.733C127.111 29.2517 127.634 29.666 128.232 29.9411C128.855 30.2445 129.538 30.4016 130.231 30.4003C131.596 30.4003 132.769 29.8829 133.749 28.8483C134.729 27.8136 135.219 26.5204 135.217 24.9688C135.217 23.5676 134.775 22.4294 133.89 21.5544C133.005 20.6794 131.823 20.2422 130.343 20.2429C129.117 20.2429 127.634 20.6147 125.893 21.3583L127.814 11.0314H135.862L134.619 13.0081H129.433L128.392 18.6761C129.184 18.4299 130.006 18.2972 130.834 18.2819C132.725 18.2819 134.284 18.9152 135.513 20.1818C136.741 21.4483 137.355 23.0706 137.354 25.0486C137.365 26.3613 137.037 27.6547 136.403 28.8039ZM142.272 31.8133H140.208V13.0081H136.945L138.188 11.0295H142.272V31.8133Z" fill="white"/>
</g>
<defs>
<clipPath id="clip0_47_91039">
<rect width="155.969" height="42.7344" fill="white" transform="translate(0.015625)"/>
</clipPath>
</defs>
</svg>
