<svg width="30" height="30" viewBox="0 0 30 30" fill="none" xmlns="http://www.w3.org/2000/svg">
<g clip-path="url(#clip0_47_45451)">
<path d="M19.4064 22.2188C19.0314 21 18.2814 19.9688 17.3439 19.0312C16.5939 20.5312 15.2814 21.8438 13.8752 22.4063C11.0627 23.4375 8.25019 21.75 5.53144 20.3438C5.25019 20.7188 5.06269 21 4.96894 21.2813C4.03144 23.5313 4.59394 25.6875 6.37519 26.625C9.37519 28.3125 15.0939 28.5938 18.5627 29.1563C19.8752 29.3438 21.1877 28.7813 22.0314 27.6563C21.0002 25.9688 19.9689 24.1875 19.4064 22.2188Z" fill="#94AAAF"/>
<path d="M8.15609 15.8437C8.15609 15.8437 7.78109 17.0625 5.43734 17.0625C5.43734 17.0625 1.40609 8.71875 8.43734 2.90625L8.15609 15.8437ZM17.5311 4.78125C17.5311 4.78125 20.8123 10.5 18.3748 19.2188C18.3748 19.2188 22.0311 19.2187 24.4686 16.2187C25.9686 14.4375 24.8436 9.46875 23.9061 6.28125C23.3436 4.3125 21.4686 3.5625 19.4998 4.125L17.5311 4.78125Z" fill="#6A8189"/>
<path d="M8.24977 15.1875C8.24977 15.1875 7.87477 16.4062 5.71852 16.4062C5.71852 16.4062 1.96852 8.4375 8.53102 3L8.24977 15.1875Z" fill="#425763"/>
<path d="M14.25 20.8105C15.75 20.248 16.9687 18.9355 17.7187 17.4355C17.3437 16.9668 16.875 16.5918 16.4062 16.123C12.5625 15.1855 8.8125 15.748 7.6875 16.5918C7.3125 16.873 6.46875 17.9043 5.90625 18.8418C8.53125 20.1543 11.4375 21.8418 14.25 20.8105Z" fill="#A67A65"/>
<path d="M19.7814 20.625C19.4064 19.4062 18.6564 18.375 17.7189 17.4375C16.9689 18.9375 15.6564 20.25 14.2502 20.8125C11.4377 21.8438 8.6252 20.1562 5.90645 18.75C5.6252 19.125 5.43769 19.4062 5.34394 19.6875C4.40644 21.9375 4.96894 24.0938 6.75019 25.0312C9.75019 26.7188 15.4689 27 18.9377 27.5625C20.2502 27.75 21.5627 27.1875 22.4064 26.0625C21.3752 24.375 20.4377 22.5937 19.7814 20.625Z" fill="#B0C6CC"/>
<path d="M19.7813 20.625C20.4375 22.5937 21.375 24.375 22.4062 26.1562C23.25 25.0312 23.7187 23.3437 23.3437 21.6562V21.5625C23.0625 20.25 22.4062 19.125 21.4687 18.4688C19.875 17.3438 18.1875 16.5938 16.4062 16.125C17.8125 17.4375 19.125 18.8437 19.7813 20.625Z" fill="#A67A65"/>
<path d="M6.84369 23.439C5.24994 22.689 5.81244 20.9077 6.65619 18.939C6.93744 18.2827 7.68744 17.6265 8.15619 17.3452C9.56244 16.4077 16.2187 15.7515 20.9062 18.8452C21.7499 19.4077 22.4062 20.3452 22.6874 21.4702V21.564C23.3437 24.4702 21.1874 27.0015 18.6562 26.6265C15.3749 26.1577 9.65619 24.8452 6.84369 23.439Z" fill="#E5A98C"/>
<path d="M6.75006 23.437C5.34381 22.687 5.53131 21.187 6.28131 19.2182C6.56256 18.562 8.15631 17.2495 8.53131 16.9682C9.75006 16.0307 14.8126 15.7495 18.8438 18.8432C19.5938 19.4057 20.1563 20.3432 20.3438 21.4682V21.562C20.9063 24.4682 19.0313 26.9995 16.8751 26.6245C14.0626 26.1557 9.09381 24.8432 6.75006 23.437Z" fill="#FAEACF"/>
<path d="M6.375 19.0303C7.125 19.6866 10.6875 22.4053 21.2812 22.5928C21.2812 22.5928 22.7812 24.7491 22.3125 26.0616C22.3125 26.0616 17.0625 26.5303 12 25.3116C7.3125 24.1866 4.875 23.5303 6.1875 19.1241C6.1875 18.9366 6.28125 18.9366 6.375 19.0303Z" fill="#B0C6CC"/>
<path d="M6.09393 19.5C6.09393 19.5 9.00018 22.9688 21.1877 23.1563C21.1877 23.1563 22.6877 25.3125 22.2189 26.625C22.2189 26.625 16.9689 27.0938 11.9064 25.875C7.12518 24.6563 4.59393 24.0938 6.09393 19.5Z" fill="white"/>
<path d="M7.3125 4.12415C7.3125 4.12415 7.875 6.18665 10.6875 6.4679C13.5 6.6554 23.3437 5.1554 23.3437 5.1554C23.3437 5.1554 20.8125 0.2804 14.8125 -0.000850063C10.125 -0.18835 7.6875 3.4679 7.3125 4.12415Z" fill="#6A8189"/>
<path d="M19.3125 4.68477L20.3438 8.99727C20.3438 8.99727 14.9062 10.8723 6.5625 6.93477C6.5625 6.93477 6.5625 4.02852 9.1875 2.24727C11.8125 0.466022 19.3125 4.68477 19.3125 4.68477Z" fill="#6A8189"/>
<path d="M22.9466 10.7155C22.9641 5.9003 19.0747 1.98263 14.2595 1.96519C9.44424 1.94774 5.52658 5.83711 5.50913 10.6523C5.49168 15.4676 9.38106 19.3852 14.1963 19.4027C19.0115 19.4201 22.9292 15.5308 22.9466 10.7155Z" fill="#A67A65"/>
<path d="M22.5159 10.0611C22.5328 5.40124 18.7689 1.60996 14.109 1.59307C9.4491 1.57619 5.65781 5.3401 5.64092 10C5.62404 14.6599 9.38795 18.4512 14.0479 18.4681C18.7078 18.485 22.499 14.721 22.5159 10.0611Z" fill="#E5A98C"/>
<path d="M22.4604 9.91254C22.4765 5.45974 18.9638 1.83726 14.6146 1.8215C10.2653 1.80574 6.7265 5.40267 6.71037 9.85547C6.69423 14.3083 10.2069 17.9307 14.5562 17.9465C18.9054 17.9623 22.4442 14.3653 22.4604 9.91254Z" fill="#E8CCAA"/>
<path d="M18.1542 11.0063C18.166 7.74436 15.6152 5.09076 12.4569 5.07932C9.29849 5.06787 6.72853 7.70291 6.71671 10.9648C6.70489 14.2268 9.25568 16.8804 12.4141 16.8918C15.5724 16.9033 18.1424 14.2682 18.1542 11.0063Z" fill="#FAEACF"/>
<path d="M7.40625 4.12516C7.40625 4.12516 7.875 6.09391 10.5938 6.28141C13.3125 6.46891 22.5938 5.06266 22.5938 5.06266C22.5938 5.06266 20.25 0.468907 14.5312 0.187657C10.125 -0.093593 7.78125 3.46891 7.40625 4.12516Z" fill="#425763"/>
<path d="M15.1264 11.5953C15.1283 11.0775 14.7941 10.6566 14.3798 10.6551C13.9656 10.6536 13.6283 11.0721 13.6264 11.5898C13.6246 12.1076 13.9588 12.5286 14.373 12.5301C14.7873 12.5316 15.1246 12.113 15.1264 11.5953Z" fill="#425763"/>
<path d="M14.6343 11.2982C14.6349 11.1429 14.5514 11.0167 14.4478 11.0163C14.3443 11.0159 14.2599 11.1415 14.2593 11.2969C14.2588 11.4522 14.3422 11.5784 14.4458 11.5788C14.5494 11.5792 14.6338 11.4536 14.6343 11.2982Z" fill="white"/>
<path d="M8.87107 10.2047C8.87295 9.68689 8.53868 9.26594 8.12447 9.26444C7.71026 9.26294 7.37295 9.68145 7.37107 10.1992C7.3692 10.717 7.70346 11.1379 8.11768 11.1394C8.53189 11.1409 8.8692 10.7224 8.87107 10.2047Z" fill="#425763"/>
<path d="M8.4727 9.9037C8.47326 9.74837 8.38977 9.62215 8.28622 9.62177C8.18267 9.6214 8.09826 9.74701 8.0977 9.90234C8.09714 10.0577 8.18063 10.1839 8.28418 10.1843C8.38773 10.1846 8.47214 10.059 8.4727 9.9037Z" fill="white"/>
<path d="M19.7812 11.343C19.7812 11.343 20.5312 10.7805 21.0937 10.968C21.6562 11.1555 21.5625 13.0305 20.1562 13.218L19.7812 11.343Z" fill="#FAEACF"/>
<path d="M17.1562 4.6869C17.1562 4.6869 20.25 10.1244 17.9063 18.3744C17.9063 18.3744 21.375 18.3744 23.7188 15.5619C25.125 13.8744 24.0938 9.1869 23.1563 6.09315C22.5938 4.21815 20.9062 3.5619 19.0312 4.1244L17.1562 4.6869Z" fill="#425763"/>
<path d="M18.8438 4.59251L19.7813 8.62376C19.7813 8.62376 14.25 10.6863 6.28125 6.93626C6.28125 6.93626 6.75 3.93626 9.1875 2.24876C11.625 0.561263 18.8438 4.59251 18.8438 4.59251Z" fill="#425763"/>
<path d="M18.375 22.7812C18.375 22.7812 18.375 26.8125 14.8125 26.4375C14.8125 26.4375 18.75 26.9063 20.4375 26.8125C20.4375 26.8125 19.5 23.3438 18.375 22.7812Z" fill="#B0C6CC"/>
<path d="M10.5 21.375C10.5 21.375 10.875 20.4375 11.7188 19.875C11.7188 19.875 11.25 20.9062 11.25 21.5625L10.5 21.375Z" fill="#A67A65"/>
<path d="M9.09375 25.4063C9.09375 25.4063 10.125 25.2188 10.875 24.375C10.875 24.375 11.1563 25.875 12.1875 26.1562C12.0938 26.1562 9.375 25.5938 9.09375 25.4063Z" fill="#B0C6CC"/>
<path d="M6.9375 6.18571C6.9375 6.18571 7.6875 5.15446 8.53125 5.24821C9.375 5.34196 13.125 7.77946 18.9375 6.93571C18.9375 6.93571 17.8125 8.15446 16.4063 8.24821C15.1875 8.34196 10.125 7.87321 6.9375 6.18571ZM19.125 16.3107C19.125 16.3107 21.75 15.6545 22.2188 14.4357C22.6875 13.217 21.9375 5.90446 21.9375 5.90446C21.9375 5.90446 23.4375 9.74821 23.3438 14.4357C23.3438 14.4357 21.75 16.7795 19.125 17.1545V16.3107Z" fill="#6A8189"/>
<path d="M21.375 24.3755C21.5625 24.3755 23.9062 24.3755 25.5937 27.0005C26.0625 27.7505 25.7812 28.688 25.0312 29.063C23.4375 29.813 20.4375 30.8443 17.1562 29.063C16.5 28.688 16.125 27.563 16.5937 26.9068C17.4375 25.688 18.8437 24.2818 21.375 24.3755Z" fill="#425763"/>
<path d="M21.3748 24.9391C21.5623 24.9391 23.531 24.9391 25.031 27.0016C25.406 27.5641 25.2185 28.3141 24.5623 28.5953C23.156 29.2516 20.6248 29.9078 17.7185 28.5016C17.156 28.2203 16.9685 27.3766 17.3435 26.9078C17.9998 25.9703 19.2185 24.8453 21.3748 24.9391C21.281 24.9391 21.281 24.9391 21.3748 24.9391Z" fill="#A2B6BA"/>
<path d="M21.281 25.0299C21.4685 25.0299 23.0623 25.0299 24.281 26.7174C24.5623 27.1862 24.4685 27.8424 23.906 28.0299C22.781 28.4987 20.7185 29.1549 18.3748 27.9362C17.906 27.6549 17.7185 27.0924 18.0935 26.6237C18.5623 25.8737 19.5935 24.9362 21.281 25.0299Z" fill="#87999B"/>
<path d="M20.9062 27.6562C24.2717 27.6562 27 24.928 27 21.5625C27 18.197 24.2717 15.4688 20.9062 15.4688C17.5408 15.4688 14.8125 18.197 14.8125 21.5625C14.8125 24.928 17.5408 27.6562 20.9062 27.6562Z" fill="#425763"/>
<path d="M20.9062 26.8125C23.9093 26.8125 26.3438 24.378 26.3438 21.375C26.3438 18.372 23.9093 15.9375 20.9062 15.9375C17.9032 15.9375 15.4688 18.372 15.4688 21.375C15.4688 24.378 17.9032 26.8125 20.9062 26.8125Z" fill="#A2B6BA"/>
<path d="M21.1875 25.875C23.9317 25.875 26.1562 23.6504 26.1562 20.9062C26.1562 18.1621 23.9317 15.9375 21.1875 15.9375C18.4433 15.9375 16.2188 18.1621 16.2188 20.9062C16.2188 23.6504 18.4433 25.875 21.1875 25.875Z" fill="#CBDEE4"/>
<path d="M23.9063 20.5312C24.5276 20.5312 25.0313 20.0276 25.0313 19.4063C25.0313 18.7849 24.5276 18.2812 23.9063 18.2812C23.2849 18.2812 22.7812 18.7849 22.7812 19.4063C22.7812 20.0276 23.2849 20.5312 23.9063 20.5312Z" fill="#425763"/>
<path d="M23.9063 19.9687C24.2687 19.9687 24.5625 19.6749 24.5625 19.3125C24.5625 18.9501 24.2687 18.6562 23.9063 18.6562C23.5438 18.6562 23.25 18.9501 23.25 19.3125C23.25 19.6749 23.5438 19.9687 23.9063 19.9687Z" fill="#4ED154"/>
<path d="M19.9687 18.9375C19.9687 18.9375 20.25 16.9687 21.75 16.2187C21.9375 16.125 21.9375 15.9375 21.6562 15.9375H21.375C21.1875 15.9375 19.5 16.0312 18.9375 19.0312L19.9687 18.9375Z" fill="#A2B6BA"/>
<path d="M22.7689 22.1325C22.7759 20.2167 21.3544 18.6586 19.594 18.6522C17.8336 18.6458 16.4009 20.1936 16.3939 22.1094C16.387 24.0251 17.8084 25.5833 19.5688 25.5897C21.3293 25.5961 22.762 24.0482 22.7689 22.1325Z" fill="#425763"/>
<path d="M22.1511 21.9747C22.1564 20.5249 21.0693 19.3457 19.7231 19.3409C18.3769 19.336 17.2814 20.5073 17.2761 21.957C17.2709 23.4068 18.3579 24.586 19.7041 24.5909C21.0503 24.5957 22.1459 23.4244 22.1511 21.9747Z" fill="#3587C4"/>
<path d="M21.6875 21.8743C21.6918 20.6835 20.7719 19.7147 19.6328 19.7106C18.4937 19.7065 17.5668 20.6685 17.5625 21.8594C17.5582 23.0502 18.4781 24.019 19.6172 24.0231C20.7563 24.0272 21.6832 23.0652 21.6875 21.8743Z" fill="#4DA3EC"/>
<path d="M20.7901 20.8556C20.7912 20.545 20.5403 20.2922 20.2297 20.2911C19.919 20.29 19.6662 20.5409 19.6651 20.8516C19.664 21.1622 19.9149 21.415 20.2256 21.4161C20.5362 21.4172 20.789 21.1663 20.7901 20.8556Z" fill="white"/>
<path d="M21.0935 17.4375L21.8435 16.6875C21.9373 16.5937 22.1248 16.5938 22.2185 16.5938C22.4998 16.6875 23.0623 16.875 23.7185 17.25C24.0935 17.4375 23.906 18.0938 23.4373 18L21.3748 18.0937C21.0935 18.1875 20.8123 17.7187 21.0935 17.4375Z" fill="#E1F0F4"/>
</g>
<defs>
<clipPath id="clip0_47_45451">
<rect width="30" height="30" fill="white"/>
</clipPath>
</defs>
</svg>
