<svg width="512" height="512" viewBox="0 0 512 512" fill="none" xmlns="http://www.w3.org/2000/svg">
<path d="M507.5 469.3C507.5 479.8 503.7 488.8 496 496.5C488.3 504.2 479.3 508 468.8 508C457.9 508 448.8 504.2 441.6 496.5L337.9 393.1C301.8 418.1 261.6 430.6 217.3 430.6C188.5 430.6 160.9 425 134.6 413.8C108.3 402.6 85.6 387.5 66.6 368.5C47.6 349.5 32.4 326.8 21.3 300.5C10.1 274.2 4.5 246.6 4.5 217.8C4.5 189 10.1 161.4 21.3 135.1C32.5 108.8 47.6 86.1 66.6 67.1C85.6 48.1 108.3 32.9 134.6 21.8C160.9 10.6 188.5 5 217.3 5C246.1 5 273.7 10.6 300 21.8C326.3 33 349 48.1 368 67.1C387 86.1 402.2 108.8 413.3 135.1C424.5 161.4 430.1 189 430.1 217.8C430.1 262.1 417.6 302.3 392.6 338.4L496.3 442.1C503.8 449.6 507.5 458.6 507.5 469.3ZM352.7 217.8C352.7 180.5 339.5 148.6 312.9 122.1C286.4 95.6 254.5 82.3 217.2 82.3C179.9 82.3 148 95.6 121.5 122.1C95 148.6 81.7 180.5 81.7 217.8C81.7 255.1 94.9 287 121.5 313.5C148 340 179.9 353.3 217.2 353.3C254.5 353.3 286.4 340.1 312.9 313.5C339.5 287 352.7 255.1 352.7 217.8Z" fill="white"/>
</svg>
