<svg width="84" height="30" viewBox="0 0 84 30" fill="none" xmlns="http://www.w3.org/2000/svg">
<path fill-rule="evenodd" clip-rule="evenodd" d="M34.5893 22.5236H34.552C34.5688 22.5236 34.58 22.5422 34.5968 22.5441H34.608L34.5893 22.5254V22.5236ZM34.5968 22.5441C34.4232 22.546 33.9864 22.6374 33.5253 22.6374C32.0693 22.6374 31.5653 21.9654 31.5653 21.0881V15.2436H34.5333C34.7013 15.2436 34.832 15.0942 34.832 14.8889V11.7156C34.832 11.5476 34.6827 11.3982 34.5333 11.3982H31.5653V7.45958C31.5653 7.31024 31.472 7.21691 31.304 7.21691H27.272C27.104 7.21691 27.0107 7.31024 27.0107 7.45958V11.5102C27.0107 11.5102 24.976 12.0142 24.8453 12.0329C24.696 12.0702 24.6027 12.2009 24.6027 12.3502V14.8889C24.6027 15.0942 24.752 15.2436 24.92 15.2436H26.992V21.3662C26.992 25.9209 30.1653 26.3876 32.3307 26.3876C33.32 26.3876 34.5147 26.0702 34.7013 25.9769C34.8133 25.9396 34.8693 25.8089 34.8693 25.6782V22.8782C34.8719 22.7988 34.8458 22.7211 34.7957 22.6594C34.7457 22.5977 34.675 22.5561 34.5968 22.5422V22.5441ZM78.8293 18.4356C78.8293 15.0569 77.4667 14.6089 76.0293 14.7582C74.9093 14.8329 74.0133 15.3929 74.0133 15.3929V21.9636C74.0133 21.9636 74.928 22.5982 76.2907 22.6356C78.2133 22.6916 78.8293 22.0009 78.8293 18.4356ZM83.3653 18.1369C83.3653 24.5396 81.2933 26.3689 77.672 26.3689C74.6107 26.3689 72.968 24.8196 72.968 24.8196C72.968 24.8196 72.8933 25.6782 72.8 25.7902C72.744 25.9022 72.6507 25.9396 72.5387 25.9396H69.776C69.5893 25.9396 69.4213 25.7902 69.4213 25.6222L69.4587 4.88358C69.4587 4.71558 69.608 4.56625 69.776 4.56625H73.752C73.92 4.56625 74.0693 4.71558 74.0693 4.88358V11.9209C74.0693 11.9209 75.6 10.9316 77.84 10.9316L77.8213 10.8942C80.0613 10.8942 83.3653 11.7342 83.3653 18.1369ZM67.088 11.3982H63.168C62.9627 11.3982 62.8507 11.5476 62.8507 11.7529V21.9076C62.8507 21.9076 61.824 22.6356 60.424 22.6356C59.024 22.6356 58.6133 22.0009 58.6133 20.6009V11.7342C58.6133 11.5662 58.464 11.4169 58.296 11.4169H54.3013C54.1333 11.4169 53.984 11.5662 53.984 11.7342V21.2729C53.984 25.3796 56.28 26.4062 59.4347 26.4062C62.0293 26.4062 64.1387 24.9689 64.1387 24.9689C64.1387 24.9689 64.232 25.6969 64.288 25.8089C64.3253 25.9022 64.456 25.9769 64.5867 25.9769H67.088C67.2933 25.9769 67.4053 25.8276 67.4053 25.6596L67.4427 11.7156C67.4427 11.5476 67.2933 11.3982 67.088 11.3982ZM22.848 11.3796H18.872C18.704 11.3796 18.5547 11.5476 18.5547 11.7529V25.4542C18.5547 25.8276 18.7973 25.9582 19.1147 25.9582H22.6987C23.072 25.9582 23.1653 25.7902 23.1653 25.4542V11.6969C23.1653 11.5289 23.016 11.3796 22.848 11.3796ZM20.888 5.07025C19.4507 5.07025 18.312 6.20891 18.312 7.64625C18.312 9.08358 19.4507 10.2222 20.888 10.2222C22.288 10.2222 23.4267 9.08358 23.4267 7.64625C23.4267 6.20891 22.288 5.07025 20.888 5.07025ZM51.6693 4.60358H47.7307C47.5627 4.60358 47.4133 4.75291 47.4133 4.92091V12.5556H41.2347V4.92091C41.2347 4.75291 41.0853 4.60358 40.9173 4.60358H36.9413C36.7733 4.60358 36.624 4.75291 36.624 4.92091V25.6596C36.624 25.8276 36.792 25.9769 36.9413 25.9769H40.9173C41.0853 25.9769 41.2347 25.8276 41.2347 25.6596V16.7929H47.4133L47.376 25.6596C47.376 25.8276 47.5253 25.9769 47.6933 25.9769H51.6693C51.8373 25.9769 51.9867 25.8276 51.9867 25.6596V4.92091C51.9867 4.75291 51.8373 4.60358 51.6693 4.60358ZM16.4453 13.7876V24.5022C16.4453 24.5769 16.4267 24.7076 16.3333 24.7449C16.3333 24.7449 14 26.4062 10.1547 26.4062C5.50667 26.4062 0 24.9502 0 15.3556C0 5.76091 4.816 3.78224 9.52 3.80091C13.5893 3.80091 15.232 4.71558 15.4933 4.88358C15.568 4.97691 15.6053 5.05158 15.6053 5.14491L14.8213 8.46758C14.8213 8.63558 14.6533 8.84091 14.448 8.78491C13.776 8.57958 12.768 8.16891 10.3973 8.16891C7.65333 8.16891 4.704 8.95291 4.704 15.1316C4.704 21.3102 7.504 22.0382 9.52 22.0382C11.2373 22.0382 11.8533 21.8329 11.8533 21.8329V17.5396H9.10933C8.904 17.5396 8.75467 17.3902 8.75467 17.2222V13.7876C8.75467 13.6196 8.904 13.4702 9.10933 13.4702H16.0907C16.296 13.4702 16.4453 13.6196 16.4453 13.7876Z" fill="white"/>
</svg>
