<svg width="85" height="85" viewBox="0 0 85 85" fill="none" xmlns="http://www.w3.org/2000/svg">
<g clip-path="url(#clip0_18_1869)">
<path d="M24.7913 26.6688V58.4376C24.7915 59.0472 24.9491 59.6464 25.2487 60.1773C25.5483 60.7082 25.9799 61.1527 26.5017 61.4679C27.0235 61.7831 27.6178 61.9583 28.2271 61.9765C28.8365 61.9948 29.4402 61.8554 29.9799 61.5719L60.2434 45.6876C60.8145 45.3871 61.2927 44.9363 61.6262 44.3839C61.9598 43.8315 62.1361 43.1985 62.1361 42.5532C62.1361 41.9079 61.9598 41.2748 61.6262 40.7224C61.2927 40.17 60.8145 39.7193 60.2434 39.4188L29.9799 23.5521C29.4415 23.2694 28.8394 23.13 28.2316 23.1474C27.6237 23.1648 27.0306 23.3384 26.5093 23.6515C25.988 23.9647 25.5561 24.4068 25.2552 24.9352C24.9543 25.4637 24.7946 26.0607 24.7913 26.6688Z" fill="white"/>
</g>
<defs>
<clipPath id="clip0_18_1869">
<rect width="84.5" height="84.5" fill="white" transform="scale(1.00592)"/>
</clipPath>
</defs>
</svg>
