<svg width="14" height="14" viewBox="0 0 14 14" fill="none" xmlns="http://www.w3.org/2000/svg">
<path d="M11.3745 -0.00113997C12.0976 -0.00113997 12.7143 0.257096 13.2247 0.773568C13.7412 1.28396 13.9994 1.90069 13.9994 2.62375V11.3734C13.9994 12.0965 13.7412 12.7132 13.2247 13.2236C12.7143 13.7401 12.0976 13.9983 11.3745 13.9983H9.66107V8.57533H11.4748L11.7482 6.46084H9.66107V5.11193C9.66107 4.77167 9.73094 4.51647 9.87069 4.34634C10.0165 4.17621 10.296 4.09114 10.7092 4.09114L11.8211 4.08203V2.19539C11.4383 2.1407 10.8976 2.11336 10.1988 2.11336C9.37245 2.11336 8.71015 2.3564 8.21191 2.84249C7.71974 3.32859 7.47365 4.01519 7.47365 4.90231V6.46084H5.65081V8.57533H7.47365V13.9983H2.62489C1.90183 13.9983 1.28207 13.7401 0.765594 13.2236C0.255198 12.7132 0 12.0965 0 11.3734V2.62375C0 1.90069 0.255198 1.28396 0.765594 0.773568C1.28207 0.257096 1.90183 -0.00113997 2.62489 -0.00113997H11.3745Z" fill="#3F42C7"/>
</svg>
