<svg width="1920" height="245" viewBox="0 0 1920 245" fill="none" xmlns="http://www.w3.org/2000/svg">
<g clip-path="url(#clip0_47_69856)">
<path d="M1055 90H865C862.239 90 860 92.2386 860 95V150C860 152.761 862.239 155 865 155H1055C1057.76 155 1060 152.761 1060 150V95C1060 92.2386 1057.76 90 1055 90Z" fill="white"/>
<path d="M933.813 123.545C932.38 122.588 930.6 122.086 928.524 122.086H924V135.983H928.524C930.6 135.983 932.38 135.48 933.813 134.452C934.604 133.926 935.222 133.16 935.643 132.227C936.063 131.295 936.285 130.194 936.285 128.951C936.285 127.731 936.063 126.63 935.643 125.698C935.222 124.789 934.604 124.071 933.813 123.545ZM926.645 124.454H928.079C929.661 124.454 930.971 124.765 931.96 125.339C933.047 125.985 933.616 127.205 933.616 128.951C933.616 130.768 933.047 132.036 931.96 132.73C931.02 133.328 929.71 133.639 928.103 133.639H926.645V124.454Z" fill="#0069FF"/>
<path d="M939.449 121.941C939.004 121.941 938.633 122.085 938.337 122.372C938.04 122.659 937.867 123.018 937.867 123.424C937.867 123.855 938.015 124.214 938.337 124.501C938.633 124.788 939.004 124.955 939.449 124.955C939.894 124.955 940.265 124.812 940.561 124.501C940.858 124.214 941.031 123.831 941.031 123.424C941.031 122.994 940.883 122.635 940.561 122.372C940.265 122.085 939.869 121.941 939.449 121.941Z" fill="#0069FF"/>
<path d="M940.686 126.223H938.14V136.029H940.686V126.223Z" fill="#0069FF"/>
<path d="M949.954 127.037C949.188 126.367 948.323 125.984 947.408 125.984C945.999 125.984 944.838 126.463 943.923 127.372C943.008 128.281 942.563 129.476 942.563 130.888C942.563 132.275 943.008 133.447 943.923 134.404C944.838 135.313 945.999 135.791 947.408 135.791C948.397 135.791 949.238 135.528 949.93 135.002V135.217C949.93 136.03 949.707 136.652 949.262 137.106C948.817 137.537 948.199 137.752 947.433 137.752C946.247 137.752 945.53 137.298 944.615 136.126L942.885 137.728L942.934 137.8C943.305 138.302 943.874 138.805 944.64 139.283C945.406 139.761 946.345 140.001 947.482 140.001C948.99 140.001 950.226 139.546 951.116 138.661C952.031 137.776 952.476 136.58 952.476 135.097V126.224H949.979V127.037H949.954ZM949.287 132.825C948.842 133.303 948.273 133.543 947.532 133.543C946.79 133.543 946.222 133.303 945.802 132.825C945.357 132.347 945.134 131.701 945.134 130.912C945.134 130.122 945.357 129.453 945.802 128.974C946.247 128.496 946.815 128.233 947.532 128.233C948.273 128.233 948.842 128.472 949.287 128.974C949.732 129.453 949.954 130.122 949.954 130.912C949.954 131.701 949.707 132.347 949.287 132.825Z" fill="#0069FF"/>
<path d="M957.173 126.223H954.627V136.029H957.173V126.223Z" fill="#0069FF"/>
<path d="M955.936 121.941C955.491 121.941 955.121 122.085 954.824 122.372C954.527 122.659 954.354 123.018 954.354 123.424C954.354 123.855 954.503 124.214 954.824 124.501C955.121 124.788 955.491 124.955 955.936 124.955C956.381 124.955 956.752 124.812 957.049 124.501C957.345 124.214 957.518 123.831 957.518 123.424C957.518 122.994 957.37 122.635 957.049 122.372C956.752 122.085 956.357 121.941 955.936 121.941Z" fill="#0069FF"/>
<path d="M962.759 123.566H960.263V126.221H958.805V128.47H960.263V132.536C960.263 133.804 960.535 134.712 961.054 135.239C961.573 135.765 962.487 136.028 963.797 136.028C964.218 136.028 964.638 136.004 965.033 135.98H965.157V133.732L964.292 133.78C963.674 133.78 963.278 133.684 963.081 133.469C962.883 133.253 962.784 132.823 962.784 132.177V128.47H965.157V126.221H962.784V123.566H962.759Z" fill="#0069FF"/>
<path d="M979.618 122.109H977.072V136.006H979.618V122.109Z" fill="#0069FF"/>
<path d="M1005.35 132.514C1004.91 133.016 1004.44 133.447 1004.07 133.662C1003.72 133.877 1003.27 133.997 1002.76 133.997C1002.01 133.997 1001.4 133.734 1000.9 133.184C1000.41 132.634 1000.16 131.94 1000.16 131.103C1000.16 130.266 1000.41 129.572 1000.88 129.046C1001.37 128.496 1001.96 128.233 1002.71 128.233C1003.52 128.233 1004.39 128.735 1005.13 129.572L1006.81 128.017C1005.72 126.63 1004.31 125.984 1002.63 125.984C1001.22 125.984 1000.01 126.487 999.022 127.443C998.033 128.4 997.539 129.644 997.539 131.103C997.539 132.562 998.033 133.782 999.022 134.762C1000.01 135.743 1001.22 136.221 1002.63 136.221C1004.49 136.221 1005.97 135.456 1006.96 134.045L1005.35 132.514Z" fill="#0069FF"/>
<path d="M1015.81 127.587C1015.43 127.109 1014.94 126.702 1014.35 126.415C1013.73 126.128 1013.04 125.984 1012.25 125.984C1010.81 125.984 1009.65 126.487 1008.79 127.491C1007.94 128.496 1007.5 129.716 1007.5 131.175C1007.5 132.658 1007.97 133.877 1008.91 134.834C1009.82 135.767 1011.08 136.245 1012.59 136.245C1014.3 136.245 1015.73 135.576 1016.77 134.236L1016.82 134.164L1015.16 132.61C1015.01 132.801 1014.79 132.992 1014.59 133.184C1014.35 133.423 1014.1 133.59 1013.85 133.71C1013.48 133.901 1013.04 133.973 1012.57 133.973C1011.85 133.973 1011.28 133.782 1010.84 133.375C1010.42 133.016 1010.17 132.514 1010.12 131.892H1016.87L1016.89 130.983C1016.89 130.338 1016.79 129.74 1016.62 129.166C1016.45 128.615 1016.18 128.065 1015.81 127.587ZM1010.24 129.883C1010.37 129.405 1010.59 129.022 1010.91 128.711C1011.26 128.376 1011.7 128.209 1012.25 128.209C1012.86 128.209 1013.33 128.376 1013.66 128.711C1013.95 129.022 1014.12 129.405 1014.17 129.859H1010.24V129.883Z" fill="#0069FF"/>
<path d="M1025.6 126.941C1024.83 126.295 1023.77 125.984 1022.43 125.984C1021.59 125.984 1020.8 126.176 1020.08 126.511C1019.42 126.845 1018.77 127.372 1018.35 128.089L1018.38 128.113L1020.01 129.62C1020.68 128.591 1021.42 128.233 1022.41 128.233C1022.95 128.233 1023.37 128.376 1023.72 128.639C1024.06 128.902 1024.21 129.261 1024.21 129.692V130.17C1023.57 129.979 1022.95 129.883 1022.33 129.883C1021.07 129.883 1020.03 130.17 1019.27 130.744C1018.5 131.318 1018.11 132.155 1018.11 133.184C1018.11 134.093 1018.43 134.858 1019.09 135.408C1019.76 135.934 1020.58 136.221 1021.54 136.221C1022.51 136.221 1023.42 135.839 1024.24 135.193V136.006H1026.73V129.716C1026.78 128.52 1026.39 127.587 1025.6 126.941ZM1021.07 132.275C1021.37 132.084 1021.76 131.988 1022.28 131.988C1022.9 131.988 1023.54 132.107 1024.21 132.347V133.303C1023.67 133.806 1022.93 134.045 1022.01 134.045C1021.57 134.045 1021.22 133.949 1021 133.758C1020.78 133.567 1020.65 133.351 1020.65 133.04C1020.65 132.705 1020.8 132.466 1021.07 132.275Z" fill="#0069FF"/>
<path d="M1036.57 127.132C1035.85 126.367 1034.86 125.984 1033.6 125.984C1032.59 125.984 1031.78 126.271 1031.16 126.822V126.224H1028.66V136.03H1031.21V130.601C1031.21 129.859 1031.38 129.261 1031.75 128.855C1032.12 128.424 1032.59 128.233 1033.26 128.233C1033.83 128.233 1034.27 128.424 1034.59 128.783C1034.91 129.166 1035.09 129.668 1035.09 130.314V135.982H1037.63V130.338C1037.63 128.974 1037.29 127.898 1036.57 127.132Z" fill="#0069FF"/>
<path d="M973.883 126.941C973.117 126.295 972.054 125.984 970.719 125.984C969.878 125.984 969.087 126.176 968.371 126.511C967.703 126.845 967.06 127.372 966.64 128.089L966.665 128.113L968.296 129.62C968.964 128.591 969.705 128.233 970.694 128.233C971.238 128.233 971.658 128.376 972.004 128.639C972.35 128.902 972.499 129.261 972.499 129.692V130.17C971.856 129.979 971.238 129.883 970.62 129.883C969.359 129.883 968.321 130.17 967.555 130.744C966.789 131.318 966.393 132.155 966.393 133.184C966.393 134.093 966.714 134.858 967.382 135.408C968.049 135.934 968.865 136.221 969.829 136.221C970.793 136.221 971.708 135.839 972.523 135.193V136.006H975.02V129.716C975.045 128.52 974.649 127.587 973.883 126.941ZM969.359 132.275C969.656 132.084 970.051 131.988 970.571 131.988C971.188 131.988 971.831 132.107 972.499 132.347V133.303C971.955 133.806 971.213 134.045 970.299 134.045C969.854 134.045 969.508 133.949 969.285 133.758C969.063 133.567 968.939 133.351 968.939 133.04C968.939 132.705 969.063 132.466 969.359 132.275Z" fill="#0069FF"/>
<path d="M988.863 136.222C984.784 136.222 981.447 133.017 981.447 129.047C981.447 125.076 984.759 121.871 988.863 121.871C992.966 121.871 996.278 125.076 996.278 129.047C996.278 133.017 992.941 136.222 988.863 136.222ZM988.863 124.406C986.218 124.406 984.067 126.487 984.067 129.047C984.067 131.606 986.218 133.687 988.863 133.687C991.507 133.687 993.658 131.606 993.658 129.047C993.658 126.487 991.507 124.406 988.863 124.406Z" fill="#0069FF"/>
<path d="M923.998 116V107.758H926.783C927.429 107.758 927.958 107.875 928.369 108.108C928.782 108.339 929.088 108.651 929.286 109.046C929.485 109.44 929.584 109.88 929.584 110.366C929.584 110.851 929.485 111.293 929.286 111.69C929.09 112.087 928.787 112.403 928.377 112.639C927.966 112.873 927.44 112.989 926.799 112.989H924.803V112.104H926.767C927.21 112.104 927.565 112.028 927.833 111.875C928.102 111.722 928.296 111.515 928.417 111.255C928.54 110.992 928.602 110.696 928.602 110.366C928.602 110.036 928.54 109.74 928.417 109.48C928.296 109.22 928.1 109.016 927.829 108.869C927.558 108.718 927.199 108.643 926.751 108.643H924.996V116H923.998ZM933.508 116.128C932.95 116.128 932.46 115.996 932.039 115.73C931.62 115.464 931.293 115.093 931.057 114.615C930.823 114.138 930.707 113.58 930.707 112.941C930.707 112.297 930.823 111.735 931.057 111.255C931.293 110.775 931.62 110.402 932.039 110.136C932.46 109.871 932.95 109.738 933.508 109.738C934.066 109.738 934.554 109.871 934.972 110.136C935.394 110.402 935.721 110.775 935.954 111.255C936.19 111.735 936.309 112.297 936.309 112.941C936.309 113.58 936.19 114.138 935.954 114.615C935.721 115.093 935.394 115.464 934.972 115.73C934.554 115.996 934.066 116.128 933.508 116.128ZM933.508 115.275C933.931 115.275 934.28 115.167 934.554 114.949C934.828 114.732 935.03 114.446 935.162 114.092C935.293 113.738 935.359 113.354 935.359 112.941C935.359 112.528 935.293 112.143 935.162 111.786C935.03 111.429 934.828 111.141 934.554 110.921C934.28 110.701 933.931 110.591 933.508 110.591C933.084 110.591 932.735 110.701 932.461 110.921C932.188 111.141 931.985 111.429 931.854 111.786C931.722 112.143 931.656 112.528 931.656 112.941C931.656 113.354 931.722 113.738 931.854 114.092C931.985 114.446 932.188 114.732 932.461 114.949C932.735 115.167 933.084 115.275 933.508 115.275ZM938.948 116L937.065 109.818H938.063L939.399 114.551H939.464L940.784 109.818H941.798L943.102 114.535H943.166L944.502 109.818H945.5L943.617 116H942.683L941.331 111.251H941.234L939.882 116H938.948ZM949.137 116.128C948.541 116.128 948.028 115.997 947.596 115.734C947.166 115.468 946.835 115.098 946.602 114.623C946.371 114.146 946.256 113.59 946.256 112.957C946.256 112.324 946.371 111.766 946.602 111.283C946.835 110.798 947.16 110.419 947.576 110.148C947.994 109.875 948.482 109.738 949.04 109.738C949.362 109.738 949.68 109.791 949.994 109.899C950.308 110.006 950.594 110.18 950.851 110.422C951.109 110.661 951.314 110.977 951.467 111.372C951.62 111.766 951.697 112.252 951.697 112.828V113.231H946.932V112.41H950.731C950.731 112.061 950.661 111.75 950.521 111.476C950.385 111.203 950.189 110.987 949.934 110.828C949.682 110.67 949.384 110.591 949.04 110.591C948.662 110.591 948.335 110.685 948.059 110.873C947.785 111.058 947.574 111.299 947.427 111.597C947.279 111.895 947.205 112.214 947.205 112.555V113.102C947.205 113.569 947.286 113.965 947.447 114.289C947.611 114.611 947.837 114.857 948.127 115.026C948.417 115.192 948.753 115.275 949.137 115.275C949.387 115.275 949.612 115.24 949.813 115.171C950.017 115.098 950.193 114.991 950.34 114.849C950.488 114.704 950.602 114.524 950.682 114.309L951.6 114.567C951.503 114.878 951.341 115.152 951.113 115.388C950.885 115.621 950.603 115.804 950.268 115.935C949.933 116.064 949.556 116.128 949.137 116.128ZM953.141 116V109.818H954.059V110.752H954.123C954.236 110.446 954.44 110.198 954.735 110.007C955.03 109.817 955.363 109.722 955.733 109.722C955.803 109.722 955.89 109.723 955.995 109.726C956.099 109.728 956.178 109.732 956.232 109.738V110.704C956.2 110.696 956.126 110.684 956.011 110.667C955.898 110.649 955.779 110.639 955.652 110.639C955.352 110.639 955.084 110.702 954.848 110.828C954.614 110.952 954.429 111.124 954.292 111.343C954.158 111.561 954.091 111.809 954.091 112.088V116H953.141ZM959.761 116.128C959.166 116.128 958.652 115.997 958.22 115.734C957.791 115.468 957.459 115.098 957.226 114.623C956.995 114.146 956.88 113.59 956.88 112.957C956.88 112.324 956.995 111.766 957.226 111.283C957.459 110.798 957.784 110.419 958.2 110.148C958.618 109.875 959.107 109.738 959.665 109.738C959.987 109.738 960.305 109.791 960.618 109.899C960.932 110.006 961.218 110.18 961.476 110.422C961.733 110.661 961.938 110.977 962.091 111.372C962.244 111.766 962.321 112.252 962.321 112.828V113.231H957.556V112.41H961.355C961.355 112.061 961.285 111.75 961.146 111.476C961.009 111.203 960.813 110.987 960.558 110.828C960.306 110.67 960.008 110.591 959.665 110.591C959.286 110.591 958.959 110.685 958.683 110.873C958.409 111.058 958.199 111.299 958.051 111.597C957.903 111.895 957.83 112.214 957.83 112.555V113.102C957.83 113.569 957.91 113.965 958.071 114.289C958.235 114.611 958.461 114.857 958.751 115.026C959.041 115.192 959.378 115.275 959.761 115.275C960.011 115.275 960.236 115.24 960.437 115.171C960.641 115.098 960.817 114.991 960.965 114.849C961.112 114.704 961.226 114.524 961.307 114.309L962.224 114.567C962.128 114.878 961.965 115.152 961.737 115.388C961.509 115.621 961.227 115.804 960.892 115.935C960.557 116.064 960.18 116.128 959.761 116.128ZM966.1 116.128C965.584 116.128 965.13 115.998 964.735 115.738C964.341 115.475 964.032 115.105 963.81 114.627C963.587 114.147 963.476 113.58 963.476 112.925C963.476 112.276 963.587 111.712 963.81 111.235C964.032 110.757 964.342 110.388 964.739 110.128C965.136 109.868 965.595 109.738 966.116 109.738C966.518 109.738 966.836 109.805 967.069 109.939C967.306 110.07 967.485 110.221 967.609 110.39C967.735 110.556 967.833 110.693 967.902 110.8H967.983V107.758H968.933V116H968.015V115.05H967.902C967.833 115.163 967.733 115.305 967.605 115.476C967.476 115.646 967.292 115.797 967.053 115.931C966.815 116.063 966.497 116.128 966.1 116.128ZM966.228 115.275C966.609 115.275 966.931 115.176 967.194 114.977C967.457 114.776 967.657 114.499 967.794 114.144C967.931 113.788 967.999 113.376 967.999 112.909C967.999 112.448 967.932 112.044 967.798 111.698C967.664 111.349 967.465 111.078 967.202 110.885C966.939 110.689 966.615 110.591 966.228 110.591C965.826 110.591 965.491 110.694 965.222 110.901C964.957 111.105 964.757 111.382 964.623 111.734C964.491 112.083 964.425 112.474 964.425 112.909C964.425 113.349 964.493 113.749 964.627 114.108C964.764 114.465 964.965 114.749 965.23 114.961C965.499 115.171 965.831 115.275 966.228 115.275ZM974.12 116V107.758H975.07V110.8H975.15C975.22 110.693 975.317 110.556 975.44 110.39C975.566 110.221 975.746 110.07 975.979 109.939C976.215 109.805 976.535 109.738 976.937 109.738C977.458 109.738 977.916 109.868 978.313 110.128C978.71 110.388 979.02 110.757 979.243 111.235C979.466 111.712 979.577 112.276 979.577 112.925C979.577 113.58 979.466 114.147 979.243 114.627C979.02 115.105 978.712 115.475 978.317 115.738C977.923 115.998 977.468 116.128 976.953 116.128C976.556 116.128 976.238 116.063 975.999 115.931C975.761 115.797 975.577 115.646 975.448 115.476C975.319 115.305 975.22 115.163 975.15 115.05H975.038V116H974.12ZM975.054 112.909C975.054 113.376 975.122 113.788 975.259 114.144C975.396 114.499 975.596 114.776 975.859 114.977C976.122 115.176 976.443 115.275 976.824 115.275C977.221 115.275 977.553 115.171 977.818 114.961C978.087 114.749 978.288 114.465 978.422 114.108C978.559 113.749 978.627 113.349 978.627 112.909C978.627 112.474 978.56 112.083 978.426 111.734C978.295 111.382 978.095 111.105 977.826 110.901C977.561 110.694 977.227 110.591 976.824 110.591C976.438 110.591 976.113 110.689 975.851 110.885C975.588 111.078 975.389 111.349 975.255 111.698C975.121 112.044 975.054 112.448 975.054 112.909ZM981.42 118.318C981.259 118.318 981.116 118.304 980.99 118.277C980.864 118.253 980.776 118.229 980.728 118.205L980.969 117.368C981.2 117.427 981.404 117.448 981.581 117.432C981.758 117.416 981.915 117.337 982.052 117.195C982.192 117.055 982.319 116.829 982.434 116.515L982.611 116.032L980.326 109.818H981.356L983.062 114.744H983.127L984.833 109.818H985.863L983.239 116.901C983.121 117.22 982.975 117.485 982.801 117.694C982.626 117.906 982.424 118.063 982.193 118.165C981.965 118.267 981.707 118.318 981.42 118.318Z" fill="#0069FF"/>
<path fill-rule="evenodd" clip-rule="evenodd" d="M899.098 138V131.804C905.713 131.804 910.799 125.303 908.275 118.385C907.357 115.838 905.292 113.785 902.73 112.872C895.771 110.364 889.233 115.457 889.233 121.996H883C883 111.542 893.171 103.369 904.183 106.79C909.001 108.273 912.825 112.112 914.355 116.902C917.796 127.888 909.613 138 899.098 138Z" fill="#0069FF"/>
<path fill-rule="evenodd" clip-rule="evenodd" d="M899.098 131.842H892.903V125.684H899.098V131.842Z" fill="#0069FF"/>
<path fill-rule="evenodd" clip-rule="evenodd" d="M892.903 136.592H888.123V131.84H892.903V136.592Z" fill="#0069FF"/>
<path fill-rule="evenodd" clip-rule="evenodd" d="M888.125 131.84H884.11V127.887H888.087V131.84H888.125Z" fill="#0069FF"/>
</g>
<defs>
<clipPath id="clip0_47_69856">
<rect width="200" height="65" fill="white" transform="translate(860 90)"/>
</clipPath>
</defs>
</svg>
