<svg width="40" height="97" viewBox="0 0 40 97" fill="none" xmlns="http://www.w3.org/2000/svg">
<path d="M23.7756 -3.03937e-10L4.22932 0C1.90319 0 0 1.44936 0 3.21115L-4.00415e-10 18.0519C-4.39591e-10 19.818 1.90891 21.263 4.22932 21.263L23.7756 21.263C26.1018 21.263 28.005 19.8137 28.005 18.0519L28.005 3.21115C28.005 1.44936 26.0961 -3.336e-10 23.7756 -3.03937e-10Z" fill="#6255FC"/>
<path d="M28.751 93.7156L28.751 96.8954L26.544 96.8954L26.544 87.3821L29.9001 87.3821C30.5705 87.3821 31.1451 87.4626 31.6239 87.6237C32.1071 87.7804 32.5032 87.998 32.8122 88.2766C33.1257 88.5552 33.3564 88.8839 33.5044 89.2626C33.6524 89.6413 33.7264 90.0504 33.7264 90.4901C33.7264 90.9646 33.6502 91.3999 33.4978 91.796C33.3455 92.1921 33.1126 92.5316 32.7992 92.8146C32.4858 93.0975 32.0875 93.3195 31.6043 93.4806C31.1255 93.6373 30.5574 93.7156 29.9001 93.7156L28.751 93.7156ZM28.751 92.0506L29.9001 92.0506C30.4747 92.0506 30.8882 91.9135 31.1407 91.6393C31.3932 91.365 31.5194 90.982 31.5194 90.4901C31.5194 90.2724 31.4868 90.0744 31.4215 89.8959C31.3562 89.7174 31.2561 89.5651 31.1211 89.4389C30.9905 89.3083 30.823 89.2082 30.6184 89.1385C30.4181 89.0689 30.1787 89.034 29.9001 89.034L28.751 89.034L28.751 92.0506Z" fill="#282C38"/>
<path d="M39.0112 91.6066C38.9589 91.6893 38.9024 91.7481 38.8414 91.7829C38.7848 91.8177 38.7108 91.8351 38.6194 91.8351C38.5237 91.8351 38.4279 91.8156 38.3321 91.7764C38.2364 91.7329 38.1319 91.6871 38.0187 91.6393C37.9099 91.5914 37.7858 91.5479 37.6465 91.5087C37.5072 91.4651 37.3484 91.4434 37.1699 91.4434C36.9131 91.4434 36.715 91.4934 36.5757 91.5936C36.4408 91.6893 36.3733 91.8243 36.3733 91.9984C36.3733 92.1246 36.4168 92.2291 36.5039 92.3118C36.5953 92.3945 36.715 92.4685 36.863 92.5338C37.011 92.5947 37.1786 92.6535 37.3658 92.7101C37.553 92.7667 37.7445 92.8298 37.9404 92.8994C38.1362 92.9691 38.3278 93.0518 38.5149 93.1476C38.7021 93.239 38.8697 93.3543 39.0177 93.4936C39.1657 93.6286 39.2832 93.794 39.3703 93.9898C39.4617 94.1857 39.5074 94.4208 39.5074 94.695C39.5074 95.0302 39.4465 95.3393 39.3246 95.6222C39.2027 95.9051 39.0199 96.1489 38.7761 96.3535C38.5367 96.5581 38.2385 96.717 37.8816 96.8301C37.529 96.9433 37.122 96.9999 36.6606 96.9999C36.4299 96.9999 36.1992 96.9781 35.9685 96.9346C35.7378 96.8911 35.5136 96.8323 35.296 96.7583C35.0827 96.6843 34.8846 96.5973 34.7018 96.4971C34.519 96.3927 34.3623 96.2817 34.2317 96.1641L34.7018 95.4198C34.7584 95.3327 34.8258 95.2653 34.9042 95.2174C34.9825 95.1651 35.0848 95.139 35.2111 95.139C35.3286 95.139 35.4331 95.1651 35.5245 95.2174C35.6203 95.2696 35.7225 95.3262 35.8314 95.3871C35.9402 95.4481 36.0664 95.5047 36.2101 95.5569C36.3581 95.6091 36.5431 95.6353 36.7651 95.6353C36.9218 95.6353 37.0545 95.62 37.1634 95.5895C37.2722 95.5547 37.3592 95.509 37.4245 95.4524C37.4898 95.3958 37.5377 95.3327 37.5682 95.2631C37.5987 95.1934 37.6139 95.1216 37.6139 95.0476C37.6139 94.9127 37.5682 94.8017 37.4768 94.7146C37.3854 94.6276 37.2657 94.5536 37.1177 94.4926C36.9697 94.4273 36.7999 94.3686 36.6084 94.3163C36.4212 94.2597 36.2297 94.1966 36.0338 94.127C35.8379 94.0573 35.6442 93.9746 35.4527 93.8788C35.2655 93.7787 35.0979 93.6547 34.9499 93.5067C34.8019 93.3543 34.6822 93.1693 34.5908 92.9517C34.4994 92.734 34.4537 92.4707 34.4537 92.1616C34.4537 91.8743 34.5081 91.6023 34.6169 91.3454C34.7301 91.0843 34.8977 90.8557 35.1197 90.6599C35.3417 90.464 35.6203 90.3094 35.9554 90.1963C36.2906 90.0787 36.6824 90.02 37.1307 90.02C37.3745 90.02 37.6095 90.0417 37.8359 90.0853C38.0666 90.1288 38.2821 90.1897 38.4823 90.2681C38.6825 90.3464 38.8654 90.44 39.0308 90.5489C39.1962 90.6533 39.342 90.7687 39.4682 90.8949L39.0112 91.6066Z" fill="#282C38"/>
</svg>
