<svg width="20" height="20" viewBox="0 0 20 20" fill="none" xmlns="http://www.w3.org/2000/svg">
<path d="M3.2631 1.82332C3.5333 1.62857 3.89351 1.61341 4.17911 1.78477L16.6791 9.28477C16.9301 9.43538 17.0837 9.70663 17.0837 9.99935C17.0837 10.2921 16.9301 10.5633 16.6791 10.7139L4.17911 18.2139C3.89351 18.3853 3.5333 18.3701 3.2631 18.1754C2.99291 17.9806 2.86462 17.6437 2.93687 17.3186L4.37818 10.8327L8.75033 10.8327C9.21056 10.8327 9.58366 10.4596 9.58366 9.99935C9.58366 9.53911 9.21056 9.16602 8.75032 9.16602L4.37818 9.16602L2.93687 2.68013C2.86462 2.35499 2.99291 2.01806 3.2631 1.82332Z" fill="white"/>
</svg>
