<svg width="18" height="18" viewBox="0 0 18 18" fill="none" xmlns="http://www.w3.org/2000/svg">
<path d="M12.9383 9.0002C12.9362 9.14929 12.8786 9.29224 12.7766 9.40099L7.15155 15.026C7.04226 15.1157 6.90351 15.1615 6.7623 15.1546C6.62108 15.1477 6.48749 15.0884 6.38752 14.9885C6.28754 14.8885 6.22832 14.7549 6.22139 14.6137C6.21445 14.4725 6.26029 14.3337 6.34999 14.2244L11.5812 9.0002L6.34999 3.77599C6.26029 3.66669 6.21445 3.52795 6.22139 3.38673C6.22832 3.24551 6.28754 3.11192 6.38752 3.01195C6.48749 2.91197 6.62108 2.85276 6.7623 2.84582C6.90351 2.83889 7.04226 2.88473 7.15155 2.97442L12.7766 8.59942C12.8786 8.70817 12.9362 8.85112 12.9383 9.0002Z" fill="#E2E5E9"/>
</svg>
