<svg width="24" height="25" viewBox="0 0 24 25" fill="none" xmlns="http://www.w3.org/2000/svg">
<path d="M19.8289 1.86719H4.17105C3.66237 1.86719 3.25 2.27956 3.25 2.78825V21.2093C3.25 21.718 3.66237 22.1303 4.17105 22.1303H19.8289C20.3376 22.1303 20.75 21.718 20.75 21.2093V2.78825C20.75 2.27956 20.3376 1.86719 19.8289 1.86719Z" stroke="#767676" stroke-width="1.15" stroke-linecap="round" stroke-linejoin="round"/>
<path d="M3.25 5.55078H20.75" stroke="#767676" stroke-width="1.15" stroke-linecap="round" stroke-linejoin="round"/>
<path d="M11.9988 16.7827C13.6226 16.7827 14.939 15.4663 14.939 13.8425C14.939 12.2186 13.6226 10.9023 11.9988 10.9023C10.375 10.9023 9.05859 12.2186 9.05859 13.8425C9.05859 15.4663 10.375 16.7827 11.9988 16.7827Z" stroke="#767676" stroke-width="1.15" stroke-linecap="round" stroke-linejoin="round"/>
<path d="M5.0918 3.71094H8.77601" stroke="#767676" stroke-width="1.15" stroke-linecap="round" stroke-linejoin="round"/>
<path d="M12.0009 19.3691C15.053 19.3691 17.5272 16.8948 17.5272 13.8427C17.5272 10.7906 15.053 8.31641 12.0009 8.31641C8.94883 8.31641 6.47461 10.7906 6.47461 13.8427C6.47461 16.8948 8.94883 19.3691 12.0009 19.3691Z" stroke="#767676" stroke-width="1.15" stroke-linecap="round" stroke-linejoin="round"/>
<path d="M18.7807 3.12109C18.8976 3.12109 19.0119 3.15576 19.1092 3.22072C19.2064 3.28568 19.2822 3.37801 19.3269 3.48604C19.3717 3.59406 19.3834 3.71293 19.3605 3.82761C19.3377 3.94229 19.2814 4.04763 19.1988 4.13031C19.1161 4.21299 19.0107 4.26929 18.8961 4.2921C18.7814 4.31491 18.6625 4.30321 18.5545 4.25846C18.4465 4.21372 18.3541 4.13794 18.2892 4.04072C18.2242 3.9435 18.1895 3.8292 18.1895 3.71228C18.1895 3.55548 18.2518 3.40511 18.3627 3.29424C18.4736 3.18337 18.6239 3.12109 18.7807 3.12109Z" fill="#767676"/>
<path d="M16.4799 3.12109C16.5968 3.12109 16.7111 3.15576 16.8083 3.22072C16.9055 3.28568 16.9813 3.37801 17.026 3.48604C17.0708 3.59406 17.0825 3.71293 17.0597 3.82761C17.0369 3.94229 16.9806 4.04763 16.8979 4.13031C16.8152 4.21299 16.7099 4.26929 16.5952 4.2921C16.4805 4.31491 16.3616 4.30321 16.2536 4.25846C16.1456 4.21372 16.0533 4.13794 15.9883 4.04072C15.9233 3.9435 15.8887 3.8292 15.8887 3.71228C15.8887 3.55548 15.951 3.40511 16.0618 3.29424C16.1727 3.18337 16.3231 3.12109 16.4799 3.12109Z" fill="#767676"/>
<path d="M14.1771 3.12109C14.2941 3.12109 14.4083 3.15576 14.5056 3.22072C14.6028 3.28568 14.6786 3.37801 14.7233 3.48604C14.7681 3.59406 14.7798 3.71293 14.757 3.82761C14.7341 3.94229 14.6778 4.04763 14.5952 4.13031C14.5125 4.21299 14.4071 4.26929 14.2925 4.2921C14.1778 4.31491 14.0589 4.30321 13.9509 4.25846C13.8429 4.21372 13.7505 4.13794 13.6856 4.04072C13.6206 3.9435 13.5859 3.8292 13.5859 3.71228C13.5859 3.55548 13.6482 3.40511 13.7591 3.29424C13.87 3.18337 14.0203 3.12109 14.1771 3.12109Z" fill="#767676"/>
</svg>
