<svg width="20" height="20" viewBox="0 0 20 20" fill="none" xmlns="http://www.w3.org/2000/svg">
<path d="M14.798 0H12.198C8.99805 0 6.99805 2 6.99805 5.2V9.25H13.248C13.658 9.25 13.998 9.59 13.998 10C13.998 10.41 13.658 10.75 13.248 10.75H6.99805V14.8C6.99805 18 8.99805 20 12.198 20H14.788C17.988 20 19.988 18 19.988 14.8V5.2C19.998 2 17.998 0 14.798 0Z" fill="#292D32"/>
<path d="M2.5575 9.25375L4.6275 7.18375C4.7775 7.03375 4.8475 6.84375 4.8475 6.65375C4.8475 6.46375 4.7775 6.26375 4.6275 6.12375C4.3375 5.83375 3.8575 5.83375 3.5675 6.12375L0.2175 9.47375C-0.0725 9.76375 -0.0725 10.2438 0.2175 10.5338L3.5675 13.8838C3.8575 14.1738 4.3375 14.1738 4.6275 13.8838C4.9175 13.5938 4.9175 13.1137 4.6275 12.8238L2.5575 10.7538H6.9975V9.25375H2.5575Z" fill="#292D32"/>
</svg>
