<svg width="265" height="29" viewBox="0 0 265 29" fill="none" xmlns="http://www.w3.org/2000/svg">
<rect x="154.609" width="28.7969" height="28.7969" rx="7" fill="#CCCCCC"/>
<g clip-path="url(#clip0_47_89337)">
<path d="M176.75 14.3906C176.75 10.1094 173.281 6.64062 169 6.64062C164.719 6.64062 161.25 10.1094 161.25 14.3906C161.25 18.2587 164.084 21.465 167.789 22.0469V16.6309H165.82V14.3906H167.789V12.6831C167.789 10.7409 168.945 9.66812 170.716 9.66812C171.564 9.66812 172.451 9.81938 172.451 9.81938V11.7256H171.474C170.511 11.7256 170.211 12.3231 170.211 12.9359V14.3906H172.36L172.017 16.6309H170.211V22.0469C173.916 21.465 176.75 18.2587 176.75 14.3906Z" fill="#F8F8F8"/>
</g>
<rect x="195.406" width="28.7969" height="28.7969" rx="7" fill="#CCCCCC"/>
<g clip-path="url(#clip1_47_89337)">
<path d="M216.152 11.1331C216.162 11.2752 216.162 11.4174 216.162 11.5595C216.162 15.8945 212.863 20.8894 206.832 20.8894C204.975 20.8894 203.249 20.3513 201.797 19.4174C202.061 19.4478 202.315 19.458 202.589 19.458C204.122 19.458 205.533 18.9402 206.66 18.057C205.218 18.0265 204.01 17.0823 203.594 15.7828C203.797 15.8133 204 15.8336 204.213 15.8336C204.508 15.8336 204.802 15.793 205.076 15.7219C203.574 15.4173 202.447 14.0976 202.447 12.5037V12.4631C202.883 12.7067 203.391 12.859 203.929 12.8793C203.046 12.2904 202.467 11.2854 202.467 10.1483C202.467 9.53919 202.629 8.98081 202.914 8.4935C204.528 10.4833 206.954 11.7828 209.675 11.925C209.624 11.6813 209.594 11.4275 209.594 11.1737C209.594 9.36659 211.056 7.89453 212.873 7.89453C213.817 7.89453 214.67 8.29047 215.269 8.93006C216.01 8.78794 216.721 8.51381 217.35 8.13819C217.106 8.89963 216.589 9.53922 215.908 9.94528C216.568 9.87425 217.208 9.69147 217.797 9.43769C217.35 10.0874 216.792 10.6661 216.152 11.1331Z" fill="#F8F8F8"/>
</g>
<rect x="236.203" width="28.7969" height="28.7969" rx="7" fill="#CCCCCC"/>
<g clip-path="url(#clip2_47_89337)">
<path d="M257.861 10.7276C257.687 10.0706 257.173 9.55323 256.52 9.37765C255.337 9.05859 250.593 9.05859 250.593 9.05859C250.593 9.05859 245.849 9.05859 244.666 9.37765C244.013 9.55326 243.499 10.0706 243.325 10.7276C243.008 11.9183 243.008 14.4027 243.008 14.4027C243.008 14.4027 243.008 16.8871 243.325 18.0778C243.499 18.7348 244.013 19.2306 244.666 19.4062C245.849 19.7253 250.593 19.7253 250.593 19.7253C250.593 19.7253 255.337 19.7253 256.52 19.4062C257.173 19.2306 257.687 18.7348 257.861 18.0778C258.178 16.8871 258.178 14.4027 258.178 14.4027C258.178 14.4027 258.178 11.9183 257.861 10.7276ZM249.041 16.6583V12.1471L253.006 14.4028L249.041 16.6583Z" fill="#F8F8F8"/>
</g>
<defs>
<clipPath id="clip0_47_89337">
<rect width="16" height="16" fill="white" transform="translate(161 6.39062)"/>
</clipPath>
<clipPath id="clip1_47_89337">
<rect width="16" height="16" fill="white" transform="translate(201.797 6.39062)"/>
</clipPath>
<clipPath id="clip2_47_89337">
<rect width="16" height="16" fill="white" transform="translate(242.594 6.39062)"/>
</clipPath>
</defs>
</svg>
