<svg width="24" height="24" viewBox="0 0 24 24" fill="none" xmlns="http://www.w3.org/2000/svg">
<path d="M11.9304 14.8091C13.3081 14.8091 14.4249 13.6923 14.4249 12.3147C14.4249 10.9371 13.3081 9.82031 11.9304 9.82031C10.5528 9.82031 9.43604 10.9371 9.43604 12.3147C9.43604 13.6923 10.5528 14.8091 11.9304 14.8091Z" stroke="#636977" stroke-opacity="0.6" stroke-width="1.2" stroke-miterlimit="10" stroke-linecap="round" stroke-linejoin="round"/>
<path d="M18.6376 12.3179C18.6376 12.3068 18.6376 12.3068 18.6376 12.2957C18.6376 11.1095 19.1254 9.98978 20.0789 9.29135L20.1565 9.23591L18.7042 6.70825C17.6288 7.19604 16.3871 7.12952 15.3672 6.54195L15.2009 6.44218C14.181 5.87678 13.5047 4.82358 13.3828 3.64844H10.4671C10.3451 4.82358 9.66885 5.86569 8.64892 6.46435L8.48262 6.55304C7.46269 7.14061 6.22103 7.20713 5.14566 6.71933L3.69336 9.247L3.77096 9.30243C4.73547 9.98978 5.22326 11.1206 5.21218 12.3068C5.21218 12.3179 5.21218 12.3179 5.21218 12.329C5.21218 12.3401 5.21218 12.3401 5.21218 12.3512C5.21218 13.5374 4.72438 14.6571 3.77096 15.3555L3.69336 15.3888L5.14566 17.9165L5.22326 17.8832C6.29863 17.3954 7.52921 17.5284 8.54914 18.1271C8.56023 18.1382 8.57131 18.1382 8.5824 18.1493C9.61342 18.7368 10.334 19.7346 10.456 20.9097L10.4671 20.9984H13.3828L13.3938 20.9097C13.5158 19.7346 14.2364 18.7368 15.2674 18.1493C15.2785 18.1382 15.2896 18.1382 15.3007 18.1271C16.3206 17.5395 17.5512 17.3954 18.6266 17.8832L18.7042 17.9165L20.1565 15.3888L20.0789 15.3334C19.1144 14.646 18.6266 13.5152 18.6376 12.329C18.6376 12.329 18.6376 12.3179 18.6376 12.3179Z" stroke="#636977" stroke-opacity="0.6" stroke-width="1.2" stroke-miterlimit="10" stroke-linecap="square" stroke-linejoin="round"/>
</svg>
