<svg width="15" height="19" viewBox="0 0 15 19" fill="none" xmlns="http://www.w3.org/2000/svg">
<mask id="mask0_0_343" style="mask-type:luminance" maskUnits="userSpaceOnUse" x="-4" y="-2" width="23" height="23">
<rect x="-3.7495" y="-1.85378" width="22.501" height="22.501" fill="white"/>
</mask>
<g mask="url(#mask0_0_343)">
<path fill-rule="evenodd" clip-rule="evenodd" d="M11.2518 9.39511V3.76985C11.2518 1.69133 9.57832 0 7.52135 0C7.45666 0 7.3901 0.00843782 7.32541 0.0234386C5.33876 0.117193 3.7515 1.7607 3.7515 3.76985V9.39511C3.7515 11.4633 5.43345 13.1453 7.50166 13.1453C9.56988 13.1453 11.2518 11.4633 11.2518 9.39511ZM5.62662 9.39502V3.76976C5.62662 2.73566 6.4676 1.89468 7.50171 1.89468C7.55327 1.89468 7.6039 1.88999 7.65453 1.88062C8.61551 1.95093 9.37679 2.77128 9.37679 3.76976V9.39502C9.37679 10.4291 8.53581 11.2701 7.50171 11.2701C6.4676 11.2701 5.62662 10.4291 5.62662 9.39502Z" fill="#8F9198"/>
<path fill-rule="evenodd" clip-rule="evenodd" d="M1.87508 9.39672H0C0 13.2144 2.86982 16.3683 6.56279 16.8324V18.7721H8.43787V16.8324C12.1309 16.3683 15.0007 13.2153 15.0007 9.39672H13.1256C13.1256 12.499 10.6027 15.022 7.50033 15.022C4.39801 15.022 1.87508 12.499 1.87508 9.39672Z" fill="#8F9198"/>
</g>
</svg>
