<svg width="296" height="167" viewBox="0 0 296 167" fill="none" xmlns="http://www.w3.org/2000/svg">
<g clip-path="url(#clip0_47_87953)">
<rect width="295.988" height="24" transform="translate(0 142.494)" fill="#58594E" fill-opacity="0.8"/>
<g clip-path="url(#clip1_47_87953)">
<path d="M146.494 156.906V152.096L150.664 154.496L146.494 156.906ZM144.474 150.946L143.764 150.246C142.674 151.326 141.994 152.836 141.994 154.496C141.994 156.156 142.674 157.666 143.764 158.746L144.474 158.036C143.564 157.136 142.994 155.886 142.994 154.496C142.994 153.106 143.564 151.856 144.474 150.946ZM152.224 150.246L151.514 150.956C152.424 151.856 152.994 153.106 152.994 154.496C152.994 155.886 152.424 157.136 151.514 158.046L152.224 158.756C153.314 157.666 153.994 156.156 153.994 154.496C153.994 152.836 153.314 151.326 152.224 150.246ZM141.644 148.126L140.944 147.416C139.124 149.226 137.994 151.736 137.994 154.496C137.994 157.256 139.124 159.766 140.944 161.577L141.654 160.867C140.014 159.236 138.994 156.986 138.994 154.496C138.994 152.006 140.014 149.756 141.644 148.126ZM155.044 147.416L154.334 148.126C155.974 149.756 156.994 152.006 156.994 154.496C156.994 156.986 155.974 159.236 154.344 160.867L155.054 161.577C156.864 159.766 157.995 157.256 157.995 154.496C157.995 151.736 156.864 149.226 155.044 147.416Z" fill="white"/>
</g>
</g>
<defs>
<clipPath id="clip0_47_87953">
<rect width="295.999" height="166.494" rx="12" fill="white"/>
</clipPath>
<clipPath id="clip1_47_87953">
<rect width="24" height="24" fill="white" transform="translate(135.994 142.494)"/>
</clipPath>
</defs>
</svg>
