<svg width="24" height="25" viewBox="0 0 24 25" fill="none" xmlns="http://www.w3.org/2000/svg">
<path d="M5.70898 3.28906H18.0189L22.9065 9.64538" stroke="#767676" stroke-width="1.15" stroke-linecap="round" stroke-linejoin="round"/>
<path d="M22.906 9.64453H8.72852" stroke="#767676" stroke-width="1.15" stroke-linecap="round" stroke-linejoin="round"/>
<path d="M5.71029 3.28906L0.908203 9.64538H10.5124L5.71029 3.28906Z" stroke="#767676" stroke-width="1.15" stroke-linecap="round" stroke-linejoin="round"/>
<path d="M10.5117 18.9336H0.90625" stroke="#767676" stroke-width="1.15" stroke-linecap="round" stroke-linejoin="round"/>
<path d="M4.08008 13.6367H7.33406" stroke="#767676" stroke-width="1.15" stroke-linecap="round" stroke-linejoin="round"/>
<path d="M4.08008 13.6367V18.9334" stroke="#767676" stroke-width="1.15" stroke-linecap="round" stroke-linejoin="round"/>
<path d="M7.33398 13.6367V18.9334" stroke="#767676" stroke-width="1.15" stroke-linecap="round" stroke-linejoin="round"/>
<path d="M15.7363 15.5157C16.1325 14.6451 16.6255 13.8219 17.206 13.0616C17.2747 12.9812 17.3725 12.9314 17.4779 12.9231C17.5833 12.9148 17.6877 12.9486 17.7682 13.0171C17.7845 13.0304 17.7994 13.0453 17.8127 13.0616C18.3938 13.8215 18.8871 14.6448 19.2831 15.5157" stroke="#767676" stroke-linecap="round" stroke-linejoin="round"/>
<path d="M17.332 19.1842L20.6076 13.0232C20.8802 12.8469 20.9995 12.8587 21.0521 13.0506L21.4291 14.467C21.5618 15.0452 21.5593 15.6463 21.4218 16.2235C21.2843 16.8006 21.0156 17.3383 20.6364 17.7947C20.2573 18.2511 19.778 18.6139 19.2359 18.8548C18.6937 19.0958 18.1033 19.2085 17.5105 19.1842H17.332Z" stroke="#767676" stroke-linecap="round" stroke-linejoin="round"/>
<path d="M17.6879 19.1842L14.4092 13.0232C14.1366 12.8469 14.0173 12.8587 13.9648 13.0506L13.5892 14.4707C13.4571 15.0486 13.46 15.6493 13.5976 16.226C13.7353 16.8027 14.0041 17.3399 14.3831 17.7958C14.7621 18.2518 15.2411 18.6142 15.7829 18.855C16.3247 19.0958 16.9147 19.2084 17.5071 19.1842H17.6879Z" stroke="#767676" stroke-linecap="round" stroke-linejoin="round"/>
<path d="M20.1905 22.6987H14.8222C14.7281 22.6988 14.635 22.6804 14.5481 22.6445C14.4612 22.6086 14.3822 22.5559 14.3157 22.4894C14.2492 22.423 14.1964 22.344 14.1604 22.2572C14.1244 22.1703 14.1058 22.0772 14.1058 21.9832L13.748 19.9031C13.748 19.809 13.7666 19.7159 13.8026 19.6291C13.8386 19.5422 13.8914 19.4633 13.9579 19.3968C14.0244 19.3304 14.1034 19.2777 14.1903 19.2418C14.2772 19.2058 14.3703 19.1874 14.4644 19.1875H20.5513C20.6453 19.1874 20.7384 19.2058 20.8252 19.2418C20.9121 19.2777 20.991 19.3304 21.0575 19.3969C21.1239 19.4633 21.1766 19.5423 21.2126 19.6291C21.2485 19.716 21.2669 19.8091 21.2668 19.9031L20.9091 21.9832C20.9091 22.0774 20.8904 22.1707 20.8543 22.2577C20.8182 22.3447 20.7652 22.4237 20.6984 22.4902C20.6317 22.5567 20.5524 22.6093 20.4653 22.6451C20.3781 22.6809 20.2847 22.6991 20.1905 22.6987Z" stroke="#767676" stroke-linecap="round" stroke-linejoin="round"/>
<path d="M0.90625 9.64453V18.9335" stroke="#767676" stroke-width="1.15" stroke-linecap="round" stroke-linejoin="round"/>
<path d="M10.5098 9.64453V13.8428" stroke="#767676" stroke-width="1.15" stroke-linecap="round" stroke-linejoin="round"/>
</svg>
