<svg width="16" height="16" viewBox="0 0 16 16" fill="none" xmlns="http://www.w3.org/2000/svg">
<path fill-rule="evenodd" clip-rule="evenodd" d="M13.8092 7.42337C13.692 4.15119 10.4954 1.56806 7.41578 1.85348L7.40251 1.85471L7.38925 1.85523C4.2595 1.97786 1.90857 4.77602 2.18911 7.3513L2.19068 7.36577L2.19141 7.38024C2.32397 10.0065 4.90956 12.0124 7.31511 11.7484L7.32858 11.7469L7.34211 11.7462C9.79745 11.6108 11.5444 9.39664 11.2899 7.47097L11.288 7.4565L11.2869 7.44184C11.1422 5.45996 9.16638 4.03309 7.43778 4.27088L7.42431 4.27274L7.41071 4.27386C5.62896 4.42074 4.48537 6.0446 4.70796 7.31944L4.71058 7.3345L4.71228 7.34964C4.86261 8.6873 6.22584 9.53777 7.27458 9.33457L7.28825 9.33197L7.30205 9.33004C8.41385 9.17844 8.94878 8.1569 8.77978 7.53697L8.77565 7.5217L8.77245 7.50624C8.70298 7.16864 8.49311 6.91997 8.23698 6.7737C7.96858 6.62048 7.70085 6.6065 7.54218 6.66483C7.28305 6.7601 6.99565 6.62728 6.90038 6.36811C6.80505 6.10893 6.93791 5.82157 7.19711 5.72627C7.69258 5.54407 8.26938 5.64068 8.73285 5.90533C9.20485 6.17486 9.61151 6.6461 9.74871 7.28937C10.0847 8.56417 9.06285 10.0913 7.45091 10.319C5.85353 10.6193 3.94533 9.3971 3.72027 7.47637C3.39724 5.56626 5.02694 3.47468 7.31505 3.27838C9.58245 2.97501 12.0866 4.7844 12.2832 7.3545C12.6106 9.90557 10.3767 12.5726 7.41065 12.7438C4.47109 13.0582 1.36479 10.6631 1.19343 7.44517C0.85486 4.24883 3.69493 1.00682 7.33678 0.85653C10.9463 0.530134 14.6604 3.50544 14.8081 7.37297C15.1617 11.2175 11.7058 15.0434 7.38371 15.1651C7.10765 15.1729 6.87758 14.9554 6.86985 14.6794C6.86205 14.4033 7.07951 14.1732 7.35558 14.1655C11.1582 14.0585 14.1156 10.6748 13.8112 7.4525L13.8098 7.43797L13.8092 7.42337Z" fill="#5C5F66"/>
</svg>
