<svg width="16" height="18" viewBox="0 0 16 18" fill="none" xmlns="http://www.w3.org/2000/svg">
<path d="M6.30859 2.34961C5.97656 2.68164 6.00977 3.17969 6.30859 3.51172L10.3262 7.29688H0.796875C0.332031 7.29688 0 7.66211 0 8.09375V9.15625C0 9.62109 0.332031 9.95312 0.796875 9.95312H10.3262L6.30859 13.7715C6.00977 14.1035 6.00977 14.6016 6.30859 14.9336L7.03906 15.6641C7.37109 15.9629 7.86914 15.9629 8.16797 15.6641L14.6426 9.18945C14.9414 8.89062 14.9414 8.39258 14.6426 8.06055L8.16797 1.61914C7.86914 1.32031 7.37109 1.32031 7.03906 1.61914L6.30859 2.34961Z" fill="#C62E46"/>
</svg>
