<svg width="24" height="24" viewBox="0 0 24 24" fill="none" xmlns="http://www.w3.org/2000/svg">
<path d="M18.06 20.5716H5.25C3.87 20.5716 2.75 19.4516 2.75 18.0716V7.85156C2.75 6.47156 3.87 5.35156 5.25 5.35156H18.06C19.44 5.35156 20.56 6.47156 20.56 7.85156V18.0716C20.56 19.4616 19.44 20.5716 18.06 20.5716Z" fill="black"/>
<path d="M2.75 9.02344V9.91344C2.75 11.2934 3.87 12.4134 5.25 12.4134H18.06C19.44 12.4134 20.56 11.2934 20.56 9.91344V9.02344" stroke="white" stroke-width="1.2" stroke-miterlimit="10" stroke-linecap="round" stroke-linejoin="round"/>
<path d="M18.06 20.5716H5.25C3.87 20.5716 2.75 19.4516 2.75 18.0716V7.85156C2.75 6.47156 3.87 5.35156 5.25 5.35156H18.06C19.44 5.35156 20.56 6.47156 20.56 7.85156V18.0716C20.56 19.4616 19.44 20.5716 18.06 20.5716Z" stroke="black" stroke-width="1.2" stroke-miterlimit="10" stroke-linecap="round" stroke-linejoin="round"/>
<path d="M8.96997 5.35V4.75C8.96997 3.65 9.86997 2.75 10.97 2.75H12.33C13.43 2.75 14.33 3.65 14.33 4.75V5.35" stroke="black" stroke-width="1.2" stroke-miterlimit="10" stroke-linecap="round" stroke-linejoin="round"/>
<path d="M7.72998 10.7109V13.7309" stroke="white" stroke-width="1.2" stroke-miterlimit="10" stroke-linecap="round" stroke-linejoin="round"/>
<path d="M15.5801 10.7109V13.7309" stroke="white" stroke-width="1.2" stroke-miterlimit="10" stroke-linecap="round" stroke-linejoin="round"/>
</svg>
