<svg width="30" height="30" viewBox="0 0 30 30" fill="none" xmlns="http://www.w3.org/2000/svg">
<g clip-path="url(#clip0_47_27595)">
<path d="M22.9779 10.3867L26.2404 10.6586C26.2404 10.6586 25.8373 15.3461 22.2373 16.4617C18.6373 17.5773 22.9779 10.3867 22.9779 10.3867Z" fill="#999893"/>
<path d="M6.33739 3.52539C5.26164 5.11855 4.3922 6.84166 3.74989 8.65351C3.21551 10.6879 7.91239 7.92227 7.91239 7.92227L6.33739 3.52539Z" fill="#999893"/>
<path d="M7.70619 4.76172C7.70619 4.76172 4.53744 7.06797 4.19057 8.16484C3.84369 9.26172 2.55932 13.8648 6.12182 12.9086C9.68432 11.9523 10.5281 6.25234 10.5281 6.25234L7.70619 4.76172Z" fill="#999893"/>
<path d="M7.50013 5.78516C7.50013 5.78516 4.91263 7.66016 4.63138 8.55078C4.35013 9.44141 3.29076 13.2383 6.20638 12.4133C9.12201 11.5883 9.80638 6.99453 9.80638 6.99453L7.50013 5.78516Z" fill="#BFBDB4"/>
<path d="M15.2158 3.8069C15.4869 4.89365 16.0141 5.89977 16.7533 6.74128C17.747 7.61315 18.2158 10.0132 19.4158 10.1444C20.6158 10.2757 22.7533 11.9444 24.1032 11.2132C25.4532 10.4819 25.6408 7.95065 25.1064 7.35065C23.9696 6.24818 22.9371 5.04306 22.022 3.75065C21.2427 2.50231 20.1013 1.52121 18.7501 0.938151C17.2126 0.141276 13.6783 -0.393099 13.4814 0.544401C13.2845 1.4819 15.2158 3.8069 15.2158 3.8069Z" fill="#999893"/>
<path d="M22.0031 10.7242C24.2658 10.7242 26.1 8.84382 26.1 6.52422C26.1 4.20462 24.2658 2.32422 22.0031 2.32422C19.7405 2.32422 17.9062 4.20462 17.9062 6.52422C17.9062 8.84382 19.7405 10.7242 22.0031 10.7242Z" fill="#999893"/>
<path d="M21.7404 10.5188C23.7183 10.5188 25.3217 8.87759 25.3217 6.85312C25.3217 4.82866 23.7183 3.1875 21.7404 3.1875C19.7626 3.1875 18.1592 4.82866 18.1592 6.85312C18.1592 8.87759 19.7626 10.5188 21.7404 10.5188Z" fill="#E2E0D7"/>
<path d="M15.4689 0.937066C15.4689 0.937066 14.1283 3.86207 11.8127 4.53707C9.49707 5.21207 5.1377 6.97457 4.48145 9.59957C4.48145 9.57144 5.68145 -0.619184 15.4689 0.937066Z" fill="#827420"/>
<path d="M20.6248 17.6243C21.6594 17.9997 22.5861 18.6235 23.3233 19.4409C24.0605 20.2582 24.5858 21.244 24.8529 22.3118C25.1494 23.4938 25.1241 24.7336 24.7795 25.9024C24.435 27.0713 23.7838 28.1266 22.8935 28.9587C21.7635 29.7595 20.395 30.1529 19.0123 30.0743C15.7966 30.0743 12.5998 28.9399 9.38414 27.7774C8.27965 27.4395 7.2378 26.9233 6.29977 26.2493C5.79141 25.8648 5.36406 25.3835 5.04229 24.8333C4.72051 24.2831 4.51065 23.6747 4.42477 23.0431C4.34984 22.1353 4.51583 21.2239 4.90596 20.4008C5.29609 19.5778 5.89654 18.8722 6.64664 18.3556C8.77023 16.8634 11.3076 16.0734 13.9029 16.0962C16.2086 16.2583 18.4756 16.7737 20.6248 17.6243Z" fill="#614D6D"/>
<path d="M19.828 17.8123C20.7475 18.1243 21.5767 18.6564 22.2434 19.3623C22.9101 20.0682 23.394 20.9265 23.653 21.8623C23.9214 22.896 23.8979 23.9839 23.5851 25.0051C23.2723 26.0262 22.6824 26.9407 21.8811 27.6467C20.848 28.338 19.6151 28.6677 18.3748 28.5842C15.4592 28.5842 12.5717 27.5904 9.65609 26.5873C8.65524 26.2965 7.7062 25.8504 6.84359 25.2654C6.38091 24.9385 5.99002 24.5203 5.69498 24.0366C5.39993 23.5529 5.20697 23.014 5.12797 22.4529C5.07154 21.6604 5.22775 20.8671 5.58044 20.1552C5.93314 19.4432 6.46954 18.8383 7.13422 18.4029C9.07173 17.097 11.3603 16.4104 13.6967 16.4342C15.7975 16.5867 17.864 17.0511 19.828 17.8123Z" fill="#957DA1"/>
<path d="M17.3436 18.6934C14.4317 20.0834 11.9882 22.2923 10.3123 25.0496C10.3123 25.0496 9.25296 21.0184 9.87171 18.084C9.90921 18.084 14.0623 19.9215 17.3436 18.6934Z" fill="#FAEACF"/>
<path d="M7.0874 18.1133C7.0874 18.1133 8.67178 22.0883 10.5749 22.5008C12.478 22.9133 15.8249 23.5414 20.1187 19.3602L7.0874 18.1133Z" fill="#E8CCAA"/>
<path d="M24.4184 11.3472C24.4385 5.84855 20.0015 1.37469 14.5081 1.35456C9.0146 1.33442 4.54493 5.77564 4.52477 11.2743C4.50462 16.7729 8.94162 21.2468 14.4351 21.2669C19.9286 21.2871 24.3982 16.8458 24.4184 11.3472Z" fill="#A67A65"/>
<path d="M23.9679 10.6211C23.9875 5.29331 19.6885 0.958476 14.3659 0.938968C9.04326 0.91946 4.7126 5.22267 4.69307 10.5505C4.67354 15.8782 8.97254 20.2131 14.2951 20.2326C19.6178 20.2521 23.9484 15.9489 23.9679 10.6211Z" fill="#E5A98C"/>
<path d="M23.8386 10.3464C23.8574 5.23086 19.8515 1.06919 14.8914 1.05101C9.9312 1.03283 5.89498 5.16503 5.87623 10.2805C5.85748 15.396 9.8633 19.5577 14.8235 19.5759C19.7836 19.5941 23.8199 15.4619 23.8386 10.3464Z" fill="#E8CCAA"/>
<path d="M18.9361 11.6067C18.9497 7.87878 16.0269 4.84597 12.4077 4.8327C8.78857 4.81944 5.84358 7.83074 5.82992 11.5586C5.81625 15.2865 8.73909 18.3193 12.3583 18.3326C15.9774 18.3459 18.9224 15.3346 18.9361 11.6067Z" fill="#FAEACF"/>
<path d="M15.4848 12.3397C15.487 11.7547 15.09 11.2789 14.5981 11.2771C14.1062 11.2753 13.7057 11.7481 13.7036 12.3332C13.7014 12.9183 14.0985 13.394 14.5903 13.3958C15.0822 13.3976 15.4827 12.9248 15.4848 12.3397Z" fill="#425763"/>
<path d="M14.8968 11.9156C14.8968 11.7655 14.796 11.6438 14.6718 11.6438C14.5475 11.6438 14.4468 11.7655 14.4468 11.9156C14.4468 12.0658 14.5475 12.1875 14.6718 12.1875C14.796 12.1875 14.8968 12.0658 14.8968 11.9156Z" fill="white"/>
<path d="M16.5092 5.0535C16.7752 6.14028 17.2994 7.14687 18.0373 7.98787C19.0405 8.85975 19.5092 11.2597 20.7092 11.391C21.9092 11.5222 24.0373 13.191 25.3967 12.4597C26.7561 11.7285 26.9061 9.18787 26.3717 8.58787C25.2387 7.48714 24.2122 6.28178 23.3061 4.98787C22.5247 3.74484 21.3882 2.76504 20.0436 2.17537C18.5061 1.38787 14.9998 0.853497 14.7748 1.791C14.5498 2.7285 16.5092 5.0535 16.5092 5.0535Z" fill="#999893"/>
<path d="M8.36178 10.7675C8.36393 10.1824 7.96692 9.70664 7.47504 9.70484C6.98317 9.70304 6.58269 10.1759 6.58054 10.7609C6.5784 11.346 6.9754 11.8218 7.46728 11.8236C7.95915 11.8254 8.35964 11.3525 8.36178 10.7675Z" fill="#425763"/>
<path d="M7.83722 10.3977C7.83777 10.2476 7.73748 10.1255 7.61322 10.125C7.48896 10.1246 7.38778 10.2459 7.38723 10.3961C7.38668 10.5462 7.48697 10.6683 7.61123 10.6688C7.73549 10.6692 7.83667 10.5479 7.83722 10.3977Z" fill="white"/>
<path d="M20.8687 12.0753C20.8687 12.0753 21.6749 11.4472 22.3312 11.691C22.9874 11.9347 22.8843 14.016 21.2155 14.241L20.8687 12.0753Z" fill="#FAEACF"/>
<path d="M12.6188 16.8748C12.0593 16.7856 11.5272 16.5709 11.0626 16.2466C10.8702 16.0894 10.6485 15.9719 10.4103 15.9011C10.1721 15.8303 9.92217 15.8075 9.6751 15.8341C9.55322 15.8341 9.35635 15.6466 9.15947 15.5435C8.9626 15.4404 8.64385 15.4216 8.61572 15.5435C8.67101 15.7606 8.76296 15.9667 8.8876 16.1529C8.91301 16.3615 8.91301 16.5724 8.8876 16.781C8.86437 16.8937 8.86368 17.0099 8.88555 17.1228C8.90743 17.2358 8.95144 17.3433 9.01506 17.4391C9.07868 17.535 9.16064 17.6173 9.25622 17.6814C9.35181 17.7454 9.45912 17.7899 9.57197 17.8123C10.064 17.9546 10.5898 17.9248 11.0626 17.7279C11.372 17.5498 12.6188 16.8748 12.6188 16.8748Z" fill="#A87483"/>
<path d="M4.62207 8.14693C5.55957 7.57506 6.49707 7.05006 7.3502 6.44068C8.0292 5.92125 8.7652 5.48091 9.54395 5.12818C10.112 4.64297 10.7675 4.27068 11.4752 4.03131C13.9502 3.30943 15.3752 0.103181 15.3752 0.103181C7.32207 -0.374944 5.12832 4.46256 4.62207 8.14693Z" fill="#999893"/>
<path d="M13.1249 3.74961C14.7084 4.54626 16.0706 5.72169 17.0906 7.17148C18.3374 9.20586 20.6249 12.3184 24.3749 11.5871C24.3749 11.5871 24.8062 0.937109 13.5749 0.787109C13.5749 0.787109 10.8281 2.73711 13.1249 3.74961Z" fill="#E2E0D7"/>
<path d="M14.672 0.937204C14.672 0.937204 13.4532 4.15283 11.3157 4.82783C9.17822 5.50283 5.14697 7.26533 4.5376 9.89033C4.5376 9.88095 5.6251 -0.600296 14.672 0.937204Z" fill="#E2E0D7"/>
<path d="M18.1689 13.0125C18.1604 13.4052 18.0745 13.7925 17.9163 14.1521C17.7581 14.5116 17.5306 14.8365 17.2468 15.1082C16.9629 15.3798 16.6284 15.5928 16.2622 15.7351C15.896 15.8774 15.5054 15.9462 15.1126 15.9375C14.1619 15.9398 13.2458 15.581 12.5496 14.9335C11.8535 14.2861 11.4292 13.3984 11.3626 12.45C11.3366 11.9889 11.4181 11.528 11.6006 11.1038C11.7832 10.6795 12.0618 10.3035 12.4145 10.0053C12.7672 9.70713 13.1844 9.49499 13.6331 9.3856C14.0818 9.27622 14.5498 9.27258 15.0001 9.37498C15.8719 9.5116 16.6675 9.95124 17.2471 10.6166C17.8267 11.2819 18.1531 12.1303 18.1689 13.0125Z" stroke="#425763" stroke-width="0.665625" stroke-miterlimit="10"/>
<path d="M10.2467 10.8376C10.2504 11.1842 10.1852 11.5282 10.0548 11.8494C9.92446 12.1706 9.73155 12.4627 9.48729 12.7087C9.24304 12.9547 8.95233 13.1497 8.63205 13.2823C8.31178 13.415 7.96833 13.4826 7.62167 13.4814C6.79773 13.459 6.01238 13.1274 5.42178 12.5524C4.83119 11.9775 4.47861 11.2013 4.43417 10.3782C4.39649 9.97448 4.45319 9.56749 4.59982 9.18941C4.74644 8.81133 4.97896 8.47253 5.27902 8.19975C5.57907 7.92697 5.93844 7.7277 6.32874 7.61766C6.71904 7.50763 7.12957 7.48985 7.52792 7.56573C8.29256 7.70629 8.98359 8.11083 9.48046 8.70878C9.97733 9.30674 10.2485 10.0602 10.2467 10.8376Z" stroke="#425763" stroke-width="0.665625" stroke-miterlimit="10"/>
<path d="M18.2627 12.5066L20.9252 12.0566" stroke="#425763" stroke-width="0.665625" stroke-miterlimit="10" stroke-linecap="round"/>
<path d="M15.8343 5.45616C16.1002 6.55888 16.6275 7.58141 17.3718 8.43741C18.3749 9.29991 18.8343 11.7093 20.0437 11.8405C21.2531 11.9718 23.3718 13.6405 24.7312 12.9093C26.0906 12.178 26.2499 9.59054 25.7062 8.99054C24.5732 7.8898 23.5467 6.68444 22.6406 5.39054C21.8603 4.14298 20.7193 3.16211 19.3687 2.57803C17.8124 1.79053 14.3062 1.25616 14.0624 2.18428C13.8187 3.11241 15.8343 5.45616 15.8343 5.45616Z" fill="#E2E0D7"/>
<path d="M22.2656 12.2813C22.2656 12.2813 23.4188 14.55 23.1469 15.1688C22.875 15.7875 25.6875 13.7438 25.7719 11.3438C25.8562 8.94375 23.1469 8.85938 23.1469 8.85938L22.2656 12.2813Z" fill="#E2E0D7"/>
<path d="M12.7031 3.88125C12.7031 3.88125 14.7469 5.25937 15.15 6.28125C15.5531 7.30313 18.9 10.6313 18.9 10.6313C18.0826 9.54637 17.367 8.38833 16.7625 7.17188C16.4292 6.37883 15.9333 5.66452 15.3067 5.07509C14.6802 4.48567 13.9369 4.03425 13.125 3.75L12.7031 3.88125Z" fill="#C4C4C4"/>
<path d="M22.5752 12.7227C22.5752 12.7227 24.3939 14.1945 24.4502 15.0852L23.0252 16.1914C23.0252 16.1914 23.2408 13.5664 22.5752 12.7227Z" fill="#999893"/>
<path d="M15.7314 2.00586C15.7314 2.00586 18.1689 2.14648 19.3314 3.47773C20.4939 4.80898 23.2408 8.16523 24.2158 8.58711C25.1908 9.00898 25.4158 11.3996 24.2627 11.0809C23.1096 10.7621 20.2596 8.43711 20.2596 8.43711C19.4521 7.84302 18.8862 6.97751 18.6658 5.99961C18.0846 4.09648 15.7314 2.00586 15.7314 2.00586Z" fill="#EFEFEF"/>
<path d="M11.6345 1.87426C11.9158 1.81801 13.4158 1.48051 13.1908 2.23051C12.9658 2.98051 8.87828 3.74926 8.74703 3.74926C8.61578 3.74926 9.45953 2.32426 11.6345 1.87426Z" fill="#EFEFEF"/>
<path d="M20.7096 11.7281C20.7096 11.7281 22.4439 17.3531 20.8408 18.6562C19.2377 19.9594 26.3064 16.2562 26.5783 14.1937C26.6614 12.6455 26.4088 11.0977 25.8377 9.65625L20.7096 11.7281Z" fill="#E2E0D7"/>
<path d="M26.0437 10.0117C25.8839 10.1893 25.7744 10.4063 25.7266 10.6403C25.6788 10.8744 25.6944 11.117 25.7718 11.343C26.0437 12.1492 26.4843 14.4555 25.5937 15.0367C24.7031 15.618 20.4375 18.5898 20.4375 18.5898C20.4375 18.5898 19.8656 18.993 20.7937 18.993C21.5138 18.9944 22.2261 18.8449 22.8849 18.5543C23.5437 18.2636 24.1343 17.8382 24.6187 17.3055C25.6875 15.9742 26.7093 15.8336 26.8875 14.418C26.9054 12.9936 26.7416 11.5728 26.4 10.1898L26.0437 10.0117Z" fill="#999893"/>
<path d="M21.1688 14.3906C21.4522 15.2648 21.4782 16.2021 21.2438 17.0906C20.9732 17.6129 20.7805 18.1719 20.6719 18.75L23.4375 17.5969L21.1688 14.3906Z" fill="#999893"/>
<path opacity="0.39" d="M21.2812 18.9945C21.2812 18.9945 22.7062 23.9727 19.8655 25.7539C17.0249 27.5352 12.5249 27.5352 12.5249 27.5352C13.943 28.2282 15.4333 28.7627 16.9687 29.1289C18.6655 29.4008 21.553 30.0664 23.2874 27.0008C25.0218 23.9352 23.9999 19.4352 22.1249 18.8164L21.2812 18.9945Z" fill="#614D6D"/>
<path d="M8.43742 19.1723C8.35462 19.608 8.36705 20.0564 8.47385 20.4869C8.58065 20.9173 8.7793 21.3196 9.05617 21.666C9.99367 22.6035 8.92492 21.7504 8.92492 21.7504C8.92492 21.7504 6.88117 19.3973 6.92804 18.1504H7.08742L8.43742 19.1723Z" fill="#614D6D"/>
<path d="M15.6374 22.6871L15.2343 28.3777C15.2343 28.3777 11.4843 27.5152 10.2655 27.0934C8.99806 26.5842 7.79074 25.9365 6.66553 25.1621L8.4374 20.9902C8.4374 20.9902 12.4405 23.3059 15.6374 22.6871Z" fill="#DACCE2"/>
<path d="M8.74697 22.1055L12.347 23.3523L11.2313 26.5961L7.77197 25.0867L8.74697 22.1055Z" fill="#E8DFEF"/>
<path d="M14.4375 22.9023L14.9719 28.593L15.7219 28.7711L16.2187 22.1055L14.4375 22.9023Z" fill="#614D6D"/>
<path d="M10.2095 11.082L11.4563 11.3445" stroke="#425763" stroke-width="0.665625" stroke-miterlimit="10" stroke-linecap="round"/>
<path opacity="0.16" d="M22.3689 17.532L21.2158 14.2414C22.263 14.0113 23.2727 13.6358 24.2158 13.1258C24.7783 12.6102 26.0908 11.457 26.0908 11.457L26.4189 13.5289C26.4189 13.5289 26.8221 15.2164 25.8471 15.7508C24.8721 16.2852 22.3689 17.532 22.3689 17.532Z" fill="#999893"/>
<path d="M24.1311 24.4597C24.994 24.511 25.8311 24.7739 26.5684 25.2251C27.3058 25.6764 27.9208 26.3021 28.3592 27.0472C28.4627 27.212 28.5317 27.3961 28.5618 27.5884C28.5919 27.7807 28.5825 27.9771 28.5343 28.1657C28.486 28.3543 28.3999 28.5311 28.2812 28.6853C28.1624 28.8395 28.0135 28.9679 27.8436 29.0628C26.6338 29.7209 25.2786 30.0656 23.9014 30.0656C22.5242 30.0656 21.169 29.7209 19.9592 29.0628C19.6061 28.842 19.3534 28.4917 19.2553 28.087C19.1572 27.6822 19.2214 27.2552 19.4342 26.8972C19.9345 26.1168 20.6306 25.4812 21.453 25.0535C22.2754 24.6259 23.1955 24.4211 24.1217 24.4597H24.1311Z" fill="#425763"/>
<path d="M24.0938 25.031C24.8171 25.0651 25.5223 25.2686 26.1525 25.6253C26.7827 25.9819 27.3203 26.4816 27.7219 27.0841C27.8168 27.2153 27.8811 27.3661 27.9103 27.5254C27.9394 27.6847 27.9327 27.8484 27.8904 28.0048C27.8482 28.1611 27.7716 28.306 27.6662 28.429C27.5608 28.5519 27.4293 28.6497 27.2813 28.7154C26.2096 29.2165 25.0376 29.466 23.8547 29.4449C22.6718 29.4238 21.5094 29.1326 20.4563 28.5935C20.3152 28.52 20.1916 28.417 20.0939 28.2915C19.9963 28.1659 19.9268 28.0208 19.8903 27.8659C19.8538 27.7111 19.8512 27.5502 19.8825 27.3943C19.9139 27.2383 19.9785 27.091 20.0719 26.9622C20.5208 26.332 21.121 25.8248 21.8172 25.4873C22.5135 25.1498 23.2835 24.9929 24.0563 25.031H24.0938Z" fill="#A2B6BA"/>
<path d="M24.075 25.1152C24.6653 25.1403 25.2414 25.3046 25.7562 25.5946C26.271 25.8845 26.7101 26.2921 27.0375 26.784C27.1079 26.8943 27.1545 27.0181 27.1742 27.1476C27.1939 27.277 27.1863 27.4091 27.1519 27.5354C27.1174 27.6616 27.0569 27.7793 26.9743 27.8808C26.8916 27.9823 26.7886 28.0653 26.6718 28.1246C25.7987 28.5325 24.8438 28.7353 23.8802 28.7174C22.9166 28.6995 21.9699 28.4615 21.1125 28.0215C21.003 27.9572 20.9078 27.8713 20.8325 27.7691C20.7572 27.6669 20.7035 27.5504 20.6746 27.4268C20.6456 27.3032 20.6421 27.175 20.6642 27.05C20.6863 26.925 20.7336 26.8058 20.8031 26.6996C21.1679 26.1856 21.6563 25.7719 22.2232 25.4966C22.7902 25.2214 23.4174 25.0934 24.0468 25.1246L24.075 25.1152Z" fill="#87999B"/>
<path d="M23.7093 27.7594C27.0644 27.7594 29.7843 25.0395 29.7843 21.6844C29.7843 18.3292 27.0644 15.6094 23.7093 15.6094C20.3541 15.6094 17.6343 18.3292 17.6343 21.6844C17.6343 25.0395 20.3541 27.7594 23.7093 27.7594Z" fill="#425763"/>
<path d="M23.7096 26.8879C26.6919 26.8879 29.1096 24.4702 29.1096 21.4879C29.1096 18.5056 26.6919 16.0879 23.7096 16.0879C20.7272 16.0879 18.3096 18.5056 18.3096 21.4879C18.3096 24.4702 20.7272 26.8879 23.7096 26.8879Z" fill="#A2B6BA"/>
<path d="M23.925 26.0258C26.6795 26.0258 28.9125 23.7928 28.9125 21.0383C28.9125 18.2838 26.6795 16.0508 23.925 16.0508C21.1705 16.0508 18.9375 18.2838 18.9375 21.0383C18.9375 23.7928 21.1705 26.0258 23.925 26.0258Z" fill="#CBDEE4"/>
<path d="M26.6624 20.6148C27.2734 20.6148 27.7687 20.1196 27.7687 19.5086C27.7687 18.8976 27.2734 18.4023 26.6624 18.4023C26.0514 18.4023 25.5562 18.8976 25.5562 19.5086C25.5562 20.1196 26.0514 20.6148 26.6624 20.6148Z" fill="#425763"/>
<path d="M26.7096 20.1086C27.0772 20.1086 27.3752 19.8106 27.3752 19.443C27.3752 19.0754 27.0772 18.7773 26.7096 18.7773C26.342 18.7773 26.0439 19.0754 26.0439 19.443C26.0439 19.8106 26.342 20.1086 26.7096 20.1086Z" fill="#4ED154"/>
<path d="M22.7064 19.0781C22.7937 18.5277 22.9925 18.0009 23.2907 17.5302C23.589 17.0594 23.9804 16.6546 24.4408 16.3406C24.6377 16.2281 24.6002 16.1062 24.3846 16.0781H24.0939C23.8596 16.0781 22.2189 16.1531 21.6377 19.1625L22.7064 19.0781Z" fill="#A2B6BA"/>
<path d="M25.4721 22.143C25.4721 20.2479 24.0366 18.7117 22.2658 18.7117C20.4951 18.7117 19.0596 20.2479 19.0596 22.143C19.0596 24.038 20.4951 25.5742 22.2658 25.5742C24.0366 25.5742 25.4721 24.038 25.4721 22.143Z" fill="#425763"/>
<path d="M24.8696 22.0937C24.8749 20.6492 23.7837 19.4741 22.4323 19.4692C21.081 19.4642 19.9812 20.6312 19.9759 22.0758C19.9706 23.5204 21.0618 24.6954 22.4132 24.7004C23.7645 24.7053 24.8643 23.5383 24.8696 22.0937Z" fill="#3587C4"/>
<path d="M24.4663 21.9884C24.4707 20.7872 23.5635 19.81 22.44 19.8059C21.3164 19.8018 20.402 20.7722 20.3976 21.9735C20.3932 23.1747 21.3005 24.1518 22.424 24.1559C23.5476 24.16 24.4619 23.1896 24.4663 21.9884Z" fill="#4DA3EC"/>
<path d="M23.5781 20.9853C23.5792 20.6694 23.3115 20.4124 22.9802 20.4112C22.6488 20.41 22.3792 20.665 22.3781 20.9809C22.3769 21.2967 22.6446 21.5537 22.976 21.5549C23.3073 21.5561 23.5769 21.3011 23.5781 20.9853Z" fill="white"/>
<path d="M23.85 17.5119C24.0925 17.2446 24.3559 16.9969 24.6375 16.7713C24.6893 16.7294 24.7505 16.7008 24.8158 16.6877C24.8811 16.6746 24.9486 16.6776 25.0125 16.6963C25.549 16.854 26.0627 17.0809 26.5406 17.3713C26.6193 17.421 26.6793 17.4952 26.7113 17.5825C26.7434 17.6698 26.7457 17.7653 26.7179 17.854C26.6901 17.9428 26.6337 18.0199 26.5576 18.0733C26.4815 18.1267 26.3898 18.1535 26.2969 18.1494C25.5998 18.1052 24.9 18.124 24.2063 18.2057C24.123 18.2126 24.0396 18.1946 23.9666 18.1541C23.8936 18.1135 23.8343 18.0522 23.7961 17.9779C23.758 17.9036 23.7427 17.8197 23.7523 17.7367C23.7619 17.6538 23.7959 17.5755 23.85 17.5119Z" fill="#E1F0F4"/>
</g>
<defs>
<clipPath id="clip0_47_27595">
<rect width="30" height="30" fill="white"/>
</clipPath>
</defs>
</svg>
