<svg width="30" height="30" viewBox="0 0 30 30" fill="none" xmlns="http://www.w3.org/2000/svg">
<g clip-path="url(#clip0_47_24467)">
<path d="M17.1561 23.8125C17.1561 23.8125 16.6873 25.9687 17.9998 27.1875C19.2186 28.4062 22.4061 31.7812 24.6561 27.8438L25.8748 24.4688C25.8748 24.4688 25.9686 23.0625 24.7498 22.7812C23.5311 22.5 22.1248 21.9375 22.1248 21.9375L20.3436 21.6562L19.4061 21.9375L17.1561 23.8125Z" fill="#9A4C18"/>
<path d="M25.5 25.8759L23.1563 24.2822C22.5938 23.9072 21.8437 24.0009 21.375 24.4697L21.0938 24.7509C20.625 25.2197 20.7187 26.0634 21.375 26.4384L24 27.7509C24.5625 28.1259 25.4063 27.9384 25.7813 27.4697C26.1563 26.9072 25.9688 26.2509 25.5 25.8759Z" fill="#4A4A4A"/>
<path d="M18 3.65625L18.375 1.59375L17.8125 0.65625L20.4375 1.6875L22.7812 6.09375L17.625 5.71875L18 3.65625ZM7.6875 8.4375C7.6875 8.4375 6.5625 10.6875 7.6875 13.7812L8.90625 10.9688L7.78125 8.25L7.6875 8.4375ZM9.84375 4.40625C9.84375 4.40625 9.5625 3.1875 8.25 2.15625C8.25 2.15625 10.125 1.78125 12.1875 2.4375L12.4688 3.28125L11.625 5.15625L9.84375 4.40625Z" fill="#9A4C18"/>
<path d="M19.5628 22.1164C24.5318 20.6609 27.4037 15.5334 25.9774 10.6638C24.551 5.79418 19.3666 3.02643 14.3976 4.48187C9.42857 5.93732 6.55666 11.0648 7.983 15.9344C9.40933 20.8041 14.5938 23.5718 19.5628 22.1164Z" fill="#9A4C18"/>
<path d="M18.9173 21.4905C23.4888 20.1515 26.0739 15.2392 24.6912 10.5187C23.3085 5.79811 18.4817 3.05682 13.9102 4.39582C9.33874 5.73483 6.75369 10.6471 8.13636 15.3676C9.51903 20.0882 14.3458 22.8295 18.9173 21.4905Z" fill="#E5895B"/>
<path d="M18.278 20.5572C22.5514 19.3055 24.9655 14.7058 23.6702 10.2834C22.3749 5.86093 17.8605 3.29054 13.5872 4.54222C9.31384 5.79391 6.89969 10.3937 8.19504 14.8161C9.49038 19.2385 14.0047 21.8089 18.278 20.5572Z" fill="#FAD395"/>
<path d="M20.1562 8.625C20.1562 8.625 22.3125 8.25 22.9687 7.78125C23.5312 7.3125 24.4687 7.125 24.375 6.46875C24.2812 5.8125 22.5 2.4375 17.9062 2.25L20.9062 4.875L20.1562 8.625Z" fill="#9A4C18"/>
<path d="M8.25 9.84375C8.25 9.84375 7.21875 8.8125 7.5 7.21875C7.875 5.71875 6.5625 3.75 6.5625 3.75L10.5938 4.03125C10.5938 4.03125 12.9375 4.3125 12.9375 5.4375C12.9375 6.5625 12.375 8.34375 12.375 8.53125C12.2812 8.71875 11.8125 9.84375 11.8125 9.84375H8.25Z" fill="#9A4C18"/>
<path d="M8.8125 10.0312C8.8125 10.0312 8.15625 8.34375 8.625 7.6875C9.09375 7.03125 7.96875 4.78125 7.96875 4.78125L12 5.0625C12 5.0625 14.3438 5.34375 14.3438 6.46875C14.3438 7.59375 13.7812 9.375 13.7812 9.5625L13.3125 10.4063L8.8125 10.0312Z" fill="#DB7D1F"/>
<path d="M18.75 8.625C18.75 8.625 20.9062 8.25 21.5625 7.78125C22.125 7.3125 23.0625 7.125 22.9687 6.46875C22.875 5.8125 21.0938 2.4375 16.5 2.25L19.5 4.875L18.75 8.625Z" fill="#DB7D1F"/>
<path d="M11.0625 9.65667C11.0625 9.65667 9.9375 9.65667 10.125 7.59417C10.3125 5.62542 11.8125 2.62542 11.8125 2.62542L8.53125 0.28167C8.53125 0.28167 12.375 -1.12458 16.125 1.21917C16.125 1.21917 20.1562 2.53167 20.5312 3.84417C20.9062 5.15667 22.875 7.50042 21.6562 8.43792C20.4375 9.37542 11.625 10.0317 11.0625 9.65667Z" fill="#9A4C18"/>
<path d="M11.7187 9.8421C11.7187 9.8421 11.1563 8.43585 11.3438 6.93585C11.4375 5.43585 12.75 2.81085 12.75 2.81085L11.0625 0.74835C11.0625 0.74835 13.0312 0.18585 15.9375 1.9671C15.9375 1.9671 19.0312 2.99835 19.3125 4.0296C19.5938 5.06085 19.9687 8.3421 19.0312 9.0921C18.0937 9.8421 12.0937 10.1234 11.7187 9.8421Z" fill="#F49937"/>
<path d="M13.5 8.8125L13.9687 5.25L13.0312 1.59375L15.9375 4.875L16.125 8.90625C16.125 8.8125 14.25 9.375 13.5 8.8125Z" fill="#FDE049"/>
<path d="M22.0312 4.5L22.2188 7.03125L20.1562 6.375L21.375 7.96875L24 6.9375L22.0312 4.5Z" fill="#9A4C18"/>
<path d="M18.8438 7.21875L20.625 7.5L22.125 6L22.2188 7.5L21.2812 8.15625L18.4688 9.28125L18.8438 7.21875ZM10.2187 6.84375L10.6875 8.625L12.375 9.9375H12L9.9375 9.75L9 8.34375L10.2187 6.84375Z" fill="#DB7D1F"/>
<path d="M17.0625 9.84375L18 6.28125L16.875 3.09375L15.6562 1.875C15.6562 1.875 17.9062 2.625 18.375 3C18.8437 3.375 19.6875 4.40625 19.6875 4.78125L19.5 8.625L18.9375 9.1875C19.0312 9.1875 17.7187 9.84375 17.0625 9.84375Z" fill="#DB7D1F"/>
<path d="M10.7813 7.03125L11.25 6.84375C11.25 6.84375 11.0625 8.53125 11.7188 9.5625C11.7188 9.5625 10.3125 9.375 10.2188 7.3125L10.7813 7.03125Z" fill="#9A4C18"/>
<path d="M20.0625 7.78125C20.0625 7.78125 21.8438 6.65625 21.2813 5.15625C21.2813 5.15625 22.0312 6.1875 21.9375 6.9375C21.8438 7.6875 20.5312 7.78125 20.5312 7.78125H20.0625Z" fill="#DB7D1F"/>
<path d="M12 10.4063L13.4063 11.25L18 9L17.7188 7.3125L16.3125 9.5625L12.9375 9.75L11.625 9.28125L12 10.4063Z" fill="#F49937"/>
<path d="M18.7501 9.1875C18.7501 9.1875 19.4063 9.65625 19.7813 10.0312L19.1251 11.3438C19.1251 11.3438 21.2813 10.7812 21.7501 11.625C22.2188 12.4687 22.1251 13.7812 22.1251 13.7812L25.5938 12.4688C25.5938 12.4688 24.4688 8.53125 22.8751 7.21875L21.4688 6.5625L20.3438 7.875L18.7501 9.1875ZM9.65634 9.75L7.78134 13.2188C7.78134 13.2188 7.31259 11.5312 7.96884 9.28125L9.65634 9.75Z" fill="#DB7D1F"/>
<path d="M25.5937 13.4063L22.125 13.7813L21.9375 13.3125L25.6875 11.625L25.5937 13.4063Z" fill="#9A4C18"/>
<path d="M22.875 13.1239L22.0312 11.1552C22.0312 11.1552 20.4375 10.9677 19.4063 11.0614L18.8438 11.2489L20.4375 11.5302L22.0312 13.6864L22.875 13.1239Z" fill="#9A4C18"/>
<path d="M19.9688 11.1562L20.3438 9.75L18.4688 8.71875L16.6875 10.125L18.9375 9.46875V11.25L19.9688 11.1562Z" fill="#9A4C18"/>
<path d="M18.2812 9.28125L13.4062 11.8125L11.8125 10.125L13.5937 10.875L18.375 8.71875L18.2812 9.28125Z" fill="#9A4C18"/>
<path d="M13.5 11.7187L10.875 11.8125L13.0312 10.9687L13.5 11.7187ZM12.5625 10.6875L9.84375 10.875L7.6875 13.3125L9.09375 9.9375L11.8125 10.0312L12.375 10.5937" fill="#9A4C18"/>
<path d="M18.375 8.90625L22.2188 7.875L23.5312 9.46875L21.9375 11.8125L21.1875 11.625L18.375 8.90625ZM9 11.1562L12 11.625L13.2188 10.9688L12.5625 10.5H10.2187L9 11.1562Z" fill="#9A4C18"/>
<path d="M18.4688 9.75L21.8437 8.25L22.7812 9.46875L20.3438 12L18.375 11.7187L18.4688 9.75Z" fill="#FAD395"/>
<path d="M14.7188 20.0625C14.7188 20.0625 19.5938 19.4062 21.6563 17.0625C21.6563 17.0625 21.8438 18.6562 21 19.7812C21 19.6875 18 20.625 14.7188 20.0625Z" fill="white" stroke="#9A4C18" stroke-width="0.389812" stroke-miterlimit="10"/>
<path d="M22.4998 11.717C22.4998 11.717 17.9998 11.5295 14.8123 12.3732C14.8123 12.3732 14.4373 12.7482 13.9686 12.842C13.4998 12.842 12.9373 12.467 12.9373 12.467C9.46859 11.9045 5.34359 12.5607 5.34359 12.5607C5.34359 12.5607 4.87484 12.5607 5.06234 13.217C5.24984 13.967 5.81234 13.8732 5.81234 13.8732C5.81234 13.8732 6.37484 16.6857 7.49984 17.342C8.71859 17.9982 11.5311 18.3732 12.5623 18.3732C13.5936 18.3732 13.9686 17.9982 14.0623 17.2482C14.1561 16.592 14.0623 15.467 14.0623 14.8107C14.0623 14.4357 14.1561 14.342 14.3436 14.342H14.5311C14.6248 14.342 14.9061 14.4357 14.9998 14.8107C15.2811 15.467 15.6561 16.4982 16.1248 17.2482C16.5936 17.9045 17.1561 18.2795 18.1873 18.1857C19.2186 18.092 21.8436 17.5295 22.7811 16.7795C23.4373 15.9357 22.5936 13.1232 22.5936 13.1232C22.5936 13.1232 23.1561 13.1232 22.9686 12.3732C22.8748 11.6232 22.4998 11.717 22.4998 11.717Z" fill="#4A4A4A"/>
<path d="M15.1875 12.6549C15.1875 12.6549 19.7812 11.7174 22.5937 12.0924L22.6875 12.3737C22.6875 12.4674 17.7188 12.3737 15.1875 12.6549Z" fill="#6F6F6F"/>
<path d="M21.6564 12.9382C20.6252 12.8444 17.9064 12.7507 15.3752 13.5944C15.1877 13.6882 15.0939 13.8757 15.1877 14.1569C15.3752 14.8132 15.8439 15.9382 16.5002 16.9694C16.5939 17.1569 16.7814 17.3444 16.9689 17.4382C17.6252 16.5944 19.7814 14.1569 21.8439 13.0319C21.7502 12.9382 21.6564 12.9382 21.6564 12.9382Z" fill="white"/>
<path d="M21.75 12.9375C19.6875 14.1562 17.5312 16.5 16.875 17.3438C17.1562 17.5312 17.3437 17.625 17.625 17.625C18.75 17.5312 21 17.25 22.125 16.2187C22.2188 16.125 22.2188 16.125 22.2188 16.0313C22.3125 15.75 22.4063 14.9062 22.125 13.3125C22.0313 13.125 21.9375 13.0312 21.75 12.9375Z" fill="#CCCCCC"/>
<path d="M6.46875 13.5922C6.28125 13.5922 6.1875 13.7797 6.1875 14.0609C6.5625 15.6547 7.125 16.4047 7.3125 16.6859L7.5 16.8734C7.78125 17.0609 7.96875 17.1547 8.25 17.2484C9.09375 16.3109 10.7813 14.7172 12.4688 13.6859C9.75 13.1234 7.3125 13.4984 6.46875 13.5922Z" fill="white"/>
<path d="M12.75 13.6875C12.6562 13.6875 12.5625 13.6875 12.4688 13.5938C10.7812 14.625 9.1875 16.2187 8.25 17.1562C9.65625 17.7187 11.4375 17.8125 12.375 17.8125C12.8437 17.8125 13.125 17.5313 13.2188 17.0625C13.3125 16.0313 13.2188 14.8125 13.125 14.25C13.2188 13.9687 13.0312 13.6875 12.75 13.6875Z" fill="#CCCCCC"/>
<path d="M17.8127 25.875C17.8127 25.875 17.7189 26.7188 19.7814 27.75L19.5002 25.7812L17.8127 25.875Z" fill="#9A4C18"/>
<path d="M20.0627 23.4375C20.0627 23.4375 18.9377 25.875 19.219 27C19.4065 27.6562 20.719 28.5 21.6565 28.9687C22.4065 29.3437 23.1565 28.9687 23.719 28.4062C24.1877 27.9375 24.3752 26.9062 24.469 26.625L22.7815 24.6562L20.0627 23.4375Z" fill="#9A4C18"/>
<path d="M20.3435 23.25C20.3435 23.25 19.3123 25.4062 19.5935 26.5312C19.781 27.0938 20.8123 27.8438 21.656 28.2188C22.406 28.5938 23.3435 28.5 23.906 27.8438C24.3748 27.375 24.4685 26.7188 24.5623 26.4375L22.781 24.2813L20.3435 23.25Z" fill="#E5895B"/>
<path d="M20.5311 23.625C20.5311 23.625 19.5937 25.5 19.8749 26.4375C20.0624 26.9062 20.8124 27.375 21.4686 27.8438C22.2186 28.2188 23.1561 28.125 23.8124 27.4687C24.0936 27.1875 24.3749 26.8125 24.4686 26.625L22.6874 24.5625L20.5311 23.625Z" fill="#FAD395"/>
<path d="M19.5938 26.0614C19.5001 26.2489 18.9376 26.3426 18.4688 26.4364C18.1876 26.4364 18.0001 26.4364 17.9063 26.2489L17.2501 23.8114C17.1563 23.6239 17.1563 23.4364 17.3438 23.3426C17.6251 22.9676 17.7188 22.6864 18.1876 22.5926C18.6563 22.4989 19.0313 22.7801 19.1251 23.0614C19.4063 24.0926 19.6876 25.8739 19.5938 26.0614Z" fill="#9A4C18"/>
<path d="M19.4998 25.9697C19.4998 26.1572 18.9373 26.2509 18.5623 26.2509C18.3748 26.2509 18.1873 26.2509 18.0935 26.0634L17.7185 23.9072C17.6248 23.8135 17.7185 23.626 17.8123 23.4385C17.9998 23.1572 17.906 22.9697 18.3748 22.8759C18.7498 22.7822 19.1248 22.9697 19.2185 23.2509L19.4998 25.9697Z" fill="#E5895B"/>
<path d="M19.4063 25.9688C19.4063 26.0625 18.9375 26.1563 18.5625 26.25C18.375 26.25 18.1875 26.25 18.1875 26.1562L17.9062 24.375V24.0938C18.0938 23.9063 18 24 18.2812 23.9063C18.5625 23.8125 18.8438 23.9062 18.9375 24.1875C19.2188 24.6562 19.4063 25.7813 19.4063 25.9688Z" fill="#FAD395"/>
<path d="M18.0937 25.875L18 26.0625C18 26.0625 18.4687 26.8125 19.0312 27.0937L20.5312 27.5625L19.6875 26.5312L19.5937 25.7812L19.2187 26.1562C19.125 26.25 18.4688 26.25 18.4688 26.25H18.2812C18.1875 26.1562 18.0937 25.875 18.0937 25.875Z" fill="#E5895B"/>
<path d="M19.4063 25.6875L19.6875 25.7813L19.5937 26.0625H19.5C19.4062 25.9687 19.4063 25.6875 19.4063 25.6875Z" fill="#E5895B"/>
<path d="M18.6562 25.7812L18.2812 26.1562C18.2812 26.1562 18.5625 26.7188 19.4063 26.9063C20.25 27.0938 20.8125 27.375 20.8125 27.375L20.1562 26.1562L19.875 26.0625C19.875 26.0625 19.875 26.25 19.6875 26.25C19.5 26.25 19.3125 25.7812 19.3125 25.7812H18.6562Z" fill="#FAD395"/>
<path d="M18 25.3125C18 25.3125 18.0937 26.25 19.125 26.9062H18.9375C18.9375 26.9062 18 26.3437 18 25.4062V25.3125ZM19.0312 25.0312C19.0312 25.0312 19.125 26.25 20.1562 26.625L20.5312 26.3437C20.5312 26.3437 20.8125 27 21 27.1875C21.2812 27.375 22.125 27.5625 22.2188 27.5625C22.3125 27.5625 22.5 27.4687 22.5 27.4687C22.5 27.4687 23.0625 28.125 23.1562 28.125C23.25 28.125 23.7187 27.8438 23.7187 27.8438L22.5 27.0937L22.3125 27.1875L21.6562 26.9062L21 26.5312L20.7187 25.875L20.1562 25.7812L19.0312 25.0312Z" fill="#E5895B"/>
<path d="M22.5 27.1866C22.3125 27.3741 21.5625 26.9053 21.0937 26.6241C20.8125 26.4366 20.625 26.1553 20.7187 25.8741L21.4687 22.5928C21.4687 22.4053 21.6562 22.3116 21.8437 22.3116C22.2187 22.2178 22.7812 22.4991 23.1562 22.6866C23.5312 22.8741 23.7187 23.3428 23.7187 23.6241L22.5 27.1866Z" fill="#9A4C18"/>
<path d="M15.375 21.375L17.4375 22.6875L16.5 23.9063L14.5312 22.5938L15.375 21.375Z" fill="#4A4A4A"/>
<path d="M22.4063 26.814C22.2188 27.0015 21.6563 26.6265 21.1875 26.2515C20.9063 26.064 20.8125 25.7827 20.9062 25.5952L21.5625 22.7827C21.5625 22.5952 21.6562 22.5015 21.8437 22.5015C22.2187 22.4077 22.6875 22.5952 23.0625 22.7827C23.3438 22.9702 23.625 23.3452 23.5313 23.6265C23.3438 24.564 22.5938 26.6265 22.4063 26.814Z" fill="#E5895B"/>
<path d="M15.75 21L17.7187 22.2188L16.7812 23.4375L14.8125 22.125L15.75 21Z" fill="#838889"/>
<path d="M22.3125 26.7202C22.2187 26.814 21.6563 26.5327 21.2813 26.2515C21.0938 26.064 21 25.8765 21 25.689L21.4687 23.439C21.4687 23.3452 21.5625 23.2515 21.6563 23.2515C21.9375 23.1577 22.3125 23.3452 22.6875 23.5327C22.9688 23.7202 23.1563 24.0015 23.1563 24.189C22.9688 24.939 22.5 26.5327 22.3125 26.7202Z" fill="#FAD395"/>
<path d="M24.1875 27.8428C24 28.0303 23.25 27.5616 22.7812 27.2803C22.5 27.0928 22.3125 26.8116 22.4062 26.5303L23.1562 23.2491C23.1562 23.0616 23.3437 22.9678 23.5312 22.9678C23.9062 22.8741 24.4687 23.1553 24.8437 23.3428C25.2187 23.5303 25.4062 23.9991 25.4062 24.2803L24.1875 27.8428Z" fill="#9A4C18"/>
<path d="M24.0938 27.564C23.9063 27.7515 23.3437 27.3765 22.875 27.0015C22.5937 26.814 22.5 26.5327 22.5938 26.3452L23.25 23.5327C23.25 23.3452 23.3438 23.2515 23.5313 23.2515C23.9063 23.1577 24.375 23.3452 24.75 23.5327C25.0312 23.7202 25.3125 24.0952 25.2187 24.3765C25.0312 25.2202 24.2813 27.2827 24.0938 27.564Z" fill="#E5895B"/>
<path d="M24 27.4702C23.9062 27.564 23.3437 27.2827 22.9687 27.0015C22.7812 26.814 22.6875 26.6265 22.6875 26.439L23.1562 24.189C23.1562 24.0952 23.25 24.0015 23.3437 24.0015C23.625 23.9077 24 24.0952 24.375 24.2827C24.6562 24.4702 24.8437 24.7515 24.8437 24.939L24 27.4702Z" fill="#FAD395"/>
<path d="M20.8125 23.5322L18.4688 21.9384C17.9063 21.5634 17.1562 21.6572 16.6875 22.1259L16.4063 22.4072C15.9375 22.8759 16.0312 23.7197 16.6875 24.0947L19.3125 25.4072C19.875 25.7822 20.7188 25.5947 21.0938 25.1259C21.4688 24.5634 21.375 23.9072 20.8125 23.5322Z" fill="#4A4A4A"/>
<path d="M9.75 25.125C13.685 25.125 16.875 21.935 16.875 18C16.875 14.065 13.685 10.875 9.75 10.875C5.81497 10.875 2.625 14.065 2.625 18C2.625 21.935 5.81497 25.125 9.75 25.125Z" fill="#4A4A4A"/>
<path d="M9.75 24.9375C13.4779 24.9375 16.5 21.9154 16.5 18.1875C16.5 14.4596 13.4779 11.4375 9.75 11.4375C6.02208 11.4375 3 14.4596 3 18.1875C3 21.9154 6.02208 24.9375 9.75 24.9375Z" fill="#D0DBDD"/>
<path d="M9.5625 25.0313C13.1869 25.0313 16.125 22.0931 16.125 18.4688C16.125 14.8444 13.1869 11.9062 9.5625 11.9062C5.93813 11.9062 3 14.8444 3 18.4688C3 22.0931 5.93813 25.0313 9.5625 25.0313Z" fill="#4A4A4A"/>
<path d="M9.5625 24.2812C12.7727 24.2812 15.375 21.6789 15.375 18.4688C15.375 15.2586 12.7727 12.6562 9.5625 12.6562C6.35234 12.6562 3.75 15.2586 3.75 18.4688C3.75 21.6789 6.35234 24.2812 9.5625 24.2812Z" fill="#BCECF7"/>
<path d="M9.65625 23.4375C12.4522 23.4375 14.7187 21.1709 14.7187 18.375C14.7187 15.5791 12.4522 13.3125 9.65625 13.3125C6.86031 13.3125 4.59375 15.5791 4.59375 18.375C4.59375 21.1709 6.86031 23.4375 9.65625 23.4375Z" fill="white"/>
<path d="M10.4063 23.4375C12.5809 23.4375 14.3437 21.6746 14.3437 19.5C14.3437 17.3254 12.5809 15.5625 10.4063 15.5625C8.23163 15.5625 6.46875 17.3254 6.46875 19.5C6.46875 21.6746 8.23163 23.4375 10.4063 23.4375Z" fill="#BCECF7"/>
<path d="M10.5 22.6875C12.2086 22.6875 13.5938 21.3024 13.5938 19.5937C13.5938 17.8851 12.2086 16.5 10.5 16.5C8.79137 16.5 7.40625 17.8851 7.40625 19.5937C7.40625 21.3024 8.79137 22.6875 10.5 22.6875Z" fill="white"/>
<path d="M20.625 25.9678C20.4375 26.1553 19.7812 25.6866 19.3125 25.4053C19.0312 25.2178 18.8437 24.9366 18.9375 24.6553L19.5 22.1241C19.5 21.9366 19.5937 21.8428 19.7812 21.8428C20.1562 21.7491 20.7187 22.0303 21.0937 22.2178C21.4687 22.4053 21.6562 22.7803 21.6562 23.0616C21.4687 24.0928 20.8125 25.7803 20.625 25.9678Z" fill="#9A4C18"/>
<path d="M20.625 25.314C20.5313 25.5015 19.9688 25.1265 19.5938 24.8452C19.4063 24.6577 19.2188 24.4702 19.3125 24.2827L19.6875 22.314C19.6875 22.2202 19.7813 22.1265 19.9688 22.0327C20.25 21.939 20.7188 22.1265 21 22.314C21.2813 22.5015 21.4688 22.7827 21.375 22.9702C21.1875 23.814 20.8125 25.1265 20.625 25.314Z" fill="#E5895B"/>
<path d="M20.625 25.4077C20.5313 25.5952 19.9688 25.2202 19.5938 24.939C19.4063 24.7515 19.2188 24.564 19.3125 24.3765L19.6875 22.7827C19.6875 22.689 19.7813 22.5952 19.9688 22.5015C20.25 22.4077 20.7188 22.5952 21 22.7827C21.2813 22.9702 21.4688 23.2515 21.375 23.439C21.1875 24.2827 20.8125 25.2202 20.625 25.4077Z" fill="#FAD395"/>
<g opacity="0.5">
<mask id="mask0_47_24467" style="mask-type:luminance" maskUnits="userSpaceOnUse" x="3" y="12" width="13" height="13">
<path d="M9.5625 24.8438C13.0833 24.8438 15.9375 21.9896 15.9375 18.4688C15.9375 14.9479 13.0833 12.0938 9.5625 12.0938C6.04168 12.0938 3.1875 14.9479 3.1875 18.4688C3.1875 21.9896 6.04168 24.8438 9.5625 24.8438Z" fill="white"/>
</mask>
<g mask="url(#mask0_47_24467)">
<path d="M20.625 -3.1875L21.1875 -6.46875L20.25 -8.0625L24.5625 -6.28125L28.3125 0.75L19.9687 0.1875L20.625 -3.1875ZM3.8437 4.59375C3.8437 4.59375 2.06245 8.25 3.93745 13.2188L5.90621 8.625L4.12495 4.21875L3.8437 4.59375Z" fill="#9A4C18"/>
<path d="M23.003 26.5945C31.0031 24.2512 35.6243 15.9871 33.3247 8.1361C31.0251 0.285064 22.6755 -4.17987 14.6754 -1.8366C6.67531 0.50666 2.05414 8.77077 4.35373 16.6218C6.65333 24.4728 15.0029 28.9378 23.003 26.5945Z" fill="#9A4C18"/>
<path d="M22.0572 25.6793C29.4611 23.5106 33.6461 15.5492 31.4047 7.89697C29.1633 0.244695 21.3443 -4.20069 13.9405 -2.03208C6.53665 0.136525 2.35167 8.09793 4.59305 15.7502C6.83443 23.4025 14.6534 27.8479 22.0572 25.6793Z" fill="#E5895B"/>
<path d="M20.9455 24.2146C27.9021 22.177 31.8426 14.7246 29.7467 7.56926C27.6509 0.413888 20.3124 -3.73487 13.3558 -1.69725C6.39921 0.34037 2.45878 7.79276 4.55462 14.9481C6.65045 22.1035 13.9889 26.2523 20.9455 24.2146Z" fill="#FAD395"/>
<path d="M21.844 5.71875C21.844 5.71875 22.8753 6.46875 23.4378 7.03125L22.4065 9.1875C22.4065 9.1875 25.8753 8.25 26.719 9.65625C27.5628 11.0625 27.3753 13.125 27.3753 13.125L33.0003 10.9688C33.0003 10.9688 31.219 4.59375 28.594 2.4375L26.2503 1.59375L24.3753 3.75L21.844 5.71875ZM7.03152 6.75L3.93777 12.2813C3.93777 12.2813 3.18777 9.5625 4.31277 5.90625L7.03152 6.75Z" fill="#DB7D1F"/>
<path d="M13.3125 9.84375L9.09375 10.0312L12.4688 8.625L13.3125 9.84375ZM11.7187 8.25L7.3125 8.53125L3.84375 12.5625L6.09375 7.03125L10.5938 7.21875L11.5312 8.15625" fill="#9A4C18"/>
<path d="M15.2812 23.3437C15.2812 23.3437 23.1563 22.2188 26.4375 18.4688C26.4375 18.4688 26.7188 21.0937 25.4063 22.7812C25.4063 22.7812 20.625 24.2812 15.2812 23.3437Z" fill="white" stroke="#9A4C18" stroke-width="0.630937" stroke-miterlimit="10"/>
<path d="M27.7501 9.9399C27.7501 9.9399 20.5314 9.5649 15.3751 10.9711C15.3751 10.9711 14.8126 11.5336 13.9689 11.7211C13.1251 11.6274 12.2814 11.1586 12.2814 11.1586C6.65637 10.2211 0.00011766 11.1586 0.00011766 11.1586C0.00011766 11.1586 -0.749882 11.1586 -0.468632 12.1899C-0.187382 13.3149 0.656368 13.3149 0.656368 13.3149C0.656368 13.3149 1.50012 17.9087 3.37512 18.9399C5.25012 19.9712 9.84387 20.5336 11.5314 20.6274C13.2189 20.6274 13.8751 20.0649 14.0626 18.8461C14.2501 17.7211 14.0626 15.9399 14.0626 14.9086C14.0626 14.3461 14.2501 14.1586 14.5314 14.0649H14.7189C14.9064 14.0649 15.2814 14.2524 15.5626 14.8149C16.0314 15.8461 16.6876 17.6274 17.3439 18.6586C18.0939 19.7836 19.0314 20.3461 20.6251 20.1586C22.2189 19.9711 26.5314 19.0336 28.0314 17.8149C29.4376 16.5961 28.1251 12.0024 28.1251 12.0024C28.1251 12.0024 29.0626 12.0024 28.7814 10.7836C28.5001 9.7524 27.7501 9.9399 27.7501 9.9399Z" fill="#4A4A4A"/>
<path d="M26.4376 11.8128C24.8439 11.7191 20.3439 11.5316 16.3126 12.8441C15.9376 12.9378 15.8439 13.3128 15.9376 13.6878C16.3126 14.7191 16.9689 16.5941 18.0001 18.2816C18.1876 18.5628 18.4689 18.8441 18.7501 19.0316C19.8751 17.7191 23.2501 13.7816 26.7189 11.8128H26.4376Z" fill="white"/>
<path d="M1.96872 12.9398C1.68747 13.0335 1.49997 13.3148 1.59372 13.6898C2.24997 16.221 3.09372 17.5335 3.37497 18.0023L3.65622 18.2835C4.03122 18.471 4.49997 18.7523 4.96872 18.846C6.37497 17.346 9.09372 14.721 11.7187 13.0335C7.31247 12.1898 3.37497 12.7523 1.96872 12.9398Z" fill="white"/>
<path d="M12.0937 13.0312C11.9062 13.0312 11.8125 12.9375 11.625 12.9375C8.90625 14.625 6.28125 17.25 4.875 18.75C7.21875 19.5938 10.0312 19.7812 11.625 19.7812C12.375 19.7812 12.9375 19.2188 13.0312 18.4688C13.2187 16.7813 13.0312 14.8125 12.9375 13.875C12.8438 13.5 12.5625 13.125 12.0937 13.0312Z" fill="#CCCCCC"/>
</g>
</g>
</g>
<defs>
<clipPath id="clip0_47_24467">
<rect width="30" height="30" fill="white"/>
</clipPath>
</defs>
</svg>
