<svg width="20" height="20" viewBox="0 0 20 20" fill="none" xmlns="http://www.w3.org/2000/svg">
<path fill-rule="evenodd" clip-rule="evenodd" d="M13.3333 4.16667H14.6548L11.9107 6.91077C11.5853 7.23621 11.5853 7.76384 11.9107 8.08928C12.2362 8.41475 12.7638 8.41475 13.0892 8.08928L15.8333 5.34522V6.66667C15.8333 7.1269 16.2064 7.5 16.6667 7.5C17.1269 7.5 17.5 7.1269 17.5 6.66667V3.33333C17.5 3.11232 17.4122 2.90036 17.2559 2.74408C17.0997 2.5878 16.8877 2.5 16.6667 2.5H13.3333C12.8731 2.5 12.5 2.8731 12.5 3.33333C12.5 3.79357 12.8731 4.16667 13.3333 4.16667ZM4.16667 6.66668V5.34517L6.91077 8.08927C7.23621 8.41467 7.76384 8.41467 8.08928 8.08927C8.41475 7.76383 8.41475 7.23619 8.08928 6.91076L5.3452 4.16667L6.66667 4.16668C7.1269 4.16668 7.5 3.79358 7.5 3.33335C7.5 2.87311 7.1269 2.50002 6.66667 2.50002H3.33333C3.11232 2.50002 2.90036 2.58781 2.74408 2.74409C2.5878 2.90037 2.5 3.11233 2.5 3.33335V6.66668C2.5 7.12692 2.8731 7.50001 3.33333 7.50001C3.79357 7.50001 4.16667 7.12692 4.16667 6.66668ZM6.66668 15.8333H5.34517L8.08927 13.0892C8.41467 12.7638 8.41467 12.2362 8.08927 11.9107C7.76383 11.5853 7.23619 11.5853 6.91076 11.9107L4.16667 14.6548V13.3333C4.16667 12.8731 3.79358 12.5 3.33334 12.5C2.87311 12.5 2.50002 12.8731 2.50002 13.3333V16.6667C2.50002 16.8877 2.58781 17.0997 2.74409 17.2559C2.90037 17.4122 3.11233 17.5 3.33335 17.5H6.66668C7.12692 17.5 7.50001 17.1269 7.50001 16.6667C7.50001 16.2064 7.12692 15.8333 6.66668 15.8333ZM15.8333 14.6548V13.3333C15.8333 12.8731 16.2064 12.5 16.6667 12.5C17.1269 12.5 17.5 12.8731 17.5 13.3333V16.6667C17.5 16.8877 17.4122 17.0997 17.2559 17.2559C17.0997 17.4122 16.8877 17.5 16.6667 17.5H13.3333C12.8731 17.5 12.5 17.1269 12.5 16.6667C12.5 16.2064 12.8731 15.8333 13.3333 15.8333H14.6548L11.9107 13.0892C11.5852 12.7638 11.5852 12.2362 11.9107 11.9107C12.2362 11.5853 12.7638 11.5853 13.0892 11.9107L15.8333 14.6548Z" fill="white"/>
</svg>
