<svg width="178" height="265" viewBox="0 0 178 265" fill="none" xmlns="http://www.w3.org/2000/svg">
<g clip-path="url(#clip0_47_39183)">
<g clip-path="url(#clip1_47_39183)">
<path d="M159.407 0L155.5 4.159L151.593 0L149.344 5.245L144.25 2.674L143.93 8.369L138.265 7.696L139.912 13.159L134.358 14.464L137.775 19.034L133 22.159L137.775 25.283L134.358 29.853L139.912 31.157L138.265 36.621L143.93 35.947L144.25 41.644L149.344 39.072L151.593 44.316L155.5 40.159L159.407 44.316L161.658 39.072L166.75 41.644L167.07 35.947L172.737 36.621L171.089 31.157L176.643 29.853L173.226 25.283L178 22.159L173.226 19.034L176.643 14.464L171.089 13.159L172.737 7.696L167.07 8.369L166.75 2.674L161.658 5.245L159.407 0Z" fill="#64C4AC"/>
<path d="M153.098 29.0992H149.857L145.445 18.7612H145.318C145.48 19.5482 145.562 20.3952 145.562 21.2992V29.0992H143.101V14.8272H146.362L150.735 25.0582H150.843C150.719 24.3752 150.658 23.5612 150.658 22.6172V14.8272H153.098V29.0992ZM159.053 20.4602L160.957 14.8262H163.739L160.352 23.3782V29.0992H157.736V23.4862L154.358 14.8262H157.159L159.053 20.4602ZM164.823 27.7622C164.823 27.2552 164.958 26.8612 165.228 26.5812C165.498 26.3012 165.9 26.1612 166.434 26.1612C166.967 26.1612 167.371 26.2992 167.645 26.5762C167.918 26.8532 168.055 27.2492 168.055 27.7622C168.055 28.2702 167.913 28.6642 167.63 28.9432C167.346 29.2232 166.948 29.3632 166.434 29.3632C165.906 29.3632 165.506 29.2222 165.233 28.9382C164.96 28.6552 164.823 28.2632 164.823 27.7622ZM167.518 24.5012H165.38L164.902 14.8272H168.016L167.518 24.5012Z" fill="white"/>
</g>
</g>
<defs>
<clipPath id="clip0_47_39183">
<rect width="45" height="45" fill="white" transform="translate(133)"/>
</clipPath>
<clipPath id="clip1_47_39183">
<rect width="45" height="45" fill="white" transform="translate(133)"/>
</clipPath>
</defs>
</svg>
