<svg width="21" height="20" viewBox="0 0 21 20" fill="none" xmlns="http://www.w3.org/2000/svg">
<path d="M19.3005 20.0025C19.1205 20.0025 18.9405 19.9325 18.8105 19.8025L16.9505 17.9425C16.6805 17.6725 16.6805 17.2325 16.9505 16.9525C17.2205 16.6825 17.6605 16.6825 17.9405 16.9525L19.8005 18.8125C20.0705 19.0825 20.0705 19.5225 19.8005 19.8025C19.6605 19.9325 19.4805 20.0025 19.3005 20.0025Z" fill="black"/>
<path d="M0.75 9.5C0.75 4.67421 4.67421 0.75 9.5 0.75C14.3258 0.75 18.25 4.67421 18.25 9.5C18.25 14.3258 14.3258 18.25 9.5 18.25C4.67421 18.25 0.75 14.3258 0.75 9.5Z" stroke="black" stroke-width="1.5"/>
</svg>
