<svg width="32" height="32" viewBox="0 0 32 32" fill="none" xmlns="http://www.w3.org/2000/svg">
<path fill-rule="evenodd" clip-rule="evenodd" d="M10.5117 26.8106C11.2024 27.5799 12.0891 28.0026 13.0091 28.0026H13.0104C13.9344 28.0026 14.8251 27.5799 15.5171 26.8093C15.8877 26.3999 16.5197 26.3666 16.9291 26.7359C17.3397 27.1053 17.3731 27.7386 17.0037 28.1479C15.9264 29.3439 14.5091 30.0026 13.0104 30.0026H13.0077C11.5131 30.0013 10.0984 29.3426 9.02506 28.1466C8.65573 27.7373 8.68906 27.1039 9.09973 26.7359C9.51039 26.3653 10.1424 26.3986 10.5117 26.8106ZM13.0755 1.33594C19.0021 1.33594 22.9835 5.95194 22.9835 10.2626C22.9835 12.4799 23.5475 13.4199 24.1461 14.4173C24.7381 15.4013 25.4088 16.5186 25.4088 18.6306C24.9435 24.0266 19.3101 24.4666 13.0755 24.4666C6.84079 24.4666 1.20613 24.0266 0.746111 18.7159C0.742129 16.5186 1.4128 15.4013 2.0048 14.4173L2.21379 14.0655C2.72836 13.1811 3.16746 12.2191 3.16746 10.2626C3.16746 5.95194 7.14879 1.33594 13.0755 1.33594ZM13.0755 3.33594C8.41546 3.33594 5.16746 6.9866 5.16746 10.2626C5.16746 13.0346 4.39813 14.3159 3.71813 15.4466C3.1728 16.3546 2.74213 17.0719 2.74213 18.6306C2.9648 21.1453 4.62479 22.4666 13.0755 22.4666C21.4795 22.4666 23.1915 21.0866 23.4128 18.5439C23.4088 17.0719 22.9781 16.3546 22.4328 15.4466C21.7528 14.3159 20.9835 13.0346 20.9835 10.2626C20.9835 6.9866 17.7355 3.33594 13.0755 3.33594Z" fill="#262525"/>
<circle cx="21.4102" cy="5.33594" r="4.5" fill="#F74A4A" stroke="#FEFEFE"/>
</svg>
