<svg width="260" height="57" viewBox="0 0 260 57" fill="none" xmlns="http://www.w3.org/2000/svg">
<g clip-path="url(#clip0_47_77697)">
<path d="M199.203 56.3612C201.666 51.4659 204.4 44.7311 204.229 40.0469C200.891 35.9848 199.065 30.8904 199.063 25.6324C199.062 10.8259 213.437 0 229.52 0C245.603 0 259.967 10.7455 259.967 25.6324C259.967 41.1425 242.879 55.6173 219.448 49.8676C215.196 52.5012 205.807 55.1549 199.203 56.3612Z" fill="#76B043"/>
<path d="M231.058 14.6073C231.058 15.0943 230.914 15.5705 230.643 15.9755C230.373 16.3805 229.988 16.6961 229.538 16.8825C229.088 17.0689 228.593 17.1177 228.115 17.0227C227.637 16.9276 227.199 16.6931 226.854 16.3487C226.51 16.0042 226.275 15.5654 226.18 15.0877C226.085 14.61 226.134 14.1148 226.32 13.6648C226.507 13.2148 226.822 12.8302 227.227 12.5596C227.632 12.289 228.108 12.1445 228.596 12.1445C229.249 12.1445 229.875 12.404 230.337 12.8658C230.799 13.3277 231.058 13.9541 231.058 14.6073Z" fill="white"/>
<path d="M229.098 38.2887H228.093C227.577 38.276 227.086 38.0654 226.721 37.7005C226.356 37.3357 226.146 36.8445 226.133 36.3286V22.9797C226.146 22.4638 226.356 21.9726 226.721 21.6077C227.086 21.2429 227.577 21.0323 228.093 21.0195H229.098C229.614 21.0323 230.105 21.2429 230.47 21.6077C230.835 21.9726 231.046 22.4638 231.058 22.9797V36.3286C231.046 36.8445 230.835 37.3357 230.47 37.7005C230.105 38.0654 229.614 38.276 229.098 38.2887Z" fill="white"/>
<path d="M31.8083 56.36H28.2801L3.7735 19.2482H3.59256V56.36H0.0341797V13.207H3.59256L28.1092 50.2584H28.2901V13.207H31.8184L31.8083 56.36Z" fill="white"/>
<path d="M38.7537 39.8539C38.5808 35.6362 39.9614 31.5015 42.6338 28.2339C43.8932 26.7496 45.473 25.5704 47.2542 24.7851C49.0354 23.9999 50.9716 23.629 52.9169 23.7005C54.8668 23.6274 56.808 23.9973 58.5943 24.7825C60.3806 25.5678 61.9656 26.7478 63.2302 28.2339C65.9026 31.5015 67.2832 35.6362 67.1102 39.8539V40.8591C67.1102 45.6036 65.8202 49.4837 63.2402 52.4992C61.9819 53.9815 60.4034 55.1588 58.6239 55.9423C56.8444 56.7259 54.9102 57.0952 52.9672 57.0226C51.0135 57.0979 49.0682 56.73 47.2769 55.9467C45.4856 55.1633 43.8948 53.9847 42.6237 52.4992C40.037 49.4837 38.7437 45.6036 38.7437 40.8591L38.7537 39.8539ZM42.3121 40.8591C42.1983 44.2029 43.1873 47.4912 45.1267 50.2175C46.0216 51.4471 47.2066 52.4366 48.5762 53.0977C49.9459 53.7589 51.4577 54.0712 52.9772 54.007C54.4857 54.0639 55.9849 53.7479 57.342 53.0869C58.6992 52.4258 59.8723 51.4403 60.7574 50.2175C62.7074 47.4954 63.7038 44.2056 63.5921 40.8591V39.8539C63.6966 36.5255 62.6964 33.2561 60.7474 30.5559C59.8577 29.3236 58.6774 28.3301 57.3113 27.6637C55.9453 26.9973 54.4357 26.6787 52.9169 26.7362C51.402 26.6766 49.8961 26.9944 48.5345 27.6612C47.1729 28.3279 45.9984 29.3227 45.1166 30.5559C43.1892 33.2652 42.2008 36.5305 42.3021 39.8539L42.3121 40.8591Z" fill="white"/>
<path d="M77.7561 16.082V24.2945H84.7924V27.1995H77.7561V48.0974C77.7561 50.1949 78.138 51.6826 78.902 52.5605C79.2747 52.9908 79.7389 53.3324 80.2607 53.5602C80.7825 53.7881 81.3485 53.8964 81.9176 53.8773C82.4939 53.8773 83.0534 53.8538 83.5962 53.8069C84.139 53.76 84.7656 53.6729 85.4759 53.5456L86.0087 56.1792C85.3151 56.4641 84.5894 56.6633 83.8475 56.7722C83.0036 56.9114 82.1497 56.982 81.2943 56.9833C80.3151 57.0381 79.3359 56.8755 78.4269 56.507C77.518 56.1386 76.7019 55.5735 76.0372 54.8523C74.784 53.4316 74.1575 51.18 74.1575 48.0974V27.1995H68.6289V24.2945H74.1675V16.082H77.7561Z" fill="white"/>
<path d="M94.703 15.0767H91.1748V10.0508H94.703V15.0767ZM94.703 56.3399H91.1748V24.2944H94.703V56.3399Z" fill="white"/>
<path d="M114.957 53.9585C117.197 53.9937 119.384 53.2868 121.18 51.9481C122.053 51.3119 122.756 50.4698 123.226 49.4965C123.696 48.5233 123.918 47.4491 123.874 46.3693H127.02L127.08 46.5503C127.14 47.9865 126.847 49.4155 126.227 50.7123C125.606 52.0091 124.678 53.134 123.522 53.9887C121.112 55.972 118.078 57.0401 114.957 57.0043C110.588 57.0043 107.214 55.5065 104.835 52.511C102.456 49.5156 101.267 45.6657 101.267 40.9614V39.7049C101.099 35.5723 102.367 31.509 104.855 28.2055C107.248 25.2033 110.598 23.7022 114.907 23.7022C118.124 23.5964 121.262 24.7094 123.693 26.8183C124.846 27.832 125.752 29.0966 126.341 30.5149C126.93 31.9333 127.187 33.4678 127.09 35.0006L127.03 35.1815H123.853C123.903 34.0282 123.696 32.8783 123.247 31.8146C122.799 30.7509 122.12 29.7998 121.26 29.0297C119.506 27.4862 117.233 26.6638 114.897 26.7279C111.459 26.7279 108.916 27.9575 107.268 30.4169C105.531 33.1912 104.669 36.4241 104.795 39.6948V40.9413C104.675 44.2254 105.539 47.4705 107.278 50.2594C108.92 52.7255 111.48 53.9585 114.957 53.9585Z" fill="white"/>
<path d="M145.476 56.9813C143.576 57.029 141.689 56.6553 139.951 55.8871C138.213 55.1189 136.667 53.9752 135.424 52.5384C132.698 49.4312 131.26 45.4011 131.403 41.2702V39.6417C131.256 35.4783 132.669 31.4099 135.363 28.2328C136.521 26.8081 137.984 25.6612 139.643 24.8767C141.303 24.0921 143.117 23.6898 144.953 23.6994C148.887 23.6994 151.979 24.9458 154.231 27.4387C156.483 29.9316 157.608 33.2521 157.608 37.4002V40.4157H135.042V41.2702C134.929 44.5269 135.945 47.7226 137.917 50.3169C138.796 51.4812 139.941 52.4188 141.255 53.0517C142.57 53.6846 144.017 53.9945 145.476 53.9557C147.403 54.0048 149.322 53.6946 151.135 53.041C152.651 52.4665 154.023 51.5677 155.156 50.4074L156.663 52.8399C155.37 54.163 153.807 55.1916 152.08 55.8555C149.971 56.6521 147.729 57.0343 145.476 56.9813ZM145.033 26.715C143.776 26.6969 142.531 26.958 141.387 27.4794C140.244 28.0009 139.23 28.7698 138.419 29.7305C136.596 31.8344 135.502 34.4723 135.303 37.2494L135.363 37.4002H154.161V36.5156C154.241 33.964 153.363 31.4749 151.698 29.5396C150.866 28.6011 149.835 27.8604 148.68 27.3717C147.525 26.883 146.276 26.6586 145.023 26.715H145.033Z" fill="white"/>
<path d="M182.336 48.1965C182.337 47.4396 182.172 46.6916 181.853 46.0055C181.533 45.3194 181.067 44.7119 180.486 44.226C179.253 43.1001 177.025 42.1821 173.802 41.4717C169.969 40.6408 167.137 39.5451 165.308 38.1848C164.41 37.5213 163.69 36.6468 163.212 35.6386C162.733 34.6304 162.511 33.5197 162.564 32.4049C162.561 31.1999 162.839 30.0108 163.376 28.9324C163.914 27.8539 164.696 26.9158 165.66 26.1928C168.008 24.4116 170.908 23.5147 173.852 23.6597C177.471 23.6597 180.336 24.5543 182.446 26.3436C183.447 27.1419 184.243 28.1677 184.768 29.3356C185.292 30.5035 185.53 31.7798 185.462 33.0583L185.402 33.2392H182.115C182.107 32.3548 181.902 31.4833 181.514 30.6885C181.126 29.8936 180.566 29.1956 179.873 28.6455C178.174 27.2691 176.026 26.5709 173.842 26.6853C171.255 26.6853 169.315 27.2416 168.022 28.354C167.425 28.8179 166.941 29.4105 166.605 30.0875C166.269 30.7645 166.091 31.5085 166.082 32.2642C166.068 32.9611 166.212 33.6523 166.502 34.2859C166.793 34.9195 167.223 35.4792 167.761 35.9231C168.88 36.8881 171.108 37.7324 174.445 38.4562C177.509 39.0097 180.419 40.2127 182.979 41.9844C183.903 42.6874 184.644 43.6025 185.139 44.6523C185.634 45.7021 185.869 46.8557 185.824 48.0155C185.85 49.28 185.568 50.5318 185.002 51.6631C184.436 52.7943 183.604 53.771 182.577 54.5091C180.072 56.2686 177.051 57.1423 173.993 56.9919C170.099 56.9919 167.04 56.0638 164.815 54.2075C163.789 53.4396 162.966 52.4333 162.416 51.2757C161.866 50.118 161.606 48.8438 161.659 47.5632L161.719 47.3823H164.976C164.973 48.3938 165.233 49.3887 165.73 50.2698C166.226 51.1508 166.944 51.8877 167.811 52.4082C169.689 53.4865 171.828 54.0288 173.993 53.9763C176.134 54.086 178.251 53.493 180.024 52.2876C180.714 51.8457 181.285 51.2419 181.688 50.5289C182.09 49.8159 182.313 49.0152 182.336 48.1965Z" fill="white"/>
</g>
<defs>
<clipPath id="clip0_47_77697">
<rect width="259.934" height="56.9844" fill="white" transform="translate(0.0332031)"/>
</clipPath>
</defs>
</svg>
