<svg width="30" height="30" viewBox="0 0 30 30" fill="none" xmlns="http://www.w3.org/2000/svg">
<g clip-path="url(#clip0_47_29576)">
<path d="M10.097 19.3691C9.3817 19.6494 8.75377 20.1149 8.27765 20.7178C7.80154 21.3208 7.49438 22.0396 7.38767 22.8004L7.32204 24.6754C6.90991 24.3657 6.6119 23.9282 6.47453 23.4313C6.33716 22.9344 6.36815 22.406 6.56267 21.9285C7.09704 19.9879 8.65329 19.6879 10.097 19.3691Z" fill="#F49937"/>
<path d="M18.0937 19.2653C18.8558 19.5485 19.5365 20.0147 20.076 20.6228C20.6154 21.231 20.9971 21.9624 21.1875 22.7528C21.4087 23.6368 21.3926 24.5635 21.1407 25.4393C20.8888 26.3151 20.4102 27.1088 19.7531 27.7403C18.9402 28.335 17.9464 28.6298 16.9406 28.5746C14.5074 28.4189 12.1208 27.835 9.89061 26.8496C9.07677 26.5997 8.31008 26.2164 7.62186 25.7153C6.86577 25.1267 6.3709 24.2649 6.24374 23.3153C6.19148 22.6436 6.31329 21.9697 6.59739 21.3589C6.88149 20.748 7.31829 20.2206 7.86561 19.8278C9.39506 18.72 11.2365 18.1258 13.125 18.1309C14.8308 18.2442 16.5078 18.627 18.0937 19.2653Z" fill="#CCCCCC"/>
<path d="M17.7185 20.4381C18.3878 20.6524 18.9943 21.0278 19.4847 21.5313C19.975 22.0347 20.3343 22.6508 20.531 23.3256C20.7244 24.0667 20.7057 24.8472 20.4769 25.5782C20.2482 26.3092 19.8186 26.9612 19.2373 27.4599C18.4809 27.9603 17.5834 28.2035 16.6779 28.1537C14.493 28.0257 12.3432 27.5444 10.3123 26.7287C9.58703 26.5227 8.89773 26.2065 8.26853 25.7912C7.93593 25.5627 7.65369 25.2684 7.43924 24.9266C7.22479 24.5847 7.08267 24.2026 7.02165 23.8037C6.97678 23.2383 7.08447 22.6713 7.33347 22.1617C7.58248 21.6522 7.96367 21.2188 8.43728 20.9068C9.85819 19.9708 11.5265 19.4811 13.2279 19.5006C14.7623 19.5938 16.275 19.9096 17.7185 20.4381Z" fill="#CCCCCC"/>
<path d="M17.4938 19.5281C18.1336 19.7589 18.7072 20.1427 19.1647 20.646C19.6222 21.1493 19.9498 21.7568 20.1188 22.4156C20.3041 23.1507 20.2887 23.9221 20.0744 24.6493C19.86 25.3765 19.4545 26.0329 18.9001 26.55C18.2003 27.0508 17.3496 27.2957 16.4907 27.2437C14.4309 27.1093 12.4086 26.6275 10.5094 25.8187C9.82335 25.6096 9.1747 25.2932 8.58755 24.8812C8.26921 24.6452 8.00147 24.3476 7.80018 24.0062C7.59888 23.6648 7.46814 23.2865 7.41568 22.8937C7.37148 22.3338 7.47558 21.7721 7.71752 21.2652C7.95945 20.7582 8.33067 20.324 8.7938 20.0062C10.1089 19.0766 11.6834 18.5846 13.2938 18.6C14.7335 18.6897 16.1504 19.0029 17.4938 19.5281Z" fill="white"/>
<path d="M16.6783 20.2219C14.2697 21.38 12.2501 23.2139 10.8658 25.5C10.3727 23.6038 10.2485 21.6305 10.5002 19.6875C10.5002 19.6875 13.9221 21.2344 16.6783 20.2219Z" fill="#CCCCCC"/>
<path d="M15.4407 20.1934C13.6435 21.0585 12.1357 22.4262 11.1001 24.1309C10.7353 22.7238 10.6431 21.26 10.8282 19.8184C10.8282 19.8184 13.3876 20.9527 15.4407 20.1934Z" fill="#FAEACF"/>
<path opacity="0.28" d="M18.3865 24.6389C18.8098 23.3337 18.4264 22.04 17.53 21.7493C16.6336 21.4585 15.5638 22.2809 15.1405 23.586C14.7172 24.8912 15.1007 26.1849 15.997 26.4756C16.8934 26.7664 17.9632 25.944 18.3865 24.6389Z" fill="white"/>
<path d="M10.8188 19.041L10.5376 20.2598C12.0481 20.7588 13.6354 20.9842 15.2251 20.9254L16.8751 20.6254L16.7063 19.4723L10.8188 19.041Z" fill="#FAD395"/>
<path d="M15.7127 4.35039L16.2846 2.64414L15.9002 1.74414L18.0283 2.99102L19.4908 7.01289L15.1221 6.09414L15.7127 4.35039Z" fill="#9A4C18"/>
<path d="M6.22511 7.15313C5.44854 8.53884 5.23375 10.1699 5.62511 11.7094L7.01261 9.42188L6.42199 6.98438L6.22511 7.15313Z" fill="#9A4C18"/>
<path d="M8.57812 3.96563C8.44248 3.1744 8.06598 2.44431 7.5 1.875C8.64769 1.87988 9.78155 2.12582 10.8281 2.59687L10.95 3.38437L10.0125 4.92188L8.57812 3.96563Z" fill="#9A4C18"/>
<path d="M14.6662 20.3222C19.0911 19.7011 22.1847 15.6811 21.5758 11.3433C20.967 7.00555 16.8863 3.99258 12.4613 4.61368C8.03635 5.23478 4.9428 9.25475 5.55166 13.5925C6.16053 17.9303 10.2412 20.9433 14.6662 20.3222Z" fill="#9A4C18"/>
<path d="M14.2587 19.7257C18.3492 19.1472 21.1815 15.2584 20.585 11.0398C19.9884 6.8212 16.1888 3.87027 12.0983 4.44872C8.00787 5.02717 5.17551 8.91595 5.77208 13.1346C6.36865 17.3532 10.1682 20.3041 14.2587 19.7257Z" fill="#E5895B"/>
<path d="M13.7787 18.8827C17.6129 18.3405 20.2681 14.6971 19.7092 10.7451C19.1503 6.79301 15.589 4.02878 11.7549 4.57098C7.92071 5.11319 5.26556 8.75651 5.82444 12.7086C6.38332 16.6606 9.94458 19.4249 13.7787 18.8827Z" fill="#FAD395"/>
<path d="M16.9218 8.86836C17.7599 8.8841 18.5953 8.76703 19.3968 8.52148C19.978 8.18398 20.7374 8.16523 20.7468 7.58398C20.7562 7.00273 19.603 3.91836 15.7593 3.17773L18.0093 5.84023L16.9218 8.86836Z" fill="#9A4C18"/>
<path d="M6.5623 8.4375C6.33934 8.09628 6.19652 7.70901 6.14456 7.30472C6.09261 6.90044 6.13286 6.48963 6.2623 6.10313C6.459 5.04936 6.30764 3.9602 5.83105 3L9.25293 3.75C9.25293 3.75 11.2592 4.29375 11.1279 5.25C10.9225 6.14762 10.6076 7.01662 10.1904 7.8375L9.53418 8.91563C9.53418 8.91563 6.91855 8.55 6.5623 8.4375Z" fill="#9A4C18"/>
<path d="M6.99353 8.67109C6.99353 8.67109 6.61853 7.16172 7.14353 6.66484C7.66853 6.16797 6.91853 4.05859 6.91853 4.05859L10.3123 4.77109C10.3123 4.77109 12.3092 5.31484 12.1873 6.27109C11.9773 7.16737 11.6627 8.03584 11.2498 8.85859C11.1654 8.98984 10.706 9.53359 10.706 9.53359C10.706 9.53359 7.34978 8.76484 6.99353 8.67109Z" fill="#DB7D1F"/>
<path d="M15.7406 8.71797C16.5788 8.73371 17.4141 8.61664 18.2156 8.37109C18.7969 8.03359 19.5563 8.01484 19.5656 7.43359C19.2665 6.28656 18.6322 5.25473 17.7438 4.46988C16.8554 3.68504 15.7533 3.18281 14.5781 3.02734L16.8188 5.68984L15.7406 8.71797Z" fill="#DB7D1F"/>
<path d="M9.00947 8.6724C9.00947 8.6724 8.07197 8.49428 8.49385 6.7974C9.00675 5.36069 9.70314 3.99627 10.5657 2.73803L8.00635 0.309904C9.13185 0.125078 10.284 0.185179 11.3841 0.486105C12.4843 0.787032 13.5066 1.3217 14.3813 2.05365C14.3813 2.05365 17.6813 3.75053 17.8126 4.8849C17.9438 6.01928 19.3688 8.25053 18.2251 8.94428C17.0813 9.63803 9.3751 9.03803 9.00947 8.6724Z" fill="#9A4C18"/>
<path d="M9.48732 8.84023C9.29003 8.01118 9.29003 7.14741 9.48732 6.31836C9.93446 5.14309 10.5265 4.02822 11.2498 2.99961L10.0311 0.983981C10.0311 0.983981 11.8029 0.768356 14.0623 2.66211C14.0623 2.66211 16.6029 3.93711 16.7248 4.83711C16.8467 5.73711 16.7248 8.58711 15.8811 9.10273C15.0373 9.61836 9.78732 9.13086 9.48732 8.84023Z" fill="#F49937"/>
<path d="M11.1562 8.20312L12.0094 5.19375L11.6438 1.92188L13.7906 5.1375L13.4531 8.5875C13.4531 8.5875 11.7469 8.775 11.1562 8.20312Z" fill="#FDE049"/>
<path d="M19.0502 5.61523L18.8627 7.77148L17.1846 6.92773L18.0283 8.49336L20.4002 7.95898L19.0502 5.61523Z" fill="#9A4C18"/>
<path d="M16.0031 7.52773L17.4563 7.99648L18.9281 6.92773L18.8156 8.17461L17.9437 8.64336L15.375 9.26211L16.0031 7.52773Z" fill="#DB7D1F"/>
<path d="M8.56856 6.13086L8.76543 7.68711L10.0498 9.05586L9.75918 8.99023L8.00605 8.58711L7.37793 7.26523L8.56856 6.13086Z" fill="#DB7D1F"/>
<path d="M14.1094 9.52578L15.3562 6.56328L14.7656 3.75078L13.9219 2.55078C14.683 2.9369 15.4216 3.36571 16.1344 3.83516C16.5187 4.18203 17.1187 5.20391 17.025 5.55078C16.9312 5.89766 16.3875 8.86016 16.3875 8.86016L15.8437 9.25391C15.2912 9.46569 14.7002 9.55834 14.1094 9.52578Z" fill="#DB7D1F"/>
<path d="M9.06579 6.32773L9.52516 6.22461C9.31316 7.0082 9.33927 7.83717 9.60016 8.60586C9.60016 8.60586 8.43766 8.29648 8.59704 6.44961L9.06579 6.32773Z" fill="#9A4C18"/>
<path d="M16.978 8.13672C16.978 8.13672 18.6187 7.36797 18.3468 6.07422C18.6296 6.57163 18.7447 7.14692 18.6749 7.71484C18.4687 8.38047 17.3718 8.26797 17.3718 8.26797L16.978 8.13672Z" fill="#DB7D1F"/>
<path d="M9.73105 9.37422L10.8186 10.3211L14.9998 8.93359V7.48047L13.5186 9.17734L10.5561 8.93359L9.4873 8.41797L9.73105 9.37422Z" fill="#F49937"/>
<path d="M15.6655 9.17891C15.932 9.43478 16.1854 9.70386 16.4249 9.98516L15.6843 11.0539C15.6843 11.0539 17.6062 10.857 17.9155 11.6539C18.0966 12.2629 18.1224 12.9074 17.9905 13.5289L21.1405 12.8258C21.1405 12.8258 20.6812 9.37578 19.4905 7.96953L18.2905 7.33203L17.1374 8.26953L15.6655 9.17891Z" fill="#DB7D1F"/>
<path d="M7.74383 8.57734L5.69071 11.2492C5.63361 10.0958 5.86226 8.94614 6.35633 7.90234L7.74383 8.57734Z" fill="#DB7D1F"/>
<path d="M20.9812 13.7062L17.9905 13.5469L17.8687 13.1625L21.253 12.1875L20.9812 13.7062Z" fill="#9A4C18"/>
<path d="M18.6845 13.125L18.1876 11.25C17.4528 11.0463 16.6987 10.9206 15.9376 10.875L15.4595 10.9594L16.7907 11.4187L17.9063 13.4906L18.6845 13.125Z" fill="#9A4C18"/>
<path d="M16.4627 11.016L16.9033 9.89102L15.4502 8.72852L13.7158 9.73164L15.7877 9.48789L15.5533 10.9691L16.4627 11.016Z" fill="#9A4C18"/>
<path d="M15.253 9.25312L10.7343 10.8187L9.5249 9.15938L11.0062 10.0031L15.3562 8.71875L15.253 9.25312Z" fill="#9A4C18"/>
<path d="M10.8283 10.6785L8.55957 10.4348L10.4721 9.99414L10.8283 10.6785Z" fill="#9A4C18"/>
<path d="M10.0971 9.72187L7.7627 9.51562L5.60645 11.3813L7.2377 8.625L9.60957 9.08437L9.99395 9.6375" fill="#9A4C18"/>
<path d="M15.3936 8.8875L18.7686 8.48438L19.6592 10.0687L18.0467 11.8219L17.4279 11.6063L15.3936 8.8875Z" fill="#9A4C18"/>
<path d="M7.04053 9.65625L9.55303 10.4531L10.6593 10.0313L10.1437 9.5625L8.14678 9.28125L7.04053 9.65625Z" fill="#9A4C18"/>
<path d="M15.3469 9.65625L18.3938 8.76562L19.0594 9.9375L16.6219 11.8406L14.9531 11.3438L15.3469 9.65625Z" fill="#FAD395"/>
<path d="M10.8467 17.9902C10.8467 17.9902 15.0842 17.9902 17.1467 16.2559C17.0894 17.0828 16.7597 17.8674 16.2092 18.4871C14.4067 18.7081 12.5778 18.5387 10.8467 17.9902Z" fill="white" stroke="#9A4C18" stroke-width="0.346875" stroke-miterlimit="10"/>
<path d="M18.4968 11.84C16.3055 11.4126 14.0682 11.2708 11.8405 11.4182C11.6039 11.5782 11.3287 11.672 11.0436 11.69C10.7363 11.6043 10.4494 11.4576 10.1999 11.2588C8.0619 10.665 5.85614 10.3499 3.6374 10.3213C3.6374 10.3213 3.2624 10.2463 3.32802 10.8557C3.39365 11.465 3.85302 11.5213 3.85302 11.5213C3.85302 11.5213 3.96552 14.015 4.8749 14.7088C6.17058 15.4525 7.58521 15.9663 9.05615 16.2275C9.9374 16.3775 10.3218 16.0869 10.5186 15.4963C10.673 14.8089 10.7671 14.1094 10.7999 13.4057C10.7999 13.0869 10.978 13.0119 11.0905 13.0025H11.2499C11.3718 13.0025 11.5311 13.1432 11.6155 13.4713C11.7796 14.2178 11.999 14.951 12.2718 15.665C12.3996 15.9901 12.6252 16.2675 12.9174 16.4589C13.2096 16.6503 13.5539 16.7464 13.903 16.7338C15.2961 16.7983 16.6876 16.5749 17.9905 16.0775C18.8343 15.5525 18.4968 12.9932 18.4968 12.9932C18.4968 12.9932 18.9749 13.0494 18.9374 12.4119C18.8999 11.7744 18.4968 11.84 18.4968 11.84Z" fill="#4A4A4A"/>
<path d="M12.1875 11.7464C14.349 11.6365 16.5158 11.7971 18.6375 12.2245V12.4683C18.6375 12.4683 14.3531 11.8027 12.1875 11.7464Z" fill="#6F6F6F"/>
<path d="M17.6439 12.7505C15.8548 12.3413 14.0069 12.2556 12.1877 12.4973C12.141 12.5082 12.0971 12.5284 12.0585 12.5567C12.0198 12.585 11.9873 12.6208 11.9628 12.6619C11.9383 12.703 11.9223 12.7487 11.9159 12.7961C11.9094 12.8435 11.9126 12.8918 11.9252 12.938C12.0938 13.8179 12.3417 14.6808 12.6658 15.5161C12.7388 15.6898 12.8474 15.8463 12.9845 15.9755C14.3922 14.6662 16 13.5902 17.747 12.788L17.6439 12.7505Z" fill="white"/>
<path d="M17.7469 12.7871C16.0024 13.5779 14.3948 14.6412 12.9844 15.9371C13.1541 16.1102 13.3803 16.2167 13.6219 16.2371C14.6156 16.3121 16.5937 16.3496 17.6531 15.6277C17.7005 15.5897 17.7389 15.5417 17.7656 15.4871C18.033 14.7299 18.1102 13.9187 17.9906 13.1246C17.9768 13.0541 17.9479 12.9874 17.9058 12.9291C17.8637 12.8708 17.8095 12.8224 17.7469 12.7871Z" fill="#CCCCCC"/>
<path d="M4.54671 11.4478C4.50545 11.4512 4.46533 11.463 4.42888 11.4826C4.39242 11.5022 4.36042 11.5292 4.33488 11.5618C4.30934 11.5943 4.29083 11.6318 4.28049 11.6719C4.27016 11.712 4.26823 11.7538 4.27484 11.7947C4.3194 12.6309 4.52973 13.4499 4.89359 14.2041C4.93266 14.2636 4.98001 14.3172 5.03421 14.3634C5.23315 14.519 5.44307 14.66 5.66234 14.7853C6.90893 13.7681 8.26776 12.8968 9.71234 12.1884C8.04351 11.6565 6.29776 11.4062 4.54671 11.4478Z" fill="white"/>
<path d="M9.94687 12.3L9.7125 12.1875C8.25486 12.8934 6.88334 13.7648 5.625 14.7844C6.72252 15.3305 7.90507 15.6855 9.12187 15.8344C9.30705 15.8575 9.4942 15.8107 9.64676 15.7033C9.79932 15.5958 9.90632 15.4353 9.94687 15.2531C10.1599 14.4505 10.2825 13.6267 10.3125 12.7969C10.3133 12.6857 10.2781 12.5773 10.2122 12.4877C10.1463 12.3982 10.0532 12.3323 9.94687 12.3Z" fill="#CCCCCC"/>
<path d="M19.2939 20.8594C19.7 22.0714 19.9397 23.3329 20.0064 24.6094V26.4844C20.4208 26.189 20.7268 25.7658 20.8775 25.2798C21.0282 24.7938 21.0153 24.2717 20.8408 23.7937C20.7195 22.6538 20.1659 21.6036 19.2939 20.8594Z" fill="#F49937"/>
<path d="M16.8748 29.2684C16.8696 29.1911 16.8437 29.1166 16.7998 29.0528C16.9311 28.6957 16.9311 28.3036 16.7998 27.9466L15.7311 24.7778C15.4945 23.9895 14.9687 23.3198 14.2592 22.9028L14.1467 22.1997C14.1138 22.0668 14.0446 21.9456 13.947 21.8496C13.8493 21.7536 13.727 21.6866 13.5936 21.6559L12.6561 21.4497L12.3654 21.1872C12.0718 21.1342 11.7692 21.1668 11.4936 21.2809C11.2948 21.4758 11.1718 21.735 11.1467 22.0122L11.2498 22.4997L7.68731 21.7591L7.30293 21.5622L7.14356 20.7841C7.10481 20.6474 7.03064 20.5234 6.92857 20.4247C6.82651 20.3259 6.70015 20.2558 6.56231 20.2216L5.73731 20.0528L5.45606 19.8184C5.00606 19.7247 4.18106 20.0153 4.27481 20.4278L4.40606 21.1216C4.24405 21.1807 4.09459 21.2698 3.96543 21.3841C3.77033 21.5724 3.64197 21.8193 3.59981 22.0872V22.3028C3.59043 22.4026 3.59043 22.503 3.59981 22.6028L3.74981 25.4997C3.78451 26.1468 4.07446 26.7536 4.55606 27.1872C4.81512 27.467 5.13623 27.6822 5.49356 27.8153C5.86354 27.9987 6.29005 28.0323 6.68418 27.9091H6.75918C6.98997 27.8928 7.21157 27.8121 7.39883 27.6762C7.58608 27.5403 7.73149 27.3547 7.81856 27.1403L7.99668 26.6997L8.29668 26.7559C8.50167 27.0364 8.80148 27.2329 9.14043 27.3091C9.23512 27.3375 9.33506 27.3438 9.43257 27.3275C9.53008 27.3113 9.62257 27.2729 9.70293 27.2153C9.86006 27.2482 10.0238 27.2214 10.1623 27.1403L10.4529 27.2059C10.5431 27.3932 10.6741 27.5578 10.8364 27.6876C10.9986 27.8174 11.188 27.9091 11.3904 27.9559C11.4854 27.9817 11.5848 27.9866 11.6819 27.9704C11.779 27.9543 11.8714 27.9173 11.9529 27.8622C12.0636 27.896 12.1815 27.899 12.2938 27.871C12.4061 27.8429 12.5087 27.7848 12.5904 27.7028L12.8904 28.1622C13.014 28.3363 13.1486 28.5023 13.2936 28.6591C13.7489 29.2631 14.4213 29.6665 15.1686 29.7841C15.415 29.8434 15.6721 29.8434 15.9186 29.7841C16.4811 29.8122 16.9311 29.6247 16.8748 29.2684Z" fill="#4A0751"/>
<path d="M15.9375 21.2341C15.9375 21.2341 18.7031 21.1028 19.6875 21.9372C20.2688 22.4247 20.4844 23.9341 20.5688 25.0872C20.5963 25.5111 20.4897 25.933 20.2643 26.293C20.0388 26.653 19.7059 26.9331 19.3125 27.0935C18.7456 27.3581 18.1419 27.5351 17.5219 27.6185L15.9375 24.3747V21.2341Z" fill="#9A4C18"/>
<path d="M15.6748 21.3653C15.6748 21.3653 18.1873 21.2528 19.0873 22.0121C19.5936 22.434 19.7998 23.6996 19.8748 24.7215C19.9102 25.1503 19.8061 25.5791 19.578 25.944C19.35 26.3089 19.0102 26.5904 18.6092 26.7465C18.1403 26.9649 17.6408 27.1104 17.1279 27.1778L15.6748 24.2246V21.3653Z" fill="#E5895B"/>
<path d="M15.9375 21.7782C15.9375 21.7782 18.0937 21.6844 18.8719 22.3313C19.3007 22.9404 19.53 23.6676 19.5281 24.4125C19.5696 24.8508 19.4666 25.2905 19.2346 25.6646C19.0027 26.0388 18.6547 26.3267 18.2437 26.4844C17.9069 26.6313 17.5497 26.7261 17.1844 26.7657L15.9375 24.2344V21.7782Z" fill="#FAD395"/>
<path d="M13.7907 27.2724C13.622 27.4318 14.0532 28.0693 14.3907 28.5193C14.465 28.6393 14.5733 28.7346 14.7018 28.793C14.8303 28.8515 14.9733 28.8704 15.1126 28.8474L17.9251 28.1537C17.9954 28.1403 18.0596 28.1049 18.1084 28.0527C18.1573 28.0004 18.1883 27.934 18.197 27.863C18.1971 27.4356 18.0626 27.0191 17.8126 26.6724C17.7277 26.5251 17.6043 26.4037 17.4557 26.3211C17.3071 26.2385 17.1388 26.1979 16.9689 26.2037C15.8763 26.4523 14.8115 26.8104 13.7907 27.2724Z" fill="#9A4C18"/>
<path d="M14.0626 27.3096C13.922 27.4502 14.3064 28.0034 14.6064 28.3878C14.6733 28.4874 14.7666 28.5665 14.8758 28.6162C14.9851 28.6659 15.1061 28.6841 15.2251 28.669L17.6908 28.0503C17.7523 28.0378 17.8085 28.0069 17.8521 27.9617C17.8956 27.9164 17.9243 27.8591 17.9345 27.7971C17.9366 27.4215 17.8146 27.0557 17.5876 26.7565C17.5185 26.6287 17.4153 26.5225 17.2896 26.4497C17.1638 26.3769 17.0204 26.3403 16.8751 26.344C15.9066 26.5672 14.964 26.8909 14.0626 27.3096Z" fill="#E5895B"/>
<path d="M13.5843 27.2808C13.4343 27.4214 13.8187 27.9745 14.1187 28.3589C14.1855 28.4609 14.2802 28.5417 14.3915 28.5915C14.5029 28.6414 14.6262 28.6583 14.7468 28.6401L17.2031 28.0214C17.2652 28.0102 17.3221 27.9797 17.3659 27.9342C17.4096 27.8888 17.438 27.8307 17.4468 27.7683C17.4523 27.3936 17.3336 27.0277 17.1093 26.7276C17.0379 26.5976 16.9316 26.4901 16.8024 26.4173C16.6732 26.3444 16.5263 26.309 16.3781 26.3151C15.4151 26.5365 14.4785 26.8602 13.5843 27.2808Z" fill="#E5895B"/>
<path d="M13.6217 27.3191C13.4811 27.4597 13.8655 28.0128 14.1655 28.3972C14.229 28.5003 14.3218 28.582 14.432 28.6321C14.5422 28.6822 14.6648 28.6984 14.7842 28.6785L17.2498 28.0691C17.3102 28.0561 17.3651 28.0249 17.407 27.9796C17.449 27.9343 17.4759 27.8772 17.4842 27.816C17.494 27.4378 17.375 27.0676 17.1467 26.766C17.0757 26.6362 16.9693 26.5294 16.8397 26.458C16.7102 26.3866 16.5631 26.3536 16.4155 26.3628C15.4539 26.585 14.5177 26.9055 13.6217 27.3191Z" fill="#FAD395"/>
<path d="M5.50321 24.2726C5.71883 24.3476 5.50321 25.107 5.37196 25.6226C5.34096 25.7514 5.2772 25.87 5.18686 25.967C5.09651 26.0639 4.98266 26.1358 4.85633 26.1757L3.34696 26.6445C3.27221 26.6651 3.19347 26.6664 3.11807 26.6484C3.04266 26.6304 2.97305 26.5936 2.91571 26.5414C2.64867 26.2085 2.52099 25.7851 2.55946 25.3601C2.54548 25.1733 2.59409 24.9871 2.69764 24.8309C2.80119 24.6747 2.95377 24.5575 3.13133 24.4976C3.90188 24.28 4.70548 24.2037 5.50321 24.2726Z" fill="#9A4C18"/>
<path d="M5.17519 24.4318C5.36269 24.4974 5.17519 25.163 5.06269 25.6037C5.03285 25.7153 4.97629 25.818 4.89789 25.903C4.81949 25.9879 4.72161 26.0525 4.61269 26.0912L3.45019 26.4474C3.38568 26.4666 3.31734 26.4689 3.25169 26.4541C3.18604 26.4393 3.12528 26.408 3.07519 26.363C2.95439 26.2183 2.86393 26.0508 2.80917 25.8704C2.75441 25.69 2.73648 25.5005 2.75644 25.313C2.74545 25.1508 2.78815 24.9895 2.87795 24.8539C2.96775 24.7184 3.09965 24.6162 3.25331 24.563C3.87794 24.3867 4.53239 24.342 5.17519 24.4318Z" fill="#E5895B"/>
<path d="M4.93132 24.5343C5.08132 24.5343 4.93132 25.1343 4.82819 25.4718C4.80891 25.5627 4.76701 25.6473 4.70638 25.7177C4.64576 25.7882 4.56835 25.8422 4.48132 25.8749L3.54382 26.2593C3.49855 26.2825 3.44813 26.2938 3.3973 26.2921C3.34646 26.2905 3.29687 26.276 3.25319 26.2499C3.07673 26.0024 2.99671 25.699 3.02819 25.3968C3.02015 25.2641 3.05378 25.1322 3.12438 25.0196C3.19498 24.9069 3.29902 24.8192 3.42194 24.7686C3.90525 24.5939 4.41779 24.5143 4.93132 24.5343Z" fill="#FAD395"/>
<path d="M16.8752 28.6317C16.8732 28.5538 16.847 28.4784 16.8002 28.4161C16.9313 28.0558 16.9313 27.6608 16.8002 27.3005L15.7314 24.1317C15.494 23.3439 14.9685 22.6744 14.2596 22.2567L14.0627 21.563C14.0303 21.4288 13.9615 21.3062 13.8639 21.2086C13.7663 21.111 13.6437 21.0422 13.5096 21.0099L12.5721 20.813L12.2814 20.5411C11.9869 20.4911 11.6843 20.5269 11.4096 20.6442C11.2127 20.8367 11.0899 21.0922 11.0627 21.3661L11.1658 21.863L7.6033 21.1224L7.2658 20.8786L7.10643 20.1005C7.06947 19.9629 6.99589 19.838 6.89354 19.7389C6.79118 19.6399 6.66387 19.5704 6.52518 19.538L5.70018 19.3599L5.41893 19.1349C4.96893 19.0411 4.14393 19.3317 4.23768 19.7349L4.36893 20.4286C4.20639 20.491 4.05695 20.5832 3.9283 20.7005C3.73389 20.8856 3.60546 21.1292 3.56268 21.3942V21.6099C3.55333 21.7065 3.55333 21.8038 3.56268 21.9005L3.75018 24.8536C3.76321 25.3999 3.96156 25.9255 4.31268 26.3442L4.5283 26.5599C4.78791 26.8368 5.10907 27.0488 5.4658 27.1786C5.83508 27.3633 6.26089 27.4002 6.65642 27.2817H6.73143C6.96265 27.263 7.18437 27.1814 7.3727 27.046C7.56102 26.9105 7.70882 26.7262 7.80017 26.513L7.96892 26.063L8.26892 26.1286C8.47679 26.406 8.77537 26.6018 9.11268 26.6817C9.20799 26.7095 9.30848 26.7147 9.40614 26.6968C9.5038 26.6789 9.59592 26.6384 9.67517 26.5786C9.83131 26.6094 9.99326 26.5862 10.1346 26.513L10.4252 26.5692C10.5136 26.7586 10.644 26.9254 10.8064 27.057C10.9688 27.1885 11.1591 27.2814 11.3627 27.3286C11.4583 27.353 11.5581 27.3564 11.6552 27.3386C11.7523 27.3208 11.8444 27.2822 11.9252 27.2255C12.0359 27.2593 12.1537 27.2623 12.266 27.2343C12.3784 27.2062 12.4809 27.1481 12.5627 27.0661L12.8627 27.5161C12.9839 27.692 13.1186 27.8582 13.2658 28.013C13.7178 28.6208 14.3918 29.0252 15.1408 29.138C15.3879 29.1918 15.6437 29.1918 15.8908 29.138C16.4533 29.1661 16.8752 28.9786 16.8752 28.6317Z" fill="#780364"/>
<path d="M13.4343 25.1064C13.228 25.3033 13.7155 26.0439 14.0999 26.5596C14.1862 26.6968 14.3124 26.8044 14.4614 26.868C14.6105 26.9317 14.7755 26.9483 14.9343 26.9158L18.3093 25.9783C18.3928 25.9575 18.4684 25.9126 18.5267 25.8493C18.585 25.786 18.6235 25.707 18.6374 25.6221C18.6508 25.1217 18.4919 24.6318 18.1874 24.2346C18.0966 24.0681 17.9601 23.9312 17.794 23.8398C17.6278 23.7484 17.4391 23.7065 17.2499 23.7189C15.9358 24.0558 14.6578 24.5205 13.4343 25.1064Z" fill="#9A4C18"/>
<path d="M13.7813 25.1434C13.6032 25.3122 14.0345 25.9497 14.372 26.3903C14.4503 26.5077 14.5613 26.5996 14.6912 26.6546C14.8212 26.7096 14.9644 26.7252 15.1032 26.6997L18.0282 25.8841C18.1024 25.8662 18.1699 25.8276 18.223 25.7728C18.2761 25.7181 18.3126 25.6494 18.3282 25.5747C18.3425 25.1452 18.2139 24.7232 17.9626 24.3747C17.8838 24.2206 17.7599 24.0942 17.6076 24.0121C17.4552 23.9301 17.2815 23.8963 17.1095 23.9153C15.9609 24.2094 14.8456 24.6209 13.7813 25.1434Z" fill="#E5895B"/>
<path d="M13.8939 25.2366C13.7533 25.3678 14.1189 25.9022 14.4002 26.2772C14.4622 26.3698 14.548 26.444 14.6487 26.4918C14.7493 26.5397 14.8611 26.5595 14.972 26.5491L17.2877 26.0241C17.3462 26.0106 17.3995 25.9804 17.4411 25.9371C17.4827 25.8938 17.5108 25.8393 17.522 25.7803C17.5356 25.4162 17.4303 25.0575 17.222 24.7585C17.161 24.6275 17.0626 24.5175 16.9391 24.4424C16.8156 24.3673 16.6727 24.3305 16.5283 24.3366C15.6209 24.543 14.7379 24.8446 13.8939 25.2366Z" fill="#FAD395"/>
<path d="M12.6657 23.4367C12.4595 23.6242 12.947 24.3742 13.3313 24.8805C13.4173 25.0184 13.543 25.1272 13.6919 25.1924C13.8408 25.2577 14.006 25.2764 14.1657 25.2461L17.5313 24.3086C17.6148 24.2878 17.6904 24.2429 17.7487 24.1796C17.807 24.1163 17.8455 24.0373 17.8595 23.9524C17.887 23.4314 17.7311 22.9172 17.4188 22.4992C17.3255 22.335 17.1885 22.1999 17.023 22.1089C16.8575 22.0179 16.67 21.9745 16.4813 21.9836C15.1629 22.3356 13.8843 22.8226 12.6657 23.4367Z" fill="#9A4C18"/>
<path d="M13.0031 23.437C12.8344 23.6058 13.2656 24.2433 13.6031 24.6839C13.6799 24.8005 13.7893 24.892 13.9176 24.947C14.0459 25.002 14.1876 25.0181 14.325 24.9933L17.2594 24.1777C17.3323 24.1592 17.3985 24.1203 17.45 24.0655C17.5015 24.0107 17.5362 23.9422 17.55 23.8683C17.5717 23.435 17.4425 23.0076 17.1844 22.6589C17.1062 22.5065 16.9838 22.3811 16.8333 22.2992C16.6828 22.2172 16.5111 22.1825 16.3406 22.1995C15.1901 22.5012 14.0722 22.9157 13.0031 23.437Z" fill="#E5895B"/>
<path d="M5.12818 20.6243C5.38131 20.7086 5.12818 21.5618 4.97818 22.1993C4.93805 22.3491 4.86137 22.4866 4.75502 22.5995C4.64867 22.7124 4.51597 22.7971 4.36881 22.8461L2.59693 23.4368C2.51129 23.4609 2.421 23.4632 2.33423 23.4435C2.24746 23.4239 2.16697 23.3829 2.10006 23.3243C1.94114 23.1326 1.82198 22.9112 1.74955 22.673C1.67711 22.4347 1.65285 22.1845 1.67818 21.9368C1.65373 21.718 1.70701 21.4976 1.82871 21.3142C1.95041 21.1308 2.13275 20.9961 2.34381 20.9336C3.24493 20.6598 4.18892 20.5549 5.12818 20.6243Z" fill="#9A4C18"/>
<path d="M4.74389 20.8405C4.96889 20.9155 4.74389 21.6843 4.61264 22.2093C4.57971 22.3412 4.51318 22.4623 4.41953 22.5609C4.32589 22.6595 4.20832 22.7321 4.07827 22.7718L2.71889 23.1937C2.64348 23.2163 2.56359 23.2196 2.48658 23.2032C2.40957 23.1868 2.33793 23.1513 2.27827 23.0999C1.99524 22.7626 1.85112 22.3302 1.87514 21.8905C1.86596 21.7021 1.91748 21.5158 2.0221 21.3588C2.12673 21.2019 2.27896 21.0827 2.45639 21.0187C3.19695 20.7941 3.9775 20.7333 4.74389 20.8405Z" fill="#E5895B"/>
<path d="M4.46261 20.9523C4.63136 21.0179 4.46261 21.6554 4.34073 22.0961C4.3145 22.204 4.26238 22.304 4.18888 22.3873C4.11538 22.4706 4.0227 22.5347 3.91886 22.5742L2.81261 23.0148C2.75624 23.0331 2.69597 23.0358 2.6382 23.0226C2.58042 23.0094 2.52731 22.9808 2.48448 22.9398C2.27309 22.6541 2.17612 22.2996 2.21261 21.9461C2.20522 21.7906 2.24518 21.6366 2.3272 21.5044C2.40923 21.3721 2.52945 21.2679 2.67198 21.2054C3.24795 21.0106 3.85519 20.9247 4.46261 20.9523Z" fill="#FAD395"/>
<path d="M4.89379 22.6305C5.10942 22.6962 4.89379 23.4555 4.76254 23.9712C4.72807 24.1009 4.66212 24.2201 4.57054 24.3182C4.47896 24.4163 4.36458 24.4903 4.23754 24.5337L2.72817 24.993C2.65501 25.0147 2.57742 25.0166 2.5033 24.9985C2.42919 24.9803 2.36121 24.9429 2.30629 24.8899C2.03502 24.5589 1.90382 24.135 1.94067 23.7087C1.93139 23.5227 1.9819 23.3386 2.0848 23.1834C2.18771 23.0282 2.33761 22.91 2.51254 22.8462C3.28555 22.6245 4.09355 22.5514 4.89379 22.6305Z" fill="#9A4C18"/>
<path d="M4.56568 22.7898C4.75318 22.8461 4.56568 23.5117 4.45318 23.9523C4.42566 24.0665 4.3688 24.1716 4.28823 24.2571C4.20767 24.3426 4.10618 24.4056 3.99381 24.4398L2.81256 24.7961C2.74653 24.8151 2.67679 24.8174 2.60966 24.8027C2.54253 24.7879 2.48015 24.7567 2.42818 24.7117C2.19601 24.4203 2.0822 24.052 2.10943 23.6804C2.10208 23.5201 2.14638 23.3616 2.23582 23.2283C2.32527 23.0949 2.45513 22.9938 2.60631 22.9398C3.24006 22.7442 3.90955 22.693 4.56568 22.7898Z" fill="#E5895B"/>
<path d="M4.32205 22.8838C4.46267 22.94 4.32205 23.4931 4.21892 23.8213C4.19704 23.9136 4.15323 23.9993 4.09122 24.0711C4.02921 24.1429 3.95082 24.1987 3.86267 24.2338L2.92517 24.6088C2.87521 24.6241 2.82211 24.6261 2.77114 24.6146C2.72016 24.6031 2.67308 24.5785 2.63455 24.5431C2.4619 24.2939 2.38227 23.992 2.40955 23.69C2.41243 23.5631 2.45205 23.4398 2.5236 23.335C2.59515 23.2302 2.69556 23.1483 2.81267 23.0994C3.29739 22.9317 3.80976 22.8585 4.32205 22.8838Z" fill="#FAD395"/>
<path d="M13.1252 23.5215C12.9939 23.6527 13.3596 24.1871 13.6408 24.5527C13.7013 24.6469 13.7869 24.7222 13.888 24.7702C13.989 24.8183 14.1015 24.8371 14.2127 24.8246L16.5189 24.2996C16.578 24.2872 16.6319 24.2574 16.6737 24.2139C16.7155 24.1704 16.7433 24.1153 16.7533 24.0558C16.771 23.6926 16.6689 23.3335 16.4627 23.034C16.3984 22.9062 16.2989 22.7995 16.176 22.7264C16.0531 22.6534 15.9119 22.6169 15.7689 22.6215C14.857 22.8222 13.9702 23.1241 13.1252 23.5215Z" fill="#FAD395"/>
<path d="M6.42165 19.3599C6.63727 19.4912 6.26227 20.2974 5.98102 20.8037C5.91571 20.9367 5.81789 21.0511 5.69663 21.1363C5.57537 21.2216 5.43457 21.2748 5.28727 21.2912L3.11227 21.4693C3.02709 21.4775 2.94127 21.4627 2.86377 21.4264C2.78626 21.3901 2.71991 21.3337 2.67165 21.263C2.45047 20.8415 2.40335 20.3501 2.5404 19.8943C2.56554 19.6883 2.65835 19.4964 2.80426 19.3488C2.95017 19.2012 3.14093 19.1062 3.34665 19.0787C4.3798 19.0258 5.41522 19.1205 6.42165 19.3599Z" fill="#9A4C18"/>
<path d="M6.0281 19.4629C6.2156 19.5754 5.88748 20.2597 5.64373 20.7097C5.58799 20.8262 5.5038 20.9268 5.39894 21.0022C5.29407 21.0776 5.17191 21.1253 5.04373 21.141L3.27185 21.2816C3.19655 21.2874 3.12101 21.274 3.0522 21.2429C2.98339 21.2118 2.92352 21.1638 2.8781 21.1035C2.68434 20.7375 2.64063 20.3105 2.75623 19.9129C2.78109 19.7327 2.86416 19.5655 2.99278 19.4369C3.1214 19.3083 3.28854 19.2252 3.46873 19.2004C4.33037 19.1519 5.19424 19.2405 6.0281 19.4629Z" fill="#E5895B"/>
<path d="M5.31557 19.5183C5.4562 19.6121 5.18432 20.1839 4.98745 20.5589C4.94473 20.655 4.87857 20.7389 4.79503 20.8027C4.7115 20.8666 4.61326 20.9085 4.50932 20.9246L3.40307 21.1308C3.34604 21.1362 3.28857 21.127 3.23609 21.104C3.18361 21.081 3.13783 21.0451 3.10307 20.9996C2.97591 20.7031 2.95602 20.3716 3.04682 20.0621C3.06836 19.9167 3.13376 19.7813 3.23427 19.6741C3.33479 19.5669 3.46563 19.4929 3.60932 19.4621C4.17647 19.372 4.75559 19.3911 5.31557 19.5183Z" fill="#FAD395"/>
<path d="M12.1127 20.082C11.869 20.082 11.9533 20.9445 12.0377 21.507C12.0522 21.6464 12.102 21.7798 12.1824 21.8947C12.2628 22.0095 12.3711 22.1019 12.4971 22.1633L15.3752 22.8945C15.4473 22.9331 15.5278 22.9533 15.6096 22.9533C15.6914 22.9533 15.7719 22.9331 15.844 22.8945C16.1815 22.6789 16.4252 22.6133 16.5002 22.1727C16.5345 21.9802 16.5077 21.7818 16.4237 21.6053C16.3396 21.4288 16.2025 21.283 16.0315 21.1883C14.7635 20.6954 13.4513 20.325 12.1127 20.082Z" fill="#9A4C18"/>
<path d="M12.3658 20.2969C12.1596 20.2969 12.2252 21.0469 12.3002 21.5344C12.3168 21.6562 12.3631 21.7721 12.435 21.8718C12.507 21.9715 12.6023 22.052 12.7127 22.1063L15.2721 22.6031C15.3377 22.6354 15.4099 22.6522 15.483 22.6522C15.5561 22.6522 15.6283 22.6354 15.6939 22.6031C15.9846 22.4156 16.1721 22.4906 16.2283 22.1156C16.2647 21.9478 16.2439 21.7726 16.1692 21.6179C16.0944 21.4633 15.97 21.3382 15.8158 21.2625C14.7006 20.8273 13.5449 20.5038 12.3658 20.2969Z" fill="#E5895B"/>
<path d="M12.4124 20.4375C12.2531 20.4375 12.3093 21.0656 12.3656 21.4688C12.3768 21.5681 12.4116 21.6632 12.4671 21.7464C12.5225 21.8296 12.597 21.8983 12.6843 21.9469L14.8781 22.35C14.9268 22.3771 14.9817 22.3913 15.0374 22.3913C15.0932 22.3913 15.1481 22.3771 15.1968 22.35C15.4218 22.1906 15.3093 22.275 15.3562 21.9563C15.3848 21.8191 15.3694 21.6763 15.3122 21.5484C15.255 21.4204 15.1588 21.3138 15.0374 21.2438C14.1936 20.8824 13.3136 20.6121 12.4124 20.4375Z" fill="#FAD395"/>
<path d="M7.01251 22.2465L6.88126 22.7809C6.866 22.8352 6.86229 22.892 6.87038 22.9478C6.87846 23.0036 6.89816 23.0571 6.9282 23.1048C6.95824 23.1525 6.99795 23.1934 7.04477 23.2248C7.09159 23.2562 7.14448 23.2774 7.20001 23.2871L11.2313 24.0559C11.3014 24.0704 11.3742 24.0665 11.4424 24.0444C11.5106 24.0222 11.5718 23.9827 11.62 23.9297C11.6683 23.8767 11.7019 23.8121 11.7176 23.7422C11.7333 23.6722 11.7304 23.5994 11.7094 23.5309L11.5125 22.9121C11.4909 22.8402 11.4495 22.7758 11.3932 22.7261C11.3369 22.6764 11.2678 22.6434 11.1938 22.6309L7.50001 21.9371C7.39465 21.9171 7.28561 21.9379 7.19505 21.9954C7.10449 22.0528 7.03922 22.1426 7.01251 22.2465Z" fill="#8D2299"/>
<path d="M4.3127 26.2504C4.74846 26.5451 5.27129 26.6833 5.79576 26.6424C6.32023 26.6016 6.81534 26.384 7.2002 26.0254L7.76269 25.0879C7.76269 25.0879 9.96582 25.5941 10.5189 25.6223C11.0721 25.6504 12.6658 25.8941 12.6658 25.8941C12.7761 26.641 13.1363 27.3284 13.6877 27.8441C14.4846 28.3691 15.0002 29.1473 15.8439 29.0816C16.6877 29.016 16.7814 29.4191 16.7814 29.4191C16.5858 29.5136 16.3856 29.598 16.1814 29.6723C16.1252 29.6723 13.4721 29.5691 12.8533 28.0504C12.4466 28.2611 11.9873 28.3491 11.5314 28.3035C11.2439 28.2431 10.9721 28.1236 10.7332 27.9525C10.4943 27.7814 10.2937 27.5626 10.1439 27.3098C10.1439 27.3098 9.71269 28.0316 9.04707 27.966C8.38144 27.9004 7.89395 26.8598 7.89395 26.8598C7.89395 26.8598 8.00645 28.2191 6.68457 28.1723C6.15598 28.1312 5.64403 27.9685 5.18868 27.6969C4.73333 27.4254 4.34691 27.0522 4.05957 26.6066L4.3127 26.2504Z" fill="#4A0751"/>
<path d="M7.0877 22.3223L11.5596 23.1379C11.5313 22.9767 11.4841 22.8193 11.4189 22.6691C11.3533 22.5566 7.3502 21.9004 7.3502 21.9004C7.26133 21.9071 7.17799 21.9461 7.11584 22.01C7.05369 22.0739 7.01701 22.1582 7.0127 22.2473" fill="#AA3C98"/>
<path d="M18.0939 27.4223L17.7471 27.891L19.3971 29.0254L28.7533 19.7348L27.2158 17.7754L18.0939 27.4223Z" fill="#9A4C18"/>
<path d="M28.95 22.3691C28.7351 24.2274 27.8484 25.9431 26.4567 27.1932C25.065 28.4432 23.2644 29.1415 21.3938 29.1566C20.5537 29.1791 19.7198 29.0076 18.9568 28.6554C18.1938 28.3032 17.5223 27.7799 16.9944 27.126C16.4666 26.472 16.0966 25.7052 15.9133 24.8851C15.73 24.065 15.7383 23.2136 15.9375 22.3972C16.3146 20.7235 17.2341 19.2214 18.5532 18.1244C19.8723 17.0274 21.5169 16.3971 23.2313 16.3316C24.0208 16.2905 24.8098 16.4212 25.5439 16.7147C26.278 17.0081 26.9397 17.4573 27.4833 18.0312C28.027 18.6052 28.4396 19.2902 28.6929 20.0392C28.9461 20.7881 29.0338 21.583 28.95 22.3691Z" fill="#225E22"/>
<path d="M29.8877 23.5123C29.6591 25.3084 28.7821 26.9592 27.4216 28.1539C26.0611 29.3487 24.3109 30.0051 22.5002 29.9998C21.6906 30.036 20.8835 29.8839 20.1426 29.5556C19.4016 29.2272 18.7469 28.7314 18.23 28.1072C17.713 27.483 17.3478 26.7474 17.1632 25.9583C16.9786 25.1691 16.9795 24.3479 17.1659 23.5592C17.563 21.9529 18.4758 20.5211 19.7643 19.4831C21.0529 18.4451 22.6462 17.8582 24.3002 17.8123C25.0567 17.7622 25.815 17.8762 26.5233 18.1465C27.2315 18.4169 27.873 18.8371 28.4037 19.3785C28.9343 19.9198 29.3417 20.5695 29.5979 21.283C29.854 21.9965 29.9529 22.757 29.8877 23.5123Z" fill="#225E22"/>
<path d="M19.1436 27.6664L20.7279 28.5195L28.3779 20.4945L27.1217 18.8164L19.1436 27.6664Z" fill="#949494"/>
<path d="M29.1561 23.5501C28.9659 25.0602 28.2355 26.4505 27.0998 27.4638C25.9641 28.4771 24.4999 29.0451 22.9779 29.0626C22.2931 29.0829 21.6127 28.9459 20.9891 28.6622C20.3655 28.3784 19.8153 27.9555 19.3807 27.4258C18.9461 26.8962 18.6387 26.2739 18.4822 25.6069C18.3257 24.9399 18.3243 24.2459 18.4779 23.5782C18.7768 22.1918 19.5288 20.9444 20.6152 20.0329C21.7017 19.1213 23.0607 18.5974 24.4779 18.5438C25.1288 18.5138 25.7784 18.6255 26.3819 18.8712C26.9853 19.1168 27.5282 19.4906 27.9731 19.9667C28.4179 20.4427 28.7541 21.0097 28.9583 21.6284C29.1626 22.2471 29.2301 22.9028 29.1561 23.5501Z" fill="#358761"/>
<path d="M28.1248 22.3316C27.9263 23.9416 27.1529 25.4257 25.9472 26.5109C24.7414 27.5961 23.1843 28.2093 21.5623 28.2378C20.8289 28.2603 20.1002 28.1138 19.4326 27.8095C18.7649 27.5051 18.1762 27.0513 17.7122 26.4829C17.2481 25.9146 16.921 25.2471 16.7563 24.5321C16.5916 23.8171 16.5937 23.0738 16.7623 22.3597C17.0839 20.8832 17.8878 19.5557 19.0471 18.5865C20.2064 17.6173 21.6553 17.0614 23.1655 17.0066C23.8566 16.9762 24.5461 17.0962 25.1864 17.3583C25.8267 17.6204 26.4025 18.0183 26.874 18.5246C27.3455 19.0309 27.7015 19.6334 27.9175 20.2907C28.1334 20.948 28.2042 21.6443 28.1248 22.3316Z" fill="#75EF75"/>
<path d="M23.0531 17.5694C21.6357 17.6176 20.2752 18.1384 19.188 19.0489C18.1008 19.9595 17.3493 21.2075 17.0531 22.5944C16.8645 23.4422 16.9243 24.3263 17.2253 25.141C17.5262 25.9557 18.0555 26.6665 18.7499 27.1881C20.3481 23.8952 22.181 20.7214 24.2343 17.6912C23.8471 17.6022 23.4503 17.5612 23.0531 17.5694Z" fill="#75EF75"/>
<path d="M18.75 27.1871C19.563 27.7926 20.5488 28.1213 21.5625 28.1246C22.7614 28.129 23.934 27.773 24.9281 27.1027C24.0721 25.2045 22.9377 23.4445 21.5625 21.8809C20.537 23.6016 19.5983 25.3725 18.75 27.1871Z" fill="#4ED154"/>
<path d="M24.2248 17.6914C23.2873 19.0695 22.4248 20.457 21.5811 21.882C22.9391 23.4338 24.0606 25.1776 24.9092 27.057C25.6812 26.5635 26.3341 25.9046 26.8204 25.128C27.3068 24.3514 27.6147 23.4765 27.7217 22.5664C27.8599 21.4628 27.5766 20.3476 26.9283 19.4438C26.28 18.54 25.3145 17.9142 24.2248 17.6914Z" fill="#75EF75"/>
<path d="M24.5439 18.8906C22.9579 21.2166 21.5478 23.6578 20.3252 26.1938C20.9541 26.6429 21.7086 26.8824 22.4814 26.8781C23.6443 26.8555 24.76 26.4147 25.6243 25.6365C26.4887 24.8583 27.0437 23.7947 27.1877 22.6406C27.2941 21.7984 27.0819 20.9469 26.5928 20.2531C26.1037 19.5593 25.3729 19.0733 24.5439 18.8906Z" fill="#4ED154"/>
<path d="M26.5125 22.5655C26.3556 23.7284 25.7869 24.7965 24.9096 25.5757C24.0322 26.355 22.9046 26.7938 21.7313 26.8124C21.2014 26.8288 20.6748 26.7242 20.1914 26.5066C19.708 26.2889 19.2806 25.9639 18.9416 25.5563C18.6027 25.1487 18.3612 24.6691 18.2354 24.1541C18.1096 23.6391 18.1028 23.1023 18.2157 22.5843C18.4422 21.4973 19.0276 20.5181 19.8777 19.804C20.7279 19.0899 21.7934 18.6823 22.9032 18.6468C23.4108 18.6218 23.9177 18.7087 24.3881 18.9013C24.8584 19.0939 25.2807 19.3875 25.6251 19.7613C25.9694 20.1352 26.2274 20.5801 26.3807 21.0647C26.5341 21.5493 26.5791 22.0616 26.5125 22.5655Z" fill="#75EF75"/>
<path d="M26.5689 21.9939C26.4117 23.1475 25.8452 24.2062 24.9728 24.9771C24.1003 25.748 22.98 26.1799 21.8158 26.1939C21.2906 26.2146 20.7677 26.1147 20.2871 25.9019C19.8066 25.6891 19.3812 25.369 19.0435 24.9662C18.7059 24.5634 18.4651 24.0886 18.3394 23.5782C18.2138 23.0679 18.2068 22.5355 18.3189 22.022C18.5433 20.9365 19.1289 19.959 19.9802 19.249C20.8315 18.539 21.8982 18.1385 23.0064 18.1127C23.508 18.0907 24.0082 18.1787 24.4721 18.3706C24.936 18.5625 25.3523 18.8536 25.6918 19.2234C26.0313 19.5933 26.2857 20.0329 26.4372 20.5115C26.5888 20.9901 26.6337 21.4961 26.5689 21.9939Z" fill="#358761"/>
<path d="M22.8095 19.2383C21.8693 19.2685 20.9669 19.6155 20.2487 20.223C19.5305 20.8306 19.0388 21.663 18.8532 22.5852C18.7663 23.0244 18.7775 23.4774 18.8861 23.9117C18.9947 24.3461 19.198 24.7511 19.4814 25.0977C20.8689 23.1758 22.3876 21.4039 23.6064 19.3227C23.3446 19.2654 23.0774 19.2371 22.8095 19.2383Z" fill="#C0FFC0"/>
<path d="M23.6064 19.3223C22.3877 21.4035 20.8689 23.1754 19.4814 25.0973C19.773 25.4306 20.1337 25.6964 20.5385 25.8762C20.9433 26.0559 21.3824 26.1452 21.8252 26.1379C22.8106 26.119 23.7571 25.7502 24.4956 25.0976C25.2341 24.445 25.7165 23.551 25.8564 22.5754C25.9613 21.8493 25.7876 21.1104 25.3702 20.507C24.9529 19.9036 24.3228 19.4804 23.6064 19.3223Z" fill="#75EF75"/>
<path d="M23.3627 18.834L23.8971 20.9809L26.2314 21.5809L24.0846 23.034L23.9158 25.4902L21.9846 24.084L19.4814 24.9652L20.5596 22.6309L19.2939 20.8121L21.7596 20.7465L23.3627 18.834Z" fill="#358761"/>
<path d="M23.1469 19.8379L22.0406 21.1504L20.3438 21.1973L21.2156 22.5004L20.475 24.1035L22.0969 23.5316C22.4344 22.3691 22.8281 21.2254 23.1937 20.0723L23.1469 19.8379Z" fill="#75EF75"/>
<path d="M23.5123 21.3098L23.1936 20.0254C22.8279 21.1785 22.4342 22.3223 22.0967 23.4848H22.1998L23.5311 24.4223L23.6436 22.7254L25.1248 21.7223L23.5123 21.3098Z" fill="#4ED154"/>
</g>
<defs>
<clipPath id="clip0_47_29576">
<rect width="30" height="30" fill="white"/>
</clipPath>
</defs>
</svg>
