<svg width="63" height="24" viewBox="0 0 63 24" fill="none" xmlns="http://www.w3.org/2000/svg">
<path d="M10.434 6.17141L-7.7038e-05 16.6728L5.55688 22.2656L15.991 11.7642L10.434 6.17141Z" fill="#769AF2"/>
<path d="M62.3104 16.7563L51.8763 6.25486L46.3194 11.8477L56.7534 22.3491L62.3104 16.7563Z" fill="#769AF2"/>
<path d="M50.0489 20.3588C47.8725 22.6111 44.9792 23.8516 41.9018 23.8516C38.8243 23.8516 35.931 22.6111 33.755 20.3592C33.755 20.3588 23.0032 9.22546 23.0032 9.22546C21.5641 7.73625 19.2228 7.73625 17.784 9.22546C17.0869 9.94667 16.7032 10.9061 16.7032 11.9263C16.7032 12.9465 17.0869 13.9059 17.784 14.6271C18.5036 15.3719 19.4485 15.7441 20.3935 15.7441C21.3384 15.7441 22.2837 15.3716 23.0029 14.6271L23.766 13.8373L29.3023 19.5704L28.5406 20.3588C26.3645 22.6111 23.4713 23.8516 20.3935 23.8516C17.316 23.8516 14.4224 22.6111 12.2464 20.3588C10.0703 18.1062 8.87183 15.1116 8.87183 11.9263C8.87183 8.74102 10.0703 5.74607 12.2464 3.49379C14.4224 1.24151 17.316 0.00103188 20.3935 0.00103188C23.4709 0.00103188 26.3642 1.24116 28.5402 3.49344L36.6832 11.9256L39.2845 14.6194L39.292 14.6271C40.7311 16.1163 43.0724 16.1163 44.5112 14.6271C45.2083 13.9059 45.5921 12.9465 45.5921 11.9263C45.5921 10.9061 45.2083 9.94667 44.5112 9.22546C43.0724 7.73625 40.7311 7.73625 39.292 9.22546L38.5289 10.0153L32.9926 4.28219L33.7547 3.49379C35.9307 1.24151 38.8239 0.00103188 41.9014 0.00103188C44.9789 0.00103188 47.8725 1.24151 50.0485 3.49379C52.2249 5.74607 53.4234 8.74102 53.4234 11.9263C53.4234 15.1116 52.2249 18.1062 50.0489 20.3588Z" fill="#4A74EA"/>
</svg>
