<svg width="24" height="24" viewBox="0 0 24 24" fill="none" xmlns="http://www.w3.org/2000/svg">
<path d="M22.3251 11.9997C22.3251 17.7022 17.7022 22.3251 11.9997 22.3251V23.9995C18.627 23.9995 23.9995 18.627 23.9995 11.9997H22.3251ZM11.9997 22.3251C6.2972 22.3251 1.67438 17.7022 1.67438 11.9997H0C0 18.627 5.37246 23.9995 11.9997 23.9995V22.3251ZM1.67438 11.9997C1.67438 6.2972 6.2972 1.67438 11.9997 1.67438V0C5.37246 0 0 5.37246 0 11.9997H1.67438ZM11.9997 1.67438C17.7022 1.67438 22.3251 6.2972 22.3251 11.9997H23.9995C23.9995 5.37246 18.627 0 11.9997 0V1.67438Z" fill="#010101"/>
<path d="M7.94461 13.234C7.73971 12.8877 7.29676 12.7754 6.95526 12.9832C6.61375 13.1909 6.50302 13.6402 6.70792 13.9865L7.94461 13.234ZM14.3739 14.4196L14.8824 14.9381L14.8838 14.9367L14.3739 14.4196ZM16.3568 11.9205C16.4136 11.5208 16.1402 11.15 15.746 11.0923C15.3519 11.0346 14.9862 11.3119 14.9293 11.7116L16.3568 11.9205ZM6.70792 13.9865C6.91223 14.3318 7.16053 14.6519 7.44132 14.9367L8.46111 13.9024C8.26117 13.6997 8.08643 13.4737 7.94461 13.234L6.70792 13.9865ZM7.44132 14.9367C9.49281 17.0172 12.8231 17.0151 14.8824 14.9381L13.8654 13.9011C12.3672 15.4122 9.94787 15.4102 8.46111 13.9024L7.44132 14.9367ZM14.8838 14.9367C15.7248 14.0837 16.202 13.008 16.3568 11.9205L14.9293 11.7116C14.8149 12.5158 14.4651 13.2928 13.864 13.9024L14.8838 14.9367Z" fill="#010101"/>
<path d="M5.96887 10.4056C5.91255 10.8054 6.18649 11.1758 6.58075 11.233C6.975 11.2901 7.34027 11.0122 7.39659 10.6124L5.96887 10.4056ZM14.3746 7.90552L14.8845 7.38841L14.8831 7.38701L14.3746 7.90552ZM14.3868 9.10051C14.5968 9.44366 15.0414 9.54918 15.3798 9.33619C15.7182 9.1232 15.8222 8.67234 15.6122 8.32919L14.3868 9.10051ZM7.39659 10.6124C7.51092 9.80078 7.85964 9.0333 8.46179 8.42263L7.44199 7.38841C6.60192 8.24035 6.12375 9.30608 5.96887 10.4056L7.39659 10.6124ZM8.46179 8.42263C9.94853 6.91487 12.3678 6.91286 13.866 8.42403L14.8831 7.38701C12.8238 5.30994 9.49347 5.30793 7.44199 7.38841L8.46179 8.42263ZM13.8647 8.42263C14.0682 8.62901 14.2369 8.85552 14.3868 9.10051L15.6122 8.32919C15.416 8.00863 15.1809 7.68907 14.8845 7.38841L13.8647 8.42263Z" fill="#010101"/>
<path d="M6.42318 16.2131C6.42318 16.6169 6.74603 16.9444 7.14429 16.9444C7.54255 16.9444 7.8654 16.6169 7.8654 16.2131H6.42318ZM7.14429 13.6096V12.8783C6.74603 12.8783 6.42318 13.2058 6.42318 13.6096H7.14429ZM9.71142 14.3409C10.1097 14.3409 10.4325 14.0135 10.4325 13.6096C10.4325 13.2058 10.1097 12.8783 9.71142 12.8783V14.3409ZM7.8654 16.2131V13.6096H6.42318V16.2131H7.8654ZM7.14429 14.3409H9.71142V12.8783H7.14429V14.3409Z" fill="#010101"/>
<path d="M15.9024 6.11127C15.9024 5.70738 15.5796 5.37997 15.1813 5.37997C14.7831 5.37997 14.4602 5.70738 14.4602 6.11127H15.9024ZM15.1813 8.71468V9.44598C15.5796 9.44598 15.9024 9.11857 15.9024 8.71468H15.1813ZM12.6142 7.98338C12.2159 7.98338 11.8931 8.3108 11.8931 8.71468C11.8931 9.11857 12.2159 9.44598 12.6142 9.44598V7.98338ZM14.4602 6.11127V8.71468H15.9024V6.11127H14.4602ZM15.1813 7.98338H12.6142V9.44598H15.1813V7.98338Z" fill="#101010"/>
</svg>
