<svg width="350" height="83" viewBox="0 0 350 83" fill="none" xmlns="http://www.w3.org/2000/svg">
<g clip-path="url(#clip0_47_13572)">
<path d="M349.369 62.6282C349.369 71.0132 342.268 79.5065 329.445 79.5065C316.456 79.5065 309.421 72.911 307.689 62.6931L318.181 60.2252C319.061 66.1496 323.86 69.4257 329.813 69.4257C334.994 69.4257 337.967 66.6547 337.967 63.3065C337.967 60.6004 335.6 58.3635 331.812 57.6202L324.134 56.0976C315.374 54.373 309.702 48.7589 309.702 40.5038C309.702 30.8271 318.462 23.5894 328.882 23.5894C341.402 23.5894 347.529 31.0652 348.474 38.0215L338.292 41.0306C337.412 36.802 334.366 33.6486 328.781 33.6486C324.177 33.6486 320.844 36.535 320.844 39.6379C320.844 42.2429 322.503 44.5087 326.458 45.2592L334.006 46.6446C344.058 48.5136 349.369 54.9503 349.369 62.6282ZM302.241 51.3639C302.241 55.0712 301.508 58.742 300.085 62.1654C298.663 65.5887 296.577 68.6973 293.95 71.3123C291.322 73.9274 288.203 75.9975 284.773 77.4037C281.343 78.8099 277.668 79.5245 273.961 79.5065C258.331 79.5065 245.876 67.2969 245.876 51.6309C245.889 47.9266 246.634 44.2614 248.067 40.8454C249.5 37.4295 251.593 34.33 254.226 31.7248C256.859 29.1196 259.981 27.0598 263.412 25.6638C266.844 24.2677 270.517 23.5628 274.221 23.5894C289.822 23.5894 302.241 35.7701 302.241 51.3639ZM290.774 51.5299C290.774 47.1013 289.015 42.8542 285.884 39.7227C282.752 36.5912 278.505 34.832 274.077 34.832C269.648 34.832 265.401 36.5912 262.269 39.7227C259.138 42.8542 257.379 47.1013 257.379 51.5299C257.379 60.9107 264.725 68.6463 274.098 68.6463C283.472 68.6463 290.774 60.8674 290.774 51.5299ZM239.858 63.7106C239.858 74.7439 230.116 78.6983 220.541 78.6983H197.731V24.4265H220.231C228.955 24.4265 237.549 29.0736 237.549 38.7792C237.549 44.184 234.663 47.9507 229.936 50.3825V50.5124C236.344 52.9226 239.858 56.5378 239.858 63.7106ZM208.634 46.457H217.936C221.926 46.457 226.595 45.4107 226.595 40.5327C226.595 36.0371 222.496 34.7598 218.708 34.7598H208.634V46.457ZM228.897 62.2529C228.897 57.2522 224.192 56.1987 220.028 56.1987H208.634V68.2783H220.404C224.43 68.2783 228.897 67.1093 228.897 62.2529ZM188.401 51.3639C188.401 55.0718 187.668 58.7432 186.245 62.167C184.821 65.5909 182.735 68.6997 180.107 71.3149C177.478 73.9301 174.359 76 170.928 77.4058C167.497 78.8116 163.822 79.5255 160.114 79.5065C144.484 79.5065 132.036 67.2969 132.036 51.6309C132.049 47.9291 132.793 44.2662 134.224 40.8522C135.655 37.4381 137.745 34.3399 140.376 31.7351C143.006 29.1302 146.124 27.0699 149.552 25.6721C152.98 24.2744 156.65 23.5666 160.352 23.5894C175.982 23.5894 188.401 35.7701 188.401 51.3639ZM176.927 51.5299C176.973 49.3084 176.576 47.1 175.757 45.0341C174.939 42.9682 173.717 41.0864 172.162 39.499C170.607 37.9115 168.751 36.6503 166.703 35.7894C164.654 34.9284 162.455 34.4849 160.233 34.4849C158.011 34.4849 155.811 34.9284 153.763 35.7894C151.714 36.6503 149.858 37.9115 148.304 39.499C146.749 41.0864 145.526 42.9682 144.708 45.0341C143.89 47.1 143.492 49.3084 143.539 51.5299C143.539 60.9107 150.877 68.6463 160.244 68.6463C169.61 68.6463 176.927 60.8674 176.927 51.5299ZM111.983 34.3052V68.9061C111.997 75.7685 107.126 82.9846 98.1497 82.9846H37.2175C28.616 82.9846 23.9761 75.7685 23.9761 68.9061V56.3935C23.9604 55.8994 23.7595 55.4292 23.4133 55.0763C23.0671 54.7234 22.6009 54.5136 22.1071 54.4885C15.4319 53.1454 9.49175 49.375 5.4353 43.9062C1.37884 38.4374 -0.505765 31.6587 0.145889 24.881C0.797544 18.1033 3.93917 11.8079 8.96329 7.21215C13.9874 2.61642 20.5371 0.0468185 27.346 0.000207671C31.4361 -0.0158261 35.4765 0.89678 39.1627 2.66924C42.8489 4.4417 46.0846 7.02777 48.6261 10.2325C49.6002 11.4665 50.0693 11.3727 51.0362 10.8676L61.4922 4.89989C64.2343 3.31237 68.5639 1.55887 74.0409 4.79887L84.064 10.5717L106.665 23.7554C111.997 26.9016 111.997 31.0291 111.997 34.3052H111.983ZM108.649 34.3052C108.649 31.0147 108.526 28.7489 104.969 26.649C100.538 24.0368 73.9904 8.65945 72.3379 7.68528C68.7804 5.59263 66.0239 6.14105 63.1303 7.80795C62.5025 8.17597 58.0791 10.6944 52.5949 13.8189C50.5744 14.923 48.2003 15.0817 46.0066 12.3252C43.7727 9.52056 40.9343 7.25661 37.7031 5.70226C34.472 4.14791 30.9315 3.34329 27.346 3.34845C21.3686 3.39142 15.6195 5.64877 11.2097 9.68417C6.79997 13.7196 4.04279 19.2465 3.47112 25.1966C2.89944 31.1466 4.55387 37.0974 8.11461 41.8986C11.6753 46.6998 16.8896 50.0105 22.7494 51.1907C24.0151 51.3482 25.179 51.9651 26.0197 52.9242C26.8605 53.8834 27.3196 55.118 27.3099 56.3935V68.9061C27.3099 73.3512 30.0953 79.6291 37.2175 79.6291H98.1497C104.926 79.6291 108.7 74.3398 108.7 68.9061L108.649 34.3052ZM92.514 36.802C71.2772 38.3101 70.7288 38.2452 49.5641 36.802C46.5478 36.5061 48.4817 42.1491 50.062 42.4233C59.5511 44.3211 61.9468 44.7396 61.9468 47.3735C61.651 51.7464 61.55 55.7296 55.604 72.9543C54.1607 76.1726 60.2727 75.1985 61.0015 73.5532C64.8116 66.1857 67.2145 60.3479 69.7257 57.4831C69.8896 57.2949 70.092 57.144 70.3192 57.0406C70.5464 56.9372 70.7931 56.8837 71.0427 56.8837C71.2923 56.8837 71.539 56.9372 71.7661 57.0406C71.9933 57.144 72.1957 57.2949 72.3596 57.4831C74.8708 60.3695 77.2737 66.1857 81.0838 73.5532C81.8054 75.1985 87.8885 76.1726 86.4814 72.9543C80.5426 55.7296 80.4343 51.7464 80.1385 47.3735C80.1385 44.7613 82.5342 44.3211 92.0161 42.4305C93.6036 42.1563 95.5303 36.5133 92.514 36.802ZM71.0174 34.2764C72.2455 34.2849 73.4484 33.9285 74.4736 33.2523C75.4988 32.5761 76.3 31.6106 76.7756 30.4784C77.2512 29.3461 77.3797 28.098 77.1449 26.8926C76.91 25.6872 76.3224 24.5787 75.4565 23.7077C74.5907 22.8368 73.4856 22.2427 72.2816 22.0008C71.0775 21.7589 69.8287 21.8801 68.6937 22.3491C67.5587 22.8181 66.5885 23.6136 65.9063 24.6348C65.2242 25.6561 64.8607 26.8569 64.8621 28.085C64.8583 29.722 65.5044 31.2935 66.6585 32.4544C67.8127 33.6153 69.3804 34.2706 71.0174 34.2764ZM27.346 11.7912C24.235 11.7726 21.1886 12.6781 18.5929 14.393C15.9972 16.1078 13.9692 18.5547 12.7658 21.4235C11.5624 24.2923 11.2378 27.4539 11.8334 30.5073C12.4289 33.5608 13.9176 36.3687 16.1108 38.5751C18.304 40.7814 21.1029 42.287 24.1528 42.9007C27.2026 43.5145 30.366 43.209 33.242 42.0228C36.118 40.8366 38.577 38.8232 40.3073 36.2378C42.0377 33.6524 42.9614 30.6115 42.9615 27.5005C42.9681 25.4436 42.5694 23.4055 41.7882 21.5026C41.0069 19.5998 39.8584 17.8695 38.4083 16.4107C36.9582 14.9519 35.2348 13.793 33.3367 13.0004C31.4386 12.2078 29.4029 11.7969 27.346 11.7912Z" fill="white"/>
</g>
<defs>
<clipPath id="clip0_47_13572">
<rect width="349.978" height="82.9844" fill="white" transform="translate(0.0117188)"/>
</clipPath>
</defs>
</svg>
