<svg width="20" height="21" viewBox="0 0 20 21" fill="none" xmlns="http://www.w3.org/2000/svg">
<path d="M13.0871 8.2923C13.094 8.28701 13.1011 8.28196 13.1076 8.2763C13.1979 8.19879 13.2481 8.0938 13.2473 7.98459L13.2242 4.96254C13.2224 4.7371 13.0078 4.55509 12.7437 4.55509H10.4125V0.410114C10.4125 0.183649 10.1974 0 9.93203 0C9.66669 0 9.45153 0.183649 9.45153 0.410114V4.55509H7.09732C6.96936 4.55509 6.84664 4.59869 6.75645 4.67616C6.66622 4.75367 6.61596 4.85862 6.61682 4.96787L6.63988 7.98992C6.64075 8.10291 6.69514 8.20494 6.7824 8.27868C4.86093 9.20419 3.56243 10.9517 3.56243 12.9509C3.56243 15.9162 6.41463 18.3287 9.92045 18.3287C13.4263 18.3287 16.2785 15.9162 16.2785 12.9509C16.2785 10.9616 14.9929 9.22129 13.0871 8.2923ZM7.59776 7.57714L7.58094 5.37532H12.2663L12.2832 7.57714H7.59776ZM9.92049 17.5085C6.94452 17.5085 4.52348 15.4639 4.52348 12.9509C4.52348 10.44 6.94457 8.39737 9.92049 8.39737C12.8964 8.39737 15.3175 10.4401 15.3175 12.9509C15.3175 15.4639 12.8965 17.5085 9.92049 17.5085Z" fill="#B0B6C4"/>
<path d="M9.92054 19.3822C9.65521 19.3822 9.44004 19.5658 9.44004 19.7923V20.5906C9.44004 20.8171 9.65521 21.0007 9.92054 21.0007C10.1859 21.0007 10.401 20.8171 10.401 20.5906V19.7923C10.401 19.5658 10.1859 19.3822 9.92054 19.3822Z" fill="#B0B6C4"/>
<path d="M1.42502 12.2015H0.4805C0.215168 12.2015 0 12.3852 0 12.6116C0 12.8381 0.215168 13.0217 0.4805 13.0217H1.42502C1.69035 13.0217 1.90552 12.8381 1.90552 12.6116C1.90552 12.3852 1.6904 12.2015 1.42502 12.2015Z" fill="#B0B6C4"/>
<path d="M19.3607 12.2015H18.4162C18.1508 12.2015 17.9357 12.3852 17.9357 12.6116C17.9357 12.8381 18.1508 13.0217 18.4162 13.0217H19.3607C19.626 13.0217 19.8412 12.8381 19.8412 12.6116C19.8412 12.3852 19.626 12.2015 19.3607 12.2015Z" fill="#B0B6C4"/>
<path d="M3.57572 17.3969L2.90787 17.9614C2.71928 18.1208 2.71784 18.3805 2.90456 18.5414C2.99854 18.6224 3.12222 18.6629 3.24595 18.6629C3.36814 18.6629 3.49038 18.6234 3.58403 18.5442L4.25188 17.9797C4.44047 17.8203 4.44191 17.5606 4.25519 17.3997C4.06847 17.2387 3.76427 17.2376 3.57572 17.3969Z" fill="#B0B6C4"/>
<path d="M16.2658 17.3969C16.0773 17.2375 15.773 17.2388 15.5862 17.3997C15.3995 17.5606 15.401 17.8203 15.5895 17.9797L16.2574 18.5442C16.351 18.6234 16.4733 18.6629 16.5955 18.6629C16.7192 18.6629 16.8429 18.6224 16.9369 18.5414C17.1236 18.3804 17.1221 18.1208 16.9336 17.9614L16.2658 17.3969Z" fill="#B0B6C4"/>
</svg>
