<svg width="33" height="22" viewBox="0 0 33 22" fill="none" xmlns="http://www.w3.org/2000/svg">
<g clip-path="url(#clip0_47_16712)">
<path d="M32.9998 8.69376C32.9991 8.78729 32.9783 8.87957 32.939 8.96443C32.8997 9.04928 32.8427 9.12475 32.7718 9.18576L28.4878 12.9998L24.2048 9.18576C24.1334 9.12567 24.076 9.05079 24.0364 8.96629C23.9968 8.8818 23.9761 8.78972 23.9756 8.69642C23.9751 8.60312 23.9949 8.51083 24.0336 8.42594C24.0723 8.34105 24.129 8.26558 24.1998 8.20476C24.3517 8.07321 24.5458 8.00055 24.7467 8C24.9477 7.99945 25.1422 8.07105 25.2948 8.20176L28.4878 11.0458L31.6808 8.20176C31.8333 8.07131 32.0276 7.99988 32.2283 8.00043C32.4291 8.00098 32.6229 8.07348 32.7748 8.20476C32.9248 8.33976 32.9998 8.51776 32.9998 8.69376Z" fill="#9798A0"/>
</g>
<defs>
<clipPath id="clip0_47_16712">
<rect width="9" height="5" fill="white" transform="translate(24 8)"/>
</clipPath>
</defs>
</svg>
