<svg width="36" height="36" viewBox="0 0 36 36" fill="none" xmlns="http://www.w3.org/2000/svg">
<path d="M31.6433 10.9666C31.4786 10.3545 31.156 9.79632 30.7078 9.34809C30.2596 8.89986 29.7014 8.57725 29.0893 8.41259C26.8373 7.80859 17.8053 7.80859 17.8053 7.80859C17.8053 7.80859 8.77228 7.80859 6.52028 8.41259C5.90814 8.57725 5.35001 8.89986 4.90178 9.34809C4.45354 9.79632 4.13094 10.3545 3.96628 10.9666C3.36328 13.2186 3.36328 17.9186 3.36328 17.9186C3.36328 17.9186 3.36328 22.6186 3.96628 24.8706C4.13085 25.4828 4.45342 26.041 4.90167 26.4892C5.34991 26.9375 5.9081 27.26 6.52028 27.4246C8.77228 28.0276 17.8043 28.0276 17.8043 28.0276C17.8043 28.0276 26.8373 28.0276 29.0893 27.4246C29.7015 27.26 30.2596 26.9375 30.7079 26.4892C31.1561 26.041 31.4787 25.4828 31.6433 24.8706C32.2463 22.6186 32.2463 17.9186 32.2463 17.9186C32.2463 17.9186 32.2463 13.2186 31.6433 10.9666Z" fill="white"/>
<path d="M14.918 22.2519L22.422 17.9189L14.918 13.5859V22.2519Z" fill="#212121"/>
</svg>
