<svg width="20" height="18" viewBox="0 0 20 18" fill="none" xmlns="http://www.w3.org/2000/svg">
<path d="M19.6714 15.4437L15.8949 12.2298C17.1134 10.9048 17.7745 9.26871 17.7721 7.58436C17.7721 6.08432 17.2509 4.61796 16.2745 3.37072C15.2981 2.12348 13.9103 1.15137 12.2866 0.577328C10.6629 0.00328616 8.87617 -0.146909 7.15245 0.145735C5.42873 0.438379 3.84539 1.16072 2.60266 2.22141C1.35993 3.2821 0.513616 4.63351 0.170746 6.10473C-0.172123 7.57595 0.00385015 9.10091 0.676412 10.4868C1.34897 11.8726 2.48792 13.0571 3.94922 13.8905C5.41052 14.7239 7.12854 15.1687 8.88603 15.1687C10.8595 15.1708 12.7764 14.6065 14.3287 13.5665L18.0942 16.7899C18.1974 16.8787 18.3203 16.9493 18.4556 16.9974C18.591 17.0455 18.7362 17.0703 18.8828 17.0703C19.0294 17.0703 19.1746 17.0455 19.31 16.9974C19.4453 16.9493 19.5682 16.8787 19.6714 16.7899C19.7755 16.7017 19.8582 16.5969 19.9146 16.4814C19.971 16.3658 20 16.2419 20 16.1168C20 15.9916 19.971 15.8677 19.9146 15.7522C19.8582 15.6366 19.7755 15.5318 19.6714 15.4437ZM2.22151 7.58436C2.22151 6.45933 2.61238 5.35956 3.34468 4.42413C4.07699 3.4887 5.11785 2.75962 6.33563 2.32909C7.55341 1.89856 8.89342 1.78591 10.1862 2.00539C11.479 2.22488 12.6665 2.76663 13.5986 3.56215C14.5306 4.35767 15.1653 5.37122 15.4225 6.47464C15.6796 7.57805 15.5477 8.72178 15.0432 9.76117C14.5388 10.8006 13.6846 11.689 12.5886 12.314C11.4927 12.939 10.2041 13.2726 8.88603 13.2726C7.11849 13.2726 5.42334 12.6733 4.1735 11.6066C2.92366 10.5398 2.22151 9.09299 2.22151 7.58436Z" fill="#B0B6C4"/>
</svg>
