<svg width="22" height="22" viewBox="0 0 22 22" fill="none" xmlns="http://www.w3.org/2000/svg">
<g clip-path="url(#clip0_47_80394)">
<path fill-rule="evenodd" clip-rule="evenodd" d="M10.5217 0.257812C4.73478 0.257812 0 4.99259 0 10.7795C0 16.5665 4.73478 21.3013 10.5217 21.3013C16.3087 21.3013 21.0435 16.5665 21.0435 10.7795C21.0435 4.99259 16.3087 0.257812 10.5217 0.257812ZM17.6896 11.3056C17.6896 12.4236 17.5581 13.5415 17.5581 13.5415C17.5581 13.5415 17.4266 14.4621 16.9663 14.9225C16.54 15.3488 16.0273 15.4297 15.7082 15.48C15.6335 15.4917 15.5695 15.5019 15.5196 15.5143C13.4809 15.6458 10.5217 15.6458 10.5217 15.6458C10.5217 15.6458 6.77337 15.6458 5.65543 15.5143C5.59709 15.5026 5.52631 15.4931 5.44642 15.4823C5.07611 15.432 4.5099 15.3552 4.07717 14.9225C3.61685 14.5279 3.48533 13.5415 3.48533 13.5415C3.48533 13.5415 3.3538 12.4236 3.3538 11.3056V10.2534C3.3538 9.13553 3.48533 8.01759 3.48533 8.01759C3.48533 8.01759 3.61685 7.09694 4.07717 6.63662C4.51728 6.19651 5.0034 6.12458 5.34305 6.07433C5.40941 6.06451 5.47018 6.05552 5.52391 6.04477C7.49674 5.91325 10.5217 5.91325 10.5217 5.91325C10.5217 5.91325 13.5467 5.91325 15.5196 6.04477C15.7826 6.04477 16.4402 6.11053 16.9663 6.63662C17.4266 7.03118 17.5581 8.01759 17.5581 8.01759C17.5581 8.01759 17.6896 9.13553 17.6896 10.2534V11.3056ZM12.8891 10.648L9.00924 12.5551V8.6752L12.8891 10.648Z" fill="#7C7C7D"/>
</g>
<defs>
<clipPath id="clip0_47_80394">
<rect width="21.0435" height="22" fill="white"/>
</clipPath>
</defs>
</svg>
