<svg width="374" height="48" viewBox="0 0 374 48" fill="none" xmlns="http://www.w3.org/2000/svg">
<g clip-path="url(#clip0_47_81317)">
<g clip-path="url(#clip1_47_81317)">
<path fill-rule="evenodd" clip-rule="evenodd" d="M248.948 18.6534H254.372L247.98 39.9612C247.385 41.8982 246.507 43.4147 245.345 44.5129C244.183 45.6105 242.672 46.1596 240.812 46.1596C240.218 46.1596 239.663 46.1014 239.147 45.9854C238.63 45.8689 238.178 45.7334 237.791 45.5782C237.326 45.4236 236.913 45.2298 236.551 44.9974L237.907 41.7044H238.295C238.475 41.9103 238.682 42.0782 238.914 42.2079C239.121 42.3366 239.353 42.4462 239.611 42.5373C239.869 42.6273 240.14 42.6728 240.425 42.6728C241.639 42.6728 242.491 41.7684 242.982 39.9612L235.582 18.6534H241.006L244.881 31.2445C244.932 31.4515 244.977 31.6771 245.016 31.9223C245.055 32.168 245.087 32.3941 245.113 32.6C245.138 32.8584 245.164 33.1174 245.19 33.3752H245.345C245.37 33.1174 245.397 32.8584 245.423 32.6C245.448 32.3941 245.481 32.168 245.52 31.9223C245.558 31.6771 245.603 31.4515 245.655 31.2445L248.948 18.6534ZM229.283 10.9051H233.157V38.0238H227.734V10.9051H229.283ZM223.628 18.324C223.976 18.3632 224.292 18.4082 224.577 18.4596C224.886 18.5374 225.197 18.602 225.507 18.6534L224.732 22.5278H224.344C224.06 22.4764 223.776 22.4113 223.492 22.334C223.233 22.2826 222.943 22.2371 222.621 22.1984C222.297 22.1597 221.968 22.1402 221.633 22.1402C221.09 22.1402 220.619 22.263 220.218 22.5082C219.817 22.7539 219.475 23.0186 219.192 23.3024C218.882 23.6387 218.598 24.0257 218.34 24.4647V38.0238H212.916V18.6534H218.34V19.9183C218.452 19.8177 218.567 19.7187 218.688 19.6218C219.127 19.2866 219.669 18.9769 220.315 18.692C220.961 18.4082 221.723 18.2663 222.601 18.2663C222.936 18.2663 223.279 18.2853 223.628 18.324ZM203.25 32.4062V18.6534H208.674V38.0238H203.25V36.7609C203.137 36.8626 203.021 36.961 202.902 37.0553C202.462 37.4175 201.92 37.7336 201.275 38.0047C200.629 38.2758 199.867 38.4114 198.989 38.4114C196.638 38.4114 194.824 37.7722 193.546 36.4935C192.267 35.2153 191.628 33.4012 191.628 31.0507V18.6534H197.052V31.0507C197.052 32.3162 197.317 33.246 197.846 33.8401C198.375 34.4342 199.079 34.7308 199.957 34.7308C200.474 34.7308 200.939 34.6084 201.352 34.3628C201.765 34.1176 202.113 33.8534 202.398 33.5685C202.708 33.2333 202.992 32.8463 203.25 32.4062ZM182.718 31.496C182.537 32.3358 182.292 33.0072 181.982 33.5103C181.672 34.0143 181.304 34.3765 180.878 34.5952C180.452 34.815 179.993 34.9246 179.502 34.9246C179.012 34.9246 178.554 34.815 178.127 34.5952C177.701 34.3765 177.333 34.0143 177.023 33.5103C176.713 33.0072 176.467 32.3358 176.287 31.496C176.106 30.6573 176.016 29.6046 176.016 28.3386C176.016 27.0736 176.106 26.0209 176.287 25.1811C176.467 24.3424 176.713 23.6704 177.023 23.1669C177.333 22.6628 177.701 22.3017 178.127 22.0819C178.554 21.8627 179.012 21.7526 179.502 21.7526C179.993 21.7526 180.452 21.8627 180.878 22.0819C181.304 22.3017 181.672 22.6628 181.982 23.1669C182.292 23.6704 182.537 24.3424 182.718 25.1811C182.898 26.0209 182.989 27.0736 182.989 28.3386C182.989 29.6046 182.898 30.6573 182.718 31.496ZM179.502 18.2663C176.687 18.2663 174.498 19.0928 172.936 20.7454C171.373 22.3986 170.592 24.9296 170.592 28.3386C170.592 31.7475 171.373 34.2791 172.936 35.9322C174.498 37.5853 176.687 38.4114 179.502 38.4114C182.317 38.4114 184.506 37.5853 186.069 35.9322C187.631 34.2791 188.413 31.7475 188.413 28.3386C188.413 24.9296 187.631 22.3986 186.069 20.7454C184.506 19.0928 182.317 18.2663 179.502 18.2663ZM162.472 31.3795C162.291 32.1934 162.052 32.8521 161.755 33.3556C161.458 33.8592 161.109 34.2145 160.71 34.421C160.309 34.628 159.889 34.7308 159.451 34.7308C158.908 34.7308 158.437 34.6084 158.036 34.3628C157.635 34.1176 157.293 33.8534 157.01 33.5685C156.7 33.2333 156.415 32.8463 156.158 32.4062V22.9148C156.415 22.7088 156.687 22.515 156.971 22.334C157.229 22.2048 157.533 22.0761 157.882 21.9464C158.23 21.8177 158.623 21.7526 159.063 21.7526C159.605 21.7526 160.095 21.8627 160.535 22.0819C160.974 22.3017 161.362 22.6628 161.697 23.1669C162.032 23.6704 162.291 24.3424 162.472 25.1811C162.652 26.0209 162.744 27.0736 162.744 28.3386C162.744 29.5532 162.652 30.5662 162.472 31.3795ZM165.92 20.765C166.643 21.6043 167.199 22.6506 167.586 23.9029C167.973 25.1557 168.167 26.6341 168.167 28.3386C168.167 30.043 167.973 31.522 167.586 32.7742C167.199 34.0276 166.656 35.0734 165.959 35.9126C165.261 36.7519 164.441 37.3788 163.499 37.7913C162.556 38.2043 161.529 38.4114 160.419 38.4114C159.541 38.4114 158.779 38.2758 158.133 38.0047C157.487 37.7336 156.945 37.4175 156.506 37.0553L156.158 36.7424V38.0238H150.734V10.9051H156.158V19.428C156.441 19.222 156.79 19.0282 157.203 18.8472C157.538 18.718 157.946 18.5893 158.424 18.4596C158.901 18.3309 159.437 18.2663 160.031 18.2663C161.245 18.2663 162.349 18.4733 163.344 18.8858C164.338 19.2994 165.197 19.9258 165.92 20.765ZM139.255 18.2663C141.605 18.2663 143.42 18.9054 144.698 20.1836C145.976 21.4624 146.616 23.277 146.616 25.627V38.0238H141.192V25.627C141.192 24.3614 140.927 23.4316 140.398 22.8375C139.868 22.2434 139.164 21.9464 138.286 21.9464C137.744 21.9464 137.272 22.0692 136.872 22.3144C136.472 22.5606 136.129 22.8248 135.846 23.1086C135.536 23.4449 135.252 23.8319 134.994 24.2709V38.0238H129.57V10.9051H134.994V20.0094C135.303 19.6997 135.677 19.4158 136.117 19.1574C136.478 18.9509 136.924 18.7503 137.453 18.557C137.982 18.3632 138.583 18.2663 139.255 18.2663ZM119.927 28.0066V33.7623C119.669 33.9947 119.398 34.1886 119.114 34.3437C118.855 34.4983 118.552 34.6344 118.203 34.7504C117.855 34.8663 117.461 34.9246 117.022 34.9246C116.479 34.9246 115.989 34.815 115.55 34.5952C115.11 34.3765 114.723 34.0143 114.387 33.5103C114.051 33.0072 113.793 32.3358 113.612 31.496C113.432 30.6573 113.341 29.6046 113.341 28.3386C113.341 27.1249 113.432 26.1115 113.612 25.2976C113.793 24.4838 114.032 23.825 114.329 23.322C114.626 22.8185 114.974 22.4632 115.375 22.2566C115.775 22.0501 116.195 21.9464 116.634 21.9464C117.15 21.9464 117.615 22.0692 118.029 22.3144C118.442 22.5606 118.79 22.8248 119.075 23.1086C119.385 23.4449 119.669 23.8319 119.927 24.2709V28.0066ZM119.927 18.6534H125.351V38.4114C125.351 39.5212 125.151 40.5479 124.75 41.491C124.35 42.434 123.762 43.2537 122.988 43.9511C122.213 44.6484 121.257 45.1912 120.121 45.5782C118.984 45.9658 117.693 46.1596 116.247 46.1596C115.213 46.1596 114.284 46.0627 113.458 45.8689C112.631 45.6751 111.92 45.449 111.327 45.1912C110.63 44.9068 110.009 44.5838 109.467 44.2227L111.21 41.123H111.598C111.908 41.4073 112.282 41.6657 112.722 41.8982C113.083 42.1041 113.528 42.2852 114.058 42.4404C114.587 42.595 115.188 42.6728 115.859 42.6728C117.124 42.6728 118.119 42.3048 118.843 41.5688C119.565 40.8323 119.927 39.7801 119.927 38.4114V37.2491C119.591 37.4816 119.23 37.6753 118.843 37.83C118.481 37.9851 118.074 38.1207 117.622 38.2372C117.17 38.3531 116.647 38.4114 116.053 38.4114C114.839 38.4114 113.735 38.2043 112.741 37.7913C111.746 37.3788 110.887 36.7519 110.165 35.9126C109.441 35.0734 108.886 34.0276 108.499 32.7742C108.111 31.522 107.917 30.043 107.917 28.3386C107.917 26.6341 108.111 25.1557 108.499 23.9029C108.886 22.6506 109.429 21.6043 110.126 20.765C110.823 19.9258 111.643 19.2994 112.586 18.8858C113.528 18.4733 114.555 18.2663 115.666 18.2663C116.544 18.2663 117.306 18.4082 117.952 18.692C118.596 18.9769 119.139 19.2866 119.579 19.6218C119.698 19.7224 119.814 19.8257 119.927 19.9311V18.6534ZM99.2356 38.0238V18.6534H104.659V38.0238H99.2356ZM101.948 10.3242C102.722 10.3242 103.401 10.6149 103.982 11.1958C104.562 11.7772 104.853 12.455 104.853 13.2296C104.853 14.0043 104.562 14.6826 103.982 15.264C103.401 15.8449 102.722 16.135 101.948 16.135C101.173 16.135 100.495 15.8449 99.9139 15.264C99.3325 14.6826 99.0423 14.0043 99.0423 13.2296C99.0423 12.455 99.3325 11.7772 99.9139 11.1958C100.495 10.6149 101.173 10.3242 101.948 10.3242ZM90.0222 26.5954H84.4835C84.4835 24.9428 84.8065 23.7223 85.452 22.9344C86.0975 22.147 86.8081 21.7526 87.5827 21.7526C88.3579 21.7526 89.068 22.147 89.7135 22.9344C89.8289 23.0753 89.93 23.2346 90.0248 23.403C90.2282 23.7647 90.3833 24.1909 90.4924 24.6786C90.503 24.7247 90.5141 24.7702 90.5236 24.8179C90.5406 24.9026 90.5549 24.9905 90.5692 25.0789C90.5813 25.1531 90.5925 25.2277 90.602 25.3045C90.6126 25.3818 90.6216 25.4607 90.6301 25.5406C90.6401 25.6423 90.6481 25.7466 90.6555 25.852C90.6597 25.9171 90.665 25.9807 90.6682 26.0474C90.6767 26.2248 90.6819 26.4064 90.6819 26.5954H90.0222ZM87.5827 18.2663C90.1911 18.2663 92.2641 19.0796 93.8007 20.7068C95.3374 22.334 96.1057 24.749 96.1057 27.9515V28.92L96.0924 28.9332C96.0803 29.3272 96.0607 29.7126 96.0252 30.0822H84.4835C84.4835 33.3106 86.0334 34.9246 89.1326 34.9246C89.7521 34.9246 90.3139 34.8473 90.8175 34.6921C91.3216 34.5375 91.7537 34.3569 92.1153 34.1499C92.5283 33.9174 92.8905 33.6596 93.2003 33.3752H93.5879L95.331 36.4744C94.7628 36.8361 94.1428 37.1591 93.4714 37.4429C92.8768 37.7013 92.1863 37.9274 91.3989 38.1207C90.611 38.3145 89.7262 38.4114 88.745 38.4114C82.2882 38.4114 79.0598 35.0543 79.0598 28.3386C79.0598 24.9555 79.8281 22.4309 81.3647 20.765C82.9014 19.0992 84.9739 18.2663 87.5827 18.2663ZM70.208 26.014V10.9051H75.6318V38.0238H69.8204L63.0406 22.9148C62.9114 22.631 62.7886 22.3408 62.6726 22.0433C62.5567 21.7467 62.446 21.4687 62.3433 21.2103C62.24 20.9265 62.1362 20.6554 62.0335 20.397H61.8784C61.9038 20.6554 61.9297 20.9265 61.9557 21.2103C61.9811 21.4687 62.0076 21.7467 62.0335 22.0433C62.0589 22.3408 62.0722 22.631 62.0722 22.9148V38.0238H56.6484V10.9051H62.4598L69.239 26.014C69.3682 26.2984 69.4911 26.5954 69.607 26.9052C69.7235 27.2155 69.8332 27.4866 69.9364 27.7185C70.0397 28.0034 70.1429 28.2745 70.2467 28.5324H70.4013C70.3494 28.2745 70.3108 28.0034 70.2853 27.7185C70.2594 27.4866 70.2398 27.2155 70.2271 26.9052C70.2139 26.5954 70.208 26.2984 70.208 26.014Z" fill="white"/>
<path d="M41.6086 2.54106C41.6086 1.34693 42.5766 0.378906 43.7707 0.378906C44.9648 0.378906 45.9329 1.34693 45.9329 2.54106V20.3183C45.9329 21.9412 45.3245 23.5051 44.2279 24.7014L24.7979 45.8978C22.3772 48.5385 18.2741 48.7169 15.6334 46.2962C15.4803 46.1559 15.334 46.0083 15.1951 45.8539L1.66512 30.8206C-0.642728 28.2564 -0.539586 24.3342 1.89985 21.8948L21.5159 2.27875C22.7324 1.0623 24.3822 0.378906 26.1025 0.378906H35.1221C36.3162 0.378906 37.2843 1.34693 37.2843 2.54106C37.2843 3.73518 36.3162 4.70321 35.1221 4.70321H26.1025C25.5291 4.70321 24.9791 4.93101 24.5737 5.33649L4.9576 24.9526C4.14445 25.7657 4.11007 27.0731 4.87935 27.9278L18.4093 42.9611C18.4556 43.0126 18.5044 43.0618 18.5554 43.1085C19.4356 43.9154 20.8034 43.856 21.6103 42.9757L41.0403 21.7794C41.4058 21.3806 41.6086 20.8593 41.6086 20.3183V2.54106ZM35.1221 13.3518C33.928 13.3518 32.96 12.3838 32.96 11.1897C32.96 9.99554 33.928 9.02751 35.1221 9.02751C36.3162 9.02751 37.2843 9.99554 37.2843 11.1897C37.2843 12.3838 36.3162 13.3518 35.1221 13.3518Z" fill="white"/>
<path fill-rule="evenodd" clip-rule="evenodd" d="M263.553 12.9941L272.77 35.0487L282.021 12.9941H284.836V37.9836H282.725V27.1022L282.896 15.9462L273.594 37.9836H271.963L262.695 16.032L262.867 27.0335V37.9836H260.756V12.9941H263.553ZM304.388 37.9836C304.182 37.4 304.05 36.5362 303.993 35.3919C303.272 36.3302 302.354 37.0539 301.238 37.5631C300.123 38.0722 298.941 38.3268 297.694 38.3268C295.909 38.3268 294.465 37.8291 293.361 36.8336C292.256 35.8382 291.704 34.5796 291.704 33.0578C291.704 31.2499 292.457 29.8197 293.961 28.767C295.466 27.7143 297.563 27.188 300.252 27.188H303.976V25.0769C303.976 23.7497 303.567 22.7056 302.749 21.9447C301.931 21.1838 300.738 20.8033 299.17 20.8033C297.74 20.8033 296.556 21.1695 295.617 21.9018C294.679 22.6341 294.21 23.5151 294.21 24.5449L292.151 24.5277C292.151 23.0517 292.837 21.7731 294.21 20.6918C295.583 19.6105 297.271 19.0699 299.273 19.0699C301.344 19.0699 302.978 19.5876 304.173 20.6231C305.369 21.6586 305.984 23.1032 306.018 24.9568V33.7443C306.018 35.5407 306.207 36.8851 306.585 37.7776V37.9836H304.388ZM297.934 36.5075C299.308 36.5075 300.535 36.1757 301.616 35.5121C302.697 34.8484 303.484 33.9617 303.976 32.8518V28.767H300.303C298.255 28.7899 296.653 29.1646 295.497 29.8912C294.342 30.6178 293.764 31.6161 293.764 32.8861C293.764 33.9274 294.15 34.7912 294.922 35.4778C295.695 36.1643 296.699 36.5075 297.934 36.5075ZM322.052 21.1638C321.617 21.0837 321.154 21.0436 320.662 21.0436C319.38 21.0436 318.296 21.4012 317.409 22.1163C316.523 22.8314 315.89 23.8698 315.513 25.2314V37.9836H313.47V19.4131H315.479L315.513 22.3652C316.6 20.1683 318.345 19.0699 320.748 19.0699C321.32 19.0699 321.772 19.1442 322.104 19.293L322.052 21.1638ZM331.684 28.6297L329.333 30.8952V37.9836H327.273V11.6211H329.333V28.4924L331.272 26.3985L338.378 19.4131H340.969L333.091 27.2395L341.656 37.9836H339.201L331.684 28.6297ZM353.313 38.3268C351.734 38.3268 350.306 37.9378 349.031 37.1597C347.755 36.3817 346.762 35.2976 346.053 33.9073C345.343 32.5171 344.989 30.9582 344.989 29.2304V28.4924C344.989 26.7074 345.335 25.0998 346.027 23.6696C346.719 22.2393 347.683 21.1151 348.919 20.297C350.155 19.4789 351.494 19.0699 352.935 19.0699C355.189 19.0699 356.977 19.8393 358.299 21.3783C359.62 22.9173 360.281 25.0197 360.281 27.6857V28.8356H347.031V29.2304C347.031 31.3357 347.635 33.0892 348.842 34.4909C350.049 35.8925 351.568 36.5934 353.399 36.5934C354.497 36.5934 355.467 36.3931 356.308 35.9926C357.149 35.5922 357.913 34.9514 358.599 34.0704L359.886 35.0487C358.376 37.2341 356.185 38.3268 353.313 38.3268ZM352.935 20.8205C351.391 20.8205 350.089 21.3869 349.031 22.5196C347.972 23.6524 347.329 25.1742 347.1 27.085H358.239V26.8619C358.181 25.0769 357.672 23.6238 356.711 22.5025C355.75 21.3812 354.491 20.8205 352.935 20.8205ZM369.45 14.659V19.4131H373.294V21.0951H369.45V33.4697C369.45 34.4995 369.635 35.2661 370.007 35.7695C370.379 36.273 371 36.5247 371.87 36.5247C372.213 36.5247 372.768 36.4675 373.534 36.3531L373.62 38.0351C373.082 38.2296 372.35 38.3268 371.423 38.3268C370.016 38.3268 368.992 37.9178 368.351 37.0997C367.71 36.2816 367.39 35.0773 367.39 33.4868V21.0951H363.975V19.4131H367.39V14.659H369.45Z" fill="white"/>
</g>
</g>
<defs>
<clipPath id="clip0_47_81317">
<rect width="373.712" height="48" fill="white"/>
</clipPath>
<clipPath id="clip1_47_81317">
<rect width="373.712" height="47.9998" fill="white"/>
</clipPath>
</defs>
</svg>
