<svg width="284" height="48" viewBox="0 0 284 48" fill="none" xmlns="http://www.w3.org/2000/svg">
<path fill-rule="evenodd" clip-rule="evenodd" d="M264 31.7943C271.519 31.7943 274.997 30.8297 275.333 26.9581C275.333 23.0891 272.908 23.3379 272.908 18.5909C272.908 14.8829 269.394 10.6641 264 10.6641C258.606 10.6641 255.092 14.8829 255.092 18.5909C255.092 23.3379 252.667 23.0891 252.667 26.9581C253.004 30.8443 256.482 31.7943 264 31.7943Z" fill="#787878"/>
<path fill-rule="evenodd" clip-rule="evenodd" d="M260.024 35.0632C260.435 34.6941 261.067 34.7279 261.436 35.1387C262.871 36.7358 265.016 36.7207 266.442 35.1378C266.812 34.7274 267.444 34.6944 267.854 35.064C268.265 35.4336 268.298 36.0659 267.928 36.4763C265.716 38.9326 262.186 38.9655 259.949 36.4754C259.58 36.0646 259.613 35.4323 260.024 35.0632Z" fill="#787878"/>
<circle cx="280" cy="8" r="4" fill="white"/>
<path fill-rule="evenodd" clip-rule="evenodd" d="M36 2H12C6.47715 2 2 6.47715 2 12V36C2 41.5228 6.47715 46 12 46H36C41.5228 46 46 41.5228 46 36V12C46 6.47715 41.5228 2 36 2ZM12 0C5.37258 0 0 5.37258 0 12V36C0 42.6274 5.37258 48 12 48H36C42.6274 48 48 42.6274 48 36V12C48 5.37258 42.6274 0 36 0H12Z" fill="#787878"/>
<path fill-rule="evenodd" clip-rule="evenodd" d="M20.2929 17.2929C20.6834 16.9024 21.3166 16.9024 21.7071 17.2929L27.7071 23.2929C28.0976 23.6834 28.0976 24.3166 27.7071 24.7071L21.7071 30.7071C21.3166 31.0976 20.6834 31.0976 20.2929 30.7071C19.9024 30.3166 19.9024 29.6834 20.2929 29.2929L25.5858 24L20.2929 18.7071C19.9024 18.3166 19.9024 17.6834 20.2929 17.2929Z" fill="#787878"/>
</svg>
