<svg width="11" height="15" viewBox="0 0 11 15" fill="none" xmlns="http://www.w3.org/2000/svg">
<path d="M0.68187 6.13631H10.2272C10.4119 6.13631 10.5717 6.06888 10.7066 5.93392C10.8414 5.79899 10.9091 5.63922 10.9091 5.45455C10.9091 5.26989 10.8415 5.11018 10.7066 4.97507L5.93392 0.202389C5.79907 0.0676124 5.63933 0 5.45455 0C5.26977 0 5.11003 0.0676124 4.97507 0.202389L0.202389 4.97507C0.0674258 5.11003 0 5.26989 0 5.45455C0 5.63918 0.0674258 5.79899 0.202389 5.93392C0.337502 6.06888 0.497242 6.13631 0.68187 6.13631Z" fill="#D3D6E4"/>
<path d="M10.2272 8.86584H0.68187C0.497093 8.86584 0.337353 8.9333 0.202389 9.06812C0.0674258 9.20308 0 9.36282 0 9.54749C0 9.73215 0.0674258 9.892 0.202389 10.0269L4.97507 14.7995C5.11018 14.9345 5.26992 15.002 5.45455 15.002C5.63918 15.002 5.79907 14.9345 5.93392 14.7995L10.7066 10.0269C10.8414 9.892 10.9091 9.73215 10.9091 9.54745C10.9091 9.36282 10.8415 9.20308 10.7066 9.06808C10.5717 8.93315 10.4119 8.86584 10.2272 8.86584Z" fill="#D3D6E4"/>
</svg>
