<svg width="40" height="34" viewBox="0 0 40 34" fill="none" xmlns="http://www.w3.org/2000/svg">
<g clip-path="url(#clip0_47_13948)">
<path d="M39.8589 15.0464C39.8789 14.9864 39.8989 14.9264 39.9189 14.8465C39.9389 14.7865 39.9589 14.7466 39.9589 14.6866C39.9789 14.5667 39.9988 14.4467 39.9988 14.3268C39.9988 14.2069 39.9789 14.087 39.9589 13.967C39.9389 13.9071 39.9189 13.8671 39.9189 13.8071C39.8989 13.7472 39.8789 13.6872 39.8589 13.6272C39.8389 13.5673 39.7989 13.5073 39.7589 13.4473C39.7389 13.4074 39.7189 13.3474 39.6789 13.3074C39.6189 13.2075 39.5389 13.1076 39.4389 13.0276L27.0797 0.615207C26.3398 -0.12434 25.1598 -0.12434 24.4199 0.615207C23.6799 1.35475 23.6799 2.53403 24.4199 3.27358L33.5793 12.428H1.92138C0.881448 12.428 0.0415039 13.2675 0.0415039 14.3068C0.0415039 15.3462 0.881448 16.2057 1.92138 16.2057H33.5793L24.4199 25.36C23.6799 26.0996 23.6799 27.2789 24.4199 28.0184C24.7799 28.3782 25.2598 28.5781 25.7398 28.5781C26.2198 28.5781 26.6997 28.3982 27.0597 28.0184L39.4389 15.646C39.5189 15.566 39.5989 15.4661 39.6789 15.3662C39.7189 15.3262 39.7389 15.2662 39.7589 15.2263C39.7989 15.1663 39.8389 15.1063 39.8589 15.0464Z" fill="#DF8956"/>
</g>
<defs>
<clipPath id="clip0_47_13948">
<rect width="40" height="28.5625" fill="white" transform="translate(0 0.015625)"/>
</clipPath>
</defs>
</svg>
