<svg width="20" height="20" viewBox="0 0 20 20" fill="none" xmlns="http://www.w3.org/2000/svg">
<path d="M9.78566 7.17949C9.36514 7.17949 9.01643 6.83077 9.01643 6.41026V0.769231C9.01643 0.348718 9.36514 0 9.78566 0C10.2062 0 10.5549 0.348718 10.5549 0.769231V6.41026C10.5549 6.83077 10.2062 7.17949 9.78566 7.17949Z" fill="#7A7976"/>
<path d="M9.78566 20C9.36514 20 9.01643 19.6513 9.01643 19.2308V13.5897C9.01643 13.1692 9.36514 12.8205 9.78566 12.8205C10.2062 12.8205 10.5549 13.1692 10.5549 13.5897V19.2308C10.5549 19.6513 10.2062 20 9.78566 20Z" fill="#7A7976"/>
<path d="M11.8369 1.53846H7.73438C7.31386 1.53846 6.96514 1.18974 6.96514 0.769231C6.96514 0.348718 7.31386 0 7.73438 0H11.8369C12.2575 0 12.6062 0.348718 12.6062 0.769231C12.6062 1.18974 12.2575 1.53846 11.8369 1.53846Z" fill="#7A7976"/>
<path d="M11.8369 20H7.73438C7.31386 20 6.96514 19.6513 6.96514 19.2308C6.96514 18.8103 7.31386 18.4615 7.73438 18.4615H11.8369C12.2575 18.4615 12.6062 18.8103 12.6062 19.2308C12.6062 19.6513 12.2575 20 11.8369 20Z" fill="#7A7976"/>
<path d="M6.6781 8.97553C6.54477 8.97553 6.41143 8.94476 6.29861 8.87296L1.41656 6.05245C1.04733 5.83706 0.924252 5.36528 1.13964 5.00631C1.35502 4.63708 1.82682 4.51399 2.18579 4.72938L7.06784 7.54989C7.43707 7.76528 7.56015 8.23708 7.34476 8.59605C7.20118 8.8422 6.94476 8.97553 6.6781 8.97553Z" fill="#7A7976"/>
<path d="M17.7759 15.3858C17.6425 15.3858 17.5092 15.355 17.3964 15.2832L12.5143 12.4627C12.1451 12.2473 12.022 11.7755 12.2374 11.4166C12.4528 11.0473 12.9246 10.9243 13.2835 11.1396L18.1656 13.9601C18.5348 14.1755 18.6579 14.6473 18.4425 15.0063C18.2989 15.2525 18.0425 15.3858 17.7759 15.3858Z" fill="#7A7976"/>
<path d="M0.770406 7.92489C0.637073 7.92489 0.503739 7.89413 0.390919 7.82233C0.021688 7.60695 -0.101389 7.13515 0.113996 6.77617L2.16528 3.22745C2.38066 2.85822 2.85246 2.73515 3.21143 2.95054C3.58066 3.16592 3.70374 3.63771 3.48835 3.99668L1.43707 7.5454C1.29348 7.79156 1.02682 7.92489 0.770406 7.92489Z" fill="#7A7976"/>
<path d="M16.75 17.1557C16.6166 17.1557 16.4833 17.1249 16.3705 17.0531C16.0013 16.8377 15.8782 16.3659 16.0936 16.0069L18.1448 12.4582C18.3602 12.089 18.832 11.9659 19.191 12.1813C19.5602 12.3967 19.6833 12.8685 19.4679 13.2274L17.4166 16.7762C17.2833 17.0223 17.0166 17.1557 16.75 17.1557Z" fill="#7A7976"/>
<path d="M9.78566 14.3567C8.23694 14.3567 6.79078 13.526 6.0113 12.1824C5.62155 11.5055 5.42668 10.7772 5.42668 9.99776C5.42668 9.21827 5.62155 8.49007 6.0113 7.82341C6.79078 6.47982 8.23694 5.64904 9.78566 5.64904C11.3344 5.64904 12.7805 6.47982 13.56 7.82341C13.9498 8.50033 14.1446 9.22853 14.1446 10.008C14.1446 10.7875 13.9498 11.5157 13.56 12.1824C12.7805 13.526 11.3344 14.3567 9.78566 14.3567ZM9.78566 7.17725C8.78053 7.17725 7.8472 7.72084 7.34463 8.59264C7.09848 9.02341 6.96514 9.50545 6.96514 9.99776C6.96514 10.4901 7.08822 10.9721 7.34463 11.4132C7.8472 12.2849 8.78053 12.8285 9.78566 12.8285C10.7908 12.8285 11.7241 12.2849 12.2267 11.4132C12.4728 10.9824 12.6062 10.5003 12.6062 10.008C12.6062 9.51571 12.4831 9.03366 12.2267 8.59264C11.7241 7.72084 10.7908 7.17725 9.78566 7.17725Z" fill="#7A7976"/>
<path d="M12.8938 8.97552C12.6271 8.97552 12.3707 8.84219 12.2271 8.58578C12.0117 8.21654 12.1451 7.74476 12.5041 7.53963L17.3861 4.71912C17.7553 4.50374 18.2271 4.63706 18.4323 4.99603C18.6476 5.36526 18.5143 5.83706 18.1553 6.04219L13.2733 8.8627C13.1605 8.94475 13.0271 8.97552 12.8938 8.97552Z" fill="#7A7976"/>
<path d="M1.79604 15.3858C1.52937 15.3858 1.27296 15.2524 1.12937 14.996C0.913989 14.6268 1.04732 14.155 1.4063 13.9499L6.28835 11.1294C6.65758 10.914 7.12937 11.0473 7.3345 11.4063C7.54989 11.7755 7.41655 12.2473 7.05758 12.4524L2.17553 15.273C2.06271 15.355 1.92937 15.3858 1.79604 15.3858Z" fill="#7A7976"/>
<path d="M18.8012 7.92489C18.5346 7.92489 18.2782 7.79156 18.1346 7.53515L16.0833 3.98643C15.8679 3.6172 16.0012 3.1454 16.3602 2.94027C16.7295 2.72488 17.2012 2.85822 17.4064 3.2172L19.4577 6.76592C19.673 7.13515 19.5397 7.60694 19.1807 7.81206C19.0679 7.89412 18.9346 7.92489 18.8012 7.92489Z" fill="#7A7976"/>
<path d="M2.82168 17.1557C2.55501 17.1557 2.2986 17.0223 2.15501 16.7659L0.103732 13.2172C-0.111652 12.848 0.0216809 12.3762 0.380655 12.171C0.749886 11.9557 1.22168 12.089 1.42681 12.448L3.47809 15.9967C3.69348 16.3659 3.56014 16.8377 3.20117 17.0428C3.07809 17.1249 2.94476 17.1557 2.82168 17.1557Z" fill="#7A7976"/>
</svg>
