<svg width="25" height="26" viewBox="0 0 25 26" fill="none" xmlns="http://www.w3.org/2000/svg">
<path d="M14.2857 14.4031C11.9048 12.8527 10.7143 10.994 10.7143 8.82689C10.7143 7.99337 10.8724 7.18487 11.1886 6.40137L10.6864 5.95127L3.23661 12.6277L8.98438 22.4048H16.0714C16.5551 22.4048 16.9736 22.5632 17.327 22.8799C17.6804 23.1966 17.8571 23.5759 17.8571 24.0176C17.8571 24.4594 17.6804 24.8345 17.327 25.1429C16.9736 25.4513 16.5551 25.6055 16.0714 25.6055H1.78571C1.30208 25.6055 0.883557 25.4513 0.530134 25.1429C0.176711 24.8345 0 24.4594 0 24.0176C0 23.5759 0.176711 23.1966 0.530134 22.8799C0.883557 22.5632 1.30208 22.4048 1.78571 22.4048H6.97545L1.89732 13.828L1.5346 14.153C1.36719 14.3197 1.15792 14.4031 0.906808 14.4031C0.655692 14.4031 0.441778 14.3239 0.265067 14.1655C0.0883557 14.0072 0 13.8155 0 13.5904C0 13.3654 0.0837054 13.1778 0.251116 13.0278L1.03237 12.3276L0.139509 10.8023C0.0093006 10.6189 -0.0232515 10.4189 0.0418527 10.2022C0.106957 9.98547 0.246466 9.81876 0.460379 9.70207C0.674293 9.58538 0.897507 9.55621 1.13002 9.61455C1.36254 9.6729 1.5439 9.80209 1.67411 10.0021L2.34375 11.1524L9.48661 4.77602C9.04018 4.17589 8.85417 3.50908 8.92857 2.77559C9.00298 2.0421 9.3285 1.41697 9.90513 0.900192C10.5748 0.300064 11.3839 0 12.3326 0C13.2812 0 14.0904 0.300064 14.76 0.900192L16.0435 2.05044C16.9364 1.76704 17.8385 1.62535 18.75 1.62535C21.1868 1.62535 23.2701 2.69224 25 4.82603L14.2857 14.4031Z" fill="#25396F"/>
</svg>
