<svg width="11" height="15" viewBox="0 0 11 15" fill="none" xmlns="http://www.w3.org/2000/svg">
<path d="M0.581204 5.32601L5.01884 3.73682C5.21421 3.66935 5.43751 3.66935 5.62358 3.73682L10.0613 5.32601C10.452 5.46843 10.8148 5.08612 10.545 4.81626L5.89336 0.236128C5.57704 -0.0787094 5.05606 -0.0787094 4.73976 0.236128L0.0881018 4.81626C-0.17239 5.08612 0.190465 5.46843 0.581204 5.32601Z" fill="#15161E"/>
<path d="M0.580885 9.67375L5.02783 11.2629C5.2232 11.3304 5.44651 11.3304 5.63257 11.2629L10.0795 9.67375C10.4703 9.53133 10.8331 9.91363 10.5633 10.1835L5.91165 14.7636C5.59535 15.0785 5.07437 15.0785 4.75805 14.7636L0.106408 10.1835C-0.172691 9.91363 0.180844 9.53133 0.580885 9.67375Z" fill="#15161E"/>
<path d="M5.12081 5.61892L1.27854 7.16312C0.934315 7.29805 0.934315 7.69536 1.27854 7.83029L5.12081 9.37449C5.25105 9.42696 5.40916 9.42696 5.53941 9.37449L9.38168 7.83029C9.72591 7.69536 9.72591 7.29805 9.38168 7.16312L5.53941 5.61892C5.39986 5.56645 5.25105 5.56645 5.12081 5.61892Z" fill="#15161E"/>
</svg>
