<svg width="22" height="21" viewBox="0 0 22 21" fill="none" xmlns="http://www.w3.org/2000/svg">
<path d="M14.0698 4.77605C14.0698 4.09047 13.7321 3.45605 13.1591 3.07744L9.06605 0.345349C8.38046 -0.115116 7.48 -0.115116 6.79442 0.345349L2.7014 3.07744C2.1386 3.45605 1.7907 4.09047 1.7907 4.77605V10.5881C1.7907 10.8747 2.01581 11.0998 2.30233 11.0998H13.5581C13.8447 11.0998 14.0698 10.8747 14.0698 10.5881V4.77605ZM7.93023 8.54163C6.94791 8.54163 6.13953 7.73326 6.13953 6.75093C6.13953 5.7686 6.94791 4.96023 7.93023 4.96023C8.91256 4.96023 9.72093 5.7686 9.72093 6.75093C9.72093 7.73326 8.91256 8.54163 7.93023 8.54163Z" fill="white"/>
<path d="M21.2326 19.2791H19.933V16.2093C20.9051 15.8921 21.6112 14.9814 21.6112 13.907V11.8605C21.6112 10.52 20.5163 9.42515 19.1758 9.42515C17.8353 9.42515 16.7405 10.52 16.7405 11.8605V13.907C16.7405 14.9712 17.4363 15.8717 18.3879 16.1991V19.2791H14.0698V13.1396C14.0698 12.8531 13.8447 12.6279 13.5581 12.6279H2.30233C2.01581 12.6279 1.7907 12.8531 1.7907 13.1396V19.2791H0.767442C0.347907 19.2791 0 19.627 0 20.0465C0 20.4661 0.347907 20.814 0.767442 20.814H19.1144C19.1349 20.814 19.1451 20.8242 19.1656 20.8242C19.186 20.8242 19.1963 20.814 19.2167 20.814H21.2326C21.6521 20.814 22 20.4661 22 20.0465C22 19.627 21.6521 19.2791 21.2326 19.2791ZM7.16279 16.2093C7.16279 15.7898 7.5107 15.4419 7.93023 15.4419C8.34977 15.4419 8.69767 15.7898 8.69767 16.2093V19.2791H7.16279V16.2093Z" fill="white"/>
</svg>
