<svg width="16" height="16" viewBox="0 0 16 16" fill="none" xmlns="http://www.w3.org/2000/svg">
<path d="M14.6133 7.74797C14.5816 7.66613 14.534 7.59137 14.4733 7.52797L12.8067 5.8613C12.6811 5.73577 12.5109 5.66524 12.3333 5.66524C12.1558 5.66524 11.9855 5.73577 11.86 5.8613C11.7345 5.98684 11.6639 6.1571 11.6639 6.33464C11.6639 6.51217 11.7345 6.68243 11.86 6.80797L12.3933 7.33464H8.66666V5.33464C8.66666 5.15782 8.59643 4.98826 8.4714 4.86323C8.34638 4.73821 8.17681 4.66797 8 4.66797C7.82319 4.66797 7.65362 4.73821 7.52859 4.86323C7.40357 4.98826 7.33333 5.15782 7.33333 5.33464V7.33464H3.60666L4.14 6.80797C4.26553 6.68243 4.33606 6.51217 4.33606 6.33464C4.33606 6.1571 4.26553 5.98684 4.14 5.8613C4.01446 5.73577 3.8442 5.66524 3.66666 5.66524C3.48913 5.66524 3.31887 5.73577 3.19333 5.8613L1.52666 7.52797C1.46597 7.59137 1.41839 7.66613 1.38666 7.74797C1.31998 7.91028 1.31998 8.09233 1.38666 8.25463C1.41839 8.33647 1.46597 8.41123 1.52666 8.47463L3.19333 10.1413C3.25531 10.2038 3.32904 10.2534 3.41028 10.2872C3.49152 10.3211 3.57866 10.3385 3.66666 10.3385C3.75467 10.3385 3.84181 10.3211 3.92305 10.2872C4.00429 10.2534 4.07802 10.2038 4.14 10.1413C4.20248 10.0793 4.25208 10.0056 4.28592 9.92435C4.31977 9.84311 4.3372 9.75598 4.3372 9.66797C4.3372 9.57996 4.31977 9.49282 4.28592 9.41158C4.25208 9.33034 4.20248 9.25661 4.14 9.19463L3.60666 8.66797H7.33333V10.668C7.33333 10.8448 7.40357 11.0143 7.52859 11.1394C7.65362 11.2644 7.82319 11.3346 8 11.3346C8.17681 11.3346 8.34638 11.2644 8.4714 11.1394C8.59643 11.0143 8.66666 10.8448 8.66666 10.668V8.66797H12.3933L11.86 9.19463C11.7975 9.25661 11.7479 9.33034 11.7141 9.41158C11.6802 9.49282 11.6628 9.57996 11.6628 9.66797C11.6628 9.75598 11.6802 9.84311 11.7141 9.92435C11.7479 10.0056 11.7975 10.0793 11.86 10.1413C11.922 10.2038 11.9957 10.2534 12.0769 10.2872C12.1582 10.3211 12.2453 10.3385 12.3333 10.3385C12.4213 10.3385 12.5085 10.3211 12.5897 10.2872C12.671 10.2534 12.7447 10.2038 12.8067 10.1413L14.4733 8.47463C14.534 8.41123 14.5816 8.33647 14.6133 8.25463C14.68 8.09233 14.68 7.91028 14.6133 7.74797Z" fill="#C5D0E6"/>
</svg>
