<svg width="24" height="24" viewBox="0 0 24 24" fill="none" xmlns="http://www.w3.org/2000/svg">
<g clip-path="url(#clip0_47_82955)">
<mask id="mask0_47_82955" style="mask-type:luminance" maskUnits="userSpaceOnUse" x="0" y="0" width="24" height="24">
<path d="M24 0H0V24H24V0Z" fill="white"/>
</mask>
<g mask="url(#mask0_47_82955)">
<path d="M20.0004 4.49139L18.5404 4.34139C14.172 3.89141 9.76884 3.89141 5.4004 4.34139L4.0004 4.49139C2.27192 4.68675 0.973952 6.1621 1.0004 7.90139V16.1013C0.973952 17.8406 2.27192 19.316 4.0004 19.5113L5.4604 19.6613C9.82884 20.1113 14.232 20.1113 18.6004 19.6613L20.0004 19.5113C21.7289 19.316 23.0269 17.8406 23.0004 16.1013V7.90139C23.0269 6.1621 21.7289 4.68675 20.0004 4.49139ZM15.0004 12.6213L11.1104 15.2213C10.8839 15.3457 10.6093 15.3447 10.3837 15.2187C10.1581 15.0927 10.0133 14.8594 10.0004 14.6013V9.40139C10.0009 9.12418 10.1543 8.86985 10.3992 8.74005C10.6442 8.61025 10.9407 8.62615 11.1704 8.78139L15.0604 11.3813C15.27 11.5179 15.3964 11.7512 15.3964 12.0013C15.3964 12.2515 15.27 12.4848 15.0604 12.6213H15.0004Z" fill="#9B9B9B"/>
</g>
</g>
<defs>
<clipPath id="clip0_47_82955">
<rect width="24" height="24" fill="white"/>
</clipPath>
</defs>
</svg>
