<svg width="22" height="19" viewBox="0 0 22 19" fill="none" xmlns="http://www.w3.org/2000/svg">
<path d="M14.738 9.43183C14.738 11.4992 13.0673 13.1698 11 13.1698C8.93256 13.1698 7.26194 11.4992 7.26194 9.43183C7.26194 7.36444 8.93256 5.69382 11 5.69382C13.0673 5.69382 14.738 7.36444 14.738 9.43183Z" stroke="#848FAC" stroke-width="1.5" stroke-linecap="round" stroke-linejoin="round"/>
<path d="M11 18.0636C14.6858 18.0636 18.121 15.8918 20.5121 12.1329C21.4518 10.6607 21.4518 8.18604 20.5121 6.71381C18.121 2.95491 14.6858 0.783104 11 0.783104C7.31419 0.783104 3.87897 2.95491 1.4879 6.71381C0.548173 8.18604 0.548173 10.6607 1.4879 12.1329C3.87897 15.8918 7.31419 18.0636 11 18.0636Z" stroke="#848FAC" stroke-width="1.5" stroke-linecap="round" stroke-linejoin="round"/>
</svg>
