<svg width="21" height="21" viewBox="0 0 21 21" fill="none" xmlns="http://www.w3.org/2000/svg">
<path d="M9.70058 0.106774C10.1907 -0.0356484 10.7249 -0.0356484 11.2141 0.107117L19.3849 2.48826C20.3009 2.75422 20.9135 3.47072 20.9135 4.27558V11.2493C20.9135 13.3709 19.9891 15.4144 18.3232 17.0062C17.5373 17.7583 16.5358 18.385 15.3244 18.9282L10.9068 20.9072C10.6307 21.0309 10.2981 21.0309 10.022 20.9074L5.59659 18.9272C4.3819 18.3831 3.38055 17.7577 2.59465 17.0058C0.926227 15.4129 0 13.368 0 11.2452V4.27558C0 3.47072 0.6126 2.75422 1.5276 2.48855L9.70058 0.106774ZM10.5958 1.56399C10.5064 1.53789 10.4075 1.53789 10.3173 1.56411L2.14404 3.94596C1.97509 3.99501 1.8624 4.12681 1.8624 4.27558V11.2452C1.8624 12.9949 2.62583 14.6804 4.00132 15.9936C4.62612 16.5914 5.45141 17.1068 6.48132 17.5682L10.463 19.3497L14.4388 17.5695C15.3372 17.1667 16.0816 16.7208 16.6724 16.2149L16.9163 15.9943C18.2892 14.6824 19.0511 12.9981 19.0511 11.2493V4.27558C19.0511 4.12681 18.9384 3.99501 18.7684 3.94566L10.5958 1.56399ZM15.0765 7.6019C15.4071 7.87605 15.4372 8.30507 15.1667 8.60738L15.0765 8.69399L10.2368 12.7075C9.90612 12.9817 9.38867 13.0066 9.02412 12.7822L8.91969 12.7074L6.57058 10.7583C6.20702 10.4566 6.20718 9.96767 6.57093 9.66618C6.90161 9.39209 7.41895 9.36728 7.78343 9.59167L7.88784 9.66647L9.5777 11.0693L13.7596 7.6019C14.1233 7.30032 14.7129 7.30032 15.0765 7.6019Z" fill="#7D8DB5"/>
</svg>
