<svg width="22" height="22" viewBox="0 0 22 22" fill="none" xmlns="http://www.w3.org/2000/svg">
<path d="M21.171 6.88696V11.9884C21.171 16.0696 19.1304 18.1101 15.0493 18.1101H14.5391C14.2228 18.1101 13.9168 18.2632 13.7229 18.5183L12.1925 20.5588C11.5191 21.4567 10.4172 21.4567 9.74377 20.5588L8.21333 18.5183C8.05009 18.2938 7.67258 18.1101 7.3971 18.1101H6.88696C2.8058 18.1101 0.765217 17.0899 0.765217 11.9884V6.88696C0.765217 2.8058 2.8058 0.765217 6.88696 0.765217H10.9681" stroke="#AEAEAE" stroke-width="1.5" stroke-miterlimit="10" stroke-linecap="round" stroke-linejoin="round"/>
<path d="M14.2328 3.43995C13.8961 2.42987 14.294 1.18511 15.3959 0.838214C15.9673 0.664764 16.6815 0.807605 17.0896 1.34836C17.4773 0.787199 18.2119 0.664764 18.7833 0.838214C19.8852 1.17491 20.2831 2.42987 19.9464 3.43995C19.4261 5.04181 17.5997 5.86824 17.0896 5.86824C16.5794 5.86824 14.7735 5.05201 14.2328 3.43995Z" stroke="#AEAEAE" stroke-width="1.5" stroke-linecap="round" stroke-linejoin="round"/>
<path d="M15.0457 9.94783H15.0548" stroke="#AEAEAE" stroke-width="2" stroke-linecap="round" stroke-linejoin="round"/>
<path d="M10.9635 9.94783H10.9727" stroke="#AEAEAE" stroke-width="2" stroke-linecap="round" stroke-linejoin="round"/>
<path d="M6.88135 9.94783H6.89052" stroke="#AEAEAE" stroke-width="2" stroke-linecap="round" stroke-linejoin="round"/>
</svg>
