<svg width="180" height="40" viewBox="0 0 180 40" fill="none" xmlns="http://www.w3.org/2000/svg">
<g clip-path="url(#clip0_18_2266)">
<mask id="mask0_18_2266" style="mask-type:luminance" maskUnits="userSpaceOnUse" x="46" y="27" width="134" height="13">
<path d="M179.993 27.7922H46.3262V39.7032H179.993V27.7922Z" fill="white"/>
</mask>
<g mask="url(#mask0_18_2266)">
<path d="M47.6494 38.3798H49.1052V34.5418H53.0755V33.1522H49.1052V30.5054H54.1343V29.1157H47.6494V38.3798ZM61.4723 38.5121C64.2515 38.5121 66.369 36.3946 66.369 33.7478C66.369 31.1009 64.2515 28.9834 61.4723 28.9834C58.6931 28.9834 56.5756 31.1009 56.5756 33.7478C56.5756 36.3946 58.6931 38.5121 61.4723 38.5121ZM61.4723 37.1887C59.5533 37.1887 58.0314 35.6668 58.0314 33.7478C58.0314 31.8288 59.5533 30.3068 61.4723 30.3068C63.3913 30.3068 64.9133 31.8288 64.9133 33.7478C64.9133 35.6668 63.3913 37.1887 61.4723 37.1887ZM69.9239 38.3798H71.3797V34.9389H73.5634L75.4824 38.3798H77.1367L75.0324 34.6742C75.0324 34.6742 76.8058 34.0786 76.8058 32.0273C76.8058 30.373 75.5485 29.1157 73.7619 29.1157H69.9239V38.3798ZM71.3797 33.6154V30.4392H73.7619C74.6883 30.4392 75.35 31.1009 75.35 32.0273C75.35 32.9537 74.6883 33.6154 73.7619 33.6154H71.3797ZM84.8575 38.3798H86.3132V31.5641L89.688 35.8653L93.0628 31.5641V38.3798H94.5186V29.1157H93.1951L89.688 33.6154L86.1809 29.1157H84.8575V38.3798ZM98.67 38.3798H105.353V36.9902H100.126V34.2771H104.162V32.8875H100.126V30.5054H105.221V29.1157H98.67V38.3798ZM108.786 38.3798H110.242V34.9389H112.426L114.345 38.3798H115.999L113.895 34.6742C113.895 34.6742 115.668 34.0786 115.668 32.0273C115.668 30.373 114.411 29.1157 112.624 29.1157H108.786V38.3798ZM110.242 33.6154V30.4392H112.624C113.551 30.4392 114.212 31.1009 114.212 32.0273C114.212 32.9537 113.551 33.6154 112.624 33.6154H110.242ZM123.734 38.5121C126.248 38.5121 127.572 36.6593 127.572 36.6593L126.645 35.7329C126.645 35.7329 125.653 37.1887 123.734 37.1887C121.815 37.1887 120.293 35.6668 120.293 33.7478C120.293 31.8288 121.815 30.3068 123.734 30.3068C125.653 30.3068 126.579 31.6964 126.579 31.6964L127.505 30.77C127.505 30.77 126.248 28.9834 123.734 28.9834C120.954 28.9834 118.837 31.1009 118.837 33.7478C118.837 36.3946 120.954 38.5121 123.734 38.5121ZM130.802 38.3798H132.258V34.3433H136.824V38.3798H138.28V29.1157H136.824V33.0199H132.258V29.1157H130.802V38.3798ZM141.239 38.3798H142.761L143.687 35.9976H147.79L148.716 38.3798H150.238L146.533 29.1157H144.945L141.239 38.3798ZM144.217 34.6742L145.739 30.8362L147.261 34.6742H144.217ZM153.205 38.3798H154.661V31.5641L159.756 38.3798H161.08V29.1157H159.624V35.9314L154.529 29.1157H153.205V38.3798ZM166.956 38.3798H168.412V30.5054H171.191V29.1157H164.177V30.5054H166.956V38.3798ZM176.674 38.5121C178.725 38.5121 179.983 37.2549 179.983 35.7991C179.983 32.3582 175.086 33.6154 175.086 31.5641C175.086 30.9024 175.681 30.3068 176.806 30.3068C178.064 30.3068 178.725 31.1671 178.725 31.1671L179.718 30.1745C179.718 30.1745 178.725 28.9834 176.806 28.9834C174.821 28.9834 173.63 30.1745 173.63 31.5641C173.63 35.005 178.527 33.7478 178.527 35.7991C178.527 36.527 177.865 37.1887 176.674 37.1887C175.086 37.1887 174.358 36.13 174.358 36.13L173.365 37.1225C173.365 37.1225 174.424 38.5121 176.674 38.5121Z" fill="white"/>
</g>
<mask id="mask1_18_2266" style="mask-type:luminance" maskUnits="userSpaceOnUse" x="47" y="2" width="133" height="17">
<path d="M179.993 2.64697H47.6494V18.5282H179.993V2.64697Z" fill="white"/>
</mask>
<g mask="url(#mask1_18_2266)">
<path d="M50.8128 5.8487V14.8978H53.1303C55.5949 14.861 57.5813 12.8379 57.5445 10.3732C57.6181 7.94543 55.7052 5.92227 53.2775 5.8487C53.2407 5.8487 53.1671 5.8487 53.1303 5.8487H50.8128ZM53.1303 2.97949C57.4341 2.97949 60.7079 6.25333 60.7079 10.3732C60.7079 14.4931 57.4341 17.767 53.1303 17.767H48.0172C47.7966 17.767 47.6494 17.6199 47.6494 17.3991V3.38413C47.6494 3.16342 47.7966 3.01628 48.0172 3.01628L53.1303 2.97949Z" fill="white"/>
<path d="M71.8902 15.2289C74.5755 15.2289 76.7458 13.0586 76.7458 10.3733C76.7458 7.68803 74.5755 5.51772 71.8902 5.51772C69.2048 5.51772 67.0345 7.68803 67.0345 10.3733C67.0345 13.0586 69.2048 15.2289 71.8902 15.2289ZM71.8902 2.6853C76.4146 2.6853 79.9092 6.17985 79.9092 10.3733C79.9092 14.5668 76.4146 18.0614 71.8902 18.0614C67.3656 18.0614 63.8711 14.5668 63.8711 10.3733C63.8711 6.17985 67.3656 2.6853 71.8902 2.6853Z" fill="white"/>
<path d="M90.9448 15.2289C93.6301 15.2289 95.8004 13.0586 95.8004 10.3733C95.8004 7.68803 93.6301 5.51772 90.9448 5.51772C88.2595 5.51772 86.0892 7.68803 86.0892 10.3733C86.0892 13.0586 88.2595 15.2289 90.9448 15.2289ZM90.9448 2.6853C95.4693 2.6853 98.9639 6.17985 98.9639 10.3733C98.9639 14.5668 95.4693 18.0614 90.9448 18.0614C86.4203 18.0614 82.9258 14.5668 82.9258 10.3733C82.9258 6.17985 86.3835 2.6853 90.9448 2.6853Z" fill="white"/>
<path d="M109.558 5.84878H106.285V9.74796H109.558C110.625 9.78475 111.508 8.97548 111.545 7.90872C111.545 7.87194 111.545 7.87194 111.545 7.83515C111.581 6.76841 110.736 5.88557 109.669 5.84878C109.632 5.84878 109.595 5.84878 109.558 5.84878ZM103.121 3.38421C103.121 3.1635 103.268 3.01636 103.489 3.01636H109.632C112.575 3.01636 114.708 5.14987 114.708 7.87194C114.745 9.71118 113.715 11.3665 112.06 12.1758L114.892 17.1785C115.003 17.3624 114.966 17.5831 114.782 17.6935C114.708 17.7303 114.635 17.7671 114.561 17.7671H112.06C111.913 17.7671 111.802 17.6935 111.729 17.5831L109.007 12.6171H106.285V17.3991C106.285 17.6199 106.137 17.7671 105.917 17.7671H103.526C103.305 17.7671 103.158 17.6199 103.158 17.3991L103.121 3.38421Z" fill="white"/>
<path d="M122.948 5.8854V14.9345H125.265C127.73 14.8977 129.716 12.8745 129.679 10.4099C129.753 7.98213 127.84 5.95897 125.412 5.8854C125.375 5.8854 125.302 5.8854 125.265 5.8854H122.948ZM125.265 3.05298C129.569 3.05298 132.843 6.32682 132.843 10.4467C132.843 14.5667 129.569 17.8405 125.265 17.8405H120.152C119.931 17.8405 119.784 17.6933 119.784 17.4725V3.45762C119.784 3.23691 119.931 3.08977 120.152 3.08977L125.265 3.05298Z" fill="white"/>
<path d="M142.48 6.65796L140.678 11.5135H144.246L142.48 6.65796ZM139.648 14.2357L138.47 17.4727C138.434 17.6199 138.286 17.7302 138.102 17.7302H135.565C135.381 17.767 135.197 17.6199 135.16 17.3991C135.16 17.3255 135.16 17.2519 135.197 17.2152L140.715 3.23699C140.752 3.08985 140.936 2.97949 141.083 2.97949H143.915C144.062 2.97949 144.246 3.05306 144.283 3.23699L149.8 17.2152C149.874 17.3991 149.8 17.6199 149.616 17.6934C149.543 17.7302 149.506 17.7302 149.432 17.7302H146.894C146.747 17.7302 146.563 17.6199 146.526 17.4727L145.349 14.2357H139.648Z" fill="white"/>
<path d="M152.744 6.95231C152.744 4.63488 154.73 2.64851 157.893 2.64851C159.586 2.61173 161.24 3.23707 162.491 4.41417C162.639 4.56131 162.639 4.81881 162.491 4.96595L161.056 6.40054C160.909 6.54768 160.688 6.54768 160.541 6.43734C159.88 5.812 158.997 5.48093 158.077 5.48093C156.827 5.48093 155.87 6.21663 155.87 7.06267C155.87 9.82153 163.338 8.23978 163.338 13.5001C163.338 16.1485 161.351 18.1349 157.746 18.1349C155.76 18.1717 153.848 17.3992 152.413 16.0014C152.265 15.8542 152.265 15.6335 152.413 15.4864L153.773 14.1254C153.92 13.9782 154.141 13.9782 154.288 14.1254C155.171 14.9714 156.312 15.4129 157.525 15.4496C159.107 15.4496 160.137 14.6036 160.137 13.5367C160.211 10.7043 152.744 12.2861 152.744 6.95231Z" fill="white"/>
<path d="M176.948 3.34734V8.86504H170.62V3.34734C170.62 3.16342 170.474 2.97949 170.29 2.97949C170.29 2.97949 170.29 2.97949 170.253 2.97949H167.861C167.641 2.97949 167.493 3.12663 167.493 3.34734C167.493 3.34734 167.493 3.34734 167.493 3.38413V17.3623C167.493 17.5463 167.641 17.7302 167.825 17.7302C167.825 17.7302 167.825 17.7302 167.861 17.7302H170.253C170.474 17.7302 170.62 17.5831 170.62 17.3623C170.62 17.3623 170.62 17.3623 170.62 17.3255V11.7342H176.948V17.3255C176.948 17.5095 177.095 17.6934 177.279 17.6934H177.316H179.706C179.89 17.6934 180.074 17.5463 180.074 17.3623V17.3255V3.34734C180.074 3.16342 179.927 2.97949 179.743 2.97949H179.706H177.316C177.132 2.97949 176.948 3.12663 176.948 3.31056C176.948 3.34734 176.948 3.34734 176.948 3.34734Z" fill="white"/>
</g>
<path d="M35.643 4.98454C33.9995 1.91137 30.7869 0 27.3127 0H0.902393C0.416771 0 0.00585938 0.412252 0.00585938 0.936945C0.00585938 1.16181 0.117926 1.38668 0.267349 1.57407L6.0201 7.38313C6.54309 7.9078 7.2155 8.17016 7.92524 8.17016H26.5283C27.8358 8.17016 28.9565 9.21953 28.9565 10.5687C28.9565 11.9179 27.9104 13.0048 26.5657 13.0048H13.7527C13.2671 13.0048 12.8562 13.417 12.8562 13.9418C12.8562 14.1666 12.9683 14.3915 13.1177 14.5789L18.8704 20.388C19.3934 20.9126 20.0659 21.175 20.7756 21.175H26.5657C34.149 21.1375 39.827 13.0423 35.643 4.98454Z" fill="white"/>
</g>
<defs>
<clipPath id="clip0_18_2266">
<rect width="179.988" height="39.7031" fill="white" transform="translate(0.00585938)"/>
</clipPath>
</defs>
</svg>
