<svg width="120" height="24" viewBox="0 0 120 24" fill="none" xmlns="http://www.w3.org/2000/svg">
<path d="M12 21.6516C11.69 21.6516 11.39 21.6116 11.14 21.5216C7.32 20.2116 1.25 15.5616 1.25 8.69156C1.25 5.19156 4.08 2.35156 7.56 2.35156C9.25 2.35156 10.83 3.01156 12 4.19156C13.17 3.01156 14.75 2.35156 16.44 2.35156C19.92 2.35156 22.75 5.20156 22.75 8.69156C22.75 15.5716 16.68 20.2116 12.86 21.5216C12.61 21.6116 12.31 21.6516 12 21.6516ZM7.56 3.85156C4.91 3.85156 2.75 6.02156 2.75 8.69156C2.75 15.5216 9.32 19.3216 11.63 20.1116C11.81 20.1716 12.2 20.1716 12.38 20.1116C14.68 19.3216 21.26 15.5316 21.26 8.69156C21.26 6.02156 19.1 3.85156 16.45 3.85156C14.93 3.85156 13.52 4.56156 12.61 5.79156C12.33 6.17156 11.69 6.17156 11.41 5.79156C10.48 4.55156 9.08 3.85156 7.56 3.85156Z" fill="white"/>
<path d="M64.5 8.62639C64.09 8.62639 63.75 8.28639 63.75 7.87639V6.49639C63.75 5.44639 63.3 4.42639 62.52 3.71639C61.73 2.99639 60.71 2.66639 59.63 2.76639C57.83 2.93639 56.25 4.77639 56.25 6.69639V7.66639C56.25 8.07639 55.91 8.41639 55.5 8.41639C55.09 8.41639 54.75 8.07639 54.75 7.66639V6.68639C54.75 3.99639 56.92 1.51639 59.49 1.26639C60.99 1.12639 62.43 1.59639 63.53 2.60639C64.62 3.59639 65.25 5.01639 65.25 6.49639V7.87639C65.25 8.28639 64.91 8.62639 64.5 8.62639Z" fill="white"/>
<path d="M62.9998 22.75H56.9998C52.3798 22.75 51.5198 20.6 51.2998 18.51L50.5498 12.52C50.4398 11.44 50.3998 9.89 51.4498 8.73C52.3498 7.73 53.8398 7.25 55.9998 7.25H63.9998C66.1698 7.25 67.6598 7.74 68.5498 8.73C69.5898 9.89 69.5598 11.44 69.4498 12.5L68.6998 18.51C68.4798 20.6 67.6198 22.75 62.9998 22.75ZM55.9998 8.75C54.3098 8.75 53.1498 9.08 52.5598 9.74C52.0698 10.28 51.9098 11.11 52.0398 12.35L52.7898 18.34C52.9598 19.94 53.3998 21.26 56.9998 21.26H62.9998C66.5998 21.26 67.0398 19.95 67.2098 18.36L67.9598 12.35C68.0898 11.13 67.9298 10.3 67.4398 9.75C66.8498 9.08 65.6898 8.75 63.9998 8.75H55.9998Z" fill="white"/>
<path d="M63.4202 13.1484C62.8602 13.1484 62.4102 12.6984 62.4102 12.1484C62.4102 11.5984 62.8602 11.1484 63.4102 11.1484C63.9602 11.1484 64.4102 11.5984 64.4102 12.1484C64.4102 12.6984 63.9702 13.1484 63.4202 13.1484Z" fill="white"/>
<path d="M56.4202 13.1484C55.8602 13.1484 55.4102 12.6984 55.4102 12.1484C55.4102 11.5984 55.8602 11.1484 56.4102 11.1484C56.9602 11.1484 57.4102 11.5984 57.4102 12.1484C57.4102 12.6984 56.9702 13.1484 56.4202 13.1484Z" fill="white"/>
<path d="M108.161 11.62C108.131 11.62 108.111 11.62 108.081 11.62C108.031 11.61 107.961 11.61 107.901 11.62C105.001 11.53 102.811 9.25 102.811 6.44C102.811 3.58 105.141 1.25 108.001 1.25C110.861 1.25 113.191 3.58 113.191 6.44C113.181 9.25 110.981 11.53 108.191 11.62C108.181 11.62 108.171 11.62 108.161 11.62ZM108.001 2.75C105.971 2.75 104.311 4.41 104.311 6.44C104.311 8.44 105.871 10.05 107.861 10.12C107.911 10.11 108.051 10.11 108.181 10.12C110.141 10.03 111.681 8.42 111.691 6.44C111.691 4.41 110.031 2.75 108.001 2.75Z" fill="white"/>
<path d="M108.17 22.55C106.21 22.55 104.24 22.05 102.75 21.05C101.36 20.13 100.6 18.87 100.6 17.5C100.6 16.13 101.36 14.86 102.75 13.93C105.75 11.94 110.61 11.94 113.59 13.93C114.97 14.85 115.74 16.11 115.74 17.48C115.74 18.85 114.98 20.12 113.59 21.05C112.09 22.05 110.13 22.55 108.17 22.55ZM103.58 15.19C102.62 15.83 102.1 16.65 102.1 17.51C102.1 18.36 102.63 19.18 103.58 19.81C106.07 21.48 110.27 21.48 112.76 19.81C113.72 19.17 114.24 18.35 114.24 17.49C114.24 16.64 113.71 15.82 112.76 15.19C110.27 13.53 106.07 13.53 103.58 15.19Z" fill="white"/>
</svg>
