<svg width="20" height="20" viewBox="0 0 20 20" fill="none" xmlns="http://www.w3.org/2000/svg">
<path d="M8.6 2.15C8.6 2.34 8.44 2.5 8.25 2.5H7.12C4.96 2.5 3.2 4.26 3.2 6.42V15.65C3.2 15.84 3.04 16 2.85 16H2.15C0.96 16 0 15.04 0 13.85V2.15C0 0.96 0.96 0 2.15 0H6.45C7.64 0 8.6 0.96 8.6 2.15Z" fill="white"/>
<path d="M20.0004 2.15V13.85C20.0004 15.04 19.0404 16 17.8504 16H17.2204C17.0304 16 16.8704 15.84 16.8704 15.65V6.42C16.8704 4.26 15.1104 2.5 12.9504 2.5H11.7504C11.5604 2.5 11.4004 2.34 11.4004 2.15C11.4004 0.96 12.3604 0 13.5504 0H17.8504C19.0404 0 20.0004 0.96 20.0004 2.15Z" fill="white"/>
<path d="M12.9492 4H7.11922C5.77922 4 4.69922 5.08 4.69922 6.42V17.58C4.69922 18.92 5.77922 20 7.11922 20H8.74922C9.02922 20 9.24922 19.78 9.24922 19.5V17C9.24922 16.59 9.58922 16.25 9.99922 16.25C10.4092 16.25 10.7492 16.59 10.7492 17V19.5C10.7492 19.78 10.9692 20 11.2492 20H12.9592C14.2892 20 15.3692 18.92 15.3692 17.59V6.42C15.3692 5.08 14.2892 4 12.9492 4ZM11.9992 12.75H7.99922C7.58922 12.75 7.24922 12.41 7.24922 12C7.24922 11.59 7.58922 11.25 7.99922 11.25H11.9992C12.4092 11.25 12.7492 11.59 12.7492 12C12.7492 12.41 12.4092 12.75 11.9992 12.75ZM11.9992 9.75H7.99922C7.58922 9.75 7.24922 9.41 7.24922 9C7.24922 8.59 7.58922 8.25 7.99922 8.25H11.9992C12.4092 8.25 12.7492 8.59 12.7492 9C12.7492 9.41 12.4092 9.75 11.9992 9.75Z" fill="white"/>
</svg>
