<svg width="23" height="23" viewBox="0 0 23 23" fill="none" xmlns="http://www.w3.org/2000/svg">
<path d="M22.4251 1.85278H21.1473V0.575C21.1473 0.255556 20.8918 0 20.5723 0C20.2529 0 19.9973 0.255556 19.9973 0.575V1.85278H18.7195C18.4001 1.85278 18.1445 2.10833 18.1445 2.42778C18.1445 2.74722 18.4001 3.00278 18.7195 3.00278H19.9973V4.28056C19.9973 4.6 20.2529 4.85556 20.5723 4.85556C20.8918 4.85556 21.1473 4.6 21.1473 4.28056V2.99H22.4251C22.7445 2.99 23.0001 2.73444 23.0001 2.415C23.0001 2.09556 22.7445 1.84 22.4251 1.84V1.85278Z" fill="white"/>
<path fill-rule="evenodd" clip-rule="evenodd" d="M17.8378 5.27394C19.2944 7.13949 18.9622 9.83561 17.0967 11.2923C19.1156 11.9567 20.4956 13.8287 20.5211 15.9562V20.3964C20.5211 20.7159 20.2656 20.9714 19.9461 20.9714H14.49V22.0064C14.49 22.3259 14.2344 22.5814 13.915 22.5814H0.575C0.255556 22.5814 0 22.3259 0 22.0064V16.8953C0 14.3909 1.83361 12.2698 4.36361 11.5287C3.62889 11.0559 3.02833 10.3978 2.61306 9.63116C1.25861 7.12033 2.19778 3.98977 4.715 2.63533C7.23222 1.28088 10.3628 2.22005 11.7172 4.73727C12.4839 4.02172 13.4933 3.62561 14.5411 3.62561C15.8317 3.65116 17.0456 4.25172 17.8378 5.27394ZM17.7356 7.81033C17.6972 6.07894 16.2725 4.71172 14.5411 4.74366H14.5731C13.6722 4.75005 12.8225 5.15894 12.2539 5.86172V5.93199C12.2986 6.09172 12.3306 6.25783 12.3561 6.42394C12.3944 6.69227 12.3944 6.95422 12.3944 7.22894C12.3944 7.65061 12.3369 8.06588 12.2283 8.47477L12.226 8.4854L12.226 8.48543C12.223 8.49867 12.2213 8.50666 12.2193 8.51459C12.2162 8.52665 12.2126 8.53857 12.2035 8.56858L12.2035 8.56864L12.1836 8.63449C12.1744 8.66525 12.1652 8.69711 12.1558 8.72928L12.1558 8.72938L12.1558 8.7294C12.1264 8.83086 12.0962 8.93539 12.0622 9.01783C12.0175 9.12644 11.9728 9.23505 11.9217 9.34366L11.8897 9.43311C12.4583 10.4234 13.5253 11.0303 14.6689 11.0048C16.4003 10.9664 17.7675 9.54172 17.7356 7.81033ZM11.1231 11.9312C10.7908 11.7778 10.4522 11.6501 10.1008 11.5542C10.5353 11.2667 10.925 10.9153 11.2508 10.5064C11.5 10.8323 11.8003 11.1134 12.1389 11.3498C11.7939 11.5031 11.4744 11.7076 11.1869 11.9439L11.1231 11.9312ZM7.20667 3.20394C4.98972 3.21033 3.18806 5.01199 3.19444 7.22894C3.19444 9.35005 4.84917 11.107 6.96389 11.2412H7.43667C9.07222 11.2412 10.5225 10.0017 11.0272 8.50672C11.1678 8.09783 11.2381 7.66338 11.2444 7.22894C11.2444 6.78172 11.1678 6.34088 11.0144 5.91922C10.4586 4.29005 8.92528 3.20394 7.20667 3.20394ZM13.34 21.457H1.15V16.8953C1.15 15.9626 1.495 15.0553 2.08278 14.3334C2.7025 13.5731 3.55861 13.0237 4.49139 12.717C5.06 12.5317 5.66056 12.4551 6.25472 12.4295C6.32753 12.4265 6.40062 12.4232 6.47391 12.42H6.47392C7.01797 12.3961 7.57337 12.3717 8.11389 12.4167C8.43333 12.4423 8.75278 12.5062 9.06583 12.5701C9.39806 12.6403 9.72389 12.7234 10.0433 12.8192C10.1449 12.8477 10.2439 12.8813 10.3436 12.9151L10.3436 12.9151L10.3436 12.9151C10.4007 12.9345 10.458 12.9539 10.5161 12.9726C10.9761 13.1323 11.385 13.3687 11.7747 13.6625C11.9477 13.7946 12.0882 13.9428 12.231 14.0934C12.2886 14.1541 12.3466 14.2153 12.4072 14.2759C12.5797 14.4484 12.7139 14.7039 12.8161 14.9212C12.9698 15.2344 13.0469 15.5749 13.1233 15.9125L13.1419 15.9945C13.2825 16.627 13.3464 17.2659 13.3464 17.9176V19.2209V21.4187V21.4825L13.34 21.457ZM14.49 19.8214H19.3711V15.9562C19.3136 13.8095 17.5311 12.1101 15.3844 12.1548H13.9661C13.3783 12.1228 12.8033 12.2698 12.2986 12.5701C12.5733 12.7553 12.8289 12.9789 13.0525 13.2217L13.0844 13.26C13.2122 13.4006 13.3336 13.5539 13.4486 13.7073C13.469 13.7399 13.492 13.7699 13.5143 13.799C13.5269 13.8155 13.5393 13.8317 13.5508 13.8478C14.1003 14.6848 14.4261 15.6559 14.49 16.6589V16.8378V16.8953V19.8214Z" fill="white"/>
</svg>
