<svg width="296" height="1331" viewBox="0 0 296 1331" fill="none" xmlns="http://www.w3.org/2000/svg">
<g filter="url(#filter0_d_47_115039)">
<rect x="104" y="112" width="72" height="1107" fill="#212121"/>
</g>
<path fill-rule="evenodd" clip-rule="evenodd" d="M146.711 886.297C147.099 886.69 147.096 887.323 146.703 887.711L140.703 893.642C140.313 894.027 139.687 894.027 139.297 893.642L133.297 887.711C132.904 887.323 132.901 886.69 133.289 886.297C133.677 885.904 134.31 885.901 134.703 886.289L140 891.524L145.297 886.289C145.69 885.901 146.323 885.904 146.711 886.297Z" fill="#8F8F8F"/>
<mask id="mask0_47_115039" style="mask-type:alpha" maskUnits="userSpaceOnUse" x="128" y="1080" width="24" height="24">
<rect x="128" y="1080" width="24" height="24" rx="12" fill="#676679"/>
</mask>
<g mask="url(#mask0_47_115039)">
<rect x="128" y="1080" width="24" height="24" fill="#787878"/>
</g>
<mask id="mask1_47_115039" style="mask-type:alpha" maskUnits="userSpaceOnUse" x="128" y="1010" width="24" height="24">
<rect x="128" y="1010" width="24" height="24" rx="12" fill="#676679"/>
</mask>
<g mask="url(#mask1_47_115039)">
<rect x="128" y="1010" width="24" height="24" fill="#787878"/>
</g>
<mask id="mask2_47_115039" style="mask-type:alpha" maskUnits="userSpaceOnUse" x="128" y="940" width="24" height="24">
<rect x="128" y="940" width="24" height="24" rx="12" fill="#676679"/>
</mask>
<g mask="url(#mask2_47_115039)">
<rect x="128" y="940" width="24" height="24" fill="#787878"/>
</g>
<path fill-rule="evenodd" clip-rule="evenodd" d="M132.388 1151.68C132.389 1148.62 134.867 1146.15 137.921 1146.15C140.977 1146.15 143.454 1148.63 143.454 1151.68C143.454 1154.74 140.977 1157.21 137.921 1157.21H137.889L137.886 1157.21C134.84 1157.2 132.378 1154.73 132.388 1151.68ZM137.921 1148.15C135.971 1148.15 134.388 1149.73 134.388 1151.68V1151.69C134.381 1153.63 135.95 1155.21 137.891 1155.21H137.921C139.872 1155.21 141.454 1153.63 141.454 1151.68C141.454 1149.73 139.872 1148.15 137.921 1148.15Z" fill="#8F8F8F"/>
<path fill-rule="evenodd" clip-rule="evenodd" d="M132.413 1160C133.876 1159.08 135.832 1158.51 137.922 1158.51C140 1158.51 141.955 1159.07 143.419 1159.99C144.851 1160.89 145.994 1162.25 145.994 1163.9C145.994 1164.74 145.689 1165.45 145.151 1166.02C144.637 1166.56 143.948 1166.92 143.218 1167.17C141.767 1167.66 139.862 1167.81 137.922 1167.81C135.993 1167.81 134.09 1167.66 132.637 1167.18C131.906 1166.93 131.215 1166.58 130.698 1166.04C130.157 1165.48 129.85 1164.76 129.85 1163.92C129.85 1162.28 130.982 1160.91 132.413 1160ZM133.482 1161.69C132.336 1162.42 131.85 1163.25 131.85 1163.92C131.85 1164.23 131.949 1164.46 132.138 1164.65C132.351 1164.87 132.713 1165.09 133.273 1165.28C134.403 1165.66 136.036 1165.81 137.922 1165.81C139.816 1165.81 141.447 1165.66 142.574 1165.27C143.132 1165.08 143.492 1164.86 143.704 1164.64C143.894 1164.44 143.994 1164.21 143.994 1163.9C143.994 1163.24 143.507 1162.41 142.357 1161.69C141.238 1160.98 139.658 1160.51 137.922 1160.51C136.176 1160.51 134.597 1160.99 133.482 1161.69Z" fill="#8F8F8F"/>
<path d="M145.087 1154.13C144.535 1154.13 144.087 1154.58 144.087 1155.13C144.087 1155.68 144.535 1156.13 145.087 1156.13H146.131V1157.14C146.131 1157.69 146.579 1158.14 147.131 1158.14C147.683 1158.14 148.131 1157.69 148.131 1157.14V1156.13H149.177C149.729 1156.13 150.177 1155.68 150.177 1155.13C150.177 1154.58 149.729 1154.13 149.177 1154.13H148.131V1153.13C148.131 1152.58 147.683 1152.13 147.131 1152.13C146.579 1152.13 146.131 1152.58 146.131 1153.13V1154.13H145.087Z" fill="#8F8F8F"/>
<path fill-rule="evenodd" clip-rule="evenodd" d="M140.018 562.411C139.097 562.411 138.351 563.158 138.351 564.078C138.351 564.999 139.097 565.745 140.018 565.745C140.938 565.745 141.684 564.999 141.684 564.078C141.684 563.158 140.938 562.411 140.018 562.411ZM136.684 564.078C136.684 562.237 138.177 560.745 140.018 560.745C141.859 560.745 143.351 562.237 143.351 564.078C143.351 565.919 141.859 567.411 140.018 567.411C138.177 567.411 136.684 565.919 136.684 564.078Z" fill="#8F8F8F"/>
<path fill-rule="evenodd" clip-rule="evenodd" d="M140.018 555.745C139.797 555.745 139.585 555.833 139.428 555.989C139.272 556.145 139.184 556.357 139.184 556.578V556.723C139.183 557.154 139.055 557.575 138.817 557.934C138.579 558.293 138.242 558.574 137.846 558.744C137.775 558.774 137.701 558.795 137.626 558.804C137.266 558.93 136.879 558.961 136.502 558.893C136.068 558.814 135.667 558.607 135.352 558.299L135.345 558.292L135.295 558.242C135.218 558.165 135.125 558.103 135.024 558.061C134.923 558.019 134.815 557.998 134.705 557.998C134.596 557.998 134.487 558.019 134.386 558.061C134.285 558.103 134.193 558.165 134.115 558.242L134.115 558.243C134.037 558.32 133.976 558.412 133.934 558.513C133.892 558.614 133.87 558.723 133.87 558.832C133.87 558.942 133.892 559.05 133.934 559.151C133.976 559.253 134.037 559.344 134.115 559.422L134.172 559.479C134.48 559.794 134.687 560.195 134.766 560.629C134.843 561.054 134.794 561.493 134.624 561.89C134.469 562.296 134.198 562.647 133.845 562.9C133.485 563.157 133.055 563.301 132.612 563.311L132.593 563.311H132.518C132.297 563.311 132.085 563.399 131.928 563.556C131.772 563.712 131.684 563.924 131.684 564.145C131.684 564.366 131.772 564.578 131.928 564.734C132.085 564.89 132.297 564.978 132.518 564.978H132.663C133.093 564.98 133.514 565.107 133.873 565.345C134.231 565.582 134.512 565.918 134.682 566.312C134.858 566.715 134.911 567.161 134.833 567.594C134.754 568.028 134.547 568.429 134.238 568.744L134.232 568.751L134.182 568.801C134.104 568.878 134.043 568.97 134.001 569.072C133.959 569.173 133.937 569.281 133.937 569.391C133.937 569.5 133.959 569.609 134.001 569.71C134.043 569.811 134.104 569.903 134.182 569.98L134.182 569.981C134.26 570.058 134.351 570.12 134.453 570.162C134.554 570.204 134.662 570.225 134.772 570.225C134.881 570.225 134.99 570.204 135.091 570.162C135.192 570.12 135.284 570.058 135.361 569.981L135.418 569.924C135.734 569.615 136.134 569.409 136.568 569.33C136.994 569.253 137.433 569.302 137.83 569.472C138.235 569.627 138.586 569.897 138.839 570.251C139.097 570.611 139.24 571.041 139.251 571.484L139.251 571.503V571.578C139.251 571.799 139.339 572.011 139.495 572.167C139.651 572.324 139.863 572.411 140.084 572.411C140.305 572.411 140.517 572.324 140.674 572.167C140.83 572.011 140.918 571.799 140.918 571.578V571.436L140.918 571.433C140.919 571.002 141.047 570.582 141.285 570.223C141.522 569.865 141.858 569.584 142.252 569.414C142.655 569.237 143.101 569.185 143.533 569.263C143.968 569.342 144.368 569.549 144.684 569.857L144.69 569.864L144.74 569.914C144.818 569.991 144.91 570.053 145.011 570.095C145.112 570.137 145.221 570.159 145.33 570.159C145.44 570.159 145.548 570.137 145.649 570.095C145.75 570.053 145.842 569.992 145.92 569.914L145.92 569.914C145.998 569.836 146.059 569.744 146.101 569.643C146.143 569.542 146.165 569.433 146.165 569.324C146.165 569.214 146.143 569.106 146.101 569.005C146.059 568.904 145.998 568.812 145.92 568.734L145.863 568.678C145.555 568.362 145.348 567.961 145.269 567.527C145.191 567.095 145.243 566.648 145.42 566.246C145.59 565.852 145.871 565.516 146.229 565.279C146.588 565.041 147.009 564.913 147.439 564.911L147.443 564.911L147.518 564.911C147.739 564.911 147.951 564.824 148.107 564.667C148.263 564.511 148.351 564.299 148.351 564.078C148.351 563.857 148.263 563.645 148.107 563.489C147.951 563.333 147.739 563.245 147.518 563.245H147.376L147.373 563.245C146.942 563.243 146.521 563.115 146.162 562.878C145.803 562.64 145.521 562.302 145.352 561.906C145.321 561.836 145.301 561.762 145.291 561.686C145.165 561.326 145.134 560.939 145.203 560.562C145.281 560.128 145.488 559.728 145.797 559.412L145.803 559.406L145.853 559.356C145.931 559.278 145.993 559.186 146.035 559.085C146.076 558.984 146.098 558.875 146.098 558.766C146.098 558.656 146.076 558.548 146.035 558.447C145.993 558.345 145.931 558.253 145.854 558.176L145.853 558.175C145.776 558.098 145.684 558.036 145.583 557.995C145.481 557.953 145.373 557.931 145.263 557.931C145.154 557.931 145.045 557.953 144.944 557.995C144.843 558.036 144.751 558.098 144.674 558.175L144.617 558.232C144.302 558.541 143.901 558.748 143.467 558.826C143.034 558.905 142.588 558.852 142.185 558.676C141.791 558.506 141.455 558.225 141.218 557.867C140.98 557.508 140.853 557.087 140.851 556.656L140.851 556.653V556.578C140.851 556.357 140.763 556.145 140.607 555.989C140.451 555.833 140.239 555.745 140.018 555.745ZM146.184 566.578L146.947 566.915C146.903 567.014 146.89 567.123 146.909 567.23C146.928 567.335 146.978 567.433 147.052 567.51L147.098 567.555C147.33 567.787 147.515 568.063 147.641 568.367C147.767 568.67 147.831 568.995 147.831 569.324C147.831 569.652 147.767 569.978 147.641 570.281C147.515 570.585 147.331 570.861 147.098 571.093L146.509 570.503L147.099 571.092C146.867 571.324 146.591 571.509 146.287 571.635C145.984 571.761 145.659 571.825 145.33 571.825C145.002 571.825 144.676 571.761 144.373 571.635C144.069 571.509 143.794 571.325 143.562 571.092L143.516 571.046C143.439 570.972 143.341 570.922 143.236 570.903C143.13 570.884 143.02 570.897 142.921 570.941L142.913 570.944C142.815 570.986 142.733 571.055 142.674 571.143C142.616 571.231 142.585 571.333 142.584 571.439V571.578C142.584 572.241 142.321 572.877 141.852 573.346C141.383 573.815 140.747 574.078 140.084 574.078C139.421 574.078 138.785 573.815 138.316 573.346C137.848 572.877 137.584 572.241 137.584 571.578V571.515C137.58 571.409 137.545 571.307 137.484 571.22C137.42 571.132 137.332 571.064 137.23 571.027C137.213 571.021 137.197 571.014 137.181 571.007C137.082 570.963 136.972 570.95 136.866 570.97C136.76 570.989 136.663 571.039 136.586 571.113L136.54 571.159C136.308 571.391 136.032 571.576 135.729 571.701C135.426 571.827 135.1 571.892 134.772 571.892C134.443 571.892 134.118 571.827 133.814 571.701C133.511 571.576 133.236 571.392 133.004 571.159C132.771 570.927 132.587 570.651 132.461 570.348C132.335 570.044 132.27 569.719 132.27 569.391C132.27 569.062 132.335 568.737 132.461 568.433C132.587 568.13 132.771 567.854 133.004 567.622L133.049 567.576C133.124 567.499 133.174 567.402 133.193 567.297C133.212 567.19 133.199 567.08 133.155 566.981L133.152 566.973C133.11 566.876 133.041 566.793 132.953 566.735C132.865 566.677 132.762 566.645 132.657 566.645H132.518C131.855 566.645 131.219 566.381 130.75 565.913C130.281 565.444 130.018 564.808 130.018 564.145C130.018 563.482 130.281 562.846 130.75 562.377C131.219 561.908 131.855 561.645 132.518 561.645H132.581C132.687 561.641 132.789 561.606 132.876 561.544C132.964 561.481 133.031 561.392 133.069 561.29C133.075 561.274 133.081 561.258 133.089 561.242C133.132 561.143 133.145 561.033 133.126 560.926C133.107 560.821 133.057 560.724 132.983 560.647L132.937 560.601C132.705 560.369 132.52 560.093 132.394 559.79C132.269 559.486 132.204 559.161 132.204 558.832C132.204 558.504 132.269 558.178 132.394 557.875C132.52 557.572 132.704 557.296 132.937 557.064C133.169 556.832 133.444 556.647 133.748 556.522C134.051 556.396 134.377 556.331 134.705 556.331C135.034 556.331 135.359 556.396 135.662 556.522C135.966 556.647 136.242 556.832 136.474 557.064L136.52 557.11C136.596 557.184 136.694 557.234 136.799 557.253C136.906 557.272 137.015 557.259 137.114 557.216C137.168 557.192 137.223 557.174 137.28 557.162C137.338 557.123 137.388 557.072 137.428 557.013C137.486 556.926 137.517 556.823 137.518 556.718V556.578C137.518 555.915 137.781 555.279 138.25 554.81C138.719 554.342 139.355 554.078 140.018 554.078C140.681 554.078 141.317 554.342 141.785 554.81C142.254 555.279 142.518 555.915 142.518 556.578V556.651C142.518 556.756 142.55 556.859 142.608 556.947C142.666 557.035 142.749 557.104 142.846 557.146L142.854 557.149C142.953 557.193 143.063 557.206 143.169 557.186C143.275 557.167 143.372 557.118 143.449 557.043L143.495 556.998C143.727 556.765 144.003 556.581 144.306 556.455C144.61 556.329 144.935 556.264 145.263 556.264C145.592 556.264 145.917 556.329 146.221 556.455C146.524 556.581 146.8 556.765 147.032 556.998C147.264 557.23 147.448 557.505 147.574 557.808C147.7 558.112 147.765 558.437 147.765 558.766C147.765 559.094 147.7 559.419 147.574 559.723C147.448 560.026 147.264 560.302 147.032 560.534L146.986 560.58C146.912 560.657 146.862 560.754 146.843 560.86C146.823 560.966 146.836 561.076 146.88 561.175C146.904 561.228 146.921 561.284 146.933 561.341C146.973 561.399 147.023 561.449 147.082 561.488C147.17 561.546 147.273 561.577 147.378 561.578H147.518C148.181 561.578 148.817 561.842 149.285 562.31C149.754 562.779 150.018 563.415 150.018 564.078C150.018 564.741 149.754 565.377 149.285 565.846C148.817 566.315 148.181 566.578 147.518 566.578H147.445C147.339 566.579 147.237 566.61 147.149 566.668C147.061 566.726 146.992 566.809 146.95 566.906L146.184 566.578Z" fill="#8F8F8F"/>
<path d="M134.605 480.141C134.605 479.588 135.053 479.141 135.605 479.141H139.665C140.218 479.141 140.665 479.588 140.665 480.141C140.665 480.693 140.218 481.141 139.665 481.141H135.605C135.053 481.141 134.605 480.693 134.605 480.141Z" fill="#8F8F8F"/>
<path fill-rule="evenodd" clip-rule="evenodd" d="M150.138 481.489C150.262 482.336 150.316 483.258 150.316 484.25C150.316 487.524 149.732 490.028 147.958 491.658C146.209 493.263 143.545 493.789 140.016 493.789C136.486 493.789 133.822 493.263 132.073 491.658C130.299 490.028 129.715 487.524 129.715 484.25C129.715 480.976 130.299 478.471 132.073 476.842C133.822 475.237 136.486 474.711 140.016 474.711C143.545 474.711 146.209 475.237 147.958 476.842C149.154 477.94 149.809 479.437 150.109 481.298C150.125 481.36 150.134 481.423 150.138 481.489ZM131.715 484.25C131.715 481.12 132.294 479.355 133.426 478.315C134.583 477.252 136.569 476.711 140.016 476.711C143.462 476.711 145.448 477.252 146.605 478.315C147.18 478.843 147.613 479.559 147.899 480.546H145.284C143.316 480.546 141.721 482.141 141.721 484.109C141.721 486.077 143.316 487.672 145.284 487.672H147.975C147.692 488.806 147.234 489.607 146.605 490.184C145.448 491.247 143.462 491.789 140.016 491.789C136.569 491.789 134.583 491.247 133.426 490.184C132.294 489.145 131.715 487.38 131.715 484.25ZM148.27 485.672C148.3 485.233 148.316 484.759 148.316 484.25C148.316 483.63 148.293 483.064 148.248 482.546H145.284C144.421 482.546 143.721 483.246 143.721 484.109C143.721 484.973 144.421 485.672 145.284 485.672H148.27Z" fill="#8F8F8F"/>
<path d="M160 468C160 470.209 158.209 472 156 472C153.791 472 152 470.209 152 468C152 465.791 153.791 464 156 464C158.209 464 160 465.791 160 468Z" fill="white"/>
<path fill-rule="evenodd" clip-rule="evenodd" d="M145.165 396.754C143.623 396.259 141.798 396.658 140.886 398.042C140.705 398.316 140.402 398.484 140.073 398.491C139.745 398.499 139.434 398.344 139.242 398.079C138.236 396.691 136.43 396.269 134.928 396.753C132.116 397.659 130.906 401.119 131.874 404.143C132.653 406.566 134.36 408.426 136.11 409.691C136.98 410.321 137.843 410.789 138.571 411.097C139.331 411.419 139.848 411.525 140.051 411.525C140.252 411.525 140.77 411.417 141.537 411.09C142.269 410.777 143.137 410.302 144.012 409.668C145.771 408.393 147.473 406.535 148.223 404.149L148.225 404.144C149.192 401.122 147.978 397.66 145.165 396.754ZM140.026 395.985C141.63 394.5 143.959 394.266 145.777 394.849C149.995 396.208 151.306 401.074 150.13 404.751C149.211 407.674 147.165 409.853 145.186 411.288C144.191 412.009 143.193 412.557 142.322 412.929C141.486 413.286 140.665 413.525 140.051 413.525C139.441 413.525 138.625 413.292 137.791 412.939C136.924 412.572 135.93 412.029 134.937 411.311C132.961 409.882 130.918 407.703 129.97 404.755C128.793 401.079 130.093 396.209 134.315 394.85M140.026 395.985C138.413 394.565 136.165 394.253 134.315 394.85L140.026 395.985Z" fill="#8F8F8F"/>
<path fill-rule="evenodd" clip-rule="evenodd" d="M142.793 399.464C142.85 398.915 143.341 398.515 143.89 398.572C144.746 398.66 145.489 399.054 146.001 399.701C146.506 400.34 146.734 401.157 146.705 402.022C146.686 402.574 146.224 403.006 145.672 402.988C145.12 402.969 144.687 402.507 144.706 401.955C144.722 401.478 144.595 401.147 144.432 400.941C144.275 400.744 144.037 400.597 143.686 400.561C143.137 400.505 142.737 400.014 142.793 399.464Z" fill="#8F8F8F"/>
<path fill-rule="evenodd" clip-rule="evenodd" d="M132.067 316.067C133.809 314.325 136.477 313.75 140.001 313.75C143.525 313.75 146.192 314.325 147.934 316.067C149.676 317.808 150.251 320.476 150.251 324C150.251 327.524 149.676 330.192 147.934 331.933C146.192 333.675 143.525 334.25 140.001 334.25C136.477 334.25 133.809 333.675 132.067 331.933C130.325 330.192 129.751 327.524 129.751 324C129.751 320.476 130.325 317.808 132.067 316.067ZM133.481 317.481C132.333 318.63 131.751 320.587 131.751 324C131.751 327.413 132.333 329.37 133.481 330.519C134.63 331.668 136.588 332.25 140.001 332.25C143.414 332.25 145.371 331.668 146.52 330.519C147.669 329.37 148.251 327.413 148.251 324C148.251 320.587 147.669 318.63 146.52 317.481C145.371 316.332 143.414 315.75 140.001 315.75C136.588 315.75 134.63 316.332 133.481 317.481Z" fill="#8F8F8F"/>
<path fill-rule="evenodd" clip-rule="evenodd" d="M145.253 320.793C145.689 321.131 145.769 321.76 145.431 322.196L142.502 325.976C142.339 326.187 142.098 326.323 141.834 326.356C141.57 326.389 141.303 326.315 141.094 326.15L138.474 324.094L136.097 327.183C135.76 327.62 135.132 327.702 134.694 327.365C134.257 327.028 134.175 326.4 134.512 325.963L137.505 322.074C137.668 321.862 137.908 321.725 138.173 321.691C138.438 321.658 138.705 321.732 138.915 321.897L141.537 323.956L143.85 320.971C144.188 320.535 144.816 320.455 145.253 320.793Z" fill="#8F8F8F"/>
<path d="M133.5 234C132.605 234 131.856 234.055 131.245 234.208C130.619 234.365 130.069 234.643 129.67 235.138C129.282 235.619 129.134 236.186 129.067 236.721C129 237.247 129 237.862 129 238.5L129 238.565C129 239.176 129 239.767 129.06 240.273C129.124 240.804 129.266 241.374 129.652 241.858C130.049 242.357 130.602 242.636 131.23 242.793C131.842 242.945 132.596 243 133.5 243C134.404 243 135.158 242.945 135.77 242.793C136.398 242.636 136.951 242.357 137.348 241.858C137.734 241.374 137.876 240.804 137.94 240.273C138 239.767 138 239.176 138 238.565L138 238.5C138 237.862 138 237.247 137.934 236.721C137.866 236.186 137.718 235.619 137.33 235.138C136.931 234.643 136.381 234.365 135.755 234.208C135.144 234.055 134.395 234 133.5 234Z" fill="#8F8F8F"/>
<path d="M133.5 245C132.605 245 131.856 245.055 131.245 245.208C130.619 245.365 130.069 245.643 129.67 246.138C129.282 246.619 129.134 247.186 129.067 247.721C129 248.247 129 248.862 129 249.5L129 249.565C129 250.176 129 250.767 129.06 251.273C129.124 251.804 129.266 252.374 129.652 252.858C130.049 253.357 130.602 253.636 131.23 253.793C131.842 253.945 132.596 254 133.5 254C134.404 254 135.158 253.945 135.77 253.793C136.398 253.636 136.951 253.357 137.348 252.858C137.734 252.374 137.876 251.804 137.94 251.273C138 250.767 138 250.176 138 249.565L138 249.5C138 248.862 138 248.247 137.934 247.721C137.866 247.186 137.718 246.619 137.33 246.138C136.931 245.643 136.381 245.365 135.755 245.208C135.144 245.055 134.395 245 133.5 245Z" fill="#8F8F8F"/>
<path d="M144.5 245C143.605 245 142.856 245.055 142.245 245.208C141.619 245.365 141.069 245.643 140.67 246.138C140.282 246.619 140.134 247.186 140.067 247.721C140 248.247 140 248.862 140 249.5L140 249.565C140 250.176 140 250.767 140.06 251.273C140.124 251.804 140.266 252.374 140.652 252.858C141.049 253.357 141.602 253.636 142.23 253.793C142.842 253.945 143.596 254 144.5 254C145.404 254 146.158 253.945 146.77 253.793C147.398 253.636 147.951 253.357 148.348 252.858C148.734 252.374 148.876 251.804 148.94 251.273C149 250.767 149 250.176 149 249.565L149 249.5C149 248.862 149 248.247 148.934 247.721C148.866 247.186 148.718 246.619 148.33 246.138C147.931 245.643 147.381 245.365 146.755 245.208C146.144 245.055 145.395 245 144.5 245Z" fill="#8F8F8F"/>
<path d="M144.5 234C143.605 234 142.856 234.055 142.245 234.208C141.619 234.365 141.069 234.643 140.67 235.138C140.282 235.619 140.134 236.186 140.067 236.721C140 237.247 140 237.862 140 238.5L140 238.565C140 239.176 140 239.767 140.06 240.273C140.124 240.804 140.266 241.374 140.652 241.858C141.049 242.357 141.602 242.636 142.23 242.793C142.842 242.945 143.596 243 144.5 243C145.404 243 146.158 242.945 146.77 242.793C147.398 242.636 147.951 242.357 148.348 241.858C148.734 241.374 148.876 240.804 148.94 240.273C149 239.767 149 239.176 149 238.565L149 238.5C149 237.862 149 237.247 148.934 236.721C148.866 236.186 148.718 235.619 148.33 235.138C147.931 234.643 147.381 234.365 146.755 234.208C146.144 234.055 145.395 234 144.5 234Z" fill="#8F8F8F"/>
<rect width="24" height="24" rx="4" transform="matrix(-1 0 0 1 152 156)" fill="#8F8F8F"/>
<g opacity="0.9">
<path d="M143.755 166.592L139.532 160L135.406 166.44L139.348 165.152L143.755 166.592Z" fill="white"/>
<path d="M144 169.026L139.348 167.507L135 168.927L139.532 176L144 169.026Z" fill="white"/>
</g>
<defs>
<filter id="filter0_d_47_115039" x="0" y="0" width="296" height="1331" filterUnits="userSpaceOnUse" color-interpolation-filters="sRGB">
<feFlood flood-opacity="0" result="BackgroundImageFix"/>
<feColorMatrix in="SourceAlpha" type="matrix" values="0 0 0 0 0 0 0 0 0 0 0 0 0 0 0 0 0 0 127 0" result="hardAlpha"/>
<feOffset dx="8"/>
<feGaussianBlur stdDeviation="56"/>
<feComposite in2="hardAlpha" operator="out"/>
<feColorMatrix type="matrix" values="0 0 0 0 0.0862745 0 0 0 0 0.0862745 0 0 0 0 0.0862745 0 0 0 1 0"/>
<feBlend mode="normal" in2="BackgroundImageFix" result="effect1_dropShadow_47_115039"/>
<feBlend mode="normal" in="SourceGraphic" in2="effect1_dropShadow_47_115039" result="shape"/>
</filter>
</defs>
</svg>
