<svg width="16" height="16" viewBox="0 0 16 16" fill="none" xmlns="http://www.w3.org/2000/svg">
<path d="M10.5794 10.0004L10.6294 10.4504C10.732 11.3412 10.7253 12.2412 10.6094 13.1304C10.5394 13.5704 10.4094 14.0104 10.1694 14.3604C9.91941 14.7404 9.52941 15.0004 8.99941 15.0004C8.47941 15.0004 8.16941 14.6304 7.97941 14.3004C7.77941 13.9904 7.61941 13.5504 7.43941 13.1004L7.42941 13.0704C6.87941 11.6704 6.12941 9.76041 4.12941 8.42041C3.81941 8.22041 3.52941 8.06041 3.26941 7.96041C2.56941 7.66041 1.94941 6.90041 2.10941 6.02041L2.33941 4.82041C2.40972 4.45449 2.58085 4.11549 2.83352 3.84162C3.08618 3.56775 3.41033 3.36991 3.76941 3.27041L8.71941 1.89041C9.18632 1.76175 9.67484 1.73139 10.1541 1.80125C10.6333 1.87111 11.0929 2.03968 11.5036 2.29627C11.9143 2.55287 12.2674 2.89192 12.5403 3.29198C12.8133 3.69203 13.0003 4.14438 13.0894 4.62041L13.5494 7.04041C13.617 7.40164 13.6042 7.77334 13.5118 8.12903C13.4194 8.48473 13.2497 8.81568 13.0148 9.09832C12.7799 9.38096 12.4856 9.60833 12.1528 9.76425C11.82 9.92017 11.4569 10.0008 11.0894 10.0004H10.5794ZM12.1094 4.80041C12.0447 4.46034 11.91 4.13741 11.714 3.85208C11.518 3.56676 11.2648 3.32526 10.9706 3.14288C10.6763 2.96051 10.3474 2.84123 10.0046 2.7926C9.66189 2.74398 9.31277 2.76707 8.97941 2.86041L4.02941 4.23041C3.85014 4.28135 3.68867 4.38137 3.56321 4.51919C3.43776 4.65702 3.35332 4.82715 3.31941 5.01041L3.09941 6.21041C3.03941 6.49041 3.25941 6.87041 3.64941 7.03041C3.95941 7.16041 4.30941 7.34041 4.67941 7.58041C6.95941 9.11041 7.80941 11.2804 8.34941 12.6904L8.35941 12.7104C8.55941 13.2104 8.68941 13.5604 8.82941 13.7904C8.87252 13.8704 8.93017 13.9416 8.99941 14.0004C9.13941 14.0004 9.24941 13.9504 9.34941 13.8004C9.46941 13.6204 9.56941 13.3404 9.62941 12.9704C9.76522 11.9326 9.73822 10.8799 9.54941 9.85041L9.51941 9.65041L9.50941 9.60041C9.49458 9.52776 9.4961 9.45272 9.51385 9.38072C9.5316 9.30873 9.56514 9.24158 9.61204 9.18415C9.65895 9.12671 9.71804 9.08043 9.78504 9.04865C9.85203 9.01688 9.92526 9.0004 9.99941 9.00041H11.0894C11.3098 8.99988 11.5274 8.95078 11.7267 8.85661C11.9259 8.76244 12.102 8.62551 12.2424 8.45557C12.3827 8.28563 12.4839 8.08684 12.5387 7.87336C12.5935 7.65988 12.6006 7.43694 12.5594 7.22041L12.1094 4.80041Z" fill="#2B2B2B"/>
</svg>
