<svg width="25" height="25" viewBox="0 0 25 25" fill="none" xmlns="http://www.w3.org/2000/svg">
<path fill-rule="evenodd" clip-rule="evenodd" d="M12.7722 0.55127C7.56134 0.55127 3.35156 4.86431 3.35156 10.1654C3.35156 13.6654 6.16134 18.1621 11.7026 23.8969C12.2874 24.5013 13.257 24.5013 13.8418 23.8969L14.3168 23.4013C19.544 17.9024 22.1929 13.5643 22.1929 10.1654C22.1929 4.86431 17.9831 0.55127 12.7722 0.55127ZM12.7722 3.52627C16.3244 3.52627 19.2179 6.4904 19.2179 10.1654L19.2157 10.2774C19.1505 12.5024 17.1646 15.8752 13.2048 20.2284L12.7722 20.6991L12.757 20.6828C8.44939 16.0328 6.32656 12.4643 6.32656 10.1654C6.32656 6.4904 9.22113 3.52627 12.7722 3.52627ZM12.7722 5.01323C11.5888 5.01323 10.4539 5.48332 9.61713 6.3201C8.78036 7.15688 8.31026 8.2918 8.31026 9.47518C8.31026 10.6586 8.78036 11.7935 9.61713 12.6303C10.4539 13.467 11.5888 13.9371 12.7722 13.9371C13.9556 13.9371 15.0905 13.467 15.9273 12.6303C16.7641 11.7935 17.2342 10.6586 17.2342 9.47518C17.2342 8.2918 16.7641 7.15688 15.9273 6.3201C15.0905 5.48332 13.9556 5.01323 12.7722 5.01323ZM12.7722 7.98823C13.1667 7.98823 13.5451 8.14494 13.824 8.4239C14.103 8.70287 14.2597 9.08122 14.2597 9.47573C14.2597 9.87024 14.103 10.2486 13.824 10.5275C13.5451 10.8065 13.1667 10.9632 12.7722 10.9632C12.3777 10.9632 11.9994 10.8065 11.7204 10.5275C11.4414 10.2486 11.2847 9.87024 11.2847 9.47573C11.2847 9.08122 11.4414 8.70287 11.7204 8.4239C11.9994 8.14494 12.3777 7.98823 12.7722 7.98823Z" fill="#0E0E0E"/>
</svg>
