<svg width="20" height="21" viewBox="0 0 20 21" fill="none" xmlns="http://www.w3.org/2000/svg">
<g clip-path="url(#clip0_47_11100)">
<path fill-rule="evenodd" clip-rule="evenodd" d="M19.9904 5.63294C19.9851 3.68259 19.1889 2.12404 17.5997 0.991282C16.6628 0.323619 15.5973 0.0137753 14.4472 0.013109C13.6403 0.0124426 12.8334 0.00911099 12.0258 0.00644567C9.86622 -0.000217636 7.70664 -0.00887993 5.54706 0.0217713C3.17026 0.0550878 1.45913 1.20584 0.462962 3.36209C0.311705 3.69259 0.233744 4.05774 0.155784 4.42222C0.121135 4.58747 0.0858191 4.75272 0.0431739 4.9153C0.0318463 4.96061 0.0245166 5.00726 0.017187 5.0539C0.0138553 5.07722 0.0105237 5.10054 0.00585938 5.12387V14.8809C0.0225176 14.9756 0.0371769 15.0702 0.0511699 15.1655C0.0824874 15.372 0.113805 15.5786 0.16911 15.7772C0.79013 18.0147 2.24273 19.3847 4.50692 19.8938C4.64285 19.9244 4.78078 19.9444 4.91938 19.9637L5.11928 19.9937H14.879C14.973 19.977 15.0676 19.9624 15.1616 19.9484C15.3694 19.9164 15.5767 19.8851 15.7772 19.8291C18.0108 19.2081 19.3881 17.7615 19.8872 15.498C19.9671 15.1335 19.9871 14.7497 19.9884 14.3745C19.9964 11.4613 19.9978 8.54681 19.9904 5.63294ZM18.2173 14.4019C18.212 16.1103 17.2512 17.479 15.6653 18.0127C15.2548 18.1506 14.7991 18.2113 14.3646 18.2133C11.4508 18.2306 8.53689 18.2266 5.62236 18.2199C3.90723 18.2173 2.52659 17.2624 1.99019 15.6719C1.8516 15.2614 1.78896 14.807 1.78696 14.3719C1.76964 11.4587 1.77363 8.54481 1.77897 5.63161C1.7823 3.91314 2.73781 2.55183 4.31968 1.98545C4.75413 1.82953 5.20524 1.78288 5.66301 1.78288C6.75112 1.78155 7.83858 1.78155 8.92603 1.78222H11.2515C12.2837 1.78222 13.3151 1.78288 14.346 1.78155C15.1742 1.77955 15.9438 1.97679 16.6215 2.46654C17.6876 3.23748 18.216 4.29362 18.2187 5.60229C18.2247 8.53614 18.2273 11.4687 18.2173 14.4019ZM10.0055 4.85333C7.18624 4.84467 4.87474 7.14151 4.84808 9.98142C4.8201 12.7967 7.13826 15.1315 9.98149 15.1535C12.8001 15.1741 15.1336 12.854 15.1489 10.0161C15.1642 7.19482 12.8407 4.86266 10.0055 4.85333ZM9.99615 13.3757C8.13376 13.373 6.62119 11.8591 6.62452 10.0007C6.62785 8.13901 8.14176 6.62711 10.0008 6.63044C11.8632 6.6331 13.3758 8.14767 13.3725 10.0054C13.3691 11.8671 11.8546 13.3797 9.99615 13.3764V13.3757ZM14.0648 4.65077C14.0648 3.94446 14.6445 3.36475 15.3555 3.35742C16.0711 3.35076 16.6655 3.93713 16.6655 4.65144C16.6655 5.35508 16.0804 5.94212 15.3748 5.94678C14.6598 5.95211 14.0634 5.36241 14.0648 4.65077Z" fill="#E50914"/>
</g>
<defs>
<clipPath id="clip0_47_11100">
<rect width="19.9899" height="20.6562" fill="white" transform="translate(0.00488281)"/>
</clipPath>
</defs>
</svg>
