<svg width="24" height="23" viewBox="0 0 24 23" fill="none" xmlns="http://www.w3.org/2000/svg">
<path d="M22.3772 9.74751L21.5771 9.55545L22.3772 9.74751ZM21.3035 14.4369L20.5034 14.2449L20.5031 14.2463L21.3035 14.4369ZM15.1462 19.7883L15.2248 18.9507L15.2117 18.9496L15.1462 19.7883ZM13.3713 19.4854L13.5641 18.6675L13.5616 18.6669L13.3713 19.4854ZM11.5307 19.0366L11.721 18.2181L11.7205 18.218L11.5307 19.0366ZM6.62232 10.9255L7.42234 11.1175L7.42243 11.1171L6.62232 10.9255ZM7.69602 6.2248L6.89615 6.03208L6.89591 6.03318L7.69602 6.2248ZM8.50677 3.75666L9.24415 4.12801L9.24655 4.1229L8.50677 3.75666ZM15.6282 1.19878L15.4391 2.0176L15.4414 2.01814L15.6282 1.19878ZM17.4579 1.63631L17.645 0.817013L17.6448 0.816948L17.4579 1.63631ZM21.5771 9.55545L20.5034 14.2449L22.1035 14.629L23.1772 9.93957L21.5771 9.55545ZM20.5031 14.2463C20.0596 16.1981 19.4304 17.4146 18.6273 18.1184C17.852 18.7978 16.7909 19.105 15.2248 18.9508L15.0675 20.6259C16.9197 20.8083 18.4772 20.4648 19.6959 19.3969C20.8867 18.3533 21.627 16.7258 22.1038 14.6276L20.5031 14.2463ZM15.2117 18.9496C14.7139 18.9089 14.1653 18.8161 13.5641 18.6675L13.1785 20.3033C13.8482 20.4688 14.4828 20.5781 15.0806 20.6271L15.2117 18.9496ZM13.5616 18.6669L11.721 18.2181L11.3403 19.8552L13.1809 20.3039L13.5616 18.6669ZM11.7205 18.218C9.51452 17.6817 8.27836 16.9009 7.65862 15.8792C7.03946 14.8584 6.90425 13.3803 7.42234 11.1175L5.82231 10.7334C5.2667 13.1601 5.3013 15.1823 6.26256 16.7671C7.22325 18.3509 8.97809 19.281 11.3408 19.8554L11.7205 18.218ZM7.42243 11.1171L8.49613 6.41643L6.89591 6.03318L5.82221 10.7339L7.42243 11.1171ZM8.49588 6.41752C8.707 5.49873 8.95259 4.73501 9.24413 4.12799L7.76941 3.38533C7.40359 4.14701 7.12328 5.04368 6.89616 6.03208L8.49588 6.41752ZM9.24655 4.1229C9.81442 2.92017 10.5316 2.24506 11.444 1.92264C12.3946 1.5867 13.6762 1.59062 15.4391 2.0176L15.8174 0.379961C13.9209 -0.079354 12.2827 -0.153961 10.9079 0.331881C9.49485 0.83123 8.48098 1.87821 7.76698 3.39042L9.24655 4.1229ZM15.4414 2.01814L17.2711 2.45567L17.6448 0.816948L15.8151 0.379414L15.4414 2.01814ZM17.2707 2.45561C19.4869 2.98638 20.7243 3.76748 21.3434 4.78925C21.9625 5.81102 22.0955 7.29165 21.5771 9.55545L23.1772 9.93957C23.7325 7.51391 23.7012 5.48866 22.7399 3.90206C21.7785 2.31545 20.0195 1.38569 17.645 0.817013L17.2707 2.45561Z" fill="white"/>
<path d="M15.1458 19.7888L15.6066 20.4854C15.8955 20.285 16.0293 19.9198 15.9403 19.5743C15.8513 19.2289 15.5591 18.9786 15.2113 18.9501L15.1458 19.7888ZM12.5711 21.0005L12.3161 20.2006L12.3142 20.2012L12.5711 21.0005ZM10.84 21.5839L11.0922 22.3846L11.0969 22.3831L10.84 21.5839ZM2.78729 17.3656L2.0056 17.625L2.0058 17.6256L2.78729 17.3656ZM1.38491 12.9341L0.602847 13.1924L0.603222 13.1935L1.38491 12.9341ZM5.49344 4.68833L5.7456 5.48916L5.75033 5.48756L5.49344 4.68833ZM7.22451 4.10495L6.97614 3.30284L6.96763 3.30571L7.22451 4.10495ZM8.50637 3.75716L9.24374 4.1285C9.38113 3.84243 9.34884 3.50143 9.16035 3.24772C8.97185 2.99401 8.65951 2.87116 8.35362 2.93042L8.50637 3.75716ZM7.69562 6.2253L6.89576 6.03259L6.89551 6.03367L7.69562 6.2253ZM6.62192 10.926L7.42194 11.118L7.42203 11.1176L6.62192 10.926ZM11.5303 19.0372L11.7206 18.2187L11.7201 18.2185L11.5303 19.0372ZM13.3709 19.4859L13.5637 18.668L13.5612 18.6674L13.3709 19.4859ZM14.6849 19.0923C14.0914 19.5039 13.3149 19.8668 12.3162 20.2006L12.826 21.8004C13.9089 21.4386 14.8415 21.0162 15.6066 20.4854L14.6849 19.0923ZM12.3142 20.2012L10.5831 20.7846L11.0969 22.3831L12.828 21.7997L12.3142 20.2012ZM10.5879 20.7831C8.48942 21.4758 7.09055 21.4602 6.08685 20.9344C5.08287 20.4083 4.25078 19.2547 3.56878 17.1055L2.0058 17.6256C2.73713 19.9302 3.75663 21.6038 5.33828 22.4324C6.92023 23.2613 8.84106 23.1279 11.0922 22.3846L10.5879 20.7831ZM3.56898 17.1062L2.1666 12.6748L0.603222 13.1935L2.0056 17.625L3.56898 17.1062ZM2.16698 12.6759C1.49016 10.5264 1.50283 9.09059 2.0145 8.06122C2.52551 7.03318 3.64832 6.18156 5.7456 5.48915L5.2413 3.88751C2.98901 4.6311 1.35635 5.67546 0.549894 7.29787C-0.255902 8.91894 -0.122715 10.888 0.602849 13.1924L2.16698 12.6759ZM5.75033 5.48756L7.48139 4.90419L6.96763 3.30571L5.23657 3.88909L5.75033 5.48756ZM7.47287 4.907C7.90965 4.76519 8.30101 4.65328 8.65912 4.58391L8.35362 2.93042C7.90098 3.01811 7.43777 3.15301 6.97615 3.30289L7.47287 4.907ZM7.76901 3.38583C7.40319 4.14751 7.12288 5.04419 6.89576 6.03259L8.49549 6.41802C8.70661 5.49923 8.9522 4.73551 9.24374 4.1285L7.76901 3.38583ZM6.89551 6.03367L5.82181 10.7344L7.42203 11.1176L8.49573 6.41693L6.89551 6.03367ZM5.82191 10.7339C5.2663 13.1606 5.3009 15.1827 6.26217 16.7676C7.22285 18.3514 8.97769 19.2814 11.3404 19.8558L11.7201 18.2185C9.51413 17.6823 8.27796 16.9015 7.65823 15.8796C7.03906 14.8589 6.90385 13.3808 7.42194 11.118L5.82191 10.7339ZM11.3399 19.8557L13.1806 20.3045L13.5612 18.6674L11.7206 18.2187L11.3399 19.8557ZM13.178 20.3039C13.8478 20.4694 14.4824 20.5786 15.0802 20.6276L15.2113 18.9501C14.7135 18.9093 14.1649 18.8166 13.5637 18.668L13.178 20.3039Z" fill="white"/>
<path d="M12.6966 6.78882C12.2567 6.67459 11.8097 6.94713 11.6981 7.39757C11.5866 7.84801 11.8527 8.30577 12.2926 8.42L12.6966 6.78882ZM17.6063 9.79992C18.0462 9.91415 18.4933 9.6416 18.6048 9.19117C18.7164 8.74073 18.4502 8.28297 18.0103 8.16874L17.6063 9.79992ZM12.2926 8.42L17.6063 9.79992L18.0103 8.16874L12.6966 6.78882L12.2926 8.42Z" fill="white"/>
<path d="M11.6241 11.1308C11.1844 11.0159 10.737 11.2878 10.6248 11.7381C10.5126 12.1883 10.7781 12.6465 11.2178 12.7614L11.6241 11.1308ZM14.3951 13.5916C14.8348 13.7065 15.2822 13.4346 15.3944 12.9843C15.5067 12.5341 15.2411 12.0759 14.8014 11.961L14.3951 13.5916ZM11.2178 12.7614L14.3951 13.5916L14.8014 11.961L11.6241 11.1308L11.2178 12.7614Z" fill="white"/>
</svg>
