<svg width="24" height="19" viewBox="0 0 24 19" fill="none" xmlns="http://www.w3.org/2000/svg">
<path d="M20.8889 0H3.11111C2.28627 0.000755264 1.49548 0.272532 0.91223 0.755703C0.328981 1.23887 0.0009117 1.89398 0 2.57728V12.8864C0.0009117 13.5697 0.328981 14.2248 0.91223 14.708C1.49548 15.1912 2.28627 15.4629 3.11111 15.4637H20.8889C21.7137 15.4629 22.5045 15.1912 23.0878 14.708C23.671 14.2248 23.9991 13.5697 24 12.8864V2.57728C23.9991 1.89398 23.671 1.23887 23.0878 0.755703C22.5045 0.272532 21.7137 0.000755264 20.8889 0ZM21.3333 12.8864C21.3332 12.984 21.2864 13.0776 21.203 13.1467C21.1197 13.2157 21.0067 13.2545 20.8889 13.2546H3.11111C2.99327 13.2545 2.8803 13.2157 2.79697 13.1467C2.71365 13.0776 2.66678 12.984 2.66667 12.8864V2.57728C2.66678 2.47966 2.71365 2.38607 2.79697 2.31705C2.8803 2.24802 2.99327 2.2092 3.11111 2.2091H20.8889C21.0067 2.2092 21.1197 2.24802 21.203 2.31705C21.2864 2.38607 21.3332 2.47966 21.3333 2.57728V12.8864ZM16.8889 17.6728C16.8889 17.9657 16.7484 18.2467 16.4984 18.4538C16.2483 18.661 15.9092 18.7773 15.5556 18.7773H8.44444C8.09082 18.7773 7.75168 18.661 7.50164 18.4538C7.25159 18.2467 7.11111 17.9657 7.11111 17.6728C7.11111 17.3799 7.25159 17.0989 7.50164 16.8918C7.75168 16.6846 8.09082 16.5682 8.44444 16.5682H15.5556C15.9092 16.5682 16.2483 16.6846 16.4984 16.8918C16.7484 17.0989 16.8889 17.3799 16.8889 17.6728Z" fill="#B0B6C4"/>
</svg>
