<svg width="64" height="64" viewBox="0 0 64 64" fill="none" xmlns="http://www.w3.org/2000/svg">
<path d="M41.739 19.4783H42.8521C42.8521 19.0329 42.5865 18.6304 42.177 18.4551C41.7676 18.2798 41.2931 18.3655 40.9707 18.6729L41.739 19.4783ZM41.739 36.174V37.287C42.3537 37.287 42.8521 36.7887 42.8521 36.174H41.739ZM34.7825 36.174L33.6694 36.1809C33.6733 36.7929 34.1705 37.287 34.7825 37.287V36.174ZM42.8521 36.174C42.8521 35.5592 42.3537 35.0609 41.739 35.0609C41.1243 35.0609 40.626 35.5592 40.626 36.174H42.8521ZM41.739 44.5218V45.6348C42.3537 45.6348 42.8521 45.1365 42.8521 44.5218H41.739ZM40.3477 44.5218H39.2347C39.2347 45.1365 39.733 45.6348 40.3477 45.6348V44.5218ZM41.4607 40.3479C41.4607 39.7331 40.9624 39.2348 40.3477 39.2348C39.733 39.2348 39.2347 39.7331 39.2347 40.3479H41.4607ZM27.5477 20.8696C27.5477 20.2549 27.0494 19.7566 26.4347 19.7566C25.8199 19.7566 25.3216 20.2549 25.3216 20.8696H27.5477ZM25.3216 44.5218C25.3216 45.1365 25.8199 45.6348 26.4347 45.6348C27.0494 45.6348 27.5477 45.1365 27.5477 44.5218H25.3216ZM23.3738 20.8696C23.3738 20.2549 22.8755 19.7566 22.2607 19.7566C21.646 19.7566 21.1477 20.2549 21.1477 20.8696H23.3738ZM31.7216 20.8696C31.7216 20.2549 31.2233 19.7566 30.6086 19.7566C29.9938 19.7566 29.4955 20.2549 29.4955 20.8696H31.7216ZM40.626 19.4783V36.174H42.8521V19.4783H40.626ZM41.739 35.0609H34.7825V37.287H41.739V35.0609ZM35.8955 36.167C35.8796 33.6216 35.9483 31.2024 36.7927 28.6523C37.6317 26.1186 39.266 23.3755 42.5073 20.2837L40.9707 18.6729C37.5115 21.9728 35.6516 25.0168 34.6794 27.9526C33.7127 30.8721 33.6534 33.6049 33.6694 36.1809L35.8955 36.167ZM40.626 36.174V44.5218H42.8521V36.174H40.626ZM41.739 43.4087H40.3477V45.6348H41.739V43.4087ZM41.4607 44.5218V40.3479H39.2347V44.5218H41.4607ZM25.3216 20.8696V44.5218H27.5477V20.8696H25.3216ZM21.1477 20.8696V25.0435H23.3738V20.8696H21.1477ZM21.1477 25.0435C21.1477 27.9634 23.5148 30.3305 26.4347 30.3305V28.1044C24.7442 28.1044 23.3738 26.734 23.3738 25.0435H21.1477ZM26.4347 30.3305C29.3546 30.3305 31.7216 27.9634 31.7216 25.0435H29.4955C29.4955 26.734 28.1252 28.1044 26.4347 28.1044V30.3305ZM31.7216 25.0435V20.8696H29.4955V25.0435H31.7216Z" fill="#213A52"/>
</svg>
