<svg width="30" height="30" viewBox="0 0 30 30" fill="none" xmlns="http://www.w3.org/2000/svg">
<g clip-path="url(#clip0_47_56812)">
<path d="M22.3969 1.27408L8.33442 9.49596C7.14128 10.1518 6.23643 11.2299 5.79758 12.5188C5.35872 13.8076 5.41756 15.2139 5.96255 16.4616C6.8234 18.5178 8.29635 20.2591 10.1813 21.4491C12.2673 22.8931 14.7085 23.7393 17.2407 23.896C21.0563 24.1303 24.2907 22.1897 24.825 19.0303L27.45 3.51471C27.8438 1.18033 24.7875 -0.113418 22.3969 1.27408Z" fill="#853E96"/>
<path d="M18.2605 29.5884C19.7477 27.5011 17.2615 23.1785 12.7074 19.9337C8.15323 16.6888 3.25575 15.7505 1.76853 17.8378C0.281312 19.9251 2.76754 24.2476 7.32168 27.4925C11.8758 30.7373 16.7733 31.6757 18.2605 29.5884Z" fill="#853E96"/>
<path d="M21.5063 2.69123L8.86881 10.06C7.80031 10.6513 6.99036 11.6194 6.59691 12.7755C6.20346 13.9316 6.25472 15.1928 6.74069 16.3131C7.50736 18.1501 8.81541 19.7099 10.4907 20.785C12.3768 22.0889 14.5858 22.848 16.8751 22.9787C20.2969 23.1944 23.2032 21.4506 23.6813 18.6194L26.0344 4.6881C26.3907 2.60685 23.6438 1.44435 21.5063 2.69123Z" fill="#581F66"/>
<path d="M18.041 28.3923C19.2007 26.7646 16.7635 23.0387 12.5973 20.0703C8.43112 17.1019 4.11361 16.015 2.95388 17.6427C1.79415 19.2703 4.23137 22.9962 8.39756 25.9647C12.5638 28.9331 16.8813 30.02 18.041 28.3923Z" fill="#581F66"/>
<path d="M17.1479 27.7555C17.902 26.6971 15.5359 23.7177 11.8631 21.1008C8.19028 18.4839 4.60152 17.2205 3.8474 18.2789C3.09327 19.3373 5.45935 22.3167 9.13218 24.9336C12.805 27.5505 16.3938 28.8139 17.1479 27.7555Z" fill="#A94DBC"/>
<path d="M13.5751 22.8385L9.01888 19.9603C7.87131 19.1213 6.47372 18.6951 5.05326 18.751C4.30326 18.8728 4.65013 19.8666 5.65326 20.5416L14.6064 26.5228C15.9001 27.3947 17.2595 27.4041 16.9689 26.5228C16.2548 24.9673 15.0669 23.6777 13.5751 22.8385Z" fill="#A94DBC"/>
<path d="M14.0717 23.916L7.51855 19.7254L10.0498 15.291L17.4467 19.5754L14.0717 23.916Z" fill="#581F66"/>
<path d="M20.9717 3.90963L10.3685 10.4721C9.47217 11.0045 8.79254 11.8363 8.44951 12.8208C8.10648 13.8053 8.12208 14.8793 8.49354 15.8534C9.09193 17.3941 10.1615 18.7064 11.5498 19.6034C13.0773 20.6734 14.8801 21.2819 16.7435 21.3565C19.556 21.469 22.0123 19.9315 22.4623 17.5034L24.6842 5.5315C25.0217 3.75025 22.7623 2.81275 20.9717 3.90963Z" fill="#A94DBC"/>
<path d="M13.91 24.2949C14.4028 23.6033 13.346 22.0052 11.5496 20.7252C9.75328 19.4453 7.89761 18.9684 7.40487 19.6599C6.91214 20.3515 7.96893 21.9497 9.76528 23.2296C11.5616 24.5095 13.4173 24.9865 13.91 24.2949Z" fill="#581F66"/>
<path d="M11.8687 20.1461C11.8687 20.1461 16.6968 22.1148 18.9187 17.7461C21.1405 13.3773 23.7187 3.44922 23.7187 3.44922L24.9937 3.74922L24.7218 10.893L22.4999 20.6242C22.4999 20.6242 17.2874 25.443 11.8687 20.1461Z" fill="#581F66"/>
<path d="M11.25 26.5781C11.25 26.5781 13.6219 27.9844 15 27.1031C16.3781 26.2219 15 23.4375 15 23.4375C15 23.4375 17.5406 26.0719 17.8125 26.9063C18.0844 27.7406 16.65 30.3094 11.25 26.5781Z" fill="#581F66"/>
<path d="M10.0314 12.5154L20.6908 4.84669C20.8046 4.7709 20.9384 4.73047 21.0751 4.73047C21.2119 4.73047 21.3457 4.7709 21.4595 4.84669C21.5468 4.89962 21.6215 4.97093 21.6785 5.05565C21.7354 5.14037 21.7732 5.23647 21.7893 5.33728C21.8053 5.43809 21.7993 5.54119 21.7715 5.63941C21.7436 5.73764 21.6948 5.82863 21.6283 5.90606L12.8814 15.8436C12.7208 16.0314 12.5199 16.1806 12.2935 16.28C12.0672 16.3793 11.8214 16.4262 11.5744 16.4172C11.3274 16.4082 11.0856 16.3435 10.8671 16.2279C10.6486 16.1123 10.4591 15.9489 10.3126 15.7498C9.94575 15.3016 9.72262 14.7531 9.67244 14.1761C9.62226 13.599 9.74737 13.0202 10.0314 12.5154Z" fill="#E08CF5"/>
<path d="M7.92202 22.9411C7.92202 22.9411 6.04702 20.1286 6.98452 19.3599C6.98452 19.3599 5.83139 18.2724 4.85639 18.6099C3.88139 18.9474 7.92202 22.9411 7.92202 22.9411Z" fill="#E08CF5"/>
<path d="M22.8752 24.4603C23.7398 24.5102 24.5788 24.7723 25.3179 25.2237C26.057 25.675 26.6734 26.3015 27.1127 27.0478C27.2146 27.2136 27.2818 27.3982 27.3105 27.5906C27.3392 27.783 27.3288 27.9793 27.2797 28.1675C27.2307 28.3558 27.1441 28.5322 27.0252 28.6861C26.9063 28.8401 26.7575 28.9685 26.5877 29.0635C25.3843 29.715 24.0374 30.0561 22.669 30.0561C21.3005 30.0561 19.9536 29.715 18.7502 29.0635C18.3971 28.8427 18.1445 28.4924 18.0463 28.0877C17.9482 27.6829 18.0124 27.2558 18.2252 26.8978C18.7235 26.1155 19.4191 25.4783 20.242 25.0504C21.0649 24.6224 21.9861 24.4189 22.9127 24.4603H22.8752Z" fill="#425763"/>
<path d="M22.8375 25.031C23.5624 25.0636 24.2694 25.2665 24.9014 25.6232C25.5333 25.9799 26.0724 26.4804 26.475 27.0841C26.5678 27.2165 26.6303 27.3678 26.6579 27.5271C26.6854 27.6864 26.6774 27.8499 26.6344 28.0058C26.5914 28.1617 26.5145 28.3061 26.4091 28.4288C26.3038 28.5515 26.1726 28.6493 26.025 28.7154C24.9535 29.2172 23.7813 29.4671 22.5983 29.446C21.4153 29.4248 20.2529 29.1332 19.2 28.5935C19.0589 28.52 18.9353 28.417 18.8376 28.2915C18.7399 28.1659 18.6705 28.0208 18.634 27.8659C18.5975 27.7111 18.5948 27.5502 18.6262 27.3943C18.6575 27.2383 18.7221 27.091 18.8156 26.9622C19.2644 26.332 19.8646 25.8248 20.5609 25.4873C21.2572 25.1498 22.0271 24.9929 22.8 25.031H22.8375Z" fill="#A2B6BA"/>
<path d="M22.8283 25.1152C23.4171 25.1418 23.9913 25.3067 24.5044 25.5966C25.0175 25.8866 25.455 26.2933 25.7815 26.784C25.8519 26.8943 25.8985 27.0181 25.9182 27.1476C25.9379 27.277 25.9303 27.4091 25.8959 27.5354C25.8614 27.6616 25.8009 27.7793 25.7183 27.8808C25.6356 27.9823 25.5326 28.0653 25.4158 28.1246C24.5443 28.5324 23.5909 28.7351 22.6289 28.7173C21.6668 28.6994 20.7216 28.4614 19.8658 28.0215C19.7556 27.958 19.6595 27.8727 19.5833 27.7708C19.5071 27.669 19.4524 27.5527 19.4226 27.429C19.3928 27.3053 19.3884 27.1769 19.4098 27.0515C19.4313 26.9261 19.4779 26.8064 19.5471 26.6996C19.9119 26.1856 20.4003 25.7719 20.9672 25.4966C21.5342 25.2214 22.1614 25.0934 22.7908 25.1246L22.8283 25.1152Z" fill="#87999B"/>
<path d="M22.4627 27.7594C25.8178 27.7594 28.5377 25.0395 28.5377 21.6844C28.5377 18.3292 25.8178 15.6094 22.4627 15.6094C19.1076 15.6094 16.3877 18.3292 16.3877 21.6844C16.3877 25.0395 19.1076 27.7594 22.4627 27.7594Z" fill="#425763"/>
<path d="M22.4625 26.8879C25.4448 26.8879 27.8625 24.4702 27.8625 21.4879C27.8625 18.5056 25.4448 16.0879 22.4625 16.0879C19.4802 16.0879 17.0625 18.5056 17.0625 21.4879C17.0625 24.4702 19.4802 26.8879 22.4625 26.8879Z" fill="#A2B6BA"/>
<path d="M22.6779 26.0258C25.4324 26.0258 27.6654 23.7928 27.6654 21.0383C27.6654 18.2838 25.4324 16.0508 22.6779 16.0508C19.9234 16.0508 17.6904 18.2838 17.6904 21.0383C17.6904 23.7928 19.9234 26.0258 22.6779 26.0258Z" fill="#CBDEE4"/>
<path d="M25.4158 20.6148C26.0268 20.6148 26.5221 20.1196 26.5221 19.5086C26.5221 18.8976 26.0268 18.4023 25.4158 18.4023C24.8049 18.4023 24.3096 18.8976 24.3096 19.5086C24.3096 20.1196 24.8049 20.6148 25.4158 20.6148Z" fill="#425763"/>
<path d="M25.4625 20.1086C25.8301 20.1086 26.1281 19.8106 26.1281 19.443C26.1281 19.0754 25.8301 18.7773 25.4625 18.7773C25.0949 18.7773 24.7969 19.0754 24.7969 19.443C24.7969 19.8106 25.0949 20.1086 25.4625 20.1086Z" fill="#4ED154"/>
<path d="M21.4595 19.0781C21.5445 18.527 21.7425 17.9994 22.0409 17.5283C22.3394 17.0573 22.7319 16.6529 23.1938 16.3406C23.3813 16.2281 23.3532 16.1062 23.1282 16.0781H22.8376C22.6126 16.0781 20.9626 16.1531 20.3813 19.1625L21.4595 19.0781Z" fill="#A2B6BA"/>
<path d="M24.225 22.143C24.225 20.2479 22.7895 18.7117 21.0187 18.7117C19.248 18.7117 17.8125 20.2479 17.8125 22.143C17.8125 24.038 19.248 25.5742 21.0187 25.5742C22.7895 25.5742 24.225 24.038 24.225 22.143Z" fill="#425763"/>
<path d="M23.6181 22.0937C23.6234 20.6492 22.5322 19.4741 21.1809 19.4692C19.8295 19.4642 18.7297 20.6312 18.7244 22.0758C18.7191 23.5204 19.8103 24.6954 21.1617 24.7004C22.5131 24.7053 23.6129 23.5383 23.6181 22.0937Z" fill="#3587C4"/>
<path d="M23.2149 21.9884C23.2193 20.7872 22.312 19.81 21.1885 19.8059C20.0649 19.8018 19.1506 20.7722 19.1462 21.9735C19.1418 23.1747 20.049 24.1518 21.1725 24.1559C22.2961 24.16 23.2105 23.1896 23.2149 21.9884Z" fill="#4DA3EC"/>
<path d="M22.3261 20.9853C22.3273 20.6694 22.0596 20.4124 21.7282 20.4112C21.3968 20.41 21.1273 20.665 21.1261 20.9809C21.125 21.2967 21.3927 21.5537 21.724 21.5549C22.0554 21.5561 22.325 21.3011 22.3261 20.9853Z" fill="white"/>
<path d="M22.5935 17.5119C22.8383 17.2469 23.1015 16.9994 23.381 16.7713C23.4346 16.7294 23.4974 16.7007 23.5642 16.6877C23.631 16.6746 23.7 16.6776 23.7654 16.6963C24.2982 16.856 24.8086 17.0829 25.2842 17.3713C25.362 17.4206 25.4215 17.494 25.4536 17.5804C25.4858 17.6667 25.4888 17.7611 25.4623 17.8493C25.4357 17.9375 25.381 18.0146 25.3065 18.0688C25.232 18.123 25.1419 18.1513 25.0498 18.1494C24.3526 18.1051 23.6529 18.1239 22.9592 18.2057C22.8751 18.2147 22.7903 18.1983 22.7158 18.1586C22.6412 18.1189 22.5802 18.0577 22.5408 17.9829C22.5015 17.9082 22.4854 17.8233 22.4948 17.7393C22.5042 17.6554 22.5386 17.5761 22.5935 17.5119Z" fill="#E1F0F4"/>
</g>
<defs>
<clipPath id="clip0_47_56812">
<rect width="30" height="30" fill="white"/>
</clipPath>
</defs>
</svg>
