<svg width="15" height="6" viewBox="0 0 15 6" fill="none" xmlns="http://www.w3.org/2000/svg">
<path d="M6.63023 2.19682L6.63023 0.613048C6.63023 0.279172 6.89562 0.0137821 7.2295 0.00522188C7.32367 0.0052217 7.41356 0.000941048 7.50773 0.000940871C8.39379 0.00522135 9.25844 0.0737086 10.1017 0.206403C10.9407 0.343378 11.7112 0.548841 12.4003 0.827072C13.0895 1.11386 13.6588 1.4777 14.1039 1.92287C14.395 2.21394 14.6219 2.54354 14.776 2.9031C14.9343 3.26694 15.0114 3.6693 14.9986 4.11019C14.9943 4.65381 14.8273 5.08614 14.5106 5.4029C14.3907 5.52275 14.2452 5.61692 14.0868 5.67257C13.9242 5.73249 13.7487 5.75389 13.5603 5.71965L11.1675 5.31301C10.9835 5.28304 10.8294 5.24024 10.6967 5.18459C10.5683 5.13323 10.457 5.06474 10.3756 4.98341C10.2729 4.88068 10.2001 4.74798 10.1616 4.58961C10.1188 4.43551 10.0974 4.25145 10.0974 4.04599L10.0846 3.38251C10.0846 3.28834 10.0503 3.21129 9.98184 3.14281C9.9476 3.10856 9.91335 3.08288 9.87055 3.0572C9.82346 3.0358 9.78494 3.02295 9.75069 3.00583C9.53239 2.94162 9.21564 2.89026 8.80471 2.85601C8.3895 2.82605 7.95718 2.80465 7.50773 2.80037C7.42212 2.80037 7.33223 2.80465 7.24662 2.80465C6.90846 2.80893 6.63023 2.53926 6.63023 2.19682Z" fill="white"/>
<path d="M0.509156 5.42247C0.389303 5.30262 0.286572 5.15708 0.209523 4.99443C0.188121 4.94734 0.166719 4.90026 0.149597 4.84889C0.0682681 4.62202 0.0169013 4.38232 0.00405984 4.12121C-0.0173425 3.68032 0.0468651 3.28224 0.200962 2.91412C0.205243 2.90984 0.205243 2.90128 0.209523 2.897C0.359339 2.54172 0.577643 2.21212 0.872996 1.91677C1.3096 1.48016 1.87891 1.11632 2.5809 0.833808C3.2829 0.551296 4.05767 0.341553 4.90092 0.208859C5.19199 0.166054 5.48306 0.12325 5.77414 0.0975671V2.897C5.56439 2.92696 5.38889 2.96548 5.25192 3.00829C5.22196 3.02113 5.18343 3.03397 5.14063 3.05109C5.09354 3.07249 5.05502 3.10246 5.01649 3.14098C4.94372 3.21375 4.91376 3.29508 4.91376 3.38925L4.90948 4.0356C4.90948 4.24962 4.88808 4.43368 4.84099 4.5835C4.80247 4.74188 4.73398 4.87029 4.62697 4.9773C4.54564 5.05863 4.44291 5.12712 4.31021 5.18277C4.17752 5.23841 4.02342 5.28122 3.84364 5.31546L1.4209 5.72639C1.23256 5.76063 1.06562 5.74779 0.911521 5.68786C0.761705 5.62366 0.62901 5.54233 0.509156 5.42247Z" fill="white"/>
</svg>
