<svg width="157" height="24" viewBox="0 0 157 24" fill="none" xmlns="http://www.w3.org/2000/svg">
<g clip-path="url(#clip0_4_953)">
<path d="M20.2951 20.0943C20.3439 20.1433 20.3824 20.2016 20.4084 20.2657C20.4344 20.3298 20.4474 20.3984 20.4467 20.4676V22.9286C20.4459 23.0666 20.3879 23.1975 20.284 23.2967C20.1793 23.3979 20.0159 23.4309 19.8944 23.4519L1.27645 23.4388C1.13632 23.4376 1.00242 23.3808 0.904143 23.2809C0.805867 23.181 0.751256 23.0461 0.752303 22.906V20.1134C0.752303 20.0142 0.814244 19.8833 0.914203 19.7723L14.8356 4.25539H0.523934C0.228755 4.253 -0.000553585 4.02565 0.000984252 3.73842L0.0196092 1.21876C0.0199706 1.14961 0.034043 1.08122 0.0610118 1.01754C0.0879807 0.953866 0.12731 0.896172 0.176725 0.847798C0.275707 0.750144 0.409411 0.695784 0.548454 0.696663H0.552812L19.1723 0.720072C19.4627 0.722464 19.6968 0.960487 19.6944 1.25404V3.91014C19.6944 4.10613 19.6532 4.23625 19.5548 4.34578L5.658 19.9379H19.9246C19.9937 19.9381 20.062 19.952 20.1256 19.9788C20.1892 20.0057 20.2468 20.0449 20.2951 20.0943ZM45.7856 3.80079C47.9852 6.03279 49.1833 8.9833 49.1603 12.108C49.138 15.2319 47.8963 18.1642 45.6642 20.3636C43.4322 22.5632 40.4678 23.7926 37.3574 23.7391C34.232 23.7165 31.3002 22.4747 29.1006 20.2427C26.9011 18.0107 25.7022 15.0605 25.7252 11.9359C25.7482 8.8108 26.99 5.87849 29.222 3.67904C31.4327 1.50018 34.3487 0.30366 37.4407 0.30366C37.4701 0.30366 37.5003 0.30366 37.5297 0.304087C40.6544 0.326727 43.5854 1.56887 45.7857 3.80087L45.7856 3.80079ZM45.4135 12.0802C45.4453 7.68519 41.8961 4.08366 37.5018 4.05197C33.1163 4.02813 29.5052 7.56857 29.4727 11.9632C29.4409 16.3574 32.9901 19.9594 37.3851 19.9919C37.4049 19.9919 37.424 19.9923 37.4439 19.9923C41.8103 19.9919 45.3802 16.4551 45.4135 12.0802ZM98.9128 23.069C98.9659 23.19 98.9152 23.2884 98.8906 23.3253C98.8667 23.3615 98.7969 23.4455 98.6676 23.4455H95.2708C95.1644 23.4448 95.0684 23.3813 95.0271 23.2869L92.8927 18.2829H81.3136L79.0681 23.2872C79.0467 23.3346 79.012 23.3748 78.9682 23.4029C78.9244 23.431 78.8734 23.4458 78.8214 23.4455H75.3825C75.2508 23.4448 75.1817 23.3587 75.158 23.3214C75.1341 23.2845 75.085 23.1857 75.1389 23.0667L85.2556 0.891882C85.308 0.780389 85.3889 0.708196 85.4635 0.708196H89.0095C89.1055 0.708196 89.1864 0.870865 89.207 0.917684L98.9127 23.0689L98.9128 23.069ZM91.3288 14.7249L87.198 5.31L82.9291 14.7249H91.3288ZM68.9126 19.8752H68.9118L59.2319 19.8761V0.917684C59.2327 0.890062 59.2279 0.862567 59.2179 0.836813C59.2079 0.811059 59.1928 0.787567 59.1736 0.767716C59.1544 0.747865 59.1314 0.732057 59.1059 0.721219C59.0805 0.710382 59.0532 0.704734 59.0256 0.704608L57.3637 0.707342L55.7017 0.704608C55.6741 0.704746 55.6467 0.710401 55.6213 0.721243C55.5959 0.732084 55.5729 0.747893 55.5537 0.767742C55.5345 0.78759 55.5194 0.811078 55.5094 0.836826C55.4994 0.862575 55.4946 0.890065 55.4954 0.917684V23.2261C55.4946 23.3042 55.5319 23.3534 55.5549 23.3764C55.5742 23.3961 55.5971 23.4117 55.6224 23.4224C55.6478 23.4331 55.675 23.4386 55.7025 23.4387L68.6999 23.4485H68.9125C68.972 23.4493 69.024 23.4279 69.0636 23.389C69.1033 23.35 69.1251 23.2977 69.1256 23.2422V20.0814C69.1254 20.0537 69.1198 20.0264 69.1089 20.001C69.0981 19.9756 69.0823 19.9526 69.0624 19.9334C69.0426 19.9142 69.0191 19.8991 68.9933 19.8891C68.9676 19.8791 68.9401 19.8743 68.9125 19.875L68.9126 19.8752ZM155.66 12.8805C153.441 17.6049 147.059 21.2914 143.451 23.068C142.669 23.4549 142.019 23.7465 141.79 23.8409C141.788 23.8422 141.507 23.9784 141.152 23.9989L141.086 23.9999L141.069 23.9989C140.715 23.9784 140.434 23.8422 140.428 23.8395C140.202 23.7465 139.552 23.4546 138.771 23.068C136.371 21.8864 132.745 19.86 129.932 17.2454C127.119 19.86 123.492 21.8864 121.093 23.068C120.311 23.4549 119.661 23.7465 119.432 23.8409C119.43 23.8422 119.149 23.9784 118.794 23.9989L118.728 23.9999L118.711 23.9989C118.357 23.9784 118.076 23.8422 118.07 23.8395C117.844 23.7465 117.194 23.4546 116.413 23.068C112.805 21.2914 106.422 17.6053 104.204 12.8805C103.198 10.7404 103.093 8.32545 103.908 6.0808C104.75 3.76798 106.46 1.91762 108.721 0.870353C111.821 -0.565389 115.429 -0.205791 118.135 1.80826C118.338 1.96001 118.534 2.11991 118.724 2.28755L118.753 2.31319L118.782 2.28755C118.971 2.11982 119.167 1.95992 119.37 1.80826C122.077 -0.205791 125.684 -0.565218 128.785 0.870353C129.181 1.05393 129.564 1.26457 129.932 1.50078C130.299 1.2646 130.683 1.05396 131.079 0.870353C134.179 -0.565389 137.787 -0.205791 140.493 1.80826C140.696 1.95999 140.892 2.11989 141.082 2.28755L141.111 2.31319L141.14 2.28755C141.329 2.11984 141.526 1.95995 141.728 1.80826C144.435 -0.205791 148.042 -0.565218 151.143 0.870353C153.404 1.91745 155.113 3.76781 155.956 6.08063C156.771 8.32502 156.666 10.7399 155.66 12.8805ZM129.932 12.1629C130.067 11.9394 130.191 11.7091 130.303 11.4728C130.931 10.1333 130.994 8.6208 130.482 7.21333C130.339 6.82142 130.154 6.44593 129.932 6.09327C129.709 6.44592 129.524 6.82142 129.381 7.21333C128.869 8.62105 128.932 10.1335 129.561 11.4728C129.672 11.7091 129.796 11.9394 129.932 12.1629ZM127.714 14.794C127.261 14.1779 126.871 13.5393 126.561 12.8805C125.556 10.7404 125.451 8.32545 126.266 6.0808C126.549 5.30184 126.936 4.56485 127.417 3.88998C127.409 3.88614 127.401 3.88187 127.393 3.87802C126.585 3.50373 125.728 3.31381 124.848 3.31381C123.571 3.31381 122.362 3.71236 121.351 4.46624C120.802 4.87437 120.189 5.43397 119.42 6.75403C119.211 7.14063 118.89 7.72859 118.862 7.76909C118.839 7.80369 118.795 7.86794 118.753 7.86794C118.71 7.86794 118.667 7.80446 118.639 7.76311C118.615 7.72851 118.295 7.1408 118.085 6.75284C117.316 5.43303 116.702 4.87386 116.154 4.46624C115.143 3.71236 113.934 3.31381 112.658 3.31381C111.777 3.31381 110.921 3.50356 110.112 3.87802C108.658 4.55082 107.561 5.73539 107.023 7.21342C106.511 8.62114 106.575 10.1336 107.203 11.4729C109.058 15.4232 115.286 18.8192 117.877 20.096C118.161 20.2364 118.447 20.3733 118.734 20.5066L118.753 20.5151L118.771 20.5066C119.059 20.3732 119.344 20.2363 119.628 20.096C121.452 19.1971 125.079 17.2477 127.714 14.7941L127.714 14.794ZM152.84 7.21333C152.302 5.73539 151.205 4.55074 149.751 3.87794C148.943 3.50364 148.086 3.31372 147.206 3.31372C145.929 3.31372 144.72 3.71228 143.709 4.46616C143.16 4.87428 142.547 5.43388 141.778 6.75395C141.569 7.14054 141.248 7.72851 141.22 7.769C141.197 7.80361 141.154 7.86785 141.111 7.86785C141.068 7.86785 141.025 7.80437 140.997 7.76302C140.973 7.72842 140.653 7.14071 140.443 6.75275C139.674 5.43294 139.061 4.87377 138.512 4.46616C137.501 3.71228 136.292 3.31372 135.016 3.31372C134.135 3.31372 133.279 3.50347 132.47 3.87794C132.462 3.88169 132.454 3.88605 132.446 3.8899C132.927 4.56473 133.314 5.30165 133.598 6.08054C134.413 8.32493 134.308 10.7398 133.302 12.8804C132.993 13.5393 132.602 14.1779 132.15 14.794C134.784 17.2476 138.411 19.197 140.235 20.0959C140.519 20.2363 140.805 20.3732 141.092 20.5065L141.111 20.515L141.129 20.5065C141.417 20.3731 141.702 20.2362 141.986 20.0959C144.577 18.819 150.805 15.4232 152.661 11.4728C153.289 10.1333 153.352 8.6208 152.84 7.21333Z" fill="#0E0E0E"/>
</g>
<defs>
<clipPath id="clip0_4_953">
<rect width="156.5" height="24" fill="white"/>
</clipPath>
</defs>
</svg>
