<svg width="64" height="64" viewBox="0 0 64 64" fill="none" xmlns="http://www.w3.org/2000/svg">
<path d="M22.2609 25.0431H23.6522C25.189 25.0431 26.4348 23.7972 26.4348 22.2604C26.4348 21.4921 27.0577 20.8691 27.8261 20.8691H36.1739C36.9423 20.8691 37.5652 21.4921 37.5652 22.2604C37.5652 23.7972 38.8111 25.0431 40.3478 25.0431H41.7391C43.2759 25.0431 44.5217 26.2889 44.5217 27.8257V40.3474C44.5217 41.8842 43.2759 43.13 41.7391 43.13H22.2609C20.7241 43.13 19.4783 41.8842 19.4783 40.3474V27.8257C19.4783 26.2889 20.7241 25.0431 22.2609 25.0431Z" stroke="#213A52" stroke-width="2.22609" stroke-linecap="round" stroke-linejoin="round"/>
<path d="M32 37.5656C34.3052 37.5656 36.1739 35.6969 36.1739 33.3917C36.1739 31.0865 34.3052 29.2178 32 29.2178C29.6948 29.2178 27.826 31.0865 27.826 33.3917C27.826 35.6969 29.6948 37.5656 32 37.5656Z" stroke="#213A52" stroke-width="2.22609" stroke-linecap="round" stroke-linejoin="round"/>
</svg>
