<svg width="20" height="20" viewBox="0 0 20 20" fill="none" xmlns="http://www.w3.org/2000/svg">
<path fill-rule="evenodd" clip-rule="evenodd" d="M9.80045 17.379C7.99168 16.2658 6.30901 14.9557 4.78255 13.472C3.70938 12.4035 2.89239 11.1009 2.39415 9.66402C1.49756 6.87656 2.54484 3.68545 5.47572 2.74107C7.01607 2.24519 8.69836 2.52861 9.99635 3.50267C11.2948 2.52979 12.9765 2.24647 14.517 2.74107C17.4479 3.68545 18.5027 6.87656 17.6061 9.66402C17.1078 11.1009 16.2908 12.4035 15.2177 13.472C13.6912 14.9557 12.0085 16.2658 10.1998 17.379L10.0039 17.5009L9.80045 17.379Z" stroke="white" stroke-linecap="round" stroke-linejoin="round"/>
<path d="M13.115 5.87887C14.0027 6.16244 14.6335 6.95941 14.7123 7.89711" stroke="white" stroke-linecap="round" stroke-linejoin="round"/>
</svg>
