<svg width="30" height="31" viewBox="0 0 30 31" fill="none" xmlns="http://www.w3.org/2000/svg">
<g clip-path="url(#clip0_47_80588)">
<g filter="url(#filter0_d_47_80588)">
<path d="M15 20C20.2467 20 24.5 15.7467 24.5 10.5C24.5 5.25329 20.2467 1 15 1C9.75329 1 5.5 5.25329 5.5 10.5C5.5 15.7467 9.75329 20 15 20Z" fill="white"/>
<path fill-rule="evenodd" clip-rule="evenodd" d="M15 23.5L18.5 16.5H11.5L15 23.5Z" fill="white" stroke="white" stroke-linejoin="round"/>
<path d="M15 18C19.1421 18 22.5 14.6421 22.5 10.5C22.5 6.35786 19.1421 3 15 3C10.8579 3 7.5 6.35786 7.5 10.5C7.5 14.6421 10.8579 18 15 18Z" fill="#FF5844"/>
</g>
<path d="M15 13C16.3807 13 17.5 11.8807 17.5 10.5C17.5 9.11929 16.3807 8 15 8C13.6193 8 12.5 9.11929 12.5 10.5C12.5 11.8807 13.6193 13 15 13Z" fill="white"/>
</g>
<defs>
<filter id="filter0_d_47_80588" x="1.5" y="0" width="27" height="31" filterUnits="userSpaceOnUse" color-interpolation-filters="sRGB">
<feFlood flood-opacity="0" result="BackgroundImageFix"/>
<feColorMatrix in="SourceAlpha" type="matrix" values="0 0 0 0 0 0 0 0 0 0 0 0 0 0 0 0 0 0 127 0" result="hardAlpha"/>
<feOffset dy="3"/>
<feGaussianBlur stdDeviation="2"/>
<feColorMatrix type="matrix" values="0 0 0 0 0 0 0 0 0 0 0 0 0 0 0 0 0 0 0.5 0"/>
<feBlend mode="normal" in2="BackgroundImageFix" result="effect1_dropShadow_47_80588"/>
<feBlend mode="normal" in="SourceGraphic" in2="effect1_dropShadow_47_80588" result="shape"/>
</filter>
<clipPath id="clip0_47_80588">
<rect width="27" height="31" fill="white" transform="translate(1.5)"/>
</clipPath>
</defs>
</svg>
