<svg width="93" height="96" viewBox="0 0 93 96" fill="none" xmlns="http://www.w3.org/2000/svg">
<path d="M23.8324 9.01076e-10L4.23942 1.60288e-10C1.90774 0 0 1.4506 2.11198e-10 3.21391L1.18727e-09 18.0674C1.30343e-09 19.835 1.91347 21.2813 4.23942 21.2813L23.8324 21.2813C26.1641 21.2813 28.0718 19.8307 28.0718 18.0674L28.0718 3.21391C28.0718 1.4506 26.1584 9.89018e-10 23.8324 9.01076e-10Z" fill="#FF621F"/>
<path d="M89.8937 95.9151L88.179 95.9151C87.987 95.9151 87.8277 95.8715 87.7012 95.7842C87.579 95.6926 87.4939 95.5769 87.4459 95.4373L86.883 93.7749L83.2571 93.7749L82.6943 95.4373C82.6506 95.5595 82.5655 95.6707 82.439 95.7711C82.3125 95.8671 82.1576 95.9151 81.9743 95.9151L80.2464 95.9151L83.9378 86.379L86.2024 86.379L89.8937 95.9151ZM83.7676 92.2695L86.3725 92.2695L85.4955 89.6581C85.4388 89.4923 85.3712 89.2981 85.2926 89.0756C85.2184 88.8487 85.1443 88.6043 85.0701 88.3425C85.0003 88.6087 84.9283 88.8552 84.8541 89.0821C84.7799 89.309 84.7101 89.5054 84.6447 89.6712L83.7676 92.2695Z" fill="#282C38"/>
<path d="M92.7644 89.1279L92.7644 95.9151L90.7355 95.9151L90.7355 89.1279L92.7644 89.1279ZM93 87.2692C93 87.4306 92.9673 87.5833 92.9019 87.7273C92.8364 87.8669 92.747 87.9913 92.6335 88.1004C92.5201 88.2051 92.387 88.2902 92.2343 88.3556C92.0859 88.4167 91.9267 88.4473 91.7565 88.4473C91.5907 88.4473 91.4358 88.4167 91.2918 88.3556C91.1478 88.2902 91.0191 88.2051 90.9057 88.1004C90.7966 87.9913 90.7093 87.8669 90.6439 87.7273C90.5828 87.5833 90.5522 87.4306 90.5522 87.2692C90.5522 87.1034 90.5828 86.9485 90.6439 86.8045C90.7093 86.6605 90.7966 86.5339 90.9057 86.4249C91.0191 86.3158 91.1478 86.2307 91.2918 86.1696C91.4358 86.1085 91.5907 86.078 91.7565 86.078C91.9267 86.078 92.0859 86.1085 92.2343 86.1696C92.387 86.2307 92.5201 86.3158 92.6335 86.4249C92.747 86.5339 92.8364 86.6605 92.9019 86.8045C92.9673 86.9485 93 87.1034 93 87.2692Z" fill="#282C38"/>
</svg>
