<svg width="15" height="15" viewBox="0 0 15 15" fill="none" xmlns="http://www.w3.org/2000/svg">
<path d="M5.47657 14.2391H9.5208C12.891 14.2391 14.2391 12.891 14.2391 9.5208V5.47657C14.2391 2.10637 12.891 0.758294 9.5208 0.758294H5.47657C2.10637 0.758294 0.758294 2.10637 0.758294 5.47657V9.5208C0.758294 12.891 2.10637 14.2391 5.47657 14.2391Z" stroke="white" stroke-width="1.5" stroke-linecap="round" stroke-linejoin="round"/>
<path d="M5.54305 7.49308V6.4955C5.54305 5.20809 6.453 4.68908 7.56517 5.32942L8.42794 5.82821L9.29071 6.327C10.4029 6.96733 10.4029 8.01883 9.29071 8.65917L8.42794 9.15796L7.56517 9.65675C6.453 10.2971 5.54305 9.77133 5.54305 8.49066V7.49308Z" stroke="white" stroke-width="1.5" stroke-miterlimit="10" stroke-linecap="round" stroke-linejoin="round"/>
</svg>
