<svg width="143" height="143" viewBox="0 0 143 143" fill="none" xmlns="http://www.w3.org/2000/svg">
<g clip-path="url(#clip0_47_91076)">
<mask id="mask0_47_91076" style="mask-type:luminance" maskUnits="userSpaceOnUse" x="0" y="0" width="143" height="143">
<path d="M0 0H142.296V142.296H0V0Z" fill="#138667"/>
</mask>
<g mask="url(#mask0_47_91076)">
<path fill-rule="evenodd" clip-rule="evenodd" d="M142.288 70.0959C142.869 109.386 111.489 141.707 72.1999 142.288C32.9099 142.869 0.589912 111.489 0.0079123 72.1999C-0.572088 32.9099 30.8079 0.587913 70.0959 0.0079128C109.386 -0.572087 141.707 30.8059 142.288 70.0959Z" fill="#138667"/>
</g>
<path fill-rule="evenodd" clip-rule="evenodd" d="M52.5163 39.2427C51.8963 39.2427 51.3003 39.3877 50.7423 39.6727C48.8373 40.6467 48.0723 42.9757 49.0373 44.8647C49.36 45.4957 49.8515 46.0249 50.4571 46.3933C51.0626 46.7618 51.7585 46.9551 52.4673 46.9517C53.0873 46.9517 53.6853 46.8077 54.2433 46.5227C54.698 46.292 55.1028 45.9739 55.4345 45.5867C55.7662 45.1994 56.0183 44.7505 56.1763 44.2657C56.335 43.7858 56.3967 43.2792 56.3577 42.7753C56.3187 42.2715 56.1799 41.7804 55.9493 41.3307C55.6262 40.6991 55.1343 40.1695 54.5282 39.8009C53.9221 39.4323 53.2256 39.239 52.5163 39.2427ZM63.6683 121.493C62.7153 121.496 61.7803 121.234 60.9671 120.737C60.1539 120.241 59.4945 119.528 59.0623 118.679L32.8323 67.3617C31.7123 65.1697 31.4923 61.7737 32.3213 59.4617L32.3583 59.3677L42.3923 36.3677C43.1723 34.2597 45.2143 32.8477 47.4913 32.8477C47.9413 32.8477 48.3883 32.9057 48.8213 33.0187L77.4503 36.2987L77.5703 36.3337C79.8923 37.0047 82.5733 39.2187 83.6743 41.3737L109.904 92.6917C110.534 93.9227 110.644 95.3237 110.217 96.6387C110.009 97.2853 109.675 97.8842 109.233 98.4008C108.792 98.9175 108.253 99.3416 107.647 99.6487L66.0223 120.924C65.2935 121.297 64.4869 121.491 63.6683 121.493Z" fill="white"/>
<path fill-rule="evenodd" clip-rule="evenodd" d="M52.4693 45.4527C52.0365 45.4557 51.6114 45.3384 51.2413 45.114C50.8712 44.8896 50.5707 44.5668 50.3733 44.1817C50.2327 43.9082 50.1482 43.6095 50.1247 43.303C50.1011 42.9965 50.1391 42.6883 50.2363 42.3967C50.3333 42.0982 50.4883 41.8219 50.6926 41.5837C50.8968 41.3455 51.1462 41.1501 51.4263 41.0087C51.7636 40.8345 52.1377 40.7436 52.5173 40.7437C53.4093 40.7437 54.2123 41.2307 54.6133 42.0137C54.8973 42.5687 54.9463 43.2027 54.7503 43.7997C54.6532 44.0978 54.4982 44.3738 54.2942 44.6118C54.0901 44.8498 53.8411 45.0452 53.5613 45.1867C53.2239 45.3616 52.8494 45.4528 52.4693 45.4527ZM47.4913 31.3487C44.6043 31.3487 42.0113 33.1347 41.0033 35.8047L30.9843 58.7687L30.9443 58.8617L30.9103 58.9557C29.9403 61.6607 30.1873 65.4827 31.4973 68.0447L57.7273 119.362C58.2845 120.457 59.1349 121.377 60.1839 122.018C61.2328 122.659 62.4391 122.996 63.6683 122.992C64.7183 122.992 65.7683 122.74 66.7053 122.261L108.33 100.985C109.112 100.588 109.807 100.041 110.375 99.375C110.944 98.7087 111.375 97.9364 111.644 97.1027C111.918 96.2693 112.023 95.3899 111.954 94.5156C111.884 93.6412 111.642 92.7894 111.24 92.0097L85.0113 40.6917C83.7233 38.1717 80.7043 35.6787 77.9893 34.8917L77.7473 34.8217L77.4973 34.7947L49.0913 31.5387C48.5675 31.4115 48.0303 31.3484 47.4913 31.3487ZM52.4693 48.4517C53.3238 48.4512 54.166 48.2476 54.9263 47.8577C57.5733 46.5047 58.6283 43.2767 57.2843 40.6477C56.8349 39.771 56.1517 39.0356 55.3104 38.5229C54.4692 38.0103 53.5025 37.7402 52.5173 37.7427C51.6893 37.7427 50.8483 37.9327 50.0603 38.3367C47.4133 39.6897 46.3583 42.9167 47.7013 45.5467C48.1509 46.4234 48.8342 47.1588 49.6757 47.6715C50.5171 48.1842 51.484 48.4542 52.4693 48.4517ZM47.4913 34.3487C47.8413 34.3487 48.1923 34.3967 48.5373 34.4957L77.1553 37.7747C79.0933 38.3347 81.4183 40.2537 82.3403 42.0567L108.57 93.3747C108.79 93.8041 108.922 94.2726 108.96 94.7533C108.998 95.2341 108.941 95.7175 108.792 96.1761C108.643 96.6348 108.405 97.0595 108.092 97.4261C107.779 97.7927 107.396 98.094 106.966 98.3127L65.3413 119.589C64.9124 119.809 64.4442 119.943 63.9635 119.982C63.4828 120.022 62.9991 119.966 62.54 119.818C62.081 119.67 61.6556 119.433 61.2882 119.121C60.9209 118.808 60.6188 118.426 60.3993 117.997L34.1683 66.6787C33.2443 64.8717 33.0523 61.8687 33.7343 59.9677L43.7863 36.9237C44.3463 35.3627 45.8833 34.3477 47.4903 34.3477" fill="#138667"/>
<path fill-rule="evenodd" clip-rule="evenodd" d="M52.6049 44.5485C52.6049 45.5839 52.1936 46.5769 51.4614 47.3091C50.7293 48.0412 49.7363 48.4525 48.7009 48.4525C47.6655 48.4525 46.6725 48.0412 45.9403 47.3091C45.2082 46.5769 44.7969 45.5839 44.7969 44.5485C44.7969 43.5131 45.2082 42.5201 45.9403 41.788C46.6725 41.0558 47.6655 40.6445 48.7009 40.6445C49.7363 40.6445 50.7293 41.0558 51.4614 41.788C52.1936 42.5201 52.6049 43.5131 52.6049 44.5485Z" fill="#138667"/>
<path fill-rule="evenodd" clip-rule="evenodd" d="M48.3262 40.6573C47.8141 40.6563 47.307 40.7569 46.8341 40.9532C46.3611 41.1496 45.9319 41.4379 45.5712 41.8013C45.2093 42.1605 44.922 42.5876 44.7257 43.0582C44.5294 43.5287 44.4279 44.0334 44.4272 44.5433C44.4238 45.0483 44.5212 45.549 44.7135 46.016C44.9058 46.483 45.1892 46.907 45.5472 47.2633C45.9022 47.6203 46.3245 47.9034 46.7897 48.096C47.2549 48.2886 47.7537 48.3869 48.2572 48.3853C48.7691 48.386 49.2761 48.2851 49.7488 48.0886C50.2216 47.8921 50.6506 47.6037 51.0112 47.2403C52.5242 45.7273 52.5342 43.2763 51.0352 41.7763C50.6801 41.4197 50.2579 41.1371 49.7929 40.9449C49.3279 40.7526 48.8294 40.6555 48.3262 40.6573ZM81.4562 115.921C80.7781 115.923 80.1063 115.791 79.4797 115.532C78.8532 115.272 78.2844 114.891 77.8062 114.41L37.0532 73.6583C35.3132 71.9183 34.0592 68.7553 34.1362 66.2983L35.0682 36.5233C35.1552 33.7293 37.4992 31.3853 40.2932 31.2983L70.0692 30.3653L70.2822 30.3633C72.6922 30.3633 75.7642 31.6183 77.4282 33.2833L118.18 74.0353C120.195 76.0503 120.192 79.3313 118.174 81.3493L85.1192 114.404C84.6395 114.887 84.0688 115.269 83.4402 115.53C82.8116 115.79 82.1366 115.923 81.4562 115.921Z" fill="white"/>
<path fill-rule="evenodd" clip-rule="evenodd" d="M48.2598 46.8814C47.9529 46.8828 47.6487 46.8233 47.3649 46.7063C47.0812 46.5893 46.8235 46.4171 46.6068 46.1997C46.3902 45.9823 46.2188 45.724 46.1028 45.4398C45.9867 45.1557 45.9283 44.8513 45.9308 44.5444C45.9316 44.2308 45.9943 43.9204 46.1152 43.6311C46.2362 43.3418 46.4131 43.0792 46.6358 42.8584C46.8575 42.6346 47.1213 42.4571 47.4121 42.3361C47.7029 42.215 48.0148 42.1529 48.3298 42.1534C48.9548 42.1534 49.5398 42.3954 49.9788 42.8334C50.8938 43.7484 50.8828 45.2484 49.9538 46.1764C49.7322 46.4002 49.4683 46.5777 49.1775 46.6988C48.8867 46.8198 48.5748 46.8819 48.2598 46.8814ZM70.2858 28.8594C70.1988 28.8594 70.1128 28.8604 70.0268 28.8634L40.2498 29.7954C38.4973 29.8531 36.8323 30.575 35.5924 31.8149C34.3525 33.0548 33.6305 34.7198 33.5728 36.4724L32.6408 66.2494C32.5508 69.1204 33.9628 72.6814 35.9968 74.7154L76.7488 115.467C77.3662 116.088 78.1006 116.58 78.9094 116.915C79.7182 117.25 80.5854 117.421 81.4608 117.418C82.3383 117.421 83.2077 117.249 84.0184 116.913C84.8291 116.577 85.5651 116.084 86.1838 115.461L119.239 82.4064C121.842 79.8034 121.845 75.5704 119.245 72.9714L78.4928 32.2194C76.5458 30.2724 73.0948 28.8594 70.2858 28.8594ZM48.2598 49.8814C49.6378 49.8814 51.0198 49.3534 52.0748 48.2984C54.1768 46.1964 54.1878 42.8004 52.0998 40.7124C51.605 40.217 51.0173 39.8243 50.3703 39.5568C49.7233 39.2892 49.0299 39.1521 48.3298 39.1534C46.9518 39.1534 45.5698 39.6834 44.5148 40.7364C42.4128 42.8384 42.4018 46.2364 44.4898 48.3224C44.9843 48.8181 45.572 49.2112 46.219 49.4789C46.866 49.7466 47.5596 49.8828 48.2598 49.8814ZM70.2858 31.8584C72.2878 31.8584 74.9788 32.9464 76.3718 34.3394L117.124 75.0914C117.464 75.4327 117.735 75.8378 117.919 76.2835C118.103 76.7292 118.197 77.2069 118.197 77.6891C118.196 78.1714 118.101 78.6488 117.915 79.0941C117.73 79.5394 117.459 79.9439 117.118 80.2844L84.0628 113.339C83.7223 113.681 83.3178 113.952 82.8725 114.137C82.4272 114.322 81.9498 114.418 81.4675 114.418C80.9853 114.419 80.5076 114.324 80.0619 114.14C79.6162 113.956 79.2111 113.686 78.8698 113.345L38.1178 72.5944C36.6828 71.1594 35.5758 68.3644 35.6388 66.3424L36.5718 36.5664C36.6348 34.5494 38.3228 32.8574 40.3438 32.7944L70.1198 31.8614L70.2858 31.8584Z" fill="#138667"/>
<path fill-rule="evenodd" clip-rule="evenodd" d="M93.4461 63.6304C83.5031 63.6304 75.4141 55.5414 75.4141 45.5984C75.4141 35.6554 83.5041 27.5664 93.4461 27.5664C103.389 27.5664 111.478 35.6564 111.478 45.5984C111.478 55.5414 103.389 63.6304 93.4461 63.6304Z" fill="white"/>
<path fill-rule="evenodd" clip-rule="evenodd" d="M93.4461 26.0674C82.6761 26.0674 73.9141 34.8294 73.9141 45.5994C73.9141 56.3694 82.6761 65.1304 93.4461 65.1304C104.216 65.1304 112.978 56.3684 112.978 45.5984C112.978 34.8284 104.216 26.0674 93.4461 26.0674ZM93.4461 29.0664C102.576 29.0664 109.978 36.4684 109.978 45.5984C109.978 54.7284 102.576 62.1304 93.4461 62.1304C84.3161 62.1304 76.9141 54.7294 76.9141 45.5984C76.9141 36.4684 84.3151 29.0664 93.4461 29.0664Z" fill="#138667"/>
<path d="M85.7305 45.5988H101.16M93.4455 53.3128V37.8828" stroke="#138667" stroke-width="3" stroke-linecap="round" stroke-linejoin="round"/>
</g>
<defs>
<clipPath id="clip0_47_91076">
<rect width="143" height="143" fill="white"/>
</clipPath>
</defs>
</svg>
