<svg width="24" height="24" viewBox="0 0 24 24" fill="none" xmlns="http://www.w3.org/2000/svg">
<path d="M20.4849 4.5989C19.3591 3.47499 17.8333 2.84375 16.2424 2.84375C14.6516 2.84375 13.1258 3.47499 11.9999 4.5989C10.8716 3.48882 9.35038 2.86956 7.76756 2.876C6.18474 2.88245 4.66858 3.51408 3.54935 4.63331C2.43012 5.75254 1.79849 7.2687 1.79204 8.85152C1.7856 10.4343 2.40486 11.9556 3.51494 13.0839L11.9999 21.5699L20.4849 13.0849C21.6092 11.959 22.2406 10.433 22.2406 8.8419C22.2406 7.25083 21.6092 5.7248 20.4849 4.5989ZM19.0709 11.6699L11.9999 18.7419L4.92894 11.6709C4.5228 11.2738 4.20589 10.7948 3.9993 10.2657C3.7927 9.73657 3.70116 9.16954 3.73077 8.6023C3.76038 8.03507 3.91045 7.48065 4.17101 6.97593C4.43156 6.47121 4.79662 6.02777 5.24189 5.67512C5.68716 5.32246 6.20243 5.06869 6.75341 4.93067C7.3044 4.79266 7.87846 4.77357 8.43739 4.87469C8.99632 4.9758 9.52731 5.19479 9.99502 5.51709C10.4627 5.83939 10.8564 6.2576 11.1499 6.7439L11.9999 8.1159L12.8499 6.7439C13.0091 6.47956 13.1983 6.23459 13.4139 6.0139C14.1764 5.28731 15.1892 4.882 16.2424 4.882C17.2957 4.882 18.3085 5.28731 19.0709 6.0139C19.4424 6.38534 19.7371 6.8263 19.9381 7.31162C20.1391 7.79694 20.2426 8.3171 20.2426 8.8424C20.2426 9.36771 20.1391 9.88787 19.9381 10.3732C19.7371 10.8585 19.4424 11.2995 19.0709 11.6709V11.6699Z" fill="white"/>
</svg>
