<svg width="20" height="20" viewBox="0 0 20 20" fill="none" xmlns="http://www.w3.org/2000/svg">
<path d="M9.20709 2.44281C9.45709 1.67531 10.5429 1.67531 10.7921 2.44281L12.0579 6.33781C12.1124 6.50489 12.2183 6.65046 12.3605 6.75373C12.5027 6.857 12.6739 6.91268 12.8496 6.91281H16.9454C17.7529 6.91281 18.0879 7.94615 17.4354 8.42115L14.1221 10.8278C13.9798 10.9313 13.8738 11.0771 13.8195 11.2445C13.7652 11.4119 13.7652 11.5921 13.8196 11.7595L15.0846 15.6545C15.3346 16.4228 14.4554 17.0611 13.8029 16.5861L10.4896 14.1795C10.3472 14.076 10.1756 14.0202 9.99959 14.0202C9.82353 14.0202 9.652 14.076 9.50959 14.1795L6.19626 16.5861C5.54376 17.0611 4.66459 16.422 4.91459 15.6545L6.17959 11.7595C6.23399 11.5921 6.23402 11.4119 6.17968 11.2445C6.12534 11.0771 6.01942 10.9313 5.87709 10.8278L2.56376 8.42115C1.91042 7.94615 2.24709 6.91281 3.05376 6.91281H7.14876C7.32463 6.91286 7.49601 6.85726 7.63836 6.75398C7.78071 6.65069 7.88674 6.50502 7.94126 6.33781L9.20709 2.44281Z" fill="#FF842C"/>
</svg>
