<svg width="60" height="60" viewBox="0 0 60 60" fill="none" xmlns="http://www.w3.org/2000/svg">
<g clip-path="url(#clip0_47_91992)">
<g filter="url(#filter0_d_47_91992)">
<path d="M29.9994 55.7137C44.201 55.7137 55.7137 44.201 55.7137 29.9994C55.7137 15.7978 44.201 4.28516 29.9994 4.28516C15.7978 4.28516 4.28516 15.7978 4.28516 29.9994C4.28516 44.201 15.7978 55.7137 29.9994 55.7137Z" fill="white"/>
</g>
<path d="M29.8107 39.1055C29.6702 39.1055 29.5356 39.0491 29.4363 38.9485C29.337 38.8481 29.2812 38.7119 29.2812 38.5698V32.1412C29.2812 31.9991 29.337 31.8629 29.4363 31.7624C29.5356 31.6619 29.6702 31.6055 29.8107 31.6055C29.9511 31.6055 30.0858 31.6619 30.185 31.7624C30.2843 31.8629 30.3401 31.9991 30.3401 32.1412V38.5698C30.3401 38.7119 30.2843 38.8481 30.185 38.9485C30.0858 39.0491 29.9511 39.1055 29.8107 39.1055Z" fill="#EA4335"/>
<path d="M24.8843 42.3215C24.748 42.3216 24.6169 42.2684 24.5186 42.1729C23.496 41.1822 22.5968 40.0688 21.8407 38.8577C21.7698 38.7377 21.748 38.5945 21.7801 38.4584C21.812 38.3225 21.8954 38.2045 22.0121 38.1298C22.1289 38.0551 22.2699 38.0295 22.405 38.0586C22.5402 38.0876 22.6587 38.169 22.7354 38.2853C23.4454 39.4227 24.2899 40.4682 25.2501 41.3986C25.3265 41.4726 25.3793 41.5679 25.4017 41.6724C25.424 41.777 25.415 41.886 25.3756 41.9852C25.3362 42.0845 25.2684 42.1696 25.1809 42.2295C25.0933 42.2894 24.99 42.3215 24.8843 42.3215Z" fill="#34A853"/>
<path d="M30.3401 21.457H29.2812V32.1422H30.3401V21.457Z" fill="#4285F4"/>
<path d="M28.7508 45C28.4704 44.9993 28.1954 44.923 27.9539 44.7789C26.7125 44.0484 25.5599 43.1734 24.5195 42.1718L25.2514 41.3974C26.2318 42.3413 27.3183 43.1657 28.4883 43.854C28.5676 43.9017 28.6584 43.927 28.7508 43.9272C28.8432 43.9274 28.934 43.9023 29.0136 43.8549C29.0953 43.8087 29.1632 43.7412 29.2102 43.6594C29.2572 43.5777 29.2816 43.4846 29.281 43.3899V38.5703H30.3397V43.3899C30.3383 43.8161 30.1705 44.2245 29.8729 44.526C29.5753 44.8275 29.172 44.9979 28.7508 45Z" fill="#FBBC04"/>
<path d="M29.8141 14.9688L18.6797 18.9604V27.5228C18.7171 28.5894 18.8127 29.6531 18.966 30.7091C19.3512 33.5991 20.3308 36.3753 21.8416 38.8586L22.7363 38.286C21.3046 35.9287 20.377 33.294 20.0132 30.5518C19.8679 29.5479 19.7762 28.5367 19.7385 27.5228V19.7175L29.8148 16.1047L39.8562 19.6887V27.5091C39.835 28.5269 39.7579 29.5427 39.6249 30.5519C38.766 36.4066 36.0391 40.7993 31.518 43.6203V44.8678C36.5782 41.934 39.7437 37.0386 40.6723 30.7088C40.813 29.6478 40.894 28.5794 40.915 27.5091V18.9304L29.8141 14.9688Z" fill="#BDC1C6"/>
</g>
<defs>
<filter id="filter0_d_47_91992" x="-0.000557899" y="-0.000557899" width="60.0011" height="60.0011" filterUnits="userSpaceOnUse" color-interpolation-filters="sRGB">
<feFlood flood-opacity="0" result="BackgroundImageFix"/>
<feColorMatrix in="SourceAlpha" type="matrix" values="0 0 0 0 0 0 0 0 0 0 0 0 0 0 0 0 0 0 127 0" result="hardAlpha"/>
<feOffset/>
<feGaussianBlur stdDeviation="2.14286"/>
<feComposite in2="hardAlpha" operator="out"/>
<feColorMatrix type="matrix" values="0 0 0 0 0 0 0 0 0 0 0 0 0 0 0 0 0 0 0.1 0"/>
<feBlend mode="normal" in2="BackgroundImageFix" result="effect1_dropShadow_47_91992"/>
<feBlend mode="normal" in="SourceGraphic" in2="effect1_dropShadow_47_91992" result="shape"/>
</filter>
<clipPath id="clip0_47_91992">
<rect width="60" height="60" fill="white"/>
</clipPath>
</defs>
</svg>
