<svg width="15" height="15" viewBox="0 0 15 15" fill="none" xmlns="http://www.w3.org/2000/svg">
<path d="M11.5471 4.23857C11.5066 4.23183 11.4594 4.23183 11.4189 4.23857C10.4883 4.20485 9.74644 3.44278 9.74644 2.49863C9.74644 1.53425 10.522 0.758693 11.4864 0.758693C12.4508 0.758693 13.2263 1.54099 13.2263 2.49863C13.2196 3.44278 12.4777 4.20485 11.5471 4.23857Z" stroke="white" stroke-width="1.5" stroke-linecap="round" stroke-linejoin="round"/>
<path d="M10.8533 9.14826C11.7773 9.30338 12.7956 9.14152 13.5105 8.6627C14.4614 8.02877 14.4614 6.9902 13.5105 6.35627C12.7889 5.87745 11.757 5.7156 10.8331 5.87745" stroke="white" stroke-width="1.5" stroke-linecap="round" stroke-linejoin="round"/>
<path d="M3.43372 4.23857C3.47418 4.23183 3.52139 4.23183 3.56185 4.23857C4.49252 4.20485 5.23435 3.44278 5.23435 2.49863C5.23435 1.53425 4.4588 0.758693 3.49442 0.758693C2.53003 0.758693 1.75448 1.54099 1.75448 2.49863C1.76122 3.44278 2.50306 4.20485 3.43372 4.23857Z" stroke="white" stroke-width="1.5" stroke-linecap="round" stroke-linejoin="round"/>
<path d="M4.12898 9.14826C3.20506 9.30338 2.18672 9.14152 1.47187 8.6627C0.520969 8.02877 0.520969 6.9902 1.47187 6.35627C2.19347 5.87745 3.22529 5.7156 4.14921 5.87745" stroke="white" stroke-width="1.5" stroke-linecap="round" stroke-linejoin="round"/>
<path d="M7.50071 9.27282C7.46025 9.26607 7.41304 9.26607 7.37258 9.27282C6.44191 9.2391 5.70008 8.47703 5.70008 7.53288C5.70008 6.56849 6.47563 5.79294 7.44001 5.79294C8.4044 5.79294 9.17995 6.57524 9.17995 7.53288C9.17321 8.47703 8.43137 9.24584 7.50071 9.27282Z" stroke="white" stroke-width="1.5" stroke-linecap="round" stroke-linejoin="round"/>
<path d="M5.53799 11.3949C4.58709 12.0289 4.58709 13.0674 5.53799 13.7014C6.61702 14.423 8.38393 14.423 9.46296 13.7014C10.4139 13.0674 10.4139 12.0289 9.46296 11.3949C8.39067 10.6801 6.61702 10.6801 5.53799 11.3949Z" stroke="white" stroke-width="1.5" stroke-linecap="round" stroke-linejoin="round"/>
</svg>
