<svg width="24" height="24" viewBox="0 0 24 24" fill="none" xmlns="http://www.w3.org/2000/svg">
<path fill-rule="evenodd" clip-rule="evenodd" d="M4 7.2675V4.4375C12.59 4.4375 19.56 11.4075 19.56 19.9975H16.73C16.73 12.9675 11.03 7.2675 4 7.2675ZM4 12.9275V10.0975C9.47 10.0975 13.9 14.5275 13.9 19.9975H11.07C11.07 16.0975 7.9 12.9275 4 12.9275ZM8.36 17.8175C8.36 19.0215 7.38398 19.9975 6.18 19.9975C4.97602 19.9975 4 19.0215 4 17.8175C4 16.6135 4.97602 15.6375 6.18 15.6375C7.38398 15.6375 8.36 16.6135 8.36 17.8175Z" fill="#558E60"/>
</svg>
