<svg width="30" height="30" viewBox="0 0 30 30" fill="none" xmlns="http://www.w3.org/2000/svg">
<g clip-path="url(#clip0_47_53573)">
<path d="M3.56227 16.875C3.56227 16.875 2.34352 25.7812 4.03102 27.1875L6.65602 26.25L9.28102 14.8125L3.56227 16.875Z" fill="#9A4C18"/>
<path d="M4.40602 16.3125C4.40602 16.3125 3.18727 25.2187 4.87477 26.625L7.40602 25.5937L10.031 14.1562L4.40602 16.3125Z" fill="#E5895B"/>
<path d="M8.81236 27.6582C8.99986 27.9395 7.96861 28.5957 7.21861 28.9707C6.84361 29.1582 6.37486 29.1582 5.99986 28.9707L3.46861 27.5645C3.28111 27.4707 3.09361 27.1895 3.09361 27.002C2.99986 26.4395 3.46861 25.7832 3.93736 25.3145C4.40611 24.8457 5.06236 24.752 5.53111 25.0332C7.12486 25.9707 8.62486 27.2832 8.81236 27.6582Z" fill="#9A4C18"/>
<path d="M8.24992 27.6561C8.43742 27.9374 7.59367 28.4061 7.03117 28.6874C6.74992 28.8749 6.37492 28.8749 6.09367 28.6874L4.03117 27.4686C3.84367 27.3749 3.74992 27.1874 3.74992 26.9061C3.65617 26.4374 4.03117 25.8749 4.40617 25.4999C4.68742 25.2186 5.24992 25.1249 5.62492 25.3124C6.84367 26.1561 8.06242 27.2811 8.24992 27.6561Z" fill="#E5895B"/>
<path d="M7.40625 27.1874C7.5 27.3749 6.84375 27.8436 6.375 28.0311C6.1875 28.1249 5.8125 28.1249 5.625 28.0311L4.21875 27.3749C4.125 27.2811 4.03125 27.1874 3.9375 26.9999C3.9375 26.6249 4.21875 26.1561 4.5 25.8749C4.78125 25.5936 5.25 25.4999 5.53125 25.6874C6.5625 26.3436 7.3125 26.9061 7.40625 27.1874Z" fill="#FAD395"/>
<path d="M21.2816 5.34375L22.1253 2.90625L21.5628 1.5L24.6566 3.375L26.8128 9.28125L20.3441 7.96875L21.2816 5.34375ZM7.31282 9.46875C7.31282 9.46875 5.53157 12.0937 6.37532 16.2187L8.43782 12.8437L7.50032 9.28125L7.31282 9.46875ZM10.7816 4.78125C10.7816 4.78125 10.5941 3.1875 9.18782 1.6875C9.18782 1.6875 11.6253 1.59375 14.0628 2.71875L14.2503 3.84375L12.8441 6.09375L10.7816 4.78125Z" fill="#9A4C18"/>
<path d="M19.7258 28.9458C26.2377 28.0318 30.7873 22.0951 29.8877 15.6858C28.9881 9.27646 22.9799 4.82164 16.468 5.73566C9.95615 6.64967 5.40653 12.5864 6.30615 18.9957C7.20577 25.405 13.214 29.8598 19.7258 28.9458Z" fill="#9A4C18"/>
<path d="M19.1077 28.0131C25.1068 27.171 29.2641 21.4589 28.3933 15.2547C27.5225 9.05051 21.9533 4.70361 15.9542 5.54566C9.95504 6.3877 5.79775 12.0998 6.66858 18.304C7.53941 24.5082 13.1086 28.8551 19.1077 28.0131Z" fill="#E5895B"/>
<path d="M18.3426 26.7126C23.9828 25.9209 27.8958 20.5822 27.0825 14.7882C26.2693 8.99416 21.0377 4.93896 15.3975 5.73063C9.75734 6.52229 5.84433 11.861 6.65759 17.6551C7.47085 23.4491 12.7024 27.5043 18.3426 26.7126Z" fill="#FAD395"/>
<path d="M23.0625 12C23.0625 12 25.875 12 26.7188 11.5313C27.5625 11.0625 28.6875 10.9688 28.6875 10.125C28.6875 9.28125 27 4.6875 21.375 3.65625L24.6562 7.59375L23.0625 12ZM7.78125 11.4375C7.78125 11.4375 6.65625 9.9375 7.3125 7.96875C7.96875 6.09375 6.65625 3.375 6.65625 3.375L11.7188 4.40625C11.7188 4.40625 14.625 5.15625 14.4375 6.65625C14.25 8.0625 13.2188 10.3125 13.125 10.5C13.0312 10.6875 12.1875 12.0937 12.1875 12.0937L7.78125 11.4375Z" fill="#9A4C18"/>
<path d="M8.43736 11.7188C8.43736 11.7188 7.87486 9.46875 8.62486 8.8125C9.37486 8.15625 8.34361 4.96875 8.34361 4.96875L13.4061 6C13.4061 6 16.3124 6.75 16.1249 8.25C15.9374 9.75 14.9061 11.9062 14.8124 12.0938C14.7186 12.2812 13.9686 13.125 13.9686 13.125L8.43736 11.7188ZM21.2811 11.8125C21.2811 11.8125 24.0936 11.8125 24.9374 11.3438C25.7811 10.875 26.9061 10.7813 26.9061 9.9375C26.9061 9.09375 25.2186 4.5 19.5936 3.46875L22.8749 7.40625L21.2811 11.8125Z" fill="#DB7D1F"/>
<path d="M11.4375 11.8124C11.4375 11.8124 10.0312 11.5312 10.6875 9.18744C11.3437 6.84369 13.7812 3.46869 13.7812 3.46869L10.0312 0.093685C10.0312 0.093685 15.1875 -0.937565 19.4063 2.43743C19.4063 2.43743 24.2813 4.78119 24.4688 6.37494C24.6563 7.96869 26.7188 11.0624 25.0312 12.0937C23.3438 13.1249 12 12.3749 11.4375 11.8124Z" fill="#9A4C18"/>
<path d="M12.0937 12.0947C12.0937 12.0947 11.625 10.4072 12.1875 8.5322C12.75 6.75095 14.8125 3.8447 14.8125 3.8447L13.0312 1.0322C13.0312 1.0322 15.6563 0.750946 18.9375 3.37595C18.9375 3.37595 22.6875 5.1572 22.875 6.37595C23.0625 7.5947 22.875 11.6259 21.5625 12.3759C20.25 13.1259 12.5625 12.4697 12.0937 12.0947Z" fill="#F49937"/>
<path d="M14.5312 11.0625L15.75 6.65625L15.1875 1.875L18.375 6.5625L17.9063 11.625C17.9063 11.625 15.375 11.9062 14.5312 11.0625Z" fill="#FDE049"/>
<path d="M26.1562 7.21875L25.875 10.4063L23.4375 9.1875L24.6562 11.4375L28.125 10.6875L26.1562 7.21875Z" fill="#9A4C18"/>
<path d="M21.6562 10.0312L23.8125 10.7812L25.9688 9.1875L25.7812 10.9687L24.5625 11.7188L20.7188 12.5625L21.6562 10.0312ZM10.7812 7.96875L11.0625 10.3125L12.9375 12.2813L12.4687 12.1875L9.9375 11.625L9 9.65625L10.7812 7.96875Z" fill="#DB7D1F"/>
<path d="M18.8438 13.0312L20.7188 9L19.875 5.15625L18.75 3.46875C18.75 3.46875 21.375 4.6875 21.9375 5.15625C22.5 5.625 23.3437 7.03125 23.25 7.5C23.0625 7.96875 22.3125 12 22.3125 12L21.4687 12.5625C21.4687 12.5625 19.7813 13.2188 18.8438 13.0312Z" fill="#DB7D1F"/>
<path d="M11.4373 8.25L12.1873 8.15625C12.1873 8.15625 11.6248 10.2187 12.2811 11.625C12.2811 11.625 10.4998 11.1563 10.7811 8.4375L11.4373 8.25Z" fill="#9A4C18"/>
<path d="M23.1562 10.9687C23.1562 10.9687 25.5937 9.84375 25.2187 7.96875C25.2187 7.96875 25.9687 9.375 25.6875 10.4063C25.4062 11.4375 23.8125 11.25 23.8125 11.25L23.1562 10.9687Z" fill="#DB7D1F"/>
<path d="M12.4688 12.75L14.0625 14.1563L20.1562 12.0937L20.25 10.0312L18 12.4688L13.6875 12.0937L12.0938 11.3438L12.4688 12.75Z" fill="#F49937"/>
<path d="M21.1874 12.4688L22.3124 13.6875L21.1874 15.2812C21.1874 15.2812 23.9999 15 24.4687 16.125C24.9374 17.25 24.5624 18.9375 24.5624 18.9375L29.1562 17.9063C29.1562 17.9063 28.4999 12.75 26.7187 10.6875L24.9374 9.75L23.2499 11.1562L21.1874 12.4688ZM9.56242 11.625L6.56242 15.5625C6.56242 15.5625 6.28117 13.4062 7.59367 10.6875L9.56242 11.625Z" fill="#DB7D1F"/>
<path d="M28.9687 19.125L24.5625 18.9375L24.4688 18.375L29.4375 16.875L28.9687 19.125Z" fill="#9A4C18"/>
<path d="M25.5937 18.1875L24.8437 15.4688C24.8437 15.4688 22.875 14.9062 21.5625 14.9062L20.8125 15L22.7812 15.6563L24.375 18.6562L25.5937 18.1875Z" fill="#9A4C18"/>
<path d="M22.3125 15.1875L22.9688 13.5L20.8125 11.8125L18.2812 13.3125L21.375 12.9375L21 15.0938L22.3125 15.1875Z" fill="#9A4C18"/>
<path d="M20.625 12.5625L13.9687 14.9062L12.1875 12.4687L14.3438 13.6875L20.7188 11.8125L20.625 12.5625Z" fill="#9A4C18"/>
<path d="M14.0625 14.7188L10.6875 14.3438L13.5 13.6875L14.0625 14.7188ZM13.0312 13.3125L9.5625 12.9375L6.375 15.75L8.8125 11.625L12.2812 12.375L12.8437 13.125" fill="#9A4C18"/>
<path d="M20.8125 12.0937L25.7812 11.4375L27.0938 13.7812L24.6562 16.4062L23.8125 16.0313L20.8125 12.0937ZM8.4375 13.2188L12.1875 14.3438L13.7812 13.7812L13.0312 13.0312L10.125 12.6563L8.4375 13.2188Z" fill="#9A4C18"/>
<path d="M20.7188 13.2188L25.2187 11.9062L26.1562 13.5938L22.5938 16.4062L20.1562 15.6563L20.7188 13.2188Z" fill="#FAD395"/>
<path d="M14.0625 25.4063C14.0625 25.4063 20.3438 25.4062 23.3438 22.875C23.3438 22.875 23.25 24.9375 22.0313 26.1562C22.0313 26.1562 18.0938 26.8125 14.0625 25.4063Z" fill="white" stroke="#9A4C18" stroke-width="0.497438" stroke-miterlimit="10"/>
<path d="M28.125 20.25C28.125 20.25 27.9375 26.7188 26.0625 27.5625L23.7187 26.5312L22.875 18.0938L28.125 20.25Z" fill="#9A4C18"/>
<path d="M27.4687 19.6875C27.4687 19.6875 27.2812 26.1562 25.4062 27L23.0625 25.9687L22.2188 17.5312L27.4687 19.6875Z" fill="#E5895B"/>
<path d="M19.6877 28.3118C19.5002 28.6868 20.6252 29.3431 21.469 29.8118C21.9377 30.0931 22.4065 30.0931 22.7815 29.8118L25.594 28.2181C25.8752 28.0306 25.969 27.8431 26.0627 27.5618C26.1565 26.9056 25.594 26.1556 25.1252 25.6868C24.6565 25.2181 23.9065 25.0306 23.344 25.3118C21.5627 26.4368 19.8752 27.8431 19.6877 28.3118Z" fill="#9A4C18"/>
<path d="M20.25 28.312C20.0625 28.5932 21 29.1557 21.5625 29.5307C21.9375 29.7182 22.3125 29.7182 22.5937 29.5307L24.9375 28.1245C25.125 28.0307 25.3125 27.8432 25.3125 27.562C25.4062 26.9995 25.0312 26.437 24.6562 26.062C24.2812 25.687 23.7187 25.5932 23.25 25.8745C21.8437 26.7182 20.4375 27.937 20.25 28.312Z" fill="#E5895B"/>
<path d="M21.1877 27.7485C21.094 27.936 21.844 28.4048 22.3127 28.686C22.594 28.8735 22.969 28.8735 23.1565 28.686L24.6565 27.936C24.844 27.8423 24.9377 27.6548 24.9377 27.4673C24.9377 26.9985 24.6565 26.6235 24.2815 26.2485C24.0002 25.9673 23.4377 25.7798 23.1565 26.061C22.1252 26.811 21.3752 27.4673 21.1877 27.7485Z" fill="#FAD395"/>
<path d="M11.1562 25.3125L4.21875 19.6875L6.5625 17.25L13.6875 18.1875L11.1562 25.3125Z" fill="#404C5C"/>
<path d="M13.5936 18.3743C12.9373 20.2493 10.3123 21.6555 7.96858 21.1868C5.81233 20.8118 5.24983 18.9368 6.46858 17.343C7.49983 16.0305 9.56233 15.1868 11.2498 15.2805C13.0311 15.5618 14.1561 16.7805 13.5936 18.3743ZM23.8123 23.6243L14.5311 23.4368L16.3123 16.968L23.5311 16.7805L23.8123 23.6243Z" fill="#404C5C"/>
<path d="M23.5313 16.9688C23.8126 18.5625 22.1251 20.25 19.6876 20.3438C17.2501 20.4375 15.7501 18.8437 16.2188 17.1562C16.5938 15.75 18.2813 14.8125 20.0626 14.7188C21.7501 14.7188 23.3438 15.5625 23.5313 16.9688Z" fill="#404C5C"/>
<path d="M11.7188 16.5L19.5 15.6562L19.0312 23.625L8.625 24.2812L11.7188 16.5Z" fill="#404C5C"/>
<path d="M15.9375 16.125L14.8125 20.3438L13.125 20.4375L14.0625 16.4062L15.9375 16.125Z" fill="#34393F"/>
<path d="M17.9062 19.219L18.375 15.6565C18.375 15.6565 18.9375 15.1878 19.9687 15.094C21 15.0003 22.0312 15.7503 22.0312 15.7503L22.4062 19.219C22.4062 19.219 20.5312 17.9065 17.9062 19.219ZM7.125 19.6878L8.90625 16.5003C8.90625 16.5003 9.84375 16.0315 10.875 16.0315C11.9063 16.1253 12.6562 16.6878 12.6562 16.6878L11.3438 20.344C11.3438 20.344 10.125 18.7503 7.125 19.6878Z" fill="#626E7A"/>
<path d="M9.75 18.9375L10.9688 16.5L11.625 16.5938L10.5938 19.0312L9.75 18.9375ZM20.625 18.1875L20.8125 15.75L21.5625 15.8438V18.1875H20.625Z" fill="#7C8A96"/>
<path d="M20.8125 23.6253C20.9062 24.1878 20.5312 24.7503 19.9687 24.7503C19.4062 24.7503 18.9375 24.2815 18.9375 23.719C18.9375 23.1565 19.3125 22.6878 19.7812 22.6878C20.3437 22.594 20.8125 23.0628 20.8125 23.6253Z" fill="white"/>
<path d="M25.0314 22.2188C25.8752 25.5938 23.7189 29.0625 20.0627 29.1563C16.4064 29.25 13.8752 25.875 14.3439 22.4062C14.7189 19.6875 16.9689 17.8125 19.4064 17.7188C21.9377 17.7188 24.3752 19.5 25.0314 22.2188Z" fill="#404C5C"/>
<path d="M24.3749 22.2186C25.0311 25.1248 23.1561 27.9373 20.0624 28.0311C16.9686 28.1248 14.8124 25.3123 15.1874 22.4061C15.4686 19.9686 17.4374 18.2811 19.5936 18.2811C21.7499 18.1873 23.8124 19.8748 24.3749 22.2186Z" fill="#CCE2EA"/>
<path d="M23.5311 22.2193C23.9999 24.563 22.4061 26.813 19.9686 26.9068C17.5311 27.0005 15.7499 24.7505 15.9374 22.4068C16.1249 20.438 17.7186 18.938 19.5936 18.938C21.3749 18.8443 23.1561 20.2505 23.5311 22.2193Z" fill="#FFD4E1"/>
<path d="M12.4689 21.375C13.2189 24.5625 11.2502 27.9375 7.68766 28.0312C4.31266 28.0312 1.87516 24.8437 2.34391 21.5625C2.71891 18.9375 4.87516 17.1562 7.21891 17.0625C9.56266 17.0625 11.9064 18.75 12.4689 21.375Z" fill="#404C5C"/>
<path d="M11.8123 21.375C12.3748 24.0938 10.5935 26.8125 7.68727 26.9063C4.78102 27 2.71852 24.2813 2.99977 21.5625C3.28102 19.3125 5.15602 17.625 7.21852 17.625C9.28102 17.5313 11.3435 19.125 11.8123 21.375Z" fill="#CCE2EA"/>
<path d="M11.0626 21.375C11.5313 23.625 10.0313 25.7813 7.68756 25.7813C5.34381 25.875 3.65631 23.7188 3.84381 21.5625C4.03131 19.6875 5.53131 18.2812 7.31256 18.1875C9.00006 18.1875 10.6876 19.5 11.0626 21.375Z" fill="#FFD4E1"/>
<path d="M23.3436 20.814C23.1561 21.0953 24.0936 21.7515 24.8436 22.2203C25.2186 22.5015 25.6873 22.5015 25.9686 22.314L28.1248 21.3765C28.3123 21.2828 28.4998 21.0953 28.4998 20.814C28.5936 20.2515 28.1248 19.5953 27.7498 19.1265C27.3748 18.6578 26.7186 18.4703 26.2498 18.6578C24.7498 19.5015 23.6248 20.439 23.3436 20.814Z" fill="#9A4C18"/>
<path d="M23.9064 20.7181C23.7189 20.9993 24.5627 21.5618 25.2189 21.9368C25.5939 22.1243 25.9689 22.2181 26.2502 22.0306L27.9377 21.2806C28.1252 21.1868 28.219 20.9993 28.3127 20.8118C28.4065 20.3431 28.0314 19.7806 27.6564 19.3118C27.2814 18.9368 26.7189 18.7493 26.3439 18.9368C24.9377 19.6868 24.0939 20.3431 23.9064 20.7181Z" fill="#E5895B"/>
<path d="M24.2815 20.5299C24.1877 20.7174 24.844 21.1862 25.3127 21.5612C25.594 21.7487 25.8752 21.7487 26.1565 21.6549L27.5627 21.1862C27.7502 21.0924 27.844 20.9987 27.844 20.8112C27.844 20.4362 27.5627 19.9674 27.2815 19.5924C27.0002 19.2174 26.5315 19.1237 26.2502 19.2174C25.219 19.7799 24.469 20.3424 24.2815 20.5299Z" fill="#FAD395"/>
<path d="M20.2502 16.3128C20.0627 16.6878 21.1877 17.4378 21.9377 18.0003C22.4065 18.2816 22.8752 18.3753 23.2502 18.1878L25.7815 17.0628C26.0627 16.9691 26.2502 16.6878 26.2502 16.4066C26.344 15.7503 25.8752 15.0003 25.4065 14.4378C24.9377 13.8753 24.1877 13.6878 23.6252 13.9691C21.9377 14.8128 20.5315 15.9378 20.2502 16.3128Z" fill="#9A4C18"/>
<path d="M20.9062 16.1265C20.7187 16.4078 21.75 17.1578 22.4062 17.5328C22.7812 17.814 23.25 17.814 23.5312 17.6265L25.5 16.7828C25.6875 16.689 25.875 16.5015 25.875 16.2203C25.9687 15.6578 25.5 15.0015 25.125 14.439C24.75 13.9703 24.0937 13.7828 23.625 13.9703C22.0312 15.0015 21.0937 15.7515 20.9062 16.1265Z" fill="#E5895B"/>
<path d="M21.2814 16.0306C21.1877 16.2181 21.9377 16.8743 22.5002 17.2493C22.7814 17.4368 23.1564 17.5306 23.4377 17.3431L25.1252 16.7806C25.3127 16.6868 25.4064 16.5931 25.4064 16.4056C25.4064 15.9368 25.1252 15.3743 24.7502 14.9993C24.3752 14.6243 23.9064 14.4368 23.5314 14.6243C22.4064 15.0931 21.4689 15.7493 21.2814 16.0306Z" fill="#FAD395"/>
<path d="M22.4998 18.3765C22.3123 18.6578 23.2498 19.314 23.9998 19.7828C24.3748 20.064 24.8436 20.064 25.1248 19.8765L27.2811 18.939C27.4686 18.8453 27.6561 18.6578 27.6561 18.3765C27.7498 17.814 27.2811 17.1578 26.9061 16.689C26.5311 16.2203 25.8748 16.0328 25.4061 16.2203C23.9061 17.064 22.6873 18.0015 22.4998 18.3765Z" fill="#9A4C18"/>
<path d="M22.9689 18.1868C22.7814 18.4681 23.6252 19.0306 24.2814 19.4056C24.6564 19.5931 25.0314 19.6868 25.3127 19.4993L27.0002 18.7493C27.1877 18.6556 27.2815 18.4681 27.3752 18.2806C27.469 17.8118 27.0939 17.2493 26.7189 16.7806C26.3439 16.4056 25.7814 16.2181 25.4064 16.4056C24.0002 17.1556 23.1564 17.9056 22.9689 18.1868Z" fill="#E5895B"/>
<path d="M23.344 18.095C23.2502 18.2825 23.9065 18.7513 24.3752 19.1263C24.6565 19.3138 24.9377 19.3138 25.219 19.22L26.6252 18.7513C26.8127 18.6575 26.9065 18.5638 26.9065 18.3763C26.9065 18.0013 26.6252 17.5325 26.344 17.1575C26.0627 16.8763 25.594 16.6888 25.3127 16.8763C24.2815 17.345 23.5315 17.8138 23.344 18.095Z" fill="#FAD395"/>
<path d="M4.96881 19.7799C4.96881 20.1549 3.84381 20.3424 3.09381 20.4362C2.62506 20.5299 2.25006 20.3424 2.06256 20.0612L0.562557 18.2799C0.375057 18.0924 0.375057 17.9049 0.468807 17.6237C0.656307 17.0612 1.31256 16.6862 1.87506 16.4049C2.43756 16.1237 3.09381 16.3112 3.37506 16.6862C4.31256 17.9987 4.96881 19.3112 4.96881 19.7799Z" fill="#9A4C18"/>
<path d="M4.59352 19.4061C4.59352 19.6874 3.65602 19.8749 2.90602 19.9686C2.53102 19.9686 2.15602 19.8749 1.96852 19.5936L0.74977 18.2811C0.65602 18.0936 0.56227 17.9061 0.65602 17.7186C0.84352 17.2499 1.40602 16.8749 1.87477 16.6874C2.34352 16.4999 2.90602 16.5936 3.18727 16.8749C4.12477 18.0936 4.59352 19.0311 4.59352 19.4061Z" fill="#E5895B"/>
<path d="M4.31227 19.1249C4.31227 19.3124 3.46852 19.4999 2.90602 19.5936C2.62477 19.5936 2.24977 19.4999 2.15602 19.3124L1.12477 18.2811C1.03102 18.1874 0.93727 17.9999 1.03102 17.8124C1.12477 17.4374 1.59352 17.1561 2.06227 16.9686C2.43727 16.7811 2.90602 16.8749 3.18727 17.1561C3.84352 18.0936 4.31227 18.8436 4.31227 19.1249Z" fill="#FAD395"/>
<path d="M9.65625 17.0645C9.65625 17.4395 8.34375 17.7207 7.40625 17.8145C6.9375 17.9082 6.375 17.7207 6.1875 17.3457L4.40625 15.2832C4.21875 15.0957 4.21875 14.8145 4.21875 14.5332C4.40625 13.877 5.15625 13.4082 5.8125 13.127C6.46875 12.8457 7.21875 12.9395 7.59375 13.4082C8.8125 15.002 9.65625 16.5957 9.65625 17.0645Z" fill="#9A4C18"/>
<path d="M9.18766 16.6862C9.18766 17.0612 8.06266 17.2487 7.21891 17.3424C6.75016 17.4362 6.37516 17.2487 6.09391 16.9674L4.68766 15.3737C4.68766 15.0924 4.59391 14.9049 4.68766 14.6237C4.87516 14.0612 5.53141 13.6862 6.09391 13.4049C6.65641 13.1237 7.31266 13.3112 7.59391 13.6862C8.62516 15.0924 9.18766 16.2174 9.18766 16.6862Z" fill="#E5895B"/>
<path d="M8.90602 16.3124C8.90602 16.5936 7.96852 16.7811 7.31227 16.7811C6.93727 16.7811 6.56227 16.6874 6.37477 16.4999L5.15602 15.2811C5.06227 15.0936 4.96852 14.9999 5.06227 14.8124C5.24977 14.4374 5.81227 14.0624 6.28102 13.8749C6.65602 13.6874 7.21852 13.7811 7.49977 14.0624C8.34352 15.0936 8.81227 16.0311 8.90602 16.3124Z" fill="#FAD395"/>
<path d="M6.84381 17.9049C6.84381 18.2799 5.71881 18.4674 4.96881 18.5612C4.50006 18.6549 4.12506 18.4674 3.93756 18.1862L2.43756 16.4049C2.25006 16.2174 2.25006 16.0299 2.34381 15.7487C2.53131 15.1862 3.18756 14.8112 3.75006 14.5299C4.31256 14.2487 4.96881 14.4362 5.25006 14.8112C6.18756 16.1237 6.84381 17.5299 6.84381 17.9049Z" fill="#9A4C18"/>
<path d="M6.46852 17.5311C6.46852 17.8124 5.53102 17.9999 4.78102 18.0936C4.40602 18.0936 4.03102 17.9999 3.84352 17.7186L2.62477 16.4061C2.53102 16.2186 2.43727 16.0311 2.53102 15.8436C2.71852 15.3749 3.28102 14.9999 3.74977 14.8124C4.21852 14.6249 4.78102 14.7186 5.06227 14.9999C5.99977 16.2186 6.37477 17.2499 6.46852 17.5311Z" fill="#E5895B"/>
<path d="M7.3125 17.1562C7.3125 17.3437 6.46875 17.3437 5.90625 17.25C5.625 17.25 5.34375 17.0625 5.25 16.875L4.5 15.5625C4.40625 15.375 4.40625 15.2813 4.5 15.0938C4.6875 14.8125 5.25 14.625 5.71875 14.5312C6 14.5312 6.46875 14.7188 6.5625 15C7.125 16.0313 7.3125 16.875 7.3125 17.1562Z" fill="#FAD395"/>
<path d="M10.4062 26.7187L15.6563 26.625L14.5312 23.0625L12.4687 23.4375L10.4062 26.7187Z" fill="#404C5C"/>
<path d="M23.25 23.2512C23.3438 21.3762 21.6562 21.3762 21.6562 21.3762C21.6562 21.3762 20.7188 21.2824 19.9688 21.9387C19.3125 21.0949 18.2812 21.0012 18.2812 21.0012C18.2812 21.0012 16.4062 20.6262 16.4062 22.6887C16.4062 24.6574 19.6875 26.6262 19.875 26.7199C20.0625 26.5324 23.1562 25.0324 23.25 23.2512ZM10.5938 22.3137C10.6875 20.5324 9.09375 20.4387 9.09375 20.4387C9.09375 20.4387 8.15625 20.3449 7.5 21.0012C6.84375 20.1574 5.90625 20.0637 5.90625 20.0637C5.90625 20.0637 4.125 19.6887 4.125 21.6574C4.125 23.5324 7.3125 25.4074 7.40625 25.5012C7.5 25.5012 10.5 24.0949 10.5938 22.3137Z" fill="#DD4545"/>
<path d="M9.75 22.4076C9.84375 21.0014 8.53125 21.0014 8.53125 21.0014C8.53125 21.0014 7.78125 20.9076 7.3125 21.4701C6.84375 20.9076 6.09375 20.8139 6.09375 20.8139C6.09375 20.8139 4.6875 20.5326 4.6875 22.0326C4.6875 23.4389 7.125 24.8451 7.21875 24.9389C7.5 24.8451 9.75 23.7201 9.75 22.4076ZM22.4062 23.2514C22.5 21.8451 21.1875 21.8451 21.1875 21.8451C21.1875 21.8451 20.4375 21.7514 19.9687 22.3139C19.5 21.7514 18.75 21.6576 18.75 21.6576C18.75 21.6576 17.3438 21.3764 17.3438 22.8764C17.3438 24.2826 19.7813 25.6889 19.875 25.7826C20.0625 25.6889 22.4062 24.5639 22.4062 23.2514Z" fill="#FF6C6C"/>
<path d="M9.7056 19.8311C9.71965 19.4689 9.31165 19.1591 8.7943 19.139C8.27695 19.1189 7.84615 19.3962 7.8321 19.7583C7.81804 20.1205 8.22604 20.4303 8.74339 20.4504C9.26074 20.4705 9.69154 20.1932 9.7056 19.8311Z" fill="white"/>
<path d="M21.7652 20.3311C21.7792 19.9689 21.3712 19.6591 20.8539 19.639C20.3365 19.6189 19.9057 19.8962 19.8917 20.2583C19.8776 20.6205 20.2856 20.9303 20.803 20.9504C21.3203 20.9705 21.7511 20.6932 21.7652 20.3311Z" fill="white"/>
</g>
<defs>
<clipPath id="clip0_47_53573">
<rect width="30" height="30" fill="white"/>
</clipPath>
</defs>
</svg>
