<svg width="15" height="15" viewBox="0 0 15 15" fill="none" xmlns="http://www.w3.org/2000/svg">
<path d="M14.6346 13.1726C15.0439 13.5819 15.0439 14.2252 14.6346 14.6346C14.4591 14.81 14.1667 14.927 13.9328 14.927C13.6404 14.927 13.4065 14.81 13.2311 14.6346L7.50004 8.90356L1.76902 14.6346C1.35966 15.0439 0.716378 15.0439 0.307019 14.6346C-0.10234 14.2252 -0.10234 13.5819 0.307019 13.1726L6.03805 7.44156L0.307019 1.76902C-0.10234 1.35966 -0.10234 0.716378 0.307019 0.307019C0.716378 -0.10234 1.35966 -0.10234 1.76902 0.307019L7.50004 6.03805L13.2311 0.307019C13.6404 -0.10234 14.2837 -0.10234 14.6931 0.307019C15.1024 0.716378 15.1024 1.35966 14.6931 1.76902L8.96204 7.50004L14.6346 13.1726Z" fill="#7C7C7D"/>
</svg>
