<svg width="25" height="20" viewBox="0 0 25 20" fill="none" xmlns="http://www.w3.org/2000/svg">
<path d="M25.0002 2.26246C24.0952 2.60183 23.0771 2.9412 22.059 3.05432C23.0771 2.48871 23.9821 1.4706 24.3215 0.339369C23.3033 0.904985 22.2852 1.35748 21.0409 1.58372C20.1359 0.678738 18.7784 0 17.3078 0C14.4798 0 12.2173 2.14934 12.2173 4.86429C12.2173 5.20366 12.2173 5.65615 12.3304 5.99552C8.03174 5.76928 4.29868 3.84618 1.80997 0.904985C1.35748 1.58372 1.13123 2.48871 1.13123 3.39369C1.13123 5.09054 2.03621 6.56114 3.39369 7.46612C2.60183 7.46612 1.80997 7.23988 1.01811 6.90051V7.01363C1.01811 9.38921 2.82808 11.4254 5.09054 11.7648C4.63804 11.8779 4.18555 11.991 3.73306 11.991C3.39369 11.991 3.05432 11.991 2.71495 11.8779C3.39369 13.801 5.31678 15.2716 7.46612 15.2716C5.8824 16.4028 3.61994 17.1947 1.24435 17.1947C0.791861 17.1947 0.452492 17.1947 0 17.0816C2.26246 18.4391 4.97741 19.2309 7.91861 19.2309C17.3078 19.2309 22.5115 11.7648 22.5115 5.31678V4.63805C23.5296 4.07243 24.3215 3.16745 25.0002 2.26246Z" fill="white"/>
</svg>
