<svg width="26" height="26" viewBox="0 0 26 26" fill="none" xmlns="http://www.w3.org/2000/svg">
<path fill-rule="evenodd" clip-rule="evenodd" d="M18.2098 17.2234L17.7564 17.7564L17.2234 18.2098C15.6899 19.5087 13.7454 20.2216 11.7358 20.2215C7.05656 20.2215 3.25 16.4149 3.25 11.7358C3.25 7.05656 7.05656 3.25 11.7358 3.25C16.4149 3.25 20.2223 7.05656 20.2223 11.7358C20.2223 13.7451 19.5073 15.6943 18.2098 17.2234ZM19.448 18.2747C21.0002 16.4499 21.8509 14.1314 21.8473 11.7358C21.8473 6.15144 17.3201 1.625 11.7358 1.625C6.15225 1.625 1.625 6.15144 1.625 11.7358C1.625 17.3201 6.15225 21.8465 11.7358 21.8465C14.2293 21.8465 16.5116 20.9446 18.2747 19.448L23.2017 24.375L24.375 23.2009L19.448 18.2747Z" fill="#474445"/>
</svg>
