<svg width="35" height="35" viewBox="0 0 35 35" fill="none" xmlns="http://www.w3.org/2000/svg">
<path fill-rule="evenodd" clip-rule="evenodd" d="M34.997 6.28153C34.997 6.77715 34.5953 7.17889 34.0997 7.17889H32.305V27.8181H34.0997C34.5954 27.8181 34.9971 28.2199 34.9971 28.7155V34.0997C34.9971 34.5953 34.5954 34.997 34.0997 34.997H28.7156C28.22 34.997 27.8182 34.5953 27.8182 34.0997V32.3049H7.17889V34.0997C7.17889 34.5953 6.77715 34.997 6.28153 34.997H0.897362C0.401747 34.997 0 34.5953 0 34.0997V28.7155C0 28.22 0.401747 27.8181 0.897362 27.8182H2.69209V7.17889H0.897362C0.401747 7.17889 0 6.77715 0 6.28153V0.897362C0 0.401747 0.401747 0 0.897362 0H6.28153C6.77715 0 7.17889 0.401747 7.17889 0.897362V2.69209H27.8181V0.897362C27.8181 0.401747 28.2199 0 28.7155 0H34.0997C34.5953 0 34.997 0.401747 34.997 0.897362V6.28153ZM28.7155 27.8181H30.5102H30.5103V7.17889H28.7156C28.22 7.17889 27.8182 6.77715 27.8182 6.28153V4.48681H7.17889V6.28153C7.17889 6.77715 6.77715 7.17889 6.28153 7.17889H4.48681V27.8181H6.28153C6.77715 27.8181 7.17889 28.2199 7.17889 28.7155V30.5102H27.8181V28.7155C27.8181 28.2199 28.2199 27.8181 28.7155 27.8181Z" fill="#78797A"/>
</svg>
