<svg width="324" height="25" viewBox="0 0 324 25" fill="none" xmlns="http://www.w3.org/2000/svg">
<g clip-path="url(#clip0_47_91639)">
<path d="M12.0099 0.844524L14.7064 9.14413H23.4334L16.3729 14.2728L19.0694 22.5724L12.0099 17.4437L4.95047 22.5724L7.64694 14.2728L0.586475 9.14413H9.31347L12.0099 0.844524Z" fill="#FACF63"/>
</g>
<g clip-path="url(#clip1_47_91639)">
<path d="M41.4275 0.844524L44.124 9.14413H52.851L45.7905 14.2728L48.487 22.5724L41.4275 17.4437L34.3681 22.5724L37.0645 14.2728L30.0041 9.14413H38.7311L41.4275 0.844524Z" fill="#FACF63"/>
</g>
<g clip-path="url(#clip2_47_91639)">
<path d="M70.8451 0.844524L73.5416 9.14413H82.2686L75.2081 14.2728L77.9046 22.5724L70.8451 17.4437L63.7856 22.5724L66.4821 14.2728L59.4216 9.14413H68.1486L70.8451 0.844524Z" fill="#FACF63"/>
</g>
<g clip-path="url(#clip3_47_91639)">
<path d="M100.263 0.844524L102.959 9.14413H111.686L104.626 14.2728L107.322 22.5724L100.263 17.4437L93.2032 22.5724L95.8997 14.2728L88.8392 9.14413H97.5662L100.263 0.844524Z" fill="#FACF63"/>
</g>
<g clip-path="url(#clip4_47_91639)">
<path d="M129.68 0.844524L132.377 9.14413H141.104L134.043 14.2728L136.74 22.5724L129.68 17.4437L122.621 22.5724L125.317 14.2728L118.257 9.14413H126.984L129.68 0.844524Z" fill="#FACF63"/>
</g>
<defs>
<clipPath id="clip0_47_91639">
<rect width="24" height="24" fill="white" transform="translate(0 0.844524) scale(1.00092)"/>
</clipPath>
<clipPath id="clip1_47_91639">
<rect width="24" height="24" fill="white" transform="translate(29.4176 0.844524) scale(1.00092)"/>
</clipPath>
<clipPath id="clip2_47_91639">
<rect width="24" height="24" fill="white" transform="translate(58.8352 0.844524) scale(1.00092)"/>
</clipPath>
<clipPath id="clip3_47_91639">
<rect width="24" height="24" fill="white" transform="translate(88.2527 0.844524) scale(1.00092)"/>
</clipPath>
<clipPath id="clip4_47_91639">
<rect width="24" height="24" fill="white" transform="translate(117.67 0.844524) scale(1.00092)"/>
</clipPath>
</defs>
</svg>
