<svg width="22" height="22" viewBox="0 0 22 22" fill="none" xmlns="http://www.w3.org/2000/svg">
<path d="M13.7248 18.5208L13.1155 18.0577L13.1125 18.0616L13.7248 18.5208ZM12.1941 20.5616L12.8064 21.0208L12.1941 20.5616ZM9.74509 20.5616L9.13283 21.0208L9.74509 20.5616ZM8.21445 18.5208L7.59544 18.971L7.60219 18.98L8.21445 18.5208ZM7.39811 17.3473H6.88789V18.8779H7.39811V17.3473ZM6.88789 17.3473C4.86057 17.3473 3.59075 17.0806 2.79993 16.3887C2.0344 15.7188 1.53064 14.4751 1.53064 11.99H0C0 14.6071 0.516677 16.4247 1.79199 17.5406C3.04204 18.6344 4.8335 18.8779 6.88789 18.8779V17.3473ZM1.53064 11.99V6.88789H0V11.99H1.53064ZM1.53064 6.88789C1.53064 4.96501 2.01085 3.66341 2.83713 2.83713C3.66341 2.01085 4.96501 1.53064 6.88789 1.53064V0C4.72906 0 2.96938 0.540225 1.7548 1.7548C0.540225 2.96938 0 4.72906 0 6.88789H1.53064ZM6.88789 1.53064H15.0513V0H6.88789V1.53064ZM15.0513 1.53064C16.9742 1.53064 18.2758 2.01085 19.1021 2.83713C19.9284 3.66341 20.4086 4.96501 20.4086 6.88789H21.9392C21.9392 4.72906 21.399 2.96938 20.1844 1.7548C18.9699 0.540225 17.2101 0 15.0513 0V1.53064ZM20.4086 6.88789V11.99H21.9392V6.88789H20.4086ZM20.4086 11.99C20.4086 13.9129 19.9284 15.2145 19.1021 16.0408C18.2758 16.8671 16.9742 17.3473 15.0513 17.3473V18.8779C17.2101 18.8779 18.9699 18.3377 20.1844 17.1231C21.399 15.9086 21.9392 14.1489 21.9392 11.99H20.4086ZM15.0513 17.3473H14.5411V18.8779H15.0513V17.3473ZM14.5411 17.3473C13.982 17.3473 13.4518 17.615 13.1155 18.0577L14.3341 18.9838C14.3855 18.9163 14.4675 18.8779 14.5411 18.8779V17.3473ZM13.1125 18.0616L11.5819 20.1024L12.8064 21.0208L14.337 18.98L13.1125 18.0616ZM11.5819 20.1024C11.3684 20.387 11.1393 20.4698 10.9696 20.4698C10.7999 20.4698 10.5708 20.387 10.3573 20.1024L9.13283 21.0208C9.59288 21.6342 10.2515 22.0004 10.9696 22.0004C11.6877 22.0004 12.3464 21.6342 12.8064 21.0208L11.5819 20.1024ZM10.3573 20.1024L8.82671 18.0616L7.60219 18.98L9.13283 21.0208L10.3573 20.1024ZM8.83339 18.0707C8.65665 17.8276 8.40796 17.6558 8.18829 17.5468C7.96746 17.4374 7.6867 17.3473 7.39811 17.3473V18.8779C7.38543 18.8779 7.39245 18.8764 7.41925 18.8836C7.44435 18.8904 7.47564 18.9019 7.50846 18.9182C7.54134 18.9345 7.56813 18.9518 7.58658 18.9662C7.60646 18.9816 7.60599 18.9854 7.59551 18.9709L8.83339 18.0707Z" fill="#93989A"/>
<path d="M14.7982 8.67364C14.2346 8.67364 13.7778 9.1305 13.7778 9.69407C13.7778 10.2576 14.2346 10.7145 14.7982 10.7145V8.67364ZM14.8074 10.7145C15.3709 10.7145 15.8278 10.2576 15.8278 9.69407C15.8278 9.1305 15.3709 8.67364 14.8074 8.67364V10.7145ZM14.7982 10.7145H14.8074V8.67364H14.7982V10.7145Z" fill="#93989A"/>
<path d="M10.7155 8.67364C10.1519 8.67364 9.69507 9.1305 9.69507 9.69407C9.69507 10.2576 10.1519 10.7145 10.7155 10.7145V8.67364ZM10.7247 10.7145C11.2882 10.7145 11.7451 10.2576 11.7451 9.69407C11.7451 9.1305 11.2882 8.67364 10.7247 8.67364V10.7145ZM10.7155 10.7145H10.7247V8.67364H10.7155V10.7145Z" fill="#93989A"/>
<path d="M6.63279 8.67364C6.06922 8.67364 5.61236 9.1305 5.61236 9.69407C5.61236 10.2576 6.06922 10.7145 6.63279 10.7145V8.67364ZM6.64195 10.7145C7.20551 10.7145 7.66238 10.2576 7.66238 9.69407C7.66238 9.1305 7.20551 8.67364 6.64195 8.67364V10.7145ZM6.63279 10.7145H6.64195V8.67364H6.63279V10.7145Z" fill="#93989A"/>
</svg>
