<svg width="190" height="127" viewBox="0 0 190 127" fill="none" xmlns="http://www.w3.org/2000/svg">
<path opacity="0.3" d="M181.321 112.418H131.487" stroke="white" stroke-width="2.11094" stroke-miterlimit="10" stroke-linecap="round"/>
<path opacity="0.3" d="M114.468 112.418H108.135" stroke="white" stroke-width="2.11094" stroke-miterlimit="10" stroke-linecap="round"/>
<path opacity="0.3" d="M101.586 112.418H65.415" stroke="white" stroke-width="2.11094" stroke-miterlimit="10" stroke-linecap="round"/>
<path opacity="0.3" d="M77.3578 118.365H39.8887" stroke="white" stroke-width="2.11094" stroke-miterlimit="10" stroke-linecap="round"/>
<path opacity="0.3" d="M119.402 34.1707C119.402 36.9154 120.493 39.5477 122.433 41.4885C124.374 43.4293 127.007 44.5196 129.751 44.5196H165.479C167.998 44.5234 170.432 43.6076 172.324 41.944C174.216 40.2805 175.436 37.9836 175.755 35.4845C176.073 32.9854 175.469 30.4559 174.055 28.3708C172.641 26.2857 170.515 24.7883 168.075 24.1596C168.612 21.2715 168.17 18.2869 166.819 15.6786C165.467 13.0703 163.284 10.9877 160.615 9.76067C157.946 8.53369 154.944 8.23257 152.084 8.90504C149.224 9.5775 146.671 11.1851 144.829 13.473C142.952 12.4248 140.833 11.8857 138.684 11.909C136.534 11.9324 134.428 12.5175 132.574 13.6062C130.721 14.6949 129.184 16.2494 128.117 18.1155C127.049 19.9816 126.488 22.0943 126.49 24.2441C126.49 24.281 126.49 24.3127 126.49 24.3496C125.765 24.5903 125.07 24.9107 124.416 25.3048" stroke="white" stroke-width="2.11094" stroke-miterlimit="10" stroke-linecap="round"/>
<path opacity="0.3" d="M45.6303 85.5775C45.6303 87.5468 44.848 89.4354 43.4555 90.8279C42.063 92.2204 40.1744 93.0027 38.2051 93.0027H12.573C10.7676 93.0029 9.02411 92.3448 7.66909 91.1518C6.31406 89.9587 5.44049 88.3126 5.21202 86.5217C4.98355 84.7309 5.41585 82.9181 6.42795 81.4231C7.44005 79.9281 8.96251 78.8534 10.7101 78.4003C10.3069 76.3232 10.6123 74.1708 11.5775 72.2879C12.5426 70.405 14.1116 68.9003 16.0333 68.0149C17.955 67.1294 20.1183 66.9144 22.1767 67.4042C24.2351 67.894 26.0696 69.0604 27.3865 70.7165C28.9969 69.8169 30.8483 69.4437 32.6813 69.6491C34.5144 69.8544 36.2373 70.6281 37.6087 71.8616" stroke="white" stroke-width="2.11094" stroke-miterlimit="10" stroke-linecap="round"/>
<path opacity="0.3" d="M140.269 48.52C146.543 59.6615 148.415 72.7495 145.515 85.2028C145.413 85.6321 145.307 86.0595 145.198 86.4852C143.636 92.4637 140.994 98.1063 137.403 103.135" stroke="white" stroke-width="2.11094" stroke-miterlimit="10" stroke-linecap="round" stroke-dasharray="1.06 4.22"/>
<path opacity="0.3" d="M48.707 54.3567C49.2066 53.1289 49.7537 51.9257 50.3483 50.747C53.0456 45.3774 56.6685 40.5253 61.0507 36.4138C62.268 35.2739 63.5381 34.1938 64.861 33.1735C65.7265 32.5085 66.606 31.87 67.4997 31.2578C68.5551 30.5542 69.6546 29.8751 70.798 29.2208C81.2266 23.3245 93.3989 21.2897 105.178 23.4736C116.958 25.6575 127.591 31.9205 135.213 41.1634" stroke="white" stroke-width="2.11094" stroke-miterlimit="10" stroke-linecap="round" stroke-dasharray="1.06 4.22"/>
<path opacity="0.3" d="M25.6555 32.7986H24.0723V31.2154C24.0723 31.0055 23.9889 30.8041 23.8404 30.6557C23.692 30.5072 23.4906 30.4238 23.2807 30.4238C23.0707 30.4238 22.8694 30.5072 22.7209 30.6557C22.5725 30.8041 22.4891 31.0055 22.4891 31.2154V32.7986H20.9059C20.6959 32.7986 20.4946 32.882 20.3461 33.0305C20.1977 33.1789 20.1143 33.3803 20.1143 33.5902C20.1143 33.8002 20.1977 34.0015 20.3461 34.15C20.4946 34.2984 20.6959 34.3818 20.9059 34.3818H22.4891V35.965C22.4891 36.175 22.5725 36.3763 22.7209 36.5248C22.8694 36.6732 23.0707 36.7566 23.2807 36.7566C23.4906 36.7566 23.692 36.6732 23.8404 36.5248C23.9889 36.3763 24.0723 36.175 24.0723 35.965V34.3818H25.6555C25.8654 34.3818 26.0668 34.2984 26.2152 34.15C26.3637 34.0015 26.4471 33.8002 26.4471 33.5902C26.4471 33.3803 26.3637 33.1789 26.2152 33.0305C26.0668 32.882 25.8654 32.7986 25.6555 32.7986Z" fill="white"/>
<path opacity="0.3" d="M162.339 98.2483H160.756V96.6651C160.756 96.4552 160.672 96.2538 160.524 96.1054C160.376 95.9569 160.174 95.8735 159.964 95.8735C159.754 95.8735 159.553 95.9569 159.405 96.1054C159.256 96.2538 159.173 96.4552 159.173 96.6651V98.2483H157.589C157.38 98.2483 157.178 98.3317 157.03 98.4802C156.881 98.6287 156.798 98.83 156.798 99.0399C156.798 99.2499 156.881 99.4512 157.03 99.5997C157.178 99.7481 157.38 99.8315 157.589 99.8315H159.173V101.415C159.173 101.625 159.256 101.826 159.405 101.974C159.553 102.123 159.754 102.206 159.964 102.206C160.174 102.206 160.376 102.123 160.524 101.974C160.672 101.826 160.756 101.625 160.756 101.415V99.8315H162.339C162.549 99.8315 162.75 99.7481 162.899 99.5997C163.047 99.4512 163.131 99.2499 163.131 99.0399C163.131 98.83 163.047 98.6287 162.899 98.4802C162.75 98.3317 162.549 98.2483 162.339 98.2483Z" fill="white"/>
<path opacity="0.3" d="M119.397 20.1171C120.563 20.1171 121.508 19.172 121.508 18.0062C121.508 16.8404 120.563 15.8953 119.397 15.8953C118.231 15.8953 117.286 16.8404 117.286 18.0062C117.286 19.172 118.231 20.1171 119.397 20.1171Z" stroke="white" stroke-width="1.05547" stroke-miterlimit="10"/>
<path opacity="0.7" d="M59.0611 113.648C59.985 113.648 60.734 112.899 60.734 111.975C60.734 111.051 59.985 110.302 59.0611 110.302C58.1372 110.302 57.3882 111.051 57.3882 111.975C57.3882 112.899 58.1372 113.648 59.0611 113.648Z" stroke="white" stroke-width="1.05547" stroke-miterlimit="10"/>
<path d="M123.012 72.6848H137.404" stroke="#E5E6E8" stroke-width="1.5832" stroke-miterlimit="10" stroke-linecap="round"/>
<path d="M57.3882 72.6848H71.7795" stroke="#E5E6E8" stroke-width="1.5832" stroke-miterlimit="10" stroke-linecap="round"/>
<path d="M96.6147 36.5403V45.9287" stroke="#E5E6E8" stroke-width="1.5832" stroke-miterlimit="10" stroke-linecap="round"/>
<path opacity="0.22" d="M109.091 47.8603C107.808 47.2217 104.13 47.5383 99.6494 48.9791C91.9656 54.2564 85.4006 62.1038 84.9256 74.5847C84.7673 74.9066 84.1235 74.5847 83.9651 74.4264C81.8859 70.4262 81.0837 66.2624 82.8464 60.0245C83.1683 59.5443 82.0442 58.7421 81.8859 59.0641C80.734 60.2862 79.7151 61.6271 78.8461 63.0643C73.5688 72.1888 77.0835 83.8676 86.208 88.9919C90.6248 91.4429 95.8327 92.0444 100.692 90.6647C105.551 89.2849 109.666 86.0364 112.136 81.63C118.057 70.9064 112.452 49.7812 109.091 47.8603Z" fill="#81B441"/>
<path d="M110.705 50.0028C109.423 49.3643 105.745 49.6809 101.264 51.1216C93.5803 56.399 87.0153 64.2464 86.5404 76.7273C86.3821 77.0492 85.7382 76.7273 85.5799 76.569C83.5006 72.5688 82.6985 68.4049 84.4611 62.1671C84.783 61.6869 83.6589 60.8847 83.5006 61.2066C82.3488 62.4288 81.3298 63.7697 80.4609 65.2069C75.1835 74.3314 78.6982 86.0102 87.8228 91.1345C92.2396 93.5855 97.4475 94.187 102.307 92.8072C107.166 91.4275 111.281 88.179 113.75 83.7726C119.666 73.0437 114.067 51.9185 110.705 50.0028Z" stroke="#81B441" stroke-width="2.11094" stroke-miterlimit="10" stroke-linecap="round"/>
<path d="M135.831 86.7648C135.656 86.7638 135.484 86.7231 135.327 86.6455C135.17 86.568 135.033 86.4558 134.926 86.3174C134.82 86.1791 134.746 86.0182 134.71 85.847C134.675 85.6758 134.679 85.4987 134.722 85.3294C135.178 83.6371 135.53 81.9188 135.778 80.184C135.831 78.8488 137.282 77.9886 137.361 77.9517C139.371 76.7386 141.456 75.6546 143.604 74.7061C143.225 74.1134 142.935 73.4679 142.744 72.7904C142.174 72.7271 141.562 72.2627 141.367 70.6373C141.307 70.4296 141.292 70.2117 141.323 69.9979C141.354 69.7841 141.43 69.5793 141.546 69.3971C141.664 69.2427 141.826 69.1269 142.01 69.0646C141.971 68.9454 141.939 68.8238 141.915 68.7005C141.694 67.564 141.712 66.394 141.968 65.2649C142.213 64.3354 142.708 63.4905 143.398 62.8215C143.33 62.7146 143.292 62.5914 143.288 62.4647C143.284 62.338 143.314 62.2126 143.375 62.1014C143.436 61.9903 143.525 61.8976 143.634 61.833C143.744 61.7685 143.868 61.7344 143.995 61.7344C144.28 61.7344 144.522 61.7819 144.792 61.8188C145.02 61.6908 145.257 61.5762 145.499 61.4758C145.639 61.4185 145.794 61.4076 145.941 61.4446C146.089 61.4817 146.22 61.5647 146.317 61.6816L146.375 61.7608C146.844 61.6288 147.328 61.5631 147.815 61.5655C148.799 61.5862 149.77 61.794 150.676 62.1777C150.803 62.2278 150.911 62.3173 150.984 62.4331C151.057 62.5489 151.092 62.6849 151.082 62.8215C151.082 62.8215 151.082 62.8637 151.082 62.8848C151.362 63.0808 151.612 63.3154 151.826 63.5814C151.927 63.7126 152.014 63.8541 152.085 64.0036L152.206 64.2411C152.641 65.0969 152.872 66.0414 152.882 67.0012C152.895 67.7219 152.769 68.4385 152.512 69.1121C152.672 69.1766 152.812 69.2822 152.919 69.4182C153.034 69.6005 153.11 69.8053 153.141 70.0191C153.172 70.2328 153.157 70.4507 153.098 70.6584C152.898 72.3418 152.259 72.7693 151.721 72.8168C151.551 73.4377 151.293 74.0313 150.955 74.5794C152.94 75.313 156.718 77.482 157.652 78.0414C157.705 78.073 159.162 78.9332 159.236 80.2684C159.501 81.9357 159.853 83.588 160.291 85.2185C160.336 85.4017 160.338 85.5927 160.299 85.7771C160.259 85.9614 160.178 86.1343 160.061 86.2827C159.945 86.4311 159.796 86.5511 159.627 86.6337C159.457 86.7163 159.271 86.7593 159.083 86.7595L135.889 86.7859L135.831 86.7648Z" fill="white"/>
<path d="M145.768 61.9296C145.795 61.9298 145.822 61.9361 145.847 61.9479C145.871 61.9598 145.893 61.9769 145.91 61.9981C145.927 62.0193 145.94 62.044 145.946 62.0705C145.953 62.0969 145.953 62.1245 145.948 62.1512C145.943 62.1773 145.944 62.2041 145.951 62.2297C145.958 62.2552 145.97 62.2789 145.987 62.2991C146.005 62.3193 146.026 62.3354 146.05 62.3464C146.074 62.3573 146.101 62.3627 146.127 62.3623H146.19C146.71 62.1748 147.258 62.0801 147.81 62.0826C148.727 62.1039 149.632 62.2991 150.476 62.6579C150.499 62.6652 150.52 62.68 150.534 62.6999C150.549 62.7198 150.557 62.7439 150.557 62.7687C150.557 62.7934 150.549 62.8175 150.534 62.8375C150.52 62.8574 150.499 62.8721 150.476 62.8795C150.452 62.8849 150.431 62.8973 150.416 62.915C150.4 62.9327 150.39 62.9549 150.387 62.9785C150.384 63.0021 150.388 63.026 150.4 63.047C150.411 63.068 150.428 63.085 150.449 63.0959C150.819 63.2995 151.147 63.5717 151.415 63.898C151.492 64.0016 151.557 64.1131 151.61 64.2305L151.732 64.468C152.13 65.2515 152.341 66.1168 152.349 66.9958C152.374 67.7806 152.202 68.5591 151.848 69.2598C151.784 69.3757 151.695 69.4765 151.589 69.5553H151.774C151.866 69.5352 151.959 69.5246 152.053 69.5237C152.835 69.5237 152.613 70.4419 152.581 70.5264C152.418 71.9776 151.953 72.2521 151.626 72.2521H151.52C151.453 72.2538 151.389 72.2791 151.339 72.3235C151.289 72.3679 151.256 72.4286 151.246 72.4948C151.033 73.3085 150.676 74.0772 150.191 74.7641C150.184 74.7734 150.18 74.7841 150.179 74.7952C150.178 74.8064 150.179 74.8177 150.184 74.8281C150.188 74.8385 150.194 74.8477 150.203 74.855C150.212 74.8622 150.222 74.8672 150.233 74.8696C151.721 75.2338 155.827 77.5083 157.373 78.4582C157.373 78.4582 158.634 79.1918 158.677 80.2525C158.931 81.9566 159.283 83.6447 159.732 85.3082C159.758 85.4137 159.759 85.5236 159.736 85.6297C159.713 85.7357 159.666 85.8352 159.599 85.9205C159.532 86.0059 159.446 86.0749 159.349 86.1224C159.251 86.1699 159.144 86.1947 159.035 86.1948L135.841 86.2212C135.747 86.2209 135.654 86.199 135.569 86.1572C135.484 86.1155 135.409 86.0549 135.351 85.9801C135.293 85.9053 135.253 85.8183 135.234 85.7256C135.215 85.633 135.217 85.5372 135.24 85.4454C135.714 83.7107 136.081 81.9482 136.338 80.1681C136.38 79.1126 137.641 78.3738 137.641 78.3738C139.224 77.4186 142.918 75.371 144.343 74.9805C144.354 74.9782 144.363 74.9733 144.371 74.9664C144.379 74.9594 144.386 74.9505 144.389 74.9405C144.393 74.9305 144.394 74.9197 144.392 74.9092C144.391 74.8986 144.387 74.8887 144.38 74.8802C143.869 74.1659 143.487 73.3675 143.251 72.5212C143.235 72.4415 143.192 72.3697 143.13 72.3178C143.067 72.2659 142.989 72.2371 142.908 72.2362H142.86C142.533 72.2362 142.069 71.9618 141.905 70.5158C141.905 70.4261 141.662 69.5131 142.433 69.5131C142.527 69.5141 142.621 69.5247 142.713 69.5448H142.866C142.655 69.2629 142.512 68.9359 142.449 68.5896C142.24 67.5269 142.255 66.4325 142.491 65.3757C142.755 64.3938 143.322 63.5203 144.111 62.8795C144.119 62.8731 144.125 62.865 144.129 62.8559C144.134 62.8468 144.136 62.8368 144.136 62.8267C144.136 62.8167 144.134 62.8067 144.129 62.7976C144.125 62.7885 144.119 62.7804 144.111 62.774C144.014 62.6887 143.922 62.597 143.837 62.4995C143.82 62.4727 143.811 62.4419 143.809 62.4103C143.808 62.3786 143.816 62.3473 143.831 62.3194C143.846 62.2916 143.868 62.2682 143.895 62.2516C143.922 62.235 143.953 62.2259 143.984 62.2251C144.275 62.2251 144.56 62.2832 144.845 62.3307H144.882C145.134 62.1825 145.397 62.052 145.668 61.9401H145.736M145.736 60.8847C145.573 60.8847 145.412 60.917 145.262 60.9797C145.061 61.0641 144.855 61.1591 144.66 61.2646C144.449 61.2383 144.248 61.2171 144.048 61.2013H143.963C143.777 61.2019 143.594 61.2445 143.426 61.3259C143.259 61.4074 143.112 61.5256 142.997 61.6718C142.882 61.8179 142.801 61.9882 142.761 62.17C142.721 62.3517 142.722 62.5401 142.765 62.7212C142.136 63.4077 141.683 64.2373 141.446 65.1382C141.166 66.3516 141.145 67.6101 141.383 68.8323C141.28 68.9116 141.187 69.0038 141.108 69.1068C140.945 69.3455 140.835 69.6168 140.787 69.902C140.739 70.1872 140.753 70.4794 140.829 70.7586C141.04 72.4737 141.715 73.0806 142.306 73.2759C142.446 73.6918 142.623 74.0945 142.834 74.4791C140.86 75.3973 138.934 76.4172 137.066 77.5347C136.897 77.6297 135.314 78.5902 135.25 80.1734C135 81.8712 134.647 83.5524 134.195 85.208C134.129 85.4564 134.12 85.7168 134.171 85.969C134.221 86.2212 134.329 86.4585 134.485 86.6625C134.642 86.8665 134.843 87.0318 135.074 87.1456C135.304 87.2594 135.558 87.3187 135.815 87.3189L159.035 87.2925C159.304 87.2922 159.569 87.2309 159.811 87.1132C160.052 86.9955 160.264 86.8245 160.429 86.613C160.595 86.4016 160.71 86.1553 160.767 85.8927C160.824 85.6301 160.82 85.358 160.756 85.0971C160.307 83.505 159.954 81.8872 159.7 80.2525C159.637 78.6693 158.054 77.693 157.869 77.5875C155.862 76.3831 153.79 75.2908 151.663 74.3155C151.837 73.9762 151.984 73.6232 152.101 73.26C152.692 73.0648 153.368 72.4579 153.579 70.7428C153.654 70.4636 153.668 70.1713 153.62 69.8861C153.572 69.601 153.462 69.3297 153.299 69.0909C153.242 69.0166 153.178 68.9477 153.109 68.8851C153.29 68.2702 153.379 67.6317 153.373 66.9906C153.362 65.9483 153.111 64.9225 152.639 63.993L152.518 63.7555C152.432 63.5685 152.326 63.3916 152.201 63.2278C152.016 62.996 151.805 62.7854 151.573 62.5998C151.545 62.3929 151.463 62.1971 151.334 62.0329C151.205 61.8687 151.034 61.7419 150.84 61.6657C149.872 61.2571 148.835 61.0368 147.784 61.0166C147.358 61.0157 146.933 61.0617 146.518 61.1538C146.298 60.9763 146.024 60.8795 145.742 60.8794L145.736 60.8847Z" fill="white"/>
<path d="M84.9732 32.1074C84.7984 32.1065 84.6261 32.0657 84.4694 31.9882C84.3127 31.9106 84.1758 31.7984 84.0689 31.6601C83.9621 31.5217 83.8882 31.3608 83.8529 31.1896C83.8175 31.0184 83.8217 30.8414 83.865 30.672C84.3204 28.9798 84.6729 27.2615 84.9204 25.5266C84.9732 24.1914 86.4245 23.3312 86.5036 23.2943C88.5138 22.0828 90.5991 21.0005 92.7467 20.054C92.3669 19.4614 92.0771 18.8158 91.8865 18.1383C91.3166 18.075 90.7044 17.6106 90.5091 15.9851C90.4495 15.7775 90.4347 15.5596 90.4656 15.3458C90.4965 15.132 90.5725 14.9272 90.6886 14.745C90.8072 14.5908 90.9688 14.4751 91.153 14.4125C91.1152 14.2932 91.0852 14.1716 91.0633 14.0484C90.8423 12.9119 90.8603 11.7419 91.116 10.6128C91.3613 9.68328 91.8558 8.83841 92.5462 8.1694C92.4783 8.06288 92.4402 7.94013 92.4359 7.81391C92.4315 7.68768 92.461 7.56259 92.5213 7.45163C92.5816 7.34067 92.6706 7.24789 92.7789 7.18294C92.8872 7.11798 93.011 7.08322 93.1373 7.08227C93.4222 7.08227 93.665 7.12976 93.9341 7.16671C94.163 7.03868 94.3991 6.92414 94.6413 6.82368C94.7811 6.76498 94.9361 6.75279 95.0834 6.78889C95.2307 6.825 95.3625 6.9075 95.4593 7.02422L95.5173 7.10338C95.9861 6.97153 96.4711 6.90581 96.9581 6.90812C97.9417 6.92869 98.9125 7.13645 99.8184 7.52029C99.9458 7.57046 100.054 7.65993 100.127 7.77571C100.2 7.89148 100.234 8.02754 100.225 8.16412C100.226 8.18697 100.226 8.20988 100.225 8.23273C100.504 8.42879 100.755 8.6633 100.969 8.92934C101.07 9.0604 101.157 9.20194 101.227 9.35153L101.349 9.58901C101.783 10.4448 102.014 11.3893 102.024 12.3491C102.037 13.0698 101.912 13.7864 101.655 14.46C101.815 14.526 101.956 14.6335 102.061 14.7714C102.177 14.9529 102.252 15.1568 102.283 15.3696C102.314 15.5824 102.3 15.7994 102.241 16.0063C102.04 17.6897 101.402 18.1172 100.863 18.17C100.691 18.7902 100.434 19.3835 100.098 19.9326C102.088 20.6662 105.866 22.8351 106.795 23.3945C106.848 23.4262 108.304 24.2864 108.378 25.6216C108.644 27.2888 108.996 28.9411 109.434 30.5717C109.478 30.7549 109.481 30.9459 109.441 31.1302C109.401 31.3146 109.32 31.4874 109.204 31.6358C109.087 31.7842 108.939 31.9043 108.769 31.9869C108.6 32.0695 108.414 32.1125 108.225 32.1127L85.0049 32.1391L84.9732 32.1074Z" fill="white"/>
<path d="M94.9049 7.26686C94.9322 7.26709 94.959 7.27334 94.9836 7.28518C95.0081 7.29702 95.0298 7.31415 95.0469 7.33534C95.0641 7.35653 95.0763 7.38125 95.0828 7.40773C95.0892 7.43421 95.0898 7.4618 95.0843 7.48851C95.0796 7.51457 95.0808 7.54135 95.0877 7.56692C95.0946 7.59249 95.1071 7.61622 95.1242 7.6364C95.1414 7.65658 95.1628 7.67271 95.1869 7.68364C95.211 7.69457 95.2373 7.70002 95.2638 7.6996H95.3271C95.8465 7.51205 96.395 7.41737 96.9472 7.4199C97.864 7.44115 98.7684 7.63635 99.6123 7.99513C99.6359 8.00251 99.6566 8.01724 99.6712 8.03717C99.6859 8.05711 99.6938 8.08121 99.6938 8.10596C99.6938 8.1307 99.6859 8.1548 99.6712 8.17474C99.6566 8.19467 99.6359 8.2094 99.6123 8.21678C99.5891 8.22221 99.5682 8.23462 99.5524 8.25232C99.5365 8.27002 99.5264 8.29216 99.5236 8.31575C99.5207 8.33935 99.5251 8.36326 99.5363 8.38426C99.5474 8.40525 99.5647 8.42232 99.5859 8.43315C99.9558 8.63678 100.284 8.90902 100.552 9.23531C100.628 9.33891 100.694 9.45036 100.747 9.56778L100.868 9.80526C101.267 10.5888 101.478 11.4541 101.486 12.3331C101.511 13.1179 101.339 13.8964 100.984 14.5971C100.92 14.713 100.832 14.8138 100.726 14.8926H100.911C101.002 14.8725 101.096 14.8619 101.19 14.861C101.971 14.861 101.75 15.7792 101.718 15.8637C101.554 17.3149 101.09 17.5893 100.763 17.5893H100.657C100.59 17.5911 100.526 17.6164 100.476 17.6608C100.426 17.7052 100.393 17.7658 100.383 17.8321C100.17 18.6458 99.8126 19.4145 99.3273 20.1014C99.321 20.1106 99.3171 20.1213 99.3159 20.1325C99.3147 20.1436 99.3162 20.1549 99.3204 20.1653C99.3246 20.1758 99.3312 20.185 99.3398 20.1922C99.3483 20.1995 99.3586 20.2045 99.3695 20.2069C100.858 20.571 104.964 22.8456 106.51 23.7955C106.51 23.7955 107.771 24.529 107.813 25.5898C108.068 27.2939 108.42 28.9819 108.869 30.6455C108.894 30.751 108.896 30.8609 108.872 30.9669C108.849 31.073 108.803 31.1724 108.736 31.2578C108.668 31.3431 108.583 31.4122 108.485 31.4597C108.388 31.5072 108.281 31.5319 108.172 31.5321L84.9729 31.5796C84.8783 31.5793 84.785 31.5574 84.7 31.5156C84.6151 31.4739 84.5408 31.4133 84.4829 31.3385C84.4249 31.2637 84.3847 31.1767 84.3653 31.084C84.346 30.9914 84.3481 30.8955 84.3713 30.8038C84.8459 29.0691 85.2125 27.3066 85.469 25.5265C85.5112 24.471 86.7725 23.7322 86.7725 23.7322C88.3557 22.777 92.0498 20.7294 93.4747 20.3388C93.4851 20.3366 93.4948 20.3317 93.5029 20.3247C93.5109 20.3177 93.517 20.3088 93.5207 20.2988C93.5244 20.2888 93.5255 20.2781 93.5239 20.2675C93.5223 20.257 93.5181 20.247 93.5117 20.2386C92.9945 19.5306 92.6052 18.7376 92.3612 17.8954C92.3455 17.8158 92.3028 17.7439 92.2403 17.692C92.1778 17.6401 92.0994 17.6113 92.0182 17.6105H91.9707C91.6435 17.6105 91.1791 17.336 91.0155 15.89C91.0155 15.8003 90.7727 14.8873 91.5432 14.8873C91.6373 14.8883 91.731 14.8989 91.8229 14.919H91.976C91.7651 14.6371 91.6224 14.3101 91.5591 13.9638C91.3506 12.9011 91.365 11.8067 91.6013 10.7499C91.8651 9.76803 92.4321 8.89447 93.2214 8.25372C93.2292 8.24728 93.2354 8.23922 93.2397 8.2301C93.244 8.22097 93.2462 8.21102 93.2462 8.20095C93.2462 8.19087 93.244 8.18092 93.2397 8.1718C93.2354 8.16268 93.2292 8.15461 93.2214 8.14817C93.1239 8.0629 93.0323 7.97122 92.947 7.87375C92.9302 7.84691 92.9209 7.81611 92.9198 7.78448C92.9188 7.75284 92.9262 7.7215 92.9412 7.69364C92.9562 7.66577 92.9783 7.64237 93.0053 7.62581C93.0323 7.60925 93.0631 7.60011 93.0948 7.59933C93.385 7.59933 93.67 7.65738 93.955 7.70488H93.9919C94.2447 7.55667 94.5074 7.42618 94.7782 7.31435H94.8468M94.8468 6.25888C94.6838 6.25888 94.5224 6.29117 94.3719 6.35388C94.1713 6.43831 93.9655 6.53331 93.7703 6.63885C93.5592 6.61247 93.3586 6.59136 93.1581 6.57553H93.0737C92.8876 6.57607 92.704 6.61867 92.5367 6.70013C92.3694 6.7816 92.2226 6.89983 92.1074 7.04599C91.9922 7.19214 91.9115 7.36244 91.8714 7.54417C91.8313 7.72589 91.8328 7.91433 91.8757 8.0954C91.2459 8.78176 90.793 9.61142 90.5564 10.5124C90.2767 11.7258 90.2551 12.9843 90.493 14.2066C90.3901 14.2858 90.2979 14.378 90.2186 14.481C90.0553 14.7197 89.9458 14.991 89.8975 15.2762C89.8492 15.5614 89.8633 15.8536 89.9389 16.1328C90.15 17.8479 90.8255 18.4548 91.4166 18.6501C91.5564 19.066 91.733 19.4687 91.9443 19.8533C89.9701 20.7715 88.0448 21.7914 86.1762 22.9089C86.0073 23.0039 84.4241 23.9644 84.3608 25.5476C84.1102 27.2454 83.7577 28.9266 83.3053 30.5822C83.239 30.8306 83.2307 31.091 83.281 31.3432C83.3313 31.5954 83.4389 31.8327 83.5954 32.0367C83.752 32.2407 83.9534 32.406 84.184 32.5198C84.4146 32.6336 84.6683 32.6929 84.9254 32.6931L108.146 32.6667C108.414 32.6664 108.679 32.6051 108.921 32.4874C109.162 32.3697 109.374 32.1987 109.54 31.9873C109.705 31.7758 109.821 31.5295 109.877 31.2669C109.934 31.0043 109.93 30.7322 109.866 30.4713C109.417 28.8792 109.065 27.2614 108.811 25.6267C108.747 24.0435 107.164 23.0672 106.979 22.9617C104.984 21.7368 102.923 20.6233 100.805 19.6264C100.979 19.287 101.126 18.9341 101.243 18.5709C101.834 18.3757 102.51 17.7688 102.721 16.0536C102.796 15.7745 102.81 15.4822 102.762 15.197C102.714 14.9119 102.604 14.6406 102.441 14.4018C102.384 14.3275 102.321 14.2586 102.251 14.196C102.433 13.5811 102.521 12.9426 102.515 12.3014C102.504 11.2591 102.253 10.2334 101.781 9.30391L101.66 9.06643C101.574 8.87943 101.468 8.70245 101.343 8.5387C101.164 8.30991 100.96 8.10112 100.736 7.91597C100.708 7.70903 100.626 7.51331 100.497 7.34908C100.368 7.18485 100.197 7.05808 100.003 6.98188C99.0348 6.57323 97.9978 6.35293 96.9472 6.33277C96.5213 6.3319 96.0965 6.37791 95.6807 6.46998C95.461 6.29251 95.1873 6.19565 94.9049 6.19556L94.8468 6.25888Z" fill="white"/>
<path d="M35.1495 86.7647C34.9747 86.7637 34.8024 86.7229 34.6457 86.6454C34.489 86.5679 34.352 86.4557 34.2452 86.3173C34.1384 86.1789 34.0645 86.018 34.0291 85.8468C33.9938 85.6756 33.9979 85.4986 34.0412 85.3293C34.4966 83.637 34.8491 81.9187 35.0967 80.1838C35.1495 78.8487 36.6007 77.9885 36.6799 77.9568C38.69 76.7437 40.7753 75.6596 42.923 74.7112C42.5433 74.1186 42.2534 73.4731 42.0628 72.7956C41.4928 72.7322 40.8807 72.2678 40.6854 70.6424C40.6261 70.4347 40.6114 70.2169 40.6424 70.0031C40.6733 69.7894 40.7491 69.5846 40.8648 69.4022C40.9835 69.248 41.1451 69.1324 41.3292 69.0698C41.2895 68.9506 41.2578 68.829 41.2343 68.7056C41.0131 67.5692 41.0311 66.3992 41.287 65.2701C41.5308 64.3299 42.0294 63.4753 42.7277 62.8003C42.6612 62.6964 42.6231 62.5769 42.6171 62.4537C42.611 62.3305 42.6373 62.2078 42.6933 62.0979C42.7493 61.988 42.8331 61.8947 42.9364 61.8272C43.0396 61.7597 43.1587 61.7204 43.2819 61.7131C43.5668 61.7131 43.8096 61.7606 44.0787 61.7976C44.3076 61.6695 44.5437 61.555 44.7859 61.4545C44.9264 61.3973 45.0815 61.3864 45.2286 61.4234C45.3758 61.4604 45.5072 61.5434 45.6039 61.6604L45.6619 61.7395C46.1307 61.6076 46.6157 61.5419 47.1027 61.5443C48.0863 61.565 49.057 61.7727 49.963 62.1564C50.0904 62.2066 50.1984 62.2961 50.2715 62.4119C50.3446 62.5276 50.3789 62.6637 50.3693 62.8003C50.3693 62.8003 50.3693 62.8425 50.3693 62.8636C50.6489 63.0597 50.8994 63.2942 51.1134 63.5602C51.2126 63.6916 51.2975 63.8331 51.3668 63.9824L51.4881 64.2199C51.9226 65.0757 52.1538 66.0202 52.1636 66.9799C52.1768 67.7007 52.0513 68.4173 51.7942 69.0909C51.9548 69.1569 52.095 69.2643 52.2006 69.4022C52.3154 69.583 52.3908 69.786 52.4217 69.9979C52.4526 70.2098 52.4384 70.4258 52.38 70.6318C52.1847 72.3206 51.5409 72.7428 51.0026 72.7956C50.8325 73.4164 50.5748 74.0099 50.2374 74.5582C52.2217 75.2917 56.0003 77.4607 56.9344 78.0201C56.9871 78.0518 58.4437 78.912 58.5176 80.2472C58.7816 81.9147 59.1339 83.5671 59.573 85.1973C59.6178 85.3805 59.6203 85.5715 59.5805 85.7558C59.5407 85.9401 59.4595 86.113 59.3432 86.2614C59.2268 86.4098 59.0782 86.5298 58.9087 86.6125C58.7392 86.6951 58.5531 86.7381 58.3645 86.7383L35.1706 86.7647H35.1495Z" fill="white"/>
<path d="M45.0814 61.9295C45.1087 61.9297 45.1355 61.936 45.1601 61.9478C45.1846 61.9597 45.2063 61.9768 45.2234 61.998C45.2406 62.0192 45.2528 62.0439 45.2593 62.0704C45.2658 62.0969 45.2663 62.1244 45.2608 62.1512C45.2562 62.1772 45.2573 62.204 45.2642 62.2296C45.2711 62.2551 45.2836 62.2789 45.3007 62.2991C45.3179 62.3192 45.3393 62.3354 45.3634 62.3463C45.3875 62.3572 45.4138 62.3627 45.4403 62.3623H45.5036C46.023 62.1747 46.5715 62.08 47.1237 62.0826C48.0405 62.1038 48.9449 62.299 49.7888 62.6578C49.8124 62.6652 49.8331 62.6799 49.8477 62.6998C49.8624 62.7198 49.8703 62.7439 49.8703 62.7686C49.8703 62.7934 49.8624 62.8175 49.8477 62.8374C49.8331 62.8573 49.8124 62.8721 49.7888 62.8794C49.7657 62.8849 49.7447 62.8973 49.7289 62.915C49.713 62.9327 49.703 62.9548 49.7001 62.9784C49.6972 63.002 49.7016 63.0259 49.7128 63.0469C49.7239 63.0679 49.7412 63.085 49.7624 63.0958C50.1323 63.2994 50.4601 63.5717 50.7282 63.898C50.8048 64.0016 50.8703 64.113 50.9234 64.2304L51.0448 64.4679C51.4433 65.2514 51.6547 66.1167 51.6622 66.9958C51.6877 67.7805 51.5152 68.5591 51.1609 69.2597C51.0969 69.3757 51.0087 69.4764 50.9023 69.5553H51.087C51.1789 69.5352 51.2726 69.5245 51.3667 69.5236C52.1478 69.5236 51.9261 70.4419 51.8945 70.5263C51.7309 71.9776 51.2664 72.252 50.9393 72.252H50.8337C50.7667 72.2537 50.7025 72.279 50.6523 72.3234C50.6021 72.3678 50.5692 72.4285 50.5593 72.4948C50.3467 73.3084 49.9891 74.0772 49.5038 74.764C49.4975 74.7733 49.4936 74.784 49.4924 74.7951C49.4912 74.8063 49.4927 74.8176 49.4969 74.828C49.5011 74.8384 49.5077 74.8477 49.5163 74.8549C49.5249 74.8621 49.5351 74.8672 49.546 74.8696C51.0342 75.2337 55.14 77.5082 56.6863 78.4582C56.6863 78.4582 57.9476 79.1917 57.9898 80.2525C58.2442 81.9566 58.5966 83.6446 59.0453 85.3081C59.0708 85.4136 59.0721 85.5235 59.049 85.6296C59.0259 85.7357 58.9791 85.8351 58.912 85.9204C58.845 86.0058 58.7594 86.0748 58.6619 86.1223C58.5643 86.1698 58.4572 86.1946 58.3486 86.1947L35.1547 86.2211C35.0601 86.2208 34.9668 86.199 34.8818 86.1572C34.7969 86.1154 34.7226 86.0548 34.6646 85.98C34.6066 85.9052 34.5665 85.8182 34.5471 85.7256C34.5278 85.6329 34.5298 85.5371 34.5531 85.4454C35.0277 83.7106 35.3943 81.9481 35.6508 80.168C35.693 79.1125 36.9543 78.3737 36.9543 78.3737C38.5375 77.4185 42.2316 75.3709 43.6565 74.9804C43.6669 74.9781 43.6766 74.9733 43.6846 74.9663C43.6927 74.9593 43.6988 74.9504 43.7025 74.9404C43.7062 74.9304 43.7073 74.9196 43.7057 74.9091C43.7041 74.8985 43.6999 74.8886 43.6935 74.8801C43.1821 74.1658 42.7999 73.3674 42.5641 72.5211C42.5484 72.4415 42.5057 72.3697 42.4432 72.3178C42.3807 72.2659 42.3023 72.237 42.2211 72.2362H42.1736C41.8464 72.2362 41.382 71.9617 41.2184 70.5157C41.2184 70.426 40.9756 69.5131 41.7461 69.5131C41.8402 69.514 41.9339 69.5246 42.0258 69.5447H42.1789C41.968 69.2628 41.8253 68.9358 41.762 68.5895C41.5535 67.5268 41.5679 66.4325 41.8042 65.3756C42.068 64.3937 42.6349 63.5202 43.4243 62.8794C43.4321 62.873 43.4383 62.8649 43.4426 62.8558C43.4469 62.8467 43.4491 62.8367 43.4491 62.8267C43.4491 62.8166 43.4469 62.8066 43.4426 62.7975C43.4383 62.7884 43.4321 62.7803 43.4243 62.7739C43.3269 62.6886 43.2352 62.5969 43.1499 62.4995C43.1331 62.4726 43.1238 62.4418 43.1227 62.4102C43.1217 62.3786 43.1291 62.3472 43.1441 62.3193C43.1591 62.2915 43.1812 62.2681 43.2082 62.2515C43.2352 62.235 43.266 62.2258 43.2977 62.225C43.5879 62.225 43.8729 62.2831 44.1579 62.3306H44.1948C44.4476 62.1824 44.7103 62.0519 44.9811 61.9401H45.0497M45.0497 60.8846C44.8867 60.8846 44.7253 60.9169 44.5748 60.9796C44.3742 61.064 44.1684 61.159 43.9732 61.2646C43.7621 61.2382 43.5615 61.2171 43.361 61.2012H43.2818C43.0957 61.2018 42.9122 61.2444 42.7448 61.3258C42.5775 61.4073 42.4308 61.5255 42.3156 61.6717C42.2004 61.8179 42.1197 61.9882 42.0796 62.1699C42.0395 62.3516 42.0409 62.54 42.0839 62.7211C41.4542 63.4076 41.0014 64.2372 40.7645 65.1381C40.4849 66.3515 40.4633 67.6101 40.7012 68.8323C40.5983 68.9115 40.506 69.0038 40.4268 69.1067C40.2635 69.3454 40.1539 69.6167 40.1057 69.9019C40.0574 70.1871 40.0715 70.4793 40.1471 70.7585C40.3582 72.4736 41.0337 73.0805 41.6247 73.2758C41.7646 73.6918 41.9412 74.0944 42.1525 74.479C40.1915 75.388 38.2786 76.3974 36.4213 77.503C36.2524 77.5979 34.6692 78.5584 34.6059 80.1416C34.3553 81.8395 34.0028 83.5207 33.5504 85.1762C33.4841 85.4247 33.4758 85.6851 33.5261 85.9373C33.5764 86.1895 33.684 86.4267 33.8406 86.6307C33.9971 86.8347 34.1985 87 34.4291 87.1138C34.6597 87.2277 34.9134 87.2869 35.1705 87.2871L58.3909 87.2608C58.6595 87.2605 58.9246 87.1992 59.166 87.0815C59.4075 86.9638 59.6191 86.7928 59.7848 86.5813C59.9505 86.3699 60.066 86.1235 60.1225 85.8609C60.1791 85.5983 60.1752 85.3263 60.1113 85.0654C59.6622 83.4732 59.3097 81.8554 59.0558 80.2208C58.9925 78.6376 57.4093 77.6613 57.2246 77.5557C55.2178 76.3513 53.1459 75.259 51.0184 74.2838C51.1928 73.9444 51.3393 73.5914 51.4564 73.2283C52.0475 73.033 52.723 72.4262 52.9341 70.711C53.0097 70.4318 53.0238 70.1396 52.9755 69.8544C52.9272 69.5692 52.8177 69.2979 52.6544 69.0592C52.5976 68.9849 52.534 68.916 52.4644 68.8534C52.646 68.2385 52.7349 67.5999 52.7283 66.9588C52.7176 65.9165 52.4665 64.8907 51.9947 63.9613L51.8733 63.7238C51.7875 63.5368 51.6813 63.3598 51.5567 63.1961C51.3711 62.9643 51.1605 62.7537 50.9287 62.5681C50.9008 62.3611 50.818 62.1654 50.6891 62.0012C50.5601 61.837 50.3896 61.7102 50.1951 61.634C49.2271 61.2253 48.1901 61.005 47.1396 60.9849C46.7136 60.984 46.2889 61.03 45.873 61.1221C45.6534 60.9446 45.3796 60.8478 45.0972 60.8477L45.0497 60.8846Z" fill="white"/>
</svg>
