<svg width="18" height="21" viewBox="0 0 18 21" fill="none" xmlns="http://www.w3.org/2000/svg">
<path d="M13.7502 2.31V0.75C13.7502 0.34 13.4102 0 13.0002 0C12.5902 0 12.2502 0.34 12.2502 0.75V2.25H5.75023V0.75C5.75023 0.34 5.41023 0 5.00023 0C4.59023 0 4.25023 0.34 4.25023 0.75V2.31C1.55023 2.56 0.240229 4.17 0.0402292 6.56C0.0202292 6.85 0.260229 7.09 0.540229 7.09H17.4602C17.7502 7.09 17.9902 6.84 17.9602 6.56C17.7602 4.17 16.4502 2.56 13.7502 2.31Z" fill="white" fill-opacity="0.6"/>
<path d="M17 8.59375H1C0.45 8.59375 0 9.04375 0 9.59375V15.7537C0 18.7537 1.5 20.7537 5 20.7537H13C16.5 20.7537 18 18.7537 18 15.7537V9.59375C18 9.04375 17.55 8.59375 17 8.59375ZM6.21 16.9637C6.16 17.0037 6.11 17.0538 6.06 17.0837C6 17.1237 5.94 17.1537 5.88 17.1737C5.82 17.2037 5.76 17.2237 5.7 17.2337C5.63 17.2437 5.57 17.2537 5.5 17.2537C5.37 17.2537 5.24 17.2238 5.12 17.1737C4.99 17.1237 4.89 17.0537 4.79 16.9637C4.61 16.7737 4.5 16.5138 4.5 16.2537C4.5 15.9937 4.61 15.7338 4.79 15.5438C4.89 15.4538 4.99 15.3837 5.12 15.3337C5.3 15.2537 5.5 15.2338 5.7 15.2738C5.76 15.2838 5.82 15.3037 5.88 15.3337C5.94 15.3537 6 15.3837 6.06 15.4237C6.11 15.4637 6.16 15.5038 6.21 15.5438C6.39 15.7338 6.5 15.9937 6.5 16.2537C6.5 16.5138 6.39 16.7737 6.21 16.9637ZM6.21 13.4637C6.02 13.6437 5.76 13.7537 5.5 13.7537C5.24 13.7537 4.98 13.6437 4.79 13.4637C4.61 13.2737 4.5 13.0138 4.5 12.7537C4.5 12.4937 4.61 12.2337 4.79 12.0437C5.07 11.7637 5.51 11.6737 5.88 11.8337C6.01 11.8837 6.12 11.9537 6.21 12.0437C6.39 12.2337 6.5 12.4937 6.5 12.7537C6.5 13.0138 6.39 13.2737 6.21 13.4637ZM9.71 16.9637C9.52 17.1437 9.26 17.2537 9 17.2537C8.74 17.2537 8.48 17.1437 8.29 16.9637C8.11 16.7737 8 16.5138 8 16.2537C8 15.9937 8.11 15.7338 8.29 15.5438C8.66 15.1738 9.34 15.1738 9.71 15.5438C9.89 15.7338 10 15.9937 10 16.2537C10 16.5138 9.89 16.7737 9.71 16.9637ZM9.71 13.4637C9.66 13.5037 9.61 13.5437 9.56 13.5837C9.5 13.6237 9.44 13.6537 9.38 13.6737C9.32 13.7038 9.26 13.7237 9.2 13.7337C9.13 13.7437 9.07 13.7537 9 13.7537C8.74 13.7537 8.48 13.6437 8.29 13.4637C8.11 13.2737 8 13.0138 8 12.7537C8 12.4937 8.11 12.2337 8.29 12.0437C8.38 11.9537 8.49 11.8837 8.62 11.8337C8.99 11.6737 9.43 11.7637 9.71 12.0437C9.89 12.2337 10 12.4937 10 12.7537C10 13.0138 9.89 13.2737 9.71 13.4637ZM13.21 16.9637C13.02 17.1437 12.76 17.2537 12.5 17.2537C12.24 17.2537 11.98 17.1437 11.79 16.9637C11.61 16.7737 11.5 16.5138 11.5 16.2537C11.5 15.9937 11.61 15.7338 11.79 15.5438C12.16 15.1738 12.84 15.1738 13.21 15.5438C13.39 15.7338 13.5 15.9937 13.5 16.2537C13.5 16.5138 13.39 16.7737 13.21 16.9637ZM13.21 13.4637C13.16 13.5037 13.11 13.5437 13.06 13.5837C13 13.6237 12.94 13.6537 12.88 13.6737C12.82 13.7038 12.76 13.7237 12.7 13.7337C12.63 13.7437 12.56 13.7537 12.5 13.7537C12.24 13.7537 11.98 13.6437 11.79 13.4637C11.61 13.2737 11.5 13.0138 11.5 12.7537C11.5 12.4937 11.61 12.2337 11.79 12.0437C11.89 11.9537 11.99 11.8837 12.12 11.8337C12.3 11.7537 12.5 11.7338 12.7 11.7738C12.76 11.7838 12.82 11.8037 12.88 11.8337C12.94 11.8537 13 11.8837 13.06 11.9237C13.11 11.9637 13.16 12.0037 13.21 12.0437C13.39 12.2337 13.5 12.4937 13.5 12.7537C13.5 13.0138 13.39 13.2737 13.21 13.4637Z" fill="white" fill-opacity="0.6"/>
</svg>
