<svg width="52" height="28" viewBox="0 0 52 28" fill="none" xmlns="http://www.w3.org/2000/svg">
<path fill-rule="evenodd" clip-rule="evenodd" d="M15.2793 5.21934C15.1387 5.07889 14.9481 5 14.7493 5C14.5506 5 14.36 5.07889 14.2193 5.21934L7.96934 11.4693C7.82889 11.61 7.75 11.8006 7.75 11.9993C7.75 12.1981 7.82889 12.3887 7.96934 12.5293L14.2193 18.7793C14.288 18.853 14.3708 18.9121 14.4628 18.9531C14.5548 18.9941 14.6541 19.0162 14.7548 19.0179C14.8555 19.0197 14.9555 19.0012 15.0489 18.9635C15.1423 18.9257 15.2272 18.8696 15.2984 18.7984C15.3696 18.7272 15.4257 18.6423 15.4635 18.5489C15.5012 18.4555 15.5197 18.3555 15.5179 18.2548C15.5162 18.1541 15.4941 18.0548 15.4531 17.9628C15.4121 17.8708 15.353 17.788 15.2793 17.7193L9.55934 11.9993L15.2793 6.27934C15.4198 6.13871 15.4987 5.94809 15.4987 5.74934C15.4987 5.55059 15.4198 5.35997 15.2793 5.21934Z" fill="#8B949E"/>
<path fill-rule="evenodd" clip-rule="evenodd" d="M35.9381 18.7808C36.0787 18.9213 36.2693 19.0002 36.4681 19.0002C36.6668 19.0002 36.8575 18.9213 36.9981 18.7808L43.2481 12.5308C43.3885 12.3902 43.4674 12.1996 43.4674 12.0008C43.4674 11.8021 43.3885 11.6114 43.2481 11.4708L36.9981 5.22082C36.8559 5.08834 36.6679 5.01622 36.4736 5.01965C36.2793 5.02308 36.0939 5.10179 35.9565 5.2392C35.8191 5.37661 35.7403 5.562 35.7369 5.7563C35.7335 5.9506 35.8056 6.13865 35.9381 6.28082L41.6581 12.0008L35.9381 17.7208C35.7976 17.8614 35.7188 18.0521 35.7188 18.2508C35.7188 18.4496 35.7976 18.6402 35.9381 18.7808Z" fill="#8B949E"/>
</svg>
