<svg width="32" height="32" viewBox="0 0 32 32" fill="none" xmlns="http://www.w3.org/2000/svg">
<path fill-rule="evenodd" clip-rule="evenodd" d="M10.2602 17.848C9.40056 17.848 8.70215 17.1496 8.70215 16.2899C8.70215 15.4328 9.40056 14.7344 10.2602 14.7344C11.1199 14.7344 11.8183 15.4328 11.8183 16.2899C11.8183 17.1496 11.1199 17.848 10.2602 17.848ZM16.3174 17.848C15.4577 17.848 14.7593 17.1496 14.7593 16.2899C14.7593 15.4328 15.4577 14.7344 16.3174 14.7344C17.1771 14.7344 17.8755 15.4328 17.8755 16.2899C17.8755 17.1496 17.1771 17.848 16.3174 17.848ZM20.8166 16.2899C20.8166 17.1496 21.515 17.848 22.3747 17.848C23.2343 17.848 23.9328 17.1496 23.9328 16.2899C23.9328 15.4328 23.2343 14.7344 22.3747 14.7344C21.515 14.7344 20.8166 15.4328 20.8166 16.2899Z" fill="#200E32"/>
<path fill-rule="evenodd" clip-rule="evenodd" d="M16.027 2.66406C8.28033 2.66406 2.66699 8.99222 2.66699 16.0174C2.66699 18.2608 3.32033 20.5696 4.46699 22.6794C4.68033 23.0279 4.70699 23.4673 4.56033 23.8826L3.66699 26.8737C3.46699 27.5948 4.08033 28.1276 4.76033 27.9139L7.45366 27.1141C8.18699 26.8737 8.76033 27.1795 9.44033 27.5948C11.387 28.7418 13.8137 29.3307 16.0003 29.3307C22.6137 29.3307 29.3337 24.2164 29.3337 15.9774C29.3337 8.87204 23.6003 2.66406 16.027 2.66406Z" stroke="#200E32" stroke-width="1.5" stroke-linecap="round" stroke-linejoin="round"/>
</svg>
