<svg width="111" height="40" viewBox="0 0 111 40" fill="none" xmlns="http://www.w3.org/2000/svg">
<g clip-path="url(#clip0_18_1880)">
<path d="M101.36 16.5631V15.2645C101.36 15.0415 101.176 14.8709 100.94 14.8709H96.389V12.3523C96.389 12.1293 96.2054 11.9587 95.9691 11.9587H94.2385C94.0021 11.9587 93.8185 12.1424 93.8185 12.3523V14.8709H91.1299C90.8936 14.8709 90.71 15.0546 90.71 15.2645V16.5631C90.71 16.7861 90.8936 16.9566 91.1299 16.9566H93.8185V20.8133C93.8185 23.7648 95.2083 25.129 98.1996 25.129H100.638C100.875 25.129 101.058 24.9454 101.058 24.7355V23.4369C101.058 23.2139 100.875 23.0433 100.638 23.0433H98.5923C96.9662 23.0433 96.389 22.4005 96.389 20.8001V16.9698H100.94C101.176 16.9566 101.36 16.773 101.36 16.5631Z" fill="#F5F9FC"/>
<path d="M87.6814 10.9094H85.3201C85.084 10.9094 84.9004 11.0931 84.9004 11.303V12.9689C84.9004 13.1919 85.084 13.3624 85.3201 13.3624H87.6814C87.9175 13.3624 88.1011 13.1788 88.1011 12.9689V11.303C88.088 11.08 87.9044 10.9094 87.6814 10.9094Z" fill="#F5F9FC"/>
<path d="M87.9954 23.0433V15.2644C87.9954 15.0414 87.8117 14.8708 87.5756 14.8708H82.2899C82.0538 14.8708 81.8701 15.0545 81.8701 15.2644V16.563C81.8701 16.786 82.0538 16.9565 82.2899 16.9565H85.4246V23.0433H82.2899C82.0538 23.0433 81.8701 23.2269 81.8701 23.4368V24.7354C81.8701 24.9584 82.0538 25.1289 82.2899 25.1289H91.2085C91.4448 25.1289 91.6284 24.9453 91.6284 24.7354V23.4368C91.6284 23.2138 91.4448 23.0433 91.2085 23.0433H87.9954Z" fill="#F5F9FC"/>
<path d="M79.8899 23.0434H77.2142V11.303C77.2142 11.08 77.0306 10.9094 76.7945 10.9094H71.5481C71.312 10.9094 71.1284 11.0931 71.1284 11.303V12.6016C71.1284 12.8246 71.312 12.9952 71.5481 12.9952H74.6435V23.0434H71.1678C70.9317 23.0434 70.748 23.2271 70.748 23.437V24.7356C70.748 24.9586 70.9317 25.1291 71.1678 25.1291H79.8899C80.126 25.1291 80.3096 24.9455 80.3096 24.7356V23.437C80.3096 23.214 80.126 23.0434 79.8899 23.0434Z" fill="#F5F9FC"/>
<path d="M65.6458 14.6741C64.754 14.6741 64.1113 14.8709 63.6129 15.3431L62.9965 15.9334H62.4324L62.2226 15.1726C62.1701 15.0021 62.0127 14.8709 61.816 14.8709H60.6356C60.3994 14.8709 60.2158 15.0545 60.2158 15.2644V28.697C60.2158 28.92 60.3994 29.0906 60.6356 29.0906H62.3668C62.603 29.0906 62.7866 28.9069 62.7866 28.697V25.7849L62.5636 24.2239L63.1407 24.0927L63.7571 24.683C64.2424 25.129 64.8327 25.352 65.7115 25.352C68.2559 25.352 69.7905 23.5942 69.7905 20.013C69.7774 16.4318 68.2559 14.6741 65.6458 14.6741ZM64.7933 23.2007C63.4948 23.2007 62.7735 22.5317 62.7735 21.2593V18.7406C62.7735 17.4682 63.4817 16.7992 64.7933 16.7992C66.3803 16.7992 67.1018 17.7962 67.1018 19.9868C67.0886 22.2037 66.3803 23.2007 64.7933 23.2007Z" fill="#F5F9FC"/>
<path d="M52.8835 14.6741C49.5783 14.6741 47.8076 16.4318 47.8076 19.9999C47.8076 23.5811 49.5651 25.3389 52.818 25.3389C55.3362 25.3389 56.9626 24.2894 57.3955 22.4923C57.461 22.243 57.2511 22.007 56.9888 22.007H55.4149C55.2444 22.007 55.087 22.1119 55.0214 22.2693C54.746 23.0433 53.959 23.4106 52.8967 23.4106C51.244 23.4106 50.4571 22.5054 50.3521 20.3935H57.5266C57.9201 16.445 56.2806 14.6741 52.8835 14.6741ZM50.4308 18.793C50.68 17.2452 51.4539 16.5237 52.8704 16.5237C54.3788 16.5237 55.087 17.3239 55.1264 18.793H50.4308Z" fill="#F5F9FC"/>
<path d="M42.6925 15.33L42.1022 15.9203H41.512L41.3284 15.1726C41.2891 14.9889 41.1185 14.8709 40.9218 14.8709H37.1444C36.9083 14.8709 36.7246 15.0545 36.7246 15.2644V16.563C36.7246 16.786 36.9083 16.9566 37.1444 16.9566H39.3741V23.0433H36.7772C36.541 23.0433 36.3574 23.2269 36.3574 23.4368V24.7354C36.3574 24.9584 36.541 25.129 36.7772 25.129H44.9484C45.1845 25.129 45.3681 24.9453 45.3681 24.7354V23.4368C45.3681 23.2138 45.1845 23.0433 44.9484 23.0433H41.9449V18.7406C41.9449 17.5338 42.6531 16.9041 44.0434 16.9041H46.2994C46.5355 16.9041 46.7191 16.7205 46.7191 16.5106V15.0807C46.7191 14.8577 46.5355 14.6872 46.2994 14.6872H44.9615C43.9778 14.6741 43.204 14.8577 42.6925 15.33Z" fill="#F5F9FC"/>
<path d="M9.08984 10.4549C9.08984 9.70184 9.70029 9.09131 10.4533 9.09131H16.8158C17.5688 9.09131 18.1792 9.70184 18.1792 10.4549V16.3638H10.4533C9.70029 16.3638 9.08984 15.7533 9.08984 15.0002V10.4549Z" fill="#F26207"/>
<path d="M18.1787 16.3638H25.9047C26.6577 16.3638 27.2681 16.9743 27.2681 17.7274V22.2727C27.2681 23.0258 26.6577 23.6363 25.9047 23.6363H18.1787V16.3638Z" fill="#F26207"/>
<path d="M9.08984 24.9998C9.08984 24.2468 9.70029 23.6362 10.4533 23.6362H18.1792V29.5452C18.1792 30.2982 17.5688 30.9088 16.8158 30.9088H10.4533C9.70029 30.9088 9.08984 30.2982 9.08984 29.5452V24.9998Z" fill="#F26207"/>
</g>
<defs>
<clipPath id="clip0_18_1880">
<rect width="110.891" height="40" fill="white"/>
</clipPath>
</defs>
</svg>
