<svg width="20" height="20" viewBox="0 0 20 20" fill="none" xmlns="http://www.w3.org/2000/svg">
<path d="M20 19.2422C20 19.6522 19.66 19.9922 19.25 19.9922H0.75C0.34 19.9922 0 19.6522 0 19.2422C0 18.8322 0.34 18.4922 0.75 18.4922H19.25C19.66 18.4922 20 18.8322 20 19.2422Z" fill="white" fill-opacity="0.6"/>
<path d="M13.3895 2.51L2.64945 13.25C2.23945 13.66 1.57945 13.66 1.17945 13.25H1.16945C-0.220547 11.85 -0.220547 9.59 1.16945 8.2L8.31945 1.05C9.71945 -0.35 11.9795 -0.35 13.3795 1.05C13.7895 1.44 13.7895 2.11 13.3895 2.51Z" fill="white" fill-opacity="0.6"/>
<path d="M18.8195 6.4825L15.7695 3.4325C15.3595 3.0225 14.6995 3.0225 14.2995 3.4325L3.55945 14.1725C3.14945 14.5725 3.14945 15.2325 3.55945 15.6425L6.60945 18.7025C8.00945 20.0925 10.2695 20.0925 11.6695 18.7025L18.8095 11.5525C20.2295 10.1525 20.2295 7.8825 18.8195 6.4825ZM10.7595 15.5125L9.54945 16.7325C9.29945 16.9825 8.88945 16.9825 8.62945 16.7325C8.37945 16.4825 8.37945 16.0725 8.62945 15.8125L9.84945 14.5925C10.0895 14.3525 10.5095 14.3525 10.7595 14.5925C11.0095 14.8425 11.0095 15.2725 10.7595 15.5125ZM14.7295 11.5425L12.2895 13.9925C12.0395 14.2325 11.6295 14.2325 11.3695 13.9925C11.1195 13.7425 11.1195 13.3325 11.3695 13.0725L13.8195 10.6225C14.0595 10.3825 14.4795 10.3825 14.7295 10.6225C14.9795 10.8825 14.9795 11.2925 14.7295 11.5425Z" fill="white" fill-opacity="0.6"/>
</svg>
