<svg width="120" height="120" viewBox="0 0 120 120" fill="none" xmlns="http://www.w3.org/2000/svg">
<path d="M119 74.429C119 99.2141 102.145 118.999 81.7022 118.999C61.259 118.999 44.4043 99.2141 44.4043 74.429C44.4043 49.6439 61.259 29.8594 81.7022 29.8594C102.145 29.8594 119 49.6439 119 74.429Z" stroke="#9F9F9F" stroke-width="2"/>
<path d="M23.58 12.624C23.58 13.3471 23.58 14.0703 23.58 14.7934C23.58 16.529 23.58 18.2645 23.58 20.0049C23.58 22.0972 23.58 24.1896 23.58 26.2819C23.58 28.0946 23.58 29.9121 23.58 31.7248C23.58 32.6022 23.5638 33.4845 23.58 34.3619C23.58 34.3763 23.58 34.386 23.58 34.4005C24.1188 33.7593 24.6618 33.1132 25.2006 32.4721C23.8393 32.4721 22.4779 32.4721 21.1165 32.4721C18.9408 32.4721 16.7609 32.4721 14.5852 32.4721C14.0868 32.4721 13.5884 32.4721 13.0941 32.4721C13.6331 33.1132 14.1759 33.7593 14.7148 34.4005C14.7067 33.2676 14.4353 32.0719 13.8761 31.1463C13.5115 30.5436 13.1468 30.1049 12.6525 29.6614C12.2676 29.3143 11.8341 29.078 11.3803 28.8804C9.58536 28.0898 7.35291 28.8178 6.12523 30.5581C5.35541 31.6525 4.91378 32.9638 4.90162 34.4053C5.44049 33.7641 5.98342 33.1181 6.5223 32.4768C6.02394 32.4768 5.52963 32.4768 5.03127 32.4768C4.52481 32.4768 3.99809 32.5299 3.49163 32.4624C3.63344 32.4865 3.7793 32.5106 3.92111 32.5299C3.81171 32.5106 3.70637 32.4768 3.60508 32.4335C3.73473 32.4961 3.86438 32.5637 3.99404 32.6263C3.87654 32.5684 3.7712 32.4961 3.6699 32.4045C3.7793 32.5058 3.8887 32.607 3.99809 32.7083C3.913 32.6263 3.84008 32.5396 3.77525 32.4431C3.86033 32.5733 3.94542 32.7035 4.03051 32.8337C3.95352 32.7131 3.89275 32.5877 3.84412 32.4479C3.8968 32.6022 3.95352 32.7565 4.00619 32.9107C3.96568 32.7854 3.94137 32.6649 3.92516 32.5347C3.94542 32.7035 3.96567 32.877 3.98188 33.0458C3.96163 32.8144 3.96973 32.5781 3.96973 32.3467C3.96973 31.8646 3.96973 31.3777 3.96973 30.8956C3.96973 29.2757 3.96973 27.651 3.96973 26.0312C3.96973 24.069 3.96973 22.1069 3.96973 20.1447C3.96973 18.4526 3.96973 16.7604 3.96973 15.0682C3.96973 14.2631 3.96163 13.458 3.96973 12.6577C3.96973 12.5806 3.97378 12.5083 3.98188 12.4311C3.96163 12.5999 3.94137 12.7734 3.92516 12.9422C3.94137 12.812 3.96973 12.6867 4.00619 12.5661C3.95352 12.7204 3.8968 12.8747 3.84412 13.0289C3.89275 12.8891 3.95352 12.7638 4.03051 12.6433C3.94542 12.7734 3.86033 12.9036 3.77525 13.0338C3.84412 12.9325 3.91706 12.8457 3.99809 12.7686C3.8887 12.8699 3.7793 12.9711 3.6699 13.0723C3.7712 12.9807 3.87654 12.9084 3.99404 12.8506C3.86438 12.9132 3.73473 12.9807 3.60508 13.0434C3.71042 12.9952 3.81171 12.9663 3.92111 12.947C3.7793 12.9711 3.63344 12.9952 3.49163 13.0145C3.71447 12.9856 3.94542 13 4.17231 13C4.65852 13 5.14472 13 5.63092 13C7.25161 13 8.86823 13 10.4889 13C12.4459 13 14.4028 13 16.3639 13C18.0575 13 19.7511 13 21.4447 13C22.251 13 23.0573 12.9856 23.8636 13C23.9284 13 23.9932 13.0048 24.0581 13.0145C23.9162 12.9904 23.7704 12.9663 23.6285 12.947C23.738 12.9663 23.8433 13 23.9446 13.0434C23.8149 12.9807 23.6853 12.9132 23.5557 12.8506C23.6732 12.9084 23.7785 12.9807 23.8798 13.0723C23.7704 12.9711 23.661 12.8699 23.5516 12.7686C23.6367 12.8506 23.7096 12.9373 23.7744 13.0338C23.6893 12.9036 23.6042 12.7734 23.5191 12.6433C23.5962 12.7638 23.657 12.8891 23.7055 13.0289C23.6529 12.8747 23.5962 12.7204 23.5435 12.5661C23.584 12.6915 23.6083 12.812 23.6245 12.9422C23.6042 12.7734 23.584 12.5999 23.5678 12.4311C23.5759 12.489 23.58 12.5565 23.58 12.624C23.5881 13.1254 23.7542 13.6316 24.054 13.9883C24.3335 14.321 24.7955 14.5765 25.2006 14.5524C26.0637 14.5042 26.8415 13.7039 26.8213 12.624C26.8051 11.7225 26.5296 10.9222 26.0353 10.2472C25.6585 9.7362 25.0548 9.32159 24.4875 9.21553C24.2444 9.16732 24.0054 9.13357 23.7583 9.13357C23.3814 9.13357 23.0005 9.13357 22.6237 9.13357C21.0233 9.13357 19.4229 9.13357 17.8225 9.13357C15.7278 9.13357 13.6371 9.13357 11.5424 9.13357C9.71506 9.13357 7.88774 9.13357 6.06446 9.13357C5.26627 9.13357 4.46404 9.11429 3.66585 9.13357C2.3612 9.1625 1.22673 10.1653 0.845869 11.655C0.75268 12.0117 0.732422 12.3926 0.732422 12.7686C0.732422 13.2652 0.732422 13.7617 0.732422 14.2583C0.732422 16.3361 0.732422 18.4092 0.732422 20.487C0.732422 22.9409 0.732422 25.3997 0.732422 27.8535C0.732422 29.4156 0.732422 30.9727 0.732422 32.5347C0.732422 32.636 0.732422 32.7372 0.732422 32.8337C0.740525 33.4411 0.866128 33.9666 1.08897 34.5113C1.34018 35.1188 1.84259 35.6877 2.3612 35.9576C2.80689 36.1939 3.22422 36.3288 3.71853 36.3337C3.86438 36.3337 4.01429 36.3337 4.16016 36.3337C4.67068 36.3337 5.17713 36.3337 5.68765 36.3337C5.96722 36.3337 6.24679 36.3337 6.52635 36.3337C7.40959 36.3337 8.13891 35.4514 8.14702 34.4053C8.14702 34.2269 8.15921 34.0485 8.17944 33.8701C8.15921 34.0389 8.13891 34.2124 8.1227 34.3812C8.16323 34.034 8.24429 33.7014 8.35363 33.3832C8.30098 33.5375 8.24429 33.6917 8.19157 33.8461C8.30506 33.5327 8.45091 33.2434 8.6251 32.9734C8.54002 33.1036 8.45493 33.2338 8.36985 33.3639C8.536 33.1132 8.72238 32.8915 8.93308 32.6938C8.82368 32.7951 8.71427 32.8963 8.60487 32.9976C8.83178 32.7902 9.07485 32.6167 9.33821 32.4817C9.20857 32.5444 9.07893 32.6119 8.94929 32.6745C9.2207 32.5396 9.50027 32.4479 9.78795 32.3998C9.64619 32.4238 9.50027 32.448 9.35851 32.4672C9.65832 32.4191 9.95812 32.4191 10.2579 32.4672C10.1162 32.4431 9.97031 32.4191 9.82849 32.3998C10.1202 32.4479 10.3998 32.5444 10.6672 32.6745C10.5375 32.6119 10.4079 32.5444 10.2782 32.4817C10.5416 32.6167 10.7847 32.7902 11.0116 32.9976C10.9022 32.8963 10.7928 32.7951 10.6834 32.6938C10.8941 32.8915 11.0804 33.1132 11.2466 33.3639C11.1615 33.2338 11.0764 33.1036 10.9913 32.9734C11.1655 33.2434 11.3114 33.5327 11.4249 33.8461C11.3722 33.6917 11.3155 33.5375 11.2628 33.3832C11.3762 33.7062 11.4532 34.0389 11.4937 34.3812C11.4734 34.2124 11.4532 34.0389 11.437 33.8701C11.4573 34.0485 11.4654 34.2269 11.4694 34.4053C11.4775 35.4466 12.2068 36.3337 13.0901 36.3337C14.4515 36.3337 15.8128 36.3337 17.1742 36.3337C19.35 36.3337 21.5298 36.3337 23.7055 36.3337C24.2039 36.3337 24.7023 36.3337 25.1966 36.3337C26.0718 36.3337 26.8172 35.4514 26.8172 34.4053C26.8172 33.6821 26.8172 32.959 26.8172 32.2359C26.8172 30.5003 26.8172 28.7647 26.8172 27.0243C26.8172 24.932 26.8172 22.8397 26.8172 20.7474C26.8172 18.9347 26.8172 17.1172 26.8172 15.3045C26.8172 14.427 26.8294 13.5448 26.8172 12.6674C26.8172 12.6529 26.8172 12.6433 26.8172 12.6288C26.8172 11.6212 26.0718 10.6522 25.1966 10.7004C24.3214 10.7438 23.58 11.5441 23.58 12.624Z" fill="#393D46"/>
<path d="M37.5148 26.5119C37.5148 28.3873 37.5148 30.2579 37.5148 32.1332C37.5148 32.4322 37.531 32.7407 37.5026 33.0444C37.5229 32.8757 37.5432 32.7021 37.5594 32.5334C37.5432 32.6636 37.5148 32.7889 37.4783 32.9095C37.531 32.7552 37.5877 32.6009 37.6404 32.4466C37.5917 32.5864 37.531 32.7118 37.454 32.8323C37.5391 32.7021 37.6242 32.5719 37.7093 32.4418C37.6404 32.5431 37.5675 32.6298 37.4864 32.707C37.5958 32.6057 37.7052 32.5045 37.8146 32.4032C37.7133 32.4948 37.608 32.5671 37.4905 32.625C37.6202 32.5624 37.7498 32.4948 37.8794 32.4322C37.7741 32.4803 37.6728 32.5093 37.5634 32.5286C37.7052 32.5045 37.8511 32.4803 37.9929 32.4611C37.5756 32.5141 37.1421 32.4756 36.7207 32.4756C36.3114 32.4756 35.9063 32.4756 35.497 32.4756C36.0359 33.1167 36.5788 33.7627 37.1177 34.404C37.1096 33.271 36.8382 32.0754 36.279 31.1498C35.9144 30.5471 35.5497 30.1084 35.0554 29.6649C34.6705 29.3178 34.237 29.0815 33.7832 28.8839C31.9842 28.0933 29.7558 28.8212 28.5281 30.5616C27.7583 31.656 27.3167 32.9673 27.3046 34.4088C27.8434 33.7676 28.3863 33.1216 28.9252 32.4803C27.8393 32.4803 26.7575 32.4803 25.6717 32.4803C25.5137 32.4803 25.3556 32.4803 25.1977 32.4803C25.7365 33.1216 26.2794 33.7676 26.8183 34.4088C26.8183 33.8399 26.8183 33.2758 26.8183 32.707C26.8183 31.3474 26.8183 29.9831 26.8183 28.6236C26.8183 26.9748 26.8183 25.3308 26.8183 23.6821C26.8183 22.2598 26.8183 20.8328 26.8183 19.4106C26.8183 18.7164 26.8305 18.0222 26.8183 17.328C26.8183 17.3183 26.8183 17.3087 26.8183 17.299C26.2794 17.9402 25.7365 18.5862 25.1977 19.2274C26.0242 19.2274 26.8507 19.2274 27.6773 19.2274C28.9697 19.2274 30.2622 19.2274 31.5547 19.2274C31.8992 19.2274 32.2597 19.1985 32.6001 19.2467C32.4583 19.2226 32.3124 19.1985 32.1706 19.1792C32.3165 19.2081 32.4502 19.2515 32.5879 19.3142C32.4583 19.2515 32.3286 19.184 32.199 19.1214C32.3529 19.1985 32.4947 19.2949 32.6244 19.4154C32.515 19.3142 32.4056 19.213 32.2962 19.1117C32.5636 19.3672 32.7743 19.7192 32.9931 20.0277C33.3861 20.5869 33.7791 21.1462 34.1762 21.7054C35.0959 23.0119 36.0157 24.3232 36.9395 25.6297C37.1623 25.9479 37.3892 26.2613 37.608 26.5795C37.5229 26.4493 37.4378 26.3191 37.3527 26.189C37.4459 26.3384 37.5189 26.4879 37.5836 26.6566C37.531 26.5023 37.4743 26.348 37.4216 26.1938C37.4783 26.3625 37.5189 26.5312 37.5432 26.7144C37.5229 26.5457 37.5026 26.3722 37.4864 26.2034C37.5067 26.3047 37.5148 26.4059 37.5148 26.5119C37.5229 27.0133 37.689 27.5196 37.9888 27.8763C38.2684 28.2089 38.7303 28.4644 39.1355 28.4404C39.9985 28.3921 40.7724 27.5919 40.7562 26.5119C40.744 25.8178 40.6022 25.1814 40.3348 24.5643C40.2092 24.275 40.0269 24.0195 39.8526 23.7688C39.7797 23.6676 39.7108 23.5663 39.6379 23.4651C39.2854 22.9637 38.9289 22.4575 38.5763 21.9561C37.6202 20.5966 36.6599 19.2322 35.7037 17.8727C35.4403 17.4967 35.1769 17.1206 34.9136 16.7494C34.2694 15.8383 33.2848 15.3658 32.2962 15.3658C31.1253 15.361 29.9503 15.3658 28.7793 15.3658C27.6084 15.3658 26.4334 15.3513 25.2624 15.3658C25.2422 15.3658 25.222 15.3658 25.2017 15.3658C24.3265 15.3658 23.581 16.248 23.581 17.2942C23.581 17.8631 23.581 18.4271 23.581 18.996C23.581 20.3555 23.581 21.7199 23.581 23.0794C23.581 24.7282 23.581 26.3722 23.581 28.021C23.581 29.4431 23.581 30.8701 23.581 32.2924C23.581 32.9865 23.5729 33.6808 23.581 34.375C23.581 34.3847 23.581 34.3943 23.581 34.404C23.581 35.4452 24.3225 36.3323 25.2017 36.3323C26.2876 36.3323 27.3693 36.3323 28.4552 36.3323C28.6132 36.3323 28.7712 36.3323 28.9293 36.3323C29.8126 36.3323 30.5418 35.4501 30.5499 34.404C30.5499 34.2256 30.5621 34.0472 30.5823 33.8688C30.5621 34.0375 30.5418 34.2111 30.5256 34.3798C30.5661 34.0327 30.6472 33.7001 30.7566 33.3819C30.7039 33.5362 30.6472 33.6904 30.5945 33.8447C30.708 33.5313 30.8538 33.2421 31.028 32.9721C30.9429 33.1023 30.8578 33.2325 30.7727 33.3626C30.9389 33.1119 31.1253 32.8902 31.336 32.6925C31.2266 32.7937 31.1172 32.8949 31.0078 32.9962C31.2347 32.7889 31.4777 32.6154 31.7411 32.4803C31.6115 32.5431 31.4818 32.6105 31.3522 32.6732C31.6237 32.5382 31.9032 32.4466 32.1909 32.3984C32.0491 32.4225 31.9032 32.4466 31.7614 32.4659C32.0612 32.4177 32.361 32.4177 32.6609 32.4659C32.5191 32.4418 32.3732 32.4177 32.2314 32.3984C32.5231 32.4466 32.8027 32.5431 33.0701 32.6732C32.9404 32.6105 32.8108 32.5431 32.6811 32.4803C32.9445 32.6154 33.1876 32.7889 33.4145 32.9962C33.3051 32.8949 33.1957 32.7937 33.0863 32.6925C33.297 32.8902 33.4833 33.1119 33.6495 33.3626C33.5644 33.2325 33.4793 33.1023 33.3942 32.9721C33.5684 33.2421 33.7143 33.5313 33.8278 33.8447C33.7751 33.6904 33.7184 33.5362 33.6657 33.3819C33.7791 33.7049 33.8561 34.0375 33.8966 34.3798C33.8763 34.2111 33.8561 34.0375 33.8399 33.8688C33.8602 34.0472 33.8683 34.2256 33.8723 34.404C33.8804 35.4452 34.6097 36.3323 35.493 36.3323C36.1332 36.3323 36.7774 36.3323 37.4176 36.3323C37.843 36.3323 38.2765 36.342 38.6857 36.1732C39.18 35.9756 39.6622 35.6478 39.9985 35.1657C40.1687 34.9198 40.3307 34.6788 40.4361 34.3895C40.6143 33.9122 40.6954 33.5603 40.74 33.0396C40.7845 32.4996 40.7521 31.9356 40.7521 31.3956C40.7521 30.4074 40.7521 29.419 40.7521 28.4307C40.7521 27.7896 40.7521 27.1532 40.7521 26.5119C40.7521 25.5044 40.0066 24.5353 39.1315 24.5836C38.2603 24.6318 37.5148 25.4321 37.5148 26.5119ZM11.4705 34.3991C11.4705 34.5775 11.4584 34.7559 11.4381 34.9343C11.4584 34.7655 11.4786 34.592 11.4948 34.4232C11.4543 34.7704 11.3733 35.103 11.2639 35.4212C11.3165 35.2669 11.3733 35.1127 11.4259 34.9583C11.3125 35.2717 11.1666 35.561 10.9924 35.831C11.0775 35.7008 11.1626 35.5706 11.2477 35.4405C11.0815 35.6912 10.8952 35.9129 10.6845 36.1106C10.7939 36.0093 10.9033 35.9081 11.0127 35.8068C10.7858 36.0142 10.5427 36.1877 10.2793 36.3227C10.409 36.26 10.5386 36.1925 10.6683 36.1299C10.3968 36.2649 10.1172 36.3565 9.82957 36.4046C9.97138 36.3806 10.1172 36.3565 10.259 36.3372C9.95922 36.3853 9.6594 36.3853 9.35957 36.3372C9.50138 36.3613 9.64724 36.3853 9.78905 36.4046C9.49733 36.3565 9.21776 36.26 8.95035 36.1299C9.08 36.1925 9.20966 36.26 9.33931 36.3227C9.07595 36.1877 8.83285 36.0142 8.60596 35.8068C8.71535 35.9081 8.82475 36.0093 8.93415 36.1106C8.72346 35.9129 8.53708 35.6912 8.37096 35.4405C8.45604 35.5706 8.54113 35.7008 8.62621 35.831C8.452 35.561 8.30613 35.2717 8.19269 34.9583C8.24536 35.1127 8.30208 35.2669 8.35475 35.4212C8.24131 35.0982 8.16432 34.7655 8.12381 34.4232C8.14406 34.592 8.16432 34.7655 8.18053 34.9343C8.14001 34.5775 8.14001 34.2207 8.18053 33.864C8.16027 34.0327 8.14001 34.2063 8.12381 34.375C8.16432 34.0279 8.24536 33.6953 8.35475 33.3771C8.30208 33.5313 8.24536 33.6857 8.19269 33.8399C8.30613 33.5265 8.452 33.2372 8.62621 32.9673C8.54113 33.0974 8.45604 33.2276 8.37096 33.3578C8.53708 33.1071 8.72346 32.8853 8.93415 32.6877C8.82475 32.7889 8.71535 32.8902 8.60596 32.9914C8.83285 32.7841 9.07595 32.6105 9.33931 32.4756C9.20966 32.5382 9.08 32.6057 8.95035 32.6684C9.22181 32.5334 9.50138 32.4418 9.78905 32.3936C9.64724 32.4177 9.50138 32.4418 9.35957 32.4611C9.6594 32.4129 9.95922 32.4129 10.259 32.4611C10.1172 32.437 9.97138 32.4129 9.82957 32.3936C10.1213 32.4418 10.4009 32.5382 10.6683 32.6684C10.5386 32.6057 10.409 32.5382 10.2793 32.4756C10.5427 32.6105 10.7858 32.7841 11.0127 32.9914C10.9033 32.8902 10.7939 32.7889 10.6845 32.6877C10.8952 32.8853 11.0815 33.1071 11.2477 33.3578C11.1626 33.2276 11.0775 33.0974 10.9924 32.9673C11.1666 33.2372 11.3125 33.5265 11.4259 33.8399C11.3733 33.6857 11.3165 33.5313 11.2639 33.3771C11.3773 33.7001 11.4543 34.0327 11.4948 34.375C11.4746 34.2063 11.4543 34.0327 11.4381 33.864C11.4624 34.0424 11.4705 34.2207 11.4705 34.3991C11.4746 34.8957 11.6488 35.4115 11.9446 35.7635C12.2241 36.0961 12.686 36.3516 13.0912 36.3276C13.9623 36.2793 14.7199 35.479 14.7118 34.3991C14.7037 33.2565 14.4282 32.0465 13.857 31.1161C13.4923 30.5278 13.1357 30.094 12.6496 29.6552C12.2647 29.3033 11.8311 29.072 11.3773 28.8743C10.9195 28.6718 10.409 28.585 9.91871 28.5657C9.43656 28.5465 8.93009 28.6236 8.46415 28.7827C7.56872 29.0864 6.69761 29.7179 6.10201 30.5761C5.70495 31.1498 5.44158 31.6897 5.20658 32.3791C5.02426 32.9191 4.95133 33.4832 4.90676 34.0617C4.82573 35.1946 5.09719 36.4191 5.58744 37.3882C6.06555 38.3331 6.79485 39.1719 7.64166 39.6299C8.2332 39.9481 8.75992 40.1217 9.40414 40.2036C9.88629 40.2663 10.3684 40.2036 10.8425 40.0927C11.8352 39.871 12.8319 39.1623 13.4802 38.2415C14.25 37.1471 14.6916 35.8358 14.7037 34.3943C14.7118 33.3867 13.9542 32.4177 13.0831 32.4659C12.2079 32.5189 11.4786 33.3192 11.4705 34.3991Z" fill="#393D46"/>
<path d="M33.8767 34.3988C33.8767 34.5772 33.8646 34.7556 33.8443 34.9339C33.8646 34.7652 33.8848 34.5917 33.9011 34.4229C33.8605 34.77 33.7795 35.1027 33.6701 35.4209C33.7228 35.2666 33.7795 35.1123 33.8322 34.9581C33.7187 35.2714 33.5729 35.5607 33.3986 35.8307C33.4837 35.7005 33.5688 35.5703 33.6539 35.4401C33.4878 35.6908 33.3014 35.9126 33.0907 36.1103C33.2001 36.009 33.3095 35.9078 33.4189 35.8066C33.192 36.0139 32.9489 36.1874 32.6856 36.3224C32.8152 36.2597 32.9449 36.1922 33.0745 36.1296C32.803 36.2645 32.5235 36.3561 32.2358 36.4043C32.3776 36.3803 32.5235 36.3561 32.6653 36.3368C32.3655 36.3851 32.0656 36.3851 31.7658 36.3368C31.9076 36.361 32.0535 36.3851 32.1953 36.4043C31.9036 36.3561 31.624 36.2597 31.3566 36.1296C31.4862 36.1922 31.6159 36.2597 31.7456 36.3224C31.4822 36.1874 31.2391 36.0139 31.0122 35.8066C31.1216 35.9078 31.231 36.009 31.3404 36.1103C31.1297 35.9126 30.9433 35.6908 30.7772 35.4401C30.8623 35.5703 30.9474 35.7005 31.0325 35.8307C30.8582 35.5607 30.7124 35.2714 30.5989 34.9581C30.6516 35.1123 30.7083 35.2666 30.761 35.4209C30.6475 35.0979 30.5706 34.7652 30.5301 34.4229C30.5503 34.5917 30.5706 34.7652 30.5868 34.9339C30.5463 34.5772 30.5463 34.2204 30.5868 33.8637C30.5665 34.0324 30.5463 34.206 30.5301 34.3747C30.5706 34.0276 30.6516 33.695 30.761 33.3768C30.7083 33.531 30.6516 33.6853 30.5989 33.8396C30.7124 33.5262 30.8582 33.237 31.0325 32.967C30.9474 33.0971 30.8623 33.2273 30.7772 33.3575C30.9433 33.1068 31.1297 32.885 31.3404 32.6874C31.231 32.7886 31.1216 32.8898 31.0122 32.9911C31.2391 32.7838 31.4822 32.6102 31.7456 32.4752C31.6159 32.5379 31.4862 32.6054 31.3566 32.6681C31.6281 32.5331 31.9076 32.4415 32.1953 32.3933C32.0535 32.4174 31.9076 32.4415 31.7658 32.4608C32.0656 32.4126 32.3655 32.4126 32.6653 32.4608C32.5235 32.4367 32.3776 32.4126 32.2358 32.3933C32.5275 32.4415 32.8071 32.5379 33.0745 32.6681C32.9449 32.6054 32.8152 32.5379 32.6856 32.4752C32.9489 32.6102 33.192 32.7838 33.4189 32.9911C33.3095 32.8898 33.2001 32.7886 33.0907 32.6874C33.3014 32.885 33.4878 33.1068 33.6539 33.3575C33.5688 33.2273 33.4837 33.0971 33.3986 32.967C33.5729 33.237 33.7187 33.5262 33.8322 33.8396C33.7795 33.6853 33.7228 33.531 33.6701 33.3768C33.7836 33.6998 33.8605 34.0324 33.9011 34.3747C33.8808 34.206 33.8605 34.0324 33.8443 33.8637C33.8646 34.0421 33.8767 34.2204 33.8767 34.3988C33.8808 34.8954 34.055 35.4112 34.3508 35.7632C34.6304 36.0958 35.0923 36.3513 35.4974 36.3272C36.3685 36.279 37.1262 35.4787 37.1181 34.3988C37.11 33.2562 36.8345 32.0462 36.2632 31.1157C35.8986 30.5276 35.542 30.0937 35.0558 29.6549C34.6708 29.303 34.2373 29.0716 33.7836 28.874C33.3257 28.6715 32.8152 28.5847 32.3249 28.5654C31.8428 28.5461 31.3363 28.6233 30.8704 28.7824C29.975 29.0861 29.1039 29.7176 28.5083 30.5758C28.1112 31.1495 27.8478 31.6894 27.6128 32.3788C27.4305 32.9188 27.3576 33.4828 27.313 34.0613C27.232 35.1943 27.5034 36.4188 27.9937 37.3878C28.4718 38.3328 29.2011 39.1716 30.0479 39.6296C30.6394 39.9478 31.1662 40.1213 31.8104 40.2033C32.2925 40.266 32.7747 40.2033 33.2487 40.0925C34.2414 39.8707 35.2381 39.162 35.8864 38.2412C36.6562 37.1468 37.0978 35.8355 37.11 34.394C37.1181 33.3864 36.3604 32.4174 35.4893 32.4656C34.6142 32.5186 33.8848 33.3189 33.8767 34.3988Z" fill="#393D46"/>
</svg>
