<svg width="30" height="30" viewBox="0 0 30 30" fill="none" xmlns="http://www.w3.org/2000/svg">
<g clip-path="url(#clip0_47_26599)">
<path d="M5.34375 3.84375L8.53125 1.6875L26.8125 24.375L22.0312 28.4062L19.6875 25.5L5.34375 3.84375Z" fill="#4F722D"/>
<path d="M26.9061 15.0007C28.5936 22.9695 23.9061 30.0007 16.1248 30.0007C8.15608 30.0007 1.12482 22.8757 0.562325 14.7195C-0.000175118 7.21947 5.24983 1.68822 11.9998 1.87572C18.7498 2.06322 25.3123 7.68822 26.9061 15.0007Z" fill="#4F722D"/>
<path d="M29.5312 12.9383C31.3125 20.8133 26.7187 27.657 19.0312 27.657C11.25 27.657 4.3125 20.6258 3.65625 12.5633C2.90625 5.2508 7.96875 -0.186701 14.7187 0.000798758C21.2812 0.188299 27.8437 5.71955 29.5312 12.9383Z" fill="#4F722D"/>
<path d="M6.46875 4.5L9.46875 2.53125L26.0625 23.25L21.6563 26.9062L19.5938 24.2812L6.46875 4.5Z" fill="#689940"/>
<path d="M26.1563 14.7181C27.7501 22.0306 23.4376 28.4056 16.3126 28.4056C9.09383 28.4056 2.71883 21.8431 2.15633 14.4369C1.59383 7.5931 6.37508 2.62435 12.5626 2.7181C18.6563 2.9056 24.6563 8.06185 26.1563 14.7181Z" fill="#689940"/>
<path d="M27.094 13.9681C28.6877 21.0931 24.469 27.3744 17.4377 27.3744C10.3127 27.3744 3.93773 20.9056 3.37523 13.5931C2.81273 6.84312 7.40648 1.96812 13.594 2.15562C19.594 2.34312 25.594 7.40562 27.094 13.9681Z" fill="#9CD367"/>
<path d="M28.4998 12.8431C30.0935 19.9681 25.8748 26.2494 18.9373 26.2494C11.8123 26.2494 5.43726 19.7806 4.87476 12.4681C4.31226 5.71812 8.90601 0.843119 14.9998 1.03062C21.0935 1.12437 26.9998 6.28062 28.4998 12.8431Z" fill="#7DB84D"/>
<path d="M25.5937 12.4688L20.8125 5.0625L17.25 5.8125L20.8125 11.8125C20.8125 11.8125 23.25 15.5625 20.3438 16.5938C16.7813 17.8125 14.625 13.7812 14.625 13.7812L10.875 6.5625L6.28125 7.5L14.9062 25.5C16.2188 25.9688 17.5313 26.1562 18.9375 26.25C19.5938 26.25 20.1563 26.1562 20.8125 26.0625L17.25 19.5C17.25 19.5 20.0625 20.3438 22.0312 19.3125C24 18.375 24 16.0313 24 16.0313C26.7188 18.0938 28.4062 17.4375 28.875 17.1562C28.9687 16.2188 28.9687 15.2812 28.875 14.25C26.8125 14.8125 25.5937 12.4688 25.5937 12.4688Z" fill="#FAFAFA"/>
<path d="M14.9062 25.5L13.125 28.125C13.125 28.125 17.3438 28.9688 19.875 27.8438L20.7188 26.0625L14.9062 25.5Z" fill="#FAFAFA"/>
<path opacity="0.27" d="M11.9063 18.3742C13.5938 18.8429 15.375 18.4679 16.5938 17.7179C17.8125 17.0617 18.9375 15.6554 19.4063 13.9679C20.5313 9.84295 17.5313 0.655446 9.37505 5.4367C1.2188 10.2179 7.7813 17.3429 11.9063 18.3742Z" fill="#9CD367"/>
</g>
<defs>
<clipPath id="clip0_47_26599">
<rect width="30" height="30" fill="white"/>
</clipPath>
</defs>
</svg>
