<svg width="26" height="19" viewBox="0 0 26 19" fill="none" xmlns="http://www.w3.org/2000/svg">
<path d="M0.00020057 2.37512V16.6249C0.000734782 17.2544 0.251006 17.8581 0.696093 18.3034C1.14118 18.7487 1.74473 18.9992 2.37432 19H22.9577C23.5876 18.9994 24.1916 18.7489 24.6369 18.3034C25.0823 17.8579 25.3326 17.2538 25.3328 16.6238V2.37614C25.3326 1.74603 25.0821 1.1418 24.6366 0.69625C24.191 0.250696 23.5868 0.00026796 22.9567 0H2.37432C1.74456 0.000803548 1.14085 0.251468 0.695736 0.696964C0.25062 1.14246 0.00046864 1.74537 0.00020057 2.37512ZM22.9567 1.58342C23.0608 1.58334 23.1639 1.60396 23.26 1.64408L12.6655 10.8271L2.06997 1.64509C2.16606 1.60497 2.26917 1.58435 2.3733 1.58443L22.9567 1.58342ZM1.5816 16.6249V3.3185L12.1478 12.4722C12.2915 12.5976 12.4758 12.6668 12.6665 12.6668C12.8573 12.6668 13.0415 12.5976 13.1852 12.4722L23.7494 3.31749V16.6238C23.7494 17.0617 23.3945 17.4166 22.9577 17.4166H2.37432C1.93751 17.4166 1.58261 17.0617 1.5816 16.6249Z" fill="#96979F"/>
</svg>
