<svg width="130" height="24" viewBox="0 0 130 24" fill="none" xmlns="http://www.w3.org/2000/svg">
<g clip-path="url(#clip0_47_88987)">
<path d="M32.9384 7.33595C35.4633 7.33595 37.5169 9.38961 37.5169 11.9145C37.5169 14.4393 35.4633 16.493 32.9384 16.493H29.7988V7.33595H32.9384ZM32.9384 4.71484H28.6183C27.8313 4.71484 27.1777 5.36674 27.1777 6.15544V17.6752C27.1777 18.4622 27.8296 19.1158 28.6183 19.1158H32.9384C36.9208 19.1158 40.138 15.8985 40.138 11.9161C40.138 7.93381 36.9208 4.71484 32.9384 4.71484Z" fill="white"/>
<path d="M52.7795 17.8052C52.7795 18.5213 52.1867 19.1141 51.4707 19.1141C50.7546 19.1141 50.1618 18.5213 50.1618 17.8052V13.8786C50.1618 12.4262 48.9965 11.2609 47.5441 11.2609C46.0916 11.2609 44.9263 12.4262 44.9263 13.8786V17.8052C44.9263 18.5213 44.3335 19.1141 43.6175 19.1141C42.9014 19.1141 42.3086 18.5213 42.3086 17.8052V6.02371C42.3086 5.30763 42.9014 4.71484 43.6175 4.71484C44.3335 4.71484 44.9263 5.30763 44.9263 6.02371V9.35752C45.6829 8.90828 46.5831 8.64144 47.5441 8.64144C50.4269 8.64144 52.7795 10.994 52.7795 13.8769V17.8052Z" fill="white"/>
<path d="M57.9341 17.8066C57.9341 18.5227 57.3413 19.1155 56.6253 19.1155C55.9092 19.1155 55.3164 18.5227 55.3164 17.8066V9.9534C55.3164 9.23732 55.9092 8.64453 56.6253 8.64453C57.3413 8.64453 57.9341 9.23732 57.9341 9.9534V17.8066Z" fill="white"/>
<path d="M75.1964 17.8052C75.1964 18.5213 74.6036 19.1141 73.8875 19.1141C73.5396 19.1141 73.212 18.9705 72.9671 18.7256L67.9967 13.7553L63.0281 18.7256C62.7832 18.9705 62.4556 19.1141 62.1077 19.1141C61.3916 19.1141 60.7988 18.5213 60.7988 17.8052V6.02371C60.7988 5.30763 61.3916 4.71484 62.1077 4.71484C62.8238 4.71484 63.4166 5.30763 63.4166 6.02371V14.6555L67.078 10.994C67.3229 10.7289 67.6708 10.6056 67.9984 10.6056C68.3261 10.6056 68.674 10.7289 68.9189 10.994L72.5803 14.6555V6.02371C72.5803 5.30763 73.1731 4.71484 73.8892 4.71484C74.6053 4.71484 75.198 5.30763 75.198 6.02371L75.1964 17.8052Z" fill="white"/>
<path d="M80.6783 17.8066C80.6783 18.5227 80.0855 19.1155 79.3694 19.1155C78.6533 19.1155 78.0605 18.5227 78.0605 17.8066V9.9534C78.0605 9.23732 78.6533 8.64453 79.3694 8.64453C80.0855 8.64453 80.6783 9.23732 80.6783 9.9534V17.8066Z" fill="white"/>
<path d="M89.1056 16.4972C89.4738 16.4972 89.7592 16.2118 89.7592 15.8419C89.7592 15.4721 89.4738 15.1866 89.1056 15.1866H86.4878C84.6875 15.1866 83.2148 13.714 83.2148 11.9136C83.2148 10.1133 84.6875 8.64062 86.4878 8.64062H90.4144C91.1305 8.64062 91.7233 9.23341 91.7233 9.94949C91.7233 10.6656 91.1305 11.2584 90.4144 11.2584H86.4878C86.1197 11.2584 85.8326 11.5438 85.8326 11.9136C85.8326 12.2835 86.118 12.5689 86.4878 12.5689H89.1056C90.9059 12.5689 92.3769 14.0416 92.3769 15.8419C92.3769 17.6423 90.9042 19.1149 89.1056 19.1149H84.5237C83.8076 19.1149 83.2148 18.5221 83.2148 17.8061C83.2148 17.09 83.8076 16.4972 84.5237 16.4972H89.1056Z" fill="white"/>
<path d="M99.4952 19.1155C96.6107 19.1155 94.2598 16.7629 94.2598 13.88C94.2598 10.9971 96.6107 8.64453 99.4952 8.64453C102.378 8.64453 104.731 10.9971 104.731 13.88C104.731 14.5961 104.138 15.1889 103.422 15.1889H97.2237C97.6746 15.986 98.5123 16.4977 99.4935 16.4977H100.802C101.518 16.4977 102.111 17.0905 102.111 17.8066C102.111 18.5227 101.518 19.1155 100.802 19.1155H99.4952ZM97.2237 12.5694H101.763C101.314 11.7926 100.455 11.2606 99.4935 11.2606C98.5123 11.2606 97.6746 11.7926 97.2237 12.5694Z" fill="white"/>
<path d="M56.625 7.66022C57.4384 7.66022 58.0977 7.00087 58.0977 6.18753C58.0977 5.37419 57.4384 4.71484 56.625 4.71484C55.8117 4.71484 55.1523 5.37419 55.1523 6.18753C55.1523 7.00087 55.8117 7.66022 56.625 7.66022Z" fill="white"/>
<path d="M79.3692 7.66022C80.1825 7.66022 80.8419 7.00087 80.8419 6.18753C80.8419 5.37419 80.1825 4.71484 79.3692 4.71484C78.5558 4.71484 77.8965 5.37419 77.8965 6.18753C77.8965 7.00087 78.5558 7.66022 79.3692 7.66022Z" fill="white"/>
<path d="M16.4926 0.21875H1.68304C0.853807 0.21875 0.181641 0.890916 0.181641 1.72015V18.0818C0.181641 18.6898 0.548123 19.237 1.10882 19.4684C1.66784 19.6998 2.31467 19.5714 2.74533 19.1424L9.97534 11.9124C10.5614 11.3264 10.5614 10.3756 9.97534 9.78952C9.38931 9.20349 8.43848 9.20349 7.85244 9.78952L3.18443 14.4575V3.22154H16.4943C18.7422 3.22154 20.5696 5.05058 20.5696 7.29676V16.5298C20.5696 18.7776 18.7405 20.605 16.4943 20.605H9.33357L14.0016 15.937C14.5876 15.3509 14.5876 14.4001 14.0016 13.8141C13.4155 13.228 12.4647 13.228 11.8787 13.8141L4.64699 21.0458C4.21802 21.4747 4.08966 22.1216 4.32104 22.6823C4.5541 23.243 5.10129 23.6095 5.70759 23.6095H16.491C20.3939 23.6095 23.569 20.4344 23.569 16.5314V7.29845C23.5724 3.3955 20.3973 0.21875 16.4926 0.21875Z" fill="white"/>
<path d="M16.43 12.8884C17.2592 12.8884 17.9314 12.2162 17.9314 11.387V7.36077C17.9314 6.53154 17.2592 5.85938 16.43 5.85938H12.4037C11.5745 5.85938 10.9023 6.53154 10.9023 7.36077C10.9023 8.19 11.5745 8.86217 12.4037 8.86217H14.9286V11.387C14.9286 12.2162 15.6008 12.8884 16.43 12.8884Z" fill="white"/>
<path d="M108.832 19.0666C108.51 19.0666 108.334 18.8926 108.334 18.5683V13.2873C108.334 12.963 108.508 12.7891 108.832 12.7891H110.947C111.593 12.7891 112.09 12.9394 112.463 13.213C112.811 13.4866 112.985 13.9105 112.985 14.4087C112.985 14.7583 112.885 15.0319 112.712 15.2801C112.538 15.5047 112.289 15.704 111.99 15.8037C112.338 15.9033 112.637 16.0773 112.836 16.3272C113.036 16.5772 113.135 16.8997 113.135 17.2983C113.135 17.8708 112.936 18.2947 112.563 18.5937C112.19 18.8926 111.668 19.0429 111.021 19.0429H108.832V19.0666ZM109.205 15.5537H110.796C111.642 15.5537 112.09 15.2041 112.09 14.5573C112.09 13.8851 111.668 13.5609 110.796 13.5609H109.205V15.5537ZM109.205 18.3437H110.921C111.791 18.3437 112.215 17.9941 112.215 17.2966C112.215 16.5991 111.793 16.2495 110.921 16.2495H109.205V18.3437Z" fill="white"/>
<path d="M114.539 19.0666C114.217 19.0666 114.041 18.8926 114.041 18.5683V13.2873C114.041 12.963 114.215 12.7891 114.539 12.7891H117.772C118.02 12.7891 118.145 12.914 118.145 13.1623C118.145 13.4123 118.02 13.5355 117.772 13.5355H114.936V15.5031H117.598C117.846 15.5031 117.971 15.628 117.971 15.8763C117.971 16.1262 117.846 16.2495 117.598 16.2495H114.936V18.3167H117.795C118.044 18.3167 118.169 18.4417 118.169 18.6899C118.169 18.9399 118.044 19.0632 117.795 19.0632C117.797 19.0666 114.539 19.0666 114.539 19.0666Z" fill="white"/>
<path d="M121.685 19.1173C121.386 19.1173 121.238 18.9434 121.238 18.6445V13.5863H119.373C119.1 13.5863 118.975 13.4613 118.975 13.2131C118.975 12.9631 119.1 12.8398 119.373 12.8398H124.048C124.322 12.8398 124.47 12.9648 124.47 13.2131C124.47 13.4867 124.345 13.5863 124.048 13.5863H122.158V18.6681C122.133 18.967 121.982 19.1173 121.685 19.1173Z" fill="white"/>
<path d="M124.228 19.1173C124.054 19.1173 123.93 19.0666 123.855 18.9434C123.781 18.8201 123.806 18.6934 123.881 18.5195L126.292 13.1134C126.341 12.9884 126.417 12.8888 126.517 12.8145C126.616 12.7638 126.716 12.7148 126.816 12.7148C126.915 12.7148 127.015 12.7402 127.115 12.8145C127.214 12.8652 127.289 12.9884 127.339 13.1134L129.751 18.5195C129.825 18.6934 129.851 18.8184 129.776 18.9434C129.727 19.0683 129.602 19.1173 129.428 19.1173C129.303 19.1173 129.204 19.092 129.13 19.0177C129.055 18.9434 128.981 18.8437 128.93 18.7187L128.408 17.5484H125.223L124.725 18.7187C124.676 18.869 124.6 18.9687 124.526 19.0177C124.451 19.092 124.352 19.1173 124.228 19.1173ZM126.79 13.8346L125.547 16.7985H128.084L126.79 13.8346Z" fill="white"/>
</g>
<defs>
<clipPath id="clip0_47_88987">
<rect width="129.978" height="23.8281" fill="white" transform="translate(0.0117188)"/>
</clipPath>
</defs>
</svg>
