<svg width="24" height="24" viewBox="0 0 24 24" fill="none" xmlns="http://www.w3.org/2000/svg">
<path fill-rule="evenodd" clip-rule="evenodd" d="M10.7984 4.84375V11.7994L8.8058 9.58232L7.18526 11.3913L12.0588 16.8207L13.6794 15.0117L13.6554 14.9745L16.7884 11.4861L15.2399 9.77078L13.1992 12.0455V5.05858C14.9585 5.56181 16.466 6.76906 17.3313 8.43913C17.3785 8.43535 17.4238 8.42861 17.4695 8.42181C17.54 8.41132 17.6113 8.40072 17.6914 8.40072C20.5578 8.56066 22.8001 10.9316 22.8001 13.8025C22.8001 16.6734 20.5578 19.0443 17.6914 19.2043H5.1833C3.04021 19.0892 1.32697 17.38 1.20688 15.2372C1.08679 13.0944 2.59833 11.2045 4.71514 10.8507C5.12653 7.66406 7.66042 5.20614 10.7984 4.84375ZM12.1549 13.2015H12.0588L12.1068 13.2579L12.1549 13.2015Z" fill="#F4BB2E"/>
</svg>
