<svg width="64" height="64" viewBox="0 0 64 64" fill="none" xmlns="http://www.w3.org/2000/svg">
<path d="M42.4348 38.2608V33.0434C42.4325 32.6792 42.3351 32.3219 42.1521 32.007C41.969 31.6922 41.7067 31.4307 41.3913 31.2486V25.9477C41.3886 25.3397 41.1458 24.7574 40.7159 24.3275C40.2859 23.8976 39.7036 23.6549 39.0956 23.6521H34.5565C34.6713 23.5165 34.7965 23.3912 34.9113 23.2451C35.391 22.6459 35.8138 22.003 36.1739 21.3252C36.4632 20.7661 36.5491 20.124 36.4169 19.5086C36.2847 18.8932 35.9427 18.3429 35.4494 17.952C34.9561 17.5611 34.3423 17.3538 33.713 17.3657C33.0837 17.3776 32.4781 17.608 32 18.0173C31.5219 17.608 30.9163 17.3776 30.287 17.3657C29.6577 17.3538 29.0439 17.5611 28.5506 17.952C28.0573 18.3429 27.7153 18.8932 27.5831 19.5086C27.4509 20.124 27.5368 20.7661 27.8261 21.3252C28.1796 22.0022 28.5953 22.645 29.0678 23.2451C29.1826 23.3912 29.3078 23.5165 29.4226 23.6521H24.9043C24.2963 23.6549 23.714 23.8976 23.2841 24.3275C22.8542 24.7574 22.6114 25.3397 22.6087 25.9477V31.2486C22.2932 31.4307 22.031 31.6922 21.8479 32.007C21.6649 32.3219 21.5674 32.6792 21.5652 33.0434V38.2608C21.2884 38.2608 21.023 38.3707 20.8274 38.5664C20.6316 38.7621 20.5217 39.0275 20.5217 39.3043C20.5217 39.581 20.6316 39.8464 20.8274 40.0421C21.023 40.2378 21.2884 40.3477 21.5652 40.3477H29.1826C29.4418 41.2338 29.3675 42.184 28.9739 43.019C28.6566 43.6504 28.1591 44.1734 27.5443 44.5216H25.7391C25.4624 44.5216 25.197 44.6316 25.0013 44.8273C24.8056 45.023 24.6956 45.2884 24.6956 45.5651C24.6956 45.8419 24.8056 46.1073 25.0013 46.303C25.197 46.4987 25.4624 46.6086 25.7391 46.6086H38.2609C38.5376 46.6086 38.803 46.4987 38.9987 46.303C39.1944 46.1073 39.3043 45.8419 39.3043 45.5651C39.3043 45.2884 39.1944 45.023 38.9987 44.8273C38.803 44.6316 38.5376 44.5216 38.2609 44.5216H36.4557C35.8409 44.1734 35.3434 43.6504 35.0261 43.019C34.6324 42.184 34.5582 41.2338 34.8174 40.3477H42.4348C42.7115 40.3477 42.9769 40.2378 43.1726 40.0421C43.3683 39.8464 43.4783 39.581 43.4783 39.3043C43.4783 39.0275 43.3683 38.7621 43.1726 38.5664C42.9769 38.3707 42.7115 38.2608 42.4348 38.2608ZM29.7252 19.7912C29.7728 19.7083 29.8387 19.6374 29.918 19.584C29.9972 19.5305 30.0877 19.4959 30.1824 19.4828C30.2771 19.4697 30.3735 19.4785 30.4643 19.5084C30.555 19.5384 30.6378 19.5887 30.7061 19.6556L31.2591 20.2191C31.3562 20.3168 31.4715 20.3945 31.5987 20.4475C31.7258 20.5004 31.8623 20.5277 32 20.5277C32.1377 20.5277 32.2741 20.5004 32.4013 20.4475C32.5285 20.3945 32.6438 20.3168 32.7408 20.2191L33.2939 19.6556C33.364 19.5924 33.4469 19.5453 33.5372 19.5175C33.6273 19.4898 33.7225 19.4821 33.8159 19.4951C33.9094 19.508 33.9988 19.5412 34.0782 19.5924C34.1574 19.6435 34.2245 19.7114 34.2748 19.7912C34.3242 19.8769 34.3502 19.974 34.3502 20.073C34.3502 20.1719 34.3242 20.269 34.2748 20.3547C33.969 20.9198 33.6201 21.4606 33.2313 21.9721C32.8591 22.4576 32.4473 22.9113 32 23.3286C31.5419 22.9126 31.1195 22.4588 30.7374 21.9721C30.3486 21.4606 29.9997 20.9198 29.6939 20.3547C29.6491 20.2663 29.6284 20.1677 29.6339 20.0687C29.6394 19.9699 29.6709 19.8741 29.7252 19.7912ZM23.6522 33.0434H40.1495C40.0175 33.1187 39.9036 33.222 39.8157 33.346C39.4902 33.838 39.0609 34.2528 38.5579 34.561C38.0549 34.8693 37.4905 35.0636 36.9043 35.1303C36.3434 35.1893 35.7764 35.1215 35.2452 34.9321C33.0422 34.1446 30.6343 34.1446 28.4313 34.9321C28.1344 35.0372 27.8262 35.1073 27.513 35.1408C26.7451 35.2027 25.9754 35.0466 25.2923 34.6903C24.6093 34.334 24.0407 33.7921 23.6522 33.1269V33.0434ZM24.6956 28.5982C25.7628 29.2548 26.9459 29.7011 28.1809 29.9129C28.4568 29.9111 28.7322 29.8902 29.0052 29.8503C29.3088 29.7971 29.6086 29.7239 29.9026 29.6312C31.4888 29.089 33.2103 29.089 34.7965 29.6312C35.0902 29.7251 35.39 29.7983 35.6939 29.8503C35.967 29.8896 36.2424 29.9105 36.5182 29.9129C37.5216 29.7709 38.4767 29.3918 39.3043 28.8069V30.9564H24.6956V28.5982ZM24.9043 25.739H39.0956C39.151 25.739 39.2041 25.761 39.2432 25.8002C39.2824 25.8393 39.3043 25.8924 39.3043 25.9477V26.2712C38.4874 26.9626 37.545 27.4905 36.5287 27.826C36.3621 27.8419 36.1944 27.8419 36.0278 27.826C35.8399 27.7968 35.6549 27.7514 35.4747 27.6904C33.4458 26.9947 31.2429 26.9947 29.2139 27.6904C29.0338 27.7514 28.8488 27.7968 28.6609 27.826C28.4975 27.8358 28.3337 27.8358 28.1704 27.826C26.9391 27.4554 25.7685 26.907 24.6956 26.1982V25.9477C24.6956 25.8924 24.7176 25.8393 24.7567 25.8002C24.7959 25.761 24.849 25.739 24.9043 25.739ZM33.1478 43.9373C33.2483 44.138 33.3598 44.3332 33.4817 44.5216H30.5183C30.6402 44.3332 30.7517 44.138 30.8522 43.9373C31.3927 42.8229 31.5539 41.5623 31.3113 40.3477H32.6887C32.446 41.5623 32.6073 42.8229 33.1478 43.9373ZM34.0869 38.2608H23.6522V36.1008C24.8402 36.9242 26.2841 37.2945 27.7217 37.1443C28.2068 37.0987 28.6839 36.99 29.1409 36.8208C30.8954 36.195 32.8124 36.195 34.5669 36.8208C35.1944 37.0395 35.8538 37.1524 36.5182 37.1547C36.7164 37.1651 36.9149 37.1651 37.113 37.1547C38.3002 37.0414 39.4265 36.5764 40.3478 35.819V38.2608H34.0869Z" fill="#213A52"/>
</svg>
