<svg width="20" height="20" viewBox="0 0 20 20" fill="none" xmlns="http://www.w3.org/2000/svg">
<path fill-rule="evenodd" clip-rule="evenodd" d="M5.31242 3.12497C3.64244 3.12497 1.87497 4.57997 1.87497 6.87497C1.87497 9.56247 3.84994 12.055 6.08116 13.9775C7.29842 15.0188 8.61036 15.9441 9.99984 16.7412C11.3893 15.9441 12.7013 15.0188 13.9185 13.9775C16.1497 12.055 18.1247 9.56247 18.1247 6.87497C18.1247 4.57997 16.3572 3.12497 14.6873 3.12497C12.971 3.12497 11.4261 4.35747 10.9011 6.19497C10.845 6.39071 10.7267 6.56288 10.5641 6.68544C10.4015 6.808 10.2035 6.87429 9.99984 6.87429C9.79623 6.87429 9.59815 6.808 9.43555 6.68544C9.27296 6.56288 9.15468 6.39071 9.09861 6.19497C8.57362 4.35747 7.02864 3.12497 5.31242 3.12497ZM9.99984 17.8125L9.5686 18.645L9.5661 18.6437L9.5586 18.64L9.5361 18.6275C9.40532 18.5596 9.27612 18.4888 9.14861 18.415C7.6252 17.5478 6.18789 16.5374 4.85617 15.3975C2.55621 13.4137 0 10.4375 0 6.87497C0 3.54497 2.60746 1.24997 5.31242 1.24997C7.24614 1.24997 8.94111 2.25247 9.99984 3.77497C11.0586 2.25247 12.7536 1.24997 14.6873 1.24997C17.3922 1.24997 19.9997 3.54497 19.9997 6.87497C19.9997 10.4375 17.4435 13.4137 15.1435 15.3975C13.6989 16.6324 12.1306 17.7148 10.4636 18.6275L10.4411 18.64L10.4336 18.6437H10.4311L9.99984 17.8125ZM9.99984 17.8125L10.4311 18.645C10.2978 18.7138 10.1499 18.7497 9.99984 18.7497C9.8498 18.7497 9.70193 18.7138 9.5686 18.645L9.99984 17.8125Z" fill="#C9D1D9"/>
</svg>
