<svg width="30" height="30" viewBox="0 0 30 30" fill="none" xmlns="http://www.w3.org/2000/svg">
<g clip-path="url(#clip0_47_32839)">
<path d="M23.7656 21.7773L23.4375 24.8242C23.4375 24.8242 20.3906 25.5273 20.0813 25.5273C19.7719 25.5273 16.1719 23.7273 16.1719 23.7273L18.5906 20.1367L19.8469 19.4336L23.7656 21.7773Z" fill="#2F4D0D"/>
<path d="M27.722 8.43644C24.1263 9.23619 20.4227 9.43262 16.7626 9.01769L16.8188 8.81144C15.7404 8.3515 14.5788 8.11854 13.4063 8.12707L13.0501 8.20207H12.9376L12.872 8.12707L12.7688 8.08019H12.1782C10.8845 8.03332 9.53447 7.94894 8.63447 7.14269C8.52577 7.05747 8.45504 6.93284 8.4376 6.79582C6.43856 5.90366 4.63292 4.62984 3.12197 3.04582C2.72822 2.61457 1.96885 2.81144 1.55635 3.46769L0.618849 4.40519C0.309474 4.90207 0.187599 4.84582 0.553224 6.60832C0.834474 8.75519 2.42822 20.2771 4.14385 24.4677C4.11221 24.682 4.14109 24.9009 4.22723 25.0997C4.31336 25.2985 4.45334 25.4692 4.63135 25.5927C5.74697 26.2864 8.01572 27.6552 9.42197 28.3114C9.59645 28.3927 9.79171 28.4183 9.98123 28.3848C10.1708 28.3512 10.3454 28.2602 10.4813 28.1239V28.2739C14.6813 26.5864 25.8282 16.0864 28.5751 13.4146C28.9475 13.3307 29.281 13.1245 29.5223 12.8288C29.7637 12.533 29.8989 12.1649 29.9063 11.7833C29.9063 11.1927 29.9063 10.5177 29.8407 9.90832C29.821 9.66237 29.7469 9.42387 29.6239 9.20998C29.5009 8.99608 29.332 8.81213 29.1294 8.67136C28.9268 8.53059 28.6954 8.43651 28.4521 8.39588C28.2087 8.35526 27.9593 8.36911 27.722 8.43644Z" fill="#823A61"/>
<path d="M27.703 9.07631C24.1659 9.80927 20.5304 9.93922 16.9499 9.46069L17.0062 9.25444C15.9472 8.77865 14.8014 8.52652 13.6405 8.51381L13.2843 8.57944H13.1905L13.1249 8.53256H13.0312H12.4405C11.1764 8.58912 9.93336 8.19362 8.9343 7.41694C8.88315 7.37377 8.84107 7.32088 8.8105 7.26134C8.77992 7.2018 8.76146 7.13679 8.75617 7.07006C6.77049 6.13609 4.97712 4.83876 3.46867 3.24506C3.05617 2.78569 2.31555 2.96381 1.9218 3.61069L0.984297 4.54819C0.712422 5.03569 0.590547 4.97006 0.937422 6.74194C1.2468 8.89819 2.96242 20.4857 4.7343 24.7232C4.70542 24.941 4.73641 25.1625 4.82395 25.364C4.91149 25.5656 5.05227 25.7394 5.23117 25.8669C6.3468 26.5794 8.5968 27.9951 9.9843 28.6794C10.1558 28.77 10.3535 28.7981 10.5434 28.7587C10.7333 28.7194 10.9036 28.6151 11.0249 28.4638V28.6138C15.178 26.9919 25.9687 16.6138 28.6312 14.0638C28.9956 13.9805 29.3207 13.7753 29.5525 13.482C29.7844 13.1888 29.9092 12.8251 29.9062 12.4513C29.9062 11.8607 29.9062 11.1857 29.803 10.5763C29.7834 10.3313 29.7104 10.0935 29.5893 9.87966C29.4682 9.66578 29.3018 9.48094 29.1018 9.33807C28.9018 9.19521 28.673 9.09776 28.4314 9.05254C28.1898 9.00733 27.9412 9.01544 27.703 9.07631Z" fill="#4F213C"/>
<path d="M0.553223 5.39844C0.553223 5.39844 2.3251 19.3297 4.30322 23.6703L6.77822 20.3047L9.20635 12.9266L5.2501 6.89844L0.553223 5.39844Z" fill="#C65C91"/>
<path d="M1.5376 5.15625C1.5376 5.15625 3.62822 19.2187 5.68135 23.6531L7.97822 20.2125L10.4251 12.7125L6.34697 6.66562L1.5376 5.15625Z" fill="#EFA5D1"/>
<path d="M29.0625 11.643C29.0625 11.643 15.2719 25.1523 10.5 27.1023V21.7211L12.7313 13.9211L21.0188 10.4336L29.0625 11.643Z" fill="#C65C91"/>
<path d="M27.6936 10.7242C27.6936 10.7242 14.0623 23.2867 9.44043 25.3117L9.50606 20.8211L11.7092 13.1242L19.8186 9.63672L27.6936 10.7242Z" fill="#EFA5D1"/>
<path d="M1.61247 2.653L0.590595 4.29362C0.413048 4.5304 0.330048 4.82482 0.35778 5.11947C0.385512 5.41412 0.521987 5.68788 0.740595 5.88737C2.70935 7.18112 8.73747 10.153 4.23747 23.2499C4.1573 23.4862 4.15801 23.7425 4.23947 23.9784C4.32094 24.2143 4.47854 24.4165 4.68747 24.553C5.8031 25.228 8.0531 26.5592 9.44997 27.1967C9.5746 27.2513 9.70961 27.278 9.84561 27.2751C9.98162 27.2722 10.1154 27.2398 10.2376 27.18C10.3598 27.1202 10.4675 27.0346 10.5533 26.929C10.6391 26.8235 10.7009 26.7005 10.7343 26.5686C11.8125 23.3717 13.4812 12.8811 28.1906 12.2436C28.6261 12.2271 29.0391 12.0454 29.3455 11.7355C29.652 11.4255 29.829 11.0106 29.8406 10.5749C29.8406 9.99362 29.8406 9.31862 29.775 8.69987C29.7445 8.4616 29.6624 8.23285 29.5343 8.0296C29.4063 7.82636 29.2354 7.65353 29.0336 7.52318C28.8319 7.39283 28.6041 7.30811 28.3662 7.27494C28.1282 7.24176 27.886 7.26094 27.6562 7.33112C22.7595 8.47412 17.6654 8.47412 12.7687 7.33112C7.33122 6.028 4.4156 3.54362 3.18747 2.2405C2.81247 1.7905 2.0156 1.99675 1.61247 2.653Z" fill="#C65C91"/>
<path d="M2.06269 3.30976L1.45331 4.19101C1.3604 4.29566 1.30908 4.43075 1.30908 4.57069C1.30908 4.71064 1.3604 4.84573 1.45331 4.95038C2.89706 6.07538 10.1908 8.70038 5.40019 22.2004C5.32589 22.4012 5.32258 22.6214 5.39081 22.8244C5.45903 23.0273 5.59468 23.2008 5.77519 23.316C6.7432 23.8828 7.74158 24.3961 8.76581 24.8535C8.86603 24.8903 8.97264 24.9067 9.07929 24.9015C9.18594 24.8964 9.29047 24.8698 9.38666 24.8235C9.48286 24.7771 9.56876 24.7119 9.63926 24.6317C9.70976 24.5515 9.76342 24.458 9.79706 24.3566C10.9221 21.6004 13.5002 10.7254 27.8533 11.2316C27.939 11.2345 28.0243 11.2193 28.1037 11.187C28.1831 11.1546 28.2548 11.1059 28.3141 11.044C28.3734 10.982 28.4189 10.9083 28.4478 10.8275C28.4766 10.7468 28.4881 10.6609 28.4814 10.5754C28.4408 10.0269 28.3466 9.48367 28.2002 8.95351C28.1507 8.80586 28.0458 8.68322 27.9076 8.61149C27.7694 8.53977 27.6088 8.52458 27.4596 8.56913C22.5013 9.66857 17.3545 9.59151 12.4314 8.34413C6.56269 6.85351 3.69394 4.14413 2.81269 3.14101C2.60644 2.94413 2.25956 3.01913 2.06269 3.30976Z" fill="#EFA5D1"/>
<path d="M8.93421 9.02712C10.907 9.99415 13.0263 10.6277 15.2061 10.9021C15.4152 10.9406 15.6091 11.038 15.7647 11.183C15.9203 11.3279 16.0312 11.5143 16.0844 11.7203C16.1376 11.9262 16.1309 12.143 16.065 12.3452C15.999 12.5474 15.8767 12.7265 15.7123 12.8615C13.2719 15.0425 11.2124 17.6153 9.61858 20.474C9.57354 20.5943 9.50425 20.7041 9.415 20.7966C9.32575 20.889 9.21846 20.9621 9.09977 21.0113C8.98109 21.0606 8.85355 21.0849 8.72508 21.0827C8.59661 21.0806 8.46995 21.0521 8.35296 20.999L7.93108 20.8115C7.70427 20.6894 7.52533 20.4942 7.42324 20.2577C7.32115 20.0212 7.30189 19.7572 7.36858 19.5084C7.77171 17.7365 8.43733 13.7802 7.49983 10.3959C7.31233 9.54274 8.19358 8.67087 8.93421 9.02712Z" fill="#FCD0EC"/>
<g opacity="0.49">
<path d="M1.45297 5.55112C0.937349 6.28237 1.95922 10.3136 1.95922 10.3136C3.34672 6.62924 6.2436 13.1261 6.2436 13.1261C7.1436 9.75112 1.95922 4.81049 1.45297 5.55112Z" fill="#C65C91"/>
<path d="M26.6622 12.6394C26.9247 11.7019 19.3872 11.4113 14.981 16.53C14.981 16.53 22.9028 12.78 19.7153 18.5269C19.6872 18.5269 26.4091 13.5394 26.6622 12.6394Z" fill="#C65C91"/>
</g>
<path opacity="0.89" d="M1.45333 5.55078C1.45333 5.55078 9.3752 9.04766 4.77208 22.3227C4.77208 22.3227 1.00333 10.0508 1.45333 5.55078Z" fill="#4F213C"/>
<path opacity="0.89" d="M10.9502 25.4328C10.9502 25.4328 12.0846 13.3578 27.4408 11.7734C27.4408 11.7734 15.9939 23.6891 10.9502 25.4328Z" fill="#4F213C"/>
<path d="M26.7093 12.1859C22.6816 12.1178 18.7735 13.5554 15.7499 16.2172C13.8308 17.9928 12.4391 20.2637 11.728 22.7797C11.728 22.7797 15.6655 17.6984 19.453 15.5984C21.781 14.277 24.2068 13.1362 26.7093 12.1859Z" fill="#4F213C"/>
<path d="M2.38135 6.83594C2.38135 6.83594 6.01885 8.43906 5.8876 15.2828L5.54072 18.1891C5.54072 18.1891 4.6876 10.2578 2.38135 6.83594Z" fill="#823A61"/>
<path d="M9.46855 19.7914L7.93105 23.7664L6.1123 22.5852L7.36855 19.5195L9.46855 19.7914Z" fill="#FCD0EC"/>
<path d="M8.69046 9.17715L6.56234 6.85215C6.53587 6.8298 6.50477 6.81361 6.47129 6.80472C6.43781 6.79583 6.40277 6.79448 6.3687 6.80075C6.33463 6.80703 6.30238 6.82078 6.27426 6.84101C6.24614 6.86125 6.22286 6.88746 6.20609 6.91777L6.00921 7.2084C5.97926 7.25616 5.96338 7.3114 5.96338 7.36777C5.96338 7.42415 5.97926 7.47939 6.00921 7.52715L8.12796 10.5084C8.15483 10.5465 8.19494 10.5733 8.24046 10.5834L15.3655 12.5615H15.5061L20.3155 11.249C20.3815 11.234 20.4413 11.1989 20.4867 11.1486C20.532 11.0982 20.5606 11.035 20.5686 10.9678C20.5736 10.923 20.5681 10.8778 20.5526 10.8355C20.5371 10.7932 20.512 10.7552 20.4793 10.7243C20.4466 10.6934 20.4071 10.6705 20.3641 10.6574C20.321 10.6444 20.2755 10.6415 20.2311 10.649L15.4217 11.3053C15.3848 11.3144 15.3462 11.3144 15.3092 11.3053L8.74671 9.21465L8.69046 9.17715Z" fill="#FCD0EC"/>
<path d="M13.8377 19.9492L11.7752 27.2805H10.1533C10.1533 27.2805 11.6064 22.0961 12.3283 20.9148L13.8377 19.9492Z" fill="#4F213C"/>
<path d="M19.7906 18.2547C19.941 17.4745 20.3227 16.7576 20.8863 16.1974C21.4498 15.6373 22.1689 15.2598 22.95 15.1141L23.0719 13.7828L25.1625 13.5859L25.0594 14.9266C26.0755 14.9146 27.0661 15.2448 27.8719 15.8641L26.4469 17.5047C26.135 17.2243 25.7677 17.0127 25.3688 16.8834C24.9699 16.7542 24.5482 16.7104 24.1313 16.7547C22.8281 16.8297 22.0219 16.8578 22.2563 17.5703C22.3688 17.9547 23.3063 18.3391 24.6 18.7703C26.2406 19.3234 28.1063 20.6453 27.9656 23.0547C27.8845 24.0929 27.4672 25.0764 26.777 25.8563C26.0868 26.6361 25.1613 27.1698 24.1406 27.3766L24 29.2516L21.6844 29.0641L21.8437 27.3109C21.223 27.2229 20.6319 26.9894 20.1186 26.6293C19.6054 26.2692 19.1846 25.7928 18.8906 25.2391L20.2781 23.8422C20.6157 24.2842 21.0475 24.6456 21.542 24.9002C22.0366 25.1548 22.5816 25.2961 23.1375 25.3141C24.2719 25.3797 25.0125 24.8734 25.1063 23.8984C25.275 21.5828 20.2125 21.8922 19.8 18.9953C19.7642 18.7499 19.7611 18.5009 19.7906 18.2547Z" fill="#2F4D0D"/>
<path d="M17.7095 16.9234C17.8647 16.1502 18.249 15.4416 18.8125 14.8898C19.376 14.338 20.0925 13.9686 20.8688 13.8297L20.9907 12.5172L23.0813 12.3203L22.9782 13.6422C23.9944 13.6302 24.985 13.9604 25.7907 14.5797L24.3751 16.2297C24.0633 15.9493 23.696 15.7377 23.297 15.6084C22.8981 15.4792 22.4765 15.4354 22.0595 15.4797C20.7563 15.5547 20.0813 16.0797 20.0157 16.8203C19.7813 19.1922 26.0157 18.3203 25.772 22.5672C25.6688 24.4422 24.1313 25.7453 22.022 25.9797L21.8813 27.7797L19.6126 27.5547L19.772 25.8297C19.1532 25.743 18.5636 25.512 18.0506 25.1553C17.5376 24.7987 17.1156 24.3264 16.8188 23.7766L18.2063 22.3984C18.5434 22.844 18.9742 23.2102 19.4683 23.471C19.9623 23.7318 20.5077 23.8809 21.0657 23.9078C22.2001 23.9641 22.9407 23.4672 23.0345 22.5016C23.2032 20.0359 17.3063 20.6266 17.7095 16.9234Z" fill="#2F4D0D"/>
<path d="M17.7095 17.8609C17.8647 17.0877 18.249 16.3791 18.8125 15.8273C19.376 15.2755 20.0925 14.9061 20.8688 14.7672L20.9907 13.4547L23.0813 13.2578L22.9782 14.5797C23.9937 14.5721 24.9829 14.9018 25.7907 15.5172L24.3751 17.1672C24.0638 16.8865 23.6963 16.6752 23.297 16.5475C22.8978 16.4198 22.4759 16.3786 22.0595 16.4266C20.7563 16.4922 20.0813 17.0172 20.0157 17.7578C19.7813 20.1297 26.0157 19.2578 25.772 23.5047C25.6688 25.3797 24.1313 26.6828 22.022 26.9172L21.8813 28.7172L19.6126 28.4922L19.772 26.7672C19.1532 26.6805 18.5636 26.4495 18.0506 26.0928C17.5376 25.7362 17.1156 25.2639 16.8188 24.7141L18.2063 23.3359C18.5434 23.7815 18.9742 24.1477 19.4683 24.4085C19.9623 24.6693 20.5077 24.8184 21.0657 24.8453C22.2001 24.9016 22.9407 24.4047 23.0345 23.4391C23.2032 20.9734 17.3063 21.5641 17.7095 17.8609Z" fill="#2F4D0D"/>
<path d="M18.45 17.5508C18.6004 16.787 18.9781 16.0866 19.5335 15.5412C20.0889 14.9958 20.7962 14.631 21.5625 14.4945L21.675 13.1914L23.7187 13.0039L23.625 14.307C24.6045 14.3087 25.5552 14.6388 26.325 15.2445L24.9187 16.8758C24.6156 16.6 24.2577 16.3915 23.8683 16.2638C23.4789 16.1362 23.0669 16.0923 22.6594 16.1352C21.3844 16.2102 20.7281 16.7352 20.6625 17.457C20.4375 19.8102 26.5219 18.9383 26.2875 23.1383C26.175 25.0133 24.675 26.2883 22.6594 26.5227L22.5 28.2852L20.2875 28.0695L20.4469 26.3633C19.8472 26.2776 19.2757 26.0533 18.7778 25.7083C18.2798 25.3633 17.8691 24.9071 17.5781 24.3758L18.9281 23.0164C19.2561 23.4588 19.6789 23.8223 20.1656 24.0802C20.6522 24.3381 21.1904 24.484 21.7406 24.507C22.8469 24.5633 23.6156 24.0664 23.6156 23.1102C23.8219 20.6258 18.0563 21.1695 18.45 17.5508Z" fill="#B6F967"/>
</g>
<defs>
<clipPath id="clip0_47_32839">
<rect width="30" height="30" fill="white"/>
</clipPath>
</defs>
</svg>
