<svg width="100" height="32" viewBox="0 0 100 32" fill="none" xmlns="http://www.w3.org/2000/svg">
<g clip-path="url(#clip0_47_91812)">
<path d="M86.871 19.7877H91.0674V7.19852H86.871V19.7877ZM78.0336 2.98433H89.9471C91.6067 2.98433 93.0026 3.09303 94.1345 3.30955C95.2665 3.5266 96.2032 3.81582 96.9441 4.17721C97.6849 4.53844 98.2537 4.95727 98.6511 5.43316C99.0482 5.90905 99.3417 6.40917 99.5313 6.93336C99.7207 7.45702 99.8305 7.98735 99.8603 8.52347C99.8897 9.0596 99.9047 9.56868 99.9047 10.0505V16.9359C99.9047 17.4179 99.8897 17.9271 99.8603 18.4632C99.8305 18.9993 99.7207 19.5261 99.5313 20.0441C99.3417 20.5623 99.0482 21.0626 98.6511 21.5442C98.2537 22.0263 97.6849 22.4481 96.9441 22.8092C96.2032 23.1708 95.2665 23.4596 94.1345 23.6771C93.0026 23.8934 91.6067 24.002 89.9471 24.002H86.871V28.9474H78.0336V2.98433ZM64.9476 24.7509H60.7511V7.18078H64.9476V24.7509ZM73.6962 7.98981C73.6366 7.45034 73.4887 6.91404 73.2517 6.38054C73.0142 5.84706 72.6586 5.33447 72.1846 4.84241C71.7106 4.35072 71.0645 3.91785 70.2465 3.54451C69.4285 3.17099 68.4061 2.87176 67.1793 2.64646C65.9523 2.42151 64.4675 2.30859 62.725 2.30859C60.994 2.30859 59.527 2.42151 58.3241 2.64646C57.1209 2.87176 56.1192 3.17099 55.319 3.54451C54.5189 3.91785 53.8904 4.35072 53.4341 4.84241C52.9778 5.33447 52.6367 5.84706 52.4118 6.38054C52.1865 6.91404 52.0472 7.45034 51.9939 7.98981C51.9405 8.52944 51.9139 9.03624 51.9139 9.51003V22.3327C51.9139 22.8067 51.9405 23.3166 51.9939 23.8618C52.0472 24.407 52.1865 24.9495 52.4118 25.4888C52.6367 26.0282 52.9778 26.5468 53.4341 27.0447C53.8904 27.5425 54.5189 27.9812 55.319 28.3605C56.1192 28.7398 57.1239 29.0452 58.3329 29.2762C59.5421 29.5073 61.0061 29.6229 62.725 29.6229C64.4675 29.6229 65.9523 29.5073 67.1793 29.2762C68.4061 29.0452 69.4285 28.7398 70.2465 28.3605C71.0645 27.9812 71.7106 27.5425 72.1846 27.0447C72.6586 26.5468 73.0142 26.0282 73.2517 25.4888C73.4887 24.9495 73.6366 24.407 73.6962 23.8618C73.7555 23.3166 73.785 22.8067 73.785 22.3327V9.51003C73.785 9.03624 73.7555 8.52944 73.6962 7.98981ZM38.8983 15.6803H34.7019V7.19852H38.8983V15.6803ZM46.3933 18.7676C46.008 18.3836 45.5932 18.1058 45.1485 17.9344C44.704 17.7629 44.2921 17.6594 43.9128 17.6239C44.7308 17.481 45.3914 17.2184 45.8953 16.8363C46.3992 16.4545 46.7871 15.9952 47.06 15.4578C47.3327 14.9206 47.5134 14.3207 47.6025 13.6584C47.6913 12.9959 47.7357 12.3127 47.7357 11.6083C47.7357 10.8615 47.718 10.1266 47.6824 9.40344C47.6469 8.68064 47.5339 7.99876 47.3445 7.3585C47.1549 6.71842 46.8526 6.13172 46.4377 5.59822C46.0225 5.06474 45.433 4.60535 44.6685 4.22007C43.9038 3.83514 42.9318 3.53292 41.7523 3.31324C40.5726 3.0939 39.1233 2.98433 37.4047 2.98433H25.8645V28.9474H34.7019V19.8945H38.8983V28.9474H47.7357V22.7119C47.7357 21.7427 47.6082 20.9397 47.3534 20.301C47.0982 19.6628 46.7783 19.1516 46.3933 18.7676ZM13.0338 24.7332H8.83739V7.19852H13.0338V24.7332ZM21.8268 8.43427C21.7971 7.90709 21.6906 7.38519 21.5066 6.86961C21.3226 6.35385 21.0294 5.86216 20.6266 5.39365C20.2235 4.92547 19.6546 4.5135 18.9195 4.1579C18.1843 3.8023 17.2508 3.51782 16.1189 3.30446C14.9867 3.09109 13.5911 2.98433 11.9314 2.98433H0V28.9474H11.9314C13.5911 28.9474 14.9867 28.8405 16.1189 28.6273C17.2508 28.4139 18.1843 28.1264 18.9195 27.7648C19.6546 27.4032 20.2235 26.9883 20.6266 26.5201C21.0294 26.052 21.3226 25.5569 21.5066 25.0354C21.6906 24.5138 21.7971 23.9893 21.8268 23.4618C21.8561 22.9342 21.8713 22.4334 21.8713 21.9591V9.93692C21.8713 9.46296 21.8561 8.96179 21.8268 8.43427Z" fill="white"/>
</g>
<defs>
<clipPath id="clip0_47_91812">
<rect width="100" height="32" fill="white"/>
</clipPath>
</defs>
</svg>
