<svg width="16" height="16" viewBox="0 0 16 16" fill="none" xmlns="http://www.w3.org/2000/svg">
<path fill-rule="evenodd" clip-rule="evenodd" d="M3.77021 7.18286C3.66083 7.29274 3.5743 7.4232 3.51563 7.5667C3.45695 7.71021 3.42729 7.86392 3.42835 8.01895C3.42941 8.17399 3.46118 8.32728 3.52182 8.46997C3.58246 8.61266 3.67076 8.74192 3.78164 8.85029L10.5462 15.6354C10.6548 15.7502 10.7855 15.8417 10.9305 15.9043C11.0755 15.967 11.2317 15.9995 11.3896 16C11.6199 15.999 11.8448 15.9303 12.0364 15.8025C12.228 15.6747 12.3778 15.4934 12.4671 15.2811C12.5565 15.0689 12.5815 14.8351 12.5391 14.6087C12.4967 14.3824 12.3887 14.1735 12.2285 14.008L12.2331 14.0046L6.30164 8.032L12.2274 2.016L12.2228 2.01143C12.3888 1.84777 12.5023 1.63844 12.549 1.41007C12.5956 1.1817 12.5733 0.94461 12.4848 0.72896C12.3964 0.51331 12.2458 0.328848 12.0522 0.199041C11.8586 0.0692342 11.6307 -5.08611e-05 11.3976 2.8013e-08C11.0571 2.8013e-08 10.7565 0.148571 10.5428 0.380571L3.76564 7.18057L3.77021 7.18286Z" fill="#D9D9D9"/>
</svg>
