<svg width="22" height="21" viewBox="0 0 22 21" fill="none" xmlns="http://www.w3.org/2000/svg">
<path d="M22.0002 11.1784V13.5354C22.0002 14.1762 21.4942 14.7025 20.8672 14.7025H18.7442C17.5562 14.7025 16.4672 13.7986 16.3682 12.5629C16.3022 11.8421 16.5662 11.167 17.0282 10.6979C17.4352 10.2631 17.9962 10.0114 18.6122 10.0114H20.8672C21.4942 10.0114 22.0002 10.5377 22.0002 11.1784Z" fill="#15161E"/>
<path d="M14.7179 12.7123C14.6189 11.5109 15.0369 10.3324 15.8729 9.4743C16.5769 8.73058 17.5559 8.2958 18.6119 8.2958H19.2388C19.5468 8.2958 19.7998 8.03264 19.7558 7.71227C19.4588 5.49256 17.6109 3.7763 15.3999 3.7763H4.39996C1.96898 3.7763 0 5.82437 0 8.35301V16.3622C0 18.8909 1.96898 20.939 4.39996 20.939H15.3999C17.6219 20.939 19.4588 19.2227 19.7558 17.003C19.7998 16.6826 19.5468 16.4195 19.2388 16.4195H18.7438C16.6539 16.4195 14.8939 14.7947 14.7179 12.7123ZM12.0999 10.3553H5.49996C5.04896 10.3553 4.67496 9.97774 4.67496 9.49718C4.67496 9.01663 5.04896 8.63905 5.49996 8.63905H12.0999C12.5509 8.63905 12.9249 9.02807 12.9249 9.49718C12.9249 9.9663 12.5509 10.3553 12.0999 10.3553Z" fill="#15161E"/>
<path d="M13.4311 1.29292C13.7171 1.60185 13.4641 2.05952 13.0462 2.05952H4.43318C3.23419 2.05952 2.1122 2.42566 1.1772 3.05495C0.748205 3.341 0.16521 3.03207 0.374209 2.54007C0.990203 1.0412 2.43119 0 4.09218 0H10.2741C11.5502 0 12.6832 0.469113 13.4311 1.29292Z" fill="#15161E"/>
</svg>
