<svg width="30" height="30" viewBox="0 0 30 30" fill="none" xmlns="http://www.w3.org/2000/svg">
<g clip-path="url(#clip0_47_53728)">
<path d="M15 0.374648C10.6875 -0.937852 6.1875 1.31215 4.96875 5.3434L3 11.8121C8.25 13.1246 13.5 14.9059 18.75 16.5934L20.7188 10.1246C21.9375 5.99965 19.4063 1.68715 15 0.374648Z" fill="#4F1C21"/>
<path d="M2.99996 11.9062L1.03121 18.375C-0.187542 22.4063 2.34371 26.8125 6.65621 28.125C10.9687 29.4375 15.5625 27.1875 16.7812 23.1563L18.75 16.6875C13.5 14.9062 8.24996 13.125 2.99996 11.9062Z" fill="#4F1C21"/>
<path d="M18.7597 16.6192C19.312 14.7849 16.2231 12.233 11.8604 10.9194C7.49769 9.60582 3.51329 10.0279 2.96098 11.8623C2.40867 13.6966 5.49761 16.2485 9.86031 17.5621C14.223 18.8757 18.2074 18.4535 18.7597 16.6192Z" fill="#4F1C21"/>
<path d="M14.5312 1.77985C10.875 0.654846 7.125 2.71735 6 6.3736L4.21875 12.1861C8.625 13.2173 12.9375 14.7173 17.25 16.1236L19.0312 10.3111C20.1562 6.7486 18.0938 2.90485 14.5312 1.77985Z" fill="#DD575E"/>
<path d="M4.21881 12.1875L2.53131 17.9063C1.40631 21.5625 3.46881 25.3125 7.12506 26.4375C10.7813 27.5625 14.5313 25.5 15.6563 21.8437L17.3438 16.125C12.9376 14.7188 8.62506 13.2188 4.21881 12.1875Z" fill="#D8D8D8"/>
<path d="M5.62506 11.5312L3.93756 17.25C2.81256 20.9062 4.87506 24.6562 8.53131 25.7812C12.1876 26.9062 15.9376 24.8438 17.0626 21.1875L18.7501 15.4687C14.3438 14.0625 10.0313 12.5625 5.62506 11.5312Z" fill="#F9F9F9"/>
<path d="M17.3571 16.1206C17.8497 14.4845 15.3152 12.2749 11.6961 11.1852C8.07706 10.0956 4.7439 10.5384 4.2513 12.1745C3.7587 13.8105 6.2932 16.0201 9.91227 17.1098C13.5313 18.1995 16.8645 17.7566 17.3571 16.1206Z" fill="#DD575E"/>
<path d="M5.4375 12.4695C5.4375 12.4695 6.65625 15.1882 9.75 15.0007L12.375 5.43824C12.375 5.43824 13.125 3.56324 15.2812 3.65699C15.2812 3.65699 9.28125 1.50074 7.21875 6.00074L5.4375 12.4695Z" fill="#F97D89"/>
<path d="M18.4688 4.96875L17.3437 10.5L16.125 14.25L18.4688 12.8438L19.4062 9.09375C19.4062 9.09375 19.5 6.375 18.4688 4.96875Z" fill="#C14C57"/>
<path d="M12.0937 20.0625L8.90625 22.5938L9.46875 25.5938L29.8125 20.0625L29.1563 16.7812L12.0937 20.0625Z" fill="#18303F"/>
<path d="M14.8125 17.4357L10.125 22.6857C8.53123 24.467 9.37498 27.2795 11.7187 27.842L18.5625 29.5295C20.7187 30.092 22.9687 29.342 24.375 27.7482L29.0625 22.4982C30.6562 20.717 29.8125 17.9045 27.4687 17.342L20.625 15.6545C18.4687 15.092 16.2187 15.842 14.8125 17.4357Z" fill="#18303F"/>
<path d="M14.3437 14.8107L9.65623 20.0607C8.06248 21.842 8.90623 24.6545 11.25 25.217L18.0937 26.9045C20.25 27.467 22.5 26.717 23.9062 25.1232L28.5937 19.8732C30.1875 18.092 29.3437 15.2795 27 14.717L20.1562 13.0295C18.0937 12.467 15.8437 13.217 14.3437 14.8107Z" fill="#18303F"/>
<path d="M13.2188 20.0625L10.5938 22.2188L11.0625 24.75L28.125 20.0625L27.5625 17.3438L13.2188 20.0625Z" fill="#36648E"/>
<path d="M15.5623 17.9082L11.6248 22.3144C10.3123 23.8144 11.0623 26.1582 12.9373 26.6269L18.6561 28.1269C20.4373 28.5957 22.3123 28.0332 23.5311 26.6269L27.4686 22.2207C28.7811 20.7207 28.0311 18.3769 26.1561 17.9082L20.4373 16.4082C18.6561 15.9394 16.7811 16.5019 15.5623 17.9082Z" fill="#36648E"/>
<path d="M15.1873 15.7519L11.2498 20.1582C9.93732 21.6582 10.6873 24.0019 12.5623 24.4707L18.2811 25.9707C20.0623 26.4394 21.9373 25.8769 23.1561 24.4707L27.0936 20.0644C28.4061 18.5644 27.6561 16.2207 25.7811 15.7519L20.0623 14.2519C18.2811 13.7832 16.4061 14.3457 15.1873 15.7519Z" fill="#4A7DB4"/>
<path d="M15.7498 16.7818L12.8435 20.0631C11.906 21.1881 12.3748 22.8756 13.8748 23.2506L18.0935 24.2818C19.406 24.6568 20.8123 24.1881 21.7498 23.1568L24.656 19.8756C25.5935 18.7506 25.1248 17.0631 23.6248 16.6881L19.406 15.6568C18.0935 15.3756 16.6873 15.7506 15.7498 16.7818Z" fill="#72AADD"/>
</g>
<defs>
<clipPath id="clip0_47_53728">
<rect width="30" height="30" fill="white"/>
</clipPath>
</defs>
</svg>
